G04*
G04 #@! TF.GenerationSoftware,Altium Limited,Altium Designer,20.0.11 (256)*
G04*
G04 Layer_Physical_Order=1*
G04 Layer_Color=255*
%FSLAX25Y25*%
%MOIN*%
G70*
G01*
G75*
%ADD11C,0.02000*%
%ADD14C,0.01000*%
%ADD19R,0.02500X0.05000*%
G04:AMPARAMS|DCode=20|XSize=39.37mil|YSize=35.43mil|CornerRadius=4.43mil|HoleSize=0mil|Usage=FLASHONLY|Rotation=90.000|XOffset=0mil|YOffset=0mil|HoleType=Round|Shape=RoundedRectangle|*
%AMROUNDEDRECTD20*
21,1,0.03937,0.02657,0,0,90.0*
21,1,0.03051,0.03543,0,0,90.0*
1,1,0.00886,0.01329,0.01526*
1,1,0.00886,0.01329,-0.01526*
1,1,0.00886,-0.01329,-0.01526*
1,1,0.00886,-0.01329,0.01526*
%
%ADD20ROUNDEDRECTD20*%
%ADD21C,0.01378*%
%ADD22O,0.09843X0.02559*%
G04:AMPARAMS|DCode=23|XSize=39.37mil|YSize=35.43mil|CornerRadius=4.43mil|HoleSize=0mil|Usage=FLASHONLY|Rotation=0.000|XOffset=0mil|YOffset=0mil|HoleType=Round|Shape=RoundedRectangle|*
%AMROUNDEDRECTD23*
21,1,0.03937,0.02657,0,0,0.0*
21,1,0.03051,0.03543,0,0,0.0*
1,1,0.00886,0.01526,-0.01329*
1,1,0.00886,-0.01526,-0.01329*
1,1,0.00886,-0.01526,0.01329*
1,1,0.00886,0.01526,0.01329*
%
%ADD23ROUNDEDRECTD23*%
%ADD24R,0.02953X0.03740*%
%ADD25R,0.03740X0.02953*%
%ADD44C,0.00800*%
%ADD45C,0.00600*%
%ADD46C,0.00500*%
%ADD47C,0.02500*%
%ADD48C,0.01200*%
%ADD49C,0.05906*%
%ADD50R,0.05906X0.05906*%
%ADD51C,0.06102*%
%ADD52R,0.06102X0.06102*%
%ADD53C,0.25000*%
%ADD54O,0.11000X0.06000*%
%ADD55R,0.11000X0.06000*%
%ADD56O,0.06000X0.11000*%
%ADD57R,0.06000X0.11000*%
%ADD58C,0.02400*%
D11*
X457500Y155000D02*
Y172421D01*
X457480Y172441D02*
X457500Y172421D01*
X402007Y215786D02*
X405983D01*
X401968Y215748D02*
X402007Y215786D01*
X465155Y281878D02*
X504724D01*
Y273864D02*
Y281878D01*
X493136Y255776D02*
Y262275D01*
X504724Y273864D01*
X496379Y255776D02*
X496629Y256026D01*
Y259607D01*
X502022Y265000D02*
X517500D01*
X496629Y259607D02*
X502022Y265000D01*
X435631Y250649D02*
X442265D01*
X459548Y252307D02*
X460193D01*
X477216Y235284D01*
X517216D01*
X504724Y281878D02*
Y318828D01*
X505896Y320000D02*
X517500D01*
X504724Y318828D02*
X505896Y320000D01*
X459498Y292771D02*
Y302314D01*
X480755Y276442D02*
X487822D01*
X473639D02*
X480755D01*
X411416Y353198D02*
X412041Y353823D01*
X411416Y348724D02*
Y353198D01*
X417716Y314969D02*
Y325518D01*
X422440Y307683D02*
Y310245D01*
X417716Y314969D02*
X422440Y310245D01*
X386220Y326389D02*
X388187D01*
X381888D02*
X386220D01*
Y312014D02*
Y326389D01*
X399605Y326388D02*
X402911D01*
X399213D02*
X399605D01*
X398403D02*
X399213D01*
Y326393D01*
X399605Y322021D02*
Y326388D01*
X395966Y318381D02*
X399605Y322021D01*
X395966Y317324D02*
Y318381D01*
Y312324D02*
Y317324D01*
Y312324D02*
X397140Y311150D01*
X414056D01*
X416141Y309065D01*
X431042Y250649D02*
X434722D01*
X394233Y254682D02*
Y267970D01*
Y254682D02*
X397138Y251777D01*
X397057Y230773D02*
X401575Y226255D01*
Y169699D02*
Y226255D01*
Y169699D02*
X403542Y167732D01*
X397138Y251777D02*
X405966D01*
X397500Y239370D02*
Y251415D01*
X397138Y251777D02*
X397500Y251415D01*
X397057Y230773D02*
Y232793D01*
X396779Y233071D02*
X397057Y232793D01*
X403542Y167732D02*
X424015D01*
X482677Y330709D02*
Y381102D01*
X479528Y327559D02*
X482677Y330709D01*
X464712Y327559D02*
X479528D01*
X470079Y393701D02*
X482677Y381102D01*
X436030Y393701D02*
X470079D01*
X428078Y385749D02*
X436030Y393701D01*
X453937Y316783D02*
X464712Y327559D01*
X453937Y302363D02*
Y316783D01*
X428078Y385749D02*
X445455D01*
X425794Y383465D02*
X428078Y385749D01*
X436415Y377994D02*
X438779Y375630D01*
X472913D02*
Y383465D01*
X448698Y385749D02*
X470629D01*
X472913Y383465D01*
X401266D02*
X425794D01*
X426966Y377994D02*
Y382293D01*
X425794Y383465D02*
X426966Y382293D01*
X396582Y378978D02*
X396779D01*
X401266Y383465D01*
X414969Y377994D02*
X421454D01*
X411614Y353823D02*
X412041D01*
X438779Y368823D02*
Y375630D01*
X426966Y377994D02*
X436415D01*
X517216Y235284D02*
X517500Y235000D01*
X459548Y252307D02*
Y275000D01*
X442265Y250649D02*
X449249Y243665D01*
X450906D02*
X459548Y252307D01*
X449249Y243665D02*
X450906D01*
X434722Y251557D02*
X435631Y250649D01*
X414291Y251969D02*
X421260D01*
X480755Y276442D02*
Y276462D01*
Y272126D02*
Y276442D01*
X473620Y276423D02*
X473639Y276442D01*
X487822D02*
X487841Y276462D01*
X469336Y276423D02*
X473620D01*
X469291Y276378D02*
X469336Y276423D01*
X487841Y276462D02*
X492138D01*
X487841Y272126D02*
Y276462D01*
X473620Y272126D02*
Y276423D01*
X459448Y302363D02*
X459498Y302413D01*
Y307587D01*
X459548Y307636D01*
X459498Y292771D02*
X459548Y292722D01*
X459448Y302363D02*
X459498Y302314D01*
X454036Y292722D02*
Y297446D01*
X454035Y297446D02*
X454036Y297446D01*
X453937Y302363D02*
X453986Y302314D01*
Y297496D02*
Y302314D01*
Y297496D02*
X454035Y297446D01*
X382677Y284847D02*
X387008D01*
X391981Y298748D02*
X392300Y298428D01*
X391981Y298748D02*
Y302363D01*
X382677Y298428D02*
X386788D01*
X392520Y284847D02*
X392673Y285000D01*
X396663D01*
X447500Y155000D02*
X447667Y155167D01*
X514685Y295000D02*
X517500D01*
Y320000D02*
Y325000D01*
Y315000D02*
Y320000D01*
X465155Y281878D02*
Y284634D01*
X466944Y286423D02*
X487841D01*
X465155Y284634D02*
X466944Y286423D01*
X487841D02*
X498937Y297519D01*
Y342520D01*
X501418Y345000D01*
X517500D01*
X516870Y355630D02*
X517500Y355000D01*
X498937Y355630D02*
X516870D01*
X494488Y351181D02*
X498937Y355630D01*
X486614Y289572D02*
X494488Y297446D01*
Y351181D01*
X459234Y284421D02*
X464385Y289572D01*
X486614D01*
X459234Y282649D02*
Y284421D01*
X458462Y281878D02*
X459234Y282649D01*
X458283Y281698D02*
X458462Y281878D01*
X446850Y281698D02*
X458283D01*
X416141Y307683D02*
Y309065D01*
X390598Y307636D02*
X413541D01*
X386220Y312014D02*
X390598Y307636D01*
X396663Y326388D02*
X397057D01*
X397533Y325911D01*
X410234Y326389D02*
X416534D01*
D14*
X456098Y332429D02*
X457626D01*
X455875Y332206D02*
X456098Y332429D01*
X453484Y332206D02*
X455875D01*
X446996D02*
Y333456D01*
X441075Y339377D02*
X446996Y333456D01*
X441075Y339377D02*
Y341614D01*
X440807Y341882D02*
X441075Y341614D01*
X459548Y292722D02*
Y297446D01*
X452124Y288033D02*
X458009D01*
X451813D02*
X452124D01*
X459548Y289572D02*
Y292722D01*
X458009Y288033D02*
X459548Y289572D01*
X444487Y302171D02*
X448891Y306575D01*
X449808D01*
X320000Y146500D02*
X525500D01*
Y400500D01*
X320000D02*
X525500D01*
X320000Y146500D02*
Y400500D01*
D19*
X493136Y255776D02*
D03*
X496379D02*
D03*
X446996Y332206D02*
D03*
X450240D02*
D03*
X453484D02*
D03*
X448698Y385749D02*
D03*
X445455D02*
D03*
D20*
X412984Y224953D02*
D03*
X419676D02*
D03*
X363188Y325888D02*
D03*
X356495D02*
D03*
X356306Y316932D02*
D03*
X362999D02*
D03*
X465155Y281878D02*
D03*
X458462D02*
D03*
X427262Y226900D02*
D03*
X433955D02*
D03*
X433909Y220234D02*
D03*
X427216D02*
D03*
X419831Y233346D02*
D03*
X413138D02*
D03*
X405983Y215786D02*
D03*
X412676D02*
D03*
D21*
X444487Y261226D02*
D03*
X441338D02*
D03*
X438188D02*
D03*
X435038D02*
D03*
X431889D02*
D03*
X428739D02*
D03*
X425590D02*
D03*
X422440D02*
D03*
X419290D02*
D03*
X416141D02*
D03*
X412991D02*
D03*
X409842D02*
D03*
X406692D02*
D03*
X403542D02*
D03*
X444487Y264375D02*
D03*
X441338D02*
D03*
X438188D02*
D03*
X435038D02*
D03*
X431889D02*
D03*
X428739D02*
D03*
X425590D02*
D03*
X422440D02*
D03*
X419290D02*
D03*
X416141D02*
D03*
X412991D02*
D03*
X409842D02*
D03*
X406692D02*
D03*
X403542D02*
D03*
X444487Y267525D02*
D03*
X441338D02*
D03*
X438188D02*
D03*
X435038D02*
D03*
X431889D02*
D03*
X428739D02*
D03*
X425590D02*
D03*
X422440D02*
D03*
X419290D02*
D03*
X416141D02*
D03*
X412991D02*
D03*
X409842D02*
D03*
X406692D02*
D03*
X403542D02*
D03*
X444487Y270675D02*
D03*
X441338D02*
D03*
X438188D02*
D03*
X435038D02*
D03*
X431889D02*
D03*
X428739D02*
D03*
X425590D02*
D03*
X422440D02*
D03*
X419290D02*
D03*
X416141D02*
D03*
X412991D02*
D03*
X409842D02*
D03*
X406692D02*
D03*
X403542D02*
D03*
X444487Y273824D02*
D03*
X441338D02*
D03*
X438188D02*
D03*
X435038D02*
D03*
X431889D02*
D03*
X428739D02*
D03*
X425590D02*
D03*
X422440D02*
D03*
X419290D02*
D03*
X416141D02*
D03*
X412991D02*
D03*
X409842D02*
D03*
X406692D02*
D03*
X403542D02*
D03*
X444487Y276974D02*
D03*
X441338D02*
D03*
X438188D02*
D03*
X435038D02*
D03*
X431889D02*
D03*
X428739D02*
D03*
X425590D02*
D03*
X422440D02*
D03*
X419290D02*
D03*
X416141D02*
D03*
X412991D02*
D03*
X409842D02*
D03*
X406692D02*
D03*
X403542D02*
D03*
X444487Y280123D02*
D03*
X441338D02*
D03*
X438188D02*
D03*
X435038D02*
D03*
X431889D02*
D03*
X428739D02*
D03*
X425590D02*
D03*
X422440D02*
D03*
X419290D02*
D03*
X416141D02*
D03*
X412991D02*
D03*
X409842D02*
D03*
X406692D02*
D03*
X403542D02*
D03*
X444487Y283273D02*
D03*
X441338D02*
D03*
X438188D02*
D03*
X435038D02*
D03*
X431889D02*
D03*
X428739D02*
D03*
X425590D02*
D03*
X422440D02*
D03*
X419290D02*
D03*
X416141D02*
D03*
X412991D02*
D03*
X409842D02*
D03*
X406692D02*
D03*
X403542D02*
D03*
X444487Y286423D02*
D03*
X441338D02*
D03*
X438188D02*
D03*
X435038D02*
D03*
X431889D02*
D03*
X428739D02*
D03*
X425590D02*
D03*
X422440D02*
D03*
X419290D02*
D03*
X416141D02*
D03*
X412991D02*
D03*
X409842D02*
D03*
X406692D02*
D03*
X403542D02*
D03*
X444487Y289572D02*
D03*
X441338D02*
D03*
X438188D02*
D03*
X435038D02*
D03*
X431889D02*
D03*
X428739D02*
D03*
X425590D02*
D03*
X422440D02*
D03*
X419290D02*
D03*
X416141D02*
D03*
X412991D02*
D03*
X409842D02*
D03*
X406692D02*
D03*
X403542D02*
D03*
X444487Y292722D02*
D03*
X441338D02*
D03*
X438188D02*
D03*
X435038D02*
D03*
X431889D02*
D03*
X428739D02*
D03*
X425590D02*
D03*
X422440D02*
D03*
X419290D02*
D03*
X416141D02*
D03*
X412991D02*
D03*
X409842D02*
D03*
X406692D02*
D03*
X403542D02*
D03*
X444487Y295872D02*
D03*
X441338D02*
D03*
X438188D02*
D03*
X435038D02*
D03*
X431889D02*
D03*
X428739D02*
D03*
X425590D02*
D03*
X422440D02*
D03*
X419290D02*
D03*
X416141D02*
D03*
X412991D02*
D03*
X409842D02*
D03*
X406692D02*
D03*
X403542D02*
D03*
X444487Y299021D02*
D03*
X441338D02*
D03*
X438188D02*
D03*
X435038D02*
D03*
X431889D02*
D03*
X428739D02*
D03*
X425590D02*
D03*
X422440D02*
D03*
X419290D02*
D03*
X416141D02*
D03*
X412991D02*
D03*
X409842D02*
D03*
X406692D02*
D03*
X403542D02*
D03*
X444487Y302171D02*
D03*
X441338D02*
D03*
X438188D02*
D03*
X435038D02*
D03*
X431889D02*
D03*
X428739D02*
D03*
X425590D02*
D03*
X422440D02*
D03*
X419290D02*
D03*
X416141D02*
D03*
X412991D02*
D03*
X409842D02*
D03*
X406692D02*
D03*
X403542D02*
D03*
D22*
X411614Y368823D02*
D03*
Y363823D02*
D03*
Y358823D02*
D03*
Y353823D02*
D03*
X438779Y368823D02*
D03*
Y363823D02*
D03*
Y358823D02*
D03*
Y353823D02*
D03*
D23*
X396582Y372285D02*
D03*
Y378978D02*
D03*
D24*
X426966Y377994D02*
D03*
X421454D02*
D03*
X392300Y298428D02*
D03*
X386788D02*
D03*
X387008Y284847D02*
D03*
X392520D02*
D03*
X459448Y302363D02*
D03*
X453937D02*
D03*
X454036Y292722D02*
D03*
X459548D02*
D03*
D25*
X381888Y326389D02*
D03*
Y331901D02*
D03*
X388187Y326389D02*
D03*
Y331901D02*
D03*
X396663Y326388D02*
D03*
Y331899D02*
D03*
X402911Y326388D02*
D03*
Y331899D02*
D03*
X410234Y326389D02*
D03*
Y331901D02*
D03*
X416534Y326389D02*
D03*
Y331901D02*
D03*
X424602Y325982D02*
D03*
Y331493D02*
D03*
X487841Y276462D02*
D03*
Y281974D02*
D03*
X480755Y276462D02*
D03*
Y281974D02*
D03*
X473620Y276423D02*
D03*
Y281934D02*
D03*
X438584Y245276D02*
D03*
Y250788D02*
D03*
X431042Y250649D02*
D03*
Y245137D02*
D03*
D44*
X419685Y224410D02*
X419772Y224322D01*
Y220036D02*
Y224322D01*
X433909Y220234D02*
Y232030D01*
X434311Y232433D01*
X419648Y224925D02*
X419676Y224953D01*
X436672Y205000D02*
X477248D01*
X427216Y214456D02*
X436672Y205000D01*
X427216Y214456D02*
Y220234D01*
X430562Y214253D02*
X437798Y207017D01*
X430562Y214253D02*
Y223402D01*
X427262Y226703D02*
X430562Y223402D01*
X419831Y233346D02*
Y238565D01*
X419775Y238620D02*
X419831Y238565D01*
X486560Y155940D02*
X487500Y155000D01*
X486560Y155940D02*
Y195688D01*
X477248Y205000D02*
X486560Y195688D01*
X502362Y169638D02*
Y182705D01*
X478050Y207017D02*
X502362Y182705D01*
X437798Y207017D02*
X478050D01*
X507500Y155000D02*
Y164500D01*
X502362Y169638D02*
X507500Y164500D01*
X427262Y226703D02*
Y226900D01*
X421260Y314253D02*
Y323033D01*
X424440Y305746D02*
Y311073D01*
X421260Y314253D02*
X424440Y311073D01*
X420829Y304375D02*
Y305333D01*
X420041Y306122D02*
X420829Y305333D01*
X454036Y292722D02*
X454036Y292722D01*
X454035Y292722D02*
X454036Y292722D01*
X422440Y280123D02*
X424015Y281698D01*
X406692Y275399D02*
Y276974D01*
Y273824D02*
Y275399D01*
X424015Y305320D02*
X424440Y305746D01*
X424209Y325982D02*
X424602D01*
X421260Y323033D02*
X424209Y325982D01*
X397057Y302171D02*
X403542D01*
Y302327D01*
X454035Y292722D02*
Y297446D01*
X449212Y292722D02*
X454035D01*
X444487Y261226D02*
X449808Y255906D01*
X450394D01*
X398403Y256087D02*
X403542Y261226D01*
X398403Y255906D02*
Y256087D01*
X419290Y257480D02*
X421260D01*
X416141D02*
X419290D01*
X422440Y258660D02*
Y261226D01*
X421260Y257480D02*
X422440Y258660D01*
X419290Y267525D02*
Y270675D01*
Y264375D02*
Y267525D01*
Y261226D02*
Y264375D01*
Y257480D02*
Y261226D01*
X416141Y270675D02*
Y273824D01*
Y267525D02*
Y270675D01*
Y264375D02*
Y267525D01*
Y261226D02*
Y264375D01*
Y257480D02*
Y261226D01*
X419290Y289572D02*
Y292722D01*
Y289572D02*
X422440Y286423D01*
Y283273D02*
X424015Y281698D01*
X425590Y283273D01*
X422440D02*
Y286423D01*
X425590Y283273D02*
Y286423D01*
X424015Y281698D02*
X425590Y280123D01*
D45*
X418110Y212228D02*
Y217422D01*
X412984Y224953D02*
X413096Y224840D01*
Y222436D02*
X418110Y217422D01*
X413096Y222436D02*
Y224840D01*
X418110Y212228D02*
X433835Y196503D01*
X390551Y238583D02*
Y263779D01*
X412927Y212048D02*
Y216207D01*
X412676Y216458D02*
X412927Y216207D01*
X412598Y216535D02*
X412676Y216458D01*
Y219214D01*
Y215786D02*
Y216458D01*
X393307Y235827D02*
X403937D01*
X390551Y238583D02*
X393307Y235827D01*
X405118Y222441D02*
Y234646D01*
X403937Y235827D02*
X405118Y234646D01*
Y222441D02*
X406299Y221260D01*
X410630D01*
X412676Y219214D01*
X433835Y168835D02*
Y196503D01*
X430068Y196701D02*
Y196810D01*
X414665Y210310D02*
X416568D01*
X430068Y196810D01*
X447500Y155000D02*
Y188372D01*
X439347Y196525D02*
X447500Y188372D01*
X412927Y212048D02*
X414665Y210310D01*
X427500Y155000D02*
Y162500D01*
X433835Y168835D01*
X424015Y214006D02*
Y219179D01*
X422463Y229345D02*
X422815Y228993D01*
Y220379D02*
X424015Y219179D01*
Y214006D02*
X435038Y202983D01*
X413541Y229345D02*
X422463D01*
X422815Y220379D02*
Y228993D01*
X467500Y155000D02*
X467714Y155214D01*
Y199490D01*
X435038Y202983D02*
X464221D01*
X467714Y199490D01*
X413138Y229748D02*
Y233346D01*
Y229748D02*
X413541Y229345D01*
X424657Y220234D02*
X427216D01*
X424015Y220876D02*
Y226770D01*
Y220876D02*
X424657Y220234D01*
X510827Y175000D02*
X517500D01*
X508661Y177165D02*
Y187894D01*
X454035Y242520D02*
X508661Y187894D01*
Y177165D02*
X510827Y175000D01*
X359841Y299210D02*
Y331804D01*
X365045Y337008D01*
X423707D01*
X432086Y357678D02*
X433231Y358823D01*
X432086Y351181D02*
Y357678D01*
Y351181D02*
X436613Y346654D01*
X429549Y359753D02*
X431118Y361323D01*
X429549Y356597D02*
Y359753D01*
X427261Y354309D02*
X429549Y356597D01*
X431118Y361323D02*
X451121D01*
X427261Y354309D02*
X435038Y346532D01*
X426871Y354698D02*
X427261Y354309D01*
X422747Y358823D02*
X427261Y354309D01*
X421281Y356583D02*
X433463Y344401D01*
X404439Y356583D02*
X421281D01*
X403542Y357480D02*
X404439Y356583D01*
X404339Y363823D02*
X411614D01*
X403542Y363026D02*
X404339Y363823D01*
X403542Y357480D02*
Y363026D01*
X478114Y370705D02*
X479528Y369291D01*
X467839Y370705D02*
X478114D01*
X462913Y375630D02*
X467839Y370705D01*
X479528Y339098D02*
Y369291D01*
X472859Y332429D02*
X479528Y339098D01*
X458104Y332429D02*
X472859D01*
X389987Y278130D02*
X391981Y280123D01*
X389987Y272332D02*
Y278130D01*
Y272332D02*
X390114Y272205D01*
X377500Y254207D02*
X395507Y272214D01*
X377500Y155000D02*
Y254207D01*
X395507Y272214D02*
X395668D01*
X374016Y252419D02*
X395421Y273824D01*
X395668D01*
X374016Y168504D02*
Y252419D01*
X439763Y308470D02*
Y315439D01*
X450258Y325933D02*
Y331151D01*
X439763Y315439D02*
X450258Y325933D01*
X328177Y285677D02*
X337050D01*
X344286Y292913D02*
X366929D01*
X337050Y285677D02*
X344286Y292913D01*
X429372Y322835D02*
Y331344D01*
X423707Y337008D02*
X429372Y331344D01*
X431889Y308470D02*
Y342032D01*
X425196Y348724D02*
X431889Y342032D01*
X359652Y270675D02*
Y289713D01*
Y269100D02*
Y270675D01*
X367121D02*
X377165Y260630D01*
X359652Y270675D02*
X367121D01*
X382677Y225984D02*
Y255000D01*
X397500Y155000D02*
Y211161D01*
X382677Y225984D02*
X397500Y211161D01*
X327500Y265000D02*
X355552D01*
X359652Y269100D01*
X327500Y285000D02*
X328177Y285677D01*
X371809Y288033D02*
X395966D01*
X366929Y292913D02*
X371809Y288033D01*
X359652Y299022D02*
X359841Y299210D01*
X372095Y296397D02*
Y297446D01*
X374206Y289572D02*
X395668D01*
X372441Y291337D02*
X374206Y289572D01*
X340158Y294297D02*
X396432D01*
X339454Y295000D02*
X340158Y294297D01*
X327500Y295000D02*
X339454D01*
X371569Y295872D02*
X372095Y296397D01*
X345669Y295872D02*
X371569D01*
X438188Y308470D02*
Y353232D01*
X438779Y353823D01*
X411266Y368475D02*
X411614Y368823D01*
X400393Y368475D02*
X411266D01*
X396582Y372285D02*
X396702D01*
X398163Y370824D01*
Y370705D02*
Y370824D01*
Y370705D02*
X400393Y368475D01*
Y355000D02*
Y368475D01*
X413660Y341732D02*
X429134D01*
X400393Y355000D02*
X413660Y341732D01*
X472913Y345630D02*
X472913D01*
X450675Y350394D02*
X468150D01*
X472913Y345630D01*
X452504Y351594D02*
X467698D01*
X471735Y355630D01*
X472913D01*
X438779Y353823D02*
X447246D01*
X450675Y350394D01*
X445275Y358823D02*
X452504Y351594D01*
X433231Y358823D02*
X438779D01*
X445275D01*
X426871D02*
Y361323D01*
X451121D02*
X456813Y355630D01*
X462913D01*
X467913Y360630D02*
X472913Y365630D01*
X457913Y360630D02*
X467913D01*
X454721Y363823D02*
X457913Y360630D01*
X438779Y363823D02*
X454721D01*
X462402Y366142D02*
X462913Y365630D01*
X425984Y366142D02*
X462402D01*
X411614Y363823D02*
X423665D01*
X425984Y366142D01*
X429372Y363823D02*
X438779D01*
X426871Y361323D02*
X429372Y363823D01*
X433463Y308470D02*
Y344401D01*
X411614Y358823D02*
X422747D01*
X436613Y308470D02*
Y346654D01*
X435038Y308470D02*
Y346532D01*
X509329Y195000D02*
X517500D01*
X461809Y242520D02*
X509329Y195000D01*
X459548Y247256D02*
X461809Y244994D01*
Y242520D02*
Y244994D01*
X458268Y243307D02*
X458419Y243156D01*
Y241207D02*
Y243156D01*
Y241207D02*
X514626Y185000D01*
X517500D01*
X447618Y251377D02*
X450784D01*
X452677Y249483D01*
X448818Y252577D02*
X454218D01*
X454795Y252000D01*
X455282D01*
X449593Y247256D02*
X449617D01*
X440957Y255892D02*
X449593Y247256D01*
X437223Y255892D02*
X440957D01*
X443102Y258292D02*
X448818Y252577D01*
X441122Y258292D02*
X443102D01*
X447618Y251377D02*
Y251488D01*
X442014Y257092D02*
X447618Y251488D01*
X431889Y261226D02*
X437223Y255892D01*
X439172Y257092D02*
X442014D01*
X435038Y261226D02*
X439172Y257092D01*
X438188Y261226D02*
X441122Y258292D01*
X397057Y281878D02*
X398997D01*
X400393Y283273D01*
X385966Y281894D02*
X397041D01*
X397057Y281878D01*
X336541Y305000D02*
X345669Y295872D01*
X327500Y305000D02*
X336541D01*
X391981Y280123D02*
X395668D01*
X367500Y155000D02*
Y161988D01*
X374016Y168504D01*
X416141Y276974D02*
X419290Y273824D01*
X416141Y276974D02*
X416141D01*
D46*
X427164Y225984D02*
Y265657D01*
X424015Y226770D02*
Y262801D01*
X422440Y264375D02*
X424015Y262801D01*
X411708Y226228D02*
X412984Y224953D01*
X409739Y226228D02*
X411708D01*
X408267Y227701D02*
X409739Y226228D01*
X411380Y235103D02*
Y236183D01*
X413138Y233346D02*
Y233439D01*
X411473Y235103D02*
X413138Y233439D01*
X411380Y235103D02*
X411473D01*
X411380Y236183D02*
X411416Y236219D01*
X422234Y289577D02*
X422648D01*
X417716Y306641D02*
X417991Y306916D01*
X417716Y300596D02*
Y306641D01*
X417991Y306916D02*
Y310000D01*
X414991Y313000D02*
X417991Y310000D01*
X410290Y313000D02*
X414991D01*
X405966Y317324D02*
X410290Y313000D01*
X392893Y299021D02*
Y303048D01*
X339454Y279454D02*
Y279454D01*
X351763Y291763D02*
X365354D01*
X339454Y279454D02*
X351763Y291763D01*
X335000Y275000D02*
X339454Y279454D01*
X327500Y275000D02*
X335000D01*
X375224Y281894D02*
X385966D01*
X365354Y291763D02*
X375224Y281894D01*
X427725Y294333D02*
X429377D01*
X427200Y290944D02*
Y293807D01*
X427725Y294333D01*
X425966Y317324D02*
X430314Y312976D01*
Y295270D02*
Y312976D01*
X396432Y294297D02*
X396714Y294015D01*
X402250D02*
X403542Y292722D01*
X396714Y294015D02*
X402250D01*
X397138Y289097D02*
X402830D01*
X396683Y287997D02*
X401968D01*
X396663Y289572D02*
X397138Y289097D01*
X399605Y291147D02*
X405117D01*
X395966Y288033D02*
X396646D01*
X396683Y287997D01*
X401968D02*
X403542Y286423D01*
X402830Y289097D02*
X403305Y289572D01*
X403542D01*
X395668D02*
X396663D01*
X405117Y291147D02*
X406692Y289572D01*
X433464D02*
X435038D01*
X431889D02*
X433464D01*
X430315Y284847D02*
X433170D01*
X433463Y285140D01*
Y289572D01*
X433464Y289572D01*
X428739Y286423D02*
X430315Y284847D01*
X430314Y290854D02*
X430607Y291147D01*
X430314Y288296D02*
Y290854D01*
X433463Y291147D02*
Y297447D01*
X430607Y291147D02*
X433463D01*
X429980Y287962D02*
X430314Y288296D01*
X425590Y286423D02*
X427129Y287962D01*
X429980D01*
X429377Y294333D02*
X430314Y295270D01*
X428572Y289572D02*
X428739D01*
X427200Y290944D02*
X428572Y289572D01*
X431889Y299021D02*
X433463Y297447D01*
X442912Y262801D02*
X444487Y261226D01*
X442912Y262801D02*
Y265016D01*
X433428Y265915D02*
X442014D01*
X442912Y265016D01*
X431889Y264375D02*
X433428Y265915D01*
X422440Y267525D02*
X424015Y265950D01*
X422440Y264375D02*
X422440D01*
X428739Y273824D02*
X430314Y272250D01*
X424015Y265950D02*
X426871D01*
X427164Y265657D01*
X430314Y258076D02*
Y272250D01*
X422440Y267525D02*
X422440D01*
X396779Y276462D02*
X397842Y275399D01*
X406692D01*
X400393Y283273D02*
X403542D01*
X395668Y280123D02*
X403542D01*
X408267Y227701D02*
Y268807D01*
X411416Y236219D02*
Y268217D01*
X413761Y269100D02*
X414566Y269905D01*
X411416Y268217D02*
X412299Y269100D01*
X413761D01*
X419290Y299021D02*
X420829D01*
X422440D01*
X420829D02*
Y304375D01*
X422648Y289577D02*
X424015Y290944D01*
X422047Y289764D02*
X422234Y289577D01*
X424015Y290944D02*
Y305320D01*
X363188Y318505D02*
Y325888D01*
Y311044D02*
Y318505D01*
Y311044D02*
X368757Y305475D01*
X392893Y303048D02*
X394220Y304375D01*
X409185D02*
X409842Y303718D01*
X394220Y304375D02*
X409185D01*
X368757Y305475D02*
X412299D01*
X409842Y302171D02*
Y303718D01*
X412991Y302171D02*
Y304784D01*
X412299Y305475D02*
X412991Y304784D01*
X443850Y288033D02*
X451813D01*
X451968Y288189D02*
X452124Y288033D01*
X444487Y292722D02*
X449212D01*
X442912Y288189D02*
X443694D01*
X443850Y288033D01*
X451813D02*
X451968Y288189D01*
X441338Y289572D02*
X441529D01*
X442912Y288189D01*
X438188Y289572D02*
X441338D01*
Y273824D02*
X442912Y275399D01*
X450394D01*
X392300Y298428D02*
X392893Y299021D01*
X403542D01*
X417716Y294297D02*
X419290Y295872D01*
X417716Y288189D02*
Y294297D01*
X416141Y299021D02*
Y299022D01*
X417716Y300596D01*
X416141Y286423D02*
Y286614D01*
X417716Y288189D01*
X396663Y285000D02*
X396779Y284884D01*
X414602D01*
X416141Y286423D01*
X428739Y273824D02*
X431889Y276974D01*
X427200Y272285D02*
X428739Y273824D01*
X420829Y272285D02*
X427200D01*
X419290Y273824D02*
X420829Y272285D01*
X427164Y297446D02*
Y305000D01*
X427640Y305475D01*
X427164Y311408D02*
X427528Y311044D01*
Y310277D02*
X427640Y310165D01*
X427528Y310277D02*
Y311044D01*
X427640Y305475D02*
Y310165D01*
X414566Y297446D02*
Y302772D01*
X414291Y303048D02*
X414566Y302772D01*
X414291Y303048D02*
Y307683D01*
X414566Y297446D02*
X416141Y295872D01*
X425590Y295872D02*
X427164Y297446D01*
X428739Y281698D02*
Y283273D01*
Y280123D02*
Y281698D01*
X446850D01*
X422440Y302171D02*
Y307683D01*
X416141Y302171D02*
Y307683D01*
Y295872D02*
Y295872D01*
X395668Y273824D02*
X403542D01*
X408267Y272507D02*
Y275399D01*
X407974Y272214D02*
X408267Y272507D01*
X395668Y272214D02*
X407974D01*
X408267Y275399D02*
X409842Y276974D01*
X408560Y269100D02*
X410443D01*
X408267Y268807D02*
X408560Y269100D01*
X411380Y272214D02*
X411416Y272250D01*
X411380Y270037D02*
Y272214D01*
X410443Y269100D02*
X411380Y270037D01*
X411416Y272250D02*
Y275399D01*
X412991Y276974D01*
X414566Y269905D02*
Y272250D01*
X412991Y273824D02*
X414566Y272250D01*
X416141Y267525D02*
Y267525D01*
X431889Y302171D02*
Y308470D01*
X436613Y294297D02*
Y308470D01*
X435038Y292722D02*
X436613Y294297D01*
X433463Y300596D02*
X435038Y299021D01*
X433463Y300596D02*
Y308470D01*
X435038Y302171D02*
Y308470D01*
X438188Y302171D02*
Y308470D01*
X439763Y294297D02*
Y308470D01*
X438188Y292722D02*
X439763Y294297D01*
X444487Y299021D02*
Y302171D01*
X441338Y299021D02*
X444487D01*
X441338Y292722D02*
X444487D01*
X422440Y276974D02*
X425590D01*
X419290D02*
Y280123D01*
Y283273D01*
Y286423D01*
Y276974D02*
X422440D01*
X425590D02*
X428739D01*
Y280123D01*
X439763Y291147D02*
X441338Y292722D01*
X436613Y291147D02*
X439763D01*
X435038Y289572D02*
X436613Y291147D01*
D47*
X420361Y331493D02*
X424602D01*
X406347D02*
X420361D01*
X392300D02*
X406347D01*
X376373D02*
X392300D01*
X327500Y215000D02*
X330000D01*
X340645Y204355D01*
X327500Y155000D02*
Y157500D01*
X340645Y170645D01*
Y204355D01*
X438414Y245276D02*
X438584D01*
X438188Y245050D02*
X438414Y245276D01*
X438188Y241207D02*
Y245050D01*
X431042Y241207D02*
Y245137D01*
X420361Y331493D02*
Y333860D01*
X406347Y331493D02*
X406548Y331694D01*
X375966Y331901D02*
X376373Y331493D01*
D48*
X356306Y311030D02*
Y316932D01*
X355552Y310277D02*
X356306Y311030D01*
X356495Y325888D02*
Y339215D01*
X350709Y345000D02*
X356495Y339215D01*
X327500Y345000D02*
X350709D01*
X430314Y251377D02*
X431042Y250649D01*
X430314Y251377D02*
Y258076D01*
D49*
X425966Y317324D02*
D03*
X415966D02*
D03*
X405966D02*
D03*
X395966D02*
D03*
X385966D02*
D03*
D50*
X375966D02*
D03*
D51*
X472913Y345630D02*
D03*
X462913D02*
D03*
X472913Y355630D02*
D03*
Y365630D02*
D03*
X462913Y355630D02*
D03*
Y365630D02*
D03*
X472913Y375630D02*
D03*
D52*
X462913D02*
D03*
D53*
X497500Y385000D02*
D03*
X347500D02*
D03*
X417500Y185000D02*
D03*
D54*
X517500Y175000D02*
D03*
Y185000D02*
D03*
Y195000D02*
D03*
Y205000D02*
D03*
Y215000D02*
D03*
Y225000D02*
D03*
Y235000D02*
D03*
Y245000D02*
D03*
Y255000D02*
D03*
Y265000D02*
D03*
Y275000D02*
D03*
Y285000D02*
D03*
Y295000D02*
D03*
Y305000D02*
D03*
Y315000D02*
D03*
Y325000D02*
D03*
Y335000D02*
D03*
Y345000D02*
D03*
Y355000D02*
D03*
X327500Y175000D02*
D03*
Y185000D02*
D03*
Y195000D02*
D03*
Y205000D02*
D03*
Y215000D02*
D03*
Y225000D02*
D03*
Y235000D02*
D03*
Y245000D02*
D03*
Y255000D02*
D03*
Y265000D02*
D03*
Y275000D02*
D03*
Y285000D02*
D03*
Y295000D02*
D03*
Y305000D02*
D03*
Y315000D02*
D03*
Y325000D02*
D03*
Y335000D02*
D03*
Y345000D02*
D03*
Y355000D02*
D03*
D55*
X517500Y365000D02*
D03*
X327500D02*
D03*
D56*
X517500Y155000D02*
D03*
X507500D02*
D03*
X497500D02*
D03*
X487500D02*
D03*
X477500D02*
D03*
X467500D02*
D03*
X457500D02*
D03*
X447500D02*
D03*
X437500D02*
D03*
X427500D02*
D03*
X417500D02*
D03*
X407500D02*
D03*
X397500D02*
D03*
X387500D02*
D03*
X377500D02*
D03*
X367500D02*
D03*
X357500D02*
D03*
X347500D02*
D03*
X337500D02*
D03*
D57*
X327500D02*
D03*
D58*
X419772Y220036D02*
D03*
X457480Y172441D02*
D03*
X434311Y232433D02*
D03*
X439347Y196525D02*
D03*
X430068Y196701D02*
D03*
X419775Y238620D02*
D03*
X411416Y348724D02*
D03*
X420041Y306122D02*
D03*
X394233Y267970D02*
D03*
X438188Y241207D02*
D03*
X431042D02*
D03*
X420361Y333860D02*
D03*
X406548Y331694D02*
D03*
X392300Y331493D02*
D03*
X375966Y331901D02*
D03*
X355552Y310277D02*
D03*
X397500Y239370D02*
D03*
X396779Y233071D02*
D03*
X424015Y167732D02*
D03*
X403542D02*
D03*
X429372Y322835D02*
D03*
X377165Y260630D02*
D03*
X382677Y255000D02*
D03*
X359652Y289713D02*
D03*
Y299022D02*
D03*
X372095Y297446D02*
D03*
X372441Y291337D02*
D03*
X399605Y291147D02*
D03*
X414969Y377994D02*
D03*
X440807Y341882D02*
D03*
X429134Y341732D02*
D03*
X426871Y358823D02*
D03*
X425196Y348724D02*
D03*
X458268Y243307D02*
D03*
X454035Y242520D02*
D03*
X459548Y247256D02*
D03*
X449617D02*
D03*
X455282Y252000D02*
D03*
X452677Y249483D02*
D03*
X434722Y251557D02*
D03*
X414291Y251969D02*
D03*
X421260D02*
D03*
X405966Y251777D02*
D03*
X390114Y272205D02*
D03*
X396779Y276462D02*
D03*
X459548Y275000D02*
D03*
X469291Y276378D02*
D03*
X492138Y276462D02*
D03*
X487841Y272126D02*
D03*
X480755D02*
D03*
X473620D02*
D03*
X459548Y307636D02*
D03*
X424015Y281698D02*
D03*
X382677Y284847D02*
D03*
X396663Y285000D02*
D03*
X391981Y302363D02*
D03*
X382677Y298428D02*
D03*
X390551Y263779D02*
D03*
X459548Y297446D02*
D03*
X449808Y306575D02*
D03*
X454035Y297446D02*
D03*
X450394Y275399D02*
D03*
Y255906D02*
D03*
X398403D02*
D03*
X397057Y302171D02*
D03*
X419290Y257480D02*
D03*
X416141D02*
D03*
X427164Y311408D02*
D03*
M02*
