G04*
G04 #@! TF.GenerationSoftware,Altium Limited,Altium Designer,20.0.11 (256)*
G04*
G04 Layer_Color=16711935*
%FSLAX25Y25*%
%MOIN*%
G70*
G01*
G75*
%ADD14C,0.01000*%
%ADD35C,0.06706*%
%ADD36R,0.06706X0.06706*%
%ADD37C,0.06902*%
%ADD38R,0.06902X0.06902*%
%ADD39C,0.25800*%
%ADD40O,0.11800X0.06800*%
%ADD41R,0.11800X0.06800*%
%ADD42O,0.06800X0.11800*%
%ADD43R,0.06800X0.11800*%
%ADD60R,0.06299X0.07087*%
%ADD61R,0.05800X0.03300*%
D14*
X320000Y146500D02*
X525500D01*
Y400500D01*
X320000D02*
X525500D01*
X320000Y146500D02*
Y400500D01*
D35*
X425966Y317324D02*
D03*
X415966D02*
D03*
X405966D02*
D03*
X395966D02*
D03*
X385966D02*
D03*
D36*
X375966D02*
D03*
D37*
X472913Y345630D02*
D03*
X462913D02*
D03*
X472913Y355630D02*
D03*
Y365630D02*
D03*
X462913Y355630D02*
D03*
Y365630D02*
D03*
X472913Y375630D02*
D03*
D38*
X462913D02*
D03*
D39*
X497500Y385000D02*
D03*
X347500D02*
D03*
X417500Y185000D02*
D03*
D40*
X517500Y175000D02*
D03*
Y185000D02*
D03*
Y195000D02*
D03*
Y205000D02*
D03*
Y215000D02*
D03*
Y225000D02*
D03*
Y235000D02*
D03*
Y245000D02*
D03*
Y255000D02*
D03*
Y265000D02*
D03*
Y275000D02*
D03*
Y285000D02*
D03*
Y295000D02*
D03*
Y305000D02*
D03*
Y315000D02*
D03*
Y325000D02*
D03*
Y335000D02*
D03*
Y345000D02*
D03*
Y355000D02*
D03*
X327500Y175000D02*
D03*
Y185000D02*
D03*
Y195000D02*
D03*
Y205000D02*
D03*
Y215000D02*
D03*
Y225000D02*
D03*
Y235000D02*
D03*
Y245000D02*
D03*
Y255000D02*
D03*
Y265000D02*
D03*
Y275000D02*
D03*
Y285000D02*
D03*
Y295000D02*
D03*
Y305000D02*
D03*
Y315000D02*
D03*
Y325000D02*
D03*
Y335000D02*
D03*
Y345000D02*
D03*
Y355000D02*
D03*
D41*
X517500Y365000D02*
D03*
X327500D02*
D03*
D42*
X517500Y155000D02*
D03*
X507500D02*
D03*
X497500D02*
D03*
X487500D02*
D03*
X477500D02*
D03*
X467500D02*
D03*
X457500D02*
D03*
X447500D02*
D03*
X437500D02*
D03*
X427500D02*
D03*
X417500D02*
D03*
X407500D02*
D03*
X397500D02*
D03*
X387500D02*
D03*
X377500D02*
D03*
X367500D02*
D03*
X357500D02*
D03*
X347500D02*
D03*
X337500D02*
D03*
D43*
X327500D02*
D03*
D60*
X421894Y329530D02*
D03*
D61*
X421894Y327908D02*
D03*
Y331151D02*
D03*
M02*
