G04*
G04 #@! TF.GenerationSoftware,Altium Limited,Altium Designer,19.1.5 (86)*
G04*
G04 Layer_Physical_Order=2*
G04 Layer_Color=16711680*
%FSLAX25Y25*%
%MOIN*%
G70*
G01*
G75*
%ADD21C,0.00600*%
%ADD23C,0.01200*%
%ADD24C,0.02000*%
%ADD25C,0.02200*%
%ADD26C,0.25000*%
%ADD27R,0.11000X0.06000*%
%ADD28O,0.11000X0.06000*%
%ADD29R,0.06000X0.11000*%
%ADD30O,0.06000X0.11000*%
%ADD31C,0.02400*%
G36*
X406657Y476000D02*
X404700D01*
Y472000D01*
Y468000D01*
X406657D01*
Y465530D01*
X401700D01*
X400786Y465410D01*
X399935Y465057D01*
X399204Y464496D01*
X398643Y463765D01*
X398290Y462914D01*
X398170Y462000D01*
X398290Y461086D01*
X398643Y460235D01*
X399204Y459504D01*
X399935Y458943D01*
X400786Y458590D01*
X401700Y458470D01*
X406657D01*
Y455530D01*
X401700D01*
X400786Y455410D01*
X399935Y455057D01*
X399204Y454496D01*
X398643Y453765D01*
X398290Y452914D01*
X398170Y452000D01*
X398290Y451086D01*
X398643Y450235D01*
X399204Y449504D01*
X399935Y448943D01*
X400786Y448590D01*
X401700Y448470D01*
X406657D01*
Y446034D01*
X404700D01*
Y442000D01*
Y437965D01*
X406657D01*
Y435530D01*
X401700D01*
X400786Y435410D01*
X399935Y435057D01*
X399204Y434496D01*
X398643Y433765D01*
X398290Y432914D01*
X398170Y432000D01*
X398290Y431086D01*
X398643Y430235D01*
X399204Y429504D01*
X399935Y428943D01*
X400786Y428590D01*
X401700Y428470D01*
X406657D01*
Y425530D01*
X401700D01*
X400786Y425410D01*
X399935Y425057D01*
X399204Y424496D01*
X398643Y423765D01*
X398290Y422914D01*
X398170Y422000D01*
X398290Y421086D01*
X398643Y420235D01*
X399204Y419504D01*
X399935Y418943D01*
X400786Y418590D01*
X401700Y418470D01*
X406657D01*
Y416035D01*
X404700D01*
Y412000D01*
Y407966D01*
X406657D01*
Y405530D01*
X401700D01*
X400786Y405410D01*
X399935Y405057D01*
X399204Y404496D01*
X398643Y403765D01*
X398290Y402914D01*
X398170Y402000D01*
X398290Y401086D01*
X398643Y400235D01*
X399204Y399504D01*
X399935Y398943D01*
X400786Y398590D01*
X401700Y398470D01*
X406657D01*
Y396035D01*
X404700D01*
Y392000D01*
Y387965D01*
X406657D01*
Y386034D01*
X404700D01*
Y382000D01*
Y377965D01*
X406657D01*
Y375530D01*
X401700D01*
X400786Y375410D01*
X399935Y375057D01*
X399204Y374496D01*
X398643Y373765D01*
X398290Y372914D01*
X398170Y372000D01*
X398290Y371086D01*
X398643Y370235D01*
X399204Y369504D01*
X399935Y368943D01*
X400786Y368590D01*
X401700Y368470D01*
X406657D01*
Y365530D01*
X401700D01*
X400786Y365410D01*
X399935Y365057D01*
X399204Y364496D01*
X398643Y363765D01*
X398290Y362914D01*
X398170Y362000D01*
X398290Y361086D01*
X398643Y360235D01*
X399204Y359504D01*
X399935Y358943D01*
X400786Y358590D01*
X401700Y358470D01*
X406657D01*
Y355530D01*
X401700D01*
X400786Y355410D01*
X399935Y355057D01*
X399204Y354496D01*
X398643Y353765D01*
X398290Y352914D01*
X398170Y352000D01*
X398290Y351086D01*
X398643Y350235D01*
X399204Y349504D01*
X399935Y348943D01*
X400786Y348590D01*
X401700Y348470D01*
X406657D01*
Y345530D01*
X401700D01*
X400786Y345410D01*
X399935Y345057D01*
X399204Y344496D01*
X398643Y343765D01*
X398290Y342914D01*
X398170Y342000D01*
X398290Y341086D01*
X398643Y340235D01*
X399204Y339504D01*
X399935Y338943D01*
X400786Y338590D01*
X401700Y338470D01*
X406657D01*
Y335530D01*
X401700D01*
X400786Y335410D01*
X399935Y335057D01*
X399204Y334496D01*
X398643Y333765D01*
X398290Y332914D01*
X398170Y332000D01*
X398290Y331086D01*
X398643Y330235D01*
X399204Y329504D01*
X399935Y328943D01*
X400786Y328590D01*
X401700Y328470D01*
X406657D01*
Y326034D01*
X404700D01*
Y322000D01*
Y317966D01*
X406657D01*
Y316035D01*
X404700D01*
Y312000D01*
Y307965D01*
X406657D01*
Y305530D01*
X401700D01*
X400786Y305410D01*
X399935Y305057D01*
X399204Y304496D01*
X398643Y303765D01*
X398290Y302914D01*
X398170Y302000D01*
X398290Y301086D01*
X398643Y300235D01*
X399204Y299504D01*
X399935Y298943D01*
X400786Y298590D01*
X401700Y298470D01*
X406657D01*
Y295530D01*
X401700D01*
X400786Y295410D01*
X399935Y295057D01*
X399204Y294496D01*
X398643Y293765D01*
X398290Y292914D01*
X398170Y292000D01*
X398290Y291086D01*
X398643Y290235D01*
X399204Y289504D01*
X399935Y288943D01*
X400786Y288590D01*
X401700Y288470D01*
X406657D01*
Y285530D01*
X401700D01*
X400786Y285410D01*
X399935Y285057D01*
X399204Y284496D01*
X398643Y283765D01*
X398290Y282914D01*
X398170Y282000D01*
X398290Y281086D01*
X398643Y280235D01*
X399204Y279504D01*
X399935Y278943D01*
X400786Y278590D01*
X401700Y278470D01*
X406657D01*
Y267705D01*
X406119Y267439D01*
X405965Y267557D01*
X405114Y267910D01*
X404200Y268030D01*
X403286Y267910D01*
X402435Y267557D01*
X401704Y266996D01*
X401143Y266265D01*
X400790Y265414D01*
X400670Y264500D01*
Y259500D01*
X400671Y259494D01*
X400275Y259043D01*
X398125D01*
X397729Y259494D01*
X397730Y259500D01*
Y264500D01*
X397610Y265414D01*
X397257Y266265D01*
X396696Y266996D01*
X395965Y267557D01*
X395114Y267910D01*
X394200Y268030D01*
X393286Y267910D01*
X392435Y267557D01*
X391704Y266996D01*
X391143Y266265D01*
X390790Y265414D01*
X390670Y264500D01*
Y259500D01*
X390671Y259494D01*
X390275Y259043D01*
X388125D01*
X387729Y259494D01*
X387730Y259500D01*
Y264500D01*
X387610Y265414D01*
X387257Y266265D01*
X386696Y266996D01*
X385965Y267557D01*
X385114Y267910D01*
X384200Y268030D01*
X383286Y267910D01*
X382435Y267557D01*
X381704Y266996D01*
X381143Y266265D01*
X380790Y265414D01*
X380670Y264500D01*
Y259500D01*
X380671Y259494D01*
X380275Y259043D01*
X378125D01*
X377729Y259494D01*
X377730Y259500D01*
Y264500D01*
X377610Y265414D01*
X377257Y266265D01*
X376696Y266996D01*
X375965Y267557D01*
X375114Y267910D01*
X374200Y268030D01*
X373286Y267910D01*
X372435Y267557D01*
X371704Y266996D01*
X371143Y266265D01*
X370790Y265414D01*
X370670Y264500D01*
Y259500D01*
X370671Y259494D01*
X370275Y259043D01*
X368125D01*
X367729Y259494D01*
X367730Y259500D01*
Y264500D01*
X367610Y265414D01*
X367257Y266265D01*
X366696Y266996D01*
X365965Y267557D01*
X365114Y267910D01*
X364200Y268030D01*
X363286Y267910D01*
X362435Y267557D01*
X361704Y266996D01*
X361143Y266265D01*
X360790Y265414D01*
X360670Y264500D01*
Y259500D01*
X360671Y259494D01*
X360275Y259043D01*
X358125D01*
X357729Y259494D01*
X357730Y259500D01*
Y264500D01*
X357610Y265414D01*
X357257Y266265D01*
X356696Y266996D01*
X355965Y267557D01*
X355114Y267910D01*
X354200Y268030D01*
X353286Y267910D01*
X352435Y267557D01*
X351704Y266996D01*
X351143Y266265D01*
X350790Y265414D01*
X350670Y264500D01*
Y259500D01*
X350671Y259494D01*
X350275Y259043D01*
X348125D01*
X347729Y259494D01*
X347730Y259500D01*
Y264500D01*
X347610Y265414D01*
X347257Y266265D01*
X346696Y266996D01*
X345965Y267557D01*
X345114Y267910D01*
X344200Y268030D01*
X343286Y267910D01*
X342435Y267557D01*
X341704Y266996D01*
X341143Y266265D01*
X340790Y265414D01*
X340670Y264500D01*
Y259500D01*
X340671Y259494D01*
X340275Y259043D01*
X338125D01*
X337729Y259494D01*
X337730Y259500D01*
Y264500D01*
X337610Y265414D01*
X337257Y266265D01*
X336696Y266996D01*
X335965Y267557D01*
X335114Y267910D01*
X334200Y268030D01*
X333286Y267910D01*
X332435Y267557D01*
X331704Y266996D01*
X331143Y266265D01*
X330790Y265414D01*
X330670Y264500D01*
Y259500D01*
X330671Y259494D01*
X330275Y259043D01*
X328125D01*
X327729Y259494D01*
X327730Y259500D01*
Y264500D01*
X327610Y265414D01*
X327257Y266265D01*
X326696Y266996D01*
X325965Y267557D01*
X325114Y267910D01*
X324200Y268030D01*
X323286Y267910D01*
X322435Y267557D01*
X321704Y266996D01*
X321143Y266265D01*
X320790Y265414D01*
X320670Y264500D01*
Y259500D01*
X320671Y259494D01*
X320275Y259043D01*
X318125D01*
X317729Y259494D01*
X317730Y259500D01*
Y264500D01*
X317610Y265414D01*
X317257Y266265D01*
X316696Y266996D01*
X315965Y267557D01*
X315114Y267910D01*
X314200Y268030D01*
X313286Y267910D01*
X312435Y267557D01*
X311704Y266996D01*
X311143Y266265D01*
X310790Y265414D01*
X310670Y264500D01*
Y259500D01*
X310671Y259494D01*
X310275Y259043D01*
X308629D01*
X308234Y259494D01*
X308235Y259500D01*
Y261500D01*
X304200D01*
X300166D01*
Y259500D01*
X300166Y259494D01*
X299771Y259043D01*
X298629D01*
X298234Y259494D01*
X298235Y259500D01*
Y261500D01*
X294200D01*
X290165D01*
Y259500D01*
X290166Y259494D01*
X289771Y259043D01*
X288125D01*
X287729Y259494D01*
X287730Y259500D01*
Y264500D01*
X287610Y265414D01*
X287257Y266265D01*
X286696Y266996D01*
X285965Y267557D01*
X285114Y267910D01*
X284200Y268030D01*
X283286Y267910D01*
X282435Y267557D01*
X281704Y266996D01*
X281143Y266265D01*
X280790Y265414D01*
X280670Y264500D01*
Y259500D01*
X280671Y259494D01*
X280275Y259043D01*
X278125D01*
X277729Y259494D01*
X277730Y259500D01*
Y264500D01*
X277610Y265414D01*
X277257Y266265D01*
X276696Y266996D01*
X275965Y267557D01*
X275831Y267613D01*
Y272369D01*
X290887D01*
X291400Y272267D01*
X292063Y272399D01*
X292626Y272774D01*
X293001Y273337D01*
X293133Y274000D01*
X293001Y274663D01*
X292626Y275226D01*
X292063Y275601D01*
X291400Y275733D01*
X290887Y275631D01*
X274876D01*
X267354Y283154D01*
X266824Y283507D01*
X266200Y283631D01*
X219813D01*
X219757Y283765D01*
X219196Y284496D01*
X218465Y285057D01*
X217614Y285410D01*
X216700Y285530D01*
X211700D01*
X211694Y285529D01*
X211243Y285925D01*
Y288075D01*
X211694Y288471D01*
X211700Y288470D01*
X216700D01*
X217614Y288590D01*
X218465Y288943D01*
X219196Y289504D01*
X219757Y290235D01*
X220110Y291086D01*
X220230Y292000D01*
X220110Y292914D01*
X219757Y293765D01*
X219196Y294496D01*
X218465Y295057D01*
X217614Y295410D01*
X216700Y295530D01*
X211700D01*
X211694Y295529D01*
X211243Y295925D01*
Y298075D01*
X211694Y298471D01*
X211700Y298470D01*
X216700D01*
X217614Y298590D01*
X218465Y298943D01*
X219196Y299504D01*
X219757Y300235D01*
X220110Y301086D01*
X220230Y302000D01*
X220110Y302914D01*
X219757Y303765D01*
X219196Y304496D01*
X218465Y305057D01*
X217614Y305410D01*
X216700Y305530D01*
X211700D01*
X211694Y305529D01*
X211243Y305925D01*
Y308075D01*
X211694Y308471D01*
X211700Y308470D01*
X216700D01*
X217614Y308590D01*
X218465Y308943D01*
X219196Y309504D01*
X219757Y310235D01*
X220110Y311086D01*
X220230Y312000D01*
X220110Y312914D01*
X219757Y313765D01*
X219196Y314496D01*
X218465Y315057D01*
X217614Y315410D01*
X216700Y315530D01*
X211700D01*
X211694Y315529D01*
X211243Y315925D01*
Y317571D01*
X211694Y317966D01*
X211700Y317966D01*
X213700D01*
Y322000D01*
Y326034D01*
X211700D01*
X211694Y326034D01*
X211243Y326429D01*
Y327571D01*
X211694Y327966D01*
X211700Y327965D01*
X213700D01*
Y332000D01*
Y336034D01*
X211700D01*
X211694Y336034D01*
X211243Y336429D01*
Y338075D01*
X211694Y338471D01*
X211700Y338470D01*
X216700D01*
X217614Y338590D01*
X218465Y338943D01*
X219196Y339504D01*
X219757Y340235D01*
X220110Y341086D01*
X220230Y342000D01*
X220110Y342914D01*
X219757Y343765D01*
X219196Y344496D01*
X218465Y345057D01*
X217614Y345410D01*
X216700Y345530D01*
X211700D01*
X211694Y345529D01*
X211243Y345925D01*
Y348075D01*
X211694Y348471D01*
X211700Y348470D01*
X216700D01*
X217614Y348590D01*
X218465Y348943D01*
X219196Y349504D01*
X219757Y350235D01*
X220110Y351086D01*
X220230Y352000D01*
X220110Y352914D01*
X219757Y353765D01*
X219196Y354496D01*
X218465Y355057D01*
X217614Y355410D01*
X216700Y355530D01*
X211700D01*
X211694Y355529D01*
X211243Y355925D01*
Y358075D01*
X211694Y358471D01*
X211700Y358470D01*
X216700D01*
X217614Y358590D01*
X218465Y358943D01*
X219196Y359504D01*
X219757Y360235D01*
X220110Y361086D01*
X220230Y362000D01*
X220110Y362914D01*
X219757Y363765D01*
X219196Y364496D01*
X218465Y365057D01*
X217614Y365410D01*
X216700Y365530D01*
X211700D01*
X211694Y365529D01*
X211243Y365925D01*
Y368075D01*
X211694Y368471D01*
X211700Y368470D01*
X216700D01*
X217614Y368590D01*
X218465Y368943D01*
X219196Y369504D01*
X219757Y370235D01*
X220110Y371086D01*
X220230Y372000D01*
X220110Y372914D01*
X219757Y373765D01*
X219196Y374496D01*
X218465Y375057D01*
X217614Y375410D01*
X216700Y375530D01*
X211700D01*
X211694Y375529D01*
X211243Y375925D01*
Y378075D01*
X211694Y378471D01*
X211700Y378470D01*
X216700D01*
X217614Y378590D01*
X218465Y378943D01*
X219196Y379504D01*
X219757Y380235D01*
X220110Y381086D01*
X220230Y382000D01*
X220110Y382914D01*
X219757Y383765D01*
X219196Y384496D01*
X218465Y385057D01*
X217614Y385410D01*
X216700Y385530D01*
X211700D01*
X211694Y385529D01*
X211243Y385925D01*
Y388075D01*
X211694Y388471D01*
X211700Y388470D01*
X216700D01*
X217614Y388590D01*
X218465Y388943D01*
X219196Y389504D01*
X219757Y390235D01*
X220110Y391086D01*
X220230Y392000D01*
X220110Y392914D01*
X219757Y393765D01*
X219196Y394496D01*
X218465Y395057D01*
X217614Y395410D01*
X216700Y395530D01*
X211700D01*
X211694Y395529D01*
X211243Y395925D01*
Y398075D01*
X211694Y398471D01*
X211700Y398470D01*
X216700D01*
X217614Y398590D01*
X218465Y398943D01*
X219196Y399504D01*
X219757Y400235D01*
X220110Y401086D01*
X220230Y402000D01*
X220110Y402914D01*
X219757Y403765D01*
X219196Y404496D01*
X218465Y405057D01*
X217614Y405410D01*
X216700Y405530D01*
X211700D01*
X211694Y405529D01*
X211243Y405925D01*
Y408075D01*
X211694Y408471D01*
X211700Y408470D01*
X216700D01*
X217614Y408590D01*
X218465Y408943D01*
X219196Y409504D01*
X219757Y410235D01*
X220110Y411086D01*
X220230Y412000D01*
X220110Y412914D01*
X219757Y413765D01*
X219196Y414496D01*
X218465Y415057D01*
X217614Y415410D01*
X216700Y415530D01*
X211700D01*
X211694Y415529D01*
X211243Y415925D01*
Y417571D01*
X211694Y417966D01*
X211700Y417966D01*
X213700D01*
Y422000D01*
Y426034D01*
X211700D01*
X211694Y426034D01*
X211243Y426429D01*
Y428075D01*
X211694Y428471D01*
X211700Y428470D01*
X216700D01*
X217614Y428590D01*
X218465Y428943D01*
X219196Y429504D01*
X219757Y430235D01*
X220110Y431086D01*
X220230Y432000D01*
X220110Y432914D01*
X219757Y433765D01*
X219196Y434496D01*
X218465Y435057D01*
X217614Y435410D01*
X216700Y435530D01*
X211700D01*
X211694Y435529D01*
X211243Y435925D01*
Y437571D01*
X211694Y437966D01*
X211700Y437965D01*
X213700D01*
Y442000D01*
Y446034D01*
X211700D01*
X211694Y446034D01*
X211243Y446429D01*
Y448075D01*
X211694Y448471D01*
X211700Y448470D01*
X216700D01*
X217614Y448590D01*
X218465Y448943D01*
X219196Y449504D01*
X219757Y450235D01*
X220110Y451086D01*
X220230Y452000D01*
X220110Y452914D01*
X219757Y453765D01*
X219196Y454496D01*
X218465Y455057D01*
X217614Y455410D01*
X216700Y455530D01*
X211700D01*
X211694Y455529D01*
X211243Y455925D01*
Y457571D01*
X211694Y457966D01*
X211700Y457966D01*
X213700D01*
Y462000D01*
Y466035D01*
X211700D01*
X211694Y466034D01*
X211243Y466429D01*
Y468500D01*
X220200D01*
Y475500D01*
X211243D01*
Y502957D01*
X226088D01*
X226309Y502357D01*
X224979Y501221D01*
X223650Y499665D01*
X222581Y497920D01*
X221798Y496030D01*
X221320Y494040D01*
X221160Y492000D01*
X221320Y489960D01*
X221798Y487970D01*
X222581Y486080D01*
X223650Y484335D01*
X224979Y482779D01*
X226535Y481450D01*
X228280Y480381D01*
X230170Y479598D01*
X232160Y479120D01*
X234200Y478960D01*
X236240Y479120D01*
X238230Y479598D01*
X240120Y480381D01*
X241865Y481450D01*
X243421Y482779D01*
X244750Y484335D01*
X245819Y486080D01*
X246602Y487970D01*
X247080Y489960D01*
X247240Y492000D01*
X247080Y494040D01*
X246602Y496030D01*
X245819Y497920D01*
X244750Y499665D01*
X243421Y501221D01*
X242091Y502357D01*
X242312Y502957D01*
X376088D01*
X376309Y502357D01*
X374979Y501221D01*
X373650Y499665D01*
X372581Y497920D01*
X371798Y496030D01*
X371320Y494040D01*
X371160Y492000D01*
X371320Y489960D01*
X371798Y487970D01*
X372581Y486080D01*
X373650Y484335D01*
X374979Y482779D01*
X376535Y481450D01*
X378280Y480381D01*
X380170Y479598D01*
X382160Y479120D01*
X384200Y478960D01*
X386240Y479120D01*
X388230Y479598D01*
X390120Y480381D01*
X391865Y481450D01*
X393421Y482779D01*
X394750Y484335D01*
X395819Y486080D01*
X396602Y487970D01*
X397080Y489960D01*
X397240Y492000D01*
X397080Y494040D01*
X396602Y496030D01*
X395819Y497920D01*
X394750Y499665D01*
X393421Y501221D01*
X392091Y502357D01*
X392312Y502957D01*
X406657D01*
Y476000D01*
D02*
G37*
G36*
X200657D02*
X198700D01*
Y472000D01*
Y468000D01*
X200657D01*
Y465530D01*
X195700D01*
X194786Y465410D01*
X193935Y465057D01*
X193204Y464496D01*
X192643Y463765D01*
X192290Y462914D01*
X192170Y462000D01*
X192290Y461086D01*
X192643Y460235D01*
X193204Y459504D01*
X193935Y458943D01*
X194786Y458590D01*
X195700Y458470D01*
X200657D01*
Y455530D01*
X195700D01*
X194786Y455410D01*
X193935Y455057D01*
X193204Y454496D01*
X192643Y453765D01*
X192290Y452914D01*
X192170Y452000D01*
X192290Y451086D01*
X192643Y450235D01*
X193204Y449504D01*
X193935Y448943D01*
X194786Y448590D01*
X195700Y448470D01*
X200657D01*
Y446034D01*
X198700D01*
Y442000D01*
Y437965D01*
X200657D01*
Y435530D01*
X195700D01*
X194786Y435410D01*
X193935Y435057D01*
X193204Y434496D01*
X192643Y433765D01*
X192290Y432914D01*
X192170Y432000D01*
X192290Y431086D01*
X192643Y430235D01*
X193204Y429504D01*
X193935Y428943D01*
X194786Y428590D01*
X195700Y428470D01*
X200657D01*
Y425530D01*
X195700D01*
X194786Y425410D01*
X193935Y425057D01*
X193204Y424496D01*
X192643Y423765D01*
X192290Y422914D01*
X192170Y422000D01*
X192290Y421086D01*
X192643Y420235D01*
X193204Y419504D01*
X193935Y418943D01*
X194786Y418590D01*
X195700Y418470D01*
X200657D01*
Y416035D01*
X198700D01*
Y412000D01*
Y407966D01*
X200657D01*
Y405530D01*
X195700D01*
X194786Y405410D01*
X193935Y405057D01*
X193204Y404496D01*
X192643Y403765D01*
X192290Y402914D01*
X192170Y402000D01*
X192290Y401086D01*
X192643Y400235D01*
X193204Y399504D01*
X193935Y398943D01*
X194786Y398590D01*
X195700Y398470D01*
X200657D01*
Y396035D01*
X198700D01*
Y392000D01*
Y387965D01*
X200657D01*
Y386034D01*
X198700D01*
Y382000D01*
Y377965D01*
X200657D01*
Y375530D01*
X195700D01*
X194786Y375410D01*
X193935Y375057D01*
X193204Y374496D01*
X192643Y373765D01*
X192290Y372914D01*
X192170Y372000D01*
X192290Y371086D01*
X192643Y370235D01*
X193204Y369504D01*
X193935Y368943D01*
X194786Y368590D01*
X195700Y368470D01*
X200657D01*
Y365530D01*
X195700D01*
X194786Y365410D01*
X193935Y365057D01*
X193204Y364496D01*
X192643Y363765D01*
X192290Y362914D01*
X192170Y362000D01*
X192290Y361086D01*
X192643Y360235D01*
X193204Y359504D01*
X193935Y358943D01*
X194786Y358590D01*
X195700Y358470D01*
X200657D01*
Y355530D01*
X195700D01*
X194786Y355410D01*
X193935Y355057D01*
X193204Y354496D01*
X192643Y353765D01*
X192290Y352914D01*
X192170Y352000D01*
X192290Y351086D01*
X192643Y350235D01*
X193204Y349504D01*
X193935Y348943D01*
X194786Y348590D01*
X195700Y348470D01*
X200657D01*
Y345530D01*
X195700D01*
X194786Y345410D01*
X193935Y345057D01*
X193204Y344496D01*
X192643Y343765D01*
X192290Y342914D01*
X192170Y342000D01*
X192290Y341086D01*
X192643Y340235D01*
X193204Y339504D01*
X193935Y338943D01*
X194786Y338590D01*
X195700Y338470D01*
X200657D01*
Y335530D01*
X195700D01*
X194786Y335410D01*
X193935Y335057D01*
X193204Y334496D01*
X192643Y333765D01*
X192290Y332914D01*
X192170Y332000D01*
X192290Y331086D01*
X192643Y330235D01*
X193204Y329504D01*
X193935Y328943D01*
X194786Y328590D01*
X195700Y328470D01*
X200657D01*
Y326034D01*
X198700D01*
Y322000D01*
Y317966D01*
X200657D01*
Y316035D01*
X198700D01*
Y312000D01*
Y307965D01*
X200657D01*
Y305530D01*
X195700D01*
X194786Y305410D01*
X193935Y305057D01*
X193204Y304496D01*
X192643Y303765D01*
X192290Y302914D01*
X192170Y302000D01*
X192290Y301086D01*
X192643Y300235D01*
X193204Y299504D01*
X193935Y298943D01*
X194786Y298590D01*
X195700Y298470D01*
X200657D01*
Y295530D01*
X195700D01*
X194786Y295410D01*
X193935Y295057D01*
X193204Y294496D01*
X192643Y293765D01*
X192290Y292914D01*
X192170Y292000D01*
X192290Y291086D01*
X192643Y290235D01*
X193204Y289504D01*
X193935Y288943D01*
X194786Y288590D01*
X195700Y288470D01*
X200657D01*
Y285530D01*
X195700D01*
X194786Y285410D01*
X193935Y285057D01*
X193204Y284496D01*
X192643Y283765D01*
X192290Y282914D01*
X192170Y282000D01*
X192290Y281086D01*
X192643Y280235D01*
X193204Y279504D01*
X193935Y278943D01*
X194786Y278590D01*
X195700Y278470D01*
X200657D01*
Y267705D01*
X200119Y267439D01*
X199965Y267557D01*
X199114Y267910D01*
X198200Y268030D01*
X197286Y267910D01*
X196435Y267557D01*
X195704Y266996D01*
X195143Y266265D01*
X194790Y265414D01*
X194670Y264500D01*
Y259500D01*
X194671Y259494D01*
X194275Y259043D01*
X192125D01*
X191729Y259494D01*
X191730Y259500D01*
Y264500D01*
X191610Y265414D01*
X191257Y266265D01*
X190696Y266996D01*
X189965Y267557D01*
X189114Y267910D01*
X188200Y268030D01*
X187286Y267910D01*
X186435Y267557D01*
X185704Y266996D01*
X185143Y266265D01*
X184790Y265414D01*
X184670Y264500D01*
Y259500D01*
X184671Y259494D01*
X184275Y259043D01*
X182125D01*
X181729Y259494D01*
X181730Y259500D01*
Y264500D01*
X181610Y265414D01*
X181257Y266265D01*
X180696Y266996D01*
X179965Y267557D01*
X179114Y267910D01*
X178200Y268030D01*
X177286Y267910D01*
X176435Y267557D01*
X175704Y266996D01*
X175143Y266265D01*
X174790Y265414D01*
X174670Y264500D01*
Y259500D01*
X174671Y259494D01*
X174275Y259043D01*
X172125D01*
X171729Y259494D01*
X171730Y259500D01*
Y264500D01*
X171610Y265414D01*
X171257Y266265D01*
X170696Y266996D01*
X169965Y267557D01*
X169114Y267910D01*
X168200Y268030D01*
X167286Y267910D01*
X166435Y267557D01*
X165704Y266996D01*
X165143Y266265D01*
X164790Y265414D01*
X164670Y264500D01*
Y259500D01*
X164671Y259494D01*
X164275Y259043D01*
X162125D01*
X161729Y259494D01*
X161730Y259500D01*
Y264500D01*
X161610Y265414D01*
X161257Y266265D01*
X160696Y266996D01*
X159965Y267557D01*
X159114Y267910D01*
X158200Y268030D01*
X157286Y267910D01*
X156435Y267557D01*
X155704Y266996D01*
X155143Y266265D01*
X154790Y265414D01*
X154670Y264500D01*
Y259500D01*
X154671Y259494D01*
X154275Y259043D01*
X152125D01*
X151729Y259494D01*
X151730Y259500D01*
Y264500D01*
X151610Y265414D01*
X151257Y266265D01*
X150696Y266996D01*
X149965Y267557D01*
X149114Y267910D01*
X148200Y268030D01*
X147286Y267910D01*
X146435Y267557D01*
X145704Y266996D01*
X145143Y266265D01*
X144790Y265414D01*
X144670Y264500D01*
Y259500D01*
X144671Y259494D01*
X144275Y259043D01*
X142125D01*
X141729Y259494D01*
X141730Y259500D01*
Y264500D01*
X141610Y265414D01*
X141257Y266265D01*
X140696Y266996D01*
X139965Y267557D01*
X139114Y267910D01*
X138200Y268030D01*
X137286Y267910D01*
X136435Y267557D01*
X135704Y266996D01*
X135143Y266265D01*
X134790Y265414D01*
X134670Y264500D01*
Y259500D01*
X134671Y259494D01*
X134275Y259043D01*
X132125D01*
X131729Y259494D01*
X131730Y259500D01*
Y264500D01*
X131610Y265414D01*
X131257Y266265D01*
X130696Y266996D01*
X129965Y267557D01*
X129114Y267910D01*
X128200Y268030D01*
X127286Y267910D01*
X126435Y267557D01*
X125704Y266996D01*
X125143Y266265D01*
X124790Y265414D01*
X124670Y264500D01*
Y259500D01*
X124671Y259494D01*
X124275Y259043D01*
X122125D01*
X121729Y259494D01*
X121730Y259500D01*
Y264500D01*
X121610Y265414D01*
X121257Y266265D01*
X120696Y266996D01*
X119965Y267557D01*
X119114Y267910D01*
X118200Y268030D01*
X117286Y267910D01*
X116435Y267557D01*
X115704Y266996D01*
X115143Y266265D01*
X114790Y265414D01*
X114670Y264500D01*
Y259500D01*
X114671Y259494D01*
X114275Y259043D01*
X112125D01*
X111729Y259494D01*
X111730Y259500D01*
Y264500D01*
X111610Y265414D01*
X111257Y266265D01*
X110696Y266996D01*
X109965Y267557D01*
X109114Y267910D01*
X108200Y268030D01*
X107286Y267910D01*
X106435Y267557D01*
X105704Y266996D01*
X105143Y266265D01*
X104790Y265414D01*
X104670Y264500D01*
Y259500D01*
X104671Y259494D01*
X104275Y259043D01*
X102629D01*
X102234Y259494D01*
X102234Y259500D01*
Y261500D01*
X98200D01*
X94165D01*
Y259500D01*
X94166Y259494D01*
X93771Y259043D01*
X92629D01*
X92234Y259494D01*
X92234Y259500D01*
Y261500D01*
X88200D01*
X84166D01*
Y259500D01*
X84166Y259494D01*
X83771Y259043D01*
X82125D01*
X81729Y259494D01*
X81730Y259500D01*
Y264500D01*
X81610Y265414D01*
X81257Y266265D01*
X80696Y266996D01*
X79965Y267557D01*
X79114Y267910D01*
X78200Y268030D01*
X77286Y267910D01*
X76435Y267557D01*
X75704Y266996D01*
X75143Y266265D01*
X74790Y265414D01*
X74670Y264500D01*
Y259500D01*
X74671Y259494D01*
X74275Y259043D01*
X72125D01*
X71729Y259494D01*
X71730Y259500D01*
Y264500D01*
X71610Y265414D01*
X71257Y266265D01*
X70696Y266996D01*
X69965Y267557D01*
X69831Y267613D01*
Y272369D01*
X84887D01*
X85400Y272267D01*
X86063Y272399D01*
X86626Y272774D01*
X87001Y273337D01*
X87133Y274000D01*
X87001Y274663D01*
X86626Y275226D01*
X86063Y275601D01*
X85400Y275733D01*
X84887Y275631D01*
X68876D01*
X61353Y283154D01*
X60824Y283507D01*
X60200Y283631D01*
X13813D01*
X13757Y283765D01*
X13196Y284496D01*
X12465Y285057D01*
X11614Y285410D01*
X10700Y285530D01*
X5700D01*
X5694Y285529D01*
X5243Y285925D01*
Y288075D01*
X5694Y288471D01*
X5700Y288470D01*
X10700D01*
X11614Y288590D01*
X12465Y288943D01*
X13196Y289504D01*
X13757Y290235D01*
X14110Y291086D01*
X14230Y292000D01*
X14110Y292914D01*
X13757Y293765D01*
X13196Y294496D01*
X12465Y295057D01*
X11614Y295410D01*
X10700Y295530D01*
X5700D01*
X5694Y295529D01*
X5243Y295925D01*
Y298075D01*
X5694Y298471D01*
X5700Y298470D01*
X10700D01*
X11614Y298590D01*
X12465Y298943D01*
X13196Y299504D01*
X13757Y300235D01*
X14110Y301086D01*
X14230Y302000D01*
X14110Y302914D01*
X13757Y303765D01*
X13196Y304496D01*
X12465Y305057D01*
X11614Y305410D01*
X10700Y305530D01*
X5700D01*
X5694Y305529D01*
X5243Y305925D01*
Y308075D01*
X5694Y308471D01*
X5700Y308470D01*
X10700D01*
X11614Y308590D01*
X12465Y308943D01*
X13196Y309504D01*
X13757Y310235D01*
X14110Y311086D01*
X14230Y312000D01*
X14110Y312914D01*
X13757Y313765D01*
X13196Y314496D01*
X12465Y315057D01*
X11614Y315410D01*
X10700Y315530D01*
X5700D01*
X5694Y315529D01*
X5243Y315925D01*
Y317571D01*
X5694Y317966D01*
X5700Y317966D01*
X7700D01*
Y322000D01*
Y326034D01*
X5700D01*
X5694Y326034D01*
X5243Y326429D01*
Y327571D01*
X5694Y327966D01*
X5700Y327965D01*
X7700D01*
Y332000D01*
Y336034D01*
X5700D01*
X5694Y336034D01*
X5243Y336429D01*
Y338075D01*
X5694Y338471D01*
X5700Y338470D01*
X10700D01*
X11614Y338590D01*
X12465Y338943D01*
X13196Y339504D01*
X13757Y340235D01*
X14110Y341086D01*
X14230Y342000D01*
X14110Y342914D01*
X13757Y343765D01*
X13196Y344496D01*
X12465Y345057D01*
X11614Y345410D01*
X10700Y345530D01*
X5700D01*
X5694Y345529D01*
X5243Y345925D01*
Y348075D01*
X5694Y348471D01*
X5700Y348470D01*
X10700D01*
X11614Y348590D01*
X12465Y348943D01*
X13196Y349504D01*
X13757Y350235D01*
X14110Y351086D01*
X14230Y352000D01*
X14110Y352914D01*
X13757Y353765D01*
X13196Y354496D01*
X12465Y355057D01*
X11614Y355410D01*
X10700Y355530D01*
X5700D01*
X5694Y355529D01*
X5243Y355925D01*
Y358075D01*
X5694Y358471D01*
X5700Y358470D01*
X10700D01*
X11614Y358590D01*
X12465Y358943D01*
X13196Y359504D01*
X13757Y360235D01*
X14110Y361086D01*
X14230Y362000D01*
X14110Y362914D01*
X13757Y363765D01*
X13196Y364496D01*
X12465Y365057D01*
X11614Y365410D01*
X10700Y365530D01*
X5700D01*
X5694Y365529D01*
X5243Y365925D01*
Y368075D01*
X5694Y368471D01*
X5700Y368470D01*
X10700D01*
X11614Y368590D01*
X12465Y368943D01*
X13196Y369504D01*
X13757Y370235D01*
X14110Y371086D01*
X14230Y372000D01*
X14110Y372914D01*
X13757Y373765D01*
X13196Y374496D01*
X12465Y375057D01*
X11614Y375410D01*
X10700Y375530D01*
X5700D01*
X5694Y375529D01*
X5243Y375925D01*
Y378075D01*
X5694Y378471D01*
X5700Y378470D01*
X10700D01*
X11614Y378590D01*
X12465Y378943D01*
X13196Y379504D01*
X13757Y380235D01*
X14110Y381086D01*
X14230Y382000D01*
X14110Y382914D01*
X13757Y383765D01*
X13196Y384496D01*
X12465Y385057D01*
X11614Y385410D01*
X10700Y385530D01*
X5700D01*
X5694Y385529D01*
X5243Y385925D01*
Y388075D01*
X5694Y388471D01*
X5700Y388470D01*
X10700D01*
X11614Y388590D01*
X12465Y388943D01*
X13196Y389504D01*
X13757Y390235D01*
X14110Y391086D01*
X14230Y392000D01*
X14110Y392914D01*
X13757Y393765D01*
X13196Y394496D01*
X12465Y395057D01*
X11614Y395410D01*
X10700Y395530D01*
X5700D01*
X5694Y395529D01*
X5243Y395925D01*
Y398075D01*
X5694Y398471D01*
X5700Y398470D01*
X10700D01*
X11614Y398590D01*
X12465Y398943D01*
X13196Y399504D01*
X13757Y400235D01*
X14110Y401086D01*
X14230Y402000D01*
X14110Y402914D01*
X13757Y403765D01*
X13196Y404496D01*
X12465Y405057D01*
X11614Y405410D01*
X10700Y405530D01*
X5700D01*
X5694Y405529D01*
X5243Y405925D01*
Y408075D01*
X5694Y408471D01*
X5700Y408470D01*
X10700D01*
X11614Y408590D01*
X12465Y408943D01*
X13196Y409504D01*
X13757Y410235D01*
X14110Y411086D01*
X14230Y412000D01*
X14110Y412914D01*
X13757Y413765D01*
X13196Y414496D01*
X12465Y415057D01*
X11614Y415410D01*
X10700Y415530D01*
X5700D01*
X5694Y415529D01*
X5243Y415925D01*
Y417571D01*
X5694Y417966D01*
X5700Y417966D01*
X7700D01*
Y422000D01*
Y426034D01*
X5700D01*
X5694Y426034D01*
X5243Y426429D01*
Y428075D01*
X5694Y428471D01*
X5700Y428470D01*
X10700D01*
X11614Y428590D01*
X12465Y428943D01*
X13196Y429504D01*
X13757Y430235D01*
X14110Y431086D01*
X14230Y432000D01*
X14110Y432914D01*
X13757Y433765D01*
X13196Y434496D01*
X12465Y435057D01*
X11614Y435410D01*
X10700Y435530D01*
X5700D01*
X5694Y435529D01*
X5243Y435925D01*
Y437571D01*
X5694Y437966D01*
X5700Y437965D01*
X7700D01*
Y442000D01*
Y446034D01*
X5700D01*
X5694Y446034D01*
X5243Y446429D01*
Y448075D01*
X5694Y448471D01*
X5700Y448470D01*
X10700D01*
X11614Y448590D01*
X12465Y448943D01*
X13196Y449504D01*
X13757Y450235D01*
X14110Y451086D01*
X14230Y452000D01*
X14110Y452914D01*
X13757Y453765D01*
X13196Y454496D01*
X12465Y455057D01*
X11614Y455410D01*
X10700Y455530D01*
X5700D01*
X5694Y455529D01*
X5243Y455925D01*
Y457571D01*
X5694Y457966D01*
X5700Y457966D01*
X7700D01*
Y462000D01*
Y466035D01*
X5700D01*
X5694Y466034D01*
X5243Y466429D01*
Y468500D01*
X14200D01*
Y475500D01*
X5243D01*
Y502957D01*
X20088D01*
X20309Y502357D01*
X18979Y501221D01*
X17650Y499665D01*
X16581Y497920D01*
X15798Y496030D01*
X15320Y494040D01*
X15160Y492000D01*
X15320Y489960D01*
X15798Y487970D01*
X16581Y486080D01*
X17650Y484335D01*
X18979Y482779D01*
X20535Y481450D01*
X22280Y480381D01*
X24170Y479598D01*
X26160Y479120D01*
X28200Y478960D01*
X30240Y479120D01*
X32230Y479598D01*
X34120Y480381D01*
X35865Y481450D01*
X37421Y482779D01*
X38750Y484335D01*
X39819Y486080D01*
X40602Y487970D01*
X41080Y489960D01*
X41240Y492000D01*
X41080Y494040D01*
X40602Y496030D01*
X39819Y497920D01*
X38750Y499665D01*
X37421Y501221D01*
X36091Y502357D01*
X36312Y502957D01*
X170088D01*
X170309Y502357D01*
X168979Y501221D01*
X167650Y499665D01*
X166581Y497920D01*
X165798Y496030D01*
X165320Y494040D01*
X165160Y492000D01*
X165320Y489960D01*
X165798Y487970D01*
X166581Y486080D01*
X167650Y484335D01*
X168979Y482779D01*
X170535Y481450D01*
X172280Y480381D01*
X174170Y479598D01*
X176160Y479120D01*
X178200Y478960D01*
X180240Y479120D01*
X182230Y479598D01*
X184120Y480381D01*
X185865Y481450D01*
X187421Y482779D01*
X188750Y484335D01*
X189819Y486080D01*
X190602Y487970D01*
X191080Y489960D01*
X191240Y492000D01*
X191080Y494040D01*
X190602Y496030D01*
X189819Y497920D01*
X188750Y499665D01*
X187421Y501221D01*
X186091Y502357D01*
X186312Y502957D01*
X200657D01*
Y476000D01*
D02*
G37*
G36*
X272569Y273324D02*
Y267613D01*
X272435Y267557D01*
X271704Y266996D01*
X271143Y266265D01*
X270790Y265414D01*
X270670Y264500D01*
Y259500D01*
X270671Y259494D01*
X270275Y259043D01*
X268125D01*
X267729Y259494D01*
X267730Y259500D01*
Y264500D01*
X267610Y265414D01*
X267257Y266265D01*
X266696Y266996D01*
X265965Y267557D01*
X265114Y267910D01*
X264200Y268030D01*
X263286Y267910D01*
X262435Y267557D01*
X261704Y266996D01*
X261143Y266265D01*
X260790Y265414D01*
X260670Y264500D01*
Y259500D01*
X260671Y259494D01*
X260275Y259043D01*
X258125D01*
X257729Y259494D01*
X257730Y259500D01*
Y264500D01*
X257610Y265414D01*
X257257Y266265D01*
X256696Y266996D01*
X255965Y267557D01*
X255114Y267910D01*
X254200Y268030D01*
X253286Y267910D01*
X252435Y267557D01*
X251704Y266996D01*
X251143Y266265D01*
X250790Y265414D01*
X250670Y264500D01*
Y259500D01*
X250671Y259494D01*
X250275Y259043D01*
X248125D01*
X247729Y259494D01*
X247730Y259500D01*
Y264500D01*
X247610Y265414D01*
X247257Y266265D01*
X246696Y266996D01*
X245965Y267557D01*
X245114Y267910D01*
X244200Y268030D01*
X243286Y267910D01*
X242435Y267557D01*
X241704Y266996D01*
X241143Y266265D01*
X240790Y265414D01*
X240670Y264500D01*
Y259500D01*
X240671Y259494D01*
X240275Y259043D01*
X238125D01*
X237729Y259494D01*
X237730Y259500D01*
Y264500D01*
X237610Y265414D01*
X237257Y266265D01*
X236696Y266996D01*
X235965Y267557D01*
X235114Y267910D01*
X234200Y268030D01*
X233286Y267910D01*
X232435Y267557D01*
X231704Y266996D01*
X231143Y266265D01*
X230790Y265414D01*
X230670Y264500D01*
Y259500D01*
X230671Y259494D01*
X230275Y259043D01*
X228125D01*
X227729Y259494D01*
X227730Y259500D01*
Y264500D01*
X227610Y265414D01*
X227257Y266265D01*
X226696Y266996D01*
X225965Y267557D01*
X225114Y267910D01*
X224200Y268030D01*
X223286Y267910D01*
X222435Y267557D01*
X221704Y266996D01*
X221143Y266265D01*
X220790Y265414D01*
X220670Y264500D01*
Y259500D01*
X220671Y259494D01*
X220275Y259043D01*
X218200D01*
Y261500D01*
X214200D01*
Y262000D01*
X213700D01*
Y268500D01*
X211243D01*
Y278075D01*
X211694Y278471D01*
X211700Y278470D01*
X216700D01*
X217614Y278590D01*
X218465Y278943D01*
X219196Y279504D01*
X219757Y280235D01*
X219813Y280369D01*
X265524D01*
X272569Y273324D01*
D02*
G37*
G36*
X66569D02*
Y267613D01*
X66435Y267557D01*
X65704Y266996D01*
X65143Y266265D01*
X64790Y265414D01*
X64670Y264500D01*
Y259500D01*
X64671Y259494D01*
X64275Y259043D01*
X62125D01*
X61729Y259494D01*
X61730Y259500D01*
Y264500D01*
X61610Y265414D01*
X61257Y266265D01*
X60696Y266996D01*
X59965Y267557D01*
X59114Y267910D01*
X58200Y268030D01*
X57286Y267910D01*
X56435Y267557D01*
X55704Y266996D01*
X55143Y266265D01*
X54790Y265414D01*
X54670Y264500D01*
Y259500D01*
X54671Y259494D01*
X54275Y259043D01*
X52125D01*
X51729Y259494D01*
X51730Y259500D01*
Y264500D01*
X51610Y265414D01*
X51257Y266265D01*
X50696Y266996D01*
X49965Y267557D01*
X49114Y267910D01*
X48200Y268030D01*
X47286Y267910D01*
X46435Y267557D01*
X45704Y266996D01*
X45143Y266265D01*
X44790Y265414D01*
X44670Y264500D01*
Y259500D01*
X44671Y259494D01*
X44275Y259043D01*
X42125D01*
X41729Y259494D01*
X41730Y259500D01*
Y264500D01*
X41610Y265414D01*
X41257Y266265D01*
X40696Y266996D01*
X39965Y267557D01*
X39114Y267910D01*
X38200Y268030D01*
X37286Y267910D01*
X36435Y267557D01*
X35704Y266996D01*
X35143Y266265D01*
X34790Y265414D01*
X34670Y264500D01*
Y259500D01*
X34671Y259494D01*
X34275Y259043D01*
X32125D01*
X31729Y259494D01*
X31730Y259500D01*
Y264500D01*
X31610Y265414D01*
X31257Y266265D01*
X30696Y266996D01*
X29965Y267557D01*
X29114Y267910D01*
X28200Y268030D01*
X27286Y267910D01*
X26435Y267557D01*
X25704Y266996D01*
X25143Y266265D01*
X24790Y265414D01*
X24670Y264500D01*
Y259500D01*
X24671Y259494D01*
X24275Y259043D01*
X22125D01*
X21729Y259494D01*
X21730Y259500D01*
Y264500D01*
X21610Y265414D01*
X21257Y266265D01*
X20696Y266996D01*
X19965Y267557D01*
X19114Y267910D01*
X18200Y268030D01*
X17286Y267910D01*
X16435Y267557D01*
X15704Y266996D01*
X15143Y266265D01*
X14790Y265414D01*
X14670Y264500D01*
Y259500D01*
X14671Y259494D01*
X14275Y259043D01*
X12200D01*
Y261500D01*
X8200D01*
Y262000D01*
X7700D01*
Y268500D01*
X5243D01*
Y278075D01*
X5694Y278471D01*
X5700Y278470D01*
X10700D01*
X11614Y278590D01*
X12465Y278943D01*
X13196Y279504D01*
X13757Y280235D01*
X13813Y280369D01*
X59524D01*
X66569Y273324D01*
D02*
G37*
G36*
X406657Y222000D02*
X404700D01*
Y218000D01*
Y214000D01*
X406657D01*
Y211530D01*
X401700D01*
X400786Y211410D01*
X399935Y211057D01*
X399204Y210496D01*
X398643Y209765D01*
X398290Y208914D01*
X398170Y208000D01*
X398290Y207086D01*
X398643Y206235D01*
X399204Y205504D01*
X399935Y204943D01*
X400786Y204590D01*
X401700Y204470D01*
X406657D01*
Y201530D01*
X401700D01*
X400786Y201410D01*
X399935Y201057D01*
X399204Y200496D01*
X398643Y199765D01*
X398290Y198914D01*
X398170Y198000D01*
X398290Y197086D01*
X398643Y196235D01*
X399204Y195504D01*
X399935Y194943D01*
X400786Y194590D01*
X401700Y194470D01*
X406657D01*
Y192034D01*
X404700D01*
Y188000D01*
Y183966D01*
X406657D01*
Y181530D01*
X401700D01*
X400786Y181410D01*
X399935Y181057D01*
X399204Y180496D01*
X398643Y179765D01*
X398290Y178914D01*
X398170Y178000D01*
X398290Y177086D01*
X398643Y176235D01*
X399204Y175504D01*
X399935Y174943D01*
X400786Y174590D01*
X401700Y174470D01*
X406657D01*
Y171530D01*
X401700D01*
X400786Y171410D01*
X399935Y171057D01*
X399204Y170496D01*
X398643Y169765D01*
X398290Y168914D01*
X398170Y168000D01*
X398290Y167086D01*
X398643Y166235D01*
X399204Y165504D01*
X399935Y164943D01*
X400786Y164590D01*
X401700Y164470D01*
X406657D01*
Y162034D01*
X404700D01*
Y158000D01*
Y153965D01*
X406657D01*
Y151530D01*
X401700D01*
X400786Y151410D01*
X399935Y151057D01*
X399204Y150496D01*
X398643Y149765D01*
X398290Y148914D01*
X398170Y148000D01*
X398290Y147086D01*
X398643Y146235D01*
X399204Y145504D01*
X399935Y144943D01*
X400786Y144590D01*
X401700Y144470D01*
X406657D01*
Y142034D01*
X404700D01*
Y138000D01*
Y133966D01*
X406657D01*
Y132035D01*
X404700D01*
Y128000D01*
Y123966D01*
X406657D01*
Y121530D01*
X401700D01*
X400786Y121410D01*
X399935Y121057D01*
X399204Y120496D01*
X398643Y119765D01*
X398290Y118914D01*
X398170Y118000D01*
X398290Y117086D01*
X398643Y116235D01*
X399204Y115504D01*
X399935Y114943D01*
X400786Y114590D01*
X401700Y114470D01*
X406657D01*
Y111530D01*
X401700D01*
X400786Y111410D01*
X399935Y111057D01*
X399204Y110496D01*
X398643Y109765D01*
X398290Y108914D01*
X398170Y108000D01*
X398290Y107086D01*
X398643Y106235D01*
X399204Y105504D01*
X399935Y104943D01*
X400786Y104590D01*
X401700Y104470D01*
X406657D01*
Y101530D01*
X401700D01*
X400786Y101410D01*
X399935Y101057D01*
X399204Y100496D01*
X398643Y99765D01*
X398290Y98914D01*
X398170Y98000D01*
X398290Y97086D01*
X398643Y96235D01*
X399204Y95504D01*
X399935Y94943D01*
X400786Y94590D01*
X401700Y94470D01*
X406657D01*
Y91530D01*
X401700D01*
X400786Y91410D01*
X399935Y91057D01*
X399204Y90496D01*
X398643Y89765D01*
X398290Y88914D01*
X398170Y88000D01*
X398290Y87086D01*
X398643Y86235D01*
X399204Y85504D01*
X399935Y84943D01*
X400786Y84590D01*
X401700Y84470D01*
X406657D01*
Y81530D01*
X401700D01*
X400786Y81410D01*
X399935Y81057D01*
X399204Y80496D01*
X398643Y79765D01*
X398290Y78914D01*
X398170Y78000D01*
X398290Y77086D01*
X398643Y76235D01*
X399204Y75504D01*
X399935Y74943D01*
X400786Y74590D01*
X401700Y74470D01*
X406657D01*
Y72035D01*
X404700D01*
Y68000D01*
Y63965D01*
X406657D01*
Y62034D01*
X404700D01*
Y58000D01*
Y53966D01*
X406657D01*
Y51530D01*
X401700D01*
X400786Y51410D01*
X399935Y51057D01*
X399204Y50496D01*
X398643Y49765D01*
X398290Y48914D01*
X398170Y48000D01*
X398290Y47086D01*
X398643Y46235D01*
X399204Y45504D01*
X399935Y44943D01*
X400786Y44590D01*
X401700Y44470D01*
X406657D01*
Y41530D01*
X401700D01*
X400786Y41410D01*
X399935Y41057D01*
X399204Y40496D01*
X398643Y39765D01*
X398290Y38914D01*
X398170Y38000D01*
X398290Y37086D01*
X398643Y36235D01*
X399204Y35504D01*
X399935Y34943D01*
X400786Y34590D01*
X401700Y34470D01*
X406657D01*
Y31530D01*
X401700D01*
X400786Y31410D01*
X399935Y31057D01*
X399204Y30496D01*
X398643Y29765D01*
X398290Y28914D01*
X398170Y28000D01*
X398290Y27086D01*
X398643Y26235D01*
X399204Y25504D01*
X399935Y24943D01*
X400786Y24590D01*
X401700Y24470D01*
X406657D01*
Y13705D01*
X406119Y13439D01*
X405965Y13557D01*
X405114Y13910D01*
X404200Y14030D01*
X403286Y13910D01*
X402435Y13557D01*
X401704Y12996D01*
X401143Y12265D01*
X400790Y11414D01*
X400670Y10500D01*
Y5500D01*
X400671Y5494D01*
X400275Y5043D01*
X398125D01*
X397729Y5494D01*
X397730Y5500D01*
Y10500D01*
X397610Y11414D01*
X397257Y12265D01*
X396696Y12996D01*
X395965Y13557D01*
X395114Y13910D01*
X394200Y14030D01*
X393286Y13910D01*
X392435Y13557D01*
X391704Y12996D01*
X391143Y12265D01*
X390790Y11414D01*
X390670Y10500D01*
Y5500D01*
X390671Y5494D01*
X390275Y5043D01*
X388125D01*
X387729Y5494D01*
X387730Y5500D01*
Y10500D01*
X387610Y11414D01*
X387257Y12265D01*
X386696Y12996D01*
X385965Y13557D01*
X385114Y13910D01*
X384200Y14030D01*
X383286Y13910D01*
X382435Y13557D01*
X381704Y12996D01*
X381143Y12265D01*
X380790Y11414D01*
X380670Y10500D01*
Y5500D01*
X380671Y5494D01*
X380275Y5043D01*
X378125D01*
X377729Y5494D01*
X377730Y5500D01*
Y10500D01*
X377610Y11414D01*
X377257Y12265D01*
X376696Y12996D01*
X375965Y13557D01*
X375114Y13910D01*
X374200Y14030D01*
X373286Y13910D01*
X372435Y13557D01*
X371704Y12996D01*
X371143Y12265D01*
X370790Y11414D01*
X370670Y10500D01*
Y5500D01*
X370671Y5494D01*
X370275Y5043D01*
X368125D01*
X367729Y5494D01*
X367730Y5500D01*
Y10500D01*
X367610Y11414D01*
X367257Y12265D01*
X366696Y12996D01*
X365965Y13557D01*
X365114Y13910D01*
X364200Y14030D01*
X363286Y13910D01*
X362435Y13557D01*
X361704Y12996D01*
X361143Y12265D01*
X360790Y11414D01*
X360670Y10500D01*
Y5500D01*
X360671Y5494D01*
X360275Y5043D01*
X358125D01*
X357729Y5494D01*
X357730Y5500D01*
Y10500D01*
X357610Y11414D01*
X357257Y12265D01*
X356696Y12996D01*
X355965Y13557D01*
X355114Y13910D01*
X354200Y14030D01*
X353286Y13910D01*
X352435Y13557D01*
X351704Y12996D01*
X351143Y12265D01*
X350790Y11414D01*
X350670Y10500D01*
Y5500D01*
X350671Y5494D01*
X350275Y5043D01*
X348125D01*
X347729Y5494D01*
X347730Y5500D01*
Y10500D01*
X347610Y11414D01*
X347257Y12265D01*
X346696Y12996D01*
X345965Y13557D01*
X345114Y13910D01*
X344200Y14030D01*
X343286Y13910D01*
X342435Y13557D01*
X341704Y12996D01*
X341143Y12265D01*
X340790Y11414D01*
X340670Y10500D01*
Y5500D01*
X340671Y5494D01*
X340275Y5043D01*
X338125D01*
X337729Y5494D01*
X337730Y5500D01*
Y10500D01*
X337610Y11414D01*
X337257Y12265D01*
X336696Y12996D01*
X335965Y13557D01*
X335114Y13910D01*
X334200Y14030D01*
X333286Y13910D01*
X332435Y13557D01*
X331704Y12996D01*
X331143Y12265D01*
X330790Y11414D01*
X330670Y10500D01*
Y5500D01*
X330671Y5494D01*
X330275Y5043D01*
X328125D01*
X327729Y5494D01*
X327730Y5500D01*
Y10500D01*
X327610Y11414D01*
X327257Y12265D01*
X326696Y12996D01*
X325965Y13557D01*
X325114Y13910D01*
X324200Y14030D01*
X323286Y13910D01*
X322435Y13557D01*
X321704Y12996D01*
X321143Y12265D01*
X320790Y11414D01*
X320670Y10500D01*
Y5500D01*
X320671Y5494D01*
X320275Y5043D01*
X318125D01*
X317729Y5494D01*
X317730Y5500D01*
Y10500D01*
X317610Y11414D01*
X317257Y12265D01*
X316696Y12996D01*
X315965Y13557D01*
X315114Y13910D01*
X314200Y14030D01*
X313286Y13910D01*
X312435Y13557D01*
X311704Y12996D01*
X311143Y12265D01*
X310790Y11414D01*
X310670Y10500D01*
Y5500D01*
X310671Y5494D01*
X310275Y5043D01*
X308629D01*
X308234Y5494D01*
X308235Y5500D01*
Y7500D01*
X304200D01*
X300166D01*
Y5500D01*
X300166Y5494D01*
X299771Y5043D01*
X298629D01*
X298234Y5494D01*
X298235Y5500D01*
Y7500D01*
X294200D01*
X290165D01*
Y5500D01*
X290166Y5494D01*
X289771Y5043D01*
X288125D01*
X287729Y5494D01*
X287730Y5500D01*
Y10500D01*
X287610Y11414D01*
X287257Y12265D01*
X286696Y12996D01*
X285965Y13557D01*
X285114Y13910D01*
X284200Y14030D01*
X283286Y13910D01*
X282435Y13557D01*
X281704Y12996D01*
X281143Y12265D01*
X280790Y11414D01*
X280670Y10500D01*
Y5500D01*
X280671Y5494D01*
X280275Y5043D01*
X278125D01*
X277729Y5494D01*
X277730Y5500D01*
Y10500D01*
X277610Y11414D01*
X277257Y12265D01*
X276696Y12996D01*
X275965Y13557D01*
X275831Y13613D01*
Y18369D01*
X290887D01*
X291400Y18267D01*
X292063Y18399D01*
X292626Y18774D01*
X293001Y19337D01*
X293133Y20000D01*
X293001Y20663D01*
X292626Y21226D01*
X292063Y21601D01*
X291400Y21733D01*
X290887Y21631D01*
X274876D01*
X267354Y29154D01*
X266824Y29507D01*
X266200Y29631D01*
X219813D01*
X219757Y29765D01*
X219196Y30496D01*
X218465Y31057D01*
X217614Y31410D01*
X216700Y31530D01*
X211700D01*
X211694Y31530D01*
X211243Y31925D01*
Y34075D01*
X211694Y34471D01*
X211700Y34470D01*
X216700D01*
X217614Y34590D01*
X218465Y34943D01*
X219196Y35504D01*
X219757Y36235D01*
X220110Y37086D01*
X220230Y38000D01*
X220110Y38914D01*
X219757Y39765D01*
X219196Y40496D01*
X218465Y41057D01*
X217614Y41410D01*
X216700Y41530D01*
X211700D01*
X211694Y41530D01*
X211243Y41925D01*
Y44075D01*
X211694Y44471D01*
X211700Y44470D01*
X216700D01*
X217614Y44590D01*
X218465Y44943D01*
X219196Y45504D01*
X219757Y46235D01*
X220110Y47086D01*
X220230Y48000D01*
X220110Y48914D01*
X219757Y49765D01*
X219196Y50496D01*
X218465Y51057D01*
X217614Y51410D01*
X216700Y51530D01*
X211700D01*
X211694Y51529D01*
X211243Y51925D01*
Y54075D01*
X211694Y54471D01*
X211700Y54470D01*
X216700D01*
X217614Y54590D01*
X218465Y54943D01*
X219196Y55504D01*
X219757Y56235D01*
X220110Y57086D01*
X220230Y58000D01*
X220110Y58914D01*
X219757Y59765D01*
X219196Y60496D01*
X218465Y61057D01*
X217614Y61410D01*
X216700Y61530D01*
X211700D01*
X211694Y61529D01*
X211243Y61925D01*
Y63571D01*
X211694Y63966D01*
X211700Y63965D01*
X213700D01*
Y68000D01*
Y72035D01*
X211700D01*
X211694Y72034D01*
X211243Y72429D01*
Y73571D01*
X211694Y73966D01*
X211700Y73966D01*
X213700D01*
Y78000D01*
Y82034D01*
X211700D01*
X211694Y82034D01*
X211243Y82429D01*
Y84075D01*
X211694Y84471D01*
X211700Y84470D01*
X216700D01*
X217614Y84590D01*
X218465Y84943D01*
X219196Y85504D01*
X219757Y86235D01*
X220110Y87086D01*
X220230Y88000D01*
X220110Y88914D01*
X219757Y89765D01*
X219196Y90496D01*
X218465Y91057D01*
X217614Y91410D01*
X216700Y91530D01*
X211700D01*
X211694Y91529D01*
X211243Y91925D01*
Y94075D01*
X211694Y94471D01*
X211700Y94470D01*
X216700D01*
X217614Y94590D01*
X218465Y94943D01*
X219196Y95504D01*
X219757Y96235D01*
X220110Y97086D01*
X220230Y98000D01*
X220110Y98914D01*
X219757Y99765D01*
X219196Y100496D01*
X218465Y101057D01*
X217614Y101410D01*
X216700Y101530D01*
X211700D01*
X211694Y101529D01*
X211243Y101925D01*
Y104075D01*
X211694Y104471D01*
X211700Y104470D01*
X216700D01*
X217614Y104590D01*
X218465Y104943D01*
X219196Y105504D01*
X219757Y106235D01*
X220110Y107086D01*
X220230Y108000D01*
X220110Y108914D01*
X219757Y109765D01*
X219196Y110496D01*
X218465Y111057D01*
X217614Y111410D01*
X216700Y111530D01*
X211700D01*
X211694Y111529D01*
X211243Y111925D01*
Y114075D01*
X211694Y114471D01*
X211700Y114470D01*
X216700D01*
X217614Y114590D01*
X218465Y114943D01*
X219196Y115504D01*
X219757Y116235D01*
X220110Y117086D01*
X220230Y118000D01*
X220110Y118914D01*
X219757Y119765D01*
X219196Y120496D01*
X218465Y121057D01*
X217614Y121410D01*
X216700Y121530D01*
X211700D01*
X211694Y121529D01*
X211243Y121925D01*
Y124075D01*
X211694Y124471D01*
X211700Y124470D01*
X216700D01*
X217614Y124590D01*
X218465Y124943D01*
X219196Y125504D01*
X219757Y126235D01*
X220110Y127086D01*
X220230Y128000D01*
X220110Y128914D01*
X219757Y129765D01*
X219196Y130496D01*
X218465Y131057D01*
X217614Y131410D01*
X216700Y131530D01*
X211700D01*
X211694Y131529D01*
X211243Y131925D01*
Y134075D01*
X211694Y134471D01*
X211700Y134470D01*
X216700D01*
X217614Y134590D01*
X218465Y134943D01*
X219196Y135504D01*
X219757Y136235D01*
X220110Y137086D01*
X220230Y138000D01*
X220110Y138914D01*
X219757Y139765D01*
X219196Y140496D01*
X218465Y141057D01*
X217614Y141410D01*
X216700Y141530D01*
X211700D01*
X211694Y141529D01*
X211243Y141925D01*
Y144075D01*
X211694Y144471D01*
X211700Y144470D01*
X216700D01*
X217614Y144590D01*
X218465Y144943D01*
X219196Y145504D01*
X219757Y146235D01*
X220110Y147086D01*
X220230Y148000D01*
X220110Y148914D01*
X219757Y149765D01*
X219196Y150496D01*
X218465Y151057D01*
X217614Y151410D01*
X216700Y151530D01*
X211700D01*
X211694Y151529D01*
X211243Y151925D01*
Y154075D01*
X211694Y154471D01*
X211700Y154470D01*
X216700D01*
X217614Y154590D01*
X218465Y154943D01*
X219196Y155504D01*
X219757Y156235D01*
X220110Y157086D01*
X220230Y158000D01*
X220110Y158914D01*
X219757Y159765D01*
X219196Y160496D01*
X218465Y161057D01*
X217614Y161410D01*
X216700Y161530D01*
X211700D01*
X211694Y161529D01*
X211243Y161925D01*
Y163571D01*
X211694Y163966D01*
X211700Y163965D01*
X213700D01*
Y168000D01*
Y172035D01*
X211700D01*
X211694Y172034D01*
X211243Y172429D01*
Y174075D01*
X211694Y174471D01*
X211700Y174470D01*
X216700D01*
X217614Y174590D01*
X218465Y174943D01*
X219196Y175504D01*
X219757Y176235D01*
X220110Y177086D01*
X220230Y178000D01*
X220110Y178914D01*
X219757Y179765D01*
X219196Y180496D01*
X218465Y181057D01*
X217614Y181410D01*
X216700Y181530D01*
X211700D01*
X211694Y181529D01*
X211243Y181925D01*
Y183571D01*
X211694Y183966D01*
X211700Y183966D01*
X213700D01*
Y188000D01*
Y192034D01*
X211700D01*
X211694Y192034D01*
X211243Y192429D01*
Y194075D01*
X211694Y194471D01*
X211700Y194470D01*
X216700D01*
X217614Y194590D01*
X218465Y194943D01*
X219196Y195504D01*
X219757Y196235D01*
X220110Y197086D01*
X220230Y198000D01*
X220110Y198914D01*
X219757Y199765D01*
X219196Y200496D01*
X218465Y201057D01*
X217614Y201410D01*
X216700Y201530D01*
X211700D01*
X211694Y201529D01*
X211243Y201925D01*
Y203571D01*
X211694Y203966D01*
X211700Y203965D01*
X213700D01*
Y208000D01*
Y212035D01*
X211700D01*
X211694Y212034D01*
X211243Y212429D01*
Y214500D01*
X220200D01*
Y221500D01*
X211243D01*
Y248957D01*
X226088D01*
X226309Y248357D01*
X224979Y247221D01*
X223650Y245665D01*
X222581Y243920D01*
X221798Y242030D01*
X221320Y240040D01*
X221160Y238000D01*
X221320Y235960D01*
X221798Y233970D01*
X222581Y232080D01*
X223650Y230335D01*
X224979Y228779D01*
X226535Y227450D01*
X228280Y226381D01*
X230170Y225598D01*
X232160Y225120D01*
X234200Y224960D01*
X236240Y225120D01*
X238230Y225598D01*
X240120Y226381D01*
X241865Y227450D01*
X243421Y228779D01*
X244750Y230335D01*
X245819Y232080D01*
X246602Y233970D01*
X247080Y235960D01*
X247240Y238000D01*
X247080Y240040D01*
X246602Y242030D01*
X245819Y243920D01*
X244750Y245665D01*
X243421Y247221D01*
X242091Y248357D01*
X242312Y248957D01*
X376088D01*
X376309Y248357D01*
X374979Y247221D01*
X373650Y245665D01*
X372581Y243920D01*
X371798Y242030D01*
X371320Y240040D01*
X371160Y238000D01*
X371320Y235960D01*
X371798Y233970D01*
X372581Y232080D01*
X373650Y230335D01*
X374979Y228779D01*
X376535Y227450D01*
X378280Y226381D01*
X380170Y225598D01*
X382160Y225120D01*
X384200Y224960D01*
X386240Y225120D01*
X388230Y225598D01*
X390120Y226381D01*
X391865Y227450D01*
X393421Y228779D01*
X394750Y230335D01*
X395819Y232080D01*
X396602Y233970D01*
X397080Y235960D01*
X397240Y238000D01*
X397080Y240040D01*
X396602Y242030D01*
X395819Y243920D01*
X394750Y245665D01*
X393421Y247221D01*
X392091Y248357D01*
X392312Y248957D01*
X406657D01*
Y222000D01*
D02*
G37*
G36*
X200657D02*
X198700D01*
Y218000D01*
Y214000D01*
X200657D01*
Y211530D01*
X195700D01*
X194786Y211410D01*
X193935Y211057D01*
X193204Y210496D01*
X192643Y209765D01*
X192290Y208914D01*
X192170Y208000D01*
X192290Y207086D01*
X192643Y206235D01*
X193204Y205504D01*
X193935Y204943D01*
X194786Y204590D01*
X195700Y204470D01*
X200657D01*
Y201530D01*
X195700D01*
X194786Y201410D01*
X193935Y201057D01*
X193204Y200496D01*
X192643Y199765D01*
X192290Y198914D01*
X192170Y198000D01*
X192290Y197086D01*
X192643Y196235D01*
X193204Y195504D01*
X193935Y194943D01*
X194786Y194590D01*
X195700Y194470D01*
X200657D01*
Y192034D01*
X198700D01*
Y188000D01*
Y183966D01*
X200657D01*
Y181530D01*
X195700D01*
X194786Y181410D01*
X193935Y181057D01*
X193204Y180496D01*
X192643Y179765D01*
X192290Y178914D01*
X192170Y178000D01*
X192290Y177086D01*
X192643Y176235D01*
X193204Y175504D01*
X193935Y174943D01*
X194786Y174590D01*
X195700Y174470D01*
X200657D01*
Y171530D01*
X195700D01*
X194786Y171410D01*
X193935Y171057D01*
X193204Y170496D01*
X192643Y169765D01*
X192290Y168914D01*
X192170Y168000D01*
X192290Y167086D01*
X192643Y166235D01*
X193204Y165504D01*
X193935Y164943D01*
X194786Y164590D01*
X195700Y164470D01*
X200657D01*
Y162034D01*
X198700D01*
Y158000D01*
Y153965D01*
X200657D01*
Y151530D01*
X195700D01*
X194786Y151410D01*
X193935Y151057D01*
X193204Y150496D01*
X192643Y149765D01*
X192290Y148914D01*
X192170Y148000D01*
X192290Y147086D01*
X192643Y146235D01*
X193204Y145504D01*
X193935Y144943D01*
X194786Y144590D01*
X195700Y144470D01*
X200657D01*
Y142034D01*
X198700D01*
Y138000D01*
Y133966D01*
X200657D01*
Y132035D01*
X198700D01*
Y128000D01*
Y123966D01*
X200657D01*
Y121530D01*
X195700D01*
X194786Y121410D01*
X193935Y121057D01*
X193204Y120496D01*
X192643Y119765D01*
X192290Y118914D01*
X192170Y118000D01*
X192290Y117086D01*
X192643Y116235D01*
X193204Y115504D01*
X193935Y114943D01*
X194786Y114590D01*
X195700Y114470D01*
X200657D01*
Y111530D01*
X195700D01*
X194786Y111410D01*
X193935Y111057D01*
X193204Y110496D01*
X192643Y109765D01*
X192290Y108914D01*
X192170Y108000D01*
X192290Y107086D01*
X192643Y106235D01*
X193204Y105504D01*
X193935Y104943D01*
X194786Y104590D01*
X195700Y104470D01*
X200657D01*
Y101530D01*
X195700D01*
X194786Y101410D01*
X193935Y101057D01*
X193204Y100496D01*
X192643Y99765D01*
X192290Y98914D01*
X192170Y98000D01*
X192290Y97086D01*
X192643Y96235D01*
X193204Y95504D01*
X193935Y94943D01*
X194786Y94590D01*
X195700Y94470D01*
X200657D01*
Y91530D01*
X195700D01*
X194786Y91410D01*
X193935Y91057D01*
X193204Y90496D01*
X192643Y89765D01*
X192290Y88914D01*
X192170Y88000D01*
X192290Y87086D01*
X192643Y86235D01*
X193204Y85504D01*
X193935Y84943D01*
X194786Y84590D01*
X195700Y84470D01*
X200657D01*
Y81530D01*
X195700D01*
X194786Y81410D01*
X193935Y81057D01*
X193204Y80496D01*
X192643Y79765D01*
X192290Y78914D01*
X192170Y78000D01*
X192290Y77086D01*
X192643Y76235D01*
X193204Y75504D01*
X193935Y74943D01*
X194786Y74590D01*
X195700Y74470D01*
X200657D01*
Y72035D01*
X198700D01*
Y68000D01*
Y63965D01*
X200657D01*
Y62034D01*
X198700D01*
Y58000D01*
Y53966D01*
X200657D01*
Y51530D01*
X195700D01*
X194786Y51410D01*
X193935Y51057D01*
X193204Y50496D01*
X192643Y49765D01*
X192290Y48914D01*
X192170Y48000D01*
X192290Y47086D01*
X192643Y46235D01*
X193204Y45504D01*
X193935Y44943D01*
X194786Y44590D01*
X195700Y44470D01*
X200657D01*
Y41530D01*
X195700D01*
X194786Y41410D01*
X193935Y41057D01*
X193204Y40496D01*
X192643Y39765D01*
X192290Y38914D01*
X192170Y38000D01*
X192290Y37086D01*
X192643Y36235D01*
X193204Y35504D01*
X193935Y34943D01*
X194786Y34590D01*
X195700Y34470D01*
X200657D01*
Y31530D01*
X195700D01*
X194786Y31410D01*
X193935Y31057D01*
X193204Y30496D01*
X192643Y29765D01*
X192290Y28914D01*
X192170Y28000D01*
X192290Y27086D01*
X192643Y26235D01*
X193204Y25504D01*
X193935Y24943D01*
X194786Y24590D01*
X195700Y24470D01*
X200657D01*
Y13705D01*
X200119Y13439D01*
X199965Y13557D01*
X199114Y13910D01*
X198200Y14030D01*
X197286Y13910D01*
X196435Y13557D01*
X195704Y12996D01*
X195143Y12265D01*
X194790Y11414D01*
X194670Y10500D01*
Y5500D01*
X194671Y5494D01*
X194275Y5043D01*
X192125D01*
X191729Y5494D01*
X191730Y5500D01*
Y10500D01*
X191610Y11414D01*
X191257Y12265D01*
X190696Y12996D01*
X189965Y13557D01*
X189114Y13910D01*
X188200Y14030D01*
X187286Y13910D01*
X186435Y13557D01*
X185704Y12996D01*
X185143Y12265D01*
X184790Y11414D01*
X184670Y10500D01*
Y5500D01*
X184671Y5494D01*
X184275Y5043D01*
X182125D01*
X181729Y5494D01*
X181730Y5500D01*
Y10500D01*
X181610Y11414D01*
X181257Y12265D01*
X180696Y12996D01*
X179965Y13557D01*
X179114Y13910D01*
X178200Y14030D01*
X177286Y13910D01*
X176435Y13557D01*
X175704Y12996D01*
X175143Y12265D01*
X174790Y11414D01*
X174670Y10500D01*
Y5500D01*
X174671Y5494D01*
X174275Y5043D01*
X172125D01*
X171729Y5494D01*
X171730Y5500D01*
Y10500D01*
X171610Y11414D01*
X171257Y12265D01*
X170696Y12996D01*
X169965Y13557D01*
X169114Y13910D01*
X168200Y14030D01*
X167286Y13910D01*
X166435Y13557D01*
X165704Y12996D01*
X165143Y12265D01*
X164790Y11414D01*
X164670Y10500D01*
Y5500D01*
X164671Y5494D01*
X164275Y5043D01*
X162125D01*
X161729Y5494D01*
X161730Y5500D01*
Y10500D01*
X161610Y11414D01*
X161257Y12265D01*
X160696Y12996D01*
X159965Y13557D01*
X159114Y13910D01*
X158200Y14030D01*
X157286Y13910D01*
X156435Y13557D01*
X155704Y12996D01*
X155143Y12265D01*
X154790Y11414D01*
X154670Y10500D01*
Y5500D01*
X154671Y5494D01*
X154275Y5043D01*
X152125D01*
X151729Y5494D01*
X151730Y5500D01*
Y10500D01*
X151610Y11414D01*
X151257Y12265D01*
X150696Y12996D01*
X149965Y13557D01*
X149114Y13910D01*
X148200Y14030D01*
X147286Y13910D01*
X146435Y13557D01*
X145704Y12996D01*
X145143Y12265D01*
X144790Y11414D01*
X144670Y10500D01*
Y5500D01*
X144671Y5494D01*
X144275Y5043D01*
X142125D01*
X141729Y5494D01*
X141730Y5500D01*
Y10500D01*
X141610Y11414D01*
X141257Y12265D01*
X140696Y12996D01*
X139965Y13557D01*
X139114Y13910D01*
X138200Y14030D01*
X137286Y13910D01*
X136435Y13557D01*
X135704Y12996D01*
X135143Y12265D01*
X134790Y11414D01*
X134670Y10500D01*
Y5500D01*
X134671Y5494D01*
X134275Y5043D01*
X132125D01*
X131729Y5494D01*
X131730Y5500D01*
Y10500D01*
X131610Y11414D01*
X131257Y12265D01*
X130696Y12996D01*
X129965Y13557D01*
X129114Y13910D01*
X128200Y14030D01*
X127286Y13910D01*
X126435Y13557D01*
X125704Y12996D01*
X125143Y12265D01*
X124790Y11414D01*
X124670Y10500D01*
Y5500D01*
X124671Y5494D01*
X124275Y5043D01*
X122125D01*
X121729Y5494D01*
X121730Y5500D01*
Y10500D01*
X121610Y11414D01*
X121257Y12265D01*
X120696Y12996D01*
X119965Y13557D01*
X119114Y13910D01*
X118200Y14030D01*
X117286Y13910D01*
X116435Y13557D01*
X115704Y12996D01*
X115143Y12265D01*
X114790Y11414D01*
X114670Y10500D01*
Y5500D01*
X114671Y5494D01*
X114275Y5043D01*
X112125D01*
X111729Y5494D01*
X111730Y5500D01*
Y10500D01*
X111610Y11414D01*
X111257Y12265D01*
X110696Y12996D01*
X109965Y13557D01*
X109114Y13910D01*
X108200Y14030D01*
X107286Y13910D01*
X106435Y13557D01*
X105704Y12996D01*
X105143Y12265D01*
X104790Y11414D01*
X104670Y10500D01*
Y5500D01*
X104671Y5494D01*
X104275Y5043D01*
X102629D01*
X102234Y5494D01*
X102234Y5500D01*
Y7500D01*
X98200D01*
X94165D01*
Y5500D01*
X94166Y5494D01*
X93771Y5043D01*
X92629D01*
X92234Y5494D01*
X92234Y5500D01*
Y7500D01*
X88200D01*
X84166D01*
Y5500D01*
X84166Y5494D01*
X83771Y5043D01*
X82125D01*
X81729Y5494D01*
X81730Y5500D01*
Y10500D01*
X81610Y11414D01*
X81257Y12265D01*
X80696Y12996D01*
X79965Y13557D01*
X79114Y13910D01*
X78200Y14030D01*
X77286Y13910D01*
X76435Y13557D01*
X75704Y12996D01*
X75143Y12265D01*
X74790Y11414D01*
X74670Y10500D01*
Y5500D01*
X74671Y5494D01*
X74275Y5043D01*
X72125D01*
X71729Y5494D01*
X71730Y5500D01*
Y10500D01*
X71610Y11414D01*
X71257Y12265D01*
X70696Y12996D01*
X69965Y13557D01*
X69831Y13613D01*
Y18369D01*
X84887D01*
X85400Y18267D01*
X86063Y18399D01*
X86626Y18774D01*
X87001Y19337D01*
X87133Y20000D01*
X87001Y20663D01*
X86626Y21226D01*
X86063Y21601D01*
X85400Y21733D01*
X84887Y21631D01*
X68876D01*
X61353Y29154D01*
X60824Y29507D01*
X60200Y29631D01*
X13813D01*
X13757Y29765D01*
X13196Y30496D01*
X12465Y31057D01*
X11614Y31410D01*
X10700Y31530D01*
X5700D01*
X5694Y31530D01*
X5243Y31925D01*
Y34075D01*
X5694Y34471D01*
X5700Y34470D01*
X10700D01*
X11614Y34590D01*
X12465Y34943D01*
X13196Y35504D01*
X13757Y36235D01*
X14110Y37086D01*
X14230Y38000D01*
X14110Y38914D01*
X13757Y39765D01*
X13196Y40496D01*
X12465Y41057D01*
X11614Y41410D01*
X10700Y41530D01*
X5700D01*
X5694Y41530D01*
X5243Y41925D01*
Y44075D01*
X5694Y44471D01*
X5700Y44470D01*
X10700D01*
X11614Y44590D01*
X12465Y44943D01*
X13196Y45504D01*
X13757Y46235D01*
X14110Y47086D01*
X14230Y48000D01*
X14110Y48914D01*
X13757Y49765D01*
X13196Y50496D01*
X12465Y51057D01*
X11614Y51410D01*
X10700Y51530D01*
X5700D01*
X5694Y51529D01*
X5243Y51925D01*
Y54075D01*
X5694Y54471D01*
X5700Y54470D01*
X10700D01*
X11614Y54590D01*
X12465Y54943D01*
X13196Y55504D01*
X13757Y56235D01*
X14110Y57086D01*
X14230Y58000D01*
X14110Y58914D01*
X13757Y59765D01*
X13196Y60496D01*
X12465Y61057D01*
X11614Y61410D01*
X10700Y61530D01*
X5700D01*
X5694Y61529D01*
X5243Y61925D01*
Y63571D01*
X5694Y63966D01*
X5700Y63965D01*
X7700D01*
Y68000D01*
Y72035D01*
X5700D01*
X5694Y72034D01*
X5243Y72429D01*
Y73571D01*
X5694Y73966D01*
X5700Y73966D01*
X7700D01*
Y78000D01*
Y82034D01*
X5700D01*
X5694Y82034D01*
X5243Y82429D01*
Y84075D01*
X5694Y84471D01*
X5700Y84470D01*
X10700D01*
X11614Y84590D01*
X12465Y84943D01*
X13196Y85504D01*
X13757Y86235D01*
X14110Y87086D01*
X14230Y88000D01*
X14110Y88914D01*
X13757Y89765D01*
X13196Y90496D01*
X12465Y91057D01*
X11614Y91410D01*
X10700Y91530D01*
X5700D01*
X5694Y91529D01*
X5243Y91925D01*
Y94075D01*
X5694Y94471D01*
X5700Y94470D01*
X10700D01*
X11614Y94590D01*
X12465Y94943D01*
X13196Y95504D01*
X13757Y96235D01*
X14110Y97086D01*
X14230Y98000D01*
X14110Y98914D01*
X13757Y99765D01*
X13196Y100496D01*
X12465Y101057D01*
X11614Y101410D01*
X10700Y101530D01*
X5700D01*
X5694Y101529D01*
X5243Y101925D01*
Y104075D01*
X5694Y104471D01*
X5700Y104470D01*
X10700D01*
X11614Y104590D01*
X12465Y104943D01*
X13196Y105504D01*
X13757Y106235D01*
X14110Y107086D01*
X14230Y108000D01*
X14110Y108914D01*
X13757Y109765D01*
X13196Y110496D01*
X12465Y111057D01*
X11614Y111410D01*
X10700Y111530D01*
X5700D01*
X5694Y111529D01*
X5243Y111925D01*
Y114075D01*
X5694Y114471D01*
X5700Y114470D01*
X10700D01*
X11614Y114590D01*
X12465Y114943D01*
X13196Y115504D01*
X13757Y116235D01*
X14110Y117086D01*
X14230Y118000D01*
X14110Y118914D01*
X13757Y119765D01*
X13196Y120496D01*
X12465Y121057D01*
X11614Y121410D01*
X10700Y121530D01*
X5700D01*
X5694Y121529D01*
X5243Y121925D01*
Y124075D01*
X5694Y124471D01*
X5700Y124470D01*
X10700D01*
X11614Y124590D01*
X12465Y124943D01*
X13196Y125504D01*
X13757Y126235D01*
X14110Y127086D01*
X14230Y128000D01*
X14110Y128914D01*
X13757Y129765D01*
X13196Y130496D01*
X12465Y131057D01*
X11614Y131410D01*
X10700Y131530D01*
X5700D01*
X5694Y131529D01*
X5243Y131925D01*
Y134075D01*
X5694Y134471D01*
X5700Y134470D01*
X10700D01*
X11614Y134590D01*
X12465Y134943D01*
X13196Y135504D01*
X13757Y136235D01*
X14110Y137086D01*
X14230Y138000D01*
X14110Y138914D01*
X13757Y139765D01*
X13196Y140496D01*
X12465Y141057D01*
X11614Y141410D01*
X10700Y141530D01*
X5700D01*
X5694Y141529D01*
X5243Y141925D01*
Y144075D01*
X5694Y144471D01*
X5700Y144470D01*
X10700D01*
X11614Y144590D01*
X12465Y144943D01*
X13196Y145504D01*
X13757Y146235D01*
X14110Y147086D01*
X14230Y148000D01*
X14110Y148914D01*
X13757Y149765D01*
X13196Y150496D01*
X12465Y151057D01*
X11614Y151410D01*
X10700Y151530D01*
X5700D01*
X5694Y151529D01*
X5243Y151925D01*
Y154075D01*
X5694Y154471D01*
X5700Y154470D01*
X10700D01*
X11614Y154590D01*
X12465Y154943D01*
X13196Y155504D01*
X13757Y156235D01*
X14110Y157086D01*
X14230Y158000D01*
X14110Y158914D01*
X13757Y159765D01*
X13196Y160496D01*
X12465Y161057D01*
X11614Y161410D01*
X10700Y161530D01*
X5700D01*
X5694Y161529D01*
X5243Y161925D01*
Y163571D01*
X5694Y163966D01*
X5700Y163965D01*
X7700D01*
Y168000D01*
Y172035D01*
X5700D01*
X5694Y172034D01*
X5243Y172429D01*
Y174075D01*
X5694Y174471D01*
X5700Y174470D01*
X10700D01*
X11614Y174590D01*
X12465Y174943D01*
X13196Y175504D01*
X13757Y176235D01*
X14110Y177086D01*
X14230Y178000D01*
X14110Y178914D01*
X13757Y179765D01*
X13196Y180496D01*
X12465Y181057D01*
X11614Y181410D01*
X10700Y181530D01*
X5700D01*
X5694Y181529D01*
X5243Y181925D01*
Y183571D01*
X5694Y183966D01*
X5700Y183966D01*
X7700D01*
Y188000D01*
Y192034D01*
X5700D01*
X5694Y192034D01*
X5243Y192429D01*
Y194075D01*
X5694Y194471D01*
X5700Y194470D01*
X10700D01*
X11614Y194590D01*
X12465Y194943D01*
X13196Y195504D01*
X13757Y196235D01*
X14110Y197086D01*
X14230Y198000D01*
X14110Y198914D01*
X13757Y199765D01*
X13196Y200496D01*
X12465Y201057D01*
X11614Y201410D01*
X10700Y201530D01*
X5700D01*
X5694Y201529D01*
X5243Y201925D01*
Y203571D01*
X5694Y203966D01*
X5700Y203965D01*
X7700D01*
Y208000D01*
Y212035D01*
X5700D01*
X5694Y212034D01*
X5243Y212429D01*
Y214500D01*
X14200D01*
Y221500D01*
X5243D01*
Y248957D01*
X20088D01*
X20309Y248357D01*
X18979Y247221D01*
X17650Y245665D01*
X16581Y243920D01*
X15798Y242030D01*
X15320Y240040D01*
X15160Y238000D01*
X15320Y235960D01*
X15798Y233970D01*
X16581Y232080D01*
X17650Y230335D01*
X18979Y228779D01*
X20535Y227450D01*
X22280Y226381D01*
X24170Y225598D01*
X26160Y225120D01*
X28200Y224960D01*
X30240Y225120D01*
X32230Y225598D01*
X34120Y226381D01*
X35865Y227450D01*
X37421Y228779D01*
X38750Y230335D01*
X39819Y232080D01*
X40602Y233970D01*
X41080Y235960D01*
X41240Y238000D01*
X41080Y240040D01*
X40602Y242030D01*
X39819Y243920D01*
X38750Y245665D01*
X37421Y247221D01*
X36091Y248357D01*
X36312Y248957D01*
X170088D01*
X170309Y248357D01*
X168979Y247221D01*
X167650Y245665D01*
X166581Y243920D01*
X165798Y242030D01*
X165320Y240040D01*
X165160Y238000D01*
X165320Y235960D01*
X165798Y233970D01*
X166581Y232080D01*
X167650Y230335D01*
X168979Y228779D01*
X170535Y227450D01*
X172280Y226381D01*
X174170Y225598D01*
X176160Y225120D01*
X178200Y224960D01*
X180240Y225120D01*
X182230Y225598D01*
X184120Y226381D01*
X185865Y227450D01*
X187421Y228779D01*
X188750Y230335D01*
X189819Y232080D01*
X190602Y233970D01*
X191080Y235960D01*
X191240Y238000D01*
X191080Y240040D01*
X190602Y242030D01*
X189819Y243920D01*
X188750Y245665D01*
X187421Y247221D01*
X186091Y248357D01*
X186312Y248957D01*
X200657D01*
Y222000D01*
D02*
G37*
G36*
X272569Y19324D02*
Y13613D01*
X272435Y13557D01*
X271704Y12996D01*
X271143Y12265D01*
X270790Y11414D01*
X270670Y10500D01*
Y5500D01*
X270671Y5494D01*
X270275Y5043D01*
X268125D01*
X267729Y5494D01*
X267730Y5500D01*
Y10500D01*
X267610Y11414D01*
X267257Y12265D01*
X266696Y12996D01*
X265965Y13557D01*
X265114Y13910D01*
X264200Y14030D01*
X263286Y13910D01*
X262435Y13557D01*
X261704Y12996D01*
X261143Y12265D01*
X260790Y11414D01*
X260670Y10500D01*
Y5500D01*
X260671Y5494D01*
X260275Y5043D01*
X258125D01*
X257729Y5494D01*
X257730Y5500D01*
Y10500D01*
X257610Y11414D01*
X257257Y12265D01*
X256696Y12996D01*
X255965Y13557D01*
X255114Y13910D01*
X254200Y14030D01*
X253286Y13910D01*
X252435Y13557D01*
X251704Y12996D01*
X251143Y12265D01*
X250790Y11414D01*
X250670Y10500D01*
Y5500D01*
X250671Y5494D01*
X250275Y5043D01*
X248125D01*
X247729Y5494D01*
X247730Y5500D01*
Y10500D01*
X247610Y11414D01*
X247257Y12265D01*
X246696Y12996D01*
X245965Y13557D01*
X245114Y13910D01*
X244200Y14030D01*
X243286Y13910D01*
X242435Y13557D01*
X241704Y12996D01*
X241143Y12265D01*
X240790Y11414D01*
X240670Y10500D01*
Y5500D01*
X240671Y5494D01*
X240275Y5043D01*
X238125D01*
X237729Y5494D01*
X237730Y5500D01*
Y10500D01*
X237610Y11414D01*
X237257Y12265D01*
X236696Y12996D01*
X235965Y13557D01*
X235114Y13910D01*
X234200Y14030D01*
X233286Y13910D01*
X232435Y13557D01*
X231704Y12996D01*
X231143Y12265D01*
X230790Y11414D01*
X230670Y10500D01*
Y5500D01*
X230671Y5494D01*
X230275Y5043D01*
X228125D01*
X227729Y5494D01*
X227730Y5500D01*
Y10500D01*
X227610Y11414D01*
X227257Y12265D01*
X226696Y12996D01*
X225965Y13557D01*
X225114Y13910D01*
X224200Y14030D01*
X223286Y13910D01*
X222435Y13557D01*
X221704Y12996D01*
X221143Y12265D01*
X220790Y11414D01*
X220670Y10500D01*
Y5500D01*
X220671Y5494D01*
X220275Y5043D01*
X218200D01*
Y7500D01*
X214200D01*
Y8000D01*
X213700D01*
Y14500D01*
X211243D01*
Y24075D01*
X211694Y24471D01*
X211700Y24470D01*
X216700D01*
X217614Y24590D01*
X218465Y24943D01*
X219196Y25504D01*
X219757Y26235D01*
X219813Y26369D01*
X265524D01*
X272569Y19324D01*
D02*
G37*
G36*
X66569D02*
Y13613D01*
X66435Y13557D01*
X65704Y12996D01*
X65143Y12265D01*
X64790Y11414D01*
X64670Y10500D01*
Y5500D01*
X64671Y5494D01*
X64275Y5043D01*
X62125D01*
X61729Y5494D01*
X61730Y5500D01*
Y10500D01*
X61610Y11414D01*
X61257Y12265D01*
X60696Y12996D01*
X59965Y13557D01*
X59114Y13910D01*
X58200Y14030D01*
X57286Y13910D01*
X56435Y13557D01*
X55704Y12996D01*
X55143Y12265D01*
X54790Y11414D01*
X54670Y10500D01*
Y5500D01*
X54671Y5494D01*
X54275Y5043D01*
X52125D01*
X51729Y5494D01*
X51730Y5500D01*
Y10500D01*
X51610Y11414D01*
X51257Y12265D01*
X50696Y12996D01*
X49965Y13557D01*
X49114Y13910D01*
X48200Y14030D01*
X47286Y13910D01*
X46435Y13557D01*
X45704Y12996D01*
X45143Y12265D01*
X44790Y11414D01*
X44670Y10500D01*
Y5500D01*
X44671Y5494D01*
X44275Y5043D01*
X42125D01*
X41729Y5494D01*
X41730Y5500D01*
Y10500D01*
X41610Y11414D01*
X41257Y12265D01*
X40696Y12996D01*
X39965Y13557D01*
X39114Y13910D01*
X38200Y14030D01*
X37286Y13910D01*
X36435Y13557D01*
X35704Y12996D01*
X35143Y12265D01*
X34790Y11414D01*
X34670Y10500D01*
Y5500D01*
X34671Y5494D01*
X34275Y5043D01*
X32125D01*
X31729Y5494D01*
X31730Y5500D01*
Y10500D01*
X31610Y11414D01*
X31257Y12265D01*
X30696Y12996D01*
X29965Y13557D01*
X29114Y13910D01*
X28200Y14030D01*
X27286Y13910D01*
X26435Y13557D01*
X25704Y12996D01*
X25143Y12265D01*
X24790Y11414D01*
X24670Y10500D01*
Y5500D01*
X24671Y5494D01*
X24275Y5043D01*
X22125D01*
X21729Y5494D01*
X21730Y5500D01*
Y10500D01*
X21610Y11414D01*
X21257Y12265D01*
X20696Y12996D01*
X19965Y13557D01*
X19114Y13910D01*
X18200Y14030D01*
X17286Y13910D01*
X16435Y13557D01*
X15704Y12996D01*
X15143Y12265D01*
X14790Y11414D01*
X14670Y10500D01*
Y5500D01*
X14671Y5494D01*
X14275Y5043D01*
X12200D01*
Y7500D01*
X8200D01*
Y8000D01*
X7700D01*
Y14500D01*
X5243D01*
Y24075D01*
X5694Y24471D01*
X5700Y24470D01*
X10700D01*
X11614Y24590D01*
X12465Y24943D01*
X13196Y25504D01*
X13757Y26235D01*
X13813Y26369D01*
X59524D01*
X66569Y19324D01*
D02*
G37*
%LPC*%
G36*
X403700Y476000D02*
X397700D01*
Y472500D01*
X403700D01*
Y476000D01*
D02*
G37*
G36*
Y471500D02*
X397700D01*
Y468000D01*
X403700D01*
Y471500D01*
D02*
G37*
G36*
X216700Y466035D02*
X214700D01*
Y462500D01*
X220669D01*
X220597Y463044D01*
X220194Y464017D01*
X219553Y464853D01*
X218717Y465494D01*
X217744Y465897D01*
X216700Y466035D01*
D02*
G37*
G36*
X220669Y461500D02*
X214700D01*
Y457966D01*
X216700D01*
X217744Y458103D01*
X218717Y458506D01*
X219553Y459147D01*
X220194Y459983D01*
X220597Y460956D01*
X220669Y461500D01*
D02*
G37*
G36*
X403700Y446034D02*
X401700D01*
X400656Y445897D01*
X399683Y445494D01*
X398847Y444853D01*
X398206Y444017D01*
X397803Y443044D01*
X397731Y442500D01*
X403700D01*
Y446034D01*
D02*
G37*
G36*
X216700D02*
X214700D01*
Y442500D01*
X220669D01*
X220597Y443044D01*
X220194Y444017D01*
X219553Y444853D01*
X218717Y445494D01*
X217744Y445897D01*
X216700Y446034D01*
D02*
G37*
G36*
X403700Y441500D02*
X397731D01*
X397803Y440956D01*
X398206Y439983D01*
X398847Y439147D01*
X399683Y438506D01*
X400656Y438103D01*
X401700Y437965D01*
X403700D01*
Y441500D01*
D02*
G37*
G36*
X220669D02*
X214700D01*
Y437965D01*
X216700D01*
X217744Y438103D01*
X218717Y438506D01*
X219553Y439147D01*
X220194Y439983D01*
X220597Y440956D01*
X220669Y441500D01*
D02*
G37*
G36*
X302323Y428937D02*
X301659Y428805D01*
X301097Y428429D01*
X300823Y428019D01*
X295851D01*
X295577Y428429D01*
X295015Y428805D01*
X294351Y428937D01*
X293688Y428805D01*
X293126Y428429D01*
X292750Y427867D01*
X292618Y427204D01*
X292750Y426540D01*
X293126Y425978D01*
X293688Y425602D01*
X294351Y425470D01*
X295015Y425602D01*
X295577Y425978D01*
X295851Y426388D01*
X300823D01*
X301097Y425978D01*
X301659Y425602D01*
X302323Y425470D01*
X302986Y425602D01*
X303549Y425978D01*
X303924Y426540D01*
X304056Y427204D01*
X303924Y427867D01*
X303549Y428429D01*
X302986Y428805D01*
X302323Y428937D01*
D02*
G37*
G36*
X216700Y426034D02*
X214700D01*
Y422500D01*
X220669D01*
X220597Y423044D01*
X220194Y424017D01*
X219553Y424853D01*
X218717Y425494D01*
X217744Y425897D01*
X216700Y426034D01*
D02*
G37*
G36*
X220669Y421500D02*
X214700D01*
Y417966D01*
X216700D01*
X217744Y418103D01*
X218717Y418506D01*
X219553Y419147D01*
X220194Y419983D01*
X220597Y420956D01*
X220669Y421500D01*
D02*
G37*
G36*
X257353Y415710D02*
X256690Y415579D01*
X256128Y415203D01*
X255854Y414793D01*
X253100D01*
X252826Y415203D01*
X252263Y415579D01*
X251600Y415710D01*
X250937Y415579D01*
X250374Y415203D01*
X249999Y414641D01*
X249867Y413977D01*
X249999Y413314D01*
X250374Y412752D01*
X250937Y412376D01*
X251600Y412244D01*
X252263Y412376D01*
X252826Y412752D01*
X253100Y413162D01*
X255854D01*
X256128Y412752D01*
X256690Y412376D01*
X257353Y412244D01*
X258017Y412376D01*
X258579Y412752D01*
X258955Y413314D01*
X259087Y413977D01*
X258955Y414641D01*
X258579Y415203D01*
X258017Y415579D01*
X257353Y415710D01*
D02*
G37*
G36*
X403700Y416035D02*
X401700D01*
X400656Y415897D01*
X399683Y415494D01*
X398847Y414853D01*
X398206Y414017D01*
X397803Y413044D01*
X397731Y412500D01*
X403700D01*
Y416035D01*
D02*
G37*
G36*
Y411500D02*
X397731D01*
X397803Y410956D01*
X398206Y409983D01*
X398847Y409147D01*
X399683Y408506D01*
X400656Y408103D01*
X401700Y407966D01*
X403700D01*
Y411500D01*
D02*
G37*
G36*
X306259Y414333D02*
X305596Y414201D01*
X305033Y413826D01*
X304658Y413263D01*
X304526Y412600D01*
X304658Y411937D01*
X305033Y411374D01*
X305596Y410999D01*
X306259Y410867D01*
X306743Y410963D01*
X313604Y404102D01*
X313604Y404102D01*
X313869Y403925D01*
X314181Y403863D01*
X336700D01*
X336974Y403453D01*
X337537Y403077D01*
X338200Y402945D01*
X338863Y403077D01*
X339426Y403453D01*
X339801Y404015D01*
X339933Y404678D01*
X339801Y405342D01*
X339426Y405904D01*
X338863Y406280D01*
X338200Y406412D01*
X337537Y406280D01*
X336974Y405904D01*
X336700Y405494D01*
X314519D01*
X307896Y412116D01*
X307992Y412600D01*
X307860Y413263D01*
X307485Y413826D01*
X306922Y414201D01*
X306259Y414333D01*
D02*
G37*
G36*
X310400Y401733D02*
X309737Y401601D01*
X309174Y401226D01*
X308799Y400663D01*
X308667Y400000D01*
X308691Y399877D01*
X305835Y397022D01*
X287795D01*
X287726Y397126D01*
X287163Y397501D01*
X286500Y397633D01*
X285837Y397501D01*
X285274Y397126D01*
X284899Y396563D01*
X284767Y395900D01*
X284899Y395237D01*
X285274Y394674D01*
X285837Y394299D01*
X286500Y394167D01*
X287163Y394299D01*
X287726Y394674D01*
X287795Y394778D01*
X306300D01*
X306300Y394778D01*
X306729Y394864D01*
X307093Y395107D01*
X308720Y396734D01*
X309356Y396573D01*
X309381Y396546D01*
X309578Y396250D01*
Y385256D01*
X309474Y385186D01*
X309099Y384624D01*
X308967Y383961D01*
X309099Y383297D01*
X309474Y382735D01*
X310037Y382359D01*
X310700Y382227D01*
X311363Y382359D01*
X311926Y382735D01*
X312301Y383297D01*
X312433Y383961D01*
X312301Y384624D01*
X311926Y385186D01*
X311822Y385256D01*
Y396504D01*
X311957Y396663D01*
X312210Y396857D01*
X312388Y396929D01*
X312643Y396879D01*
X312643Y396879D01*
X334497D01*
X334497Y396879D01*
X334926Y396964D01*
X335290Y397207D01*
X335387Y397304D01*
X335863Y397399D01*
X336426Y397774D01*
X336801Y398337D01*
X336933Y399000D01*
X336801Y399663D01*
X336426Y400226D01*
X335863Y400601D01*
X335200Y400733D01*
X334537Y400601D01*
X333974Y400226D01*
X333599Y399663D01*
X333491Y399122D01*
X313107D01*
X312110Y400119D01*
X312001Y400663D01*
X311626Y401226D01*
X311063Y401601D01*
X310400Y401733D01*
D02*
G37*
G36*
X403700Y396035D02*
X401700D01*
X400656Y395897D01*
X399683Y395494D01*
X398847Y394853D01*
X398206Y394017D01*
X397803Y393044D01*
X397731Y392500D01*
X403700D01*
Y396035D01*
D02*
G37*
G36*
Y391500D02*
X397731D01*
X397803Y390956D01*
X398206Y389983D01*
X398847Y389147D01*
X399683Y388506D01*
X400656Y388103D01*
X401700Y387965D01*
X403700D01*
Y391500D01*
D02*
G37*
G36*
X375002Y387132D02*
X374339Y387000D01*
X374158Y386879D01*
X370297D01*
X370263Y386901D01*
X369600Y387033D01*
X368937Y386901D01*
X368374Y386526D01*
X367999Y385963D01*
X367867Y385300D01*
X367999Y384637D01*
X368374Y384074D01*
X368937Y383699D01*
X369600Y383567D01*
X370263Y383699D01*
X370445Y383820D01*
X374305D01*
X374339Y383797D01*
X375002Y383665D01*
X375665Y383797D01*
X376228Y384173D01*
X376604Y384735D01*
X376735Y385398D01*
X376604Y386062D01*
X376228Y386624D01*
X375665Y387000D01*
X375002Y387132D01*
D02*
G37*
G36*
X403700Y386034D02*
X401700D01*
X400656Y385897D01*
X399683Y385494D01*
X398847Y384853D01*
X398206Y384017D01*
X397803Y383044D01*
X397731Y382500D01*
X403700D01*
Y386034D01*
D02*
G37*
G36*
Y381500D02*
X397731D01*
X397803Y380956D01*
X398206Y379983D01*
X398847Y379147D01*
X399683Y378506D01*
X400656Y378103D01*
X401700Y377965D01*
X403700D01*
Y381500D01*
D02*
G37*
G36*
X258338Y385694D02*
X257675Y385562D01*
X257112Y385186D01*
X256736Y384624D01*
X256605Y383961D01*
X256736Y383297D01*
X257112Y382735D01*
X257522Y382461D01*
Y377976D01*
X254684Y375137D01*
X254200Y375233D01*
X253537Y375101D01*
X252974Y374726D01*
X252599Y374163D01*
X252467Y373500D01*
X252599Y372837D01*
X252974Y372274D01*
X253537Y371899D01*
X254200Y371767D01*
X254863Y371899D01*
X255426Y372274D01*
X255801Y372837D01*
X255933Y373500D01*
X255837Y373984D01*
X258914Y377061D01*
X258915Y377061D01*
X259091Y377326D01*
X259154Y377638D01*
Y382461D01*
X259563Y382735D01*
X259939Y383297D01*
X260071Y383961D01*
X259939Y384624D01*
X259563Y385186D01*
X259001Y385562D01*
X258338Y385694D01*
D02*
G37*
G36*
X265500Y344033D02*
X264837Y343901D01*
X264274Y343526D01*
X264000Y343116D01*
X257297D01*
X257224Y343226D01*
X256662Y343601D01*
X255998Y343733D01*
X255335Y343601D01*
X254773Y343226D01*
X254397Y342663D01*
X254265Y342000D01*
X254397Y341337D01*
X254773Y340774D01*
X255335Y340399D01*
X255998Y340267D01*
X256662Y340399D01*
X257224Y340774D01*
X257600Y341337D01*
X257629Y341484D01*
X264000D01*
X264274Y341074D01*
X264837Y340699D01*
X265500Y340567D01*
X266163Y340699D01*
X266726Y341074D01*
X267101Y341637D01*
X267233Y342300D01*
X267101Y342963D01*
X266726Y343526D01*
X266163Y343901D01*
X265500Y344033D01*
D02*
G37*
G36*
X216700Y336034D02*
X214700D01*
Y332500D01*
X220669D01*
X220597Y333044D01*
X220194Y334017D01*
X219553Y334853D01*
X218717Y335494D01*
X217744Y335897D01*
X216700Y336034D01*
D02*
G37*
G36*
X220669Y331500D02*
X214700D01*
Y327965D01*
X216700D01*
X217744Y328103D01*
X218717Y328506D01*
X219553Y329147D01*
X220194Y329983D01*
X220597Y330956D01*
X220669Y331500D01*
D02*
G37*
G36*
X403700Y326034D02*
X401700D01*
X400656Y325897D01*
X399683Y325494D01*
X398847Y324853D01*
X398206Y324017D01*
X397803Y323044D01*
X397731Y322500D01*
X403700D01*
Y326034D01*
D02*
G37*
G36*
X216700D02*
X214700D01*
Y322500D01*
X220669D01*
X220597Y323044D01*
X220194Y324017D01*
X219553Y324853D01*
X218717Y325494D01*
X217744Y325897D01*
X216700Y326034D01*
D02*
G37*
G36*
X403700Y321500D02*
X397731D01*
X397803Y320956D01*
X398206Y319983D01*
X398847Y319147D01*
X399683Y318506D01*
X400656Y318103D01*
X401700Y317966D01*
X403700D01*
Y321500D01*
D02*
G37*
G36*
X220669D02*
X214700D01*
Y317966D01*
X216700D01*
X217744Y318103D01*
X218717Y318506D01*
X219553Y319147D01*
X220194Y319983D01*
X220597Y320956D01*
X220669Y321500D01*
D02*
G37*
G36*
X288500Y337233D02*
X287837Y337101D01*
X287274Y336726D01*
X286899Y336163D01*
X286767Y335500D01*
X286899Y334837D01*
X287274Y334274D01*
X287684Y334000D01*
Y320800D01*
X287274Y320526D01*
X286899Y319963D01*
X286767Y319300D01*
X286899Y318637D01*
X287274Y318074D01*
X287837Y317699D01*
X288500Y317567D01*
X289163Y317699D01*
X289726Y318074D01*
X290101Y318637D01*
X290233Y319300D01*
X290101Y319963D01*
X289726Y320526D01*
X289316Y320800D01*
Y334000D01*
X289726Y334274D01*
X290101Y334837D01*
X290233Y335500D01*
X290101Y336163D01*
X289726Y336726D01*
X289163Y337101D01*
X288500Y337233D01*
D02*
G37*
G36*
X403700Y316035D02*
X401700D01*
X400656Y315897D01*
X399683Y315494D01*
X398847Y314853D01*
X398206Y314017D01*
X397803Y313044D01*
X397731Y312500D01*
X403700D01*
Y316035D01*
D02*
G37*
G36*
Y311500D02*
X397731D01*
X397803Y310956D01*
X398206Y309983D01*
X398847Y309147D01*
X399683Y308506D01*
X400656Y308103D01*
X401700Y307965D01*
X403700D01*
Y311500D01*
D02*
G37*
G36*
X304200Y305040D02*
X302160Y304880D01*
X300170Y304402D01*
X298280Y303619D01*
X296535Y302550D01*
X294979Y301221D01*
X293650Y299665D01*
X292581Y297920D01*
X291798Y296030D01*
X291320Y294040D01*
X291160Y292000D01*
X291320Y289960D01*
X291798Y287970D01*
X292581Y286080D01*
X293650Y284335D01*
X294979Y282779D01*
X296535Y281450D01*
X298280Y280381D01*
X300170Y279598D01*
X302160Y279120D01*
X304200Y278960D01*
X306240Y279120D01*
X308230Y279598D01*
X310120Y280381D01*
X311865Y281450D01*
X313421Y282779D01*
X314750Y284335D01*
X315819Y286080D01*
X316602Y287970D01*
X317080Y289960D01*
X317240Y292000D01*
X317080Y294040D01*
X316602Y296030D01*
X315819Y297920D01*
X314750Y299665D01*
X313421Y301221D01*
X311865Y302550D01*
X310120Y303619D01*
X308230Y304402D01*
X306240Y304880D01*
X304200Y305040D01*
D02*
G37*
G36*
X304700Y268469D02*
Y262500D01*
X308235D01*
Y264500D01*
X308097Y265544D01*
X307694Y266517D01*
X307053Y267353D01*
X306217Y267994D01*
X305244Y268397D01*
X304700Y268469D01*
D02*
G37*
G36*
X294700D02*
Y262500D01*
X298235D01*
Y264500D01*
X298097Y265544D01*
X297694Y266517D01*
X297053Y267353D01*
X296217Y267994D01*
X295244Y268397D01*
X294700Y268469D01*
D02*
G37*
G36*
X303700D02*
X303156Y268397D01*
X302183Y267994D01*
X301347Y267353D01*
X300706Y266517D01*
X300303Y265544D01*
X300166Y264500D01*
Y262500D01*
X303700D01*
Y268469D01*
D02*
G37*
G36*
X293700D02*
X293156Y268397D01*
X292183Y267994D01*
X291347Y267353D01*
X290706Y266517D01*
X290303Y265544D01*
X290165Y264500D01*
Y262500D01*
X293700D01*
Y268469D01*
D02*
G37*
G36*
X197700Y476000D02*
X191700D01*
Y472500D01*
X197700D01*
Y476000D01*
D02*
G37*
G36*
Y471500D02*
X191700D01*
Y468000D01*
X197700D01*
Y471500D01*
D02*
G37*
G36*
X10700Y466035D02*
X8700D01*
Y462500D01*
X14669D01*
X14597Y463044D01*
X14194Y464017D01*
X13553Y464853D01*
X12717Y465494D01*
X11744Y465897D01*
X10700Y466035D01*
D02*
G37*
G36*
X14669Y461500D02*
X8700D01*
Y457966D01*
X10700D01*
X11744Y458103D01*
X12717Y458506D01*
X13553Y459147D01*
X14194Y459983D01*
X14597Y460956D01*
X14669Y461500D01*
D02*
G37*
G36*
X197700Y446034D02*
X195700D01*
X194656Y445897D01*
X193683Y445494D01*
X192847Y444853D01*
X192206Y444017D01*
X191803Y443044D01*
X191731Y442500D01*
X197700D01*
Y446034D01*
D02*
G37*
G36*
X10700D02*
X8700D01*
Y442500D01*
X14669D01*
X14597Y443044D01*
X14194Y444017D01*
X13553Y444853D01*
X12717Y445494D01*
X11744Y445897D01*
X10700Y446034D01*
D02*
G37*
G36*
X197700Y441500D02*
X191731D01*
X191803Y440956D01*
X192206Y439983D01*
X192847Y439147D01*
X193683Y438506D01*
X194656Y438103D01*
X195700Y437965D01*
X197700D01*
Y441500D01*
D02*
G37*
G36*
X14669D02*
X8700D01*
Y437965D01*
X10700D01*
X11744Y438103D01*
X12717Y438506D01*
X13553Y439147D01*
X14194Y439983D01*
X14597Y440956D01*
X14669Y441500D01*
D02*
G37*
G36*
X96323Y428937D02*
X95660Y428805D01*
X95097Y428429D01*
X94823Y428019D01*
X89851D01*
X89577Y428429D01*
X89015Y428805D01*
X88351Y428937D01*
X87688Y428805D01*
X87126Y428429D01*
X86750Y427867D01*
X86618Y427204D01*
X86750Y426540D01*
X87126Y425978D01*
X87688Y425602D01*
X88351Y425470D01*
X89015Y425602D01*
X89577Y425978D01*
X89851Y426388D01*
X94823D01*
X95097Y425978D01*
X95660Y425602D01*
X96323Y425470D01*
X96986Y425602D01*
X97549Y425978D01*
X97924Y426540D01*
X98056Y427204D01*
X97924Y427867D01*
X97549Y428429D01*
X96986Y428805D01*
X96323Y428937D01*
D02*
G37*
G36*
X10700Y426034D02*
X8700D01*
Y422500D01*
X14669D01*
X14597Y423044D01*
X14194Y424017D01*
X13553Y424853D01*
X12717Y425494D01*
X11744Y425897D01*
X10700Y426034D01*
D02*
G37*
G36*
X14669Y421500D02*
X8700D01*
Y417966D01*
X10700D01*
X11744Y418103D01*
X12717Y418506D01*
X13553Y419147D01*
X14194Y419983D01*
X14597Y420956D01*
X14669Y421500D01*
D02*
G37*
G36*
X51354Y415710D02*
X50690Y415579D01*
X50128Y415203D01*
X49854Y414793D01*
X47100D01*
X46826Y415203D01*
X46263Y415579D01*
X45600Y415710D01*
X44937Y415579D01*
X44374Y415203D01*
X43999Y414641D01*
X43867Y413977D01*
X43999Y413314D01*
X44374Y412752D01*
X44937Y412376D01*
X45600Y412244D01*
X46263Y412376D01*
X46826Y412752D01*
X47100Y413162D01*
X49854D01*
X50128Y412752D01*
X50690Y412376D01*
X51354Y412244D01*
X52017Y412376D01*
X52579Y412752D01*
X52955Y413314D01*
X53087Y413977D01*
X52955Y414641D01*
X52579Y415203D01*
X52017Y415579D01*
X51354Y415710D01*
D02*
G37*
G36*
X197700Y416035D02*
X195700D01*
X194656Y415897D01*
X193683Y415494D01*
X192847Y414853D01*
X192206Y414017D01*
X191803Y413044D01*
X191731Y412500D01*
X197700D01*
Y416035D01*
D02*
G37*
G36*
Y411500D02*
X191731D01*
X191803Y410956D01*
X192206Y409983D01*
X192847Y409147D01*
X193683Y408506D01*
X194656Y408103D01*
X195700Y407966D01*
X197700D01*
Y411500D01*
D02*
G37*
G36*
X100259Y414333D02*
X99596Y414201D01*
X99033Y413826D01*
X98658Y413263D01*
X98526Y412600D01*
X98658Y411937D01*
X99033Y411374D01*
X99596Y410999D01*
X100259Y410867D01*
X100743Y410963D01*
X107604Y404102D01*
X107604Y404102D01*
X107869Y403925D01*
X108181Y403863D01*
X130700D01*
X130974Y403453D01*
X131537Y403077D01*
X132200Y402945D01*
X132863Y403077D01*
X133426Y403453D01*
X133801Y404015D01*
X133933Y404678D01*
X133801Y405342D01*
X133426Y405904D01*
X132863Y406280D01*
X132200Y406412D01*
X131537Y406280D01*
X130974Y405904D01*
X130700Y405494D01*
X108519D01*
X101896Y412116D01*
X101992Y412600D01*
X101860Y413263D01*
X101485Y413826D01*
X100922Y414201D01*
X100259Y414333D01*
D02*
G37*
G36*
X104400Y401733D02*
X103737Y401601D01*
X103174Y401226D01*
X102799Y400663D01*
X102667Y400000D01*
X102691Y399877D01*
X99835Y397022D01*
X81795D01*
X81726Y397126D01*
X81163Y397501D01*
X80500Y397633D01*
X79837Y397501D01*
X79274Y397126D01*
X78899Y396563D01*
X78767Y395900D01*
X78899Y395237D01*
X79274Y394674D01*
X79837Y394299D01*
X80500Y394167D01*
X81163Y394299D01*
X81726Y394674D01*
X81795Y394778D01*
X100300D01*
X100300Y394778D01*
X100729Y394864D01*
X101093Y395107D01*
X102720Y396734D01*
X103357Y396573D01*
X103381Y396546D01*
X103578Y396250D01*
Y385256D01*
X103474Y385186D01*
X103099Y384624D01*
X102967Y383961D01*
X103099Y383297D01*
X103474Y382735D01*
X104037Y382359D01*
X104700Y382227D01*
X105363Y382359D01*
X105926Y382735D01*
X106301Y383297D01*
X106433Y383961D01*
X106301Y384624D01*
X105926Y385186D01*
X105822Y385256D01*
Y396504D01*
X105957Y396663D01*
X106210Y396857D01*
X106388Y396929D01*
X106643Y396879D01*
X106643Y396879D01*
X128497D01*
X128497Y396879D01*
X128926Y396964D01*
X129290Y397207D01*
X129387Y397304D01*
X129863Y397399D01*
X130426Y397774D01*
X130801Y398337D01*
X130933Y399000D01*
X130801Y399663D01*
X130426Y400226D01*
X129863Y400601D01*
X129200Y400733D01*
X128537Y400601D01*
X127974Y400226D01*
X127599Y399663D01*
X127491Y399122D01*
X107107D01*
X106110Y400119D01*
X106001Y400663D01*
X105626Y401226D01*
X105063Y401601D01*
X104400Y401733D01*
D02*
G37*
G36*
X197700Y396035D02*
X195700D01*
X194656Y395897D01*
X193683Y395494D01*
X192847Y394853D01*
X192206Y394017D01*
X191803Y393044D01*
X191731Y392500D01*
X197700D01*
Y396035D01*
D02*
G37*
G36*
Y391500D02*
X191731D01*
X191803Y390956D01*
X192206Y389983D01*
X192847Y389147D01*
X193683Y388506D01*
X194656Y388103D01*
X195700Y387965D01*
X197700D01*
Y391500D01*
D02*
G37*
G36*
X169002Y387132D02*
X168339Y387000D01*
X168157Y386879D01*
X164297D01*
X164263Y386901D01*
X163600Y387033D01*
X162937Y386901D01*
X162374Y386526D01*
X161999Y385963D01*
X161867Y385300D01*
X161999Y384637D01*
X162374Y384074D01*
X162937Y383699D01*
X163600Y383567D01*
X164263Y383699D01*
X164445Y383820D01*
X168305D01*
X168339Y383797D01*
X169002Y383665D01*
X169666Y383797D01*
X170228Y384173D01*
X170604Y384735D01*
X170736Y385398D01*
X170604Y386062D01*
X170228Y386624D01*
X169666Y387000D01*
X169002Y387132D01*
D02*
G37*
G36*
X197700Y386034D02*
X195700D01*
X194656Y385897D01*
X193683Y385494D01*
X192847Y384853D01*
X192206Y384017D01*
X191803Y383044D01*
X191731Y382500D01*
X197700D01*
Y386034D01*
D02*
G37*
G36*
Y381500D02*
X191731D01*
X191803Y380956D01*
X192206Y379983D01*
X192847Y379147D01*
X193683Y378506D01*
X194656Y378103D01*
X195700Y377965D01*
X197700D01*
Y381500D01*
D02*
G37*
G36*
X52338Y385694D02*
X51674Y385562D01*
X51112Y385186D01*
X50736Y384624D01*
X50604Y383961D01*
X50736Y383297D01*
X51112Y382735D01*
X51522Y382461D01*
Y377976D01*
X48684Y375137D01*
X48200Y375233D01*
X47537Y375101D01*
X46974Y374726D01*
X46599Y374163D01*
X46467Y373500D01*
X46599Y372837D01*
X46974Y372274D01*
X47537Y371899D01*
X48200Y371767D01*
X48863Y371899D01*
X49426Y372274D01*
X49801Y372837D01*
X49933Y373500D01*
X49837Y373984D01*
X52915Y377061D01*
X52915Y377061D01*
X53091Y377326D01*
X53154Y377638D01*
Y382461D01*
X53563Y382735D01*
X53939Y383297D01*
X54071Y383961D01*
X53939Y384624D01*
X53563Y385186D01*
X53001Y385562D01*
X52338Y385694D01*
D02*
G37*
G36*
X59500Y344033D02*
X58837Y343901D01*
X58274Y343526D01*
X58000Y343116D01*
X51297D01*
X51224Y343226D01*
X50662Y343601D01*
X49998Y343733D01*
X49335Y343601D01*
X48773Y343226D01*
X48397Y342663D01*
X48265Y342000D01*
X48397Y341337D01*
X48773Y340774D01*
X49335Y340399D01*
X49998Y340267D01*
X50662Y340399D01*
X51224Y340774D01*
X51600Y341337D01*
X51629Y341484D01*
X58000D01*
X58274Y341074D01*
X58837Y340699D01*
X59500Y340567D01*
X60163Y340699D01*
X60726Y341074D01*
X61101Y341637D01*
X61233Y342300D01*
X61101Y342963D01*
X60726Y343526D01*
X60163Y343901D01*
X59500Y344033D01*
D02*
G37*
G36*
X10700Y336034D02*
X8700D01*
Y332500D01*
X14669D01*
X14597Y333044D01*
X14194Y334017D01*
X13553Y334853D01*
X12717Y335494D01*
X11744Y335897D01*
X10700Y336034D01*
D02*
G37*
G36*
X14669Y331500D02*
X8700D01*
Y327965D01*
X10700D01*
X11744Y328103D01*
X12717Y328506D01*
X13553Y329147D01*
X14194Y329983D01*
X14597Y330956D01*
X14669Y331500D01*
D02*
G37*
G36*
X197700Y326034D02*
X195700D01*
X194656Y325897D01*
X193683Y325494D01*
X192847Y324853D01*
X192206Y324017D01*
X191803Y323044D01*
X191731Y322500D01*
X197700D01*
Y326034D01*
D02*
G37*
G36*
X10700D02*
X8700D01*
Y322500D01*
X14669D01*
X14597Y323044D01*
X14194Y324017D01*
X13553Y324853D01*
X12717Y325494D01*
X11744Y325897D01*
X10700Y326034D01*
D02*
G37*
G36*
X197700Y321500D02*
X191731D01*
X191803Y320956D01*
X192206Y319983D01*
X192847Y319147D01*
X193683Y318506D01*
X194656Y318103D01*
X195700Y317966D01*
X197700D01*
Y321500D01*
D02*
G37*
G36*
X14669D02*
X8700D01*
Y317966D01*
X10700D01*
X11744Y318103D01*
X12717Y318506D01*
X13553Y319147D01*
X14194Y319983D01*
X14597Y320956D01*
X14669Y321500D01*
D02*
G37*
G36*
X82500Y337233D02*
X81837Y337101D01*
X81274Y336726D01*
X80899Y336163D01*
X80767Y335500D01*
X80899Y334837D01*
X81274Y334274D01*
X81684Y334000D01*
Y320800D01*
X81274Y320526D01*
X80899Y319963D01*
X80767Y319300D01*
X80899Y318637D01*
X81274Y318074D01*
X81837Y317699D01*
X82500Y317567D01*
X83163Y317699D01*
X83726Y318074D01*
X84101Y318637D01*
X84233Y319300D01*
X84101Y319963D01*
X83726Y320526D01*
X83316Y320800D01*
Y334000D01*
X83726Y334274D01*
X84101Y334837D01*
X84233Y335500D01*
X84101Y336163D01*
X83726Y336726D01*
X83163Y337101D01*
X82500Y337233D01*
D02*
G37*
G36*
X197700Y316035D02*
X195700D01*
X194656Y315897D01*
X193683Y315494D01*
X192847Y314853D01*
X192206Y314017D01*
X191803Y313044D01*
X191731Y312500D01*
X197700D01*
Y316035D01*
D02*
G37*
G36*
Y311500D02*
X191731D01*
X191803Y310956D01*
X192206Y309983D01*
X192847Y309147D01*
X193683Y308506D01*
X194656Y308103D01*
X195700Y307965D01*
X197700D01*
Y311500D01*
D02*
G37*
G36*
X98200Y305040D02*
X96160Y304880D01*
X94170Y304402D01*
X92280Y303619D01*
X90535Y302550D01*
X88979Y301221D01*
X87650Y299665D01*
X86581Y297920D01*
X85798Y296030D01*
X85320Y294040D01*
X85160Y292000D01*
X85320Y289960D01*
X85798Y287970D01*
X86581Y286080D01*
X87650Y284335D01*
X88979Y282779D01*
X90535Y281450D01*
X92280Y280381D01*
X94170Y279598D01*
X96160Y279120D01*
X98200Y278960D01*
X100240Y279120D01*
X102230Y279598D01*
X104120Y280381D01*
X105865Y281450D01*
X107421Y282779D01*
X108750Y284335D01*
X109819Y286080D01*
X110602Y287970D01*
X111080Y289960D01*
X111240Y292000D01*
X111080Y294040D01*
X110602Y296030D01*
X109819Y297920D01*
X108750Y299665D01*
X107421Y301221D01*
X105865Y302550D01*
X104120Y303619D01*
X102230Y304402D01*
X100240Y304880D01*
X98200Y305040D01*
D02*
G37*
G36*
X98700Y268469D02*
Y262500D01*
X102234D01*
Y264500D01*
X102097Y265544D01*
X101694Y266517D01*
X101053Y267353D01*
X100217Y267994D01*
X99244Y268397D01*
X98700Y268469D01*
D02*
G37*
G36*
X88700D02*
Y262500D01*
X92234D01*
Y264500D01*
X92097Y265544D01*
X91694Y266517D01*
X91053Y267353D01*
X90217Y267994D01*
X89244Y268397D01*
X88700Y268469D01*
D02*
G37*
G36*
X97700D02*
X97156Y268397D01*
X96183Y267994D01*
X95347Y267353D01*
X94706Y266517D01*
X94303Y265544D01*
X94165Y264500D01*
Y262500D01*
X97700D01*
Y268469D01*
D02*
G37*
G36*
X87700D02*
X87156Y268397D01*
X86183Y267994D01*
X85347Y267353D01*
X84706Y266517D01*
X84303Y265544D01*
X84166Y264500D01*
Y262500D01*
X87700D01*
Y268469D01*
D02*
G37*
G36*
X218200Y268500D02*
X214700D01*
Y262500D01*
X218200D01*
Y268500D01*
D02*
G37*
G36*
X12200D02*
X8700D01*
Y262500D01*
X12200D01*
Y268500D01*
D02*
G37*
G36*
X403700Y222000D02*
X397700D01*
Y218500D01*
X403700D01*
Y222000D01*
D02*
G37*
G36*
Y217500D02*
X397700D01*
Y214000D01*
X403700D01*
Y217500D01*
D02*
G37*
G36*
X216700Y212035D02*
X214700D01*
Y208500D01*
X220669D01*
X220597Y209044D01*
X220194Y210017D01*
X219553Y210853D01*
X218717Y211494D01*
X217744Y211897D01*
X216700Y212035D01*
D02*
G37*
G36*
X220669Y207500D02*
X214700D01*
Y203965D01*
X216700D01*
X217744Y204103D01*
X218717Y204506D01*
X219553Y205147D01*
X220194Y205983D01*
X220597Y206956D01*
X220669Y207500D01*
D02*
G37*
G36*
X403700Y192034D02*
X401700D01*
X400656Y191897D01*
X399683Y191494D01*
X398847Y190853D01*
X398206Y190017D01*
X397803Y189044D01*
X397731Y188500D01*
X403700D01*
Y192034D01*
D02*
G37*
G36*
X216700D02*
X214700D01*
Y188500D01*
X220669D01*
X220597Y189044D01*
X220194Y190017D01*
X219553Y190853D01*
X218717Y191494D01*
X217744Y191897D01*
X216700Y192034D01*
D02*
G37*
G36*
X403700Y187500D02*
X397731D01*
X397803Y186956D01*
X398206Y185983D01*
X398847Y185147D01*
X399683Y184506D01*
X400656Y184103D01*
X401700Y183966D01*
X403700D01*
Y187500D01*
D02*
G37*
G36*
X220669D02*
X214700D01*
Y183966D01*
X216700D01*
X217744Y184103D01*
X218717Y184506D01*
X219553Y185147D01*
X220194Y185983D01*
X220597Y186956D01*
X220669Y187500D01*
D02*
G37*
G36*
X302323Y174937D02*
X301659Y174805D01*
X301097Y174429D01*
X300823Y174019D01*
X295851D01*
X295577Y174429D01*
X295015Y174805D01*
X294351Y174937D01*
X293688Y174805D01*
X293126Y174429D01*
X292750Y173867D01*
X292618Y173204D01*
X292750Y172540D01*
X293126Y171978D01*
X293688Y171602D01*
X294351Y171470D01*
X295015Y171602D01*
X295577Y171978D01*
X295851Y172388D01*
X300823D01*
X301097Y171978D01*
X301659Y171602D01*
X302323Y171470D01*
X302986Y171602D01*
X303549Y171978D01*
X303924Y172540D01*
X304056Y173204D01*
X303924Y173867D01*
X303549Y174429D01*
X302986Y174805D01*
X302323Y174937D01*
D02*
G37*
G36*
X216700Y172035D02*
X214700D01*
Y168500D01*
X220669D01*
X220597Y169044D01*
X220194Y170017D01*
X219553Y170853D01*
X218717Y171494D01*
X217744Y171897D01*
X216700Y172035D01*
D02*
G37*
G36*
X220669Y167500D02*
X214700D01*
Y163965D01*
X216700D01*
X217744Y164103D01*
X218717Y164506D01*
X219553Y165147D01*
X220194Y165983D01*
X220597Y166956D01*
X220669Y167500D01*
D02*
G37*
G36*
X257353Y161711D02*
X256690Y161579D01*
X256128Y161203D01*
X255854Y160793D01*
X253100D01*
X252826Y161203D01*
X252263Y161579D01*
X251600Y161711D01*
X250937Y161579D01*
X250374Y161203D01*
X249999Y160641D01*
X249867Y159977D01*
X249999Y159314D01*
X250374Y158752D01*
X250937Y158376D01*
X251600Y158244D01*
X252263Y158376D01*
X252826Y158752D01*
X253100Y159161D01*
X255854D01*
X256128Y158752D01*
X256690Y158376D01*
X257353Y158244D01*
X258017Y158376D01*
X258579Y158752D01*
X258955Y159314D01*
X259087Y159977D01*
X258955Y160641D01*
X258579Y161203D01*
X258017Y161579D01*
X257353Y161711D01*
D02*
G37*
G36*
X403700Y162034D02*
X401700D01*
X400656Y161897D01*
X399683Y161494D01*
X398847Y160853D01*
X398206Y160017D01*
X397803Y159044D01*
X397731Y158500D01*
X403700D01*
Y162034D01*
D02*
G37*
G36*
Y157500D02*
X397731D01*
X397803Y156956D01*
X398206Y155983D01*
X398847Y155147D01*
X399683Y154506D01*
X400656Y154103D01*
X401700Y153965D01*
X403700D01*
Y157500D01*
D02*
G37*
G36*
X306259Y160333D02*
X305596Y160201D01*
X305033Y159826D01*
X304658Y159263D01*
X304526Y158600D01*
X304658Y157937D01*
X305033Y157374D01*
X305596Y156999D01*
X306259Y156867D01*
X306743Y156963D01*
X313604Y150102D01*
X313604Y150102D01*
X313869Y149925D01*
X314181Y149863D01*
X336700D01*
X336974Y149453D01*
X337537Y149077D01*
X338200Y148945D01*
X338863Y149077D01*
X339426Y149453D01*
X339801Y150015D01*
X339933Y150678D01*
X339801Y151342D01*
X339426Y151904D01*
X338863Y152280D01*
X338200Y152412D01*
X337537Y152280D01*
X336974Y151904D01*
X336700Y151494D01*
X314519D01*
X307896Y158116D01*
X307992Y158600D01*
X307860Y159263D01*
X307485Y159826D01*
X306922Y160201D01*
X306259Y160333D01*
D02*
G37*
G36*
X310400Y147733D02*
X309737Y147601D01*
X309174Y147226D01*
X308799Y146663D01*
X308667Y146000D01*
X308691Y145877D01*
X305835Y143022D01*
X287795D01*
X287726Y143126D01*
X287163Y143501D01*
X286500Y143633D01*
X285837Y143501D01*
X285274Y143126D01*
X284899Y142563D01*
X284767Y141900D01*
X284899Y141237D01*
X285274Y140674D01*
X285837Y140299D01*
X286500Y140167D01*
X287163Y140299D01*
X287726Y140674D01*
X287795Y140779D01*
X306300D01*
X306300Y140778D01*
X306729Y140864D01*
X307093Y141107D01*
X308720Y142734D01*
X309356Y142573D01*
X309381Y142546D01*
X309578Y142250D01*
Y131256D01*
X309474Y131186D01*
X309099Y130624D01*
X308967Y129961D01*
X309099Y129297D01*
X309474Y128735D01*
X310037Y128359D01*
X310700Y128227D01*
X311363Y128359D01*
X311926Y128735D01*
X312301Y129297D01*
X312433Y129961D01*
X312301Y130624D01*
X311926Y131186D01*
X311822Y131256D01*
Y142504D01*
X311957Y142663D01*
X312210Y142857D01*
X312388Y142929D01*
X312643Y142878D01*
X312643Y142878D01*
X334497D01*
X334497Y142878D01*
X334926Y142964D01*
X335290Y143207D01*
X335387Y143304D01*
X335863Y143399D01*
X336426Y143774D01*
X336801Y144337D01*
X336933Y145000D01*
X336801Y145663D01*
X336426Y146226D01*
X335863Y146601D01*
X335200Y146733D01*
X334537Y146601D01*
X333974Y146226D01*
X333599Y145663D01*
X333491Y145122D01*
X313107D01*
X312110Y146119D01*
X312001Y146663D01*
X311626Y147226D01*
X311063Y147601D01*
X310400Y147733D01*
D02*
G37*
G36*
X403700Y142034D02*
X401700D01*
X400656Y141897D01*
X399683Y141494D01*
X398847Y140853D01*
X398206Y140017D01*
X397803Y139044D01*
X397731Y138500D01*
X403700D01*
Y142034D01*
D02*
G37*
G36*
Y137500D02*
X397731D01*
X397803Y136956D01*
X398206Y135983D01*
X398847Y135147D01*
X399683Y134506D01*
X400656Y134103D01*
X401700Y133966D01*
X403700D01*
Y137500D01*
D02*
G37*
G36*
X375002Y133132D02*
X374339Y133000D01*
X374158Y132879D01*
X370297D01*
X370263Y132901D01*
X369600Y133033D01*
X368937Y132901D01*
X368374Y132526D01*
X367999Y131963D01*
X367867Y131300D01*
X367999Y130637D01*
X368374Y130074D01*
X368937Y129699D01*
X369600Y129567D01*
X370263Y129699D01*
X370445Y129820D01*
X374305D01*
X374339Y129797D01*
X375002Y129665D01*
X375665Y129797D01*
X376228Y130173D01*
X376604Y130735D01*
X376735Y131398D01*
X376604Y132062D01*
X376228Y132624D01*
X375665Y133000D01*
X375002Y133132D01*
D02*
G37*
G36*
X403700Y132035D02*
X401700D01*
X400656Y131897D01*
X399683Y131494D01*
X398847Y130853D01*
X398206Y130017D01*
X397803Y129044D01*
X397731Y128500D01*
X403700D01*
Y132035D01*
D02*
G37*
G36*
Y127500D02*
X397731D01*
X397803Y126956D01*
X398206Y125983D01*
X398847Y125147D01*
X399683Y124506D01*
X400656Y124103D01*
X401700Y123966D01*
X403700D01*
Y127500D01*
D02*
G37*
G36*
X258338Y131694D02*
X257675Y131562D01*
X257112Y131186D01*
X256736Y130624D01*
X256605Y129961D01*
X256736Y129297D01*
X257112Y128735D01*
X257522Y128461D01*
Y123976D01*
X254684Y121137D01*
X254200Y121233D01*
X253537Y121101D01*
X252974Y120726D01*
X252599Y120163D01*
X252467Y119500D01*
X252599Y118837D01*
X252974Y118274D01*
X253537Y117899D01*
X254200Y117767D01*
X254863Y117899D01*
X255426Y118274D01*
X255801Y118837D01*
X255933Y119500D01*
X255837Y119984D01*
X258914Y123061D01*
X258915Y123061D01*
X259091Y123326D01*
X259154Y123638D01*
Y128461D01*
X259563Y128735D01*
X259939Y129297D01*
X260071Y129961D01*
X259939Y130624D01*
X259563Y131186D01*
X259001Y131562D01*
X258338Y131694D01*
D02*
G37*
G36*
X265500Y90033D02*
X264837Y89901D01*
X264274Y89526D01*
X264000Y89116D01*
X257297D01*
X257224Y89226D01*
X256662Y89601D01*
X255998Y89733D01*
X255335Y89601D01*
X254773Y89226D01*
X254397Y88663D01*
X254265Y88000D01*
X254397Y87337D01*
X254773Y86774D01*
X255335Y86399D01*
X255998Y86267D01*
X256662Y86399D01*
X257224Y86774D01*
X257600Y87337D01*
X257629Y87484D01*
X264000D01*
X264274Y87074D01*
X264837Y86699D01*
X265500Y86567D01*
X266163Y86699D01*
X266726Y87074D01*
X267101Y87637D01*
X267233Y88300D01*
X267101Y88963D01*
X266726Y89526D01*
X266163Y89901D01*
X265500Y90033D01*
D02*
G37*
G36*
X216700Y82034D02*
X214700D01*
Y78500D01*
X220669D01*
X220597Y79044D01*
X220194Y80017D01*
X219553Y80853D01*
X218717Y81494D01*
X217744Y81897D01*
X216700Y82034D01*
D02*
G37*
G36*
X220669Y77500D02*
X214700D01*
Y73966D01*
X216700D01*
X217744Y74103D01*
X218717Y74506D01*
X219553Y75147D01*
X220194Y75983D01*
X220597Y76956D01*
X220669Y77500D01*
D02*
G37*
G36*
X403700Y72035D02*
X401700D01*
X400656Y71897D01*
X399683Y71494D01*
X398847Y70853D01*
X398206Y70017D01*
X397803Y69044D01*
X397731Y68500D01*
X403700D01*
Y72035D01*
D02*
G37*
G36*
X216700D02*
X214700D01*
Y68500D01*
X220669D01*
X220597Y69044D01*
X220194Y70017D01*
X219553Y70853D01*
X218717Y71494D01*
X217744Y71897D01*
X216700Y72035D01*
D02*
G37*
G36*
X403700Y67500D02*
X397731D01*
X397803Y66956D01*
X398206Y65983D01*
X398847Y65147D01*
X399683Y64506D01*
X400656Y64103D01*
X401700Y63965D01*
X403700D01*
Y67500D01*
D02*
G37*
G36*
X220669D02*
X214700D01*
Y63965D01*
X216700D01*
X217744Y64103D01*
X218717Y64506D01*
X219553Y65147D01*
X220194Y65983D01*
X220597Y66956D01*
X220669Y67500D01*
D02*
G37*
G36*
X288500Y83233D02*
X287837Y83101D01*
X287274Y82726D01*
X286899Y82163D01*
X286767Y81500D01*
X286899Y80837D01*
X287274Y80274D01*
X287684Y80001D01*
Y66800D01*
X287274Y66526D01*
X286899Y65963D01*
X286767Y65300D01*
X286899Y64637D01*
X287274Y64074D01*
X287837Y63699D01*
X288500Y63567D01*
X289163Y63699D01*
X289726Y64074D01*
X290101Y64637D01*
X290233Y65300D01*
X290101Y65963D01*
X289726Y66526D01*
X289316Y66800D01*
Y80001D01*
X289726Y80274D01*
X290101Y80837D01*
X290233Y81500D01*
X290101Y82163D01*
X289726Y82726D01*
X289163Y83101D01*
X288500Y83233D01*
D02*
G37*
G36*
X403700Y62034D02*
X401700D01*
X400656Y61897D01*
X399683Y61494D01*
X398847Y60853D01*
X398206Y60017D01*
X397803Y59044D01*
X397731Y58500D01*
X403700D01*
Y62034D01*
D02*
G37*
G36*
Y57500D02*
X397731D01*
X397803Y56956D01*
X398206Y55983D01*
X398847Y55147D01*
X399683Y54506D01*
X400656Y54103D01*
X401700Y53966D01*
X403700D01*
Y57500D01*
D02*
G37*
G36*
X304200Y51040D02*
X302160Y50880D01*
X300170Y50402D01*
X298280Y49619D01*
X296535Y48550D01*
X294979Y47221D01*
X293650Y45665D01*
X292581Y43920D01*
X291798Y42030D01*
X291320Y40040D01*
X291160Y38000D01*
X291320Y35960D01*
X291798Y33970D01*
X292581Y32080D01*
X293650Y30335D01*
X294979Y28779D01*
X296535Y27450D01*
X298280Y26381D01*
X300170Y25598D01*
X302160Y25120D01*
X304200Y24960D01*
X306240Y25120D01*
X308230Y25598D01*
X310120Y26381D01*
X311865Y27450D01*
X313421Y28779D01*
X314750Y30335D01*
X315819Y32080D01*
X316602Y33970D01*
X317080Y35960D01*
X317240Y38000D01*
X317080Y40040D01*
X316602Y42030D01*
X315819Y43920D01*
X314750Y45665D01*
X313421Y47221D01*
X311865Y48550D01*
X310120Y49619D01*
X308230Y50402D01*
X306240Y50880D01*
X304200Y51040D01*
D02*
G37*
G36*
X304700Y14469D02*
Y8500D01*
X308235D01*
Y10500D01*
X308097Y11544D01*
X307694Y12517D01*
X307053Y13353D01*
X306217Y13994D01*
X305244Y14397D01*
X304700Y14469D01*
D02*
G37*
G36*
X294700D02*
Y8500D01*
X298235D01*
Y10500D01*
X298097Y11544D01*
X297694Y12517D01*
X297053Y13353D01*
X296217Y13994D01*
X295244Y14397D01*
X294700Y14469D01*
D02*
G37*
G36*
X303700D02*
X303156Y14397D01*
X302183Y13994D01*
X301347Y13353D01*
X300706Y12517D01*
X300303Y11544D01*
X300166Y10500D01*
Y8500D01*
X303700D01*
Y14469D01*
D02*
G37*
G36*
X293700D02*
X293156Y14397D01*
X292183Y13994D01*
X291347Y13353D01*
X290706Y12517D01*
X290303Y11544D01*
X290165Y10500D01*
Y8500D01*
X293700D01*
Y14469D01*
D02*
G37*
G36*
X197700Y222000D02*
X191700D01*
Y218500D01*
X197700D01*
Y222000D01*
D02*
G37*
G36*
Y217500D02*
X191700D01*
Y214000D01*
X197700D01*
Y217500D01*
D02*
G37*
G36*
X10700Y212035D02*
X8700D01*
Y208500D01*
X14669D01*
X14597Y209044D01*
X14194Y210017D01*
X13553Y210853D01*
X12717Y211494D01*
X11744Y211897D01*
X10700Y212035D01*
D02*
G37*
G36*
X14669Y207500D02*
X8700D01*
Y203965D01*
X10700D01*
X11744Y204103D01*
X12717Y204506D01*
X13553Y205147D01*
X14194Y205983D01*
X14597Y206956D01*
X14669Y207500D01*
D02*
G37*
G36*
X197700Y192034D02*
X195700D01*
X194656Y191897D01*
X193683Y191494D01*
X192847Y190853D01*
X192206Y190017D01*
X191803Y189044D01*
X191731Y188500D01*
X197700D01*
Y192034D01*
D02*
G37*
G36*
X10700D02*
X8700D01*
Y188500D01*
X14669D01*
X14597Y189044D01*
X14194Y190017D01*
X13553Y190853D01*
X12717Y191494D01*
X11744Y191897D01*
X10700Y192034D01*
D02*
G37*
G36*
X197700Y187500D02*
X191731D01*
X191803Y186956D01*
X192206Y185983D01*
X192847Y185147D01*
X193683Y184506D01*
X194656Y184103D01*
X195700Y183966D01*
X197700D01*
Y187500D01*
D02*
G37*
G36*
X14669D02*
X8700D01*
Y183966D01*
X10700D01*
X11744Y184103D01*
X12717Y184506D01*
X13553Y185147D01*
X14194Y185983D01*
X14597Y186956D01*
X14669Y187500D01*
D02*
G37*
G36*
X96323Y174937D02*
X95660Y174805D01*
X95097Y174429D01*
X94823Y174019D01*
X89851D01*
X89577Y174429D01*
X89015Y174805D01*
X88351Y174937D01*
X87688Y174805D01*
X87126Y174429D01*
X86750Y173867D01*
X86618Y173204D01*
X86750Y172540D01*
X87126Y171978D01*
X87688Y171602D01*
X88351Y171470D01*
X89015Y171602D01*
X89577Y171978D01*
X89851Y172388D01*
X94823D01*
X95097Y171978D01*
X95660Y171602D01*
X96323Y171470D01*
X96986Y171602D01*
X97549Y171978D01*
X97924Y172540D01*
X98056Y173204D01*
X97924Y173867D01*
X97549Y174429D01*
X96986Y174805D01*
X96323Y174937D01*
D02*
G37*
G36*
X10700Y172035D02*
X8700D01*
Y168500D01*
X14669D01*
X14597Y169044D01*
X14194Y170017D01*
X13553Y170853D01*
X12717Y171494D01*
X11744Y171897D01*
X10700Y172035D01*
D02*
G37*
G36*
X14669Y167500D02*
X8700D01*
Y163965D01*
X10700D01*
X11744Y164103D01*
X12717Y164506D01*
X13553Y165147D01*
X14194Y165983D01*
X14597Y166956D01*
X14669Y167500D01*
D02*
G37*
G36*
X51354Y161711D02*
X50690Y161579D01*
X50128Y161203D01*
X49854Y160793D01*
X47100D01*
X46826Y161203D01*
X46263Y161579D01*
X45600Y161711D01*
X44937Y161579D01*
X44374Y161203D01*
X43999Y160641D01*
X43867Y159977D01*
X43999Y159314D01*
X44374Y158752D01*
X44937Y158376D01*
X45600Y158244D01*
X46263Y158376D01*
X46826Y158752D01*
X47100Y159161D01*
X49854D01*
X50128Y158752D01*
X50690Y158376D01*
X51354Y158244D01*
X52017Y158376D01*
X52579Y158752D01*
X52955Y159314D01*
X53087Y159977D01*
X52955Y160641D01*
X52579Y161203D01*
X52017Y161579D01*
X51354Y161711D01*
D02*
G37*
G36*
X197700Y162034D02*
X195700D01*
X194656Y161897D01*
X193683Y161494D01*
X192847Y160853D01*
X192206Y160017D01*
X191803Y159044D01*
X191731Y158500D01*
X197700D01*
Y162034D01*
D02*
G37*
G36*
Y157500D02*
X191731D01*
X191803Y156956D01*
X192206Y155983D01*
X192847Y155147D01*
X193683Y154506D01*
X194656Y154103D01*
X195700Y153965D01*
X197700D01*
Y157500D01*
D02*
G37*
G36*
X100259Y160333D02*
X99596Y160201D01*
X99033Y159826D01*
X98658Y159263D01*
X98526Y158600D01*
X98658Y157937D01*
X99033Y157374D01*
X99596Y156999D01*
X100259Y156867D01*
X100743Y156963D01*
X107604Y150102D01*
X107604Y150102D01*
X107869Y149925D01*
X108181Y149863D01*
X130700D01*
X130974Y149453D01*
X131537Y149077D01*
X132200Y148945D01*
X132863Y149077D01*
X133426Y149453D01*
X133801Y150015D01*
X133933Y150678D01*
X133801Y151342D01*
X133426Y151904D01*
X132863Y152280D01*
X132200Y152412D01*
X131537Y152280D01*
X130974Y151904D01*
X130700Y151494D01*
X108519D01*
X101896Y158116D01*
X101992Y158600D01*
X101860Y159263D01*
X101485Y159826D01*
X100922Y160201D01*
X100259Y160333D01*
D02*
G37*
G36*
X104400Y147733D02*
X103737Y147601D01*
X103174Y147226D01*
X102799Y146663D01*
X102667Y146000D01*
X102691Y145877D01*
X99835Y143022D01*
X81795D01*
X81726Y143126D01*
X81163Y143501D01*
X80500Y143633D01*
X79837Y143501D01*
X79274Y143126D01*
X78899Y142563D01*
X78767Y141900D01*
X78899Y141237D01*
X79274Y140674D01*
X79837Y140299D01*
X80500Y140167D01*
X81163Y140299D01*
X81726Y140674D01*
X81795Y140779D01*
X100300D01*
X100300Y140778D01*
X100729Y140864D01*
X101093Y141107D01*
X102720Y142734D01*
X103357Y142573D01*
X103381Y142546D01*
X103578Y142250D01*
Y131256D01*
X103474Y131186D01*
X103099Y130624D01*
X102967Y129961D01*
X103099Y129297D01*
X103474Y128735D01*
X104037Y128359D01*
X104700Y128227D01*
X105363Y128359D01*
X105926Y128735D01*
X106301Y129297D01*
X106433Y129961D01*
X106301Y130624D01*
X105926Y131186D01*
X105822Y131256D01*
Y142504D01*
X105957Y142663D01*
X106210Y142857D01*
X106388Y142929D01*
X106643Y142878D01*
X106643Y142878D01*
X128497D01*
X128497Y142878D01*
X128926Y142964D01*
X129290Y143207D01*
X129387Y143304D01*
X129863Y143399D01*
X130426Y143774D01*
X130801Y144337D01*
X130933Y145000D01*
X130801Y145663D01*
X130426Y146226D01*
X129863Y146601D01*
X129200Y146733D01*
X128537Y146601D01*
X127974Y146226D01*
X127599Y145663D01*
X127491Y145122D01*
X107107D01*
X106110Y146119D01*
X106001Y146663D01*
X105626Y147226D01*
X105063Y147601D01*
X104400Y147733D01*
D02*
G37*
G36*
X197700Y142034D02*
X195700D01*
X194656Y141897D01*
X193683Y141494D01*
X192847Y140853D01*
X192206Y140017D01*
X191803Y139044D01*
X191731Y138500D01*
X197700D01*
Y142034D01*
D02*
G37*
G36*
Y137500D02*
X191731D01*
X191803Y136956D01*
X192206Y135983D01*
X192847Y135147D01*
X193683Y134506D01*
X194656Y134103D01*
X195700Y133966D01*
X197700D01*
Y137500D01*
D02*
G37*
G36*
X169002Y133132D02*
X168339Y133000D01*
X168157Y132879D01*
X164297D01*
X164263Y132901D01*
X163600Y133033D01*
X162937Y132901D01*
X162374Y132526D01*
X161999Y131963D01*
X161867Y131300D01*
X161999Y130637D01*
X162374Y130074D01*
X162937Y129699D01*
X163600Y129567D01*
X164263Y129699D01*
X164445Y129820D01*
X168305D01*
X168339Y129797D01*
X169002Y129665D01*
X169666Y129797D01*
X170228Y130173D01*
X170604Y130735D01*
X170736Y131398D01*
X170604Y132062D01*
X170228Y132624D01*
X169666Y133000D01*
X169002Y133132D01*
D02*
G37*
G36*
X197700Y132035D02*
X195700D01*
X194656Y131897D01*
X193683Y131494D01*
X192847Y130853D01*
X192206Y130017D01*
X191803Y129044D01*
X191731Y128500D01*
X197700D01*
Y132035D01*
D02*
G37*
G36*
Y127500D02*
X191731D01*
X191803Y126956D01*
X192206Y125983D01*
X192847Y125147D01*
X193683Y124506D01*
X194656Y124103D01*
X195700Y123966D01*
X197700D01*
Y127500D01*
D02*
G37*
G36*
X52338Y131694D02*
X51674Y131562D01*
X51112Y131186D01*
X50736Y130624D01*
X50604Y129961D01*
X50736Y129297D01*
X51112Y128735D01*
X51522Y128461D01*
Y123976D01*
X48684Y121137D01*
X48200Y121233D01*
X47537Y121101D01*
X46974Y120726D01*
X46599Y120163D01*
X46467Y119500D01*
X46599Y118837D01*
X46974Y118274D01*
X47537Y117899D01*
X48200Y117767D01*
X48863Y117899D01*
X49426Y118274D01*
X49801Y118837D01*
X49933Y119500D01*
X49837Y119984D01*
X52915Y123061D01*
X52915Y123061D01*
X53091Y123326D01*
X53154Y123638D01*
Y128461D01*
X53563Y128735D01*
X53939Y129297D01*
X54071Y129961D01*
X53939Y130624D01*
X53563Y131186D01*
X53001Y131562D01*
X52338Y131694D01*
D02*
G37*
G36*
X59500Y90033D02*
X58837Y89901D01*
X58274Y89526D01*
X58000Y89116D01*
X51297D01*
X51224Y89226D01*
X50662Y89601D01*
X49998Y89733D01*
X49335Y89601D01*
X48773Y89226D01*
X48397Y88663D01*
X48265Y88000D01*
X48397Y87337D01*
X48773Y86774D01*
X49335Y86399D01*
X49998Y86267D01*
X50662Y86399D01*
X51224Y86774D01*
X51600Y87337D01*
X51629Y87484D01*
X58000D01*
X58274Y87074D01*
X58837Y86699D01*
X59500Y86567D01*
X60163Y86699D01*
X60726Y87074D01*
X61101Y87637D01*
X61233Y88300D01*
X61101Y88963D01*
X60726Y89526D01*
X60163Y89901D01*
X59500Y90033D01*
D02*
G37*
G36*
X10700Y82034D02*
X8700D01*
Y78500D01*
X14669D01*
X14597Y79044D01*
X14194Y80017D01*
X13553Y80853D01*
X12717Y81494D01*
X11744Y81897D01*
X10700Y82034D01*
D02*
G37*
G36*
X14669Y77500D02*
X8700D01*
Y73966D01*
X10700D01*
X11744Y74103D01*
X12717Y74506D01*
X13553Y75147D01*
X14194Y75983D01*
X14597Y76956D01*
X14669Y77500D01*
D02*
G37*
G36*
X197700Y72035D02*
X195700D01*
X194656Y71897D01*
X193683Y71494D01*
X192847Y70853D01*
X192206Y70017D01*
X191803Y69044D01*
X191731Y68500D01*
X197700D01*
Y72035D01*
D02*
G37*
G36*
X10700D02*
X8700D01*
Y68500D01*
X14669D01*
X14597Y69044D01*
X14194Y70017D01*
X13553Y70853D01*
X12717Y71494D01*
X11744Y71897D01*
X10700Y72035D01*
D02*
G37*
G36*
X197700Y67500D02*
X191731D01*
X191803Y66956D01*
X192206Y65983D01*
X192847Y65147D01*
X193683Y64506D01*
X194656Y64103D01*
X195700Y63965D01*
X197700D01*
Y67500D01*
D02*
G37*
G36*
X14669D02*
X8700D01*
Y63965D01*
X10700D01*
X11744Y64103D01*
X12717Y64506D01*
X13553Y65147D01*
X14194Y65983D01*
X14597Y66956D01*
X14669Y67500D01*
D02*
G37*
G36*
X82500Y83233D02*
X81837Y83101D01*
X81274Y82726D01*
X80899Y82163D01*
X80767Y81500D01*
X80899Y80837D01*
X81274Y80274D01*
X81684Y80001D01*
Y66800D01*
X81274Y66526D01*
X80899Y65963D01*
X80767Y65300D01*
X80899Y64637D01*
X81274Y64074D01*
X81837Y63699D01*
X82500Y63567D01*
X83163Y63699D01*
X83726Y64074D01*
X84101Y64637D01*
X84233Y65300D01*
X84101Y65963D01*
X83726Y66526D01*
X83316Y66800D01*
Y80001D01*
X83726Y80274D01*
X84101Y80837D01*
X84233Y81500D01*
X84101Y82163D01*
X83726Y82726D01*
X83163Y83101D01*
X82500Y83233D01*
D02*
G37*
G36*
X197700Y62034D02*
X195700D01*
X194656Y61897D01*
X193683Y61494D01*
X192847Y60853D01*
X192206Y60017D01*
X191803Y59044D01*
X191731Y58500D01*
X197700D01*
Y62034D01*
D02*
G37*
G36*
Y57500D02*
X191731D01*
X191803Y56956D01*
X192206Y55983D01*
X192847Y55147D01*
X193683Y54506D01*
X194656Y54103D01*
X195700Y53966D01*
X197700D01*
Y57500D01*
D02*
G37*
G36*
X98200Y51040D02*
X96160Y50880D01*
X94170Y50402D01*
X92280Y49619D01*
X90535Y48550D01*
X88979Y47221D01*
X87650Y45665D01*
X86581Y43920D01*
X85798Y42030D01*
X85320Y40040D01*
X85160Y38000D01*
X85320Y35960D01*
X85798Y33970D01*
X86581Y32080D01*
X87650Y30335D01*
X88979Y28779D01*
X90535Y27450D01*
X92280Y26381D01*
X94170Y25598D01*
X96160Y25120D01*
X98200Y24960D01*
X100240Y25120D01*
X102230Y25598D01*
X104120Y26381D01*
X105865Y27450D01*
X107421Y28779D01*
X108750Y30335D01*
X109819Y32080D01*
X110602Y33970D01*
X111080Y35960D01*
X111240Y38000D01*
X111080Y40040D01*
X110602Y42030D01*
X109819Y43920D01*
X108750Y45665D01*
X107421Y47221D01*
X105865Y48550D01*
X104120Y49619D01*
X102230Y50402D01*
X100240Y50880D01*
X98200Y51040D01*
D02*
G37*
G36*
X98700Y14469D02*
Y8500D01*
X102234D01*
Y10500D01*
X102097Y11544D01*
X101694Y12517D01*
X101053Y13353D01*
X100217Y13994D01*
X99244Y14397D01*
X98700Y14469D01*
D02*
G37*
G36*
X88700D02*
Y8500D01*
X92234D01*
Y10500D01*
X92097Y11544D01*
X91694Y12517D01*
X91053Y13353D01*
X90217Y13994D01*
X89244Y14397D01*
X88700Y14469D01*
D02*
G37*
G36*
X97700D02*
X97156Y14397D01*
X96183Y13994D01*
X95347Y13353D01*
X94706Y12517D01*
X94303Y11544D01*
X94165Y10500D01*
Y8500D01*
X97700D01*
Y14469D01*
D02*
G37*
G36*
X87700D02*
X87156Y14397D01*
X86183Y13994D01*
X85347Y13353D01*
X84706Y12517D01*
X84303Y11544D01*
X84166Y10500D01*
Y8500D01*
X87700D01*
Y14469D01*
D02*
G37*
G36*
X218200Y14500D02*
X214700D01*
Y8500D01*
X218200D01*
Y14500D01*
D02*
G37*
G36*
X12200D02*
X8700D01*
Y8500D01*
X12200D01*
Y14500D01*
D02*
G37*
%LPD*%
D21*
X50298Y88300D02*
X59500D01*
X49998Y88000D02*
X50298Y88300D01*
X82500Y65300D02*
Y81500D01*
X45600Y159977D02*
X51354D01*
X52338Y123638D02*
Y129961D01*
X48200Y119500D02*
X52338Y123638D01*
X88351Y173204D02*
X96323D01*
X108181Y150678D02*
X132200D01*
X100259Y158600D02*
X108181Y150678D01*
X256298Y88300D02*
X265500D01*
X255998Y88000D02*
X256298Y88300D01*
X288500Y65300D02*
Y81500D01*
X251600Y159977D02*
X257353D01*
X258338Y123638D02*
Y129961D01*
X254200Y119500D02*
X258338Y123638D01*
X294351Y173204D02*
X302323D01*
X314181Y150678D02*
X338200D01*
X306259Y158600D02*
X314181Y150678D01*
X50298Y342300D02*
X59500D01*
X49998Y342000D02*
X50298Y342300D01*
X82500Y319300D02*
Y335500D01*
X45600Y413977D02*
X51354D01*
X52338Y377638D02*
Y383961D01*
X48200Y373500D02*
X52338Y377638D01*
X88351Y427204D02*
X96323D01*
X108181Y404678D02*
X132200D01*
X100259Y412600D02*
X108181Y404678D01*
X256298Y342300D02*
X265500D01*
X255998Y342000D02*
X256298Y342300D01*
X288500Y319300D02*
Y335500D01*
X251600Y413977D02*
X257353D01*
X258338Y377638D02*
Y383961D01*
X254200Y373500D02*
X258338Y377638D01*
X294351Y427204D02*
X302323D01*
X314181Y404678D02*
X338200D01*
X306259Y412600D02*
X314181Y404678D01*
D23*
X104700Y129961D02*
Y142700D01*
X104400Y143000D02*
Y146000D01*
Y143000D02*
X104700Y142700D01*
X100300Y141900D02*
X104400Y146000D01*
X104643D01*
X106643Y144000D01*
X80500Y141900D02*
X100300D01*
X129200Y144703D02*
Y145000D01*
X128497Y144000D02*
X129200Y144703D01*
X106643Y144000D02*
X128497D01*
X310700Y129961D02*
Y142700D01*
X310400Y143000D02*
Y146000D01*
Y143000D02*
X310700Y142700D01*
X306300Y141900D02*
X310400Y146000D01*
X310643D01*
X312643Y144000D01*
X286500Y141900D02*
X306300D01*
X335200Y144703D02*
Y145000D01*
X334497Y144000D02*
X335200Y144703D01*
X312643Y144000D02*
X334497D01*
X104700Y383961D02*
Y396700D01*
X104400Y397000D02*
Y400000D01*
Y397000D02*
X104700Y396700D01*
X100300Y395900D02*
X104400Y400000D01*
X104643D01*
X106643Y398000D01*
X80500Y395900D02*
X100300D01*
X129200Y398703D02*
Y399000D01*
X128497Y398000D02*
X129200Y398703D01*
X106643Y398000D02*
X128497D01*
X310700Y383961D02*
Y396700D01*
X310400Y397000D02*
Y400000D01*
Y397000D02*
X310700Y396700D01*
X306300Y395900D02*
X310400Y400000D01*
X310643D01*
X312643Y398000D01*
X286500Y395900D02*
X306300D01*
X335200Y398703D02*
Y399000D01*
X334497Y398000D02*
X335200Y398703D01*
X312643Y398000D02*
X334497D01*
D24*
X168953Y131349D02*
X169002Y131398D01*
X163649Y131349D02*
X168953D01*
X163600Y131300D02*
X163649Y131349D01*
X374953D02*
X375002Y131398D01*
X369649Y131349D02*
X374953D01*
X369600Y131300D02*
X369649Y131349D01*
X168953Y385349D02*
X169002Y385398D01*
X163649Y385349D02*
X168953D01*
X163600Y385300D02*
X163649Y385349D01*
X374953D02*
X375002Y385398D01*
X369649Y385349D02*
X374953D01*
X369600Y385300D02*
X369649Y385349D01*
D25*
X68200Y20000D02*
X85400D01*
X68200Y8000D02*
Y20000D01*
X60200Y28000D02*
X68200Y20000D01*
X8200Y28000D02*
X60200D01*
X274200Y20000D02*
X291400D01*
X274200Y8000D02*
Y20000D01*
X266200Y28000D02*
X274200Y20000D01*
X214200Y28000D02*
X266200D01*
X68200Y274000D02*
X85400D01*
X68200Y262000D02*
Y274000D01*
X60200Y282000D02*
X68200Y274000D01*
X8200Y282000D02*
X60200D01*
X274200Y274000D02*
X291400D01*
X274200Y262000D02*
Y274000D01*
X266200Y282000D02*
X274200Y274000D01*
X214200Y282000D02*
X266200D01*
D26*
X98200Y38000D02*
D03*
X28200Y238000D02*
D03*
X178200D02*
D03*
X304200Y38000D02*
D03*
X234200Y238000D02*
D03*
X384200D02*
D03*
X98200Y292000D02*
D03*
X28200Y492000D02*
D03*
X178200D02*
D03*
X304200Y292000D02*
D03*
X234200Y492000D02*
D03*
X384200D02*
D03*
D27*
X8200Y218000D02*
D03*
X198200D02*
D03*
X214200D02*
D03*
X404200D02*
D03*
X8200Y472000D02*
D03*
X198200D02*
D03*
X214200D02*
D03*
X404200D02*
D03*
D28*
X8200Y208000D02*
D03*
Y198000D02*
D03*
Y188000D02*
D03*
Y178000D02*
D03*
Y168000D02*
D03*
Y158000D02*
D03*
Y148000D02*
D03*
Y138000D02*
D03*
Y128000D02*
D03*
Y118000D02*
D03*
Y108000D02*
D03*
Y98000D02*
D03*
Y88000D02*
D03*
Y78000D02*
D03*
Y68000D02*
D03*
Y58000D02*
D03*
Y48000D02*
D03*
Y38000D02*
D03*
Y28000D02*
D03*
X198200Y208000D02*
D03*
Y198000D02*
D03*
Y188000D02*
D03*
Y178000D02*
D03*
Y168000D02*
D03*
Y158000D02*
D03*
Y148000D02*
D03*
Y138000D02*
D03*
Y128000D02*
D03*
Y118000D02*
D03*
Y108000D02*
D03*
Y98000D02*
D03*
Y88000D02*
D03*
Y78000D02*
D03*
Y68000D02*
D03*
Y58000D02*
D03*
Y48000D02*
D03*
Y38000D02*
D03*
Y28000D02*
D03*
X214200Y208000D02*
D03*
Y198000D02*
D03*
Y188000D02*
D03*
Y178000D02*
D03*
Y168000D02*
D03*
Y158000D02*
D03*
Y148000D02*
D03*
Y138000D02*
D03*
Y128000D02*
D03*
Y118000D02*
D03*
Y108000D02*
D03*
Y98000D02*
D03*
Y88000D02*
D03*
Y78000D02*
D03*
Y68000D02*
D03*
Y58000D02*
D03*
Y48000D02*
D03*
Y38000D02*
D03*
Y28000D02*
D03*
X404200Y208000D02*
D03*
Y198000D02*
D03*
Y188000D02*
D03*
Y178000D02*
D03*
Y168000D02*
D03*
Y158000D02*
D03*
Y148000D02*
D03*
Y138000D02*
D03*
Y128000D02*
D03*
Y118000D02*
D03*
Y108000D02*
D03*
Y98000D02*
D03*
Y88000D02*
D03*
Y78000D02*
D03*
Y68000D02*
D03*
Y58000D02*
D03*
Y48000D02*
D03*
Y38000D02*
D03*
Y28000D02*
D03*
X8200Y462000D02*
D03*
Y452000D02*
D03*
Y442000D02*
D03*
Y432000D02*
D03*
Y422000D02*
D03*
Y412000D02*
D03*
Y402000D02*
D03*
Y392000D02*
D03*
Y382000D02*
D03*
Y372000D02*
D03*
Y362000D02*
D03*
Y352000D02*
D03*
Y342000D02*
D03*
Y332000D02*
D03*
Y322000D02*
D03*
Y312000D02*
D03*
Y302000D02*
D03*
Y292000D02*
D03*
Y282000D02*
D03*
X198200Y462000D02*
D03*
Y452000D02*
D03*
Y442000D02*
D03*
Y432000D02*
D03*
Y422000D02*
D03*
Y412000D02*
D03*
Y402000D02*
D03*
Y392000D02*
D03*
Y382000D02*
D03*
Y372000D02*
D03*
Y362000D02*
D03*
Y352000D02*
D03*
Y342000D02*
D03*
Y332000D02*
D03*
Y322000D02*
D03*
Y312000D02*
D03*
Y302000D02*
D03*
Y292000D02*
D03*
Y282000D02*
D03*
X214200Y462000D02*
D03*
Y452000D02*
D03*
Y442000D02*
D03*
Y432000D02*
D03*
Y422000D02*
D03*
Y412000D02*
D03*
Y402000D02*
D03*
Y392000D02*
D03*
Y382000D02*
D03*
Y372000D02*
D03*
Y362000D02*
D03*
Y352000D02*
D03*
Y342000D02*
D03*
Y332000D02*
D03*
Y322000D02*
D03*
Y312000D02*
D03*
Y302000D02*
D03*
Y292000D02*
D03*
Y282000D02*
D03*
X404200Y462000D02*
D03*
Y452000D02*
D03*
Y442000D02*
D03*
Y432000D02*
D03*
Y422000D02*
D03*
Y412000D02*
D03*
Y402000D02*
D03*
Y392000D02*
D03*
Y382000D02*
D03*
Y372000D02*
D03*
Y362000D02*
D03*
Y352000D02*
D03*
Y342000D02*
D03*
Y332000D02*
D03*
Y322000D02*
D03*
Y312000D02*
D03*
Y302000D02*
D03*
Y292000D02*
D03*
Y282000D02*
D03*
D29*
X8200Y8000D02*
D03*
X214200D02*
D03*
X8200Y262000D02*
D03*
X214200D02*
D03*
D30*
X18200Y8000D02*
D03*
X28200D02*
D03*
X38200D02*
D03*
X48200D02*
D03*
X58200D02*
D03*
X68200D02*
D03*
X78200D02*
D03*
X88200D02*
D03*
X98200D02*
D03*
X108200D02*
D03*
X118200D02*
D03*
X128200D02*
D03*
X138200D02*
D03*
X148200D02*
D03*
X158200D02*
D03*
X168200D02*
D03*
X178200D02*
D03*
X188200D02*
D03*
X198200D02*
D03*
X224200D02*
D03*
X234200D02*
D03*
X244200D02*
D03*
X254200D02*
D03*
X264200D02*
D03*
X274200D02*
D03*
X284200D02*
D03*
X294200D02*
D03*
X304200D02*
D03*
X314200D02*
D03*
X324200D02*
D03*
X334200D02*
D03*
X344200D02*
D03*
X354200D02*
D03*
X364200D02*
D03*
X374200D02*
D03*
X384200D02*
D03*
X394200D02*
D03*
X404200D02*
D03*
X18200Y262000D02*
D03*
X28200D02*
D03*
X38200D02*
D03*
X48200D02*
D03*
X58200D02*
D03*
X68200D02*
D03*
X78200D02*
D03*
X88200D02*
D03*
X98200D02*
D03*
X108200D02*
D03*
X118200D02*
D03*
X128200D02*
D03*
X138200D02*
D03*
X148200D02*
D03*
X158200D02*
D03*
X168200D02*
D03*
X178200D02*
D03*
X188200D02*
D03*
X198200D02*
D03*
X224200D02*
D03*
X234200D02*
D03*
X244200D02*
D03*
X254200D02*
D03*
X264200D02*
D03*
X274200D02*
D03*
X284200D02*
D03*
X294200D02*
D03*
X304200D02*
D03*
X314200D02*
D03*
X324200D02*
D03*
X334200D02*
D03*
X344200D02*
D03*
X354200D02*
D03*
X364200D02*
D03*
X374200D02*
D03*
X384200D02*
D03*
X394200D02*
D03*
X404200D02*
D03*
D31*
X22300Y35700D02*
D03*
X104700Y113600D02*
D03*
X49998Y88000D02*
D03*
X59500Y88300D02*
D03*
X8200Y88000D02*
D03*
X104700Y129961D02*
D03*
X163600Y131300D02*
D03*
X85400Y20000D02*
D03*
X82500Y81500D02*
D03*
Y65300D02*
D03*
X45600Y159977D02*
D03*
X52338Y129961D02*
D03*
X48200Y119500D02*
D03*
X173700Y78000D02*
D03*
X77605Y190300D02*
D03*
X66246Y197046D02*
D03*
X88351Y173204D02*
D03*
X169002Y131398D02*
D03*
X173700Y144623D02*
D03*
X151800Y157390D02*
D03*
Y169000D02*
D03*
X126295Y180476D02*
D03*
X134400Y180400D02*
D03*
X104400Y146000D02*
D03*
X64300Y175200D02*
D03*
X52338Y139505D02*
D03*
Y147182D02*
D03*
Y154859D02*
D03*
X51354Y159977D02*
D03*
X146300Y119500D02*
D03*
X135500D02*
D03*
X96323Y173204D02*
D03*
X80500Y141900D02*
D03*
X129200Y145000D02*
D03*
X132200Y150678D02*
D03*
X98100Y154859D02*
D03*
X109062Y147182D02*
D03*
X100259Y158600D02*
D03*
X228300Y35700D02*
D03*
X310700Y113600D02*
D03*
X255998Y88000D02*
D03*
X265500Y88300D02*
D03*
X214200Y88000D02*
D03*
X310700Y129961D02*
D03*
X369600Y131300D02*
D03*
X291400Y20000D02*
D03*
X288500Y81500D02*
D03*
Y65300D02*
D03*
X251600Y159977D02*
D03*
X258338Y129961D02*
D03*
X254200Y119500D02*
D03*
X379700Y78000D02*
D03*
X283605Y190300D02*
D03*
X272247Y197046D02*
D03*
X294351Y173204D02*
D03*
X375002Y131398D02*
D03*
X379700Y144623D02*
D03*
X357800Y157390D02*
D03*
Y169000D02*
D03*
X332295Y180476D02*
D03*
X340400Y180400D02*
D03*
X310400Y146000D02*
D03*
X270300Y175200D02*
D03*
X258338Y139505D02*
D03*
Y147182D02*
D03*
Y154859D02*
D03*
X257353Y159977D02*
D03*
X352300Y119500D02*
D03*
X341500D02*
D03*
X302323Y173204D02*
D03*
X286500Y141900D02*
D03*
X335200Y145000D02*
D03*
X338200Y150678D02*
D03*
X304100Y154859D02*
D03*
X315062Y147182D02*
D03*
X306259Y158600D02*
D03*
X22300Y289700D02*
D03*
X104700Y367600D02*
D03*
X49998Y342000D02*
D03*
X59500Y342300D02*
D03*
X8200Y342000D02*
D03*
X104700Y383961D02*
D03*
X163600Y385300D02*
D03*
X85400Y274000D02*
D03*
X82500Y335500D02*
D03*
Y319300D02*
D03*
X45600Y413977D02*
D03*
X52338Y383961D02*
D03*
X48200Y373500D02*
D03*
X173700Y332000D02*
D03*
X77605Y444300D02*
D03*
X66246Y451047D02*
D03*
X88351Y427204D02*
D03*
X169002Y385398D02*
D03*
X173700Y398623D02*
D03*
X151800Y411390D02*
D03*
Y423000D02*
D03*
X126295Y434477D02*
D03*
X134400Y434400D02*
D03*
X104400Y400000D02*
D03*
X64300Y429200D02*
D03*
X52338Y393505D02*
D03*
Y401182D02*
D03*
Y408859D02*
D03*
X51354Y413977D02*
D03*
X146300Y373500D02*
D03*
X135500D02*
D03*
X96323Y427204D02*
D03*
X80500Y395900D02*
D03*
X129200Y399000D02*
D03*
X132200Y404678D02*
D03*
X98100Y408859D02*
D03*
X109062Y401182D02*
D03*
X100259Y412600D02*
D03*
X228300Y289700D02*
D03*
X310700Y367600D02*
D03*
X255998Y342000D02*
D03*
X265500Y342300D02*
D03*
X214200Y342000D02*
D03*
X310700Y383961D02*
D03*
X369600Y385300D02*
D03*
X291400Y274000D02*
D03*
X288500Y335500D02*
D03*
Y319300D02*
D03*
X251600Y413977D02*
D03*
X258338Y383961D02*
D03*
X254200Y373500D02*
D03*
X379700Y332000D02*
D03*
X283605Y444300D02*
D03*
X272247Y451047D02*
D03*
X294351Y427204D02*
D03*
X375002Y385398D02*
D03*
X379700Y398623D02*
D03*
X357800Y411390D02*
D03*
Y423000D02*
D03*
X332295Y434477D02*
D03*
X340400Y434400D02*
D03*
X310400Y400000D02*
D03*
X270300Y429200D02*
D03*
X258338Y393505D02*
D03*
Y401182D02*
D03*
Y408859D02*
D03*
X257353Y413977D02*
D03*
X352300Y373500D02*
D03*
X341500D02*
D03*
X302323Y427204D02*
D03*
X286500Y395900D02*
D03*
X335200Y399000D02*
D03*
X338200Y404678D02*
D03*
X304100Y408859D02*
D03*
X315062Y401182D02*
D03*
X306259Y412600D02*
D03*
M02*
