G04*
G04 #@! TF.GenerationSoftware,Altium Limited,Altium Designer,22.9.1 (49)*
G04*
G04 Layer_Color=8388736*
%FSLAX25Y25*%
%MOIN*%
G70*
G04*
G04 #@! TF.SameCoordinates,75BF9A83-B890-44CC-8EB5-75566BACED9D*
G04*
G04*
G04 #@! TF.FilePolarity,Negative*
G04*
G01*
G75*
%ADD12C,0.00394*%
%ADD15C,0.00397*%
%ADD18C,0.00945*%
%ADD21R,1.37008X0.23524*%
%ADD22C,0.10512*%
G04:AMPARAMS|DCode=23|XSize=47.37mil|YSize=43.43mil|CornerRadius=8.43mil|HoleSize=0mil|Usage=FLASHONLY|Rotation=90.000|XOffset=0mil|YOffset=0mil|HoleType=Round|Shape=RoundedRectangle|*
%AMROUNDEDRECTD23*
21,1,0.04737,0.02657,0,0,90.0*
21,1,0.03051,0.04343,0,0,90.0*
1,1,0.01686,0.01329,0.01526*
1,1,0.01686,0.01329,-0.01526*
1,1,0.01686,-0.01329,-0.01526*
1,1,0.01686,-0.01329,0.01526*
%
%ADD23ROUNDEDRECTD23*%
%ADD24R,0.03753X0.04540*%
%ADD25R,0.04540X0.03753*%
G04:AMPARAMS|DCode=26|XSize=47.37mil|YSize=43.43mil|CornerRadius=8.43mil|HoleSize=0mil|Usage=FLASHONLY|Rotation=180.000|XOffset=0mil|YOffset=0mil|HoleType=Round|Shape=RoundedRectangle|*
%AMROUNDEDRECTD26*
21,1,0.04737,0.02657,0,0,180.0*
21,1,0.03051,0.04343,0,0,180.0*
1,1,0.01686,-0.01526,0.01329*
1,1,0.01686,0.01526,0.01329*
1,1,0.01686,0.01526,-0.01329*
1,1,0.01686,-0.01526,-0.01329*
%
%ADD26ROUNDEDRECTD26*%
%ADD27R,0.03556X0.17335*%
%ADD28R,0.03556X0.17335*%
%ADD29R,0.06706X0.06706*%
%ADD30C,0.06706*%
%ADD31C,0.21666*%
%ADD32C,0.02200*%
%ADD33C,0.03200*%
D12*
X39933Y328964D02*
G03*
X36614Y332283I-3319J0D01*
G01*
X3150Y332283D02*
G03*
X886Y330020I0J-2264D01*
G01*
X231886Y327354D02*
G03*
X231890Y327358I0J4D01*
G01*
Y330709D02*
G03*
X230315Y332283I-1575J0D01*
G01*
X196850D02*
G03*
X194658Y330091I0J-2193D01*
G01*
X3150Y332283D02*
X36614D01*
X39933Y290010D02*
Y328964D01*
X886Y325854D02*
Y330020D01*
X196850Y332283D02*
X230315D01*
X194658Y282453D02*
Y330091D01*
X184815Y282902D02*
Y290144D01*
X39933Y283208D02*
Y290010D01*
X49776Y283240D02*
Y290010D01*
X142689Y312634D02*
X182846D01*
X184815Y290144D02*
Y310665D01*
X49776Y290010D02*
Y310665D01*
X51744Y312634D01*
X131272D02*
X133240Y310665D01*
X140720D02*
X142689Y312634D01*
X182846D02*
X184815Y310665D01*
X51744Y312634D02*
X131272D01*
X133240Y283303D02*
Y310665D01*
X140720Y283303D02*
Y310665D01*
D15*
X191605Y279400D02*
G03*
X194658Y282453I0J3053D01*
G01*
X184815Y282902D02*
G03*
X188317Y279400I3501J0D01*
G01*
X137317Y279900D02*
G03*
X140720Y283303I0J3403D01*
G01*
X133240D02*
G03*
X136643Y279900I3403J0D01*
G01*
X46835Y280300D02*
G03*
X49776Y283240I0J2940D01*
G01*
X39933Y283208D02*
G03*
X42841Y280300I2908J0D01*
G01*
X886Y156300D02*
G03*
X5886Y151300I5000J0D01*
G01*
X226890D02*
G03*
X231890Y156300I0J5000D01*
G01*
X42841Y280300D02*
X46835D01*
X188317Y279400D02*
X191605D01*
X136643Y279900D02*
X137317D01*
X886Y156300D02*
Y325854D01*
X5886Y151300D02*
X89300D01*
X226890D01*
X231886Y330709D02*
X231886Y156296D01*
D18*
X132056Y230946D02*
D03*
Y229371D02*
D03*
Y227796D02*
D03*
Y226221D02*
D03*
Y224646D02*
D03*
X130482Y230946D02*
D03*
Y229371D02*
D03*
Y227796D02*
D03*
Y226221D02*
D03*
Y224646D02*
D03*
X128907Y230946D02*
D03*
Y229371D02*
D03*
Y227796D02*
D03*
Y226221D02*
D03*
Y224646D02*
D03*
X127332Y230946D02*
D03*
Y229371D02*
D03*
Y227796D02*
D03*
Y226221D02*
D03*
Y224646D02*
D03*
X125757Y230946D02*
D03*
Y229371D02*
D03*
Y227796D02*
D03*
Y226221D02*
D03*
Y224646D02*
D03*
X124182Y230946D02*
D03*
Y229371D02*
D03*
Y227796D02*
D03*
Y226221D02*
D03*
Y224646D02*
D03*
D21*
X117295Y301856D02*
D03*
D22*
X215000Y250000D02*
D03*
X25000D02*
D03*
X215000Y195000D02*
D03*
D23*
X51753Y250300D02*
D03*
X58447D02*
D03*
X159653Y214000D02*
D03*
X166347D02*
D03*
X93593Y207100D02*
D03*
X86900D02*
D03*
X145546Y248900D02*
D03*
X138854D02*
D03*
X87147Y236000D02*
D03*
X80453D02*
D03*
X100554D02*
D03*
X107246D02*
D03*
D24*
X165100Y223453D02*
D03*
X159588D02*
D03*
X165100Y230453D02*
D03*
X159588D02*
D03*
X100600Y226153D02*
D03*
X95088D02*
D03*
X138744Y241100D02*
D03*
X144256D02*
D03*
D25*
X170444Y203809D02*
D03*
Y198298D02*
D03*
X159444Y203809D02*
D03*
Y198298D02*
D03*
X128944Y196965D02*
D03*
Y191454D02*
D03*
X159544Y249009D02*
D03*
Y243498D02*
D03*
X167544Y248965D02*
D03*
Y243454D02*
D03*
X149144Y216910D02*
D03*
Y211398D02*
D03*
D26*
X43300Y232954D02*
D03*
Y239647D02*
D03*
D27*
X131075Y298854D02*
D03*
X119264D02*
D03*
X115327D02*
D03*
X123201D02*
D03*
X107453D02*
D03*
X127138D02*
D03*
X142886D02*
D03*
X146823D02*
D03*
X158634D02*
D03*
X166508D02*
D03*
X170445D02*
D03*
X154697D02*
D03*
X174382D02*
D03*
X162571D02*
D03*
X150760D02*
D03*
X178319D02*
D03*
X182256D02*
D03*
X52335D02*
D03*
X95642D02*
D03*
X99579D02*
D03*
X103516D02*
D03*
X87768D02*
D03*
X60209D02*
D03*
X68083D02*
D03*
X75957D02*
D03*
X83831D02*
D03*
X64146D02*
D03*
X91705D02*
D03*
X79894D02*
D03*
X72020D02*
D03*
D28*
X111390D02*
D03*
X56272D02*
D03*
D29*
X193500Y268200D02*
D03*
D30*
X183500D02*
D03*
X173500D02*
D03*
X163500D02*
D03*
X153500D02*
D03*
X143500D02*
D03*
X133500D02*
D03*
X123500D02*
D03*
X113500D02*
D03*
X103500D02*
D03*
X93500D02*
D03*
X83500D02*
D03*
X73500D02*
D03*
X63500D02*
D03*
X53500D02*
D03*
X43500D02*
D03*
D31*
X215721Y310665D02*
D03*
X18870D02*
D03*
D32*
X215721Y302445D02*
D03*
X209908Y304852D02*
D03*
X207500Y310665D02*
D03*
X209908Y316478D02*
D03*
X215721Y318886D02*
D03*
D03*
X221533Y316478D02*
D03*
X223941Y310665D02*
D03*
X221533Y304852D02*
D03*
X18870Y302445D02*
D03*
X13057Y304852D02*
D03*
X10649Y310665D02*
D03*
X13057Y316478D02*
D03*
X18870Y318886D02*
D03*
D03*
X24683Y316478D02*
D03*
X27091Y310665D02*
D03*
X24683Y304852D02*
D03*
D33*
X130482Y237754D02*
D03*
M02*
