G04 Layer_Physical_Order=2*
G04 Layer_Color=16711680*
%FSLAX25Y25*%
%MOIN*%
G70*
G01*
G75*
%ADD18C,0.00800*%
%ADD19C,0.02500*%
%ADD20C,0.01000*%
%ADD22R,0.07087X0.07087*%
%ADD23C,0.07087*%
%ADD24C,0.25000*%
%ADD25R,0.11000X0.06000*%
%ADD26O,0.11000X0.06000*%
%ADD27R,0.06000X0.11000*%
%ADD28O,0.06000X0.11000*%
%ADD29C,0.02500*%
G36*
X410471Y476500D02*
X404500D01*
Y472500D01*
Y468500D01*
X410471D01*
Y464799D01*
X410024Y464545D01*
X409971Y464548D01*
X409353Y465353D01*
X408517Y465994D01*
X407544Y466397D01*
X406500Y466535D01*
X401500D01*
X400456Y466397D01*
X399483Y465994D01*
X398647Y465353D01*
X398006Y464517D01*
X397603Y463544D01*
X397465Y462500D01*
X397603Y461456D01*
X398006Y460483D01*
X398647Y459647D01*
X399483Y459006D01*
X400456Y458603D01*
X401500Y458465D01*
X406500D01*
X407544Y458603D01*
X408517Y459006D01*
X409353Y459647D01*
X409971Y460452D01*
X410024Y460455D01*
X410471Y460201D01*
Y454799D01*
X410024Y454545D01*
X409971Y454548D01*
X409353Y455353D01*
X408517Y455994D01*
X407544Y456397D01*
X406500Y456534D01*
X401500D01*
X400456Y456397D01*
X399483Y455994D01*
X398647Y455353D01*
X398006Y454517D01*
X397603Y453544D01*
X397465Y452500D01*
X397603Y451456D01*
X398006Y450483D01*
X398647Y449647D01*
X399483Y449006D01*
X400456Y448603D01*
X401500Y448465D01*
X406500D01*
X407544Y448603D01*
X408517Y449006D01*
X409353Y449647D01*
X409971Y450452D01*
X410024Y450455D01*
X410471Y450201D01*
Y444799D01*
X410024Y444545D01*
X409971Y444548D01*
X409353Y445353D01*
X408517Y445994D01*
X407544Y446397D01*
X406500Y446534D01*
X404500D01*
Y442500D01*
Y438465D01*
X406500D01*
X407544Y438603D01*
X408517Y439006D01*
X409353Y439647D01*
X409971Y440452D01*
X410024Y440455D01*
X410471Y440201D01*
Y434799D01*
X410024Y434545D01*
X409971Y434548D01*
X409353Y435353D01*
X408517Y435994D01*
X407544Y436397D01*
X406500Y436535D01*
X401500D01*
X400456Y436397D01*
X399483Y435994D01*
X398647Y435353D01*
X398006Y434517D01*
X397603Y433544D01*
X397465Y432500D01*
X397603Y431456D01*
X398006Y430483D01*
X398647Y429647D01*
X399483Y429006D01*
X400456Y428603D01*
X401500Y428466D01*
X406500D01*
X407544Y428603D01*
X408517Y429006D01*
X409353Y429647D01*
X409971Y430452D01*
X410024Y430455D01*
X410471Y430201D01*
Y424799D01*
X410024Y424545D01*
X409971Y424548D01*
X409353Y425353D01*
X408517Y425994D01*
X407544Y426397D01*
X406500Y426535D01*
X401500D01*
X400456Y426397D01*
X399483Y425994D01*
X398647Y425353D01*
X398006Y424517D01*
X397603Y423544D01*
X397465Y422500D01*
X397603Y421456D01*
X398006Y420483D01*
X398647Y419647D01*
X399483Y419006D01*
X400456Y418603D01*
X401500Y418466D01*
X406500D01*
X407544Y418603D01*
X408517Y419006D01*
X409353Y419647D01*
X409971Y420452D01*
X410024Y420455D01*
X410471Y420201D01*
Y414799D01*
X410024Y414545D01*
X409971Y414548D01*
X409353Y415353D01*
X408517Y415994D01*
X407544Y416397D01*
X406500Y416535D01*
X404500D01*
Y412500D01*
Y408465D01*
X406500D01*
X407544Y408603D01*
X408517Y409006D01*
X409353Y409647D01*
X409971Y410452D01*
X410024Y410455D01*
X410471Y410201D01*
Y404799D01*
X410024Y404545D01*
X409971Y404548D01*
X409353Y405353D01*
X408517Y405994D01*
X407544Y406397D01*
X406500Y406534D01*
X401500D01*
X400456Y406397D01*
X399483Y405994D01*
X398647Y405353D01*
X398006Y404517D01*
X397603Y403544D01*
X397465Y402500D01*
X397603Y401456D01*
X398006Y400483D01*
X398647Y399647D01*
X399483Y399006D01*
X400456Y398603D01*
X401500Y398465D01*
X406500D01*
X407544Y398603D01*
X408517Y399006D01*
X409353Y399647D01*
X409971Y400452D01*
X410024Y400455D01*
X410471Y400201D01*
Y394799D01*
X410024Y394545D01*
X409971Y394548D01*
X409353Y395353D01*
X408517Y395994D01*
X407544Y396397D01*
X406500Y396534D01*
X404500D01*
Y392500D01*
Y388465D01*
X406500D01*
X407544Y388603D01*
X408517Y389006D01*
X409353Y389647D01*
X409971Y390452D01*
X410024Y390455D01*
X410471Y390201D01*
Y384799D01*
X410024Y384545D01*
X409971Y384548D01*
X409353Y385353D01*
X408517Y385994D01*
X407544Y386397D01*
X406500Y386535D01*
X404500D01*
Y382500D01*
Y378466D01*
X406500D01*
X407544Y378603D01*
X408517Y379006D01*
X409353Y379647D01*
X409971Y380452D01*
X410024Y380455D01*
X410471Y380201D01*
Y374799D01*
X410024Y374545D01*
X409971Y374548D01*
X409353Y375353D01*
X408517Y375994D01*
X407544Y376397D01*
X406500Y376535D01*
X401500D01*
X400456Y376397D01*
X399483Y375994D01*
X398647Y375353D01*
X398006Y374517D01*
X397603Y373544D01*
X397465Y372500D01*
X397603Y371456D01*
X398006Y370483D01*
X398647Y369647D01*
X399483Y369006D01*
X400456Y368603D01*
X401500Y368465D01*
X406500D01*
X407544Y368603D01*
X408517Y369006D01*
X409353Y369647D01*
X409971Y370452D01*
X410024Y370455D01*
X410471Y370201D01*
Y364799D01*
X410024Y364545D01*
X409971Y364548D01*
X409353Y365353D01*
X408517Y365994D01*
X407544Y366397D01*
X406500Y366534D01*
X401500D01*
X400456Y366397D01*
X399483Y365994D01*
X398647Y365353D01*
X398006Y364517D01*
X397603Y363544D01*
X397465Y362500D01*
X397603Y361456D01*
X398006Y360483D01*
X398647Y359647D01*
X399483Y359006D01*
X400456Y358603D01*
X401500Y358466D01*
X406500D01*
X407544Y358603D01*
X408517Y359006D01*
X409353Y359647D01*
X409971Y360452D01*
X410024Y360455D01*
X410471Y360201D01*
Y354799D01*
X410024Y354545D01*
X409971Y354548D01*
X409353Y355353D01*
X408517Y355994D01*
X407544Y356397D01*
X406500Y356535D01*
X401500D01*
X400456Y356397D01*
X399483Y355994D01*
X398647Y355353D01*
X398006Y354517D01*
X397603Y353544D01*
X397465Y352500D01*
X397603Y351456D01*
X398006Y350483D01*
X398647Y349647D01*
X399483Y349006D01*
X400456Y348603D01*
X401500Y348465D01*
X406500D01*
X407544Y348603D01*
X408517Y349006D01*
X409353Y349647D01*
X409971Y350452D01*
X410024Y350455D01*
X410471Y350201D01*
Y344799D01*
X410024Y344545D01*
X409971Y344548D01*
X409353Y345353D01*
X408517Y345994D01*
X407544Y346397D01*
X406500Y346534D01*
X401500D01*
X400456Y346397D01*
X399483Y345994D01*
X398647Y345353D01*
X398006Y344517D01*
X397603Y343544D01*
X397465Y342500D01*
X397603Y341456D01*
X398006Y340483D01*
X398647Y339647D01*
X399483Y339006D01*
X400456Y338603D01*
X401500Y338465D01*
X406500D01*
X407544Y338603D01*
X408517Y339006D01*
X409353Y339647D01*
X409971Y340452D01*
X410024Y340455D01*
X410471Y340201D01*
Y334799D01*
X410024Y334545D01*
X409971Y334548D01*
X409353Y335353D01*
X408517Y335994D01*
X407544Y336397D01*
X406500Y336535D01*
X401500D01*
X400456Y336397D01*
X399483Y335994D01*
X398647Y335353D01*
X398006Y334517D01*
X397603Y333544D01*
X397465Y332500D01*
X397603Y331456D01*
X398006Y330483D01*
X398647Y329647D01*
X399483Y329006D01*
X400456Y328603D01*
X401500Y328466D01*
X406500D01*
X407544Y328603D01*
X408517Y329006D01*
X409353Y329647D01*
X409971Y330452D01*
X410024Y330455D01*
X410471Y330201D01*
Y324799D01*
X410024Y324545D01*
X409971Y324548D01*
X409353Y325353D01*
X408517Y325994D01*
X407544Y326397D01*
X406500Y326535D01*
X404500D01*
Y322500D01*
Y318465D01*
X406500D01*
X407544Y318603D01*
X408517Y319006D01*
X409353Y319647D01*
X409971Y320452D01*
X410024Y320455D01*
X410471Y320201D01*
Y314799D01*
X410024Y314545D01*
X409971Y314548D01*
X409353Y315353D01*
X408517Y315994D01*
X407544Y316397D01*
X406500Y316534D01*
X404500D01*
Y312500D01*
Y308466D01*
X406500D01*
X407544Y308603D01*
X408517Y309006D01*
X409353Y309647D01*
X409971Y310452D01*
X410024Y310455D01*
X410471Y310201D01*
Y304799D01*
X410024Y304545D01*
X409971Y304548D01*
X409353Y305353D01*
X408517Y305994D01*
X407544Y306397D01*
X406500Y306535D01*
X401500D01*
X400456Y306397D01*
X399483Y305994D01*
X398647Y305353D01*
X398006Y304517D01*
X397603Y303544D01*
X397465Y302500D01*
X397603Y301456D01*
X398006Y300483D01*
X398647Y299647D01*
X399483Y299006D01*
X400456Y298603D01*
X401500Y298465D01*
X406500D01*
X407544Y298603D01*
X408517Y299006D01*
X409353Y299647D01*
X409971Y300452D01*
X410024Y300455D01*
X410471Y300201D01*
Y294799D01*
X410024Y294545D01*
X409971Y294548D01*
X409353Y295353D01*
X408517Y295994D01*
X407544Y296397D01*
X406500Y296534D01*
X401500D01*
X400456Y296397D01*
X399483Y295994D01*
X398647Y295353D01*
X398006Y294517D01*
X397603Y293544D01*
X397465Y292500D01*
X397603Y291456D01*
X398006Y290483D01*
X398647Y289647D01*
X399483Y289006D01*
X400456Y288603D01*
X401500Y288465D01*
X406500D01*
X407544Y288603D01*
X408517Y289006D01*
X409353Y289647D01*
X409971Y290452D01*
X410024Y290455D01*
X410471Y290201D01*
Y284799D01*
X410024Y284545D01*
X409971Y284548D01*
X409353Y285353D01*
X408517Y285994D01*
X407544Y286397D01*
X406500Y286535D01*
X401500D01*
X400456Y286397D01*
X399483Y285994D01*
X398647Y285353D01*
X398006Y284517D01*
X397603Y283544D01*
X397465Y282500D01*
X397603Y281456D01*
X398006Y280483D01*
X398647Y279647D01*
X399483Y279006D01*
X400456Y278603D01*
X401500Y278466D01*
X406500D01*
X407544Y278603D01*
X408517Y279006D01*
X409353Y279647D01*
X409971Y280452D01*
X410024Y280455D01*
X410471Y280201D01*
Y256029D01*
X406299D01*
X406045Y256476D01*
X406048Y256529D01*
X406853Y257147D01*
X407494Y257983D01*
X407897Y258956D01*
X408035Y260000D01*
Y265000D01*
X407897Y266044D01*
X407494Y267017D01*
X406853Y267853D01*
X406017Y268494D01*
X405044Y268897D01*
X404000Y269035D01*
X402956Y268897D01*
X401983Y268494D01*
X401147Y267853D01*
X400506Y267017D01*
X400103Y266044D01*
X399966Y265000D01*
Y260000D01*
X400103Y258956D01*
X400506Y257983D01*
X401147Y257147D01*
X401952Y256529D01*
X401955Y256476D01*
X401701Y256029D01*
X396299D01*
X396045Y256476D01*
X396048Y256529D01*
X396853Y257147D01*
X397494Y257983D01*
X397897Y258956D01*
X398035Y260000D01*
Y265000D01*
X397897Y266044D01*
X397494Y267017D01*
X396853Y267853D01*
X396017Y268494D01*
X395044Y268897D01*
X394000Y269035D01*
X392956Y268897D01*
X391983Y268494D01*
X391147Y267853D01*
X390506Y267017D01*
X390103Y266044D01*
X389966Y265000D01*
Y260000D01*
X390103Y258956D01*
X390506Y257983D01*
X391147Y257147D01*
X391952Y256529D01*
X391955Y256476D01*
X391701Y256029D01*
X386299D01*
X386045Y256476D01*
X386048Y256529D01*
X386853Y257147D01*
X387494Y257983D01*
X387897Y258956D01*
X388035Y260000D01*
Y265000D01*
X387897Y266044D01*
X387494Y267017D01*
X386853Y267853D01*
X386017Y268494D01*
X385927Y268531D01*
Y309248D01*
X386122Y309378D01*
X386619Y310122D01*
X386794Y311000D01*
X386619Y311878D01*
X386122Y312622D01*
X385378Y313120D01*
X384500Y313294D01*
X383622Y313120D01*
X382878Y312622D01*
X382381Y311878D01*
X382206Y311000D01*
X381917Y310711D01*
X381500Y310794D01*
X380622Y310619D01*
X379878Y310122D01*
X379380Y309378D01*
X379206Y308500D01*
X379380Y307622D01*
X379878Y306878D01*
X380073Y306748D01*
Y280591D01*
X372991Y273509D01*
X372681Y273046D01*
X372573Y272500D01*
X372573Y272500D01*
Y268738D01*
X371983Y268494D01*
X371147Y267853D01*
X370506Y267017D01*
X370103Y266044D01*
X369966Y265000D01*
Y260000D01*
X370103Y258956D01*
X370506Y257983D01*
X371147Y257147D01*
X371952Y256529D01*
X371955Y256476D01*
X371701Y256029D01*
X366299D01*
X366045Y256476D01*
X366048Y256529D01*
X366853Y257147D01*
X367494Y257983D01*
X367897Y258956D01*
X368035Y260000D01*
Y265000D01*
X367897Y266044D01*
X367494Y267017D01*
X366853Y267853D01*
X366017Y268494D01*
X365427Y268738D01*
Y274909D01*
X378009Y287491D01*
X378009Y287491D01*
X378319Y287954D01*
X378427Y288500D01*
X378427Y288500D01*
Y304248D01*
X378622Y304378D01*
X379119Y305122D01*
X379294Y306000D01*
X379119Y306878D01*
X378622Y307622D01*
X377878Y308120D01*
X377000Y308294D01*
X376122Y308120D01*
X375378Y307622D01*
X374866Y307757D01*
X374622Y308122D01*
X373878Y308619D01*
X373000Y308794D01*
X372122Y308619D01*
X371378Y308122D01*
X371248Y307927D01*
X370500D01*
X370500Y307927D01*
X369954Y307819D01*
X369491Y307509D01*
X367991Y306009D01*
X367681Y305546D01*
X367573Y305000D01*
X367573Y305000D01*
Y287591D01*
X352991Y273009D01*
X352681Y272546D01*
X352573Y272000D01*
X352573Y272000D01*
Y268738D01*
X351983Y268494D01*
X351147Y267853D01*
X350506Y267017D01*
X350103Y266044D01*
X349966Y265000D01*
Y260000D01*
X350103Y258956D01*
X350506Y257983D01*
X351147Y257147D01*
X351952Y256529D01*
X351955Y256476D01*
X351701Y256029D01*
X346299D01*
X346045Y256476D01*
X346048Y256529D01*
X346853Y257147D01*
X347494Y257983D01*
X347897Y258956D01*
X348035Y260000D01*
Y265000D01*
X347897Y266044D01*
X347494Y267017D01*
X346853Y267853D01*
X346017Y268494D01*
X345044Y268897D01*
X344000Y269035D01*
X342956Y268897D01*
X341983Y268494D01*
X341147Y267853D01*
X340506Y267017D01*
X340103Y266044D01*
X339966Y265000D01*
Y260000D01*
X340103Y258956D01*
X340506Y257983D01*
X341147Y257147D01*
X341952Y256529D01*
X341955Y256476D01*
X341701Y256029D01*
X336299D01*
X336045Y256476D01*
X336048Y256529D01*
X336853Y257147D01*
X337494Y257983D01*
X337897Y258956D01*
X338035Y260000D01*
Y265000D01*
X337897Y266044D01*
X337494Y267017D01*
X336853Y267853D01*
X336017Y268494D01*
X335044Y268897D01*
X334000Y269035D01*
X332956Y268897D01*
X331983Y268494D01*
X331147Y267853D01*
X330506Y267017D01*
X330103Y266044D01*
X329965Y265000D01*
Y260000D01*
X330103Y258956D01*
X330506Y257983D01*
X331147Y257147D01*
X331952Y256529D01*
X331955Y256476D01*
X331701Y256029D01*
X326299D01*
X326045Y256476D01*
X326048Y256529D01*
X326853Y257147D01*
X327494Y257983D01*
X327897Y258956D01*
X328034Y260000D01*
Y265000D01*
X327897Y266044D01*
X327494Y267017D01*
X326853Y267853D01*
X326017Y268494D01*
X325044Y268897D01*
X324000Y269035D01*
X322956Y268897D01*
X321983Y268494D01*
X321147Y267853D01*
X320506Y267017D01*
X320103Y266044D01*
X319966Y265000D01*
Y260000D01*
X320103Y258956D01*
X320506Y257983D01*
X321147Y257147D01*
X321952Y256529D01*
X321955Y256476D01*
X321701Y256029D01*
X316299D01*
X316045Y256476D01*
X316048Y256529D01*
X316853Y257147D01*
X317494Y257983D01*
X317897Y258956D01*
X318035Y260000D01*
Y265000D01*
X317897Y266044D01*
X317494Y267017D01*
X316853Y267853D01*
X316017Y268494D01*
X315529Y268696D01*
Y271367D01*
X321753Y277590D01*
X322233Y277363D01*
X322380Y276622D01*
X322878Y275878D01*
X323622Y275380D01*
X324500Y275206D01*
X343135D01*
X343622Y274881D01*
X344500Y274706D01*
X345378Y274881D01*
X346122Y275378D01*
X346620Y276122D01*
X346794Y277000D01*
X346620Y277878D01*
X346122Y278622D01*
X345622Y279122D01*
X344878Y279620D01*
X344000Y279794D01*
X324664D01*
X324427Y280264D01*
X324581Y280419D01*
X324913Y280915D01*
X325029Y281500D01*
Y312816D01*
X325122Y312878D01*
X325620Y313622D01*
X325794Y314500D01*
X325620Y315378D01*
X325122Y316122D01*
X324378Y316619D01*
X323500Y316794D01*
X322622Y316619D01*
X321878Y316122D01*
X321380Y315378D01*
X321206Y314500D01*
X321380Y313622D01*
X321878Y312878D01*
X321971Y312816D01*
Y282134D01*
X312919Y273081D01*
X312587Y272585D01*
X312471Y272000D01*
Y268696D01*
X311983Y268494D01*
X311147Y267853D01*
X310506Y267017D01*
X310103Y266044D01*
X309965Y265000D01*
Y260000D01*
X310103Y258956D01*
X310506Y257983D01*
X311147Y257147D01*
X311952Y256529D01*
X311955Y256476D01*
X311701Y256029D01*
X306299D01*
X306045Y256476D01*
X306048Y256529D01*
X306853Y257147D01*
X307494Y257983D01*
X307897Y258956D01*
X308034Y260000D01*
Y262000D01*
X304000D01*
X299966D01*
Y260000D01*
X300103Y258956D01*
X300506Y257983D01*
X301147Y257147D01*
X301952Y256529D01*
X301955Y256476D01*
X301701Y256029D01*
X296299D01*
X296045Y256476D01*
X296048Y256529D01*
X296853Y257147D01*
X297494Y257983D01*
X297897Y258956D01*
X298035Y260000D01*
Y262000D01*
X294000D01*
X289966D01*
Y260000D01*
X290103Y258956D01*
X290506Y257983D01*
X291147Y257147D01*
X291952Y256529D01*
X291955Y256476D01*
X291701Y256029D01*
X286299D01*
X286045Y256476D01*
X286048Y256529D01*
X286853Y257147D01*
X287494Y257983D01*
X287897Y258956D01*
X288035Y260000D01*
Y265000D01*
X287897Y266044D01*
X287494Y267017D01*
X286853Y267853D01*
X286017Y268494D01*
X285044Y268897D01*
X284000Y269035D01*
X282956Y268897D01*
X281983Y268494D01*
X281147Y267853D01*
X280506Y267017D01*
X280103Y266044D01*
X279965Y265000D01*
Y260000D01*
X280103Y258956D01*
X280506Y257983D01*
X281147Y257147D01*
X281952Y256529D01*
X281955Y256476D01*
X281701Y256029D01*
X276299D01*
X276045Y256476D01*
X276048Y256529D01*
X276853Y257147D01*
X277494Y257983D01*
X277897Y258956D01*
X278034Y260000D01*
Y265000D01*
X277897Y266044D01*
X277494Y267017D01*
X276853Y267853D01*
X276017Y268494D01*
X275044Y268897D01*
X274000Y269035D01*
X272956Y268897D01*
X271983Y268494D01*
X271147Y267853D01*
X270506Y267017D01*
X270103Y266044D01*
X269966Y265000D01*
Y260000D01*
X270103Y258956D01*
X270506Y257983D01*
X271147Y257147D01*
X271952Y256529D01*
X271955Y256476D01*
X271701Y256029D01*
X266299D01*
X266045Y256476D01*
X266048Y256529D01*
X266853Y257147D01*
X267494Y257983D01*
X267897Y258956D01*
X268035Y260000D01*
Y265000D01*
X267897Y266044D01*
X267494Y267017D01*
X266853Y267853D01*
X266017Y268494D01*
X265044Y268897D01*
X264000Y269035D01*
X262956Y268897D01*
X261983Y268494D01*
X261147Y267853D01*
X260506Y267017D01*
X260103Y266044D01*
X259965Y265000D01*
Y260000D01*
X260103Y258956D01*
X260506Y257983D01*
X261147Y257147D01*
X261952Y256529D01*
X261955Y256476D01*
X261701Y256029D01*
X256299D01*
X256045Y256476D01*
X256048Y256529D01*
X256853Y257147D01*
X257494Y257983D01*
X257897Y258956D01*
X258034Y260000D01*
Y265000D01*
X257897Y266044D01*
X257494Y267017D01*
X256853Y267853D01*
X256017Y268494D01*
X255529Y268696D01*
Y285816D01*
X255622Y285878D01*
X256119Y286622D01*
X256294Y287500D01*
X256119Y288378D01*
X255622Y289122D01*
X254878Y289619D01*
X254000Y289794D01*
X253122Y289619D01*
X252378Y289122D01*
X251881Y288378D01*
X251706Y287500D01*
X251881Y286622D01*
X252378Y285878D01*
X252471Y285816D01*
Y268696D01*
X251983Y268494D01*
X251147Y267853D01*
X250506Y267017D01*
X250103Y266044D01*
X249966Y265000D01*
Y260000D01*
X250103Y258956D01*
X250506Y257983D01*
X251147Y257147D01*
X251952Y256529D01*
X251955Y256476D01*
X251701Y256029D01*
X246299D01*
X246045Y256476D01*
X246048Y256529D01*
X246853Y257147D01*
X247494Y257983D01*
X247897Y258956D01*
X248035Y260000D01*
Y265000D01*
X247897Y266044D01*
X247494Y267017D01*
X246853Y267853D01*
X246017Y268494D01*
X245427Y268738D01*
Y276909D01*
X245770Y277252D01*
X246000Y277206D01*
X246878Y277380D01*
X247622Y277878D01*
X248119Y278622D01*
X248294Y279500D01*
X248119Y280378D01*
X247622Y281122D01*
X246878Y281620D01*
X246000Y281794D01*
X245122Y281620D01*
X244378Y281122D01*
X243881Y280378D01*
X243706Y279500D01*
X243752Y279270D01*
X242991Y278509D01*
X242681Y278046D01*
X242573Y277500D01*
X242573Y277500D01*
Y268738D01*
X241983Y268494D01*
X241147Y267853D01*
X240506Y267017D01*
X240103Y266044D01*
X239966Y265000D01*
Y260000D01*
X240103Y258956D01*
X240506Y257983D01*
X241147Y257147D01*
X241952Y256529D01*
X241955Y256476D01*
X241701Y256029D01*
X236299D01*
X236045Y256476D01*
X236048Y256529D01*
X236853Y257147D01*
X237494Y257983D01*
X237897Y258956D01*
X238035Y260000D01*
Y265000D01*
X237897Y266044D01*
X237494Y267017D01*
X236853Y267853D01*
X236017Y268494D01*
X235044Y268897D01*
X234000Y269035D01*
X232956Y268897D01*
X231983Y268494D01*
X231147Y267853D01*
X230506Y267017D01*
X230103Y266044D01*
X229965Y265000D01*
Y260000D01*
X230103Y258956D01*
X230506Y257983D01*
X231147Y257147D01*
X231952Y256529D01*
X231955Y256476D01*
X231701Y256029D01*
X226299D01*
X226045Y256476D01*
X226048Y256529D01*
X226853Y257147D01*
X227494Y257983D01*
X227897Y258956D01*
X228034Y260000D01*
Y265000D01*
X227897Y266044D01*
X227494Y267017D01*
X226853Y267853D01*
X226017Y268494D01*
X225044Y268897D01*
X224000Y269035D01*
X222956Y268897D01*
X221983Y268494D01*
X221147Y267853D01*
X220506Y267017D01*
X220103Y266044D01*
X219966Y265000D01*
Y260000D01*
X220103Y258956D01*
X220506Y257983D01*
X221147Y257147D01*
X221952Y256529D01*
X221955Y256476D01*
X221701Y256029D01*
X218000D01*
Y262000D01*
X214000D01*
X210000D01*
Y256029D01*
X207529D01*
Y280201D01*
X207976Y280455D01*
X208029Y280452D01*
X208647Y279647D01*
X209483Y279006D01*
X210456Y278603D01*
X211500Y278466D01*
X216500D01*
X217544Y278603D01*
X218517Y279006D01*
X219353Y279647D01*
X219994Y280483D01*
X220397Y281456D01*
X220534Y282500D01*
X220397Y283544D01*
X219994Y284517D01*
X219353Y285353D01*
X218517Y285994D01*
X217544Y286397D01*
X216500Y286535D01*
X211500D01*
X210456Y286397D01*
X209483Y285994D01*
X208647Y285353D01*
X208029Y284548D01*
X207976Y284545D01*
X207529Y284799D01*
Y290201D01*
X207976Y290455D01*
X208029Y290452D01*
X208647Y289647D01*
X209483Y289006D01*
X210456Y288603D01*
X211500Y288465D01*
X216500D01*
X217544Y288603D01*
X218517Y289006D01*
X219353Y289647D01*
X219994Y290483D01*
X220397Y291456D01*
X220534Y292500D01*
X220397Y293544D01*
X219994Y294517D01*
X219353Y295353D01*
X218517Y295994D01*
X217544Y296397D01*
X216500Y296534D01*
X211500D01*
X210456Y296397D01*
X209483Y295994D01*
X208647Y295353D01*
X208029Y294548D01*
X207976Y294545D01*
X207529Y294799D01*
Y300201D01*
X207976Y300455D01*
X208029Y300452D01*
X208647Y299647D01*
X209483Y299006D01*
X210456Y298603D01*
X211500Y298465D01*
X216500D01*
X217544Y298603D01*
X218517Y299006D01*
X219353Y299647D01*
X219994Y300483D01*
X220397Y301456D01*
X220534Y302500D01*
X220397Y303544D01*
X219994Y304517D01*
X219353Y305353D01*
X218517Y305994D01*
X217544Y306397D01*
X216500Y306535D01*
X211500D01*
X210456Y306397D01*
X209483Y305994D01*
X208647Y305353D01*
X208029Y304548D01*
X207976Y304545D01*
X207529Y304799D01*
Y310201D01*
X207976Y310455D01*
X208029Y310452D01*
X208647Y309647D01*
X209483Y309006D01*
X210456Y308603D01*
X211500Y308466D01*
X216500D01*
X217544Y308603D01*
X218517Y309006D01*
X219353Y309647D01*
X219994Y310483D01*
X220196Y310971D01*
X231816D01*
X231878Y310878D01*
X232622Y310381D01*
X233500Y310206D01*
X234378Y310381D01*
X235122Y310878D01*
X235619Y311622D01*
X235794Y312500D01*
X235619Y313378D01*
X235122Y314122D01*
X234378Y314619D01*
X233500Y314794D01*
X232622Y314619D01*
X231878Y314122D01*
X231816Y314029D01*
X220196D01*
X219994Y314517D01*
X219353Y315353D01*
X218517Y315994D01*
X217544Y316397D01*
X216500Y316534D01*
X211500D01*
X210456Y316397D01*
X209483Y315994D01*
X208647Y315353D01*
X208029Y314548D01*
X207976Y314545D01*
X207529Y314799D01*
Y320201D01*
X207976Y320455D01*
X208029Y320452D01*
X208647Y319647D01*
X209483Y319006D01*
X210456Y318603D01*
X211500Y318465D01*
X213500D01*
Y322500D01*
Y326535D01*
X211500D01*
X210456Y326397D01*
X209483Y325994D01*
X208647Y325353D01*
X208029Y324548D01*
X207976Y324545D01*
X207529Y324799D01*
Y330201D01*
X207976Y330455D01*
X208029Y330452D01*
X208647Y329647D01*
X209483Y329006D01*
X210456Y328603D01*
X211500Y328466D01*
X213500D01*
Y332500D01*
Y336535D01*
X211500D01*
X210456Y336397D01*
X209483Y335994D01*
X208647Y335353D01*
X208029Y334548D01*
X207976Y334545D01*
X207529Y334799D01*
Y340201D01*
X207976Y340455D01*
X208029Y340452D01*
X208647Y339647D01*
X209483Y339006D01*
X210456Y338603D01*
X211500Y338465D01*
X216500D01*
X217544Y338603D01*
X218517Y339006D01*
X219353Y339647D01*
X219994Y340483D01*
X220397Y341456D01*
X220534Y342500D01*
X220397Y343544D01*
X219994Y344517D01*
X219353Y345353D01*
X218517Y345994D01*
X217544Y346397D01*
X216500Y346534D01*
X211500D01*
X210456Y346397D01*
X209483Y345994D01*
X208647Y345353D01*
X208029Y344548D01*
X207976Y344545D01*
X207529Y344799D01*
Y350201D01*
X207976Y350455D01*
X208029Y350452D01*
X208647Y349647D01*
X209483Y349006D01*
X210456Y348603D01*
X211500Y348465D01*
X216500D01*
X217544Y348603D01*
X218517Y349006D01*
X219353Y349647D01*
X219994Y350483D01*
X220397Y351456D01*
X220534Y352500D01*
X220397Y353544D01*
X219994Y354517D01*
X219353Y355353D01*
X218517Y355994D01*
X217544Y356397D01*
X216500Y356535D01*
X211500D01*
X210456Y356397D01*
X209483Y355994D01*
X208647Y355353D01*
X208029Y354548D01*
X207976Y354545D01*
X207529Y354799D01*
Y360201D01*
X207976Y360455D01*
X208029Y360452D01*
X208647Y359647D01*
X209483Y359006D01*
X210456Y358603D01*
X211500Y358466D01*
X216500D01*
X217544Y358603D01*
X218517Y359006D01*
X219353Y359647D01*
X219994Y360483D01*
X220397Y361456D01*
X220534Y362500D01*
X220397Y363544D01*
X219994Y364517D01*
X219353Y365353D01*
X218517Y365994D01*
X217544Y366397D01*
X216500Y366534D01*
X211500D01*
X210456Y366397D01*
X209483Y365994D01*
X208647Y365353D01*
X208029Y364548D01*
X207976Y364545D01*
X207529Y364799D01*
Y370201D01*
X207976Y370455D01*
X208029Y370452D01*
X208647Y369647D01*
X209483Y369006D01*
X210456Y368603D01*
X211500Y368465D01*
X216500D01*
X217544Y368603D01*
X218517Y369006D01*
X219353Y369647D01*
X219994Y370483D01*
X220397Y371456D01*
X220534Y372500D01*
X220397Y373544D01*
X219994Y374517D01*
X219353Y375353D01*
X218517Y375994D01*
X217544Y376397D01*
X216500Y376535D01*
X211500D01*
X210456Y376397D01*
X209483Y375994D01*
X208647Y375353D01*
X208029Y374548D01*
X207976Y374545D01*
X207529Y374799D01*
Y380201D01*
X207976Y380455D01*
X208029Y380452D01*
X208647Y379647D01*
X209483Y379006D01*
X210456Y378603D01*
X211500Y378466D01*
X216500D01*
X217544Y378603D01*
X218517Y379006D01*
X219353Y379647D01*
X219994Y380483D01*
X220397Y381456D01*
X220534Y382500D01*
X220397Y383544D01*
X219994Y384517D01*
X219353Y385353D01*
X218517Y385994D01*
X217544Y386397D01*
X216500Y386535D01*
X211500D01*
X210456Y386397D01*
X209483Y385994D01*
X208647Y385353D01*
X208029Y384548D01*
X207976Y384545D01*
X207529Y384799D01*
Y390201D01*
X207976Y390455D01*
X208029Y390452D01*
X208647Y389647D01*
X209483Y389006D01*
X210456Y388603D01*
X211500Y388465D01*
X216500D01*
X217544Y388603D01*
X218517Y389006D01*
X219353Y389647D01*
X219994Y390483D01*
X220397Y391456D01*
X220534Y392500D01*
X220397Y393544D01*
X219994Y394517D01*
X219353Y395353D01*
X218517Y395994D01*
X217544Y396397D01*
X216500Y396534D01*
X211500D01*
X210456Y396397D01*
X209483Y395994D01*
X208647Y395353D01*
X208029Y394548D01*
X207976Y394545D01*
X207529Y394799D01*
Y400201D01*
X207976Y400455D01*
X208029Y400452D01*
X208647Y399647D01*
X209483Y399006D01*
X210456Y398603D01*
X211500Y398465D01*
X216500D01*
X217544Y398603D01*
X218517Y399006D01*
X219353Y399647D01*
X219994Y400483D01*
X220397Y401456D01*
X220534Y402500D01*
X220397Y403544D01*
X219994Y404517D01*
X219353Y405353D01*
X218517Y405994D01*
X217544Y406397D01*
X216500Y406534D01*
X211500D01*
X210456Y406397D01*
X209483Y405994D01*
X208647Y405353D01*
X208029Y404548D01*
X207976Y404545D01*
X207529Y404799D01*
Y410201D01*
X207976Y410455D01*
X208029Y410452D01*
X208647Y409647D01*
X209483Y409006D01*
X210456Y408603D01*
X211500Y408465D01*
X216500D01*
X217544Y408603D01*
X218517Y409006D01*
X219353Y409647D01*
X219994Y410483D01*
X220397Y411456D01*
X220534Y412500D01*
X220397Y413544D01*
X219994Y414517D01*
X219353Y415353D01*
X218517Y415994D01*
X217544Y416397D01*
X216500Y416535D01*
X211500D01*
X210456Y416397D01*
X209483Y415994D01*
X208647Y415353D01*
X208029Y414548D01*
X207976Y414545D01*
X207529Y414799D01*
Y420201D01*
X207976Y420455D01*
X208029Y420452D01*
X208647Y419647D01*
X209483Y419006D01*
X210456Y418603D01*
X211500Y418466D01*
X213500D01*
Y422500D01*
Y426535D01*
X211500D01*
X210456Y426397D01*
X209483Y425994D01*
X208647Y425353D01*
X208029Y424548D01*
X207976Y424545D01*
X207529Y424799D01*
Y430201D01*
X207976Y430455D01*
X208029Y430452D01*
X208647Y429647D01*
X209483Y429006D01*
X210456Y428603D01*
X211500Y428466D01*
X216500D01*
X217544Y428603D01*
X218517Y429006D01*
X219353Y429647D01*
X219994Y430483D01*
X220397Y431456D01*
X220534Y432500D01*
X220397Y433544D01*
X219994Y434517D01*
X219353Y435353D01*
X218517Y435994D01*
X217544Y436397D01*
X216500Y436535D01*
X211500D01*
X210456Y436397D01*
X209483Y435994D01*
X208647Y435353D01*
X208029Y434548D01*
X207976Y434545D01*
X207529Y434799D01*
Y440201D01*
X207976Y440455D01*
X208029Y440452D01*
X208647Y439647D01*
X209483Y439006D01*
X210456Y438603D01*
X211500Y438465D01*
X213500D01*
Y442500D01*
Y446534D01*
X211500D01*
X210456Y446397D01*
X209483Y445994D01*
X208647Y445353D01*
X208029Y444548D01*
X207976Y444545D01*
X207529Y444799D01*
Y450201D01*
X207976Y450455D01*
X208029Y450452D01*
X208647Y449647D01*
X209483Y449006D01*
X210456Y448603D01*
X211500Y448465D01*
X216500D01*
X217544Y448603D01*
X218517Y449006D01*
X219353Y449647D01*
X219994Y450483D01*
X220397Y451456D01*
X220534Y452500D01*
X220397Y453544D01*
X219994Y454517D01*
X219353Y455353D01*
X218517Y455994D01*
X217544Y456397D01*
X216500Y456534D01*
X211500D01*
X210456Y456397D01*
X209483Y455994D01*
X208647Y455353D01*
X208029Y454548D01*
X207976Y454545D01*
X207529Y454799D01*
Y460201D01*
X207976Y460455D01*
X208029Y460452D01*
X208647Y459647D01*
X209483Y459006D01*
X210456Y458603D01*
X211500Y458465D01*
X213500D01*
Y462500D01*
Y466535D01*
X211500D01*
X210456Y466397D01*
X209483Y465994D01*
X208647Y465353D01*
X208029Y464548D01*
X207976Y464545D01*
X207529Y464799D01*
Y468500D01*
X220500D01*
Y476500D01*
X207529D01*
Y506971D01*
X410471D01*
Y476500D01*
D02*
G37*
G36*
X204471D02*
X198500D01*
Y472500D01*
Y468500D01*
X204471D01*
Y464799D01*
X204024Y464545D01*
X203971Y464548D01*
X203353Y465353D01*
X202517Y465994D01*
X201544Y466397D01*
X200500Y466535D01*
X195500D01*
X194456Y466397D01*
X193483Y465994D01*
X192647Y465353D01*
X192006Y464517D01*
X191603Y463544D01*
X191465Y462500D01*
X191603Y461456D01*
X192006Y460483D01*
X192647Y459647D01*
X193483Y459006D01*
X194456Y458603D01*
X195500Y458465D01*
X200500D01*
X201544Y458603D01*
X202517Y459006D01*
X203353Y459647D01*
X203971Y460452D01*
X204024Y460455D01*
X204471Y460201D01*
Y454799D01*
X204024Y454545D01*
X203971Y454548D01*
X203353Y455353D01*
X202517Y455994D01*
X201544Y456397D01*
X200500Y456534D01*
X195500D01*
X194456Y456397D01*
X193483Y455994D01*
X192647Y455353D01*
X192006Y454517D01*
X191603Y453544D01*
X191465Y452500D01*
X191603Y451456D01*
X192006Y450483D01*
X192647Y449647D01*
X193483Y449006D01*
X194456Y448603D01*
X195500Y448465D01*
X200500D01*
X201544Y448603D01*
X202517Y449006D01*
X203353Y449647D01*
X203971Y450452D01*
X204024Y450455D01*
X204471Y450201D01*
Y444799D01*
X204024Y444545D01*
X203971Y444548D01*
X203353Y445353D01*
X202517Y445994D01*
X201544Y446397D01*
X200500Y446534D01*
X198500D01*
Y442500D01*
Y438465D01*
X200500D01*
X201544Y438603D01*
X202517Y439006D01*
X203353Y439647D01*
X203971Y440452D01*
X204024Y440455D01*
X204471Y440201D01*
Y434799D01*
X204024Y434545D01*
X203971Y434548D01*
X203353Y435353D01*
X202517Y435994D01*
X201544Y436397D01*
X200500Y436535D01*
X195500D01*
X194456Y436397D01*
X193483Y435994D01*
X192647Y435353D01*
X192006Y434517D01*
X191603Y433544D01*
X191465Y432500D01*
X191603Y431456D01*
X192006Y430483D01*
X192647Y429647D01*
X193483Y429006D01*
X194456Y428603D01*
X195500Y428466D01*
X200500D01*
X201544Y428603D01*
X202517Y429006D01*
X203353Y429647D01*
X203971Y430452D01*
X204024Y430455D01*
X204471Y430201D01*
Y424799D01*
X204024Y424545D01*
X203971Y424548D01*
X203353Y425353D01*
X202517Y425994D01*
X201544Y426397D01*
X200500Y426535D01*
X195500D01*
X194456Y426397D01*
X193483Y425994D01*
X192647Y425353D01*
X192006Y424517D01*
X191603Y423544D01*
X191465Y422500D01*
X191603Y421456D01*
X192006Y420483D01*
X192647Y419647D01*
X193483Y419006D01*
X194456Y418603D01*
X195500Y418466D01*
X200500D01*
X201544Y418603D01*
X202517Y419006D01*
X203353Y419647D01*
X203971Y420452D01*
X204024Y420455D01*
X204471Y420201D01*
Y414799D01*
X204024Y414545D01*
X203971Y414548D01*
X203353Y415353D01*
X202517Y415994D01*
X201544Y416397D01*
X200500Y416535D01*
X198500D01*
Y412500D01*
Y408465D01*
X200500D01*
X201544Y408603D01*
X202517Y409006D01*
X203353Y409647D01*
X203971Y410452D01*
X204024Y410455D01*
X204471Y410201D01*
Y404799D01*
X204024Y404545D01*
X203971Y404548D01*
X203353Y405353D01*
X202517Y405994D01*
X201544Y406397D01*
X200500Y406534D01*
X195500D01*
X194456Y406397D01*
X193483Y405994D01*
X192647Y405353D01*
X192006Y404517D01*
X191603Y403544D01*
X191465Y402500D01*
X191603Y401456D01*
X192006Y400483D01*
X192647Y399647D01*
X193483Y399006D01*
X194456Y398603D01*
X195500Y398465D01*
X200500D01*
X201544Y398603D01*
X202517Y399006D01*
X203353Y399647D01*
X203971Y400452D01*
X204024Y400455D01*
X204471Y400201D01*
Y394799D01*
X204024Y394545D01*
X203971Y394548D01*
X203353Y395353D01*
X202517Y395994D01*
X201544Y396397D01*
X200500Y396534D01*
X198500D01*
Y392500D01*
Y388465D01*
X200500D01*
X201544Y388603D01*
X202517Y389006D01*
X203353Y389647D01*
X203971Y390452D01*
X204024Y390455D01*
X204471Y390201D01*
Y384799D01*
X204024Y384545D01*
X203971Y384548D01*
X203353Y385353D01*
X202517Y385994D01*
X201544Y386397D01*
X200500Y386535D01*
X198500D01*
Y382500D01*
Y378466D01*
X200500D01*
X201544Y378603D01*
X202517Y379006D01*
X203353Y379647D01*
X203971Y380452D01*
X204024Y380455D01*
X204471Y380201D01*
Y374799D01*
X204024Y374545D01*
X203971Y374548D01*
X203353Y375353D01*
X202517Y375994D01*
X201544Y376397D01*
X200500Y376535D01*
X195500D01*
X194456Y376397D01*
X193483Y375994D01*
X192647Y375353D01*
X192006Y374517D01*
X191603Y373544D01*
X191465Y372500D01*
X191603Y371456D01*
X192006Y370483D01*
X192647Y369647D01*
X193483Y369006D01*
X194456Y368603D01*
X195500Y368465D01*
X200500D01*
X201544Y368603D01*
X202517Y369006D01*
X203353Y369647D01*
X203971Y370452D01*
X204024Y370455D01*
X204471Y370201D01*
Y364799D01*
X204024Y364545D01*
X203971Y364548D01*
X203353Y365353D01*
X202517Y365994D01*
X201544Y366397D01*
X200500Y366534D01*
X195500D01*
X194456Y366397D01*
X193483Y365994D01*
X192647Y365353D01*
X192006Y364517D01*
X191603Y363544D01*
X191465Y362500D01*
X191603Y361456D01*
X192006Y360483D01*
X192647Y359647D01*
X193483Y359006D01*
X194456Y358603D01*
X195500Y358466D01*
X200500D01*
X201544Y358603D01*
X202517Y359006D01*
X203353Y359647D01*
X203971Y360452D01*
X204024Y360455D01*
X204471Y360201D01*
Y354799D01*
X204024Y354545D01*
X203971Y354548D01*
X203353Y355353D01*
X202517Y355994D01*
X201544Y356397D01*
X200500Y356535D01*
X195500D01*
X194456Y356397D01*
X193483Y355994D01*
X192647Y355353D01*
X192006Y354517D01*
X191603Y353544D01*
X191465Y352500D01*
X191603Y351456D01*
X192006Y350483D01*
X192647Y349647D01*
X193483Y349006D01*
X194456Y348603D01*
X195500Y348465D01*
X200500D01*
X201544Y348603D01*
X202517Y349006D01*
X203353Y349647D01*
X203971Y350452D01*
X204024Y350455D01*
X204471Y350201D01*
Y344799D01*
X204024Y344545D01*
X203971Y344548D01*
X203353Y345353D01*
X202517Y345994D01*
X201544Y346397D01*
X200500Y346534D01*
X195500D01*
X194456Y346397D01*
X193483Y345994D01*
X192647Y345353D01*
X192006Y344517D01*
X191603Y343544D01*
X191465Y342500D01*
X191603Y341456D01*
X192006Y340483D01*
X192647Y339647D01*
X193483Y339006D01*
X194456Y338603D01*
X195500Y338465D01*
X200500D01*
X201544Y338603D01*
X202517Y339006D01*
X203353Y339647D01*
X203971Y340452D01*
X204024Y340455D01*
X204471Y340201D01*
Y334799D01*
X204024Y334545D01*
X203971Y334548D01*
X203353Y335353D01*
X202517Y335994D01*
X201544Y336397D01*
X200500Y336535D01*
X195500D01*
X194456Y336397D01*
X193483Y335994D01*
X192647Y335353D01*
X192006Y334517D01*
X191603Y333544D01*
X191465Y332500D01*
X191603Y331456D01*
X192006Y330483D01*
X192647Y329647D01*
X193483Y329006D01*
X194456Y328603D01*
X195500Y328466D01*
X200500D01*
X201544Y328603D01*
X202517Y329006D01*
X203353Y329647D01*
X203971Y330452D01*
X204024Y330455D01*
X204471Y330201D01*
Y324799D01*
X204024Y324545D01*
X203971Y324548D01*
X203353Y325353D01*
X202517Y325994D01*
X201544Y326397D01*
X200500Y326535D01*
X198500D01*
Y322500D01*
Y318465D01*
X200500D01*
X201544Y318603D01*
X202517Y319006D01*
X203353Y319647D01*
X203971Y320452D01*
X204024Y320455D01*
X204471Y320201D01*
Y314799D01*
X204024Y314545D01*
X203971Y314548D01*
X203353Y315353D01*
X202517Y315994D01*
X201544Y316397D01*
X200500Y316534D01*
X198500D01*
Y312500D01*
Y308466D01*
X200500D01*
X201544Y308603D01*
X202517Y309006D01*
X203353Y309647D01*
X203971Y310452D01*
X204024Y310455D01*
X204471Y310201D01*
Y304799D01*
X204024Y304545D01*
X203971Y304548D01*
X203353Y305353D01*
X202517Y305994D01*
X201544Y306397D01*
X200500Y306535D01*
X195500D01*
X194456Y306397D01*
X193483Y305994D01*
X192647Y305353D01*
X192006Y304517D01*
X191603Y303544D01*
X191465Y302500D01*
X191603Y301456D01*
X192006Y300483D01*
X192647Y299647D01*
X193483Y299006D01*
X194456Y298603D01*
X195500Y298465D01*
X200500D01*
X201544Y298603D01*
X202517Y299006D01*
X203353Y299647D01*
X203971Y300452D01*
X204024Y300455D01*
X204471Y300201D01*
Y294799D01*
X204024Y294545D01*
X203971Y294548D01*
X203353Y295353D01*
X202517Y295994D01*
X201544Y296397D01*
X200500Y296534D01*
X195500D01*
X194456Y296397D01*
X193483Y295994D01*
X192647Y295353D01*
X192006Y294517D01*
X191603Y293544D01*
X191465Y292500D01*
X191603Y291456D01*
X192006Y290483D01*
X192647Y289647D01*
X193483Y289006D01*
X194456Y288603D01*
X195500Y288465D01*
X200500D01*
X201544Y288603D01*
X202517Y289006D01*
X203353Y289647D01*
X203971Y290452D01*
X204024Y290455D01*
X204471Y290201D01*
Y284799D01*
X204024Y284545D01*
X203971Y284548D01*
X203353Y285353D01*
X202517Y285994D01*
X201544Y286397D01*
X200500Y286535D01*
X195500D01*
X194456Y286397D01*
X193483Y285994D01*
X192647Y285353D01*
X192006Y284517D01*
X191603Y283544D01*
X191465Y282500D01*
X191603Y281456D01*
X192006Y280483D01*
X192647Y279647D01*
X193483Y279006D01*
X194456Y278603D01*
X195500Y278466D01*
X200500D01*
X201544Y278603D01*
X202517Y279006D01*
X203353Y279647D01*
X203971Y280452D01*
X204024Y280455D01*
X204471Y280201D01*
Y256029D01*
X200299D01*
X200045Y256476D01*
X200048Y256529D01*
X200853Y257147D01*
X201494Y257983D01*
X201897Y258956D01*
X202034Y260000D01*
Y265000D01*
X201897Y266044D01*
X201494Y267017D01*
X200853Y267853D01*
X200017Y268494D01*
X199044Y268897D01*
X198000Y269035D01*
X196956Y268897D01*
X195983Y268494D01*
X195147Y267853D01*
X194506Y267017D01*
X194103Y266044D01*
X193965Y265000D01*
Y260000D01*
X194103Y258956D01*
X194506Y257983D01*
X195147Y257147D01*
X195952Y256529D01*
X195955Y256476D01*
X195701Y256029D01*
X190299D01*
X190045Y256476D01*
X190048Y256529D01*
X190853Y257147D01*
X191494Y257983D01*
X191897Y258956D01*
X192034Y260000D01*
Y265000D01*
X191897Y266044D01*
X191494Y267017D01*
X190853Y267853D01*
X190017Y268494D01*
X189044Y268897D01*
X188000Y269035D01*
X186956Y268897D01*
X185983Y268494D01*
X185147Y267853D01*
X184506Y267017D01*
X184103Y266044D01*
X183966Y265000D01*
Y260000D01*
X184103Y258956D01*
X184506Y257983D01*
X185147Y257147D01*
X185952Y256529D01*
X185955Y256476D01*
X185701Y256029D01*
X180299D01*
X180045Y256476D01*
X180048Y256529D01*
X180853Y257147D01*
X181494Y257983D01*
X181897Y258956D01*
X182035Y260000D01*
Y265000D01*
X181897Y266044D01*
X181494Y267017D01*
X180853Y267853D01*
X180017Y268494D01*
X179927Y268531D01*
Y309248D01*
X180122Y309378D01*
X180620Y310122D01*
X180794Y311000D01*
X180620Y311878D01*
X180122Y312622D01*
X179378Y313120D01*
X178500Y313294D01*
X177622Y313120D01*
X176878Y312622D01*
X176381Y311878D01*
X176206Y311000D01*
X175917Y310711D01*
X175500Y310794D01*
X174622Y310619D01*
X173878Y310122D01*
X173380Y309378D01*
X173206Y308500D01*
X173380Y307622D01*
X173878Y306878D01*
X174073Y306748D01*
Y280591D01*
X166991Y273509D01*
X166681Y273046D01*
X166573Y272500D01*
X166573Y272500D01*
Y268738D01*
X165983Y268494D01*
X165147Y267853D01*
X164506Y267017D01*
X164103Y266044D01*
X163965Y265000D01*
Y260000D01*
X164103Y258956D01*
X164506Y257983D01*
X165147Y257147D01*
X165952Y256529D01*
X165955Y256476D01*
X165701Y256029D01*
X160299D01*
X160045Y256476D01*
X160048Y256529D01*
X160853Y257147D01*
X161494Y257983D01*
X161897Y258956D01*
X162034Y260000D01*
Y265000D01*
X161897Y266044D01*
X161494Y267017D01*
X160853Y267853D01*
X160017Y268494D01*
X159427Y268738D01*
Y274909D01*
X172009Y287491D01*
X172009Y287491D01*
X172319Y287954D01*
X172427Y288500D01*
X172427Y288500D01*
Y304248D01*
X172622Y304378D01*
X173119Y305122D01*
X173294Y306000D01*
X173119Y306878D01*
X172622Y307622D01*
X171878Y308120D01*
X171000Y308294D01*
X170122Y308120D01*
X169378Y307622D01*
X168866Y307757D01*
X168622Y308122D01*
X167878Y308619D01*
X167000Y308794D01*
X166122Y308619D01*
X165378Y308122D01*
X165248Y307927D01*
X164500D01*
X164500Y307927D01*
X163954Y307819D01*
X163491Y307509D01*
X161991Y306009D01*
X161681Y305546D01*
X161573Y305000D01*
X161573Y305000D01*
Y287591D01*
X146991Y273009D01*
X146681Y272546D01*
X146573Y272000D01*
X146573Y272000D01*
Y268738D01*
X145983Y268494D01*
X145147Y267853D01*
X144506Y267017D01*
X144103Y266044D01*
X143965Y265000D01*
Y260000D01*
X144103Y258956D01*
X144506Y257983D01*
X145147Y257147D01*
X145952Y256529D01*
X145955Y256476D01*
X145701Y256029D01*
X140299D01*
X140045Y256476D01*
X140048Y256529D01*
X140853Y257147D01*
X141494Y257983D01*
X141897Y258956D01*
X142034Y260000D01*
Y265000D01*
X141897Y266044D01*
X141494Y267017D01*
X140853Y267853D01*
X140017Y268494D01*
X139044Y268897D01*
X138000Y269035D01*
X136956Y268897D01*
X135983Y268494D01*
X135147Y267853D01*
X134506Y267017D01*
X134103Y266044D01*
X133966Y265000D01*
Y260000D01*
X134103Y258956D01*
X134506Y257983D01*
X135147Y257147D01*
X135952Y256529D01*
X135955Y256476D01*
X135701Y256029D01*
X130299D01*
X130045Y256476D01*
X130048Y256529D01*
X130853Y257147D01*
X131494Y257983D01*
X131897Y258956D01*
X132035Y260000D01*
Y265000D01*
X131897Y266044D01*
X131494Y267017D01*
X130853Y267853D01*
X130017Y268494D01*
X129044Y268897D01*
X128000Y269035D01*
X126956Y268897D01*
X125983Y268494D01*
X125147Y267853D01*
X124506Y267017D01*
X124103Y266044D01*
X123966Y265000D01*
Y260000D01*
X124103Y258956D01*
X124506Y257983D01*
X125147Y257147D01*
X125952Y256529D01*
X125955Y256476D01*
X125701Y256029D01*
X120299D01*
X120045Y256476D01*
X120048Y256529D01*
X120853Y257147D01*
X121494Y257983D01*
X121897Y258956D01*
X122035Y260000D01*
Y265000D01*
X121897Y266044D01*
X121494Y267017D01*
X120853Y267853D01*
X120017Y268494D01*
X119044Y268897D01*
X118000Y269035D01*
X116956Y268897D01*
X115983Y268494D01*
X115147Y267853D01*
X114506Y267017D01*
X114103Y266044D01*
X113965Y265000D01*
Y260000D01*
X114103Y258956D01*
X114506Y257983D01*
X115147Y257147D01*
X115952Y256529D01*
X115955Y256476D01*
X115701Y256029D01*
X110299D01*
X110045Y256476D01*
X110048Y256529D01*
X110853Y257147D01*
X111494Y257983D01*
X111897Y258956D01*
X112034Y260000D01*
Y265000D01*
X111897Y266044D01*
X111494Y267017D01*
X110853Y267853D01*
X110017Y268494D01*
X109529Y268696D01*
Y271367D01*
X115753Y277590D01*
X116233Y277363D01*
X116381Y276622D01*
X116878Y275878D01*
X117622Y275380D01*
X118500Y275206D01*
X137135D01*
X137622Y274881D01*
X138500Y274706D01*
X139378Y274881D01*
X140122Y275378D01*
X140620Y276122D01*
X140794Y277000D01*
X140620Y277878D01*
X140122Y278622D01*
X139622Y279122D01*
X138878Y279620D01*
X138000Y279794D01*
X118664D01*
X118427Y280264D01*
X118581Y280419D01*
X118913Y280915D01*
X119029Y281500D01*
Y312816D01*
X119122Y312878D01*
X119620Y313622D01*
X119794Y314500D01*
X119620Y315378D01*
X119122Y316122D01*
X118378Y316619D01*
X117500Y316794D01*
X116622Y316619D01*
X115878Y316122D01*
X115381Y315378D01*
X115206Y314500D01*
X115381Y313622D01*
X115878Y312878D01*
X115971Y312816D01*
Y282134D01*
X106919Y273081D01*
X106587Y272585D01*
X106471Y272000D01*
Y268696D01*
X105983Y268494D01*
X105147Y267853D01*
X104506Y267017D01*
X104103Y266044D01*
X103965Y265000D01*
Y260000D01*
X104103Y258956D01*
X104506Y257983D01*
X105147Y257147D01*
X105952Y256529D01*
X105955Y256476D01*
X105701Y256029D01*
X100299D01*
X100045Y256476D01*
X100048Y256529D01*
X100853Y257147D01*
X101494Y257983D01*
X101897Y258956D01*
X102034Y260000D01*
Y262000D01*
X98000D01*
X93966D01*
Y260000D01*
X94103Y258956D01*
X94506Y257983D01*
X95147Y257147D01*
X95952Y256529D01*
X95955Y256476D01*
X95701Y256029D01*
X90299D01*
X90045Y256476D01*
X90048Y256529D01*
X90853Y257147D01*
X91494Y257983D01*
X91897Y258956D01*
X92035Y260000D01*
Y262000D01*
X88000D01*
X83965D01*
Y260000D01*
X84103Y258956D01*
X84506Y257983D01*
X85147Y257147D01*
X85952Y256529D01*
X85955Y256476D01*
X85701Y256029D01*
X80299D01*
X80045Y256476D01*
X80048Y256529D01*
X80853Y257147D01*
X81494Y257983D01*
X81897Y258956D01*
X82034Y260000D01*
Y265000D01*
X81897Y266044D01*
X81494Y267017D01*
X80853Y267853D01*
X80017Y268494D01*
X79044Y268897D01*
X78000Y269035D01*
X76956Y268897D01*
X75983Y268494D01*
X75147Y267853D01*
X74506Y267017D01*
X74103Y266044D01*
X73966Y265000D01*
Y260000D01*
X74103Y258956D01*
X74506Y257983D01*
X75147Y257147D01*
X75952Y256529D01*
X75955Y256476D01*
X75701Y256029D01*
X70299D01*
X70045Y256476D01*
X70048Y256529D01*
X70853Y257147D01*
X71494Y257983D01*
X71897Y258956D01*
X72035Y260000D01*
Y265000D01*
X71897Y266044D01*
X71494Y267017D01*
X70853Y267853D01*
X70017Y268494D01*
X69044Y268897D01*
X68000Y269035D01*
X66956Y268897D01*
X65983Y268494D01*
X65147Y267853D01*
X64506Y267017D01*
X64103Y266044D01*
X63965Y265000D01*
Y260000D01*
X64103Y258956D01*
X64506Y257983D01*
X65147Y257147D01*
X65952Y256529D01*
X65955Y256476D01*
X65701Y256029D01*
X60299D01*
X60045Y256476D01*
X60048Y256529D01*
X60853Y257147D01*
X61494Y257983D01*
X61897Y258956D01*
X62034Y260000D01*
Y265000D01*
X61897Y266044D01*
X61494Y267017D01*
X60853Y267853D01*
X60017Y268494D01*
X59044Y268897D01*
X58000Y269035D01*
X56956Y268897D01*
X55983Y268494D01*
X55147Y267853D01*
X54506Y267017D01*
X54103Y266044D01*
X53966Y265000D01*
Y260000D01*
X54103Y258956D01*
X54506Y257983D01*
X55147Y257147D01*
X55952Y256529D01*
X55955Y256476D01*
X55701Y256029D01*
X50299D01*
X50045Y256476D01*
X50048Y256529D01*
X50853Y257147D01*
X51494Y257983D01*
X51897Y258956D01*
X52034Y260000D01*
Y265000D01*
X51897Y266044D01*
X51494Y267017D01*
X50853Y267853D01*
X50017Y268494D01*
X49529Y268696D01*
Y285816D01*
X49622Y285878D01*
X50120Y286622D01*
X50294Y287500D01*
X50120Y288378D01*
X49622Y289122D01*
X48878Y289619D01*
X48000Y289794D01*
X47122Y289619D01*
X46378Y289122D01*
X45880Y288378D01*
X45706Y287500D01*
X45880Y286622D01*
X46378Y285878D01*
X46471Y285816D01*
Y268696D01*
X45983Y268494D01*
X45147Y267853D01*
X44506Y267017D01*
X44103Y266044D01*
X43966Y265000D01*
Y260000D01*
X44103Y258956D01*
X44506Y257983D01*
X45147Y257147D01*
X45952Y256529D01*
X45955Y256476D01*
X45701Y256029D01*
X40299D01*
X40045Y256476D01*
X40048Y256529D01*
X40853Y257147D01*
X41494Y257983D01*
X41897Y258956D01*
X42035Y260000D01*
Y265000D01*
X41897Y266044D01*
X41494Y267017D01*
X40853Y267853D01*
X40017Y268494D01*
X39427Y268738D01*
Y276909D01*
X39770Y277252D01*
X40000Y277206D01*
X40878Y277380D01*
X41622Y277878D01*
X42120Y278622D01*
X42294Y279500D01*
X42120Y280378D01*
X41622Y281122D01*
X40878Y281620D01*
X40000Y281794D01*
X39122Y281620D01*
X38378Y281122D01*
X37881Y280378D01*
X37706Y279500D01*
X37752Y279270D01*
X36991Y278509D01*
X36681Y278046D01*
X36573Y277500D01*
X36573Y277500D01*
Y268738D01*
X35983Y268494D01*
X35147Y267853D01*
X34506Y267017D01*
X34103Y266044D01*
X33966Y265000D01*
Y260000D01*
X34103Y258956D01*
X34506Y257983D01*
X35147Y257147D01*
X35952Y256529D01*
X35955Y256476D01*
X35701Y256029D01*
X30299D01*
X30045Y256476D01*
X30048Y256529D01*
X30853Y257147D01*
X31494Y257983D01*
X31897Y258956D01*
X32035Y260000D01*
Y265000D01*
X31897Y266044D01*
X31494Y267017D01*
X30853Y267853D01*
X30017Y268494D01*
X29044Y268897D01*
X28000Y269035D01*
X26956Y268897D01*
X25983Y268494D01*
X25147Y267853D01*
X24506Y267017D01*
X24103Y266044D01*
X23966Y265000D01*
Y260000D01*
X24103Y258956D01*
X24506Y257983D01*
X25147Y257147D01*
X25952Y256529D01*
X25955Y256476D01*
X25701Y256029D01*
X20299D01*
X20045Y256476D01*
X20048Y256529D01*
X20853Y257147D01*
X21494Y257983D01*
X21897Y258956D01*
X22035Y260000D01*
Y265000D01*
X21897Y266044D01*
X21494Y267017D01*
X20853Y267853D01*
X20017Y268494D01*
X19044Y268897D01*
X18000Y269035D01*
X16956Y268897D01*
X15983Y268494D01*
X15147Y267853D01*
X14506Y267017D01*
X14103Y266044D01*
X13965Y265000D01*
Y260000D01*
X14103Y258956D01*
X14506Y257983D01*
X15147Y257147D01*
X15952Y256529D01*
X15955Y256476D01*
X15701Y256029D01*
X12000D01*
Y262000D01*
X8000D01*
X4000D01*
Y256029D01*
X1529D01*
Y280201D01*
X1976Y280455D01*
X2029Y280452D01*
X2647Y279647D01*
X3483Y279006D01*
X4456Y278603D01*
X5500Y278466D01*
X10500D01*
X11544Y278603D01*
X12517Y279006D01*
X13353Y279647D01*
X13994Y280483D01*
X14397Y281456D01*
X14535Y282500D01*
X14397Y283544D01*
X13994Y284517D01*
X13353Y285353D01*
X12517Y285994D01*
X11544Y286397D01*
X10500Y286535D01*
X5500D01*
X4456Y286397D01*
X3483Y285994D01*
X2647Y285353D01*
X2029Y284548D01*
X1976Y284545D01*
X1529Y284799D01*
Y290201D01*
X1976Y290455D01*
X2029Y290452D01*
X2647Y289647D01*
X3483Y289006D01*
X4456Y288603D01*
X5500Y288465D01*
X10500D01*
X11544Y288603D01*
X12517Y289006D01*
X13353Y289647D01*
X13994Y290483D01*
X14397Y291456D01*
X14535Y292500D01*
X14397Y293544D01*
X13994Y294517D01*
X13353Y295353D01*
X12517Y295994D01*
X11544Y296397D01*
X10500Y296534D01*
X5500D01*
X4456Y296397D01*
X3483Y295994D01*
X2647Y295353D01*
X2029Y294548D01*
X1976Y294545D01*
X1529Y294799D01*
Y300201D01*
X1976Y300455D01*
X2029Y300452D01*
X2647Y299647D01*
X3483Y299006D01*
X4456Y298603D01*
X5500Y298465D01*
X10500D01*
X11544Y298603D01*
X12517Y299006D01*
X13353Y299647D01*
X13994Y300483D01*
X14397Y301456D01*
X14535Y302500D01*
X14397Y303544D01*
X13994Y304517D01*
X13353Y305353D01*
X12517Y305994D01*
X11544Y306397D01*
X10500Y306535D01*
X5500D01*
X4456Y306397D01*
X3483Y305994D01*
X2647Y305353D01*
X2029Y304548D01*
X1976Y304545D01*
X1529Y304799D01*
Y310201D01*
X1976Y310455D01*
X2029Y310452D01*
X2647Y309647D01*
X3483Y309006D01*
X4456Y308603D01*
X5500Y308466D01*
X10500D01*
X11544Y308603D01*
X12517Y309006D01*
X13353Y309647D01*
X13994Y310483D01*
X14196Y310971D01*
X25816D01*
X25878Y310878D01*
X26622Y310381D01*
X27500Y310206D01*
X28378Y310381D01*
X29122Y310878D01*
X29620Y311622D01*
X29794Y312500D01*
X29620Y313378D01*
X29122Y314122D01*
X28378Y314619D01*
X27500Y314794D01*
X26622Y314619D01*
X25878Y314122D01*
X25816Y314029D01*
X14196D01*
X13994Y314517D01*
X13353Y315353D01*
X12517Y315994D01*
X11544Y316397D01*
X10500Y316534D01*
X5500D01*
X4456Y316397D01*
X3483Y315994D01*
X2647Y315353D01*
X2029Y314548D01*
X1976Y314545D01*
X1529Y314799D01*
Y320201D01*
X1976Y320455D01*
X2029Y320452D01*
X2647Y319647D01*
X3483Y319006D01*
X4456Y318603D01*
X5500Y318465D01*
X7500D01*
Y322500D01*
Y326535D01*
X5500D01*
X4456Y326397D01*
X3483Y325994D01*
X2647Y325353D01*
X2029Y324548D01*
X1976Y324545D01*
X1529Y324799D01*
Y330201D01*
X1976Y330455D01*
X2029Y330452D01*
X2647Y329647D01*
X3483Y329006D01*
X4456Y328603D01*
X5500Y328466D01*
X7500D01*
Y332500D01*
Y336535D01*
X5500D01*
X4456Y336397D01*
X3483Y335994D01*
X2647Y335353D01*
X2029Y334548D01*
X1976Y334545D01*
X1529Y334799D01*
Y340201D01*
X1976Y340455D01*
X2029Y340452D01*
X2647Y339647D01*
X3483Y339006D01*
X4456Y338603D01*
X5500Y338465D01*
X10500D01*
X11544Y338603D01*
X12517Y339006D01*
X13353Y339647D01*
X13994Y340483D01*
X14397Y341456D01*
X14535Y342500D01*
X14397Y343544D01*
X13994Y344517D01*
X13353Y345353D01*
X12517Y345994D01*
X11544Y346397D01*
X10500Y346534D01*
X5500D01*
X4456Y346397D01*
X3483Y345994D01*
X2647Y345353D01*
X2029Y344548D01*
X1976Y344545D01*
X1529Y344799D01*
Y350201D01*
X1976Y350455D01*
X2029Y350452D01*
X2647Y349647D01*
X3483Y349006D01*
X4456Y348603D01*
X5500Y348465D01*
X10500D01*
X11544Y348603D01*
X12517Y349006D01*
X13353Y349647D01*
X13994Y350483D01*
X14397Y351456D01*
X14535Y352500D01*
X14397Y353544D01*
X13994Y354517D01*
X13353Y355353D01*
X12517Y355994D01*
X11544Y356397D01*
X10500Y356535D01*
X5500D01*
X4456Y356397D01*
X3483Y355994D01*
X2647Y355353D01*
X2029Y354548D01*
X1976Y354545D01*
X1529Y354799D01*
Y360201D01*
X1976Y360455D01*
X2029Y360452D01*
X2647Y359647D01*
X3483Y359006D01*
X4456Y358603D01*
X5500Y358466D01*
X10500D01*
X11544Y358603D01*
X12517Y359006D01*
X13353Y359647D01*
X13994Y360483D01*
X14397Y361456D01*
X14535Y362500D01*
X14397Y363544D01*
X13994Y364517D01*
X13353Y365353D01*
X12517Y365994D01*
X11544Y366397D01*
X10500Y366534D01*
X5500D01*
X4456Y366397D01*
X3483Y365994D01*
X2647Y365353D01*
X2029Y364548D01*
X1976Y364545D01*
X1529Y364799D01*
Y370201D01*
X1976Y370455D01*
X2029Y370452D01*
X2647Y369647D01*
X3483Y369006D01*
X4456Y368603D01*
X5500Y368465D01*
X10500D01*
X11544Y368603D01*
X12517Y369006D01*
X13353Y369647D01*
X13994Y370483D01*
X14397Y371456D01*
X14535Y372500D01*
X14397Y373544D01*
X13994Y374517D01*
X13353Y375353D01*
X12517Y375994D01*
X11544Y376397D01*
X10500Y376535D01*
X5500D01*
X4456Y376397D01*
X3483Y375994D01*
X2647Y375353D01*
X2029Y374548D01*
X1976Y374545D01*
X1529Y374799D01*
Y380201D01*
X1976Y380455D01*
X2029Y380452D01*
X2647Y379647D01*
X3483Y379006D01*
X4456Y378603D01*
X5500Y378466D01*
X10500D01*
X11544Y378603D01*
X12517Y379006D01*
X13353Y379647D01*
X13994Y380483D01*
X14397Y381456D01*
X14535Y382500D01*
X14397Y383544D01*
X13994Y384517D01*
X13353Y385353D01*
X12517Y385994D01*
X11544Y386397D01*
X10500Y386535D01*
X5500D01*
X4456Y386397D01*
X3483Y385994D01*
X2647Y385353D01*
X2029Y384548D01*
X1976Y384545D01*
X1529Y384799D01*
Y390201D01*
X1976Y390455D01*
X2029Y390452D01*
X2647Y389647D01*
X3483Y389006D01*
X4456Y388603D01*
X5500Y388465D01*
X10500D01*
X11544Y388603D01*
X12517Y389006D01*
X13353Y389647D01*
X13994Y390483D01*
X14397Y391456D01*
X14535Y392500D01*
X14397Y393544D01*
X13994Y394517D01*
X13353Y395353D01*
X12517Y395994D01*
X11544Y396397D01*
X10500Y396534D01*
X5500D01*
X4456Y396397D01*
X3483Y395994D01*
X2647Y395353D01*
X2029Y394548D01*
X1976Y394545D01*
X1529Y394799D01*
Y400201D01*
X1976Y400455D01*
X2029Y400452D01*
X2647Y399647D01*
X3483Y399006D01*
X4456Y398603D01*
X5500Y398465D01*
X10500D01*
X11544Y398603D01*
X12517Y399006D01*
X13353Y399647D01*
X13994Y400483D01*
X14397Y401456D01*
X14535Y402500D01*
X14397Y403544D01*
X13994Y404517D01*
X13353Y405353D01*
X12517Y405994D01*
X11544Y406397D01*
X10500Y406534D01*
X5500D01*
X4456Y406397D01*
X3483Y405994D01*
X2647Y405353D01*
X2029Y404548D01*
X1976Y404545D01*
X1529Y404799D01*
Y410201D01*
X1976Y410455D01*
X2029Y410452D01*
X2647Y409647D01*
X3483Y409006D01*
X4456Y408603D01*
X5500Y408465D01*
X10500D01*
X11544Y408603D01*
X12517Y409006D01*
X13353Y409647D01*
X13994Y410483D01*
X14397Y411456D01*
X14535Y412500D01*
X14397Y413544D01*
X13994Y414517D01*
X13353Y415353D01*
X12517Y415994D01*
X11544Y416397D01*
X10500Y416535D01*
X5500D01*
X4456Y416397D01*
X3483Y415994D01*
X2647Y415353D01*
X2029Y414548D01*
X1976Y414545D01*
X1529Y414799D01*
Y420201D01*
X1976Y420455D01*
X2029Y420452D01*
X2647Y419647D01*
X3483Y419006D01*
X4456Y418603D01*
X5500Y418466D01*
X7500D01*
Y422500D01*
Y426535D01*
X5500D01*
X4456Y426397D01*
X3483Y425994D01*
X2647Y425353D01*
X2029Y424548D01*
X1976Y424545D01*
X1529Y424799D01*
Y430201D01*
X1976Y430455D01*
X2029Y430452D01*
X2647Y429647D01*
X3483Y429006D01*
X4456Y428603D01*
X5500Y428466D01*
X10500D01*
X11544Y428603D01*
X12517Y429006D01*
X13353Y429647D01*
X13994Y430483D01*
X14397Y431456D01*
X14535Y432500D01*
X14397Y433544D01*
X13994Y434517D01*
X13353Y435353D01*
X12517Y435994D01*
X11544Y436397D01*
X10500Y436535D01*
X5500D01*
X4456Y436397D01*
X3483Y435994D01*
X2647Y435353D01*
X2029Y434548D01*
X1976Y434545D01*
X1529Y434799D01*
Y440201D01*
X1976Y440455D01*
X2029Y440452D01*
X2647Y439647D01*
X3483Y439006D01*
X4456Y438603D01*
X5500Y438465D01*
X7500D01*
Y442500D01*
Y446534D01*
X5500D01*
X4456Y446397D01*
X3483Y445994D01*
X2647Y445353D01*
X2029Y444548D01*
X1976Y444545D01*
X1529Y444799D01*
Y450201D01*
X1976Y450455D01*
X2029Y450452D01*
X2647Y449647D01*
X3483Y449006D01*
X4456Y448603D01*
X5500Y448465D01*
X10500D01*
X11544Y448603D01*
X12517Y449006D01*
X13353Y449647D01*
X13994Y450483D01*
X14397Y451456D01*
X14535Y452500D01*
X14397Y453544D01*
X13994Y454517D01*
X13353Y455353D01*
X12517Y455994D01*
X11544Y456397D01*
X10500Y456534D01*
X5500D01*
X4456Y456397D01*
X3483Y455994D01*
X2647Y455353D01*
X2029Y454548D01*
X1976Y454545D01*
X1529Y454799D01*
Y460201D01*
X1976Y460455D01*
X2029Y460452D01*
X2647Y459647D01*
X3483Y459006D01*
X4456Y458603D01*
X5500Y458465D01*
X7500D01*
Y462500D01*
Y466535D01*
X5500D01*
X4456Y466397D01*
X3483Y465994D01*
X2647Y465353D01*
X2029Y464548D01*
X1976Y464545D01*
X1529Y464799D01*
Y468500D01*
X14500D01*
Y476500D01*
X1529D01*
Y506971D01*
X204471D01*
Y476500D01*
D02*
G37*
G36*
X410471Y222000D02*
X404500D01*
Y218000D01*
Y214000D01*
X410471D01*
Y210299D01*
X410024Y210045D01*
X409971Y210048D01*
X409353Y210853D01*
X408517Y211494D01*
X407544Y211897D01*
X406500Y212035D01*
X401500D01*
X400456Y211897D01*
X399483Y211494D01*
X398647Y210853D01*
X398006Y210017D01*
X397603Y209044D01*
X397465Y208000D01*
X397603Y206956D01*
X398006Y205983D01*
X398647Y205147D01*
X399483Y204506D01*
X400456Y204103D01*
X401500Y203965D01*
X406500D01*
X407544Y204103D01*
X408517Y204506D01*
X409353Y205147D01*
X409971Y205952D01*
X410024Y205955D01*
X410471Y205701D01*
Y200299D01*
X410024Y200045D01*
X409971Y200048D01*
X409353Y200853D01*
X408517Y201494D01*
X407544Y201897D01*
X406500Y202034D01*
X401500D01*
X400456Y201897D01*
X399483Y201494D01*
X398647Y200853D01*
X398006Y200017D01*
X397603Y199044D01*
X397465Y198000D01*
X397603Y196956D01*
X398006Y195983D01*
X398647Y195147D01*
X399483Y194506D01*
X400456Y194103D01*
X401500Y193965D01*
X406500D01*
X407544Y194103D01*
X408517Y194506D01*
X409353Y195147D01*
X409971Y195952D01*
X410024Y195955D01*
X410471Y195701D01*
Y190299D01*
X410024Y190045D01*
X409971Y190048D01*
X409353Y190853D01*
X408517Y191494D01*
X407544Y191897D01*
X406500Y192034D01*
X404500D01*
Y188000D01*
Y183966D01*
X406500D01*
X407544Y184103D01*
X408517Y184506D01*
X409353Y185147D01*
X409971Y185952D01*
X410024Y185955D01*
X410471Y185701D01*
Y180299D01*
X410024Y180045D01*
X409971Y180048D01*
X409353Y180853D01*
X408517Y181494D01*
X407544Y181897D01*
X406500Y182035D01*
X401500D01*
X400456Y181897D01*
X399483Y181494D01*
X398647Y180853D01*
X398006Y180017D01*
X397603Y179044D01*
X397465Y178000D01*
X397603Y176956D01*
X398006Y175983D01*
X398647Y175147D01*
X399483Y174506D01*
X400456Y174103D01*
X401500Y173966D01*
X406500D01*
X407544Y174103D01*
X408517Y174506D01*
X409353Y175147D01*
X409971Y175952D01*
X410024Y175955D01*
X410471Y175701D01*
Y170299D01*
X410024Y170045D01*
X409971Y170048D01*
X409353Y170853D01*
X408517Y171494D01*
X407544Y171897D01*
X406500Y172035D01*
X401500D01*
X400456Y171897D01*
X399483Y171494D01*
X398647Y170853D01*
X398006Y170017D01*
X397603Y169044D01*
X397465Y168000D01*
X397603Y166956D01*
X398006Y165983D01*
X398647Y165147D01*
X399483Y164506D01*
X400456Y164103D01*
X401500Y163965D01*
X406500D01*
X407544Y164103D01*
X408517Y164506D01*
X409353Y165147D01*
X409971Y165952D01*
X410024Y165955D01*
X410471Y165701D01*
Y160299D01*
X410024Y160045D01*
X409971Y160048D01*
X409353Y160853D01*
X408517Y161494D01*
X407544Y161897D01*
X406500Y162034D01*
X404500D01*
Y158000D01*
Y153965D01*
X406500D01*
X407544Y154103D01*
X408517Y154506D01*
X409353Y155147D01*
X409971Y155952D01*
X410024Y155955D01*
X410471Y155701D01*
Y150299D01*
X410024Y150045D01*
X409971Y150048D01*
X409353Y150853D01*
X408517Y151494D01*
X407544Y151897D01*
X406500Y152034D01*
X401500D01*
X400456Y151897D01*
X399483Y151494D01*
X398647Y150853D01*
X398006Y150017D01*
X397603Y149044D01*
X397465Y148000D01*
X397603Y146956D01*
X398006Y145983D01*
X398647Y145147D01*
X399483Y144506D01*
X400456Y144103D01*
X401500Y143965D01*
X406500D01*
X407544Y144103D01*
X408517Y144506D01*
X409353Y145147D01*
X409971Y145952D01*
X410024Y145955D01*
X410471Y145701D01*
Y140299D01*
X410024Y140045D01*
X409971Y140048D01*
X409353Y140853D01*
X408517Y141494D01*
X407544Y141897D01*
X406500Y142034D01*
X404500D01*
Y138000D01*
Y133966D01*
X406500D01*
X407544Y134103D01*
X408517Y134506D01*
X409353Y135147D01*
X409971Y135952D01*
X410024Y135955D01*
X410471Y135701D01*
Y130299D01*
X410024Y130045D01*
X409971Y130048D01*
X409353Y130853D01*
X408517Y131494D01*
X407544Y131897D01*
X406500Y132035D01*
X404500D01*
Y128000D01*
Y123966D01*
X406500D01*
X407544Y124103D01*
X408517Y124506D01*
X409353Y125147D01*
X409971Y125952D01*
X410024Y125955D01*
X410471Y125701D01*
Y120299D01*
X410024Y120045D01*
X409971Y120048D01*
X409353Y120853D01*
X408517Y121494D01*
X407544Y121897D01*
X406500Y122035D01*
X401500D01*
X400456Y121897D01*
X399483Y121494D01*
X398647Y120853D01*
X398006Y120017D01*
X397603Y119044D01*
X397465Y118000D01*
X397603Y116956D01*
X398006Y115983D01*
X398647Y115147D01*
X399483Y114506D01*
X400456Y114103D01*
X401500Y113965D01*
X406500D01*
X407544Y114103D01*
X408517Y114506D01*
X409353Y115147D01*
X409971Y115952D01*
X410024Y115955D01*
X410471Y115701D01*
Y110299D01*
X410024Y110045D01*
X409971Y110048D01*
X409353Y110853D01*
X408517Y111494D01*
X407544Y111897D01*
X406500Y112034D01*
X401500D01*
X400456Y111897D01*
X399483Y111494D01*
X398647Y110853D01*
X398006Y110017D01*
X397603Y109044D01*
X397465Y108000D01*
X397603Y106956D01*
X398006Y105983D01*
X398647Y105147D01*
X399483Y104506D01*
X400456Y104103D01*
X401500Y103965D01*
X406500D01*
X407544Y104103D01*
X408517Y104506D01*
X409353Y105147D01*
X409971Y105952D01*
X410024Y105955D01*
X410471Y105701D01*
Y100299D01*
X410024Y100045D01*
X409971Y100048D01*
X409353Y100853D01*
X408517Y101494D01*
X407544Y101897D01*
X406500Y102034D01*
X401500D01*
X400456Y101897D01*
X399483Y101494D01*
X398647Y100853D01*
X398006Y100017D01*
X397603Y99044D01*
X397465Y98000D01*
X397603Y96956D01*
X398006Y95983D01*
X398647Y95147D01*
X399483Y94506D01*
X400456Y94103D01*
X401500Y93966D01*
X406500D01*
X407544Y94103D01*
X408517Y94506D01*
X409353Y95147D01*
X409971Y95952D01*
X410024Y95955D01*
X410471Y95701D01*
Y90299D01*
X410024Y90045D01*
X409971Y90048D01*
X409353Y90853D01*
X408517Y91494D01*
X407544Y91897D01*
X406500Y92035D01*
X401500D01*
X400456Y91897D01*
X399483Y91494D01*
X398647Y90853D01*
X398006Y90017D01*
X397603Y89044D01*
X397465Y88000D01*
X397603Y86956D01*
X398006Y85983D01*
X398647Y85147D01*
X399483Y84506D01*
X400456Y84103D01*
X401500Y83965D01*
X406500D01*
X407544Y84103D01*
X408517Y84506D01*
X409353Y85147D01*
X409971Y85952D01*
X410024Y85955D01*
X410471Y85701D01*
Y80299D01*
X410024Y80045D01*
X409971Y80048D01*
X409353Y80853D01*
X408517Y81494D01*
X407544Y81897D01*
X406500Y82034D01*
X401500D01*
X400456Y81897D01*
X399483Y81494D01*
X398647Y80853D01*
X398006Y80017D01*
X397603Y79044D01*
X397465Y78000D01*
X397603Y76956D01*
X398006Y75983D01*
X398647Y75147D01*
X399483Y74506D01*
X400456Y74103D01*
X401500Y73966D01*
X406500D01*
X407544Y74103D01*
X408517Y74506D01*
X409353Y75147D01*
X409971Y75952D01*
X410024Y75955D01*
X410471Y75701D01*
Y70299D01*
X410024Y70045D01*
X409971Y70048D01*
X409353Y70853D01*
X408517Y71494D01*
X407544Y71897D01*
X406500Y72035D01*
X404500D01*
Y68000D01*
Y63965D01*
X406500D01*
X407544Y64103D01*
X408517Y64506D01*
X409353Y65147D01*
X409971Y65952D01*
X410024Y65955D01*
X410471Y65701D01*
Y60299D01*
X410024Y60045D01*
X409971Y60048D01*
X409353Y60853D01*
X408517Y61494D01*
X407544Y61897D01*
X406500Y62034D01*
X404500D01*
Y58000D01*
Y53966D01*
X406500D01*
X407544Y54103D01*
X408517Y54506D01*
X409353Y55147D01*
X409971Y55952D01*
X410024Y55955D01*
X410471Y55701D01*
Y50299D01*
X410024Y50045D01*
X409971Y50048D01*
X409353Y50853D01*
X408517Y51494D01*
X407544Y51897D01*
X406500Y52034D01*
X401500D01*
X400456Y51897D01*
X399483Y51494D01*
X398647Y50853D01*
X398006Y50017D01*
X397603Y49044D01*
X397465Y48000D01*
X397603Y46956D01*
X398006Y45983D01*
X398647Y45147D01*
X399483Y44506D01*
X400456Y44103D01*
X401500Y43966D01*
X406500D01*
X407544Y44103D01*
X408517Y44506D01*
X409353Y45147D01*
X409971Y45952D01*
X410024Y45955D01*
X410471Y45701D01*
Y40299D01*
X410024Y40045D01*
X409971Y40048D01*
X409353Y40853D01*
X408517Y41494D01*
X407544Y41897D01*
X406500Y42035D01*
X401500D01*
X400456Y41897D01*
X399483Y41494D01*
X398647Y40853D01*
X398006Y40017D01*
X397603Y39044D01*
X397465Y38000D01*
X397603Y36956D01*
X398006Y35983D01*
X398647Y35147D01*
X399483Y34506D01*
X400456Y34103D01*
X401500Y33966D01*
X406500D01*
X407544Y34103D01*
X408517Y34506D01*
X409353Y35147D01*
X409971Y35952D01*
X410024Y35955D01*
X410471Y35701D01*
Y30299D01*
X410024Y30045D01*
X409971Y30048D01*
X409353Y30853D01*
X408517Y31494D01*
X407544Y31897D01*
X406500Y32035D01*
X401500D01*
X400456Y31897D01*
X399483Y31494D01*
X398647Y30853D01*
X398006Y30017D01*
X397603Y29044D01*
X397465Y28000D01*
X397603Y26956D01*
X398006Y25983D01*
X398647Y25147D01*
X399483Y24506D01*
X400456Y24103D01*
X401500Y23966D01*
X406500D01*
X407544Y24103D01*
X408517Y24506D01*
X409353Y25147D01*
X409971Y25952D01*
X410024Y25955D01*
X410471Y25701D01*
Y1529D01*
X406299D01*
X406045Y1976D01*
X406048Y2029D01*
X406853Y2647D01*
X407494Y3483D01*
X407897Y4456D01*
X408035Y5500D01*
Y10500D01*
X407897Y11544D01*
X407494Y12517D01*
X406853Y13353D01*
X406017Y13994D01*
X405044Y14397D01*
X404000Y14535D01*
X402956Y14397D01*
X401983Y13994D01*
X401147Y13353D01*
X400506Y12517D01*
X400103Y11544D01*
X399966Y10500D01*
Y5500D01*
X400103Y4456D01*
X400506Y3483D01*
X401147Y2647D01*
X401952Y2029D01*
X401955Y1976D01*
X401701Y1529D01*
X396299D01*
X396045Y1976D01*
X396048Y2029D01*
X396853Y2647D01*
X397494Y3483D01*
X397897Y4456D01*
X398035Y5500D01*
Y10500D01*
X397897Y11544D01*
X397494Y12517D01*
X396853Y13353D01*
X396017Y13994D01*
X395044Y14397D01*
X394000Y14535D01*
X392956Y14397D01*
X391983Y13994D01*
X391147Y13353D01*
X390506Y12517D01*
X390103Y11544D01*
X389966Y10500D01*
Y5500D01*
X390103Y4456D01*
X390506Y3483D01*
X391147Y2647D01*
X391952Y2029D01*
X391955Y1976D01*
X391701Y1529D01*
X386299D01*
X386045Y1976D01*
X386048Y2029D01*
X386853Y2647D01*
X387494Y3483D01*
X387897Y4456D01*
X388035Y5500D01*
Y10500D01*
X387897Y11544D01*
X387494Y12517D01*
X386853Y13353D01*
X386017Y13994D01*
X385927Y14031D01*
Y54748D01*
X386122Y54878D01*
X386619Y55622D01*
X386794Y56500D01*
X386619Y57378D01*
X386122Y58122D01*
X385378Y58619D01*
X384500Y58794D01*
X383622Y58619D01*
X382878Y58122D01*
X382381Y57378D01*
X382206Y56500D01*
X381917Y56211D01*
X381500Y56294D01*
X380622Y56119D01*
X379878Y55622D01*
X379380Y54878D01*
X379206Y54000D01*
X379380Y53122D01*
X379878Y52378D01*
X380073Y52248D01*
Y26091D01*
X372991Y19009D01*
X372681Y18546D01*
X372573Y18000D01*
X372573Y18000D01*
Y14238D01*
X371983Y13994D01*
X371147Y13353D01*
X370506Y12517D01*
X370103Y11544D01*
X369966Y10500D01*
Y5500D01*
X370103Y4456D01*
X370506Y3483D01*
X371147Y2647D01*
X371952Y2029D01*
X371955Y1976D01*
X371701Y1529D01*
X366299D01*
X366045Y1976D01*
X366048Y2029D01*
X366853Y2647D01*
X367494Y3483D01*
X367897Y4456D01*
X368035Y5500D01*
Y10500D01*
X367897Y11544D01*
X367494Y12517D01*
X366853Y13353D01*
X366017Y13994D01*
X365427Y14238D01*
Y20409D01*
X378009Y32991D01*
X378009Y32991D01*
X378319Y33454D01*
X378427Y34000D01*
X378427Y34000D01*
Y49748D01*
X378622Y49878D01*
X379119Y50622D01*
X379294Y51500D01*
X379119Y52378D01*
X378622Y53122D01*
X377878Y53619D01*
X377000Y53794D01*
X376122Y53619D01*
X375378Y53122D01*
X374866Y53257D01*
X374622Y53622D01*
X373878Y54119D01*
X373000Y54294D01*
X372122Y54119D01*
X371378Y53622D01*
X371248Y53427D01*
X370500D01*
X370500Y53427D01*
X369954Y53319D01*
X369491Y53009D01*
X367991Y51509D01*
X367681Y51046D01*
X367573Y50500D01*
X367573Y50500D01*
Y33091D01*
X352991Y18509D01*
X352681Y18046D01*
X352573Y17500D01*
X352573Y17500D01*
Y14238D01*
X351983Y13994D01*
X351147Y13353D01*
X350506Y12517D01*
X350103Y11544D01*
X349966Y10500D01*
Y5500D01*
X350103Y4456D01*
X350506Y3483D01*
X351147Y2647D01*
X351952Y2029D01*
X351955Y1976D01*
X351701Y1529D01*
X346299D01*
X346045Y1976D01*
X346048Y2029D01*
X346853Y2647D01*
X347494Y3483D01*
X347897Y4456D01*
X348035Y5500D01*
Y10500D01*
X347897Y11544D01*
X347494Y12517D01*
X346853Y13353D01*
X346017Y13994D01*
X345044Y14397D01*
X344000Y14535D01*
X342956Y14397D01*
X341983Y13994D01*
X341147Y13353D01*
X340506Y12517D01*
X340103Y11544D01*
X339966Y10500D01*
Y5500D01*
X340103Y4456D01*
X340506Y3483D01*
X341147Y2647D01*
X341952Y2029D01*
X341955Y1976D01*
X341701Y1529D01*
X336299D01*
X336045Y1976D01*
X336048Y2029D01*
X336853Y2647D01*
X337494Y3483D01*
X337897Y4456D01*
X338035Y5500D01*
Y10500D01*
X337897Y11544D01*
X337494Y12517D01*
X336853Y13353D01*
X336017Y13994D01*
X335044Y14397D01*
X334000Y14535D01*
X332956Y14397D01*
X331983Y13994D01*
X331147Y13353D01*
X330506Y12517D01*
X330103Y11544D01*
X329965Y10500D01*
Y5500D01*
X330103Y4456D01*
X330506Y3483D01*
X331147Y2647D01*
X331952Y2029D01*
X331955Y1976D01*
X331701Y1529D01*
X326299D01*
X326045Y1976D01*
X326048Y2029D01*
X326853Y2647D01*
X327494Y3483D01*
X327897Y4456D01*
X328034Y5500D01*
Y10500D01*
X327897Y11544D01*
X327494Y12517D01*
X326853Y13353D01*
X326017Y13994D01*
X325044Y14397D01*
X324000Y14535D01*
X322956Y14397D01*
X321983Y13994D01*
X321147Y13353D01*
X320506Y12517D01*
X320103Y11544D01*
X319966Y10500D01*
Y5500D01*
X320103Y4456D01*
X320506Y3483D01*
X321147Y2647D01*
X321952Y2029D01*
X321955Y1976D01*
X321701Y1529D01*
X316299D01*
X316045Y1976D01*
X316048Y2029D01*
X316853Y2647D01*
X317494Y3483D01*
X317897Y4456D01*
X318035Y5500D01*
Y10500D01*
X317897Y11544D01*
X317494Y12517D01*
X316853Y13353D01*
X316017Y13994D01*
X315529Y14196D01*
Y16867D01*
X321753Y23090D01*
X322233Y22863D01*
X322380Y22122D01*
X322878Y21378D01*
X323622Y20880D01*
X324500Y20706D01*
X343135D01*
X343622Y20380D01*
X344500Y20206D01*
X345378Y20380D01*
X346122Y20878D01*
X346620Y21622D01*
X346794Y22500D01*
X346620Y23378D01*
X346122Y24122D01*
X345622Y24622D01*
X344878Y25120D01*
X344000Y25294D01*
X324664D01*
X324427Y25764D01*
X324581Y25919D01*
X324913Y26415D01*
X325029Y27000D01*
Y58316D01*
X325122Y58378D01*
X325620Y59122D01*
X325794Y60000D01*
X325620Y60878D01*
X325122Y61622D01*
X324378Y62119D01*
X323500Y62294D01*
X322622Y62119D01*
X321878Y61622D01*
X321380Y60878D01*
X321206Y60000D01*
X321380Y59122D01*
X321878Y58378D01*
X321971Y58316D01*
Y27634D01*
X312919Y18581D01*
X312587Y18085D01*
X312471Y17500D01*
Y14196D01*
X311983Y13994D01*
X311147Y13353D01*
X310506Y12517D01*
X310103Y11544D01*
X309965Y10500D01*
Y5500D01*
X310103Y4456D01*
X310506Y3483D01*
X311147Y2647D01*
X311952Y2029D01*
X311955Y1976D01*
X311701Y1529D01*
X306299D01*
X306045Y1976D01*
X306048Y2029D01*
X306853Y2647D01*
X307494Y3483D01*
X307897Y4456D01*
X308034Y5500D01*
Y7500D01*
X304000D01*
X299966D01*
Y5500D01*
X300103Y4456D01*
X300506Y3483D01*
X301147Y2647D01*
X301952Y2029D01*
X301955Y1976D01*
X301701Y1529D01*
X296299D01*
X296045Y1976D01*
X296048Y2029D01*
X296853Y2647D01*
X297494Y3483D01*
X297897Y4456D01*
X298035Y5500D01*
Y7500D01*
X294000D01*
X289966D01*
Y5500D01*
X290103Y4456D01*
X290506Y3483D01*
X291147Y2647D01*
X291952Y2029D01*
X291955Y1976D01*
X291701Y1529D01*
X286299D01*
X286045Y1976D01*
X286048Y2029D01*
X286853Y2647D01*
X287494Y3483D01*
X287897Y4456D01*
X288035Y5500D01*
Y10500D01*
X287897Y11544D01*
X287494Y12517D01*
X286853Y13353D01*
X286017Y13994D01*
X285044Y14397D01*
X284000Y14535D01*
X282956Y14397D01*
X281983Y13994D01*
X281147Y13353D01*
X280506Y12517D01*
X280103Y11544D01*
X279965Y10500D01*
Y5500D01*
X280103Y4456D01*
X280506Y3483D01*
X281147Y2647D01*
X281952Y2029D01*
X281955Y1976D01*
X281701Y1529D01*
X276299D01*
X276045Y1976D01*
X276048Y2029D01*
X276853Y2647D01*
X277494Y3483D01*
X277897Y4456D01*
X278034Y5500D01*
Y10500D01*
X277897Y11544D01*
X277494Y12517D01*
X276853Y13353D01*
X276017Y13994D01*
X275044Y14397D01*
X274000Y14535D01*
X272956Y14397D01*
X271983Y13994D01*
X271147Y13353D01*
X270506Y12517D01*
X270103Y11544D01*
X269966Y10500D01*
Y5500D01*
X270103Y4456D01*
X270506Y3483D01*
X271147Y2647D01*
X271952Y2029D01*
X271955Y1976D01*
X271701Y1529D01*
X266299D01*
X266045Y1976D01*
X266048Y2029D01*
X266853Y2647D01*
X267494Y3483D01*
X267897Y4456D01*
X268035Y5500D01*
Y10500D01*
X267897Y11544D01*
X267494Y12517D01*
X266853Y13353D01*
X266017Y13994D01*
X265044Y14397D01*
X264000Y14535D01*
X262956Y14397D01*
X261983Y13994D01*
X261147Y13353D01*
X260506Y12517D01*
X260103Y11544D01*
X259965Y10500D01*
Y5500D01*
X260103Y4456D01*
X260506Y3483D01*
X261147Y2647D01*
X261952Y2029D01*
X261955Y1976D01*
X261701Y1529D01*
X256299D01*
X256045Y1976D01*
X256048Y2029D01*
X256853Y2647D01*
X257494Y3483D01*
X257897Y4456D01*
X258034Y5500D01*
Y10500D01*
X257897Y11544D01*
X257494Y12517D01*
X256853Y13353D01*
X256017Y13994D01*
X255529Y14196D01*
Y31316D01*
X255622Y31378D01*
X256119Y32122D01*
X256294Y33000D01*
X256119Y33878D01*
X255622Y34622D01*
X254878Y35120D01*
X254000Y35294D01*
X253122Y35120D01*
X252378Y34622D01*
X251881Y33878D01*
X251706Y33000D01*
X251881Y32122D01*
X252378Y31378D01*
X252471Y31316D01*
Y14196D01*
X251983Y13994D01*
X251147Y13353D01*
X250506Y12517D01*
X250103Y11544D01*
X249966Y10500D01*
Y5500D01*
X250103Y4456D01*
X250506Y3483D01*
X251147Y2647D01*
X251952Y2029D01*
X251955Y1976D01*
X251701Y1529D01*
X246299D01*
X246045Y1976D01*
X246048Y2029D01*
X246853Y2647D01*
X247494Y3483D01*
X247897Y4456D01*
X248035Y5500D01*
Y10500D01*
X247897Y11544D01*
X247494Y12517D01*
X246853Y13353D01*
X246017Y13994D01*
X245427Y14238D01*
Y22409D01*
X245770Y22752D01*
X246000Y22706D01*
X246878Y22881D01*
X247622Y23378D01*
X248119Y24122D01*
X248294Y25000D01*
X248119Y25878D01*
X247622Y26622D01*
X246878Y27119D01*
X246000Y27294D01*
X245122Y27119D01*
X244378Y26622D01*
X243881Y25878D01*
X243706Y25000D01*
X243752Y24770D01*
X242991Y24009D01*
X242681Y23546D01*
X242573Y23000D01*
X242573Y23000D01*
Y14238D01*
X241983Y13994D01*
X241147Y13353D01*
X240506Y12517D01*
X240103Y11544D01*
X239966Y10500D01*
Y5500D01*
X240103Y4456D01*
X240506Y3483D01*
X241147Y2647D01*
X241952Y2029D01*
X241955Y1976D01*
X241701Y1529D01*
X236299D01*
X236045Y1976D01*
X236048Y2029D01*
X236853Y2647D01*
X237494Y3483D01*
X237897Y4456D01*
X238035Y5500D01*
Y10500D01*
X237897Y11544D01*
X237494Y12517D01*
X236853Y13353D01*
X236017Y13994D01*
X235044Y14397D01*
X234000Y14535D01*
X232956Y14397D01*
X231983Y13994D01*
X231147Y13353D01*
X230506Y12517D01*
X230103Y11544D01*
X229965Y10500D01*
Y5500D01*
X230103Y4456D01*
X230506Y3483D01*
X231147Y2647D01*
X231952Y2029D01*
X231955Y1976D01*
X231701Y1529D01*
X226299D01*
X226045Y1976D01*
X226048Y2029D01*
X226853Y2647D01*
X227494Y3483D01*
X227897Y4456D01*
X228034Y5500D01*
Y10500D01*
X227897Y11544D01*
X227494Y12517D01*
X226853Y13353D01*
X226017Y13994D01*
X225044Y14397D01*
X224000Y14535D01*
X222956Y14397D01*
X221983Y13994D01*
X221147Y13353D01*
X220506Y12517D01*
X220103Y11544D01*
X219966Y10500D01*
Y5500D01*
X220103Y4456D01*
X220506Y3483D01*
X221147Y2647D01*
X221952Y2029D01*
X221955Y1976D01*
X221701Y1529D01*
X218000D01*
Y7500D01*
X214000D01*
X210000D01*
Y1529D01*
X207529D01*
Y25701D01*
X207976Y25955D01*
X208029Y25952D01*
X208647Y25147D01*
X209483Y24506D01*
X210456Y24103D01*
X211500Y23966D01*
X216500D01*
X217544Y24103D01*
X218517Y24506D01*
X219353Y25147D01*
X219994Y25983D01*
X220397Y26956D01*
X220534Y28000D01*
X220397Y29044D01*
X219994Y30017D01*
X219353Y30853D01*
X218517Y31494D01*
X217544Y31897D01*
X216500Y32035D01*
X211500D01*
X210456Y31897D01*
X209483Y31494D01*
X208647Y30853D01*
X208029Y30048D01*
X207976Y30045D01*
X207529Y30299D01*
Y35701D01*
X207976Y35955D01*
X208029Y35952D01*
X208647Y35147D01*
X209483Y34506D01*
X210456Y34103D01*
X211500Y33966D01*
X216500D01*
X217544Y34103D01*
X218517Y34506D01*
X219353Y35147D01*
X219994Y35983D01*
X220397Y36956D01*
X220534Y38000D01*
X220397Y39044D01*
X219994Y40017D01*
X219353Y40853D01*
X218517Y41494D01*
X217544Y41897D01*
X216500Y42035D01*
X211500D01*
X210456Y41897D01*
X209483Y41494D01*
X208647Y40853D01*
X208029Y40048D01*
X207976Y40045D01*
X207529Y40299D01*
Y45701D01*
X207976Y45955D01*
X208029Y45952D01*
X208647Y45147D01*
X209483Y44506D01*
X210456Y44103D01*
X211500Y43966D01*
X216500D01*
X217544Y44103D01*
X218517Y44506D01*
X219353Y45147D01*
X219994Y45983D01*
X220397Y46956D01*
X220534Y48000D01*
X220397Y49044D01*
X219994Y50017D01*
X219353Y50853D01*
X218517Y51494D01*
X217544Y51897D01*
X216500Y52034D01*
X211500D01*
X210456Y51897D01*
X209483Y51494D01*
X208647Y50853D01*
X208029Y50048D01*
X207976Y50045D01*
X207529Y50299D01*
Y55701D01*
X207976Y55955D01*
X208029Y55952D01*
X208647Y55147D01*
X209483Y54506D01*
X210456Y54103D01*
X211500Y53966D01*
X216500D01*
X217544Y54103D01*
X218517Y54506D01*
X219353Y55147D01*
X219994Y55983D01*
X220196Y56471D01*
X231816D01*
X231878Y56378D01*
X232622Y55881D01*
X233500Y55706D01*
X234378Y55881D01*
X235122Y56378D01*
X235619Y57122D01*
X235794Y58000D01*
X235619Y58878D01*
X235122Y59622D01*
X234378Y60119D01*
X233500Y60294D01*
X232622Y60119D01*
X231878Y59622D01*
X231816Y59529D01*
X220196D01*
X219994Y60017D01*
X219353Y60853D01*
X218517Y61494D01*
X217544Y61897D01*
X216500Y62034D01*
X211500D01*
X210456Y61897D01*
X209483Y61494D01*
X208647Y60853D01*
X208029Y60048D01*
X207976Y60045D01*
X207529Y60299D01*
Y65701D01*
X207976Y65955D01*
X208029Y65952D01*
X208647Y65147D01*
X209483Y64506D01*
X210456Y64103D01*
X211500Y63965D01*
X213500D01*
Y68000D01*
Y72035D01*
X211500D01*
X210456Y71897D01*
X209483Y71494D01*
X208647Y70853D01*
X208029Y70048D01*
X207976Y70045D01*
X207529Y70299D01*
Y75701D01*
X207976Y75955D01*
X208029Y75952D01*
X208647Y75147D01*
X209483Y74506D01*
X210456Y74103D01*
X211500Y73966D01*
X213500D01*
Y78000D01*
Y82034D01*
X211500D01*
X210456Y81897D01*
X209483Y81494D01*
X208647Y80853D01*
X208029Y80048D01*
X207976Y80045D01*
X207529Y80299D01*
Y85701D01*
X207976Y85955D01*
X208029Y85952D01*
X208647Y85147D01*
X209483Y84506D01*
X210456Y84103D01*
X211500Y83965D01*
X216500D01*
X217544Y84103D01*
X218517Y84506D01*
X219353Y85147D01*
X219994Y85983D01*
X220397Y86956D01*
X220534Y88000D01*
X220397Y89044D01*
X219994Y90017D01*
X219353Y90853D01*
X218517Y91494D01*
X217544Y91897D01*
X216500Y92035D01*
X211500D01*
X210456Y91897D01*
X209483Y91494D01*
X208647Y90853D01*
X208029Y90048D01*
X207976Y90045D01*
X207529Y90299D01*
Y95701D01*
X207976Y95955D01*
X208029Y95952D01*
X208647Y95147D01*
X209483Y94506D01*
X210456Y94103D01*
X211500Y93966D01*
X216500D01*
X217544Y94103D01*
X218517Y94506D01*
X219353Y95147D01*
X219994Y95983D01*
X220397Y96956D01*
X220534Y98000D01*
X220397Y99044D01*
X219994Y100017D01*
X219353Y100853D01*
X218517Y101494D01*
X217544Y101897D01*
X216500Y102034D01*
X211500D01*
X210456Y101897D01*
X209483Y101494D01*
X208647Y100853D01*
X208029Y100048D01*
X207976Y100045D01*
X207529Y100299D01*
Y105701D01*
X207976Y105955D01*
X208029Y105952D01*
X208647Y105147D01*
X209483Y104506D01*
X210456Y104103D01*
X211500Y103965D01*
X216500D01*
X217544Y104103D01*
X218517Y104506D01*
X219353Y105147D01*
X219994Y105983D01*
X220397Y106956D01*
X220534Y108000D01*
X220397Y109044D01*
X219994Y110017D01*
X219353Y110853D01*
X218517Y111494D01*
X217544Y111897D01*
X216500Y112034D01*
X211500D01*
X210456Y111897D01*
X209483Y111494D01*
X208647Y110853D01*
X208029Y110048D01*
X207976Y110045D01*
X207529Y110299D01*
Y115701D01*
X207976Y115955D01*
X208029Y115952D01*
X208647Y115147D01*
X209483Y114506D01*
X210456Y114103D01*
X211500Y113965D01*
X216500D01*
X217544Y114103D01*
X218517Y114506D01*
X219353Y115147D01*
X219994Y115983D01*
X220397Y116956D01*
X220534Y118000D01*
X220397Y119044D01*
X219994Y120017D01*
X219353Y120853D01*
X218517Y121494D01*
X217544Y121897D01*
X216500Y122035D01*
X211500D01*
X210456Y121897D01*
X209483Y121494D01*
X208647Y120853D01*
X208029Y120048D01*
X207976Y120045D01*
X207529Y120299D01*
Y125701D01*
X207976Y125955D01*
X208029Y125952D01*
X208647Y125147D01*
X209483Y124506D01*
X210456Y124103D01*
X211500Y123966D01*
X216500D01*
X217544Y124103D01*
X218517Y124506D01*
X219353Y125147D01*
X219994Y125983D01*
X220397Y126956D01*
X220534Y128000D01*
X220397Y129044D01*
X219994Y130017D01*
X219353Y130853D01*
X218517Y131494D01*
X217544Y131897D01*
X216500Y132035D01*
X211500D01*
X210456Y131897D01*
X209483Y131494D01*
X208647Y130853D01*
X208029Y130048D01*
X207976Y130045D01*
X207529Y130299D01*
Y135701D01*
X207976Y135955D01*
X208029Y135952D01*
X208647Y135147D01*
X209483Y134506D01*
X210456Y134103D01*
X211500Y133966D01*
X216500D01*
X217544Y134103D01*
X218517Y134506D01*
X219353Y135147D01*
X219994Y135983D01*
X220397Y136956D01*
X220534Y138000D01*
X220397Y139044D01*
X219994Y140017D01*
X219353Y140853D01*
X218517Y141494D01*
X217544Y141897D01*
X216500Y142034D01*
X211500D01*
X210456Y141897D01*
X209483Y141494D01*
X208647Y140853D01*
X208029Y140048D01*
X207976Y140045D01*
X207529Y140299D01*
Y145701D01*
X207976Y145955D01*
X208029Y145952D01*
X208647Y145147D01*
X209483Y144506D01*
X210456Y144103D01*
X211500Y143965D01*
X216500D01*
X217544Y144103D01*
X218517Y144506D01*
X219353Y145147D01*
X219994Y145983D01*
X220397Y146956D01*
X220534Y148000D01*
X220397Y149044D01*
X219994Y150017D01*
X219353Y150853D01*
X218517Y151494D01*
X217544Y151897D01*
X216500Y152034D01*
X211500D01*
X210456Y151897D01*
X209483Y151494D01*
X208647Y150853D01*
X208029Y150048D01*
X207976Y150045D01*
X207529Y150299D01*
Y155701D01*
X207976Y155955D01*
X208029Y155952D01*
X208647Y155147D01*
X209483Y154506D01*
X210456Y154103D01*
X211500Y153965D01*
X216500D01*
X217544Y154103D01*
X218517Y154506D01*
X219353Y155147D01*
X219994Y155983D01*
X220397Y156956D01*
X220534Y158000D01*
X220397Y159044D01*
X219994Y160017D01*
X219353Y160853D01*
X218517Y161494D01*
X217544Y161897D01*
X216500Y162034D01*
X211500D01*
X210456Y161897D01*
X209483Y161494D01*
X208647Y160853D01*
X208029Y160048D01*
X207976Y160045D01*
X207529Y160299D01*
Y165701D01*
X207976Y165955D01*
X208029Y165952D01*
X208647Y165147D01*
X209483Y164506D01*
X210456Y164103D01*
X211500Y163965D01*
X213500D01*
Y168000D01*
Y172035D01*
X211500D01*
X210456Y171897D01*
X209483Y171494D01*
X208647Y170853D01*
X208029Y170048D01*
X207976Y170045D01*
X207529Y170299D01*
Y175701D01*
X207976Y175955D01*
X208029Y175952D01*
X208647Y175147D01*
X209483Y174506D01*
X210456Y174103D01*
X211500Y173966D01*
X216500D01*
X217544Y174103D01*
X218517Y174506D01*
X219353Y175147D01*
X219994Y175983D01*
X220397Y176956D01*
X220534Y178000D01*
X220397Y179044D01*
X219994Y180017D01*
X219353Y180853D01*
X218517Y181494D01*
X217544Y181897D01*
X216500Y182035D01*
X211500D01*
X210456Y181897D01*
X209483Y181494D01*
X208647Y180853D01*
X208029Y180048D01*
X207976Y180045D01*
X207529Y180299D01*
Y185701D01*
X207976Y185955D01*
X208029Y185952D01*
X208647Y185147D01*
X209483Y184506D01*
X210456Y184103D01*
X211500Y183966D01*
X213500D01*
Y188000D01*
Y192034D01*
X211500D01*
X210456Y191897D01*
X209483Y191494D01*
X208647Y190853D01*
X208029Y190048D01*
X207976Y190045D01*
X207529Y190299D01*
Y195701D01*
X207976Y195955D01*
X208029Y195952D01*
X208647Y195147D01*
X209483Y194506D01*
X210456Y194103D01*
X211500Y193965D01*
X216500D01*
X217544Y194103D01*
X218517Y194506D01*
X219353Y195147D01*
X219994Y195983D01*
X220397Y196956D01*
X220534Y198000D01*
X220397Y199044D01*
X219994Y200017D01*
X219353Y200853D01*
X218517Y201494D01*
X217544Y201897D01*
X216500Y202034D01*
X211500D01*
X210456Y201897D01*
X209483Y201494D01*
X208647Y200853D01*
X208029Y200048D01*
X207976Y200045D01*
X207529Y200299D01*
Y205701D01*
X207976Y205955D01*
X208029Y205952D01*
X208647Y205147D01*
X209483Y204506D01*
X210456Y204103D01*
X211500Y203965D01*
X213500D01*
Y208000D01*
Y212035D01*
X211500D01*
X210456Y211897D01*
X209483Y211494D01*
X208647Y210853D01*
X208029Y210048D01*
X207976Y210045D01*
X207529Y210299D01*
Y214000D01*
X220500D01*
Y222000D01*
X207529D01*
Y252471D01*
X410471D01*
Y222000D01*
D02*
G37*
G36*
X204471D02*
X198500D01*
Y218000D01*
Y214000D01*
X204471D01*
Y210299D01*
X204024Y210045D01*
X203971Y210048D01*
X203353Y210853D01*
X202517Y211494D01*
X201544Y211897D01*
X200500Y212035D01*
X195500D01*
X194456Y211897D01*
X193483Y211494D01*
X192647Y210853D01*
X192006Y210017D01*
X191603Y209044D01*
X191465Y208000D01*
X191603Y206956D01*
X192006Y205983D01*
X192647Y205147D01*
X193483Y204506D01*
X194456Y204103D01*
X195500Y203965D01*
X200500D01*
X201544Y204103D01*
X202517Y204506D01*
X203353Y205147D01*
X203971Y205952D01*
X204024Y205955D01*
X204471Y205701D01*
Y200299D01*
X204024Y200045D01*
X203971Y200048D01*
X203353Y200853D01*
X202517Y201494D01*
X201544Y201897D01*
X200500Y202034D01*
X195500D01*
X194456Y201897D01*
X193483Y201494D01*
X192647Y200853D01*
X192006Y200017D01*
X191603Y199044D01*
X191465Y198000D01*
X191603Y196956D01*
X192006Y195983D01*
X192647Y195147D01*
X193483Y194506D01*
X194456Y194103D01*
X195500Y193965D01*
X200500D01*
X201544Y194103D01*
X202517Y194506D01*
X203353Y195147D01*
X203971Y195952D01*
X204024Y195955D01*
X204471Y195701D01*
Y190299D01*
X204024Y190045D01*
X203971Y190048D01*
X203353Y190853D01*
X202517Y191494D01*
X201544Y191897D01*
X200500Y192034D01*
X198500D01*
Y188000D01*
Y183966D01*
X200500D01*
X201544Y184103D01*
X202517Y184506D01*
X203353Y185147D01*
X203971Y185952D01*
X204024Y185955D01*
X204471Y185701D01*
Y180299D01*
X204024Y180045D01*
X203971Y180048D01*
X203353Y180853D01*
X202517Y181494D01*
X201544Y181897D01*
X200500Y182035D01*
X195500D01*
X194456Y181897D01*
X193483Y181494D01*
X192647Y180853D01*
X192006Y180017D01*
X191603Y179044D01*
X191465Y178000D01*
X191603Y176956D01*
X192006Y175983D01*
X192647Y175147D01*
X193483Y174506D01*
X194456Y174103D01*
X195500Y173966D01*
X200500D01*
X201544Y174103D01*
X202517Y174506D01*
X203353Y175147D01*
X203971Y175952D01*
X204024Y175955D01*
X204471Y175701D01*
Y170299D01*
X204024Y170045D01*
X203971Y170048D01*
X203353Y170853D01*
X202517Y171494D01*
X201544Y171897D01*
X200500Y172035D01*
X195500D01*
X194456Y171897D01*
X193483Y171494D01*
X192647Y170853D01*
X192006Y170017D01*
X191603Y169044D01*
X191465Y168000D01*
X191603Y166956D01*
X192006Y165983D01*
X192647Y165147D01*
X193483Y164506D01*
X194456Y164103D01*
X195500Y163965D01*
X200500D01*
X201544Y164103D01*
X202517Y164506D01*
X203353Y165147D01*
X203971Y165952D01*
X204024Y165955D01*
X204471Y165701D01*
Y160299D01*
X204024Y160045D01*
X203971Y160048D01*
X203353Y160853D01*
X202517Y161494D01*
X201544Y161897D01*
X200500Y162034D01*
X198500D01*
Y158000D01*
Y153965D01*
X200500D01*
X201544Y154103D01*
X202517Y154506D01*
X203353Y155147D01*
X203971Y155952D01*
X204024Y155955D01*
X204471Y155701D01*
Y150299D01*
X204024Y150045D01*
X203971Y150048D01*
X203353Y150853D01*
X202517Y151494D01*
X201544Y151897D01*
X200500Y152034D01*
X195500D01*
X194456Y151897D01*
X193483Y151494D01*
X192647Y150853D01*
X192006Y150017D01*
X191603Y149044D01*
X191465Y148000D01*
X191603Y146956D01*
X192006Y145983D01*
X192647Y145147D01*
X193483Y144506D01*
X194456Y144103D01*
X195500Y143965D01*
X200500D01*
X201544Y144103D01*
X202517Y144506D01*
X203353Y145147D01*
X203971Y145952D01*
X204024Y145955D01*
X204471Y145701D01*
Y140299D01*
X204024Y140045D01*
X203971Y140048D01*
X203353Y140853D01*
X202517Y141494D01*
X201544Y141897D01*
X200500Y142034D01*
X198500D01*
Y138000D01*
Y133966D01*
X200500D01*
X201544Y134103D01*
X202517Y134506D01*
X203353Y135147D01*
X203971Y135952D01*
X204024Y135955D01*
X204471Y135701D01*
Y130299D01*
X204024Y130045D01*
X203971Y130048D01*
X203353Y130853D01*
X202517Y131494D01*
X201544Y131897D01*
X200500Y132035D01*
X198500D01*
Y128000D01*
Y123966D01*
X200500D01*
X201544Y124103D01*
X202517Y124506D01*
X203353Y125147D01*
X203971Y125952D01*
X204024Y125955D01*
X204471Y125701D01*
Y120299D01*
X204024Y120045D01*
X203971Y120048D01*
X203353Y120853D01*
X202517Y121494D01*
X201544Y121897D01*
X200500Y122035D01*
X195500D01*
X194456Y121897D01*
X193483Y121494D01*
X192647Y120853D01*
X192006Y120017D01*
X191603Y119044D01*
X191465Y118000D01*
X191603Y116956D01*
X192006Y115983D01*
X192647Y115147D01*
X193483Y114506D01*
X194456Y114103D01*
X195500Y113965D01*
X200500D01*
X201544Y114103D01*
X202517Y114506D01*
X203353Y115147D01*
X203971Y115952D01*
X204024Y115955D01*
X204471Y115701D01*
Y110299D01*
X204024Y110045D01*
X203971Y110048D01*
X203353Y110853D01*
X202517Y111494D01*
X201544Y111897D01*
X200500Y112034D01*
X195500D01*
X194456Y111897D01*
X193483Y111494D01*
X192647Y110853D01*
X192006Y110017D01*
X191603Y109044D01*
X191465Y108000D01*
X191603Y106956D01*
X192006Y105983D01*
X192647Y105147D01*
X193483Y104506D01*
X194456Y104103D01*
X195500Y103965D01*
X200500D01*
X201544Y104103D01*
X202517Y104506D01*
X203353Y105147D01*
X203971Y105952D01*
X204024Y105955D01*
X204471Y105701D01*
Y100299D01*
X204024Y100045D01*
X203971Y100048D01*
X203353Y100853D01*
X202517Y101494D01*
X201544Y101897D01*
X200500Y102034D01*
X195500D01*
X194456Y101897D01*
X193483Y101494D01*
X192647Y100853D01*
X192006Y100017D01*
X191603Y99044D01*
X191465Y98000D01*
X191603Y96956D01*
X192006Y95983D01*
X192647Y95147D01*
X193483Y94506D01*
X194456Y94103D01*
X195500Y93966D01*
X200500D01*
X201544Y94103D01*
X202517Y94506D01*
X203353Y95147D01*
X203971Y95952D01*
X204024Y95955D01*
X204471Y95701D01*
Y90299D01*
X204024Y90045D01*
X203971Y90048D01*
X203353Y90853D01*
X202517Y91494D01*
X201544Y91897D01*
X200500Y92035D01*
X195500D01*
X194456Y91897D01*
X193483Y91494D01*
X192647Y90853D01*
X192006Y90017D01*
X191603Y89044D01*
X191465Y88000D01*
X191603Y86956D01*
X192006Y85983D01*
X192647Y85147D01*
X193483Y84506D01*
X194456Y84103D01*
X195500Y83965D01*
X200500D01*
X201544Y84103D01*
X202517Y84506D01*
X203353Y85147D01*
X203971Y85952D01*
X204024Y85955D01*
X204471Y85701D01*
Y80299D01*
X204024Y80045D01*
X203971Y80048D01*
X203353Y80853D01*
X202517Y81494D01*
X201544Y81897D01*
X200500Y82034D01*
X195500D01*
X194456Y81897D01*
X193483Y81494D01*
X192647Y80853D01*
X192006Y80017D01*
X191603Y79044D01*
X191465Y78000D01*
X191603Y76956D01*
X192006Y75983D01*
X192647Y75147D01*
X193483Y74506D01*
X194456Y74103D01*
X195500Y73966D01*
X200500D01*
X201544Y74103D01*
X202517Y74506D01*
X203353Y75147D01*
X203971Y75952D01*
X204024Y75955D01*
X204471Y75701D01*
Y70299D01*
X204024Y70045D01*
X203971Y70048D01*
X203353Y70853D01*
X202517Y71494D01*
X201544Y71897D01*
X200500Y72035D01*
X198500D01*
Y68000D01*
Y63965D01*
X200500D01*
X201544Y64103D01*
X202517Y64506D01*
X203353Y65147D01*
X203971Y65952D01*
X204024Y65955D01*
X204471Y65701D01*
Y60299D01*
X204024Y60045D01*
X203971Y60048D01*
X203353Y60853D01*
X202517Y61494D01*
X201544Y61897D01*
X200500Y62034D01*
X198500D01*
Y58000D01*
Y53966D01*
X200500D01*
X201544Y54103D01*
X202517Y54506D01*
X203353Y55147D01*
X203971Y55952D01*
X204024Y55955D01*
X204471Y55701D01*
Y50299D01*
X204024Y50045D01*
X203971Y50048D01*
X203353Y50853D01*
X202517Y51494D01*
X201544Y51897D01*
X200500Y52034D01*
X195500D01*
X194456Y51897D01*
X193483Y51494D01*
X192647Y50853D01*
X192006Y50017D01*
X191603Y49044D01*
X191465Y48000D01*
X191603Y46956D01*
X192006Y45983D01*
X192647Y45147D01*
X193483Y44506D01*
X194456Y44103D01*
X195500Y43966D01*
X200500D01*
X201544Y44103D01*
X202517Y44506D01*
X203353Y45147D01*
X203971Y45952D01*
X204024Y45955D01*
X204471Y45701D01*
Y40299D01*
X204024Y40045D01*
X203971Y40048D01*
X203353Y40853D01*
X202517Y41494D01*
X201544Y41897D01*
X200500Y42035D01*
X195500D01*
X194456Y41897D01*
X193483Y41494D01*
X192647Y40853D01*
X192006Y40017D01*
X191603Y39044D01*
X191465Y38000D01*
X191603Y36956D01*
X192006Y35983D01*
X192647Y35147D01*
X193483Y34506D01*
X194456Y34103D01*
X195500Y33966D01*
X200500D01*
X201544Y34103D01*
X202517Y34506D01*
X203353Y35147D01*
X203971Y35952D01*
X204024Y35955D01*
X204471Y35701D01*
Y30299D01*
X204024Y30045D01*
X203971Y30048D01*
X203353Y30853D01*
X202517Y31494D01*
X201544Y31897D01*
X200500Y32035D01*
X195500D01*
X194456Y31897D01*
X193483Y31494D01*
X192647Y30853D01*
X192006Y30017D01*
X191603Y29044D01*
X191465Y28000D01*
X191603Y26956D01*
X192006Y25983D01*
X192647Y25147D01*
X193483Y24506D01*
X194456Y24103D01*
X195500Y23966D01*
X200500D01*
X201544Y24103D01*
X202517Y24506D01*
X203353Y25147D01*
X203971Y25952D01*
X204024Y25955D01*
X204471Y25701D01*
Y1529D01*
X200299D01*
X200045Y1976D01*
X200048Y2029D01*
X200853Y2647D01*
X201494Y3483D01*
X201897Y4456D01*
X202034Y5500D01*
Y10500D01*
X201897Y11544D01*
X201494Y12517D01*
X200853Y13353D01*
X200017Y13994D01*
X199044Y14397D01*
X198000Y14535D01*
X196956Y14397D01*
X195983Y13994D01*
X195147Y13353D01*
X194506Y12517D01*
X194103Y11544D01*
X193965Y10500D01*
Y5500D01*
X194103Y4456D01*
X194506Y3483D01*
X195147Y2647D01*
X195952Y2029D01*
X195955Y1976D01*
X195701Y1529D01*
X190299D01*
X190045Y1976D01*
X190048Y2029D01*
X190853Y2647D01*
X191494Y3483D01*
X191897Y4456D01*
X192034Y5500D01*
Y10500D01*
X191897Y11544D01*
X191494Y12517D01*
X190853Y13353D01*
X190017Y13994D01*
X189044Y14397D01*
X188000Y14535D01*
X186956Y14397D01*
X185983Y13994D01*
X185147Y13353D01*
X184506Y12517D01*
X184103Y11544D01*
X183966Y10500D01*
Y5500D01*
X184103Y4456D01*
X184506Y3483D01*
X185147Y2647D01*
X185952Y2029D01*
X185955Y1976D01*
X185701Y1529D01*
X180299D01*
X180045Y1976D01*
X180048Y2029D01*
X180853Y2647D01*
X181494Y3483D01*
X181897Y4456D01*
X182035Y5500D01*
Y10500D01*
X181897Y11544D01*
X181494Y12517D01*
X180853Y13353D01*
X180017Y13994D01*
X179927Y14031D01*
Y54748D01*
X180122Y54878D01*
X180620Y55622D01*
X180794Y56500D01*
X180620Y57378D01*
X180122Y58122D01*
X179378Y58619D01*
X178500Y58794D01*
X177622Y58619D01*
X176878Y58122D01*
X176381Y57378D01*
X176206Y56500D01*
X175917Y56211D01*
X175500Y56294D01*
X174622Y56119D01*
X173878Y55622D01*
X173380Y54878D01*
X173206Y54000D01*
X173380Y53122D01*
X173878Y52378D01*
X174073Y52248D01*
Y26091D01*
X166991Y19009D01*
X166681Y18546D01*
X166573Y18000D01*
X166573Y18000D01*
Y14238D01*
X165983Y13994D01*
X165147Y13353D01*
X164506Y12517D01*
X164103Y11544D01*
X163965Y10500D01*
Y5500D01*
X164103Y4456D01*
X164506Y3483D01*
X165147Y2647D01*
X165952Y2029D01*
X165955Y1976D01*
X165701Y1529D01*
X160299D01*
X160045Y1976D01*
X160048Y2029D01*
X160853Y2647D01*
X161494Y3483D01*
X161897Y4456D01*
X162034Y5500D01*
Y10500D01*
X161897Y11544D01*
X161494Y12517D01*
X160853Y13353D01*
X160017Y13994D01*
X159427Y14238D01*
Y20409D01*
X172009Y32991D01*
X172009Y32991D01*
X172319Y33454D01*
X172427Y34000D01*
X172427Y34000D01*
Y49748D01*
X172622Y49878D01*
X173119Y50622D01*
X173294Y51500D01*
X173119Y52378D01*
X172622Y53122D01*
X171878Y53619D01*
X171000Y53794D01*
X170122Y53619D01*
X169378Y53122D01*
X168866Y53257D01*
X168622Y53622D01*
X167878Y54119D01*
X167000Y54294D01*
X166122Y54119D01*
X165378Y53622D01*
X165248Y53427D01*
X164500D01*
X164500Y53427D01*
X163954Y53319D01*
X163491Y53009D01*
X161991Y51509D01*
X161681Y51046D01*
X161573Y50500D01*
X161573Y50500D01*
Y33091D01*
X146991Y18509D01*
X146681Y18046D01*
X146573Y17500D01*
X146573Y17500D01*
Y14238D01*
X145983Y13994D01*
X145147Y13353D01*
X144506Y12517D01*
X144103Y11544D01*
X143965Y10500D01*
Y5500D01*
X144103Y4456D01*
X144506Y3483D01*
X145147Y2647D01*
X145952Y2029D01*
X145955Y1976D01*
X145701Y1529D01*
X140299D01*
X140045Y1976D01*
X140048Y2029D01*
X140853Y2647D01*
X141494Y3483D01*
X141897Y4456D01*
X142034Y5500D01*
Y10500D01*
X141897Y11544D01*
X141494Y12517D01*
X140853Y13353D01*
X140017Y13994D01*
X139044Y14397D01*
X138000Y14535D01*
X136956Y14397D01*
X135983Y13994D01*
X135147Y13353D01*
X134506Y12517D01*
X134103Y11544D01*
X133966Y10500D01*
Y5500D01*
X134103Y4456D01*
X134506Y3483D01*
X135147Y2647D01*
X135952Y2029D01*
X135955Y1976D01*
X135701Y1529D01*
X130299D01*
X130045Y1976D01*
X130048Y2029D01*
X130853Y2647D01*
X131494Y3483D01*
X131897Y4456D01*
X132035Y5500D01*
Y10500D01*
X131897Y11544D01*
X131494Y12517D01*
X130853Y13353D01*
X130017Y13994D01*
X129044Y14397D01*
X128000Y14535D01*
X126956Y14397D01*
X125983Y13994D01*
X125147Y13353D01*
X124506Y12517D01*
X124103Y11544D01*
X123966Y10500D01*
Y5500D01*
X124103Y4456D01*
X124506Y3483D01*
X125147Y2647D01*
X125952Y2029D01*
X125955Y1976D01*
X125701Y1529D01*
X120299D01*
X120045Y1976D01*
X120048Y2029D01*
X120853Y2647D01*
X121494Y3483D01*
X121897Y4456D01*
X122035Y5500D01*
Y10500D01*
X121897Y11544D01*
X121494Y12517D01*
X120853Y13353D01*
X120017Y13994D01*
X119044Y14397D01*
X118000Y14535D01*
X116956Y14397D01*
X115983Y13994D01*
X115147Y13353D01*
X114506Y12517D01*
X114103Y11544D01*
X113965Y10500D01*
Y5500D01*
X114103Y4456D01*
X114506Y3483D01*
X115147Y2647D01*
X115952Y2029D01*
X115955Y1976D01*
X115701Y1529D01*
X110299D01*
X110045Y1976D01*
X110048Y2029D01*
X110853Y2647D01*
X111494Y3483D01*
X111897Y4456D01*
X112034Y5500D01*
Y10500D01*
X111897Y11544D01*
X111494Y12517D01*
X110853Y13353D01*
X110017Y13994D01*
X109529Y14196D01*
Y16867D01*
X115753Y23090D01*
X116233Y22863D01*
X116381Y22122D01*
X116878Y21378D01*
X117622Y20880D01*
X118500Y20706D01*
X137135D01*
X137622Y20380D01*
X138500Y20206D01*
X139378Y20380D01*
X140122Y20878D01*
X140620Y21622D01*
X140794Y22500D01*
X140620Y23378D01*
X140122Y24122D01*
X139622Y24622D01*
X138878Y25120D01*
X138000Y25294D01*
X118664D01*
X118427Y25764D01*
X118581Y25919D01*
X118913Y26415D01*
X119029Y27000D01*
Y58316D01*
X119122Y58378D01*
X119620Y59122D01*
X119794Y60000D01*
X119620Y60878D01*
X119122Y61622D01*
X118378Y62119D01*
X117500Y62294D01*
X116622Y62119D01*
X115878Y61622D01*
X115381Y60878D01*
X115206Y60000D01*
X115381Y59122D01*
X115878Y58378D01*
X115971Y58316D01*
Y27634D01*
X106919Y18581D01*
X106587Y18085D01*
X106471Y17500D01*
Y14196D01*
X105983Y13994D01*
X105147Y13353D01*
X104506Y12517D01*
X104103Y11544D01*
X103965Y10500D01*
Y5500D01*
X104103Y4456D01*
X104506Y3483D01*
X105147Y2647D01*
X105952Y2029D01*
X105955Y1976D01*
X105701Y1529D01*
X100299D01*
X100045Y1976D01*
X100048Y2029D01*
X100853Y2647D01*
X101494Y3483D01*
X101897Y4456D01*
X102034Y5500D01*
Y7500D01*
X98000D01*
X93966D01*
Y5500D01*
X94103Y4456D01*
X94506Y3483D01*
X95147Y2647D01*
X95952Y2029D01*
X95955Y1976D01*
X95701Y1529D01*
X90299D01*
X90045Y1976D01*
X90048Y2029D01*
X90853Y2647D01*
X91494Y3483D01*
X91897Y4456D01*
X92035Y5500D01*
Y7500D01*
X88000D01*
X83965D01*
Y5500D01*
X84103Y4456D01*
X84506Y3483D01*
X85147Y2647D01*
X85952Y2029D01*
X85955Y1976D01*
X85701Y1529D01*
X80299D01*
X80045Y1976D01*
X80048Y2029D01*
X80853Y2647D01*
X81494Y3483D01*
X81897Y4456D01*
X82034Y5500D01*
Y10500D01*
X81897Y11544D01*
X81494Y12517D01*
X80853Y13353D01*
X80017Y13994D01*
X79044Y14397D01*
X78000Y14535D01*
X76956Y14397D01*
X75983Y13994D01*
X75147Y13353D01*
X74506Y12517D01*
X74103Y11544D01*
X73966Y10500D01*
Y5500D01*
X74103Y4456D01*
X74506Y3483D01*
X75147Y2647D01*
X75952Y2029D01*
X75955Y1976D01*
X75701Y1529D01*
X70299D01*
X70045Y1976D01*
X70048Y2029D01*
X70853Y2647D01*
X71494Y3483D01*
X71897Y4456D01*
X72035Y5500D01*
Y10500D01*
X71897Y11544D01*
X71494Y12517D01*
X70853Y13353D01*
X70017Y13994D01*
X69044Y14397D01*
X68000Y14535D01*
X66956Y14397D01*
X65983Y13994D01*
X65147Y13353D01*
X64506Y12517D01*
X64103Y11544D01*
X63965Y10500D01*
Y5500D01*
X64103Y4456D01*
X64506Y3483D01*
X65147Y2647D01*
X65952Y2029D01*
X65955Y1976D01*
X65701Y1529D01*
X60299D01*
X60045Y1976D01*
X60048Y2029D01*
X60853Y2647D01*
X61494Y3483D01*
X61897Y4456D01*
X62034Y5500D01*
Y10500D01*
X61897Y11544D01*
X61494Y12517D01*
X60853Y13353D01*
X60017Y13994D01*
X59044Y14397D01*
X58000Y14535D01*
X56956Y14397D01*
X55983Y13994D01*
X55147Y13353D01*
X54506Y12517D01*
X54103Y11544D01*
X53966Y10500D01*
Y5500D01*
X54103Y4456D01*
X54506Y3483D01*
X55147Y2647D01*
X55952Y2029D01*
X55955Y1976D01*
X55701Y1529D01*
X50299D01*
X50045Y1976D01*
X50048Y2029D01*
X50853Y2647D01*
X51494Y3483D01*
X51897Y4456D01*
X52034Y5500D01*
Y10500D01*
X51897Y11544D01*
X51494Y12517D01*
X50853Y13353D01*
X50017Y13994D01*
X49529Y14196D01*
Y31316D01*
X49622Y31378D01*
X50120Y32122D01*
X50294Y33000D01*
X50120Y33878D01*
X49622Y34622D01*
X48878Y35120D01*
X48000Y35294D01*
X47122Y35120D01*
X46378Y34622D01*
X45880Y33878D01*
X45706Y33000D01*
X45880Y32122D01*
X46378Y31378D01*
X46471Y31316D01*
Y14196D01*
X45983Y13994D01*
X45147Y13353D01*
X44506Y12517D01*
X44103Y11544D01*
X43966Y10500D01*
Y5500D01*
X44103Y4456D01*
X44506Y3483D01*
X45147Y2647D01*
X45952Y2029D01*
X45955Y1976D01*
X45701Y1529D01*
X40299D01*
X40045Y1976D01*
X40048Y2029D01*
X40853Y2647D01*
X41494Y3483D01*
X41897Y4456D01*
X42035Y5500D01*
Y10500D01*
X41897Y11544D01*
X41494Y12517D01*
X40853Y13353D01*
X40017Y13994D01*
X39427Y14238D01*
Y22409D01*
X39770Y22752D01*
X40000Y22706D01*
X40878Y22881D01*
X41622Y23378D01*
X42120Y24122D01*
X42294Y25000D01*
X42120Y25878D01*
X41622Y26622D01*
X40878Y27119D01*
X40000Y27294D01*
X39122Y27119D01*
X38378Y26622D01*
X37881Y25878D01*
X37706Y25000D01*
X37752Y24770D01*
X36991Y24009D01*
X36681Y23546D01*
X36573Y23000D01*
X36573Y23000D01*
Y14238D01*
X35983Y13994D01*
X35147Y13353D01*
X34506Y12517D01*
X34103Y11544D01*
X33966Y10500D01*
Y5500D01*
X34103Y4456D01*
X34506Y3483D01*
X35147Y2647D01*
X35952Y2029D01*
X35955Y1976D01*
X35701Y1529D01*
X30299D01*
X30045Y1976D01*
X30048Y2029D01*
X30853Y2647D01*
X31494Y3483D01*
X31897Y4456D01*
X32035Y5500D01*
Y10500D01*
X31897Y11544D01*
X31494Y12517D01*
X30853Y13353D01*
X30017Y13994D01*
X29044Y14397D01*
X28000Y14535D01*
X26956Y14397D01*
X25983Y13994D01*
X25147Y13353D01*
X24506Y12517D01*
X24103Y11544D01*
X23966Y10500D01*
Y5500D01*
X24103Y4456D01*
X24506Y3483D01*
X25147Y2647D01*
X25952Y2029D01*
X25955Y1976D01*
X25701Y1529D01*
X20299D01*
X20045Y1976D01*
X20048Y2029D01*
X20853Y2647D01*
X21494Y3483D01*
X21897Y4456D01*
X22035Y5500D01*
Y10500D01*
X21897Y11544D01*
X21494Y12517D01*
X20853Y13353D01*
X20017Y13994D01*
X19044Y14397D01*
X18000Y14535D01*
X16956Y14397D01*
X15983Y13994D01*
X15147Y13353D01*
X14506Y12517D01*
X14103Y11544D01*
X13965Y10500D01*
Y5500D01*
X14103Y4456D01*
X14506Y3483D01*
X15147Y2647D01*
X15952Y2029D01*
X15955Y1976D01*
X15701Y1529D01*
X12000D01*
Y7500D01*
X8000D01*
X4000D01*
Y1529D01*
X1529D01*
Y25701D01*
X1976Y25955D01*
X2029Y25952D01*
X2647Y25147D01*
X3483Y24506D01*
X4456Y24103D01*
X5500Y23966D01*
X10500D01*
X11544Y24103D01*
X12517Y24506D01*
X13353Y25147D01*
X13994Y25983D01*
X14397Y26956D01*
X14535Y28000D01*
X14397Y29044D01*
X13994Y30017D01*
X13353Y30853D01*
X12517Y31494D01*
X11544Y31897D01*
X10500Y32035D01*
X5500D01*
X4456Y31897D01*
X3483Y31494D01*
X2647Y30853D01*
X2029Y30048D01*
X1976Y30045D01*
X1529Y30299D01*
Y35701D01*
X1976Y35955D01*
X2029Y35952D01*
X2647Y35147D01*
X3483Y34506D01*
X4456Y34103D01*
X5500Y33966D01*
X10500D01*
X11544Y34103D01*
X12517Y34506D01*
X13353Y35147D01*
X13994Y35983D01*
X14397Y36956D01*
X14535Y38000D01*
X14397Y39044D01*
X13994Y40017D01*
X13353Y40853D01*
X12517Y41494D01*
X11544Y41897D01*
X10500Y42035D01*
X5500D01*
X4456Y41897D01*
X3483Y41494D01*
X2647Y40853D01*
X2029Y40048D01*
X1976Y40045D01*
X1529Y40299D01*
Y45701D01*
X1976Y45955D01*
X2029Y45952D01*
X2647Y45147D01*
X3483Y44506D01*
X4456Y44103D01*
X5500Y43966D01*
X10500D01*
X11544Y44103D01*
X12517Y44506D01*
X13353Y45147D01*
X13994Y45983D01*
X14397Y46956D01*
X14535Y48000D01*
X14397Y49044D01*
X13994Y50017D01*
X13353Y50853D01*
X12517Y51494D01*
X11544Y51897D01*
X10500Y52034D01*
X5500D01*
X4456Y51897D01*
X3483Y51494D01*
X2647Y50853D01*
X2029Y50048D01*
X1976Y50045D01*
X1529Y50299D01*
Y55701D01*
X1976Y55955D01*
X2029Y55952D01*
X2647Y55147D01*
X3483Y54506D01*
X4456Y54103D01*
X5500Y53966D01*
X10500D01*
X11544Y54103D01*
X12517Y54506D01*
X13353Y55147D01*
X13994Y55983D01*
X14196Y56471D01*
X25816D01*
X25878Y56378D01*
X26622Y55881D01*
X27500Y55706D01*
X28378Y55881D01*
X29122Y56378D01*
X29620Y57122D01*
X29794Y58000D01*
X29620Y58878D01*
X29122Y59622D01*
X28378Y60119D01*
X27500Y60294D01*
X26622Y60119D01*
X25878Y59622D01*
X25816Y59529D01*
X14196D01*
X13994Y60017D01*
X13353Y60853D01*
X12517Y61494D01*
X11544Y61897D01*
X10500Y62034D01*
X5500D01*
X4456Y61897D01*
X3483Y61494D01*
X2647Y60853D01*
X2029Y60048D01*
X1976Y60045D01*
X1529Y60299D01*
Y65701D01*
X1976Y65955D01*
X2029Y65952D01*
X2647Y65147D01*
X3483Y64506D01*
X4456Y64103D01*
X5500Y63965D01*
X7500D01*
Y68000D01*
Y72035D01*
X5500D01*
X4456Y71897D01*
X3483Y71494D01*
X2647Y70853D01*
X2029Y70048D01*
X1976Y70045D01*
X1529Y70299D01*
Y75701D01*
X1976Y75955D01*
X2029Y75952D01*
X2647Y75147D01*
X3483Y74506D01*
X4456Y74103D01*
X5500Y73966D01*
X7500D01*
Y78000D01*
Y82034D01*
X5500D01*
X4456Y81897D01*
X3483Y81494D01*
X2647Y80853D01*
X2029Y80048D01*
X1976Y80045D01*
X1529Y80299D01*
Y85701D01*
X1976Y85955D01*
X2029Y85952D01*
X2647Y85147D01*
X3483Y84506D01*
X4456Y84103D01*
X5500Y83965D01*
X10500D01*
X11544Y84103D01*
X12517Y84506D01*
X13353Y85147D01*
X13994Y85983D01*
X14397Y86956D01*
X14535Y88000D01*
X14397Y89044D01*
X13994Y90017D01*
X13353Y90853D01*
X12517Y91494D01*
X11544Y91897D01*
X10500Y92035D01*
X5500D01*
X4456Y91897D01*
X3483Y91494D01*
X2647Y90853D01*
X2029Y90048D01*
X1976Y90045D01*
X1529Y90299D01*
Y95701D01*
X1976Y95955D01*
X2029Y95952D01*
X2647Y95147D01*
X3483Y94506D01*
X4456Y94103D01*
X5500Y93966D01*
X10500D01*
X11544Y94103D01*
X12517Y94506D01*
X13353Y95147D01*
X13994Y95983D01*
X14397Y96956D01*
X14535Y98000D01*
X14397Y99044D01*
X13994Y100017D01*
X13353Y100853D01*
X12517Y101494D01*
X11544Y101897D01*
X10500Y102034D01*
X5500D01*
X4456Y101897D01*
X3483Y101494D01*
X2647Y100853D01*
X2029Y100048D01*
X1976Y100045D01*
X1529Y100299D01*
Y105701D01*
X1976Y105955D01*
X2029Y105952D01*
X2647Y105147D01*
X3483Y104506D01*
X4456Y104103D01*
X5500Y103965D01*
X10500D01*
X11544Y104103D01*
X12517Y104506D01*
X13353Y105147D01*
X13994Y105983D01*
X14397Y106956D01*
X14535Y108000D01*
X14397Y109044D01*
X13994Y110017D01*
X13353Y110853D01*
X12517Y111494D01*
X11544Y111897D01*
X10500Y112034D01*
X5500D01*
X4456Y111897D01*
X3483Y111494D01*
X2647Y110853D01*
X2029Y110048D01*
X1976Y110045D01*
X1529Y110299D01*
Y115701D01*
X1976Y115955D01*
X2029Y115952D01*
X2647Y115147D01*
X3483Y114506D01*
X4456Y114103D01*
X5500Y113965D01*
X10500D01*
X11544Y114103D01*
X12517Y114506D01*
X13353Y115147D01*
X13994Y115983D01*
X14397Y116956D01*
X14535Y118000D01*
X14397Y119044D01*
X13994Y120017D01*
X13353Y120853D01*
X12517Y121494D01*
X11544Y121897D01*
X10500Y122035D01*
X5500D01*
X4456Y121897D01*
X3483Y121494D01*
X2647Y120853D01*
X2029Y120048D01*
X1976Y120045D01*
X1529Y120299D01*
Y125701D01*
X1976Y125955D01*
X2029Y125952D01*
X2647Y125147D01*
X3483Y124506D01*
X4456Y124103D01*
X5500Y123966D01*
X10500D01*
X11544Y124103D01*
X12517Y124506D01*
X13353Y125147D01*
X13994Y125983D01*
X14397Y126956D01*
X14535Y128000D01*
X14397Y129044D01*
X13994Y130017D01*
X13353Y130853D01*
X12517Y131494D01*
X11544Y131897D01*
X10500Y132035D01*
X5500D01*
X4456Y131897D01*
X3483Y131494D01*
X2647Y130853D01*
X2029Y130048D01*
X1976Y130045D01*
X1529Y130299D01*
Y135701D01*
X1976Y135955D01*
X2029Y135952D01*
X2647Y135147D01*
X3483Y134506D01*
X4456Y134103D01*
X5500Y133966D01*
X10500D01*
X11544Y134103D01*
X12517Y134506D01*
X13353Y135147D01*
X13994Y135983D01*
X14397Y136956D01*
X14535Y138000D01*
X14397Y139044D01*
X13994Y140017D01*
X13353Y140853D01*
X12517Y141494D01*
X11544Y141897D01*
X10500Y142034D01*
X5500D01*
X4456Y141897D01*
X3483Y141494D01*
X2647Y140853D01*
X2029Y140048D01*
X1976Y140045D01*
X1529Y140299D01*
Y145701D01*
X1976Y145955D01*
X2029Y145952D01*
X2647Y145147D01*
X3483Y144506D01*
X4456Y144103D01*
X5500Y143965D01*
X10500D01*
X11544Y144103D01*
X12517Y144506D01*
X13353Y145147D01*
X13994Y145983D01*
X14397Y146956D01*
X14535Y148000D01*
X14397Y149044D01*
X13994Y150017D01*
X13353Y150853D01*
X12517Y151494D01*
X11544Y151897D01*
X10500Y152034D01*
X5500D01*
X4456Y151897D01*
X3483Y151494D01*
X2647Y150853D01*
X2029Y150048D01*
X1976Y150045D01*
X1529Y150299D01*
Y155701D01*
X1976Y155955D01*
X2029Y155952D01*
X2647Y155147D01*
X3483Y154506D01*
X4456Y154103D01*
X5500Y153965D01*
X10500D01*
X11544Y154103D01*
X12517Y154506D01*
X13353Y155147D01*
X13994Y155983D01*
X14397Y156956D01*
X14535Y158000D01*
X14397Y159044D01*
X13994Y160017D01*
X13353Y160853D01*
X12517Y161494D01*
X11544Y161897D01*
X10500Y162034D01*
X5500D01*
X4456Y161897D01*
X3483Y161494D01*
X2647Y160853D01*
X2029Y160048D01*
X1976Y160045D01*
X1529Y160299D01*
Y165701D01*
X1976Y165955D01*
X2029Y165952D01*
X2647Y165147D01*
X3483Y164506D01*
X4456Y164103D01*
X5500Y163965D01*
X7500D01*
Y168000D01*
Y172035D01*
X5500D01*
X4456Y171897D01*
X3483Y171494D01*
X2647Y170853D01*
X2029Y170048D01*
X1976Y170045D01*
X1529Y170299D01*
Y175701D01*
X1976Y175955D01*
X2029Y175952D01*
X2647Y175147D01*
X3483Y174506D01*
X4456Y174103D01*
X5500Y173966D01*
X10500D01*
X11544Y174103D01*
X12517Y174506D01*
X13353Y175147D01*
X13994Y175983D01*
X14397Y176956D01*
X14535Y178000D01*
X14397Y179044D01*
X13994Y180017D01*
X13353Y180853D01*
X12517Y181494D01*
X11544Y181897D01*
X10500Y182035D01*
X5500D01*
X4456Y181897D01*
X3483Y181494D01*
X2647Y180853D01*
X2029Y180048D01*
X1976Y180045D01*
X1529Y180299D01*
Y185701D01*
X1976Y185955D01*
X2029Y185952D01*
X2647Y185147D01*
X3483Y184506D01*
X4456Y184103D01*
X5500Y183966D01*
X7500D01*
Y188000D01*
Y192034D01*
X5500D01*
X4456Y191897D01*
X3483Y191494D01*
X2647Y190853D01*
X2029Y190048D01*
X1976Y190045D01*
X1529Y190299D01*
Y195701D01*
X1976Y195955D01*
X2029Y195952D01*
X2647Y195147D01*
X3483Y194506D01*
X4456Y194103D01*
X5500Y193965D01*
X10500D01*
X11544Y194103D01*
X12517Y194506D01*
X13353Y195147D01*
X13994Y195983D01*
X14397Y196956D01*
X14535Y198000D01*
X14397Y199044D01*
X13994Y200017D01*
X13353Y200853D01*
X12517Y201494D01*
X11544Y201897D01*
X10500Y202034D01*
X5500D01*
X4456Y201897D01*
X3483Y201494D01*
X2647Y200853D01*
X2029Y200048D01*
X1976Y200045D01*
X1529Y200299D01*
Y205701D01*
X1976Y205955D01*
X2029Y205952D01*
X2647Y205147D01*
X3483Y204506D01*
X4456Y204103D01*
X5500Y203965D01*
X7500D01*
Y208000D01*
Y212035D01*
X5500D01*
X4456Y211897D01*
X3483Y211494D01*
X2647Y210853D01*
X2029Y210048D01*
X1976Y210045D01*
X1529Y210299D01*
Y214000D01*
X14500D01*
Y222000D01*
X1529D01*
Y252471D01*
X204471D01*
Y222000D01*
D02*
G37*
%LPC*%
G36*
X384000Y506042D02*
X381882Y505875D01*
X379815Y505379D01*
X377852Y504566D01*
X376040Y503455D01*
X374425Y502075D01*
X373044Y500460D01*
X371934Y498648D01*
X371121Y496685D01*
X370625Y494618D01*
X370458Y492500D01*
X370625Y490382D01*
X371121Y488315D01*
X371934Y486352D01*
X373044Y484540D01*
X374425Y482925D01*
X376040Y481544D01*
X377852Y480434D01*
X379815Y479621D01*
X381882Y479125D01*
X384000Y478958D01*
X386118Y479125D01*
X388185Y479621D01*
X390148Y480434D01*
X391960Y481544D01*
X393576Y482925D01*
X394955Y484540D01*
X396066Y486352D01*
X396879Y488315D01*
X397375Y490382D01*
X397542Y492500D01*
X397375Y494618D01*
X396879Y496685D01*
X396066Y498648D01*
X394955Y500460D01*
X393576Y502075D01*
X391960Y503455D01*
X390148Y504566D01*
X388185Y505379D01*
X386118Y505875D01*
X384000Y506042D01*
D02*
G37*
G36*
X234000D02*
X231882Y505875D01*
X229815Y505379D01*
X227852Y504566D01*
X226040Y503455D01*
X224425Y502075D01*
X223044Y500460D01*
X221934Y498648D01*
X221121Y496685D01*
X220625Y494618D01*
X220458Y492500D01*
X220625Y490382D01*
X221121Y488315D01*
X221934Y486352D01*
X223044Y484540D01*
X224425Y482925D01*
X226040Y481544D01*
X227852Y480434D01*
X229815Y479621D01*
X231882Y479125D01*
X234000Y478958D01*
X236118Y479125D01*
X238185Y479621D01*
X240148Y480434D01*
X241960Y481544D01*
X243576Y482925D01*
X244955Y484540D01*
X246066Y486352D01*
X246879Y488315D01*
X247375Y490382D01*
X247542Y492500D01*
X247375Y494618D01*
X246879Y496685D01*
X246066Y498648D01*
X244955Y500460D01*
X243576Y502075D01*
X241960Y503455D01*
X240148Y504566D01*
X238185Y505379D01*
X236118Y505875D01*
X234000Y506042D01*
D02*
G37*
G36*
X403500Y476500D02*
X397500D01*
Y473000D01*
X403500D01*
Y476500D01*
D02*
G37*
G36*
Y472000D02*
X397500D01*
Y468500D01*
X403500D01*
Y472000D01*
D02*
G37*
G36*
X216500Y466535D02*
X214500D01*
Y463000D01*
X220469D01*
X220397Y463544D01*
X219994Y464517D01*
X219353Y465353D01*
X218517Y465994D01*
X217544Y466397D01*
X216500Y466535D01*
D02*
G37*
G36*
X220469Y462000D02*
X214500D01*
Y458465D01*
X216500D01*
X217544Y458603D01*
X218517Y459006D01*
X219353Y459647D01*
X219994Y460483D01*
X220397Y461456D01*
X220469Y462000D01*
D02*
G37*
G36*
X403500Y446534D02*
X401500D01*
X400456Y446397D01*
X399483Y445994D01*
X398647Y445353D01*
X398006Y444517D01*
X397603Y443544D01*
X397531Y443000D01*
X403500D01*
Y446534D01*
D02*
G37*
G36*
X216500D02*
X214500D01*
Y443000D01*
X220469D01*
X220397Y443544D01*
X219994Y444517D01*
X219353Y445353D01*
X218517Y445994D01*
X217544Y446397D01*
X216500Y446534D01*
D02*
G37*
G36*
X299000Y441294D02*
X298122Y441119D01*
X297378Y440622D01*
X297316Y440529D01*
X291184D01*
X291122Y440622D01*
X290378Y441119D01*
X289500Y441294D01*
X288622Y441119D01*
X287878Y440622D01*
X287381Y439878D01*
X287206Y439000D01*
X287381Y438122D01*
X287878Y437378D01*
X288622Y436881D01*
X289500Y436706D01*
X290378Y436881D01*
X291122Y437378D01*
X291184Y437471D01*
X297316D01*
X297378Y437378D01*
X298122Y436881D01*
X299000Y436706D01*
X299878Y436881D01*
X300622Y437378D01*
X301119Y438122D01*
X301294Y439000D01*
X301119Y439878D01*
X300622Y440622D01*
X299878Y441119D01*
X299000Y441294D01*
D02*
G37*
G36*
X403500Y442000D02*
X397531D01*
X397603Y441456D01*
X398006Y440483D01*
X398647Y439647D01*
X399483Y439006D01*
X400456Y438603D01*
X401500Y438465D01*
X403500D01*
Y442000D01*
D02*
G37*
G36*
X220469D02*
X214500D01*
Y438465D01*
X216500D01*
X217544Y438603D01*
X218517Y439006D01*
X219353Y439647D01*
X219994Y440483D01*
X220397Y441456D01*
X220469Y442000D01*
D02*
G37*
G36*
X247000Y427794D02*
X246122Y427619D01*
X245378Y427122D01*
X244881Y426378D01*
X244706Y425500D01*
X244752Y425270D01*
X242241Y422759D01*
X241931Y422296D01*
X241823Y421750D01*
X241823Y421750D01*
Y420024D01*
X241436Y419707D01*
X241000Y419794D01*
X240122Y419619D01*
X239378Y419122D01*
X239122D01*
X238378Y419619D01*
X237500Y419794D01*
X236622Y419619D01*
X235878Y419122D01*
X235783Y418981D01*
X235283D01*
X235122Y419222D01*
X234378Y419719D01*
X233500Y419894D01*
X232622Y419719D01*
X231878Y419222D01*
X231381Y418478D01*
X231206Y417600D01*
X231381Y416722D01*
X231878Y415978D01*
X232622Y415481D01*
X233073Y415391D01*
Y407252D01*
X232878Y407122D01*
X232381Y406378D01*
X232206Y405500D01*
X232381Y404622D01*
X232878Y403878D01*
X233622Y403380D01*
X234500Y403206D01*
X235378Y403380D01*
X236122Y403878D01*
X236619Y404622D01*
X236647Y404760D01*
X237500Y404590D01*
X237753Y404640D01*
X237948Y404169D01*
X237878Y404122D01*
X237381Y403378D01*
X237206Y402500D01*
X237381Y401622D01*
X237878Y400878D01*
X238622Y400381D01*
X239500Y400206D01*
X240378Y400381D01*
X241122Y400878D01*
X241619Y401622D01*
X241794Y402500D01*
X241737Y402787D01*
X242157Y403237D01*
X242878Y403380D01*
X243622Y403878D01*
X244120Y404622D01*
X244294Y405500D01*
X244248Y405730D01*
X244259Y405741D01*
X244259Y405741D01*
X244569Y406204D01*
X244677Y406750D01*
X244677Y406750D01*
Y421159D01*
X246770Y423252D01*
X247000Y423206D01*
X247878Y423381D01*
X248622Y423878D01*
X249119Y424622D01*
X249294Y425500D01*
X249119Y426378D01*
X248622Y427122D01*
X247878Y427619D01*
X247000Y427794D01*
D02*
G37*
G36*
X216500Y426535D02*
X214500D01*
Y423000D01*
X220469D01*
X220397Y423544D01*
X219994Y424517D01*
X219353Y425353D01*
X218517Y425994D01*
X217544Y426397D01*
X216500Y426535D01*
D02*
G37*
G36*
X220469Y422000D02*
X214500D01*
Y418466D01*
X216500D01*
X217544Y418603D01*
X218517Y419006D01*
X219353Y419647D01*
X219994Y420483D01*
X220397Y421456D01*
X220469Y422000D01*
D02*
G37*
G36*
X403500Y416535D02*
X401500D01*
X400456Y416397D01*
X399483Y415994D01*
X398647Y415353D01*
X398006Y414517D01*
X397603Y413544D01*
X397531Y413000D01*
X403500D01*
Y416535D01*
D02*
G37*
G36*
X296500Y413794D02*
X295622Y413619D01*
X294878Y413122D01*
X294380Y412378D01*
X294206Y411500D01*
X294380Y410622D01*
X294878Y409878D01*
X295622Y409380D01*
X296500Y409206D01*
X297378Y409380D01*
X297513Y409471D01*
X314816D01*
X314878Y409378D01*
X315622Y408881D01*
X316500Y408706D01*
X317378Y408881D01*
X318122Y409378D01*
X318619Y410122D01*
X318794Y411000D01*
X318619Y411878D01*
X318122Y412622D01*
X317378Y413119D01*
X316500Y413294D01*
X315622Y413119D01*
X314878Y412622D01*
X314816Y412529D01*
X298518D01*
X298122Y413122D01*
X297378Y413619D01*
X296500Y413794D01*
D02*
G37*
G36*
X403500Y412000D02*
X397531D01*
X397603Y411456D01*
X398006Y410483D01*
X398647Y409647D01*
X399483Y409006D01*
X400456Y408603D01*
X401500Y408465D01*
X403500D01*
Y412000D01*
D02*
G37*
G36*
Y396534D02*
X401500D01*
X400456Y396397D01*
X399483Y395994D01*
X398647Y395353D01*
X398006Y394517D01*
X397603Y393544D01*
X397531Y393000D01*
X403500D01*
Y396534D01*
D02*
G37*
G36*
X354000Y392294D02*
X353122Y392120D01*
X352378Y391622D01*
X352316Y391529D01*
X345684D01*
X345622Y391622D01*
X344878Y392120D01*
X344000Y392294D01*
X343122Y392120D01*
X342378Y391622D01*
X341880Y390878D01*
X341706Y390000D01*
X341880Y389122D01*
X342378Y388378D01*
X343122Y387880D01*
X344000Y387706D01*
X344878Y387880D01*
X345622Y388378D01*
X345684Y388471D01*
X352316D01*
X352378Y388378D01*
X353122Y387880D01*
X354000Y387706D01*
X354878Y387880D01*
X355622Y388378D01*
X356119Y389122D01*
X356294Y390000D01*
X356119Y390878D01*
X355622Y391622D01*
X354878Y392120D01*
X354000Y392294D01*
D02*
G37*
G36*
X403500Y392000D02*
X397531D01*
X397603Y391456D01*
X398006Y390483D01*
X398647Y389647D01*
X399483Y389006D01*
X400456Y388603D01*
X401500Y388465D01*
X403500D01*
Y392000D01*
D02*
G37*
G36*
Y386535D02*
X401500D01*
X400456Y386397D01*
X399483Y385994D01*
X398647Y385353D01*
X398006Y384517D01*
X397603Y383544D01*
X397531Y383000D01*
X403500D01*
Y386535D01*
D02*
G37*
G36*
Y382000D02*
X397531D01*
X397603Y381456D01*
X398006Y380483D01*
X398647Y379647D01*
X399483Y379006D01*
X400456Y378603D01*
X401500Y378466D01*
X403500D01*
Y382000D01*
D02*
G37*
G36*
X307000Y402294D02*
X306122Y402119D01*
X305378Y401622D01*
X304880Y400878D01*
X304706Y400000D01*
X304880Y399122D01*
X305378Y398378D01*
X305471Y398316D01*
Y380684D01*
X305378Y380622D01*
X304880Y379878D01*
X304706Y379000D01*
X304880Y378122D01*
X305378Y377378D01*
X306122Y376881D01*
X307000Y376706D01*
X307878Y376881D01*
X308622Y377378D01*
X309120Y378122D01*
X309294Y379000D01*
X309120Y379878D01*
X308622Y380622D01*
X308529Y380684D01*
Y398316D01*
X308622Y398378D01*
X309120Y399122D01*
X309294Y400000D01*
X309120Y400878D01*
X308622Y401622D01*
X307878Y402119D01*
X307000Y402294D01*
D02*
G37*
G36*
X248000Y374794D02*
X247122Y374620D01*
X246378Y374122D01*
X246316Y374029D01*
X235184D01*
X235122Y374122D01*
X234378Y374620D01*
X233500Y374794D01*
X232622Y374620D01*
X231878Y374122D01*
X231381Y373378D01*
X231206Y372500D01*
X231381Y371622D01*
X231878Y370878D01*
X232622Y370380D01*
X233500Y370206D01*
X234378Y370380D01*
X235122Y370878D01*
X235184Y370971D01*
X246316D01*
X246378Y370878D01*
X247122Y370380D01*
X248000Y370206D01*
X248878Y370380D01*
X249622Y370878D01*
X250119Y371622D01*
X250294Y372500D01*
X250119Y373378D01*
X249622Y374122D01*
X248878Y374620D01*
X248000Y374794D01*
D02*
G37*
G36*
X292000D02*
X291122Y374620D01*
X290378Y374122D01*
X289880Y373378D01*
X289706Y372500D01*
X289880Y371622D01*
X290378Y370878D01*
X291122Y370380D01*
X292000Y370206D01*
X292878Y370380D01*
X293622Y370878D01*
X293684Y370971D01*
X314212D01*
X314381Y370122D01*
X314878Y369378D01*
X315622Y368881D01*
X316500Y368706D01*
X317378Y368881D01*
X318122Y369378D01*
X318619Y370122D01*
X318794Y371000D01*
X318619Y371878D01*
X318122Y372622D01*
X317378Y373119D01*
X316500Y373294D01*
X316391Y373272D01*
X316081Y373581D01*
X315585Y373913D01*
X315000Y374029D01*
X293684D01*
X293622Y374122D01*
X292878Y374620D01*
X292000Y374794D01*
D02*
G37*
G36*
X346500Y351017D02*
Y347000D01*
X350517D01*
X350426Y347686D01*
X349969Y348791D01*
X349240Y349740D01*
X348291Y350469D01*
X347186Y350926D01*
X346500Y351017D01*
D02*
G37*
G36*
X345500D02*
X344814Y350926D01*
X343709Y350469D01*
X342760Y349740D01*
X342031Y348791D01*
X341574Y347686D01*
X341483Y347000D01*
X345500D01*
Y351017D01*
D02*
G37*
G36*
X350517Y346000D02*
X346500D01*
Y341983D01*
X347186Y342074D01*
X348291Y342531D01*
X349240Y343260D01*
X349969Y344209D01*
X350426Y345314D01*
X350517Y346000D01*
D02*
G37*
G36*
X345500D02*
X341483D01*
X341574Y345314D01*
X342031Y344209D01*
X342760Y343260D01*
X343709Y342531D01*
X344814Y342074D01*
X345500Y341983D01*
Y346000D01*
D02*
G37*
G36*
X336000Y351082D02*
X334814Y350926D01*
X333709Y350469D01*
X332760Y349740D01*
X332031Y348791D01*
X331574Y347686D01*
X331417Y346500D01*
X331574Y345314D01*
X332031Y344209D01*
X332760Y343260D01*
X333709Y342531D01*
X334814Y342074D01*
X336000Y341917D01*
X337186Y342074D01*
X338291Y342531D01*
X339240Y343260D01*
X339969Y344209D01*
X340426Y345314D01*
X340582Y346500D01*
X340426Y347686D01*
X339969Y348791D01*
X339240Y349740D01*
X338291Y350469D01*
X337186Y350926D01*
X336000Y351082D01*
D02*
G37*
G36*
X326000D02*
X324814Y350926D01*
X323709Y350469D01*
X322760Y349740D01*
X322031Y348791D01*
X321574Y347686D01*
X321417Y346500D01*
X321574Y345314D01*
X322031Y344209D01*
X322760Y343260D01*
X323709Y342531D01*
X324814Y342074D01*
X326000Y341917D01*
X327186Y342074D01*
X328291Y342531D01*
X329240Y343260D01*
X329969Y344209D01*
X330426Y345314D01*
X330582Y346500D01*
X330426Y347686D01*
X329969Y348791D01*
X329240Y349740D01*
X328291Y350469D01*
X327186Y350926D01*
X326000Y351082D01*
D02*
G37*
G36*
X216500Y336535D02*
X214500D01*
Y333000D01*
X220469D01*
X220397Y333544D01*
X219994Y334517D01*
X219353Y335353D01*
X218517Y335994D01*
X217544Y336397D01*
X216500Y336535D01*
D02*
G37*
G36*
X330543Y341043D02*
X321457D01*
Y331957D01*
X330543D01*
Y341043D01*
D02*
G37*
G36*
X346000Y341083D02*
X344814Y340926D01*
X343709Y340469D01*
X342760Y339740D01*
X342031Y338791D01*
X341574Y337686D01*
X341418Y336500D01*
X341574Y335314D01*
X342031Y334209D01*
X342760Y333260D01*
X343709Y332531D01*
X344814Y332074D01*
X346000Y331918D01*
X347186Y332074D01*
X348291Y332531D01*
X349240Y333260D01*
X349969Y334209D01*
X350426Y335314D01*
X350583Y336500D01*
X350426Y337686D01*
X349969Y338791D01*
X349240Y339740D01*
X348291Y340469D01*
X347186Y340926D01*
X346000Y341083D01*
D02*
G37*
G36*
X336000D02*
X334814Y340926D01*
X333709Y340469D01*
X332760Y339740D01*
X332031Y338791D01*
X331574Y337686D01*
X331417Y336500D01*
X331574Y335314D01*
X332031Y334209D01*
X332760Y333260D01*
X333709Y332531D01*
X334814Y332074D01*
X336000Y331918D01*
X337186Y332074D01*
X338291Y332531D01*
X339240Y333260D01*
X339969Y334209D01*
X340426Y335314D01*
X340582Y336500D01*
X340426Y337686D01*
X339969Y338791D01*
X339240Y339740D01*
X338291Y340469D01*
X337186Y340926D01*
X336000Y341083D01*
D02*
G37*
G36*
X220469Y332000D02*
X214500D01*
Y328466D01*
X216500D01*
X217544Y328603D01*
X218517Y329006D01*
X219353Y329647D01*
X219994Y330483D01*
X220397Y331456D01*
X220469Y332000D01*
D02*
G37*
G36*
X403500Y326535D02*
X401500D01*
X400456Y326397D01*
X399483Y325994D01*
X398647Y325353D01*
X398006Y324517D01*
X397603Y323544D01*
X397531Y323000D01*
X403500D01*
Y326535D01*
D02*
G37*
G36*
X216500D02*
X214500D01*
Y323000D01*
X220469D01*
X220397Y323544D01*
X219994Y324517D01*
X219353Y325353D01*
X218517Y325994D01*
X217544Y326397D01*
X216500Y326535D01*
D02*
G37*
G36*
X297500Y334294D02*
X296622Y334120D01*
X295878Y333622D01*
X295380Y332878D01*
X295206Y332000D01*
X295380Y331122D01*
X295878Y330378D01*
X296558Y329924D01*
X298749Y327732D01*
X298620Y327491D01*
X298483Y327291D01*
X297622Y327119D01*
X296878Y326622D01*
X296380Y325878D01*
X296206Y325000D01*
X296380Y324122D01*
X296878Y323378D01*
X297073Y323248D01*
Y321500D01*
X297073Y321500D01*
X297181Y320954D01*
X297491Y320491D01*
X299752Y318230D01*
X299706Y318000D01*
X299881Y317122D01*
X300378Y316378D01*
X301122Y315880D01*
X302000Y315706D01*
X302878Y315880D01*
X303622Y316378D01*
X304119Y317122D01*
X304294Y318000D01*
X304119Y318878D01*
X303622Y319622D01*
X302878Y320120D01*
X302000Y320294D01*
X301770Y320248D01*
X299927Y322091D01*
Y323248D01*
X300122Y323378D01*
X300620Y324122D01*
X300791Y324983D01*
X300991Y325120D01*
X301232Y325249D01*
X304252Y322230D01*
X304206Y322000D01*
X304380Y321122D01*
X304878Y320378D01*
X305622Y319881D01*
X306500Y319706D01*
X307378Y319881D01*
X308122Y320378D01*
X308619Y321122D01*
X308794Y322000D01*
X308619Y322878D01*
X308122Y323622D01*
X307378Y324119D01*
X306500Y324294D01*
X306270Y324248D01*
X299530Y330989D01*
X299620Y331122D01*
X299794Y332000D01*
X299620Y332878D01*
X299122Y333622D01*
X298378Y334120D01*
X297500Y334294D01*
D02*
G37*
G36*
X403500Y322000D02*
X397531D01*
X397603Y321456D01*
X398006Y320483D01*
X398647Y319647D01*
X399483Y319006D01*
X400456Y318603D01*
X401500Y318465D01*
X403500D01*
Y322000D01*
D02*
G37*
G36*
X220469D02*
X214500D01*
Y318465D01*
X216500D01*
X217544Y318603D01*
X218517Y319006D01*
X219353Y319647D01*
X219994Y320483D01*
X220397Y321456D01*
X220469Y322000D01*
D02*
G37*
G36*
X403500Y316534D02*
X401500D01*
X400456Y316397D01*
X399483Y315994D01*
X398647Y315353D01*
X398006Y314517D01*
X397603Y313544D01*
X397531Y313000D01*
X403500D01*
Y316534D01*
D02*
G37*
G36*
Y312000D02*
X397531D01*
X397603Y311456D01*
X398006Y310483D01*
X398647Y309647D01*
X399483Y309006D01*
X400456Y308603D01*
X401500Y308466D01*
X403500D01*
Y312000D01*
D02*
G37*
G36*
X379000Y315294D02*
X368500D01*
X367622Y315120D01*
X366878Y314622D01*
X361378Y309122D01*
X360880Y308378D01*
X360706Y307500D01*
Y305000D01*
X360880Y304122D01*
X361378Y303378D01*
X362122Y302881D01*
X363000Y302706D01*
X363878Y302881D01*
X364622Y303378D01*
X365120Y304122D01*
X365294Y305000D01*
Y306550D01*
X369450Y310706D01*
X379000D01*
X379878Y310880D01*
X380622Y311378D01*
X381119Y312122D01*
X381294Y313000D01*
X381119Y313878D01*
X380622Y314622D01*
X379878Y315120D01*
X379000Y315294D01*
D02*
G37*
G36*
X284000Y311294D02*
X283122Y311120D01*
X282378Y310622D01*
X281880Y309878D01*
X281706Y309000D01*
X281880Y308122D01*
X282378Y307378D01*
X282471Y307316D01*
Y296684D01*
X282378Y296622D01*
X281880Y295878D01*
X281706Y295000D01*
X281880Y294122D01*
X282378Y293378D01*
X283052Y292927D01*
X283041Y292640D01*
X282969Y292427D01*
X278591D01*
X274248Y296770D01*
X274294Y297000D01*
X274119Y297878D01*
X273622Y298622D01*
X272878Y299119D01*
X272000Y299294D01*
X271122Y299119D01*
X270378Y298622D01*
X269881Y297878D01*
X269706Y297000D01*
X269881Y296122D01*
X270378Y295378D01*
X271122Y294881D01*
X272000Y294706D01*
X272230Y294752D01*
X276991Y289991D01*
X276991Y289991D01*
X277454Y289681D01*
X278000Y289573D01*
X278000Y289573D01*
X284748D01*
X284878Y289378D01*
X285622Y288880D01*
X286500Y288706D01*
X287378Y288880D01*
X288122Y289378D01*
X288619Y290122D01*
X288794Y291000D01*
X288619Y291878D01*
X288122Y292622D01*
X287378Y293120D01*
X286500Y293294D01*
X286117Y293218D01*
X285816Y293668D01*
X286120Y294122D01*
X286294Y295000D01*
X286120Y295878D01*
X285622Y296622D01*
X285529Y296684D01*
Y307316D01*
X285622Y307378D01*
X286120Y308122D01*
X286294Y309000D01*
X286120Y309878D01*
X285622Y310622D01*
X284878Y311120D01*
X284000Y311294D01*
D02*
G37*
G36*
X304000Y306042D02*
X301882Y305875D01*
X299815Y305379D01*
X297852Y304566D01*
X296040Y303455D01*
X294425Y302076D01*
X293044Y300460D01*
X291934Y298648D01*
X291121Y296685D01*
X290625Y294618D01*
X290458Y292500D01*
X290625Y290382D01*
X291121Y288315D01*
X291934Y286352D01*
X293044Y284540D01*
X294425Y282925D01*
X296040Y281544D01*
X297852Y280434D01*
X299815Y279621D01*
X301882Y279125D01*
X304000Y278958D01*
X306118Y279125D01*
X308185Y279621D01*
X310148Y280434D01*
X311960Y281544D01*
X313576Y282925D01*
X314955Y284540D01*
X316066Y286352D01*
X316879Y288315D01*
X317375Y290382D01*
X317542Y292500D01*
X317375Y294618D01*
X316879Y296685D01*
X316066Y298648D01*
X314955Y300460D01*
X313576Y302076D01*
X311960Y303455D01*
X310148Y304566D01*
X308185Y305379D01*
X306118Y305875D01*
X304000Y306042D01*
D02*
G37*
G36*
X264500Y289294D02*
X261000D01*
X260122Y289120D01*
X259378Y288622D01*
X258880Y287878D01*
X258706Y287000D01*
X258880Y286122D01*
X259378Y285378D01*
X260122Y284880D01*
X261000Y284706D01*
X263550D01*
X268878Y279378D01*
X269622Y278881D01*
X270500Y278706D01*
X271378Y278881D01*
X272122Y279378D01*
X272620Y280122D01*
X272794Y281000D01*
X272620Y281878D01*
X272122Y282622D01*
X266122Y288622D01*
X265378Y289120D01*
X264500Y289294D01*
D02*
G37*
G36*
X289000Y279794D02*
X281000D01*
X280122Y279620D01*
X279378Y279122D01*
X278881Y278378D01*
X278706Y277500D01*
X278881Y276622D01*
X279378Y275878D01*
X280122Y275380D01*
X281000Y275206D01*
X289000D01*
X289878Y275380D01*
X290622Y275878D01*
X291120Y276622D01*
X291294Y277500D01*
X291120Y278378D01*
X290622Y279122D01*
X289878Y279620D01*
X289000Y279794D01*
D02*
G37*
G36*
X304500Y268969D02*
Y263000D01*
X308034D01*
Y265000D01*
X307897Y266044D01*
X307494Y267017D01*
X306853Y267853D01*
X306017Y268494D01*
X305044Y268897D01*
X304500Y268969D01*
D02*
G37*
G36*
X294500D02*
Y263000D01*
X298035D01*
Y265000D01*
X297897Y266044D01*
X297494Y267017D01*
X296853Y267853D01*
X296017Y268494D01*
X295044Y268897D01*
X294500Y268969D01*
D02*
G37*
G36*
X218000Y269000D02*
X214500D01*
Y263000D01*
X218000D01*
Y269000D01*
D02*
G37*
G36*
X213500D02*
X210000D01*
Y263000D01*
X213500D01*
Y269000D01*
D02*
G37*
G36*
X303500Y268969D02*
X302956Y268897D01*
X301983Y268494D01*
X301147Y267853D01*
X300506Y267017D01*
X300103Y266044D01*
X299966Y265000D01*
Y263000D01*
X303500D01*
Y268969D01*
D02*
G37*
G36*
X293500D02*
X292956Y268897D01*
X291983Y268494D01*
X291147Y267853D01*
X290506Y267017D01*
X290103Y266044D01*
X289966Y265000D01*
Y263000D01*
X293500D01*
Y268969D01*
D02*
G37*
G36*
X178000Y506042D02*
X175882Y505875D01*
X173815Y505379D01*
X171852Y504566D01*
X170040Y503455D01*
X168424Y502075D01*
X167044Y500460D01*
X165934Y498648D01*
X165121Y496685D01*
X164625Y494618D01*
X164458Y492500D01*
X164625Y490382D01*
X165121Y488315D01*
X165934Y486352D01*
X167044Y484540D01*
X168424Y482925D01*
X170040Y481544D01*
X171852Y480434D01*
X173815Y479621D01*
X175882Y479125D01*
X178000Y478958D01*
X180118Y479125D01*
X182185Y479621D01*
X184148Y480434D01*
X185960Y481544D01*
X187575Y482925D01*
X188955Y484540D01*
X190066Y486352D01*
X190879Y488315D01*
X191375Y490382D01*
X191542Y492500D01*
X191375Y494618D01*
X190879Y496685D01*
X190066Y498648D01*
X188955Y500460D01*
X187575Y502075D01*
X185960Y503455D01*
X184148Y504566D01*
X182185Y505379D01*
X180118Y505875D01*
X178000Y506042D01*
D02*
G37*
G36*
X28000D02*
X25882Y505875D01*
X23815Y505379D01*
X21852Y504566D01*
X20040Y503455D01*
X18425Y502075D01*
X17044Y500460D01*
X15934Y498648D01*
X15121Y496685D01*
X14625Y494618D01*
X14458Y492500D01*
X14625Y490382D01*
X15121Y488315D01*
X15934Y486352D01*
X17044Y484540D01*
X18425Y482925D01*
X20040Y481544D01*
X21852Y480434D01*
X23815Y479621D01*
X25882Y479125D01*
X28000Y478958D01*
X30118Y479125D01*
X32185Y479621D01*
X34148Y480434D01*
X35960Y481544D01*
X37576Y482925D01*
X38956Y484540D01*
X40066Y486352D01*
X40879Y488315D01*
X41375Y490382D01*
X41542Y492500D01*
X41375Y494618D01*
X40879Y496685D01*
X40066Y498648D01*
X38956Y500460D01*
X37576Y502075D01*
X35960Y503455D01*
X34148Y504566D01*
X32185Y505379D01*
X30118Y505875D01*
X28000Y506042D01*
D02*
G37*
G36*
X197500Y476500D02*
X191500D01*
Y473000D01*
X197500D01*
Y476500D01*
D02*
G37*
G36*
Y472000D02*
X191500D01*
Y468500D01*
X197500D01*
Y472000D01*
D02*
G37*
G36*
X10500Y466535D02*
X8500D01*
Y463000D01*
X14469D01*
X14397Y463544D01*
X13994Y464517D01*
X13353Y465353D01*
X12517Y465994D01*
X11544Y466397D01*
X10500Y466535D01*
D02*
G37*
G36*
X14469Y462000D02*
X8500D01*
Y458465D01*
X10500D01*
X11544Y458603D01*
X12517Y459006D01*
X13353Y459647D01*
X13994Y460483D01*
X14397Y461456D01*
X14469Y462000D01*
D02*
G37*
G36*
X197500Y446534D02*
X195500D01*
X194456Y446397D01*
X193483Y445994D01*
X192647Y445353D01*
X192006Y444517D01*
X191603Y443544D01*
X191531Y443000D01*
X197500D01*
Y446534D01*
D02*
G37*
G36*
X10500D02*
X8500D01*
Y443000D01*
X14469D01*
X14397Y443544D01*
X13994Y444517D01*
X13353Y445353D01*
X12517Y445994D01*
X11544Y446397D01*
X10500Y446534D01*
D02*
G37*
G36*
X93000Y441294D02*
X92122Y441119D01*
X91378Y440622D01*
X91316Y440529D01*
X85184D01*
X85122Y440622D01*
X84378Y441119D01*
X83500Y441294D01*
X82622Y441119D01*
X81878Y440622D01*
X81381Y439878D01*
X81206Y439000D01*
X81381Y438122D01*
X81878Y437378D01*
X82622Y436881D01*
X83500Y436706D01*
X84378Y436881D01*
X85122Y437378D01*
X85184Y437471D01*
X91316D01*
X91378Y437378D01*
X92122Y436881D01*
X93000Y436706D01*
X93878Y436881D01*
X94622Y437378D01*
X95119Y438122D01*
X95294Y439000D01*
X95119Y439878D01*
X94622Y440622D01*
X93878Y441119D01*
X93000Y441294D01*
D02*
G37*
G36*
X197500Y442000D02*
X191531D01*
X191603Y441456D01*
X192006Y440483D01*
X192647Y439647D01*
X193483Y439006D01*
X194456Y438603D01*
X195500Y438465D01*
X197500D01*
Y442000D01*
D02*
G37*
G36*
X14469D02*
X8500D01*
Y438465D01*
X10500D01*
X11544Y438603D01*
X12517Y439006D01*
X13353Y439647D01*
X13994Y440483D01*
X14397Y441456D01*
X14469Y442000D01*
D02*
G37*
G36*
X41000Y427794D02*
X40122Y427619D01*
X39378Y427122D01*
X38881Y426378D01*
X38706Y425500D01*
X38752Y425270D01*
X36241Y422759D01*
X35931Y422296D01*
X35823Y421750D01*
X35823Y421750D01*
Y420024D01*
X35436Y419707D01*
X35000Y419794D01*
X34122Y419619D01*
X33378Y419122D01*
X33122D01*
X32378Y419619D01*
X31500Y419794D01*
X30622Y419619D01*
X29878Y419122D01*
X29783Y418981D01*
X29283D01*
X29122Y419222D01*
X28378Y419719D01*
X27500Y419894D01*
X26622Y419719D01*
X25878Y419222D01*
X25381Y418478D01*
X25206Y417600D01*
X25381Y416722D01*
X25878Y415978D01*
X26622Y415481D01*
X27073Y415391D01*
Y407252D01*
X26878Y407122D01*
X26381Y406378D01*
X26206Y405500D01*
X26381Y404622D01*
X26878Y403878D01*
X27622Y403380D01*
X28500Y403206D01*
X29378Y403380D01*
X30122Y403878D01*
X30619Y404622D01*
X30647Y404760D01*
X31500Y404590D01*
X31753Y404640D01*
X31949Y404169D01*
X31878Y404122D01*
X31381Y403378D01*
X31206Y402500D01*
X31381Y401622D01*
X31878Y400878D01*
X32622Y400381D01*
X33500Y400206D01*
X34378Y400381D01*
X35122Y400878D01*
X35620Y401622D01*
X35794Y402500D01*
X35737Y402787D01*
X36157Y403237D01*
X36878Y403380D01*
X37622Y403878D01*
X38120Y404622D01*
X38294Y405500D01*
X38248Y405730D01*
X38259Y405741D01*
X38259Y405741D01*
X38569Y406204D01*
X38677Y406750D01*
X38677Y406750D01*
Y421159D01*
X40770Y423252D01*
X41000Y423206D01*
X41878Y423381D01*
X42622Y423878D01*
X43119Y424622D01*
X43294Y425500D01*
X43119Y426378D01*
X42622Y427122D01*
X41878Y427619D01*
X41000Y427794D01*
D02*
G37*
G36*
X10500Y426535D02*
X8500D01*
Y423000D01*
X14469D01*
X14397Y423544D01*
X13994Y424517D01*
X13353Y425353D01*
X12517Y425994D01*
X11544Y426397D01*
X10500Y426535D01*
D02*
G37*
G36*
X14469Y422000D02*
X8500D01*
Y418466D01*
X10500D01*
X11544Y418603D01*
X12517Y419006D01*
X13353Y419647D01*
X13994Y420483D01*
X14397Y421456D01*
X14469Y422000D01*
D02*
G37*
G36*
X197500Y416535D02*
X195500D01*
X194456Y416397D01*
X193483Y415994D01*
X192647Y415353D01*
X192006Y414517D01*
X191603Y413544D01*
X191531Y413000D01*
X197500D01*
Y416535D01*
D02*
G37*
G36*
X90500Y413794D02*
X89622Y413619D01*
X88878Y413122D01*
X88381Y412378D01*
X88206Y411500D01*
X88381Y410622D01*
X88878Y409878D01*
X89622Y409380D01*
X90500Y409206D01*
X91378Y409380D01*
X91513Y409471D01*
X108816D01*
X108878Y409378D01*
X109622Y408881D01*
X110500Y408706D01*
X111378Y408881D01*
X112122Y409378D01*
X112619Y410122D01*
X112794Y411000D01*
X112619Y411878D01*
X112122Y412622D01*
X111378Y413119D01*
X110500Y413294D01*
X109622Y413119D01*
X108878Y412622D01*
X108816Y412529D01*
X92518D01*
X92122Y413122D01*
X91378Y413619D01*
X90500Y413794D01*
D02*
G37*
G36*
X197500Y412000D02*
X191531D01*
X191603Y411456D01*
X192006Y410483D01*
X192647Y409647D01*
X193483Y409006D01*
X194456Y408603D01*
X195500Y408465D01*
X197500D01*
Y412000D01*
D02*
G37*
G36*
Y396534D02*
X195500D01*
X194456Y396397D01*
X193483Y395994D01*
X192647Y395353D01*
X192006Y394517D01*
X191603Y393544D01*
X191531Y393000D01*
X197500D01*
Y396534D01*
D02*
G37*
G36*
X148000Y392294D02*
X147122Y392120D01*
X146378Y391622D01*
X146316Y391529D01*
X139684D01*
X139622Y391622D01*
X138878Y392120D01*
X138000Y392294D01*
X137122Y392120D01*
X136378Y391622D01*
X135880Y390878D01*
X135706Y390000D01*
X135880Y389122D01*
X136378Y388378D01*
X137122Y387880D01*
X138000Y387706D01*
X138878Y387880D01*
X139622Y388378D01*
X139684Y388471D01*
X146316D01*
X146378Y388378D01*
X147122Y387880D01*
X148000Y387706D01*
X148878Y387880D01*
X149622Y388378D01*
X150119Y389122D01*
X150294Y390000D01*
X150119Y390878D01*
X149622Y391622D01*
X148878Y392120D01*
X148000Y392294D01*
D02*
G37*
G36*
X197500Y392000D02*
X191531D01*
X191603Y391456D01*
X192006Y390483D01*
X192647Y389647D01*
X193483Y389006D01*
X194456Y388603D01*
X195500Y388465D01*
X197500D01*
Y392000D01*
D02*
G37*
G36*
Y386535D02*
X195500D01*
X194456Y386397D01*
X193483Y385994D01*
X192647Y385353D01*
X192006Y384517D01*
X191603Y383544D01*
X191531Y383000D01*
X197500D01*
Y386535D01*
D02*
G37*
G36*
Y382000D02*
X191531D01*
X191603Y381456D01*
X192006Y380483D01*
X192647Y379647D01*
X193483Y379006D01*
X194456Y378603D01*
X195500Y378466D01*
X197500D01*
Y382000D01*
D02*
G37*
G36*
X101000Y402294D02*
X100122Y402119D01*
X99378Y401622D01*
X98881Y400878D01*
X98706Y400000D01*
X98881Y399122D01*
X99378Y398378D01*
X99471Y398316D01*
Y380684D01*
X99378Y380622D01*
X98881Y379878D01*
X98706Y379000D01*
X98881Y378122D01*
X99378Y377378D01*
X100122Y376881D01*
X101000Y376706D01*
X101878Y376881D01*
X102622Y377378D01*
X103120Y378122D01*
X103294Y379000D01*
X103120Y379878D01*
X102622Y380622D01*
X102529Y380684D01*
Y398316D01*
X102622Y398378D01*
X103120Y399122D01*
X103294Y400000D01*
X103120Y400878D01*
X102622Y401622D01*
X101878Y402119D01*
X101000Y402294D01*
D02*
G37*
G36*
X42000Y374794D02*
X41122Y374620D01*
X40378Y374122D01*
X40316Y374029D01*
X29184D01*
X29122Y374122D01*
X28378Y374620D01*
X27500Y374794D01*
X26622Y374620D01*
X25878Y374122D01*
X25381Y373378D01*
X25206Y372500D01*
X25381Y371622D01*
X25878Y370878D01*
X26622Y370380D01*
X27500Y370206D01*
X28378Y370380D01*
X29122Y370878D01*
X29184Y370971D01*
X40316D01*
X40378Y370878D01*
X41122Y370380D01*
X42000Y370206D01*
X42878Y370380D01*
X43622Y370878D01*
X44120Y371622D01*
X44294Y372500D01*
X44120Y373378D01*
X43622Y374122D01*
X42878Y374620D01*
X42000Y374794D01*
D02*
G37*
G36*
X86000D02*
X85122Y374620D01*
X84378Y374122D01*
X83881Y373378D01*
X83706Y372500D01*
X83881Y371622D01*
X84378Y370878D01*
X85122Y370380D01*
X86000Y370206D01*
X86878Y370380D01*
X87622Y370878D01*
X87684Y370971D01*
X108212D01*
X108380Y370122D01*
X108878Y369378D01*
X109622Y368881D01*
X110500Y368706D01*
X111378Y368881D01*
X112122Y369378D01*
X112619Y370122D01*
X112794Y371000D01*
X112619Y371878D01*
X112122Y372622D01*
X111378Y373119D01*
X110500Y373294D01*
X110391Y373272D01*
X110081Y373581D01*
X109585Y373913D01*
X109000Y374029D01*
X87684D01*
X87622Y374122D01*
X86878Y374620D01*
X86000Y374794D01*
D02*
G37*
G36*
X140500Y351017D02*
Y347000D01*
X144517D01*
X144426Y347686D01*
X143969Y348791D01*
X143240Y349740D01*
X142291Y350469D01*
X141186Y350926D01*
X140500Y351017D01*
D02*
G37*
G36*
X139500D02*
X138814Y350926D01*
X137709Y350469D01*
X136760Y349740D01*
X136031Y348791D01*
X135574Y347686D01*
X135483Y347000D01*
X139500D01*
Y351017D01*
D02*
G37*
G36*
X144517Y346000D02*
X140500D01*
Y341983D01*
X141186Y342074D01*
X142291Y342531D01*
X143240Y343260D01*
X143969Y344209D01*
X144426Y345314D01*
X144517Y346000D01*
D02*
G37*
G36*
X139500D02*
X135483D01*
X135574Y345314D01*
X136031Y344209D01*
X136760Y343260D01*
X137709Y342531D01*
X138814Y342074D01*
X139500Y341983D01*
Y346000D01*
D02*
G37*
G36*
X130000Y351082D02*
X128814Y350926D01*
X127709Y350469D01*
X126760Y349740D01*
X126031Y348791D01*
X125574Y347686D01*
X125417Y346500D01*
X125574Y345314D01*
X126031Y344209D01*
X126760Y343260D01*
X127709Y342531D01*
X128814Y342074D01*
X130000Y341917D01*
X131186Y342074D01*
X132291Y342531D01*
X133240Y343260D01*
X133969Y344209D01*
X134426Y345314D01*
X134582Y346500D01*
X134426Y347686D01*
X133969Y348791D01*
X133240Y349740D01*
X132291Y350469D01*
X131186Y350926D01*
X130000Y351082D01*
D02*
G37*
G36*
X120000D02*
X118814Y350926D01*
X117709Y350469D01*
X116760Y349740D01*
X116031Y348791D01*
X115574Y347686D01*
X115418Y346500D01*
X115574Y345314D01*
X116031Y344209D01*
X116760Y343260D01*
X117709Y342531D01*
X118814Y342074D01*
X120000Y341917D01*
X121186Y342074D01*
X122291Y342531D01*
X123240Y343260D01*
X123969Y344209D01*
X124426Y345314D01*
X124583Y346500D01*
X124426Y347686D01*
X123969Y348791D01*
X123240Y349740D01*
X122291Y350469D01*
X121186Y350926D01*
X120000Y351082D01*
D02*
G37*
G36*
X10500Y336535D02*
X8500D01*
Y333000D01*
X14469D01*
X14397Y333544D01*
X13994Y334517D01*
X13353Y335353D01*
X12517Y335994D01*
X11544Y336397D01*
X10500Y336535D01*
D02*
G37*
G36*
X124543Y341043D02*
X115457D01*
Y331957D01*
X124543D01*
Y341043D01*
D02*
G37*
G36*
X140000Y341083D02*
X138814Y340926D01*
X137709Y340469D01*
X136760Y339740D01*
X136031Y338791D01*
X135574Y337686D01*
X135417Y336500D01*
X135574Y335314D01*
X136031Y334209D01*
X136760Y333260D01*
X137709Y332531D01*
X138814Y332074D01*
X140000Y331918D01*
X141186Y332074D01*
X142291Y332531D01*
X143240Y333260D01*
X143969Y334209D01*
X144426Y335314D01*
X144582Y336500D01*
X144426Y337686D01*
X143969Y338791D01*
X143240Y339740D01*
X142291Y340469D01*
X141186Y340926D01*
X140000Y341083D01*
D02*
G37*
G36*
X130000D02*
X128814Y340926D01*
X127709Y340469D01*
X126760Y339740D01*
X126031Y338791D01*
X125574Y337686D01*
X125417Y336500D01*
X125574Y335314D01*
X126031Y334209D01*
X126760Y333260D01*
X127709Y332531D01*
X128814Y332074D01*
X130000Y331918D01*
X131186Y332074D01*
X132291Y332531D01*
X133240Y333260D01*
X133969Y334209D01*
X134426Y335314D01*
X134582Y336500D01*
X134426Y337686D01*
X133969Y338791D01*
X133240Y339740D01*
X132291Y340469D01*
X131186Y340926D01*
X130000Y341083D01*
D02*
G37*
G36*
X14469Y332000D02*
X8500D01*
Y328466D01*
X10500D01*
X11544Y328603D01*
X12517Y329006D01*
X13353Y329647D01*
X13994Y330483D01*
X14397Y331456D01*
X14469Y332000D01*
D02*
G37*
G36*
X197500Y326535D02*
X195500D01*
X194456Y326397D01*
X193483Y325994D01*
X192647Y325353D01*
X192006Y324517D01*
X191603Y323544D01*
X191531Y323000D01*
X197500D01*
Y326535D01*
D02*
G37*
G36*
X10500D02*
X8500D01*
Y323000D01*
X14469D01*
X14397Y323544D01*
X13994Y324517D01*
X13353Y325353D01*
X12517Y325994D01*
X11544Y326397D01*
X10500Y326535D01*
D02*
G37*
G36*
X91500Y334294D02*
X90622Y334120D01*
X89878Y333622D01*
X89381Y332878D01*
X89206Y332000D01*
X89381Y331122D01*
X89878Y330378D01*
X90558Y329924D01*
X92749Y327732D01*
X92620Y327491D01*
X92483Y327291D01*
X91622Y327119D01*
X90878Y326622D01*
X90381Y325878D01*
X90206Y325000D01*
X90381Y324122D01*
X90878Y323378D01*
X91073Y323248D01*
Y321500D01*
X91073Y321500D01*
X91181Y320954D01*
X91491Y320491D01*
X93752Y318230D01*
X93706Y318000D01*
X93881Y317122D01*
X94378Y316378D01*
X95122Y315880D01*
X96000Y315706D01*
X96878Y315880D01*
X97622Y316378D01*
X98119Y317122D01*
X98294Y318000D01*
X98119Y318878D01*
X97622Y319622D01*
X96878Y320120D01*
X96000Y320294D01*
X95770Y320248D01*
X93927Y322091D01*
Y323248D01*
X94122Y323378D01*
X94619Y324122D01*
X94791Y324983D01*
X94991Y325120D01*
X95232Y325249D01*
X98252Y322230D01*
X98206Y322000D01*
X98381Y321122D01*
X98878Y320378D01*
X99622Y319881D01*
X100500Y319706D01*
X101378Y319881D01*
X102122Y320378D01*
X102620Y321122D01*
X102794Y322000D01*
X102620Y322878D01*
X102122Y323622D01*
X101378Y324119D01*
X100500Y324294D01*
X100270Y324248D01*
X93530Y330989D01*
X93619Y331122D01*
X93794Y332000D01*
X93619Y332878D01*
X93122Y333622D01*
X92378Y334120D01*
X91500Y334294D01*
D02*
G37*
G36*
X197500Y322000D02*
X191531D01*
X191603Y321456D01*
X192006Y320483D01*
X192647Y319647D01*
X193483Y319006D01*
X194456Y318603D01*
X195500Y318465D01*
X197500D01*
Y322000D01*
D02*
G37*
G36*
X14469D02*
X8500D01*
Y318465D01*
X10500D01*
X11544Y318603D01*
X12517Y319006D01*
X13353Y319647D01*
X13994Y320483D01*
X14397Y321456D01*
X14469Y322000D01*
D02*
G37*
G36*
X197500Y316534D02*
X195500D01*
X194456Y316397D01*
X193483Y315994D01*
X192647Y315353D01*
X192006Y314517D01*
X191603Y313544D01*
X191531Y313000D01*
X197500D01*
Y316534D01*
D02*
G37*
G36*
Y312000D02*
X191531D01*
X191603Y311456D01*
X192006Y310483D01*
X192647Y309647D01*
X193483Y309006D01*
X194456Y308603D01*
X195500Y308466D01*
X197500D01*
Y312000D01*
D02*
G37*
G36*
X173000Y315294D02*
X162500D01*
X161622Y315120D01*
X160878Y314622D01*
X155378Y309122D01*
X154880Y308378D01*
X154706Y307500D01*
Y305000D01*
X154880Y304122D01*
X155378Y303378D01*
X156122Y302881D01*
X157000Y302706D01*
X157878Y302881D01*
X158622Y303378D01*
X159119Y304122D01*
X159294Y305000D01*
Y306550D01*
X163450Y310706D01*
X173000D01*
X173878Y310880D01*
X174622Y311378D01*
X175119Y312122D01*
X175294Y313000D01*
X175119Y313878D01*
X174622Y314622D01*
X173878Y315120D01*
X173000Y315294D01*
D02*
G37*
G36*
X78000Y311294D02*
X77122Y311120D01*
X76378Y310622D01*
X75881Y309878D01*
X75706Y309000D01*
X75881Y308122D01*
X76378Y307378D01*
X76471Y307316D01*
Y296684D01*
X76378Y296622D01*
X75881Y295878D01*
X75706Y295000D01*
X75881Y294122D01*
X76378Y293378D01*
X77052Y292927D01*
X77041Y292640D01*
X76969Y292427D01*
X72591D01*
X68248Y296770D01*
X68294Y297000D01*
X68119Y297878D01*
X67622Y298622D01*
X66878Y299119D01*
X66000Y299294D01*
X65122Y299119D01*
X64378Y298622D01*
X63881Y297878D01*
X63706Y297000D01*
X63881Y296122D01*
X64378Y295378D01*
X65122Y294881D01*
X66000Y294706D01*
X66230Y294752D01*
X70991Y289991D01*
X70991Y289991D01*
X71454Y289681D01*
X72000Y289573D01*
X72000Y289573D01*
X78748D01*
X78878Y289378D01*
X79622Y288880D01*
X80500Y288706D01*
X81378Y288880D01*
X82122Y289378D01*
X82619Y290122D01*
X82794Y291000D01*
X82619Y291878D01*
X82122Y292622D01*
X81378Y293120D01*
X80500Y293294D01*
X80117Y293218D01*
X79816Y293668D01*
X80119Y294122D01*
X80294Y295000D01*
X80119Y295878D01*
X79622Y296622D01*
X79529Y296684D01*
Y307316D01*
X79622Y307378D01*
X80119Y308122D01*
X80294Y309000D01*
X80119Y309878D01*
X79622Y310622D01*
X78878Y311120D01*
X78000Y311294D01*
D02*
G37*
G36*
X98000Y306042D02*
X95882Y305875D01*
X93815Y305379D01*
X91852Y304566D01*
X90040Y303455D01*
X88424Y302076D01*
X87045Y300460D01*
X85934Y298648D01*
X85121Y296685D01*
X84625Y294618D01*
X84458Y292500D01*
X84625Y290382D01*
X85121Y288315D01*
X85934Y286352D01*
X87045Y284540D01*
X88424Y282925D01*
X90040Y281544D01*
X91852Y280434D01*
X93815Y279621D01*
X95882Y279125D01*
X98000Y278958D01*
X100118Y279125D01*
X102185Y279621D01*
X104148Y280434D01*
X105960Y281544D01*
X107576Y282925D01*
X108956Y284540D01*
X110066Y286352D01*
X110879Y288315D01*
X111375Y290382D01*
X111542Y292500D01*
X111375Y294618D01*
X110879Y296685D01*
X110066Y298648D01*
X108956Y300460D01*
X107576Y302076D01*
X105960Y303455D01*
X104148Y304566D01*
X102185Y305379D01*
X100118Y305875D01*
X98000Y306042D01*
D02*
G37*
G36*
X58500Y289294D02*
X55000D01*
X54122Y289120D01*
X53378Y288622D01*
X52881Y287878D01*
X52706Y287000D01*
X52881Y286122D01*
X53378Y285378D01*
X54122Y284880D01*
X55000Y284706D01*
X57550D01*
X62878Y279378D01*
X63622Y278881D01*
X64500Y278706D01*
X65378Y278881D01*
X66122Y279378D01*
X66619Y280122D01*
X66794Y281000D01*
X66619Y281878D01*
X66122Y282622D01*
X60122Y288622D01*
X59378Y289120D01*
X58500Y289294D01*
D02*
G37*
G36*
X83000Y279794D02*
X75000D01*
X74122Y279620D01*
X73378Y279122D01*
X72881Y278378D01*
X72706Y277500D01*
X72881Y276622D01*
X73378Y275878D01*
X74122Y275380D01*
X75000Y275206D01*
X83000D01*
X83878Y275380D01*
X84622Y275878D01*
X85119Y276622D01*
X85294Y277500D01*
X85119Y278378D01*
X84622Y279122D01*
X83878Y279620D01*
X83000Y279794D01*
D02*
G37*
G36*
X98500Y268969D02*
Y263000D01*
X102034D01*
Y265000D01*
X101897Y266044D01*
X101494Y267017D01*
X100853Y267853D01*
X100017Y268494D01*
X99044Y268897D01*
X98500Y268969D01*
D02*
G37*
G36*
X88500D02*
Y263000D01*
X92035D01*
Y265000D01*
X91897Y266044D01*
X91494Y267017D01*
X90853Y267853D01*
X90017Y268494D01*
X89044Y268897D01*
X88500Y268969D01*
D02*
G37*
G36*
X12000Y269000D02*
X8500D01*
Y263000D01*
X12000D01*
Y269000D01*
D02*
G37*
G36*
X7500D02*
X4000D01*
Y263000D01*
X7500D01*
Y269000D01*
D02*
G37*
G36*
X97500Y268969D02*
X96956Y268897D01*
X95983Y268494D01*
X95147Y267853D01*
X94506Y267017D01*
X94103Y266044D01*
X93966Y265000D01*
Y263000D01*
X97500D01*
Y268969D01*
D02*
G37*
G36*
X87500D02*
X86956Y268897D01*
X85983Y268494D01*
X85147Y267853D01*
X84506Y267017D01*
X84103Y266044D01*
X83965Y265000D01*
Y263000D01*
X87500D01*
Y268969D01*
D02*
G37*
G36*
X384000Y251542D02*
X381882Y251375D01*
X379815Y250879D01*
X377852Y250066D01*
X376040Y248955D01*
X374425Y247575D01*
X373044Y245960D01*
X371934Y244148D01*
X371121Y242185D01*
X370625Y240118D01*
X370458Y238000D01*
X370625Y235882D01*
X371121Y233815D01*
X371934Y231852D01*
X373044Y230040D01*
X374425Y228425D01*
X376040Y227045D01*
X377852Y225934D01*
X379815Y225121D01*
X381882Y224625D01*
X384000Y224458D01*
X386118Y224625D01*
X388185Y225121D01*
X390148Y225934D01*
X391960Y227045D01*
X393576Y228425D01*
X394955Y230040D01*
X396066Y231852D01*
X396879Y233815D01*
X397375Y235882D01*
X397542Y238000D01*
X397375Y240118D01*
X396879Y242185D01*
X396066Y244148D01*
X394955Y245960D01*
X393576Y247575D01*
X391960Y248955D01*
X390148Y250066D01*
X388185Y250879D01*
X386118Y251375D01*
X384000Y251542D01*
D02*
G37*
G36*
X234000D02*
X231882Y251375D01*
X229815Y250879D01*
X227852Y250066D01*
X226040Y248955D01*
X224425Y247575D01*
X223044Y245960D01*
X221934Y244148D01*
X221121Y242185D01*
X220625Y240118D01*
X220458Y238000D01*
X220625Y235882D01*
X221121Y233815D01*
X221934Y231852D01*
X223044Y230040D01*
X224425Y228425D01*
X226040Y227045D01*
X227852Y225934D01*
X229815Y225121D01*
X231882Y224625D01*
X234000Y224458D01*
X236118Y224625D01*
X238185Y225121D01*
X240148Y225934D01*
X241960Y227045D01*
X243576Y228425D01*
X244955Y230040D01*
X246066Y231852D01*
X246879Y233815D01*
X247375Y235882D01*
X247542Y238000D01*
X247375Y240118D01*
X246879Y242185D01*
X246066Y244148D01*
X244955Y245960D01*
X243576Y247575D01*
X241960Y248955D01*
X240148Y250066D01*
X238185Y250879D01*
X236118Y251375D01*
X234000Y251542D01*
D02*
G37*
G36*
X403500Y222000D02*
X397500D01*
Y218500D01*
X403500D01*
Y222000D01*
D02*
G37*
G36*
Y217500D02*
X397500D01*
Y214000D01*
X403500D01*
Y217500D01*
D02*
G37*
G36*
X216500Y212035D02*
X214500D01*
Y208500D01*
X220469D01*
X220397Y209044D01*
X219994Y210017D01*
X219353Y210853D01*
X218517Y211494D01*
X217544Y211897D01*
X216500Y212035D01*
D02*
G37*
G36*
X220469Y207500D02*
X214500D01*
Y203965D01*
X216500D01*
X217544Y204103D01*
X218517Y204506D01*
X219353Y205147D01*
X219994Y205983D01*
X220397Y206956D01*
X220469Y207500D01*
D02*
G37*
G36*
X403500Y192034D02*
X401500D01*
X400456Y191897D01*
X399483Y191494D01*
X398647Y190853D01*
X398006Y190017D01*
X397603Y189044D01*
X397531Y188500D01*
X403500D01*
Y192034D01*
D02*
G37*
G36*
X216500D02*
X214500D01*
Y188500D01*
X220469D01*
X220397Y189044D01*
X219994Y190017D01*
X219353Y190853D01*
X218517Y191494D01*
X217544Y191897D01*
X216500Y192034D01*
D02*
G37*
G36*
X299000Y186794D02*
X298122Y186619D01*
X297378Y186122D01*
X297316Y186029D01*
X291184D01*
X291122Y186122D01*
X290378Y186619D01*
X289500Y186794D01*
X288622Y186619D01*
X287878Y186122D01*
X287381Y185378D01*
X287206Y184500D01*
X287381Y183622D01*
X287878Y182878D01*
X288622Y182380D01*
X289500Y182206D01*
X290378Y182380D01*
X291122Y182878D01*
X291184Y182971D01*
X297316D01*
X297378Y182878D01*
X298122Y182380D01*
X299000Y182206D01*
X299878Y182380D01*
X300622Y182878D01*
X301119Y183622D01*
X301294Y184500D01*
X301119Y185378D01*
X300622Y186122D01*
X299878Y186619D01*
X299000Y186794D01*
D02*
G37*
G36*
X403500Y187500D02*
X397531D01*
X397603Y186956D01*
X398006Y185983D01*
X398647Y185147D01*
X399483Y184506D01*
X400456Y184103D01*
X401500Y183966D01*
X403500D01*
Y187500D01*
D02*
G37*
G36*
X220469D02*
X214500D01*
Y183966D01*
X216500D01*
X217544Y184103D01*
X218517Y184506D01*
X219353Y185147D01*
X219994Y185983D01*
X220397Y186956D01*
X220469Y187500D01*
D02*
G37*
G36*
X247000Y173294D02*
X246122Y173119D01*
X245378Y172622D01*
X244881Y171878D01*
X244706Y171000D01*
X244752Y170770D01*
X242241Y168259D01*
X241931Y167796D01*
X241823Y167250D01*
X241823Y167250D01*
Y165524D01*
X241436Y165207D01*
X241000Y165294D01*
X240122Y165120D01*
X239378Y164622D01*
X239122D01*
X238378Y165120D01*
X237500Y165294D01*
X236622Y165120D01*
X235878Y164622D01*
X235783Y164481D01*
X235283D01*
X235122Y164722D01*
X234378Y165219D01*
X233500Y165394D01*
X232622Y165219D01*
X231878Y164722D01*
X231381Y163978D01*
X231206Y163100D01*
X231381Y162222D01*
X231878Y161478D01*
X232622Y160980D01*
X233073Y160891D01*
Y152752D01*
X232878Y152622D01*
X232381Y151878D01*
X232206Y151000D01*
X232381Y150122D01*
X232878Y149378D01*
X233622Y148881D01*
X234500Y148706D01*
X235378Y148881D01*
X236122Y149378D01*
X236619Y150122D01*
X236647Y150260D01*
X237500Y150090D01*
X237753Y150140D01*
X237948Y149669D01*
X237878Y149622D01*
X237381Y148878D01*
X237206Y148000D01*
X237381Y147122D01*
X237878Y146378D01*
X238622Y145880D01*
X239500Y145706D01*
X240378Y145880D01*
X241122Y146378D01*
X241619Y147122D01*
X241794Y148000D01*
X241737Y148287D01*
X242157Y148737D01*
X242878Y148881D01*
X243622Y149378D01*
X244120Y150122D01*
X244294Y151000D01*
X244248Y151230D01*
X244259Y151241D01*
X244259Y151241D01*
X244569Y151704D01*
X244677Y152250D01*
X244677Y152250D01*
Y166659D01*
X246770Y168752D01*
X247000Y168706D01*
X247878Y168880D01*
X248622Y169378D01*
X249119Y170122D01*
X249294Y171000D01*
X249119Y171878D01*
X248622Y172622D01*
X247878Y173119D01*
X247000Y173294D01*
D02*
G37*
G36*
X216500Y172035D02*
X214500D01*
Y168500D01*
X220469D01*
X220397Y169044D01*
X219994Y170017D01*
X219353Y170853D01*
X218517Y171494D01*
X217544Y171897D01*
X216500Y172035D01*
D02*
G37*
G36*
X220469Y167500D02*
X214500D01*
Y163965D01*
X216500D01*
X217544Y164103D01*
X218517Y164506D01*
X219353Y165147D01*
X219994Y165983D01*
X220397Y166956D01*
X220469Y167500D01*
D02*
G37*
G36*
X403500Y162034D02*
X401500D01*
X400456Y161897D01*
X399483Y161494D01*
X398647Y160853D01*
X398006Y160017D01*
X397603Y159044D01*
X397531Y158500D01*
X403500D01*
Y162034D01*
D02*
G37*
G36*
X296500Y159294D02*
X295622Y159119D01*
X294878Y158622D01*
X294380Y157878D01*
X294206Y157000D01*
X294380Y156122D01*
X294878Y155378D01*
X295622Y154880D01*
X296500Y154706D01*
X297378Y154880D01*
X297513Y154971D01*
X314816D01*
X314878Y154878D01*
X315622Y154381D01*
X316500Y154206D01*
X317378Y154381D01*
X318122Y154878D01*
X318619Y155622D01*
X318794Y156500D01*
X318619Y157378D01*
X318122Y158122D01*
X317378Y158619D01*
X316500Y158794D01*
X315622Y158619D01*
X314878Y158122D01*
X314816Y158029D01*
X298518D01*
X298122Y158622D01*
X297378Y159119D01*
X296500Y159294D01*
D02*
G37*
G36*
X403500Y157500D02*
X397531D01*
X397603Y156956D01*
X398006Y155983D01*
X398647Y155147D01*
X399483Y154506D01*
X400456Y154103D01*
X401500Y153965D01*
X403500D01*
Y157500D01*
D02*
G37*
G36*
Y142034D02*
X401500D01*
X400456Y141897D01*
X399483Y141494D01*
X398647Y140853D01*
X398006Y140017D01*
X397603Y139044D01*
X397531Y138500D01*
X403500D01*
Y142034D01*
D02*
G37*
G36*
X354000Y137794D02*
X353122Y137619D01*
X352378Y137122D01*
X352316Y137029D01*
X345684D01*
X345622Y137122D01*
X344878Y137619D01*
X344000Y137794D01*
X343122Y137619D01*
X342378Y137122D01*
X341880Y136378D01*
X341706Y135500D01*
X341880Y134622D01*
X342378Y133878D01*
X343122Y133380D01*
X344000Y133206D01*
X344878Y133380D01*
X345622Y133878D01*
X345684Y133971D01*
X352316D01*
X352378Y133878D01*
X353122Y133380D01*
X354000Y133206D01*
X354878Y133380D01*
X355622Y133878D01*
X356119Y134622D01*
X356294Y135500D01*
X356119Y136378D01*
X355622Y137122D01*
X354878Y137619D01*
X354000Y137794D01*
D02*
G37*
G36*
X403500Y137500D02*
X397531D01*
X397603Y136956D01*
X398006Y135983D01*
X398647Y135147D01*
X399483Y134506D01*
X400456Y134103D01*
X401500Y133966D01*
X403500D01*
Y137500D01*
D02*
G37*
G36*
Y132035D02*
X401500D01*
X400456Y131897D01*
X399483Y131494D01*
X398647Y130853D01*
X398006Y130017D01*
X397603Y129044D01*
X397531Y128500D01*
X403500D01*
Y132035D01*
D02*
G37*
G36*
Y127500D02*
X397531D01*
X397603Y126956D01*
X398006Y125983D01*
X398647Y125147D01*
X399483Y124506D01*
X400456Y124103D01*
X401500Y123966D01*
X403500D01*
Y127500D01*
D02*
G37*
G36*
X307000Y147794D02*
X306122Y147619D01*
X305378Y147122D01*
X304880Y146378D01*
X304706Y145500D01*
X304880Y144622D01*
X305378Y143878D01*
X305471Y143816D01*
Y126184D01*
X305378Y126122D01*
X304880Y125378D01*
X304706Y124500D01*
X304880Y123622D01*
X305378Y122878D01*
X306122Y122380D01*
X307000Y122206D01*
X307878Y122380D01*
X308622Y122878D01*
X309120Y123622D01*
X309294Y124500D01*
X309120Y125378D01*
X308622Y126122D01*
X308529Y126184D01*
Y143816D01*
X308622Y143878D01*
X309120Y144622D01*
X309294Y145500D01*
X309120Y146378D01*
X308622Y147122D01*
X307878Y147619D01*
X307000Y147794D01*
D02*
G37*
G36*
X248000Y120294D02*
X247122Y120120D01*
X246378Y119622D01*
X246316Y119529D01*
X235184D01*
X235122Y119622D01*
X234378Y120120D01*
X233500Y120294D01*
X232622Y120120D01*
X231878Y119622D01*
X231381Y118878D01*
X231206Y118000D01*
X231381Y117122D01*
X231878Y116378D01*
X232622Y115881D01*
X233500Y115706D01*
X234378Y115881D01*
X235122Y116378D01*
X235184Y116471D01*
X246316D01*
X246378Y116378D01*
X247122Y115881D01*
X248000Y115706D01*
X248878Y115881D01*
X249622Y116378D01*
X250119Y117122D01*
X250294Y118000D01*
X250119Y118878D01*
X249622Y119622D01*
X248878Y120120D01*
X248000Y120294D01*
D02*
G37*
G36*
X292000D02*
X291122Y120120D01*
X290378Y119622D01*
X289880Y118878D01*
X289706Y118000D01*
X289880Y117122D01*
X290378Y116378D01*
X291122Y115881D01*
X292000Y115706D01*
X292878Y115881D01*
X293622Y116378D01*
X293684Y116471D01*
X314212D01*
X314381Y115622D01*
X314878Y114878D01*
X315622Y114381D01*
X316500Y114206D01*
X317378Y114381D01*
X318122Y114878D01*
X318619Y115622D01*
X318794Y116500D01*
X318619Y117378D01*
X318122Y118122D01*
X317378Y118620D01*
X316500Y118794D01*
X316391Y118772D01*
X316081Y119081D01*
X315585Y119413D01*
X315000Y119529D01*
X293684D01*
X293622Y119622D01*
X292878Y120120D01*
X292000Y120294D01*
D02*
G37*
G36*
X346500Y96517D02*
Y92500D01*
X350517D01*
X350426Y93186D01*
X349969Y94291D01*
X349240Y95240D01*
X348291Y95969D01*
X347186Y96426D01*
X346500Y96517D01*
D02*
G37*
G36*
X345500D02*
X344814Y96426D01*
X343709Y95969D01*
X342760Y95240D01*
X342031Y94291D01*
X341574Y93186D01*
X341483Y92500D01*
X345500D01*
Y96517D01*
D02*
G37*
G36*
X350517Y91500D02*
X346500D01*
Y87483D01*
X347186Y87574D01*
X348291Y88031D01*
X349240Y88760D01*
X349969Y89709D01*
X350426Y90814D01*
X350517Y91500D01*
D02*
G37*
G36*
X345500D02*
X341483D01*
X341574Y90814D01*
X342031Y89709D01*
X342760Y88760D01*
X343709Y88031D01*
X344814Y87574D01*
X345500Y87483D01*
Y91500D01*
D02*
G37*
G36*
X336000Y96583D02*
X334814Y96426D01*
X333709Y95969D01*
X332760Y95240D01*
X332031Y94291D01*
X331574Y93186D01*
X331417Y92000D01*
X331574Y90814D01*
X332031Y89709D01*
X332760Y88760D01*
X333709Y88031D01*
X334814Y87574D01*
X336000Y87418D01*
X337186Y87574D01*
X338291Y88031D01*
X339240Y88760D01*
X339969Y89709D01*
X340426Y90814D01*
X340582Y92000D01*
X340426Y93186D01*
X339969Y94291D01*
X339240Y95240D01*
X338291Y95969D01*
X337186Y96426D01*
X336000Y96583D01*
D02*
G37*
G36*
X326000D02*
X324814Y96426D01*
X323709Y95969D01*
X322760Y95240D01*
X322031Y94291D01*
X321574Y93186D01*
X321417Y92000D01*
X321574Y90814D01*
X322031Y89709D01*
X322760Y88760D01*
X323709Y88031D01*
X324814Y87574D01*
X326000Y87418D01*
X327186Y87574D01*
X328291Y88031D01*
X329240Y88760D01*
X329969Y89709D01*
X330426Y90814D01*
X330582Y92000D01*
X330426Y93186D01*
X329969Y94291D01*
X329240Y95240D01*
X328291Y95969D01*
X327186Y96426D01*
X326000Y96583D01*
D02*
G37*
G36*
X216500Y82034D02*
X214500D01*
Y78500D01*
X220469D01*
X220397Y79044D01*
X219994Y80017D01*
X219353Y80853D01*
X218517Y81494D01*
X217544Y81897D01*
X216500Y82034D01*
D02*
G37*
G36*
X330543Y86543D02*
X321457D01*
Y77457D01*
X330543D01*
Y86543D01*
D02*
G37*
G36*
X346000Y86582D02*
X344814Y86426D01*
X343709Y85969D01*
X342760Y85240D01*
X342031Y84291D01*
X341574Y83186D01*
X341418Y82000D01*
X341574Y80814D01*
X342031Y79709D01*
X342760Y78760D01*
X343709Y78031D01*
X344814Y77574D01*
X346000Y77417D01*
X347186Y77574D01*
X348291Y78031D01*
X349240Y78760D01*
X349969Y79709D01*
X350426Y80814D01*
X350583Y82000D01*
X350426Y83186D01*
X349969Y84291D01*
X349240Y85240D01*
X348291Y85969D01*
X347186Y86426D01*
X346000Y86582D01*
D02*
G37*
G36*
X336000D02*
X334814Y86426D01*
X333709Y85969D01*
X332760Y85240D01*
X332031Y84291D01*
X331574Y83186D01*
X331417Y82000D01*
X331574Y80814D01*
X332031Y79709D01*
X332760Y78760D01*
X333709Y78031D01*
X334814Y77574D01*
X336000Y77417D01*
X337186Y77574D01*
X338291Y78031D01*
X339240Y78760D01*
X339969Y79709D01*
X340426Y80814D01*
X340582Y82000D01*
X340426Y83186D01*
X339969Y84291D01*
X339240Y85240D01*
X338291Y85969D01*
X337186Y86426D01*
X336000Y86582D01*
D02*
G37*
G36*
X220469Y77500D02*
X214500D01*
Y73966D01*
X216500D01*
X217544Y74103D01*
X218517Y74506D01*
X219353Y75147D01*
X219994Y75983D01*
X220397Y76956D01*
X220469Y77500D01*
D02*
G37*
G36*
X403500Y72035D02*
X401500D01*
X400456Y71897D01*
X399483Y71494D01*
X398647Y70853D01*
X398006Y70017D01*
X397603Y69044D01*
X397531Y68500D01*
X403500D01*
Y72035D01*
D02*
G37*
G36*
X216500D02*
X214500D01*
Y68500D01*
X220469D01*
X220397Y69044D01*
X219994Y70017D01*
X219353Y70853D01*
X218517Y71494D01*
X217544Y71897D01*
X216500Y72035D01*
D02*
G37*
G36*
X297500Y79794D02*
X296622Y79619D01*
X295878Y79122D01*
X295380Y78378D01*
X295206Y77500D01*
X295380Y76622D01*
X295878Y75878D01*
X296558Y75424D01*
X298749Y73232D01*
X298620Y72991D01*
X298483Y72791D01*
X297622Y72619D01*
X296878Y72122D01*
X296380Y71378D01*
X296206Y70500D01*
X296380Y69622D01*
X296878Y68878D01*
X297073Y68748D01*
Y67000D01*
X297073Y67000D01*
X297181Y66454D01*
X297491Y65991D01*
X299752Y63730D01*
X299706Y63500D01*
X299881Y62622D01*
X300378Y61878D01*
X301122Y61381D01*
X302000Y61206D01*
X302878Y61381D01*
X303622Y61878D01*
X304119Y62622D01*
X304294Y63500D01*
X304119Y64378D01*
X303622Y65122D01*
X302878Y65619D01*
X302000Y65794D01*
X301770Y65748D01*
X299927Y67591D01*
Y68748D01*
X300122Y68878D01*
X300620Y69622D01*
X300791Y70483D01*
X300991Y70620D01*
X301232Y70749D01*
X304252Y67730D01*
X304206Y67500D01*
X304380Y66622D01*
X304878Y65878D01*
X305622Y65381D01*
X306500Y65206D01*
X307378Y65381D01*
X308122Y65878D01*
X308619Y66622D01*
X308794Y67500D01*
X308619Y68378D01*
X308122Y69122D01*
X307378Y69619D01*
X306500Y69794D01*
X306270Y69748D01*
X299530Y76489D01*
X299620Y76622D01*
X299794Y77500D01*
X299620Y78378D01*
X299122Y79122D01*
X298378Y79619D01*
X297500Y79794D01*
D02*
G37*
G36*
X403500Y67500D02*
X397531D01*
X397603Y66956D01*
X398006Y65983D01*
X398647Y65147D01*
X399483Y64506D01*
X400456Y64103D01*
X401500Y63965D01*
X403500D01*
Y67500D01*
D02*
G37*
G36*
X220469D02*
X214500D01*
Y63965D01*
X216500D01*
X217544Y64103D01*
X218517Y64506D01*
X219353Y65147D01*
X219994Y65983D01*
X220397Y66956D01*
X220469Y67500D01*
D02*
G37*
G36*
X403500Y62034D02*
X401500D01*
X400456Y61897D01*
X399483Y61494D01*
X398647Y60853D01*
X398006Y60017D01*
X397603Y59044D01*
X397531Y58500D01*
X403500D01*
Y62034D01*
D02*
G37*
G36*
Y57500D02*
X397531D01*
X397603Y56956D01*
X398006Y55983D01*
X398647Y55147D01*
X399483Y54506D01*
X400456Y54103D01*
X401500Y53966D01*
X403500D01*
Y57500D01*
D02*
G37*
G36*
X379000Y60794D02*
X368500D01*
X367622Y60619D01*
X366878Y60122D01*
X361378Y54622D01*
X360880Y53878D01*
X360706Y53000D01*
Y50500D01*
X360880Y49622D01*
X361378Y48878D01*
X362122Y48381D01*
X363000Y48206D01*
X363878Y48381D01*
X364622Y48878D01*
X365120Y49622D01*
X365294Y50500D01*
Y52050D01*
X369450Y56206D01*
X379000D01*
X379878Y56381D01*
X380622Y56878D01*
X381119Y57622D01*
X381294Y58500D01*
X381119Y59378D01*
X380622Y60122D01*
X379878Y60619D01*
X379000Y60794D01*
D02*
G37*
G36*
X284000Y56794D02*
X283122Y56619D01*
X282378Y56122D01*
X281880Y55378D01*
X281706Y54500D01*
X281880Y53622D01*
X282378Y52878D01*
X282471Y52816D01*
Y42184D01*
X282378Y42122D01*
X281880Y41378D01*
X281706Y40500D01*
X281880Y39622D01*
X282378Y38878D01*
X283052Y38427D01*
X283041Y38140D01*
X282969Y37927D01*
X278591D01*
X274248Y42270D01*
X274294Y42500D01*
X274119Y43378D01*
X273622Y44122D01*
X272878Y44620D01*
X272000Y44794D01*
X271122Y44620D01*
X270378Y44122D01*
X269881Y43378D01*
X269706Y42500D01*
X269881Y41622D01*
X270378Y40878D01*
X271122Y40380D01*
X272000Y40206D01*
X272230Y40252D01*
X276991Y35491D01*
X276991Y35491D01*
X277454Y35181D01*
X278000Y35073D01*
X278000Y35073D01*
X284748D01*
X284878Y34878D01*
X285622Y34380D01*
X286500Y34206D01*
X287378Y34380D01*
X288122Y34878D01*
X288619Y35622D01*
X288794Y36500D01*
X288619Y37378D01*
X288122Y38122D01*
X287378Y38620D01*
X286500Y38794D01*
X286117Y38718D01*
X285816Y39168D01*
X286120Y39622D01*
X286294Y40500D01*
X286120Y41378D01*
X285622Y42122D01*
X285529Y42184D01*
Y52816D01*
X285622Y52878D01*
X286120Y53622D01*
X286294Y54500D01*
X286120Y55378D01*
X285622Y56122D01*
X284878Y56619D01*
X284000Y56794D01*
D02*
G37*
G36*
X304000Y51542D02*
X301882Y51375D01*
X299815Y50879D01*
X297852Y50066D01*
X296040Y48956D01*
X294425Y47576D01*
X293044Y45960D01*
X291934Y44148D01*
X291121Y42185D01*
X290625Y40118D01*
X290458Y38000D01*
X290625Y35882D01*
X291121Y33815D01*
X291934Y31852D01*
X293044Y30040D01*
X294425Y28425D01*
X296040Y27044D01*
X297852Y25934D01*
X299815Y25121D01*
X301882Y24625D01*
X304000Y24458D01*
X306118Y24625D01*
X308185Y25121D01*
X310148Y25934D01*
X311960Y27044D01*
X313576Y28425D01*
X314955Y30040D01*
X316066Y31852D01*
X316879Y33815D01*
X317375Y35882D01*
X317542Y38000D01*
X317375Y40118D01*
X316879Y42185D01*
X316066Y44148D01*
X314955Y45960D01*
X313576Y47576D01*
X311960Y48956D01*
X310148Y50066D01*
X308185Y50879D01*
X306118Y51375D01*
X304000Y51542D01*
D02*
G37*
G36*
X264500Y34794D02*
X261000D01*
X260122Y34620D01*
X259378Y34122D01*
X258880Y33378D01*
X258706Y32500D01*
X258880Y31622D01*
X259378Y30878D01*
X260122Y30380D01*
X261000Y30206D01*
X263550D01*
X268878Y24878D01*
X269622Y24381D01*
X270500Y24206D01*
X271378Y24381D01*
X272122Y24878D01*
X272620Y25622D01*
X272794Y26500D01*
X272620Y27378D01*
X272122Y28122D01*
X266122Y34122D01*
X265378Y34620D01*
X264500Y34794D01*
D02*
G37*
G36*
X289000Y25294D02*
X281000D01*
X280122Y25120D01*
X279378Y24622D01*
X278881Y23878D01*
X278706Y23000D01*
X278881Y22122D01*
X279378Y21378D01*
X280122Y20880D01*
X281000Y20706D01*
X289000D01*
X289878Y20880D01*
X290622Y21378D01*
X291120Y22122D01*
X291294Y23000D01*
X291120Y23878D01*
X290622Y24622D01*
X289878Y25120D01*
X289000Y25294D01*
D02*
G37*
G36*
X304500Y14469D02*
Y8500D01*
X308034D01*
Y10500D01*
X307897Y11544D01*
X307494Y12517D01*
X306853Y13353D01*
X306017Y13994D01*
X305044Y14397D01*
X304500Y14469D01*
D02*
G37*
G36*
X294500D02*
Y8500D01*
X298035D01*
Y10500D01*
X297897Y11544D01*
X297494Y12517D01*
X296853Y13353D01*
X296017Y13994D01*
X295044Y14397D01*
X294500Y14469D01*
D02*
G37*
G36*
X218000Y14500D02*
X214500D01*
Y8500D01*
X218000D01*
Y14500D01*
D02*
G37*
G36*
X213500D02*
X210000D01*
Y8500D01*
X213500D01*
Y14500D01*
D02*
G37*
G36*
X303500Y14469D02*
X302956Y14397D01*
X301983Y13994D01*
X301147Y13353D01*
X300506Y12517D01*
X300103Y11544D01*
X299966Y10500D01*
Y8500D01*
X303500D01*
Y14469D01*
D02*
G37*
G36*
X293500D02*
X292956Y14397D01*
X291983Y13994D01*
X291147Y13353D01*
X290506Y12517D01*
X290103Y11544D01*
X289966Y10500D01*
Y8500D01*
X293500D01*
Y14469D01*
D02*
G37*
G36*
X178000Y251542D02*
X175882Y251375D01*
X173815Y250879D01*
X171852Y250066D01*
X170040Y248955D01*
X168424Y247575D01*
X167044Y245960D01*
X165934Y244148D01*
X165121Y242185D01*
X164625Y240118D01*
X164458Y238000D01*
X164625Y235882D01*
X165121Y233815D01*
X165934Y231852D01*
X167044Y230040D01*
X168424Y228425D01*
X170040Y227045D01*
X171852Y225934D01*
X173815Y225121D01*
X175882Y224625D01*
X178000Y224458D01*
X180118Y224625D01*
X182185Y225121D01*
X184148Y225934D01*
X185960Y227045D01*
X187575Y228425D01*
X188955Y230040D01*
X190066Y231852D01*
X190879Y233815D01*
X191375Y235882D01*
X191542Y238000D01*
X191375Y240118D01*
X190879Y242185D01*
X190066Y244148D01*
X188955Y245960D01*
X187575Y247575D01*
X185960Y248955D01*
X184148Y250066D01*
X182185Y250879D01*
X180118Y251375D01*
X178000Y251542D01*
D02*
G37*
G36*
X28000D02*
X25882Y251375D01*
X23815Y250879D01*
X21852Y250066D01*
X20040Y248955D01*
X18425Y247575D01*
X17044Y245960D01*
X15934Y244148D01*
X15121Y242185D01*
X14625Y240118D01*
X14458Y238000D01*
X14625Y235882D01*
X15121Y233815D01*
X15934Y231852D01*
X17044Y230040D01*
X18425Y228425D01*
X20040Y227045D01*
X21852Y225934D01*
X23815Y225121D01*
X25882Y224625D01*
X28000Y224458D01*
X30118Y224625D01*
X32185Y225121D01*
X34148Y225934D01*
X35960Y227045D01*
X37576Y228425D01*
X38956Y230040D01*
X40066Y231852D01*
X40879Y233815D01*
X41375Y235882D01*
X41542Y238000D01*
X41375Y240118D01*
X40879Y242185D01*
X40066Y244148D01*
X38956Y245960D01*
X37576Y247575D01*
X35960Y248955D01*
X34148Y250066D01*
X32185Y250879D01*
X30118Y251375D01*
X28000Y251542D01*
D02*
G37*
G36*
X197500Y222000D02*
X191500D01*
Y218500D01*
X197500D01*
Y222000D01*
D02*
G37*
G36*
Y217500D02*
X191500D01*
Y214000D01*
X197500D01*
Y217500D01*
D02*
G37*
G36*
X10500Y212035D02*
X8500D01*
Y208500D01*
X14469D01*
X14397Y209044D01*
X13994Y210017D01*
X13353Y210853D01*
X12517Y211494D01*
X11544Y211897D01*
X10500Y212035D01*
D02*
G37*
G36*
X14469Y207500D02*
X8500D01*
Y203965D01*
X10500D01*
X11544Y204103D01*
X12517Y204506D01*
X13353Y205147D01*
X13994Y205983D01*
X14397Y206956D01*
X14469Y207500D01*
D02*
G37*
G36*
X197500Y192034D02*
X195500D01*
X194456Y191897D01*
X193483Y191494D01*
X192647Y190853D01*
X192006Y190017D01*
X191603Y189044D01*
X191531Y188500D01*
X197500D01*
Y192034D01*
D02*
G37*
G36*
X10500D02*
X8500D01*
Y188500D01*
X14469D01*
X14397Y189044D01*
X13994Y190017D01*
X13353Y190853D01*
X12517Y191494D01*
X11544Y191897D01*
X10500Y192034D01*
D02*
G37*
G36*
X93000Y186794D02*
X92122Y186619D01*
X91378Y186122D01*
X91316Y186029D01*
X85184D01*
X85122Y186122D01*
X84378Y186619D01*
X83500Y186794D01*
X82622Y186619D01*
X81878Y186122D01*
X81381Y185378D01*
X81206Y184500D01*
X81381Y183622D01*
X81878Y182878D01*
X82622Y182380D01*
X83500Y182206D01*
X84378Y182380D01*
X85122Y182878D01*
X85184Y182971D01*
X91316D01*
X91378Y182878D01*
X92122Y182380D01*
X93000Y182206D01*
X93878Y182380D01*
X94622Y182878D01*
X95119Y183622D01*
X95294Y184500D01*
X95119Y185378D01*
X94622Y186122D01*
X93878Y186619D01*
X93000Y186794D01*
D02*
G37*
G36*
X197500Y187500D02*
X191531D01*
X191603Y186956D01*
X192006Y185983D01*
X192647Y185147D01*
X193483Y184506D01*
X194456Y184103D01*
X195500Y183966D01*
X197500D01*
Y187500D01*
D02*
G37*
G36*
X14469D02*
X8500D01*
Y183966D01*
X10500D01*
X11544Y184103D01*
X12517Y184506D01*
X13353Y185147D01*
X13994Y185983D01*
X14397Y186956D01*
X14469Y187500D01*
D02*
G37*
G36*
X41000Y173294D02*
X40122Y173119D01*
X39378Y172622D01*
X38881Y171878D01*
X38706Y171000D01*
X38752Y170770D01*
X36241Y168259D01*
X35931Y167796D01*
X35823Y167250D01*
X35823Y167250D01*
Y165524D01*
X35436Y165207D01*
X35000Y165294D01*
X34122Y165120D01*
X33378Y164622D01*
X33122D01*
X32378Y165120D01*
X31500Y165294D01*
X30622Y165120D01*
X29878Y164622D01*
X29783Y164481D01*
X29283D01*
X29122Y164722D01*
X28378Y165219D01*
X27500Y165394D01*
X26622Y165219D01*
X25878Y164722D01*
X25381Y163978D01*
X25206Y163100D01*
X25381Y162222D01*
X25878Y161478D01*
X26622Y160980D01*
X27073Y160891D01*
Y152752D01*
X26878Y152622D01*
X26381Y151878D01*
X26206Y151000D01*
X26381Y150122D01*
X26878Y149378D01*
X27622Y148881D01*
X28500Y148706D01*
X29378Y148881D01*
X30122Y149378D01*
X30619Y150122D01*
X30647Y150260D01*
X31500Y150090D01*
X31753Y150140D01*
X31949Y149669D01*
X31878Y149622D01*
X31381Y148878D01*
X31206Y148000D01*
X31381Y147122D01*
X31878Y146378D01*
X32622Y145880D01*
X33500Y145706D01*
X34378Y145880D01*
X35122Y146378D01*
X35620Y147122D01*
X35794Y148000D01*
X35737Y148287D01*
X36157Y148737D01*
X36878Y148881D01*
X37622Y149378D01*
X38120Y150122D01*
X38294Y151000D01*
X38248Y151230D01*
X38259Y151241D01*
X38259Y151241D01*
X38569Y151704D01*
X38677Y152250D01*
X38677Y152250D01*
Y166659D01*
X40770Y168752D01*
X41000Y168706D01*
X41878Y168880D01*
X42622Y169378D01*
X43119Y170122D01*
X43294Y171000D01*
X43119Y171878D01*
X42622Y172622D01*
X41878Y173119D01*
X41000Y173294D01*
D02*
G37*
G36*
X10500Y172035D02*
X8500D01*
Y168500D01*
X14469D01*
X14397Y169044D01*
X13994Y170017D01*
X13353Y170853D01*
X12517Y171494D01*
X11544Y171897D01*
X10500Y172035D01*
D02*
G37*
G36*
X14469Y167500D02*
X8500D01*
Y163965D01*
X10500D01*
X11544Y164103D01*
X12517Y164506D01*
X13353Y165147D01*
X13994Y165983D01*
X14397Y166956D01*
X14469Y167500D01*
D02*
G37*
G36*
X197500Y162034D02*
X195500D01*
X194456Y161897D01*
X193483Y161494D01*
X192647Y160853D01*
X192006Y160017D01*
X191603Y159044D01*
X191531Y158500D01*
X197500D01*
Y162034D01*
D02*
G37*
G36*
X90500Y159294D02*
X89622Y159119D01*
X88878Y158622D01*
X88381Y157878D01*
X88206Y157000D01*
X88381Y156122D01*
X88878Y155378D01*
X89622Y154880D01*
X90500Y154706D01*
X91378Y154880D01*
X91513Y154971D01*
X108816D01*
X108878Y154878D01*
X109622Y154381D01*
X110500Y154206D01*
X111378Y154381D01*
X112122Y154878D01*
X112619Y155622D01*
X112794Y156500D01*
X112619Y157378D01*
X112122Y158122D01*
X111378Y158619D01*
X110500Y158794D01*
X109622Y158619D01*
X108878Y158122D01*
X108816Y158029D01*
X92518D01*
X92122Y158622D01*
X91378Y159119D01*
X90500Y159294D01*
D02*
G37*
G36*
X197500Y157500D02*
X191531D01*
X191603Y156956D01*
X192006Y155983D01*
X192647Y155147D01*
X193483Y154506D01*
X194456Y154103D01*
X195500Y153965D01*
X197500D01*
Y157500D01*
D02*
G37*
G36*
Y142034D02*
X195500D01*
X194456Y141897D01*
X193483Y141494D01*
X192647Y140853D01*
X192006Y140017D01*
X191603Y139044D01*
X191531Y138500D01*
X197500D01*
Y142034D01*
D02*
G37*
G36*
X148000Y137794D02*
X147122Y137619D01*
X146378Y137122D01*
X146316Y137029D01*
X139684D01*
X139622Y137122D01*
X138878Y137619D01*
X138000Y137794D01*
X137122Y137619D01*
X136378Y137122D01*
X135880Y136378D01*
X135706Y135500D01*
X135880Y134622D01*
X136378Y133878D01*
X137122Y133380D01*
X138000Y133206D01*
X138878Y133380D01*
X139622Y133878D01*
X139684Y133971D01*
X146316D01*
X146378Y133878D01*
X147122Y133380D01*
X148000Y133206D01*
X148878Y133380D01*
X149622Y133878D01*
X150119Y134622D01*
X150294Y135500D01*
X150119Y136378D01*
X149622Y137122D01*
X148878Y137619D01*
X148000Y137794D01*
D02*
G37*
G36*
X197500Y137500D02*
X191531D01*
X191603Y136956D01*
X192006Y135983D01*
X192647Y135147D01*
X193483Y134506D01*
X194456Y134103D01*
X195500Y133966D01*
X197500D01*
Y137500D01*
D02*
G37*
G36*
Y132035D02*
X195500D01*
X194456Y131897D01*
X193483Y131494D01*
X192647Y130853D01*
X192006Y130017D01*
X191603Y129044D01*
X191531Y128500D01*
X197500D01*
Y132035D01*
D02*
G37*
G36*
Y127500D02*
X191531D01*
X191603Y126956D01*
X192006Y125983D01*
X192647Y125147D01*
X193483Y124506D01*
X194456Y124103D01*
X195500Y123966D01*
X197500D01*
Y127500D01*
D02*
G37*
G36*
X101000Y147794D02*
X100122Y147619D01*
X99378Y147122D01*
X98881Y146378D01*
X98706Y145500D01*
X98881Y144622D01*
X99378Y143878D01*
X99471Y143816D01*
Y126184D01*
X99378Y126122D01*
X98881Y125378D01*
X98706Y124500D01*
X98881Y123622D01*
X99378Y122878D01*
X100122Y122380D01*
X101000Y122206D01*
X101878Y122380D01*
X102622Y122878D01*
X103120Y123622D01*
X103294Y124500D01*
X103120Y125378D01*
X102622Y126122D01*
X102529Y126184D01*
Y143816D01*
X102622Y143878D01*
X103120Y144622D01*
X103294Y145500D01*
X103120Y146378D01*
X102622Y147122D01*
X101878Y147619D01*
X101000Y147794D01*
D02*
G37*
G36*
X42000Y120294D02*
X41122Y120120D01*
X40378Y119622D01*
X40316Y119529D01*
X29184D01*
X29122Y119622D01*
X28378Y120120D01*
X27500Y120294D01*
X26622Y120120D01*
X25878Y119622D01*
X25381Y118878D01*
X25206Y118000D01*
X25381Y117122D01*
X25878Y116378D01*
X26622Y115881D01*
X27500Y115706D01*
X28378Y115881D01*
X29122Y116378D01*
X29184Y116471D01*
X40316D01*
X40378Y116378D01*
X41122Y115881D01*
X42000Y115706D01*
X42878Y115881D01*
X43622Y116378D01*
X44120Y117122D01*
X44294Y118000D01*
X44120Y118878D01*
X43622Y119622D01*
X42878Y120120D01*
X42000Y120294D01*
D02*
G37*
G36*
X86000D02*
X85122Y120120D01*
X84378Y119622D01*
X83881Y118878D01*
X83706Y118000D01*
X83881Y117122D01*
X84378Y116378D01*
X85122Y115881D01*
X86000Y115706D01*
X86878Y115881D01*
X87622Y116378D01*
X87684Y116471D01*
X108212D01*
X108380Y115622D01*
X108878Y114878D01*
X109622Y114381D01*
X110500Y114206D01*
X111378Y114381D01*
X112122Y114878D01*
X112619Y115622D01*
X112794Y116500D01*
X112619Y117378D01*
X112122Y118122D01*
X111378Y118620D01*
X110500Y118794D01*
X110391Y118772D01*
X110081Y119081D01*
X109585Y119413D01*
X109000Y119529D01*
X87684D01*
X87622Y119622D01*
X86878Y120120D01*
X86000Y120294D01*
D02*
G37*
G36*
X140500Y96517D02*
Y92500D01*
X144517D01*
X144426Y93186D01*
X143969Y94291D01*
X143240Y95240D01*
X142291Y95969D01*
X141186Y96426D01*
X140500Y96517D01*
D02*
G37*
G36*
X139500D02*
X138814Y96426D01*
X137709Y95969D01*
X136760Y95240D01*
X136031Y94291D01*
X135574Y93186D01*
X135483Y92500D01*
X139500D01*
Y96517D01*
D02*
G37*
G36*
X144517Y91500D02*
X140500D01*
Y87483D01*
X141186Y87574D01*
X142291Y88031D01*
X143240Y88760D01*
X143969Y89709D01*
X144426Y90814D01*
X144517Y91500D01*
D02*
G37*
G36*
X139500D02*
X135483D01*
X135574Y90814D01*
X136031Y89709D01*
X136760Y88760D01*
X137709Y88031D01*
X138814Y87574D01*
X139500Y87483D01*
Y91500D01*
D02*
G37*
G36*
X130000Y96583D02*
X128814Y96426D01*
X127709Y95969D01*
X126760Y95240D01*
X126031Y94291D01*
X125574Y93186D01*
X125417Y92000D01*
X125574Y90814D01*
X126031Y89709D01*
X126760Y88760D01*
X127709Y88031D01*
X128814Y87574D01*
X130000Y87418D01*
X131186Y87574D01*
X132291Y88031D01*
X133240Y88760D01*
X133969Y89709D01*
X134426Y90814D01*
X134582Y92000D01*
X134426Y93186D01*
X133969Y94291D01*
X133240Y95240D01*
X132291Y95969D01*
X131186Y96426D01*
X130000Y96583D01*
D02*
G37*
G36*
X120000D02*
X118814Y96426D01*
X117709Y95969D01*
X116760Y95240D01*
X116031Y94291D01*
X115574Y93186D01*
X115418Y92000D01*
X115574Y90814D01*
X116031Y89709D01*
X116760Y88760D01*
X117709Y88031D01*
X118814Y87574D01*
X120000Y87418D01*
X121186Y87574D01*
X122291Y88031D01*
X123240Y88760D01*
X123969Y89709D01*
X124426Y90814D01*
X124583Y92000D01*
X124426Y93186D01*
X123969Y94291D01*
X123240Y95240D01*
X122291Y95969D01*
X121186Y96426D01*
X120000Y96583D01*
D02*
G37*
G36*
X10500Y82034D02*
X8500D01*
Y78500D01*
X14469D01*
X14397Y79044D01*
X13994Y80017D01*
X13353Y80853D01*
X12517Y81494D01*
X11544Y81897D01*
X10500Y82034D01*
D02*
G37*
G36*
X124543Y86543D02*
X115457D01*
Y77457D01*
X124543D01*
Y86543D01*
D02*
G37*
G36*
X140000Y86582D02*
X138814Y86426D01*
X137709Y85969D01*
X136760Y85240D01*
X136031Y84291D01*
X135574Y83186D01*
X135417Y82000D01*
X135574Y80814D01*
X136031Y79709D01*
X136760Y78760D01*
X137709Y78031D01*
X138814Y77574D01*
X140000Y77417D01*
X141186Y77574D01*
X142291Y78031D01*
X143240Y78760D01*
X143969Y79709D01*
X144426Y80814D01*
X144582Y82000D01*
X144426Y83186D01*
X143969Y84291D01*
X143240Y85240D01*
X142291Y85969D01*
X141186Y86426D01*
X140000Y86582D01*
D02*
G37*
G36*
X130000D02*
X128814Y86426D01*
X127709Y85969D01*
X126760Y85240D01*
X126031Y84291D01*
X125574Y83186D01*
X125417Y82000D01*
X125574Y80814D01*
X126031Y79709D01*
X126760Y78760D01*
X127709Y78031D01*
X128814Y77574D01*
X130000Y77417D01*
X131186Y77574D01*
X132291Y78031D01*
X133240Y78760D01*
X133969Y79709D01*
X134426Y80814D01*
X134582Y82000D01*
X134426Y83186D01*
X133969Y84291D01*
X133240Y85240D01*
X132291Y85969D01*
X131186Y86426D01*
X130000Y86582D01*
D02*
G37*
G36*
X14469Y77500D02*
X8500D01*
Y73966D01*
X10500D01*
X11544Y74103D01*
X12517Y74506D01*
X13353Y75147D01*
X13994Y75983D01*
X14397Y76956D01*
X14469Y77500D01*
D02*
G37*
G36*
X197500Y72035D02*
X195500D01*
X194456Y71897D01*
X193483Y71494D01*
X192647Y70853D01*
X192006Y70017D01*
X191603Y69044D01*
X191531Y68500D01*
X197500D01*
Y72035D01*
D02*
G37*
G36*
X10500D02*
X8500D01*
Y68500D01*
X14469D01*
X14397Y69044D01*
X13994Y70017D01*
X13353Y70853D01*
X12517Y71494D01*
X11544Y71897D01*
X10500Y72035D01*
D02*
G37*
G36*
X91500Y79794D02*
X90622Y79619D01*
X89878Y79122D01*
X89381Y78378D01*
X89206Y77500D01*
X89381Y76622D01*
X89878Y75878D01*
X90558Y75424D01*
X92749Y73232D01*
X92620Y72991D01*
X92483Y72791D01*
X91622Y72619D01*
X90878Y72122D01*
X90381Y71378D01*
X90206Y70500D01*
X90381Y69622D01*
X90878Y68878D01*
X91073Y68748D01*
Y67000D01*
X91073Y67000D01*
X91181Y66454D01*
X91491Y65991D01*
X93752Y63730D01*
X93706Y63500D01*
X93881Y62622D01*
X94378Y61878D01*
X95122Y61381D01*
X96000Y61206D01*
X96878Y61381D01*
X97622Y61878D01*
X98119Y62622D01*
X98294Y63500D01*
X98119Y64378D01*
X97622Y65122D01*
X96878Y65619D01*
X96000Y65794D01*
X95770Y65748D01*
X93927Y67591D01*
Y68748D01*
X94122Y68878D01*
X94619Y69622D01*
X94791Y70483D01*
X94991Y70620D01*
X95232Y70749D01*
X98252Y67730D01*
X98206Y67500D01*
X98381Y66622D01*
X98878Y65878D01*
X99622Y65381D01*
X100500Y65206D01*
X101378Y65381D01*
X102122Y65878D01*
X102620Y66622D01*
X102794Y67500D01*
X102620Y68378D01*
X102122Y69122D01*
X101378Y69619D01*
X100500Y69794D01*
X100270Y69748D01*
X93530Y76489D01*
X93619Y76622D01*
X93794Y77500D01*
X93619Y78378D01*
X93122Y79122D01*
X92378Y79619D01*
X91500Y79794D01*
D02*
G37*
G36*
X197500Y67500D02*
X191531D01*
X191603Y66956D01*
X192006Y65983D01*
X192647Y65147D01*
X193483Y64506D01*
X194456Y64103D01*
X195500Y63965D01*
X197500D01*
Y67500D01*
D02*
G37*
G36*
X14469D02*
X8500D01*
Y63965D01*
X10500D01*
X11544Y64103D01*
X12517Y64506D01*
X13353Y65147D01*
X13994Y65983D01*
X14397Y66956D01*
X14469Y67500D01*
D02*
G37*
G36*
X197500Y62034D02*
X195500D01*
X194456Y61897D01*
X193483Y61494D01*
X192647Y60853D01*
X192006Y60017D01*
X191603Y59044D01*
X191531Y58500D01*
X197500D01*
Y62034D01*
D02*
G37*
G36*
Y57500D02*
X191531D01*
X191603Y56956D01*
X192006Y55983D01*
X192647Y55147D01*
X193483Y54506D01*
X194456Y54103D01*
X195500Y53966D01*
X197500D01*
Y57500D01*
D02*
G37*
G36*
X173000Y60794D02*
X162500D01*
X161622Y60619D01*
X160878Y60122D01*
X155378Y54622D01*
X154880Y53878D01*
X154706Y53000D01*
Y50500D01*
X154880Y49622D01*
X155378Y48878D01*
X156122Y48381D01*
X157000Y48206D01*
X157878Y48381D01*
X158622Y48878D01*
X159119Y49622D01*
X159294Y50500D01*
Y52050D01*
X163450Y56206D01*
X173000D01*
X173878Y56381D01*
X174622Y56878D01*
X175119Y57622D01*
X175294Y58500D01*
X175119Y59378D01*
X174622Y60122D01*
X173878Y60619D01*
X173000Y60794D01*
D02*
G37*
G36*
X78000Y56794D02*
X77122Y56619D01*
X76378Y56122D01*
X75881Y55378D01*
X75706Y54500D01*
X75881Y53622D01*
X76378Y52878D01*
X76471Y52816D01*
Y42184D01*
X76378Y42122D01*
X75881Y41378D01*
X75706Y40500D01*
X75881Y39622D01*
X76378Y38878D01*
X77052Y38427D01*
X77041Y38140D01*
X76969Y37927D01*
X72591D01*
X68248Y42270D01*
X68294Y42500D01*
X68119Y43378D01*
X67622Y44122D01*
X66878Y44620D01*
X66000Y44794D01*
X65122Y44620D01*
X64378Y44122D01*
X63881Y43378D01*
X63706Y42500D01*
X63881Y41622D01*
X64378Y40878D01*
X65122Y40380D01*
X66000Y40206D01*
X66230Y40252D01*
X70991Y35491D01*
X70991Y35491D01*
X71454Y35181D01*
X72000Y35073D01*
X72000Y35073D01*
X78748D01*
X78878Y34878D01*
X79622Y34380D01*
X80500Y34206D01*
X81378Y34380D01*
X82122Y34878D01*
X82619Y35622D01*
X82794Y36500D01*
X82619Y37378D01*
X82122Y38122D01*
X81378Y38620D01*
X80500Y38794D01*
X80117Y38718D01*
X79816Y39168D01*
X80119Y39622D01*
X80294Y40500D01*
X80119Y41378D01*
X79622Y42122D01*
X79529Y42184D01*
Y52816D01*
X79622Y52878D01*
X80119Y53622D01*
X80294Y54500D01*
X80119Y55378D01*
X79622Y56122D01*
X78878Y56619D01*
X78000Y56794D01*
D02*
G37*
G36*
X98000Y51542D02*
X95882Y51375D01*
X93815Y50879D01*
X91852Y50066D01*
X90040Y48956D01*
X88424Y47576D01*
X87045Y45960D01*
X85934Y44148D01*
X85121Y42185D01*
X84625Y40118D01*
X84458Y38000D01*
X84625Y35882D01*
X85121Y33815D01*
X85934Y31852D01*
X87045Y30040D01*
X88424Y28425D01*
X90040Y27044D01*
X91852Y25934D01*
X93815Y25121D01*
X95882Y24625D01*
X98000Y24458D01*
X100118Y24625D01*
X102185Y25121D01*
X104148Y25934D01*
X105960Y27044D01*
X107576Y28425D01*
X108956Y30040D01*
X110066Y31852D01*
X110879Y33815D01*
X111375Y35882D01*
X111542Y38000D01*
X111375Y40118D01*
X110879Y42185D01*
X110066Y44148D01*
X108956Y45960D01*
X107576Y47576D01*
X105960Y48956D01*
X104148Y50066D01*
X102185Y50879D01*
X100118Y51375D01*
X98000Y51542D01*
D02*
G37*
G36*
X58500Y34794D02*
X55000D01*
X54122Y34620D01*
X53378Y34122D01*
X52881Y33378D01*
X52706Y32500D01*
X52881Y31622D01*
X53378Y30878D01*
X54122Y30380D01*
X55000Y30206D01*
X57550D01*
X62878Y24878D01*
X63622Y24381D01*
X64500Y24206D01*
X65378Y24381D01*
X66122Y24878D01*
X66619Y25622D01*
X66794Y26500D01*
X66619Y27378D01*
X66122Y28122D01*
X60122Y34122D01*
X59378Y34620D01*
X58500Y34794D01*
D02*
G37*
G36*
X83000Y25294D02*
X75000D01*
X74122Y25120D01*
X73378Y24622D01*
X72881Y23878D01*
X72706Y23000D01*
X72881Y22122D01*
X73378Y21378D01*
X74122Y20880D01*
X75000Y20706D01*
X83000D01*
X83878Y20880D01*
X84622Y21378D01*
X85119Y22122D01*
X85294Y23000D01*
X85119Y23878D01*
X84622Y24622D01*
X83878Y25120D01*
X83000Y25294D01*
D02*
G37*
G36*
X98500Y14469D02*
Y8500D01*
X102034D01*
Y10500D01*
X101897Y11544D01*
X101494Y12517D01*
X100853Y13353D01*
X100017Y13994D01*
X99044Y14397D01*
X98500Y14469D01*
D02*
G37*
G36*
X88500D02*
Y8500D01*
X92035D01*
Y10500D01*
X91897Y11544D01*
X91494Y12517D01*
X90853Y13353D01*
X90017Y13994D01*
X89044Y14397D01*
X88500Y14469D01*
D02*
G37*
G36*
X12000Y14500D02*
X8500D01*
Y8500D01*
X12000D01*
Y14500D01*
D02*
G37*
G36*
X7500D02*
X4000D01*
Y8500D01*
X7500D01*
Y14500D01*
D02*
G37*
G36*
X97500Y14469D02*
X96956Y14397D01*
X95983Y13994D01*
X95147Y13353D01*
X94506Y12517D01*
X94103Y11544D01*
X93966Y10500D01*
Y8500D01*
X97500D01*
Y14469D01*
D02*
G37*
G36*
X87500D02*
X86956Y14397D01*
X85983Y13994D01*
X85147Y13353D01*
X84506Y12517D01*
X84103Y11544D01*
X83965Y10500D01*
Y8500D01*
X87500D01*
Y14469D01*
D02*
G37*
%LPD*%
D18*
X80000Y36500D02*
X80500Y36000D01*
Y36500D01*
X72000D02*
X80000D01*
X66000Y42500D02*
X72000Y36500D01*
X178000Y8000D02*
X178500Y8500D01*
Y56500D01*
X168000Y8000D02*
Y18000D01*
X175500Y25500D01*
Y54000D01*
X158000Y8000D02*
Y21000D01*
X171000Y34000D01*
Y51500D01*
X164500Y52000D02*
X167000D01*
X163000Y50500D02*
X164500Y52000D01*
X163000Y32500D02*
Y50500D01*
X148000Y17500D02*
X163000Y32500D01*
X148000Y8000D02*
Y17500D01*
X27500Y163000D02*
Y163100D01*
Y163000D02*
X28500Y162000D01*
Y151000D02*
Y162000D01*
X92500Y67000D02*
Y70500D01*
X91500Y76500D02*
X100500Y67500D01*
X91500Y76500D02*
Y77500D01*
X38000Y8000D02*
Y23000D01*
X40000Y25000D01*
X92500Y67000D02*
X96000Y63500D01*
X31500Y163000D02*
X32000Y162500D01*
X31500Y162000D02*
X32000Y162500D01*
X31500Y152384D02*
Y162000D01*
X35000Y153182D02*
Y163000D01*
X33750Y151932D02*
X35000Y153182D01*
X33750Y148250D02*
Y151932D01*
X33500Y148000D02*
X33750Y148250D01*
X36000Y151000D02*
X37250Y152250D01*
Y167250D01*
X41000Y171000D01*
X286000Y36500D02*
X286500Y36000D01*
Y36500D01*
X278000D02*
X286000D01*
X272000Y42500D02*
X278000Y36500D01*
X384000Y8000D02*
X384500Y8500D01*
Y56500D01*
X374000Y8000D02*
Y18000D01*
X381500Y25500D01*
Y54000D01*
X364000Y8000D02*
Y21000D01*
X377000Y34000D01*
Y51500D01*
X370500Y52000D02*
X373000D01*
X369000Y50500D02*
X370500Y52000D01*
X369000Y32500D02*
Y50500D01*
X354000Y17500D02*
X369000Y32500D01*
X354000Y8000D02*
Y17500D01*
X233500Y163000D02*
Y163100D01*
Y163000D02*
X234500Y162000D01*
Y151000D02*
Y162000D01*
X298500Y67000D02*
Y70500D01*
X297500Y76500D02*
X306500Y67500D01*
X297500Y76500D02*
Y77500D01*
X244000Y8000D02*
Y23000D01*
X246000Y25000D01*
X298500Y67000D02*
X302000Y63500D01*
X237500Y163000D02*
X238000Y162500D01*
X237500Y162000D02*
X238000Y162500D01*
X237500Y152384D02*
Y162000D01*
X241000Y153182D02*
Y163000D01*
X239750Y151932D02*
X241000Y153182D01*
X239750Y148250D02*
Y151932D01*
X239500Y148000D02*
X239750Y148250D01*
X242000Y151000D02*
X243250Y152250D01*
Y167250D01*
X247000Y171000D01*
X80000Y291000D02*
X80500Y290500D01*
Y291000D01*
X72000D02*
X80000D01*
X66000Y297000D02*
X72000Y291000D01*
X178000Y262500D02*
X178500Y263000D01*
Y311000D01*
X168000Y262500D02*
Y272500D01*
X175500Y280000D01*
Y308500D01*
X158000Y262500D02*
Y275500D01*
X171000Y288500D01*
Y306000D01*
X164500Y306500D02*
X167000D01*
X163000Y305000D02*
X164500Y306500D01*
X163000Y287000D02*
Y305000D01*
X148000Y272000D02*
X163000Y287000D01*
X148000Y262500D02*
Y272000D01*
X27500Y417500D02*
Y417600D01*
Y417500D02*
X28500Y416500D01*
Y405500D02*
Y416500D01*
X92500Y321500D02*
Y325000D01*
X91500Y331000D02*
X100500Y322000D01*
X91500Y331000D02*
Y332000D01*
X38000Y262500D02*
Y277500D01*
X40000Y279500D01*
X92500Y321500D02*
X96000Y318000D01*
X31500Y417500D02*
X32000Y417000D01*
X31500Y416500D02*
X32000Y417000D01*
X31500Y406884D02*
Y416500D01*
X35000Y407682D02*
Y417500D01*
X33750Y406432D02*
X35000Y407682D01*
X33750Y402750D02*
Y406432D01*
X33500Y402500D02*
X33750Y402750D01*
X36000Y405500D02*
X37250Y406750D01*
Y421750D01*
X41000Y425500D01*
X286000Y291000D02*
X286500Y290500D01*
Y291000D01*
X278000D02*
X286000D01*
X272000Y297000D02*
X278000Y291000D01*
X384000Y262500D02*
X384500Y263000D01*
Y311000D01*
X374000Y262500D02*
Y272500D01*
X381500Y280000D01*
Y308500D01*
X364000Y262500D02*
Y275500D01*
X377000Y288500D01*
Y306000D01*
X370500Y306500D02*
X373000D01*
X369000Y305000D02*
X370500Y306500D01*
X369000Y287000D02*
Y305000D01*
X354000Y272000D02*
X369000Y287000D01*
X354000Y262500D02*
Y272000D01*
X233500Y417500D02*
Y417600D01*
Y417500D02*
X234500Y416500D01*
Y405500D02*
Y416500D01*
X298500Y321500D02*
Y325000D01*
X297500Y331000D02*
X306500Y322000D01*
X297500Y331000D02*
Y332000D01*
X244000Y262500D02*
Y277500D01*
X246000Y279500D01*
X298500Y321500D02*
X302000Y318000D01*
X237500Y417500D02*
X238000Y417000D01*
X237500Y416500D02*
X238000Y417000D01*
X237500Y406884D02*
Y416500D01*
X241000Y407682D02*
Y417500D01*
X239750Y406432D02*
X241000Y407682D01*
X239750Y402750D02*
Y406432D01*
X239500Y402500D02*
X239750Y402750D01*
X242000Y405500D02*
X243250Y406750D01*
Y421750D01*
X247000Y425500D01*
D19*
X75000Y23000D02*
X83000D01*
X162500Y58500D02*
X173000D01*
X157000Y53000D02*
X162500Y58500D01*
X157000Y50500D02*
Y53000D01*
X118500Y23000D02*
X138000D01*
X138500Y22500D01*
X55000Y32500D02*
X58500D01*
X64500Y26500D01*
X281000Y23000D02*
X289000D01*
X368500Y58500D02*
X379000D01*
X363000Y53000D02*
X368500Y58500D01*
X363000Y50500D02*
Y53000D01*
X324500Y23000D02*
X344000D01*
X344500Y22500D01*
X261000Y32500D02*
X264500D01*
X270500Y26500D01*
X75000Y277500D02*
X83000D01*
X162500Y313000D02*
X173000D01*
X157000Y307500D02*
X162500Y313000D01*
X157000Y305000D02*
Y307500D01*
X118500Y277500D02*
X138000D01*
X138500Y277000D01*
X55000Y287000D02*
X58500D01*
X64500Y281000D01*
X281000Y277500D02*
X289000D01*
X368500Y313000D02*
X379000D01*
X363000Y307500D02*
X368500Y313000D01*
X363000Y305000D02*
Y307500D01*
X324500Y277500D02*
X344000D01*
X344500Y277000D01*
X261000Y287000D02*
X264500D01*
X270500Y281000D01*
D20*
X108000Y17500D02*
X117500Y27000D01*
X8000Y58000D02*
X27500D01*
X117500Y27000D02*
Y60000D01*
X101000Y124500D02*
Y145500D01*
X83500Y184500D02*
X93000D01*
X91000Y156500D02*
X110500D01*
X90500Y157000D02*
X91000Y156500D01*
X27500Y118000D02*
X42000D01*
X138000Y135500D02*
X148000D01*
X109000Y118000D02*
X110500Y116500D01*
X86000Y118000D02*
X109000D01*
X78000Y40500D02*
Y54500D01*
X108000Y8000D02*
Y17500D01*
X48000Y8000D02*
Y33000D01*
X314000Y17500D02*
X323500Y27000D01*
X214000Y58000D02*
X233500D01*
X323500Y27000D02*
Y60000D01*
X307000Y124500D02*
Y145500D01*
X289500Y184500D02*
X299000D01*
X297000Y156500D02*
X316500D01*
X296500Y157000D02*
X297000Y156500D01*
X233500Y118000D02*
X248000D01*
X344000Y135500D02*
X354000D01*
X315000Y118000D02*
X316500Y116500D01*
X292000Y118000D02*
X315000D01*
X284000Y40500D02*
Y54500D01*
X314000Y8000D02*
Y17500D01*
X254000Y8000D02*
Y33000D01*
X108000Y272000D02*
X117500Y281500D01*
X8000Y312500D02*
X27500D01*
X117500Y281500D02*
Y314500D01*
X101000Y379000D02*
Y400000D01*
X83500Y439000D02*
X93000D01*
X91000Y411000D02*
X110500D01*
X90500Y411500D02*
X91000Y411000D01*
X27500Y372500D02*
X42000D01*
X138000Y390000D02*
X148000D01*
X109000Y372500D02*
X110500Y371000D01*
X86000Y372500D02*
X109000D01*
X78000Y295000D02*
Y309000D01*
X108000Y262500D02*
Y272000D01*
X48000Y262500D02*
Y287500D01*
X314000Y272000D02*
X323500Y281500D01*
X214000Y312500D02*
X233500D01*
X323500Y281500D02*
Y314500D01*
X307000Y379000D02*
Y400000D01*
X289500Y439000D02*
X299000D01*
X297000Y411000D02*
X316500D01*
X296500Y411500D02*
X297000Y411000D01*
X233500Y372500D02*
X248000D01*
X344000Y390000D02*
X354000D01*
X315000Y372500D02*
X316500Y371000D01*
X292000Y372500D02*
X315000D01*
X284000Y295000D02*
Y309000D01*
X314000Y262500D02*
Y272000D01*
X254000Y262500D02*
Y287500D01*
D22*
X120000Y82000D02*
D03*
X326000D02*
D03*
X120000Y336500D02*
D03*
X326000D02*
D03*
D23*
X120000Y92000D02*
D03*
X130000Y82000D02*
D03*
Y92000D02*
D03*
X140000Y82000D02*
D03*
Y92000D02*
D03*
X326000D02*
D03*
X336000Y82000D02*
D03*
Y92000D02*
D03*
X346000Y82000D02*
D03*
Y92000D02*
D03*
X120000Y346500D02*
D03*
X130000Y336500D02*
D03*
Y346500D02*
D03*
X140000Y336500D02*
D03*
Y346500D02*
D03*
X326000D02*
D03*
X336000Y336500D02*
D03*
Y346500D02*
D03*
X346000Y336500D02*
D03*
Y346500D02*
D03*
D24*
X98000Y38000D02*
D03*
X28000Y238000D02*
D03*
X178000D02*
D03*
X304000Y38000D02*
D03*
X234000Y238000D02*
D03*
X384000D02*
D03*
X98000Y292500D02*
D03*
X28000Y492500D02*
D03*
X178000D02*
D03*
X304000Y292500D02*
D03*
X234000Y492500D02*
D03*
X384000D02*
D03*
D25*
X8000Y218000D02*
D03*
X198000D02*
D03*
X214000D02*
D03*
X404000D02*
D03*
X8000Y472500D02*
D03*
X198000D02*
D03*
X214000D02*
D03*
X404000D02*
D03*
D26*
X8000Y208000D02*
D03*
Y198000D02*
D03*
Y188000D02*
D03*
Y178000D02*
D03*
Y168000D02*
D03*
Y158000D02*
D03*
Y148000D02*
D03*
Y138000D02*
D03*
Y128000D02*
D03*
Y118000D02*
D03*
Y108000D02*
D03*
Y98000D02*
D03*
Y88000D02*
D03*
Y78000D02*
D03*
Y68000D02*
D03*
Y58000D02*
D03*
Y48000D02*
D03*
Y38000D02*
D03*
Y28000D02*
D03*
X198000Y208000D02*
D03*
Y198000D02*
D03*
Y188000D02*
D03*
Y178000D02*
D03*
Y168000D02*
D03*
Y158000D02*
D03*
Y148000D02*
D03*
Y138000D02*
D03*
Y128000D02*
D03*
Y118000D02*
D03*
Y108000D02*
D03*
Y98000D02*
D03*
Y88000D02*
D03*
Y78000D02*
D03*
Y68000D02*
D03*
Y58000D02*
D03*
Y48000D02*
D03*
Y38000D02*
D03*
Y28000D02*
D03*
X214000Y208000D02*
D03*
Y198000D02*
D03*
Y188000D02*
D03*
Y178000D02*
D03*
Y168000D02*
D03*
Y158000D02*
D03*
Y148000D02*
D03*
Y138000D02*
D03*
Y128000D02*
D03*
Y118000D02*
D03*
Y108000D02*
D03*
Y98000D02*
D03*
Y88000D02*
D03*
Y78000D02*
D03*
Y68000D02*
D03*
Y58000D02*
D03*
Y48000D02*
D03*
Y38000D02*
D03*
Y28000D02*
D03*
X404000Y208000D02*
D03*
Y198000D02*
D03*
Y188000D02*
D03*
Y178000D02*
D03*
Y168000D02*
D03*
Y158000D02*
D03*
Y148000D02*
D03*
Y138000D02*
D03*
Y128000D02*
D03*
Y118000D02*
D03*
Y108000D02*
D03*
Y98000D02*
D03*
Y88000D02*
D03*
Y78000D02*
D03*
Y68000D02*
D03*
Y58000D02*
D03*
Y48000D02*
D03*
Y38000D02*
D03*
Y28000D02*
D03*
X8000Y462500D02*
D03*
Y452500D02*
D03*
Y442500D02*
D03*
Y432500D02*
D03*
Y422500D02*
D03*
Y412500D02*
D03*
Y402500D02*
D03*
Y392500D02*
D03*
Y382500D02*
D03*
Y372500D02*
D03*
Y362500D02*
D03*
Y352500D02*
D03*
Y342500D02*
D03*
Y332500D02*
D03*
Y322500D02*
D03*
Y312500D02*
D03*
Y302500D02*
D03*
Y292500D02*
D03*
Y282500D02*
D03*
X198000Y462500D02*
D03*
Y452500D02*
D03*
Y442500D02*
D03*
Y432500D02*
D03*
Y422500D02*
D03*
Y412500D02*
D03*
Y402500D02*
D03*
Y392500D02*
D03*
Y382500D02*
D03*
Y372500D02*
D03*
Y362500D02*
D03*
Y352500D02*
D03*
Y342500D02*
D03*
Y332500D02*
D03*
Y322500D02*
D03*
Y312500D02*
D03*
Y302500D02*
D03*
Y292500D02*
D03*
Y282500D02*
D03*
X214000Y462500D02*
D03*
Y452500D02*
D03*
Y442500D02*
D03*
Y432500D02*
D03*
Y422500D02*
D03*
Y412500D02*
D03*
Y402500D02*
D03*
Y392500D02*
D03*
Y382500D02*
D03*
Y372500D02*
D03*
Y362500D02*
D03*
Y352500D02*
D03*
Y342500D02*
D03*
Y332500D02*
D03*
Y322500D02*
D03*
Y312500D02*
D03*
Y302500D02*
D03*
Y292500D02*
D03*
Y282500D02*
D03*
X404000Y462500D02*
D03*
Y452500D02*
D03*
Y442500D02*
D03*
Y432500D02*
D03*
Y422500D02*
D03*
Y412500D02*
D03*
Y402500D02*
D03*
Y392500D02*
D03*
Y382500D02*
D03*
Y372500D02*
D03*
Y362500D02*
D03*
Y352500D02*
D03*
Y342500D02*
D03*
Y332500D02*
D03*
Y322500D02*
D03*
Y312500D02*
D03*
Y302500D02*
D03*
Y292500D02*
D03*
Y282500D02*
D03*
D27*
X8000Y8000D02*
D03*
X214000D02*
D03*
X8000Y262500D02*
D03*
X214000D02*
D03*
D28*
X18000Y8000D02*
D03*
X28000D02*
D03*
X38000D02*
D03*
X48000D02*
D03*
X58000D02*
D03*
X68000D02*
D03*
X78000D02*
D03*
X88000D02*
D03*
X98000D02*
D03*
X108000D02*
D03*
X118000D02*
D03*
X128000D02*
D03*
X138000D02*
D03*
X148000D02*
D03*
X158000D02*
D03*
X168000D02*
D03*
X178000D02*
D03*
X188000D02*
D03*
X198000D02*
D03*
X224000D02*
D03*
X234000D02*
D03*
X244000D02*
D03*
X254000D02*
D03*
X264000D02*
D03*
X274000D02*
D03*
X284000D02*
D03*
X294000D02*
D03*
X304000D02*
D03*
X314000D02*
D03*
X324000D02*
D03*
X334000D02*
D03*
X344000D02*
D03*
X354000D02*
D03*
X364000D02*
D03*
X374000D02*
D03*
X384000D02*
D03*
X394000D02*
D03*
X404000D02*
D03*
X18000Y262500D02*
D03*
X28000D02*
D03*
X38000D02*
D03*
X48000D02*
D03*
X58000D02*
D03*
X68000D02*
D03*
X78000D02*
D03*
X88000D02*
D03*
X98000D02*
D03*
X108000D02*
D03*
X118000D02*
D03*
X128000D02*
D03*
X138000D02*
D03*
X148000D02*
D03*
X158000D02*
D03*
X168000D02*
D03*
X178000D02*
D03*
X188000D02*
D03*
X198000D02*
D03*
X224000D02*
D03*
X234000D02*
D03*
X244000D02*
D03*
X254000D02*
D03*
X264000D02*
D03*
X274000D02*
D03*
X284000D02*
D03*
X294000D02*
D03*
X304000D02*
D03*
X314000D02*
D03*
X324000D02*
D03*
X334000D02*
D03*
X344000D02*
D03*
X354000D02*
D03*
X364000D02*
D03*
X374000D02*
D03*
X384000D02*
D03*
X394000D02*
D03*
X404000D02*
D03*
D29*
X82677Y70866D02*
D03*
Y106299D02*
D03*
X51181Y236221D02*
D03*
X153543D02*
D03*
X137795Y129921D02*
D03*
X129921Y110236D02*
D03*
X157480Y35433D02*
D03*
X188976Y19685D02*
D03*
X181102Y94488D02*
D03*
X165354Y86614D02*
D03*
X181102Y66929D02*
D03*
Y106299D02*
D03*
Y137795D02*
D03*
X149606Y185039D02*
D03*
X177165Y220472D02*
D03*
X78740Y204724D02*
D03*
X55118D02*
D03*
X129921Y185039D02*
D03*
X114173Y145669D02*
D03*
Y165354D02*
D03*
X86614Y161417D02*
D03*
Y149606D02*
D03*
X51181Y133858D02*
D03*
X62992Y106299D02*
D03*
Y55118D02*
D03*
X11811Y19685D02*
D03*
X23622Y39370D02*
D03*
Y78740D02*
D03*
Y220472D02*
D03*
Y204724D02*
D03*
Y177165D02*
D03*
Y188976D02*
D03*
X83000Y23000D02*
D03*
X75000D02*
D03*
X80500Y36500D02*
D03*
X66000Y42500D02*
D03*
X27500Y58000D02*
D03*
X178500Y56500D02*
D03*
X175500Y54000D02*
D03*
X171000Y51500D02*
D03*
X167000Y52000D02*
D03*
X157000Y50500D02*
D03*
X27500Y163100D02*
D03*
X28500Y151000D02*
D03*
X117500Y60000D02*
D03*
X101000Y124500D02*
D03*
Y145500D02*
D03*
X111000Y123000D02*
D03*
X135000Y161000D02*
D03*
X115500Y184500D02*
D03*
X93000D02*
D03*
X83500D02*
D03*
X123500Y191000D02*
D03*
X153000Y165000D02*
D03*
X55500Y184500D02*
D03*
Y143000D02*
D03*
X72500Y122000D02*
D03*
X116500Y107500D02*
D03*
X110500Y156500D02*
D03*
X90500Y157000D02*
D03*
X42000Y118000D02*
D03*
X110500Y116500D02*
D03*
X138000Y135500D02*
D03*
X148000D02*
D03*
X86000Y118000D02*
D03*
X92500Y70500D02*
D03*
X100500Y67500D02*
D03*
X91500Y77500D02*
D03*
X40000Y25000D02*
D03*
X78000Y40500D02*
D03*
Y54500D02*
D03*
X96000Y63500D02*
D03*
X118500Y23000D02*
D03*
X138500Y22500D02*
D03*
X48000Y33000D02*
D03*
X55000Y32500D02*
D03*
X64500Y26500D02*
D03*
X144000Y35000D02*
D03*
X176500Y71500D02*
D03*
X165500Y186500D02*
D03*
X173500D02*
D03*
X180000Y192000D02*
D03*
X159500D02*
D03*
X37000Y49000D02*
D03*
X173000Y58500D02*
D03*
X41000Y171000D02*
D03*
X31500Y163000D02*
D03*
X35000D02*
D03*
X33500Y148000D02*
D03*
X36000Y151000D02*
D03*
X31500Y152384D02*
D03*
X27500Y118000D02*
D03*
X288677Y70866D02*
D03*
Y106299D02*
D03*
X257181Y236221D02*
D03*
X359543D02*
D03*
X343795Y129921D02*
D03*
X335921Y110236D02*
D03*
X363480Y35433D02*
D03*
X394976Y19685D02*
D03*
X387102Y94488D02*
D03*
X371354Y86614D02*
D03*
X387102Y66929D02*
D03*
Y106299D02*
D03*
Y137795D02*
D03*
X355606Y185039D02*
D03*
X383165Y220472D02*
D03*
X284740Y204724D02*
D03*
X261118D02*
D03*
X335921Y185039D02*
D03*
X320173Y145669D02*
D03*
Y165354D02*
D03*
X292614Y161417D02*
D03*
Y149606D02*
D03*
X257181Y133858D02*
D03*
X268992Y106299D02*
D03*
Y55118D02*
D03*
X217811Y19685D02*
D03*
X229622Y39370D02*
D03*
Y78740D02*
D03*
Y220472D02*
D03*
Y204724D02*
D03*
Y177165D02*
D03*
Y188976D02*
D03*
X289000Y23000D02*
D03*
X281000D02*
D03*
X286500Y36500D02*
D03*
X272000Y42500D02*
D03*
X233500Y58000D02*
D03*
X384500Y56500D02*
D03*
X381500Y54000D02*
D03*
X377000Y51500D02*
D03*
X373000Y52000D02*
D03*
X363000Y50500D02*
D03*
X233500Y163100D02*
D03*
X234500Y151000D02*
D03*
X323500Y60000D02*
D03*
X307000Y124500D02*
D03*
Y145500D02*
D03*
X317000Y123000D02*
D03*
X341000Y161000D02*
D03*
X321500Y184500D02*
D03*
X299000D02*
D03*
X289500D02*
D03*
X329500Y191000D02*
D03*
X359000Y165000D02*
D03*
X261500Y184500D02*
D03*
Y143000D02*
D03*
X278500Y122000D02*
D03*
X322500Y107500D02*
D03*
X316500Y156500D02*
D03*
X296500Y157000D02*
D03*
X248000Y118000D02*
D03*
X316500Y116500D02*
D03*
X344000Y135500D02*
D03*
X354000D02*
D03*
X292000Y118000D02*
D03*
X298500Y70500D02*
D03*
X306500Y67500D02*
D03*
X297500Y77500D02*
D03*
X246000Y25000D02*
D03*
X284000Y40500D02*
D03*
Y54500D02*
D03*
X302000Y63500D02*
D03*
X324500Y23000D02*
D03*
X344500Y22500D02*
D03*
X254000Y33000D02*
D03*
X261000Y32500D02*
D03*
X270500Y26500D02*
D03*
X350000Y35000D02*
D03*
X382500Y71500D02*
D03*
X371500Y186500D02*
D03*
X379500D02*
D03*
X386000Y192000D02*
D03*
X365500D02*
D03*
X243000Y49000D02*
D03*
X379000Y58500D02*
D03*
X247000Y171000D02*
D03*
X237500Y163000D02*
D03*
X241000D02*
D03*
X239500Y148000D02*
D03*
X242000Y151000D02*
D03*
X237500Y152384D02*
D03*
X233500Y118000D02*
D03*
X82677Y325366D02*
D03*
Y360799D02*
D03*
X51181Y490721D02*
D03*
X153543D02*
D03*
X137795Y384421D02*
D03*
X129921Y364736D02*
D03*
X157480Y289933D02*
D03*
X188976Y274185D02*
D03*
X181102Y348988D02*
D03*
X165354Y341114D02*
D03*
X181102Y321429D02*
D03*
Y360799D02*
D03*
Y392295D02*
D03*
X149606Y439539D02*
D03*
X177165Y474972D02*
D03*
X78740Y459224D02*
D03*
X55118D02*
D03*
X129921Y439539D02*
D03*
X114173Y400169D02*
D03*
Y419854D02*
D03*
X86614Y415917D02*
D03*
Y404106D02*
D03*
X51181Y388358D02*
D03*
X62992Y360799D02*
D03*
Y309618D02*
D03*
X11811Y274185D02*
D03*
X23622Y293870D02*
D03*
Y333240D02*
D03*
Y474972D02*
D03*
Y459224D02*
D03*
Y431665D02*
D03*
Y443476D02*
D03*
X83000Y277500D02*
D03*
X75000D02*
D03*
X80500Y291000D02*
D03*
X66000Y297000D02*
D03*
X27500Y312500D02*
D03*
X178500Y311000D02*
D03*
X175500Y308500D02*
D03*
X171000Y306000D02*
D03*
X167000Y306500D02*
D03*
X157000Y305000D02*
D03*
X27500Y417600D02*
D03*
X28500Y405500D02*
D03*
X117500Y314500D02*
D03*
X101000Y379000D02*
D03*
Y400000D02*
D03*
X111000Y377500D02*
D03*
X135000Y415500D02*
D03*
X115500Y439000D02*
D03*
X93000D02*
D03*
X83500D02*
D03*
X123500Y445500D02*
D03*
X153000Y419500D02*
D03*
X55500Y439000D02*
D03*
Y397500D02*
D03*
X72500Y376500D02*
D03*
X116500Y362000D02*
D03*
X110500Y411000D02*
D03*
X90500Y411500D02*
D03*
X42000Y372500D02*
D03*
X110500Y371000D02*
D03*
X138000Y390000D02*
D03*
X148000D02*
D03*
X86000Y372500D02*
D03*
X92500Y325000D02*
D03*
X100500Y322000D02*
D03*
X91500Y332000D02*
D03*
X40000Y279500D02*
D03*
X78000Y295000D02*
D03*
Y309000D02*
D03*
X96000Y318000D02*
D03*
X118500Y277500D02*
D03*
X138500Y277000D02*
D03*
X48000Y287500D02*
D03*
X55000Y287000D02*
D03*
X64500Y281000D02*
D03*
X144000Y289500D02*
D03*
X176500Y326000D02*
D03*
X165500Y441000D02*
D03*
X173500D02*
D03*
X180000Y446500D02*
D03*
X159500D02*
D03*
X37000Y303500D02*
D03*
X173000Y313000D02*
D03*
X41000Y425500D02*
D03*
X31500Y417500D02*
D03*
X35000D02*
D03*
X33500Y402500D02*
D03*
X36000Y405500D02*
D03*
X31500Y406884D02*
D03*
X27500Y372500D02*
D03*
X288677Y325366D02*
D03*
Y360799D02*
D03*
X257181Y490721D02*
D03*
X359543D02*
D03*
X343795Y384421D02*
D03*
X335921Y364736D02*
D03*
X363480Y289933D02*
D03*
X394976Y274185D02*
D03*
X387102Y348988D02*
D03*
X371354Y341114D02*
D03*
X387102Y321429D02*
D03*
Y360799D02*
D03*
Y392295D02*
D03*
X355606Y439539D02*
D03*
X383165Y474972D02*
D03*
X284740Y459224D02*
D03*
X261118D02*
D03*
X335921Y439539D02*
D03*
X320173Y400169D02*
D03*
Y419854D02*
D03*
X292614Y415917D02*
D03*
Y404106D02*
D03*
X257181Y388358D02*
D03*
X268992Y360799D02*
D03*
Y309618D02*
D03*
X217811Y274185D02*
D03*
X229622Y293870D02*
D03*
Y333240D02*
D03*
Y474972D02*
D03*
Y459224D02*
D03*
Y431665D02*
D03*
Y443476D02*
D03*
X289000Y277500D02*
D03*
X281000D02*
D03*
X286500Y291000D02*
D03*
X272000Y297000D02*
D03*
X233500Y312500D02*
D03*
X384500Y311000D02*
D03*
X381500Y308500D02*
D03*
X377000Y306000D02*
D03*
X373000Y306500D02*
D03*
X363000Y305000D02*
D03*
X233500Y417600D02*
D03*
X234500Y405500D02*
D03*
X323500Y314500D02*
D03*
X307000Y379000D02*
D03*
Y400000D02*
D03*
X317000Y377500D02*
D03*
X341000Y415500D02*
D03*
X321500Y439000D02*
D03*
X299000D02*
D03*
X289500D02*
D03*
X329500Y445500D02*
D03*
X359000Y419500D02*
D03*
X261500Y439000D02*
D03*
Y397500D02*
D03*
X278500Y376500D02*
D03*
X322500Y362000D02*
D03*
X316500Y411000D02*
D03*
X296500Y411500D02*
D03*
X248000Y372500D02*
D03*
X316500Y371000D02*
D03*
X344000Y390000D02*
D03*
X354000D02*
D03*
X292000Y372500D02*
D03*
X298500Y325000D02*
D03*
X306500Y322000D02*
D03*
X297500Y332000D02*
D03*
X246000Y279500D02*
D03*
X284000Y295000D02*
D03*
Y309000D02*
D03*
X302000Y318000D02*
D03*
X324500Y277500D02*
D03*
X344500Y277000D02*
D03*
X254000Y287500D02*
D03*
X261000Y287000D02*
D03*
X270500Y281000D02*
D03*
X350000Y289500D02*
D03*
X382500Y326000D02*
D03*
X371500Y441000D02*
D03*
X379500D02*
D03*
X386000Y446500D02*
D03*
X365500D02*
D03*
X243000Y303500D02*
D03*
X379000Y313000D02*
D03*
X247000Y425500D02*
D03*
X237500Y417500D02*
D03*
X241000D02*
D03*
X239500Y402500D02*
D03*
X242000Y405500D02*
D03*
X237500Y406884D02*
D03*
X233500Y372500D02*
D03*
M02*
