G04*
G04 #@! TF.GenerationSoftware,Altium Limited,Altium Designer,18.1.7 (191)*
G04*
G04 Layer_Physical_Order=4*
G04 Layer_Color=16711680*
%FSLAX25Y25*%
%MOIN*%
G70*
G01*
G75*
%ADD13C,0.01000*%
%ADD15C,0.00800*%
%ADD16C,0.00500*%
%ADD50C,0.02000*%
%ADD54C,0.05906*%
%ADD55C,0.25000*%
%ADD56R,0.11000X0.06000*%
%ADD57O,0.11000X0.06000*%
%ADD58R,0.06000X0.11000*%
%ADD59O,0.06000X0.11000*%
%ADD60C,0.02400*%
G36*
X204871Y222200D02*
X198900D01*
Y218200D01*
Y214200D01*
X204871D01*
Y210580D01*
X204271Y210378D01*
X203753Y211053D01*
X202917Y211694D01*
X201944Y212097D01*
X200900Y212234D01*
X195900D01*
X194856Y212097D01*
X193883Y211694D01*
X193047Y211053D01*
X192406Y210217D01*
X192003Y209244D01*
X191866Y208200D01*
X192003Y207156D01*
X192406Y206183D01*
X193047Y205347D01*
X193883Y204706D01*
X194856Y204303D01*
X195900Y204166D01*
X200900D01*
X201944Y204303D01*
X202917Y204706D01*
X203753Y205347D01*
X204271Y206022D01*
X204871Y205820D01*
Y200580D01*
X204271Y200378D01*
X203753Y201053D01*
X202917Y201694D01*
X201944Y202097D01*
X200900Y202235D01*
X195900D01*
X194856Y202097D01*
X193883Y201694D01*
X193047Y201053D01*
X192406Y200217D01*
X192003Y199244D01*
X191866Y198200D01*
X192003Y197156D01*
X192406Y196183D01*
X193047Y195347D01*
X193883Y194706D01*
X194856Y194303D01*
X195900Y194166D01*
X200900D01*
X201944Y194303D01*
X202917Y194706D01*
X203753Y195347D01*
X204271Y196022D01*
X204871Y195820D01*
Y190580D01*
X204271Y190378D01*
X203753Y191053D01*
X202917Y191694D01*
X201944Y192097D01*
X200900Y192235D01*
X198900D01*
Y188200D01*
Y184166D01*
X200900D01*
X201944Y184303D01*
X202917Y184706D01*
X203753Y185347D01*
X204271Y186022D01*
X204871Y185820D01*
Y180580D01*
X204271Y180378D01*
X203753Y181053D01*
X202917Y181694D01*
X201944Y182097D01*
X200900Y182235D01*
X195900D01*
X194856Y182097D01*
X193883Y181694D01*
X193047Y181053D01*
X192406Y180217D01*
X192003Y179244D01*
X191866Y178200D01*
X192003Y177156D01*
X192406Y176183D01*
X193047Y175347D01*
X193883Y174706D01*
X194856Y174303D01*
X195900Y174165D01*
X200900D01*
X201944Y174303D01*
X202917Y174706D01*
X203753Y175347D01*
X204271Y176022D01*
X204871Y175820D01*
Y170580D01*
X204271Y170378D01*
X203753Y171053D01*
X202917Y171694D01*
X201944Y172097D01*
X200900Y172234D01*
X195900D01*
X194856Y172097D01*
X193883Y171694D01*
X193047Y171053D01*
X192406Y170217D01*
X192003Y169244D01*
X191866Y168200D01*
X192003Y167156D01*
X192406Y166183D01*
X193047Y165347D01*
X193883Y164706D01*
X194856Y164303D01*
X195900Y164165D01*
X200900D01*
X201944Y164303D01*
X202917Y164706D01*
X203753Y165347D01*
X204271Y166022D01*
X204871Y165820D01*
X204871Y160580D01*
X204271Y160378D01*
X203753Y161053D01*
X202917Y161694D01*
X201944Y162097D01*
X200900Y162234D01*
X198900D01*
Y158200D01*
Y154165D01*
X200900D01*
X201944Y154303D01*
X202917Y154706D01*
X203753Y155347D01*
X204271Y156022D01*
X204871Y155820D01*
Y150580D01*
X204271Y150378D01*
X203753Y151053D01*
X202917Y151694D01*
X201944Y152097D01*
X200900Y152234D01*
X195900D01*
X194856Y152097D01*
X193883Y151694D01*
X193047Y151053D01*
X192406Y150217D01*
X192003Y149244D01*
X191866Y148200D01*
X192003Y147156D01*
X192406Y146183D01*
X193047Y145347D01*
X193883Y144706D01*
X194856Y144303D01*
X195900Y144166D01*
X200900D01*
X201944Y144303D01*
X202917Y144706D01*
X203753Y145347D01*
X204271Y146022D01*
X204871Y145820D01*
Y140580D01*
X204271Y140378D01*
X203753Y141053D01*
X202917Y141694D01*
X201944Y142097D01*
X200900Y142235D01*
X195900D01*
X194856Y142097D01*
X193883Y141694D01*
X193047Y141053D01*
X192406Y140217D01*
X192003Y139244D01*
X191866Y138200D01*
X192003Y137156D01*
X192406Y136183D01*
X193047Y135347D01*
X193883Y134706D01*
X194856Y134303D01*
X195900Y134166D01*
X200900D01*
X201944Y134303D01*
X202917Y134706D01*
X203753Y135347D01*
X204271Y136022D01*
X204871Y135820D01*
Y130580D01*
X204271Y130378D01*
X203753Y131053D01*
X202917Y131694D01*
X201944Y132097D01*
X200900Y132235D01*
X195900D01*
X194856Y132097D01*
X193883Y131694D01*
X193047Y131053D01*
X192406Y130217D01*
X192003Y129244D01*
X191866Y128200D01*
X192003Y127156D01*
X192406Y126183D01*
X193047Y125347D01*
X193883Y124706D01*
X194856Y124303D01*
X195900Y124165D01*
X200900D01*
X201944Y124303D01*
X202917Y124706D01*
X203753Y125347D01*
X204271Y126022D01*
X204871Y125820D01*
Y120580D01*
X204271Y120378D01*
X203753Y121053D01*
X202917Y121694D01*
X201944Y122097D01*
X200900Y122234D01*
X195900D01*
X194856Y122097D01*
X193883Y121694D01*
X193047Y121053D01*
X192406Y120217D01*
X192003Y119244D01*
X191866Y118200D01*
X192003Y117156D01*
X192406Y116183D01*
X193047Y115347D01*
X193883Y114706D01*
X194856Y114303D01*
X195900Y114165D01*
X200900D01*
X201944Y114303D01*
X202917Y114706D01*
X203753Y115347D01*
X204271Y116022D01*
X204871Y115820D01*
Y110580D01*
X204271Y110378D01*
X203753Y111053D01*
X202917Y111694D01*
X201944Y112097D01*
X200900Y112234D01*
X195900D01*
X194856Y112097D01*
X193883Y111694D01*
X193047Y111053D01*
X192406Y110217D01*
X192003Y109244D01*
X191866Y108200D01*
X192003Y107156D01*
X192406Y106183D01*
X193047Y105347D01*
X193883Y104706D01*
X194856Y104303D01*
X195900Y104165D01*
X200900D01*
X201944Y104303D01*
X202917Y104706D01*
X203753Y105347D01*
X204271Y106022D01*
X204871Y105820D01*
Y100580D01*
X204271Y100378D01*
X203753Y101053D01*
X202917Y101694D01*
X201944Y102097D01*
X200900Y102234D01*
X195900D01*
X194856Y102097D01*
X193883Y101694D01*
X193047Y101053D01*
X192406Y100217D01*
X192003Y99244D01*
X191866Y98200D01*
X192003Y97156D01*
X192406Y96183D01*
X193047Y95347D01*
X193883Y94706D01*
X194856Y94303D01*
X195900Y94165D01*
X200900D01*
X201944Y94303D01*
X202917Y94706D01*
X203753Y95347D01*
X204271Y96022D01*
X204871Y95820D01*
X204871Y90580D01*
X204271Y90378D01*
X203753Y91053D01*
X202917Y91694D01*
X201944Y92097D01*
X200900Y92234D01*
X195900D01*
X194856Y92097D01*
X193883Y91694D01*
X193047Y91053D01*
X192406Y90217D01*
X192003Y89244D01*
X191866Y88200D01*
X192003Y87156D01*
X192406Y86183D01*
X193047Y85347D01*
X193883Y84706D01*
X194856Y84303D01*
X195900Y84166D01*
X200900D01*
X201944Y84303D01*
X202917Y84706D01*
X203753Y85347D01*
X204271Y86022D01*
X204871Y85820D01*
Y80580D01*
X204271Y80378D01*
X203753Y81053D01*
X202917Y81694D01*
X201944Y82097D01*
X200900Y82235D01*
X195900D01*
X194856Y82097D01*
X193883Y81694D01*
X193047Y81053D01*
X192406Y80217D01*
X192003Y79244D01*
X191866Y78200D01*
X192003Y77156D01*
X192406Y76183D01*
X193047Y75347D01*
X193883Y74706D01*
X194856Y74303D01*
X195900Y74165D01*
X200900D01*
X201944Y74303D01*
X202917Y74706D01*
X203753Y75347D01*
X204271Y76022D01*
X204871Y75820D01*
Y70580D01*
X204271Y70378D01*
X203753Y71053D01*
X202917Y71694D01*
X201944Y72097D01*
X200900Y72234D01*
X198900D01*
Y68200D01*
Y64166D01*
X200900D01*
X201944Y64303D01*
X202917Y64706D01*
X203753Y65347D01*
X204271Y66022D01*
X204871Y65820D01*
Y60580D01*
X204271Y60378D01*
X203753Y61053D01*
X202917Y61694D01*
X201944Y62097D01*
X200900Y62234D01*
X198900D01*
Y58200D01*
Y54166D01*
X200900D01*
X201944Y54303D01*
X202917Y54706D01*
X203753Y55347D01*
X204271Y56022D01*
X204871Y55820D01*
X204871Y50580D01*
X204271Y50378D01*
X203753Y51053D01*
X202917Y51694D01*
X201944Y52097D01*
X200900Y52235D01*
X195900D01*
X194856Y52097D01*
X193883Y51694D01*
X193047Y51053D01*
X192406Y50217D01*
X192003Y49244D01*
X191866Y48200D01*
X192003Y47156D01*
X192406Y46183D01*
X193047Y45347D01*
X193883Y44706D01*
X194856Y44303D01*
X195900Y44166D01*
X200900D01*
X201944Y44303D01*
X202917Y44706D01*
X203753Y45347D01*
X204271Y46022D01*
X204871Y45820D01*
Y40580D01*
X204271Y40378D01*
X203753Y41053D01*
X202917Y41694D01*
X201944Y42097D01*
X200900Y42235D01*
X195900D01*
X194856Y42097D01*
X193883Y41694D01*
X193047Y41053D01*
X192406Y40217D01*
X192003Y39244D01*
X191866Y38200D01*
X192003Y37156D01*
X192406Y36183D01*
X193047Y35347D01*
X193883Y34706D01*
X194856Y34303D01*
X195900Y34165D01*
X200900D01*
X201944Y34303D01*
X202917Y34706D01*
X203753Y35347D01*
X204271Y36022D01*
X204871Y35820D01*
Y30580D01*
X204271Y30378D01*
X203753Y31053D01*
X202917Y31694D01*
X201944Y32097D01*
X200900Y32234D01*
X195900D01*
X194856Y32097D01*
X193883Y31694D01*
X193047Y31053D01*
X192406Y30217D01*
X192003Y29244D01*
X191866Y28200D01*
X192003Y27156D01*
X192406Y26183D01*
X193047Y25347D01*
X193883Y24706D01*
X194856Y24303D01*
X195900Y24166D01*
X200900D01*
X201944Y24303D01*
X202917Y24706D01*
X203753Y25347D01*
X204271Y26022D01*
X204871Y25820D01*
X204871Y1522D01*
X200334D01*
X200215Y2122D01*
X200417Y2206D01*
X201253Y2847D01*
X201894Y3683D01*
X202297Y4656D01*
X202434Y5700D01*
Y10700D01*
X202297Y11744D01*
X201894Y12717D01*
X201253Y13553D01*
X200417Y14194D01*
X199444Y14597D01*
X198400Y14735D01*
X197356Y14597D01*
X196383Y14194D01*
X195547Y13553D01*
X194906Y12717D01*
X194503Y11744D01*
X194366Y10700D01*
Y5700D01*
X194503Y4656D01*
X194906Y3683D01*
X195547Y2847D01*
X196383Y2206D01*
X196585Y2122D01*
X196466Y1522D01*
X190334D01*
X190215Y2122D01*
X190417Y2206D01*
X191253Y2847D01*
X191894Y3683D01*
X192297Y4656D01*
X192435Y5700D01*
Y10700D01*
X192297Y11744D01*
X191894Y12717D01*
X191253Y13553D01*
X190417Y14194D01*
X189444Y14597D01*
X188400Y14735D01*
X187356Y14597D01*
X186383Y14194D01*
X185547Y13553D01*
X184906Y12717D01*
X184503Y11744D01*
X184365Y10700D01*
Y5700D01*
X184503Y4656D01*
X184906Y3683D01*
X185547Y2847D01*
X186383Y2206D01*
X186585Y2122D01*
X186466Y1522D01*
X180334D01*
X180215Y2122D01*
X180417Y2206D01*
X181253Y2847D01*
X181894Y3683D01*
X182297Y4656D01*
X182434Y5700D01*
Y10700D01*
X182297Y11744D01*
X181894Y12717D01*
X181253Y13553D01*
X180417Y14194D01*
X179444Y14597D01*
X178400Y14735D01*
X177356Y14597D01*
X176383Y14194D01*
X175547Y13553D01*
X174906Y12717D01*
X174503Y11744D01*
X174365Y10700D01*
Y5700D01*
X174503Y4656D01*
X174906Y3683D01*
X175547Y2847D01*
X176383Y2206D01*
X176585Y2122D01*
X176466Y1522D01*
X170334D01*
X170215Y2122D01*
X170417Y2206D01*
X171253Y2847D01*
X171894Y3683D01*
X172297Y4656D01*
X172434Y5700D01*
Y10700D01*
X172297Y11744D01*
X171894Y12717D01*
X171253Y13553D01*
X170417Y14194D01*
X169444Y14597D01*
X168400Y14735D01*
X167356Y14597D01*
X166383Y14194D01*
X165547Y13553D01*
X164906Y12717D01*
X164503Y11744D01*
X164365Y10700D01*
Y5700D01*
X164503Y4656D01*
X164906Y3683D01*
X165547Y2847D01*
X166383Y2206D01*
X166585Y2122D01*
X166466Y1522D01*
X160334D01*
X160215Y2122D01*
X160417Y2206D01*
X161253Y2847D01*
X161894Y3683D01*
X162297Y4656D01*
X162434Y5700D01*
Y10700D01*
X162297Y11744D01*
X161894Y12717D01*
X161253Y13553D01*
X160417Y14194D01*
X159444Y14597D01*
X158400Y14735D01*
X157356Y14597D01*
X156383Y14194D01*
X155547Y13553D01*
X154906Y12717D01*
X154503Y11744D01*
X154366Y10700D01*
Y5700D01*
X154503Y4656D01*
X154906Y3683D01*
X155547Y2847D01*
X156383Y2206D01*
X156585Y2122D01*
X156466Y1522D01*
X150334D01*
X150215Y2122D01*
X150417Y2206D01*
X151253Y2847D01*
X151894Y3683D01*
X152297Y4656D01*
X152435Y5700D01*
Y10700D01*
X152297Y11744D01*
X151894Y12717D01*
X151253Y13553D01*
X150417Y14194D01*
X149444Y14597D01*
X148400Y14735D01*
X147356Y14597D01*
X146383Y14194D01*
X145547Y13553D01*
X144906Y12717D01*
X144503Y11744D01*
X144366Y10700D01*
Y5700D01*
X144503Y4656D01*
X144906Y3683D01*
X145547Y2847D01*
X146383Y2206D01*
X146585Y2122D01*
X146466Y1522D01*
X140334D01*
X140215Y2122D01*
X140417Y2206D01*
X141253Y2847D01*
X141894Y3683D01*
X142297Y4656D01*
X142435Y5700D01*
Y10700D01*
X142297Y11744D01*
X141894Y12717D01*
X141253Y13553D01*
X140417Y14194D01*
X139444Y14597D01*
X138400Y14735D01*
X137356Y14597D01*
X136383Y14194D01*
X135547Y13553D01*
X134906Y12717D01*
X134503Y11744D01*
X134365Y10700D01*
Y5700D01*
X134503Y4656D01*
X134906Y3683D01*
X135547Y2847D01*
X136383Y2206D01*
X136585Y2122D01*
X136466Y1522D01*
X130334D01*
X130215Y2122D01*
X130417Y2206D01*
X131253Y2847D01*
X131894Y3683D01*
X132297Y4656D01*
X132434Y5700D01*
Y10700D01*
X132297Y11744D01*
X131894Y12717D01*
X131253Y13553D01*
X130417Y14194D01*
X129444Y14597D01*
X128400Y14735D01*
X127356Y14597D01*
X126383Y14194D01*
X125547Y13553D01*
X124906Y12717D01*
X124503Y11744D01*
X124365Y10700D01*
Y5700D01*
X124503Y4656D01*
X124906Y3683D01*
X125547Y2847D01*
X126383Y2206D01*
X126585Y2122D01*
X126466Y1522D01*
X120334D01*
X120215Y2122D01*
X120417Y2206D01*
X121253Y2847D01*
X121894Y3683D01*
X122297Y4656D01*
X122434Y5700D01*
Y10700D01*
X122297Y11744D01*
X121894Y12717D01*
X121253Y13553D01*
X120417Y14194D01*
X119444Y14597D01*
X118400Y14735D01*
X117356Y14597D01*
X116383Y14194D01*
X115547Y13553D01*
X114906Y12717D01*
X114503Y11744D01*
X114365Y10700D01*
Y5700D01*
X114503Y4656D01*
X114906Y3683D01*
X115547Y2847D01*
X116383Y2206D01*
X116585Y2122D01*
X116466Y1522D01*
X110334D01*
X110215Y2122D01*
X110417Y2206D01*
X111253Y2847D01*
X111894Y3683D01*
X112297Y4656D01*
X112434Y5700D01*
Y10700D01*
X112297Y11744D01*
X111894Y12717D01*
X111253Y13553D01*
X110417Y14194D01*
X109444Y14597D01*
X108400Y14735D01*
X107356Y14597D01*
X106383Y14194D01*
X105547Y13553D01*
X104906Y12717D01*
X104503Y11744D01*
X104366Y10700D01*
Y5700D01*
X104503Y4656D01*
X104906Y3683D01*
X105547Y2847D01*
X106383Y2206D01*
X106585Y2122D01*
X106466Y1522D01*
X100334Y1522D01*
X100215Y2122D01*
X100417Y2206D01*
X101253Y2847D01*
X101894Y3683D01*
X102297Y4656D01*
X102435Y5700D01*
Y7700D01*
X98400D01*
X94366D01*
Y5700D01*
X94503Y4656D01*
X94906Y3683D01*
X95547Y2847D01*
X96383Y2206D01*
X96585Y2122D01*
X96466Y1522D01*
X90334D01*
X90215Y2122D01*
X90417Y2206D01*
X91253Y2847D01*
X91894Y3683D01*
X92297Y4656D01*
X92435Y5700D01*
Y7700D01*
X88400D01*
X84365D01*
Y5700D01*
X84503Y4656D01*
X84906Y3683D01*
X85547Y2847D01*
X86383Y2206D01*
X86585Y2122D01*
X86466Y1522D01*
X80334D01*
X80215Y2122D01*
X80417Y2206D01*
X81253Y2847D01*
X81894Y3683D01*
X82297Y4656D01*
X82434Y5700D01*
Y10700D01*
X82297Y11744D01*
X81894Y12717D01*
X81253Y13553D01*
X80417Y14194D01*
X79444Y14597D01*
X78818Y14680D01*
Y23000D01*
X91702D01*
X92351Y22351D01*
X92649Y22152D01*
X93000Y22082D01*
X105000D01*
X105351Y22152D01*
X105649Y22351D01*
X114149Y30851D01*
X114348Y31149D01*
X114418Y31500D01*
Y44500D01*
X114348Y44851D01*
X114149Y45149D01*
X109418Y49880D01*
Y56120D01*
X137590Y84292D01*
X137789Y84590D01*
X137859Y84941D01*
Y106009D01*
X138167Y106215D01*
X138542Y106778D01*
X138674Y107441D01*
X138542Y108104D01*
X138167Y108667D01*
X137604Y109042D01*
X136941Y109174D01*
X136791Y109144D01*
X136495Y109697D01*
X143066Y116268D01*
X143774Y116274D01*
X144337Y115899D01*
X145000Y115767D01*
X145663Y115899D01*
X146226Y116274D01*
X146601Y116837D01*
X146733Y117500D01*
X146601Y118163D01*
X146226Y118726D01*
X145663Y119101D01*
X145000Y119233D01*
X144337Y119101D01*
X143774Y118726D01*
X143569Y118418D01*
X143000D01*
X142822Y118382D01*
X142722Y118402D01*
X142326Y118632D01*
X142182Y118757D01*
X142101Y119163D01*
X141726Y119726D01*
X141163Y120101D01*
X140500Y120233D01*
X139837Y120101D01*
X139274Y119726D01*
X138899Y119163D01*
X138767Y118500D01*
X138839Y118137D01*
X137179Y116476D01*
X136980Y116179D01*
X136910Y115828D01*
Y115208D01*
X131351Y109649D01*
X131152Y109351D01*
X130545Y109374D01*
X130492Y109409D01*
X129828Y109541D01*
X129165Y109409D01*
X128603Y109034D01*
X128518Y108906D01*
X127918Y109088D01*
Y111620D01*
X129280Y112982D01*
X130370D01*
X130721Y113052D01*
X131019Y113251D01*
X132249Y114481D01*
X132448Y114779D01*
X132518Y115130D01*
Y116870D01*
X132448Y117221D01*
X132249Y117519D01*
X131019Y118749D01*
X130721Y118948D01*
X130370Y119018D01*
X120100D01*
X119749Y118948D01*
X119451Y118749D01*
X118821Y118119D01*
X118170Y118317D01*
X118101Y118663D01*
X117726Y119226D01*
X117520Y119363D01*
Y121000D01*
X117442Y121390D01*
X117221Y121721D01*
X106563Y132379D01*
X106578Y132531D01*
X107229Y133014D01*
X107244Y133011D01*
X107907Y133143D01*
X108470Y133519D01*
X108845Y134081D01*
X108977Y134744D01*
X108845Y135407D01*
X108470Y135970D01*
X107907Y136346D01*
X107244Y136477D01*
X106581Y136346D01*
X106018Y135970D01*
X105643Y135407D01*
X105511Y134744D01*
X105514Y134729D01*
X105032Y134078D01*
X104879Y134063D01*
X103020Y135922D01*
Y164680D01*
X102942Y165070D01*
X102721Y165401D01*
X89201Y178921D01*
X88870Y179142D01*
X88480Y179220D01*
X14800D01*
X14797Y179244D01*
X14394Y180217D01*
X13753Y181053D01*
X12917Y181694D01*
X11944Y182097D01*
X10900Y182235D01*
X5900D01*
X4856Y182097D01*
X3883Y181694D01*
X3047Y181053D01*
X2406Y180217D01*
X2129Y179549D01*
X1529Y179669D01*
Y186731D01*
X2129Y186851D01*
X2406Y186183D01*
X3047Y185347D01*
X3883Y184706D01*
X4856Y184303D01*
X5900Y184166D01*
X7900D01*
Y188200D01*
Y192235D01*
X5900D01*
X4856Y192097D01*
X3883Y191694D01*
X3047Y191053D01*
X2406Y190217D01*
X2129Y189549D01*
X1529Y189669D01*
X1529Y196731D01*
X2129Y196851D01*
X2406Y196183D01*
X3047Y195347D01*
X3883Y194706D01*
X4856Y194303D01*
X5900Y194166D01*
X10900D01*
X11944Y194303D01*
X12917Y194706D01*
X13753Y195347D01*
X14394Y196183D01*
X14797Y197156D01*
X14934Y198200D01*
X14797Y199244D01*
X14394Y200217D01*
X13753Y201053D01*
X12917Y201694D01*
X11944Y202097D01*
X10900Y202235D01*
X5900D01*
X4856Y202097D01*
X3883Y201694D01*
X3047Y201053D01*
X2406Y200217D01*
X2129Y199549D01*
X1529Y199669D01*
Y206731D01*
X2129Y206851D01*
X2406Y206183D01*
X3047Y205347D01*
X3883Y204706D01*
X4856Y204303D01*
X5900Y204166D01*
X7900D01*
Y208200D01*
Y212234D01*
X5900D01*
X4856Y212097D01*
X3883Y211694D01*
X3047Y211053D01*
X2406Y210217D01*
X2129Y209549D01*
X1529Y209669D01*
Y213754D01*
X1900Y214200D01*
X2129Y214200D01*
X14900D01*
Y222200D01*
X2129D01*
X1529Y222646D01*
Y252671D01*
X204871Y252671D01*
X204871Y222200D01*
D02*
G37*
G36*
X100980Y164257D02*
Y135500D01*
X101058Y135110D01*
X101279Y134779D01*
X115480Y120578D01*
Y119363D01*
X115274Y119226D01*
X114899Y118663D01*
X114767Y118000D01*
X114899Y117337D01*
X115274Y116774D01*
X115837Y116399D01*
X116183Y116330D01*
X116381Y115679D01*
X114000Y113298D01*
X112918Y114380D01*
Y118000D01*
X112848Y118351D01*
X112649Y118649D01*
X98732Y132566D01*
X98875Y133038D01*
X98970Y133177D01*
X99481Y133519D01*
X99857Y134081D01*
X99989Y134744D01*
X99857Y135407D01*
X99481Y135970D01*
X98919Y136346D01*
X98256Y136477D01*
X97593Y136346D01*
X97030Y135970D01*
X96688Y135458D01*
X96550Y135363D01*
X96078Y135220D01*
X92018Y139280D01*
Y141742D01*
X91948Y142093D01*
X91749Y142391D01*
X75291Y158849D01*
X74993Y159048D01*
X74642Y159118D01*
X14814D01*
X14797Y159244D01*
X14394Y160217D01*
X13753Y161053D01*
X12917Y161694D01*
X11944Y162097D01*
X10900Y162234D01*
X5900D01*
X4856Y162097D01*
X3883Y161694D01*
X3047Y161053D01*
X2406Y160217D01*
X2129Y159549D01*
X1529Y159669D01*
Y166731D01*
X2129Y166851D01*
X2406Y166183D01*
X3047Y165347D01*
X3883Y164706D01*
X4856Y164303D01*
X5900Y164165D01*
X7900D01*
Y168200D01*
Y172234D01*
X5900D01*
X4856Y172097D01*
X3883Y171694D01*
X3047Y171053D01*
X2406Y170217D01*
X2129Y169549D01*
X1529Y169669D01*
Y176731D01*
X2129Y176851D01*
X2406Y176183D01*
X3047Y175347D01*
X3883Y174706D01*
X4856Y174303D01*
X5900Y174165D01*
X10900D01*
X11944Y174303D01*
X12917Y174706D01*
X13753Y175347D01*
X14394Y176183D01*
X14797Y177156D01*
X14800Y177180D01*
X88057D01*
X100980Y164257D01*
D02*
G37*
G36*
X88507Y143037D02*
X88422Y142754D01*
X88268Y142428D01*
X87774Y142098D01*
X87399Y141536D01*
X87273Y140903D01*
X87144Y140818D01*
X86704Y140623D01*
X78479Y148849D01*
X78181Y149048D01*
X77830Y149118D01*
X14814D01*
X14797Y149244D01*
X14394Y150217D01*
X13753Y151053D01*
X12917Y151694D01*
X11944Y152097D01*
X10900Y152234D01*
X5900D01*
X4856Y152097D01*
X3883Y151694D01*
X3047Y151053D01*
X2406Y150217D01*
X2129Y149549D01*
X1529Y149669D01*
Y156731D01*
X2129Y156851D01*
X2406Y156183D01*
X3047Y155347D01*
X3883Y154706D01*
X4856Y154303D01*
X5900Y154165D01*
X10900D01*
X11944Y154303D01*
X12917Y154706D01*
X13753Y155347D01*
X14394Y156183D01*
X14797Y157156D01*
X14814Y157282D01*
X74262D01*
X88507Y143037D01*
D02*
G37*
G36*
X102256Y122476D02*
X102059Y121825D01*
X101837Y121781D01*
X101274Y121405D01*
X100899Y120843D01*
X100783Y120260D01*
X88863Y108341D01*
X88500Y108413D01*
X87837Y108281D01*
X87274Y107905D01*
X86899Y107343D01*
X86767Y106679D01*
X86899Y106016D01*
X87274Y105454D01*
X87837Y105078D01*
X88500Y104946D01*
X89163Y105078D01*
X89726Y105454D01*
X90101Y106016D01*
X90233Y106679D01*
X90161Y107043D01*
X101753Y118634D01*
X101837Y118578D01*
X102500Y118446D01*
X103163Y118578D01*
X103726Y118954D01*
X103982Y119338D01*
X104582Y119156D01*
Y106500D01*
X104652Y106149D01*
X104851Y105851D01*
X109351Y101351D01*
X109649Y101152D01*
X110000Y101082D01*
X116000D01*
X116351Y101152D01*
X116649Y101351D01*
X118593Y103296D01*
X119164Y103227D01*
X119414Y102711D01*
X78330Y61628D01*
X77800Y61733D01*
X77137Y61601D01*
X76574Y61226D01*
X76302Y60818D01*
X60480D01*
X42918Y78380D01*
Y106000D01*
X42848Y106351D01*
X42649Y106649D01*
X30449Y118849D01*
X30151Y119048D01*
X29800Y119118D01*
X14814D01*
X14797Y119244D01*
X14394Y120217D01*
X13753Y121053D01*
X12917Y121694D01*
X11944Y122097D01*
X10900Y122234D01*
X5900D01*
X4856Y122097D01*
X3883Y121694D01*
X3047Y121053D01*
X2406Y120217D01*
X2129Y119549D01*
X1529Y119669D01*
Y126731D01*
X2129Y126851D01*
X2406Y126183D01*
X3047Y125347D01*
X3883Y124706D01*
X4856Y124303D01*
X5900Y124165D01*
X10900D01*
X11944Y124303D01*
X12917Y124706D01*
X13753Y125347D01*
X14394Y126183D01*
X14797Y127156D01*
X14814Y127282D01*
X31700D01*
X32051Y127352D01*
X32349Y127551D01*
X44380Y139582D01*
X51120D01*
X54582Y136120D01*
Y110500D01*
X54652Y110149D01*
X54851Y109851D01*
X69851Y94851D01*
X70149Y94652D01*
X70500Y94582D01*
X91500D01*
X91851Y94652D01*
X92149Y94851D01*
X100637Y103339D01*
X101000Y103267D01*
X101663Y103399D01*
X102226Y103774D01*
X102601Y104337D01*
X102733Y105000D01*
X102601Y105663D01*
X102226Y106226D01*
Y106774D01*
X102601Y107337D01*
X102733Y108000D01*
X102601Y108663D01*
X102226Y109226D01*
X101663Y109601D01*
X101000Y109733D01*
X100337Y109601D01*
X99774Y109226D01*
X99569Y108918D01*
X97000D01*
X96649Y108848D01*
X96351Y108649D01*
X87620Y99918D01*
X74880D01*
X60418Y114380D01*
Y138000D01*
X60348Y138351D01*
X60149Y138649D01*
X52649Y146149D01*
X52351Y146348D01*
X52000Y146418D01*
X29500D01*
X29149Y146348D01*
X28851Y146149D01*
X21820Y139118D01*
X14814D01*
X14797Y139244D01*
X14394Y140217D01*
X13753Y141053D01*
X12917Y141694D01*
X11944Y142097D01*
X10900Y142235D01*
X5900D01*
X4856Y142097D01*
X3883Y141694D01*
X3047Y141053D01*
X2406Y140217D01*
X2129Y139549D01*
X1529Y139669D01*
Y146731D01*
X2129Y146851D01*
X2406Y146183D01*
X3047Y145347D01*
X3883Y144706D01*
X4856Y144303D01*
X5900Y144166D01*
X10900D01*
X11944Y144303D01*
X12917Y144706D01*
X13753Y145347D01*
X14394Y146183D01*
X14797Y147156D01*
X14814Y147282D01*
X77450D01*
X102256Y122476D01*
D02*
G37*
G36*
X41082Y105620D02*
Y78000D01*
X41152Y77649D01*
X41351Y77351D01*
X59451Y59251D01*
X59749Y59052D01*
X60100Y58982D01*
X76435D01*
X76574Y58774D01*
X76982Y58502D01*
Y14442D01*
X76383Y14194D01*
X75547Y13553D01*
X74906Y12717D01*
X74503Y11744D01*
X74366Y10700D01*
Y5700D01*
X74503Y4656D01*
X74906Y3683D01*
X75547Y2847D01*
X76383Y2206D01*
X76585Y2122D01*
X76466Y1522D01*
X70334D01*
X70215Y2122D01*
X70417Y2206D01*
X71253Y2847D01*
X71894Y3683D01*
X72297Y4656D01*
X72435Y5700D01*
Y10700D01*
X72297Y11744D01*
X71894Y12717D01*
X71253Y13553D01*
X70417Y14194D01*
X69444Y14597D01*
X68400Y14735D01*
X67356Y14597D01*
X66383Y14194D01*
X65547Y13553D01*
X64906Y12717D01*
X64503Y11744D01*
X64366Y10700D01*
Y5700D01*
X64503Y4656D01*
X64906Y3683D01*
X65547Y2847D01*
X66383Y2206D01*
X66585Y2122D01*
X66466Y1522D01*
X60334D01*
X60215Y2122D01*
X60417Y2206D01*
X61253Y2847D01*
X61894Y3683D01*
X62297Y4656D01*
X62435Y5700D01*
Y10700D01*
X62297Y11744D01*
X61894Y12717D01*
X61253Y13553D01*
X60417Y14194D01*
X59444Y14597D01*
X58400Y14735D01*
X57356Y14597D01*
X56383Y14194D01*
X55547Y13553D01*
X54906Y12717D01*
X54503Y11744D01*
X54365Y10700D01*
Y5700D01*
X54503Y4656D01*
X54906Y3683D01*
X55547Y2847D01*
X56383Y2206D01*
X56585Y2122D01*
X56466Y1522D01*
X50334D01*
X50215Y2122D01*
X50417Y2206D01*
X51253Y2847D01*
X51894Y3683D01*
X52297Y4656D01*
X52434Y5700D01*
Y10700D01*
X52297Y11744D01*
X51894Y12717D01*
X51253Y13553D01*
X50417Y14194D01*
X49444Y14597D01*
X48400Y14735D01*
X47356Y14597D01*
X46383Y14194D01*
X45547Y13553D01*
X44906Y12717D01*
X44503Y11744D01*
X44366Y10700D01*
Y5700D01*
X44503Y4656D01*
X44906Y3683D01*
X45547Y2847D01*
X46383Y2206D01*
X46585Y2122D01*
X46466Y1522D01*
X40334D01*
X40215Y2122D01*
X40417Y2206D01*
X41253Y2847D01*
X41894Y3683D01*
X42297Y4656D01*
X42434Y5700D01*
Y10700D01*
X42297Y11744D01*
X41894Y12717D01*
X41253Y13553D01*
X40417Y14194D01*
X39444Y14597D01*
X38400Y14735D01*
X37356Y14597D01*
X36383Y14194D01*
X35547Y13553D01*
X34906Y12717D01*
X34503Y11744D01*
X34365Y10700D01*
Y5700D01*
X34503Y4656D01*
X34906Y3683D01*
X35547Y2847D01*
X36383Y2206D01*
X36585Y2122D01*
X36466Y1522D01*
X30334D01*
X30215Y2122D01*
X30417Y2206D01*
X31253Y2847D01*
X31894Y3683D01*
X32297Y4656D01*
X32434Y5700D01*
Y10700D01*
X32297Y11744D01*
X31894Y12717D01*
X31253Y13553D01*
X30417Y14194D01*
X29444Y14597D01*
X28400Y14735D01*
X27356Y14597D01*
X26383Y14194D01*
X25547Y13553D01*
X24906Y12717D01*
X24503Y11744D01*
X24365Y10700D01*
Y5700D01*
X24503Y4656D01*
X24906Y3683D01*
X25547Y2847D01*
X26383Y2206D01*
X26585Y2122D01*
X26466Y1522D01*
X20334D01*
X20215Y2122D01*
X20417Y2206D01*
X21253Y2847D01*
X21894Y3683D01*
X22297Y4656D01*
X22434Y5700D01*
Y10700D01*
X22297Y11744D01*
X21894Y12717D01*
X21253Y13553D01*
X20417Y14194D01*
X19444Y14597D01*
X18400Y14735D01*
X17356Y14597D01*
X16383Y14194D01*
X15547Y13553D01*
X14906Y12717D01*
X14503Y11744D01*
X14366Y10700D01*
Y5700D01*
X14503Y4656D01*
X14906Y3683D01*
X15547Y2847D01*
X16383Y2206D01*
X16585Y2122D01*
X16466Y1522D01*
X12926D01*
X12400Y1700D01*
X12400Y2122D01*
Y7700D01*
X8400D01*
X4400D01*
Y2122D01*
X3874Y1522D01*
X1529D01*
Y26731D01*
X2129Y26851D01*
X2406Y26183D01*
X3047Y25347D01*
X3883Y24706D01*
X4856Y24303D01*
X5900Y24166D01*
X10900D01*
X11944Y24303D01*
X12917Y24706D01*
X13753Y25347D01*
X14394Y26183D01*
X14797Y27156D01*
X14934Y28200D01*
X14797Y29244D01*
X14394Y30217D01*
X13753Y31053D01*
X12917Y31694D01*
X11944Y32097D01*
X10900Y32234D01*
X5900D01*
X4856Y32097D01*
X3883Y31694D01*
X3047Y31053D01*
X2406Y30217D01*
X2129Y29549D01*
X1529Y29669D01*
Y36731D01*
X2129Y36851D01*
X2406Y36183D01*
X3047Y35347D01*
X3883Y34706D01*
X4856Y34303D01*
X5900Y34165D01*
X10900D01*
X11944Y34303D01*
X12917Y34706D01*
X13753Y35347D01*
X14394Y36183D01*
X14797Y37156D01*
X14934Y38200D01*
X14797Y39244D01*
X14394Y40217D01*
X13753Y41053D01*
X12917Y41694D01*
X11944Y42097D01*
X10900Y42235D01*
X5900D01*
X4856Y42097D01*
X3883Y41694D01*
X3047Y41053D01*
X2406Y40217D01*
X2129Y39549D01*
X1529Y39669D01*
Y46731D01*
X2129Y46851D01*
X2406Y46183D01*
X3047Y45347D01*
X3883Y44706D01*
X4856Y44303D01*
X5900Y44166D01*
X10900D01*
X11944Y44303D01*
X12917Y44706D01*
X13753Y45347D01*
X14394Y46183D01*
X14797Y47156D01*
X14934Y48200D01*
X14797Y49244D01*
X14394Y50217D01*
X13753Y51053D01*
X12917Y51694D01*
X11944Y52097D01*
X10900Y52235D01*
X5900D01*
X4856Y52097D01*
X3883Y51694D01*
X3047Y51053D01*
X2406Y50217D01*
X2129Y49549D01*
X1529Y49669D01*
Y56731D01*
X2129Y56851D01*
X2406Y56183D01*
X3047Y55347D01*
X3883Y54706D01*
X4856Y54303D01*
X5900Y54166D01*
X10900D01*
X11944Y54303D01*
X12917Y54706D01*
X13753Y55347D01*
X14394Y56183D01*
X14797Y57156D01*
X14934Y58200D01*
X14797Y59244D01*
X14394Y60217D01*
X13753Y61053D01*
X12917Y61694D01*
X11944Y62097D01*
X10900Y62234D01*
X5900D01*
X4856Y62097D01*
X3883Y61694D01*
X3047Y61053D01*
X2406Y60217D01*
X2129Y59549D01*
X1529Y59669D01*
X1529Y66731D01*
X2129Y66851D01*
X2406Y66183D01*
X3047Y65347D01*
X3883Y64706D01*
X4856Y64303D01*
X5900Y64166D01*
X7900D01*
Y68200D01*
Y72234D01*
X5900D01*
X4856Y72097D01*
X3883Y71694D01*
X3047Y71053D01*
X2406Y70217D01*
X2129Y69549D01*
X1529Y69669D01*
Y76731D01*
X2129Y76851D01*
X2406Y76183D01*
X3047Y75347D01*
X3883Y74706D01*
X4856Y74303D01*
X5900Y74165D01*
X7900D01*
Y78200D01*
Y82235D01*
X5900D01*
X4856Y82097D01*
X3883Y81694D01*
X3047Y81053D01*
X2406Y80217D01*
X2129Y79549D01*
X1529Y79669D01*
Y86731D01*
X2129Y86851D01*
X2406Y86183D01*
X3047Y85347D01*
X3883Y84706D01*
X4856Y84303D01*
X5900Y84166D01*
X10900D01*
X11944Y84303D01*
X12917Y84706D01*
X13753Y85347D01*
X14394Y86183D01*
X14797Y87156D01*
X14934Y88200D01*
X14797Y89244D01*
X14394Y90217D01*
X13753Y91053D01*
X12917Y91694D01*
X11944Y92097D01*
X10900Y92234D01*
X5900D01*
X4856Y92097D01*
X3883Y91694D01*
X3047Y91053D01*
X2406Y90217D01*
X2129Y89549D01*
X1529Y89669D01*
Y96731D01*
X2129Y96851D01*
X2406Y96183D01*
X3047Y95347D01*
X3883Y94706D01*
X4856Y94303D01*
X5900Y94165D01*
X10900D01*
X11944Y94303D01*
X12917Y94706D01*
X13753Y95347D01*
X14394Y96183D01*
X14797Y97156D01*
X14934Y98200D01*
X14797Y99244D01*
X14394Y100217D01*
X13753Y101053D01*
X12917Y101694D01*
X11944Y102097D01*
X10900Y102234D01*
X5900D01*
X4856Y102097D01*
X3883Y101694D01*
X3047Y101053D01*
X2406Y100217D01*
X2129Y99549D01*
X1529Y99669D01*
Y106731D01*
X2129Y106851D01*
X2406Y106183D01*
X3047Y105347D01*
X3883Y104706D01*
X4856Y104303D01*
X5900Y104165D01*
X10900D01*
X11944Y104303D01*
X12917Y104706D01*
X13753Y105347D01*
X14394Y106183D01*
X14797Y107156D01*
X14814Y107282D01*
X30779D01*
X31519Y106543D01*
X31446Y106179D01*
X31578Y105516D01*
X31954Y104954D01*
X32516Y104578D01*
X33180Y104446D01*
X33843Y104578D01*
X34405Y104954D01*
X34781Y105516D01*
X34913Y106179D01*
X34781Y106843D01*
X34405Y107405D01*
X33843Y107781D01*
X33180Y107913D01*
X32816Y107841D01*
X31808Y108849D01*
X31510Y109048D01*
X31159Y109118D01*
X14814D01*
X14797Y109244D01*
X14394Y110217D01*
X13753Y111053D01*
X12917Y111694D01*
X11944Y112097D01*
X10900Y112234D01*
X5900D01*
X4856Y112097D01*
X3883Y111694D01*
X3047Y111053D01*
X2406Y110217D01*
X2129Y109549D01*
X1529Y109669D01*
Y116731D01*
X2129Y116851D01*
X2406Y116183D01*
X3047Y115347D01*
X3883Y114706D01*
X4856Y114303D01*
X5900Y114165D01*
X10900D01*
X11944Y114303D01*
X12917Y114706D01*
X13753Y115347D01*
X14394Y116183D01*
X14797Y117156D01*
X14814Y117282D01*
X29420D01*
X41082Y105620D01*
D02*
G37*
G36*
X58582Y137620D02*
Y114000D01*
X58652Y113649D01*
X58851Y113351D01*
X73851Y98351D01*
X74149Y98152D01*
X74500Y98082D01*
X88000D01*
X88351Y98152D01*
X88649Y98351D01*
X97380Y107082D01*
X99569D01*
X99695Y106894D01*
X99774Y106226D01*
X99399Y105663D01*
X99267Y105000D01*
X99339Y104637D01*
X91120Y96418D01*
X70880D01*
X56418Y110880D01*
Y136500D01*
X56348Y136851D01*
X56149Y137149D01*
X52149Y141149D01*
X51851Y141348D01*
X51500Y141418D01*
X44000D01*
X43649Y141348D01*
X43351Y141149D01*
X31320Y129118D01*
X14814D01*
X14797Y129244D01*
X14394Y130217D01*
X13753Y131053D01*
X12917Y131694D01*
X11944Y132097D01*
X10900Y132235D01*
X5900D01*
X4856Y132097D01*
X3883Y131694D01*
X3047Y131053D01*
X2406Y130217D01*
X2129Y129549D01*
X1529Y129669D01*
Y136731D01*
X2129Y136851D01*
X2406Y136183D01*
X3047Y135347D01*
X3883Y134706D01*
X4856Y134303D01*
X5900Y134166D01*
X10900D01*
X11944Y134303D01*
X12917Y134706D01*
X13753Y135347D01*
X14394Y136183D01*
X14797Y137156D01*
X14814Y137282D01*
X22200D01*
X22551Y137352D01*
X22849Y137551D01*
X29880Y144582D01*
X51620D01*
X58582Y137620D01*
D02*
G37*
G36*
X125700Y110012D02*
X125267Y105000D01*
X125399Y104337D01*
X125774Y103774D01*
X126337Y103399D01*
X127000Y103267D01*
X127663Y103399D01*
X128226Y103774D01*
X128290Y103871D01*
X128890Y103689D01*
Y95188D01*
X127473Y93771D01*
X127007Y94154D01*
X127187Y94422D01*
X127319Y95085D01*
X127187Y95749D01*
X126811Y96311D01*
X126249Y96687D01*
X125585Y96819D01*
X124922Y96687D01*
X124360Y96311D01*
X123984Y95749D01*
X123870Y95174D01*
X123818Y95134D01*
X123207Y95340D01*
X123154Y95401D01*
X123101Y95663D01*
X122726Y96226D01*
X122163Y96601D01*
X121500Y96733D01*
X120837Y96601D01*
X120274Y96226D01*
X119899Y95663D01*
X119767Y95000D01*
X119899Y94337D01*
X120274Y93774D01*
X120837Y93399D01*
X121500Y93267D01*
X121650Y93297D01*
X121946Y92744D01*
X103351Y74149D01*
X98399Y79101D01*
X121749Y102451D01*
X121948Y102749D01*
X122018Y103100D01*
Y105110D01*
X123300Y108070D01*
Y110012D01*
X124200Y110800D01*
X125700Y110012D01*
D02*
G37*
%LPC*%
G36*
X178400Y251742D02*
X176282Y251575D01*
X174215Y251079D01*
X172252Y250266D01*
X170440Y249155D01*
X168825Y247776D01*
X167445Y246160D01*
X166334Y244348D01*
X165521Y242385D01*
X165025Y240318D01*
X164858Y238200D01*
X165025Y236082D01*
X165521Y234015D01*
X166334Y232052D01*
X167445Y230240D01*
X168825Y228625D01*
X170440Y227244D01*
X172252Y226134D01*
X174215Y225321D01*
X176282Y224825D01*
X178400Y224658D01*
X180518Y224825D01*
X182585Y225321D01*
X184548Y226134D01*
X186360Y227244D01*
X187976Y228625D01*
X189356Y230240D01*
X190466Y232052D01*
X191279Y234015D01*
X191775Y236082D01*
X191942Y238200D01*
X191775Y240318D01*
X191279Y242385D01*
X190466Y244348D01*
X189356Y246160D01*
X187976Y247776D01*
X186360Y249155D01*
X184548Y250266D01*
X182585Y251079D01*
X180518Y251575D01*
X178400Y251742D01*
D02*
G37*
G36*
X28400D02*
X26282Y251575D01*
X24215Y251079D01*
X22252Y250266D01*
X20440Y249155D01*
X18824Y247776D01*
X17445Y246160D01*
X16334Y244348D01*
X15521Y242385D01*
X15025Y240318D01*
X14858Y238200D01*
X15025Y236082D01*
X15521Y234015D01*
X16334Y232052D01*
X17445Y230240D01*
X18824Y228625D01*
X20440Y227244D01*
X22252Y226134D01*
X24215Y225321D01*
X26282Y224825D01*
X28400Y224658D01*
X30518Y224825D01*
X32585Y225321D01*
X34548Y226134D01*
X36360Y227244D01*
X37975Y228625D01*
X39355Y230240D01*
X40466Y232052D01*
X41279Y234015D01*
X41775Y236082D01*
X41942Y238200D01*
X41775Y240318D01*
X41279Y242385D01*
X40466Y244348D01*
X39355Y246160D01*
X37975Y247776D01*
X36360Y249155D01*
X34548Y250266D01*
X32585Y251079D01*
X30518Y251575D01*
X28400Y251742D01*
D02*
G37*
G36*
X197900Y222200D02*
X191900D01*
Y218700D01*
X197900D01*
Y222200D01*
D02*
G37*
G36*
Y217700D02*
X191900D01*
Y214200D01*
X197900D01*
Y217700D01*
D02*
G37*
G36*
X10900Y212234D02*
X8900D01*
Y208700D01*
X14869D01*
X14797Y209244D01*
X14394Y210217D01*
X13753Y211053D01*
X12917Y211694D01*
X11944Y212097D01*
X10900Y212234D01*
D02*
G37*
G36*
X14869Y207700D02*
X8900D01*
Y204166D01*
X10900D01*
X11944Y204303D01*
X12917Y204706D01*
X13753Y205347D01*
X14394Y206183D01*
X14797Y207156D01*
X14869Y207700D01*
D02*
G37*
G36*
X197900Y192235D02*
X195900D01*
X194856Y192097D01*
X193883Y191694D01*
X193047Y191053D01*
X192406Y190217D01*
X192003Y189244D01*
X191931Y188700D01*
X197900D01*
Y192235D01*
D02*
G37*
G36*
X10900D02*
X8900D01*
Y188700D01*
X14869D01*
X14797Y189244D01*
X14394Y190217D01*
X13753Y191053D01*
X12917Y191694D01*
X11944Y192097D01*
X10900Y192235D01*
D02*
G37*
G36*
X197900Y187700D02*
X191931D01*
X192003Y187156D01*
X192406Y186183D01*
X193047Y185347D01*
X193883Y184706D01*
X194856Y184303D01*
X195900Y184166D01*
X197900D01*
Y187700D01*
D02*
G37*
G36*
X14869D02*
X8900D01*
Y184166D01*
X10900D01*
X11944Y184303D01*
X12917Y184706D01*
X13753Y185347D01*
X14394Y186183D01*
X14797Y187156D01*
X14869Y187700D01*
D02*
G37*
G36*
X197900Y162234D02*
X195900D01*
X194856Y162097D01*
X193883Y161694D01*
X193047Y161053D01*
X192406Y160217D01*
X192003Y159244D01*
X191931Y158700D01*
X197900D01*
Y162234D01*
D02*
G37*
G36*
Y157700D02*
X191931D01*
X192003Y157156D01*
X192406Y156183D01*
X193047Y155347D01*
X193883Y154706D01*
X194856Y154303D01*
X195900Y154165D01*
X197900D01*
Y157700D01*
D02*
G37*
G36*
X177000Y159487D02*
X175968Y159351D01*
X175007Y158953D01*
X174181Y158319D01*
X173547Y157493D01*
X173149Y156532D01*
X173013Y155500D01*
X173149Y154468D01*
X173547Y153507D01*
X174181Y152681D01*
X175007Y152047D01*
X175968Y151649D01*
X177000Y151513D01*
X178032Y151649D01*
X178993Y152047D01*
X179819Y152681D01*
X180453Y153507D01*
X180851Y154468D01*
X180987Y155500D01*
X180851Y156532D01*
X180453Y157493D01*
X179819Y158319D01*
X178993Y158953D01*
X178032Y159351D01*
X177000Y159487D01*
D02*
G37*
G36*
Y149487D02*
X175968Y149351D01*
X175007Y148953D01*
X174181Y148319D01*
X173547Y147493D01*
X173149Y146532D01*
X173013Y145500D01*
X173149Y144468D01*
X173547Y143507D01*
X174181Y142681D01*
X175007Y142047D01*
X175968Y141649D01*
X177000Y141513D01*
X178032Y141649D01*
X178993Y142047D01*
X179819Y142681D01*
X180453Y143507D01*
X180851Y144468D01*
X180987Y145500D01*
X180851Y146532D01*
X180453Y147493D01*
X179819Y148319D01*
X178993Y148953D01*
X178032Y149351D01*
X177000Y149487D01*
D02*
G37*
G36*
X169346Y142336D02*
X168683Y142204D01*
X168121Y141828D01*
X167745Y141266D01*
X167613Y140602D01*
X167745Y139939D01*
X168121Y139377D01*
X168683Y139001D01*
X169346Y138869D01*
X170010Y139001D01*
X170572Y139377D01*
X170948Y139939D01*
X171080Y140602D01*
X170948Y141266D01*
X170572Y141828D01*
X170010Y142204D01*
X169346Y142336D01*
D02*
G37*
G36*
X133756Y136233D02*
X133093Y136101D01*
X132530Y135726D01*
X132155Y135163D01*
X132023Y134500D01*
X132155Y133837D01*
X132530Y133274D01*
X133093Y132899D01*
X133756Y132767D01*
X134419Y132899D01*
X134982Y133274D01*
X135357Y133837D01*
X135489Y134500D01*
X135357Y135163D01*
X134982Y135726D01*
X134419Y136101D01*
X133756Y136233D01*
D02*
G37*
G36*
X146044Y109989D02*
X145381Y109857D01*
X144818Y109482D01*
X144443Y108919D01*
X144311Y108256D01*
X144443Y107593D01*
X144818Y107030D01*
X145381Y106655D01*
X146044Y106523D01*
X146707Y106655D01*
X147270Y107030D01*
X147645Y107593D01*
X147777Y108256D01*
X147645Y108919D01*
X147270Y109482D01*
X146707Y109857D01*
X146044Y109989D01*
D02*
G37*
G36*
X197900Y72234D02*
X195900D01*
X194856Y72097D01*
X193883Y71694D01*
X193047Y71053D01*
X192406Y70217D01*
X192003Y69244D01*
X191931Y68700D01*
X197900D01*
Y72234D01*
D02*
G37*
G36*
Y67700D02*
X191931D01*
X192003Y67156D01*
X192406Y66183D01*
X193047Y65347D01*
X193883Y64706D01*
X194856Y64303D01*
X195900Y64166D01*
X197900D01*
Y67700D01*
D02*
G37*
G36*
X153000Y64733D02*
X152337Y64601D01*
X151774Y64226D01*
X151399Y63663D01*
X151267Y63000D01*
X151399Y62337D01*
X151774Y61774D01*
X152337Y61399D01*
X153000Y61267D01*
X153663Y61399D01*
X154226Y61774D01*
X154601Y62337D01*
X154733Y63000D01*
X154601Y63663D01*
X154226Y64226D01*
X153663Y64601D01*
X153000Y64733D01*
D02*
G37*
G36*
X197900Y62234D02*
X195900D01*
X194856Y62097D01*
X193883Y61694D01*
X193047Y61053D01*
X192406Y60217D01*
X192003Y59244D01*
X191931Y58700D01*
X197900D01*
Y62234D01*
D02*
G37*
G36*
Y57700D02*
X191931D01*
X192003Y57156D01*
X192406Y56183D01*
X193047Y55347D01*
X193883Y54706D01*
X194856Y54303D01*
X195900Y54166D01*
X197900D01*
Y57700D01*
D02*
G37*
G36*
X151000Y106233D02*
X150337Y106101D01*
X149774Y105726D01*
X149399Y105163D01*
X149267Y104500D01*
X149399Y103837D01*
X149471Y103729D01*
Y86971D01*
X114127Y51627D01*
X114000Y51601D01*
X113437Y51226D01*
X113061Y50663D01*
X112930Y50000D01*
X113061Y49337D01*
X113437Y48774D01*
X114000Y48399D01*
X114663Y48267D01*
X115326Y48399D01*
X115889Y48774D01*
X116264Y49337D01*
X116289Y49464D01*
X152081Y85256D01*
X152413Y85752D01*
X152529Y86337D01*
Y103729D01*
X152601Y103837D01*
X152733Y104500D01*
X152601Y105163D01*
X152226Y105726D01*
X151663Y106101D01*
X151000Y106233D01*
D02*
G37*
G36*
X98900Y14669D02*
Y8700D01*
X102435D01*
Y10700D01*
X102297Y11744D01*
X101894Y12717D01*
X101253Y13553D01*
X100417Y14194D01*
X99444Y14597D01*
X98900Y14669D01*
D02*
G37*
G36*
X88900D02*
Y8700D01*
X92435D01*
Y10700D01*
X92297Y11744D01*
X91894Y12717D01*
X91253Y13553D01*
X90417Y14194D01*
X89444Y14597D01*
X88900Y14669D01*
D02*
G37*
G36*
X97900D02*
X97356Y14597D01*
X96383Y14194D01*
X95547Y13553D01*
X94906Y12717D01*
X94503Y11744D01*
X94366Y10700D01*
Y8700D01*
X97900D01*
Y14669D01*
D02*
G37*
G36*
X87900D02*
X87356Y14597D01*
X86383Y14194D01*
X85547Y13553D01*
X84906Y12717D01*
X84503Y11744D01*
X84365Y10700D01*
Y8700D01*
X87900D01*
Y14669D01*
D02*
G37*
G36*
X10900Y172234D02*
X8900D01*
Y168700D01*
X14869D01*
X14797Y169244D01*
X14394Y170217D01*
X13753Y171053D01*
X12917Y171694D01*
X11944Y172097D01*
X10900Y172234D01*
D02*
G37*
G36*
X14869Y167700D02*
X8900D01*
Y164165D01*
X10900D01*
X11944Y164303D01*
X12917Y164706D01*
X13753Y165347D01*
X14394Y166183D01*
X14797Y167156D01*
X14869Y167700D01*
D02*
G37*
G36*
X98000Y159233D02*
X97337Y159101D01*
X96774Y158726D01*
X96399Y158163D01*
X96267Y157500D01*
X96399Y156837D01*
X96774Y156274D01*
X97337Y155899D01*
X98000Y155767D01*
X98663Y155899D01*
X99226Y156274D01*
X99601Y156837D01*
X99733Y157500D01*
X99601Y158163D01*
X99226Y158726D01*
X98663Y159101D01*
X98000Y159233D01*
D02*
G37*
G36*
X74128Y142606D02*
X73464Y142474D01*
X72902Y142098D01*
X72526Y141536D01*
X72394Y140872D01*
X72526Y140209D01*
X72902Y139647D01*
X73464Y139271D01*
X74128Y139139D01*
X74791Y139271D01*
X75353Y139647D01*
X75729Y140209D01*
X75861Y140872D01*
X75729Y141536D01*
X75353Y142098D01*
X74791Y142474D01*
X74128Y142606D01*
D02*
G37*
G36*
X63756Y136977D02*
X63093Y136846D01*
X62530Y136470D01*
X62155Y135907D01*
X62023Y135244D01*
X62155Y134581D01*
X62530Y134019D01*
X63093Y133643D01*
X63756Y133511D01*
X64419Y133643D01*
X64982Y134019D01*
X65357Y134581D01*
X65489Y135244D01*
X65357Y135907D01*
X64982Y136470D01*
X64419Y136846D01*
X63756Y136977D01*
D02*
G37*
G36*
X83500Y135913D02*
X82837Y135781D01*
X82274Y135405D01*
X81899Y134843D01*
X81767Y134179D01*
X81899Y133516D01*
X82274Y132954D01*
X82582Y132748D01*
Y128611D01*
X82274Y128405D01*
X81899Y127843D01*
X81767Y127180D01*
X81899Y126516D01*
X82274Y125954D01*
X82837Y125578D01*
X83500Y125446D01*
X84163Y125578D01*
X84726Y125954D01*
X85101Y126516D01*
X85233Y127180D01*
X85101Y127843D01*
X84726Y128405D01*
X84418Y128611D01*
Y132748D01*
X84726Y132954D01*
X85101Y133516D01*
X85233Y134179D01*
X85101Y134843D01*
X84726Y135405D01*
X84163Y135781D01*
X83500Y135913D01*
D02*
G37*
G36*
X98756Y89489D02*
X98093Y89357D01*
X97530Y88981D01*
X97154Y88419D01*
X97023Y87756D01*
X97154Y87093D01*
X97530Y86530D01*
X98093Y86155D01*
X98756Y86023D01*
X99419Y86155D01*
X99981Y86530D01*
X100357Y87093D01*
X100489Y87756D01*
X100357Y88419D01*
X99981Y88981D01*
X99419Y89357D01*
X98756Y89489D01*
D02*
G37*
G36*
X88013Y83220D02*
X87350Y83088D01*
X86788Y82712D01*
X86412Y82150D01*
X86280Y81487D01*
X86412Y80823D01*
X86788Y80261D01*
X87350Y79885D01*
X88013Y79753D01*
X88677Y79885D01*
X89239Y80261D01*
X89615Y80823D01*
X89747Y81487D01*
X89615Y82150D01*
X89239Y82712D01*
X88677Y83088D01*
X88013Y83220D01*
D02*
G37*
G36*
X49000Y138733D02*
X48337Y138601D01*
X47774Y138226D01*
X47399Y137663D01*
X47267Y137000D01*
X47399Y136337D01*
X47471Y136229D01*
Y93500D01*
X47587Y92915D01*
X47919Y92419D01*
X65419Y74919D01*
X65915Y74587D01*
X66500Y74471D01*
X77729D01*
X77837Y74399D01*
X78500Y74267D01*
X79163Y74399D01*
X79726Y74774D01*
X80101Y75337D01*
X80233Y76000D01*
X80101Y76663D01*
X79726Y77226D01*
X79163Y77601D01*
X78500Y77733D01*
X77837Y77601D01*
X77729Y77529D01*
X67133D01*
X50529Y94134D01*
Y136229D01*
X50601Y136337D01*
X50733Y137000D01*
X50601Y137663D01*
X50226Y138226D01*
X49663Y138601D01*
X49000Y138733D01*
D02*
G37*
G36*
X72500Y69233D02*
X71837Y69101D01*
X71274Y68726D01*
X70899Y68163D01*
X70767Y67500D01*
X70899Y66837D01*
X71274Y66274D01*
X71837Y65899D01*
X72500Y65767D01*
X73163Y65899D01*
X73726Y66274D01*
X74101Y66837D01*
X74233Y67500D01*
X74101Y68163D01*
X73726Y68726D01*
X73163Y69101D01*
X72500Y69233D01*
D02*
G37*
G36*
X10900Y82235D02*
X8900D01*
Y78700D01*
X14869D01*
X14797Y79244D01*
X14394Y80217D01*
X13753Y81053D01*
X12917Y81694D01*
X11944Y82097D01*
X10900Y82235D01*
D02*
G37*
G36*
X14869Y77700D02*
X8900D01*
Y74165D01*
X10900D01*
X11944Y74303D01*
X12917Y74706D01*
X13753Y75347D01*
X14394Y76183D01*
X14797Y77156D01*
X14869Y77700D01*
D02*
G37*
G36*
X10900Y72234D02*
X8900D01*
Y68700D01*
X14869D01*
X14797Y69244D01*
X14394Y70217D01*
X13753Y71053D01*
X12917Y71694D01*
X11944Y72097D01*
X10900Y72234D01*
D02*
G37*
G36*
X14869Y67700D02*
X8900D01*
Y64166D01*
X10900D01*
X11944Y64303D01*
X12917Y64706D01*
X13753Y65347D01*
X14394Y66183D01*
X14797Y67156D01*
X14869Y67700D01*
D02*
G37*
G36*
X32500Y84733D02*
X31837Y84601D01*
X31274Y84226D01*
X30899Y83663D01*
X30767Y83000D01*
X30899Y82337D01*
X31274Y81774D01*
X31582Y81569D01*
Y71280D01*
X20163Y59861D01*
X19800Y59933D01*
X19137Y59801D01*
X18574Y59426D01*
X18199Y58863D01*
X18067Y58200D01*
X18199Y57537D01*
X18574Y56974D01*
X19137Y56599D01*
X19800Y56467D01*
X20463Y56599D01*
X21026Y56974D01*
X21401Y57537D01*
X21533Y58200D01*
X21461Y58563D01*
X33149Y70251D01*
X33348Y70549D01*
X33418Y70900D01*
Y81569D01*
X33726Y81774D01*
X34101Y82337D01*
X34233Y83000D01*
X34101Y83663D01*
X33726Y84226D01*
X33163Y84601D01*
X32500Y84733D01*
D02*
G37*
G36*
X40000Y56233D02*
X39337Y56101D01*
X38774Y55726D01*
X38399Y55163D01*
X38267Y54500D01*
X38399Y53837D01*
X38774Y53274D01*
X39337Y52899D01*
X40000Y52767D01*
X40663Y52899D01*
X41226Y53274D01*
X41601Y53837D01*
X41733Y54500D01*
X41601Y55163D01*
X41226Y55726D01*
X40663Y56101D01*
X40000Y56233D01*
D02*
G37*
G36*
X12400Y14700D02*
X8900D01*
Y8700D01*
X12400D01*
Y14700D01*
D02*
G37*
G36*
X7900D02*
X4400D01*
Y8700D01*
X7900D01*
Y14700D01*
D02*
G37*
G36*
X33244Y136977D02*
X32581Y136846D01*
X32019Y136470D01*
X31643Y135907D01*
X31511Y135244D01*
X31643Y134581D01*
X32019Y134019D01*
X32581Y133643D01*
X33244Y133511D01*
X33907Y133643D01*
X34470Y134019D01*
X34845Y134581D01*
X34977Y135244D01*
X34845Y135907D01*
X34470Y136470D01*
X33907Y136846D01*
X33244Y136977D01*
D02*
G37*
%LPD*%
D13*
X116500Y118000D02*
Y121000D01*
X8400Y178200D02*
X88480D01*
X102000Y164680D01*
Y135500D02*
Y164680D01*
Y135500D02*
X116500Y121000D01*
X77800Y60000D02*
X77900Y59900D01*
D15*
X120082Y116000D02*
X129500D01*
X118500Y114418D02*
X120082Y116000D01*
X118500Y108470D02*
Y114418D01*
X120100Y118100D02*
X130370D01*
X114000Y112000D02*
X120100Y118100D01*
X127000Y112000D02*
X128900Y113900D01*
X130370D01*
X131600Y115130D01*
Y116870D01*
X130370Y118100D02*
X131600Y116870D01*
X127000Y105000D02*
Y112000D01*
X137828Y115828D02*
X140500Y118500D01*
X137828Y114828D02*
Y115828D01*
X132000Y109000D02*
X137828Y114828D01*
X143000Y117500D02*
X145000D01*
X134000Y108500D02*
X143000Y117500D01*
X134000Y88000D02*
Y108500D01*
X84000Y27500D02*
X88500D01*
X93000Y23000D01*
X105000D02*
X113500Y31500D01*
X93000Y23000D02*
X105000D01*
X113500Y31500D02*
Y44500D01*
X108500Y49500D02*
X113500Y44500D01*
X108500Y49500D02*
Y56500D01*
X136941Y84941D01*
X129808Y94808D02*
Y107808D01*
X99200Y53200D02*
X134000Y88000D01*
X91700Y53200D02*
X99200D01*
X136941Y84941D02*
Y107441D01*
X132000Y93000D02*
Y109000D01*
X93500Y54500D02*
X132000Y93000D01*
X32500Y70900D02*
Y83000D01*
X19800Y58200D02*
X32500Y70900D01*
X91100Y138900D02*
X112000Y118000D01*
X91100Y138900D02*
Y141742D01*
X88500Y54500D02*
X93500D01*
X80000Y41500D02*
X91700Y53200D01*
X80000Y37500D02*
Y41500D01*
X92000Y57000D02*
X129808Y94808D01*
X91000Y57000D02*
X92000D01*
X60100Y59900D02*
X77900D01*
X121100Y103100D02*
Y105870D01*
X77900Y59900D02*
X121100Y103100D01*
X118500Y108470D02*
X121100Y105870D01*
X88500Y106679D02*
X102000Y120179D01*
X83500Y127180D02*
Y134179D01*
X31159Y108200D02*
X33180Y106179D01*
X8400Y108200D02*
X31159D01*
X85000Y54500D02*
X125585Y95085D01*
X42000Y78000D02*
X60100Y59900D01*
X42000Y78000D02*
Y106000D01*
X29800Y118200D02*
X42000Y106000D01*
X8400Y118200D02*
X29800D01*
X112000Y114000D02*
X114000Y112000D01*
X8400Y148200D02*
X77830D01*
X112000Y114000D02*
Y118000D01*
X8400Y158200D02*
X74642D01*
X91100Y141742D01*
X77900Y8700D02*
X78400Y8200D01*
X77900Y8700D02*
Y59900D01*
X116000Y102000D02*
X119000Y105000D01*
X110000Y102000D02*
X116000D01*
X77830Y148200D02*
X105500Y120530D01*
X108559Y107441D02*
X116559D01*
X105500Y106500D02*
X110000Y102000D01*
X105500Y106500D02*
Y120530D01*
X97000Y108000D02*
X101000D01*
X22200Y138200D02*
X29500Y145500D01*
X8400Y138200D02*
X22200D01*
X91500Y95500D02*
X101000Y105000D01*
X70500Y95500D02*
X91500D01*
X8400Y128200D02*
X31700D01*
X44000Y140500D01*
X51500D01*
X55500Y110500D02*
X70500Y95500D01*
X55500Y110500D02*
Y136500D01*
X51500Y140500D02*
X55500Y136500D01*
X88000Y99000D02*
X97000Y108000D01*
X74500Y99000D02*
X88000D01*
X59500Y114000D02*
X74500Y99000D01*
X29500Y145500D02*
X52000D01*
X59500Y138000D01*
Y114000D02*
Y138000D01*
D16*
X102000Y120179D02*
X102500D01*
X129808Y107808D02*
X129828D01*
X108000Y108000D02*
X108559Y107441D01*
X232Y-7D02*
Y253993D01*
X206232D01*
Y-7D02*
Y253993D01*
X232Y-7D02*
X206232D01*
D50*
X49000Y93500D02*
Y137000D01*
Y93500D02*
X66500Y76000D01*
X78500D01*
X114663Y50000D02*
X151000Y86337D01*
Y104500D01*
D54*
X177000Y155500D02*
D03*
Y145500D02*
D03*
D55*
X98400Y38200D02*
D03*
X28400Y238200D02*
D03*
X178400D02*
D03*
D56*
X8400Y218200D02*
D03*
X198400D02*
D03*
D57*
X8400Y208200D02*
D03*
Y198200D02*
D03*
Y188200D02*
D03*
Y178200D02*
D03*
Y168200D02*
D03*
Y158200D02*
D03*
Y148200D02*
D03*
Y138200D02*
D03*
Y128200D02*
D03*
Y118200D02*
D03*
Y108200D02*
D03*
Y98200D02*
D03*
Y88200D02*
D03*
Y78200D02*
D03*
Y68200D02*
D03*
Y58200D02*
D03*
Y48200D02*
D03*
Y38200D02*
D03*
Y28200D02*
D03*
X198400Y208200D02*
D03*
Y198200D02*
D03*
Y188200D02*
D03*
Y178200D02*
D03*
Y168200D02*
D03*
Y158200D02*
D03*
Y148200D02*
D03*
Y138200D02*
D03*
Y128200D02*
D03*
Y118200D02*
D03*
Y108200D02*
D03*
Y98200D02*
D03*
Y88200D02*
D03*
Y78200D02*
D03*
Y68200D02*
D03*
Y58200D02*
D03*
Y48200D02*
D03*
Y38200D02*
D03*
Y28200D02*
D03*
D58*
X8400Y8200D02*
D03*
D59*
X18400D02*
D03*
X28400D02*
D03*
X38400D02*
D03*
X48400D02*
D03*
X58400D02*
D03*
X68400D02*
D03*
X78400D02*
D03*
X88400D02*
D03*
X98400D02*
D03*
X108400D02*
D03*
X118400D02*
D03*
X128400D02*
D03*
X138400D02*
D03*
X148400D02*
D03*
X158400D02*
D03*
X168400D02*
D03*
X178400D02*
D03*
X188400D02*
D03*
X198400D02*
D03*
D60*
X129500Y116000D02*
D03*
X140500Y118500D02*
D03*
X145000Y117500D02*
D03*
X84000Y27500D02*
D03*
X32500Y83000D02*
D03*
X19800Y58200D02*
D03*
X27500Y153100D02*
D03*
X68600Y153000D02*
D03*
X131500Y75800D02*
D03*
X127800Y72100D02*
D03*
X133400Y140300D02*
D03*
X106900D02*
D03*
X126500Y129500D02*
D03*
X111500Y147000D02*
D03*
Y152500D02*
D03*
X122000Y154000D02*
D03*
X126000Y146000D02*
D03*
X130000Y150000D02*
D03*
X134000Y154000D02*
D03*
X98256Y134744D02*
D03*
X107244D02*
D03*
X128000Y85500D02*
D03*
X121500Y95000D02*
D03*
Y110000D02*
D03*
X124500D02*
D03*
X116500Y118000D02*
D03*
X133756Y134500D02*
D03*
X88500Y106679D02*
D03*
X102500Y120179D02*
D03*
X83500Y127180D02*
D03*
Y134179D02*
D03*
X33180Y106179D02*
D03*
X49000Y137000D02*
D03*
X78500Y76000D02*
D03*
X136941Y107441D02*
D03*
X125585Y95085D02*
D03*
X91000Y57000D02*
D03*
X88500Y54500D02*
D03*
X85000D02*
D03*
X80000Y37500D02*
D03*
X127000Y105000D02*
D03*
X129828Y107808D02*
D03*
X151000Y104500D02*
D03*
X103000Y77500D02*
D03*
X72320Y88179D02*
D03*
X88013Y81487D02*
D03*
X89000Y140872D02*
D03*
X74128D02*
D03*
X63756Y140756D02*
D03*
X33244D02*
D03*
X72000Y119000D02*
D03*
X178512Y112988D02*
D03*
X152800Y124500D02*
D03*
X142500Y97700D02*
D03*
X146044Y108256D02*
D03*
X37772Y90728D02*
D03*
X38000Y72000D02*
D03*
X63756Y135244D02*
D03*
X33244D02*
D03*
X169346Y140602D02*
D03*
X98756Y87756D02*
D03*
X126000Y158000D02*
D03*
X130000Y162000D02*
D03*
X134000Y166000D02*
D03*
X138000Y170000D02*
D03*
X142000Y174000D02*
D03*
X146000Y178000D02*
D03*
X150000Y182000D02*
D03*
X154000Y186000D02*
D03*
X158000Y190000D02*
D03*
X162000Y194000D02*
D03*
X166000Y198000D02*
D03*
X170000Y202000D02*
D03*
X176000Y203000D02*
D03*
X182000D02*
D03*
X188000D02*
D03*
X174000Y194000D02*
D03*
X170000Y190000D02*
D03*
X166000Y186000D02*
D03*
X162000Y182000D02*
D03*
X158000Y178000D02*
D03*
X154000Y174000D02*
D03*
X150000Y170000D02*
D03*
X146000Y166000D02*
D03*
X142000Y162000D02*
D03*
X138000Y158000D02*
D03*
X157000Y202000D02*
D03*
X153000Y198000D02*
D03*
X149000Y194000D02*
D03*
X145000Y190000D02*
D03*
X141000Y186000D02*
D03*
X137000Y182000D02*
D03*
X133000Y178000D02*
D03*
X129000Y174000D02*
D03*
X125000Y170000D02*
D03*
X121000Y166000D02*
D03*
X117000Y162000D02*
D03*
X113000Y158000D02*
D03*
X161000Y206000D02*
D03*
X165000Y210000D02*
D03*
X180000Y194000D02*
D03*
X186000D02*
D03*
X170000Y213000D02*
D03*
X176000D02*
D03*
X182000D02*
D03*
X188000D02*
D03*
X119000Y105000D02*
D03*
X105500Y128000D02*
D03*
X77800Y60000D02*
D03*
X40000Y54500D02*
D03*
X116559Y107441D02*
D03*
X108000Y108000D02*
D03*
X101000D02*
D03*
Y105000D02*
D03*
X114663Y50000D02*
D03*
X53000Y77500D02*
D03*
X23000Y123500D02*
D03*
X139500Y63000D02*
D03*
X153000D02*
D03*
X58500Y67500D02*
D03*
X72500D02*
D03*
X98000Y157500D02*
D03*
X84500D02*
D03*
M02*
