G04*
G04 #@! TF.GenerationSoftware,Altium Limited,Altium Designer,18.1.7 (191)*
G04*
G04 Layer_Physical_Order=3*
G04 Layer_Color=36540*
%FSLAX25Y25*%
%MOIN*%
G70*
G01*
G75*
%ADD15C,0.00800*%
%ADD16C,0.00500*%
%ADD54C,0.05906*%
%ADD57O,0.11000X0.06000*%
%ADD59O,0.06000X0.11000*%
%ADD60C,0.02400*%
G36*
X204871Y222200D02*
X191900D01*
Y214200D01*
X204871D01*
Y210580D01*
X204271Y210378D01*
X203753Y211053D01*
X202917Y211694D01*
X201944Y212097D01*
X200900Y212234D01*
X195900D01*
X194856Y212097D01*
X193883Y211694D01*
X193047Y211053D01*
X192406Y210217D01*
X192003Y209244D01*
X191866Y208200D01*
X192003Y207156D01*
X192406Y206183D01*
X193047Y205347D01*
X193883Y204706D01*
X194856Y204303D01*
X195900Y204166D01*
X200900D01*
X201944Y204303D01*
X202917Y204706D01*
X203753Y205347D01*
X204271Y206022D01*
X204871Y205820D01*
Y200580D01*
X204271Y200378D01*
X203753Y201053D01*
X202917Y201694D01*
X201944Y202097D01*
X200900Y202235D01*
X195900D01*
X194856Y202097D01*
X193883Y201694D01*
X193047Y201053D01*
X192406Y200217D01*
X192003Y199244D01*
X191866Y198200D01*
X192003Y197156D01*
X192406Y196183D01*
X193047Y195347D01*
X193883Y194706D01*
X194856Y194303D01*
X195900Y194166D01*
X200900D01*
X201944Y194303D01*
X202917Y194706D01*
X203753Y195347D01*
X204271Y196022D01*
X204871Y195820D01*
Y190580D01*
X204271Y190378D01*
X203753Y191053D01*
X202917Y191694D01*
X201944Y192097D01*
X200900Y192235D01*
X195900D01*
X194856Y192097D01*
X193883Y191694D01*
X193047Y191053D01*
X192406Y190217D01*
X192003Y189244D01*
X191866Y188200D01*
X192003Y187156D01*
X192406Y186183D01*
X193047Y185347D01*
X193883Y184706D01*
X194856Y184303D01*
X195900Y184166D01*
X200900D01*
X201944Y184303D01*
X202917Y184706D01*
X203753Y185347D01*
X204271Y186022D01*
X204871Y185820D01*
Y180580D01*
X204271Y180378D01*
X203753Y181053D01*
X202917Y181694D01*
X201944Y182097D01*
X200900Y182235D01*
X195900D01*
X194856Y182097D01*
X193883Y181694D01*
X193047Y181053D01*
X192406Y180217D01*
X192003Y179244D01*
X191866Y178200D01*
X192003Y177156D01*
X192406Y176183D01*
X193047Y175347D01*
X193883Y174706D01*
X194856Y174303D01*
X195900Y174165D01*
X200900D01*
X201944Y174303D01*
X202917Y174706D01*
X203753Y175347D01*
X204271Y176022D01*
X204871Y175820D01*
Y170580D01*
X204271Y170378D01*
X203753Y171053D01*
X202917Y171694D01*
X201944Y172097D01*
X200900Y172234D01*
X195900D01*
X194856Y172097D01*
X193883Y171694D01*
X193047Y171053D01*
X192406Y170217D01*
X192003Y169244D01*
X191866Y168200D01*
X192003Y167156D01*
X192406Y166183D01*
X193047Y165347D01*
X193883Y164706D01*
X194856Y164303D01*
X195900Y164165D01*
X200900D01*
X201944Y164303D01*
X202917Y164706D01*
X203753Y165347D01*
X204271Y166022D01*
X204871Y165820D01*
X204871Y160580D01*
X204271Y160378D01*
X203753Y161053D01*
X202917Y161694D01*
X201944Y162097D01*
X200900Y162234D01*
X195900D01*
X194856Y162097D01*
X193883Y161694D01*
X193047Y161053D01*
X192406Y160217D01*
X192003Y159244D01*
X191866Y158200D01*
X192003Y157156D01*
X192406Y156183D01*
X193047Y155347D01*
X193883Y154706D01*
X194856Y154303D01*
X195900Y154165D01*
X200900D01*
X201944Y154303D01*
X202917Y154706D01*
X203753Y155347D01*
X204271Y156022D01*
X204871Y155820D01*
Y150580D01*
X204271Y150378D01*
X203753Y151053D01*
X202917Y151694D01*
X201944Y152097D01*
X200900Y152234D01*
X198900D01*
Y148200D01*
Y144166D01*
X200900D01*
X201944Y144303D01*
X202917Y144706D01*
X203753Y145347D01*
X204271Y146022D01*
X204871Y145820D01*
Y140580D01*
X204271Y140378D01*
X203753Y141053D01*
X202917Y141694D01*
X201944Y142097D01*
X200900Y142235D01*
X195900D01*
X194856Y142097D01*
X193883Y141694D01*
X193047Y141053D01*
X192406Y140217D01*
X192003Y139244D01*
X191866Y138200D01*
X192003Y137156D01*
X192406Y136183D01*
X193047Y135347D01*
X193883Y134706D01*
X194856Y134303D01*
X195900Y134166D01*
X200900D01*
X201944Y134303D01*
X202917Y134706D01*
X203753Y135347D01*
X204271Y136022D01*
X204871Y135820D01*
Y130580D01*
X204271Y130378D01*
X203753Y131053D01*
X202917Y131694D01*
X201944Y132097D01*
X200900Y132235D01*
X195900D01*
X194856Y132097D01*
X193883Y131694D01*
X193047Y131053D01*
X192406Y130217D01*
X192003Y129244D01*
X191866Y128200D01*
X192003Y127156D01*
X192406Y126183D01*
X193047Y125347D01*
X193883Y124706D01*
X194856Y124303D01*
X195900Y124165D01*
X200900D01*
X201944Y124303D01*
X202917Y124706D01*
X203753Y125347D01*
X204271Y126022D01*
X204871Y125820D01*
Y120580D01*
X204271Y120378D01*
X203753Y121053D01*
X202917Y121694D01*
X201944Y122097D01*
X200900Y122234D01*
X195900D01*
X194856Y122097D01*
X193883Y121694D01*
X193047Y121053D01*
X192406Y120217D01*
X192003Y119244D01*
X191866Y118200D01*
X192003Y117156D01*
X192406Y116183D01*
X193047Y115347D01*
X193883Y114706D01*
X194856Y114303D01*
X195900Y114165D01*
X200900D01*
X201944Y114303D01*
X202917Y114706D01*
X203753Y115347D01*
X204271Y116022D01*
X204871Y115820D01*
Y110580D01*
X204271Y110378D01*
X203753Y111053D01*
X202917Y111694D01*
X201944Y112097D01*
X200900Y112234D01*
X195900D01*
X194856Y112097D01*
X193883Y111694D01*
X193047Y111053D01*
X192406Y110217D01*
X192003Y109244D01*
X191866Y108200D01*
X192003Y107156D01*
X192406Y106183D01*
X193047Y105347D01*
X193883Y104706D01*
X194856Y104303D01*
X195900Y104165D01*
X200900D01*
X201944Y104303D01*
X202917Y104706D01*
X203753Y105347D01*
X204271Y106022D01*
X204871Y105820D01*
Y100580D01*
X204271Y100378D01*
X203753Y101053D01*
X202917Y101694D01*
X201944Y102097D01*
X200900Y102234D01*
X195900D01*
X194856Y102097D01*
X193883Y101694D01*
X193047Y101053D01*
X192406Y100217D01*
X192003Y99244D01*
X191866Y98200D01*
X192003Y97156D01*
X192406Y96183D01*
X193047Y95347D01*
X193883Y94706D01*
X194856Y94303D01*
X195900Y94165D01*
X200900D01*
X201944Y94303D01*
X202917Y94706D01*
X203753Y95347D01*
X204271Y96022D01*
X204871Y95820D01*
X204871Y90580D01*
X204271Y90378D01*
X203753Y91053D01*
X202917Y91694D01*
X201944Y92097D01*
X200900Y92234D01*
X198900D01*
Y88200D01*
Y84166D01*
X200900D01*
X201944Y84303D01*
X202917Y84706D01*
X203753Y85347D01*
X204271Y86022D01*
X204871Y85820D01*
Y80580D01*
X204271Y80378D01*
X203753Y81053D01*
X202917Y81694D01*
X201944Y82097D01*
X200900Y82235D01*
X195900D01*
X194856Y82097D01*
X193883Y81694D01*
X193047Y81053D01*
X192406Y80217D01*
X192003Y79244D01*
X191866Y78200D01*
X192003Y77156D01*
X192406Y76183D01*
X193047Y75347D01*
X193883Y74706D01*
X194856Y74303D01*
X195900Y74165D01*
X200900D01*
X201944Y74303D01*
X202917Y74706D01*
X203753Y75347D01*
X204271Y76022D01*
X204871Y75820D01*
Y70580D01*
X204271Y70378D01*
X203753Y71053D01*
X202917Y71694D01*
X201944Y72097D01*
X200900Y72234D01*
X195900D01*
X194856Y72097D01*
X193883Y71694D01*
X193047Y71053D01*
X192406Y70217D01*
X192003Y69244D01*
X191866Y68200D01*
X192003Y67156D01*
X192406Y66183D01*
X193047Y65347D01*
X193883Y64706D01*
X194856Y64303D01*
X195900Y64166D01*
X200900D01*
X201944Y64303D01*
X202917Y64706D01*
X203753Y65347D01*
X204271Y66022D01*
X204871Y65820D01*
Y60580D01*
X204271Y60378D01*
X203753Y61053D01*
X202917Y61694D01*
X201944Y62097D01*
X200900Y62234D01*
X195900D01*
X194856Y62097D01*
X193883Y61694D01*
X193047Y61053D01*
X192406Y60217D01*
X192003Y59244D01*
X191866Y58200D01*
X192003Y57156D01*
X192406Y56183D01*
X193047Y55347D01*
X193883Y54706D01*
X194856Y54303D01*
X195900Y54166D01*
X200900D01*
X201944Y54303D01*
X202917Y54706D01*
X203753Y55347D01*
X204271Y56022D01*
X204871Y55820D01*
X204871Y50580D01*
X204271Y50378D01*
X203753Y51053D01*
X202917Y51694D01*
X201944Y52097D01*
X200900Y52235D01*
X195900D01*
X194856Y52097D01*
X193883Y51694D01*
X193047Y51053D01*
X192406Y50217D01*
X192003Y49244D01*
X191866Y48200D01*
X192003Y47156D01*
X192406Y46183D01*
X193047Y45347D01*
X193883Y44706D01*
X194856Y44303D01*
X195900Y44166D01*
X200900D01*
X201944Y44303D01*
X202917Y44706D01*
X203753Y45347D01*
X204271Y46022D01*
X204871Y45820D01*
Y40580D01*
X204271Y40378D01*
X203753Y41053D01*
X202917Y41694D01*
X201944Y42097D01*
X200900Y42235D01*
X195900D01*
X194856Y42097D01*
X193883Y41694D01*
X193047Y41053D01*
X192406Y40217D01*
X192003Y39244D01*
X191866Y38200D01*
X192003Y37156D01*
X192406Y36183D01*
X193047Y35347D01*
X193883Y34706D01*
X194856Y34303D01*
X195900Y34165D01*
X200900D01*
X201944Y34303D01*
X202917Y34706D01*
X203753Y35347D01*
X204271Y36022D01*
X204871Y35820D01*
Y30580D01*
X204271Y30378D01*
X203753Y31053D01*
X202917Y31694D01*
X201944Y32097D01*
X200900Y32234D01*
X195900D01*
X194856Y32097D01*
X193883Y31694D01*
X193047Y31053D01*
X192406Y30217D01*
X192003Y29244D01*
X191866Y28200D01*
X192003Y27156D01*
X192406Y26183D01*
X193047Y25347D01*
X193883Y24706D01*
X194856Y24303D01*
X195900Y24166D01*
X200900D01*
X201944Y24303D01*
X202917Y24706D01*
X203753Y25347D01*
X204271Y26022D01*
X204871Y25820D01*
X204871Y1522D01*
X200334D01*
X200215Y2122D01*
X200417Y2206D01*
X201253Y2847D01*
X201894Y3683D01*
X202297Y4656D01*
X202434Y5700D01*
Y10700D01*
X202297Y11744D01*
X201894Y12717D01*
X201253Y13553D01*
X200417Y14194D01*
X199444Y14597D01*
X198400Y14735D01*
X197356Y14597D01*
X196383Y14194D01*
X195547Y13553D01*
X194906Y12717D01*
X194503Y11744D01*
X194366Y10700D01*
Y5700D01*
X194503Y4656D01*
X194906Y3683D01*
X195547Y2847D01*
X196383Y2206D01*
X196585Y2122D01*
X196466Y1522D01*
X190334D01*
X190215Y2122D01*
X190417Y2206D01*
X191253Y2847D01*
X191894Y3683D01*
X192297Y4656D01*
X192435Y5700D01*
Y10700D01*
X192297Y11744D01*
X191894Y12717D01*
X191253Y13553D01*
X190417Y14194D01*
X189444Y14597D01*
X188400Y14735D01*
X187356Y14597D01*
X186383Y14194D01*
X185547Y13553D01*
X184906Y12717D01*
X184503Y11744D01*
X184365Y10700D01*
Y5700D01*
X184503Y4656D01*
X184906Y3683D01*
X185547Y2847D01*
X186383Y2206D01*
X186585Y2122D01*
X186466Y1522D01*
X180334D01*
X180215Y2122D01*
X180417Y2206D01*
X181253Y2847D01*
X181894Y3683D01*
X182297Y4656D01*
X182434Y5700D01*
Y10700D01*
X182297Y11744D01*
X181894Y12717D01*
X181253Y13553D01*
X180417Y14194D01*
X179444Y14597D01*
X178400Y14735D01*
X177356Y14597D01*
X176383Y14194D01*
X175547Y13553D01*
X174906Y12717D01*
X174503Y11744D01*
X174365Y10700D01*
Y5700D01*
X174503Y4656D01*
X174906Y3683D01*
X175547Y2847D01*
X176383Y2206D01*
X176585Y2122D01*
X176466Y1522D01*
X170334D01*
X170215Y2122D01*
X170417Y2206D01*
X171253Y2847D01*
X171894Y3683D01*
X172297Y4656D01*
X172434Y5700D01*
Y10700D01*
X172297Y11744D01*
X171894Y12717D01*
X171253Y13553D01*
X170417Y14194D01*
X169444Y14597D01*
X168400Y14735D01*
X167356Y14597D01*
X166383Y14194D01*
X165547Y13553D01*
X164906Y12717D01*
X164503Y11744D01*
X164365Y10700D01*
Y5700D01*
X164503Y4656D01*
X164906Y3683D01*
X165547Y2847D01*
X166383Y2206D01*
X166585Y2122D01*
X166466Y1522D01*
X160334D01*
X160215Y2122D01*
X160417Y2206D01*
X161253Y2847D01*
X161894Y3683D01*
X162297Y4656D01*
X162434Y5700D01*
Y10700D01*
X162297Y11744D01*
X161894Y12717D01*
X161253Y13553D01*
X160417Y14194D01*
X159444Y14597D01*
X158400Y14735D01*
X157356Y14597D01*
X156383Y14194D01*
X155547Y13553D01*
X154906Y12717D01*
X154503Y11744D01*
X154366Y10700D01*
Y5700D01*
X154503Y4656D01*
X154906Y3683D01*
X155547Y2847D01*
X156383Y2206D01*
X156585Y2122D01*
X156466Y1522D01*
X150334D01*
X150215Y2122D01*
X150417Y2206D01*
X151253Y2847D01*
X151894Y3683D01*
X152297Y4656D01*
X152435Y5700D01*
Y10700D01*
X152297Y11744D01*
X151894Y12717D01*
X151253Y13553D01*
X150417Y14194D01*
X149444Y14597D01*
X148400Y14735D01*
X147356Y14597D01*
X146383Y14194D01*
X145547Y13553D01*
X144906Y12717D01*
X144503Y11744D01*
X144366Y10700D01*
Y5700D01*
X144503Y4656D01*
X144906Y3683D01*
X145547Y2847D01*
X146383Y2206D01*
X146585Y2122D01*
X146466Y1522D01*
X140334D01*
X140215Y2122D01*
X140417Y2206D01*
X141253Y2847D01*
X141894Y3683D01*
X142297Y4656D01*
X142435Y5700D01*
Y10700D01*
X142297Y11744D01*
X141894Y12717D01*
X141253Y13553D01*
X140417Y14194D01*
X139444Y14597D01*
X138400Y14735D01*
X137356Y14597D01*
X136383Y14194D01*
X135547Y13553D01*
X134906Y12717D01*
X134503Y11744D01*
X134365Y10700D01*
Y5700D01*
X134503Y4656D01*
X134906Y3683D01*
X135547Y2847D01*
X136383Y2206D01*
X136585Y2122D01*
X136466Y1522D01*
X130334D01*
X130215Y2122D01*
X130417Y2206D01*
X131253Y2847D01*
X131894Y3683D01*
X132297Y4656D01*
X132434Y5700D01*
Y10700D01*
X132297Y11744D01*
X131894Y12717D01*
X131253Y13553D01*
X130417Y14194D01*
X129444Y14597D01*
X128400Y14735D01*
X127356Y14597D01*
X126383Y14194D01*
X125547Y13553D01*
X124906Y12717D01*
X124503Y11744D01*
X124365Y10700D01*
Y5700D01*
X124503Y4656D01*
X124906Y3683D01*
X125547Y2847D01*
X126383Y2206D01*
X126585Y2122D01*
X126466Y1522D01*
X120334D01*
X120215Y2122D01*
X120417Y2206D01*
X121253Y2847D01*
X121894Y3683D01*
X122297Y4656D01*
X122434Y5700D01*
Y10700D01*
X122297Y11744D01*
X121894Y12717D01*
X121253Y13553D01*
X120417Y14194D01*
X119444Y14597D01*
X118400Y14735D01*
X117356Y14597D01*
X116383Y14194D01*
X115547Y13553D01*
X114906Y12717D01*
X114503Y11744D01*
X114365Y10700D01*
Y5700D01*
X114503Y4656D01*
X114906Y3683D01*
X115547Y2847D01*
X116383Y2206D01*
X116585Y2122D01*
X116466Y1522D01*
X110334D01*
X110215Y2122D01*
X110417Y2206D01*
X111253Y2847D01*
X111894Y3683D01*
X112297Y4656D01*
X112434Y5700D01*
Y10700D01*
X112297Y11744D01*
X111894Y12717D01*
X111253Y13553D01*
X110417Y14194D01*
X109444Y14597D01*
X108400Y14735D01*
X107356Y14597D01*
X106383Y14194D01*
X105547Y13553D01*
X104906Y12717D01*
X104503Y11744D01*
X104366Y10700D01*
Y5700D01*
X104503Y4656D01*
X104906Y3683D01*
X105547Y2847D01*
X106383Y2206D01*
X106585Y2122D01*
X106466Y1522D01*
X100334Y1522D01*
X100215Y2122D01*
X100417Y2206D01*
X101253Y2847D01*
X101894Y3683D01*
X102297Y4656D01*
X102435Y5700D01*
Y10700D01*
X102297Y11744D01*
X101894Y12717D01*
X101253Y13553D01*
X100417Y14194D01*
X99444Y14597D01*
X98400Y14735D01*
X97356Y14597D01*
X96383Y14194D01*
X95547Y13553D01*
X94906Y12717D01*
X94503Y11744D01*
X94366Y10700D01*
Y5700D01*
X94503Y4656D01*
X94906Y3683D01*
X95547Y2847D01*
X96383Y2206D01*
X96585Y2122D01*
X96466Y1522D01*
X90334D01*
X90215Y2122D01*
X90417Y2206D01*
X91253Y2847D01*
X91894Y3683D01*
X92297Y4656D01*
X92435Y5700D01*
Y10700D01*
X92297Y11744D01*
X91894Y12717D01*
X91253Y13553D01*
X90417Y14194D01*
X89444Y14597D01*
X88400Y14735D01*
X87356Y14597D01*
X86383Y14194D01*
X85547Y13553D01*
X84906Y12717D01*
X84503Y11744D01*
X84365Y10700D01*
Y5700D01*
X84503Y4656D01*
X84906Y3683D01*
X85547Y2847D01*
X86383Y2206D01*
X86585Y2122D01*
X86466Y1522D01*
X80334D01*
X80215Y2122D01*
X80417Y2206D01*
X81253Y2847D01*
X81894Y3683D01*
X82297Y4656D01*
X82434Y5700D01*
Y10700D01*
X82297Y11744D01*
X81894Y12717D01*
X81253Y13553D01*
X80417Y14194D01*
X79444Y14597D01*
X78400Y14735D01*
X77356Y14597D01*
X76383Y14194D01*
X75547Y13553D01*
X74906Y12717D01*
X74503Y11744D01*
X74366Y10700D01*
Y5700D01*
X74503Y4656D01*
X74906Y3683D01*
X75547Y2847D01*
X76383Y2206D01*
X76585Y2122D01*
X76466Y1522D01*
X70334D01*
X70215Y2122D01*
X70417Y2206D01*
X71253Y2847D01*
X71894Y3683D01*
X72297Y4656D01*
X72435Y5700D01*
Y7700D01*
X68400D01*
X64366D01*
Y5700D01*
X64503Y4656D01*
X64906Y3683D01*
X65547Y2847D01*
X66383Y2206D01*
X66585Y2122D01*
X66466Y1522D01*
X60334D01*
X60215Y2122D01*
X60417Y2206D01*
X61253Y2847D01*
X61894Y3683D01*
X62297Y4656D01*
X62435Y5700D01*
Y10700D01*
X62297Y11744D01*
X61894Y12717D01*
X61253Y13553D01*
X60417Y14194D01*
X59444Y14597D01*
X58400Y14735D01*
X57356Y14597D01*
X56383Y14194D01*
X55547Y13553D01*
X54906Y12717D01*
X54503Y11744D01*
X54365Y10700D01*
Y5700D01*
X54503Y4656D01*
X54906Y3683D01*
X55547Y2847D01*
X56383Y2206D01*
X56585Y2122D01*
X56466Y1522D01*
X50334D01*
X50215Y2122D01*
X50417Y2206D01*
X51253Y2847D01*
X51894Y3683D01*
X52297Y4656D01*
X52434Y5700D01*
Y10700D01*
X52297Y11744D01*
X51894Y12717D01*
X51253Y13553D01*
X50417Y14194D01*
X49444Y14597D01*
X48400Y14735D01*
X47356Y14597D01*
X46383Y14194D01*
X45547Y13553D01*
X44906Y12717D01*
X44503Y11744D01*
X44366Y10700D01*
Y5700D01*
X44503Y4656D01*
X44906Y3683D01*
X45547Y2847D01*
X46383Y2206D01*
X46585Y2122D01*
X46466Y1522D01*
X40334D01*
X40215Y2122D01*
X40417Y2206D01*
X41253Y2847D01*
X41894Y3683D01*
X42297Y4656D01*
X42434Y5700D01*
Y10700D01*
X42297Y11744D01*
X41894Y12717D01*
X41253Y13553D01*
X40417Y14194D01*
X39444Y14597D01*
X38400Y14735D01*
X37356Y14597D01*
X36383Y14194D01*
X35547Y13553D01*
X34906Y12717D01*
X34503Y11744D01*
X34365Y10700D01*
Y5700D01*
X34503Y4656D01*
X34906Y3683D01*
X35547Y2847D01*
X36383Y2206D01*
X36585Y2122D01*
X36466Y1522D01*
X30334D01*
X30215Y2122D01*
X30417Y2206D01*
X31253Y2847D01*
X31894Y3683D01*
X32297Y4656D01*
X32434Y5700D01*
Y10700D01*
X32297Y11744D01*
X31894Y12717D01*
X31253Y13553D01*
X30417Y14194D01*
X29444Y14597D01*
X28400Y14735D01*
X27356Y14597D01*
X26383Y14194D01*
X25547Y13553D01*
X24906Y12717D01*
X24503Y11744D01*
X24365Y10700D01*
Y5700D01*
X24503Y4656D01*
X24906Y3683D01*
X25547Y2847D01*
X26383Y2206D01*
X26585Y2122D01*
X26466Y1522D01*
X20334D01*
X20215Y2122D01*
X20417Y2206D01*
X21253Y2847D01*
X21894Y3683D01*
X22297Y4656D01*
X22434Y5700D01*
Y10700D01*
X22297Y11744D01*
X21894Y12717D01*
X21253Y13553D01*
X20417Y14194D01*
X19444Y14597D01*
X18400Y14735D01*
X17356Y14597D01*
X16383Y14194D01*
X15547Y13553D01*
X14906Y12717D01*
X14503Y11744D01*
X14366Y10700D01*
Y5700D01*
X14503Y4656D01*
X14906Y3683D01*
X15547Y2847D01*
X16383Y2206D01*
X16585Y2122D01*
X16466Y1522D01*
X12926D01*
X12400Y1700D01*
X12400Y2122D01*
Y14700D01*
X4400D01*
Y2122D01*
X3874Y1522D01*
X1529D01*
Y26731D01*
X2129Y26851D01*
X2406Y26183D01*
X3047Y25347D01*
X3883Y24706D01*
X4856Y24303D01*
X5900Y24166D01*
X7900D01*
Y28200D01*
Y32234D01*
X5900D01*
X4856Y32097D01*
X3883Y31694D01*
X3047Y31053D01*
X2406Y30217D01*
X2129Y29549D01*
X1529Y29669D01*
Y36731D01*
X2129Y36851D01*
X2406Y36183D01*
X3047Y35347D01*
X3883Y34706D01*
X4856Y34303D01*
X5900Y34165D01*
X10900D01*
X11944Y34303D01*
X12917Y34706D01*
X13753Y35347D01*
X14394Y36183D01*
X14797Y37156D01*
X14934Y38200D01*
X14797Y39244D01*
X14394Y40217D01*
X13753Y41053D01*
X12917Y41694D01*
X11944Y42097D01*
X10900Y42235D01*
X5900D01*
X4856Y42097D01*
X3883Y41694D01*
X3047Y41053D01*
X2406Y40217D01*
X2129Y39549D01*
X1529Y39669D01*
Y46731D01*
X2129Y46851D01*
X2406Y46183D01*
X3047Y45347D01*
X3883Y44706D01*
X4856Y44303D01*
X5900Y44166D01*
X10900D01*
X11944Y44303D01*
X12917Y44706D01*
X13753Y45347D01*
X14394Y46183D01*
X14797Y47156D01*
X14934Y48200D01*
X14797Y49244D01*
X14394Y50217D01*
X13753Y51053D01*
X12917Y51694D01*
X11944Y52097D01*
X10900Y52235D01*
X5900D01*
X4856Y52097D01*
X3883Y51694D01*
X3047Y51053D01*
X2406Y50217D01*
X2129Y49549D01*
X1529Y49669D01*
Y56731D01*
X2129Y56851D01*
X2406Y56183D01*
X3047Y55347D01*
X3883Y54706D01*
X4856Y54303D01*
X5900Y54166D01*
X10900D01*
X11944Y54303D01*
X12917Y54706D01*
X13753Y55347D01*
X14394Y56183D01*
X14797Y57156D01*
X14934Y58200D01*
X14797Y59244D01*
X14394Y60217D01*
X13753Y61053D01*
X12917Y61694D01*
X11944Y62097D01*
X10900Y62234D01*
X5900D01*
X4856Y62097D01*
X3883Y61694D01*
X3047Y61053D01*
X2406Y60217D01*
X2129Y59549D01*
X1529Y59669D01*
X1529Y66731D01*
X2129Y66851D01*
X2406Y66183D01*
X3047Y65347D01*
X3883Y64706D01*
X4856Y64303D01*
X5900Y64166D01*
X10900D01*
X11944Y64303D01*
X12917Y64706D01*
X13753Y65347D01*
X14394Y66183D01*
X14797Y67156D01*
X14934Y68200D01*
X14797Y69244D01*
X14394Y70217D01*
X13753Y71053D01*
X12917Y71694D01*
X11944Y72097D01*
X10900Y72234D01*
X5900D01*
X4856Y72097D01*
X3883Y71694D01*
X3047Y71053D01*
X2406Y70217D01*
X2129Y69549D01*
X1529Y69669D01*
Y76731D01*
X2129Y76851D01*
X2406Y76183D01*
X3047Y75347D01*
X3883Y74706D01*
X4856Y74303D01*
X5900Y74165D01*
X10900D01*
X11944Y74303D01*
X12917Y74706D01*
X13753Y75347D01*
X14394Y76183D01*
X14797Y77156D01*
X14934Y78200D01*
X14797Y79244D01*
X14394Y80217D01*
X13753Y81053D01*
X12917Y81694D01*
X11944Y82097D01*
X10900Y82235D01*
X5900D01*
X4856Y82097D01*
X3883Y81694D01*
X3047Y81053D01*
X2406Y80217D01*
X2129Y79549D01*
X1529Y79669D01*
Y86731D01*
X2129Y86851D01*
X2406Y86183D01*
X3047Y85347D01*
X3883Y84706D01*
X4856Y84303D01*
X5900Y84166D01*
X10900D01*
X11944Y84303D01*
X12917Y84706D01*
X13753Y85347D01*
X14394Y86183D01*
X14797Y87156D01*
X14934Y88200D01*
X14797Y89244D01*
X14394Y90217D01*
X13753Y91053D01*
X12917Y91694D01*
X11944Y92097D01*
X10900Y92234D01*
X5900D01*
X4856Y92097D01*
X3883Y91694D01*
X3047Y91053D01*
X2406Y90217D01*
X2129Y89549D01*
X1529Y89669D01*
Y96731D01*
X2129Y96851D01*
X2406Y96183D01*
X3047Y95347D01*
X3883Y94706D01*
X4856Y94303D01*
X5900Y94165D01*
X10900D01*
X11944Y94303D01*
X12917Y94706D01*
X13753Y95347D01*
X14394Y96183D01*
X14797Y97156D01*
X14934Y98200D01*
X14797Y99244D01*
X14394Y100217D01*
X13753Y101053D01*
X12917Y101694D01*
X11944Y102097D01*
X10900Y102234D01*
X5900D01*
X4856Y102097D01*
X3883Y101694D01*
X3047Y101053D01*
X2406Y100217D01*
X2129Y99549D01*
X1529Y99669D01*
Y106731D01*
X2129Y106851D01*
X2406Y106183D01*
X3047Y105347D01*
X3883Y104706D01*
X4856Y104303D01*
X5900Y104165D01*
X10900D01*
X11944Y104303D01*
X12917Y104706D01*
X13753Y105347D01*
X14394Y106183D01*
X14797Y107156D01*
X14934Y108200D01*
X14797Y109244D01*
X14394Y110217D01*
X13753Y111053D01*
X12917Y111694D01*
X11944Y112097D01*
X10900Y112234D01*
X5900D01*
X4856Y112097D01*
X3883Y111694D01*
X3047Y111053D01*
X2406Y110217D01*
X2129Y109549D01*
X1529Y109669D01*
Y116731D01*
X2129Y116851D01*
X2406Y116183D01*
X3047Y115347D01*
X3883Y114706D01*
X4856Y114303D01*
X5900Y114165D01*
X10900D01*
X11944Y114303D01*
X12917Y114706D01*
X13753Y115347D01*
X14394Y116183D01*
X14797Y117156D01*
X14934Y118200D01*
X14797Y119244D01*
X14394Y120217D01*
X13753Y121053D01*
X12917Y121694D01*
X11944Y122097D01*
X10900Y122234D01*
X5900D01*
X4856Y122097D01*
X3883Y121694D01*
X3047Y121053D01*
X2406Y120217D01*
X2129Y119549D01*
X1529Y119669D01*
Y126731D01*
X2129Y126851D01*
X2406Y126183D01*
X3047Y125347D01*
X3883Y124706D01*
X4856Y124303D01*
X5900Y124165D01*
X10900D01*
X11944Y124303D01*
X12917Y124706D01*
X13753Y125347D01*
X14394Y126183D01*
X14797Y127156D01*
X14934Y128200D01*
X14797Y129244D01*
X14394Y130217D01*
X13753Y131053D01*
X12917Y131694D01*
X11944Y132097D01*
X10900Y132235D01*
X5900D01*
X4856Y132097D01*
X3883Y131694D01*
X3047Y131053D01*
X2406Y130217D01*
X2129Y129549D01*
X1529Y129669D01*
Y136731D01*
X2129Y136851D01*
X2406Y136183D01*
X3047Y135347D01*
X3883Y134706D01*
X4856Y134303D01*
X5900Y134166D01*
X10900D01*
X11944Y134303D01*
X12917Y134706D01*
X13753Y135347D01*
X14394Y136183D01*
X14797Y137156D01*
X14934Y138200D01*
X14797Y139244D01*
X14394Y140217D01*
X13753Y141053D01*
X12917Y141694D01*
X11944Y142097D01*
X10900Y142235D01*
X5900D01*
X4856Y142097D01*
X3883Y141694D01*
X3047Y141053D01*
X2406Y140217D01*
X2129Y139549D01*
X1529Y139669D01*
Y146731D01*
X2129Y146851D01*
X2406Y146183D01*
X3047Y145347D01*
X3883Y144706D01*
X4856Y144303D01*
X5900Y144166D01*
X10900D01*
X11944Y144303D01*
X12917Y144706D01*
X13753Y145347D01*
X14394Y146183D01*
X14797Y147156D01*
X14934Y148200D01*
X14797Y149244D01*
X14394Y150217D01*
X13753Y151053D01*
X12917Y151694D01*
X11944Y152097D01*
X10900Y152234D01*
X5900D01*
X4856Y152097D01*
X3883Y151694D01*
X3047Y151053D01*
X2406Y150217D01*
X2129Y149549D01*
X1529Y149669D01*
Y156731D01*
X2129Y156851D01*
X2406Y156183D01*
X3047Y155347D01*
X3883Y154706D01*
X4856Y154303D01*
X5900Y154165D01*
X10900D01*
X11944Y154303D01*
X12917Y154706D01*
X13753Y155347D01*
X14394Y156183D01*
X14797Y157156D01*
X14934Y158200D01*
X14797Y159244D01*
X14394Y160217D01*
X13753Y161053D01*
X12917Y161694D01*
X11944Y162097D01*
X10900Y162234D01*
X5900D01*
X4856Y162097D01*
X3883Y161694D01*
X3047Y161053D01*
X2406Y160217D01*
X2129Y159549D01*
X1529Y159669D01*
Y166731D01*
X2129Y166851D01*
X2406Y166183D01*
X3047Y165347D01*
X3883Y164706D01*
X4856Y164303D01*
X5900Y164165D01*
X10900D01*
X11944Y164303D01*
X12917Y164706D01*
X13753Y165347D01*
X14394Y166183D01*
X14797Y167156D01*
X14934Y168200D01*
X14797Y169244D01*
X14394Y170217D01*
X13753Y171053D01*
X12917Y171694D01*
X11944Y172097D01*
X10900Y172234D01*
X5900D01*
X4856Y172097D01*
X3883Y171694D01*
X3047Y171053D01*
X2406Y170217D01*
X2129Y169549D01*
X1529Y169669D01*
Y176731D01*
X2129Y176851D01*
X2406Y176183D01*
X3047Y175347D01*
X3883Y174706D01*
X4856Y174303D01*
X5900Y174165D01*
X10900D01*
X11944Y174303D01*
X12917Y174706D01*
X13753Y175347D01*
X14394Y176183D01*
X14797Y177156D01*
X14934Y178200D01*
X14797Y179244D01*
X14394Y180217D01*
X13753Y181053D01*
X12917Y181694D01*
X11944Y182097D01*
X10900Y182235D01*
X5900D01*
X4856Y182097D01*
X3883Y181694D01*
X3047Y181053D01*
X2406Y180217D01*
X2129Y179549D01*
X1529Y179669D01*
Y186731D01*
X2129Y186851D01*
X2406Y186183D01*
X3047Y185347D01*
X3883Y184706D01*
X4856Y184303D01*
X5900Y184166D01*
X10900D01*
X11944Y184303D01*
X12917Y184706D01*
X13753Y185347D01*
X14394Y186183D01*
X14797Y187156D01*
X14934Y188200D01*
X14797Y189244D01*
X14394Y190217D01*
X13753Y191053D01*
X12917Y191694D01*
X11944Y192097D01*
X10900Y192235D01*
X5900D01*
X4856Y192097D01*
X3883Y191694D01*
X3047Y191053D01*
X2406Y190217D01*
X2129Y189549D01*
X1529Y189669D01*
X1529Y196731D01*
X2129Y196851D01*
X2406Y196183D01*
X3047Y195347D01*
X3883Y194706D01*
X4856Y194303D01*
X5900Y194166D01*
X10900D01*
X11944Y194303D01*
X12917Y194706D01*
X13753Y195347D01*
X14394Y196183D01*
X14797Y197156D01*
X14934Y198200D01*
X14797Y199244D01*
X14394Y200217D01*
X13753Y201053D01*
X12917Y201694D01*
X11944Y202097D01*
X10900Y202235D01*
X5900D01*
X4856Y202097D01*
X3883Y201694D01*
X3047Y201053D01*
X2406Y200217D01*
X2129Y199549D01*
X1529Y199669D01*
Y206731D01*
X2129Y206851D01*
X2406Y206183D01*
X3047Y205347D01*
X3883Y204706D01*
X4856Y204303D01*
X5900Y204166D01*
X10900D01*
X11944Y204303D01*
X12917Y204706D01*
X13753Y205347D01*
X14394Y206183D01*
X14797Y207156D01*
X14934Y208200D01*
X14797Y209244D01*
X14394Y210217D01*
X13753Y211053D01*
X12917Y211694D01*
X11944Y212097D01*
X10900Y212234D01*
X5900D01*
X4856Y212097D01*
X3883Y211694D01*
X3047Y211053D01*
X2406Y210217D01*
X2129Y209549D01*
X1529Y209669D01*
Y213754D01*
X1900Y214200D01*
X2129Y214200D01*
X14900D01*
Y222200D01*
X2129D01*
X1529Y222646D01*
Y252671D01*
X204871Y252671D01*
X204871Y222200D01*
D02*
G37*
%LPC*%
G36*
X178400Y251742D02*
X176282Y251575D01*
X174215Y251079D01*
X172252Y250266D01*
X170440Y249155D01*
X168825Y247776D01*
X167445Y246160D01*
X166334Y244348D01*
X165521Y242385D01*
X165025Y240318D01*
X164858Y238200D01*
X165025Y236082D01*
X165521Y234015D01*
X166334Y232052D01*
X167445Y230240D01*
X168825Y228625D01*
X170440Y227244D01*
X172252Y226134D01*
X174215Y225321D01*
X176282Y224825D01*
X178400Y224658D01*
X180518Y224825D01*
X182585Y225321D01*
X184548Y226134D01*
X186360Y227244D01*
X187976Y228625D01*
X189356Y230240D01*
X190466Y232052D01*
X191279Y234015D01*
X191775Y236082D01*
X191942Y238200D01*
X191775Y240318D01*
X191279Y242385D01*
X190466Y244348D01*
X189356Y246160D01*
X187976Y247776D01*
X186360Y249155D01*
X184548Y250266D01*
X182585Y251079D01*
X180518Y251575D01*
X178400Y251742D01*
D02*
G37*
G36*
X28400D02*
X26282Y251575D01*
X24215Y251079D01*
X22252Y250266D01*
X20440Y249155D01*
X18824Y247776D01*
X17445Y246160D01*
X16334Y244348D01*
X15521Y242385D01*
X15025Y240318D01*
X14858Y238200D01*
X15025Y236082D01*
X15521Y234015D01*
X16334Y232052D01*
X17445Y230240D01*
X18824Y228625D01*
X20440Y227244D01*
X22252Y226134D01*
X24215Y225321D01*
X26282Y224825D01*
X28400Y224658D01*
X30518Y224825D01*
X32585Y225321D01*
X34548Y226134D01*
X36360Y227244D01*
X37975Y228625D01*
X39355Y230240D01*
X40466Y232052D01*
X41279Y234015D01*
X41775Y236082D01*
X41942Y238200D01*
X41775Y240318D01*
X41279Y242385D01*
X40466Y244348D01*
X39355Y246160D01*
X37975Y247776D01*
X36360Y249155D01*
X34548Y250266D01*
X32585Y251079D01*
X30518Y251575D01*
X28400Y251742D01*
D02*
G37*
G36*
X188000Y214733D02*
X187337Y214601D01*
X186774Y214226D01*
X186399Y213663D01*
X186267Y213000D01*
X186399Y212337D01*
X186774Y211774D01*
X187337Y211399D01*
X188000Y211267D01*
X188663Y211399D01*
X189226Y211774D01*
X189601Y212337D01*
X189733Y213000D01*
X189601Y213663D01*
X189226Y214226D01*
X188663Y214601D01*
X188000Y214733D01*
D02*
G37*
G36*
X182000D02*
X181337Y214601D01*
X180774Y214226D01*
X180399Y213663D01*
X180267Y213000D01*
X180399Y212337D01*
X180774Y211774D01*
X181337Y211399D01*
X182000Y211267D01*
X182663Y211399D01*
X183226Y211774D01*
X183601Y212337D01*
X183733Y213000D01*
X183601Y213663D01*
X183226Y214226D01*
X182663Y214601D01*
X182000Y214733D01*
D02*
G37*
G36*
X176000D02*
X175337Y214601D01*
X174774Y214226D01*
X174399Y213663D01*
X174267Y213000D01*
X174399Y212337D01*
X174774Y211774D01*
X175337Y211399D01*
X176000Y211267D01*
X176663Y211399D01*
X177226Y211774D01*
X177601Y212337D01*
X177733Y213000D01*
X177601Y213663D01*
X177226Y214226D01*
X176663Y214601D01*
X176000Y214733D01*
D02*
G37*
G36*
X170000D02*
X169337Y214601D01*
X168774Y214226D01*
X168399Y213663D01*
X168267Y213000D01*
X168399Y212337D01*
X168774Y211774D01*
X169337Y211399D01*
X170000Y211267D01*
X170663Y211399D01*
X171226Y211774D01*
X171601Y212337D01*
X171733Y213000D01*
X171601Y213663D01*
X171226Y214226D01*
X170663Y214601D01*
X170000Y214733D01*
D02*
G37*
G36*
X165000Y211733D02*
X164337Y211601D01*
X163774Y211226D01*
X163399Y210663D01*
X163267Y210000D01*
X163399Y209337D01*
X163774Y208774D01*
X164337Y208399D01*
X165000Y208267D01*
X165663Y208399D01*
X166226Y208774D01*
X166601Y209337D01*
X166733Y210000D01*
X166601Y210663D01*
X166226Y211226D01*
X165663Y211601D01*
X165000Y211733D01*
D02*
G37*
G36*
X161000Y207733D02*
X160337Y207601D01*
X159774Y207226D01*
X159399Y206663D01*
X159267Y206000D01*
X159399Y205337D01*
X159774Y204774D01*
X160337Y204399D01*
X161000Y204267D01*
X161663Y204399D01*
X162226Y204774D01*
X162601Y205337D01*
X162733Y206000D01*
X162601Y206663D01*
X162226Y207226D01*
X161663Y207601D01*
X161000Y207733D01*
D02*
G37*
G36*
X188000Y204733D02*
X187337Y204601D01*
X186774Y204226D01*
X186399Y203663D01*
X186267Y203000D01*
X186399Y202337D01*
X186774Y201774D01*
X187337Y201399D01*
X188000Y201267D01*
X188663Y201399D01*
X189226Y201774D01*
X189601Y202337D01*
X189733Y203000D01*
X189601Y203663D01*
X189226Y204226D01*
X188663Y204601D01*
X188000Y204733D01*
D02*
G37*
G36*
X182000D02*
X181337Y204601D01*
X180774Y204226D01*
X180399Y203663D01*
X180267Y203000D01*
X180399Y202337D01*
X180774Y201774D01*
X181337Y201399D01*
X182000Y201267D01*
X182663Y201399D01*
X183226Y201774D01*
X183601Y202337D01*
X183733Y203000D01*
X183601Y203663D01*
X183226Y204226D01*
X182663Y204601D01*
X182000Y204733D01*
D02*
G37*
G36*
X176000D02*
X175337Y204601D01*
X174774Y204226D01*
X174399Y203663D01*
X174267Y203000D01*
X174399Y202337D01*
X174774Y201774D01*
X175337Y201399D01*
X176000Y201267D01*
X176663Y201399D01*
X177226Y201774D01*
X177601Y202337D01*
X177733Y203000D01*
X177601Y203663D01*
X177226Y204226D01*
X176663Y204601D01*
X176000Y204733D01*
D02*
G37*
G36*
X170000Y203733D02*
X169337Y203601D01*
X168774Y203226D01*
X168399Y202663D01*
X168267Y202000D01*
X168399Y201337D01*
X168774Y200774D01*
X169337Y200399D01*
X170000Y200267D01*
X170663Y200399D01*
X171226Y200774D01*
X171601Y201337D01*
X171733Y202000D01*
X171601Y202663D01*
X171226Y203226D01*
X170663Y203601D01*
X170000Y203733D01*
D02*
G37*
G36*
X157000D02*
X156337Y203601D01*
X155774Y203226D01*
X155399Y202663D01*
X155267Y202000D01*
X155399Y201337D01*
X155774Y200774D01*
X156337Y200399D01*
X157000Y200267D01*
X157663Y200399D01*
X158226Y200774D01*
X158601Y201337D01*
X158733Y202000D01*
X158601Y202663D01*
X158226Y203226D01*
X157663Y203601D01*
X157000Y203733D01*
D02*
G37*
G36*
X166000Y199733D02*
X165337Y199601D01*
X164774Y199226D01*
X164399Y198663D01*
X164267Y198000D01*
X164399Y197337D01*
X164774Y196774D01*
X165337Y196399D01*
X166000Y196267D01*
X166663Y196399D01*
X167226Y196774D01*
X167601Y197337D01*
X167733Y198000D01*
X167601Y198663D01*
X167226Y199226D01*
X166663Y199601D01*
X166000Y199733D01*
D02*
G37*
G36*
X153000D02*
X152337Y199601D01*
X151774Y199226D01*
X151399Y198663D01*
X151267Y198000D01*
X151399Y197337D01*
X151774Y196774D01*
X152337Y196399D01*
X153000Y196267D01*
X153663Y196399D01*
X154226Y196774D01*
X154601Y197337D01*
X154733Y198000D01*
X154601Y198663D01*
X154226Y199226D01*
X153663Y199601D01*
X153000Y199733D01*
D02*
G37*
G36*
X186000Y195733D02*
X185337Y195601D01*
X184774Y195226D01*
X184399Y194663D01*
X184267Y194000D01*
X184399Y193337D01*
X184774Y192774D01*
X185337Y192399D01*
X186000Y192267D01*
X186663Y192399D01*
X187226Y192774D01*
X187601Y193337D01*
X187733Y194000D01*
X187601Y194663D01*
X187226Y195226D01*
X186663Y195601D01*
X186000Y195733D01*
D02*
G37*
G36*
X180000D02*
X179337Y195601D01*
X178774Y195226D01*
X178399Y194663D01*
X178267Y194000D01*
X178399Y193337D01*
X178774Y192774D01*
X179337Y192399D01*
X180000Y192267D01*
X180663Y192399D01*
X181226Y192774D01*
X181601Y193337D01*
X181733Y194000D01*
X181601Y194663D01*
X181226Y195226D01*
X180663Y195601D01*
X180000Y195733D01*
D02*
G37*
G36*
X174000D02*
X173337Y195601D01*
X172774Y195226D01*
X172399Y194663D01*
X172267Y194000D01*
X172399Y193337D01*
X172774Y192774D01*
X173337Y192399D01*
X174000Y192267D01*
X174663Y192399D01*
X175226Y192774D01*
X175601Y193337D01*
X175733Y194000D01*
X175601Y194663D01*
X175226Y195226D01*
X174663Y195601D01*
X174000Y195733D01*
D02*
G37*
G36*
X162000D02*
X161337Y195601D01*
X160774Y195226D01*
X160399Y194663D01*
X160267Y194000D01*
X160399Y193337D01*
X160774Y192774D01*
X161337Y192399D01*
X162000Y192267D01*
X162663Y192399D01*
X163226Y192774D01*
X163601Y193337D01*
X163733Y194000D01*
X163601Y194663D01*
X163226Y195226D01*
X162663Y195601D01*
X162000Y195733D01*
D02*
G37*
G36*
X149000D02*
X148337Y195601D01*
X147774Y195226D01*
X147399Y194663D01*
X147267Y194000D01*
X147399Y193337D01*
X147774Y192774D01*
X148337Y192399D01*
X149000Y192267D01*
X149663Y192399D01*
X150226Y192774D01*
X150601Y193337D01*
X150733Y194000D01*
X150601Y194663D01*
X150226Y195226D01*
X149663Y195601D01*
X149000Y195733D01*
D02*
G37*
G36*
X170000Y191733D02*
X169337Y191601D01*
X168774Y191226D01*
X168399Y190663D01*
X168267Y190000D01*
X168399Y189337D01*
X168774Y188774D01*
X169337Y188399D01*
X170000Y188267D01*
X170663Y188399D01*
X171226Y188774D01*
X171601Y189337D01*
X171733Y190000D01*
X171601Y190663D01*
X171226Y191226D01*
X170663Y191601D01*
X170000Y191733D01*
D02*
G37*
G36*
X158000D02*
X157337Y191601D01*
X156774Y191226D01*
X156399Y190663D01*
X156267Y190000D01*
X156399Y189337D01*
X156774Y188774D01*
X157337Y188399D01*
X158000Y188267D01*
X158663Y188399D01*
X159226Y188774D01*
X159601Y189337D01*
X159733Y190000D01*
X159601Y190663D01*
X159226Y191226D01*
X158663Y191601D01*
X158000Y191733D01*
D02*
G37*
G36*
X145000D02*
X144337Y191601D01*
X143774Y191226D01*
X143399Y190663D01*
X143267Y190000D01*
X143399Y189337D01*
X143774Y188774D01*
X144337Y188399D01*
X145000Y188267D01*
X145663Y188399D01*
X146226Y188774D01*
X146601Y189337D01*
X146733Y190000D01*
X146601Y190663D01*
X146226Y191226D01*
X145663Y191601D01*
X145000Y191733D01*
D02*
G37*
G36*
X166000Y187733D02*
X165337Y187601D01*
X164774Y187226D01*
X164399Y186663D01*
X164267Y186000D01*
X164399Y185337D01*
X164774Y184774D01*
X165337Y184399D01*
X166000Y184267D01*
X166663Y184399D01*
X167226Y184774D01*
X167601Y185337D01*
X167733Y186000D01*
X167601Y186663D01*
X167226Y187226D01*
X166663Y187601D01*
X166000Y187733D01*
D02*
G37*
G36*
X154000D02*
X153337Y187601D01*
X152774Y187226D01*
X152399Y186663D01*
X152267Y186000D01*
X152399Y185337D01*
X152774Y184774D01*
X153337Y184399D01*
X154000Y184267D01*
X154663Y184399D01*
X155226Y184774D01*
X155601Y185337D01*
X155733Y186000D01*
X155601Y186663D01*
X155226Y187226D01*
X154663Y187601D01*
X154000Y187733D01*
D02*
G37*
G36*
X141000D02*
X140337Y187601D01*
X139774Y187226D01*
X139399Y186663D01*
X139267Y186000D01*
X139399Y185337D01*
X139774Y184774D01*
X140337Y184399D01*
X141000Y184267D01*
X141663Y184399D01*
X142226Y184774D01*
X142601Y185337D01*
X142733Y186000D01*
X142601Y186663D01*
X142226Y187226D01*
X141663Y187601D01*
X141000Y187733D01*
D02*
G37*
G36*
X162000Y183733D02*
X161337Y183601D01*
X160774Y183226D01*
X160399Y182663D01*
X160267Y182000D01*
X160399Y181337D01*
X160774Y180774D01*
X161337Y180399D01*
X162000Y180267D01*
X162663Y180399D01*
X163226Y180774D01*
X163601Y181337D01*
X163733Y182000D01*
X163601Y182663D01*
X163226Y183226D01*
X162663Y183601D01*
X162000Y183733D01*
D02*
G37*
G36*
X150000D02*
X149337Y183601D01*
X148774Y183226D01*
X148399Y182663D01*
X148267Y182000D01*
X148399Y181337D01*
X148774Y180774D01*
X149337Y180399D01*
X150000Y180267D01*
X150663Y180399D01*
X151226Y180774D01*
X151601Y181337D01*
X151733Y182000D01*
X151601Y182663D01*
X151226Y183226D01*
X150663Y183601D01*
X150000Y183733D01*
D02*
G37*
G36*
X137000D02*
X136337Y183601D01*
X135774Y183226D01*
X135399Y182663D01*
X135267Y182000D01*
X135399Y181337D01*
X135774Y180774D01*
X136337Y180399D01*
X137000Y180267D01*
X137663Y180399D01*
X138226Y180774D01*
X138601Y181337D01*
X138733Y182000D01*
X138601Y182663D01*
X138226Y183226D01*
X137663Y183601D01*
X137000Y183733D01*
D02*
G37*
G36*
X158000Y179733D02*
X157337Y179601D01*
X156774Y179226D01*
X156399Y178663D01*
X156267Y178000D01*
X156399Y177337D01*
X156774Y176774D01*
X157337Y176399D01*
X158000Y176267D01*
X158663Y176399D01*
X159226Y176774D01*
X159601Y177337D01*
X159733Y178000D01*
X159601Y178663D01*
X159226Y179226D01*
X158663Y179601D01*
X158000Y179733D01*
D02*
G37*
G36*
X146000D02*
X145337Y179601D01*
X144774Y179226D01*
X144399Y178663D01*
X144267Y178000D01*
X144399Y177337D01*
X144774Y176774D01*
X145337Y176399D01*
X146000Y176267D01*
X146663Y176399D01*
X147226Y176774D01*
X147601Y177337D01*
X147733Y178000D01*
X147601Y178663D01*
X147226Y179226D01*
X146663Y179601D01*
X146000Y179733D01*
D02*
G37*
G36*
X133000D02*
X132337Y179601D01*
X131774Y179226D01*
X131399Y178663D01*
X131267Y178000D01*
X131399Y177337D01*
X131774Y176774D01*
X132337Y176399D01*
X133000Y176267D01*
X133663Y176399D01*
X134226Y176774D01*
X134601Y177337D01*
X134733Y178000D01*
X134601Y178663D01*
X134226Y179226D01*
X133663Y179601D01*
X133000Y179733D01*
D02*
G37*
G36*
X154000Y175733D02*
X153337Y175601D01*
X152774Y175226D01*
X152399Y174663D01*
X152267Y174000D01*
X152399Y173337D01*
X152774Y172774D01*
X153337Y172399D01*
X154000Y172267D01*
X154663Y172399D01*
X155226Y172774D01*
X155601Y173337D01*
X155733Y174000D01*
X155601Y174663D01*
X155226Y175226D01*
X154663Y175601D01*
X154000Y175733D01*
D02*
G37*
G36*
X142000D02*
X141337Y175601D01*
X140774Y175226D01*
X140399Y174663D01*
X140267Y174000D01*
X140399Y173337D01*
X140774Y172774D01*
X141337Y172399D01*
X142000Y172267D01*
X142663Y172399D01*
X143226Y172774D01*
X143601Y173337D01*
X143733Y174000D01*
X143601Y174663D01*
X143226Y175226D01*
X142663Y175601D01*
X142000Y175733D01*
D02*
G37*
G36*
X129000D02*
X128337Y175601D01*
X127774Y175226D01*
X127399Y174663D01*
X127267Y174000D01*
X127399Y173337D01*
X127774Y172774D01*
X128337Y172399D01*
X129000Y172267D01*
X129663Y172399D01*
X130226Y172774D01*
X130601Y173337D01*
X130733Y174000D01*
X130601Y174663D01*
X130226Y175226D01*
X129663Y175601D01*
X129000Y175733D01*
D02*
G37*
G36*
X150000Y171733D02*
X149337Y171601D01*
X148774Y171226D01*
X148399Y170663D01*
X148267Y170000D01*
X148399Y169337D01*
X148774Y168774D01*
X149337Y168399D01*
X150000Y168267D01*
X150663Y168399D01*
X151226Y168774D01*
X151601Y169337D01*
X151733Y170000D01*
X151601Y170663D01*
X151226Y171226D01*
X150663Y171601D01*
X150000Y171733D01*
D02*
G37*
G36*
X138000D02*
X137337Y171601D01*
X136774Y171226D01*
X136399Y170663D01*
X136267Y170000D01*
X136399Y169337D01*
X136774Y168774D01*
X137337Y168399D01*
X138000Y168267D01*
X138663Y168399D01*
X139226Y168774D01*
X139601Y169337D01*
X139733Y170000D01*
X139601Y170663D01*
X139226Y171226D01*
X138663Y171601D01*
X138000Y171733D01*
D02*
G37*
G36*
X125000D02*
X124337Y171601D01*
X123774Y171226D01*
X123399Y170663D01*
X123267Y170000D01*
X123399Y169337D01*
X123774Y168774D01*
X124337Y168399D01*
X125000Y168267D01*
X125663Y168399D01*
X126226Y168774D01*
X126601Y169337D01*
X126733Y170000D01*
X126601Y170663D01*
X126226Y171226D01*
X125663Y171601D01*
X125000Y171733D01*
D02*
G37*
G36*
X146000Y167733D02*
X145337Y167601D01*
X144774Y167226D01*
X144399Y166663D01*
X144267Y166000D01*
X144399Y165337D01*
X144774Y164774D01*
X145337Y164399D01*
X146000Y164267D01*
X146663Y164399D01*
X147226Y164774D01*
X147601Y165337D01*
X147733Y166000D01*
X147601Y166663D01*
X147226Y167226D01*
X146663Y167601D01*
X146000Y167733D01*
D02*
G37*
G36*
X134000D02*
X133337Y167601D01*
X132774Y167226D01*
X132399Y166663D01*
X132267Y166000D01*
X132399Y165337D01*
X132774Y164774D01*
X133337Y164399D01*
X134000Y164267D01*
X134663Y164399D01*
X135226Y164774D01*
X135601Y165337D01*
X135733Y166000D01*
X135601Y166663D01*
X135226Y167226D01*
X134663Y167601D01*
X134000Y167733D01*
D02*
G37*
G36*
X121000D02*
X120337Y167601D01*
X119774Y167226D01*
X119399Y166663D01*
X119267Y166000D01*
X119399Y165337D01*
X119774Y164774D01*
X120337Y164399D01*
X121000Y164267D01*
X121663Y164399D01*
X122226Y164774D01*
X122601Y165337D01*
X122733Y166000D01*
X122601Y166663D01*
X122226Y167226D01*
X121663Y167601D01*
X121000Y167733D01*
D02*
G37*
G36*
X142000Y163733D02*
X141337Y163601D01*
X140774Y163226D01*
X140399Y162663D01*
X140267Y162000D01*
X140399Y161337D01*
X140774Y160774D01*
X141337Y160399D01*
X142000Y160267D01*
X142663Y160399D01*
X143226Y160774D01*
X143601Y161337D01*
X143733Y162000D01*
X143601Y162663D01*
X143226Y163226D01*
X142663Y163601D01*
X142000Y163733D01*
D02*
G37*
G36*
X130000D02*
X129337Y163601D01*
X128774Y163226D01*
X128399Y162663D01*
X128267Y162000D01*
X128399Y161337D01*
X128774Y160774D01*
X129337Y160399D01*
X130000Y160267D01*
X130663Y160399D01*
X131226Y160774D01*
X131601Y161337D01*
X131733Y162000D01*
X131601Y162663D01*
X131226Y163226D01*
X130663Y163601D01*
X130000Y163733D01*
D02*
G37*
G36*
X117000D02*
X116337Y163601D01*
X115774Y163226D01*
X115399Y162663D01*
X115267Y162000D01*
X115399Y161337D01*
X115774Y160774D01*
X116337Y160399D01*
X117000Y160267D01*
X117663Y160399D01*
X118226Y160774D01*
X118601Y161337D01*
X118733Y162000D01*
X118601Y162663D01*
X118226Y163226D01*
X117663Y163601D01*
X117000Y163733D01*
D02*
G37*
G36*
X138000Y159733D02*
X137337Y159601D01*
X136774Y159226D01*
X136399Y158663D01*
X136267Y158000D01*
X136399Y157337D01*
X136774Y156774D01*
X137337Y156399D01*
X138000Y156267D01*
X138663Y156399D01*
X139226Y156774D01*
X139601Y157337D01*
X139733Y158000D01*
X139601Y158663D01*
X139226Y159226D01*
X138663Y159601D01*
X138000Y159733D01*
D02*
G37*
G36*
X126000D02*
X125337Y159601D01*
X124774Y159226D01*
X124399Y158663D01*
X124267Y158000D01*
X124399Y157337D01*
X124774Y156774D01*
X125337Y156399D01*
X126000Y156267D01*
X126663Y156399D01*
X127226Y156774D01*
X127601Y157337D01*
X127733Y158000D01*
X127601Y158663D01*
X127226Y159226D01*
X126663Y159601D01*
X126000Y159733D01*
D02*
G37*
G36*
X113000D02*
X112337Y159601D01*
X111774Y159226D01*
X111399Y158663D01*
X111267Y158000D01*
X111399Y157337D01*
X111774Y156774D01*
X112337Y156399D01*
X113000Y156267D01*
X113663Y156399D01*
X114226Y156774D01*
X114601Y157337D01*
X114733Y158000D01*
X114601Y158663D01*
X114226Y159226D01*
X113663Y159601D01*
X113000Y159733D01*
D02*
G37*
G36*
X177500Y159421D02*
Y156000D01*
X180921D01*
X180851Y156532D01*
X180453Y157493D01*
X179819Y158319D01*
X178993Y158953D01*
X178032Y159351D01*
X177500Y159421D01*
D02*
G37*
G36*
X176500D02*
X175968Y159351D01*
X175007Y158953D01*
X174181Y158319D01*
X173547Y157493D01*
X173149Y156532D01*
X173079Y156000D01*
X176500D01*
Y159421D01*
D02*
G37*
G36*
X84500Y159233D02*
X83837Y159101D01*
X83274Y158726D01*
X82899Y158163D01*
X82767Y157500D01*
X82899Y156837D01*
X83274Y156274D01*
X83837Y155899D01*
X84500Y155767D01*
X85163Y155899D01*
X85726Y156274D01*
X86101Y156837D01*
X86233Y157500D01*
X86101Y158163D01*
X85726Y158726D01*
X85163Y159101D01*
X84500Y159233D01*
D02*
G37*
G36*
X134000Y155733D02*
X133337Y155601D01*
X132774Y155226D01*
X132399Y154663D01*
X132267Y154000D01*
X132399Y153337D01*
X132774Y152774D01*
X133337Y152399D01*
X134000Y152267D01*
X134663Y152399D01*
X135226Y152774D01*
X135601Y153337D01*
X135733Y154000D01*
X135601Y154663D01*
X135226Y155226D01*
X134663Y155601D01*
X134000Y155733D01*
D02*
G37*
G36*
X122000D02*
X121337Y155601D01*
X120774Y155226D01*
X120399Y154663D01*
X120267Y154000D01*
X120399Y153337D01*
X120774Y152774D01*
X121337Y152399D01*
X122000Y152267D01*
X122663Y152399D01*
X123226Y152774D01*
X123601Y153337D01*
X123733Y154000D01*
X123601Y154663D01*
X123226Y155226D01*
X122663Y155601D01*
X122000Y155733D01*
D02*
G37*
G36*
X180921Y155000D02*
X177500D01*
Y151579D01*
X178032Y151649D01*
X178993Y152047D01*
X179819Y152681D01*
X180453Y153507D01*
X180851Y154468D01*
X180921Y155000D01*
D02*
G37*
G36*
X176500D02*
X173079D01*
X173149Y154468D01*
X173547Y153507D01*
X174181Y152681D01*
X175007Y152047D01*
X175968Y151649D01*
X176500Y151579D01*
Y155000D01*
D02*
G37*
G36*
X27500Y154833D02*
X26837Y154701D01*
X26274Y154326D01*
X25899Y153763D01*
X25767Y153100D01*
X25899Y152437D01*
X26274Y151874D01*
X26837Y151499D01*
X27500Y151367D01*
X28163Y151499D01*
X28726Y151874D01*
X29101Y152437D01*
X29233Y153100D01*
X29101Y153763D01*
X28726Y154326D01*
X28163Y154701D01*
X27500Y154833D01*
D02*
G37*
G36*
X68600Y154733D02*
X67937Y154601D01*
X67374Y154226D01*
X66999Y153663D01*
X66867Y153000D01*
X66999Y152337D01*
X67374Y151774D01*
X67937Y151399D01*
X68600Y151267D01*
X69263Y151399D01*
X69826Y151774D01*
X70201Y152337D01*
X70333Y153000D01*
X70201Y153663D01*
X69826Y154226D01*
X69263Y154601D01*
X68600Y154733D01*
D02*
G37*
G36*
X111500Y154233D02*
X110837Y154101D01*
X110274Y153726D01*
X109899Y153163D01*
X109767Y152500D01*
X109899Y151837D01*
X110274Y151274D01*
X110837Y150899D01*
X111500Y150767D01*
X112163Y150899D01*
X112726Y151274D01*
X113101Y151837D01*
X113233Y152500D01*
X113101Y153163D01*
X112726Y153726D01*
X112163Y154101D01*
X111500Y154233D01*
D02*
G37*
G36*
X197900Y152234D02*
X195900D01*
X194856Y152097D01*
X193883Y151694D01*
X193047Y151053D01*
X192406Y150217D01*
X192003Y149244D01*
X191931Y148700D01*
X197900D01*
Y152234D01*
D02*
G37*
G36*
X130000Y151733D02*
X129337Y151601D01*
X128774Y151226D01*
X128399Y150663D01*
X128267Y150000D01*
X128399Y149337D01*
X128774Y148774D01*
X129337Y148399D01*
X130000Y148267D01*
X130663Y148399D01*
X131226Y148774D01*
X131601Y149337D01*
X131733Y150000D01*
X131601Y150663D01*
X131226Y151226D01*
X130663Y151601D01*
X130000Y151733D01*
D02*
G37*
G36*
X111500Y148733D02*
X110837Y148601D01*
X110274Y148226D01*
X109899Y147663D01*
X109767Y147000D01*
X109899Y146337D01*
X110274Y145774D01*
X110837Y145399D01*
X111500Y145267D01*
X112163Y145399D01*
X112726Y145774D01*
X113101Y146337D01*
X113233Y147000D01*
X113101Y147663D01*
X112726Y148226D01*
X112163Y148601D01*
X111500Y148733D01*
D02*
G37*
G36*
X126000Y147733D02*
X125337Y147601D01*
X124774Y147226D01*
X124399Y146663D01*
X124267Y146000D01*
X124399Y145337D01*
X124774Y144774D01*
X125337Y144399D01*
X126000Y144267D01*
X126663Y144399D01*
X127226Y144774D01*
X127601Y145337D01*
X127733Y146000D01*
X127601Y146663D01*
X127226Y147226D01*
X126663Y147601D01*
X126000Y147733D01*
D02*
G37*
G36*
X197900Y147700D02*
X191931D01*
X192003Y147156D01*
X192406Y146183D01*
X193047Y145347D01*
X193883Y144706D01*
X194856Y144303D01*
X195900Y144166D01*
X197900D01*
Y147700D01*
D02*
G37*
G36*
X177000Y149487D02*
X175968Y149351D01*
X175007Y148953D01*
X174181Y148319D01*
X173547Y147493D01*
X173149Y146532D01*
X173013Y145500D01*
X173149Y144468D01*
X173547Y143507D01*
X174181Y142681D01*
X175007Y142047D01*
X175968Y141649D01*
X177000Y141513D01*
X178032Y141649D01*
X178993Y142047D01*
X179819Y142681D01*
X180453Y143507D01*
X180851Y144468D01*
X180987Y145500D01*
X180851Y146532D01*
X180453Y147493D01*
X179819Y148319D01*
X178993Y148953D01*
X178032Y149351D01*
X177000Y149487D01*
D02*
G37*
G36*
X63756Y142489D02*
X63093Y142357D01*
X62530Y141981D01*
X62155Y141419D01*
X62023Y140756D01*
X62155Y140093D01*
X62530Y139530D01*
X63093Y139155D01*
X63756Y139023D01*
X64419Y139155D01*
X64982Y139530D01*
X65357Y140093D01*
X65489Y140756D01*
X65357Y141419D01*
X64982Y141981D01*
X64419Y142357D01*
X63756Y142489D01*
D02*
G37*
G36*
X33244D02*
X32581Y142357D01*
X32019Y141981D01*
X31643Y141419D01*
X31511Y140756D01*
X31643Y140093D01*
X32019Y139530D01*
X32581Y139155D01*
X33244Y139023D01*
X33907Y139155D01*
X34470Y139530D01*
X34846Y140093D01*
X34977Y140756D01*
X34846Y141419D01*
X34470Y141981D01*
X33907Y142357D01*
X33244Y142489D01*
D02*
G37*
G36*
X133400Y142033D02*
X132737Y141901D01*
X132174Y141526D01*
X131799Y140963D01*
X131667Y140300D01*
X131799Y139637D01*
X132174Y139074D01*
X132737Y138699D01*
X133400Y138567D01*
X134063Y138699D01*
X134626Y139074D01*
X135001Y139637D01*
X135133Y140300D01*
X135001Y140963D01*
X134626Y141526D01*
X134063Y141901D01*
X133400Y142033D01*
D02*
G37*
G36*
X106900D02*
X106237Y141901D01*
X105674Y141526D01*
X105299Y140963D01*
X105167Y140300D01*
X105299Y139637D01*
X105674Y139074D01*
X106237Y138699D01*
X106900Y138567D01*
X107563Y138699D01*
X108126Y139074D01*
X108501Y139637D01*
X108633Y140300D01*
X108501Y140963D01*
X108126Y141526D01*
X107563Y141901D01*
X106900Y142033D01*
D02*
G37*
G36*
X49000Y138733D02*
X48337Y138601D01*
X47774Y138226D01*
X47399Y137663D01*
X47267Y137000D01*
X47399Y136337D01*
X47774Y135774D01*
X48337Y135399D01*
X49000Y135267D01*
X49663Y135399D01*
X50226Y135774D01*
X50601Y136337D01*
X50733Y137000D01*
X50601Y137663D01*
X50226Y138226D01*
X49663Y138601D01*
X49000Y138733D01*
D02*
G37*
G36*
X83500Y135913D02*
X82837Y135781D01*
X82274Y135405D01*
X81899Y134843D01*
X81767Y134179D01*
X81899Y133516D01*
X82274Y132954D01*
X82837Y132578D01*
X83500Y132446D01*
X84163Y132578D01*
X84726Y132954D01*
X85101Y133516D01*
X85233Y134179D01*
X85101Y134843D01*
X84726Y135405D01*
X84163Y135781D01*
X83500Y135913D01*
D02*
G37*
G36*
X126500Y131233D02*
X125837Y131101D01*
X125274Y130726D01*
X124899Y130163D01*
X124767Y129500D01*
X124899Y128837D01*
X125274Y128274D01*
X125837Y127899D01*
X126500Y127767D01*
X127163Y127899D01*
X127726Y128274D01*
X128101Y128837D01*
X128233Y129500D01*
X128101Y130163D01*
X127726Y130726D01*
X127163Y131101D01*
X126500Y131233D01*
D02*
G37*
G36*
X105500Y129733D02*
X104837Y129601D01*
X104274Y129226D01*
X103899Y128663D01*
X103767Y128000D01*
X103899Y127337D01*
X104274Y126774D01*
X104837Y126399D01*
X105500Y126267D01*
X106163Y126399D01*
X106726Y126774D01*
X107101Y127337D01*
X107233Y128000D01*
X107101Y128663D01*
X106726Y129226D01*
X106163Y129601D01*
X105500Y129733D01*
D02*
G37*
G36*
X83500Y128913D02*
X82837Y128781D01*
X82274Y128405D01*
X81899Y127843D01*
X81767Y127180D01*
X81899Y126516D01*
X82274Y125954D01*
X82837Y125578D01*
X83500Y125446D01*
X84163Y125578D01*
X84726Y125954D01*
X85101Y126516D01*
X85233Y127180D01*
X85101Y127843D01*
X84726Y128405D01*
X84163Y128781D01*
X83500Y128913D01*
D02*
G37*
G36*
X152800Y126233D02*
X152137Y126101D01*
X151574Y125726D01*
X151199Y125163D01*
X151067Y124500D01*
X151199Y123837D01*
X151574Y123274D01*
X152137Y122899D01*
X152800Y122767D01*
X153463Y122899D01*
X154026Y123274D01*
X154401Y123837D01*
X154533Y124500D01*
X154401Y125163D01*
X154026Y125726D01*
X153463Y126101D01*
X152800Y126233D01*
D02*
G37*
G36*
X23000Y125233D02*
X22337Y125101D01*
X21774Y124726D01*
X21399Y124163D01*
X21267Y123500D01*
X21399Y122837D01*
X21774Y122274D01*
X22337Y121899D01*
X23000Y121767D01*
X23663Y121899D01*
X24226Y122274D01*
X24601Y122837D01*
X24733Y123500D01*
X24601Y124163D01*
X24226Y124726D01*
X23663Y125101D01*
X23000Y125233D01*
D02*
G37*
G36*
X102500Y121913D02*
X101837Y121781D01*
X101274Y121405D01*
X100899Y120843D01*
X100767Y120179D01*
X100899Y119516D01*
X101274Y118954D01*
X101837Y118578D01*
X102500Y118446D01*
X103163Y118578D01*
X103726Y118954D01*
X104101Y119516D01*
X104233Y120179D01*
X104101Y120843D01*
X103726Y121405D01*
X103163Y121781D01*
X102500Y121913D01*
D02*
G37*
G36*
X72000Y120733D02*
X71337Y120601D01*
X70774Y120226D01*
X70399Y119663D01*
X70267Y119000D01*
X70399Y118337D01*
X70774Y117774D01*
X71337Y117399D01*
X72000Y117267D01*
X72663Y117399D01*
X73226Y117774D01*
X73601Y118337D01*
X73733Y119000D01*
X73601Y119663D01*
X73226Y120226D01*
X72663Y120601D01*
X72000Y120733D01*
D02*
G37*
G36*
X140500Y120233D02*
X139837Y120101D01*
X139274Y119726D01*
X138899Y119163D01*
X138767Y118500D01*
X138899Y117837D01*
X139274Y117274D01*
X139837Y116899D01*
X140500Y116767D01*
X141163Y116899D01*
X141726Y117274D01*
X142101Y117837D01*
X142233Y118500D01*
X142101Y119163D01*
X141726Y119726D01*
X141163Y120101D01*
X140500Y120233D01*
D02*
G37*
G36*
X116500Y119733D02*
X115837Y119601D01*
X115274Y119226D01*
X114899Y118663D01*
X114767Y118000D01*
X114899Y117337D01*
X115274Y116774D01*
X115837Y116399D01*
X116500Y116267D01*
X117163Y116399D01*
X117726Y116774D01*
X118101Y117337D01*
X118233Y118000D01*
X118101Y118663D01*
X117726Y119226D01*
X117163Y119601D01*
X116500Y119733D01*
D02*
G37*
G36*
X145000Y119233D02*
X144337Y119101D01*
X143774Y118726D01*
X143399Y118163D01*
X143267Y117500D01*
X143399Y116837D01*
X143774Y116274D01*
X144337Y115899D01*
X145000Y115767D01*
X145663Y115899D01*
X146226Y116274D01*
X146601Y116837D01*
X146733Y117500D01*
X146601Y118163D01*
X146226Y118726D01*
X145663Y119101D01*
X145000Y119233D01*
D02*
G37*
G36*
X129500Y117733D02*
X128837Y117601D01*
X128274Y117226D01*
X127899Y116663D01*
X127767Y116000D01*
X127899Y115337D01*
X128274Y114774D01*
X128837Y114399D01*
X129500Y114267D01*
X130163Y114399D01*
X130726Y114774D01*
X131101Y115337D01*
X131233Y116000D01*
X131101Y116663D01*
X130726Y117226D01*
X130163Y117601D01*
X129500Y117733D01*
D02*
G37*
G36*
X178512Y114722D02*
X177848Y114590D01*
X177286Y114214D01*
X176910Y113652D01*
X176778Y112988D01*
X176910Y112325D01*
X177286Y111763D01*
X177848Y111387D01*
X178512Y111255D01*
X179175Y111387D01*
X179737Y111763D01*
X180113Y112325D01*
X180245Y112988D01*
X180113Y113652D01*
X179737Y114214D01*
X179175Y114590D01*
X178512Y114722D01*
D02*
G37*
G36*
X123000Y115000D02*
X120000D01*
Y107043D01*
X119400Y106654D01*
X119000Y106733D01*
X118754Y106684D01*
X118243Y107195D01*
X118292Y107441D01*
X118160Y108104D01*
X117785Y108667D01*
X117222Y109042D01*
X116559Y109174D01*
X115896Y109042D01*
X115333Y108667D01*
X114958Y108104D01*
X114826Y107441D01*
X114958Y106778D01*
X115333Y106215D01*
X115896Y105840D01*
X116559Y105708D01*
X116805Y105757D01*
X117316Y105246D01*
X117267Y105000D01*
X117399Y104337D01*
X117774Y103774D01*
X118337Y103399D01*
X119000Y103267D01*
X119400Y103346D01*
X120000Y102957D01*
Y92500D01*
X123000D01*
Y108236D01*
X123600Y108557D01*
X123837Y108399D01*
X124500Y108267D01*
X125163Y108399D01*
X125726Y108774D01*
X126101Y109337D01*
X126233Y110000D01*
X126101Y110663D01*
X125726Y111226D01*
X125163Y111601D01*
X124500Y111733D01*
X123837Y111601D01*
X123600Y111443D01*
X123000Y111764D01*
Y115000D01*
D02*
G37*
G36*
X129828Y109541D02*
X129165Y109409D01*
X128603Y109034D01*
X128227Y108471D01*
X128095Y107808D01*
X128227Y107145D01*
X128397Y106889D01*
X128466Y106786D01*
X128034Y106354D01*
X127929Y106424D01*
X127663Y106601D01*
X127000Y106733D01*
X126337Y106601D01*
X125774Y106226D01*
X125399Y105663D01*
X125267Y105000D01*
X125399Y104337D01*
X125774Y103774D01*
X126337Y103399D01*
X127000Y103267D01*
X127663Y103399D01*
X128226Y103774D01*
X128601Y104337D01*
X128733Y105000D01*
X128601Y105663D01*
X128431Y105918D01*
X128362Y106021D01*
X128795Y106454D01*
X128900Y106384D01*
X129165Y106207D01*
X129828Y106075D01*
X130492Y106207D01*
X131054Y106582D01*
X131430Y107145D01*
X131562Y107808D01*
X131430Y108471D01*
X131054Y109034D01*
X130492Y109409D01*
X129828Y109541D01*
D02*
G37*
G36*
X108000Y109733D02*
X107337Y109601D01*
X106774Y109226D01*
X106399Y108663D01*
X106267Y108000D01*
X106399Y107337D01*
X106774Y106774D01*
X107337Y106399D01*
X108000Y106267D01*
X108663Y106399D01*
X109226Y106774D01*
X109601Y107337D01*
X109733Y108000D01*
X109601Y108663D01*
X109226Y109226D01*
X108663Y109601D01*
X108000Y109733D01*
D02*
G37*
G36*
X136941Y109174D02*
X136278Y109042D01*
X135715Y108667D01*
X135340Y108104D01*
X135208Y107441D01*
X135340Y106778D01*
X135715Y106215D01*
X136278Y105840D01*
X136941Y105708D01*
X137604Y105840D01*
X138167Y106215D01*
X138542Y106778D01*
X138674Y107441D01*
X138542Y108104D01*
X138167Y108667D01*
X137604Y109042D01*
X136941Y109174D01*
D02*
G37*
G36*
X88500Y108413D02*
X87837Y108281D01*
X87274Y107905D01*
X86899Y107343D01*
X86767Y106679D01*
X86899Y106016D01*
X87274Y105454D01*
X87837Y105078D01*
X88500Y104946D01*
X89163Y105078D01*
X89726Y105454D01*
X90101Y106016D01*
X90233Y106679D01*
X90101Y107343D01*
X89726Y107905D01*
X89163Y108281D01*
X88500Y108413D01*
D02*
G37*
G36*
X33180Y107913D02*
X32516Y107781D01*
X31954Y107405D01*
X31578Y106843D01*
X31446Y106179D01*
X31578Y105516D01*
X31954Y104954D01*
X32516Y104578D01*
X33180Y104446D01*
X33843Y104578D01*
X34405Y104954D01*
X34781Y105516D01*
X34913Y106179D01*
X34781Y106843D01*
X34405Y107405D01*
X33843Y107781D01*
X33180Y107913D01*
D02*
G37*
G36*
X101000Y109733D02*
X100337Y109601D01*
X99774Y109226D01*
X99399Y108663D01*
X99267Y108000D01*
X99399Y107337D01*
X99774Y106774D01*
Y106226D01*
X99399Y105663D01*
X99267Y105000D01*
X99399Y104337D01*
X99774Y103774D01*
X100337Y103399D01*
X101000Y103267D01*
X101663Y103399D01*
X102226Y103774D01*
X102601Y104337D01*
X102733Y105000D01*
X102601Y105663D01*
X102226Y106226D01*
Y106774D01*
X102601Y107337D01*
X102733Y108000D01*
X102601Y108663D01*
X102226Y109226D01*
X101663Y109601D01*
X101000Y109733D01*
D02*
G37*
G36*
X151000Y106233D02*
X150337Y106101D01*
X149774Y105726D01*
X149399Y105163D01*
X149267Y104500D01*
X149399Y103837D01*
X149774Y103274D01*
X150337Y102899D01*
X151000Y102767D01*
X151663Y102899D01*
X152226Y103274D01*
X152601Y103837D01*
X152733Y104500D01*
X152601Y105163D01*
X152226Y105726D01*
X151663Y106101D01*
X151000Y106233D01*
D02*
G37*
G36*
X142500Y99433D02*
X141837Y99301D01*
X141274Y98926D01*
X140899Y98363D01*
X140767Y97700D01*
X140899Y97037D01*
X141274Y96474D01*
X141837Y96099D01*
X142500Y95967D01*
X143163Y96099D01*
X143726Y96474D01*
X144101Y97037D01*
X144233Y97700D01*
X144101Y98363D01*
X143726Y98926D01*
X143163Y99301D01*
X142500Y99433D01*
D02*
G37*
G36*
X125585Y96819D02*
X124922Y96687D01*
X124360Y96311D01*
X123984Y95749D01*
X123852Y95085D01*
X123984Y94422D01*
X124360Y93860D01*
X124922Y93484D01*
X125585Y93352D01*
X126249Y93484D01*
X126811Y93860D01*
X127187Y94422D01*
X127319Y95085D01*
X127187Y95749D01*
X126811Y96311D01*
X126249Y96687D01*
X125585Y96819D01*
D02*
G37*
G36*
X37772Y92462D02*
X37108Y92330D01*
X36546Y91954D01*
X36170Y91392D01*
X36038Y90728D01*
X36170Y90065D01*
X36546Y89503D01*
X37108Y89127D01*
X37772Y88995D01*
X38435Y89127D01*
X38997Y89503D01*
X39373Y90065D01*
X39505Y90728D01*
X39373Y91392D01*
X38997Y91954D01*
X38435Y92330D01*
X37772Y92462D01*
D02*
G37*
G36*
X197900Y92234D02*
X195900D01*
X194856Y92097D01*
X193883Y91694D01*
X193047Y91053D01*
X192406Y90217D01*
X192003Y89244D01*
X191931Y88700D01*
X197900D01*
Y92234D01*
D02*
G37*
G36*
X72320Y89913D02*
X71657Y89781D01*
X71095Y89405D01*
X70719Y88843D01*
X70587Y88179D01*
X70719Y87516D01*
X71095Y86954D01*
X71657Y86578D01*
X72320Y86446D01*
X72984Y86578D01*
X73546Y86954D01*
X73922Y87516D01*
X74054Y88179D01*
X73922Y88843D01*
X73546Y89405D01*
X72984Y89781D01*
X72320Y89913D01*
D02*
G37*
G36*
X197900Y87700D02*
X191931D01*
X192003Y87156D01*
X192406Y86183D01*
X193047Y85347D01*
X193883Y84706D01*
X194856Y84303D01*
X195900Y84166D01*
X197900D01*
Y87700D01*
D02*
G37*
G36*
X32500Y84733D02*
X31837Y84601D01*
X31274Y84226D01*
X30899Y83663D01*
X30767Y83000D01*
X30899Y82337D01*
X31274Y81774D01*
X31837Y81399D01*
X32500Y81267D01*
X33163Y81399D01*
X33726Y81774D01*
X34101Y82337D01*
X34233Y83000D01*
X34101Y83663D01*
X33726Y84226D01*
X33163Y84601D01*
X32500Y84733D01*
D02*
G37*
G36*
X103000Y79233D02*
X102337Y79101D01*
X101774Y78726D01*
X101399Y78163D01*
X101267Y77500D01*
X101399Y76837D01*
X101774Y76274D01*
X102337Y75899D01*
X103000Y75767D01*
X103663Y75899D01*
X104226Y76274D01*
X104601Y76837D01*
X104733Y77500D01*
X104601Y78163D01*
X104226Y78726D01*
X103663Y79101D01*
X103000Y79233D01*
D02*
G37*
G36*
X53000D02*
X52337Y79101D01*
X51774Y78726D01*
X51399Y78163D01*
X51267Y77500D01*
X51399Y76837D01*
X51774Y76274D01*
X52337Y75899D01*
X53000Y75767D01*
X53663Y75899D01*
X54226Y76274D01*
X54601Y76837D01*
X54733Y77500D01*
X54601Y78163D01*
X54226Y78726D01*
X53663Y79101D01*
X53000Y79233D01*
D02*
G37*
G36*
X78500Y77733D02*
X77837Y77601D01*
X77274Y77226D01*
X76899Y76663D01*
X76767Y76000D01*
X76899Y75337D01*
X77274Y74774D01*
X77837Y74399D01*
X78500Y74267D01*
X79163Y74399D01*
X79726Y74774D01*
X80101Y75337D01*
X80233Y76000D01*
X80101Y76663D01*
X79726Y77226D01*
X79163Y77601D01*
X78500Y77733D01*
D02*
G37*
G36*
X131500Y77533D02*
X130837Y77401D01*
X130274Y77026D01*
X129899Y76463D01*
X129767Y75800D01*
X129899Y75137D01*
X130274Y74574D01*
X130837Y74199D01*
X131500Y74067D01*
X132163Y74199D01*
X132726Y74574D01*
X133101Y75137D01*
X133233Y75800D01*
X133101Y76463D01*
X132726Y77026D01*
X132163Y77401D01*
X131500Y77533D01*
D02*
G37*
G36*
X127800Y73833D02*
X127137Y73701D01*
X126574Y73326D01*
X126199Y72763D01*
X126067Y72100D01*
X126199Y71437D01*
X126574Y70874D01*
X127137Y70499D01*
X127800Y70367D01*
X128463Y70499D01*
X129026Y70874D01*
X129401Y71437D01*
X129533Y72100D01*
X129401Y72763D01*
X129026Y73326D01*
X128463Y73701D01*
X127800Y73833D01*
D02*
G37*
G36*
X38000Y73733D02*
X37337Y73601D01*
X36774Y73226D01*
X36399Y72663D01*
X36267Y72000D01*
X36399Y71337D01*
X36774Y70774D01*
X37337Y70399D01*
X38000Y70267D01*
X38663Y70399D01*
X39226Y70774D01*
X39601Y71337D01*
X39733Y72000D01*
X39601Y72663D01*
X39226Y73226D01*
X38663Y73601D01*
X38000Y73733D01*
D02*
G37*
G36*
X58500Y69233D02*
X57837Y69101D01*
X57274Y68726D01*
X56899Y68163D01*
X56767Y67500D01*
X56899Y66837D01*
X57274Y66274D01*
X57837Y65899D01*
X58500Y65767D01*
X59163Y65899D01*
X59726Y66274D01*
X60101Y66837D01*
X60233Y67500D01*
X60101Y68163D01*
X59726Y68726D01*
X59163Y69101D01*
X58500Y69233D01*
D02*
G37*
G36*
X139500Y64733D02*
X138837Y64601D01*
X138274Y64226D01*
X137899Y63663D01*
X137767Y63000D01*
X137899Y62337D01*
X138274Y61774D01*
X138837Y61399D01*
X139500Y61267D01*
X140163Y61399D01*
X140726Y61774D01*
X141101Y62337D01*
X141233Y63000D01*
X141101Y63663D01*
X140726Y64226D01*
X140163Y64601D01*
X139500Y64733D01*
D02*
G37*
G36*
X77800Y61733D02*
X77137Y61601D01*
X76574Y61226D01*
X76199Y60663D01*
X76067Y60000D01*
X76199Y59337D01*
X76574Y58774D01*
X77137Y58399D01*
X77800Y58267D01*
X78463Y58399D01*
X79026Y58774D01*
X79401Y59337D01*
X79533Y60000D01*
X79401Y60663D01*
X79026Y61226D01*
X78463Y61601D01*
X77800Y61733D01*
D02*
G37*
G36*
X19800Y59933D02*
X19137Y59801D01*
X18574Y59426D01*
X18199Y58863D01*
X18067Y58200D01*
X18199Y57537D01*
X18574Y56974D01*
X19137Y56599D01*
X19800Y56467D01*
X20463Y56599D01*
X21026Y56974D01*
X21401Y57537D01*
X21533Y58200D01*
X21401Y58863D01*
X21026Y59426D01*
X20463Y59801D01*
X19800Y59933D01*
D02*
G37*
G36*
X91000Y58733D02*
X90337Y58601D01*
X89774Y58226D01*
X89399Y57663D01*
X89267Y57000D01*
X89336Y56653D01*
X88847Y56164D01*
X88500Y56233D01*
X87837Y56101D01*
X87274Y55726D01*
X87105Y55472D01*
X86395D01*
X86226Y55726D01*
X85663Y56101D01*
X85000Y56233D01*
X84337Y56101D01*
X83774Y55726D01*
X83399Y55163D01*
X83267Y54500D01*
X83399Y53837D01*
X83774Y53274D01*
X84337Y52899D01*
X85000Y52767D01*
X85663Y52899D01*
X86226Y53274D01*
X86395Y53528D01*
X87105D01*
X87274Y53274D01*
X87837Y52899D01*
X88500Y52767D01*
X89163Y52899D01*
X89726Y53274D01*
X90101Y53837D01*
X90233Y54500D01*
X90164Y54847D01*
X90653Y55336D01*
X91000Y55267D01*
X91663Y55399D01*
X92226Y55774D01*
X92601Y56337D01*
X92733Y57000D01*
X92601Y57663D01*
X92226Y58226D01*
X91663Y58601D01*
X91000Y58733D01*
D02*
G37*
G36*
X114663Y51733D02*
X114000Y51601D01*
X113437Y51226D01*
X113061Y50663D01*
X112930Y50000D01*
X113061Y49337D01*
X113437Y48774D01*
X114000Y48399D01*
X114663Y48267D01*
X115326Y48399D01*
X115889Y48774D01*
X116264Y49337D01*
X116396Y50000D01*
X116264Y50663D01*
X115889Y51226D01*
X115326Y51601D01*
X114663Y51733D01*
D02*
G37*
G36*
X80000Y39233D02*
X79337Y39101D01*
X78774Y38726D01*
X78399Y38163D01*
X78267Y37500D01*
X78399Y36837D01*
X78774Y36274D01*
X79337Y35899D01*
X80000Y35767D01*
X80663Y35899D01*
X81226Y36274D01*
X81601Y36837D01*
X81733Y37500D01*
X81601Y38163D01*
X81226Y38726D01*
X80663Y39101D01*
X80000Y39233D01*
D02*
G37*
G36*
X10900Y32234D02*
X8900D01*
Y28700D01*
X14869D01*
X14797Y29244D01*
X14394Y30217D01*
X13753Y31053D01*
X12917Y31694D01*
X11944Y32097D01*
X10900Y32234D01*
D02*
G37*
G36*
X84000Y29233D02*
X83337Y29101D01*
X82774Y28726D01*
X82399Y28163D01*
X82267Y27500D01*
X82399Y26837D01*
X82774Y26274D01*
X83337Y25899D01*
X84000Y25767D01*
X84663Y25899D01*
X85226Y26274D01*
X85601Y26837D01*
X85733Y27500D01*
X85601Y28163D01*
X85226Y28726D01*
X84663Y29101D01*
X84000Y29233D01*
D02*
G37*
G36*
X98400Y51742D02*
X96282Y51575D01*
X94215Y51079D01*
X92252Y50266D01*
X90440Y49156D01*
X88824Y47776D01*
X87445Y46160D01*
X86334Y44348D01*
X85521Y42385D01*
X85025Y40318D01*
X84858Y38200D01*
X85025Y36082D01*
X85521Y34015D01*
X86334Y32052D01*
X87445Y30240D01*
X88824Y28624D01*
X90440Y27244D01*
X92252Y26134D01*
X94215Y25321D01*
X96282Y24825D01*
X98400Y24658D01*
X100518Y24825D01*
X102585Y25321D01*
X104548Y26134D01*
X106360Y27244D01*
X107975Y28624D01*
X109355Y30240D01*
X110466Y32052D01*
X111279Y34015D01*
X111775Y36082D01*
X111942Y38200D01*
X111775Y40318D01*
X111279Y42385D01*
X110466Y44348D01*
X109355Y46160D01*
X107975Y47776D01*
X106360Y49156D01*
X104548Y50266D01*
X102585Y51079D01*
X100518Y51575D01*
X98400Y51742D01*
D02*
G37*
G36*
X14869Y27700D02*
X8900D01*
Y24166D01*
X10900D01*
X11944Y24303D01*
X12917Y24706D01*
X13753Y25347D01*
X14394Y26183D01*
X14797Y27156D01*
X14869Y27700D01*
D02*
G37*
G36*
X68900Y14669D02*
Y8700D01*
X72435D01*
Y10700D01*
X72297Y11744D01*
X71894Y12717D01*
X71253Y13553D01*
X70417Y14194D01*
X69444Y14597D01*
X68900Y14669D01*
D02*
G37*
G36*
X67900D02*
X67356Y14597D01*
X66383Y14194D01*
X65547Y13553D01*
X64906Y12717D01*
X64503Y11744D01*
X64366Y10700D01*
Y8700D01*
X67900D01*
Y14669D01*
D02*
G37*
%LPD*%
D15*
X121500Y95000D02*
Y110000D01*
D16*
X232Y-7D02*
Y253993D01*
X206232D01*
Y-7D02*
Y253993D01*
X232Y-7D02*
X206232D01*
D54*
X177000Y155500D02*
D03*
D57*
X8400Y28200D02*
D03*
X198400Y148200D02*
D03*
Y88200D02*
D03*
D59*
X68400Y8200D02*
D03*
D60*
X98256Y134744D02*
D03*
X107244D02*
D03*
X128000Y85500D02*
D03*
X121500Y95000D02*
D03*
Y110000D02*
D03*
X133756Y134500D02*
D03*
X88013Y81487D02*
D03*
X89000Y140872D02*
D03*
X74128D02*
D03*
X146044Y108256D02*
D03*
X63756Y135244D02*
D03*
X33244D02*
D03*
X169346Y140602D02*
D03*
X98756Y87756D02*
D03*
X40000Y54500D02*
D03*
X153000Y63000D02*
D03*
X72500Y67500D02*
D03*
X98000Y157500D02*
D03*
M02*
