G04 Layer_Color=8421504*
%FSLAX25Y25*%
%MOIN*%
G70*
G01*
G75*
%ADD11R,0.02953X0.03740*%
G04:AMPARAMS|DCode=12|XSize=39.37mil|YSize=35.43mil|CornerRadius=4.43mil|HoleSize=0mil|Usage=FLASHONLY|Rotation=180.000|XOffset=0mil|YOffset=0mil|HoleType=Round|Shape=RoundedRectangle|*
%AMROUNDEDRECTD12*
21,1,0.03937,0.02657,0,0,180.0*
21,1,0.03051,0.03543,0,0,180.0*
1,1,0.00886,-0.01526,0.01329*
1,1,0.00886,0.01526,0.01329*
1,1,0.00886,0.01526,-0.01329*
1,1,0.00886,-0.01526,-0.01329*
%
%ADD12ROUNDEDRECTD12*%
G04:AMPARAMS|DCode=13|XSize=39.37mil|YSize=35.43mil|CornerRadius=4.43mil|HoleSize=0mil|Usage=FLASHONLY|Rotation=90.000|XOffset=0mil|YOffset=0mil|HoleType=Round|Shape=RoundedRectangle|*
%AMROUNDEDRECTD13*
21,1,0.03937,0.02657,0,0,90.0*
21,1,0.03051,0.03543,0,0,90.0*
1,1,0.00886,0.01329,0.01526*
1,1,0.00886,0.01329,-0.01526*
1,1,0.00886,-0.01329,-0.01526*
1,1,0.00886,-0.01329,0.01526*
%
%ADD13ROUNDEDRECTD13*%
%ADD16R,0.03740X0.02953*%
%ADD17R,0.02520X0.02520*%
%ADD18R,0.02520X0.02520*%
G04:AMPARAMS|DCode=19|XSize=23.62mil|YSize=23.62mil|CornerRadius=2.36mil|HoleSize=0mil|Usage=FLASHONLY|Rotation=90.000|XOffset=0mil|YOffset=0mil|HoleType=Round|Shape=RoundedRectangle|*
%AMROUNDEDRECTD19*
21,1,0.02362,0.01890,0,0,90.0*
21,1,0.01890,0.02362,0,0,90.0*
1,1,0.00472,0.00945,0.00945*
1,1,0.00472,0.00945,-0.00945*
1,1,0.00472,-0.00945,-0.00945*
1,1,0.00472,-0.00945,0.00945*
%
%ADD19ROUNDEDRECTD19*%
G04:AMPARAMS|DCode=20|XSize=23.62mil|YSize=23.62mil|CornerRadius=2.36mil|HoleSize=0mil|Usage=FLASHONLY|Rotation=180.000|XOffset=0mil|YOffset=0mil|HoleType=Round|Shape=RoundedRectangle|*
%AMROUNDEDRECTD20*
21,1,0.02362,0.01890,0,0,180.0*
21,1,0.01890,0.02362,0,0,180.0*
1,1,0.00472,-0.00945,0.00945*
1,1,0.00472,0.00945,0.00945*
1,1,0.00472,0.00945,-0.00945*
1,1,0.00472,-0.00945,-0.00945*
%
%ADD20ROUNDEDRECTD20*%
%ADD53R,0.07480X0.07480*%
%ADD54R,0.07480X0.07874*%
%ADD55R,0.07874X0.07480*%
%ADD56R,0.07874X0.07874*%
%ADD57O,0.03343X0.00784*%
%ADD58O,0.00784X0.03343*%
D11*
X150688Y152000D02*
D03*
X156200D02*
D03*
X138212Y187500D02*
D03*
X132700D02*
D03*
Y162000D02*
D03*
X138212D02*
D03*
X65700Y182000D02*
D03*
X60188D02*
D03*
X65712Y170000D02*
D03*
X60200D02*
D03*
X65712Y158000D02*
D03*
X60200D02*
D03*
X65700Y146000D02*
D03*
X60188D02*
D03*
X65700Y134000D02*
D03*
X60188D02*
D03*
X132688Y144500D02*
D03*
X138200D02*
D03*
X88200Y93000D02*
D03*
X82688D02*
D03*
X98688D02*
D03*
X104200D02*
D03*
X356688Y152000D02*
D03*
X362200D02*
D03*
X344212Y187500D02*
D03*
X338700D02*
D03*
Y162000D02*
D03*
X344212D02*
D03*
X271700Y182000D02*
D03*
X266188D02*
D03*
X271712Y170000D02*
D03*
X266200D02*
D03*
X271712Y158000D02*
D03*
X266200D02*
D03*
X271700Y146000D02*
D03*
X266188D02*
D03*
X271700Y134000D02*
D03*
X266188D02*
D03*
X338688Y144500D02*
D03*
X344200D02*
D03*
X294200Y93000D02*
D03*
X288688D02*
D03*
X304688D02*
D03*
X310200D02*
D03*
X150688Y406000D02*
D03*
X156200D02*
D03*
X138212Y441500D02*
D03*
X132700D02*
D03*
Y416000D02*
D03*
X138212D02*
D03*
X65700Y436000D02*
D03*
X60188D02*
D03*
X65712Y424000D02*
D03*
X60200D02*
D03*
X65712Y412000D02*
D03*
X60200D02*
D03*
X65700Y400000D02*
D03*
X60188D02*
D03*
X65700Y388000D02*
D03*
X60188D02*
D03*
X132688Y398500D02*
D03*
X138200D02*
D03*
X88200Y347000D02*
D03*
X82688D02*
D03*
X98688D02*
D03*
X104200D02*
D03*
X356688Y406000D02*
D03*
X362200D02*
D03*
X344212Y441500D02*
D03*
X338700D02*
D03*
Y416000D02*
D03*
X344212D02*
D03*
X271700Y436000D02*
D03*
X266188D02*
D03*
X271712Y424000D02*
D03*
X266200D02*
D03*
X271712Y412000D02*
D03*
X266200D02*
D03*
X271700Y400000D02*
D03*
X266188D02*
D03*
X271700Y388000D02*
D03*
X266188D02*
D03*
X338688Y398500D02*
D03*
X344200D02*
D03*
X294200Y347000D02*
D03*
X288688D02*
D03*
X304688D02*
D03*
X310200D02*
D03*
D12*
X156200Y144193D02*
D03*
Y137500D02*
D03*
X89700Y108307D02*
D03*
Y115000D02*
D03*
X97200D02*
D03*
Y108307D02*
D03*
X362200Y144193D02*
D03*
Y137500D02*
D03*
X295700Y108307D02*
D03*
Y115000D02*
D03*
X303200D02*
D03*
Y108307D02*
D03*
X156200Y398193D02*
D03*
Y391500D02*
D03*
X89700Y362307D02*
D03*
Y369000D02*
D03*
X97200D02*
D03*
Y362307D02*
D03*
X362200Y398193D02*
D03*
Y391500D02*
D03*
X295700Y362307D02*
D03*
Y369000D02*
D03*
X303200D02*
D03*
Y362307D02*
D03*
D13*
X86393Y176500D02*
D03*
X79700D02*
D03*
X59700Y194000D02*
D03*
X66393D02*
D03*
X156700Y178000D02*
D03*
X150007D02*
D03*
X113507Y93000D02*
D03*
X120200D02*
D03*
Y76000D02*
D03*
X113507D02*
D03*
X104700D02*
D03*
X98007D02*
D03*
X82007D02*
D03*
X88700D02*
D03*
X292393Y176500D02*
D03*
X285700D02*
D03*
X265700Y194000D02*
D03*
X272393D02*
D03*
X362700Y178000D02*
D03*
X356007D02*
D03*
X319507Y93000D02*
D03*
X326200D02*
D03*
Y76000D02*
D03*
X319507D02*
D03*
X310700D02*
D03*
X304007D02*
D03*
X288007D02*
D03*
X294700D02*
D03*
X86393Y430500D02*
D03*
X79700D02*
D03*
X59700Y448000D02*
D03*
X66393D02*
D03*
X156700Y432000D02*
D03*
X150007D02*
D03*
X113507Y347000D02*
D03*
X120200D02*
D03*
Y330000D02*
D03*
X113507D02*
D03*
X104700D02*
D03*
X98007D02*
D03*
X82007D02*
D03*
X88700D02*
D03*
X292393Y430500D02*
D03*
X285700D02*
D03*
X265700Y448000D02*
D03*
X272393D02*
D03*
X362700Y432000D02*
D03*
X356007D02*
D03*
X319507Y347000D02*
D03*
X326200D02*
D03*
Y330000D02*
D03*
X319507D02*
D03*
X310700D02*
D03*
X304007D02*
D03*
X288007D02*
D03*
X294700D02*
D03*
D16*
X99700Y129012D02*
D03*
Y123500D02*
D03*
X114700Y123012D02*
D03*
Y117500D02*
D03*
X165200Y178012D02*
D03*
Y172500D02*
D03*
X174700Y178012D02*
D03*
Y172500D02*
D03*
X305700Y129012D02*
D03*
Y123500D02*
D03*
X320700Y123012D02*
D03*
Y117500D02*
D03*
X371200Y178012D02*
D03*
Y172500D02*
D03*
X380700Y178012D02*
D03*
Y172500D02*
D03*
X99700Y383012D02*
D03*
Y377500D02*
D03*
X114700Y377012D02*
D03*
Y371500D02*
D03*
X165200Y432012D02*
D03*
Y426500D02*
D03*
X174700Y432012D02*
D03*
Y426500D02*
D03*
X305700Y383012D02*
D03*
Y377500D02*
D03*
X320700Y377012D02*
D03*
Y371500D02*
D03*
X371200Y432012D02*
D03*
Y426500D02*
D03*
X380700Y432012D02*
D03*
Y426500D02*
D03*
D17*
X103700Y217000D02*
D03*
Y220622D02*
D03*
X102200Y199000D02*
D03*
Y202622D02*
D03*
X96200Y184000D02*
D03*
Y187622D02*
D03*
X102200Y184000D02*
D03*
Y187622D02*
D03*
X309700Y217000D02*
D03*
Y220622D02*
D03*
X308200Y199000D02*
D03*
Y202622D02*
D03*
X302200Y184000D02*
D03*
Y187622D02*
D03*
X308200Y184000D02*
D03*
Y187622D02*
D03*
X103700Y471000D02*
D03*
Y474622D02*
D03*
X102200Y453000D02*
D03*
Y456622D02*
D03*
X96200Y438000D02*
D03*
Y441622D02*
D03*
X102200Y438000D02*
D03*
Y441622D02*
D03*
X309700Y471000D02*
D03*
Y474622D02*
D03*
X308200Y453000D02*
D03*
Y456622D02*
D03*
X302200Y438000D02*
D03*
Y441622D02*
D03*
X308200Y438000D02*
D03*
Y441622D02*
D03*
D18*
X92578Y193500D02*
D03*
X96200D02*
D03*
X298578D02*
D03*
X302200D02*
D03*
X92578Y447500D02*
D03*
X96200D02*
D03*
X298578D02*
D03*
X302200D02*
D03*
D19*
X112637Y217000D02*
D03*
X108700D02*
D03*
X102200Y193500D02*
D03*
X106137D02*
D03*
X318637Y217000D02*
D03*
X314700D02*
D03*
X308200Y193500D02*
D03*
X312137D02*
D03*
X112637Y471000D02*
D03*
X108700D02*
D03*
X102200Y447500D02*
D03*
X106137D02*
D03*
X318637Y471000D02*
D03*
X314700D02*
D03*
X308200Y447500D02*
D03*
X312137D02*
D03*
D20*
X99200Y212437D02*
D03*
Y208500D02*
D03*
X96200Y202937D02*
D03*
Y199000D02*
D03*
X305200Y212437D02*
D03*
Y208500D02*
D03*
X302200Y202937D02*
D03*
Y199000D02*
D03*
X99200Y466437D02*
D03*
Y462500D02*
D03*
X96200Y456937D02*
D03*
Y453000D02*
D03*
X305200Y466437D02*
D03*
Y462500D02*
D03*
X302200Y456937D02*
D03*
Y453000D02*
D03*
D53*
X94735Y148035D02*
D03*
Y164965D02*
D03*
X111665Y148035D02*
D03*
Y164964D02*
D03*
X300735Y148035D02*
D03*
Y164965D02*
D03*
X317665Y148035D02*
D03*
Y164964D02*
D03*
X94735Y402035D02*
D03*
Y418965D02*
D03*
X111665Y402035D02*
D03*
Y418964D02*
D03*
X300735Y402035D02*
D03*
Y418965D02*
D03*
X317665Y402035D02*
D03*
Y418964D02*
D03*
D54*
X94735Y156500D02*
D03*
X111665Y156500D02*
D03*
X300735Y156500D02*
D03*
X317665Y156500D02*
D03*
X94735Y410500D02*
D03*
X111665Y410500D02*
D03*
X300735Y410500D02*
D03*
X317665Y410500D02*
D03*
D55*
X103200Y148035D02*
D03*
X103200Y164964D02*
D03*
X309200Y148035D02*
D03*
X309200Y164964D02*
D03*
X103200Y402035D02*
D03*
X103200Y418964D02*
D03*
X309200Y402035D02*
D03*
X309200Y418964D02*
D03*
D56*
X103200Y156500D02*
D03*
X309200D02*
D03*
X103200Y410500D02*
D03*
X309200D02*
D03*
D57*
X87058Y143705D02*
D03*
Y145673D02*
D03*
Y147642D02*
D03*
Y149610D02*
D03*
Y151579D02*
D03*
Y153547D02*
D03*
Y155516D02*
D03*
Y157484D02*
D03*
Y159453D02*
D03*
Y161421D02*
D03*
Y163390D02*
D03*
Y165358D02*
D03*
Y167327D02*
D03*
Y169295D02*
D03*
X119342D02*
D03*
Y167327D02*
D03*
Y165358D02*
D03*
Y163390D02*
D03*
Y161421D02*
D03*
Y159453D02*
D03*
Y157484D02*
D03*
Y155516D02*
D03*
Y153547D02*
D03*
Y151579D02*
D03*
Y149610D02*
D03*
Y147642D02*
D03*
Y145673D02*
D03*
Y143705D02*
D03*
X293058D02*
D03*
Y145673D02*
D03*
Y147642D02*
D03*
Y149610D02*
D03*
Y151579D02*
D03*
Y153547D02*
D03*
Y155516D02*
D03*
Y157484D02*
D03*
Y159453D02*
D03*
Y161421D02*
D03*
Y163390D02*
D03*
Y165358D02*
D03*
Y167327D02*
D03*
Y169295D02*
D03*
X325342D02*
D03*
Y167327D02*
D03*
Y165358D02*
D03*
Y163390D02*
D03*
Y161421D02*
D03*
Y159453D02*
D03*
Y157484D02*
D03*
Y155516D02*
D03*
Y153547D02*
D03*
Y151579D02*
D03*
Y149610D02*
D03*
Y147642D02*
D03*
Y145673D02*
D03*
Y143705D02*
D03*
X87058Y397705D02*
D03*
Y399673D02*
D03*
Y401642D02*
D03*
Y403610D02*
D03*
Y405579D02*
D03*
Y407547D02*
D03*
Y409516D02*
D03*
Y411484D02*
D03*
Y413453D02*
D03*
Y415421D02*
D03*
Y417390D02*
D03*
Y419358D02*
D03*
Y421327D02*
D03*
Y423295D02*
D03*
X119342D02*
D03*
Y421327D02*
D03*
Y419358D02*
D03*
Y417390D02*
D03*
Y415421D02*
D03*
Y413453D02*
D03*
Y411484D02*
D03*
Y409516D02*
D03*
Y407547D02*
D03*
Y405579D02*
D03*
Y403610D02*
D03*
Y401642D02*
D03*
Y399673D02*
D03*
Y397705D02*
D03*
X293058D02*
D03*
Y399673D02*
D03*
Y401642D02*
D03*
Y403610D02*
D03*
Y405579D02*
D03*
Y407547D02*
D03*
Y409516D02*
D03*
Y411484D02*
D03*
Y413453D02*
D03*
Y415421D02*
D03*
Y417390D02*
D03*
Y419358D02*
D03*
Y421327D02*
D03*
Y423295D02*
D03*
X325342D02*
D03*
Y421327D02*
D03*
Y419358D02*
D03*
Y417390D02*
D03*
Y415421D02*
D03*
Y413453D02*
D03*
Y411484D02*
D03*
Y409516D02*
D03*
Y407547D02*
D03*
Y405579D02*
D03*
Y403610D02*
D03*
Y401642D02*
D03*
Y399673D02*
D03*
Y397705D02*
D03*
D58*
X90405Y172642D02*
D03*
X92373D02*
D03*
X94342D02*
D03*
X96310D02*
D03*
X98279D02*
D03*
X100247D02*
D03*
X102216D02*
D03*
X104184D02*
D03*
X106153D02*
D03*
X108121D02*
D03*
X110090D02*
D03*
X112058D02*
D03*
X114027D02*
D03*
X115995D02*
D03*
Y140358D02*
D03*
X114027D02*
D03*
X112058D02*
D03*
X110090D02*
D03*
X108121D02*
D03*
X106153D02*
D03*
X104184D02*
D03*
X102216D02*
D03*
X100247D02*
D03*
X98279D02*
D03*
X96310D02*
D03*
X94342D02*
D03*
X92373D02*
D03*
X90405D02*
D03*
X296405Y172642D02*
D03*
X298373D02*
D03*
X300342D02*
D03*
X302310D02*
D03*
X304279D02*
D03*
X306247D02*
D03*
X308216D02*
D03*
X310184D02*
D03*
X312153D02*
D03*
X314121D02*
D03*
X316090D02*
D03*
X318058D02*
D03*
X320027D02*
D03*
X321995D02*
D03*
Y140358D02*
D03*
X320027D02*
D03*
X318058D02*
D03*
X316090D02*
D03*
X314121D02*
D03*
X312153D02*
D03*
X310184D02*
D03*
X308216D02*
D03*
X306247D02*
D03*
X304279D02*
D03*
X302310D02*
D03*
X300342D02*
D03*
X298373D02*
D03*
X296405D02*
D03*
X90405Y426642D02*
D03*
X92373D02*
D03*
X94342D02*
D03*
X96310D02*
D03*
X98279D02*
D03*
X100247D02*
D03*
X102216D02*
D03*
X104184D02*
D03*
X106153D02*
D03*
X108121D02*
D03*
X110090D02*
D03*
X112058D02*
D03*
X114027D02*
D03*
X115995D02*
D03*
Y394358D02*
D03*
X114027D02*
D03*
X112058D02*
D03*
X110090D02*
D03*
X108121D02*
D03*
X106153D02*
D03*
X104184D02*
D03*
X102216D02*
D03*
X100247D02*
D03*
X98279D02*
D03*
X96310D02*
D03*
X94342D02*
D03*
X92373D02*
D03*
X90405D02*
D03*
X296405Y426642D02*
D03*
X298373D02*
D03*
X300342D02*
D03*
X302310D02*
D03*
X304279D02*
D03*
X306247D02*
D03*
X308216D02*
D03*
X310184D02*
D03*
X312153D02*
D03*
X314121D02*
D03*
X316090D02*
D03*
X318058D02*
D03*
X320027D02*
D03*
X321995D02*
D03*
Y394358D02*
D03*
X320027D02*
D03*
X318058D02*
D03*
X316090D02*
D03*
X314121D02*
D03*
X312153D02*
D03*
X310184D02*
D03*
X308216D02*
D03*
X306247D02*
D03*
X304279D02*
D03*
X302310D02*
D03*
X300342D02*
D03*
X298373D02*
D03*
X296405D02*
D03*
M02*
