G04 Layer_Color=8388736*
%FSLAX25Y25*%
%MOIN*%
G70*
G01*
G75*
%ADD30C,0.01000*%
%ADD64R,0.10236X0.06299*%
%ADD65R,0.07087X0.06299*%
%ADD66R,0.06299X0.07087*%
%ADD67C,0.02768*%
G04:AMPARAMS|DCode=68|XSize=39.5mil|YSize=39.5mil|CornerRadius=7.94mil|HoleSize=0mil|Usage=FLASHONLY|Rotation=90.000|XOffset=0mil|YOffset=0mil|HoleType=Round|Shape=RoundedRectangle|*
%AMROUNDEDRECTD68*
21,1,0.03950,0.02362,0,0,90.0*
21,1,0.02362,0.03950,0,0,90.0*
1,1,0.01587,0.01181,0.01181*
1,1,0.01587,0.01181,-0.01181*
1,1,0.01587,-0.01181,-0.01181*
1,1,0.01587,-0.01181,0.01181*
%
%ADD68ROUNDEDRECTD68*%
G04:AMPARAMS|DCode=69|XSize=33.59mil|YSize=72.96mil|CornerRadius=5.92mil|HoleSize=0mil|Usage=FLASHONLY|Rotation=90.000|XOffset=0mil|YOffset=0mil|HoleType=Round|Shape=RoundedRectangle|*
%AMROUNDEDRECTD69*
21,1,0.03359,0.06112,0,0,90.0*
21,1,0.02175,0.07296,0,0,90.0*
1,1,0.01184,0.03056,0.01088*
1,1,0.01184,0.03056,-0.01088*
1,1,0.01184,-0.03056,-0.01088*
1,1,0.01184,-0.03056,0.01088*
%
%ADD69ROUNDEDRECTD69*%
G04:AMPARAMS|DCode=70|XSize=59.18mil|YSize=39.5mil|CornerRadius=7.94mil|HoleSize=0mil|Usage=FLASHONLY|Rotation=90.000|XOffset=0mil|YOffset=0mil|HoleType=Round|Shape=RoundedRectangle|*
%AMROUNDEDRECTD70*
21,1,0.05918,0.02362,0,0,90.0*
21,1,0.04331,0.03950,0,0,90.0*
1,1,0.01587,0.01181,0.02165*
1,1,0.01587,0.01181,-0.02165*
1,1,0.01587,-0.01181,-0.02165*
1,1,0.01587,-0.01181,0.02165*
%
%ADD70ROUNDEDRECTD70*%
G04:AMPARAMS|DCode=71|XSize=47.37mil|YSize=43.43mil|CornerRadius=8.43mil|HoleSize=0mil|Usage=FLASHONLY|Rotation=180.000|XOffset=0mil|YOffset=0mil|HoleType=Round|Shape=RoundedRectangle|*
%AMROUNDEDRECTD71*
21,1,0.04737,0.02657,0,0,180.0*
21,1,0.03051,0.04343,0,0,180.0*
1,1,0.01686,-0.01526,0.01329*
1,1,0.01686,0.01526,0.01329*
1,1,0.01686,0.01526,-0.01329*
1,1,0.01686,-0.01526,-0.01329*
%
%ADD71ROUNDEDRECTD71*%
G04:AMPARAMS|DCode=72|XSize=47.37mil|YSize=43.43mil|CornerRadius=8.43mil|HoleSize=0mil|Usage=FLASHONLY|Rotation=90.000|XOffset=0mil|YOffset=0mil|HoleType=Round|Shape=RoundedRectangle|*
%AMROUNDEDRECTD72*
21,1,0.04737,0.02657,0,0,90.0*
21,1,0.03051,0.04343,0,0,90.0*
1,1,0.01686,0.01329,0.01526*
1,1,0.01686,0.01329,-0.01526*
1,1,0.01686,-0.01329,-0.01526*
1,1,0.01686,-0.01329,0.01526*
%
%ADD72ROUNDEDRECTD72*%
%ADD73R,0.03300X0.05800*%
%ADD74R,0.04540X0.03753*%
%ADD75R,0.03753X0.04540*%
%ADD76R,0.03320X0.03320*%
%ADD77R,0.03320X0.03320*%
%ADD78R,0.05800X0.03300*%
%ADD79R,0.03162X0.04737*%
%ADD80R,0.04737X0.04737*%
%ADD81R,0.09068X0.04343*%
%ADD82R,0.09068X0.13398*%
%ADD83R,0.06902X0.06902*%
%ADD84C,0.06902*%
%ADD85C,0.19540*%
%ADD86C,0.07453*%
%ADD87R,0.07453X0.07453*%
%ADD88C,0.25800*%
%ADD89O,0.11800X0.06800*%
%ADD90R,0.11800X0.06800*%
%ADD91O,0.06800X0.11800*%
%ADD92R,0.06800X0.11800*%
%ADD93C,0.03100*%
D30*
X278000Y98000D02*
X484000D01*
Y416000D01*
X278000D02*
X484000D01*
X278000Y98000D02*
Y416000D01*
D64*
X301622Y225197D02*
D03*
X301528Y236614D02*
D03*
D65*
X430000Y241500D02*
D03*
X429500Y224500D02*
D03*
D66*
X454000Y231000D02*
D03*
X390000Y341000D02*
D03*
X437500Y340379D02*
D03*
X453150Y261858D02*
D03*
D67*
X350394Y255906D02*
D03*
X354331D02*
D03*
X358268D02*
D03*
X362205D02*
D03*
X366142D02*
D03*
X370079D02*
D03*
X374016D02*
D03*
X377953D02*
D03*
X381890D02*
D03*
X385827D02*
D03*
X389764D02*
D03*
X393701D02*
D03*
X397638D02*
D03*
X401575D02*
D03*
X405512D02*
D03*
X409449D02*
D03*
X350394Y251969D02*
D03*
X354331D02*
D03*
X358268D02*
D03*
X362205D02*
D03*
X366142D02*
D03*
X370079D02*
D03*
X374016D02*
D03*
X377953D02*
D03*
X381890D02*
D03*
X385827D02*
D03*
X389764D02*
D03*
X393701D02*
D03*
X397638D02*
D03*
X401575D02*
D03*
X405512D02*
D03*
X409449D02*
D03*
X350394Y248031D02*
D03*
X354331D02*
D03*
X358268D02*
D03*
X362205D02*
D03*
X366142D02*
D03*
X370079D02*
D03*
X374016D02*
D03*
X377953D02*
D03*
X381890D02*
D03*
X385827D02*
D03*
X389764D02*
D03*
X393701D02*
D03*
X397638D02*
D03*
X401575D02*
D03*
X405512D02*
D03*
X409449D02*
D03*
X350394Y244094D02*
D03*
X354331D02*
D03*
X358268D02*
D03*
X362205D02*
D03*
X366142D02*
D03*
X370079D02*
D03*
X374016D02*
D03*
X377953D02*
D03*
X381890D02*
D03*
X385827D02*
D03*
X389764D02*
D03*
X393701D02*
D03*
X397638D02*
D03*
X401575D02*
D03*
X405512D02*
D03*
X409449D02*
D03*
X350394Y240158D02*
D03*
X354331D02*
D03*
X358268D02*
D03*
X362205D02*
D03*
X366142D02*
D03*
X370079D02*
D03*
X374016D02*
D03*
X377953D02*
D03*
X381890D02*
D03*
X385827D02*
D03*
X389764D02*
D03*
X393701D02*
D03*
X397638D02*
D03*
X401575D02*
D03*
X405512D02*
D03*
X409449D02*
D03*
X350394Y236221D02*
D03*
X354331D02*
D03*
X358268D02*
D03*
X362205D02*
D03*
X366142D02*
D03*
X370079D02*
D03*
X374016D02*
D03*
X377953D02*
D03*
X381890D02*
D03*
X385827D02*
D03*
X389764D02*
D03*
X393701D02*
D03*
X397638D02*
D03*
X401575D02*
D03*
X405512D02*
D03*
X409449D02*
D03*
X350394Y232283D02*
D03*
X354331D02*
D03*
X358268D02*
D03*
X362205D02*
D03*
X366142D02*
D03*
X370079D02*
D03*
X374016D02*
D03*
X377953D02*
D03*
X381890D02*
D03*
X385827D02*
D03*
X389764D02*
D03*
X393701D02*
D03*
X397638D02*
D03*
X401575D02*
D03*
X405512D02*
D03*
X409449D02*
D03*
X350394Y228346D02*
D03*
X354331D02*
D03*
X358268D02*
D03*
X362205D02*
D03*
X366142D02*
D03*
X370079D02*
D03*
X374016D02*
D03*
X377953D02*
D03*
X381890D02*
D03*
X385827D02*
D03*
X389764D02*
D03*
X393701D02*
D03*
X397638D02*
D03*
X401575D02*
D03*
X405512D02*
D03*
X409449D02*
D03*
X350394Y224410D02*
D03*
X354331D02*
D03*
X358268D02*
D03*
X362205D02*
D03*
X366142D02*
D03*
X370079D02*
D03*
X374016D02*
D03*
X377953D02*
D03*
X381890D02*
D03*
X385827D02*
D03*
X389764D02*
D03*
X393701D02*
D03*
X397638D02*
D03*
X401575D02*
D03*
X405512D02*
D03*
X409449D02*
D03*
X350394Y220472D02*
D03*
X354331D02*
D03*
X358268D02*
D03*
X362205D02*
D03*
X366142D02*
D03*
X370079D02*
D03*
X374016D02*
D03*
X377953D02*
D03*
X381890D02*
D03*
X385827D02*
D03*
X389764D02*
D03*
X393701D02*
D03*
X397638D02*
D03*
X401575D02*
D03*
X405512D02*
D03*
X409449D02*
D03*
X350394Y216535D02*
D03*
X354331D02*
D03*
X358268D02*
D03*
X362205D02*
D03*
X366142D02*
D03*
X370079D02*
D03*
X374016D02*
D03*
X377953D02*
D03*
X381890D02*
D03*
X385827D02*
D03*
X389764D02*
D03*
X393701D02*
D03*
X397638D02*
D03*
X401575D02*
D03*
X405512D02*
D03*
X409449D02*
D03*
X350394Y212598D02*
D03*
X354331D02*
D03*
X358268D02*
D03*
X362205D02*
D03*
X366142D02*
D03*
X370079D02*
D03*
X374016D02*
D03*
X377953D02*
D03*
X381890D02*
D03*
X385827D02*
D03*
X389764D02*
D03*
X393701D02*
D03*
X397638D02*
D03*
X401575D02*
D03*
X405512D02*
D03*
X409449D02*
D03*
X350394Y208661D02*
D03*
X354331D02*
D03*
X358268D02*
D03*
X362205D02*
D03*
X366142D02*
D03*
X370079D02*
D03*
X374016D02*
D03*
X377953D02*
D03*
X381890D02*
D03*
X385827D02*
D03*
X389764D02*
D03*
X393701D02*
D03*
X397638D02*
D03*
X401575D02*
D03*
X405512D02*
D03*
X409449D02*
D03*
X350394Y204724D02*
D03*
X354331D02*
D03*
X358268D02*
D03*
X362205D02*
D03*
X366142D02*
D03*
X370079D02*
D03*
X374016D02*
D03*
X377953D02*
D03*
X381890D02*
D03*
X385827D02*
D03*
X389764D02*
D03*
X393701D02*
D03*
X397638D02*
D03*
X401575D02*
D03*
X405512D02*
D03*
X409449D02*
D03*
X350394Y200787D02*
D03*
X354331D02*
D03*
X358268D02*
D03*
X362205D02*
D03*
X366142D02*
D03*
X370079D02*
D03*
X374016D02*
D03*
X377953D02*
D03*
X381890D02*
D03*
X385827D02*
D03*
X389764D02*
D03*
X393701D02*
D03*
X397638D02*
D03*
X401575D02*
D03*
X405512D02*
D03*
X409449D02*
D03*
X350394Y196850D02*
D03*
X354331D02*
D03*
X358268D02*
D03*
X362205D02*
D03*
X366142D02*
D03*
X370079D02*
D03*
X374016D02*
D03*
X377953D02*
D03*
X381890D02*
D03*
X385827D02*
D03*
X389764D02*
D03*
X393701D02*
D03*
X397638D02*
D03*
X401575D02*
D03*
X405512D02*
D03*
X409449D02*
D03*
D68*
X378860Y295002D02*
D03*
Y288309D02*
D03*
X386045Y295002D02*
D03*
Y288309D02*
D03*
X395482Y295002D02*
D03*
Y288309D02*
D03*
X402667Y295002D02*
D03*
Y288309D02*
D03*
X409852Y295002D02*
D03*
Y288309D02*
D03*
X455500Y205516D02*
D03*
Y212209D02*
D03*
X447500Y205516D02*
D03*
Y212209D02*
D03*
X371675Y288309D02*
D03*
Y295002D02*
D03*
X323500Y148153D02*
D03*
Y154847D02*
D03*
D69*
X378122Y331500D02*
D03*
Y336500D02*
D03*
Y341500D02*
D03*
Y346500D02*
D03*
X355878Y331500D02*
D03*
Y336500D02*
D03*
Y341500D02*
D03*
Y346500D02*
D03*
X424508Y331083D02*
D03*
Y336083D02*
D03*
Y341083D02*
D03*
Y346083D02*
D03*
X402264Y331083D02*
D03*
Y336083D02*
D03*
Y341083D02*
D03*
Y346083D02*
D03*
D70*
X441339Y251181D02*
D03*
X433465D02*
D03*
D71*
X455500Y192016D02*
D03*
Y198709D02*
D03*
X447500Y192016D02*
D03*
Y198709D02*
D03*
X371791Y272551D02*
D03*
Y279244D02*
D03*
X378886Y272551D02*
D03*
Y279244D02*
D03*
X385980Y272551D02*
D03*
Y279244D02*
D03*
X395870Y272551D02*
D03*
Y279244D02*
D03*
X402965Y272551D02*
D03*
Y279244D02*
D03*
X410059Y272551D02*
D03*
Y279244D02*
D03*
X390000Y332347D02*
D03*
Y325654D02*
D03*
X437500Y332347D02*
D03*
Y325654D02*
D03*
X323500Y133307D02*
D03*
Y140000D02*
D03*
X332500Y148653D02*
D03*
Y155347D02*
D03*
X390748Y167323D02*
D03*
Y174016D02*
D03*
X453000Y134653D02*
D03*
Y141347D02*
D03*
X459000Y141347D02*
D03*
Y134653D02*
D03*
D72*
X454654Y355000D02*
D03*
X461346D02*
D03*
X410000D02*
D03*
X416693D02*
D03*
X364653D02*
D03*
X371346D02*
D03*
X316653Y185500D02*
D03*
X323346D02*
D03*
X323500Y296000D02*
D03*
X330193D02*
D03*
X330346Y276000D02*
D03*
X323654D02*
D03*
X432846Y233500D02*
D03*
X426154D02*
D03*
X298819Y262795D02*
D03*
X305512D02*
D03*
X298819Y269685D02*
D03*
X305512D02*
D03*
D73*
X304913Y225197D02*
D03*
X301669D02*
D03*
X298425D02*
D03*
X304819Y236614D02*
D03*
X301575D02*
D03*
X298331D02*
D03*
X428378Y241500D02*
D03*
X431622D02*
D03*
X427878Y224500D02*
D03*
X431122D02*
D03*
D74*
X444500Y228244D02*
D03*
Y233756D02*
D03*
X425000Y267244D02*
D03*
Y272756D02*
D03*
X453500Y250756D02*
D03*
Y245244D02*
D03*
D75*
X348244Y183000D02*
D03*
X353756D02*
D03*
X358244Y317000D02*
D03*
X363756D02*
D03*
X376756D02*
D03*
X371244D02*
D03*
X410756D02*
D03*
X405244D02*
D03*
X422756D02*
D03*
X417244D02*
D03*
X459756Y183500D02*
D03*
X454244D02*
D03*
X459756Y177000D02*
D03*
X454244D02*
D03*
X440244Y141000D02*
D03*
X445756D02*
D03*
X440244Y135000D02*
D03*
X445756D02*
D03*
X464756Y128000D02*
D03*
X459244D02*
D03*
D76*
X438500Y228689D02*
D03*
Y232311D02*
D03*
X309000Y174000D02*
D03*
Y170378D02*
D03*
X447500Y250311D02*
D03*
Y246689D02*
D03*
D77*
X359189Y324000D02*
D03*
X362811D02*
D03*
X375811D02*
D03*
X372189D02*
D03*
X410000D02*
D03*
X406378D02*
D03*
X421811D02*
D03*
X418189D02*
D03*
X441189Y130000D02*
D03*
X444811D02*
D03*
D78*
X454000Y232622D02*
D03*
Y229378D02*
D03*
X390000Y342622D02*
D03*
Y339378D02*
D03*
X437500Y342000D02*
D03*
Y338757D02*
D03*
X453150Y263479D02*
D03*
Y260236D02*
D03*
D79*
X316260Y176724D02*
D03*
X323740D02*
D03*
Y167276D02*
D03*
D80*
X317047D02*
D03*
D81*
X460039Y150394D02*
D03*
Y159449D02*
D03*
Y168504D02*
D03*
D82*
X437598Y159449D02*
D03*
D83*
X346772Y373622D02*
D03*
X345158Y160433D02*
D03*
D84*
X336772Y373622D02*
D03*
X326772D02*
D03*
X316772D02*
D03*
X375157Y160433D02*
D03*
X365158D02*
D03*
X355157D02*
D03*
D85*
X372496Y372590D02*
D03*
X470882D02*
D03*
D86*
X399878Y367000D02*
D03*
X416236Y378181D02*
D03*
X421689Y367000D02*
D03*
X438047Y378181D02*
D03*
X410783Y367000D02*
D03*
X427142Y378181D02*
D03*
X432594Y367000D02*
D03*
X405331Y378181D02*
D03*
D87*
X443500Y367000D02*
D03*
D88*
X456500Y336000D02*
D03*
X306500D02*
D03*
X376500Y136000D02*
D03*
D89*
X476500Y126000D02*
D03*
Y136000D02*
D03*
Y146000D02*
D03*
Y156000D02*
D03*
Y166000D02*
D03*
Y176000D02*
D03*
Y186000D02*
D03*
Y196000D02*
D03*
Y206000D02*
D03*
Y216000D02*
D03*
Y226000D02*
D03*
Y236000D02*
D03*
Y246000D02*
D03*
Y256000D02*
D03*
Y266000D02*
D03*
Y276000D02*
D03*
Y286000D02*
D03*
Y296000D02*
D03*
Y306000D02*
D03*
X286500Y126000D02*
D03*
Y136000D02*
D03*
Y146000D02*
D03*
Y156000D02*
D03*
Y166000D02*
D03*
Y176000D02*
D03*
Y186000D02*
D03*
Y196000D02*
D03*
Y206000D02*
D03*
Y216000D02*
D03*
Y226000D02*
D03*
Y236000D02*
D03*
Y246000D02*
D03*
Y256000D02*
D03*
Y266000D02*
D03*
Y276000D02*
D03*
Y286000D02*
D03*
Y296000D02*
D03*
Y306000D02*
D03*
D90*
X476500Y316000D02*
D03*
X286500D02*
D03*
D91*
X476500Y106000D02*
D03*
X466500D02*
D03*
X456500D02*
D03*
X446500D02*
D03*
X436500D02*
D03*
X426500D02*
D03*
X416500D02*
D03*
X406500D02*
D03*
X396500D02*
D03*
X386500D02*
D03*
X376500D02*
D03*
X366500D02*
D03*
X356500D02*
D03*
X346500D02*
D03*
X336500D02*
D03*
X326500D02*
D03*
X316500D02*
D03*
X306500D02*
D03*
X296500D02*
D03*
D92*
X286500D02*
D03*
D93*
X312008Y266732D02*
D03*
M02*
