G04 Layer_Color=8388736*
%FSLAX25Y25*%
%MOIN*%
G70*
G01*
G75*
%ADD15C,0.01000*%
%ADD37R,0.07087X0.06299*%
%ADD38O,0.02965X0.06509*%
%ADD39O,0.06509X0.02965*%
%ADD40R,0.03300X0.05800*%
%ADD41R,0.06902X0.06902*%
%ADD42C,0.06902*%
%ADD43R,0.06902X0.06902*%
%ADD44C,0.06800*%
%ADD45R,0.06800X0.06800*%
%ADD46O,0.11800X0.06800*%
%ADD47R,0.11800X0.06800*%
%ADD48C,0.25800*%
%ADD49O,0.06800X0.11800*%
%ADD50R,0.06800X0.11800*%
%ADD51C,0.03200*%
%ADD52C,0.05800*%
%ADD53C,0.10800*%
D15*
X275591Y482283D02*
X277559D01*
X275591Y149606D02*
Y482283D01*
Y149606D02*
X494094D01*
Y482283D01*
X277559D02*
X494094D01*
D37*
X407874Y203543D02*
D03*
D38*
X405906Y394882D02*
D03*
X402756D02*
D03*
X399606D02*
D03*
X396457D02*
D03*
X393307D02*
D03*
X390157D02*
D03*
X387008D02*
D03*
X383858D02*
D03*
X380709D02*
D03*
X377559D02*
D03*
X374409D02*
D03*
X371260D02*
D03*
X368110D02*
D03*
X364961D02*
D03*
X361811D02*
D03*
X358661D02*
D03*
Y335039D02*
D03*
X361811D02*
D03*
X364961D02*
D03*
X368110D02*
D03*
X371260D02*
D03*
X374409D02*
D03*
X377559D02*
D03*
X380709D02*
D03*
X383858D02*
D03*
X387008D02*
D03*
X390157D02*
D03*
X393307D02*
D03*
X396457D02*
D03*
X399606D02*
D03*
X402756D02*
D03*
X405906D02*
D03*
D39*
X352362Y388583D02*
D03*
Y385433D02*
D03*
Y382283D02*
D03*
Y379134D02*
D03*
Y375984D02*
D03*
Y372835D02*
D03*
Y369685D02*
D03*
Y366535D02*
D03*
Y363386D02*
D03*
Y360236D02*
D03*
Y357087D02*
D03*
Y353937D02*
D03*
Y350787D02*
D03*
Y347638D02*
D03*
Y344488D02*
D03*
Y341339D02*
D03*
X412205D02*
D03*
Y344488D02*
D03*
Y347638D02*
D03*
Y350787D02*
D03*
Y353937D02*
D03*
Y357087D02*
D03*
Y360236D02*
D03*
Y363386D02*
D03*
Y366535D02*
D03*
Y369685D02*
D03*
Y372835D02*
D03*
Y375984D02*
D03*
Y379134D02*
D03*
Y382283D02*
D03*
Y385433D02*
D03*
Y388583D02*
D03*
D40*
X406252Y203543D02*
D03*
X409496D02*
D03*
D41*
X333300Y336300D02*
D03*
D42*
Y326300D02*
D03*
X410000Y190000D02*
D03*
X420000D02*
D03*
X394000Y416000D02*
D03*
X404000D02*
D03*
X300000D02*
D03*
X310000D02*
D03*
X346000D02*
D03*
X356000D02*
D03*
X300000Y446000D02*
D03*
X310000D02*
D03*
X346000D02*
D03*
X356000D02*
D03*
X404000D02*
D03*
X394000D02*
D03*
X454000D02*
D03*
X444000D02*
D03*
D43*
X430000Y190000D02*
D03*
X414000Y416000D02*
D03*
X320000D02*
D03*
X366000D02*
D03*
X320000Y446000D02*
D03*
X366000D02*
D03*
X414000D02*
D03*
X464000D02*
D03*
D44*
X410000Y250000D02*
D03*
X420000D02*
D03*
Y260000D02*
D03*
Y270000D02*
D03*
Y280000D02*
D03*
Y290000D02*
D03*
Y300000D02*
D03*
X360000D02*
D03*
X410000Y240000D02*
D03*
Y260000D02*
D03*
Y270000D02*
D03*
Y280000D02*
D03*
Y290000D02*
D03*
X350000Y300000D02*
D03*
X400000Y240000D02*
D03*
Y250000D02*
D03*
Y300000D02*
D03*
X360000Y310000D02*
D03*
X390000Y240000D02*
D03*
Y250000D02*
D03*
Y310000D02*
D03*
X400000D02*
D03*
X380000Y240000D02*
D03*
Y250000D02*
D03*
X410000Y300000D02*
D03*
X370000Y310000D02*
D03*
Y240000D02*
D03*
Y250000D02*
D03*
Y300000D02*
D03*
X380000D02*
D03*
X360000Y240000D02*
D03*
Y260000D02*
D03*
Y270000D02*
D03*
Y280000D02*
D03*
Y290000D02*
D03*
X380000Y310000D02*
D03*
X360000Y250000D02*
D03*
X350000D02*
D03*
Y260000D02*
D03*
Y270000D02*
D03*
Y280000D02*
D03*
Y290000D02*
D03*
X410000Y310000D02*
D03*
D45*
X390000Y300000D02*
D03*
D46*
X315000Y180000D02*
D03*
Y190000D02*
D03*
Y200000D02*
D03*
Y210000D02*
D03*
Y220000D02*
D03*
Y230000D02*
D03*
Y240000D02*
D03*
Y250000D02*
D03*
Y260000D02*
D03*
Y270000D02*
D03*
Y280000D02*
D03*
Y290000D02*
D03*
Y300000D02*
D03*
Y310000D02*
D03*
Y320000D02*
D03*
Y330000D02*
D03*
Y340000D02*
D03*
Y350000D02*
D03*
Y360000D02*
D03*
X455000Y180000D02*
D03*
Y190000D02*
D03*
Y200000D02*
D03*
Y210000D02*
D03*
Y220000D02*
D03*
Y230000D02*
D03*
Y240000D02*
D03*
Y250000D02*
D03*
Y260000D02*
D03*
Y270000D02*
D03*
Y280000D02*
D03*
Y290000D02*
D03*
Y300000D02*
D03*
Y310000D02*
D03*
Y320000D02*
D03*
Y330000D02*
D03*
Y340000D02*
D03*
Y350000D02*
D03*
Y360000D02*
D03*
X480000Y180000D02*
D03*
Y190000D02*
D03*
Y200000D02*
D03*
Y210000D02*
D03*
Y220000D02*
D03*
Y230000D02*
D03*
Y240000D02*
D03*
Y250000D02*
D03*
Y260000D02*
D03*
Y270000D02*
D03*
Y280000D02*
D03*
Y290000D02*
D03*
Y300000D02*
D03*
Y310000D02*
D03*
Y320000D02*
D03*
Y330000D02*
D03*
Y340000D02*
D03*
Y350000D02*
D03*
Y360000D02*
D03*
X290000Y180000D02*
D03*
Y190000D02*
D03*
Y200000D02*
D03*
Y210000D02*
D03*
Y220000D02*
D03*
Y230000D02*
D03*
Y240000D02*
D03*
Y250000D02*
D03*
Y260000D02*
D03*
Y270000D02*
D03*
Y280000D02*
D03*
Y290000D02*
D03*
Y300000D02*
D03*
Y310000D02*
D03*
Y320000D02*
D03*
Y330000D02*
D03*
Y340000D02*
D03*
Y350000D02*
D03*
Y360000D02*
D03*
D47*
X315000Y370000D02*
D03*
X455000D02*
D03*
X480000D02*
D03*
X290000D02*
D03*
D48*
X460000Y390000D02*
D03*
X310000D02*
D03*
X380000Y190000D02*
D03*
D49*
X480000Y160000D02*
D03*
X470000D02*
D03*
X460000D02*
D03*
X450000D02*
D03*
X440000D02*
D03*
X430000D02*
D03*
X420000D02*
D03*
X410000D02*
D03*
X400000D02*
D03*
X390000D02*
D03*
X380000D02*
D03*
X370000D02*
D03*
X360000D02*
D03*
X350000D02*
D03*
X340000D02*
D03*
X330000D02*
D03*
X320000D02*
D03*
X310000D02*
D03*
X300000D02*
D03*
D50*
X290000D02*
D03*
D51*
X403937Y257087D02*
D03*
X367323Y275590D02*
D03*
X342520Y302756D02*
D03*
X366929Y292126D02*
D03*
X374803Y315354D02*
D03*
X338600Y346800D02*
D03*
X390551Y229921D02*
D03*
X389764Y256299D02*
D03*
X371653Y344881D02*
D03*
X444882Y283465D02*
D03*
X344488Y370079D02*
D03*
X360236Y362205D02*
D03*
X433500Y253100D02*
D03*
Y295600D02*
D03*
X423850Y308400D02*
D03*
X303100Y325500D02*
D03*
X346100Y310000D02*
D03*
X340800Y336800D02*
D03*
Y318000D02*
D03*
X331643D02*
D03*
X406900Y284300D02*
D03*
X430200Y377200D02*
D03*
X399400D02*
D03*
X280300Y270000D02*
D03*
Y444600D02*
D03*
X373900Y441500D02*
D03*
X385200Y288650D02*
D03*
X430300Y266600D02*
D03*
X382600Y315000D02*
D03*
X365500Y232000D02*
D03*
X446200Y381500D02*
D03*
X326000Y316100D02*
D03*
X348800Y317100D02*
D03*
X371700Y377200D02*
D03*
X401900Y373400D02*
D03*
X419700D02*
D03*
X447200Y274500D02*
D03*
X432495Y305800D02*
D03*
X328950Y428600D02*
D03*
X360250Y435300D02*
D03*
X376500Y431000D02*
D03*
X423450Y383300D02*
D03*
X378673Y439573D02*
D03*
X405100Y408400D02*
D03*
X430100Y361568D02*
D03*
X354800Y328600D02*
D03*
X394450Y436950D02*
D03*
X326900Y365300D02*
D03*
X441900Y368268D02*
D03*
X404000Y456000D02*
D03*
X467800Y280000D02*
D03*
X315300Y375300D02*
D03*
X304800Y280000D02*
D03*
D52*
X338646Y372835D02*
D03*
X334700Y429250D02*
D03*
X374000Y268000D02*
D03*
X426825Y395975D02*
D03*
X390550Y356000D02*
D03*
X422400Y400400D02*
D03*
D53*
X395276Y264567D02*
D03*
M02*
