G04 Layer_Physical_Order=2*
G04 Layer_Color=16711680*
%FSLAX25Y25*%
%MOIN*%
G70*
G01*
G75*
%ADD13C,0.00700*%
%ADD14C,0.01600*%
%ADD15C,0.01000*%
%ADD16R,0.06102X0.06102*%
%ADD17C,0.06102*%
%ADD18R,0.06102X0.06102*%
%ADD19C,0.06000*%
%ADD20R,0.06000X0.06000*%
%ADD21O,0.11000X0.06000*%
%ADD22R,0.11000X0.06000*%
%ADD23C,0.25000*%
%ADD24O,0.06000X0.11000*%
%ADD25R,0.06000X0.11000*%
%ADD26C,0.02400*%
%ADD27C,0.05000*%
%ADD28C,0.10000*%
G04:AMPARAMS|DCode=29|XSize=39.37mil|YSize=35.43mil|CornerRadius=4.43mil|HoleSize=0mil|Usage=FLASHONLY|Rotation=0.000|XOffset=0mil|YOffset=0mil|HoleType=Round|Shape=RoundedRectangle|*
%AMROUNDEDRECTD29*
21,1,0.03937,0.02657,0,0,0.0*
21,1,0.03051,0.03543,0,0,0.0*
1,1,0.00886,0.01526,-0.01329*
1,1,0.00886,-0.01526,-0.01329*
1,1,0.00886,-0.01526,0.01329*
1,1,0.00886,0.01526,0.01329*
%
%ADD29ROUNDEDRECTD29*%
G04:AMPARAMS|DCode=30|XSize=39.37mil|YSize=35.43mil|CornerRadius=4.43mil|HoleSize=0mil|Usage=FLASHONLY|Rotation=270.000|XOffset=0mil|YOffset=0mil|HoleType=Round|Shape=RoundedRectangle|*
%AMROUNDEDRECTD30*
21,1,0.03937,0.02657,0,0,270.0*
21,1,0.03051,0.03543,0,0,270.0*
1,1,0.00886,-0.01329,-0.01526*
1,1,0.00886,-0.01329,0.01526*
1,1,0.00886,0.01329,0.01526*
1,1,0.00886,0.01329,-0.01526*
%
%ADD30ROUNDEDRECTD30*%
%ADD31R,0.07087X0.05512*%
%ADD32C,0.01200*%
D13*
X440124Y287008D02*
X444291Y291175D01*
X430592Y287008D02*
X440124D01*
X427600Y290000D02*
X430592Y287008D01*
X403937Y252963D02*
Y257087D01*
Y252963D02*
X405500Y251400D01*
X387275Y275775D02*
X395800Y284300D01*
X367508Y275775D02*
X387275D01*
X367323Y275590D02*
X367508Y275775D01*
X346457Y294882D02*
X364173D01*
X342520Y298819D02*
Y302756D01*
X364173Y294882D02*
X366929Y292126D01*
X342520Y298819D02*
X346457Y294882D01*
X366350Y295500D02*
X375500D01*
X364400Y297450D02*
X366350Y295500D01*
X374803Y321703D02*
X380659Y327559D01*
X374803Y315354D02*
Y321703D01*
X355600Y285600D02*
X360000Y290000D01*
X345700Y285600D02*
X355600D01*
X428740Y284252D02*
X444095D01*
X444882Y283465D01*
X437498Y340451D02*
X437598Y340551D01*
X437498Y333900D02*
Y340451D01*
X342154Y345484D02*
X344094Y347425D01*
X342154Y344500D02*
Y345484D01*
X337257Y350676D02*
X344094D01*
Y347425D02*
Y350676D01*
X346400Y349400D02*
X359205Y362205D01*
X333300Y346718D02*
X337257Y350676D01*
X338600Y333645D02*
Y346800D01*
Y333645D02*
X346445Y325800D01*
X360000Y310000D02*
Y310935D01*
X350736Y320199D02*
X360000Y310935D01*
X368681Y344950D02*
X370762Y347031D01*
X368350Y344950D02*
X368681D01*
X360200Y336800D02*
X368350Y344950D01*
X340800Y336800D02*
X360200D01*
X346445Y325800D02*
X364548D01*
X368700Y342500D02*
X382700D01*
X354800Y328600D02*
X368700Y342500D01*
X374500Y237350D02*
X381929Y229921D01*
X390551D01*
X360000Y253225D02*
X365224Y258449D01*
X390654D01*
X391603Y257500D02*
X398700D01*
X390654Y258449D02*
X391603Y257500D01*
X389764Y256299D02*
X390201D01*
X394100Y252400D01*
X397600D01*
X386181Y342519D02*
X387007D01*
X386150Y342550D02*
X386181Y342519D01*
X383359Y344881D02*
X384850Y343390D01*
Y337950D02*
Y343390D01*
X386150Y342550D02*
Y343929D01*
X387800Y334900D02*
X389682Y336782D01*
Y344488D01*
X386100Y327154D02*
Y336700D01*
X384355Y325409D02*
X386100Y327154D01*
X383609Y325409D02*
X384355D01*
X380000Y321800D02*
X383609Y325409D01*
X380659Y327559D02*
X383465D01*
X384850Y337950D02*
X386100Y336700D01*
X371653Y344881D02*
X383359D01*
X383048Y347031D02*
X386150Y343929D01*
X370762Y347031D02*
X383048D01*
X444291Y350394D02*
Y352485D01*
X444488Y352682D01*
Y353937D01*
X441718Y335827D02*
X444291Y338400D01*
X440551Y335827D02*
X441718D01*
X437598Y330709D02*
Y333800D01*
X437498Y333900D02*
X437598Y333800D01*
X430200Y312100D02*
X434252Y316152D01*
X440945Y329153D02*
X442500Y330709D01*
X443095Y314995D02*
X448100Y320000D01*
X443095Y314858D02*
Y314995D01*
X441835Y313598D02*
X443095Y314858D01*
X441698Y313598D02*
X441835D01*
X440900Y312800D02*
X441698Y313598D01*
X440945Y315748D02*
Y329153D01*
X440900Y306344D02*
Y312800D01*
Y306344D02*
X441339Y305906D01*
X446614Y290000D02*
X455000D01*
X445276Y291339D02*
X446614Y290000D01*
X444291Y291339D02*
X445276D01*
X426492Y286500D02*
X428740Y284252D01*
X423500Y286500D02*
X426492D01*
X425526Y282574D02*
X442732D01*
X445772Y281315D02*
X449212Y284754D01*
X461258D01*
X443991Y281315D02*
X445772D01*
X442732Y282574D02*
X443991Y281315D01*
X420000Y280000D02*
X455000D01*
X331954Y376250D02*
X333656Y377953D01*
X344488Y370079D02*
Y374016D01*
X333656Y377953D02*
X340551D01*
X344488Y374016D01*
X347100Y379134D02*
X356234Y370000D01*
X331954Y366900D02*
Y376250D01*
X356234Y370000D02*
X377307D01*
X359205Y362205D02*
X360236D01*
X329961Y265000D02*
X355000D01*
X324961Y260000D02*
X329961Y265000D01*
X315000Y260000D02*
X324961D01*
X448500Y240000D02*
X455000D01*
X422600D02*
X446600D01*
X405500Y251400D02*
Y253650D01*
X333300Y336300D02*
Y346718D01*
X331954Y360278D02*
Y366900D01*
X331800Y360124D02*
X331954Y360278D01*
X328239Y360124D02*
X331800D01*
X446600Y240000D02*
X448500D01*
X433500Y253100D02*
X446600Y240000D01*
X433500Y295600D02*
Y303600D01*
X435100Y305200D01*
Y307050D01*
X433750Y308400D02*
X435100Y307050D01*
X423850Y308400D02*
X433750D01*
X410000Y250000D02*
X412600D01*
X422600Y240000D01*
X420000Y270000D02*
X455000D01*
X302000Y325600D02*
Y342000D01*
Y325600D02*
X302100Y325500D01*
X303100D01*
X315000Y200000D02*
X330000D01*
X370000Y240000D01*
X437598Y301181D02*
Y311024D01*
Y350394D02*
Y360236D01*
Y311024D02*
Y320866D01*
Y330709D01*
X315000Y310000D02*
X346100D01*
X346200D01*
X357400Y300000D01*
X360000D01*
X331643Y318000D02*
X340800D01*
X395800Y284300D02*
X406900D01*
X420000Y290000D02*
X423500Y286500D01*
X448500Y300000D02*
X455000D01*
X447319Y301181D02*
X448500Y300000D01*
X444291Y301181D02*
X447319D01*
X448500Y310000D02*
X455000D01*
X447476Y311024D02*
X448500Y310000D01*
X444291Y311024D02*
X447476D01*
X448100Y320000D02*
X448500D01*
X399400Y377200D02*
X430200D01*
X448500Y320000D02*
X455000D01*
X447634Y320866D02*
X448500Y320000D01*
X444291Y320866D02*
X447634D01*
X448500Y330000D02*
X455000D01*
X447791Y330709D02*
X448500Y330000D01*
X444291Y330709D02*
X447791D01*
X448500Y340000D02*
X455000D01*
X447949Y340551D02*
X448500Y340000D01*
X444291Y340551D02*
X447949D01*
X448500Y350000D02*
X455000D01*
X448106Y350394D02*
X448500Y350000D01*
X444291Y350394D02*
X448106D01*
X448500Y360000D02*
X455000D01*
X448264Y360236D02*
X448500Y360000D01*
X444291Y360236D02*
X448264D01*
X280300Y270000D02*
X290000D01*
X280300Y444600D02*
X288700Y453000D01*
X372500D01*
X373900Y451600D01*
Y441500D02*
Y451600D01*
X315000Y280000D02*
X350000D01*
X315000Y270000D02*
X350000D01*
X374000Y279346D02*
X382000D01*
X399346Y420654D02*
Y428000D01*
Y420654D02*
X404000Y416000D01*
X297807Y348693D02*
X302000D01*
X296500Y350000D02*
X297807Y348693D01*
X290000Y350000D02*
X296500D01*
X414546Y245650D02*
X430196Y230000D01*
X405500Y247600D02*
Y251400D01*
X385200Y288650D02*
Y321200D01*
X389600Y325600D01*
Y334192D01*
X390508Y335100D01*
X404556D01*
X405906Y333750D01*
Y330400D02*
Y333750D01*
X417500Y252500D02*
X420000Y250000D01*
X415400Y252500D02*
X417500D01*
X413400Y254500D02*
X415400Y252500D01*
X406350Y254500D02*
X413400D01*
X405500Y253650D02*
X406350Y254500D01*
X405500Y247600D02*
X407450Y245650D01*
X414546D01*
X430196Y230000D02*
X455000D01*
X467600Y185454D02*
Y187600D01*
X467700Y187700D01*
X471200D01*
X473500Y190000D01*
X480000D01*
X327704Y260000D02*
X350000D01*
X326454Y258750D02*
X327704Y260000D01*
X326454Y255200D02*
Y258750D01*
X302500Y230000D02*
X315000D01*
X297300Y235200D02*
X302500Y230000D01*
X284550Y235200D02*
X297300D01*
X283100Y233750D02*
X284550Y235200D01*
X283100Y226250D02*
Y233750D01*
Y226250D02*
X284750Y224600D01*
X299700D01*
X308100Y216200D01*
Y186250D02*
Y216200D01*
Y186250D02*
X309850Y184500D01*
X326500D01*
X340800Y170200D01*
X451300D01*
X454400Y167100D01*
Y155000D02*
Y167100D01*
X452500Y153100D02*
X454400Y155000D01*
X431250Y153100D02*
X452500D01*
X430000Y154350D02*
X431250Y153100D01*
X430000Y154350D02*
Y160000D01*
X322800Y231300D02*
X326054D01*
X321500Y230000D02*
X322800Y231300D01*
X315000Y230000D02*
X321500D01*
X442550Y200000D02*
X455000D01*
X441300Y198750D02*
X442550Y200000D01*
X441300Y180300D02*
Y198750D01*
X400300Y180300D02*
X441300D01*
X400300D02*
Y239700D01*
X400000Y240000D02*
X400300Y239700D01*
X435300Y260000D02*
X455000D01*
X430800Y255500D02*
X435300Y260000D01*
X416750Y255500D02*
X430800D01*
X416150Y256100D02*
X416750Y255500D01*
X413900Y256100D02*
X416150D01*
X410000Y260000D02*
X413900Y256100D01*
X360000Y250000D02*
Y253225D01*
X398700Y257500D02*
X405600Y264400D01*
X428100D01*
X430300Y266600D01*
X374500Y237350D02*
Y244200D01*
X374200Y244500D02*
X374500Y244200D01*
X368000Y244500D02*
X374200D01*
X363500Y240000D02*
X368000Y244500D01*
X360000Y240000D02*
X363500D01*
X420000Y260000D02*
X432200D01*
X436700Y264500D01*
X463900D01*
X465900Y262500D01*
Y251250D02*
Y262500D01*
X464650Y250000D02*
X465900Y251250D01*
X455000Y250000D02*
X464650D01*
X382600Y315000D02*
Y321004D01*
X387800Y326204D01*
Y334900D01*
X315000Y190000D02*
X323500D01*
X365500Y232000D01*
X439494Y381500D02*
X446200D01*
X432294Y374300D02*
X439494Y381500D01*
X424057Y374300D02*
X432294D01*
X420557Y370800D02*
X424057Y374300D01*
X418164Y370800D02*
X420557D01*
X407600Y360236D02*
X418164Y370800D01*
X449300Y180000D02*
X455000D01*
X444700Y175400D02*
X449300Y180000D01*
X398850Y175400D02*
X444700D01*
X396762Y177488D02*
X398850Y175400D01*
X396762Y177488D02*
Y233238D01*
X390000Y240000D02*
X396762Y233238D01*
X326000Y316100D02*
X327550D01*
X328550Y315100D01*
X346800D01*
X348800Y317100D01*
X315000Y330000D02*
X322450D01*
X323700Y328750D01*
Y321499D02*
Y328750D01*
Y321499D02*
X325000Y320199D01*
X350736D01*
X364548Y325800D02*
X370000Y320348D01*
Y310000D02*
Y320348D01*
X375500Y295500D02*
X380000Y300000D01*
X364400Y297450D02*
Y302500D01*
X362400Y304500D02*
X364400Y302500D01*
X357200Y304500D02*
X362400D01*
X348400Y313300D02*
X357200Y304500D01*
X324400Y313300D02*
X348400D01*
X322700Y315000D02*
X324400Y313300D01*
X284350Y315000D02*
X322700D01*
X283100Y316250D02*
X284350Y315000D01*
X283100Y316250D02*
Y352500D01*
X285100Y354500D01*
X296800D01*
X302300Y360000D01*
X315000D01*
X366000Y382900D02*
Y416000D01*
Y382900D02*
X371700Y377200D01*
X380000Y310000D02*
Y321800D01*
X443650Y291339D02*
X444291D01*
X443650D02*
X443813Y291175D01*
X444291D01*
X424400Y304350D02*
X427600Y301150D01*
X417450Y304350D02*
X424400D01*
X415500Y302400D02*
X417450Y304350D01*
X415500Y298200D02*
Y302400D01*
X412800Y295500D02*
X415500Y298200D01*
X407350Y295500D02*
X412800D01*
X405500Y293650D02*
X407350Y295500D01*
X405500Y285700D02*
Y293650D01*
Y285700D02*
X406900Y284300D01*
X401900Y373400D02*
X419700D01*
X410000Y290000D02*
X414900Y285100D01*
Y275750D02*
Y285100D01*
Y275750D02*
X416150Y274500D01*
X447200D01*
X415500Y295500D02*
X420000Y300000D01*
X415500Y287600D02*
Y295500D01*
Y287600D02*
X418350Y284750D01*
X423350D01*
X425526Y282574D01*
X455000Y320000D02*
X461504D01*
X410000Y310000D02*
X420100D01*
X422200Y312100D01*
X430200D01*
X442500Y330709D02*
X444291D01*
X410000Y300000D02*
X413950Y303950D01*
Y305900D01*
X426050Y306050D01*
X432495Y305800D01*
X444291Y338400D02*
Y340551D01*
X400000Y300000D02*
X403700D01*
X405600Y301900D01*
Y313350D01*
X433400Y347100D02*
Y362400D01*
X434500Y363500D01*
X439900D01*
X442100Y361300D01*
X444291Y360236D01*
X328950Y428600D02*
X332550Y425000D01*
X376200D01*
X399800Y401400D01*
X407000D01*
X278950Y250000D02*
X290000D01*
X277700Y251250D02*
X278950Y250000D01*
X277700Y251250D02*
Y430950D01*
X297350Y450600D01*
X328700D01*
X344000Y435300D01*
X360250D01*
X290000Y260000D02*
X295650D01*
X296900Y261250D01*
Y273750D01*
X295650Y275000D02*
X296900Y273750D01*
X283100Y275000D02*
X295650D01*
X279600Y278500D02*
X283100Y275000D01*
X279600Y278500D02*
Y381700D01*
X304600Y406700D01*
Y422900D01*
X314900Y433200D01*
X336450D01*
X339350Y430300D01*
X375800D01*
X376500Y431000D01*
X414600Y383300D02*
X423450D01*
X375399Y422501D02*
X414600Y383300D01*
X326501Y422501D02*
X375399D01*
X320000Y416000D02*
X326501Y422501D01*
X307500Y290000D02*
X315000D01*
X302500Y295000D02*
X307500Y290000D01*
X282650Y295000D02*
X302500D01*
X281500Y296150D02*
X282650Y295000D01*
X281500Y296150D02*
Y381100D01*
X316400Y416000D01*
X320000D01*
X315000Y290000D02*
X341300D01*
X345700Y285600D01*
X371100Y432000D02*
X378673Y439573D01*
X344300Y432000D02*
X371100D01*
X340350Y435950D02*
X344300Y432000D01*
X301250Y435950D02*
X340350D01*
X300000Y434700D02*
X301250Y435950D01*
X300000Y416000D02*
Y434700D01*
X398800Y440800D02*
X404000Y446000D01*
X393750Y440800D02*
X398800D01*
X391800Y438850D02*
X393750Y440800D01*
X391800Y436350D02*
Y438850D01*
Y436350D02*
X393850Y434300D01*
X404200D01*
X408600Y429900D01*
Y411900D02*
Y429900D01*
X405100Y408400D02*
X408600Y411900D01*
X346000Y416000D02*
X350801Y420801D01*
X370799D01*
X392200Y399400D01*
X302000Y348693D02*
X306900D01*
X311093Y344500D01*
X324650D01*
X327200Y341950D01*
Y332400D02*
Y341950D01*
Y332400D02*
X333300Y326300D01*
X430100Y361568D02*
X433632Y365100D01*
X462100D01*
X464000Y363200D01*
Y337500D02*
Y363200D01*
Y337500D02*
X466000Y335500D01*
X485150D01*
X486900Y333750D01*
Y177500D02*
Y333750D01*
X484900Y175500D02*
X486900Y177500D01*
X465000Y175500D02*
X484900D01*
X463000Y177500D02*
X465000Y175500D01*
X463000Y177500D02*
Y188750D01*
X461750Y190000D02*
X463000Y188750D01*
X455000Y190000D02*
X461750D01*
X444250D02*
X455000D01*
X443000Y188750D02*
X444250Y190000D01*
X443000Y178750D02*
Y188750D01*
X441550Y177300D02*
X443000Y178750D01*
X399762Y177300D02*
X441550D01*
X398600Y178462D02*
X399762Y177300D01*
X398600Y178462D02*
Y235248D01*
X395500Y238348D02*
X398600Y235248D01*
X395500Y238348D02*
Y244500D01*
X390000Y250000D02*
X395500Y244500D01*
X397600Y252400D02*
X400000Y250000D01*
X433100Y210000D02*
X455000D01*
X415000Y191900D02*
X433100Y210000D01*
X415000Y186750D02*
Y191900D01*
X413650Y185400D02*
X415000Y186750D01*
X407600Y185400D02*
X413650D01*
X405400Y187600D02*
X407600Y185400D01*
X405400Y187600D02*
Y244600D01*
X400000Y250000D02*
X405400Y244600D01*
X315000Y220000D02*
X340000D01*
X360000Y240000D01*
X434950Y436950D02*
X444000Y446000D01*
X394450Y436950D02*
X434950D01*
X365000Y305000D02*
X370000Y300000D01*
X365000Y305000D02*
Y319899D01*
X363000Y321899D02*
X365000Y319899D01*
X330751Y321899D02*
X363000D01*
X325499Y327151D02*
X330751Y321899D01*
X325499Y327151D02*
Y338750D01*
X324249Y340000D02*
X325499Y338750D01*
X315000Y340000D02*
X324249D01*
X322200Y370000D02*
X326900Y365300D01*
X315000Y370000D02*
X322200D01*
X323600Y373600D02*
X366000Y416000D01*
X323600Y371400D02*
Y373600D01*
X322200Y370000D02*
X323600Y371400D01*
X440632Y367000D02*
X441900Y368268D01*
X431430Y367000D02*
X440632D01*
X426400Y361970D02*
X431430Y367000D01*
X426400Y336400D02*
Y361970D01*
X400000Y310000D02*
X426400Y336400D01*
X360000Y290000D02*
X370654Y279346D01*
X374000D01*
X400000Y456000D02*
X404000D01*
X455000Y280000D02*
X467800D01*
X315300Y375300D02*
X356000Y416000D01*
X290000Y280000D02*
X304800D01*
X474146Y200000D02*
X480000D01*
X473100Y198954D02*
X474146Y200000D01*
X467400Y198954D02*
X473100D01*
X430000Y220000D02*
X455000D01*
X410000Y240000D02*
X430000Y220000D01*
X355000Y265000D02*
X360000Y270000D01*
X326454Y251250D02*
Y255200D01*
X325204Y250000D02*
X326454Y251250D01*
X315000Y250000D02*
X325204D01*
X326254Y241250D02*
Y244400D01*
X325004Y240000D02*
X326254Y241250D01*
X315000Y240000D02*
X325004D01*
X430000Y343700D02*
X433400Y347100D01*
X405600Y313350D02*
X406600Y314350D01*
X430000Y317100D02*
Y343700D01*
X406600Y314350D02*
X427250D01*
X430000Y317100D01*
X427600Y290000D02*
Y301150D01*
X461504Y320000D02*
X462754Y318750D01*
X461258Y284754D02*
X462754Y286250D01*
Y318750D01*
X437598Y291339D02*
Y301181D01*
Y340551D02*
Y345669D01*
Y350394D01*
D14*
X383346Y358750D02*
X384636Y360039D01*
X383346Y360236D02*
Y362600D01*
Y360236D02*
X383543Y360039D01*
X384636D01*
X363748Y349181D02*
X389769D01*
X359067Y344500D02*
X363748Y349181D01*
X348846Y344500D02*
X359067D01*
X366200Y349213D02*
Y356000D01*
X389769Y349181D02*
X393000Y345950D01*
Y338546D02*
Y345950D01*
X338646Y366900D02*
X364300D01*
X338646D02*
Y372835D01*
Y357500D02*
Y366900D01*
X388700Y448600D02*
X393250Y453150D01*
X366200Y356000D02*
X376654D01*
X366200D02*
Y365000D01*
X399400Y324100D02*
Y329450D01*
X420000Y160000D02*
Y167300D01*
X440000D01*
Y160000D02*
Y167300D01*
X458600Y451400D02*
X464000Y446000D01*
X395000Y451400D02*
X458600D01*
X393250Y453150D02*
X395000Y451400D01*
X393250Y453150D02*
X393307Y453207D01*
Y456000D01*
X335950Y428000D02*
X392654D01*
X334700Y429250D02*
X335950Y428000D01*
X384000Y363254D02*
Y370000D01*
X383346Y362600D02*
X384000Y363254D01*
X467400Y205646D02*
Y208750D01*
X468650Y210000D01*
X480000D01*
X396200Y338446D02*
X399400D01*
X396100Y338546D02*
X396200Y338446D01*
X393000Y338546D02*
X396100D01*
X382000Y272654D02*
X389100D01*
X397400Y280954D01*
X399800D01*
X290000Y230000D02*
X297700D01*
X302600Y225100D01*
X331150D01*
X332746Y226696D01*
Y231300D01*
X410000Y190000D02*
X435000Y215000D01*
X461050D01*
X462300Y216250D01*
Y238750D01*
X463550Y240000D01*
X480000D01*
X470750Y230000D02*
X480000D01*
X469500Y215200D02*
X470750Y230000D01*
X459500Y205200D02*
X469500Y215200D01*
X443450Y205200D02*
X459500D01*
X439050Y200800D02*
X443450Y205200D01*
X430000Y190000D02*
X439050Y200800D01*
X396200Y331754D02*
X399400D01*
X396100Y331854D02*
X396200Y331754D01*
X393000Y331854D02*
X396100D01*
X290000Y180000D02*
X302500D01*
X314500Y168000D01*
X398750D01*
X400000Y166750D01*
Y160000D02*
Y166750D01*
X374000Y268000D02*
Y272654D01*
X396500Y366732D02*
X399213D01*
X396300Y366932D02*
X396500Y366732D01*
X396300Y366932D02*
Y378650D01*
X397950Y380300D01*
X425100D01*
X426825Y382025D01*
Y395975D01*
X333146Y255200D02*
X353750D01*
X355000Y256450D01*
Y261788D01*
X358112Y264900D01*
X362600D01*
X365000Y262500D01*
X380750D01*
X382000Y263750D01*
Y272654D01*
X480000Y340000D02*
X488750D01*
X490000Y341250D01*
Y390500D01*
X464500Y416000D02*
X490000Y390500D01*
X414000Y416000D02*
X464500D01*
X332946Y244400D02*
X355000D01*
X355500Y244900D01*
X363850D01*
X365100Y246150D01*
Y252400D01*
X367600Y254900D01*
X372400D01*
X374900Y252400D01*
Y247244D02*
Y252400D01*
Y247244D02*
X376944Y245200D01*
Y243056D02*
Y245200D01*
Y243056D02*
X380000Y240000D01*
X399400Y329450D02*
Y331754D01*
Y329450D02*
X401550Y327300D01*
X407200D01*
X411400Y331500D01*
Y355777D01*
X427700Y372077D01*
X433410D01*
X437034Y375700D01*
X485350D01*
X487300Y373750D01*
Y351250D02*
Y373750D01*
X486050Y350000D02*
X487300Y351250D01*
X480000Y350000D02*
X486050D01*
X400000Y153950D02*
Y160000D01*
Y153950D02*
X401250Y152700D01*
X418750D01*
X420000Y153950D01*
Y160000D01*
X388700Y434009D02*
Y448600D01*
Y434009D02*
X392654Y430055D01*
Y428000D02*
Y430055D01*
X384636Y360039D02*
X399213D01*
X383346Y356000D02*
Y358750D01*
Y356000D02*
X390550D01*
X464648Y205646D02*
X467400D01*
X463600Y204598D02*
X464648Y205646D01*
X463600Y193546D02*
Y204598D01*
Y193546D02*
X465000Y192146D01*
X467600D01*
X336546Y355400D02*
X338646Y357500D01*
X322900Y355400D02*
X336546D01*
X322800Y355500D02*
X322900Y355400D01*
X322800Y355500D02*
Y363550D01*
X321350Y365000D02*
X322800Y363550D01*
X304200Y365000D02*
X321350D01*
X299200Y360000D02*
X304200Y365000D01*
X290000Y360000D02*
X299200D01*
X364300Y366900D02*
X366200Y365000D01*
X399400Y338446D02*
Y344400D01*
X403000Y348000D01*
Y365000D01*
X401268Y366732D02*
X403000Y365000D01*
X399213Y366732D02*
X401268D01*
X414000Y408800D02*
X422400Y400400D01*
X414000Y408800D02*
Y416000D01*
X332946Y237900D02*
Y244400D01*
X332746Y237700D02*
X332946Y237900D01*
X332746Y231300D02*
Y237700D01*
X333146Y249900D02*
Y255200D01*
X332946Y249700D02*
X333146Y249900D01*
X332946Y244400D02*
Y249700D01*
X399500Y324000D02*
X401346D01*
X399400Y324100D02*
X399500Y324000D01*
D15*
X437598Y345669D02*
X447638D01*
X448425Y344882D01*
X461024D01*
X462150Y343756D01*
Y327220D02*
Y343756D01*
Y327220D02*
X468110Y321260D01*
Y302362D02*
Y321260D01*
Y302362D02*
X470866Y299606D01*
X471260Y300000D01*
X480000D01*
X275591Y482283D02*
X277559D01*
X275591Y149606D02*
Y482283D01*
Y149606D02*
X494094D01*
Y482283D01*
X277559D02*
X494094D01*
D16*
X333300Y336300D02*
D03*
D17*
Y326300D02*
D03*
X410000Y190000D02*
D03*
X420000D02*
D03*
X394000Y416000D02*
D03*
X404000D02*
D03*
X300000D02*
D03*
X310000D02*
D03*
X346000D02*
D03*
X356000D02*
D03*
X300000Y446000D02*
D03*
X310000D02*
D03*
X346000D02*
D03*
X356000D02*
D03*
X404000D02*
D03*
X394000D02*
D03*
X454000D02*
D03*
X444000D02*
D03*
D18*
X430000Y190000D02*
D03*
X414000Y416000D02*
D03*
X320000D02*
D03*
X366000D02*
D03*
X320000Y446000D02*
D03*
X366000D02*
D03*
X414000D02*
D03*
X464000D02*
D03*
D19*
X410000Y250000D02*
D03*
X420000D02*
D03*
Y260000D02*
D03*
Y270000D02*
D03*
Y280000D02*
D03*
Y290000D02*
D03*
Y300000D02*
D03*
X360000D02*
D03*
X410000Y240000D02*
D03*
Y260000D02*
D03*
Y270000D02*
D03*
Y280000D02*
D03*
Y290000D02*
D03*
X350000Y300000D02*
D03*
X400000Y240000D02*
D03*
Y250000D02*
D03*
Y300000D02*
D03*
X360000Y310000D02*
D03*
X390000Y240000D02*
D03*
Y250000D02*
D03*
Y310000D02*
D03*
X400000D02*
D03*
X380000Y240000D02*
D03*
Y250000D02*
D03*
X410000Y300000D02*
D03*
X370000Y310000D02*
D03*
Y240000D02*
D03*
Y250000D02*
D03*
Y300000D02*
D03*
X380000D02*
D03*
X360000Y240000D02*
D03*
Y260000D02*
D03*
Y270000D02*
D03*
Y280000D02*
D03*
Y290000D02*
D03*
X380000Y310000D02*
D03*
X360000Y250000D02*
D03*
X350000D02*
D03*
Y260000D02*
D03*
Y270000D02*
D03*
Y280000D02*
D03*
Y290000D02*
D03*
X410000Y310000D02*
D03*
D20*
X390000Y300000D02*
D03*
D21*
X315000Y180000D02*
D03*
Y190000D02*
D03*
Y200000D02*
D03*
Y210000D02*
D03*
Y220000D02*
D03*
Y230000D02*
D03*
Y240000D02*
D03*
Y250000D02*
D03*
Y260000D02*
D03*
Y270000D02*
D03*
Y280000D02*
D03*
Y290000D02*
D03*
Y300000D02*
D03*
Y310000D02*
D03*
Y320000D02*
D03*
Y330000D02*
D03*
Y340000D02*
D03*
Y350000D02*
D03*
Y360000D02*
D03*
X455000Y180000D02*
D03*
Y190000D02*
D03*
Y200000D02*
D03*
Y210000D02*
D03*
Y220000D02*
D03*
Y230000D02*
D03*
Y240000D02*
D03*
Y250000D02*
D03*
Y260000D02*
D03*
Y270000D02*
D03*
Y280000D02*
D03*
Y290000D02*
D03*
Y300000D02*
D03*
Y310000D02*
D03*
Y320000D02*
D03*
Y330000D02*
D03*
Y340000D02*
D03*
Y350000D02*
D03*
Y360000D02*
D03*
X480000Y180000D02*
D03*
Y190000D02*
D03*
Y200000D02*
D03*
Y210000D02*
D03*
Y220000D02*
D03*
Y230000D02*
D03*
Y240000D02*
D03*
Y250000D02*
D03*
Y260000D02*
D03*
Y270000D02*
D03*
Y280000D02*
D03*
Y290000D02*
D03*
Y300000D02*
D03*
Y310000D02*
D03*
Y320000D02*
D03*
Y330000D02*
D03*
Y340000D02*
D03*
Y350000D02*
D03*
Y360000D02*
D03*
X290000Y180000D02*
D03*
Y190000D02*
D03*
Y200000D02*
D03*
Y210000D02*
D03*
Y220000D02*
D03*
Y230000D02*
D03*
Y240000D02*
D03*
Y250000D02*
D03*
Y260000D02*
D03*
Y270000D02*
D03*
Y280000D02*
D03*
Y290000D02*
D03*
Y300000D02*
D03*
Y310000D02*
D03*
Y320000D02*
D03*
Y330000D02*
D03*
Y340000D02*
D03*
Y350000D02*
D03*
Y360000D02*
D03*
D22*
X315000Y370000D02*
D03*
X455000D02*
D03*
X480000D02*
D03*
X290000D02*
D03*
D23*
X460000Y390000D02*
D03*
X310000D02*
D03*
X380000Y190000D02*
D03*
D24*
X480000Y160000D02*
D03*
X470000D02*
D03*
X460000D02*
D03*
X450000D02*
D03*
X440000D02*
D03*
X430000D02*
D03*
X420000D02*
D03*
X410000D02*
D03*
X400000D02*
D03*
X390000D02*
D03*
X380000D02*
D03*
X370000D02*
D03*
X360000D02*
D03*
X350000D02*
D03*
X340000D02*
D03*
X330000D02*
D03*
X320000D02*
D03*
X310000D02*
D03*
X300000D02*
D03*
D25*
X290000D02*
D03*
D26*
X403937Y257087D02*
D03*
X367323Y275590D02*
D03*
X342520Y302756D02*
D03*
X366929Y292126D02*
D03*
X374803Y315354D02*
D03*
X338600Y346800D02*
D03*
X390551Y229921D02*
D03*
X389764Y256299D02*
D03*
X387007Y342519D02*
D03*
X389682Y344488D02*
D03*
X383465Y327559D02*
D03*
X371653Y344881D02*
D03*
X382700Y342500D02*
D03*
X444488Y353937D02*
D03*
X440551Y335827D02*
D03*
X434252Y316152D02*
D03*
X440945Y315748D02*
D03*
X441339Y305906D02*
D03*
X444882Y283465D02*
D03*
X344488Y370079D02*
D03*
X347100Y379134D02*
D03*
X360236Y362205D02*
D03*
X433500Y253100D02*
D03*
Y295600D02*
D03*
X423850Y308400D02*
D03*
X303100Y325500D02*
D03*
X346100Y310000D02*
D03*
X340800Y336800D02*
D03*
Y318000D02*
D03*
X331643D02*
D03*
X406900Y284300D02*
D03*
X430200Y377200D02*
D03*
X399400D02*
D03*
X280300Y270000D02*
D03*
Y444600D02*
D03*
X373900Y441500D02*
D03*
X385200Y288650D02*
D03*
X405906Y330400D02*
D03*
X430300Y266600D02*
D03*
X382600Y315000D02*
D03*
X365500Y232000D02*
D03*
X446200Y381500D02*
D03*
X407600Y360236D02*
D03*
X326000Y316100D02*
D03*
X348800Y317100D02*
D03*
X371700Y377200D02*
D03*
X401900Y373400D02*
D03*
X419700D02*
D03*
X447200Y274500D02*
D03*
X432495Y305800D02*
D03*
X328950Y428600D02*
D03*
X407000Y401400D02*
D03*
X360250Y435300D02*
D03*
X376500Y431000D02*
D03*
X423450Y383300D02*
D03*
X378673Y439573D02*
D03*
X405100Y408400D02*
D03*
X392200Y399400D02*
D03*
X430100Y361568D02*
D03*
X354800Y328600D02*
D03*
X394450Y436950D02*
D03*
X326900Y365300D02*
D03*
X441900Y368268D02*
D03*
X404000Y456000D02*
D03*
X467800Y280000D02*
D03*
X315300Y375300D02*
D03*
X304800Y280000D02*
D03*
D27*
X338646Y372835D02*
D03*
X334700Y429250D02*
D03*
X374000Y268000D02*
D03*
X426825Y395975D02*
D03*
X390550Y356000D02*
D03*
X422400Y400400D02*
D03*
D28*
X395276Y264567D02*
D03*
D29*
X399213Y360039D02*
D03*
Y366732D02*
D03*
X467400Y198954D02*
D03*
Y205646D02*
D03*
X467600Y185454D02*
D03*
Y192146D02*
D03*
X393000Y331854D02*
D03*
Y338546D02*
D03*
X399400Y331754D02*
D03*
Y338446D02*
D03*
X399800Y280954D02*
D03*
Y287646D02*
D03*
X374000Y272654D02*
D03*
Y279346D02*
D03*
X382000D02*
D03*
Y272654D02*
D03*
X302000Y342000D02*
D03*
Y348693D02*
D03*
D30*
X326254Y244400D02*
D03*
X332946D02*
D03*
X332746Y231300D02*
D03*
X326054D02*
D03*
X326454Y255200D02*
D03*
X333146D02*
D03*
X401346Y324000D02*
D03*
X394654D02*
D03*
X383346Y356000D02*
D03*
X376654D02*
D03*
X384000Y370000D02*
D03*
X377307D02*
D03*
X399346Y428000D02*
D03*
X392654D02*
D03*
X393307Y456000D02*
D03*
X400000D02*
D03*
X444291Y301181D02*
D03*
X437598D02*
D03*
X444291Y291339D02*
D03*
X437598D02*
D03*
X444291Y340551D02*
D03*
X437598D02*
D03*
X444291Y330709D02*
D03*
X437598D02*
D03*
X444291Y320866D02*
D03*
X437598D02*
D03*
X444291Y360236D02*
D03*
X437598D02*
D03*
X444291Y350394D02*
D03*
X437598D02*
D03*
X444291Y311024D02*
D03*
X437598D02*
D03*
X342154Y344500D02*
D03*
X348846D02*
D03*
X331954Y366900D02*
D03*
X338646D02*
D03*
D31*
X328239Y350676D02*
D03*
X345561D02*
D03*
Y360124D02*
D03*
X328239D02*
D03*
D32*
X390000Y310000D02*
X394800Y305200D01*
Y289096D02*
Y305200D01*
Y289096D02*
X396250Y287646D01*
X399800D01*
X447000Y370000D02*
X455000D01*
X444700Y372300D02*
X447000Y370000D01*
X439100Y372300D02*
X444700D01*
X436400Y369600D02*
X439100Y372300D01*
X430130Y369600D02*
X436400D01*
X419500Y358970D02*
X430130Y369600D01*
X419500Y333400D02*
Y358970D01*
X406227Y320127D02*
X419500Y333400D01*
X400127Y320127D02*
X406227D01*
X390000Y310000D02*
X400127Y320127D01*
X455000Y370000D02*
X466250D01*
X473500Y362750D01*
Y360000D02*
Y362750D01*
Y360000D02*
X480000D01*
X390000Y310000D02*
Y322750D01*
X394654Y324000D01*
M02*
