G04*
G04 #@! TF.GenerationSoftware,Altium Limited,Altium Designer,19.0.14 (431)*
G04*
G04 Layer_Color=65535*
%FSLAX25Y25*%
%MOIN*%
G70*
G01*
G75*
%ADD10C,0.00984*%
%ADD11C,0.02362*%
%ADD12C,0.00394*%
%ADD13C,0.01000*%
%ADD14C,0.01181*%
G36*
X60550Y135000D02*
X61946D01*
Y134767D01*
X62644D01*
Y134535D01*
X63342D01*
Y134302D01*
X64040D01*
Y134069D01*
X64505D01*
Y133836D01*
X64738D01*
Y133604D01*
X65203D01*
Y133371D01*
X65668D01*
Y133138D01*
X66134D01*
Y132906D01*
X66366D01*
Y132673D01*
X66599D01*
Y132440D01*
X67064D01*
Y132208D01*
X67297D01*
Y131975D01*
X67530D01*
Y131742D01*
X67995D01*
Y131510D01*
X68228D01*
Y131277D01*
X68460D01*
Y131044D01*
X68693D01*
Y130812D01*
X68926D01*
Y130579D01*
X69159D01*
Y130346D01*
X69391D01*
Y130114D01*
X69624D01*
Y129881D01*
X69857D01*
Y129648D01*
X70089D01*
Y129416D01*
Y129183D01*
X70322D01*
Y128950D01*
X70555D01*
Y128718D01*
X70787D01*
Y128485D01*
X71020D01*
Y128252D01*
X71253D01*
Y128020D01*
Y127787D01*
X71485D01*
Y127554D01*
X71718D01*
Y127322D01*
X71951D01*
Y127089D01*
Y126856D01*
X72183D01*
Y126624D01*
X72416D01*
Y126391D01*
Y126158D01*
X72649D01*
Y125926D01*
X72881D01*
Y125693D01*
Y125460D01*
X73114D01*
Y125228D01*
Y124995D01*
X73347D01*
Y124762D01*
X73579D01*
Y124530D01*
Y124297D01*
X73812D01*
Y124064D01*
Y123831D01*
X74045D01*
Y123599D01*
X74277D01*
Y123366D01*
Y123134D01*
X74510D01*
Y122901D01*
Y122668D01*
X74743D01*
Y122435D01*
Y122203D01*
X74975D01*
Y121970D01*
Y121738D01*
X75208D01*
Y121505D01*
Y121272D01*
Y121039D01*
X75441D01*
Y120807D01*
Y120574D01*
X75673D01*
Y120342D01*
Y120109D01*
X75906D01*
Y119876D01*
Y119643D01*
X76139D01*
Y119411D01*
Y119178D01*
Y118945D01*
X76371D01*
Y118713D01*
Y118480D01*
Y118247D01*
X76604D01*
Y118015D01*
Y117782D01*
X76837D01*
Y117549D01*
Y117317D01*
Y117084D01*
X77069D01*
Y116851D01*
Y116619D01*
Y116386D01*
Y116153D01*
X77302D01*
Y115921D01*
Y115688D01*
Y115455D01*
X77535D01*
Y115223D01*
Y114990D01*
Y114757D01*
Y114525D01*
X77767D01*
Y114292D01*
Y114059D01*
Y113827D01*
Y113594D01*
X78000D01*
Y113361D01*
Y113129D01*
Y112896D01*
Y112663D01*
X78233D01*
Y112431D01*
Y112198D01*
Y111965D01*
Y111733D01*
Y111500D01*
X78465D01*
Y111267D01*
Y111035D01*
Y110802D01*
Y110569D01*
Y110336D01*
X78698D01*
Y110104D01*
Y109871D01*
Y109639D01*
Y109406D01*
Y109173D01*
Y108940D01*
Y108708D01*
X78931D01*
Y108475D01*
Y108242D01*
Y108010D01*
Y107777D01*
Y107545D01*
Y107312D01*
Y107079D01*
Y106846D01*
Y106614D01*
X79163D01*
Y106381D01*
Y106148D01*
Y105916D01*
Y105683D01*
Y105450D01*
Y105218D01*
Y104985D01*
Y104752D01*
Y104520D01*
Y104287D01*
Y104054D01*
Y103822D01*
Y103589D01*
Y103356D01*
X79396D01*
Y103124D01*
Y102891D01*
Y102658D01*
Y102426D01*
Y102193D01*
Y101960D01*
Y101728D01*
Y101495D01*
Y101262D01*
Y101030D01*
Y100797D01*
Y100564D01*
Y100332D01*
Y100099D01*
Y99866D01*
Y99634D01*
Y99401D01*
Y99168D01*
Y98936D01*
Y98703D01*
Y98470D01*
X79163D01*
Y98238D01*
Y98005D01*
Y97772D01*
Y97540D01*
Y97307D01*
Y97074D01*
Y96842D01*
Y96609D01*
Y96376D01*
Y96144D01*
Y95911D01*
Y95678D01*
Y95446D01*
Y95213D01*
Y94980D01*
X78931D01*
Y94748D01*
Y94515D01*
Y94282D01*
Y94050D01*
Y93817D01*
Y93584D01*
Y93352D01*
Y93119D01*
Y92886D01*
X78698D01*
Y92653D01*
Y92421D01*
Y92188D01*
Y91955D01*
Y91723D01*
Y91490D01*
Y91257D01*
Y91025D01*
Y90792D01*
Y90559D01*
X78465D01*
Y90327D01*
Y90094D01*
Y89861D01*
Y89629D01*
Y89396D01*
Y89163D01*
X78233D01*
Y88931D01*
Y88698D01*
Y88465D01*
Y88233D01*
Y88000D01*
X78000D01*
Y87767D01*
Y87535D01*
Y87302D01*
Y87069D01*
Y86837D01*
Y86604D01*
X77767D01*
Y86371D01*
Y86139D01*
Y85906D01*
Y85673D01*
Y85441D01*
X77535D01*
Y85208D01*
Y84975D01*
Y84743D01*
Y84510D01*
X77302D01*
Y84277D01*
Y84045D01*
Y83812D01*
Y83579D01*
Y83347D01*
X77069D01*
Y83114D01*
Y82881D01*
Y82648D01*
Y82416D01*
X76837D01*
Y82183D01*
Y81950D01*
Y81718D01*
X76604D01*
Y81485D01*
Y81252D01*
Y81020D01*
Y80787D01*
X76371D01*
Y80554D01*
Y80322D01*
Y80089D01*
Y79856D01*
X76139D01*
Y79624D01*
Y79391D01*
Y79159D01*
X75906D01*
Y78926D01*
Y78693D01*
Y78460D01*
Y78228D01*
X75673D01*
Y77995D01*
Y77762D01*
Y77530D01*
X75441D01*
Y77297D01*
Y77064D01*
Y76832D01*
X75208D01*
Y76599D01*
Y76366D01*
Y76134D01*
X74975D01*
Y75901D01*
Y75668D01*
Y75436D01*
X74743D01*
Y75203D01*
Y74970D01*
Y74738D01*
X74510D01*
Y74505D01*
Y74272D01*
X74277D01*
Y74040D01*
Y73807D01*
Y73574D01*
X74045D01*
Y73342D01*
Y73109D01*
Y72876D01*
X73812D01*
Y72644D01*
Y72411D01*
X73579D01*
Y72178D01*
Y71946D01*
X73347D01*
Y71713D01*
Y71480D01*
X73114D01*
Y71248D01*
X73347D01*
Y71015D01*
X73579D01*
Y71248D01*
X75673D01*
Y71480D01*
X78233D01*
Y71713D01*
X80559D01*
Y71946D01*
X82886D01*
Y72178D01*
X85213D01*
Y72411D01*
X87074D01*
Y72178D01*
Y71946D01*
Y71713D01*
Y71480D01*
Y71248D01*
Y71015D01*
Y70782D01*
Y70550D01*
Y70317D01*
Y70084D01*
Y69851D01*
Y69619D01*
Y69386D01*
Y69153D01*
Y68921D01*
Y68688D01*
Y68455D01*
Y68223D01*
Y67990D01*
Y67757D01*
Y67525D01*
Y67292D01*
Y67059D01*
Y66827D01*
Y66594D01*
Y66361D01*
Y66129D01*
Y65896D01*
Y65663D01*
Y65431D01*
Y65198D01*
Y64965D01*
Y64733D01*
Y64500D01*
Y64267D01*
Y64035D01*
Y63802D01*
Y63569D01*
Y63337D01*
Y63104D01*
Y62871D01*
Y62639D01*
Y62406D01*
Y62173D01*
Y61941D01*
Y61708D01*
Y61475D01*
Y61243D01*
Y61010D01*
Y60777D01*
Y60545D01*
Y60312D01*
Y60079D01*
Y59847D01*
Y59614D01*
X87307D01*
Y59381D01*
Y59149D01*
Y58916D01*
Y58683D01*
Y58451D01*
Y58218D01*
Y57985D01*
Y57753D01*
X86609D01*
Y57985D01*
Y58218D01*
Y58451D01*
X86376D01*
Y58683D01*
Y58916D01*
Y59149D01*
X86143D01*
Y59381D01*
Y59614D01*
Y59847D01*
X85911D01*
Y60079D01*
Y60312D01*
Y60545D01*
X85678D01*
Y60777D01*
Y61010D01*
Y61243D01*
X85445D01*
Y61475D01*
Y61708D01*
Y61941D01*
X85213D01*
Y62173D01*
Y62406D01*
Y62639D01*
X84980D01*
Y62871D01*
Y63104D01*
Y63337D01*
X84747D01*
Y63569D01*
Y63802D01*
Y64035D01*
X84515D01*
Y64267D01*
Y64500D01*
Y64733D01*
X84282D01*
Y64965D01*
Y65198D01*
Y65431D01*
X84049D01*
Y65663D01*
Y65896D01*
Y66129D01*
X83817D01*
Y66361D01*
Y66594D01*
Y66827D01*
X83584D01*
Y67059D01*
Y67292D01*
Y67525D01*
X82653D01*
Y67292D01*
X81723D01*
Y67059D01*
X81025D01*
Y66827D01*
X80327D01*
Y66594D01*
X79396D01*
Y66361D01*
X78698D01*
Y66129D01*
X78000D01*
Y65896D01*
X77069D01*
Y65663D01*
X76371D01*
Y65431D01*
X75673D01*
Y65198D01*
X74743D01*
Y64965D01*
X74045D01*
Y64733D01*
X73347D01*
Y64500D01*
X72416D01*
Y64267D01*
X71718D01*
Y64035D01*
X70787D01*
Y63802D01*
X70555D01*
Y63569D01*
Y63337D01*
X70787D01*
Y63104D01*
Y62871D01*
X71020D01*
Y62639D01*
Y62406D01*
Y62173D01*
X71253D01*
Y61941D01*
Y61708D01*
Y61475D01*
X71485D01*
Y61243D01*
Y61010D01*
Y60777D01*
X71718D01*
Y60545D01*
Y60312D01*
Y60079D01*
X71951D01*
Y59847D01*
Y59614D01*
Y59381D01*
X72183D01*
Y59149D01*
Y58916D01*
Y58683D01*
Y58451D01*
X71485D01*
Y58683D01*
X71253D01*
Y58916D01*
X71020D01*
Y59149D01*
X70787D01*
Y59381D01*
X70555D01*
Y59614D01*
X70322D01*
Y59847D01*
X70089D01*
Y60079D01*
X69624D01*
Y60312D01*
X69391D01*
Y60545D01*
X69159D01*
Y60777D01*
X68926D01*
Y61010D01*
X68693D01*
Y61243D01*
X68460D01*
Y61475D01*
X68228D01*
Y61708D01*
X67762D01*
Y61941D01*
X67530D01*
Y62173D01*
X67297D01*
Y62406D01*
X67064D01*
Y62173D01*
X66832D01*
Y61941D01*
X66599D01*
Y61708D01*
X66134D01*
Y61475D01*
X65901D01*
Y61243D01*
X65668D01*
Y61010D01*
X65203D01*
Y60777D01*
X64970D01*
Y60545D01*
X64505D01*
Y60312D01*
X64040D01*
Y60079D01*
X63574D01*
Y59847D01*
X63109D01*
Y59614D01*
X62644D01*
Y59381D01*
X61713D01*
Y59149D01*
X60782D01*
Y58916D01*
X57758D01*
Y59149D01*
X56594D01*
Y59381D01*
X55896D01*
Y59614D01*
X55198D01*
Y59847D01*
X54733D01*
Y60079D01*
X54267D01*
Y60312D01*
X54035D01*
Y60545D01*
X53569D01*
Y60777D01*
X53104D01*
Y61010D01*
X52871D01*
Y61243D01*
X52639D01*
Y61475D01*
X52173D01*
Y61708D01*
X51941D01*
Y61941D01*
X51708D01*
Y62173D01*
X51475D01*
Y62406D01*
X51010D01*
Y62173D01*
X50777D01*
Y61941D01*
X50545D01*
Y61708D01*
X50312D01*
Y61475D01*
X50079D01*
Y61243D01*
X49847D01*
Y61010D01*
X49614D01*
Y60777D01*
X49381D01*
Y60545D01*
X48916D01*
Y60312D01*
X48683D01*
Y60079D01*
X48451D01*
Y59847D01*
X48218D01*
Y59614D01*
X47985D01*
Y59381D01*
X47753D01*
Y59149D01*
X47520D01*
Y58916D01*
X47055D01*
Y58683D01*
X46822D01*
Y58451D01*
X46124D01*
Y58683D01*
Y58916D01*
X46357D01*
Y59149D01*
Y59381D01*
Y59614D01*
X46589D01*
Y59847D01*
Y60079D01*
Y60312D01*
X46822D01*
Y60545D01*
Y60777D01*
X47055D01*
Y61010D01*
Y61243D01*
Y61475D01*
Y61708D01*
X47287D01*
Y61941D01*
Y62173D01*
Y62406D01*
X47520D01*
Y62639D01*
Y62871D01*
X47753D01*
Y63104D01*
Y63337D01*
Y63569D01*
X47985D01*
Y63802D01*
X47520D01*
Y64035D01*
X46822D01*
Y64267D01*
X46124D01*
Y64500D01*
X45193D01*
Y64733D01*
X44495D01*
Y64965D01*
X43565D01*
Y65198D01*
X42867D01*
Y65431D01*
X42169D01*
Y65663D01*
X41238D01*
Y65896D01*
X40540D01*
Y66129D01*
X39842D01*
Y66361D01*
X38911D01*
Y66594D01*
X38213D01*
Y66827D01*
X37282D01*
Y67059D01*
X36584D01*
Y67292D01*
X35886D01*
Y67525D01*
X34956D01*
Y67292D01*
Y67059D01*
X34723D01*
Y66827D01*
Y66594D01*
Y66361D01*
X34490D01*
Y66129D01*
Y65896D01*
Y65663D01*
X34258D01*
Y65431D01*
Y65198D01*
Y64965D01*
X34025D01*
Y64733D01*
Y64500D01*
Y64267D01*
X33792D01*
Y64035D01*
Y63802D01*
Y63569D01*
X33560D01*
Y63337D01*
Y63104D01*
Y62871D01*
X33327D01*
Y62639D01*
Y62406D01*
Y62173D01*
X33094D01*
Y61941D01*
Y61708D01*
Y61475D01*
X32862D01*
Y61243D01*
Y61010D01*
Y60777D01*
X32629D01*
Y60545D01*
Y60312D01*
Y60079D01*
X32396D01*
Y59847D01*
Y59614D01*
Y59381D01*
X32164D01*
Y59149D01*
Y58916D01*
Y58683D01*
X31931D01*
Y58451D01*
Y58218D01*
Y57985D01*
X31698D01*
Y57753D01*
X31233D01*
Y57985D01*
Y58218D01*
Y58451D01*
Y58683D01*
Y58916D01*
Y59149D01*
Y59381D01*
Y59614D01*
Y59847D01*
Y60079D01*
Y60312D01*
Y60545D01*
Y60777D01*
Y61010D01*
Y61243D01*
Y61475D01*
Y61708D01*
Y61941D01*
Y62173D01*
X31466D01*
Y62406D01*
Y62639D01*
Y62871D01*
Y63104D01*
Y63337D01*
Y63569D01*
Y63802D01*
Y64035D01*
Y64267D01*
Y64500D01*
Y64733D01*
Y64965D01*
Y65198D01*
Y65431D01*
Y65663D01*
Y65896D01*
Y66129D01*
Y66361D01*
Y66594D01*
Y66827D01*
Y67059D01*
Y67292D01*
Y67525D01*
Y67757D01*
Y67990D01*
Y68223D01*
Y68455D01*
Y68688D01*
Y68921D01*
Y69153D01*
Y69386D01*
Y69619D01*
Y69851D01*
Y70084D01*
Y70317D01*
Y70550D01*
Y70782D01*
Y71015D01*
Y71248D01*
Y71480D01*
Y71713D01*
Y71946D01*
Y72178D01*
Y72411D01*
X33094D01*
Y72178D01*
X35421D01*
Y71946D01*
X37980D01*
Y71713D01*
X40307D01*
Y71480D01*
X42634D01*
Y71248D01*
X44960D01*
Y71015D01*
X45426D01*
Y71248D01*
Y71480D01*
X45193D01*
Y71713D01*
Y71946D01*
X44960D01*
Y72178D01*
Y72411D01*
X44728D01*
Y72644D01*
Y72876D01*
Y73109D01*
X44495D01*
Y73342D01*
Y73574D01*
X44262D01*
Y73807D01*
Y74040D01*
Y74272D01*
X44030D01*
Y74505D01*
Y74738D01*
Y74970D01*
X43797D01*
Y75203D01*
Y75436D01*
Y75668D01*
X43565D01*
Y75901D01*
Y76134D01*
Y76366D01*
X43332D01*
Y76599D01*
Y76832D01*
Y77064D01*
X43099D01*
Y77297D01*
Y77530D01*
Y77762D01*
X42867D01*
Y77995D01*
Y78228D01*
Y78460D01*
X42634D01*
Y78693D01*
Y78926D01*
Y79159D01*
X42401D01*
Y79391D01*
Y79624D01*
Y79856D01*
Y80089D01*
X42169D01*
Y80322D01*
Y80554D01*
Y80787D01*
Y81020D01*
X41936D01*
Y81252D01*
Y81485D01*
Y81718D01*
X41703D01*
Y81950D01*
Y82183D01*
Y82416D01*
Y82648D01*
Y82881D01*
X41470D01*
Y83114D01*
Y83347D01*
Y83579D01*
Y83812D01*
X41238D01*
Y84045D01*
Y84277D01*
Y84510D01*
Y84743D01*
Y84975D01*
X41005D01*
Y85208D01*
Y85441D01*
Y85673D01*
Y85906D01*
Y86139D01*
X40772D01*
Y86371D01*
Y86604D01*
Y86837D01*
Y87069D01*
Y87302D01*
X40540D01*
Y87535D01*
Y87767D01*
Y88000D01*
Y88233D01*
Y88465D01*
X40307D01*
Y88698D01*
Y88931D01*
Y89163D01*
Y89396D01*
Y89629D01*
Y89861D01*
X40074D01*
Y90094D01*
Y90327D01*
Y90559D01*
Y90792D01*
Y91025D01*
Y91257D01*
Y91490D01*
X39842D01*
Y91723D01*
Y91955D01*
Y92188D01*
Y92421D01*
Y92653D01*
Y92886D01*
Y93119D01*
Y93352D01*
Y93584D01*
X39609D01*
Y93817D01*
Y94050D01*
Y94282D01*
Y94515D01*
Y94748D01*
Y94980D01*
Y95213D01*
Y95446D01*
Y95678D01*
Y95911D01*
Y96144D01*
X39376D01*
Y96376D01*
Y96609D01*
Y96842D01*
Y97074D01*
Y97307D01*
Y97540D01*
Y97772D01*
Y98005D01*
Y98238D01*
Y98470D01*
Y98703D01*
Y98936D01*
Y99168D01*
Y99401D01*
Y99634D01*
Y99866D01*
Y100099D01*
Y100332D01*
Y100564D01*
Y100797D01*
Y101030D01*
Y101262D01*
Y101495D01*
Y101728D01*
Y101960D01*
Y102193D01*
Y102426D01*
Y102658D01*
Y102891D01*
Y103124D01*
Y103356D01*
Y103589D01*
Y103822D01*
Y104054D01*
Y104287D01*
Y104520D01*
Y104752D01*
Y104985D01*
Y105218D01*
X39609D01*
Y105450D01*
Y105683D01*
Y105916D01*
Y106148D01*
Y106381D01*
Y106614D01*
Y106846D01*
Y107079D01*
Y107312D01*
Y107545D01*
Y107777D01*
X39842D01*
Y108010D01*
Y108242D01*
Y108475D01*
Y108708D01*
Y108940D01*
Y109173D01*
Y109406D01*
X40074D01*
Y109639D01*
Y109871D01*
Y110104D01*
Y110336D01*
Y110569D01*
Y110802D01*
X40307D01*
Y111035D01*
Y111267D01*
Y111500D01*
Y111733D01*
Y111965D01*
Y112198D01*
Y112431D01*
X40540D01*
Y112663D01*
Y112896D01*
Y113129D01*
Y113361D01*
X40772D01*
Y113594D01*
Y113827D01*
Y114059D01*
Y114292D01*
Y114525D01*
X41005D01*
Y114757D01*
Y114990D01*
Y115223D01*
Y115455D01*
X41238D01*
Y115688D01*
Y115921D01*
Y116153D01*
X41470D01*
Y116386D01*
Y116619D01*
Y116851D01*
Y117084D01*
X41703D01*
Y117317D01*
Y117549D01*
Y117782D01*
X41936D01*
Y118015D01*
Y118247D01*
Y118480D01*
X42169D01*
Y118713D01*
Y118945D01*
X42401D01*
Y119178D01*
Y119411D01*
Y119643D01*
X42634D01*
Y119876D01*
Y120109D01*
Y120342D01*
X42867D01*
Y120574D01*
Y120807D01*
X43099D01*
Y121039D01*
Y121272D01*
X43332D01*
Y121505D01*
Y121738D01*
Y121970D01*
X43565D01*
Y122203D01*
X43797D01*
Y122435D01*
Y122668D01*
X44030D01*
Y122901D01*
Y123134D01*
Y123366D01*
X44262D01*
Y123599D01*
X44495D01*
Y123831D01*
Y124064D01*
X44728D01*
Y124297D01*
Y124530D01*
X44960D01*
Y124762D01*
Y124995D01*
X45193D01*
Y125228D01*
X45426D01*
Y125460D01*
Y125693D01*
X45659D01*
Y125926D01*
X45891D01*
Y126158D01*
Y126391D01*
X46124D01*
Y126624D01*
X46357D01*
Y126856D01*
Y127089D01*
X46589D01*
Y127322D01*
X46822D01*
Y127554D01*
Y127787D01*
X47055D01*
Y128020D01*
X47287D01*
Y128252D01*
X47520D01*
Y128485D01*
X47753D01*
Y128718D01*
Y128950D01*
X47985D01*
Y129183D01*
X48218D01*
Y129416D01*
X48451D01*
Y129648D01*
X48683D01*
Y129881D01*
X48916D01*
Y130114D01*
X49149D01*
Y130346D01*
X49381D01*
Y130579D01*
X49614D01*
Y130812D01*
X49847D01*
Y131044D01*
X50079D01*
Y131277D01*
X50312D01*
Y131510D01*
X50545D01*
Y131742D01*
X51010D01*
Y131975D01*
X51243D01*
Y132208D01*
X51475D01*
Y132440D01*
X51708D01*
Y132673D01*
X52173D01*
Y132906D01*
X52406D01*
Y133138D01*
X52871D01*
Y133371D01*
X53337D01*
Y133604D01*
X53569D01*
Y133836D01*
X54035D01*
Y134069D01*
X54500D01*
Y134302D01*
X55198D01*
Y134535D01*
X55896D01*
Y134767D01*
X56594D01*
Y135000D01*
X57990D01*
Y135232D01*
X60550D01*
Y135000D01*
D02*
G37*
%LPC*%
G36*
X51475Y122435D02*
X49381D01*
Y122203D01*
X48683D01*
Y121970D01*
X47985D01*
Y121738D01*
X47520D01*
Y121505D01*
X47287D01*
Y121272D01*
X47055D01*
Y121039D01*
X46589D01*
Y120807D01*
X46357D01*
Y120574D01*
Y120342D01*
X46124D01*
Y120109D01*
X45891D01*
Y119876D01*
X45659D01*
Y119643D01*
Y119411D01*
X45426D01*
Y119178D01*
Y118945D01*
X45193D01*
Y118713D01*
Y118480D01*
Y118247D01*
X44960D01*
Y118015D01*
Y117782D01*
Y117549D01*
Y117317D01*
Y117084D01*
Y116851D01*
Y116619D01*
Y116386D01*
Y116153D01*
Y115921D01*
Y115688D01*
Y115455D01*
Y115223D01*
X45193D01*
Y114990D01*
Y114757D01*
Y114525D01*
X45426D01*
Y114292D01*
Y114059D01*
X45659D01*
Y113827D01*
Y113594D01*
X45891D01*
Y113361D01*
X46124D01*
Y113129D01*
X46357D01*
Y112896D01*
Y112663D01*
X46822D01*
Y112431D01*
X47055D01*
Y112198D01*
X47287D01*
Y111965D01*
X47753D01*
Y111733D01*
X47985D01*
Y111500D01*
X48683D01*
Y111267D01*
X49614D01*
Y111035D01*
X51475D01*
Y111267D01*
X52173D01*
Y111500D01*
X52871D01*
Y111733D01*
X53337D01*
Y111965D01*
X53569D01*
Y112198D01*
X54035D01*
Y112431D01*
X54267D01*
Y112663D01*
X54500D01*
Y112896D01*
X54733D01*
Y113129D01*
Y113361D01*
X54965D01*
Y113594D01*
X55198D01*
Y113827D01*
Y114059D01*
X55431D01*
Y114292D01*
X55664D01*
Y114525D01*
Y114757D01*
Y114990D01*
X55896D01*
Y115223D01*
Y115455D01*
Y115688D01*
Y115921D01*
Y116153D01*
X56129D01*
Y116386D01*
Y116619D01*
Y116851D01*
Y117084D01*
Y117317D01*
X55896D01*
Y117549D01*
Y117782D01*
Y118015D01*
Y118247D01*
Y118480D01*
X55664D01*
Y118713D01*
Y118945D01*
Y119178D01*
X55431D01*
Y119411D01*
Y119643D01*
X55198D01*
Y119876D01*
X54965D01*
Y120109D01*
Y120342D01*
X54733D01*
Y120574D01*
X54500D01*
Y120807D01*
X54267D01*
Y121039D01*
X54035D01*
Y121272D01*
X53569D01*
Y121505D01*
X53337D01*
Y121738D01*
X52871D01*
Y121970D01*
X52406D01*
Y122203D01*
X51475D01*
Y122435D01*
D02*
G37*
G36*
X68926Y120109D02*
X66832D01*
Y119876D01*
X66134D01*
Y119643D01*
X65436D01*
Y119411D01*
X64970D01*
Y119178D01*
X64738D01*
Y118945D01*
X64505D01*
Y118713D01*
X64040D01*
Y118480D01*
X63807D01*
Y118247D01*
X63574D01*
Y118015D01*
Y117782D01*
X63342D01*
Y117549D01*
X63109D01*
Y117317D01*
Y117084D01*
X62876D01*
Y116851D01*
Y116619D01*
X62644D01*
Y116386D01*
Y116153D01*
X62411D01*
Y115921D01*
Y115688D01*
Y115455D01*
Y115223D01*
Y114990D01*
Y114757D01*
Y114525D01*
Y114292D01*
Y114059D01*
Y113827D01*
Y113594D01*
Y113361D01*
Y113129D01*
Y112896D01*
X62644D01*
Y112663D01*
Y112431D01*
Y112198D01*
X62876D01*
Y111965D01*
Y111733D01*
X63109D01*
Y111500D01*
Y111267D01*
X63342D01*
Y111035D01*
X63574D01*
Y110802D01*
Y110569D01*
X63807D01*
Y110336D01*
X64040D01*
Y110104D01*
X64505D01*
Y109871D01*
X64738D01*
Y109639D01*
X64970D01*
Y109406D01*
X65436D01*
Y109173D01*
X66134D01*
Y108940D01*
X66832D01*
Y108708D01*
X68926D01*
Y108940D01*
X69624D01*
Y109173D01*
X70322D01*
Y109406D01*
X70787D01*
Y109639D01*
X71020D01*
Y109871D01*
X71253D01*
Y110104D01*
X71718D01*
Y110336D01*
X71951D01*
Y110569D01*
X72183D01*
Y110802D01*
Y111035D01*
X72416D01*
Y111267D01*
X72649D01*
Y111500D01*
Y111733D01*
X72881D01*
Y111965D01*
Y112198D01*
X73114D01*
Y112431D01*
Y112663D01*
X73347D01*
Y112896D01*
Y113129D01*
Y113361D01*
Y113594D01*
Y113827D01*
Y114059D01*
X73579D01*
Y114292D01*
Y114525D01*
Y114757D01*
X73347D01*
Y114990D01*
Y115223D01*
Y115455D01*
Y115688D01*
Y115921D01*
Y116153D01*
X73114D01*
Y116386D01*
Y116619D01*
X72881D01*
Y116851D01*
Y117084D01*
X72649D01*
Y117317D01*
Y117549D01*
X72416D01*
Y117782D01*
X72183D01*
Y118015D01*
Y118247D01*
X71951D01*
Y118480D01*
X71718D01*
Y118713D01*
X71485D01*
Y118945D01*
X71020D01*
Y119178D01*
X70787D01*
Y119411D01*
X70322D01*
Y119643D01*
X69857D01*
Y119876D01*
X68926D01*
Y120109D01*
D02*
G37*
%LPD*%
G36*
X52639Y119178D02*
X52871D01*
Y118945D01*
X53104D01*
Y118713D01*
Y118480D01*
X53337D01*
Y118247D01*
Y118015D01*
Y117782D01*
Y117549D01*
Y117317D01*
Y117084D01*
Y116851D01*
Y116619D01*
X53104D01*
Y116386D01*
Y116153D01*
X52871D01*
Y115921D01*
X52639D01*
Y115688D01*
X51708D01*
Y115921D01*
X51475D01*
Y116153D01*
X51243D01*
Y116386D01*
Y116619D01*
Y116851D01*
X51010D01*
Y117084D01*
Y117317D01*
Y117549D01*
Y117782D01*
Y118015D01*
Y118247D01*
X51243D01*
Y118480D01*
Y118713D01*
X51475D01*
Y118945D01*
Y119178D01*
X51708D01*
Y119411D01*
X52639D01*
Y119178D01*
D02*
G37*
G36*
X69857Y117084D02*
X70089D01*
Y116851D01*
X70322D01*
Y116619D01*
Y116386D01*
Y116153D01*
X70555D01*
Y115921D01*
Y115688D01*
Y115455D01*
Y115223D01*
Y114990D01*
X70322D01*
Y114757D01*
Y114525D01*
Y114292D01*
X70089D01*
Y114059D01*
Y113827D01*
X69624D01*
Y113594D01*
X68926D01*
Y113827D01*
X68693D01*
Y114059D01*
X68460D01*
Y114292D01*
Y114525D01*
X68228D01*
Y114757D01*
Y114990D01*
Y115223D01*
Y115455D01*
Y115688D01*
Y115921D01*
Y116153D01*
Y116386D01*
Y116619D01*
X68460D01*
Y116851D01*
X68693D01*
Y117084D01*
X68926D01*
Y117317D01*
X69857D01*
Y117084D01*
D02*
G37*
D10*
X171381Y102916D02*
G03*
X171381Y102916I-492J0D01*
G01*
X126048Y137597D02*
G03*
X126048Y137597I-492J0D01*
G01*
D11*
X118666Y140943D02*
G03*
X118666Y140943I-1181J0D01*
G01*
D12*
X94060Y95244D02*
Y100756D01*
X82249Y95244D02*
Y100756D01*
Y95244D02*
X94060D01*
X82249Y100756D02*
X94060D01*
X30494Y175392D02*
Y180904D01*
X42305Y175392D02*
Y180904D01*
X30494D02*
X42305D01*
X30494Y175392D02*
X42305D01*
X20095Y44744D02*
Y50256D01*
X31905Y44744D02*
Y50256D01*
X20095D02*
X31905D01*
X20095Y44744D02*
X31905D01*
X47905Y195244D02*
Y200756D01*
X36094Y195244D02*
Y200756D01*
Y195244D02*
X47905D01*
X36094Y200756D02*
X47905D01*
X52382Y169744D02*
X62618D01*
X52382Y175256D02*
X62618D01*
X52382Y169744D02*
Y175256D01*
X62618Y169744D02*
Y175256D01*
X80118Y195500D02*
Y201012D01*
X69882Y195500D02*
Y201012D01*
X80118D01*
X69882Y195500D02*
X80118D01*
X137244Y105278D02*
X142756D01*
X137244Y95042D02*
X142756D01*
X137244D02*
Y105278D01*
X142756Y95042D02*
Y105278D01*
X129244D02*
X134756D01*
X129244Y95042D02*
X134756D01*
X129244D02*
Y105278D01*
X134756Y95042D02*
Y105278D01*
X144511Y85298D02*
Y97502D01*
X170889Y85298D02*
Y97502D01*
X144511Y85298D02*
X170889D01*
X144511Y97502D02*
X170889D01*
X155141Y109644D02*
Y115156D01*
X166952Y109644D02*
Y115156D01*
X155141D02*
X166952D01*
X155141Y109644D02*
X166952D01*
X173244Y105475D02*
X178756D01*
X173244Y93664D02*
X178756D01*
Y105475D01*
X173244Y93664D02*
Y105475D01*
X155338Y126744D02*
Y132256D01*
X165574Y126744D02*
Y132256D01*
X155338Y126744D02*
X165574D01*
X155338Y132256D02*
X165574D01*
X155338Y118244D02*
Y123756D01*
X165574Y118244D02*
Y123756D01*
X155338Y118244D02*
X165574D01*
X155338Y123756D02*
X165574D01*
X116595Y117756D02*
X128405D01*
X116595Y112244D02*
X128405D01*
X116595D02*
Y117756D01*
X128405Y112244D02*
Y117756D01*
X116595Y125256D02*
X128405D01*
X116595Y119744D02*
X128405D01*
X116595D02*
Y125256D01*
X128405Y119744D02*
Y125256D01*
X133386Y160954D02*
Y171191D01*
X138898Y160954D02*
Y171191D01*
X133386D02*
X138898D01*
X133386Y160954D02*
X138898D01*
X148705Y153345D02*
Y158857D01*
X136895Y153345D02*
Y158857D01*
Y153345D02*
X148705D01*
X136895Y158857D02*
X148705D01*
X156756Y148227D02*
Y158463D01*
X151244Y148227D02*
Y158463D01*
Y148227D02*
X156756D01*
X151244Y158463D02*
X156756D01*
X165156Y148227D02*
Y158463D01*
X159644Y148227D02*
Y158463D01*
Y148227D02*
X165156D01*
X159644Y158463D02*
X165156D01*
X77131Y181298D02*
X121225D01*
X77131Y137203D02*
X121225D01*
X77131D02*
Y181298D01*
X121225Y137203D02*
Y181298D01*
X87244Y190382D02*
Y200618D01*
X92756Y190382D02*
Y200618D01*
X87244D02*
X92756D01*
X87244Y190382D02*
X92756D01*
X105744D02*
Y200618D01*
X111256Y190382D02*
Y200618D01*
X105744D02*
X111256D01*
X105744Y190382D02*
X111256D01*
X98756Y116382D02*
Y126618D01*
X93244Y116382D02*
Y126618D01*
Y116382D02*
X98756D01*
X93244Y126618D02*
X98756D01*
D13*
X205500Y23000D02*
Y223000D01*
X126Y213000D02*
X15874D01*
X126Y223000D02*
X15500D01*
Y23000D02*
Y223000D01*
X126Y23000D02*
X15500D01*
X126D02*
Y223000D01*
X13000Y126D02*
Y15874D01*
X3000Y126D02*
Y15500D01*
X203000D01*
Y126D02*
Y15500D01*
X3000Y126D02*
X203000D01*
X190126Y213000D02*
X205874D01*
X190126Y223000D02*
X205500D01*
X190126Y23000D02*
X205500D01*
X190126D02*
Y223000D01*
X68869Y241598D02*
X66583Y247597D01*
X64298Y241598D01*
X65155Y243598D02*
X68012D01*
X70268Y247597D02*
Y243312D01*
X70554Y242455D01*
X71125Y241884D01*
X71982Y241598D01*
X72553D01*
X73410Y241884D01*
X73982Y242455D01*
X74267Y243312D01*
Y247597D01*
X75924D02*
Y241598D01*
Y247597D02*
X78495D01*
X79352Y247311D01*
X79638Y247025D01*
X79923Y246454D01*
Y245883D01*
X79638Y245311D01*
X79352Y245026D01*
X78495Y244740D01*
X75924D01*
X77924D02*
X79923Y241598D01*
X81266Y247597D02*
Y241598D01*
X82523Y247597D02*
X86522Y241598D01*
Y247597D02*
X82523Y241598D01*
X94577Y247597D02*
Y241598D01*
X92578Y247597D02*
X96577D01*
X100719Y245597D02*
Y241598D01*
Y244740D02*
X100148Y245311D01*
X99576Y245597D01*
X98719D01*
X98148Y245311D01*
X97577Y244740D01*
X97291Y243883D01*
Y243312D01*
X97577Y242455D01*
X98148Y241884D01*
X98719Y241598D01*
X99576D01*
X100148Y241884D01*
X100719Y242455D01*
X102319Y245597D02*
Y241598D01*
Y243883D02*
X102604Y244740D01*
X103175Y245311D01*
X103747Y245597D01*
X104604D01*
X108574D02*
Y241027D01*
X108289Y240170D01*
X108003Y239884D01*
X107432Y239598D01*
X106575D01*
X106003Y239884D01*
X108574Y244740D02*
X108003Y245311D01*
X107432Y245597D01*
X106575D01*
X106003Y245311D01*
X105432Y244740D01*
X105147Y243883D01*
Y243312D01*
X105432Y242455D01*
X106003Y241884D01*
X106575Y241598D01*
X107432D01*
X108003Y241884D01*
X108574Y242455D01*
X110174Y243883D02*
X113602D01*
Y244455D01*
X113316Y245026D01*
X113031Y245311D01*
X112459Y245597D01*
X111602D01*
X111031Y245311D01*
X110460Y244740D01*
X110174Y243883D01*
Y243312D01*
X110460Y242455D01*
X111031Y241884D01*
X111602Y241598D01*
X112459D01*
X113031Y241884D01*
X113602Y242455D01*
X115744Y247597D02*
Y242741D01*
X116030Y241884D01*
X116601Y241598D01*
X117173D01*
X114887Y245597D02*
X116887D01*
X122743Y247597D02*
Y241598D01*
Y247597D02*
X125314D01*
X126171Y247311D01*
X126456Y247025D01*
X126742Y246454D01*
Y245883D01*
X126456Y245311D01*
X126171Y245026D01*
X125314Y244740D01*
X122743D02*
X125314D01*
X126171Y244455D01*
X126456Y244169D01*
X126742Y243598D01*
Y242741D01*
X126456Y242169D01*
X126171Y241884D01*
X125314Y241598D01*
X122743D01*
X129513Y245597D02*
X128941Y245311D01*
X128370Y244740D01*
X128084Y243883D01*
Y243312D01*
X128370Y242455D01*
X128941Y241884D01*
X129513Y241598D01*
X130370D01*
X130941Y241884D01*
X131512Y242455D01*
X131798Y243312D01*
Y243883D01*
X131512Y244740D01*
X130941Y245311D01*
X130370Y245597D01*
X129513D01*
X136540D02*
Y241598D01*
Y244740D02*
X135968Y245311D01*
X135397Y245597D01*
X134540D01*
X133969Y245311D01*
X133398Y244740D01*
X133112Y243883D01*
Y243312D01*
X133398Y242455D01*
X133969Y241884D01*
X134540Y241598D01*
X135397D01*
X135968Y241884D01*
X136540Y242455D01*
X138139Y245597D02*
Y241598D01*
Y243883D02*
X138425Y244740D01*
X138996Y245311D01*
X139568Y245597D01*
X140425D01*
X144395Y247597D02*
Y241598D01*
Y244740D02*
X143824Y245311D01*
X143253Y245597D01*
X142396D01*
X141824Y245311D01*
X141253Y244740D01*
X140967Y243883D01*
Y243312D01*
X141253Y242455D01*
X141824Y241884D01*
X142396Y241598D01*
X143253D01*
X143824Y241884D01*
X144395Y242455D01*
X55500Y235999D02*
Y230000D01*
Y235999D02*
X59214D01*
X55500Y233142D02*
X57785D01*
X61327Y233999D02*
X60756Y233714D01*
X60185Y233142D01*
X59899Y232285D01*
Y231714D01*
X60185Y230857D01*
X60756Y230286D01*
X61327Y230000D01*
X62184D01*
X62756Y230286D01*
X63327Y230857D01*
X63613Y231714D01*
Y232285D01*
X63327Y233142D01*
X62756Y233714D01*
X62184Y233999D01*
X61327D01*
X64926D02*
Y230000D01*
Y232285D02*
X65212Y233142D01*
X65784Y233714D01*
X66355Y233999D01*
X67212D01*
X76753Y234570D02*
X76467Y235142D01*
X75896Y235713D01*
X75324Y235999D01*
X74182D01*
X73610Y235713D01*
X73039Y235142D01*
X72753Y234570D01*
X72468Y233714D01*
Y232285D01*
X72753Y231428D01*
X73039Y230857D01*
X73610Y230286D01*
X74182Y230000D01*
X75324D01*
X75896Y230286D01*
X76467Y230857D01*
X76753Y231428D01*
X78438Y235999D02*
X79866Y230000D01*
X81295Y235999D02*
X79866Y230000D01*
X81295Y235999D02*
X82723Y230000D01*
X84151Y235999D02*
X82723Y230000D01*
X85922Y235999D02*
X89064D01*
X87350Y233714D01*
X88207D01*
X88779Y233428D01*
X89064Y233142D01*
X89350Y232285D01*
Y231714D01*
X89064Y230857D01*
X88493Y230286D01*
X87636Y230000D01*
X86779D01*
X85922Y230286D01*
X85636Y230571D01*
X85351Y231143D01*
X92406Y235999D02*
X91549Y235713D01*
X90978Y234856D01*
X90693Y233428D01*
Y232571D01*
X90978Y231143D01*
X91549Y230286D01*
X92406Y230000D01*
X92978D01*
X93835Y230286D01*
X94406Y231143D01*
X94692Y232571D01*
Y233428D01*
X94406Y234856D01*
X93835Y235713D01*
X92978Y235999D01*
X92406D01*
X97462D02*
X96605Y235713D01*
X96320Y235142D01*
Y234570D01*
X96605Y233999D01*
X97177Y233714D01*
X98319Y233428D01*
X99176Y233142D01*
X99748Y232571D01*
X100033Y232000D01*
Y231143D01*
X99748Y230571D01*
X99462Y230286D01*
X98605Y230000D01*
X97462D01*
X96605Y230286D01*
X96320Y230571D01*
X96034Y231143D01*
Y232000D01*
X96320Y232571D01*
X96891Y233142D01*
X97748Y233428D01*
X98891Y233714D01*
X99462Y233999D01*
X99748Y234570D01*
Y235142D01*
X99462Y235713D01*
X98605Y235999D01*
X97462D01*
X103375D02*
Y230000D01*
X101376Y235999D02*
X105375D01*
X110802D02*
Y231714D01*
X111088Y230857D01*
X111659Y230286D01*
X112516Y230000D01*
X113088D01*
X113945Y230286D01*
X114516Y230857D01*
X114802Y231714D01*
Y235999D01*
X116458D02*
Y230000D01*
Y235999D02*
X120172D01*
X116458Y233142D02*
X118744D01*
X122571Y235999D02*
X122000Y235713D01*
X121429Y235142D01*
X121143Y234570D01*
X120857Y233714D01*
Y232285D01*
X121143Y231428D01*
X121429Y230857D01*
X122000Y230286D01*
X122571Y230000D01*
X123714D01*
X124285Y230286D01*
X124857Y230857D01*
X125142Y231428D01*
X125428Y232285D01*
Y233714D01*
X125142Y234570D01*
X124857Y235142D01*
X124285Y235713D01*
X123714Y235999D01*
X122571D01*
X131541D02*
Y230000D01*
Y235999D02*
X134112D01*
X134969Y235713D01*
X135254Y235427D01*
X135540Y234856D01*
Y234285D01*
X135254Y233714D01*
X134969Y233428D01*
X134112Y233142D01*
X131541D02*
X134112D01*
X134969Y232856D01*
X135254Y232571D01*
X135540Y232000D01*
Y231143D01*
X135254Y230571D01*
X134969Y230286D01*
X134112Y230000D01*
X131541D01*
X138311Y233999D02*
X137740Y233714D01*
X137168Y233142D01*
X136883Y232285D01*
Y231714D01*
X137168Y230857D01*
X137740Y230286D01*
X138311Y230000D01*
X139168D01*
X139739Y230286D01*
X140310Y230857D01*
X140596Y231714D01*
Y232285D01*
X140310Y233142D01*
X139739Y233714D01*
X139168Y233999D01*
X138311D01*
X145338D02*
Y230000D01*
Y233142D02*
X144767Y233714D01*
X144195Y233999D01*
X143338D01*
X142767Y233714D01*
X142196Y233142D01*
X141910Y232285D01*
Y231714D01*
X142196Y230857D01*
X142767Y230286D01*
X143338Y230000D01*
X144195D01*
X144767Y230286D01*
X145338Y230857D01*
X146938Y233999D02*
Y230000D01*
Y232285D02*
X147223Y233142D01*
X147794Y233714D01*
X148366Y233999D01*
X149223D01*
X153193Y235999D02*
Y230000D01*
Y233142D02*
X152622Y233714D01*
X152051Y233999D01*
X151194D01*
X150622Y233714D01*
X150051Y233142D01*
X149766Y232285D01*
Y231714D01*
X150051Y230857D01*
X150622Y230286D01*
X151194Y230000D01*
X152051D01*
X152622Y230286D01*
X153193Y230857D01*
X148743Y17800D02*
Y20371D01*
X148458Y21228D01*
X148172Y21513D01*
X147601Y21799D01*
X146744D01*
X146173Y21513D01*
X145887Y21228D01*
X145601Y20371D01*
Y17800D01*
X151600D01*
X146744Y23142D02*
X146458Y23713D01*
X145601Y24570D01*
X151600D01*
X145601Y29255D02*
X145887Y28398D01*
X146744Y27826D01*
X148172Y27541D01*
X149029D01*
X150457Y27826D01*
X151314Y28398D01*
X151600Y29255D01*
Y29826D01*
X151314Y30683D01*
X150457Y31254D01*
X149029Y31540D01*
X148172D01*
X146744Y31254D01*
X145887Y30683D01*
X145601Y29826D01*
Y29255D01*
X151029Y33168D02*
X151314Y32882D01*
X151600Y33168D01*
X151314Y33454D01*
X151029Y33168D01*
X146458Y38196D02*
X145887Y37910D01*
X145601Y37053D01*
Y36482D01*
X145887Y35625D01*
X146744Y35053D01*
X148172Y34768D01*
X149600D01*
X150743Y35053D01*
X151314Y35625D01*
X151600Y36482D01*
Y36767D01*
X151314Y37624D01*
X150743Y38196D01*
X149886Y38481D01*
X149600D01*
X148743Y38196D01*
X148172Y37624D01*
X147887Y36767D01*
Y36482D01*
X148172Y35625D01*
X148743Y35053D01*
X149600Y34768D01*
X137988Y17800D02*
Y20371D01*
X137702Y21228D01*
X137416Y21513D01*
X136845Y21799D01*
X135988D01*
X135417Y21513D01*
X135131Y21228D01*
X134845Y20371D01*
Y17800D01*
X140844D01*
X135988Y23142D02*
X135702Y23713D01*
X134845Y24570D01*
X140844D01*
X134845Y29255D02*
X135131Y28398D01*
X135988Y27826D01*
X137416Y27541D01*
X138273D01*
X139701Y27826D01*
X140558Y28398D01*
X140844Y29255D01*
Y29826D01*
X140558Y30683D01*
X139701Y31254D01*
X138273Y31540D01*
X137416D01*
X135988Y31254D01*
X135131Y30683D01*
X134845Y29826D01*
Y29255D01*
X140273Y33168D02*
X140558Y32882D01*
X140844Y33168D01*
X140558Y33454D01*
X140273Y33168D01*
X134845Y38196D02*
Y35339D01*
X137416Y35053D01*
X137131Y35339D01*
X136845Y36196D01*
Y37053D01*
X137131Y37910D01*
X137702Y38481D01*
X138559Y38767D01*
X139130D01*
X139987Y38481D01*
X140558Y37910D01*
X140844Y37053D01*
Y36196D01*
X140558Y35339D01*
X140273Y35053D01*
X139701Y34768D01*
X18001Y21000D02*
X24000Y23285D01*
X18001Y25570D02*
X24000Y23285D01*
X20001Y26342D02*
X24000D01*
X21715D02*
X20858Y26627D01*
X20287Y27199D01*
X20001Y27770D01*
Y28627D01*
X21715Y29170D02*
Y32598D01*
X21144D01*
X20572Y32312D01*
X20287Y32026D01*
X20001Y31455D01*
Y30598D01*
X20287Y30027D01*
X20858Y29455D01*
X21715Y29170D01*
X22286D01*
X23143Y29455D01*
X23714Y30027D01*
X24000Y30598D01*
Y31455D01*
X23714Y32026D01*
X23143Y32598D01*
X18001Y36168D02*
Y35597D01*
X18287Y35026D01*
X19144Y34740D01*
X24000D01*
X20001Y33883D02*
Y35882D01*
X167000Y27856D02*
X169571D01*
X170428Y28142D01*
X170713Y28428D01*
X170999Y28999D01*
Y29856D01*
X170713Y30427D01*
X170428Y30713D01*
X169571Y30999D01*
X167000D01*
Y25000D01*
X172342Y29856D02*
X172913Y30142D01*
X173770Y30999D01*
Y25000D01*
X176741Y29856D02*
X177312Y30142D01*
X178169Y30999D01*
Y25000D01*
X181425Y25571D02*
X181140Y25286D01*
X181425Y25000D01*
X181711Y25286D01*
X181425Y25571D01*
X183597Y30999D02*
X186739D01*
X185025Y28714D01*
X185882D01*
X186453Y28428D01*
X186739Y28142D01*
X187024Y27285D01*
Y26714D01*
X186739Y25857D01*
X186167Y25286D01*
X185310Y25000D01*
X184453D01*
X183597Y25286D01*
X183311Y25571D01*
X183025Y26143D01*
X167000Y38056D02*
X169571D01*
X170428Y38342D01*
X170713Y38628D01*
X170999Y39199D01*
Y40056D01*
X170713Y40627D01*
X170428Y40913D01*
X169571Y41199D01*
X167000D01*
Y35200D01*
X172342Y40056D02*
X172913Y40342D01*
X173770Y41199D01*
Y35200D01*
X176741Y40056D02*
X177312Y40342D01*
X178169Y41199D01*
Y35200D01*
X181425Y35771D02*
X181140Y35486D01*
X181425Y35200D01*
X181711Y35486D01*
X181425Y35771D01*
X186739Y39199D02*
X186453Y38342D01*
X185882Y37771D01*
X185025Y37485D01*
X184739D01*
X183882Y37771D01*
X183311Y38342D01*
X183025Y39199D01*
Y39485D01*
X183311Y40342D01*
X183882Y40913D01*
X184739Y41199D01*
X185025D01*
X185882Y40913D01*
X186453Y40342D01*
X186739Y39199D01*
Y37771D01*
X186453Y36343D01*
X185882Y35486D01*
X185025Y35200D01*
X184453D01*
X183597Y35486D01*
X183311Y36057D01*
X162800Y48256D02*
X165371D01*
X166228Y48542D01*
X166514Y48828D01*
X166799Y49399D01*
Y50256D01*
X166514Y50827D01*
X166228Y51113D01*
X165371Y51399D01*
X162800D01*
Y45400D01*
X168142Y50256D02*
X168713Y50542D01*
X169570Y51399D01*
Y45400D01*
X172541Y50256D02*
X173112Y50542D01*
X173969Y51399D01*
Y45400D01*
X177225Y45971D02*
X176940Y45686D01*
X177225Y45400D01*
X177511Y45686D01*
X177225Y45971D01*
X178825Y50256D02*
X179396Y50542D01*
X180253Y51399D01*
Y45400D01*
X184938Y51399D02*
X184081Y51113D01*
X183510Y50256D01*
X183224Y48828D01*
Y47971D01*
X183510Y46543D01*
X184081Y45686D01*
X184938Y45400D01*
X185509D01*
X186366Y45686D01*
X186938Y46543D01*
X187223Y47971D01*
Y48828D01*
X186938Y50256D01*
X186366Y51113D01*
X185509Y51399D01*
X184938D01*
X32357Y23999D02*
Y19428D01*
X32071Y18571D01*
X31785Y18286D01*
X31214Y18000D01*
X30643D01*
X30071Y18286D01*
X29786Y18571D01*
X29500Y19428D01*
Y20000D01*
X35899Y23999D02*
Y18000D01*
X33899Y23999D02*
X37898D01*
X43183Y18000D02*
X40898Y23999D01*
X38612Y18000D01*
X39469Y20000D02*
X42326D01*
X48867Y22570D02*
X48582Y23142D01*
X48010Y23713D01*
X47439Y23999D01*
X46296D01*
X45725Y23713D01*
X45154Y23142D01*
X44868Y22570D01*
X44583Y21713D01*
Y20285D01*
X44868Y19428D01*
X45154Y18857D01*
X45725Y18286D01*
X46296Y18000D01*
X47439D01*
X48010Y18286D01*
X48582Y18857D01*
X48867Y19428D01*
Y20285D01*
X47439D02*
X48867D01*
X75001Y18000D02*
X81000D01*
X75001D02*
Y20571D01*
X75287Y21428D01*
X75573Y21713D01*
X76144Y21999D01*
X76715D01*
X77286Y21713D01*
X77572Y21428D01*
X77858Y20571D01*
Y18000D01*
Y20000D02*
X81000Y21999D01*
X75858Y27341D02*
X75287Y26770D01*
X75001Y25913D01*
Y24770D01*
X75287Y23913D01*
X75858Y23342D01*
X76429D01*
X77001Y23627D01*
X77286Y23913D01*
X77572Y24484D01*
X78144Y26198D01*
X78429Y26770D01*
X78715Y27055D01*
X79286Y27341D01*
X80143D01*
X80714Y26770D01*
X81000Y25913D01*
Y24770D01*
X80714Y23913D01*
X80143Y23342D01*
X75001Y30683D02*
X81000D01*
X75001Y28683D02*
Y32683D01*
X18000Y120999D02*
Y115000D01*
Y120999D02*
X20571D01*
X21428Y120713D01*
X21713Y120427D01*
X21999Y119856D01*
Y119285D01*
X21713Y118713D01*
X21428Y118428D01*
X20571Y118142D01*
X18000D01*
X20000D02*
X21999Y115000D01*
X27341Y120142D02*
X26770Y120713D01*
X25913Y120999D01*
X24770D01*
X23913Y120713D01*
X23342Y120142D01*
Y119571D01*
X23627Y118999D01*
X23913Y118713D01*
X24484Y118428D01*
X26198Y117857D01*
X26770Y117571D01*
X27055Y117285D01*
X27341Y116714D01*
Y115857D01*
X26770Y115286D01*
X25913Y115000D01*
X24770D01*
X23913Y115286D01*
X23342Y115857D01*
X30683Y120999D02*
Y115000D01*
X28683Y120999D02*
X32683D01*
X18000Y127857D02*
X20571D01*
X21428Y128142D01*
X21713Y128428D01*
X21999Y128999D01*
Y129856D01*
X21713Y130427D01*
X21428Y130713D01*
X20571Y130999D01*
X18000D01*
Y125000D01*
X23342Y129856D02*
X23913Y130142D01*
X24770Y130999D01*
Y125000D01*
X30597Y130999D02*
X27741Y127000D01*
X32026D01*
X30597Y130999D02*
Y125000D01*
X33368Y125571D02*
X33083Y125286D01*
X33368Y125000D01*
X33654Y125286D01*
X33368Y125571D01*
X37824Y130999D02*
X34968Y127000D01*
X39253D01*
X37824Y130999D02*
Y125000D01*
X18000Y137856D02*
X20571D01*
X21428Y138142D01*
X21713Y138428D01*
X21999Y138999D01*
Y139856D01*
X21713Y140427D01*
X21428Y140713D01*
X20571Y140999D01*
X18000D01*
Y135000D01*
X23342Y139856D02*
X23913Y140142D01*
X24770Y140999D01*
Y135000D01*
X30597Y140999D02*
X27741Y137000D01*
X32026D01*
X30597Y140999D02*
Y135000D01*
X33368Y135571D02*
X33083Y135286D01*
X33368Y135000D01*
X33654Y135286D01*
X33368Y135571D01*
X35539Y140999D02*
X38681D01*
X36967Y138714D01*
X37824D01*
X38396Y138428D01*
X38681Y138142D01*
X38967Y137285D01*
Y136714D01*
X38681Y135857D01*
X38110Y135286D01*
X37253Y135000D01*
X36396D01*
X35539Y135286D01*
X35253Y135571D01*
X34968Y136143D01*
X18000Y151499D02*
Y145500D01*
Y151499D02*
X20571D01*
X21428Y151213D01*
X21713Y150927D01*
X21999Y150356D01*
Y149785D01*
X21713Y149214D01*
X21428Y148928D01*
X20571Y148642D01*
X18000D01*
X20000D02*
X21999Y145500D01*
X23342Y151499D02*
X27341Y145500D01*
Y151499D02*
X23342Y145500D01*
X33397Y148356D02*
X35968D01*
X36825Y148642D01*
X37110Y148928D01*
X37396Y149499D01*
Y150356D01*
X37110Y150927D01*
X36825Y151213D01*
X35968Y151499D01*
X33397D01*
Y145500D01*
X38738Y150356D02*
X39310Y150642D01*
X40167Y151499D01*
Y145500D01*
X46565Y151499D02*
X43709D01*
X43423Y148928D01*
X43709Y149214D01*
X44566Y149499D01*
X45423D01*
X46280Y149214D01*
X46851Y148642D01*
X47137Y147785D01*
Y147214D01*
X46851Y146357D01*
X46280Y145786D01*
X45423Y145500D01*
X44566D01*
X43709Y145786D01*
X43423Y146071D01*
X43137Y146643D01*
X48765Y146071D02*
X48479Y145786D01*
X48765Y145500D01*
X49051Y145786D01*
X48765Y146071D01*
X50936Y151499D02*
X54078D01*
X52364Y149214D01*
X53221D01*
X53792Y148928D01*
X54078Y148642D01*
X54364Y147785D01*
Y147214D01*
X54078Y146357D01*
X53507Y145786D01*
X52650Y145500D01*
X51793D01*
X50936Y145786D01*
X50650Y146071D01*
X50365Y146643D01*
X20000Y160999D02*
Y155000D01*
X18000Y160999D02*
X21999D01*
X22713D02*
X26712Y155000D01*
Y160999D02*
X22713Y155000D01*
X32768Y157857D02*
X35339D01*
X36196Y158142D01*
X36482Y158428D01*
X36767Y158999D01*
Y159856D01*
X36482Y160427D01*
X36196Y160713D01*
X35339Y160999D01*
X32768D01*
Y155000D01*
X38110Y159856D02*
X38681Y160142D01*
X39538Y160999D01*
Y155000D01*
X45937Y160999D02*
X43080D01*
X42795Y158428D01*
X43080Y158713D01*
X43937Y158999D01*
X44794D01*
X45651Y158713D01*
X46222Y158142D01*
X46508Y157285D01*
Y156714D01*
X46222Y155857D01*
X45651Y155286D01*
X44794Y155000D01*
X43937D01*
X43080Y155286D01*
X42795Y155571D01*
X42509Y156143D01*
X48136Y155571D02*
X47851Y155286D01*
X48136Y155000D01*
X48422Y155286D01*
X48136Y155571D01*
X50022Y159571D02*
Y159856D01*
X50307Y160427D01*
X50593Y160713D01*
X51164Y160999D01*
X52307D01*
X52878Y160713D01*
X53164Y160427D01*
X53449Y159856D01*
Y159285D01*
X53164Y158713D01*
X52593Y157857D01*
X49736Y155000D01*
X53735D01*
X20430Y192285D02*
X19858Y191999D01*
X19287Y191428D01*
X19001Y190857D01*
Y189714D01*
X19287Y189143D01*
X19858Y188571D01*
X20430Y188286D01*
X21286Y188000D01*
X22715D01*
X23572Y188286D01*
X24143Y188571D01*
X24714Y189143D01*
X25000Y189714D01*
Y190857D01*
X24714Y191428D01*
X24143Y191999D01*
X23572Y192285D01*
X19001Y193970D02*
X25000D01*
Y197398D01*
X19001Y198055D02*
X25000D01*
X19001Y202054D02*
X23000Y198055D01*
X21572Y199483D02*
X25000Y202054D01*
X19001Y203397D02*
X25000D01*
X19001Y204654D02*
X25000D01*
X19001D02*
X25000Y208653D01*
X19001D02*
X25000D01*
X20877Y53500D02*
Y59498D01*
X23877D01*
X24876Y58498D01*
Y56499D01*
X23877Y55499D01*
X20877D01*
X22877D02*
X24876Y53500D01*
X26875Y54500D02*
X27875Y53500D01*
X29875D01*
X30874Y54500D01*
Y58498D01*
X29875Y59498D01*
X27875D01*
X26875Y58498D01*
Y57499D01*
X27875Y56499D01*
X30874D01*
X83000Y87418D02*
Y93416D01*
X85999D01*
X86999Y92417D01*
Y90417D01*
X85999Y89418D01*
X83000D01*
X84999D02*
X86999Y87418D01*
X88998Y92417D02*
X89998Y93416D01*
X91997D01*
X92997Y92417D01*
Y91417D01*
X91997Y90417D01*
X92997Y89418D01*
Y88418D01*
X91997Y87418D01*
X89998D01*
X88998Y88418D01*
Y89418D01*
X89998Y90417D01*
X88998Y91417D01*
Y92417D01*
X89998Y90417D02*
X91997D01*
X31300Y184100D02*
Y190098D01*
X34299D01*
X35299Y189098D01*
Y187099D01*
X34299Y186099D01*
X31300D01*
X33299D02*
X35299Y184100D01*
X37298Y190098D02*
X41297D01*
Y189098D01*
X37298Y185100D01*
Y184100D01*
X71499Y207998D02*
X70499Y208998D01*
X68500D01*
X67500Y207998D01*
Y204000D01*
X68500Y203000D01*
X70499D01*
X71499Y204000D01*
X73498Y203000D02*
X75497D01*
X74498D01*
Y208998D01*
X73498Y207998D01*
X82495Y203000D02*
X78496D01*
X82495Y206999D01*
Y207998D01*
X81495Y208998D01*
X79496D01*
X78496Y207998D01*
X138000Y145286D02*
Y151284D01*
X140999D01*
X141999Y150284D01*
Y148285D01*
X140999Y147285D01*
X138000D01*
X139999D02*
X141999Y145286D01*
X146997D02*
Y151284D01*
X143998Y148285D01*
X147997D01*
X37000Y203000D02*
Y208998D01*
X39999D01*
X40999Y207998D01*
Y205999D01*
X39999Y204999D01*
X37000D01*
X38999D02*
X40999Y203000D01*
X42998Y207998D02*
X43998Y208998D01*
X45997D01*
X46997Y207998D01*
Y206999D01*
X45997Y205999D01*
X44997D01*
X45997D01*
X46997Y204999D01*
Y204000D01*
X45997Y203000D01*
X43998D01*
X42998Y204000D01*
X138500Y82498D02*
Y77500D01*
X139500Y76500D01*
X141499D01*
X142499Y77500D01*
Y82498D01*
X148497Y76500D02*
X144498D01*
X148497Y80499D01*
Y81498D01*
X147497Y82498D01*
X145498D01*
X144498Y81498D01*
X179000Y81569D02*
X173002D01*
Y84568D01*
X174002Y85568D01*
X176001D01*
X177001Y84568D01*
Y81569D01*
Y83569D02*
X179000Y85568D01*
Y91566D02*
Y87567D01*
X175001Y91566D01*
X174002D01*
X173002Y90566D01*
Y88567D01*
X174002Y87567D01*
X168846Y110000D02*
Y115998D01*
X171845D01*
X172845Y114998D01*
Y112999D01*
X171845Y111999D01*
X168846D01*
X170846D02*
X172845Y110000D01*
X174845D02*
X176844D01*
X175844D01*
Y115998D01*
X174845Y114998D01*
X147999Y131498D02*
X146999Y132498D01*
X145000D01*
X144000Y131498D01*
Y127500D01*
X145000Y126500D01*
X146999D01*
X147999Y127500D01*
X152997Y126500D02*
Y132498D01*
X149998Y129499D01*
X153997D01*
X171499Y122998D02*
X170499Y123998D01*
X168500D01*
X167500Y122998D01*
Y119000D01*
X168500Y118000D01*
X170499D01*
X171499Y119000D01*
X173498Y122998D02*
X174498Y123998D01*
X176497D01*
X177497Y122998D01*
Y121999D01*
X176497Y120999D01*
X175497D01*
X176497D01*
X177497Y119999D01*
Y119000D01*
X176497Y118000D01*
X174498D01*
X173498Y119000D01*
X139502Y110999D02*
X138502Y109999D01*
Y108000D01*
X139502Y107000D01*
X143500D01*
X144500Y108000D01*
Y109999D01*
X143500Y110999D01*
X144500Y116997D02*
Y112998D01*
X140501Y116997D01*
X139502D01*
X138502Y115997D01*
Y113998D01*
X139502Y112998D01*
X131002Y110999D02*
X130002Y109999D01*
Y108000D01*
X131002Y107000D01*
X135000D01*
X136000Y108000D01*
Y109999D01*
X135000Y110999D01*
X136000Y112998D02*
Y114997D01*
Y113998D01*
X130002D01*
X131002Y112998D01*
X69000Y190498D02*
Y185500D01*
X70000Y184500D01*
X71999D01*
X72999Y185500D01*
Y190498D01*
X74998Y184500D02*
X76997D01*
X75998D01*
Y190498D01*
X74998Y189498D01*
X160502Y163999D02*
X159502Y162999D01*
Y161000D01*
X160502Y160000D01*
X164500D01*
X165500Y161000D01*
Y162999D01*
X164500Y163999D01*
X159502Y169997D02*
Y165998D01*
X162501D01*
X161501Y167997D01*
Y168997D01*
X162501Y169997D01*
X164500D01*
X165500Y168997D01*
Y166998D01*
X164500Y165998D01*
X152002Y163999D02*
X151002Y162999D01*
Y161000D01*
X152002Y160000D01*
X156000D01*
X157000Y161000D01*
Y162999D01*
X156000Y163999D01*
X151002Y169997D02*
X152002Y167997D01*
X154001Y165998D01*
X156000D01*
X157000Y166998D01*
Y168997D01*
X156000Y169997D01*
X155001D01*
X154001Y168997D01*
Y165998D01*
X104500Y112000D02*
Y117998D01*
X107499D01*
X108499Y116998D01*
Y114999D01*
X107499Y113999D01*
X104500D01*
X106499D02*
X108499Y112000D01*
X114497Y117998D02*
X110498D01*
Y114999D01*
X112497Y115999D01*
X113497D01*
X114497Y114999D01*
Y113000D01*
X113497Y112000D01*
X111498D01*
X110498Y113000D01*
X104500Y120500D02*
Y126498D01*
X107499D01*
X108499Y125498D01*
Y123499D01*
X107499Y122499D01*
X104500D01*
X106499D02*
X108499Y120500D01*
X114497Y126498D02*
X112497Y125498D01*
X110498Y123499D01*
Y121500D01*
X111498Y120500D01*
X113497D01*
X114497Y121500D01*
Y122499D01*
X113497Y123499D01*
X110498D01*
X94002Y108499D02*
X93002Y107499D01*
Y105500D01*
X94002Y104500D01*
X98000D01*
X99000Y105500D01*
Y107499D01*
X98000Y108499D01*
X93002Y110498D02*
Y114497D01*
X94002D01*
X98000Y110498D01*
X99000D01*
X55999Y181998D02*
X54999Y182998D01*
X53000D01*
X52000Y181998D01*
Y178000D01*
X53000Y177000D01*
X54999D01*
X55999Y178000D01*
X57998Y181998D02*
X58998Y182998D01*
X60997D01*
X61997Y181998D01*
Y180999D01*
X60997Y179999D01*
X61997Y178999D01*
Y178000D01*
X60997Y177000D01*
X58998D01*
X57998Y178000D01*
Y178999D01*
X58998Y179999D01*
X57998Y180999D01*
Y181998D01*
X58998Y179999D02*
X60997D01*
X95502Y194499D02*
X94502Y193499D01*
Y191500D01*
X95502Y190500D01*
X99500D01*
X100500Y191500D01*
Y193499D01*
X99500Y194499D01*
Y196498D02*
X100500Y197498D01*
Y199497D01*
X99500Y200497D01*
X95502D01*
X94502Y199497D01*
Y197498D01*
X95502Y196498D01*
X96501D01*
X97501Y197498D01*
Y200497D01*
X116499Y197498D02*
X115499Y198498D01*
X113500D01*
X112500Y197498D01*
Y193500D01*
X113500Y192500D01*
X115499D01*
X116499Y193500D01*
X118498Y192500D02*
X120497D01*
X119498D01*
Y198498D01*
X118498Y197498D01*
X123496D02*
X124496Y198498D01*
X126496D01*
X127495Y197498D01*
Y193500D01*
X126496Y192500D01*
X124496D01*
X123496Y193500D01*
Y197498D01*
X138040Y179471D02*
X137041Y180470D01*
X135041D01*
X134042Y179471D01*
Y175472D01*
X135041Y174472D01*
X137041D01*
X138040Y175472D01*
X140040Y174472D02*
X142039D01*
X141039D01*
Y180470D01*
X140040Y179471D01*
X145038Y174472D02*
X147037D01*
X146038D01*
Y180470D01*
X145038Y179471D01*
X0Y0D02*
Y254000D01*
X205500D01*
Y0D02*
Y254000D01*
X0Y0D02*
X205500D01*
D14*
X126Y223000D02*
X205500D01*
M02*
