G04*
G04 #@! TF.GenerationSoftware,Altium Limited,Altium Designer,19.0.14 (431)*
G04*
G04 Layer_Color=16711935*
%FSLAX25Y25*%
%MOIN*%
G70*
G01*
G75*
%ADD13C,0.01000*%
%ADD33C,0.25800*%
%ADD34R,0.11800X0.06800*%
%ADD35O,0.11800X0.06800*%
%ADD36R,0.06800X0.11800*%
%ADD37O,0.06800X0.11800*%
%ADD38C,0.02769*%
D13*
X0Y0D02*
Y254000D01*
X205500D01*
Y0D02*
Y254000D01*
X0Y0D02*
X205500D01*
D33*
X98000Y38000D02*
D03*
X28000Y238000D02*
D03*
X178000D02*
D03*
D34*
X8000Y218000D02*
D03*
X198000D02*
D03*
D35*
X8000Y208000D02*
D03*
Y198000D02*
D03*
Y188000D02*
D03*
Y178000D02*
D03*
Y168000D02*
D03*
Y158000D02*
D03*
Y148000D02*
D03*
Y138000D02*
D03*
Y128000D02*
D03*
Y118000D02*
D03*
Y108000D02*
D03*
Y98000D02*
D03*
Y88000D02*
D03*
Y78000D02*
D03*
Y68000D02*
D03*
Y58000D02*
D03*
Y48000D02*
D03*
Y38000D02*
D03*
Y28000D02*
D03*
X198000Y208000D02*
D03*
Y198000D02*
D03*
Y188000D02*
D03*
Y178000D02*
D03*
Y168000D02*
D03*
Y158000D02*
D03*
Y148000D02*
D03*
Y138000D02*
D03*
Y128000D02*
D03*
Y118000D02*
D03*
Y108000D02*
D03*
Y98000D02*
D03*
Y88000D02*
D03*
Y78000D02*
D03*
Y68000D02*
D03*
Y58000D02*
D03*
Y48000D02*
D03*
Y38000D02*
D03*
Y28000D02*
D03*
D36*
X8000Y8000D02*
D03*
D37*
X18000D02*
D03*
X28000D02*
D03*
X38000D02*
D03*
X48000D02*
D03*
X58000D02*
D03*
X68000D02*
D03*
X78000D02*
D03*
X88000D02*
D03*
X98000D02*
D03*
X108000D02*
D03*
X118000D02*
D03*
X128000D02*
D03*
X138000D02*
D03*
X148000D02*
D03*
X158000D02*
D03*
X168000D02*
D03*
X178000D02*
D03*
X188000D02*
D03*
X198000D02*
D03*
D38*
X92682Y165746D02*
D03*
X97013D02*
D03*
X101343D02*
D03*
X105674D02*
D03*
X92682Y161416D02*
D03*
X97013D02*
D03*
X101343D02*
D03*
X105674D02*
D03*
X92682Y157085D02*
D03*
X97013D02*
D03*
X101343D02*
D03*
X105674D02*
D03*
X92682Y152754D02*
D03*
X97013D02*
D03*
X101343D02*
D03*
X105674D02*
D03*
M02*
