G04*
G04 #@! TF.GenerationSoftware,Altium Limited,Altium Designer,19.0.12 (326)*
G04*
G04 Layer_Physical_Order=2*
G04 Layer_Color=16711680*
%FSLAX25Y25*%
%MOIN*%
G70*
G01*
G75*
%ADD14C,0.01000*%
%ADD46C,0.02400*%
%ADD47C,0.03200*%
%ADD48C,0.00800*%
%ADD49C,0.01200*%
%ADD53C,0.25000*%
%ADD54R,0.11000X0.06000*%
%ADD55O,0.11000X0.06000*%
%ADD56R,0.06000X0.11000*%
%ADD57O,0.06000X0.11000*%
%ADD58C,0.02400*%
%ADD59C,0.01968*%
G36*
X200457Y222000D02*
X198500D01*
Y218000D01*
Y214000D01*
X200457D01*
Y212035D01*
X195500D01*
X194456Y211897D01*
X193483Y211494D01*
X192647Y210853D01*
X192006Y210017D01*
X191603Y209044D01*
X191465Y208000D01*
X191603Y206956D01*
X192006Y205983D01*
X192647Y205147D01*
X193483Y204506D01*
X194456Y204103D01*
X195500Y203965D01*
X200457D01*
Y202034D01*
X195500D01*
X194456Y201897D01*
X193483Y201494D01*
X192647Y200853D01*
X192006Y200017D01*
X191603Y199044D01*
X191465Y198000D01*
X191603Y196956D01*
X192006Y195983D01*
X192647Y195147D01*
X193483Y194506D01*
X194456Y194103D01*
X195500Y193965D01*
X200457D01*
Y192034D01*
X198500D01*
Y188000D01*
Y183966D01*
X200457D01*
Y182035D01*
X195500D01*
X194456Y181897D01*
X193483Y181494D01*
X192647Y180853D01*
X192006Y180017D01*
X191603Y179044D01*
X191465Y178000D01*
X191603Y176956D01*
X192006Y175983D01*
X192647Y175147D01*
X193483Y174506D01*
X194456Y174103D01*
X195500Y173966D01*
X200457D01*
Y172035D01*
X195500D01*
X194456Y171897D01*
X193483Y171494D01*
X192647Y170853D01*
X192006Y170017D01*
X191603Y169044D01*
X191465Y168000D01*
X191603Y166956D01*
X192006Y165983D01*
X192647Y165147D01*
X193483Y164506D01*
X194456Y164103D01*
X195500Y163965D01*
X200457D01*
Y162034D01*
X198500D01*
Y158000D01*
Y153965D01*
X200457D01*
Y152034D01*
X195500D01*
X194456Y151897D01*
X193483Y151494D01*
X192647Y150853D01*
X192006Y150017D01*
X191603Y149044D01*
X191465Y148000D01*
X191603Y146956D01*
X192006Y145983D01*
X192647Y145147D01*
X193483Y144506D01*
X194456Y144103D01*
X195500Y143965D01*
X200457D01*
Y142034D01*
X198500D01*
Y138000D01*
Y133966D01*
X200457D01*
Y132035D01*
X198500D01*
Y128000D01*
Y123966D01*
X200457D01*
Y122035D01*
X195500D01*
X194456Y121897D01*
X193483Y121494D01*
X192647Y120853D01*
X192006Y120017D01*
X191603Y119044D01*
X191465Y118000D01*
X191603Y116956D01*
X192006Y115983D01*
X192647Y115147D01*
X193483Y114506D01*
X194456Y114103D01*
X195500Y113965D01*
X200457D01*
Y112034D01*
X195500D01*
X194456Y111897D01*
X193483Y111494D01*
X192647Y110853D01*
X192006Y110017D01*
X191603Y109044D01*
X191465Y108000D01*
X191603Y106956D01*
X192006Y105983D01*
X192647Y105147D01*
X193483Y104506D01*
X194456Y104103D01*
X195500Y103965D01*
X200457D01*
Y102034D01*
X195500D01*
X194456Y101897D01*
X193483Y101494D01*
X192647Y100853D01*
X192006Y100017D01*
X191603Y99044D01*
X191465Y98000D01*
X191603Y96956D01*
X192006Y95983D01*
X192647Y95147D01*
X193483Y94506D01*
X194456Y94103D01*
X195500Y93966D01*
X200457D01*
Y92035D01*
X195500D01*
X194456Y91897D01*
X193483Y91494D01*
X192647Y90853D01*
X192006Y90017D01*
X191603Y89044D01*
X191465Y88000D01*
X191603Y86956D01*
X192006Y85983D01*
X192647Y85147D01*
X193483Y84506D01*
X194456Y84103D01*
X195500Y83965D01*
X200457D01*
Y82034D01*
X195500D01*
X194456Y81897D01*
X193483Y81494D01*
X192647Y80853D01*
X192006Y80017D01*
X191603Y79044D01*
X191465Y78000D01*
X191603Y76956D01*
X192006Y75983D01*
X192647Y75147D01*
X193483Y74506D01*
X194456Y74103D01*
X195500Y73966D01*
X200457D01*
Y72035D01*
X198500D01*
Y68000D01*
Y63965D01*
X200457D01*
Y62034D01*
X198500D01*
Y58000D01*
Y53966D01*
X200457D01*
Y52034D01*
X195500D01*
X194456Y51897D01*
X193483Y51494D01*
X192647Y50853D01*
X192006Y50017D01*
X191603Y49044D01*
X191465Y48000D01*
X191603Y46956D01*
X192006Y45983D01*
X192647Y45147D01*
X193483Y44506D01*
X194456Y44103D01*
X195500Y43966D01*
X200457D01*
Y42035D01*
X195500D01*
X194456Y41897D01*
X193483Y41494D01*
X192647Y40853D01*
X192006Y40017D01*
X191603Y39044D01*
X191465Y38000D01*
X191603Y36956D01*
X192006Y35983D01*
X192647Y35147D01*
X193483Y34506D01*
X194456Y34103D01*
X195500Y33966D01*
X200457D01*
Y32035D01*
X195500D01*
X194456Y31897D01*
X193483Y31494D01*
X192647Y30853D01*
X192006Y30017D01*
X191603Y29044D01*
X191465Y28000D01*
X191603Y26956D01*
X192006Y25983D01*
X192647Y25147D01*
X193483Y24506D01*
X194456Y24103D01*
X195500Y23966D01*
X200457D01*
Y14338D01*
X199857Y14060D01*
X199044Y14397D01*
X198000Y14535D01*
X196956Y14397D01*
X195983Y13994D01*
X195147Y13353D01*
X194506Y12517D01*
X194103Y11544D01*
X193965Y10500D01*
Y5500D01*
X193966Y5494D01*
X193571Y5043D01*
X192429D01*
X192034Y5494D01*
X192034Y5500D01*
Y10500D01*
X191897Y11544D01*
X191494Y12517D01*
X190853Y13353D01*
X190017Y13994D01*
X189044Y14397D01*
X188000Y14535D01*
X186956Y14397D01*
X185983Y13994D01*
X185147Y13353D01*
X184506Y12517D01*
X184103Y11544D01*
X183966Y10500D01*
Y5500D01*
X183966Y5494D01*
X183571Y5043D01*
X182429D01*
X182034Y5494D01*
X182035Y5500D01*
Y10500D01*
X181897Y11544D01*
X181494Y12517D01*
X180853Y13353D01*
X180017Y13994D01*
X179044Y14397D01*
X178000Y14535D01*
X176956Y14397D01*
X175983Y13994D01*
X175147Y13353D01*
X174506Y12517D01*
X174103Y11544D01*
X173966Y10500D01*
Y5500D01*
X173966Y5494D01*
X173571Y5043D01*
X172429D01*
X172034Y5494D01*
X172035Y5500D01*
Y10500D01*
X171897Y11544D01*
X171494Y12517D01*
X170853Y13353D01*
X170017Y13994D01*
X169044Y14397D01*
X168000Y14535D01*
X166956Y14397D01*
X165983Y13994D01*
X165147Y13353D01*
X164506Y12517D01*
X164103Y11544D01*
X163965Y10500D01*
Y5500D01*
X163966Y5494D01*
X163571Y5043D01*
X162429D01*
X162034Y5494D01*
X162034Y5500D01*
Y10500D01*
X161897Y11544D01*
X161494Y12517D01*
X160853Y13353D01*
X160017Y13994D01*
X159044Y14397D01*
X158000Y14535D01*
X156956Y14397D01*
X155983Y13994D01*
X155147Y13353D01*
X154506Y12517D01*
X154103Y11544D01*
X153965Y10500D01*
Y5500D01*
X153966Y5494D01*
X153571Y5043D01*
X152429D01*
X152034Y5494D01*
X152034Y5500D01*
Y10500D01*
X151897Y11544D01*
X151494Y12517D01*
X150853Y13353D01*
X150017Y13994D01*
X149044Y14397D01*
X148000Y14535D01*
X146956Y14397D01*
X145983Y13994D01*
X145147Y13353D01*
X144506Y12517D01*
X144103Y11544D01*
X143965Y10500D01*
Y5500D01*
X143966Y5494D01*
X143571Y5043D01*
X142429D01*
X142034Y5494D01*
X142034Y5500D01*
Y10500D01*
X141897Y11544D01*
X141494Y12517D01*
X140853Y13353D01*
X140017Y13994D01*
X139044Y14397D01*
X138000Y14535D01*
X136956Y14397D01*
X135983Y13994D01*
X135147Y13353D01*
X134506Y12517D01*
X134103Y11544D01*
X133966Y10500D01*
Y5500D01*
X133966Y5494D01*
X133571Y5043D01*
X132429D01*
X132034Y5494D01*
X132035Y5500D01*
Y10500D01*
X131897Y11544D01*
X131494Y12517D01*
X130853Y13353D01*
X130017Y13994D01*
X129044Y14397D01*
X128000Y14535D01*
X126956Y14397D01*
X125983Y13994D01*
X125147Y13353D01*
X124506Y12517D01*
X124103Y11544D01*
X123966Y10500D01*
Y5500D01*
X123966Y5494D01*
X123571Y5043D01*
X122429D01*
X122034Y5494D01*
X122035Y5500D01*
Y10500D01*
X121897Y11544D01*
X121494Y12517D01*
X120853Y13353D01*
X120017Y13994D01*
X119044Y14397D01*
X118000Y14535D01*
X116956Y14397D01*
X115983Y13994D01*
X115147Y13353D01*
X114506Y12517D01*
X114103Y11544D01*
X113965Y10500D01*
Y5500D01*
X113966Y5494D01*
X113571Y5043D01*
X112429D01*
X112034Y5494D01*
X112034Y5500D01*
Y10500D01*
X111897Y11544D01*
X111494Y12517D01*
X110853Y13353D01*
X110017Y13994D01*
X109044Y14397D01*
X108000Y14535D01*
X106956Y14397D01*
X105983Y13994D01*
X105147Y13353D01*
X104506Y12517D01*
X104103Y11544D01*
X103965Y10500D01*
Y5500D01*
X103966Y5494D01*
X103571Y5043D01*
X102429D01*
X102034Y5494D01*
X102034Y5500D01*
Y7500D01*
X98000D01*
X93966D01*
Y5500D01*
X93966Y5494D01*
X93571Y5043D01*
X92429D01*
X92034Y5494D01*
X92035Y5500D01*
Y7500D01*
X88000D01*
X83965D01*
Y5500D01*
X83966Y5494D01*
X83571Y5043D01*
X82429D01*
X82034Y5494D01*
X82034Y5500D01*
Y10500D01*
X81897Y11544D01*
X81494Y12517D01*
X80853Y13353D01*
X80017Y13994D01*
X79427Y14238D01*
Y95500D01*
X79427Y95500D01*
X79319Y96046D01*
X79009Y96509D01*
X79025Y97071D01*
X79072Y97142D01*
X79243Y98000D01*
X79072Y98858D01*
X78586Y99586D01*
X77858Y100072D01*
X77000Y100243D01*
X76142Y100072D01*
X75725Y99794D01*
X55427Y120091D01*
Y147808D01*
X55586Y147914D01*
X56072Y148642D01*
X56243Y149500D01*
X56072Y150358D01*
X55586Y151086D01*
X54858Y151572D01*
X54000Y151743D01*
X53142Y151572D01*
X52414Y151086D01*
X51928Y150358D01*
X51757Y149500D01*
X51928Y148642D01*
X52414Y147914D01*
X52573Y147808D01*
Y136928D01*
X52383Y136795D01*
X51973Y136662D01*
X51358Y137072D01*
X50500Y137243D01*
X49642Y137072D01*
X48914Y136586D01*
X48428Y135858D01*
X48257Y135000D01*
Y110603D01*
X48428Y109745D01*
X48914Y109017D01*
X55757Y102174D01*
Y28000D01*
X55928Y27142D01*
X56414Y26414D01*
X65757Y17071D01*
Y13821D01*
X65147Y13353D01*
X64506Y12517D01*
X64103Y11544D01*
X63965Y10500D01*
Y5500D01*
X63966Y5494D01*
X63571Y5043D01*
X62429D01*
X62034Y5494D01*
X62034Y5500D01*
Y10500D01*
X61897Y11544D01*
X61494Y12517D01*
X60853Y13353D01*
X60017Y13994D01*
X59427Y14238D01*
Y17000D01*
X59427Y17000D01*
X59319Y17546D01*
X59009Y18009D01*
X59009Y18009D01*
X46227Y30791D01*
Y155108D01*
X46386Y155214D01*
X46872Y155942D01*
X47043Y156800D01*
X46872Y157658D01*
X46386Y158386D01*
X45658Y158872D01*
X44800Y159043D01*
X44027Y158889D01*
X43563Y159075D01*
X43427Y159147D01*
Y163508D01*
X43586Y163614D01*
X44072Y164342D01*
X44243Y165200D01*
X44072Y166058D01*
X43586Y166786D01*
X42858Y167272D01*
X42000Y167443D01*
X41142Y167272D01*
X40414Y166786D01*
X39928Y166058D01*
X39757Y165200D01*
X39790Y165034D01*
X39366Y164610D01*
X39200Y164643D01*
X38427Y164489D01*
X37963Y164675D01*
X37827Y164747D01*
Y166308D01*
X37986Y166414D01*
X38472Y167142D01*
X38643Y168000D01*
X38472Y168858D01*
X37986Y169586D01*
X37258Y170072D01*
X36400Y170243D01*
X35542Y170072D01*
X34814Y169586D01*
X34328Y168858D01*
X34157Y168000D01*
X34328Y167142D01*
X34814Y166414D01*
X34973Y166308D01*
Y161947D01*
X34837Y161875D01*
X34373Y161689D01*
X33600Y161843D01*
X32742Y161672D01*
X32014Y161186D01*
X31528Y160458D01*
X31357Y159600D01*
X31528Y158742D01*
X32014Y158014D01*
X32173Y157908D01*
Y150416D01*
X31573Y150357D01*
X31572Y150358D01*
X31086Y151086D01*
X30358Y151572D01*
X29500Y151743D01*
X28642Y151572D01*
X27914Y151086D01*
X27428Y150358D01*
X27257Y149500D01*
X27428Y148642D01*
X27914Y147914D01*
X28073Y147808D01*
Y128591D01*
X18909Y119427D01*
X14238D01*
X13994Y120017D01*
X13353Y120853D01*
X12517Y121494D01*
X11544Y121897D01*
X10500Y122035D01*
X5500D01*
X5494Y122034D01*
X5043Y122429D01*
Y123571D01*
X5494Y123966D01*
X5500Y123966D01*
X10500D01*
X11544Y124103D01*
X12517Y124506D01*
X13353Y125147D01*
X13994Y125983D01*
X14397Y126956D01*
X14535Y128000D01*
X14397Y129044D01*
X13994Y130017D01*
X13353Y130853D01*
X12517Y131494D01*
X11544Y131897D01*
X10500Y132035D01*
X5500D01*
X5494Y132034D01*
X5043Y132429D01*
Y133571D01*
X5494Y133966D01*
X5500Y133966D01*
X10500D01*
X11544Y134103D01*
X12517Y134506D01*
X13353Y135147D01*
X13994Y135983D01*
X14397Y136956D01*
X14535Y138000D01*
X14397Y139044D01*
X13994Y140017D01*
X13353Y140853D01*
X12517Y141494D01*
X11544Y141897D01*
X10500Y142034D01*
X5500D01*
X5494Y142034D01*
X5043Y142429D01*
Y143571D01*
X5494Y143966D01*
X5500Y143965D01*
X10500D01*
X11544Y144103D01*
X12517Y144506D01*
X13353Y145147D01*
X13994Y145983D01*
X14397Y146956D01*
X14535Y148000D01*
X14397Y149044D01*
X13994Y150017D01*
X13353Y150853D01*
X12517Y151494D01*
X11544Y151897D01*
X10500Y152034D01*
X5500D01*
X5494Y152034D01*
X5043Y152429D01*
Y153571D01*
X5494Y153966D01*
X5500Y153965D01*
X10500D01*
X11544Y154103D01*
X12517Y154506D01*
X13353Y155147D01*
X13994Y155983D01*
X14397Y156956D01*
X14535Y158000D01*
X14397Y159044D01*
X13994Y160017D01*
X13353Y160853D01*
X12517Y161494D01*
X11544Y161897D01*
X10500Y162034D01*
X5500D01*
X5494Y162034D01*
X5043Y162429D01*
Y163571D01*
X5494Y163966D01*
X5500Y163965D01*
X7500D01*
Y168000D01*
Y172035D01*
X5500D01*
X5494Y172034D01*
X5043Y172429D01*
Y173571D01*
X5494Y173966D01*
X5500Y173966D01*
X10500D01*
X11544Y174103D01*
X12517Y174506D01*
X13353Y175147D01*
X13994Y175983D01*
X14397Y176956D01*
X14535Y178000D01*
X14397Y179044D01*
X13994Y180017D01*
X13353Y180853D01*
X12517Y181494D01*
X11544Y181897D01*
X10500Y182035D01*
X5500D01*
X5494Y182034D01*
X5043Y182429D01*
Y183571D01*
X5494Y183966D01*
X5500Y183966D01*
X7500D01*
Y188000D01*
Y192034D01*
X5500D01*
X5494Y192034D01*
X5043Y192429D01*
Y193571D01*
X5494Y193966D01*
X5500Y193965D01*
X10500D01*
X11544Y194103D01*
X12517Y194506D01*
X13353Y195147D01*
X13994Y195983D01*
X14397Y196956D01*
X14535Y198000D01*
X14397Y199044D01*
X13994Y200017D01*
X13353Y200853D01*
X12517Y201494D01*
X11544Y201897D01*
X10500Y202034D01*
X5500D01*
X5494Y202034D01*
X5043Y202429D01*
Y203571D01*
X5494Y203966D01*
X5500Y203965D01*
X7500D01*
Y208000D01*
Y212035D01*
X5500D01*
X5494Y212034D01*
X5043Y212429D01*
Y214000D01*
X14500D01*
Y222000D01*
X5043D01*
Y248957D01*
X19118D01*
X19340Y248357D01*
X18425Y247575D01*
X17044Y245960D01*
X15934Y244148D01*
X15121Y242185D01*
X14625Y240118D01*
X14458Y238000D01*
X14625Y235882D01*
X15121Y233815D01*
X15934Y231852D01*
X17044Y230040D01*
X18425Y228425D01*
X20040Y227045D01*
X21852Y225934D01*
X23815Y225121D01*
X25882Y224625D01*
X28000Y224458D01*
X30118Y224625D01*
X32185Y225121D01*
X34148Y225934D01*
X35960Y227045D01*
X37576Y228425D01*
X38956Y230040D01*
X40066Y231852D01*
X40879Y233815D01*
X41375Y235882D01*
X41542Y238000D01*
X41375Y240118D01*
X40879Y242185D01*
X40066Y244148D01*
X38956Y245960D01*
X37576Y247575D01*
X36661Y248357D01*
X36882Y248957D01*
X169118D01*
X169340Y248357D01*
X168424Y247575D01*
X167044Y245960D01*
X165934Y244148D01*
X165121Y242185D01*
X164625Y240118D01*
X164458Y238000D01*
X164625Y235882D01*
X165121Y233815D01*
X165934Y231852D01*
X167044Y230040D01*
X168424Y228425D01*
X170040Y227045D01*
X171852Y225934D01*
X173815Y225121D01*
X175882Y224625D01*
X178000Y224458D01*
X180118Y224625D01*
X182185Y225121D01*
X184148Y225934D01*
X185960Y227045D01*
X187575Y228425D01*
X188955Y230040D01*
X190066Y231852D01*
X190879Y233815D01*
X191375Y235882D01*
X191542Y238000D01*
X191375Y240118D01*
X190879Y242185D01*
X190066Y244148D01*
X188955Y245960D01*
X187575Y247575D01*
X186661Y248357D01*
X186882Y248957D01*
X200457D01*
Y222000D01*
D02*
G37*
G36*
X32173Y148584D02*
Y53529D01*
X31124D01*
X31086Y53586D01*
X30358Y54072D01*
X29500Y54243D01*
X28642Y54072D01*
X27914Y53586D01*
X27428Y52858D01*
X27257Y52000D01*
X27428Y51142D01*
X27914Y50414D01*
X28642Y49928D01*
X29500Y49757D01*
X30358Y49928D01*
X31086Y50414D01*
X31124Y50471D01*
X32173D01*
Y31691D01*
X16991Y16509D01*
X16681Y16046D01*
X16573Y15500D01*
X16573Y15500D01*
Y14238D01*
X15983Y13994D01*
X15147Y13353D01*
X14506Y12517D01*
X14103Y11544D01*
X13965Y10500D01*
Y5500D01*
X13966Y5494D01*
X13571Y5043D01*
X12000D01*
Y7500D01*
X8000D01*
Y8000D01*
X7500D01*
Y14500D01*
X5043D01*
Y23571D01*
X5494Y23966D01*
X5500Y23966D01*
X10500D01*
X11544Y24103D01*
X12517Y24506D01*
X13353Y25147D01*
X13994Y25983D01*
X14397Y26956D01*
X14535Y28000D01*
X14397Y29044D01*
X13994Y30017D01*
X13353Y30853D01*
X12517Y31494D01*
X11544Y31897D01*
X10500Y32035D01*
X5500D01*
X5494Y32034D01*
X5043Y32429D01*
Y33571D01*
X5494Y33966D01*
X5500Y33966D01*
X10500D01*
X11544Y34103D01*
X12517Y34506D01*
X13353Y35147D01*
X13994Y35983D01*
X14397Y36956D01*
X14535Y38000D01*
X14397Y39044D01*
X13994Y40017D01*
X13353Y40853D01*
X12517Y41494D01*
X11544Y41897D01*
X10500Y42035D01*
X5500D01*
X5494Y42034D01*
X5043Y42429D01*
Y43571D01*
X5494Y43966D01*
X5500Y43966D01*
X10500D01*
X11544Y44103D01*
X12517Y44506D01*
X13353Y45147D01*
X13994Y45983D01*
X14397Y46956D01*
X14535Y48000D01*
X14397Y49044D01*
X13994Y50017D01*
X13353Y50853D01*
X12517Y51494D01*
X11544Y51897D01*
X10500Y52034D01*
X5500D01*
X5494Y52034D01*
X5043Y52429D01*
Y53571D01*
X5494Y53966D01*
X5500Y53966D01*
X10500D01*
X11544Y54103D01*
X12517Y54506D01*
X13353Y55147D01*
X13994Y55983D01*
X14397Y56956D01*
X14535Y58000D01*
X14397Y59044D01*
X13994Y60017D01*
X13353Y60853D01*
X12517Y61494D01*
X11544Y61897D01*
X10500Y62034D01*
X5500D01*
X5494Y62034D01*
X5043Y62429D01*
Y63571D01*
X5494Y63966D01*
X5500Y63965D01*
X7500D01*
Y68000D01*
Y72035D01*
X5500D01*
X5494Y72034D01*
X5043Y72429D01*
Y73571D01*
X5494Y73966D01*
X5500Y73966D01*
X7500D01*
Y78000D01*
Y82034D01*
X5500D01*
X5494Y82034D01*
X5043Y82429D01*
Y83571D01*
X5494Y83966D01*
X5500Y83965D01*
X10500D01*
X11544Y84103D01*
X12517Y84506D01*
X13353Y85147D01*
X13994Y85983D01*
X14397Y86956D01*
X14535Y88000D01*
X14397Y89044D01*
X13994Y90017D01*
X13353Y90853D01*
X12517Y91494D01*
X11544Y91897D01*
X10500Y92035D01*
X5500D01*
X5494Y92034D01*
X5043Y92429D01*
Y93571D01*
X5494Y93966D01*
X5500Y93966D01*
X10500D01*
X11544Y94103D01*
X12517Y94506D01*
X13353Y95147D01*
X13994Y95983D01*
X14397Y96956D01*
X14535Y98000D01*
X14397Y99044D01*
X13994Y100017D01*
X13353Y100853D01*
X12517Y101494D01*
X11544Y101897D01*
X10500Y102034D01*
X5500D01*
X5494Y102034D01*
X5043Y102429D01*
Y103571D01*
X5494Y103966D01*
X5500Y103965D01*
X10500D01*
X11544Y104103D01*
X12517Y104506D01*
X13353Y105147D01*
X13994Y105983D01*
X14397Y106956D01*
X14535Y108000D01*
X14397Y109044D01*
X13994Y110017D01*
X13353Y110853D01*
X12517Y111494D01*
X11544Y111897D01*
X10500Y112034D01*
X5500D01*
X5494Y112034D01*
X5043Y112429D01*
Y113571D01*
X5494Y113966D01*
X5500Y113965D01*
X10500D01*
X11544Y114103D01*
X12517Y114506D01*
X13353Y115147D01*
X13994Y115983D01*
X14238Y116573D01*
X19500D01*
X19500Y116573D01*
X20046Y116681D01*
X20509Y116991D01*
X30509Y126991D01*
X30509Y126991D01*
X30819Y127454D01*
X30927Y128000D01*
X30927Y128000D01*
Y147808D01*
X31086Y147914D01*
X31572Y148642D01*
X31573Y148643D01*
X32173Y148584D01*
D02*
G37*
G36*
X76573Y94909D02*
Y14238D01*
X75983Y13994D01*
X75147Y13353D01*
X74506Y12517D01*
X74103Y11544D01*
X73966Y10500D01*
Y5500D01*
X73966Y5494D01*
X73571Y5043D01*
X72429D01*
X72034Y5494D01*
X72035Y5500D01*
Y10500D01*
X71897Y11544D01*
X71494Y12517D01*
X70853Y13353D01*
X70243Y13821D01*
Y18000D01*
X70072Y18858D01*
X69586Y19586D01*
X60243Y28929D01*
Y103103D01*
X60072Y103961D01*
X59586Y104689D01*
X52743Y111532D01*
Y117890D01*
X53343Y118138D01*
X76573Y94909D01*
D02*
G37*
%LPC*%
G36*
X197500Y222000D02*
X191500D01*
Y218500D01*
X197500D01*
Y222000D01*
D02*
G37*
G36*
Y217500D02*
X191500D01*
Y214000D01*
X197500D01*
Y217500D01*
D02*
G37*
G36*
X10500Y212035D02*
X8500D01*
Y208500D01*
X14469D01*
X14397Y209044D01*
X13994Y210017D01*
X13353Y210853D01*
X12517Y211494D01*
X11544Y211897D01*
X10500Y212035D01*
D02*
G37*
G36*
X14469Y207500D02*
X8500D01*
Y203965D01*
X10500D01*
X11544Y204103D01*
X12517Y204506D01*
X13353Y205147D01*
X13994Y205983D01*
X14397Y206956D01*
X14469Y207500D01*
D02*
G37*
G36*
X122500Y195123D02*
X122500Y195122D01*
X75000D01*
X75000Y195123D01*
X74321Y195033D01*
X73689Y194771D01*
X73146Y194354D01*
X73146Y194354D01*
X63146Y184354D01*
X62729Y183811D01*
X62467Y183179D01*
X62378Y182500D01*
X62378Y182500D01*
Y174631D01*
X57676D01*
X53154Y179154D01*
X52624Y179507D01*
X52000Y179631D01*
X46518D01*
X45858Y180072D01*
X45000Y180243D01*
X44142Y180072D01*
X43414Y179586D01*
X42928Y178858D01*
X42757Y178000D01*
X42928Y177142D01*
X43414Y176414D01*
X44142Y175928D01*
X45000Y175757D01*
X45858Y175928D01*
X46518Y176369D01*
X51324D01*
X55847Y171846D01*
X56376Y171493D01*
X57000Y171369D01*
X62378D01*
Y168500D01*
Y135000D01*
X62378Y135000D01*
X62467Y134321D01*
X62729Y133689D01*
X63146Y133146D01*
X73146Y123146D01*
X73146Y123146D01*
X73689Y122729D01*
X74321Y122467D01*
X75000Y122378D01*
X75000Y122378D01*
X109137D01*
X109137Y122378D01*
X109816Y122467D01*
X110448Y122729D01*
X110991Y123146D01*
X111523Y123678D01*
X112310D01*
X112559Y123078D01*
X106909Y117427D01*
X104692D01*
X104586Y117586D01*
X103858Y118072D01*
X103000Y118243D01*
X102142Y118072D01*
X101414Y117586D01*
X100928Y116858D01*
X100757Y116000D01*
X100812Y115725D01*
X100301Y115215D01*
X100000Y115275D01*
X99142Y115104D01*
X98414Y114618D01*
X97928Y113890D01*
X97757Y113031D01*
X97928Y112173D01*
X98414Y111445D01*
X99142Y110959D01*
X100000Y110788D01*
X100858Y110959D01*
X101586Y111445D01*
X101692Y111604D01*
X110878D01*
X110878Y111604D01*
X111424Y111713D01*
X111887Y112022D01*
X115813Y115948D01*
X116000Y115910D01*
X116858Y116081D01*
X117586Y116567D01*
X118072Y117295D01*
X118243Y118154D01*
X118072Y119012D01*
X117586Y119740D01*
X117446Y119833D01*
X117418Y120026D01*
X117497Y120520D01*
X118086Y120914D01*
X118413Y121404D01*
X119119Y121547D01*
X122378Y118288D01*
Y110000D01*
Y100000D01*
Y95000D01*
X122467Y94321D01*
X122729Y93689D01*
X123146Y93146D01*
X123689Y92729D01*
X124321Y92467D01*
X125000Y92378D01*
X125679Y92467D01*
X126311Y92729D01*
X126854Y93146D01*
X127271Y93689D01*
X127533Y94321D01*
X127622Y95000D01*
Y100000D01*
Y110000D01*
Y119374D01*
X127622Y119374D01*
X127533Y120053D01*
X127271Y120685D01*
X126854Y121228D01*
X126854Y121228D01*
X119928Y128154D01*
X119385Y128571D01*
X118753Y128833D01*
X118074Y128922D01*
X118074Y128922D01*
X110437D01*
X110437Y128922D01*
X109758Y128833D01*
X109126Y128571D01*
X108583Y128154D01*
X108583Y128154D01*
X108051Y127622D01*
X76086D01*
X67622Y136086D01*
Y168500D01*
Y173000D01*
Y181414D01*
X76086Y189878D01*
X121414D01*
X129878Y181414D01*
Y162244D01*
X129967Y161565D01*
X130229Y160933D01*
X130646Y160390D01*
X131189Y159973D01*
X131821Y159711D01*
X132500Y159622D01*
X133179Y159711D01*
X133811Y159973D01*
X134354Y160390D01*
X134771Y160933D01*
X135033Y161565D01*
X135122Y162244D01*
Y182500D01*
X135123Y182500D01*
X135033Y183179D01*
X134771Y183811D01*
X134354Y184354D01*
X134354Y184354D01*
X124354Y194354D01*
X123811Y194771D01*
X123179Y195033D01*
X122500Y195123D01*
D02*
G37*
G36*
X197500Y192034D02*
X195500D01*
X194456Y191897D01*
X193483Y191494D01*
X192647Y190853D01*
X192006Y190017D01*
X191603Y189044D01*
X191531Y188500D01*
X197500D01*
Y192034D01*
D02*
G37*
G36*
X10500D02*
X8500D01*
Y188500D01*
X14469D01*
X14397Y189044D01*
X13994Y190017D01*
X13353Y190853D01*
X12517Y191494D01*
X11544Y191897D01*
X10500Y192034D01*
D02*
G37*
G36*
X197500Y187500D02*
X191531D01*
X191603Y186956D01*
X192006Y185983D01*
X192647Y185147D01*
X193483Y184506D01*
X194456Y184103D01*
X195500Y183966D01*
X197500D01*
Y187500D01*
D02*
G37*
G36*
X14469D02*
X8500D01*
Y183966D01*
X10500D01*
X11544Y184103D01*
X12517Y184506D01*
X13353Y185147D01*
X13994Y185983D01*
X14397Y186956D01*
X14469Y187500D01*
D02*
G37*
G36*
X10500Y172035D02*
X8500D01*
Y168500D01*
X14469D01*
X14397Y169044D01*
X13994Y170017D01*
X13353Y170853D01*
X12517Y171494D01*
X11544Y171897D01*
X10500Y172035D01*
D02*
G37*
G36*
X14469Y167500D02*
X8500D01*
Y163965D01*
X10500D01*
X11544Y164103D01*
X12517Y164506D01*
X13353Y165147D01*
X13994Y165983D01*
X14397Y166956D01*
X14469Y167500D01*
D02*
G37*
G36*
X197500Y162034D02*
X195500D01*
X194456Y161897D01*
X193483Y161494D01*
X192647Y160853D01*
X192006Y160017D01*
X191603Y159044D01*
X191531Y158500D01*
X197500D01*
Y162034D01*
D02*
G37*
G36*
X160500Y206743D02*
X151500D01*
X150642Y206572D01*
X149914Y206086D01*
X149428Y205358D01*
X149257Y204500D01*
X149428Y203642D01*
X149914Y202914D01*
X150642Y202428D01*
X151500Y202257D01*
X159571D01*
X172757Y189071D01*
Y163429D01*
X170914Y161586D01*
X168414Y159086D01*
X167928Y158358D01*
X167757Y157500D01*
X167928Y156642D01*
X168414Y155914D01*
X169142Y155428D01*
X170000Y155257D01*
X170858Y155428D01*
X171586Y155914D01*
X174086Y158414D01*
X176586Y160914D01*
X177072Y161642D01*
X177243Y162500D01*
Y190000D01*
X177072Y190858D01*
X176586Y191586D01*
X162086Y206086D01*
X161358Y206572D01*
X160500Y206743D01*
D02*
G37*
G36*
X197500Y157500D02*
X191531D01*
X191603Y156956D01*
X192006Y155983D01*
X192647Y155147D01*
X193483Y154506D01*
X194456Y154103D01*
X195500Y153965D01*
X197500D01*
Y157500D01*
D02*
G37*
G36*
Y142034D02*
X195500D01*
X194456Y141897D01*
X193483Y141494D01*
X192647Y140853D01*
X192006Y140017D01*
X191603Y139044D01*
X191531Y138500D01*
X197500D01*
Y142034D01*
D02*
G37*
G36*
Y137500D02*
X191531D01*
X191603Y136956D01*
X192006Y135983D01*
X192647Y135147D01*
X193483Y134506D01*
X194456Y134103D01*
X195500Y133966D01*
X197500D01*
Y137500D01*
D02*
G37*
G36*
Y132035D02*
X195500D01*
X194456Y131897D01*
X193483Y131494D01*
X192647Y130853D01*
X192006Y130017D01*
X191603Y129044D01*
X191531Y128500D01*
X197500D01*
Y132035D01*
D02*
G37*
G36*
Y127500D02*
X191531D01*
X191603Y126956D01*
X192006Y125983D01*
X192647Y125147D01*
X193483Y124506D01*
X194456Y124103D01*
X195500Y123966D01*
X197500D01*
Y127500D01*
D02*
G37*
G36*
Y72035D02*
X195500D01*
X194456Y71897D01*
X193483Y71494D01*
X192647Y70853D01*
X192006Y70017D01*
X191603Y69044D01*
X191531Y68500D01*
X197500D01*
Y72035D01*
D02*
G37*
G36*
Y67500D02*
X191531D01*
X191603Y66956D01*
X192006Y65983D01*
X192647Y65147D01*
X193483Y64506D01*
X194456Y64103D01*
X195500Y63965D01*
X197500D01*
Y67500D01*
D02*
G37*
G36*
Y62034D02*
X195500D01*
X194456Y61897D01*
X193483Y61494D01*
X192647Y60853D01*
X192006Y60017D01*
X191603Y59044D01*
X191531Y58500D01*
X197500D01*
Y62034D01*
D02*
G37*
G36*
Y57500D02*
X191531D01*
X191603Y56956D01*
X192006Y55983D01*
X192647Y55147D01*
X193483Y54506D01*
X194456Y54103D01*
X195500Y53966D01*
X197500D01*
Y57500D01*
D02*
G37*
G36*
X98000Y51542D02*
X95882Y51375D01*
X93815Y50879D01*
X91852Y50066D01*
X90040Y48956D01*
X88424Y47576D01*
X87045Y45960D01*
X85934Y44148D01*
X85121Y42185D01*
X84625Y40118D01*
X84458Y38000D01*
X84625Y35882D01*
X85121Y33815D01*
X85934Y31852D01*
X87045Y30040D01*
X88424Y28425D01*
X90040Y27044D01*
X91852Y25934D01*
X93815Y25121D01*
X95882Y24625D01*
X98000Y24458D01*
X100118Y24625D01*
X102185Y25121D01*
X104148Y25934D01*
X105960Y27044D01*
X107576Y28425D01*
X108956Y30040D01*
X110066Y31852D01*
X110879Y33815D01*
X111375Y35882D01*
X111542Y38000D01*
X111375Y40118D01*
X110879Y42185D01*
X110066Y44148D01*
X108956Y45960D01*
X107576Y47576D01*
X105960Y48956D01*
X104148Y50066D01*
X102185Y50879D01*
X100118Y51375D01*
X98000Y51542D01*
D02*
G37*
G36*
X98500Y14469D02*
Y8500D01*
X102034D01*
Y10500D01*
X101897Y11544D01*
X101494Y12517D01*
X100853Y13353D01*
X100017Y13994D01*
X99044Y14397D01*
X98500Y14469D01*
D02*
G37*
G36*
X88500D02*
Y8500D01*
X92035D01*
Y10500D01*
X91897Y11544D01*
X91494Y12517D01*
X90853Y13353D01*
X90017Y13994D01*
X89044Y14397D01*
X88500Y14469D01*
D02*
G37*
G36*
X97500D02*
X96956Y14397D01*
X95983Y13994D01*
X95147Y13353D01*
X94506Y12517D01*
X94103Y11544D01*
X93966Y10500D01*
Y8500D01*
X97500D01*
Y14469D01*
D02*
G37*
G36*
X87500D02*
X86956Y14397D01*
X85983Y13994D01*
X85147Y13353D01*
X84506Y12517D01*
X84103Y11544D01*
X83965Y10500D01*
Y8500D01*
X87500D01*
Y14469D01*
D02*
G37*
G36*
X10500Y82034D02*
X8500D01*
Y78500D01*
X14469D01*
X14397Y79044D01*
X13994Y80017D01*
X13353Y80853D01*
X12517Y81494D01*
X11544Y81897D01*
X10500Y82034D01*
D02*
G37*
G36*
X14469Y77500D02*
X8500D01*
Y73966D01*
X10500D01*
X11544Y74103D01*
X12517Y74506D01*
X13353Y75147D01*
X13994Y75983D01*
X14397Y76956D01*
X14469Y77500D01*
D02*
G37*
G36*
X10500Y72035D02*
X8500D01*
Y68500D01*
X14469D01*
X14397Y69044D01*
X13994Y70017D01*
X13353Y70853D01*
X12517Y71494D01*
X11544Y71897D01*
X10500Y72035D01*
D02*
G37*
G36*
X14469Y67500D02*
X8500D01*
Y63965D01*
X10500D01*
X11544Y64103D01*
X12517Y64506D01*
X13353Y65147D01*
X13994Y65983D01*
X14397Y66956D01*
X14469Y67500D01*
D02*
G37*
G36*
X12000Y14500D02*
X8500D01*
Y8500D01*
X12000D01*
Y14500D01*
D02*
G37*
%LPD*%
D14*
X29500Y52000D02*
X33600D01*
X0Y0D02*
Y254000D01*
X205500D01*
Y0D02*
Y254000D01*
X0Y0D02*
X205500D01*
D46*
X58000Y28000D02*
Y103103D01*
X50500Y110603D02*
X58000Y103103D01*
X50500Y110603D02*
Y135000D01*
X151500Y204500D02*
X155500D01*
X160500D01*
X175000Y190000D01*
Y162500D02*
Y190000D01*
X170000Y157500D02*
X172500Y160000D01*
X175000Y162500D01*
X68000Y8000D02*
Y18000D01*
X58000Y28000D02*
X68000Y18000D01*
D47*
X125000Y110000D02*
Y119374D01*
Y100000D02*
Y110000D01*
X101500Y125000D02*
X109137D01*
X75000D02*
X101500D01*
X118074Y126300D02*
X125000Y119374D01*
X110437Y126300D02*
X118074D01*
X109137Y125000D02*
X110437Y126300D01*
X65000Y173000D02*
Y182500D01*
Y168500D02*
Y173000D01*
X75000Y192500D02*
X95000D01*
X125000Y95000D02*
Y100000D01*
X65000Y135000D02*
X75000Y125000D01*
X65000Y182500D02*
X75000Y192500D01*
X122500D02*
X132500Y182500D01*
X65000Y135000D02*
Y168500D01*
X95000Y192500D02*
X113500D01*
X122500D01*
X132500Y162244D02*
Y182500D01*
D48*
X33600Y52000D02*
Y159600D01*
Y31100D02*
Y52000D01*
X107500Y116000D02*
X114000Y122500D01*
X116500D01*
X103000Y116000D02*
X107500D01*
X110878Y113031D02*
X116000Y118154D01*
X100000Y113031D02*
X110878D01*
X54000Y119500D02*
X78000Y95500D01*
X28000Y8000D02*
Y16800D01*
X38000Y8000D02*
Y18400D01*
X58000Y8000D02*
Y17000D01*
X18000Y8000D02*
Y15500D01*
X42000Y25500D02*
X48000Y19500D01*
Y8000D02*
Y19500D01*
X38000Y18400D02*
X39200Y19600D01*
X42000Y25500D02*
Y165200D01*
X39200Y19600D02*
Y162400D01*
X28000Y16800D02*
X36400Y25200D01*
X18000Y15500D02*
X33600Y31100D01*
X36400Y25200D02*
Y168000D01*
X44800Y30200D02*
X58000Y17000D01*
X44800Y30200D02*
Y156800D01*
X8000Y118000D02*
X19500D01*
X29500Y128000D01*
Y149500D01*
X78000Y8000D02*
Y95500D01*
X54000Y119500D02*
Y149500D01*
D49*
X57000Y173000D02*
X65000D01*
X52000Y178000D02*
X57000Y173000D01*
X45000Y178000D02*
X52000D01*
D53*
X98000Y38000D02*
D03*
X28000Y238000D02*
D03*
X178000D02*
D03*
D54*
X8000Y218000D02*
D03*
X198000D02*
D03*
D55*
X8000Y208000D02*
D03*
Y198000D02*
D03*
Y188000D02*
D03*
Y178000D02*
D03*
Y168000D02*
D03*
Y158000D02*
D03*
Y148000D02*
D03*
Y138000D02*
D03*
Y128000D02*
D03*
Y118000D02*
D03*
Y108000D02*
D03*
Y98000D02*
D03*
Y88000D02*
D03*
Y78000D02*
D03*
Y68000D02*
D03*
Y58000D02*
D03*
Y48000D02*
D03*
Y38000D02*
D03*
Y28000D02*
D03*
X198000Y208000D02*
D03*
Y198000D02*
D03*
Y188000D02*
D03*
Y178000D02*
D03*
Y168000D02*
D03*
Y158000D02*
D03*
Y148000D02*
D03*
Y138000D02*
D03*
Y128000D02*
D03*
Y118000D02*
D03*
Y108000D02*
D03*
Y98000D02*
D03*
Y88000D02*
D03*
Y78000D02*
D03*
Y68000D02*
D03*
Y58000D02*
D03*
Y48000D02*
D03*
Y38000D02*
D03*
Y28000D02*
D03*
D56*
X8000Y8000D02*
D03*
D57*
X18000D02*
D03*
X28000D02*
D03*
X38000D02*
D03*
X48000D02*
D03*
X58000D02*
D03*
X68000D02*
D03*
X78000D02*
D03*
X88000D02*
D03*
X98000D02*
D03*
X108000D02*
D03*
X118000D02*
D03*
X128000D02*
D03*
X138000D02*
D03*
X148000D02*
D03*
X158000D02*
D03*
X168000D02*
D03*
X178000D02*
D03*
X188000D02*
D03*
X198000D02*
D03*
D58*
X132500Y162244D02*
D03*
X29500Y52000D02*
D03*
X116500Y122500D02*
D03*
X116000Y118154D02*
D03*
X100000Y113031D02*
D03*
X103000Y116000D02*
D03*
X101500Y125000D02*
D03*
X77000Y98000D02*
D03*
X45000Y178000D02*
D03*
X154000Y145000D02*
D03*
X102500Y217500D02*
D03*
X110000D02*
D03*
X122500Y182500D02*
D03*
X115000Y200000D02*
D03*
X117500Y210000D02*
D03*
X95000D02*
D03*
X97500Y200000D02*
D03*
X60000Y140000D02*
D03*
X150000Y137500D02*
D03*
Y130000D02*
D03*
Y122500D02*
D03*
X27500Y155000D02*
D03*
Y117500D02*
D03*
Y107500D02*
D03*
X50000Y142500D02*
D03*
X27500Y97500D02*
D03*
Y87500D02*
D03*
Y77500D02*
D03*
Y67500D02*
D03*
Y57500D02*
D03*
X52500Y97500D02*
D03*
Y87500D02*
D03*
Y77500D02*
D03*
Y67500D02*
D03*
Y57500D02*
D03*
X70000Y97500D02*
D03*
Y87500D02*
D03*
Y77500D02*
D03*
Y67500D02*
D03*
Y57500D02*
D03*
X62500Y97500D02*
D03*
Y87500D02*
D03*
Y77500D02*
D03*
Y67500D02*
D03*
Y57500D02*
D03*
X27500Y37500D02*
D03*
X52500Y47500D02*
D03*
Y37500D02*
D03*
X62500D02*
D03*
Y47500D02*
D03*
X70000D02*
D03*
Y37500D02*
D03*
Y27500D02*
D03*
X170000Y122500D02*
D03*
Y130000D02*
D03*
Y137500D02*
D03*
X160000Y22500D02*
D03*
X177500Y52500D02*
D03*
X165000D02*
D03*
X152500D02*
D03*
X142500Y62500D02*
D03*
X117500Y92500D02*
D03*
Y107500D02*
D03*
X39200Y162400D02*
D03*
X42000Y165200D02*
D03*
X36400Y168000D02*
D03*
X155500Y204500D02*
D03*
X151500D02*
D03*
X170000Y157500D02*
D03*
X172500Y160000D02*
D03*
X125000Y100000D02*
D03*
Y95000D02*
D03*
X33600Y159600D02*
D03*
X65000Y168500D02*
D03*
X95000Y192500D02*
D03*
X113500D02*
D03*
X44800Y156800D02*
D03*
X125000Y110000D02*
D03*
X165000Y187500D02*
D03*
X160000Y182500D02*
D03*
X155000Y177500D02*
D03*
X150000Y172500D02*
D03*
X145000Y167500D02*
D03*
X175000Y197500D02*
D03*
X182500Y202500D02*
D03*
X190000D02*
D03*
X182500Y192500D02*
D03*
X170000Y180000D02*
D03*
X165000Y175000D02*
D03*
X152500Y187500D02*
D03*
X157500Y192500D02*
D03*
X147500Y182500D02*
D03*
X170000Y205000D02*
D03*
X175000Y210000D02*
D03*
X75000Y182500D02*
D03*
X60000Y177500D02*
D03*
X55000Y182500D02*
D03*
X60000Y187500D02*
D03*
X50000Y192500D02*
D03*
X57500Y200000D02*
D03*
X25000Y192500D02*
D03*
Y202500D02*
D03*
X132500Y92500D02*
D03*
X137500D02*
D03*
X29500Y149500D02*
D03*
X58000Y28000D02*
D03*
X54000Y149500D02*
D03*
X65000Y135000D02*
D03*
X50500D02*
D03*
D59*
X92682Y165746D02*
D03*
X97013D02*
D03*
X101343D02*
D03*
X105674D02*
D03*
X92682Y161416D02*
D03*
X97013D02*
D03*
X101343D02*
D03*
X105674D02*
D03*
X92682Y157085D02*
D03*
X97013D02*
D03*
X101343D02*
D03*
X105674D02*
D03*
X92682Y152754D02*
D03*
X97013D02*
D03*
X101343D02*
D03*
X105674D02*
D03*
M02*
