G04*
G04 #@! TF.GenerationSoftware,Altium Limited,Altium Designer,22.1.2 (22)*
G04*
G04 Layer_Physical_Order=1*
G04 Layer_Color=255*
%FSLAX25Y25*%
%MOIN*%
G70*
G04*
G04 #@! TF.SameCoordinates,E10519B3-167D-45EA-A28F-B3D4EE67A307*
G04*
G04*
G04 #@! TF.FilePolarity,Positive*
G04*
G01*
G75*
%ADD12C,0.01000*%
%ADD14C,0.01200*%
%ADD15C,0.00400*%
G04:AMPARAMS|DCode=16|XSize=39.37mil|YSize=35.43mil|CornerRadius=4.43mil|HoleSize=0mil|Usage=FLASHONLY|Rotation=180.000|XOffset=0mil|YOffset=0mil|HoleType=Round|Shape=RoundedRectangle|*
%AMROUNDEDRECTD16*
21,1,0.03937,0.02657,0,0,180.0*
21,1,0.03051,0.03543,0,0,180.0*
1,1,0.00886,-0.01526,0.01329*
1,1,0.00886,0.01526,0.01329*
1,1,0.00886,0.01526,-0.01329*
1,1,0.00886,-0.01526,-0.01329*
%
%ADD16ROUNDEDRECTD16*%
G04:AMPARAMS|DCode=17|XSize=39.37mil|YSize=35.43mil|CornerRadius=4.43mil|HoleSize=0mil|Usage=FLASHONLY|Rotation=270.000|XOffset=0mil|YOffset=0mil|HoleType=Round|Shape=RoundedRectangle|*
%AMROUNDEDRECTD17*
21,1,0.03937,0.02657,0,0,270.0*
21,1,0.03051,0.03543,0,0,270.0*
1,1,0.00886,-0.01329,-0.01526*
1,1,0.00886,-0.01329,0.01526*
1,1,0.00886,0.01329,0.01526*
1,1,0.00886,0.01329,-0.01526*
%
%ADD17ROUNDEDRECTD17*%
%ADD18R,0.02953X0.03740*%
%ADD19R,0.03740X0.02953*%
%ADD20C,0.00945*%
%ADD31C,0.02000*%
%ADD32C,0.00600*%
%ADD33C,0.00800*%
%ADD34C,0.25000*%
%ADD35O,0.11000X0.06000*%
%ADD36R,0.11000X0.06000*%
%ADD37O,0.06000X0.11000*%
%ADD38R,0.06000X0.11000*%
%ADD39C,0.02400*%
D12*
X195963Y214549D02*
Y237230D01*
X197537Y255300D02*
Y262037D01*
Y252313D02*
Y255300D01*
X203000Y246917D02*
X227161D01*
X202375Y245342D02*
X213057D01*
X167756Y243000D02*
X168498Y243742D01*
X108000Y298000D02*
X146000D01*
X168498Y243742D02*
X188375D01*
X213057Y245342D02*
X216200Y242200D01*
Y234456D02*
Y242200D01*
X195963Y214549D02*
X196000Y214512D01*
X289300Y298000D02*
X298000D01*
X285600Y301700D02*
X289300Y298000D01*
X221000Y301700D02*
X285600D01*
X212347Y284000D02*
Y293046D01*
X221000Y301700D01*
X205654Y294253D02*
X219400Y308000D01*
X298000D01*
X205654Y284000D02*
Y294253D01*
X205488Y265000D02*
X205571Y265083D01*
Y283917D01*
X205654Y284000D01*
X205388Y264900D02*
X205488Y265000D01*
X200400Y264900D02*
X205388D01*
X197537Y262037D02*
X200400Y264900D01*
X226654Y241354D02*
X227244Y241944D01*
Y247000D01*
X226654Y234000D02*
Y241354D01*
X227244Y247000D02*
Y254000D01*
X227161Y246917D02*
X227244Y247000D01*
D14*
X259500Y188000D02*
X259600Y187900D01*
Y165893D02*
Y187900D01*
X209100Y168100D02*
Y188700D01*
X213900Y193500D01*
X177600Y159800D02*
X207300D01*
X208700Y161200D01*
X154454Y136653D02*
X177600Y159800D01*
X138400Y136653D02*
X154454D01*
X138400Y132000D02*
Y136653D01*
X134400Y128000D02*
X138400Y132000D01*
X108000Y128000D02*
X134400D01*
X184500Y209703D02*
X189800Y204403D01*
Y188093D02*
Y204403D01*
X184500Y209703D02*
Y209900D01*
X185672Y211072D02*
X188072D01*
X191700Y214700D01*
X184500Y209900D02*
X185672Y211072D01*
X191700Y214700D02*
X195812D01*
X195963Y214549D01*
X189900Y216500D02*
X191700Y214700D01*
X189900Y216500D02*
Y221600D01*
X186900Y224600D02*
X189900Y221600D01*
X167600Y224600D02*
X186900D01*
X167600Y239600D02*
Y240200D01*
X167656Y240256D01*
Y243700D01*
X157000Y243900D02*
X157200Y243700D01*
D15*
X203492Y248492D02*
X204302Y249302D01*
X199112Y248492D02*
X203492D01*
X199112Y246917D02*
X203000D01*
X199112Y245342D02*
X202375D01*
X197537Y238063D02*
Y242193D01*
Y243768D01*
X191213Y243742D02*
X192813Y245342D01*
X197537Y246917D02*
X199112D01*
X195963Y242193D02*
Y243768D01*
Y237230D02*
Y242193D01*
X194388Y237088D02*
Y242193D01*
X179100Y247100D02*
X180858Y245342D01*
X191238D01*
X185200Y247300D02*
X185583Y246917D01*
X185200Y247300D02*
Y247600D01*
X185583Y246917D02*
X191238D01*
X191400Y251500D02*
X192813Y250087D01*
Y248492D02*
Y250087D01*
X186400Y249800D02*
X189930D01*
X191238Y248492D01*
X192300Y237600D02*
X192813Y238113D01*
Y242193D01*
X199112D02*
X202207D01*
X202800Y241600D01*
X194800Y252300D02*
X195963Y251137D01*
Y248492D02*
Y251137D01*
X193100Y252100D02*
X194388Y250812D01*
Y248492D02*
Y250812D01*
X191238Y246917D02*
X192813D01*
X199112Y243768D02*
X203050D01*
X197537Y245342D02*
X199112Y243768D01*
X195963Y246917D02*
X197675Y248630D01*
X194388Y243768D02*
X195963D01*
X197537Y248492D02*
Y252313D01*
Y245342D02*
X197537D01*
X187200Y242193D02*
X191238D01*
X192813Y243768D01*
X194388Y245342D01*
X192813D02*
X194388Y246917D01*
X188375Y243742D02*
X191213D01*
X100000Y100000D02*
Y355600D01*
X305300D01*
Y100000D02*
Y355600D01*
X100000Y100000D02*
X305300D01*
D16*
X259600Y165893D02*
D03*
Y159200D02*
D03*
X189800Y181400D02*
D03*
Y188093D02*
D03*
X138400Y143347D02*
D03*
Y136653D02*
D03*
D17*
X177807Y209900D02*
D03*
X184500D02*
D03*
X226654Y234000D02*
D03*
X233347D02*
D03*
X146000Y298000D02*
D03*
X152693D02*
D03*
X205654Y284000D02*
D03*
X212347D02*
D03*
D18*
X162144Y243700D02*
D03*
X167656D02*
D03*
X232756Y254000D02*
D03*
X227244D02*
D03*
X232756Y247000D02*
D03*
X227244D02*
D03*
X211000Y265000D02*
D03*
X205488D02*
D03*
D19*
X216200Y228944D02*
D03*
Y234456D02*
D03*
X196000Y209000D02*
D03*
Y214512D02*
D03*
X230000Y186244D02*
D03*
Y191756D02*
D03*
X241000Y186244D02*
D03*
Y191756D02*
D03*
X238000Y278000D02*
D03*
Y283512D02*
D03*
X230000Y278044D02*
D03*
Y283556D02*
D03*
D20*
X191238Y242193D02*
D03*
Y243768D02*
D03*
Y245342D02*
D03*
Y246917D02*
D03*
Y248492D02*
D03*
X192813Y242193D02*
D03*
Y243768D02*
D03*
Y245342D02*
D03*
Y246917D02*
D03*
Y248492D02*
D03*
X194388Y242193D02*
D03*
Y243768D02*
D03*
Y245342D02*
D03*
Y246917D02*
D03*
Y248492D02*
D03*
X195963Y242193D02*
D03*
Y243768D02*
D03*
Y245342D02*
D03*
Y246917D02*
D03*
Y248492D02*
D03*
X197537Y242193D02*
D03*
Y243768D02*
D03*
Y245342D02*
D03*
Y246917D02*
D03*
Y248492D02*
D03*
X199112Y242193D02*
D03*
Y243768D02*
D03*
Y245342D02*
D03*
Y246917D02*
D03*
Y248492D02*
D03*
D31*
X259500Y188000D02*
X298000D01*
X257400D02*
X259500D01*
X215400Y192000D02*
X253400D01*
X213900Y193500D02*
X215400Y192000D01*
X212400Y195000D02*
X213900Y193500D01*
X230000Y186244D02*
X241000D01*
X246592Y186100D02*
X246700D01*
X241000Y186244D02*
X246448D01*
X246592Y186100D01*
X230000Y181400D02*
Y186244D01*
X229978Y186222D02*
X230000Y186244D01*
X224922Y186222D02*
X229978D01*
X224900Y186200D02*
X224922Y186222D01*
X241000Y181100D02*
Y186244D01*
X208100Y216700D02*
Y229900D01*
X207006Y215606D02*
X208100Y216700D01*
Y229900D02*
X212633Y234433D01*
X216178D01*
X216200Y234456D01*
X157108Y243900D02*
X157308Y243700D01*
X157000Y243900D02*
X157108D01*
X157308Y243700D02*
X162144D01*
X205912Y214512D02*
X207006Y215606D01*
X212400Y210212D01*
Y195000D02*
Y210212D01*
X253400Y192000D02*
X257400Y188000D01*
X196000Y214512D02*
X205912D01*
X230000Y278044D02*
X242848D01*
X224900Y278000D02*
X224922Y278022D01*
X229978D02*
X230000Y278044D01*
X224922Y278022D02*
X229978D01*
X242848Y278044D02*
X242992Y277900D01*
X243100D01*
X238000Y274008D02*
X238200Y273808D01*
Y273700D02*
Y273808D01*
X238000Y274008D02*
Y278000D01*
X230050Y273750D02*
Y277994D01*
Y273750D02*
X230100Y273700D01*
X230000Y278044D02*
X230050Y277994D01*
X211050Y260550D02*
Y264950D01*
X211000Y265000D02*
X211050Y264950D01*
Y260550D02*
X211100Y260500D01*
X211000Y265000D02*
Y269600D01*
X232756Y242752D02*
Y247000D01*
Y242752D02*
X232900Y242608D01*
Y242500D02*
Y242608D01*
X232728Y254028D02*
Y258672D01*
X232700Y258700D02*
X232728Y258672D01*
Y254028D02*
X232756Y254000D01*
Y247000D02*
Y254000D01*
X237050Y253950D02*
X237100Y253900D01*
X232756Y254000D02*
X232806Y253950D01*
X237050D01*
X232756Y247000D02*
X232806Y247050D01*
X236950D01*
X237000Y247100D01*
X216200Y224500D02*
Y228944D01*
X195950Y204550D02*
Y208950D01*
X195900Y204500D02*
X195950Y204550D01*
Y208950D02*
X196000Y209000D01*
X257300Y234000D02*
X271300Y248000D01*
X273300Y218000D02*
X298000D01*
X257300Y234000D02*
X273300Y218000D01*
X233347Y234000D02*
X257300D01*
X271300Y248000D02*
X298000D01*
X279500Y278000D02*
X298000D01*
X278100D02*
X279500D01*
X279200Y269800D02*
Y277700D01*
X279500Y278000D01*
X279200Y269800D02*
X281000Y268000D01*
X298000D01*
X217988Y283512D02*
X238000D01*
X212347Y284000D02*
X212446Y284100D01*
X217400D01*
X217988Y283512D01*
X238000D02*
X272588D01*
X278100Y278000D01*
D32*
X259600Y138000D02*
X298000D01*
X247800D02*
X259600D01*
Y159200D01*
X108000Y188000D02*
X117900D01*
X130800Y200900D02*
Y207600D01*
X117900Y188000D02*
X130800Y200900D01*
X140030Y211100D02*
X141330Y209800D01*
X141700D01*
X130300Y211100D02*
X140030D01*
X117200Y198000D02*
X130300Y211100D01*
X108000Y198000D02*
X117200D01*
X122100Y208000D02*
X125900Y211800D01*
X126200D01*
X158400Y220200D02*
X179300D01*
X152800Y225800D02*
X158400Y220200D01*
X213600Y172200D02*
X247800Y138000D01*
X213600Y172200D02*
Y188400D01*
X208700Y193900D02*
X209100Y193500D01*
X208700Y193900D02*
Y206200D01*
X203900Y211000D02*
X208700Y206200D01*
X197600Y219400D02*
X199200Y217800D01*
X203200D01*
X200200Y222500D02*
Y226300D01*
X197600Y219400D02*
Y230413D01*
X198700Y231513D02*
Y232000D01*
X197600Y230413D02*
X198700Y231513D01*
X138400Y143347D02*
Y150000D01*
X134100Y154300D02*
X138400Y150000D01*
X181200Y181400D02*
Y216600D01*
Y172000D02*
Y181400D01*
X108000Y158000D02*
X167200D01*
X154500Y217800D02*
X162400Y209900D01*
X146400Y217800D02*
X154500D01*
X162400Y209900D02*
X177807D01*
X138000Y214500D02*
X138487D01*
X139187Y213800D02*
X149048D01*
X151500Y211349D01*
X138487Y214500D02*
X139187Y213800D01*
X108000Y218000D02*
X108100Y217900D01*
X146300D02*
X146400Y217800D01*
X108100Y217900D02*
X146300D01*
X151500Y179000D02*
Y211349D01*
X205900Y234600D02*
Y238500D01*
X200200Y226300D02*
X208600Y234700D01*
Y239300D01*
X203300Y232000D02*
X205900Y234600D01*
X202800Y241600D02*
X205900Y238500D01*
X198700Y232000D02*
X203300D01*
X204132Y243768D02*
X208600Y239300D01*
X149100Y249600D02*
X176600D01*
X146100Y252600D02*
X183600D01*
X141400Y256800D02*
X192500D01*
X193100Y256200D01*
X190700Y255100D02*
X191100Y254700D01*
X176600Y249600D02*
X179100Y247100D01*
X136981Y252381D02*
X141400Y256800D01*
X143000Y255100D02*
X190700D01*
X137000Y249100D02*
X143000Y255100D01*
X183600Y252600D02*
X186400Y249800D01*
X141400Y247900D02*
X146100Y252600D01*
X146200Y246700D02*
X149100Y249600D01*
X136400Y258500D02*
X193500D01*
X194800Y257200D01*
X152693Y298000D02*
X153722Y296971D01*
Y294978D02*
Y296971D01*
Y294978D02*
X154800Y293900D01*
Y285600D02*
Y293900D01*
X150400Y281200D02*
X154800Y285600D01*
X150400Y262700D02*
Y281200D01*
X190700Y228000D02*
X191800Y229100D01*
X108000Y228000D02*
X190700D01*
X203050Y243768D02*
X204132D01*
X207300Y249600D02*
X207400Y249700D01*
X204302Y249302D02*
X204600Y249600D01*
X207300D01*
X167200Y158000D02*
X181200Y172000D01*
Y216600D02*
X184600Y220000D01*
X136900Y241400D02*
X143500Y234800D01*
X146200Y236800D02*
X191500D01*
X143500Y234800D02*
X192100D01*
X138400Y244600D02*
X146200Y236800D01*
X192100Y234800D02*
X194388Y237088D01*
X191500Y236800D02*
X192300Y237600D01*
X142400Y231700D02*
X188000D01*
X136100Y238000D02*
X142400Y231700D01*
X185200Y241000D02*
X185400D01*
X186593Y242193D01*
X187200D01*
X134200Y161700D02*
X151500Y179000D01*
X108000Y148000D02*
X127800D01*
X134100Y154300D01*
X141700Y209800D02*
X141800Y209700D01*
X126000Y244600D02*
X138400D01*
X120100Y250500D02*
Y256200D01*
Y250500D02*
X126000Y244600D01*
X118300Y258000D02*
X120100Y256200D01*
X108000Y258000D02*
X118300D01*
X122800Y241400D02*
X136900D01*
X116200Y248000D02*
X122800Y241400D01*
X108000Y248000D02*
X116200D01*
X108000Y238000D02*
X136100D01*
X108000Y208000D02*
X122100D01*
X129400Y249100D02*
X137000D01*
X191100Y251800D02*
X191400Y251500D01*
X191100Y251800D02*
Y254700D01*
X126198Y252381D02*
X136981D01*
X193100Y252100D02*
Y256200D01*
X194800Y252300D02*
Y257200D01*
D33*
X249400Y128000D02*
X298000D01*
X212900Y164500D02*
X249400Y128000D01*
X179100Y164500D02*
X212900D01*
X181200Y181400D02*
X189800D01*
X199300Y236300D02*
X203200D01*
X197537Y238063D02*
X199300Y236300D01*
X176700Y166900D02*
X179100Y164500D01*
D34*
X278000Y338000D02*
D03*
X128000D02*
D03*
X198000Y138000D02*
D03*
D35*
X298000Y128000D02*
D03*
Y138000D02*
D03*
Y148000D02*
D03*
Y158000D02*
D03*
Y168000D02*
D03*
Y178000D02*
D03*
Y188000D02*
D03*
Y198000D02*
D03*
Y208000D02*
D03*
Y218000D02*
D03*
Y228000D02*
D03*
Y238000D02*
D03*
Y248000D02*
D03*
Y258000D02*
D03*
Y268000D02*
D03*
Y278000D02*
D03*
Y288000D02*
D03*
Y298000D02*
D03*
Y308000D02*
D03*
X108000Y128000D02*
D03*
Y138000D02*
D03*
Y148000D02*
D03*
Y158000D02*
D03*
Y168000D02*
D03*
Y178000D02*
D03*
Y188000D02*
D03*
Y198000D02*
D03*
Y208000D02*
D03*
Y218000D02*
D03*
Y228000D02*
D03*
Y238000D02*
D03*
Y248000D02*
D03*
Y258000D02*
D03*
Y268000D02*
D03*
Y278000D02*
D03*
Y288000D02*
D03*
Y298000D02*
D03*
Y308000D02*
D03*
D36*
X298000Y318000D02*
D03*
X108000D02*
D03*
D37*
X298000Y108000D02*
D03*
X288000D02*
D03*
X278000D02*
D03*
X268000D02*
D03*
X258000D02*
D03*
X248000D02*
D03*
X238000D02*
D03*
X228000D02*
D03*
X218000D02*
D03*
X208000D02*
D03*
X198000D02*
D03*
X188000D02*
D03*
X178000D02*
D03*
X168000D02*
D03*
X158000D02*
D03*
X148000D02*
D03*
X138000D02*
D03*
X128000D02*
D03*
X118000D02*
D03*
D38*
X108000D02*
D03*
D39*
X126200Y211800D02*
D03*
X130800Y207600D02*
D03*
X213600Y188400D02*
D03*
X209100Y193500D02*
D03*
X203900Y211000D02*
D03*
X203200Y217800D02*
D03*
X200200Y222500D02*
D03*
X209100Y168100D02*
D03*
X208700Y161200D02*
D03*
X246700Y186100D02*
D03*
X230000Y181400D02*
D03*
X224900Y186200D02*
D03*
X241000Y181100D02*
D03*
X146400Y217800D02*
D03*
X138000Y214500D02*
D03*
X203200Y236300D02*
D03*
X198700Y232000D02*
D03*
X197537Y255300D02*
D03*
X150400Y262700D02*
D03*
X152800Y225800D02*
D03*
X179300Y220200D02*
D03*
X184600Y220000D02*
D03*
X167600Y224600D02*
D03*
Y239600D02*
D03*
X157000Y243900D02*
D03*
X207400Y249700D02*
D03*
X185200Y241000D02*
D03*
X224900Y278000D02*
D03*
X243100Y277900D02*
D03*
X238200Y273700D02*
D03*
X230100D02*
D03*
X211100Y260500D02*
D03*
X211000Y269600D02*
D03*
X232900Y242500D02*
D03*
X232700Y258700D02*
D03*
X237100Y253900D02*
D03*
X237000Y247100D02*
D03*
X216200Y224500D02*
D03*
X195900Y204500D02*
D03*
X134200Y161700D02*
D03*
X134100Y154300D02*
D03*
X188000Y231700D02*
D03*
X191800Y229100D02*
D03*
X146200Y246700D02*
D03*
X185200Y247600D02*
D03*
X141400Y247900D02*
D03*
X129400Y249100D02*
D03*
X126198Y252381D02*
D03*
X141700Y209800D02*
D03*
X136400Y258500D02*
D03*
M02*
