G04*
G04 #@! TF.GenerationSoftware,Altium Limited,Altium Designer,22.1.2 (22)*
G04*
G04 Layer_Color=8421504*
%FSLAX25Y25*%
%MOIN*%
G70*
G04*
G04 #@! TF.SameCoordinates,E10519B3-167D-45EA-A28F-B3D4EE67A307*
G04*
G04*
G04 #@! TF.FilePolarity,Positive*
G04*
G01*
G75*
%ADD15C,0.00400*%
G04:AMPARAMS|DCode=16|XSize=39.37mil|YSize=35.43mil|CornerRadius=4.43mil|HoleSize=0mil|Usage=FLASHONLY|Rotation=180.000|XOffset=0mil|YOffset=0mil|HoleType=Round|Shape=RoundedRectangle|*
%AMROUNDEDRECTD16*
21,1,0.03937,0.02657,0,0,180.0*
21,1,0.03051,0.03543,0,0,180.0*
1,1,0.00886,-0.01526,0.01329*
1,1,0.00886,0.01526,0.01329*
1,1,0.00886,0.01526,-0.01329*
1,1,0.00886,-0.01526,-0.01329*
%
%ADD16ROUNDEDRECTD16*%
G04:AMPARAMS|DCode=17|XSize=39.37mil|YSize=35.43mil|CornerRadius=4.43mil|HoleSize=0mil|Usage=FLASHONLY|Rotation=270.000|XOffset=0mil|YOffset=0mil|HoleType=Round|Shape=RoundedRectangle|*
%AMROUNDEDRECTD17*
21,1,0.03937,0.02657,0,0,270.0*
21,1,0.03051,0.03543,0,0,270.0*
1,1,0.00886,-0.01329,-0.01526*
1,1,0.00886,-0.01329,0.01526*
1,1,0.00886,0.01329,0.01526*
1,1,0.00886,0.01329,-0.01526*
%
%ADD17ROUNDEDRECTD17*%
%ADD18R,0.02953X0.03740*%
%ADD19R,0.03740X0.02953*%
%ADD20C,0.00945*%
D15*
X100000Y100000D02*
Y355600D01*
X305300D01*
Y100000D02*
Y355600D01*
X100000Y100000D02*
X305300D01*
D16*
X259600Y165893D02*
D03*
Y159200D02*
D03*
X189800Y181400D02*
D03*
Y188093D02*
D03*
X138400Y143347D02*
D03*
Y136653D02*
D03*
D17*
X177807Y209900D02*
D03*
X184500D02*
D03*
X226654Y234000D02*
D03*
X233347D02*
D03*
X146000Y298000D02*
D03*
X152693D02*
D03*
X205654Y284000D02*
D03*
X212347D02*
D03*
D18*
X162144Y243700D02*
D03*
X167656D02*
D03*
X232756Y254000D02*
D03*
X227244D02*
D03*
X232756Y247000D02*
D03*
X227244D02*
D03*
X211000Y265000D02*
D03*
X205488D02*
D03*
D19*
X216200Y228944D02*
D03*
Y234456D02*
D03*
X196000Y209000D02*
D03*
Y214512D02*
D03*
X230000Y186244D02*
D03*
Y191756D02*
D03*
X241000Y186244D02*
D03*
Y191756D02*
D03*
X238000Y278000D02*
D03*
Y283512D02*
D03*
X230000Y278044D02*
D03*
Y283556D02*
D03*
D20*
X191238Y242193D02*
D03*
Y243768D02*
D03*
Y245342D02*
D03*
Y246917D02*
D03*
Y248492D02*
D03*
X192813Y242193D02*
D03*
Y243768D02*
D03*
Y245342D02*
D03*
Y246917D02*
D03*
Y248492D02*
D03*
X194388Y242193D02*
D03*
Y243768D02*
D03*
Y245342D02*
D03*
Y246917D02*
D03*
Y248492D02*
D03*
X195963Y242193D02*
D03*
Y243768D02*
D03*
Y245342D02*
D03*
Y246917D02*
D03*
Y248492D02*
D03*
X197537Y242193D02*
D03*
Y243768D02*
D03*
Y245342D02*
D03*
Y246917D02*
D03*
Y248492D02*
D03*
X199112Y242193D02*
D03*
Y243768D02*
D03*
Y245342D02*
D03*
Y246917D02*
D03*
Y248492D02*
D03*
M02*
