G04*
G04 #@! TF.GenerationSoftware,Altium Limited,Altium Designer,18.1.7 (191)*
G04*
G04 Layer_Color=32896*
%FSLAX25Y25*%
%MOIN*%
G70*
G01*
G75*
%ADD44C,0.01500*%
G36*
X144562Y207793D02*
X148235D01*
Y207459D01*
X149905D01*
Y207126D01*
X151574D01*
Y206792D01*
X152576D01*
Y206458D01*
X153577D01*
Y206124D01*
X154579D01*
Y205790D01*
X155247D01*
Y205456D01*
X155915D01*
Y205122D01*
X156583D01*
Y204788D01*
X157250D01*
Y204454D01*
X157918D01*
Y204120D01*
X158252D01*
Y203787D01*
X158920D01*
Y203453D01*
X159254D01*
Y203119D01*
X159922D01*
Y202785D01*
X160256D01*
Y202451D01*
X160590D01*
Y202117D01*
X160923D01*
Y201783D01*
X161257D01*
Y201449D01*
X161591D01*
Y201115D01*
X161925D01*
Y200781D01*
X162259D01*
Y200448D01*
X162593D01*
Y200114D01*
X162927D01*
Y199780D01*
X163261D01*
Y199446D01*
X163595D01*
Y199112D01*
Y198778D01*
X163929D01*
Y198444D01*
X164262D01*
Y198110D01*
Y197776D01*
X164596D01*
Y197442D01*
X164930D01*
Y197108D01*
Y196774D01*
X165264D01*
Y196441D01*
Y196107D01*
X165598D01*
Y195773D01*
X165932D01*
Y195439D01*
Y195105D01*
X166266D01*
Y194771D01*
Y194437D01*
X166600D01*
Y194103D01*
Y193769D01*
X166934D01*
Y193435D01*
Y193102D01*
Y192768D01*
X167268D01*
Y192434D01*
Y192100D01*
Y191766D01*
X167602D01*
Y191432D01*
Y191098D01*
Y190764D01*
X167935D01*
Y190430D01*
Y190096D01*
Y189762D01*
X168269D01*
Y189429D01*
Y189095D01*
Y188761D01*
Y188427D01*
Y188093D01*
X168603D01*
Y187759D01*
Y187425D01*
Y187091D01*
Y186757D01*
Y186423D01*
Y186090D01*
Y185756D01*
Y185422D01*
X168937D01*
Y185088D01*
Y184754D01*
Y184420D01*
Y184086D01*
Y183752D01*
Y183418D01*
X169271D01*
Y183084D01*
Y182750D01*
Y182416D01*
Y182083D01*
Y181749D01*
Y181415D01*
Y181081D01*
Y180747D01*
Y180413D01*
Y180079D01*
Y179745D01*
Y179411D01*
Y179077D01*
Y178744D01*
Y178410D01*
Y178076D01*
Y177742D01*
Y177408D01*
Y177074D01*
Y176740D01*
Y176406D01*
Y176072D01*
Y175738D01*
Y175405D01*
Y175071D01*
Y174737D01*
Y174403D01*
Y174069D01*
Y173735D01*
Y173401D01*
X168937D01*
Y173067D01*
Y172733D01*
Y172399D01*
Y172065D01*
Y171731D01*
Y171398D01*
X168603D01*
Y171064D01*
Y170730D01*
Y170396D01*
Y170062D01*
Y169728D01*
Y169394D01*
Y169060D01*
X168269D01*
Y168726D01*
Y168392D01*
Y168059D01*
Y167725D01*
Y167391D01*
Y167057D01*
X167935D01*
Y166723D01*
Y166389D01*
Y166055D01*
X167602D01*
Y165721D01*
Y165387D01*
Y165053D01*
Y164719D01*
X167268D01*
Y164385D01*
Y164052D01*
Y163718D01*
Y163384D01*
Y163050D01*
X166934D01*
Y162716D01*
X166600D01*
Y162382D01*
Y162048D01*
Y161714D01*
Y161380D01*
X166266D01*
Y161047D01*
Y160713D01*
Y160379D01*
Y160045D01*
X165932D01*
Y159711D01*
X165598D01*
Y159377D01*
Y159043D01*
Y158709D01*
X165264D01*
Y158375D01*
Y158041D01*
Y157707D01*
X164930D01*
Y157373D01*
Y157040D01*
X164596D01*
Y156706D01*
X164262D01*
Y156372D01*
Y156038D01*
Y155704D01*
X163929D01*
Y155370D01*
Y155036D01*
X163595D01*
Y154702D01*
X163261D01*
Y154368D01*
Y154034D01*
X162927D01*
Y153700D01*
Y153367D01*
X162593D01*
Y153033D01*
X162259D01*
Y152699D01*
Y152365D01*
Y152031D01*
X161925D01*
Y151697D01*
X161591D01*
Y151363D01*
X161257D01*
Y151029D01*
Y150695D01*
X160923D01*
Y150361D01*
X160590D01*
Y150028D01*
Y149694D01*
X160256D01*
Y149360D01*
X159922D01*
Y149026D01*
Y148692D01*
X159588D01*
Y148358D01*
X158920D01*
Y148024D01*
Y147690D01*
X158586D01*
Y147356D01*
X158252D01*
Y147022D01*
X157918D01*
Y146688D01*
X157584D01*
Y146355D01*
Y146021D01*
X157250D01*
Y145687D01*
X156916D01*
Y145353D01*
X156583D01*
Y145019D01*
X156249D01*
Y144685D01*
X155915D01*
Y144351D01*
X155581D01*
Y144017D01*
X154913D01*
Y143683D01*
X154579D01*
Y143349D01*
X154245D01*
Y143016D01*
X153911D01*
Y142682D01*
X153577D01*
Y142348D01*
X153244D01*
Y142014D01*
X152910D01*
Y141680D01*
X152242D01*
Y141346D01*
X151908D01*
Y141012D01*
X151240D01*
Y140678D01*
X150906D01*
Y140344D01*
X150572D01*
Y140010D01*
X149905D01*
Y139676D01*
X149571D01*
Y139342D01*
X149237D01*
Y139009D01*
X148569D01*
Y138675D01*
X147901D01*
Y138341D01*
X147567D01*
Y138007D01*
X146899D01*
Y137673D01*
X146565D01*
Y137339D01*
X146231D01*
Y137005D01*
X145898D01*
Y136671D01*
X145564D01*
Y136337D01*
X145230D01*
Y136003D01*
X144896D01*
Y135670D01*
Y135336D01*
X144562D01*
Y135002D01*
X144228D01*
Y134668D01*
X143894D01*
Y134334D01*
X143560D01*
Y134000D01*
X143226D01*
Y133666D01*
Y133332D01*
X142892D01*
Y132998D01*
X142559D01*
Y132664D01*
X142225D01*
Y132331D01*
X141891D01*
Y131997D01*
X141557D01*
Y131663D01*
X141223D01*
Y131329D01*
X140889D01*
Y130995D01*
X140555D01*
Y130661D01*
X140221D01*
Y130327D01*
X139887D01*
Y129993D01*
X139553D01*
Y129659D01*
X139219D01*
Y129325D01*
X138885D01*
Y128991D01*
X138218D01*
Y128657D01*
X137884D01*
Y128324D01*
X137550D01*
Y127990D01*
X137216D01*
Y127656D01*
X136882D01*
Y127322D01*
X136214D01*
Y126988D01*
X135880D01*
Y126654D01*
X135547D01*
Y126320D01*
X134879D01*
Y125986D01*
X134545D01*
Y125652D01*
X134211D01*
Y125318D01*
X133543D01*
Y124985D01*
X132875D01*
Y124651D01*
X132541D01*
Y124317D01*
X131874D01*
Y123983D01*
X131540D01*
Y123649D01*
X130872D01*
Y123315D01*
X130204D01*
Y122981D01*
X129870D01*
Y122647D01*
X129202D01*
Y122313D01*
X128534D01*
Y121979D01*
X127867D01*
Y121645D01*
X127199D01*
Y121311D01*
X126531D01*
Y120978D01*
X125529D01*
Y120644D01*
X124861D01*
Y120310D01*
X124194D01*
Y119976D01*
X123192D01*
Y119642D01*
X122524D01*
Y119308D01*
X121522D01*
Y118974D01*
X120187D01*
Y118640D01*
X119519D01*
Y118306D01*
X118183D01*
Y117973D01*
X117182D01*
Y117639D01*
X114844D01*
Y117305D01*
X112841D01*
Y116971D01*
X110837D01*
Y116637D01*
X107498D01*
Y116303D01*
X99818D01*
Y115969D01*
X94476D01*
Y116303D01*
X89801D01*
Y116637D01*
X86796D01*
Y116971D01*
X83791D01*
Y117305D01*
X82455D01*
Y117639D01*
X80786D01*
Y117973D01*
X79784D01*
Y118306D01*
X78448D01*
Y118640D01*
X77781D01*
Y118974D01*
X76445D01*
Y119308D01*
X75443D01*
Y119642D01*
X74441D01*
Y119976D01*
X73774D01*
Y120310D01*
X73106D01*
Y120644D01*
X72104D01*
Y120978D01*
X71436D01*
Y121311D01*
X70768D01*
Y121645D01*
X69767D01*
Y121979D01*
X69099D01*
Y122313D01*
X68765D01*
Y122647D01*
X68097D01*
Y122981D01*
X67429D01*
Y123315D01*
X66762D01*
Y123649D01*
X66428D01*
Y123983D01*
X65760D01*
Y124317D01*
X65092D01*
Y124651D01*
X64758D01*
Y124985D01*
X64090D01*
Y125318D01*
X63756D01*
Y125652D01*
X63089D01*
Y125986D01*
X62755D01*
Y126320D01*
X62421D01*
Y126654D01*
X61753D01*
Y126988D01*
X61419D01*
Y127322D01*
X61085D01*
Y127656D01*
X60417D01*
Y127990D01*
X60084D01*
Y128324D01*
X59750D01*
Y128657D01*
X59416D01*
Y128991D01*
X59082D01*
Y129325D01*
X58748D01*
Y129659D01*
X58414D01*
Y129993D01*
X57746D01*
Y130327D01*
Y130661D01*
X57412D01*
Y130995D01*
X57078D01*
Y131329D01*
X56744D01*
Y131663D01*
X56410D01*
Y131997D01*
X56077D01*
Y132331D01*
X55743D01*
Y132664D01*
X55409D01*
Y132998D01*
X55075D01*
Y133332D01*
X54741D01*
Y133666D01*
X54407D01*
Y134000D01*
X54073D01*
Y134334D01*
Y134668D01*
X53739D01*
Y135002D01*
X53071D01*
Y135336D01*
Y135670D01*
X52737D01*
Y136003D01*
X52404D01*
Y136337D01*
X52070D01*
Y136671D01*
Y137005D01*
X51736D01*
Y137339D01*
X51402D01*
Y137673D01*
X50734D01*
Y138007D01*
X50066D01*
Y138341D01*
X49732D01*
Y138675D01*
X49065D01*
Y139009D01*
X48731D01*
Y139342D01*
X48397D01*
Y139676D01*
X47729D01*
Y140010D01*
X47395D01*
Y140344D01*
X46727D01*
Y140678D01*
X46393D01*
Y141012D01*
X45726D01*
Y141346D01*
X45392D01*
Y141680D01*
X45058D01*
Y142014D01*
X44724D01*
Y142348D01*
X44056D01*
Y142682D01*
X43722D01*
Y143016D01*
X43388D01*
Y143349D01*
X43054D01*
Y143683D01*
X42720D01*
Y144017D01*
X42386D01*
Y144351D01*
X42053D01*
Y144685D01*
X41719D01*
Y145019D01*
X41385D01*
Y145353D01*
X41051D01*
Y145687D01*
X40383D01*
Y146021D01*
Y146355D01*
X40049D01*
Y146688D01*
X39715D01*
Y147022D01*
X39381D01*
Y147356D01*
X39047D01*
Y147690D01*
X38713D01*
Y148024D01*
X38379D01*
Y148358D01*
Y148692D01*
X38046D01*
Y149026D01*
X37712D01*
Y149360D01*
X37378D01*
Y149694D01*
X37044D01*
Y150028D01*
Y150361D01*
X36710D01*
Y150695D01*
X36376D01*
Y151029D01*
Y151363D01*
X36042D01*
Y151697D01*
X35708D01*
Y152031D01*
Y152365D01*
X35374D01*
Y152699D01*
X35040D01*
Y153033D01*
Y153367D01*
X34707D01*
Y153700D01*
Y154034D01*
X34373D01*
Y154368D01*
Y154702D01*
X34039D01*
Y155036D01*
X33705D01*
Y155370D01*
Y155704D01*
X33371D01*
Y156038D01*
Y156372D01*
X33037D01*
Y156706D01*
Y157040D01*
Y157373D01*
X32703D01*
Y157707D01*
Y158041D01*
X32369D01*
Y158375D01*
Y158709D01*
X32035D01*
Y159043D01*
Y159377D01*
Y159711D01*
X31701D01*
Y160045D01*
Y160379D01*
Y160713D01*
X31367D01*
Y161047D01*
Y161380D01*
X31034D01*
Y161714D01*
Y162048D01*
Y162382D01*
X30700D01*
Y162716D01*
Y163050D01*
Y163384D01*
Y163718D01*
X30366D01*
Y164052D01*
Y164385D01*
Y164719D01*
Y165053D01*
Y165387D01*
X30032D01*
Y165721D01*
Y166055D01*
X29698D01*
Y166389D01*
Y166723D01*
Y167057D01*
Y167391D01*
Y167725D01*
Y168059D01*
X29364D01*
Y168392D01*
Y168726D01*
Y169060D01*
Y169394D01*
Y169728D01*
Y170062D01*
X29030D01*
Y170396D01*
Y170730D01*
Y171064D01*
Y171398D01*
X28696D01*
Y171731D01*
Y172065D01*
Y172399D01*
Y172733D01*
Y173067D01*
Y173401D01*
Y173735D01*
Y174069D01*
Y174403D01*
Y174737D01*
Y175071D01*
Y175405D01*
X28362D01*
Y175738D01*
Y176072D01*
Y176406D01*
Y176740D01*
Y177074D01*
Y177408D01*
Y177742D01*
Y178076D01*
Y178410D01*
Y178744D01*
Y179077D01*
Y179411D01*
Y179745D01*
Y180079D01*
Y180413D01*
X28696D01*
Y180747D01*
Y181081D01*
Y181415D01*
Y181749D01*
Y182083D01*
Y182416D01*
Y182750D01*
Y183084D01*
Y183418D01*
Y183752D01*
Y184086D01*
Y184420D01*
Y184754D01*
Y185088D01*
X29030D01*
Y185422D01*
Y185756D01*
Y186090D01*
Y186423D01*
X29364D01*
Y186757D01*
Y187091D01*
Y187425D01*
Y187759D01*
Y188093D01*
Y188427D01*
Y188761D01*
X29698D01*
Y189095D01*
Y189429D01*
Y189762D01*
Y190096D01*
X30032D01*
Y190430D01*
Y190764D01*
Y191098D01*
X30366D01*
Y191432D01*
Y191766D01*
Y192100D01*
X30700D01*
Y192434D01*
Y192768D01*
Y193102D01*
X31034D01*
Y193435D01*
Y193769D01*
Y194103D01*
X31367D01*
Y194437D01*
X31701D01*
Y194771D01*
Y195105D01*
Y195439D01*
X32035D01*
Y195773D01*
Y196107D01*
X32369D01*
Y196441D01*
Y196774D01*
X32703D01*
Y197108D01*
X33037D01*
Y197442D01*
Y197776D01*
X33371D01*
Y198110D01*
X33705D01*
Y198444D01*
X34039D01*
Y198778D01*
Y199112D01*
X34373D01*
Y199446D01*
Y199780D01*
X34707D01*
Y200114D01*
X35040D01*
Y200448D01*
X35374D01*
Y200781D01*
X35708D01*
Y201115D01*
X36042D01*
Y201449D01*
X36376D01*
Y201783D01*
X36710D01*
Y202117D01*
X37044D01*
Y202451D01*
X37712D01*
Y202785D01*
X38046D01*
Y203119D01*
X38713D01*
Y203453D01*
X39047D01*
Y203787D01*
X39381D01*
Y204120D01*
X40049D01*
Y204454D01*
X40717D01*
Y204788D01*
X41385D01*
Y205122D01*
X42053D01*
Y205456D01*
X42720D01*
Y205790D01*
X43388D01*
Y206124D01*
X44390D01*
Y206458D01*
X45392D01*
Y206792D01*
X46393D01*
Y207126D01*
X48063D01*
Y207459D01*
X50400D01*
Y207793D01*
X53405D01*
Y208127D01*
X54741D01*
Y207793D01*
X57746D01*
Y207459D01*
X60084D01*
Y207126D01*
X61085D01*
Y206792D01*
X62755D01*
Y206458D01*
X64090D01*
Y206124D01*
X65092D01*
Y205790D01*
X66762D01*
Y205456D01*
X68765D01*
Y205122D01*
X70768D01*
Y204788D01*
X72772D01*
Y204454D01*
X75443D01*
Y204120D01*
X78448D01*
Y203787D01*
X81787D01*
Y203453D01*
X85460D01*
Y203119D01*
X92472D01*
Y202785D01*
X105495D01*
Y203119D01*
X112173D01*
Y203453D01*
X115846D01*
Y203787D01*
X119519D01*
Y204120D01*
X122524D01*
Y204454D01*
X124528D01*
Y204788D01*
X126865D01*
Y205122D01*
X129202D01*
Y205456D01*
X131540D01*
Y205790D01*
X132875D01*
Y206124D01*
X133877D01*
Y206458D01*
X134879D01*
Y206792D01*
X136214D01*
Y207126D01*
X137550D01*
Y207459D01*
X139219D01*
Y207793D01*
X142892D01*
Y208127D01*
X144562D01*
Y207793D01*
D02*
G37*
G36*
X57000Y49210D02*
X53089Y45138D01*
X52974Y44027D01*
X52719Y41366D01*
X52534Y39445D01*
X56722Y35118D01*
X56445Y34840D01*
X52488Y38890D01*
X52256Y36414D01*
X52141D01*
Y35465D01*
X51261D01*
Y36414D01*
X48531D01*
X48438Y36229D01*
X48299Y36044D01*
X48114Y35835D01*
X47860Y35650D01*
X47559Y35558D01*
X47281Y35535D01*
X47003D01*
X46795Y35604D01*
X46541Y35697D01*
X46332Y35835D01*
X46170Y35997D01*
X46009Y36229D01*
X45893Y36483D01*
X45823Y36715D01*
X45800Y36923D01*
X45823Y37154D01*
X45870Y37339D01*
X45939Y37525D01*
X46032Y37710D01*
X46147Y37872D01*
X46309Y38034D01*
X46494Y38149D01*
X46656Y38219D01*
X46633Y38427D01*
X43162Y34840D01*
X42885Y35141D01*
X46587Y38982D01*
X46286Y42338D01*
X46078Y44767D01*
X44967D01*
Y46318D01*
X45268D01*
X42445Y49210D01*
X42746Y49488D01*
X45384Y46758D01*
Y46966D01*
X45337Y47012D01*
X45268Y47058D01*
X45199Y47128D01*
X45129Y47197D01*
X45083Y47313D01*
X45060Y47405D01*
X45037Y47521D01*
X45060Y47660D01*
X45106Y47752D01*
X45199Y47914D01*
X45314Y48007D01*
X45476Y48076D01*
X45638Y48100D01*
X45800Y48076D01*
X45939Y48030D01*
X46055Y47961D01*
X46101Y47891D01*
X46217Y47984D01*
X46379Y48100D01*
X46587Y48192D01*
X46888Y48308D01*
X47212Y48400D01*
X47536Y48470D01*
X47883Y48539D01*
X48160Y48562D01*
Y48910D01*
X50382D01*
Y48609D01*
X50567D01*
X50845Y48586D01*
X51146Y48539D01*
X51446Y48493D01*
Y48678D01*
X52395D01*
Y48238D01*
X52511Y48169D01*
X52673Y48100D01*
X52835Y48007D01*
X52974Y47914D01*
X53113Y47799D01*
X53205Y47706D01*
X53251Y47637D01*
X53298Y47544D01*
X53275Y47382D01*
X53830D01*
Y46665D01*
X53228D01*
X53136Y45762D01*
X56722Y49488D01*
X57000Y49210D01*
D02*
G37*
G36*
X56167Y31647D02*
Y31601D01*
Y31508D01*
Y31416D01*
Y31323D01*
Y31231D01*
Y31184D01*
Y31161D01*
Y30791D01*
Y30444D01*
Y30282D01*
Y30166D01*
Y30097D01*
Y30073D01*
Y29657D01*
Y29472D01*
Y29310D01*
Y29171D01*
Y29079D01*
Y29009D01*
Y28986D01*
Y28824D01*
Y28708D01*
Y28616D01*
Y28569D01*
Y28500D01*
X43509D01*
Y28523D01*
Y28569D01*
Y28754D01*
Y28916D01*
Y28963D01*
Y28986D01*
Y29356D01*
Y29703D01*
Y29865D01*
Y29981D01*
Y30050D01*
Y30073D01*
Y30490D01*
Y30675D01*
Y30837D01*
Y30976D01*
Y31069D01*
Y31138D01*
Y31161D01*
Y31323D01*
Y31462D01*
Y31554D01*
Y31601D01*
Y31647D01*
Y31670D01*
X56167D01*
Y31647D01*
D02*
G37*
G36*
X135568Y48061D02*
X136285Y47969D01*
X136956Y47830D01*
X137604Y47645D01*
X138206Y47437D01*
X138761Y47182D01*
X139294Y46928D01*
X139756Y46673D01*
X140196Y46395D01*
X140566Y46141D01*
X140890Y45910D01*
X141168Y45678D01*
X141399Y45493D01*
X141538Y45354D01*
X141654Y45262D01*
X141677Y45238D01*
X142163Y44683D01*
X142603Y44128D01*
X142996Y43549D01*
X143297Y42971D01*
X143574Y42392D01*
X143806Y41814D01*
X143991Y41282D01*
X144153Y40749D01*
X144269Y40263D01*
X144361Y39801D01*
X144407Y39407D01*
X144454Y39060D01*
X144477Y38782D01*
X144500Y38574D01*
Y38435D01*
Y38412D01*
Y38389D01*
X144477Y37648D01*
X144384Y36954D01*
X144246Y36260D01*
X144060Y35635D01*
X143852Y35034D01*
X143597Y34455D01*
X143343Y33946D01*
X143088Y33460D01*
X142834Y33044D01*
X142579Y32650D01*
X142325Y32326D01*
X142117Y32049D01*
X141931Y31840D01*
X141793Y31678D01*
X141700Y31563D01*
X141677Y31539D01*
X141145Y31054D01*
X140566Y30614D01*
X139988Y30221D01*
X139409Y29920D01*
X138831Y29642D01*
X138275Y29411D01*
X137720Y29226D01*
X137188Y29064D01*
X136702Y28948D01*
X136239Y28855D01*
X135846Y28809D01*
X135498Y28763D01*
X135221Y28740D01*
X135013Y28716D01*
X134827D01*
X134087Y28740D01*
X133393Y28832D01*
X132722Y28971D01*
X132074Y29156D01*
X131472Y29364D01*
X130917Y29619D01*
X130385Y29873D01*
X129922Y30128D01*
X129482Y30382D01*
X129112Y30637D01*
X128788Y30892D01*
X128510Y31100D01*
X128279Y31285D01*
X128140Y31424D01*
X128024Y31516D01*
X128001Y31539D01*
X127492Y32095D01*
X127052Y32650D01*
X126682Y33229D01*
X126358Y33807D01*
X126081Y34386D01*
X125849Y34964D01*
X125664Y35520D01*
X125502Y36029D01*
X125386Y36515D01*
X125294Y36977D01*
X125248Y37371D01*
X125201Y37718D01*
X125178Y37996D01*
X125155Y38204D01*
Y38343D01*
Y38389D01*
X125178Y39129D01*
X125271Y39824D01*
X125409Y40518D01*
X125595Y41143D01*
X125803Y41744D01*
X126057Y42323D01*
X126312Y42832D01*
X126567Y43318D01*
X126844Y43758D01*
X127099Y44128D01*
X127330Y44452D01*
X127561Y44729D01*
X127747Y44961D01*
X127885Y45100D01*
X127978Y45215D01*
X128001Y45238D01*
X128533Y45748D01*
X129112Y46187D01*
X129667Y46557D01*
X130269Y46881D01*
X130824Y47159D01*
X131403Y47390D01*
X131958Y47576D01*
X132467Y47738D01*
X132953Y47853D01*
X133416Y47946D01*
X133809Y47992D01*
X134156Y48038D01*
X134434Y48061D01*
X134642Y48085D01*
X134827D01*
X135568Y48061D01*
D02*
G37*
G36*
X169530Y44866D02*
X170016Y44820D01*
X170456Y44704D01*
X170895Y44588D01*
X171289Y44449D01*
X171682Y44287D01*
X172029Y44125D01*
X172330Y43940D01*
X172631Y43755D01*
X172885Y43593D01*
X173093Y43431D01*
X173279Y43292D01*
X173441Y43177D01*
X173533Y43084D01*
X173602Y43015D01*
X173626Y42992D01*
X173950Y42621D01*
X174250Y42251D01*
X174505Y41881D01*
X174713Y41487D01*
X174898Y41094D01*
X175037Y40724D01*
X175176Y40354D01*
X175269Y40006D01*
X175338Y39682D01*
X175407Y39382D01*
X175431Y39104D01*
X175477Y38873D01*
Y38688D01*
X175500Y38549D01*
Y38456D01*
Y38433D01*
X175477Y37947D01*
X175407Y37484D01*
X175315Y37021D01*
X175199Y36605D01*
X175060Y36188D01*
X174898Y35818D01*
X174736Y35471D01*
X174551Y35147D01*
X174389Y34869D01*
X174227Y34615D01*
X174065Y34407D01*
X173926Y34221D01*
X173788Y34060D01*
X173695Y33967D01*
X173649Y33898D01*
X173626Y33874D01*
X173255Y33550D01*
X172885Y33250D01*
X172492Y32995D01*
X172098Y32787D01*
X171728Y32602D01*
X171335Y32463D01*
X170965Y32324D01*
X170617Y32231D01*
X170293Y32162D01*
X169993Y32093D01*
X169715Y32069D01*
X169484Y32023D01*
X169299D01*
X169160Y32000D01*
X168813D01*
X168604Y32023D01*
X168396D01*
Y33967D01*
X168627Y33944D01*
X168836Y33921D01*
X169044D01*
X169391Y33944D01*
X169715Y33967D01*
X170039Y34036D01*
X170340Y34129D01*
X170872Y34337D01*
X171335Y34592D01*
X171543Y34707D01*
X171728Y34823D01*
X171867Y34939D01*
X172006Y35031D01*
X172098Y35124D01*
X172168Y35193D01*
X172214Y35217D01*
X172237Y35240D01*
X172469Y35494D01*
X172677Y35772D01*
X172839Y36026D01*
X173001Y36304D01*
X173117Y36582D01*
X173232Y36836D01*
X173394Y37345D01*
X173487Y37785D01*
X173510Y37970D01*
X173533Y38132D01*
X173556Y38248D01*
Y38340D01*
Y38410D01*
Y38433D01*
X173533Y38780D01*
X173510Y39104D01*
X173441Y39428D01*
X173348Y39729D01*
X173140Y40261D01*
X172885Y40724D01*
X172769Y40932D01*
X172654Y41117D01*
X172538Y41256D01*
X172445Y41395D01*
X172353Y41487D01*
X172283Y41557D01*
X172260Y41603D01*
X172237Y41626D01*
X171983Y41858D01*
X171728Y42066D01*
X171450Y42251D01*
X171173Y42413D01*
X170918Y42529D01*
X170641Y42644D01*
X170155Y42806D01*
X169715Y42899D01*
X169507Y42922D01*
X169368Y42945D01*
X169229Y42968D01*
X168813D01*
X168604Y42945D01*
X168442Y42922D01*
X168396D01*
Y44866D01*
X168604Y44889D01*
X169044D01*
X169530Y44866D01*
D02*
G37*
G36*
X158562D02*
X159047Y44820D01*
X159487Y44704D01*
X159927Y44588D01*
X160320Y44449D01*
X160714Y44287D01*
X161061Y44125D01*
X161362Y43940D01*
X161662Y43755D01*
X161917Y43593D01*
X162125Y43431D01*
X162310Y43292D01*
X162472Y43177D01*
X162565Y43084D01*
X162634Y43015D01*
X162657Y42992D01*
X162981Y42621D01*
X163282Y42251D01*
X163537Y41881D01*
X163745Y41487D01*
X163930Y41094D01*
X164069Y40724D01*
X164208Y40354D01*
X164300Y40006D01*
X164370Y39682D01*
X164439Y39382D01*
X164462Y39104D01*
X164508Y38873D01*
Y38688D01*
X164532Y38549D01*
Y38456D01*
Y38433D01*
X164508Y37947D01*
X164439Y37484D01*
X164347Y37021D01*
X164231Y36605D01*
X164092Y36188D01*
X163930Y35818D01*
X163768Y35471D01*
X163583Y35147D01*
X163421Y34869D01*
X163259Y34615D01*
X163097Y34407D01*
X162958Y34221D01*
X162819Y34060D01*
X162727Y33967D01*
X162680Y33898D01*
X162657Y33874D01*
X162287Y33550D01*
X161917Y33250D01*
X161523Y32995D01*
X161130Y32787D01*
X160760Y32602D01*
X160366Y32463D01*
X159996Y32324D01*
X159649Y32231D01*
X159325Y32162D01*
X159024Y32093D01*
X158747Y32069D01*
X158515Y32023D01*
X158330D01*
X158191Y32000D01*
X157844D01*
X157636Y32023D01*
X157428D01*
X157451Y33967D01*
X157659Y33944D01*
X157867Y33921D01*
X158076D01*
X158376Y33944D01*
X158654Y33967D01*
X159186Y34083D01*
X159672Y34245D01*
X160089Y34430D01*
X160436Y34592D01*
X160575Y34684D01*
X160690Y34754D01*
X160806Y34823D01*
X160875Y34869D01*
X160899Y34916D01*
X160922D01*
X161338Y35309D01*
X161685Y35749D01*
X161963Y36165D01*
X162171Y36582D01*
X162310Y36929D01*
X162380Y37091D01*
X162426Y37230D01*
X162449Y37322D01*
X162472Y37415D01*
X162495Y37461D01*
Y37484D01*
X158723D01*
Y39405D01*
X162495D01*
X162333Y39960D01*
X162102Y40469D01*
X161847Y40909D01*
X161593Y41279D01*
X161338Y41580D01*
X161130Y41788D01*
X160968Y41927D01*
X160945Y41973D01*
X160922D01*
X160690Y42158D01*
X160436Y42297D01*
X159950Y42552D01*
X159464Y42737D01*
X159024Y42853D01*
X158654Y42922D01*
X158492Y42945D01*
X158353D01*
X158238Y42968D01*
X157844D01*
X157636Y42945D01*
X157474Y42922D01*
X157428D01*
Y44866D01*
X157682Y44889D01*
X158076D01*
X158562Y44866D01*
D02*
G37*
%LPC*%
G36*
X152242Y204454D02*
X148569D01*
Y204120D01*
X147233D01*
Y203787D01*
X146565D01*
Y203453D01*
X145564D01*
Y203119D01*
X144896D01*
Y202785D01*
X144562D01*
Y202451D01*
X143894D01*
Y202117D01*
X143560D01*
Y201783D01*
X143226D01*
Y201449D01*
X142559D01*
Y201115D01*
X142225D01*
Y200781D01*
X141891D01*
Y200448D01*
X141557D01*
Y200114D01*
X141223D01*
Y199780D01*
X140889D01*
Y199446D01*
X140555D01*
Y199112D01*
Y198778D01*
X140221D01*
Y198444D01*
X139887D01*
Y198110D01*
X139553D01*
Y197776D01*
Y197442D01*
X139219D01*
Y197108D01*
X138885D01*
Y196774D01*
Y196441D01*
X138552D01*
Y196107D01*
Y195773D01*
X138218D01*
Y195439D01*
X137884D01*
Y195105D01*
Y194771D01*
X137550D01*
Y194437D01*
Y194103D01*
X137216D01*
Y193769D01*
Y193435D01*
X136882D01*
Y193102D01*
Y192768D01*
Y192434D01*
X136548D01*
Y192100D01*
Y191766D01*
X136214D01*
Y191432D01*
Y191098D01*
Y190764D01*
X135880D01*
Y190430D01*
Y190096D01*
Y189762D01*
X135547D01*
Y189429D01*
Y189095D01*
Y188761D01*
Y188427D01*
X135213D01*
Y188093D01*
Y187759D01*
Y187425D01*
X134879D01*
Y187091D01*
Y186757D01*
Y186423D01*
Y186090D01*
Y185756D01*
X134545D01*
Y185422D01*
Y185088D01*
Y184754D01*
Y184420D01*
Y184086D01*
Y183752D01*
Y183418D01*
X134211D01*
Y183084D01*
Y182750D01*
Y182416D01*
Y182083D01*
Y181749D01*
Y181415D01*
Y181081D01*
Y180747D01*
X133877D01*
Y180413D01*
Y180079D01*
Y179745D01*
Y179411D01*
Y179077D01*
Y178744D01*
Y178410D01*
Y178076D01*
Y177742D01*
Y177408D01*
Y177074D01*
Y176740D01*
Y176406D01*
Y176072D01*
Y175738D01*
Y175405D01*
Y175071D01*
Y174737D01*
X134211D01*
Y174403D01*
Y174069D01*
Y173735D01*
Y173401D01*
Y173067D01*
Y172733D01*
Y172399D01*
Y172065D01*
Y171731D01*
X134545D01*
Y171398D01*
Y171064D01*
Y170730D01*
Y170396D01*
Y170062D01*
Y169728D01*
X134879D01*
Y169394D01*
Y169060D01*
Y168726D01*
Y168392D01*
Y168059D01*
X135213D01*
Y167725D01*
Y167391D01*
Y167057D01*
Y166723D01*
X135547D01*
Y166389D01*
Y166055D01*
Y165721D01*
X135880D01*
Y165387D01*
Y165053D01*
Y164719D01*
Y164385D01*
X136214D01*
Y164052D01*
Y163718D01*
X136548D01*
Y163384D01*
Y163050D01*
Y162716D01*
X136882D01*
Y162382D01*
Y162048D01*
X137216D01*
Y161714D01*
Y161380D01*
X137550D01*
Y161047D01*
Y160713D01*
X137884D01*
Y160379D01*
Y160045D01*
X138218D01*
Y159711D01*
Y159377D01*
X138552D01*
Y159043D01*
Y158709D01*
X138885D01*
Y158375D01*
X139219D01*
Y158041D01*
Y157707D01*
X139553D01*
Y157373D01*
X139887D01*
Y157040D01*
Y156706D01*
X140221D01*
Y156372D01*
X140555D01*
Y156038D01*
X140889D01*
Y155704D01*
X141223D01*
Y155370D01*
X141557D01*
Y155036D01*
X141891D01*
Y154702D01*
X142225D01*
Y154368D01*
X142559D01*
Y154034D01*
X142892D01*
Y153700D01*
X143226D01*
Y153367D01*
X143560D01*
Y153033D01*
X144228D01*
Y152699D01*
X144562D01*
Y152365D01*
X145230D01*
Y152031D01*
X145898D01*
Y151697D01*
X146565D01*
Y151363D01*
X147901D01*
Y151029D01*
X153244D01*
Y151363D01*
X154245D01*
Y151697D01*
X154913D01*
Y152031D01*
X155581D01*
Y152365D01*
X156249D01*
Y152699D01*
X156583D01*
Y153033D01*
X157250D01*
Y153367D01*
X157584D01*
Y153700D01*
X157918D01*
Y154034D01*
X158586D01*
Y154368D01*
X158920D01*
Y154702D01*
X159254D01*
Y155036D01*
X159588D01*
Y155370D01*
X159922D01*
Y155704D01*
X160256D01*
Y156038D01*
Y156372D01*
X160590D01*
Y156706D01*
X160923D01*
Y157040D01*
X161257D01*
Y157373D01*
Y157707D01*
X161591D01*
Y158041D01*
X161925D01*
Y158375D01*
Y158709D01*
X162259D01*
Y159043D01*
X162593D01*
Y159377D01*
Y159711D01*
X162927D01*
Y160045D01*
Y160379D01*
X163261D01*
Y160713D01*
Y161047D01*
X163595D01*
Y161380D01*
Y161714D01*
X163929D01*
Y162048D01*
Y162382D01*
X164262D01*
Y162716D01*
Y163050D01*
Y163384D01*
X164596D01*
Y163718D01*
Y164052D01*
Y164385D01*
X164930D01*
Y164719D01*
Y165053D01*
X165264D01*
Y165387D01*
Y165721D01*
Y166055D01*
Y166389D01*
X165598D01*
Y166723D01*
Y167057D01*
Y167391D01*
Y167725D01*
X165932D01*
Y168059D01*
Y168392D01*
Y168726D01*
X166266D01*
Y169060D01*
Y169394D01*
Y169728D01*
Y170062D01*
Y170396D01*
Y170730D01*
X166600D01*
Y171064D01*
Y171398D01*
Y171731D01*
Y172065D01*
Y172399D01*
Y172733D01*
Y173067D01*
Y173401D01*
Y173735D01*
X166934D01*
Y174069D01*
Y174403D01*
Y174737D01*
Y175071D01*
Y175405D01*
Y175738D01*
Y176072D01*
Y176406D01*
Y176740D01*
Y177074D01*
Y177408D01*
Y177742D01*
Y178076D01*
Y178410D01*
Y178744D01*
Y179077D01*
Y179411D01*
Y179745D01*
Y180079D01*
Y180413D01*
Y180747D01*
Y181081D01*
Y181415D01*
Y181749D01*
X166600D01*
Y182083D01*
Y182416D01*
Y182750D01*
Y183084D01*
Y183418D01*
Y183752D01*
Y184086D01*
Y184420D01*
X166266D01*
Y184754D01*
Y185088D01*
Y185422D01*
Y185756D01*
Y186090D01*
Y186423D01*
X165932D01*
Y186757D01*
Y187091D01*
Y187425D01*
Y187759D01*
X165598D01*
Y188093D01*
Y188427D01*
Y188761D01*
Y189095D01*
X165264D01*
Y189429D01*
Y189762D01*
Y190096D01*
X164930D01*
Y190430D01*
Y190764D01*
Y191098D01*
X164596D01*
Y191432D01*
Y191766D01*
Y192100D01*
X164262D01*
Y192434D01*
Y192768D01*
X163929D01*
Y193102D01*
Y193435D01*
X163595D01*
Y193769D01*
Y194103D01*
X163261D01*
Y194437D01*
Y194771D01*
Y195105D01*
X162927D01*
Y195439D01*
X162593D01*
Y195773D01*
Y196107D01*
X162259D01*
Y196441D01*
Y196774D01*
X161925D01*
Y197108D01*
X161591D01*
Y197442D01*
Y197776D01*
X161257D01*
Y198110D01*
X160923D01*
Y198444D01*
X160590D01*
Y198778D01*
Y199112D01*
X160256D01*
Y199446D01*
X159922D01*
Y199780D01*
X159588D01*
Y200114D01*
X159254D01*
Y200448D01*
X158920D01*
Y200781D01*
X158586D01*
Y201115D01*
X158252D01*
Y201449D01*
X157918D01*
Y201783D01*
X157584D01*
Y202117D01*
X156916D01*
Y202451D01*
X156583D01*
Y202785D01*
X155915D01*
Y203119D01*
X155247D01*
Y203453D01*
X154579D01*
Y203787D01*
X153577D01*
Y204120D01*
X152242D01*
Y204454D01*
D02*
G37*
G36*
X49065D02*
X45392D01*
Y204120D01*
X44056D01*
Y203787D01*
X43054D01*
Y203453D01*
X42386D01*
Y203119D01*
X41719D01*
Y202785D01*
X41385D01*
Y202451D01*
X40717D01*
Y202117D01*
X40383D01*
Y201783D01*
X40049D01*
Y201449D01*
X39381D01*
Y201115D01*
X39047D01*
Y200781D01*
X38713D01*
Y200448D01*
X38379D01*
Y200114D01*
X38046D01*
Y199780D01*
X37712D01*
Y199446D01*
X37378D01*
Y199112D01*
Y198778D01*
X37044D01*
Y198444D01*
X36710D01*
Y198110D01*
X36376D01*
Y197776D01*
Y197442D01*
X36042D01*
Y197108D01*
X35708D01*
Y196774D01*
Y196441D01*
X35374D01*
Y196107D01*
Y195773D01*
X35040D01*
Y195439D01*
X34707D01*
Y195105D01*
Y194771D01*
X34373D01*
Y194437D01*
Y194103D01*
X34039D01*
Y193769D01*
Y193435D01*
X33705D01*
Y193102D01*
Y192768D01*
Y192434D01*
X33371D01*
Y192100D01*
Y191766D01*
X33037D01*
Y191432D01*
Y191098D01*
Y190764D01*
X32703D01*
Y190430D01*
Y190096D01*
Y189762D01*
X32369D01*
Y189429D01*
Y189095D01*
Y188761D01*
Y188427D01*
X32035D01*
Y188093D01*
Y187759D01*
Y187425D01*
X31701D01*
Y187091D01*
Y186757D01*
Y186423D01*
Y186090D01*
Y185756D01*
X31367D01*
Y185422D01*
Y185088D01*
Y184754D01*
Y184420D01*
Y184086D01*
Y183752D01*
X31034D01*
Y183418D01*
Y183084D01*
Y182750D01*
Y182416D01*
Y182083D01*
Y181749D01*
Y181415D01*
Y181081D01*
Y180747D01*
X30700D01*
Y180413D01*
Y180079D01*
Y179745D01*
Y179411D01*
Y179077D01*
Y178744D01*
Y178410D01*
Y178076D01*
Y177742D01*
Y177408D01*
Y177074D01*
Y176740D01*
Y176406D01*
Y176072D01*
Y175738D01*
Y175405D01*
Y175071D01*
Y174737D01*
Y174403D01*
X31034D01*
Y174069D01*
Y173735D01*
Y173401D01*
Y173067D01*
Y172733D01*
Y172399D01*
Y172065D01*
Y171731D01*
X31367D01*
Y171398D01*
Y171064D01*
Y170730D01*
Y170396D01*
Y170062D01*
Y169728D01*
Y169394D01*
X31701D01*
Y169060D01*
Y168726D01*
Y168392D01*
Y168059D01*
X32035D01*
Y167725D01*
Y167391D01*
Y167057D01*
Y166723D01*
X32369D01*
Y166389D01*
Y166055D01*
Y165721D01*
Y165387D01*
X32703D01*
Y165053D01*
Y164719D01*
Y164385D01*
X33037D01*
Y164052D01*
Y163718D01*
X33371D01*
Y163384D01*
Y163050D01*
Y162716D01*
X33705D01*
Y162382D01*
Y162048D01*
X34039D01*
Y161714D01*
Y161380D01*
X34373D01*
Y161047D01*
Y160713D01*
X34707D01*
Y160379D01*
Y160045D01*
X35040D01*
Y159711D01*
Y159377D01*
X35374D01*
Y159043D01*
Y158709D01*
X35708D01*
Y158375D01*
X36042D01*
Y158041D01*
Y157707D01*
X36376D01*
Y157373D01*
X36710D01*
Y157040D01*
Y156706D01*
X37044D01*
Y156372D01*
X37378D01*
Y156038D01*
X37712D01*
Y155704D01*
X38046D01*
Y155370D01*
X38379D01*
Y155036D01*
X38713D01*
Y154702D01*
X39047D01*
Y154368D01*
X39381D01*
Y154034D01*
X39715D01*
Y153700D01*
X40049D01*
Y153367D01*
X40383D01*
Y153033D01*
X41051D01*
Y152699D01*
X41385D01*
Y152365D01*
X42053D01*
Y152031D01*
X42720D01*
Y151697D01*
X43388D01*
Y151363D01*
X44724D01*
Y151029D01*
X50066D01*
Y151363D01*
X51068D01*
Y151697D01*
X51736D01*
Y152031D01*
X52404D01*
Y152365D01*
X53071D01*
Y152699D01*
X53405D01*
Y153033D01*
X54073D01*
Y153367D01*
X54407D01*
Y153700D01*
X54741D01*
Y154034D01*
X55409D01*
Y154368D01*
X55743D01*
Y154702D01*
X56077D01*
Y155036D01*
X56410D01*
Y155370D01*
X56744D01*
Y155704D01*
Y156038D01*
X57078D01*
Y156372D01*
X57412D01*
Y156706D01*
X57746D01*
Y157040D01*
X58080D01*
Y157373D01*
Y157707D01*
X58414D01*
Y158041D01*
X58748D01*
Y158375D01*
Y158709D01*
X59082D01*
Y159043D01*
X59416D01*
Y159377D01*
Y159711D01*
X59750D01*
Y160045D01*
Y160379D01*
X60084D01*
Y160713D01*
Y161047D01*
X60417D01*
Y161380D01*
Y161714D01*
X60751D01*
Y162048D01*
Y162382D01*
X61085D01*
Y162716D01*
Y163050D01*
Y163384D01*
X61419D01*
Y163718D01*
Y164052D01*
Y164385D01*
X61753D01*
Y164719D01*
Y165053D01*
Y165387D01*
X62087D01*
Y165721D01*
Y166055D01*
Y166389D01*
X62421D01*
Y166723D01*
Y167057D01*
Y167391D01*
Y167725D01*
X62755D01*
Y168059D01*
Y168392D01*
Y168726D01*
Y169060D01*
X63089D01*
Y169394D01*
Y169728D01*
Y170062D01*
Y170396D01*
Y170730D01*
X63423D01*
Y171064D01*
Y171398D01*
Y171731D01*
Y172065D01*
Y172399D01*
Y172733D01*
Y173067D01*
Y173401D01*
Y173735D01*
X63756D01*
Y174069D01*
Y174403D01*
Y174737D01*
Y175071D01*
Y175405D01*
Y175738D01*
Y176072D01*
Y176406D01*
Y176740D01*
Y177074D01*
Y177408D01*
Y177742D01*
Y178076D01*
Y178410D01*
Y178744D01*
Y179077D01*
Y179411D01*
Y179745D01*
Y180079D01*
Y180413D01*
Y180747D01*
Y181081D01*
Y181415D01*
Y181749D01*
X63423D01*
Y182083D01*
Y182416D01*
Y182750D01*
Y183084D01*
Y183418D01*
Y183752D01*
Y184086D01*
Y184420D01*
X63089D01*
Y184754D01*
Y185088D01*
Y185422D01*
Y185756D01*
Y186090D01*
Y186423D01*
X62755D01*
Y186757D01*
Y187091D01*
Y187425D01*
Y187759D01*
X62421D01*
Y188093D01*
Y188427D01*
Y188761D01*
Y189095D01*
X62087D01*
Y189429D01*
Y189762D01*
Y190096D01*
X61753D01*
Y190430D01*
Y190764D01*
Y191098D01*
X61419D01*
Y191432D01*
Y191766D01*
Y192100D01*
X61085D01*
Y192434D01*
Y192768D01*
X60751D01*
Y193102D01*
Y193435D01*
X60417D01*
Y193769D01*
Y194103D01*
X60084D01*
Y194437D01*
Y194771D01*
X59750D01*
Y195105D01*
Y195439D01*
X59416D01*
Y195773D01*
Y196107D01*
X59082D01*
Y196441D01*
Y196774D01*
X58748D01*
Y197108D01*
X58414D01*
Y197442D01*
Y197776D01*
X58080D01*
Y198110D01*
X57746D01*
Y198444D01*
X57412D01*
Y198778D01*
Y199112D01*
X57078D01*
Y199446D01*
X56744D01*
Y199780D01*
X56410D01*
Y200114D01*
X56077D01*
Y200448D01*
X55743D01*
Y200781D01*
X55409D01*
Y201115D01*
X55075D01*
Y201449D01*
X54741D01*
Y201783D01*
X54073D01*
Y202117D01*
X53739D01*
Y202451D01*
X53405D01*
Y202785D01*
X52737D01*
Y203119D01*
X52070D01*
Y203453D01*
X51402D01*
Y203787D01*
X50400D01*
Y204120D01*
X49065D01*
Y204454D01*
D02*
G37*
G36*
X130872Y142348D02*
X130538D01*
Y142014D01*
X129870D01*
Y141680D01*
X129536D01*
Y141346D01*
X128868D01*
Y141012D01*
X128200D01*
Y140678D01*
X127533D01*
Y140344D01*
X126865D01*
Y140010D01*
X126197D01*
Y139676D01*
X125529D01*
Y139342D01*
X124861D01*
Y139009D01*
X124194D01*
Y138675D01*
X123526D01*
Y138341D01*
X122524D01*
Y138007D01*
X121856D01*
Y137673D01*
X121188D01*
Y137339D01*
X120187D01*
Y137005D01*
X119185D01*
Y136671D01*
X118517D01*
Y136337D01*
X117516D01*
Y136003D01*
X116514D01*
Y135670D01*
X115178D01*
Y135336D01*
X114176D01*
Y135002D01*
X113175D01*
Y134668D01*
X111505D01*
Y134334D01*
X110169D01*
Y134000D01*
X108500D01*
Y133666D01*
X106497D01*
Y133332D01*
X104159D01*
Y132998D01*
X100820D01*
Y132664D01*
X97147D01*
Y132998D01*
X93808D01*
Y133332D01*
X91137D01*
Y133666D01*
X89133D01*
Y134000D01*
X87464D01*
Y134334D01*
X86128D01*
Y134668D01*
X84793D01*
Y135002D01*
X83457D01*
Y135336D01*
X82455D01*
Y135670D01*
X81120D01*
Y136003D01*
X80452D01*
Y136337D01*
X79450D01*
Y136671D01*
X78448D01*
Y137005D01*
X77447D01*
Y137339D01*
X76779D01*
Y137673D01*
X75777D01*
Y138007D01*
X75109D01*
Y138341D01*
X74441D01*
Y138675D01*
X73440D01*
Y139009D01*
X72772D01*
Y139342D01*
X72104D01*
Y139676D01*
X71436D01*
Y140010D01*
X70768D01*
Y140344D01*
X70101D01*
Y140678D01*
X69433D01*
Y141012D01*
X69099D01*
Y141346D01*
X68431D01*
Y141680D01*
X67763D01*
Y142014D01*
X67429D01*
Y142348D01*
X66762D01*
Y142014D01*
Y141680D01*
X66428D01*
Y141346D01*
X66094D01*
Y141012D01*
Y140678D01*
X66762D01*
Y140344D01*
X67096D01*
Y140010D01*
Y139676D01*
X67429D01*
Y139342D01*
X67763D01*
Y139009D01*
X68097D01*
Y138675D01*
X68431D01*
Y138341D01*
X68765D01*
Y138007D01*
Y137673D01*
X69099D01*
Y137339D01*
X69433D01*
Y137005D01*
X69767D01*
Y136671D01*
X70101D01*
Y136337D01*
X70435D01*
Y136003D01*
X70768D01*
Y135670D01*
X71102D01*
Y135336D01*
X71436D01*
Y135002D01*
X71770D01*
Y134668D01*
X72104D01*
Y134334D01*
X72438D01*
Y134000D01*
X72772D01*
Y133666D01*
X73106D01*
Y133332D01*
X73440D01*
Y132998D01*
X73774D01*
Y132664D01*
X74441D01*
Y132331D01*
X74775D01*
Y131997D01*
X75109D01*
Y131663D01*
X75443D01*
Y131329D01*
X75777D01*
Y130995D01*
X76445D01*
Y130661D01*
X76779D01*
Y130327D01*
X77113D01*
Y129993D01*
X77781D01*
Y129659D01*
X78114D01*
Y129325D01*
X78448D01*
Y128991D01*
X79116D01*
Y128657D01*
X79450D01*
Y128324D01*
X80118D01*
Y127990D01*
X80452D01*
Y127656D01*
X81120D01*
Y127322D01*
X81454D01*
Y126988D01*
X82121D01*
Y126654D01*
X82789D01*
Y126320D01*
X83457D01*
Y125986D01*
X84125D01*
Y125652D01*
X84793D01*
Y125318D01*
X85460D01*
Y124985D01*
X86128D01*
Y124651D01*
X86796D01*
Y124317D01*
X87464D01*
Y123983D01*
X88466D01*
Y123649D01*
X89467D01*
Y123315D01*
X90469D01*
Y122981D01*
X91805D01*
Y122647D01*
X93140D01*
Y122313D01*
X94810D01*
Y121979D01*
X97481D01*
Y121645D01*
X100152D01*
Y121979D01*
X103157D01*
Y122313D01*
X104493D01*
Y122647D01*
X106163D01*
Y122981D01*
X107164D01*
Y123315D01*
X108166D01*
Y123649D01*
X109168D01*
Y123983D01*
X110169D01*
Y124317D01*
X110837D01*
Y124651D01*
X111839D01*
Y124985D01*
X112507D01*
Y125318D01*
X113175D01*
Y125652D01*
X113842D01*
Y125986D01*
X114510D01*
Y126320D01*
X114844D01*
Y126654D01*
X115512D01*
Y126988D01*
X116180D01*
Y127322D01*
X116848D01*
Y127656D01*
X117182D01*
Y127990D01*
X117849D01*
Y128324D01*
X118183D01*
Y128657D01*
X118851D01*
Y128991D01*
X119185D01*
Y129325D01*
X119519D01*
Y129659D01*
X120187D01*
Y129993D01*
X120521D01*
Y130327D01*
X120855D01*
Y130661D01*
X121522D01*
Y130995D01*
X121856D01*
Y131329D01*
X122190D01*
Y131663D01*
X122524D01*
Y131997D01*
X123192D01*
Y132331D01*
X123526D01*
Y132664D01*
X123860D01*
Y132998D01*
X124194D01*
Y133332D01*
X124528D01*
Y133666D01*
X124861D01*
Y134000D01*
X125195D01*
Y134334D01*
X125529D01*
Y134668D01*
X125863D01*
Y135002D01*
X126197D01*
Y135336D01*
X126531D01*
Y135670D01*
X126865D01*
Y136003D01*
X127199D01*
Y136337D01*
X127533D01*
Y136671D01*
X127867D01*
Y137005D01*
X128200D01*
Y137339D01*
X128534D01*
Y137673D01*
X128868D01*
Y138007D01*
X129202D01*
Y138341D01*
X129536D01*
Y138675D01*
Y139009D01*
X129870D01*
Y139342D01*
X130204D01*
Y139676D01*
X130538D01*
Y140010D01*
X130872D01*
Y140344D01*
X131206D01*
Y140678D01*
X131540D01*
Y141012D01*
Y141346D01*
Y141680D01*
X131206D01*
Y142014D01*
X130872D01*
Y142348D01*
D02*
G37*
%LPD*%
G36*
X149237Y179745D02*
X150906D01*
Y179411D01*
X151574D01*
Y179077D01*
X152242D01*
Y178744D01*
X152910D01*
Y178410D01*
X153244D01*
Y178076D01*
X153577D01*
Y177742D01*
X153911D01*
Y177408D01*
X154245D01*
Y177074D01*
X154579D01*
Y176740D01*
X154913D01*
Y176406D01*
X155247D01*
Y176072D01*
Y175738D01*
X155581D01*
Y175405D01*
Y175071D01*
X155915D01*
Y174737D01*
Y174403D01*
X156249D01*
Y174069D01*
Y173735D01*
Y173401D01*
X156583D01*
Y173067D01*
Y172733D01*
Y172399D01*
Y172065D01*
Y171731D01*
Y171398D01*
Y171064D01*
Y170730D01*
Y170396D01*
Y170062D01*
Y169728D01*
X156249D01*
Y169394D01*
Y169060D01*
Y168726D01*
X155915D01*
Y168392D01*
Y168059D01*
Y167725D01*
X155581D01*
Y167391D01*
Y167057D01*
X155247D01*
Y166723D01*
X154913D01*
Y166389D01*
Y166055D01*
X154579D01*
Y165721D01*
X154245D01*
Y165387D01*
X153911D01*
Y165053D01*
X153577D01*
Y164719D01*
X152910D01*
Y164385D01*
X152576D01*
Y164052D01*
X151908D01*
Y163718D01*
X151240D01*
Y163384D01*
X149905D01*
Y163050D01*
X146231D01*
Y163384D01*
X145230D01*
Y163718D01*
X144228D01*
Y164052D01*
X143560D01*
Y164385D01*
X143226D01*
Y164719D01*
X142559D01*
Y165053D01*
X142225D01*
Y165387D01*
X141891D01*
Y165721D01*
X141557D01*
Y166055D01*
Y166389D01*
X141223D01*
Y166723D01*
X140889D01*
Y167057D01*
Y167391D01*
X140555D01*
Y167725D01*
X140221D01*
Y168059D01*
Y168392D01*
Y168726D01*
X139887D01*
Y169060D01*
Y169394D01*
Y169728D01*
Y170062D01*
X139553D01*
Y170396D01*
Y170730D01*
Y171064D01*
Y171398D01*
Y171731D01*
Y172065D01*
Y172399D01*
Y172733D01*
X139887D01*
Y173067D01*
Y173401D01*
Y173735D01*
Y174069D01*
X140221D01*
Y174403D01*
Y174737D01*
Y175071D01*
X140555D01*
Y175405D01*
Y175738D01*
X140889D01*
Y176072D01*
Y176406D01*
X141223D01*
Y176740D01*
X141557D01*
Y177074D01*
X141891D01*
Y177408D01*
X142225D01*
Y177742D01*
X142559D01*
Y178076D01*
X142892D01*
Y178410D01*
X143226D01*
Y178744D01*
X143894D01*
Y179077D01*
X144562D01*
Y179411D01*
X145564D01*
Y179745D01*
X146899D01*
Y180079D01*
X149237D01*
Y179745D01*
D02*
G37*
G36*
X51402Y178744D02*
X52404D01*
Y178410D01*
X53071D01*
Y178076D01*
X53739D01*
Y177742D01*
X54407D01*
Y177408D01*
X54741D01*
Y177074D01*
X55075D01*
Y176740D01*
X55409D01*
Y176406D01*
X55743D01*
Y176072D01*
X56077D01*
Y175738D01*
Y175405D01*
X56410D01*
Y175071D01*
X56744D01*
Y174737D01*
Y174403D01*
X57078D01*
Y174069D01*
Y173735D01*
X57412D01*
Y173401D01*
Y173067D01*
Y172733D01*
Y172399D01*
X57746D01*
Y172065D01*
Y171731D01*
Y171398D01*
Y171064D01*
Y170730D01*
Y170396D01*
Y170062D01*
Y169728D01*
Y169394D01*
Y169060D01*
X57412D01*
Y168726D01*
Y168392D01*
Y168059D01*
Y167725D01*
X57078D01*
Y167391D01*
Y167057D01*
X56744D01*
Y166723D01*
Y166389D01*
X56410D01*
Y166055D01*
Y165721D01*
X56077D01*
Y165387D01*
X55743D01*
Y165053D01*
X55409D01*
Y164719D01*
X55075D01*
Y164385D01*
X54741D01*
Y164052D01*
X54407D01*
Y163718D01*
X53739D01*
Y163384D01*
X53405D01*
Y163050D01*
X52404D01*
Y162716D01*
X51736D01*
Y162382D01*
X49732D01*
Y162048D01*
X48731D01*
Y162382D01*
X47061D01*
Y162716D01*
X46059D01*
Y163050D01*
X45392D01*
Y163384D01*
X44724D01*
Y163718D01*
X44056D01*
Y164052D01*
X43722D01*
Y164385D01*
X43388D01*
Y164719D01*
X43054D01*
Y165053D01*
X42720D01*
Y165387D01*
X42386D01*
Y165721D01*
Y166055D01*
X42053D01*
Y166389D01*
X41719D01*
Y166723D01*
Y167057D01*
X41385D01*
Y167391D01*
Y167725D01*
Y168059D01*
X41051D01*
Y168392D01*
Y168726D01*
Y169060D01*
Y169394D01*
X40717D01*
Y169728D01*
Y170062D01*
Y170396D01*
Y170730D01*
Y171064D01*
Y171398D01*
Y171731D01*
Y172065D01*
X41051D01*
Y172399D01*
Y172733D01*
Y173067D01*
Y173401D01*
X41385D01*
Y173735D01*
Y174069D01*
Y174403D01*
X41719D01*
Y174737D01*
Y175071D01*
X42053D01*
Y175405D01*
X42386D01*
Y175738D01*
Y176072D01*
X42720D01*
Y176406D01*
X43054D01*
Y176740D01*
X43388D01*
Y177074D01*
X43722D01*
Y177408D01*
X44390D01*
Y177742D01*
X44724D01*
Y178076D01*
X45392D01*
Y178410D01*
X46059D01*
Y178744D01*
X47061D01*
Y179077D01*
X51402D01*
Y178744D01*
D02*
G37*
%LPC*%
G36*
X49965Y48516D02*
X48554D01*
Y48285D01*
X49965D01*
Y48516D01*
D02*
G37*
G36*
X50382Y48192D02*
Y47891D01*
X48160D01*
Y48146D01*
X47698Y48076D01*
X47281Y47984D01*
X46934Y47891D01*
X46656Y47752D01*
X46448Y47637D01*
X46286Y47475D01*
Y47382D01*
X51446D01*
Y48053D01*
X51122Y48123D01*
X50775Y48169D01*
X50382Y48192D01*
D02*
G37*
G36*
X52002Y48285D02*
X51840D01*
Y47752D01*
X52002D01*
Y48285D01*
D02*
G37*
G36*
X52395Y47776D02*
Y47382D01*
X52881D01*
Y47452D01*
X52765Y47567D01*
X52627Y47660D01*
X52395Y47776D01*
D02*
G37*
G36*
X45684Y47706D02*
X45661D01*
X45546Y47683D01*
X45476Y47614D01*
X45453Y47521D01*
Y47498D01*
X45476Y47382D01*
X45546Y47336D01*
X45638Y47313D01*
X45661D01*
X45777Y47336D01*
X45823Y47405D01*
X45847Y47475D01*
Y47498D01*
X45823Y47614D01*
X45754Y47683D01*
X45684Y47706D01*
D02*
G37*
G36*
X46147Y45924D02*
X45384D01*
Y45161D01*
X46147D01*
Y45924D01*
D02*
G37*
G36*
X50035Y44189D02*
X47952D01*
Y44050D01*
X50035D01*
Y44189D01*
D02*
G37*
G36*
X52812Y46665D02*
X46332D01*
X46379Y46318D01*
X46541D01*
Y45577D01*
X47513Y44582D01*
X50428D01*
Y43657D01*
X48415D01*
X49757Y42268D01*
X52696Y45323D01*
X52812Y46665D01*
D02*
G37*
G36*
X52627Y44675D02*
X50035Y41991D01*
X52164Y39792D01*
X52627Y44675D01*
D02*
G37*
G36*
X46541Y44999D02*
Y44767D01*
X46494D01*
X46957Y39376D01*
X49479Y41991D01*
X47860Y43657D01*
X47513D01*
Y44004D01*
X46541Y44999D01*
D02*
G37*
G36*
X49757Y41690D02*
X47003Y38844D01*
X47050Y38335D01*
X47235Y38358D01*
X47443Y38335D01*
X47698Y38265D01*
X47952Y38149D01*
X48137Y38010D01*
X48299Y37849D01*
X48461Y37617D01*
X48577Y37339D01*
X48647Y37039D01*
X48623Y36830D01*
X51886D01*
X52118Y39260D01*
X49757Y41690D01*
D02*
G37*
G36*
X47351Y37640D02*
X47235D01*
X47003Y37617D01*
X46841Y37525D01*
X46703Y37432D01*
X46633Y37293D01*
X46587Y37178D01*
X46541Y37062D01*
Y36969D01*
Y36946D01*
X46564Y36715D01*
X46656Y36553D01*
X46749Y36414D01*
X46888Y36345D01*
X47003Y36298D01*
X47119Y36275D01*
X47212Y36252D01*
X47235D01*
X47466Y36275D01*
X47628Y36368D01*
X47767Y36483D01*
X47837Y36599D01*
X47883Y36738D01*
X47906Y36830D01*
X47929Y36923D01*
Y36946D01*
X47906Y37178D01*
X47813Y37339D01*
X47698Y37478D01*
X47582Y37548D01*
X47443Y37594D01*
X47351Y37640D01*
D02*
G37*
G36*
X51747Y36414D02*
X51655D01*
Y35859D01*
X51747D01*
Y36414D01*
D02*
G37*
%LPD*%
G36*
X47397Y37386D02*
X47513Y37339D01*
X47582Y37270D01*
X47628Y37178D01*
X47698Y37016D01*
Y36969D01*
Y36946D01*
X47675Y36784D01*
X47628Y36668D01*
X47559Y36599D01*
X47466Y36553D01*
X47304Y36483D01*
X47235D01*
X47073Y36506D01*
X46957Y36553D01*
X46888Y36622D01*
X46818Y36715D01*
X46772Y36877D01*
Y36923D01*
Y36946D01*
X46795Y37108D01*
X46841Y37224D01*
X46911Y37293D01*
X47003Y37363D01*
X47166Y37409D01*
X47235D01*
X47397Y37386D01*
D02*
G37*
%LPC*%
G36*
X47258Y37016D02*
X47189D01*
X47166Y36992D01*
Y36969D01*
Y36946D01*
Y36900D01*
X47189Y36877D01*
X47235D01*
X47281Y36900D01*
X47304Y36923D01*
Y36946D01*
X47281Y36992D01*
X47258Y37016D01*
D02*
G37*
G36*
X134990Y47113D02*
X134827D01*
X134156Y47090D01*
X133532Y46997D01*
X132907Y46881D01*
X132352Y46719D01*
X131796Y46511D01*
X131287Y46303D01*
X130824Y46071D01*
X130385Y45840D01*
X130014Y45586D01*
X129667Y45354D01*
X129366Y45146D01*
X129135Y44938D01*
X128927Y44776D01*
X128788Y44660D01*
X128695Y44567D01*
X128672Y44544D01*
X128233Y44058D01*
X127839Y43549D01*
X127492Y43040D01*
X127191Y42508D01*
X126960Y41999D01*
X126752Y41490D01*
X126590Y40981D01*
X126451Y40518D01*
X126335Y40078D01*
X126266Y39662D01*
X126196Y39315D01*
X126173Y38991D01*
X126150Y38736D01*
X126127Y38551D01*
Y38435D01*
Y38389D01*
X126150Y37718D01*
X126242Y37093D01*
X126358Y36492D01*
X126520Y35913D01*
X126705Y35358D01*
X126937Y34849D01*
X127168Y34386D01*
X127400Y33969D01*
X127631Y33576D01*
X127862Y33229D01*
X128071Y32928D01*
X128279Y32697D01*
X128340Y32618D01*
X131009Y35288D01*
X130870Y35381D01*
X130755Y35473D01*
X130662Y35543D01*
X130639Y35566D01*
X130385Y35844D01*
X130200Y36167D01*
X130061Y36468D01*
X129968Y36769D01*
X129922Y37024D01*
X129876Y37232D01*
Y37371D01*
Y37394D01*
Y37417D01*
X129899Y37764D01*
X129945Y38088D01*
X130037Y38343D01*
X130107Y38574D01*
X130200Y38759D01*
X130292Y38875D01*
X130338Y38967D01*
X130361Y38991D01*
X130547Y39176D01*
X130755Y39315D01*
X130940Y39430D01*
X131125Y39500D01*
X131287Y39546D01*
X131403Y39569D01*
X131518D01*
X131796Y39523D01*
X132051Y39430D01*
X132282Y39291D01*
X132467Y39129D01*
X132652Y38967D01*
X132768Y38829D01*
X132861Y38736D01*
X132884Y38690D01*
Y41814D01*
X133092D01*
X134388Y41282D01*
X134318Y41120D01*
X134180Y41166D01*
X134087Y41189D01*
X133994D01*
X133856Y41166D01*
X133833Y41143D01*
X133809D01*
X133763Y41073D01*
X133717Y41004D01*
X133694Y40934D01*
Y40911D01*
Y40819D01*
X133670Y40703D01*
Y40402D01*
Y40240D01*
Y40124D01*
Y40032D01*
Y40009D01*
Y37926D01*
X134804Y39083D01*
X134758Y39315D01*
X134712Y39523D01*
Y39615D01*
Y39662D01*
Y39708D01*
Y39731D01*
X134735Y39939D01*
X134758Y40124D01*
X134827Y40310D01*
X134874Y40448D01*
X134943Y40564D01*
X135013Y40657D01*
X135036Y40703D01*
X135059Y40726D01*
X135198Y40888D01*
X135337Y41004D01*
X135475Y41120D01*
X135614Y41189D01*
X135730Y41258D01*
X135799Y41305D01*
X135869Y41328D01*
X135892D01*
X136100Y41397D01*
X136308Y41443D01*
X136540Y41467D01*
X136748Y41490D01*
X136933Y41513D01*
X137234D01*
X140636Y44891D01*
X140983Y44544D01*
X141237Y44290D01*
X141122Y44429D01*
X141029Y44521D01*
X141006Y44544D01*
X140520Y45007D01*
X140011Y45400D01*
X139479Y45724D01*
X138946Y46025D01*
X138437Y46280D01*
X137928Y46488D01*
X137419Y46650D01*
X136956Y46789D01*
X136517Y46905D01*
X136100Y46974D01*
X135753Y47043D01*
X135429Y47067D01*
X135175Y47090D01*
X134990Y47113D01*
D02*
G37*
G36*
X136818Y41096D02*
X136679Y41050D01*
X136563Y41004D01*
X136470Y40957D01*
X136447Y40934D01*
X136239Y40772D01*
X136100Y40610D01*
X135985Y40472D01*
X135961Y40425D01*
Y40402D01*
X135892Y40286D01*
X135869Y40194D01*
X135846Y40148D01*
Y40124D01*
X136818Y41096D01*
D02*
G37*
G36*
X137766Y40657D02*
X135985Y38875D01*
X136031Y38782D01*
X136100Y38713D01*
X136123Y38690D01*
X136146Y38667D01*
X136285Y38528D01*
X136424Y38435D01*
X136563Y38366D01*
X136702Y38320D01*
X136818Y38296D01*
X136910Y38273D01*
X137095D01*
X137211Y38296D01*
X137327D01*
X137465Y38320D01*
X137604Y38343D01*
X137720Y38366D01*
X137766D01*
Y40657D01*
D02*
G37*
G36*
X131935Y38875D02*
X131889D01*
X131727Y38852D01*
X131565Y38805D01*
X131287Y38667D01*
X131194Y38574D01*
X131125Y38505D01*
X131079Y38458D01*
X131056Y38435D01*
X130940Y38250D01*
X130847Y38042D01*
X130778Y37834D01*
X130732Y37625D01*
X130709Y37440D01*
X130685Y37301D01*
Y37209D01*
Y37163D01*
X130709Y36839D01*
X130732Y36561D01*
X130801Y36329D01*
X130870Y36144D01*
X130940Y35982D01*
X130986Y35890D01*
X131033Y35820D01*
X131056Y35797D01*
X131125Y35682D01*
X131194Y35612D01*
X131264Y35566D01*
X131287Y35543D01*
X132884Y37139D01*
Y38389D01*
X132676Y38574D01*
X132537Y38690D01*
X132421Y38736D01*
X132398Y38759D01*
X132213Y38829D01*
X132051Y38852D01*
X131935Y38875D01*
D02*
G37*
G36*
X141237Y44290D02*
X141298Y44212D01*
X138599Y41513D01*
X139594D01*
Y41328D01*
X139340D01*
X139108Y41305D01*
X138946Y41235D01*
X138831Y41143D01*
X138808Y41120D01*
X138761Y41050D01*
X138715Y40957D01*
X138692Y40703D01*
X138669Y40587D01*
Y40472D01*
Y40402D01*
Y40379D01*
Y36237D01*
Y36052D01*
X138692Y35890D01*
Y35774D01*
X138715Y35682D01*
X138738Y35612D01*
Y35566D01*
X138761Y35543D01*
X138831Y35450D01*
X138923Y35404D01*
X139108Y35311D01*
X139270Y35288D01*
X139594D01*
Y35103D01*
X136841D01*
Y35288D01*
X137095D01*
X137327Y35311D01*
X137489Y35381D01*
X137581Y35450D01*
X137627Y35473D01*
X137674Y35543D01*
X137697Y35658D01*
X137743Y35913D01*
X137766Y36029D01*
Y36144D01*
Y36214D01*
Y36237D01*
Y38088D01*
X137535Y38042D01*
X137350Y38019D01*
X137234Y37996D01*
X137188D01*
X136979Y37973D01*
X136679D01*
X136401Y37996D01*
X136146Y38019D01*
X135938Y38088D01*
X135753Y38158D01*
X135591Y38204D01*
X135498Y38273D01*
X135429Y38296D01*
X135406Y38320D01*
X133670Y36561D01*
Y35520D01*
X133370Y35335D01*
X133115Y35219D01*
X132999Y35173D01*
X132930Y35126D01*
X132884Y35103D01*
X132861D01*
X132583Y35034D01*
X132352Y34987D01*
X132236Y34964D01*
X132074D01*
X129025Y31915D01*
X128672Y32234D01*
X129019Y31910D01*
X129025Y31915D01*
X129158Y31794D01*
X129667Y31401D01*
X130176Y31054D01*
X130709Y30753D01*
X131218Y30521D01*
X131727Y30313D01*
X132236Y30151D01*
X132699Y30012D01*
X133138Y29897D01*
X133555Y29827D01*
X133902Y29758D01*
X134226Y29735D01*
X134480Y29711D01*
X134666Y29688D01*
X134827D01*
X135498Y29711D01*
X136123Y29804D01*
X136748Y29920D01*
X137303Y30082D01*
X137859Y30290D01*
X138368Y30498D01*
X138831Y30730D01*
X139270Y30961D01*
X139664Y31192D01*
X140011Y31424D01*
X140288Y31655D01*
X140543Y31840D01*
X140751Y32002D01*
X140890Y32118D01*
X140983Y32211D01*
X141006Y32234D01*
X141446Y32720D01*
X141839Y33229D01*
X142186Y33738D01*
X142487Y34270D01*
X142718Y34779D01*
X142927Y35311D01*
X143088Y35797D01*
X143227Y36260D01*
X143343Y36700D01*
X143412Y37116D01*
X143482Y37463D01*
X143505Y37787D01*
X143528Y38042D01*
X143551Y38227D01*
Y38343D01*
Y38389D01*
X143528Y39060D01*
X143436Y39685D01*
X143320Y40310D01*
X143158Y40865D01*
X142950Y41420D01*
X142741Y41929D01*
X142510Y42392D01*
X142279Y42832D01*
X142047Y43202D01*
X141816Y43549D01*
X141584Y43850D01*
X141399Y44081D01*
X141298Y44212D01*
X141307Y44220D01*
X141237Y44290D01*
D02*
G37*
G36*
X128340Y32618D02*
X128325Y32604D01*
X128499Y32419D01*
X128557Y32349D01*
X128649Y32257D01*
X128672Y32234D01*
X128499Y32419D01*
X128441Y32488D01*
X128340Y32618D01*
D02*
G37*
%LPD*%
D44*
X179049Y103954D02*
Y93956D01*
Y103954D02*
X172384Y93956D01*
Y103954D02*
Y93956D01*
X169622Y97764D02*
X163909D01*
Y98717D01*
X164385Y99669D01*
X164862Y100145D01*
X165814Y100621D01*
X167242D01*
X168194Y100145D01*
X169146Y99193D01*
X169622Y97764D01*
Y96812D01*
X169146Y95384D01*
X168194Y94432D01*
X167242Y93956D01*
X165814D01*
X164862Y94432D01*
X163909Y95384D01*
X161767Y100621D02*
X159863Y93956D01*
X157958Y100621D02*
X159863Y93956D01*
X157958Y100621D02*
X156054Y93956D01*
X154149Y100621D02*
X156054Y93956D01*
X144199D02*
X148008Y103954D01*
X151817Y93956D01*
X150388Y97288D02*
X145627D01*
X135677Y103954D02*
X141866D01*
Y93956D01*
X135677D01*
X141866Y99193D02*
X138058D01*
X122823Y103954D02*
Y93956D01*
X126155Y103954D02*
X119490D01*
X118300Y97764D02*
X112587D01*
Y98717D01*
X113063Y99669D01*
X113539Y100145D01*
X114491Y100621D01*
X115920D01*
X116872Y100145D01*
X117824Y99193D01*
X118300Y97764D01*
Y96812D01*
X117824Y95384D01*
X116872Y94432D01*
X115920Y93956D01*
X114491D01*
X113539Y94432D01*
X112587Y95384D01*
X104732Y99193D02*
X105684Y100145D01*
X106636Y100621D01*
X108064D01*
X109016Y100145D01*
X109968Y99193D01*
X110445Y97764D01*
Y96812D01*
X109968Y95384D01*
X109016Y94432D01*
X108064Y93956D01*
X106636D01*
X105684Y94432D01*
X104732Y95384D01*
X102589Y103954D02*
Y93956D01*
Y98717D02*
X101161Y100145D01*
X100209Y100621D01*
X98780D01*
X97828Y100145D01*
X97352Y98717D01*
Y93956D01*
X94734Y100621D02*
Y93956D01*
Y98717D02*
X93305Y100145D01*
X92353Y100621D01*
X90925D01*
X89973Y100145D01*
X89497Y98717D01*
Y93956D01*
X84498Y100621D02*
X85450Y100145D01*
X86402Y99193D01*
X86878Y97764D01*
Y96812D01*
X86402Y95384D01*
X85450Y94432D01*
X84498Y93956D01*
X83069D01*
X82117Y94432D01*
X81165Y95384D01*
X80689Y96812D01*
Y97764D01*
X81165Y99193D01*
X82117Y100145D01*
X83069Y100621D01*
X84498D01*
X78499Y103954D02*
Y93956D01*
X74024Y100621D02*
X74976Y100145D01*
X75928Y99193D01*
X76404Y97764D01*
Y96812D01*
X75928Y95384D01*
X74976Y94432D01*
X74024Y93956D01*
X72596D01*
X71643Y94432D01*
X70691Y95384D01*
X70215Y96812D01*
Y97764D01*
X70691Y99193D01*
X71643Y100145D01*
X72596Y100621D01*
X74024D01*
X62312D02*
Y93004D01*
X62788Y91575D01*
X63264Y91099D01*
X64216Y90623D01*
X65645D01*
X66597Y91099D01*
X62312Y99193D02*
X63264Y100145D01*
X64216Y100621D01*
X65645D01*
X66597Y100145D01*
X67549Y99193D01*
X68025Y97764D01*
Y96812D01*
X67549Y95384D01*
X66597Y94432D01*
X65645Y93956D01*
X64216D01*
X63264Y94432D01*
X62312Y95384D01*
X59170Y100621D02*
X56313Y93956D01*
X53457Y100621D02*
X56313Y93956D01*
X57266Y92051D01*
X58218Y91099D01*
X59170Y90623D01*
X59646D01*
X43935Y103954D02*
Y93956D01*
X41840Y100621D02*
Y93956D01*
Y98717D02*
X40412Y100145D01*
X39460Y100621D01*
X38032D01*
X37079Y100145D01*
X36603Y98717D01*
Y93956D01*
X28272Y99193D02*
X29224Y100145D01*
X30176Y100621D01*
X31604D01*
X32557Y100145D01*
X33509Y99193D01*
X33985Y97764D01*
Y96812D01*
X33509Y95384D01*
X32557Y94432D01*
X31604Y93956D01*
X30176D01*
X29224Y94432D01*
X28272Y95384D01*
X25653Y94908D02*
X26129Y94432D01*
X25653Y93956D01*
X25177Y94432D01*
X25653Y94908D01*
X177859Y82643D02*
X178335Y83595D01*
X179287Y84548D01*
X180239Y85024D01*
X182143D01*
X183096Y84548D01*
X184048Y83595D01*
X184524Y82643D01*
X185000Y81215D01*
Y78834D01*
X184524Y77406D01*
X184048Y76454D01*
X183096Y75502D01*
X182143Y75026D01*
X180239D01*
X179287Y75502D01*
X178335Y76454D01*
X177859Y77406D01*
X175050Y85024D02*
X172669Y75026D01*
X170289Y85024D02*
X172669Y75026D01*
X170289Y85024D02*
X167908Y75026D01*
X165528Y85024D02*
X167908Y75026D01*
X162576Y85024D02*
X157339D01*
X160196Y81215D01*
X158767D01*
X157815Y80739D01*
X157339Y80263D01*
X156863Y78834D01*
Y77882D01*
X157339Y76454D01*
X158291Y75502D01*
X159720Y75026D01*
X161148D01*
X162576Y75502D01*
X163052Y75978D01*
X163528Y76930D01*
X151769Y85024D02*
X153197Y84548D01*
X154149Y83119D01*
X154626Y80739D01*
Y79311D01*
X154149Y76930D01*
X153197Y75502D01*
X151769Y75026D01*
X150817D01*
X149389Y75502D01*
X148436Y76930D01*
X147960Y79311D01*
Y80739D01*
X148436Y83119D01*
X149389Y84548D01*
X150817Y85024D01*
X151769D01*
X143342D02*
X144771Y84548D01*
X145247Y83595D01*
Y82643D01*
X144771Y81691D01*
X143818Y81215D01*
X141914Y80739D01*
X140486Y80263D01*
X139534Y79311D01*
X139058Y78358D01*
Y76930D01*
X139534Y75978D01*
X140010Y75502D01*
X141438Y75026D01*
X143342D01*
X144771Y75502D01*
X145247Y75978D01*
X145723Y76930D01*
Y78358D01*
X145247Y79311D01*
X144294Y80263D01*
X142866Y80739D01*
X140962Y81215D01*
X140010Y81691D01*
X139534Y82643D01*
Y83595D01*
X140010Y84548D01*
X141438Y85024D01*
X143342D01*
X133487D02*
Y75026D01*
X136820Y85024D02*
X130155D01*
X128964Y79311D02*
X120395D01*
X111254Y85024D02*
X117443D01*
Y75026D01*
X111254D01*
X117443Y80263D02*
X113634D01*
X109588Y85024D02*
Y75026D01*
Y85024D02*
X103399D01*
X109588Y80263D02*
X105779D01*
X102256Y85024D02*
Y75026D01*
Y85024D02*
X98447Y75026D01*
X94638Y85024D02*
X98447Y75026D01*
X94638Y85024D02*
Y75026D01*
X90830Y85024D02*
X85593D01*
X88449Y81215D01*
X87021D01*
X86069Y80739D01*
X85593Y80263D01*
X85117Y78834D01*
Y77882D01*
X85593Y76454D01*
X86545Y75502D01*
X87973Y75026D01*
X89401D01*
X90830Y75502D01*
X91306Y75978D01*
X91782Y76930D01*
X82403Y82643D02*
Y83119D01*
X81927Y84071D01*
X81451Y84548D01*
X80499Y85024D01*
X78594D01*
X77642Y84548D01*
X77166Y84071D01*
X76690Y83119D01*
Y82167D01*
X77166Y81215D01*
X78118Y79787D01*
X82879Y75026D01*
X76214D01*
X70644Y85024D02*
Y75026D01*
X73976Y85024D02*
X67311D01*
X58979Y82643D02*
X59456Y83595D01*
X60408Y84548D01*
X61360Y85024D01*
X63264D01*
X64216Y84548D01*
X65169Y83595D01*
X65645Y82643D01*
X66121Y81215D01*
Y78834D01*
X65645Y77406D01*
X65169Y76454D01*
X64216Y75502D01*
X63264Y75026D01*
X61360D01*
X60408Y75502D01*
X59456Y76454D01*
X58979Y77406D01*
Y78834D01*
X61360D02*
X58979D01*
X56694Y83119D02*
X55742Y83595D01*
X54314Y85024D01*
Y75026D01*
X49362Y83119D02*
X48410Y83595D01*
X46982Y85024D01*
Y75026D01*
X42031Y79311D02*
X33461D01*
X27653Y85024D02*
X29081Y84548D01*
X30033Y83119D01*
X30509Y80739D01*
Y79311D01*
X30033Y76930D01*
X29081Y75502D01*
X27653Y75026D01*
X26701D01*
X25272Y75502D01*
X24320Y76930D01*
X23844Y79311D01*
Y80739D01*
X24320Y83119D01*
X25272Y84548D01*
X26701Y85024D01*
X27653D01*
X21607Y83119D02*
X20654Y83595D01*
X19226Y85024D01*
Y75026D01*
X157339Y69426D02*
Y59428D01*
Y69426D02*
X153054D01*
X151626Y68950D01*
X151150Y68474D01*
X150674Y67522D01*
Y66570D01*
X151150Y65617D01*
X151626Y65141D01*
X153054Y64665D01*
X157339D01*
X154007D02*
X150674Y59428D01*
X145580Y69426D02*
X146532Y68950D01*
X147484Y67998D01*
X147960Y67046D01*
X148436Y65617D01*
Y63237D01*
X147960Y61809D01*
X147484Y60856D01*
X146532Y59904D01*
X145580Y59428D01*
X143675D01*
X142723Y59904D01*
X141771Y60856D01*
X141295Y61809D01*
X140819Y63237D01*
Y65617D01*
X141295Y67046D01*
X141771Y67998D01*
X142723Y68950D01*
X143675Y69426D01*
X145580D01*
X138486D02*
Y59428D01*
X131821Y69426D02*
Y59428D01*
X138486Y64665D02*
X131821D01*
X122394Y67998D02*
X123347Y68950D01*
X124775Y69426D01*
X126679D01*
X128107Y68950D01*
X129060Y67998D01*
Y67046D01*
X128584Y66093D01*
X128107Y65617D01*
X127155Y65141D01*
X124299Y64189D01*
X123347Y63713D01*
X122871Y63237D01*
X122394Y62285D01*
Y60856D01*
X123347Y59904D01*
X124775Y59428D01*
X126679D01*
X128107Y59904D01*
X129060Y60856D01*
X112301Y58000D02*
X105636Y69426D01*
X97114Y64189D02*
X92829D01*
X91401Y64665D01*
X90925Y65141D01*
X90449Y66093D01*
Y67522D01*
X90925Y68474D01*
X91401Y68950D01*
X92829Y69426D01*
X97114D01*
Y59428D01*
X88211Y69426D02*
Y59428D01*
Y64665D02*
X87259Y65617D01*
X86307Y66093D01*
X84879D01*
X83926Y65617D01*
X82974Y64665D01*
X82498Y63237D01*
Y62285D01*
X82974Y60856D01*
X83926Y59904D01*
X84879Y59428D01*
X86307D01*
X87259Y59904D01*
X88211Y60856D01*
X72500Y69426D02*
Y59428D01*
Y69426D02*
X66311D01*
X72500Y64665D02*
X68692D01*
X65169Y66093D02*
Y59428D01*
Y63237D02*
X64692Y64665D01*
X63740Y65617D01*
X62788Y66093D01*
X61360D01*
X60455Y63237D02*
X54742D01*
Y64189D01*
X55218Y65141D01*
X55694Y65617D01*
X56647Y66093D01*
X58075D01*
X59027Y65617D01*
X59979Y64665D01*
X60455Y63237D01*
Y62285D01*
X59979Y60856D01*
X59027Y59904D01*
X58075Y59428D01*
X56647D01*
X55694Y59904D01*
X54742Y60856D01*
X52600Y63237D02*
X46887D01*
Y64189D01*
X47363Y65141D01*
X47839Y65617D01*
X48791Y66093D01*
X50219D01*
X51172Y65617D01*
X52124Y64665D01*
X52600Y63237D01*
Y62285D01*
X52124Y60856D01*
X51172Y59904D01*
X50219Y59428D01*
X48791D01*
X47839Y59904D01*
X46887Y60856D01*
M02*
