G04*
G04 #@! TF.GenerationSoftware,Altium Limited,Altium Designer,18.1.7 (191)*
G04*
G04 Layer_Color=65535*
%FSLAX25Y25*%
%MOIN*%
G70*
G01*
G75*
%ADD10C,0.02362*%
%ADD11C,0.00984*%
%ADD12C,0.01181*%
%ADD13C,0.00787*%
%ADD14C,0.00394*%
%ADD15C,0.01000*%
%ADD16C,0.00800*%
G36*
X167980Y219833D02*
X170102D01*
Y219640D01*
X171066D01*
Y219447D01*
X172031D01*
Y219254D01*
X172609D01*
Y219061D01*
X173188D01*
Y218868D01*
X173767D01*
Y218676D01*
X174153D01*
Y218483D01*
X174538D01*
Y218290D01*
X174924D01*
Y218097D01*
X175310D01*
Y217904D01*
X175696D01*
Y217711D01*
X175889D01*
Y217518D01*
X176274D01*
Y217325D01*
X176467D01*
Y217132D01*
X176853D01*
Y216939D01*
X177046D01*
Y216747D01*
X177239D01*
Y216554D01*
X177432D01*
Y216361D01*
X177625D01*
Y216168D01*
X177818D01*
Y215975D01*
X178010D01*
Y215782D01*
X178203D01*
Y215589D01*
X178396D01*
Y215396D01*
X178589D01*
Y215203D01*
X178782D01*
Y215010D01*
X178975D01*
Y214818D01*
Y214625D01*
X179168D01*
Y214432D01*
X179361D01*
Y214239D01*
Y214046D01*
X179554D01*
Y213853D01*
X179747D01*
Y213660D01*
Y213467D01*
X179939D01*
Y213274D01*
Y213082D01*
X180132D01*
Y212889D01*
X180325D01*
Y212696D01*
Y212503D01*
X180518D01*
Y212310D01*
Y212117D01*
X180711D01*
Y211924D01*
Y211731D01*
X180904D01*
Y211538D01*
Y211346D01*
Y211153D01*
X181097D01*
Y210960D01*
Y210767D01*
Y210574D01*
X181290D01*
Y210381D01*
Y210188D01*
Y209995D01*
X181483D01*
Y209802D01*
Y209609D01*
Y209417D01*
X181676D01*
Y209224D01*
Y209031D01*
Y208838D01*
Y208645D01*
Y208452D01*
X181869D01*
Y208259D01*
Y208066D01*
Y207873D01*
Y207680D01*
Y207488D01*
Y207295D01*
Y207102D01*
Y206909D01*
X182061D01*
Y206716D01*
Y206523D01*
Y206330D01*
Y206137D01*
Y205944D01*
Y205751D01*
X182254D01*
Y205558D01*
Y205366D01*
Y205173D01*
Y204980D01*
Y204787D01*
Y204594D01*
Y204401D01*
Y204208D01*
Y204015D01*
Y203822D01*
Y203629D01*
Y203437D01*
Y203244D01*
Y203051D01*
Y202858D01*
Y202665D01*
Y202472D01*
Y202279D01*
Y202086D01*
Y201893D01*
Y201701D01*
Y201508D01*
Y201315D01*
Y201122D01*
Y200929D01*
Y200736D01*
Y200543D01*
Y200350D01*
Y200157D01*
Y199964D01*
X182061D01*
Y199772D01*
Y199579D01*
Y199386D01*
Y199193D01*
Y199000D01*
Y198807D01*
X181869D01*
Y198614D01*
Y198421D01*
Y198228D01*
Y198036D01*
Y197843D01*
Y197650D01*
Y197457D01*
X181676D01*
Y197264D01*
Y197071D01*
Y196878D01*
Y196685D01*
Y196492D01*
Y196299D01*
X181483D01*
Y196107D01*
Y195914D01*
Y195721D01*
X181290D01*
Y195528D01*
Y195335D01*
Y195142D01*
Y194949D01*
X181097D01*
Y194756D01*
Y194563D01*
Y194370D01*
Y194177D01*
Y193985D01*
X180904D01*
Y193792D01*
X180711D01*
Y193599D01*
Y193406D01*
Y193213D01*
Y193020D01*
X180518D01*
Y192827D01*
Y192634D01*
Y192441D01*
Y192249D01*
X180325D01*
Y192056D01*
X180132D01*
Y191863D01*
Y191670D01*
Y191477D01*
X179939D01*
Y191284D01*
Y191091D01*
Y190898D01*
X179747D01*
Y190705D01*
Y190513D01*
X179554D01*
Y190320D01*
X179361D01*
Y190127D01*
Y189934D01*
Y189741D01*
X179168D01*
Y189548D01*
Y189355D01*
X178975D01*
Y189162D01*
X178782D01*
Y188969D01*
Y188776D01*
X178589D01*
Y188584D01*
Y188391D01*
X178396D01*
Y188198D01*
X178203D01*
Y188005D01*
Y187812D01*
Y187619D01*
X178010D01*
Y187426D01*
X177818D01*
Y187233D01*
X177625D01*
Y187040D01*
Y186847D01*
X177432D01*
Y186654D01*
X177239D01*
Y186462D01*
Y186269D01*
X177046D01*
Y186076D01*
X176853D01*
Y185883D01*
Y185690D01*
X176660D01*
Y185497D01*
X176274D01*
Y185304D01*
Y185111D01*
X176082D01*
Y184918D01*
X175889D01*
Y184726D01*
X175696D01*
Y184533D01*
X175503D01*
Y184340D01*
Y184147D01*
X175310D01*
Y183954D01*
X175117D01*
Y183761D01*
X174924D01*
Y183568D01*
X174731D01*
Y183375D01*
X174538D01*
Y183182D01*
X174346D01*
Y182990D01*
X173960D01*
Y182797D01*
X173767D01*
Y182604D01*
X173574D01*
Y182411D01*
X173381D01*
Y182218D01*
X173188D01*
Y182025D01*
X172995D01*
Y181832D01*
X172802D01*
Y181639D01*
X172416D01*
Y181446D01*
X172224D01*
Y181253D01*
X171838D01*
Y181061D01*
X171645D01*
Y180868D01*
X171452D01*
Y180675D01*
X171066D01*
Y180482D01*
X170873D01*
Y180289D01*
X170680D01*
Y180096D01*
X170295D01*
Y179903D01*
X169909D01*
Y179710D01*
X169716D01*
Y179517D01*
X169330D01*
Y179324D01*
X169137D01*
Y179131D01*
X168944D01*
Y178939D01*
X168751D01*
Y178746D01*
X168559D01*
Y178553D01*
X168366D01*
Y178360D01*
X168173D01*
Y178167D01*
Y177974D01*
X167980D01*
Y177781D01*
X167787D01*
Y177588D01*
X167594D01*
Y177395D01*
X167401D01*
Y177202D01*
X167208D01*
Y177010D01*
Y176817D01*
X167015D01*
Y176624D01*
X166822D01*
Y176431D01*
X166630D01*
Y176238D01*
X166437D01*
Y176045D01*
X166244D01*
Y175852D01*
X166051D01*
Y175659D01*
X165858D01*
Y175467D01*
X165665D01*
Y175274D01*
X165472D01*
Y175081D01*
X165279D01*
Y174888D01*
X165086D01*
Y174695D01*
X164893D01*
Y174502D01*
X164701D01*
Y174309D01*
X164315D01*
Y174116D01*
X164122D01*
Y173923D01*
X163929D01*
Y173730D01*
X163736D01*
Y173538D01*
X163543D01*
Y173345D01*
X163157D01*
Y173152D01*
X162964D01*
Y172959D01*
X162772D01*
Y172766D01*
X162386D01*
Y172573D01*
X162193D01*
Y172380D01*
X162000D01*
Y172187D01*
X161614D01*
Y171994D01*
X161228D01*
Y171801D01*
X161036D01*
Y171608D01*
X160650D01*
Y171416D01*
X160457D01*
Y171223D01*
X160071D01*
Y171030D01*
X159685D01*
Y170837D01*
X159492D01*
Y170644D01*
X159107D01*
Y170451D01*
X158721D01*
Y170258D01*
X158335D01*
Y170065D01*
X157949D01*
Y169872D01*
X157563D01*
Y169679D01*
X156985D01*
Y169487D01*
X156599D01*
Y169294D01*
X156213D01*
Y169101D01*
X155634D01*
Y168908D01*
X155249D01*
Y168715D01*
X154670D01*
Y168522D01*
X153898D01*
Y168329D01*
X153513D01*
Y168136D01*
X152741D01*
Y167944D01*
X152162D01*
Y167751D01*
X150812D01*
Y167558D01*
X149654D01*
Y167365D01*
X148497D01*
Y167172D01*
X146568D01*
Y166979D01*
X142131D01*
Y166786D01*
X139045D01*
Y166979D01*
X136345D01*
Y167172D01*
X134608D01*
Y167365D01*
X132872D01*
Y167558D01*
X132101D01*
Y167751D01*
X131136D01*
Y167944D01*
X130558D01*
Y168136D01*
X129786D01*
Y168329D01*
X129400D01*
Y168522D01*
X128629D01*
Y168715D01*
X128050D01*
Y168908D01*
X127471D01*
Y169101D01*
X127085D01*
Y169294D01*
X126700D01*
Y169487D01*
X126121D01*
Y169679D01*
X125735D01*
Y169872D01*
X125349D01*
Y170065D01*
X124771D01*
Y170258D01*
X124385D01*
Y170451D01*
X124192D01*
Y170644D01*
X123806D01*
Y170837D01*
X123420D01*
Y171030D01*
X123035D01*
Y171223D01*
X122842D01*
Y171416D01*
X122456D01*
Y171608D01*
X122070D01*
Y171801D01*
X121877D01*
Y171994D01*
X121492D01*
Y172187D01*
X121299D01*
Y172380D01*
X120913D01*
Y172573D01*
X120720D01*
Y172766D01*
X120527D01*
Y172959D01*
X120141D01*
Y173152D01*
X119948D01*
Y173345D01*
X119755D01*
Y173538D01*
X119370D01*
Y173730D01*
X119177D01*
Y173923D01*
X118984D01*
Y174116D01*
X118791D01*
Y174309D01*
X118598D01*
Y174502D01*
X118405D01*
Y174695D01*
X118212D01*
Y174888D01*
X117826D01*
Y175081D01*
Y175274D01*
X117633D01*
Y175467D01*
X117441D01*
Y175659D01*
X117248D01*
Y175852D01*
X117055D01*
Y176045D01*
X116862D01*
Y176238D01*
X116669D01*
Y176431D01*
X116476D01*
Y176624D01*
X116283D01*
Y176817D01*
X116090D01*
Y177010D01*
X115897D01*
Y177202D01*
X115705D01*
Y177395D01*
Y177588D01*
X115512D01*
Y177781D01*
X115126D01*
Y177974D01*
Y178167D01*
X114933D01*
Y178360D01*
X114740D01*
Y178553D01*
X114547D01*
Y178746D01*
Y178939D01*
X114354D01*
Y179131D01*
X114161D01*
Y179324D01*
X113776D01*
Y179517D01*
X113390D01*
Y179710D01*
X113197D01*
Y179903D01*
X112811D01*
Y180096D01*
X112618D01*
Y180289D01*
X112425D01*
Y180482D01*
X112039D01*
Y180675D01*
X111847D01*
Y180868D01*
X111461D01*
Y181061D01*
X111268D01*
Y181253D01*
X110882D01*
Y181446D01*
X110689D01*
Y181639D01*
X110496D01*
Y181832D01*
X110303D01*
Y182025D01*
X109918D01*
Y182218D01*
X109725D01*
Y182411D01*
X109532D01*
Y182604D01*
X109339D01*
Y182797D01*
X109146D01*
Y182990D01*
X108953D01*
Y183182D01*
X108760D01*
Y183375D01*
X108567D01*
Y183568D01*
X108374D01*
Y183761D01*
X108182D01*
Y183954D01*
X107796D01*
Y184147D01*
Y184340D01*
X107603D01*
Y184533D01*
X107410D01*
Y184726D01*
X107217D01*
Y184918D01*
X107024D01*
Y185111D01*
X106831D01*
Y185304D01*
X106638D01*
Y185497D01*
Y185690D01*
X106445D01*
Y185883D01*
X106253D01*
Y186076D01*
X106060D01*
Y186269D01*
X105867D01*
Y186462D01*
Y186654D01*
X105674D01*
Y186847D01*
X105481D01*
Y187040D01*
Y187233D01*
X105288D01*
Y187426D01*
X105095D01*
Y187619D01*
Y187812D01*
X104902D01*
Y188005D01*
X104709D01*
Y188198D01*
Y188391D01*
X104516D01*
Y188584D01*
Y188776D01*
X104324D01*
Y188969D01*
Y189162D01*
X104131D01*
Y189355D01*
X103938D01*
Y189548D01*
Y189741D01*
X103745D01*
Y189934D01*
Y190127D01*
X103552D01*
Y190320D01*
Y190513D01*
Y190705D01*
X103359D01*
Y190898D01*
Y191091D01*
X103166D01*
Y191284D01*
Y191477D01*
X102973D01*
Y191670D01*
Y191863D01*
Y192056D01*
X102780D01*
Y192249D01*
Y192441D01*
Y192634D01*
X102587D01*
Y192827D01*
Y193020D01*
X102395D01*
Y193213D01*
Y193406D01*
Y193599D01*
X102202D01*
Y193792D01*
Y193985D01*
Y194177D01*
Y194370D01*
X102009D01*
Y194563D01*
Y194756D01*
Y194949D01*
Y195142D01*
Y195335D01*
X101816D01*
Y195528D01*
Y195721D01*
X101623D01*
Y195914D01*
Y196107D01*
Y196299D01*
Y196492D01*
Y196685D01*
Y196878D01*
X101430D01*
Y197071D01*
Y197264D01*
Y197457D01*
Y197650D01*
Y197843D01*
Y198036D01*
X101237D01*
Y198228D01*
Y198421D01*
Y198614D01*
Y198807D01*
X101044D01*
Y199000D01*
Y199193D01*
Y199386D01*
Y199579D01*
Y199772D01*
Y199964D01*
Y200157D01*
Y200350D01*
Y200543D01*
Y200736D01*
Y200929D01*
Y201122D01*
X100851D01*
Y201315D01*
Y201508D01*
Y201701D01*
Y201893D01*
Y202086D01*
Y202279D01*
Y202472D01*
Y202665D01*
Y202858D01*
Y203051D01*
Y203244D01*
Y203437D01*
Y203629D01*
Y203822D01*
Y204015D01*
X101044D01*
Y204208D01*
Y204401D01*
Y204594D01*
Y204787D01*
Y204980D01*
Y205173D01*
Y205366D01*
Y205558D01*
Y205751D01*
Y205944D01*
Y206137D01*
Y206330D01*
Y206523D01*
Y206716D01*
X101237D01*
Y206909D01*
Y207102D01*
Y207295D01*
Y207488D01*
X101430D01*
Y207680D01*
Y207873D01*
Y208066D01*
Y208259D01*
Y208452D01*
Y208645D01*
Y208838D01*
X101623D01*
Y209031D01*
Y209224D01*
Y209417D01*
Y209609D01*
X101816D01*
Y209802D01*
Y209995D01*
Y210188D01*
X102009D01*
Y210381D01*
Y210574D01*
Y210767D01*
X102202D01*
Y210960D01*
Y211153D01*
Y211346D01*
X102395D01*
Y211538D01*
Y211731D01*
Y211924D01*
X102587D01*
Y212117D01*
X102780D01*
Y212310D01*
Y212503D01*
Y212696D01*
X102973D01*
Y212889D01*
Y213082D01*
X103166D01*
Y213274D01*
Y213467D01*
X103359D01*
Y213660D01*
X103552D01*
Y213853D01*
Y214046D01*
X103745D01*
Y214239D01*
X103938D01*
Y214432D01*
X104131D01*
Y214625D01*
Y214818D01*
X104324D01*
Y215010D01*
Y215203D01*
X104516D01*
Y215396D01*
X104709D01*
Y215589D01*
X104902D01*
Y215782D01*
X105095D01*
Y215975D01*
X105288D01*
Y216168D01*
X105481D01*
Y216361D01*
X105674D01*
Y216554D01*
X105867D01*
Y216747D01*
X106253D01*
Y216939D01*
X106445D01*
Y217132D01*
X106831D01*
Y217325D01*
X107024D01*
Y217518D01*
X107217D01*
Y217711D01*
X107603D01*
Y217904D01*
X107989D01*
Y218097D01*
X108374D01*
Y218290D01*
X108760D01*
Y218483D01*
X109146D01*
Y218676D01*
X109532D01*
Y218868D01*
X110110D01*
Y219061D01*
X110689D01*
Y219254D01*
X111268D01*
Y219447D01*
X112232D01*
Y219640D01*
X113583D01*
Y219833D01*
X115319D01*
Y220026D01*
X116090D01*
Y219833D01*
X117826D01*
Y219640D01*
X119177D01*
Y219447D01*
X119755D01*
Y219254D01*
X120720D01*
Y219061D01*
X121492D01*
Y218868D01*
X122070D01*
Y218676D01*
X123035D01*
Y218483D01*
X124192D01*
Y218290D01*
X125349D01*
Y218097D01*
X126507D01*
Y217904D01*
X128050D01*
Y217711D01*
X129786D01*
Y217518D01*
X131715D01*
Y217325D01*
X133837D01*
Y217132D01*
X137888D01*
Y216939D01*
X145411D01*
Y217132D01*
X149269D01*
Y217325D01*
X151391D01*
Y217518D01*
X153513D01*
Y217711D01*
X155249D01*
Y217904D01*
X156406D01*
Y218097D01*
X157756D01*
Y218290D01*
X159107D01*
Y218483D01*
X160457D01*
Y218676D01*
X161228D01*
Y218868D01*
X161807D01*
Y219061D01*
X162386D01*
Y219254D01*
X163157D01*
Y219447D01*
X163929D01*
Y219640D01*
X164893D01*
Y219833D01*
X167015D01*
Y220026D01*
X167980D01*
Y219833D01*
D02*
G37*
%LPC*%
G36*
X172416Y217904D02*
X170295D01*
Y217711D01*
X169523D01*
Y217518D01*
X169137D01*
Y217325D01*
X168559D01*
Y217132D01*
X168173D01*
Y216939D01*
X167980D01*
Y216747D01*
X167594D01*
Y216554D01*
X167401D01*
Y216361D01*
X167208D01*
Y216168D01*
X166822D01*
Y215975D01*
X166630D01*
Y215782D01*
X166437D01*
Y215589D01*
X166244D01*
Y215396D01*
X166051D01*
Y215203D01*
X165858D01*
Y215010D01*
X165665D01*
Y214818D01*
Y214625D01*
X165472D01*
Y214432D01*
X165279D01*
Y214239D01*
X165086D01*
Y214046D01*
Y213853D01*
X164893D01*
Y213660D01*
X164701D01*
Y213467D01*
Y213274D01*
X164508D01*
Y213082D01*
Y212889D01*
X164315D01*
Y212696D01*
X164122D01*
Y212503D01*
Y212310D01*
X163929D01*
Y212117D01*
Y211924D01*
X163736D01*
Y211731D01*
Y211538D01*
X163543D01*
Y211346D01*
Y211153D01*
Y210960D01*
X163350D01*
Y210767D01*
Y210574D01*
X163157D01*
Y210381D01*
Y210188D01*
Y209995D01*
X162964D01*
Y209802D01*
Y209609D01*
Y209417D01*
X162772D01*
Y209224D01*
Y209031D01*
Y208838D01*
Y208645D01*
X162579D01*
Y208452D01*
Y208259D01*
Y208066D01*
X162386D01*
Y207873D01*
Y207680D01*
Y207488D01*
Y207295D01*
Y207102D01*
X162193D01*
Y206909D01*
Y206716D01*
Y206523D01*
Y206330D01*
Y206137D01*
Y205944D01*
Y205751D01*
X162000D01*
Y205558D01*
Y205366D01*
Y205173D01*
Y204980D01*
Y204787D01*
Y204594D01*
Y204401D01*
Y204208D01*
X161807D01*
Y204015D01*
Y203822D01*
Y203629D01*
Y203437D01*
Y203244D01*
Y203051D01*
Y202858D01*
Y202665D01*
Y202472D01*
Y202279D01*
Y202086D01*
Y201893D01*
Y201701D01*
Y201508D01*
Y201315D01*
Y201122D01*
Y200929D01*
Y200736D01*
X162000D01*
Y200543D01*
Y200350D01*
Y200157D01*
Y199964D01*
Y199772D01*
Y199579D01*
Y199386D01*
Y199193D01*
Y199000D01*
X162193D01*
Y198807D01*
Y198614D01*
Y198421D01*
Y198228D01*
Y198036D01*
Y197843D01*
X162386D01*
Y197650D01*
Y197457D01*
Y197264D01*
Y197071D01*
Y196878D01*
X162579D01*
Y196685D01*
Y196492D01*
Y196299D01*
Y196107D01*
X162772D01*
Y195914D01*
Y195721D01*
Y195528D01*
X162964D01*
Y195335D01*
Y195142D01*
Y194949D01*
Y194756D01*
X163157D01*
Y194563D01*
Y194370D01*
X163350D01*
Y194177D01*
Y193985D01*
Y193792D01*
X163543D01*
Y193599D01*
Y193406D01*
X163736D01*
Y193213D01*
Y193020D01*
X163929D01*
Y192827D01*
Y192634D01*
X164122D01*
Y192441D01*
Y192249D01*
X164315D01*
Y192056D01*
Y191863D01*
X164508D01*
Y191670D01*
Y191477D01*
X164701D01*
Y191284D01*
X164893D01*
Y191091D01*
Y190898D01*
X165086D01*
Y190705D01*
X165279D01*
Y190513D01*
Y190320D01*
X165472D01*
Y190127D01*
X165665D01*
Y189934D01*
X165858D01*
Y189741D01*
X166051D01*
Y189548D01*
X166244D01*
Y189355D01*
X166437D01*
Y189162D01*
X166630D01*
Y188969D01*
X166822D01*
Y188776D01*
X167015D01*
Y188584D01*
X167208D01*
Y188391D01*
X167401D01*
Y188198D01*
X167787D01*
Y188005D01*
X167980D01*
Y187812D01*
X168366D01*
Y187619D01*
X168751D01*
Y187426D01*
X169137D01*
Y187233D01*
X169909D01*
Y187040D01*
X172995D01*
Y187233D01*
X173574D01*
Y187426D01*
X173960D01*
Y187619D01*
X174346D01*
Y187812D01*
X174731D01*
Y188005D01*
X174924D01*
Y188198D01*
X175310D01*
Y188391D01*
X175503D01*
Y188584D01*
X175696D01*
Y188776D01*
X176082D01*
Y188969D01*
X176274D01*
Y189162D01*
X176467D01*
Y189355D01*
X176660D01*
Y189548D01*
X176853D01*
Y189741D01*
X177046D01*
Y189934D01*
Y190127D01*
X177239D01*
Y190320D01*
X177432D01*
Y190513D01*
X177625D01*
Y190705D01*
Y190898D01*
X177818D01*
Y191091D01*
X178010D01*
Y191284D01*
Y191477D01*
X178203D01*
Y191670D01*
X178396D01*
Y191863D01*
Y192056D01*
X178589D01*
Y192249D01*
Y192441D01*
X178782D01*
Y192634D01*
Y192827D01*
X178975D01*
Y193020D01*
Y193213D01*
X179168D01*
Y193406D01*
Y193599D01*
X179361D01*
Y193792D01*
Y193985D01*
Y194177D01*
X179554D01*
Y194370D01*
Y194563D01*
Y194756D01*
X179747D01*
Y194949D01*
Y195142D01*
X179939D01*
Y195335D01*
Y195528D01*
Y195721D01*
Y195914D01*
X180132D01*
Y196107D01*
Y196299D01*
Y196492D01*
Y196685D01*
X180325D01*
Y196878D01*
Y197071D01*
Y197264D01*
X180518D01*
Y197457D01*
Y197650D01*
Y197843D01*
Y198036D01*
Y198228D01*
Y198421D01*
X180711D01*
Y198614D01*
Y198807D01*
Y199000D01*
Y199193D01*
Y199386D01*
Y199579D01*
Y199772D01*
Y199964D01*
Y200157D01*
X180904D01*
Y200350D01*
Y200543D01*
Y200736D01*
Y200929D01*
Y201122D01*
Y201315D01*
Y201508D01*
Y201701D01*
Y201893D01*
Y202086D01*
Y202279D01*
Y202472D01*
Y202665D01*
Y202858D01*
Y203051D01*
Y203244D01*
Y203437D01*
Y203629D01*
Y203822D01*
Y204015D01*
Y204208D01*
Y204401D01*
Y204594D01*
Y204787D01*
X180711D01*
Y204980D01*
Y205173D01*
Y205366D01*
Y205558D01*
Y205751D01*
Y205944D01*
Y206137D01*
Y206330D01*
X180518D01*
Y206523D01*
Y206716D01*
Y206909D01*
Y207102D01*
Y207295D01*
Y207488D01*
X180325D01*
Y207680D01*
Y207873D01*
Y208066D01*
Y208259D01*
X180132D01*
Y208452D01*
Y208645D01*
Y208838D01*
Y209031D01*
X179939D01*
Y209224D01*
Y209417D01*
Y209609D01*
X179747D01*
Y209802D01*
Y209995D01*
Y210188D01*
X179554D01*
Y210381D01*
Y210574D01*
Y210767D01*
X179361D01*
Y210960D01*
Y211153D01*
X179168D01*
Y211346D01*
Y211538D01*
X178975D01*
Y211731D01*
Y211924D01*
X178782D01*
Y212117D01*
Y212310D01*
Y212503D01*
X178589D01*
Y212696D01*
X178396D01*
Y212889D01*
Y213082D01*
X178203D01*
Y213274D01*
Y213467D01*
X178010D01*
Y213660D01*
X177818D01*
Y213853D01*
Y214046D01*
X177625D01*
Y214239D01*
X177432D01*
Y214432D01*
X177239D01*
Y214625D01*
Y214818D01*
X177046D01*
Y215010D01*
X176853D01*
Y215203D01*
X176660D01*
Y215396D01*
X176467D01*
Y215589D01*
X176274D01*
Y215782D01*
X176082D01*
Y215975D01*
X175889D01*
Y216168D01*
X175696D01*
Y216361D01*
X175503D01*
Y216554D01*
X175117D01*
Y216747D01*
X174924D01*
Y216939D01*
X174538D01*
Y217132D01*
X174153D01*
Y217325D01*
X173767D01*
Y217518D01*
X173188D01*
Y217711D01*
X172416D01*
Y217904D01*
D02*
G37*
G36*
X112811D02*
X110689D01*
Y217711D01*
X109918D01*
Y217518D01*
X109339D01*
Y217325D01*
X108953D01*
Y217132D01*
X108567D01*
Y216939D01*
X108374D01*
Y216747D01*
X107989D01*
Y216554D01*
X107796D01*
Y216361D01*
X107603D01*
Y216168D01*
X107217D01*
Y215975D01*
X107024D01*
Y215782D01*
X106831D01*
Y215589D01*
X106638D01*
Y215396D01*
X106445D01*
Y215203D01*
X106253D01*
Y215010D01*
X106060D01*
Y214818D01*
Y214625D01*
X105867D01*
Y214432D01*
X105674D01*
Y214239D01*
X105481D01*
Y214046D01*
Y213853D01*
X105288D01*
Y213660D01*
X105095D01*
Y213467D01*
Y213274D01*
X104902D01*
Y213082D01*
Y212889D01*
X104709D01*
Y212696D01*
X104516D01*
Y212503D01*
Y212310D01*
X104324D01*
Y212117D01*
Y211924D01*
X104131D01*
Y211731D01*
Y211538D01*
X103938D01*
Y211346D01*
Y211153D01*
Y210960D01*
X103745D01*
Y210767D01*
Y210574D01*
X103552D01*
Y210381D01*
Y210188D01*
Y209995D01*
X103359D01*
Y209802D01*
Y209609D01*
Y209417D01*
X103166D01*
Y209224D01*
Y209031D01*
Y208838D01*
Y208645D01*
X102973D01*
Y208452D01*
Y208259D01*
Y208066D01*
X102780D01*
Y207873D01*
Y207680D01*
Y207488D01*
Y207295D01*
Y207102D01*
X102587D01*
Y206909D01*
Y206716D01*
Y206523D01*
Y206330D01*
Y206137D01*
Y205944D01*
X102395D01*
Y205751D01*
Y205558D01*
Y205366D01*
Y205173D01*
Y204980D01*
Y204787D01*
Y204594D01*
Y204401D01*
Y204208D01*
X102202D01*
Y204015D01*
Y203822D01*
Y203629D01*
Y203437D01*
Y203244D01*
Y203051D01*
Y202858D01*
Y202665D01*
Y202472D01*
Y202279D01*
Y202086D01*
Y201893D01*
Y201701D01*
Y201508D01*
Y201315D01*
Y201122D01*
Y200929D01*
Y200736D01*
Y200543D01*
X102395D01*
Y200350D01*
Y200157D01*
Y199964D01*
Y199772D01*
Y199579D01*
Y199386D01*
Y199193D01*
Y199000D01*
X102587D01*
Y198807D01*
Y198614D01*
Y198421D01*
Y198228D01*
Y198036D01*
Y197843D01*
Y197650D01*
X102780D01*
Y197457D01*
Y197264D01*
Y197071D01*
Y196878D01*
X102973D01*
Y196685D01*
Y196492D01*
Y196299D01*
Y196107D01*
X103166D01*
Y195914D01*
Y195721D01*
Y195528D01*
Y195335D01*
X103359D01*
Y195142D01*
Y194949D01*
Y194756D01*
X103552D01*
Y194563D01*
Y194370D01*
X103745D01*
Y194177D01*
Y193985D01*
Y193792D01*
X103938D01*
Y193599D01*
Y193406D01*
X104131D01*
Y193213D01*
Y193020D01*
X104324D01*
Y192827D01*
Y192634D01*
X104516D01*
Y192441D01*
Y192249D01*
X104709D01*
Y192056D01*
Y191863D01*
X104902D01*
Y191670D01*
Y191477D01*
X105095D01*
Y191284D01*
X105288D01*
Y191091D01*
Y190898D01*
X105481D01*
Y190705D01*
X105674D01*
Y190513D01*
Y190320D01*
X105867D01*
Y190127D01*
X106060D01*
Y189934D01*
X106253D01*
Y189741D01*
X106445D01*
Y189548D01*
X106638D01*
Y189355D01*
X106831D01*
Y189162D01*
X107024D01*
Y188969D01*
X107217D01*
Y188776D01*
X107410D01*
Y188584D01*
X107603D01*
Y188391D01*
X107796D01*
Y188198D01*
X108182D01*
Y188005D01*
X108374D01*
Y187812D01*
X108760D01*
Y187619D01*
X109146D01*
Y187426D01*
X109532D01*
Y187233D01*
X110303D01*
Y187040D01*
X113390D01*
Y187233D01*
X113968D01*
Y187426D01*
X114354D01*
Y187619D01*
X114740D01*
Y187812D01*
X115126D01*
Y188005D01*
X115319D01*
Y188198D01*
X115705D01*
Y188391D01*
X115897D01*
Y188584D01*
X116090D01*
Y188776D01*
X116476D01*
Y188969D01*
X116669D01*
Y189162D01*
X116862D01*
Y189355D01*
X117055D01*
Y189548D01*
X117248D01*
Y189741D01*
Y189934D01*
X117441D01*
Y190127D01*
X117633D01*
Y190320D01*
X117826D01*
Y190513D01*
X118019D01*
Y190705D01*
Y190898D01*
X118212D01*
Y191091D01*
X118405D01*
Y191284D01*
Y191477D01*
X118598D01*
Y191670D01*
X118791D01*
Y191863D01*
Y192056D01*
X118984D01*
Y192249D01*
Y192441D01*
X119177D01*
Y192634D01*
Y192827D01*
X119370D01*
Y193020D01*
Y193213D01*
X119562D01*
Y193406D01*
Y193599D01*
X119755D01*
Y193792D01*
Y193985D01*
Y194177D01*
X119948D01*
Y194370D01*
Y194563D01*
Y194756D01*
X120141D01*
Y194949D01*
Y195142D01*
Y195335D01*
X120334D01*
Y195528D01*
Y195721D01*
Y195914D01*
X120527D01*
Y196107D01*
Y196299D01*
Y196492D01*
Y196685D01*
X120720D01*
Y196878D01*
Y197071D01*
Y197264D01*
Y197457D01*
X120913D01*
Y197650D01*
Y197843D01*
Y198036D01*
Y198228D01*
Y198421D01*
X121106D01*
Y198614D01*
Y198807D01*
Y199000D01*
Y199193D01*
Y199386D01*
Y199579D01*
Y199772D01*
Y199964D01*
Y200157D01*
X121299D01*
Y200350D01*
Y200543D01*
Y200736D01*
Y200929D01*
Y201122D01*
Y201315D01*
Y201508D01*
Y201701D01*
Y201893D01*
Y202086D01*
Y202279D01*
Y202472D01*
Y202665D01*
Y202858D01*
Y203051D01*
Y203244D01*
Y203437D01*
Y203629D01*
Y203822D01*
Y204015D01*
Y204208D01*
Y204401D01*
Y204594D01*
Y204787D01*
X121106D01*
Y204980D01*
Y205173D01*
Y205366D01*
Y205558D01*
Y205751D01*
Y205944D01*
Y206137D01*
Y206330D01*
X120913D01*
Y206523D01*
Y206716D01*
Y206909D01*
Y207102D01*
Y207295D01*
Y207488D01*
X120720D01*
Y207680D01*
Y207873D01*
Y208066D01*
Y208259D01*
X120527D01*
Y208452D01*
Y208645D01*
Y208838D01*
Y209031D01*
X120334D01*
Y209224D01*
Y209417D01*
Y209609D01*
X120141D01*
Y209802D01*
Y209995D01*
Y210188D01*
X119948D01*
Y210381D01*
Y210574D01*
Y210767D01*
X119755D01*
Y210960D01*
Y211153D01*
X119562D01*
Y211346D01*
Y211538D01*
X119370D01*
Y211731D01*
Y211924D01*
X119177D01*
Y212117D01*
Y212310D01*
X118984D01*
Y212503D01*
Y212696D01*
X118791D01*
Y212889D01*
Y213082D01*
X118598D01*
Y213274D01*
Y213467D01*
X118405D01*
Y213660D01*
X118212D01*
Y213853D01*
Y214046D01*
X118019D01*
Y214239D01*
X117826D01*
Y214432D01*
X117633D01*
Y214625D01*
Y214818D01*
X117441D01*
Y215010D01*
X117248D01*
Y215203D01*
X117055D01*
Y215396D01*
X116862D01*
Y215589D01*
X116669D01*
Y215782D01*
X116476D01*
Y215975D01*
X116283D01*
Y216168D01*
X116090D01*
Y216361D01*
X115705D01*
Y216554D01*
X115512D01*
Y216747D01*
X115319D01*
Y216939D01*
X114933D01*
Y217132D01*
X114547D01*
Y217325D01*
X114161D01*
Y217518D01*
X113583D01*
Y217711D01*
X112811D01*
Y217904D01*
D02*
G37*
G36*
X160071Y182025D02*
X159878D01*
Y181832D01*
X159492D01*
Y181639D01*
X159299D01*
Y181446D01*
X158914D01*
Y181253D01*
X158528D01*
Y181061D01*
X158142D01*
Y180868D01*
X157756D01*
Y180675D01*
X157370D01*
Y180482D01*
X156985D01*
Y180289D01*
X156599D01*
Y180096D01*
X156213D01*
Y179903D01*
X155827D01*
Y179710D01*
X155249D01*
Y179517D01*
X154863D01*
Y179324D01*
X154477D01*
Y179131D01*
X153898D01*
Y178939D01*
X153320D01*
Y178746D01*
X152934D01*
Y178553D01*
X152355D01*
Y178360D01*
X151776D01*
Y178167D01*
X151005D01*
Y177974D01*
X150426D01*
Y177781D01*
X149847D01*
Y177588D01*
X148883D01*
Y177395D01*
X148111D01*
Y177202D01*
X147147D01*
Y177010D01*
X145990D01*
Y176817D01*
X144639D01*
Y176624D01*
X142710D01*
Y176431D01*
X140588D01*
Y176624D01*
X138659D01*
Y176817D01*
X137116D01*
Y177010D01*
X135959D01*
Y177202D01*
X134994D01*
Y177395D01*
X134223D01*
Y177588D01*
X133451D01*
Y177781D01*
X132679D01*
Y177974D01*
X132101D01*
Y178167D01*
X131329D01*
Y178360D01*
X130944D01*
Y178553D01*
X130365D01*
Y178746D01*
X129786D01*
Y178939D01*
X129207D01*
Y179131D01*
X128822D01*
Y179324D01*
X128243D01*
Y179517D01*
X127857D01*
Y179710D01*
X127471D01*
Y179903D01*
X126893D01*
Y180096D01*
X126507D01*
Y180289D01*
X126121D01*
Y180482D01*
X125735D01*
Y180675D01*
X125349D01*
Y180868D01*
X124964D01*
Y181061D01*
X124578D01*
Y181253D01*
X124385D01*
Y181446D01*
X123999D01*
Y181639D01*
X123613D01*
Y181832D01*
X123420D01*
Y182025D01*
X123035D01*
Y181832D01*
Y181639D01*
X122842D01*
Y181446D01*
X122649D01*
Y181253D01*
Y181061D01*
X123035D01*
Y180868D01*
X123228D01*
Y180675D01*
Y180482D01*
X123420D01*
Y180289D01*
X123613D01*
Y180096D01*
X123806D01*
Y179903D01*
X123999D01*
Y179710D01*
X124192D01*
Y179517D01*
Y179324D01*
X124385D01*
Y179131D01*
X124578D01*
Y178939D01*
X124771D01*
Y178746D01*
X124964D01*
Y178553D01*
X125156D01*
Y178360D01*
X125349D01*
Y178167D01*
X125542D01*
Y177974D01*
X125735D01*
Y177781D01*
X125928D01*
Y177588D01*
X126121D01*
Y177395D01*
X126314D01*
Y177202D01*
X126507D01*
Y177010D01*
X126700D01*
Y176817D01*
X126893D01*
Y176624D01*
X127085D01*
Y176431D01*
X127471D01*
Y176238D01*
X127664D01*
Y176045D01*
X127857D01*
Y175852D01*
X128050D01*
Y175659D01*
X128243D01*
Y175467D01*
X128629D01*
Y175274D01*
X128822D01*
Y175081D01*
X129015D01*
Y174888D01*
X129400D01*
Y174695D01*
X129593D01*
Y174502D01*
X129786D01*
Y174309D01*
X130172D01*
Y174116D01*
X130365D01*
Y173923D01*
X130751D01*
Y173730D01*
X130944D01*
Y173538D01*
X131329D01*
Y173345D01*
X131522D01*
Y173152D01*
X131908D01*
Y172959D01*
X132294D01*
Y172766D01*
X132679D01*
Y172573D01*
X133065D01*
Y172380D01*
X133451D01*
Y172187D01*
X133837D01*
Y171994D01*
X134223D01*
Y171801D01*
X134608D01*
Y171608D01*
X134994D01*
Y171416D01*
X135573D01*
Y171223D01*
X136152D01*
Y171030D01*
X136730D01*
Y170837D01*
X137502D01*
Y170644D01*
X138274D01*
Y170451D01*
X139238D01*
Y170258D01*
X140781D01*
Y170065D01*
X142324D01*
Y170258D01*
X144061D01*
Y170451D01*
X144832D01*
Y170644D01*
X145797D01*
Y170837D01*
X146375D01*
Y171030D01*
X146954D01*
Y171223D01*
X147533D01*
Y171416D01*
X148111D01*
Y171608D01*
X148497D01*
Y171801D01*
X149076D01*
Y171994D01*
X149462D01*
Y172187D01*
X149847D01*
Y172380D01*
X150233D01*
Y172573D01*
X150619D01*
Y172766D01*
X150812D01*
Y172959D01*
X151198D01*
Y173152D01*
X151584D01*
Y173345D01*
X151969D01*
Y173538D01*
X152162D01*
Y173730D01*
X152548D01*
Y173923D01*
X152741D01*
Y174116D01*
X153127D01*
Y174309D01*
X153320D01*
Y174502D01*
X153513D01*
Y174695D01*
X153898D01*
Y174888D01*
X154091D01*
Y175081D01*
X154284D01*
Y175274D01*
X154670D01*
Y175467D01*
X154863D01*
Y175659D01*
X155056D01*
Y175852D01*
X155249D01*
Y176045D01*
X155634D01*
Y176238D01*
X155827D01*
Y176431D01*
X156020D01*
Y176624D01*
X156213D01*
Y176817D01*
X156406D01*
Y177010D01*
X156599D01*
Y177202D01*
X156792D01*
Y177395D01*
X156985D01*
Y177588D01*
X157177D01*
Y177781D01*
X157370D01*
Y177974D01*
X157563D01*
Y178167D01*
X157756D01*
Y178360D01*
X157949D01*
Y178553D01*
X158142D01*
Y178746D01*
X158335D01*
Y178939D01*
X158528D01*
Y179131D01*
X158721D01*
Y179324D01*
X158914D01*
Y179517D01*
X159107D01*
Y179710D01*
X159299D01*
Y179903D01*
Y180096D01*
X159492D01*
Y180289D01*
X159685D01*
Y180482D01*
X159878D01*
Y180675D01*
X160071D01*
Y180868D01*
X160264D01*
Y181061D01*
X160457D01*
Y181253D01*
Y181446D01*
Y181639D01*
X160264D01*
Y181832D01*
X160071D01*
Y182025D01*
D02*
G37*
%LPD*%
G36*
X170680Y203629D02*
X171645D01*
Y203437D01*
X172031D01*
Y203244D01*
X172416D01*
Y203051D01*
X172802D01*
Y202858D01*
X172995D01*
Y202665D01*
X173188D01*
Y202472D01*
X173381D01*
Y202279D01*
X173574D01*
Y202086D01*
X173767D01*
Y201893D01*
X173960D01*
Y201701D01*
X174153D01*
Y201508D01*
Y201315D01*
X174346D01*
Y201122D01*
Y200929D01*
X174538D01*
Y200736D01*
Y200543D01*
X174731D01*
Y200350D01*
Y200157D01*
Y199964D01*
X174924D01*
Y199772D01*
Y199579D01*
Y199386D01*
Y199193D01*
Y199000D01*
Y198807D01*
Y198614D01*
Y198421D01*
Y198228D01*
Y198036D01*
Y197843D01*
X174731D01*
Y197650D01*
Y197457D01*
Y197264D01*
X174538D01*
Y197071D01*
Y196878D01*
Y196685D01*
X174346D01*
Y196492D01*
Y196299D01*
X174153D01*
Y196107D01*
X173960D01*
Y195914D01*
Y195721D01*
X173767D01*
Y195528D01*
X173574D01*
Y195335D01*
X173381D01*
Y195142D01*
X173188D01*
Y194949D01*
X172802D01*
Y194756D01*
X172609D01*
Y194563D01*
X172224D01*
Y194370D01*
X171838D01*
Y194177D01*
X171066D01*
Y193985D01*
X168944D01*
Y194177D01*
X168366D01*
Y194370D01*
X167787D01*
Y194563D01*
X167401D01*
Y194756D01*
X167208D01*
Y194949D01*
X166822D01*
Y195142D01*
X166630D01*
Y195335D01*
X166437D01*
Y195528D01*
X166244D01*
Y195721D01*
Y195914D01*
X166051D01*
Y196107D01*
X165858D01*
Y196299D01*
Y196492D01*
X165665D01*
Y196685D01*
X165472D01*
Y196878D01*
Y197071D01*
Y197264D01*
X165279D01*
Y197457D01*
Y197650D01*
Y197843D01*
Y198036D01*
X165086D01*
Y198228D01*
Y198421D01*
Y198614D01*
Y198807D01*
Y199000D01*
Y199193D01*
Y199386D01*
Y199579D01*
X165279D01*
Y199772D01*
Y199964D01*
Y200157D01*
Y200350D01*
X165472D01*
Y200543D01*
Y200736D01*
Y200929D01*
X165665D01*
Y201122D01*
Y201315D01*
X165858D01*
Y201508D01*
Y201701D01*
X166051D01*
Y201893D01*
X166244D01*
Y202086D01*
X166437D01*
Y202279D01*
X166630D01*
Y202472D01*
X166822D01*
Y202665D01*
X167015D01*
Y202858D01*
X167208D01*
Y203051D01*
X167594D01*
Y203244D01*
X167980D01*
Y203437D01*
X168559D01*
Y203629D01*
X169330D01*
Y203822D01*
X170680D01*
Y203629D01*
D02*
G37*
G36*
X114161Y203051D02*
X114740D01*
Y202858D01*
X115126D01*
Y202665D01*
X115512D01*
Y202472D01*
X115897D01*
Y202279D01*
X116090D01*
Y202086D01*
X116283D01*
Y201893D01*
X116476D01*
Y201701D01*
X116669D01*
Y201508D01*
X116862D01*
Y201315D01*
Y201122D01*
X117055D01*
Y200929D01*
X117248D01*
Y200736D01*
Y200543D01*
X117441D01*
Y200350D01*
Y200157D01*
X117633D01*
Y199964D01*
Y199772D01*
Y199579D01*
Y199386D01*
X117826D01*
Y199193D01*
Y199000D01*
Y198807D01*
Y198614D01*
Y198421D01*
Y198228D01*
Y198036D01*
Y197843D01*
Y197650D01*
Y197457D01*
X117633D01*
Y197264D01*
Y197071D01*
Y196878D01*
Y196685D01*
X117441D01*
Y196492D01*
Y196299D01*
X117248D01*
Y196107D01*
Y195914D01*
X117055D01*
Y195721D01*
Y195528D01*
X116862D01*
Y195335D01*
X116669D01*
Y195142D01*
X116476D01*
Y194949D01*
X116283D01*
Y194756D01*
X116090D01*
Y194563D01*
X115897D01*
Y194370D01*
X115512D01*
Y194177D01*
X115319D01*
Y193985D01*
X114740D01*
Y193792D01*
X114354D01*
Y193599D01*
X113197D01*
Y193406D01*
X112618D01*
Y193599D01*
X111654D01*
Y193792D01*
X111075D01*
Y193985D01*
X110689D01*
Y194177D01*
X110303D01*
Y194370D01*
X109918D01*
Y194563D01*
X109725D01*
Y194756D01*
X109532D01*
Y194949D01*
X109339D01*
Y195142D01*
X109146D01*
Y195335D01*
X108953D01*
Y195528D01*
Y195721D01*
X108760D01*
Y195914D01*
X108567D01*
Y196107D01*
Y196299D01*
X108374D01*
Y196492D01*
Y196685D01*
Y196878D01*
X108182D01*
Y197071D01*
Y197264D01*
Y197457D01*
Y197650D01*
X107989D01*
Y197843D01*
Y198036D01*
Y198228D01*
Y198421D01*
Y198614D01*
Y198807D01*
Y199000D01*
Y199193D01*
X108182D01*
Y199386D01*
Y199579D01*
Y199772D01*
Y199964D01*
X108374D01*
Y200157D01*
Y200350D01*
Y200543D01*
X108567D01*
Y200736D01*
Y200929D01*
X108760D01*
Y201122D01*
X108953D01*
Y201315D01*
Y201508D01*
X109146D01*
Y201701D01*
X109339D01*
Y201893D01*
X109532D01*
Y202086D01*
X109725D01*
Y202279D01*
X110110D01*
Y202472D01*
X110303D01*
Y202665D01*
X110689D01*
Y202858D01*
X111075D01*
Y203051D01*
X111654D01*
Y203244D01*
X114161D01*
Y203051D01*
D02*
G37*
D10*
X88217Y156465D02*
G03*
X88217Y156465I-1181J0D01*
G01*
D11*
X79457Y161681D02*
G03*
X79457Y161681I-492J0D01*
G01*
D12*
X154874Y92925D02*
G03*
X159874Y87925I5000J0D01*
G01*
Y117925D02*
G03*
X154874Y112925I0J-5000D01*
G01*
Y92925D02*
Y97925D01*
X159874Y87925D02*
X163374D01*
X154874Y109425D02*
Y112925D01*
X159874Y117925D02*
X163374D01*
X0Y223425D02*
X205374D01*
D13*
X167563Y153850D02*
G03*
X168744Y152669I1181J0D01*
G01*
X174650D02*
G03*
X175437Y153457I0J787D01*
G01*
Y160543D02*
G03*
X174650Y161331I-787J0D01*
G01*
X168350D02*
G03*
X167563Y160543I0J-787D01*
G01*
X168744Y152669D02*
X174650D01*
X175437Y153457D02*
Y160543D01*
X168350Y161331D02*
X174650D01*
X167563Y153850D02*
Y160543D01*
D14*
X83295Y135795D02*
X107705D01*
X83295Y160205D02*
X107705D01*
Y135795D02*
Y160205D01*
X83295Y135795D02*
Y160205D01*
X77905Y195744D02*
Y201256D01*
X66094Y195744D02*
Y201256D01*
Y195744D02*
X77905D01*
X66094Y201256D02*
X77905D01*
X91744Y172382D02*
Y182618D01*
X97256Y172382D02*
Y182618D01*
X91744D02*
X97256D01*
X91744Y172382D02*
X97256D01*
X60882Y150165D02*
X71118D01*
X60882Y155677D02*
X71118D01*
X60882Y150165D02*
Y155677D01*
X71118Y150165D02*
Y155677D01*
X113256Y111626D02*
Y121862D01*
X107744Y111626D02*
Y121862D01*
Y111626D02*
X113256D01*
X107744Y121862D02*
X113256D01*
X94756Y111626D02*
Y121862D01*
X89244Y111626D02*
Y121862D01*
Y111626D02*
X94756D01*
X89244Y121862D02*
X94756D01*
X104006Y111626D02*
Y121862D01*
X98494Y111626D02*
Y121862D01*
Y111626D02*
X104006D01*
X98494Y121862D02*
X104006D01*
X149256Y137173D02*
Y147409D01*
X143744Y137173D02*
Y147409D01*
Y137173D02*
X149256D01*
X143744Y147409D02*
X149256D01*
X156756Y137173D02*
Y147409D01*
X151244Y137173D02*
Y147409D01*
Y137173D02*
X156756D01*
X151244Y147409D02*
X156756D01*
X124882Y139756D02*
X135118D01*
X124882Y134244D02*
X135118D01*
Y139756D01*
X124882Y134244D02*
Y139756D01*
X124094Y142291D02*
X135906D01*
X124094Y147803D02*
X135906D01*
Y142291D02*
Y147803D01*
X124094Y142291D02*
Y147803D01*
D15*
X190000Y23425D02*
Y223425D01*
Y23425D02*
X205374D01*
X190000Y223425D02*
X205374D01*
X190000Y213425D02*
X205748D01*
X2874Y551D02*
X202874D01*
Y15925D01*
X2874D02*
X202874D01*
X2874Y551D02*
Y15925D01*
X12874Y551D02*
Y15925D01*
X0Y23425D02*
Y223425D01*
Y23425D02*
X15374D01*
Y223425D01*
X0D02*
X15374D01*
X0Y213425D02*
X15374D01*
X205374Y23425D02*
Y223425D01*
X70282Y248597D02*
X66569D01*
Y242598D01*
X70282D01*
X66569Y245740D02*
X68854D01*
X71282Y248597D02*
Y242598D01*
Y248597D02*
X74996D01*
X71282Y245740D02*
X73567D01*
X75681Y248597D02*
Y242598D01*
Y248597D02*
X77966Y242598D01*
X80252Y248597D02*
X77966Y242598D01*
X80252Y248597D02*
Y242598D01*
X82537Y248597D02*
X85679D01*
X83965Y246311D01*
X84822D01*
X85394Y246026D01*
X85679Y245740D01*
X85965Y244883D01*
Y244312D01*
X85679Y243455D01*
X85108Y242884D01*
X84251Y242598D01*
X83394D01*
X82537Y242884D01*
X82251Y243169D01*
X81966Y243741D01*
X87593Y247168D02*
Y247454D01*
X87879Y248025D01*
X88164Y248311D01*
X88736Y248597D01*
X89878D01*
X90450Y248311D01*
X90735Y248025D01*
X91021Y247454D01*
Y246883D01*
X90735Y246311D01*
X90164Y245455D01*
X87307Y242598D01*
X91307D01*
X94649Y248597D02*
Y242598D01*
X92649Y248597D02*
X96648D01*
X101647Y247168D02*
X101362Y247740D01*
X100790Y248311D01*
X100219Y248597D01*
X99076D01*
X98505Y248311D01*
X97934Y247740D01*
X97648Y247168D01*
X97362Y246311D01*
Y244883D01*
X97648Y244026D01*
X97934Y243455D01*
X98505Y242884D01*
X99076Y242598D01*
X100219D01*
X100790Y242884D01*
X101362Y243455D01*
X101647Y244026D01*
Y244883D01*
X100219D02*
X101647D01*
X103018Y247454D02*
X103590Y247740D01*
X104447Y248597D01*
Y242598D01*
X107417Y247454D02*
X107989Y247740D01*
X108846Y248597D01*
Y242598D01*
X118529Y248597D02*
Y242598D01*
X116530Y248597D02*
X120529D01*
X124671Y246597D02*
Y242598D01*
Y245740D02*
X124100Y246311D01*
X123528Y246597D01*
X122671D01*
X122100Y246311D01*
X121529Y245740D01*
X121243Y244883D01*
Y244312D01*
X121529Y243455D01*
X122100Y242884D01*
X122671Y242598D01*
X123528D01*
X124100Y242884D01*
X124671Y243455D01*
X126270Y246597D02*
Y242598D01*
Y244883D02*
X126556Y245740D01*
X127127Y246311D01*
X127699Y246597D01*
X128556D01*
X132526D02*
Y242027D01*
X132241Y241170D01*
X131955Y240884D01*
X131384Y240599D01*
X130527D01*
X129955Y240884D01*
X132526Y245740D02*
X131955Y246311D01*
X131384Y246597D01*
X130527D01*
X129955Y246311D01*
X129384Y245740D01*
X129098Y244883D01*
Y244312D01*
X129384Y243455D01*
X129955Y242884D01*
X130527Y242598D01*
X131384D01*
X131955Y242884D01*
X132526Y243455D01*
X134126Y244883D02*
X137554D01*
Y245455D01*
X137268Y246026D01*
X136982Y246311D01*
X136411Y246597D01*
X135554D01*
X134983Y246311D01*
X134412Y245740D01*
X134126Y244883D01*
Y244312D01*
X134412Y243455D01*
X134983Y242884D01*
X135554Y242598D01*
X136411D01*
X136982Y242884D01*
X137554Y243455D01*
X139696Y248597D02*
Y243741D01*
X139982Y242884D01*
X140553Y242598D01*
X141124D01*
X138839Y246597D02*
X140839D01*
X55000Y236999D02*
Y231000D01*
Y236999D02*
X58714D01*
X55000Y234142D02*
X57285D01*
X60827Y234999D02*
X60256Y234714D01*
X59685Y234142D01*
X59399Y233285D01*
Y232714D01*
X59685Y231857D01*
X60256Y231286D01*
X60827Y231000D01*
X61684D01*
X62256Y231286D01*
X62827Y231857D01*
X63112Y232714D01*
Y233285D01*
X62827Y234142D01*
X62256Y234714D01*
X61684Y234999D01*
X60827D01*
X64426D02*
Y231000D01*
Y233285D02*
X64712Y234142D01*
X65284Y234714D01*
X65855Y234999D01*
X66712D01*
X76253Y235570D02*
X75967Y236142D01*
X75396Y236713D01*
X74824Y236999D01*
X73682D01*
X73110Y236713D01*
X72539Y236142D01*
X72253Y235570D01*
X71968Y234714D01*
Y233285D01*
X72253Y232428D01*
X72539Y231857D01*
X73110Y231286D01*
X73682Y231000D01*
X74824D01*
X75396Y231286D01*
X75967Y231857D01*
X76253Y232428D01*
X77938Y236999D02*
X79366Y231000D01*
X80795Y236999D02*
X79366Y231000D01*
X80795Y236999D02*
X82223Y231000D01*
X83651Y236999D02*
X82223Y231000D01*
X85422Y236999D02*
X88564D01*
X86850Y234714D01*
X87707D01*
X88279Y234428D01*
X88564Y234142D01*
X88850Y233285D01*
Y232714D01*
X88564Y231857D01*
X87993Y231286D01*
X87136Y231000D01*
X86279D01*
X85422Y231286D01*
X85136Y231571D01*
X84851Y232143D01*
X91906Y236999D02*
X91049Y236713D01*
X90478Y235856D01*
X90193Y234428D01*
Y233571D01*
X90478Y232143D01*
X91049Y231286D01*
X91906Y231000D01*
X92478D01*
X93335Y231286D01*
X93906Y232143D01*
X94192Y233571D01*
Y234428D01*
X93906Y235856D01*
X93335Y236713D01*
X92478Y236999D01*
X91906D01*
X96962D02*
X96105Y236713D01*
X95820Y236142D01*
Y235570D01*
X96105Y234999D01*
X96677Y234714D01*
X97819Y234428D01*
X98676Y234142D01*
X99248Y233571D01*
X99533Y233000D01*
Y232143D01*
X99248Y231571D01*
X98962Y231286D01*
X98105Y231000D01*
X96962D01*
X96105Y231286D01*
X95820Y231571D01*
X95534Y232143D01*
Y233000D01*
X95820Y233571D01*
X96391Y234142D01*
X97248Y234428D01*
X98391Y234714D01*
X98962Y234999D01*
X99248Y235570D01*
Y236142D01*
X98962Y236713D01*
X98105Y236999D01*
X96962D01*
X102875D02*
Y231000D01*
X100876Y236999D02*
X104875D01*
X110302D02*
Y232714D01*
X110588Y231857D01*
X111159Y231286D01*
X112016Y231000D01*
X112588D01*
X113445Y231286D01*
X114016Y231857D01*
X114302Y232714D01*
Y236999D01*
X115958D02*
Y231000D01*
Y236999D02*
X119672D01*
X115958Y234142D02*
X118244D01*
X122071Y236999D02*
X121500Y236713D01*
X120929Y236142D01*
X120643Y235570D01*
X120357Y234714D01*
Y233285D01*
X120643Y232428D01*
X120929Y231857D01*
X121500Y231286D01*
X122071Y231000D01*
X123214D01*
X123785Y231286D01*
X124357Y231857D01*
X124642Y232428D01*
X124928Y233285D01*
Y234714D01*
X124642Y235570D01*
X124357Y236142D01*
X123785Y236713D01*
X123214Y236999D01*
X122071D01*
X131041D02*
Y231000D01*
Y236999D02*
X133612D01*
X134469Y236713D01*
X134754Y236427D01*
X135040Y235856D01*
Y235285D01*
X134754Y234714D01*
X134469Y234428D01*
X133612Y234142D01*
X131041D02*
X133612D01*
X134469Y233857D01*
X134754Y233571D01*
X135040Y233000D01*
Y232143D01*
X134754Y231571D01*
X134469Y231286D01*
X133612Y231000D01*
X131041D01*
X137811Y234999D02*
X137240Y234714D01*
X136668Y234142D01*
X136383Y233285D01*
Y232714D01*
X136668Y231857D01*
X137240Y231286D01*
X137811Y231000D01*
X138668D01*
X139239Y231286D01*
X139810Y231857D01*
X140096Y232714D01*
Y233285D01*
X139810Y234142D01*
X139239Y234714D01*
X138668Y234999D01*
X137811D01*
X144838D02*
Y231000D01*
Y234142D02*
X144267Y234714D01*
X143695Y234999D01*
X142838D01*
X142267Y234714D01*
X141696Y234142D01*
X141410Y233285D01*
Y232714D01*
X141696Y231857D01*
X142267Y231286D01*
X142838Y231000D01*
X143695D01*
X144267Y231286D01*
X144838Y231857D01*
X146438Y234999D02*
Y231000D01*
Y233285D02*
X146723Y234142D01*
X147294Y234714D01*
X147866Y234999D01*
X148723D01*
X152693Y236999D02*
Y231000D01*
Y234142D02*
X152122Y234714D01*
X151551Y234999D01*
X150694D01*
X150122Y234714D01*
X149551Y234142D01*
X149266Y233285D01*
Y232714D01*
X149551Y231857D01*
X150122Y231286D01*
X150694Y231000D01*
X151551D01*
X152122Y231286D01*
X152693Y231857D01*
X22785Y200071D02*
X22499Y200642D01*
X21928Y201213D01*
X21357Y201499D01*
X20214D01*
X19643Y201213D01*
X19071Y200642D01*
X18786Y200071D01*
X18500Y199214D01*
Y197785D01*
X18786Y196928D01*
X19071Y196357D01*
X19643Y195786D01*
X20214Y195500D01*
X21357D01*
X21928Y195786D01*
X22499Y196357D01*
X22785Y196928D01*
X24470Y201499D02*
Y195500D01*
X27898D01*
X28555Y201499D02*
Y195500D01*
X32554Y201499D02*
X28555Y197500D01*
X29983Y198928D02*
X32554Y195500D01*
X33897Y201499D02*
Y195500D01*
X35154Y201499D02*
Y195500D01*
Y201499D02*
X39153Y195500D01*
Y201499D02*
Y195500D01*
X30499Y25142D02*
X29928Y25713D01*
X29071Y25999D01*
X27928D01*
X27071Y25713D01*
X26500Y25142D01*
Y24570D01*
X26786Y23999D01*
X27071Y23713D01*
X27643Y23428D01*
X29357Y22857D01*
X29928Y22571D01*
X30213Y22285D01*
X30499Y21714D01*
Y20857D01*
X29928Y20286D01*
X29071Y20000D01*
X27928D01*
X27071Y20286D01*
X26500Y20857D01*
X31842Y25999D02*
X33270Y20000D01*
X34698Y25999D02*
X33270Y20000D01*
X34698Y25999D02*
X36127Y20000D01*
X37555Y25999D02*
X36127Y20000D01*
X38754Y25999D02*
Y20000D01*
Y25999D02*
X40754D01*
X41611Y25713D01*
X42182Y25142D01*
X42468Y24570D01*
X42754Y23713D01*
Y22285D01*
X42468Y21428D01*
X42182Y20857D01*
X41611Y20286D01*
X40754Y20000D01*
X38754D01*
X48809Y19143D02*
X52809Y25999D01*
X60778D02*
Y21428D01*
X60493Y20571D01*
X60207Y20286D01*
X59636Y20000D01*
X59064D01*
X58493Y20286D01*
X58207Y20571D01*
X57922Y21428D01*
Y22000D01*
X64320Y25999D02*
Y20000D01*
X62321Y25999D02*
X66320D01*
X71605Y20000D02*
X69319Y25999D01*
X67034Y20000D01*
X67891Y22000D02*
X70748D01*
X77289Y24570D02*
X77004Y25142D01*
X76432Y25713D01*
X75861Y25999D01*
X74718D01*
X74147Y25713D01*
X73576Y25142D01*
X73290Y24570D01*
X73004Y23713D01*
Y22285D01*
X73290Y21428D01*
X73576Y20857D01*
X74147Y20286D01*
X74718Y20000D01*
X75861D01*
X76432Y20286D01*
X77004Y20857D01*
X77289Y21428D01*
Y22285D01*
X75861D02*
X77289D01*
X18500Y61499D02*
Y55500D01*
Y61499D02*
X21071D01*
X21928Y61213D01*
X22214Y60927D01*
X22499Y60356D01*
Y59785D01*
X22214Y59214D01*
X21928Y58928D01*
X21071Y58642D01*
X18500D02*
X21071D01*
X21928Y58356D01*
X22214Y58071D01*
X22499Y57500D01*
Y56643D01*
X22214Y56071D01*
X21928Y55786D01*
X21071Y55500D01*
X18500D01*
X25556Y61499D02*
X24984Y61213D01*
X24413Y60642D01*
X24127Y60071D01*
X23842Y59214D01*
Y57785D01*
X24127Y56928D01*
X24413Y56357D01*
X24984Y55786D01*
X25556Y55500D01*
X26698D01*
X27270Y55786D01*
X27841Y56357D01*
X28126Y56928D01*
X28412Y57785D01*
Y59214D01*
X28126Y60071D01*
X27841Y60642D01*
X27270Y61213D01*
X26698Y61499D01*
X25556D01*
X31526D02*
X30955Y61213D01*
X30383Y60642D01*
X30097Y60071D01*
X29812Y59214D01*
Y57785D01*
X30097Y56928D01*
X30383Y56357D01*
X30955Y55786D01*
X31526Y55500D01*
X32668D01*
X33240Y55786D01*
X33811Y56357D01*
X34097Y56928D01*
X34382Y57785D01*
Y59214D01*
X34097Y60071D01*
X33811Y60642D01*
X33240Y61213D01*
X32668Y61499D01*
X31526D01*
X37782D02*
Y55500D01*
X35782Y61499D02*
X39781D01*
X40495Y58071D02*
X45637D01*
X47408Y58356D02*
X49979D01*
X50836Y58642D01*
X51122Y58928D01*
X51407Y59499D01*
Y60356D01*
X51122Y60927D01*
X50836Y61213D01*
X49979Y61499D01*
X47408D01*
Y55500D01*
X52750Y61499D02*
Y55500D01*
Y61499D02*
X56463D01*
X52750Y58642D02*
X55035D01*
X58863Y61499D02*
X58006Y61213D01*
X57434Y60356D01*
X57149Y58928D01*
Y58071D01*
X57434Y56643D01*
X58006Y55786D01*
X58863Y55500D01*
X59434D01*
X60291Y55786D01*
X60862Y56643D01*
X61148Y58071D01*
Y58928D01*
X60862Y60356D01*
X60291Y61213D01*
X59434Y61499D01*
X58863D01*
X18500Y121999D02*
Y116000D01*
Y121999D02*
X21071D01*
X21928Y121713D01*
X22214Y121427D01*
X22499Y120856D01*
Y120285D01*
X22214Y119713D01*
X21928Y119428D01*
X21071Y119142D01*
X18500D01*
X20500D02*
X22499Y116000D01*
X27841Y121142D02*
X27270Y121713D01*
X26413Y121999D01*
X25270D01*
X24413Y121713D01*
X23842Y121142D01*
Y120571D01*
X24127Y119999D01*
X24413Y119713D01*
X24984Y119428D01*
X26698Y118857D01*
X27270Y118571D01*
X27555Y118285D01*
X27841Y117714D01*
Y116857D01*
X27270Y116286D01*
X26413Y116000D01*
X25270D01*
X24413Y116286D01*
X23842Y116857D01*
X31183Y121999D02*
Y116000D01*
X29183Y121999D02*
X33183D01*
X18500Y128857D02*
X21071D01*
X21928Y129142D01*
X22214Y129428D01*
X22499Y129999D01*
Y130856D01*
X22214Y131427D01*
X21928Y131713D01*
X21071Y131999D01*
X18500D01*
Y126000D01*
X23842Y131999D02*
Y126000D01*
Y131999D02*
X26413D01*
X27270Y131713D01*
X27555Y131427D01*
X27841Y130856D01*
Y130285D01*
X27555Y129713D01*
X27270Y129428D01*
X26413Y129142D01*
X23842D02*
X26413D01*
X27270Y128857D01*
X27555Y128571D01*
X27841Y128000D01*
Y127143D01*
X27555Y126571D01*
X27270Y126286D01*
X26413Y126000D01*
X23842D01*
X32611Y131142D02*
X32326Y131713D01*
X31469Y131999D01*
X30897D01*
X30040Y131713D01*
X29469Y130856D01*
X29183Y129428D01*
Y128000D01*
X29469Y126857D01*
X30040Y126286D01*
X30897Y126000D01*
X31183D01*
X32040Y126286D01*
X32611Y126857D01*
X32897Y127714D01*
Y128000D01*
X32611Y128857D01*
X32040Y129428D01*
X31183Y129713D01*
X30897D01*
X30040Y129428D01*
X29469Y128857D01*
X29183Y128000D01*
X18500Y138356D02*
X21071D01*
X21928Y138642D01*
X22214Y138928D01*
X22499Y139499D01*
Y140356D01*
X22214Y140927D01*
X21928Y141213D01*
X21071Y141499D01*
X18500D01*
Y135500D01*
X23842Y141499D02*
Y135500D01*
Y141499D02*
X26413D01*
X27270Y141213D01*
X27555Y140927D01*
X27841Y140356D01*
Y139785D01*
X27555Y139214D01*
X27270Y138928D01*
X26413Y138642D01*
X23842D02*
X26413D01*
X27270Y138356D01*
X27555Y138071D01*
X27841Y137500D01*
Y136643D01*
X27555Y136071D01*
X27270Y135786D01*
X26413Y135500D01*
X23842D01*
X32611Y141499D02*
X29755D01*
X29469Y138928D01*
X29755Y139214D01*
X30612Y139499D01*
X31469D01*
X32326Y139214D01*
X32897Y138642D01*
X33183Y137785D01*
Y137214D01*
X32897Y136357D01*
X32326Y135786D01*
X31469Y135500D01*
X30612D01*
X29755Y135786D01*
X29469Y136071D01*
X29183Y136643D01*
X18500Y151999D02*
Y146000D01*
Y151999D02*
X21071D01*
X21928Y151713D01*
X22214Y151427D01*
X22499Y150856D01*
Y150285D01*
X22214Y149714D01*
X21928Y149428D01*
X21071Y149142D01*
X18500D01*
X20500D02*
X22499Y146000D01*
X23842Y151999D02*
X27841Y146000D01*
Y151999D02*
X23842Y146000D01*
X29183Y148571D02*
X34325D01*
X36096Y148856D02*
X38667D01*
X39524Y149142D01*
X39810Y149428D01*
X40095Y149999D01*
Y150856D01*
X39810Y151427D01*
X39524Y151713D01*
X38667Y151999D01*
X36096D01*
Y146000D01*
X45151Y151999D02*
X41438D01*
Y146000D01*
X45151D01*
X41438Y149142D02*
X43723D01*
X46151Y150856D02*
X46722Y151142D01*
X47580Y151999D01*
Y146000D01*
X50550Y150856D02*
X51122Y151142D01*
X51978Y151999D01*
Y146000D01*
X20000Y161499D02*
Y155500D01*
X18000Y161499D02*
X21999D01*
X22713D02*
X26712Y155500D01*
Y161499D02*
X22713Y155500D01*
X28055Y158071D02*
X33197D01*
X34968Y158356D02*
X37539D01*
X38396Y158642D01*
X38681Y158928D01*
X38967Y159499D01*
Y160356D01*
X38681Y160927D01*
X38396Y161213D01*
X37539Y161499D01*
X34968D01*
Y155500D01*
X44023Y161499D02*
X40310D01*
Y155500D01*
X44023D01*
X40310Y158642D02*
X42595D01*
X45023Y160356D02*
X45594Y160642D01*
X46451Y161499D01*
Y155500D01*
X51136Y161499D02*
X50279Y161213D01*
X49707Y160356D01*
X49422Y158928D01*
Y158071D01*
X49707Y156643D01*
X50279Y155786D01*
X51136Y155500D01*
X51707D01*
X52564Y155786D01*
X53135Y156643D01*
X53421Y158071D01*
Y158928D01*
X53135Y160356D01*
X52564Y161213D01*
X51707Y161499D01*
X51136D01*
X172500Y47857D02*
X175071D01*
X175928Y48142D01*
X176214Y48428D01*
X176499Y48999D01*
Y49856D01*
X176214Y50427D01*
X175928Y50713D01*
X175071Y50999D01*
X172500D01*
Y45000D01*
X177842Y50999D02*
Y45000D01*
Y50999D02*
X179841D01*
X180698Y50713D01*
X181270Y50142D01*
X181555Y49570D01*
X181841Y48713D01*
Y47285D01*
X181555Y46428D01*
X181270Y45857D01*
X180698Y45286D01*
X179841Y45000D01*
X177842D01*
X187183Y50999D02*
X184326Y45000D01*
X183183Y50999D02*
X187183D01*
X172500Y37857D02*
X175071D01*
X175928Y38142D01*
X176214Y38428D01*
X176499Y38999D01*
Y39856D01*
X176214Y40427D01*
X175928Y40713D01*
X175071Y40999D01*
X172500D01*
Y35000D01*
X177842Y40999D02*
Y35000D01*
Y40999D02*
X179841D01*
X180698Y40713D01*
X181270Y40142D01*
X181555Y39570D01*
X181841Y38713D01*
Y37285D01*
X181555Y36428D01*
X181270Y35857D01*
X180698Y35286D01*
X179841Y35000D01*
X177842D01*
X186611Y40142D02*
X186326Y40713D01*
X185469Y40999D01*
X184897D01*
X184040Y40713D01*
X183469Y39856D01*
X183183Y38428D01*
Y37000D01*
X183469Y35857D01*
X184040Y35286D01*
X184897Y35000D01*
X185183D01*
X186040Y35286D01*
X186611Y35857D01*
X186897Y36714D01*
Y37000D01*
X186611Y37857D01*
X186040Y38428D01*
X185183Y38713D01*
X184897D01*
X184040Y38428D01*
X183469Y37857D01*
X183183Y37000D01*
X172500Y27856D02*
X175071D01*
X175928Y28142D01*
X176214Y28428D01*
X176499Y28999D01*
Y29856D01*
X176214Y30427D01*
X175928Y30713D01*
X175071Y30999D01*
X172500D01*
Y25000D01*
X177842Y30999D02*
Y25000D01*
Y30999D02*
X179841D01*
X180698Y30713D01*
X181270Y30142D01*
X181555Y29570D01*
X181841Y28714D01*
Y27285D01*
X181555Y26428D01*
X181270Y25857D01*
X180698Y25286D01*
X179841Y25000D01*
X177842D01*
X186611Y30999D02*
X183755D01*
X183469Y28428D01*
X183755Y28714D01*
X184612Y28999D01*
X185469D01*
X186326Y28714D01*
X186897Y28142D01*
X187183Y27285D01*
Y26714D01*
X186897Y25857D01*
X186326Y25286D01*
X185469Y25000D01*
X184612D01*
X183755Y25286D01*
X183469Y25571D01*
X183183Y26143D01*
X67000Y203500D02*
Y209498D01*
X69999D01*
X70999Y208498D01*
Y206499D01*
X69999Y205499D01*
X67000D01*
X68999D02*
X70999Y203500D01*
X76997D02*
X72998D01*
X76997Y207499D01*
Y208498D01*
X75997Y209498D01*
X73998D01*
X72998Y208498D01*
X73500Y174498D02*
Y169500D01*
X74500Y168500D01*
X76499D01*
X77499Y169500D01*
Y174498D01*
X79498Y168500D02*
X81497D01*
X80498D01*
Y174498D01*
X79498Y173498D01*
X144002Y153499D02*
X143002Y152499D01*
Y150500D01*
X144002Y149500D01*
X148000D01*
X149000Y150500D01*
Y152499D01*
X148000Y153499D01*
X149000Y155498D02*
Y157497D01*
Y156498D01*
X143002D01*
X144002Y155498D01*
X152502Y153499D02*
X151502Y152499D01*
Y150500D01*
X152502Y149500D01*
X156500D01*
X157500Y150500D01*
Y152499D01*
X156500Y153499D01*
X157500Y159497D02*
Y155498D01*
X153501Y159497D01*
X152502D01*
X151502Y158497D01*
Y156498D01*
X152502Y155498D01*
X92502Y188499D02*
X91502Y187499D01*
Y185500D01*
X92502Y184500D01*
X96500D01*
X97500Y185500D01*
Y187499D01*
X96500Y188499D01*
X92502Y190498D02*
X91502Y191498D01*
Y193497D01*
X92502Y194497D01*
X93501D01*
X94501Y193497D01*
Y192497D01*
Y193497D01*
X95501Y194497D01*
X96500D01*
X97500Y193497D01*
Y191498D01*
X96500Y190498D01*
X65499Y162498D02*
X64499Y163498D01*
X62500D01*
X61500Y162498D01*
Y158500D01*
X62500Y157500D01*
X64499D01*
X65499Y158500D01*
X70497Y157500D02*
Y163498D01*
X67498Y160499D01*
X71497D01*
X128999Y130998D02*
X127999Y131998D01*
X126000D01*
X125000Y130998D01*
Y127000D01*
X126000Y126000D01*
X127999D01*
X128999Y127000D01*
X134997Y131998D02*
X130998D01*
Y128999D01*
X132997Y129999D01*
X133997D01*
X134997Y128999D01*
Y127000D01*
X133997Y126000D01*
X131998D01*
X130998Y127000D01*
X89502Y103499D02*
X88502Y102499D01*
Y100500D01*
X89502Y99500D01*
X93500D01*
X94500Y100500D01*
Y102499D01*
X93500Y103499D01*
X88502Y109497D02*
X89502Y107497D01*
X91501Y105498D01*
X93500D01*
X94500Y106498D01*
Y108497D01*
X93500Y109497D01*
X92501D01*
X91501Y108497D01*
Y105498D01*
X99502Y103499D02*
X98502Y102499D01*
Y100500D01*
X99502Y99500D01*
X103500D01*
X104500Y100500D01*
Y102499D01*
X103500Y103499D01*
X98502Y105498D02*
Y109497D01*
X99502D01*
X103500Y105498D01*
X104500D01*
X109002Y103499D02*
X108002Y102499D01*
Y100500D01*
X109002Y99500D01*
X113000D01*
X114000Y100500D01*
Y102499D01*
X113000Y103499D01*
X109002Y105498D02*
X108002Y106498D01*
Y108497D01*
X109002Y109497D01*
X110001D01*
X111001Y108497D01*
X112001Y109497D01*
X113000D01*
X114000Y108497D01*
Y106498D01*
X113000Y105498D01*
X112001D01*
X111001Y106498D01*
X110001Y105498D01*
X109002D01*
X111001Y106498D02*
Y108497D01*
X125500Y149500D02*
Y155498D01*
X128499D01*
X129499Y154498D01*
Y152499D01*
X128499Y151499D01*
X125500D01*
X127499D02*
X129499Y149500D01*
X131498D02*
X133497D01*
X132498D01*
Y155498D01*
X131498Y154498D01*
X167999Y167998D02*
X166999Y168998D01*
X165000D01*
X164000Y167998D01*
Y166999D01*
X165000Y165999D01*
X166999D01*
X167999Y164999D01*
Y164000D01*
X166999Y163000D01*
X165000D01*
X164000Y164000D01*
X173997Y168998D02*
X171997D01*
X172997D01*
Y164000D01*
X171997Y163000D01*
X170998D01*
X169998Y164000D01*
X175996Y163000D02*
X177996D01*
X176996D01*
Y168998D01*
X175996Y167998D01*
D16*
X127087Y106924D02*
X123374D01*
Y100925D01*
X127087D01*
X123374Y104067D02*
X125659D01*
X128087Y104924D02*
Y100925D01*
Y103782D02*
X128944Y104639D01*
X129516Y104924D01*
X130373D01*
X130944Y104639D01*
X131229Y103782D01*
Y100925D01*
X136228Y104924D02*
Y100925D01*
Y104067D02*
X135657Y104639D01*
X135086Y104924D01*
X134229D01*
X133658Y104639D01*
X133086Y104067D01*
X132801Y103210D01*
Y102639D01*
X133086Y101782D01*
X133658Y101211D01*
X134229Y100925D01*
X135086D01*
X135657Y101211D01*
X136228Y101782D01*
X137828Y106924D02*
Y100925D01*
Y104067D02*
X138399Y104639D01*
X138971Y104924D01*
X139828D01*
X140399Y104639D01*
X140970Y104067D01*
X141256Y103210D01*
Y102639D01*
X140970Y101782D01*
X140399Y101211D01*
X139828Y100925D01*
X138971D01*
X138399Y101211D01*
X137828Y101782D01*
X142541Y106924D02*
Y100925D01*
X143798Y103210D02*
X147226D01*
Y103782D01*
X146940Y104353D01*
X146655Y104639D01*
X146083Y104924D01*
X145227D01*
X144655Y104639D01*
X144084Y104067D01*
X143798Y103210D01*
Y102639D01*
X144084Y101782D01*
X144655Y101211D01*
X145227Y100925D01*
X146083D01*
X146655Y101211D01*
X147226Y101782D01*
X157224Y106067D02*
X156653Y106638D01*
X155796Y106924D01*
X154653D01*
X153796Y106638D01*
X153225Y106067D01*
Y105496D01*
X153510Y104924D01*
X153796Y104639D01*
X154367Y104353D01*
X156081Y103782D01*
X156653Y103496D01*
X156938Y103210D01*
X157224Y102639D01*
Y101782D01*
X156653Y101211D01*
X155796Y100925D01*
X154653D01*
X153796Y101211D01*
X153225Y101782D01*
X158566Y104924D02*
Y102068D01*
X158852Y101211D01*
X159423Y100925D01*
X160280D01*
X160852Y101211D01*
X161709Y102068D01*
Y104924D02*
Y100925D01*
X163280Y104924D02*
Y98926D01*
Y104067D02*
X163851Y104639D01*
X164422Y104924D01*
X165279D01*
X165851Y104639D01*
X166422Y104067D01*
X166708Y103210D01*
Y102639D01*
X166422Y101782D01*
X165851Y101211D01*
X165279Y100925D01*
X164422D01*
X163851Y101211D01*
X163280Y101782D01*
X167993Y104924D02*
Y98926D01*
Y104067D02*
X168564Y104639D01*
X169136Y104924D01*
X169993D01*
X170564Y104639D01*
X171135Y104067D01*
X171421Y103210D01*
Y102639D01*
X171135Y101782D01*
X170564Y101211D01*
X169993Y100925D01*
X169136D01*
X168564Y101211D01*
X167993Y101782D01*
X172706Y106924D02*
Y100925D01*
X174534Y106924D02*
X174820Y106638D01*
X175106Y106924D01*
X174820Y107210D01*
X174534Y106924D01*
X174820Y104924D02*
Y100925D01*
X176163Y103210D02*
X179591D01*
Y103782D01*
X179305Y104353D01*
X179019Y104639D01*
X178448Y104924D01*
X177591D01*
X177020Y104639D01*
X176448Y104067D01*
X176163Y103210D01*
Y102639D01*
X176448Y101782D01*
X177020Y101211D01*
X177591Y100925D01*
X178448D01*
X179019Y101211D01*
X179591Y101782D01*
X184018Y104067D02*
X183732Y104639D01*
X182876Y104924D01*
X182019D01*
X181162Y104639D01*
X180876Y104067D01*
X181162Y103496D01*
X181733Y103210D01*
X183161Y102925D01*
X183732Y102639D01*
X184018Y102068D01*
Y101782D01*
X183732Y101211D01*
X182876Y100925D01*
X182019D01*
X181162Y101211D01*
X180876Y101782D01*
X169945Y120567D02*
Y115425D01*
X167374Y117996D02*
X172516D01*
X174287Y120281D02*
X174858Y120567D01*
X175715Y121424D01*
Y115425D01*
X178686Y119424D02*
X180400Y115425D01*
X182114Y119424D02*
X180400Y115425D01*
X183371Y119996D02*
Y120281D01*
X183656Y120853D01*
X183942Y121138D01*
X184513Y121424D01*
X185656D01*
X186227Y121138D01*
X186513Y120853D01*
X186798Y120281D01*
Y119710D01*
X186513Y119139D01*
X185942Y118282D01*
X183085Y115425D01*
X187084D01*
X168945Y90567D02*
Y85425D01*
X166374Y87996D02*
X171516D01*
X173858Y91424D02*
X177000D01*
X175286Y89139D01*
X176143D01*
X176715Y88853D01*
X177000Y88567D01*
X177286Y87710D01*
Y87139D01*
X177000Y86282D01*
X176429Y85711D01*
X175572Y85425D01*
X174715D01*
X173858Y85711D01*
X173573Y85997D01*
X173287Y86568D01*
X178629Y89424D02*
X180342Y85425D01*
X182056Y89424D02*
X180342Y85425D01*
X183599Y91424D02*
X186741D01*
X185027Y89139D01*
X185884D01*
X186455Y88853D01*
X186741Y88567D01*
X187027Y87710D01*
Y87139D01*
X186741Y86282D01*
X186170Y85711D01*
X185313Y85425D01*
X184456D01*
X183599Y85711D01*
X183313Y85997D01*
X183028Y86568D01*
M02*
