G04*
G04 #@! TF.GenerationSoftware,Altium Limited,Altium Designer,18.1.9 (240)*
G04*
G04 Layer_Color=16711935*
%FSLAX25Y25*%
%MOIN*%
G70*
G01*
G75*
G04:AMPARAMS|DCode=51|XSize=47.37mil|YSize=43.43mil|CornerRadius=8.43mil|HoleSize=0mil|Usage=FLASHONLY|Rotation=270.000|XOffset=0mil|YOffset=0mil|HoleType=Round|Shape=RoundedRectangle|*
%AMROUNDEDRECTD51*
21,1,0.04737,0.02657,0,0,270.0*
21,1,0.03051,0.04343,0,0,270.0*
1,1,0.01686,-0.01329,-0.01526*
1,1,0.01686,-0.01329,0.01526*
1,1,0.01686,0.01329,0.01526*
1,1,0.01686,0.01329,-0.01526*
%
%ADD51ROUNDEDRECTD51*%
%ADD57C,0.00800*%
%ADD58C,0.25800*%
%ADD59R,0.11800X0.06800*%
%ADD60O,0.11800X0.06800*%
%ADD61R,0.06800X0.11800*%
%ADD62O,0.06800X0.11800*%
%ADD63O,0.09461X0.03162*%
D51*
X128284Y142437D02*
D03*
X121591D02*
D03*
X128784Y171937D02*
D03*
X122091D02*
D03*
X334283Y142437D02*
D03*
X327591D02*
D03*
X334784Y171937D02*
D03*
X328091D02*
D03*
X128284Y396437D02*
D03*
X121591D02*
D03*
X128784Y425937D02*
D03*
X122091D02*
D03*
X334283Y396437D02*
D03*
X327591D02*
D03*
X334784Y425937D02*
D03*
X328091D02*
D03*
D57*
X438811Y535311D02*
D03*
Y11063D02*
D03*
X11063D02*
D03*
X11063Y535311D02*
D03*
D58*
X116937Y56937D02*
D03*
X46937Y256937D02*
D03*
X196937D02*
D03*
X322937Y56937D02*
D03*
X252937Y256937D02*
D03*
X402937D02*
D03*
X116937Y310937D02*
D03*
X46937Y510937D02*
D03*
X196937D02*
D03*
X322937Y310937D02*
D03*
X252937Y510937D02*
D03*
X402937D02*
D03*
D59*
X26937Y236937D02*
D03*
X216937D02*
D03*
X232937D02*
D03*
X422937D02*
D03*
X26937Y490937D02*
D03*
X216937D02*
D03*
X232937D02*
D03*
X422937D02*
D03*
D60*
X26937Y226937D02*
D03*
Y216937D02*
D03*
Y206937D02*
D03*
Y196937D02*
D03*
Y186937D02*
D03*
Y176937D02*
D03*
Y166937D02*
D03*
Y156937D02*
D03*
Y146937D02*
D03*
Y136937D02*
D03*
Y126937D02*
D03*
Y116937D02*
D03*
Y106937D02*
D03*
Y96937D02*
D03*
Y86937D02*
D03*
Y76937D02*
D03*
Y66937D02*
D03*
Y56937D02*
D03*
Y46937D02*
D03*
X216937Y226937D02*
D03*
Y216937D02*
D03*
Y206937D02*
D03*
Y196937D02*
D03*
Y186937D02*
D03*
Y176937D02*
D03*
Y166937D02*
D03*
Y156937D02*
D03*
Y146937D02*
D03*
Y136937D02*
D03*
Y126937D02*
D03*
Y116937D02*
D03*
Y106937D02*
D03*
Y96937D02*
D03*
Y86937D02*
D03*
Y76937D02*
D03*
Y66937D02*
D03*
Y56937D02*
D03*
Y46937D02*
D03*
X232937Y226937D02*
D03*
Y216937D02*
D03*
Y206937D02*
D03*
Y196937D02*
D03*
Y186937D02*
D03*
Y176937D02*
D03*
Y166937D02*
D03*
Y156937D02*
D03*
Y146937D02*
D03*
Y136937D02*
D03*
Y126937D02*
D03*
Y116937D02*
D03*
Y106937D02*
D03*
Y96937D02*
D03*
Y86937D02*
D03*
Y76937D02*
D03*
Y66937D02*
D03*
Y56937D02*
D03*
Y46937D02*
D03*
X422937Y226937D02*
D03*
Y216937D02*
D03*
Y206937D02*
D03*
Y196937D02*
D03*
Y186937D02*
D03*
Y176937D02*
D03*
Y166937D02*
D03*
Y156937D02*
D03*
Y146937D02*
D03*
Y136937D02*
D03*
Y126937D02*
D03*
Y116937D02*
D03*
Y106937D02*
D03*
Y96937D02*
D03*
Y86937D02*
D03*
Y76937D02*
D03*
Y66937D02*
D03*
Y56937D02*
D03*
Y46937D02*
D03*
X26937Y480937D02*
D03*
Y470937D02*
D03*
Y460937D02*
D03*
Y450937D02*
D03*
Y440937D02*
D03*
Y430937D02*
D03*
Y420937D02*
D03*
Y410937D02*
D03*
Y400937D02*
D03*
Y390937D02*
D03*
Y380937D02*
D03*
Y370937D02*
D03*
Y360937D02*
D03*
Y350937D02*
D03*
Y340937D02*
D03*
Y330937D02*
D03*
Y320937D02*
D03*
Y310937D02*
D03*
Y300937D02*
D03*
X216937Y480937D02*
D03*
Y470937D02*
D03*
Y460937D02*
D03*
Y450937D02*
D03*
Y440937D02*
D03*
Y430937D02*
D03*
Y420937D02*
D03*
Y410937D02*
D03*
Y400937D02*
D03*
Y390937D02*
D03*
Y380937D02*
D03*
Y370937D02*
D03*
Y360937D02*
D03*
Y350937D02*
D03*
Y340937D02*
D03*
Y330937D02*
D03*
Y320937D02*
D03*
Y310937D02*
D03*
Y300937D02*
D03*
X232937Y480937D02*
D03*
Y470937D02*
D03*
Y460937D02*
D03*
Y450937D02*
D03*
Y440937D02*
D03*
Y430937D02*
D03*
Y420937D02*
D03*
Y410937D02*
D03*
Y400937D02*
D03*
Y390937D02*
D03*
Y380937D02*
D03*
Y370937D02*
D03*
Y360937D02*
D03*
Y350937D02*
D03*
Y340937D02*
D03*
Y330937D02*
D03*
Y320937D02*
D03*
Y310937D02*
D03*
Y300937D02*
D03*
X422937Y480937D02*
D03*
Y470937D02*
D03*
Y460937D02*
D03*
Y450937D02*
D03*
Y440937D02*
D03*
Y430937D02*
D03*
Y420937D02*
D03*
Y410937D02*
D03*
Y400937D02*
D03*
Y390937D02*
D03*
Y380937D02*
D03*
Y370937D02*
D03*
Y360937D02*
D03*
Y350937D02*
D03*
Y340937D02*
D03*
Y330937D02*
D03*
Y320937D02*
D03*
Y310937D02*
D03*
Y300937D02*
D03*
D61*
X26937Y26937D02*
D03*
X232937D02*
D03*
X26937Y280937D02*
D03*
X232937D02*
D03*
D62*
X36937Y26937D02*
D03*
X46937D02*
D03*
X56937D02*
D03*
X66937D02*
D03*
X76937D02*
D03*
X86937D02*
D03*
X96937D02*
D03*
X106937D02*
D03*
X116937D02*
D03*
X126937D02*
D03*
X136937D02*
D03*
X146937D02*
D03*
X156937D02*
D03*
X166937D02*
D03*
X176937D02*
D03*
X186937D02*
D03*
X196937D02*
D03*
X206937D02*
D03*
X216937D02*
D03*
X242937D02*
D03*
X252937D02*
D03*
X262937D02*
D03*
X272937D02*
D03*
X282937D02*
D03*
X292937D02*
D03*
X302937D02*
D03*
X312937D02*
D03*
X322937D02*
D03*
X332937D02*
D03*
X342937D02*
D03*
X352937D02*
D03*
X362937D02*
D03*
X372937D02*
D03*
X382937D02*
D03*
X392937D02*
D03*
X402937D02*
D03*
X412937D02*
D03*
X422937D02*
D03*
X36937Y280937D02*
D03*
X46937D02*
D03*
X56937D02*
D03*
X66937D02*
D03*
X76937D02*
D03*
X86937D02*
D03*
X96937D02*
D03*
X106937D02*
D03*
X116937D02*
D03*
X126937D02*
D03*
X136937D02*
D03*
X146937D02*
D03*
X156937D02*
D03*
X166937D02*
D03*
X176937D02*
D03*
X186937D02*
D03*
X196937D02*
D03*
X206937D02*
D03*
X216937D02*
D03*
X242937D02*
D03*
X252937D02*
D03*
X262937D02*
D03*
X272937D02*
D03*
X282937D02*
D03*
X292937D02*
D03*
X302937D02*
D03*
X312937D02*
D03*
X322937D02*
D03*
X332937D02*
D03*
X342937D02*
D03*
X352937D02*
D03*
X362937D02*
D03*
X372937D02*
D03*
X382937D02*
D03*
X392937D02*
D03*
X402937D02*
D03*
X412937D02*
D03*
X422937D02*
D03*
D63*
X133886Y164437D02*
D03*
Y159437D02*
D03*
Y154437D02*
D03*
Y149437D02*
D03*
X114988Y164437D02*
D03*
Y159437D02*
D03*
Y154437D02*
D03*
Y149437D02*
D03*
X339886Y164437D02*
D03*
Y159437D02*
D03*
Y154437D02*
D03*
Y149437D02*
D03*
X320988Y164437D02*
D03*
Y159437D02*
D03*
Y154437D02*
D03*
Y149437D02*
D03*
X133886Y418437D02*
D03*
Y413437D02*
D03*
Y408437D02*
D03*
Y403437D02*
D03*
X114988Y418437D02*
D03*
Y413437D02*
D03*
Y408437D02*
D03*
Y403437D02*
D03*
X339886Y418437D02*
D03*
Y413437D02*
D03*
Y408437D02*
D03*
Y403437D02*
D03*
X320988Y418437D02*
D03*
Y413437D02*
D03*
Y408437D02*
D03*
Y403437D02*
D03*
M02*
