G04*
G04 #@! TF.GenerationSoftware,Altium Limited,Altium Designer,23.0.1 (38)*
G04*
G04 Layer_Color=16711935*
%FSLAX45Y45*%
%MOMM*%
G71*
G04*
G04 #@! TF.SameCoordinates,E124BC29-41F8-45E3-8FB8-A4B905A5A323*
G04*
G04*
G04 #@! TF.FilePolarity,Positive*
G04*
G01*
G75*
%ADD14C,0.10000*%
%ADD61C,0.10084*%
D14*
X12823199Y10461840D02*
G03*
X12767502Y10406141I0J-55698D01*
G01*
X13713200Y10421840D02*
G03*
X13673199Y10461840I-40000J0D01*
G01*
X7903200D02*
G03*
X7845700Y10404340I0J-57500D01*
G01*
X8837500Y10377539D02*
G03*
X8753200Y10461839I-84300J0D01*
G01*
X11397499Y9217740D02*
Y9912739D01*
X11207502Y9217740D02*
Y9912739D01*
X9137498Y9962742D02*
X11157499D01*
X12467499D02*
X12517502Y9912739D01*
X11397499D02*
X11447501Y9962742D01*
X11157499D02*
X11207502Y9912739D01*
X9087501D02*
X9137498Y9962742D01*
X9087501Y9388090D02*
Y9912739D01*
X12517502Y9391491D02*
Y9912739D01*
X11447501Y9962742D02*
X12467499D01*
X9087501Y9216141D02*
Y9388090D01*
X8837501Y9215328D02*
Y9388090D01*
X12517502Y9207538D02*
Y9391491D01*
X12767502Y9196142D02*
Y10406141D01*
X12823199Y10461840D02*
X13673199D01*
X7845700Y10298540D02*
Y10404340D01*
X8837501Y9388090D02*
Y10377539D01*
X7903200Y10461840D02*
X8753200D01*
D61*
X7845700Y5219700D02*
G03*
X7972700Y5092700I127000J0D01*
G01*
X13586200D02*
G03*
X13713200Y5219700I0J127000D01*
G01*
X8837501Y9215328D02*
G03*
X8911369Y9141460I73868J0D01*
G01*
X9012820D02*
G03*
X9087501Y9216141I0J74681D01*
G01*
X11207502Y9217740D02*
G03*
X11293941Y9131300I86440J0D01*
G01*
X11311059D02*
G03*
X11397499Y9217740I0J86440D01*
G01*
X12517502Y9207538D02*
G03*
X12606440Y9118600I88938J0D01*
G01*
X12689960D02*
G03*
X12767502Y9196142I0J77542D01*
G01*
X7845700Y5219700D02*
Y10298540D01*
X7972700Y5092700D02*
X13586200D01*
X13713200Y5219700D02*
Y10421840D01*
X11293941Y9131300D02*
X11311059D01*
X12606440Y9118600D02*
X12689960D01*
X8911369Y9141460D02*
X9012820D01*
M02*
