G04 Layer_Color=128*
%FSLAX25Y25*%
%MOIN*%
G70*
G01*
G75*
%ADD19R,0.02520X0.02520*%
%ADD21R,0.05000X0.02500*%
%ADD30C,0.01000*%
%ADD61R,0.06299X0.06299*%
%ADD62R,0.08661X0.09606*%
D19*
X365531Y223847D02*
D03*
Y220224D02*
D03*
X349532Y215846D02*
D03*
Y212224D02*
D03*
X397031Y200346D02*
D03*
Y196724D02*
D03*
X385032Y200346D02*
D03*
Y196724D02*
D03*
X405031Y238224D02*
D03*
Y241846D02*
D03*
X346457Y252126D02*
D03*
Y255748D02*
D03*
X417323Y222598D02*
D03*
Y226220D02*
D03*
X377953Y198661D02*
D03*
Y195039D02*
D03*
X379921Y252126D02*
D03*
Y255748D02*
D03*
X417323Y252126D02*
D03*
Y255748D02*
D03*
Y195039D02*
D03*
Y198661D02*
D03*
X342520Y198661D02*
D03*
Y195039D02*
D03*
D21*
X385032Y209280D02*
D03*
Y212523D02*
D03*
X349532Y224780D02*
D03*
Y228023D02*
D03*
X397031Y209280D02*
D03*
Y212523D02*
D03*
X365531Y232535D02*
D03*
Y235779D02*
D03*
X405031Y229279D02*
D03*
Y226035D02*
D03*
X408032Y209535D02*
D03*
Y212779D02*
D03*
D30*
X278000Y98000D02*
X484000D01*
Y416000D01*
X278000D02*
X484000D01*
X278000Y98000D02*
Y416000D01*
D61*
X385032Y211295D02*
D03*
X349532Y226795D02*
D03*
X397031Y211295D02*
D03*
X365531Y234551D02*
D03*
X405032Y227263D02*
D03*
D62*
X408032Y211157D02*
D03*
M02*
