G04*
G04 #@! TF.GenerationSoftware,Altium Limited,Altium Designer,18.1.9 (240)*
G04*
G04 Layer_Color=8388736*
%FSLAX25Y25*%
%MOIN*%
G70*
G01*
G75*
%ADD15C,0.01000*%
%ADD23R,0.03753X0.04540*%
G04:AMPARAMS|DCode=24|XSize=47.37mil|YSize=43.43mil|CornerRadius=8.43mil|HoleSize=0mil|Usage=FLASHONLY|Rotation=270.000|XOffset=0mil|YOffset=0mil|HoleType=Round|Shape=RoundedRectangle|*
%AMROUNDEDRECTD24*
21,1,0.04737,0.02657,0,0,270.0*
21,1,0.03051,0.04343,0,0,270.0*
1,1,0.01686,-0.01329,-0.01526*
1,1,0.01686,-0.01329,0.01526*
1,1,0.01686,0.01329,0.01526*
1,1,0.01686,0.01329,-0.01526*
%
%ADD24ROUNDEDRECTD24*%
%ADD25O,0.01981X0.06312*%
%ADD26O,0.06312X0.01981*%
G04:AMPARAMS|DCode=27|XSize=47.37mil|YSize=43.43mil|CornerRadius=8.43mil|HoleSize=0mil|Usage=FLASHONLY|Rotation=0.000|XOffset=0mil|YOffset=0mil|HoleType=Round|Shape=RoundedRectangle|*
%AMROUNDEDRECTD27*
21,1,0.04737,0.02657,0,0,0.0*
21,1,0.03051,0.04343,0,0,0.0*
1,1,0.01686,0.01526,-0.01329*
1,1,0.01686,-0.01526,-0.01329*
1,1,0.01686,-0.01526,0.01329*
1,1,0.01686,0.01526,0.01329*
%
%ADD27ROUNDEDRECTD27*%
%ADD28R,0.04540X0.03753*%
%ADD29R,0.03792X0.08871*%
%ADD30C,0.25800*%
%ADD31O,0.11800X0.06800*%
%ADD32R,0.11800X0.06800*%
%ADD33O,0.06800X0.11800*%
%ADD34R,0.06800X0.11800*%
D15*
X320000Y146500D02*
X525500D01*
Y400500D01*
X320000D02*
X525500D01*
X320000Y146500D02*
Y400500D01*
D23*
X351256Y174500D02*
D03*
X345744D02*
D03*
X470500Y274000D02*
D03*
X464988D02*
D03*
X470756Y310248D02*
D03*
X465244D02*
D03*
X470653Y290500D02*
D03*
X465142D02*
D03*
D24*
X396847Y203500D02*
D03*
X390154D02*
D03*
X468653Y333500D02*
D03*
X475347D02*
D03*
X465154Y302500D02*
D03*
X471846D02*
D03*
X370847Y347000D02*
D03*
X364154D02*
D03*
D25*
X442870Y258500D02*
D03*
X440902D02*
D03*
X438933D02*
D03*
X436965D02*
D03*
X434996D02*
D03*
X433028D02*
D03*
X431059D02*
D03*
X429090D02*
D03*
X427122D02*
D03*
X425153D02*
D03*
X423185D02*
D03*
X421216D02*
D03*
X419248D02*
D03*
X417279D02*
D03*
X415311D02*
D03*
X413343D02*
D03*
X411374D02*
D03*
X409406D02*
D03*
X407437D02*
D03*
X405469D02*
D03*
X403500D02*
D03*
X401532D02*
D03*
X399563D02*
D03*
X397594D02*
D03*
X395626D02*
D03*
Y319130D02*
D03*
X397594D02*
D03*
X399563D02*
D03*
X401532D02*
D03*
X403500D02*
D03*
X405469D02*
D03*
X407437D02*
D03*
X409406D02*
D03*
X411374D02*
D03*
X413343D02*
D03*
X415311D02*
D03*
X417279D02*
D03*
X419248D02*
D03*
X421216D02*
D03*
X423185D02*
D03*
X425153D02*
D03*
X427122D02*
D03*
X429090D02*
D03*
X431059D02*
D03*
X433028D02*
D03*
X434996D02*
D03*
X436965D02*
D03*
X438933D02*
D03*
X440902D02*
D03*
X442870D02*
D03*
D26*
X388933Y265193D02*
D03*
Y267161D02*
D03*
Y269130D02*
D03*
Y271098D02*
D03*
Y273067D02*
D03*
Y275035D02*
D03*
Y277004D02*
D03*
Y278972D02*
D03*
Y280941D02*
D03*
Y282909D02*
D03*
Y284878D02*
D03*
Y286846D02*
D03*
Y288815D02*
D03*
Y290784D02*
D03*
Y292752D02*
D03*
Y294721D02*
D03*
Y296689D02*
D03*
Y298657D02*
D03*
Y300626D02*
D03*
Y302594D02*
D03*
Y304563D02*
D03*
Y306532D02*
D03*
Y308500D02*
D03*
Y310469D02*
D03*
Y312437D02*
D03*
X449563D02*
D03*
Y310469D02*
D03*
Y308500D02*
D03*
Y306532D02*
D03*
Y304563D02*
D03*
Y302594D02*
D03*
Y300626D02*
D03*
Y298657D02*
D03*
Y296689D02*
D03*
Y294721D02*
D03*
Y292752D02*
D03*
Y290784D02*
D03*
Y288815D02*
D03*
Y286846D02*
D03*
Y284878D02*
D03*
Y282909D02*
D03*
Y280941D02*
D03*
Y278972D02*
D03*
Y277004D02*
D03*
Y275035D02*
D03*
Y273067D02*
D03*
Y271098D02*
D03*
Y269130D02*
D03*
Y267161D02*
D03*
Y265193D02*
D03*
D27*
X415311Y338815D02*
D03*
Y332122D02*
D03*
D28*
X446000Y332744D02*
D03*
Y338256D02*
D03*
X503000Y333744D02*
D03*
Y339256D02*
D03*
X495000Y333744D02*
D03*
Y339256D02*
D03*
X487000Y333744D02*
D03*
Y339256D02*
D03*
X440902Y247256D02*
D03*
Y241744D02*
D03*
D29*
X400311Y369024D02*
D03*
X405311D02*
D03*
X410311D02*
D03*
X415311D02*
D03*
X420311D02*
D03*
X400311Y383000D02*
D03*
X405311D02*
D03*
X410311D02*
D03*
X415311D02*
D03*
X420311D02*
D03*
X445311D02*
D03*
Y369024D02*
D03*
X440311Y383000D02*
D03*
Y369024D02*
D03*
X435311Y383000D02*
D03*
Y369024D02*
D03*
X430311Y383000D02*
D03*
Y369024D02*
D03*
X425311Y383000D02*
D03*
Y369024D02*
D03*
D30*
X497500Y385000D02*
D03*
X347500D02*
D03*
X417500Y185000D02*
D03*
D31*
X517500Y175000D02*
D03*
Y185000D02*
D03*
Y195000D02*
D03*
Y205000D02*
D03*
Y215000D02*
D03*
Y225000D02*
D03*
Y235000D02*
D03*
Y245000D02*
D03*
Y255000D02*
D03*
Y265000D02*
D03*
Y275000D02*
D03*
Y285000D02*
D03*
Y295000D02*
D03*
Y305000D02*
D03*
Y315000D02*
D03*
Y325000D02*
D03*
Y335000D02*
D03*
Y345000D02*
D03*
Y355000D02*
D03*
X327500Y175000D02*
D03*
Y185000D02*
D03*
Y195000D02*
D03*
Y205000D02*
D03*
Y215000D02*
D03*
Y225000D02*
D03*
Y235000D02*
D03*
Y245000D02*
D03*
Y255000D02*
D03*
Y265000D02*
D03*
Y275000D02*
D03*
Y285000D02*
D03*
Y295000D02*
D03*
Y305000D02*
D03*
Y315000D02*
D03*
Y325000D02*
D03*
Y335000D02*
D03*
Y345000D02*
D03*
Y355000D02*
D03*
D32*
X517500Y365000D02*
D03*
X327500D02*
D03*
D33*
X517500Y155000D02*
D03*
X507500D02*
D03*
X497500D02*
D03*
X487500D02*
D03*
X477500D02*
D03*
X467500D02*
D03*
X457500D02*
D03*
X447500D02*
D03*
X437500D02*
D03*
X427500D02*
D03*
X417500D02*
D03*
X407500D02*
D03*
X397500D02*
D03*
X387500D02*
D03*
X377500D02*
D03*
X367500D02*
D03*
X357500D02*
D03*
X347500D02*
D03*
X337500D02*
D03*
D34*
X327500D02*
D03*
M02*
