G04*
G04 #@! TF.GenerationSoftware,Altium Limited,Altium Designer,18.1.9 (240)*
G04*
G04 Layer_Color=32896*
%FSLAX25Y25*%
%MOIN*%
G70*
G01*
G75*
%ADD15C,0.01000*%
%ADD44C,0.00700*%
G36*
X452900Y192010D02*
X448989Y187938D01*
X448874Y186827D01*
X448619Y184166D01*
X448434Y182245D01*
X452622Y177918D01*
X452345Y177640D01*
X448388Y181690D01*
X448156Y179214D01*
X448041D01*
Y178265D01*
X447161D01*
Y179214D01*
X444431D01*
X444338Y179029D01*
X444199Y178844D01*
X444014Y178635D01*
X443760Y178450D01*
X443459Y178358D01*
X443181Y178335D01*
X442904D01*
X442695Y178404D01*
X442441Y178497D01*
X442233Y178635D01*
X442070Y178797D01*
X441909Y179029D01*
X441793Y179283D01*
X441723Y179515D01*
X441700Y179723D01*
X441723Y179954D01*
X441770Y180140D01*
X441839Y180325D01*
X441932Y180510D01*
X442047Y180672D01*
X442209Y180834D01*
X442394Y180949D01*
X442556Y181019D01*
X442533Y181227D01*
X439062Y177640D01*
X438785Y177941D01*
X442487Y181782D01*
X442186Y185138D01*
X441978Y187567D01*
X440867D01*
Y189118D01*
X441168D01*
X438345Y192010D01*
X438646Y192288D01*
X441284Y189558D01*
Y189766D01*
X441237Y189812D01*
X441168Y189858D01*
X441099Y189928D01*
X441029Y189997D01*
X440983Y190113D01*
X440960Y190205D01*
X440937Y190321D01*
X440960Y190460D01*
X441006Y190552D01*
X441099Y190715D01*
X441214Y190807D01*
X441376Y190876D01*
X441538Y190900D01*
X441700Y190876D01*
X441839Y190830D01*
X441955Y190761D01*
X442001Y190691D01*
X442117Y190784D01*
X442279Y190900D01*
X442487Y190992D01*
X442788Y191108D01*
X443112Y191200D01*
X443436Y191270D01*
X443783Y191339D01*
X444061Y191362D01*
Y191709D01*
X446282D01*
Y191409D01*
X446467D01*
X446745Y191385D01*
X447046Y191339D01*
X447346Y191293D01*
Y191478D01*
X448295D01*
Y191038D01*
X448411Y190969D01*
X448573Y190900D01*
X448735Y190807D01*
X448874Y190715D01*
X449013Y190599D01*
X449105Y190506D01*
X449151Y190437D01*
X449198Y190344D01*
X449174Y190182D01*
X449730D01*
Y189465D01*
X449128D01*
X449036Y188562D01*
X452622Y192288D01*
X452900Y192010D01*
D02*
G37*
G36*
X452067Y174447D02*
Y174401D01*
Y174308D01*
Y174216D01*
Y174123D01*
Y174030D01*
Y173984D01*
Y173961D01*
Y173591D01*
Y173244D01*
Y173082D01*
Y172966D01*
Y172897D01*
Y172873D01*
Y172457D01*
Y172272D01*
Y172110D01*
Y171971D01*
Y171879D01*
Y171809D01*
Y171786D01*
Y171624D01*
Y171508D01*
Y171416D01*
Y171369D01*
Y171300D01*
X439409D01*
Y171323D01*
Y171369D01*
Y171555D01*
Y171716D01*
Y171763D01*
Y171786D01*
Y172156D01*
Y172503D01*
Y172665D01*
Y172781D01*
Y172850D01*
Y172873D01*
Y173290D01*
Y173475D01*
Y173637D01*
Y173776D01*
Y173869D01*
Y173938D01*
Y173961D01*
Y174123D01*
Y174262D01*
Y174355D01*
Y174401D01*
Y174447D01*
Y174470D01*
X452067D01*
Y174447D01*
D02*
G37*
G36*
X467968Y193861D02*
X468685Y193769D01*
X469356Y193630D01*
X470004Y193445D01*
X470606Y193237D01*
X471161Y192982D01*
X471694Y192728D01*
X472156Y192473D01*
X472596Y192195D01*
X472966Y191941D01*
X473290Y191709D01*
X473568Y191478D01*
X473799Y191293D01*
X473938Y191154D01*
X474054Y191062D01*
X474077Y191038D01*
X474563Y190483D01*
X475002Y189928D01*
X475396Y189349D01*
X475697Y188771D01*
X475974Y188192D01*
X476206Y187614D01*
X476391Y187082D01*
X476553Y186549D01*
X476669Y186063D01*
X476761Y185600D01*
X476807Y185207D01*
X476854Y184860D01*
X476877Y184582D01*
X476900Y184374D01*
Y184235D01*
Y184212D01*
Y184189D01*
X476877Y183449D01*
X476784Y182754D01*
X476646Y182060D01*
X476460Y181435D01*
X476252Y180834D01*
X475997Y180255D01*
X475743Y179746D01*
X475489Y179260D01*
X475234Y178844D01*
X474979Y178450D01*
X474725Y178126D01*
X474517Y177849D01*
X474332Y177640D01*
X474193Y177478D01*
X474100Y177363D01*
X474077Y177339D01*
X473545Y176854D01*
X472966Y176414D01*
X472388Y176021D01*
X471809Y175720D01*
X471231Y175442D01*
X470675Y175211D01*
X470120Y175025D01*
X469588Y174864D01*
X469102Y174748D01*
X468639Y174655D01*
X468246Y174609D01*
X467899Y174563D01*
X467621Y174540D01*
X467413Y174516D01*
X467228D01*
X466487Y174540D01*
X465793Y174632D01*
X465122Y174771D01*
X464474Y174956D01*
X463872Y175164D01*
X463317Y175419D01*
X462785Y175673D01*
X462322Y175928D01*
X461882Y176182D01*
X461512Y176437D01*
X461188Y176692D01*
X460910Y176900D01*
X460679Y177085D01*
X460540Y177224D01*
X460424Y177316D01*
X460401Y177339D01*
X459892Y177895D01*
X459452Y178450D01*
X459082Y179029D01*
X458758Y179607D01*
X458481Y180186D01*
X458249Y180764D01*
X458064Y181320D01*
X457902Y181829D01*
X457786Y182315D01*
X457694Y182777D01*
X457648Y183171D01*
X457601Y183518D01*
X457578Y183796D01*
X457555Y184004D01*
Y184143D01*
Y184189D01*
X457578Y184930D01*
X457671Y185624D01*
X457809Y186318D01*
X457995Y186943D01*
X458203Y187544D01*
X458457Y188123D01*
X458712Y188632D01*
X458966Y189118D01*
X459244Y189558D01*
X459499Y189928D01*
X459730Y190252D01*
X459962Y190529D01*
X460147Y190761D01*
X460286Y190900D01*
X460378Y191015D01*
X460401Y191038D01*
X460933Y191548D01*
X461512Y191987D01*
X462067Y192357D01*
X462669Y192681D01*
X463224Y192959D01*
X463803Y193190D01*
X464358Y193376D01*
X464867Y193537D01*
X465353Y193653D01*
X465816Y193746D01*
X466209Y193792D01*
X466556Y193838D01*
X466834Y193861D01*
X467042Y193885D01*
X467228D01*
X467968Y193861D01*
D02*
G37*
G36*
X497930Y191166D02*
X498416Y191120D01*
X498855Y191004D01*
X499295Y190888D01*
X499688Y190749D01*
X500082Y190587D01*
X500429Y190425D01*
X500730Y190240D01*
X501031Y190055D01*
X501285Y189893D01*
X501493Y189731D01*
X501679Y189592D01*
X501840Y189477D01*
X501933Y189384D01*
X502002Y189315D01*
X502026Y189292D01*
X502350Y188921D01*
X502650Y188551D01*
X502905Y188181D01*
X503113Y187787D01*
X503298Y187394D01*
X503437Y187024D01*
X503576Y186653D01*
X503669Y186306D01*
X503738Y185983D01*
X503807Y185682D01*
X503831Y185404D01*
X503877Y185173D01*
Y184987D01*
X503900Y184849D01*
Y184756D01*
Y184733D01*
X503877Y184247D01*
X503807Y183784D01*
X503715Y183321D01*
X503599Y182905D01*
X503460Y182488D01*
X503298Y182118D01*
X503136Y181771D01*
X502951Y181447D01*
X502789Y181169D01*
X502627Y180915D01*
X502465Y180707D01*
X502326Y180521D01*
X502188Y180359D01*
X502095Y180267D01*
X502049Y180198D01*
X502026Y180174D01*
X501655Y179850D01*
X501285Y179550D01*
X500892Y179295D01*
X500498Y179087D01*
X500128Y178902D01*
X499735Y178763D01*
X499365Y178624D01*
X499017Y178531D01*
X498694Y178462D01*
X498393Y178393D01*
X498115Y178369D01*
X497884Y178323D01*
X497698D01*
X497560Y178300D01*
X497213D01*
X497004Y178323D01*
X496796D01*
Y180267D01*
X497027Y180244D01*
X497236Y180221D01*
X497444D01*
X497791Y180244D01*
X498115Y180267D01*
X498439Y180336D01*
X498740Y180429D01*
X499272Y180637D01*
X499735Y180892D01*
X499943Y181007D01*
X500128Y181123D01*
X500267Y181239D01*
X500406Y181331D01*
X500498Y181424D01*
X500568Y181493D01*
X500614Y181517D01*
X500637Y181540D01*
X500869Y181794D01*
X501077Y182072D01*
X501239Y182326D01*
X501401Y182604D01*
X501517Y182882D01*
X501632Y183136D01*
X501794Y183645D01*
X501887Y184085D01*
X501910Y184270D01*
X501933Y184432D01*
X501956Y184548D01*
Y184640D01*
Y184710D01*
Y184733D01*
X501933Y185080D01*
X501910Y185404D01*
X501840Y185728D01*
X501748Y186029D01*
X501540Y186561D01*
X501285Y187024D01*
X501169Y187232D01*
X501054Y187417D01*
X500938Y187556D01*
X500845Y187695D01*
X500753Y187787D01*
X500683Y187857D01*
X500660Y187903D01*
X500637Y187926D01*
X500383Y188158D01*
X500128Y188366D01*
X499851Y188551D01*
X499573Y188713D01*
X499318Y188829D01*
X499041Y188944D01*
X498555Y189106D01*
X498115Y189199D01*
X497907Y189222D01*
X497768Y189245D01*
X497629Y189268D01*
X497213D01*
X497004Y189245D01*
X496842Y189222D01*
X496796D01*
Y191166D01*
X497004Y191189D01*
X497444D01*
X497930Y191166D01*
D02*
G37*
G36*
X486962D02*
X487448Y191120D01*
X487887Y191004D01*
X488327Y190888D01*
X488720Y190749D01*
X489114Y190587D01*
X489461Y190425D01*
X489761Y190240D01*
X490062Y190055D01*
X490317Y189893D01*
X490525Y189731D01*
X490710Y189592D01*
X490872Y189477D01*
X490965Y189384D01*
X491034Y189315D01*
X491057Y189292D01*
X491381Y188921D01*
X491682Y188551D01*
X491937Y188181D01*
X492145Y187787D01*
X492330Y187394D01*
X492469Y187024D01*
X492608Y186653D01*
X492700Y186306D01*
X492770Y185983D01*
X492839Y185682D01*
X492862Y185404D01*
X492908Y185173D01*
Y184987D01*
X492932Y184849D01*
Y184756D01*
Y184733D01*
X492908Y184247D01*
X492839Y183784D01*
X492746Y183321D01*
X492631Y182905D01*
X492492Y182488D01*
X492330Y182118D01*
X492168Y181771D01*
X491983Y181447D01*
X491821Y181169D01*
X491659Y180915D01*
X491497Y180707D01*
X491358Y180521D01*
X491219Y180359D01*
X491127Y180267D01*
X491080Y180198D01*
X491057Y180174D01*
X490687Y179850D01*
X490317Y179550D01*
X489923Y179295D01*
X489530Y179087D01*
X489160Y178902D01*
X488766Y178763D01*
X488396Y178624D01*
X488049Y178531D01*
X487725Y178462D01*
X487424Y178393D01*
X487147Y178369D01*
X486915Y178323D01*
X486730D01*
X486591Y178300D01*
X486244D01*
X486036Y178323D01*
X485828D01*
X485851Y180267D01*
X486059Y180244D01*
X486267Y180221D01*
X486476D01*
X486776Y180244D01*
X487054Y180267D01*
X487586Y180383D01*
X488072Y180545D01*
X488489Y180730D01*
X488836Y180892D01*
X488975Y180984D01*
X489090Y181054D01*
X489206Y181123D01*
X489276Y181169D01*
X489299Y181216D01*
X489322D01*
X489738Y181609D01*
X490085Y182049D01*
X490363Y182465D01*
X490571Y182882D01*
X490710Y183229D01*
X490780Y183391D01*
X490826Y183530D01*
X490849Y183622D01*
X490872Y183715D01*
X490895Y183761D01*
Y183784D01*
X487123D01*
Y185705D01*
X490895D01*
X490733Y186260D01*
X490502Y186769D01*
X490247Y187209D01*
X489993Y187579D01*
X489738Y187880D01*
X489530Y188088D01*
X489368Y188227D01*
X489345Y188273D01*
X489322D01*
X489090Y188459D01*
X488836Y188597D01*
X488350Y188852D01*
X487864Y189037D01*
X487424Y189153D01*
X487054Y189222D01*
X486892Y189245D01*
X486753D01*
X486638Y189268D01*
X486244D01*
X486036Y189245D01*
X485874Y189222D01*
X485828D01*
Y191166D01*
X486082Y191189D01*
X486476D01*
X486962Y191166D01*
D02*
G37*
%LPC*%
G36*
X445865Y191316D02*
X444454D01*
Y191085D01*
X445865D01*
Y191316D01*
D02*
G37*
G36*
X446282Y190992D02*
Y190691D01*
X444061D01*
Y190946D01*
X443598Y190876D01*
X443181Y190784D01*
X442834Y190691D01*
X442556Y190552D01*
X442348Y190437D01*
X442186Y190275D01*
Y190182D01*
X447346D01*
Y190853D01*
X447022Y190923D01*
X446675Y190969D01*
X446282Y190992D01*
D02*
G37*
G36*
X447902Y191085D02*
X447740D01*
Y190552D01*
X447902D01*
Y191085D01*
D02*
G37*
G36*
X448295Y190576D02*
Y190182D01*
X448781D01*
Y190252D01*
X448665Y190367D01*
X448526Y190460D01*
X448295Y190576D01*
D02*
G37*
G36*
X441584Y190506D02*
X441561D01*
X441446Y190483D01*
X441376Y190414D01*
X441353Y190321D01*
Y190298D01*
X441376Y190182D01*
X441446Y190136D01*
X441538Y190113D01*
X441561D01*
X441677Y190136D01*
X441723Y190205D01*
X441747Y190275D01*
Y190298D01*
X441723Y190414D01*
X441654Y190483D01*
X441584Y190506D01*
D02*
G37*
G36*
X442047Y188724D02*
X441284D01*
Y187961D01*
X442047D01*
Y188724D01*
D02*
G37*
G36*
X445935Y186989D02*
X443852D01*
Y186850D01*
X445935D01*
Y186989D01*
D02*
G37*
G36*
X448712Y189465D02*
X442233D01*
X442279Y189118D01*
X442441D01*
Y188377D01*
X443413Y187382D01*
X446328D01*
Y186457D01*
X444315D01*
X445657Y185068D01*
X448596Y188123D01*
X448712Y189465D01*
D02*
G37*
G36*
X448526Y187475D02*
X445935Y184791D01*
X448064Y182592D01*
X448526Y187475D01*
D02*
G37*
G36*
X442441Y187799D02*
Y187567D01*
X442394D01*
X442857Y182176D01*
X445379Y184791D01*
X443760Y186457D01*
X443413D01*
Y186804D01*
X442441Y187799D01*
D02*
G37*
G36*
X445657Y184490D02*
X442904Y181644D01*
X442950Y181134D01*
X443135Y181158D01*
X443343Y181134D01*
X443598Y181065D01*
X443852Y180949D01*
X444037Y180810D01*
X444199Y180649D01*
X444361Y180417D01*
X444477Y180140D01*
X444547Y179839D01*
X444523Y179630D01*
X447786D01*
X448018Y182060D01*
X445657Y184490D01*
D02*
G37*
G36*
X443251Y180440D02*
X443135D01*
X442904Y180417D01*
X442741Y180325D01*
X442603Y180232D01*
X442533Y180093D01*
X442487Y179978D01*
X442441Y179862D01*
Y179769D01*
Y179746D01*
X442464Y179515D01*
X442556Y179353D01*
X442649Y179214D01*
X442788Y179145D01*
X442904Y179098D01*
X443019Y179075D01*
X443112Y179052D01*
X443135D01*
X443366Y179075D01*
X443528Y179168D01*
X443667Y179283D01*
X443737Y179399D01*
X443783Y179538D01*
X443806Y179630D01*
X443829Y179723D01*
Y179746D01*
X443806Y179978D01*
X443713Y180140D01*
X443598Y180278D01*
X443482Y180348D01*
X443343Y180394D01*
X443251Y180440D01*
D02*
G37*
G36*
X447647Y179214D02*
X447555D01*
Y178658D01*
X447647D01*
Y179214D01*
D02*
G37*
%LPD*%
G36*
X443297Y180186D02*
X443413Y180140D01*
X443482Y180070D01*
X443528Y179978D01*
X443598Y179815D01*
Y179769D01*
Y179746D01*
X443575Y179584D01*
X443528Y179468D01*
X443459Y179399D01*
X443366Y179353D01*
X443204Y179283D01*
X443135D01*
X442973Y179306D01*
X442857Y179353D01*
X442788Y179422D01*
X442718Y179515D01*
X442672Y179677D01*
Y179723D01*
Y179746D01*
X442695Y179908D01*
X442741Y180024D01*
X442811Y180093D01*
X442904Y180163D01*
X443066Y180209D01*
X443135D01*
X443297Y180186D01*
D02*
G37*
%LPC*%
G36*
X443158Y179815D02*
X443089D01*
X443066Y179792D01*
Y179769D01*
Y179746D01*
Y179700D01*
X443089Y179677D01*
X443135D01*
X443181Y179700D01*
X443204Y179723D01*
Y179746D01*
X443181Y179792D01*
X443158Y179815D01*
D02*
G37*
G36*
X467389Y192913D02*
X467228D01*
X466556Y192890D01*
X465932Y192797D01*
X465307Y192681D01*
X464751Y192519D01*
X464196Y192311D01*
X463687Y192103D01*
X463224Y191872D01*
X462785Y191640D01*
X462414Y191385D01*
X462067Y191154D01*
X461766Y190946D01*
X461535Y190738D01*
X461327Y190576D01*
X461188Y190460D01*
X461095Y190367D01*
X461072Y190344D01*
X460633Y189858D01*
X460239Y189349D01*
X459892Y188840D01*
X459591Y188308D01*
X459360Y187799D01*
X459152Y187290D01*
X458990Y186781D01*
X458851Y186318D01*
X458735Y185878D01*
X458666Y185462D01*
X458596Y185115D01*
X458573Y184791D01*
X458550Y184536D01*
X458527Y184351D01*
Y184235D01*
Y184189D01*
X458550Y183518D01*
X458642Y182893D01*
X458758Y182291D01*
X458920Y181713D01*
X459105Y181158D01*
X459337Y180649D01*
X459568Y180186D01*
X459799Y179769D01*
X460031Y179376D01*
X460262Y179029D01*
X460471Y178728D01*
X460679Y178497D01*
X460740Y178418D01*
X463409Y181088D01*
X463271Y181181D01*
X463155Y181273D01*
X463062Y181343D01*
X463039Y181366D01*
X462785Y181644D01*
X462600Y181967D01*
X462461Y182268D01*
X462368Y182569D01*
X462322Y182824D01*
X462276Y183032D01*
Y183171D01*
Y183194D01*
Y183217D01*
X462299Y183564D01*
X462345Y183888D01*
X462437Y184143D01*
X462507Y184374D01*
X462600Y184559D01*
X462692Y184675D01*
X462738Y184767D01*
X462761Y184791D01*
X462947Y184976D01*
X463155Y185115D01*
X463340Y185230D01*
X463525Y185300D01*
X463687Y185346D01*
X463803Y185369D01*
X463918D01*
X464196Y185323D01*
X464451Y185230D01*
X464682Y185091D01*
X464867Y184930D01*
X465052Y184767D01*
X465168Y184629D01*
X465261Y184536D01*
X465284Y184490D01*
Y187614D01*
X465492D01*
X466788Y187082D01*
X466718Y186919D01*
X466580Y186966D01*
X466487Y186989D01*
X466394D01*
X466256Y186966D01*
X466232Y186943D01*
X466209D01*
X466163Y186873D01*
X466117Y186804D01*
X466094Y186734D01*
Y186711D01*
Y186619D01*
X466071Y186503D01*
Y186202D01*
Y186040D01*
Y185924D01*
Y185832D01*
Y185809D01*
Y183726D01*
X467204Y184883D01*
X467158Y185115D01*
X467112Y185323D01*
Y185415D01*
Y185462D01*
Y185508D01*
Y185531D01*
X467135Y185739D01*
X467158Y185924D01*
X467228Y186110D01*
X467274Y186248D01*
X467343Y186364D01*
X467413Y186457D01*
X467436Y186503D01*
X467459Y186526D01*
X467598Y186688D01*
X467737Y186804D01*
X467875Y186919D01*
X468014Y186989D01*
X468130Y187058D01*
X468199Y187105D01*
X468269Y187128D01*
X468292D01*
X468500Y187197D01*
X468708Y187243D01*
X468940Y187267D01*
X469148Y187290D01*
X469333Y187313D01*
X469634D01*
X473036Y190691D01*
X473383Y190344D01*
X473637Y190090D01*
X473522Y190228D01*
X473429Y190321D01*
X473406Y190344D01*
X472920Y190807D01*
X472411Y191200D01*
X471879Y191524D01*
X471346Y191825D01*
X470837Y192080D01*
X470328Y192288D01*
X469819Y192450D01*
X469356Y192589D01*
X468917Y192704D01*
X468500Y192774D01*
X468153Y192843D01*
X467829Y192867D01*
X467575Y192890D01*
X467389Y192913D01*
D02*
G37*
G36*
X473637Y190090D02*
X473698Y190012D01*
X473707Y190020D01*
X473637Y190090D01*
D02*
G37*
G36*
X469217Y186896D02*
X469079Y186850D01*
X468963Y186804D01*
X468870Y186758D01*
X468847Y186734D01*
X468639Y186572D01*
X468500Y186410D01*
X468385Y186272D01*
X468361Y186225D01*
Y186202D01*
X468292Y186086D01*
X468269Y185994D01*
X468246Y185948D01*
Y185924D01*
X469217Y186896D01*
D02*
G37*
G36*
X470166Y186457D02*
X468385Y184675D01*
X468431Y184582D01*
X468500Y184513D01*
X468523Y184490D01*
X468546Y184467D01*
X468685Y184328D01*
X468824Y184235D01*
X468963Y184166D01*
X469102Y184120D01*
X469217Y184096D01*
X469310Y184073D01*
X469495D01*
X469611Y184096D01*
X469727D01*
X469865Y184120D01*
X470004Y184143D01*
X470120Y184166D01*
X470166D01*
Y186457D01*
D02*
G37*
G36*
X464335Y184675D02*
X464289D01*
X464127Y184652D01*
X463965Y184606D01*
X463687Y184467D01*
X463594Y184374D01*
X463525Y184305D01*
X463479Y184258D01*
X463456Y184235D01*
X463340Y184050D01*
X463247Y183842D01*
X463178Y183634D01*
X463132Y183425D01*
X463109Y183240D01*
X463085Y183101D01*
Y183009D01*
Y182963D01*
X463109Y182639D01*
X463132Y182361D01*
X463201Y182130D01*
X463271Y181944D01*
X463340Y181782D01*
X463386Y181690D01*
X463433Y181620D01*
X463456Y181597D01*
X463525Y181482D01*
X463594Y181412D01*
X463664Y181366D01*
X463687Y181343D01*
X465284Y182939D01*
Y184189D01*
X465075Y184374D01*
X464937Y184490D01*
X464821Y184536D01*
X464798Y184559D01*
X464613Y184629D01*
X464451Y184652D01*
X464335Y184675D01*
D02*
G37*
G36*
X473698Y190012D02*
X470999Y187313D01*
X471994D01*
Y187128D01*
X471740D01*
X471508Y187105D01*
X471346Y187035D01*
X471231Y186943D01*
X471208Y186919D01*
X471161Y186850D01*
X471115Y186758D01*
X471092Y186503D01*
X471069Y186387D01*
Y186272D01*
Y186202D01*
Y186179D01*
Y182037D01*
Y181852D01*
X471092Y181690D01*
Y181574D01*
X471115Y181482D01*
X471138Y181412D01*
Y181366D01*
X471161Y181343D01*
X471231Y181250D01*
X471323Y181204D01*
X471508Y181111D01*
X471670Y181088D01*
X471994D01*
Y180903D01*
X469241D01*
Y181088D01*
X469495D01*
X469727Y181111D01*
X469889Y181181D01*
X469981Y181250D01*
X470027Y181273D01*
X470074Y181343D01*
X470097Y181458D01*
X470143Y181713D01*
X470166Y181829D01*
Y181944D01*
Y182014D01*
Y182037D01*
Y183888D01*
X469935Y183842D01*
X469750Y183819D01*
X469634Y183796D01*
X469588D01*
X469380Y183773D01*
X469079D01*
X468801Y183796D01*
X468546Y183819D01*
X468338Y183888D01*
X468153Y183958D01*
X467991Y184004D01*
X467899Y184073D01*
X467829Y184096D01*
X467806Y184120D01*
X466071Y182361D01*
Y181320D01*
X465770Y181134D01*
X465515Y181019D01*
X465399Y180973D01*
X465330Y180926D01*
X465284Y180903D01*
X465261D01*
X464983Y180834D01*
X464751Y180787D01*
X464636Y180764D01*
X464474D01*
X461424Y177715D01*
X461072Y178034D01*
X461419Y177710D01*
X461424Y177715D01*
X461558Y177594D01*
X462067Y177201D01*
X462576Y176854D01*
X463109Y176553D01*
X463618Y176321D01*
X464127Y176113D01*
X464636Y175951D01*
X465099Y175812D01*
X465538Y175697D01*
X465955Y175627D01*
X466302Y175558D01*
X466626Y175535D01*
X466880Y175512D01*
X467065Y175488D01*
X467228D01*
X467899Y175512D01*
X468523Y175604D01*
X469148Y175720D01*
X469703Y175882D01*
X470259Y176090D01*
X470768Y176298D01*
X471231Y176530D01*
X471670Y176761D01*
X472064Y176992D01*
X472411Y177224D01*
X472688Y177455D01*
X472943Y177640D01*
X473151Y177802D01*
X473290Y177918D01*
X473383Y178011D01*
X473406Y178034D01*
X473845Y178520D01*
X474239Y179029D01*
X474586Y179538D01*
X474887Y180070D01*
X475118Y180579D01*
X475326Y181111D01*
X475489Y181597D01*
X475627Y182060D01*
X475743Y182500D01*
X475812Y182916D01*
X475882Y183263D01*
X475905Y183587D01*
X475928Y183842D01*
X475951Y184027D01*
Y184143D01*
Y184189D01*
X475928Y184860D01*
X475836Y185485D01*
X475720Y186110D01*
X475558Y186665D01*
X475350Y187220D01*
X475141Y187729D01*
X474910Y188192D01*
X474679Y188632D01*
X474447Y189002D01*
X474216Y189349D01*
X473984Y189650D01*
X473799Y189881D01*
X473698Y190012D01*
D02*
G37*
G36*
X460740Y178418D02*
X460725Y178404D01*
X460899Y178219D01*
X460956Y178149D01*
X461049Y178057D01*
X461072Y178034D01*
X460899Y178219D01*
X460841Y178288D01*
X460740Y178418D01*
D02*
G37*
%LPD*%
D15*
X320000Y146500D02*
X525500D01*
Y400500D01*
X320000D02*
X525500D01*
X320000Y146500D02*
Y400500D01*
D44*
X490247Y217778D02*
Y213279D01*
Y217778D02*
X487248Y213279D01*
Y217778D02*
Y213279D01*
X486005Y214992D02*
X483434D01*
Y215421D01*
X483648Y215849D01*
X483863Y216064D01*
X484291Y216278D01*
X484934D01*
X485362Y216064D01*
X485791Y215635D01*
X486005Y214992D01*
Y214564D01*
X485791Y213921D01*
X485362Y213493D01*
X484934Y213279D01*
X484291D01*
X483863Y213493D01*
X483434Y213921D01*
X482470Y216278D02*
X481613Y213279D01*
X480756Y216278D02*
X481613Y213279D01*
X480756Y216278D02*
X479899Y213279D01*
X479042Y216278D02*
X479899Y213279D01*
X474565D02*
X476279Y217778D01*
X477993Y213279D01*
X477350Y214778D02*
X475208D01*
X470730Y217778D02*
X473515D01*
Y213279D01*
X470730D01*
X473515Y215635D02*
X471801D01*
X464945Y217778D02*
Y213279D01*
X466445Y217778D02*
X463446D01*
X462910Y214992D02*
X460339D01*
Y215421D01*
X460554Y215849D01*
X460768Y216064D01*
X461196Y216278D01*
X461839D01*
X462267Y216064D01*
X462696Y215635D01*
X462910Y214992D01*
Y214564D01*
X462696Y213921D01*
X462267Y213493D01*
X461839Y213279D01*
X461196D01*
X460768Y213493D01*
X460339Y213921D01*
X456804Y215635D02*
X457233Y216064D01*
X457661Y216278D01*
X458304D01*
X458732Y216064D01*
X459161Y215635D01*
X459375Y214992D01*
Y214564D01*
X459161Y213921D01*
X458732Y213493D01*
X458304Y213279D01*
X457661D01*
X457233Y213493D01*
X456804Y213921D01*
X455840Y217778D02*
Y213279D01*
Y215421D02*
X455197Y216064D01*
X454769Y216278D01*
X454126D01*
X453698Y216064D01*
X453484Y215421D01*
Y213279D01*
X452305Y216278D02*
Y213279D01*
Y215421D02*
X451662Y216064D01*
X451234Y216278D01*
X450591D01*
X450163Y216064D01*
X449949Y215421D01*
Y213279D01*
X447699Y216278D02*
X448128Y216064D01*
X448556Y215635D01*
X448770Y214992D01*
Y214564D01*
X448556Y213921D01*
X448128Y213493D01*
X447699Y213279D01*
X447056D01*
X446628Y213493D01*
X446199Y213921D01*
X445985Y214564D01*
Y214992D01*
X446199Y215635D01*
X446628Y216064D01*
X447056Y216278D01*
X447699D01*
X445000Y217778D02*
Y213279D01*
X442986Y216278D02*
X443414Y216064D01*
X443843Y215635D01*
X444057Y214992D01*
Y214564D01*
X443843Y213921D01*
X443414Y213493D01*
X442986Y213279D01*
X442343D01*
X441915Y213493D01*
X441486Y213921D01*
X441272Y214564D01*
Y214992D01*
X441486Y215635D01*
X441915Y216064D01*
X442343Y216278D01*
X442986D01*
X437715D02*
Y212850D01*
X437930Y212207D01*
X438144Y211993D01*
X438573Y211779D01*
X439215D01*
X439644Y211993D01*
X437715Y215635D02*
X438144Y216064D01*
X438573Y216278D01*
X439215D01*
X439644Y216064D01*
X440072Y215635D01*
X440286Y214992D01*
Y214564D01*
X440072Y213921D01*
X439644Y213493D01*
X439215Y213279D01*
X438573D01*
X438144Y213493D01*
X437715Y213921D01*
X436302Y216278D02*
X435016Y213279D01*
X433731Y216278D02*
X435016Y213279D01*
X435444Y212422D01*
X435873Y211993D01*
X436302Y211779D01*
X436516D01*
X429446Y217778D02*
Y213279D01*
X428503Y216278D02*
Y213279D01*
Y215421D02*
X427860Y216064D01*
X427432Y216278D01*
X426789D01*
X426361Y216064D01*
X426147Y215421D01*
Y213279D01*
X422397Y215635D02*
X422826Y216064D01*
X423254Y216278D01*
X423897D01*
X424326Y216064D01*
X424754Y215635D01*
X424968Y214992D01*
Y214564D01*
X424754Y213921D01*
X424326Y213493D01*
X423897Y213279D01*
X423254D01*
X422826Y213493D01*
X422397Y213921D01*
X421219Y213707D02*
X421433Y213493D01*
X421219Y213279D01*
X421005Y213493D01*
X421219Y213707D01*
X492336Y209199D02*
Y204700D01*
Y209199D02*
X489337Y204700D01*
Y209199D02*
Y204700D01*
X484666D02*
X486380Y209199D01*
X488094Y204700D01*
X487451Y206200D02*
X485309D01*
X480831Y209199D02*
X483616D01*
Y204700D01*
X480831D01*
X483616Y207057D02*
X481902D01*
X480081Y206628D02*
X476225D01*
X471683Y208128D02*
X471897Y208556D01*
X472326Y208985D01*
X472754Y209199D01*
X473611D01*
X474040Y208985D01*
X474468Y208556D01*
X474683Y208128D01*
X474897Y207485D01*
Y206414D01*
X474683Y205771D01*
X474468Y205343D01*
X474040Y204914D01*
X473611Y204700D01*
X472754D01*
X472326Y204914D01*
X471897Y205343D01*
X471683Y205771D01*
X470419Y209199D02*
X469348Y204700D01*
X468277Y209199D02*
X469348Y204700D01*
X468277Y209199D02*
X467206Y204700D01*
X466134Y209199D02*
X467206Y204700D01*
X464806Y209199D02*
X462450D01*
X463735Y207485D01*
X463092D01*
X462664Y207271D01*
X462450Y207057D01*
X462235Y206414D01*
Y205985D01*
X462450Y205343D01*
X462878Y204914D01*
X463521Y204700D01*
X464163D01*
X464806Y204914D01*
X465020Y205129D01*
X465235Y205557D01*
X459943Y209199D02*
X460586Y208985D01*
X461014Y208342D01*
X461228Y207271D01*
Y206628D01*
X461014Y205557D01*
X460586Y204914D01*
X459943Y204700D01*
X459514D01*
X458872Y204914D01*
X458443Y205557D01*
X458229Y206628D01*
Y207271D01*
X458443Y208342D01*
X458872Y208985D01*
X459514Y209199D01*
X459943D01*
X456151D02*
X456793Y208985D01*
X457008Y208556D01*
Y208128D01*
X456793Y207699D01*
X456365Y207485D01*
X455508Y207271D01*
X454865Y207057D01*
X454437Y206628D01*
X454223Y206200D01*
Y205557D01*
X454437Y205129D01*
X454651Y204914D01*
X455294Y204700D01*
X456151D01*
X456793Y204914D01*
X457008Y205129D01*
X457222Y205557D01*
Y206200D01*
X457008Y206628D01*
X456579Y207057D01*
X455937Y207271D01*
X455080Y207485D01*
X454651Y207699D01*
X454437Y208128D01*
Y208556D01*
X454651Y208985D01*
X455294Y209199D01*
X456151D01*
X451716D02*
Y204700D01*
X453216Y209199D02*
X450216D01*
X449681Y206628D02*
X445824D01*
X444496Y209199D02*
Y204700D01*
X441497Y209199D02*
X444496Y206200D01*
X443425Y207271D02*
X441497Y204700D01*
X439419Y209199D02*
X440061Y208985D01*
X440276Y208556D01*
Y208128D01*
X440061Y207699D01*
X439633Y207485D01*
X438776Y207271D01*
X438133Y207057D01*
X437705Y206628D01*
X437491Y206200D01*
Y205557D01*
X437705Y205129D01*
X437919Y204914D01*
X438562Y204700D01*
X439419D01*
X440061Y204914D01*
X440276Y205129D01*
X440490Y205557D01*
Y206200D01*
X440276Y206628D01*
X439847Y207057D01*
X439205Y207271D01*
X438347Y207485D01*
X437919Y207699D01*
X437705Y208128D01*
Y208556D01*
X437919Y208985D01*
X438562Y209199D01*
X439419D01*
X436269Y208128D02*
Y208342D01*
X436055Y208771D01*
X435841Y208985D01*
X435412Y209199D01*
X434555D01*
X434127Y208985D01*
X433913Y208771D01*
X433699Y208342D01*
Y207914D01*
X433913Y207485D01*
X434341Y206842D01*
X436484Y204700D01*
X433484D01*
X432477Y209199D02*
Y204700D01*
Y209199D02*
X429692D01*
X432477Y207057D02*
X430763D01*
X429178Y206628D02*
X425322D01*
X422708Y209199D02*
X423351Y208985D01*
X423779Y208342D01*
X423993Y207271D01*
Y206628D01*
X423779Y205557D01*
X423351Y204914D01*
X422708Y204700D01*
X422280D01*
X421637Y204914D01*
X421208Y205557D01*
X420994Y206628D01*
Y207271D01*
X421208Y208342D01*
X421637Y208985D01*
X422280Y209199D01*
X422708D01*
X419987Y208342D02*
X419559Y208556D01*
X418916Y209199D01*
Y204700D01*
M02*
