G04*
G04 #@! TF.GenerationSoftware,Altium Limited,Altium Designer,20.2.6 (244)*
G04*
G04 Layer_Physical_Order=2*
G04 Layer_Color=16711680*
%FSLAX25Y25*%
%MOIN*%
G70*
G04*
G04 #@! TF.SameCoordinates,39434470-8384-4B1D-BF7C-59D8A565AEB1*
G04*
G04*
G04 #@! TF.FilePolarity,Positive*
G04*
G01*
G75*
%ADD11C,0.01000*%
%ADD12C,0.00500*%
%ADD14C,0.00800*%
%ADD18C,0.03000*%
%ADD20C,0.02400*%
%ADD21C,0.02000*%
%ADD22C,0.25000*%
%ADD23C,0.02500*%
%ADD24C,0.03200*%
%ADD25R,0.09843X0.03937*%
%ADD26R,0.03937X0.09843*%
%ADD27R,0.03740X0.02953*%
G04:AMPARAMS|DCode=28|XSize=39.37mil|YSize=35.43mil|CornerRadius=4.43mil|HoleSize=0mil|Usage=FLASHONLY|Rotation=270.000|XOffset=0mil|YOffset=0mil|HoleType=Round|Shape=RoundedRectangle|*
%AMROUNDEDRECTD28*
21,1,0.03937,0.02657,0,0,270.0*
21,1,0.03051,0.03543,0,0,270.0*
1,1,0.00886,-0.01329,-0.01526*
1,1,0.00886,-0.01329,0.01526*
1,1,0.00886,0.01329,0.01526*
1,1,0.00886,0.01329,-0.01526*
%
%ADD28ROUNDEDRECTD28*%
%ADD29R,0.02953X0.03740*%
%ADD30R,0.02500X0.05000*%
%ADD31C,0.02500*%
G36*
X213471Y215469D02*
X203075D01*
Y214539D01*
X113700D01*
X113700Y214539D01*
X112920Y214384D01*
X112258Y213942D01*
X112258Y213942D01*
X107458Y209142D01*
X107016Y208480D01*
X106861Y207700D01*
Y197284D01*
X106685Y197166D01*
X106366Y196689D01*
X106254Y196126D01*
Y193074D01*
X106366Y192511D01*
X106685Y192034D01*
X106861Y191916D01*
Y175398D01*
X106781Y175278D01*
X106606Y174400D01*
X106781Y173522D01*
X107278Y172778D01*
X108022Y172281D01*
X108900Y172106D01*
X109778Y172281D01*
X110522Y172778D01*
X110652Y172973D01*
X113009D01*
X117573Y168409D01*
Y156752D01*
X117378Y156622D01*
X116881Y155878D01*
X116706Y155000D01*
X116881Y154122D01*
X117378Y153378D01*
X118122Y152881D01*
X119000Y152706D01*
X119878Y152881D01*
X120622Y153378D01*
X120722Y153528D01*
X121316Y153638D01*
X121573Y153446D01*
Y148500D01*
X121573Y148500D01*
X121681Y147954D01*
X121770Y147821D01*
X121706Y147500D01*
X121818Y146939D01*
X121520Y146545D01*
X121002Y146517D01*
X115927Y151591D01*
Y168000D01*
X115819Y168546D01*
X115509Y169009D01*
X115509Y169009D01*
X114509Y170009D01*
X114046Y170319D01*
X113500Y170427D01*
X113500Y170427D01*
X107209D01*
X106557Y171079D01*
X106603Y171309D01*
X106429Y172187D01*
X105931Y172931D01*
X105187Y173428D01*
X104309Y173603D01*
X103431Y173428D01*
X102687Y172931D01*
X102190Y172187D01*
X102015Y171309D01*
X102190Y170431D01*
X102687Y169687D01*
X103431Y169190D01*
X104309Y169015D01*
X104539Y169061D01*
X105609Y167991D01*
X106072Y167681D01*
X106618Y167573D01*
X106618Y167573D01*
X112909D01*
X113073Y167409D01*
Y151000D01*
X113073Y151000D01*
X113181Y150454D01*
X113491Y149991D01*
X119491Y143991D01*
X119491Y143991D01*
X119954Y143681D01*
X120500Y143573D01*
X120500Y143573D01*
X125248D01*
X125378Y143378D01*
X126122Y142880D01*
X127000Y142706D01*
X127878Y142880D01*
X128622Y143378D01*
X129120Y144122D01*
X129294Y145000D01*
X129120Y145878D01*
X128622Y146622D01*
X127878Y147119D01*
X127000Y147294D01*
X126713Y147237D01*
X126263Y147657D01*
X126119Y148378D01*
X125622Y149122D01*
X124878Y149619D01*
X124427Y149709D01*
Y153748D01*
X124622Y153878D01*
X125119Y154622D01*
X125294Y155500D01*
X125119Y156378D01*
X124622Y157122D01*
X124431Y157250D01*
Y157750D01*
X124622Y157878D01*
X125119Y158622D01*
X125248Y159269D01*
X127051Y161073D01*
X142909D01*
X150573Y153409D01*
Y143124D01*
X150282Y142895D01*
X149867Y143196D01*
X149927Y143500D01*
X149927Y143500D01*
Y152500D01*
X149819Y153046D01*
X149509Y153509D01*
X149509Y153509D01*
X144009Y159009D01*
X143546Y159319D01*
X143000Y159427D01*
X143000Y159427D01*
X130252D01*
X130122Y159622D01*
X129378Y160119D01*
X128500Y160294D01*
X127622Y160119D01*
X126878Y159622D01*
X126381Y158878D01*
X126206Y158000D01*
X126381Y157122D01*
X126878Y156378D01*
X127622Y155880D01*
X128500Y155706D01*
X129378Y155880D01*
X130122Y156378D01*
X130252Y156573D01*
X142409D01*
X147073Y151909D01*
Y144091D01*
X121991Y119009D01*
X121681Y118546D01*
X121573Y118000D01*
X121573Y118000D01*
Y87110D01*
X117890Y83427D01*
X59091D01*
X50427Y92091D01*
Y158500D01*
X50319Y159046D01*
X50009Y159509D01*
X50009Y159509D01*
X46009Y163509D01*
X45546Y163819D01*
X45000Y163927D01*
X45000Y163927D01*
X11925D01*
Y165469D01*
X1529D01*
Y179532D01*
X11925D01*
Y185468D01*
X1529D01*
X1529Y199531D01*
X11925D01*
Y201073D01*
X35854D01*
Y200974D01*
X35966Y200411D01*
X36285Y199934D01*
X36762Y199615D01*
X37325Y199503D01*
X39982D01*
X40545Y199615D01*
X40738Y199744D01*
X43262D01*
X43455Y199615D01*
X44018Y199503D01*
X46675D01*
X47238Y199615D01*
X47715Y199934D01*
X48034Y200411D01*
X48369Y200550D01*
X48622Y200380D01*
X49500Y200206D01*
X50378Y200380D01*
X51122Y200878D01*
X51619Y201622D01*
X51794Y202500D01*
X51619Y203378D01*
X51122Y204122D01*
X50378Y204620D01*
X49500Y204794D01*
X48622Y204620D01*
X48369Y204450D01*
X48034Y204589D01*
X47715Y205066D01*
X47238Y205385D01*
X46675Y205497D01*
X44018D01*
X43455Y205385D01*
X43262Y205256D01*
X40738D01*
X40545Y205385D01*
X39982Y205497D01*
X37325D01*
X36762Y205385D01*
X36285Y205066D01*
X35966Y204589D01*
X35854Y204026D01*
Y203927D01*
X11925D01*
Y205469D01*
X1529D01*
Y219531D01*
X11925D01*
Y225468D01*
X1529D01*
Y256971D01*
X213471D01*
Y215469D01*
D02*
G37*
G36*
X203075Y209531D02*
X213471D01*
Y195468D01*
X209496D01*
Y192500D01*
Y189532D01*
X213471D01*
Y175469D01*
X203075D01*
Y174539D01*
X197452D01*
X196979Y174855D01*
X196004Y175049D01*
X193056D01*
X192549Y175556D01*
Y179532D01*
X201925D01*
Y185468D01*
X190636D01*
X179702Y196402D01*
X178876Y196955D01*
X177900Y197149D01*
X118127D01*
X118115Y197166D01*
X117786Y197386D01*
Y204302D01*
X118845Y205361D01*
X175255D01*
X179558Y201058D01*
X180220Y200616D01*
X181000Y200461D01*
X181000Y200461D01*
X190083D01*
Y199531D01*
X201925D01*
Y205469D01*
X190083D01*
Y204539D01*
X181845D01*
X177542Y208842D01*
X176880Y209284D01*
X176100Y209439D01*
X118000D01*
X118000Y209439D01*
X117220Y209284D01*
X116558Y208842D01*
X114304Y206588D01*
X113863Y205927D01*
X113707Y205147D01*
Y197386D01*
X113662Y197356D01*
X111138D01*
X110945Y197485D01*
X110939Y197486D01*
Y206855D01*
X114545Y210461D01*
X203075D01*
Y209531D01*
D02*
G37*
G36*
X187451Y181444D02*
Y174500D01*
X187645Y173524D01*
X188198Y172698D01*
X190198Y170698D01*
X191024Y170145D01*
X192000Y169951D01*
X196004D01*
X196979Y170145D01*
X197452Y170461D01*
X203075D01*
Y169532D01*
X213471D01*
Y155468D01*
X203075D01*
Y154794D01*
X187333D01*
X186455Y154620D01*
X185711Y154122D01*
X183378Y151789D01*
X182880Y151045D01*
X182706Y150167D01*
Y126500D01*
X182880Y125622D01*
X183378Y124878D01*
X187378Y120878D01*
X188122Y120380D01*
X189000Y120206D01*
X190083D01*
Y119532D01*
X201925D01*
Y125469D01*
X190083D01*
Y125369D01*
X189583Y125162D01*
X187294Y127450D01*
Y149217D01*
X188283Y150206D01*
X203075D01*
Y149531D01*
X213471D01*
Y135468D01*
X209496D01*
Y132500D01*
Y129532D01*
X213471D01*
Y115469D01*
X203075D01*
Y109531D01*
X213471D01*
Y95468D01*
X203075D01*
Y95049D01*
X189500D01*
X188524Y94855D01*
X187698Y94302D01*
X167944Y74549D01*
X164058D01*
X163500Y74622D01*
X162821Y74533D01*
X162189Y74271D01*
X161646Y73854D01*
X161229Y73311D01*
X160967Y72679D01*
X160878Y72000D01*
X160951Y71442D01*
Y40556D01*
X153444Y33049D01*
X146000D01*
X145025Y32855D01*
X144198Y32302D01*
X140698Y28802D01*
X140145Y27975D01*
X139951Y27000D01*
Y24966D01*
X122968D01*
X122722Y24917D01*
X119532D01*
Y13075D01*
X125469D01*
Y19868D01*
X139532D01*
Y13075D01*
X145468D01*
Y24917D01*
X145049D01*
Y25944D01*
X147056Y27951D01*
X154500D01*
X155475Y28145D01*
X156302Y28698D01*
X165302Y37698D01*
X165855Y38524D01*
X166049Y39500D01*
Y69451D01*
X169000D01*
X169975Y69645D01*
X170802Y70198D01*
X190556Y89951D01*
X203075D01*
Y89531D01*
X213471D01*
Y75468D01*
X209496D01*
Y72500D01*
Y69532D01*
X213471D01*
X213471Y55468D01*
X203075D01*
Y53927D01*
X193091D01*
X189748Y57270D01*
X189794Y57500D01*
X189620Y58378D01*
X189122Y59122D01*
X188378Y59619D01*
X187500Y59794D01*
X186622Y59619D01*
X185878Y59122D01*
X185380Y58378D01*
X185206Y57500D01*
X185380Y56622D01*
X185878Y55878D01*
X186622Y55381D01*
X187500Y55206D01*
X187730Y55252D01*
X191491Y51491D01*
X191491Y51491D01*
X191954Y51181D01*
X192500Y51073D01*
X192500Y51073D01*
X203075D01*
Y49531D01*
X213471D01*
Y35469D01*
X203075D01*
Y33927D01*
X186591D01*
X183748Y36770D01*
X183794Y37000D01*
X183619Y37878D01*
X183122Y38622D01*
X182378Y39119D01*
X181500Y39294D01*
X180622Y39119D01*
X179878Y38622D01*
X179381Y37878D01*
X179206Y37000D01*
X179381Y36122D01*
X179878Y35378D01*
X180622Y34881D01*
X181500Y34706D01*
X181730Y34752D01*
X184991Y31491D01*
X184991Y31491D01*
X185454Y31181D01*
X186000Y31073D01*
X186000Y31073D01*
X203075D01*
Y29531D01*
X213471D01*
Y1529D01*
X195468D01*
Y11925D01*
X189532D01*
Y1529D01*
X175469D01*
Y11925D01*
X169532D01*
Y1529D01*
X155468D01*
Y11925D01*
X149531D01*
Y1529D01*
X135468D01*
Y11925D01*
X133927D01*
Y13248D01*
X134122Y13378D01*
X134619Y14122D01*
X134794Y15000D01*
X134619Y15878D01*
X134122Y16622D01*
X133378Y17120D01*
X132500Y17294D01*
X131622Y17120D01*
X130878Y16622D01*
X130380Y15878D01*
X130206Y15000D01*
X130380Y14122D01*
X130878Y13378D01*
X131073Y13248D01*
Y11925D01*
X129532D01*
Y1529D01*
X115469D01*
Y11925D01*
X114029D01*
Y21315D01*
X116081Y23367D01*
X116184Y23522D01*
X128081Y35419D01*
X128413Y35915D01*
X128529Y36500D01*
Y43971D01*
X133354D01*
X133466Y43411D01*
X133784Y42934D01*
X134262Y42615D01*
X134825Y42503D01*
X137482D01*
X138045Y42615D01*
X138238Y42744D01*
X140762D01*
X140955Y42615D01*
X141518Y42503D01*
X142347D01*
Y45500D01*
Y48497D01*
X141518D01*
X140955Y48385D01*
X140762Y48256D01*
X138238D01*
X138045Y48385D01*
X137482Y48497D01*
X134825D01*
X134262Y48385D01*
X133784Y48066D01*
X133466Y47589D01*
X133354Y47029D01*
X128529D01*
Y54000D01*
X128413Y54585D01*
X128081Y55081D01*
X120581Y62581D01*
X120085Y62913D01*
X119500Y63029D01*
X66684D01*
X66622Y63122D01*
X65878Y63619D01*
X65000Y63794D01*
X64122Y63619D01*
X63378Y63122D01*
X63316Y63029D01*
X33634D01*
X33081Y63581D01*
X32585Y63913D01*
X32000Y64029D01*
X11925D01*
Y65469D01*
X1529D01*
Y79532D01*
X5504D01*
Y82500D01*
Y85469D01*
X1529D01*
Y99532D01*
X11925D01*
Y101073D01*
X28409D01*
X32573Y96909D01*
Y82500D01*
X32573Y82500D01*
X32681Y81954D01*
X32991Y81491D01*
X42491Y71991D01*
X42491Y71991D01*
X42954Y71681D01*
X43500Y71573D01*
X43500Y71573D01*
X146000D01*
X146000Y71573D01*
X146546Y71681D01*
X147009Y71991D01*
X167009Y91991D01*
X167009Y91991D01*
X167319Y92454D01*
X167427Y93000D01*
X167427Y93000D01*
Y171000D01*
X167427Y171000D01*
X167319Y171546D01*
X167009Y172009D01*
X167009Y172009D01*
X164009Y175009D01*
X163546Y175319D01*
X163000Y175427D01*
X163000Y175427D01*
X143252D01*
X143122Y175622D01*
X142378Y176119D01*
X141500Y176294D01*
X140622Y176119D01*
X139878Y175622D01*
X139381Y174878D01*
X139206Y174000D01*
X139381Y173122D01*
X139878Y172378D01*
X140622Y171880D01*
X141500Y171706D01*
X142378Y171880D01*
X143122Y172378D01*
X143252Y172573D01*
X162409D01*
X164573Y170409D01*
Y93591D01*
X145409Y74427D01*
X125099D01*
X124908Y74889D01*
X132009Y81991D01*
X132009Y81991D01*
X132319Y82454D01*
X132427Y83000D01*
X132427Y83000D01*
Y115909D01*
X159509Y142991D01*
X159509Y142991D01*
X159819Y143454D01*
X159927Y144000D01*
Y167500D01*
X159927Y167500D01*
X159819Y168046D01*
X159509Y168509D01*
X159509Y168509D01*
X157509Y170509D01*
X157046Y170819D01*
X156500Y170927D01*
X156500Y170927D01*
X138252D01*
X138122Y171122D01*
X137378Y171619D01*
X136500Y171794D01*
X135622Y171619D01*
X134878Y171122D01*
X134380Y170378D01*
X134206Y169500D01*
X134380Y168622D01*
X134878Y167878D01*
X135622Y167380D01*
X136500Y167206D01*
X137378Y167380D01*
X138122Y167878D01*
X138252Y168073D01*
X155909D01*
X157073Y166909D01*
Y144591D01*
X129991Y117509D01*
X129681Y117046D01*
X129573Y116500D01*
X129573Y116500D01*
Y83591D01*
X122409Y76427D01*
X51091D01*
X40427Y87091D01*
Y108000D01*
X40427Y108000D01*
X40319Y108546D01*
X40009Y109009D01*
X40009Y109009D01*
X35509Y113509D01*
X35046Y113819D01*
X34500Y113927D01*
X34500Y113927D01*
X24917D01*
Y115469D01*
X13075D01*
Y109531D01*
X24917D01*
Y111073D01*
X33909D01*
X37573Y107409D01*
Y86500D01*
X37573Y86500D01*
X37681Y85954D01*
X37991Y85491D01*
X48592Y74889D01*
X48401Y74427D01*
X44091D01*
X35427Y83091D01*
Y97500D01*
X35427Y97500D01*
X35319Y98046D01*
X35009Y98509D01*
X35009Y98509D01*
X30009Y103509D01*
X29546Y103819D01*
X29000Y103927D01*
X29000Y103927D01*
X11925D01*
Y105468D01*
X1529D01*
Y119532D01*
X11925D01*
Y120461D01*
X25002D01*
X25122Y120380D01*
X26000Y120206D01*
X26878Y120380D01*
X27622Y120878D01*
X28120Y121622D01*
X28294Y122500D01*
X28120Y123378D01*
X27622Y124122D01*
X26878Y124619D01*
X26000Y124794D01*
X25122Y124619D01*
X25002Y124539D01*
X11925D01*
Y125469D01*
X1529D01*
Y139532D01*
X11925D01*
Y141073D01*
X25248D01*
X25378Y140878D01*
X26122Y140381D01*
X27000Y140206D01*
X27878Y140381D01*
X28622Y140878D01*
X29120Y141622D01*
X29294Y142500D01*
X29120Y143378D01*
X28622Y144122D01*
X27878Y144620D01*
X27000Y144794D01*
X26122Y144620D01*
X25378Y144122D01*
X25248Y143927D01*
X11925D01*
Y145468D01*
X1529D01*
Y159531D01*
X11925D01*
Y161073D01*
X44409D01*
X47573Y157909D01*
Y91500D01*
X47573Y91500D01*
X47681Y90954D01*
X47991Y90491D01*
X57491Y80991D01*
X57491Y80991D01*
X57954Y80681D01*
X58500Y80573D01*
X58500Y80573D01*
X118481D01*
X118481Y80573D01*
X119028Y80681D01*
X119491Y80991D01*
X124009Y85509D01*
X124009Y85509D01*
X124319Y85972D01*
X124427Y86519D01*
Y117376D01*
X124718Y117605D01*
X125133Y117304D01*
X125073Y117000D01*
X125073Y117000D01*
Y84591D01*
X120409Y79927D01*
X56091D01*
X45427Y90591D01*
Y150000D01*
X45319Y150546D01*
X45009Y151009D01*
X45009Y151009D01*
X42509Y153509D01*
X42046Y153819D01*
X41500Y153927D01*
X41500Y153927D01*
X24917D01*
Y155468D01*
X13075D01*
Y149531D01*
X24917D01*
Y151073D01*
X40909D01*
X42573Y149409D01*
Y90000D01*
X42573Y90000D01*
X42681Y89454D01*
X42991Y88991D01*
X54491Y77491D01*
X54491Y77491D01*
X54954Y77181D01*
X55500Y77073D01*
X55500Y77073D01*
X121000D01*
X121000Y77073D01*
X121546Y77181D01*
X122009Y77491D01*
X127509Y82991D01*
X127509Y82991D01*
X127819Y83454D01*
X127927Y84000D01*
Y116409D01*
X153009Y141491D01*
X153009Y141491D01*
X153319Y141954D01*
X153427Y142500D01*
X153427Y142500D01*
Y154000D01*
X153427Y154000D01*
X153319Y154546D01*
X153009Y155009D01*
X153009Y155009D01*
X144509Y163509D01*
X144046Y163819D01*
X143500Y163927D01*
X143500Y163927D01*
X126460D01*
X126460Y163927D01*
X125914Y163819D01*
X125451Y163509D01*
X125451Y163509D01*
X123613Y161672D01*
X123000Y161794D01*
X122122Y161619D01*
X121378Y161122D01*
X120927Y160448D01*
X120640Y160459D01*
X120427Y160531D01*
Y169000D01*
X120319Y169546D01*
X120009Y170009D01*
X120009Y170009D01*
X114609Y175409D01*
X114146Y175719D01*
X113600Y175827D01*
X113600Y175827D01*
X110939D01*
Y191714D01*
X110945Y191715D01*
X111138Y191844D01*
X113662D01*
X113855Y191715D01*
X114418Y191603D01*
X117075D01*
X117638Y191715D01*
X118115Y192034D01*
X118127Y192051D01*
X123762D01*
X123930Y191621D01*
X123930Y191551D01*
Y189644D01*
X126800D01*
X129670D01*
Y191551D01*
X129670Y191621D01*
X129838Y192051D01*
X131762D01*
X131930Y191621D01*
X131930Y191551D01*
Y189644D01*
X134800D01*
X137670D01*
Y191551D01*
X137670Y191621D01*
X137838Y192051D01*
X176844D01*
X187451Y181444D01*
D02*
G37*
G36*
X31919Y60419D02*
X32415Y60087D01*
X33000Y59971D01*
X63316D01*
X63378Y59878D01*
X64122Y59381D01*
X65000Y59206D01*
X65878Y59381D01*
X66622Y59878D01*
X66684Y59971D01*
X118867D01*
X125471Y53367D01*
Y46000D01*
Y37133D01*
X113919Y25581D01*
X113815Y25427D01*
X111419Y23030D01*
X111087Y22534D01*
X110971Y21949D01*
Y11925D01*
X109531D01*
Y1529D01*
X95468D01*
Y5504D01*
X92500D01*
X89531D01*
Y1529D01*
X75468D01*
Y11925D01*
X75049D01*
Y40317D01*
X75122Y40875D01*
X75033Y41554D01*
X74771Y42186D01*
X74354Y42729D01*
X74348Y42734D01*
X74302Y42802D01*
X72302Y44802D01*
X71475Y45355D01*
X70500Y45549D01*
X39000D01*
X38025Y45355D01*
X37198Y44802D01*
X27444Y35049D01*
X24917D01*
Y35469D01*
X13075D01*
Y29531D01*
X24917D01*
Y29951D01*
X28500D01*
X29476Y30145D01*
X30302Y30698D01*
X40056Y40451D01*
X69444D01*
X69951Y39944D01*
Y11925D01*
X69532D01*
Y1529D01*
X55468D01*
Y11925D01*
X53927D01*
Y21409D01*
X65270Y32752D01*
X65500Y32706D01*
X66378Y32880D01*
X67122Y33378D01*
X67619Y34122D01*
X67794Y35000D01*
X67619Y35878D01*
X67122Y36622D01*
X66378Y37119D01*
X65500Y37294D01*
X64622Y37119D01*
X63878Y36622D01*
X63381Y35878D01*
X63206Y35000D01*
X63252Y34770D01*
X51491Y23009D01*
X51181Y22546D01*
X51073Y22000D01*
X51073Y22000D01*
Y11925D01*
X49531D01*
Y1529D01*
X35469D01*
Y4577D01*
X41829D01*
X42122Y4381D01*
X43000Y4206D01*
X43878Y4381D01*
X44622Y4878D01*
X45120Y5622D01*
X45294Y6500D01*
X45120Y7378D01*
X44622Y8122D01*
X43878Y8619D01*
X43000Y8794D01*
X42122Y8619D01*
X41378Y8122D01*
X40916Y7431D01*
X35469D01*
Y11925D01*
X29531D01*
Y1529D01*
X15469D01*
Y5504D01*
X12500D01*
X9532D01*
Y1529D01*
X1529D01*
Y39531D01*
X11925D01*
Y45469D01*
X1529D01*
Y59531D01*
X11925D01*
Y60971D01*
X31367D01*
X31919Y60419D01*
D02*
G37*
%LPC*%
G36*
X182500Y256042D02*
X180382Y255875D01*
X178315Y255379D01*
X176352Y254566D01*
X174540Y253455D01*
X172924Y252076D01*
X171545Y250460D01*
X170434Y248648D01*
X169621Y246685D01*
X169125Y244618D01*
X168958Y242500D01*
X169125Y240382D01*
X169621Y238315D01*
X170434Y236352D01*
X171545Y234540D01*
X172924Y232925D01*
X174540Y231544D01*
X176352Y230434D01*
X178315Y229621D01*
X180382Y229125D01*
X182500Y228958D01*
X184618Y229125D01*
X186685Y229621D01*
X188648Y230434D01*
X190460Y231544D01*
X192076Y232925D01*
X193456Y234540D01*
X194566Y236352D01*
X195379Y238315D01*
X195875Y240382D01*
X196042Y242500D01*
X195875Y244618D01*
X195379Y246685D01*
X194566Y248648D01*
X193456Y250460D01*
X192076Y252076D01*
X190460Y253455D01*
X188648Y254566D01*
X186685Y255379D01*
X184618Y255875D01*
X182500Y256042D01*
D02*
G37*
G36*
X32500D02*
X30382Y255875D01*
X28315Y255379D01*
X26352Y254566D01*
X24540Y253455D01*
X22925Y252076D01*
X21544Y250460D01*
X20434Y248648D01*
X19621Y246685D01*
X19125Y244618D01*
X18958Y242500D01*
X19125Y240382D01*
X19621Y238315D01*
X20434Y236352D01*
X21544Y234540D01*
X22925Y232925D01*
X24540Y231544D01*
X26352Y230434D01*
X28315Y229621D01*
X30382Y229125D01*
X32500Y228958D01*
X34618Y229125D01*
X36685Y229621D01*
X38648Y230434D01*
X40460Y231544D01*
X42075Y232925D01*
X43455Y234540D01*
X44566Y236352D01*
X45379Y238315D01*
X45875Y240382D01*
X46042Y242500D01*
X45875Y244618D01*
X45379Y246685D01*
X44566Y248648D01*
X43455Y250460D01*
X42075Y252076D01*
X40460Y253455D01*
X38648Y254566D01*
X36685Y255379D01*
X34618Y255875D01*
X32500Y256042D01*
D02*
G37*
G36*
X201925Y225468D02*
X196504D01*
Y223000D01*
X201925D01*
Y225468D01*
D02*
G37*
G36*
X195504D02*
X190083D01*
Y223000D01*
X195504D01*
Y225468D01*
D02*
G37*
G36*
X201925Y222000D02*
X196504D01*
Y219531D01*
X201925D01*
Y222000D01*
D02*
G37*
G36*
X195504D02*
X190083D01*
Y219531D01*
X195504D01*
Y222000D01*
D02*
G37*
G36*
X24917Y215469D02*
X19496D01*
Y213000D01*
X24917D01*
Y215469D01*
D02*
G37*
G36*
X18496D02*
X13075D01*
Y213000D01*
X18496D01*
Y215469D01*
D02*
G37*
G36*
X24917Y212000D02*
X19496D01*
Y209531D01*
X24917D01*
Y212000D01*
D02*
G37*
G36*
X18496D02*
X13075D01*
Y209531D01*
X18496D01*
Y212000D01*
D02*
G37*
G36*
X24917Y195468D02*
X19496D01*
Y193000D01*
X24917D01*
Y195468D01*
D02*
G37*
G36*
X18496D02*
X13075D01*
Y193000D01*
X18496D01*
Y195468D01*
D02*
G37*
G36*
X24917Y192000D02*
X19496D01*
Y189532D01*
X24917D01*
Y192000D01*
D02*
G37*
G36*
X18496D02*
X13075D01*
Y189532D01*
X18496D01*
Y192000D01*
D02*
G37*
G36*
X67244Y188370D02*
X65268D01*
Y186000D01*
X67244D01*
Y188370D01*
D02*
G37*
G36*
X75732D02*
X70780D01*
Y186060D01*
X70720Y185991D01*
X70221Y186175D01*
Y188370D01*
X68244D01*
Y185500D01*
Y182630D01*
X70207D01*
X70221Y182630D01*
X70707Y182597D01*
Y181403D01*
X70221Y181370D01*
X70207Y181370D01*
X68244D01*
Y178500D01*
Y175630D01*
X70207D01*
X70221Y175630D01*
X70707Y175597D01*
Y174403D01*
X70221Y174370D01*
X70207Y174370D01*
X68244D01*
Y171500D01*
Y168630D01*
X70221D01*
Y170825D01*
X70720Y171009D01*
X70780Y170940D01*
Y168630D01*
X75732D01*
Y168951D01*
X77377D01*
X79257Y167071D01*
Y155243D01*
X75732D01*
Y158370D01*
X70780D01*
Y154304D01*
X70720Y154235D01*
X70221Y154419D01*
Y155000D01*
X68244D01*
Y152630D01*
X70207D01*
X70221Y152630D01*
X70707Y152597D01*
Y151403D01*
X70221Y151370D01*
X70207Y151370D01*
X68244D01*
Y148500D01*
Y145630D01*
X70221D01*
Y147825D01*
X70720Y148009D01*
X70780Y147940D01*
Y145630D01*
X71013D01*
Y141244D01*
X71184Y140386D01*
X71670Y139658D01*
X79635Y131693D01*
Y130000D01*
X79628D01*
Y123000D01*
X87372D01*
Y130000D01*
X87322D01*
X86912Y130500D01*
X86927Y130578D01*
X86927Y130578D01*
Y134248D01*
X87122Y134378D01*
X87619Y135122D01*
X87794Y136000D01*
X87619Y136878D01*
X87122Y137622D01*
X86378Y138119D01*
X85500Y138294D01*
X84622Y138119D01*
X83878Y137622D01*
X83381Y136878D01*
X83206Y136000D01*
X83381Y135122D01*
X83629Y134750D01*
X83240Y134432D01*
X75499Y142173D01*
Y145630D01*
X75732D01*
Y148135D01*
X75805Y148500D01*
Y150757D01*
X80152D01*
X80189Y150729D01*
X80821Y150467D01*
X81500Y150378D01*
X82179Y150467D01*
X82811Y150729D01*
X83354Y151146D01*
X83771Y151689D01*
X84033Y152321D01*
X84122Y153000D01*
X84033Y153679D01*
X83771Y154311D01*
X83743Y154348D01*
Y168000D01*
X83572Y168858D01*
X83086Y169586D01*
X80394Y172278D01*
X80355Y172476D01*
X79802Y173302D01*
X78975Y173855D01*
X78000Y174049D01*
X75805D01*
Y178500D01*
Y185500D01*
X75732Y185865D01*
Y188370D01*
D02*
G37*
G36*
X67244Y185000D02*
X65268D01*
Y182630D01*
X67244D01*
Y185000D01*
D02*
G37*
G36*
Y181370D02*
X65268D01*
Y179000D01*
X67244D01*
Y181370D01*
D02*
G37*
G36*
Y178000D02*
X65268D01*
Y175630D01*
X67244D01*
Y178000D01*
D02*
G37*
G36*
X24917Y175469D02*
X19496D01*
Y173000D01*
X24917D01*
Y175469D01*
D02*
G37*
G36*
X18496D02*
X13075D01*
Y173000D01*
X18496D01*
Y175469D01*
D02*
G37*
G36*
X67244Y174370D02*
X65268D01*
Y172000D01*
X67244D01*
Y174370D01*
D02*
G37*
G36*
X24917Y172000D02*
X19496D01*
Y169532D01*
X24917D01*
Y172000D01*
D02*
G37*
G36*
X18496D02*
X13075D01*
Y169532D01*
X18496D01*
Y172000D01*
D02*
G37*
G36*
X67244Y171000D02*
X65268D01*
Y168630D01*
X67244D01*
Y171000D01*
D02*
G37*
G36*
X61500Y169794D02*
X60622Y169620D01*
X59878Y169122D01*
X59381Y168378D01*
X59206Y167500D01*
X59252Y167270D01*
X55491Y163509D01*
X55181Y163046D01*
X55073Y162500D01*
X55073Y162500D01*
Y124252D01*
X54878Y124122D01*
X54381Y123378D01*
X54206Y122500D01*
X54381Y121622D01*
X54878Y120878D01*
X55622Y120380D01*
X56500Y120206D01*
X57378Y120380D01*
X57498Y120461D01*
X59034D01*
X59936Y119558D01*
X60598Y119116D01*
X60628Y119110D01*
Y116000D01*
X60839D01*
Y100122D01*
X60994Y99341D01*
X61436Y98680D01*
X62461Y97655D01*
Y95925D01*
X61532D01*
Y84083D01*
X67469D01*
Y95925D01*
X66539D01*
Y98500D01*
X66384Y99280D01*
X65942Y99942D01*
X64917Y100966D01*
Y103357D01*
X65417Y103564D01*
X66995Y101987D01*
X66995Y101987D01*
X67458Y101677D01*
X68004Y101569D01*
X68004Y101569D01*
X71531D01*
Y97075D01*
X77469D01*
Y108917D01*
X71531D01*
Y104423D01*
X68595D01*
X67427Y105591D01*
Y116000D01*
X68372D01*
Y123000D01*
X67427D01*
Y134248D01*
X67622Y134378D01*
X68119Y135122D01*
X68294Y136000D01*
X68119Y136878D01*
X67622Y137622D01*
X66878Y138119D01*
X66000Y138294D01*
X65122Y138119D01*
X64378Y137622D01*
X63881Y136878D01*
X63706Y136000D01*
X63881Y135122D01*
X64378Y134378D01*
X64573Y134248D01*
Y123000D01*
X62825D01*
X62628Y123039D01*
X62223D01*
X61320Y123942D01*
X60659Y124384D01*
X59878Y124539D01*
X57927D01*
Y161909D01*
X61270Y165252D01*
X61500Y165206D01*
X62378Y165381D01*
X63122Y165878D01*
X63619Y166622D01*
X63794Y167500D01*
X63619Y168378D01*
X63122Y169122D01*
X62378Y169620D01*
X61500Y169794D01*
D02*
G37*
G36*
X70221Y158370D02*
X68244D01*
Y156000D01*
X70221D01*
Y158370D01*
D02*
G37*
G36*
X67244D02*
X65268D01*
Y156000D01*
X67244D01*
Y158370D01*
D02*
G37*
G36*
Y155000D02*
X65268D01*
Y152630D01*
X67244D01*
Y155000D01*
D02*
G37*
G36*
X141232Y154370D02*
X139256D01*
Y152000D01*
X141232D01*
Y154370D01*
D02*
G37*
G36*
X67244Y151370D02*
X65268D01*
Y149000D01*
X67244D01*
Y151370D01*
D02*
G37*
G36*
X141232Y151000D02*
X139256D01*
Y148630D01*
X141232D01*
Y151000D01*
D02*
G37*
G36*
X67244Y148000D02*
X65268D01*
Y145630D01*
X67244D01*
Y148000D01*
D02*
G37*
G36*
X91000Y163294D02*
X90122Y163119D01*
X89378Y162622D01*
X88881Y161878D01*
X88706Y161000D01*
X88881Y160122D01*
X89378Y159378D01*
X89573Y159248D01*
Y137000D01*
X89573Y137000D01*
X89681Y136454D01*
X89991Y135991D01*
X103481Y122500D01*
X103352Y122000D01*
X102255D01*
Y118500D01*
Y115000D01*
X104073D01*
Y111500D01*
Y95925D01*
X102532D01*
Y84083D01*
X108468D01*
Y95925D01*
X106927D01*
Y111500D01*
Y115000D01*
X108571D01*
X111786Y111785D01*
X111730Y111500D01*
X111901Y110642D01*
X112387Y109914D01*
X112787Y109514D01*
X112852Y109417D01*
X112806Y109221D01*
X112667Y108917D01*
X112531D01*
Y97075D01*
X118468D01*
Y108917D01*
X117743D01*
Y110000D01*
X117572Y110858D01*
X117408Y111105D01*
X117486Y111500D01*
X117316Y112358D01*
X116829Y113086D01*
X110493Y119422D01*
Y122000D01*
X106427D01*
Y123000D01*
X106427Y123000D01*
X106319Y123546D01*
X106009Y124009D01*
X100136Y129883D01*
X100281Y130361D01*
X100378Y130380D01*
X101122Y130878D01*
X101252Y131073D01*
X108500D01*
X108500Y131073D01*
X109046Y131181D01*
X109509Y131491D01*
X109770Y131752D01*
X110000Y131706D01*
X110878Y131880D01*
X111622Y132378D01*
X112119Y133122D01*
X112294Y134000D01*
X112119Y134878D01*
X111622Y135622D01*
X110878Y136119D01*
X110000Y136294D01*
X109122Y136119D01*
X108378Y135622D01*
X107880Y134878D01*
X107706Y134000D01*
X107646Y133927D01*
X101252D01*
X101122Y134122D01*
X100378Y134619D01*
X99500Y134794D01*
X98622Y134619D01*
X97878Y134122D01*
X97381Y133378D01*
X97361Y133281D01*
X96883Y133136D01*
X92427Y137591D01*
Y150314D01*
X92889Y150506D01*
X96698Y146698D01*
X97524Y146145D01*
X98500Y145951D01*
X108444D01*
X117009Y137386D01*
X117836Y136834D01*
X118811Y136640D01*
X133244D01*
X134220Y136834D01*
X135047Y137386D01*
X135599Y138213D01*
X135793Y139189D01*
Y148597D01*
X136279Y148630D01*
X136293Y148630D01*
X138256D01*
Y151500D01*
Y154370D01*
X136279D01*
Y152175D01*
X135780Y151991D01*
X135721Y152060D01*
Y154370D01*
X130768D01*
Y154049D01*
X129058D01*
X128500Y154122D01*
X127821Y154033D01*
X127189Y153771D01*
X126646Y153354D01*
X126229Y152811D01*
X125967Y152179D01*
X125878Y151500D01*
X125967Y150821D01*
X126229Y150189D01*
X126646Y149646D01*
X127189Y149229D01*
X127821Y148967D01*
X128500Y148878D01*
X129058Y148951D01*
X130695D01*
Y141738D01*
X119867D01*
X111302Y150302D01*
X110476Y150855D01*
X109500Y151049D01*
X99556D01*
X95947Y154658D01*
X95604Y155104D01*
X95061Y155521D01*
X94429Y155783D01*
X93750Y155872D01*
X93071Y155783D01*
X92927Y155724D01*
X92427Y156058D01*
Y159248D01*
X92622Y159378D01*
X93119Y160122D01*
X93294Y161000D01*
X93119Y161878D01*
X92622Y162622D01*
X91878Y163119D01*
X91000Y163294D01*
D02*
G37*
G36*
X101000Y142794D02*
X100122Y142620D01*
X99378Y142122D01*
X98881Y141378D01*
X98706Y140500D01*
X98881Y139622D01*
X99378Y138878D01*
X100122Y138381D01*
X101000Y138206D01*
X101878Y138381D01*
X102622Y138878D01*
X102752Y139073D01*
X109659D01*
X120002Y128730D01*
X119956Y128500D01*
X120131Y127622D01*
X120628Y126878D01*
X121372Y126381D01*
X122250Y126206D01*
X123128Y126381D01*
X123872Y126878D01*
X124370Y127622D01*
X124544Y128500D01*
X124370Y129378D01*
X123872Y130122D01*
X123128Y130620D01*
X122250Y130794D01*
X122020Y130748D01*
X111259Y141509D01*
X110796Y141819D01*
X110250Y141927D01*
X110250Y141927D01*
X102752D01*
X102622Y142122D01*
X101878Y142620D01*
X101000Y142794D01*
D02*
G37*
G36*
X101256Y122000D02*
X99506D01*
Y119000D01*
X101256D01*
Y122000D01*
D02*
G37*
G36*
Y118000D02*
X99506D01*
Y115000D01*
X101256D01*
Y118000D01*
D02*
G37*
G36*
X98469Y108917D02*
X96000D01*
Y103496D01*
X98469D01*
Y108917D01*
D02*
G37*
G36*
X95000D02*
X92532D01*
Y103496D01*
X95000D01*
Y108917D01*
D02*
G37*
G36*
X98469Y102496D02*
X96000D01*
Y97075D01*
X98469D01*
Y102496D01*
D02*
G37*
G36*
X95000D02*
X92532D01*
Y97075D01*
X95000D01*
Y102496D01*
D02*
G37*
G36*
X208496Y195468D02*
X203075D01*
Y193000D01*
X208496D01*
Y195468D01*
D02*
G37*
G36*
Y192000D02*
X203075D01*
Y189532D01*
X208496D01*
Y192000D01*
D02*
G37*
G36*
X137670Y188644D02*
X135300D01*
Y186668D01*
X137670D01*
Y188644D01*
D02*
G37*
G36*
X134300D02*
X131930D01*
Y186668D01*
X134300D01*
Y188644D01*
D02*
G37*
G36*
X129670D02*
X127300D01*
Y186668D01*
X129670D01*
Y188644D01*
D02*
G37*
G36*
X126300D02*
X123930D01*
Y186668D01*
X126300D01*
Y188644D01*
D02*
G37*
G36*
X167500Y183427D02*
X167500Y183427D01*
X123000D01*
X122454Y183319D01*
X121991Y183009D01*
X121991Y183009D01*
X120730Y181748D01*
X120500Y181794D01*
X119622Y181620D01*
X118878Y181122D01*
X118380Y180378D01*
X118206Y179500D01*
X118380Y178622D01*
X118878Y177878D01*
X119622Y177381D01*
X120500Y177206D01*
X121378Y177381D01*
X122122Y177878D01*
X122619Y178622D01*
X122794Y179500D01*
X122748Y179730D01*
X123591Y180573D01*
X166909D01*
X174573Y172909D01*
Y93091D01*
X148909Y67427D01*
X38252D01*
X38122Y67622D01*
X37378Y68119D01*
X36500Y68294D01*
X35622Y68119D01*
X34878Y67622D01*
X34380Y66878D01*
X34206Y66000D01*
X34380Y65122D01*
X34878Y64378D01*
X35622Y63881D01*
X36500Y63706D01*
X37378Y63881D01*
X38122Y64378D01*
X38252Y64573D01*
X149500D01*
X149500Y64573D01*
X150046Y64681D01*
X150509Y64991D01*
X177009Y91491D01*
X177319Y91954D01*
X177427Y92500D01*
X177427Y92500D01*
Y173500D01*
X177427Y173500D01*
X177319Y174046D01*
X177009Y174509D01*
X177009Y174509D01*
X168509Y183009D01*
X168046Y183319D01*
X167500Y183427D01*
D02*
G37*
G36*
X165000Y179927D02*
X165000Y179927D01*
X135500D01*
X135500Y179927D01*
X134954Y179819D01*
X134491Y179509D01*
X134491Y179509D01*
X125111Y170130D01*
X124378Y170619D01*
X123500Y170794D01*
X122622Y170619D01*
X121878Y170122D01*
X121380Y169378D01*
X121206Y168500D01*
X121380Y167622D01*
X121878Y166878D01*
X122622Y166381D01*
X123500Y166206D01*
X124378Y166381D01*
X125122Y166878D01*
X125252Y167073D01*
X125500D01*
X125500Y167073D01*
X126046Y167181D01*
X126509Y167491D01*
X136091Y177073D01*
X164409D01*
X170573Y170909D01*
Y94591D01*
X146909Y70927D01*
X41091D01*
X30427Y81591D01*
Y89000D01*
X30427Y89000D01*
X30319Y89546D01*
X30009Y90009D01*
X30009Y90009D01*
X26509Y93509D01*
X26046Y93819D01*
X25500Y93927D01*
X25500Y93927D01*
X24917D01*
Y95468D01*
X13075D01*
Y89531D01*
X24917D01*
Y90411D01*
X25379Y90602D01*
X27573Y88409D01*
Y81000D01*
X27573Y81000D01*
X27681Y80454D01*
X27991Y79991D01*
X39491Y68491D01*
X39491Y68491D01*
X39954Y68181D01*
X40500Y68073D01*
X40500Y68073D01*
X147500D01*
X147500Y68073D01*
X148046Y68181D01*
X148509Y68491D01*
X173009Y92991D01*
X173009Y92991D01*
X173319Y93454D01*
X173427Y94000D01*
Y171500D01*
X173319Y172046D01*
X173009Y172509D01*
X173009Y172509D01*
X166009Y179509D01*
X165546Y179819D01*
X165000Y179927D01*
D02*
G37*
G36*
X201925Y165469D02*
X196504D01*
Y163000D01*
X201925D01*
Y165469D01*
D02*
G37*
G36*
X195504D02*
X190083D01*
Y163000D01*
X195504D01*
Y165469D01*
D02*
G37*
G36*
X201925Y162000D02*
X196504D01*
Y159531D01*
X201925D01*
Y162000D01*
D02*
G37*
G36*
X195504D02*
X190083D01*
Y159531D01*
X195504D01*
Y162000D01*
D02*
G37*
G36*
X201925Y145468D02*
X196504D01*
Y143000D01*
X201925D01*
Y145468D01*
D02*
G37*
G36*
X195504D02*
X190083D01*
Y143000D01*
X195504D01*
Y145468D01*
D02*
G37*
G36*
X201925Y142000D02*
X196504D01*
Y139532D01*
X201925D01*
Y142000D01*
D02*
G37*
G36*
X195504D02*
X190083D01*
Y139532D01*
X195504D01*
Y142000D01*
D02*
G37*
G36*
X208496Y135468D02*
X203075D01*
Y133000D01*
X208496D01*
Y135468D01*
D02*
G37*
G36*
X24917D02*
X13075D01*
Y129532D01*
X24917D01*
Y130667D01*
X25221Y130806D01*
X25417Y130851D01*
X26122Y130380D01*
X27000Y130206D01*
X27878Y130380D01*
X28622Y130878D01*
X29120Y131622D01*
X29294Y132500D01*
X29120Y133378D01*
X28622Y134122D01*
X27878Y134619D01*
X27000Y134794D01*
X26122Y134619D01*
X25417Y134149D01*
X25221Y134194D01*
X24917Y134333D01*
Y135468D01*
D02*
G37*
G36*
X208496Y132000D02*
X203075D01*
Y129532D01*
X208496D01*
Y132000D01*
D02*
G37*
G36*
X143755Y122000D02*
X142006D01*
Y119000D01*
X143755D01*
Y122000D01*
D02*
G37*
G36*
Y118000D02*
X142006D01*
Y115000D01*
X143755D01*
Y118000D01*
D02*
G37*
G36*
X140769Y108917D02*
X138300D01*
Y103496D01*
X140769D01*
Y108917D01*
D02*
G37*
G36*
X137300D02*
X134832D01*
Y103496D01*
X137300D01*
Y108917D01*
D02*
G37*
G36*
X201925Y105468D02*
X190083D01*
Y99532D01*
X201925D01*
Y105468D01*
D02*
G37*
G36*
X152993Y122000D02*
X144755D01*
Y118500D01*
Y115000D01*
X146073D01*
Y113252D01*
X145878Y113122D01*
X145380Y112378D01*
X145206Y111500D01*
X145380Y110622D01*
X145878Y109878D01*
X146073Y109748D01*
Y95925D01*
X144832D01*
Y84083D01*
X150768D01*
Y95925D01*
X148927D01*
Y109748D01*
X149122Y109878D01*
X149619Y110622D01*
X149794Y111500D01*
X149619Y112378D01*
X149122Y113122D01*
X148927Y113252D01*
Y115000D01*
X150328D01*
X154363Y110964D01*
X154428Y110642D01*
X154914Y109914D01*
X155233Y109595D01*
X155351Y109417D01*
X155306Y109221D01*
X155167Y108917D01*
X154832D01*
Y97075D01*
X160768D01*
Y108917D01*
X160243D01*
Y110000D01*
X160072Y110858D01*
X159586Y111586D01*
X159137Y112036D01*
X159072Y112358D01*
X158586Y113086D01*
X152993Y118679D01*
Y122000D01*
D02*
G37*
G36*
X140769Y102496D02*
X138300D01*
Y97075D01*
X140769D01*
Y102496D01*
D02*
G37*
G36*
X137300D02*
X134832D01*
Y97075D01*
X137300D01*
Y102496D01*
D02*
G37*
G36*
X11925Y85469D02*
X6504D01*
Y83000D01*
X11925D01*
Y85469D01*
D02*
G37*
G36*
X201925D02*
X190083D01*
Y79532D01*
X201925D01*
Y85469D01*
D02*
G37*
G36*
X11925Y82000D02*
X6504D01*
Y79532D01*
X11925D01*
Y82000D01*
D02*
G37*
G36*
X208496Y75468D02*
X203075D01*
Y73000D01*
X208496D01*
Y75468D01*
D02*
G37*
G36*
X24917D02*
X19496D01*
Y73000D01*
X24917D01*
Y75468D01*
D02*
G37*
G36*
X18496D02*
X13075D01*
Y73000D01*
X18496D01*
Y75468D01*
D02*
G37*
G36*
X208496Y72000D02*
X203075D01*
Y69532D01*
X208496D01*
Y72000D01*
D02*
G37*
G36*
X24917D02*
X19496D01*
Y69532D01*
X24917D01*
Y72000D01*
D02*
G37*
G36*
X18496D02*
X13075D01*
Y69532D01*
X18496D01*
Y72000D01*
D02*
G37*
G36*
X201925Y65469D02*
X196504D01*
Y63000D01*
X201925D01*
Y65469D01*
D02*
G37*
G36*
X195504D02*
X190083D01*
Y63000D01*
X195504D01*
Y65469D01*
D02*
G37*
G36*
X201925Y62000D02*
X196504D01*
Y59531D01*
X201925D01*
Y62000D01*
D02*
G37*
G36*
X195504D02*
X190083D01*
Y59531D01*
X195504D01*
Y62000D01*
D02*
G37*
G36*
X144175Y48497D02*
X143347D01*
Y46000D01*
X145646D01*
Y47026D01*
X145534Y47589D01*
X145215Y48066D01*
X144738Y48385D01*
X144175Y48497D01*
D02*
G37*
G36*
X201925Y45469D02*
X190083D01*
Y43927D01*
X189252D01*
X189122Y44122D01*
X188378Y44620D01*
X187500Y44794D01*
X186622Y44620D01*
X185878Y44122D01*
X185380Y43378D01*
X185206Y42500D01*
X185380Y41622D01*
X185878Y40878D01*
X186622Y40380D01*
X187500Y40206D01*
X188378Y40380D01*
X189122Y40878D01*
X189252Y41073D01*
X190083D01*
Y39531D01*
X201925D01*
Y45469D01*
D02*
G37*
G36*
X145646Y45000D02*
X143347D01*
Y42503D01*
X144175D01*
X144738Y42615D01*
X145215Y42934D01*
X145534Y43411D01*
X145646Y43974D01*
Y45000D01*
D02*
G37*
G36*
X142347Y41497D02*
X141518D01*
X140955Y41385D01*
X140762Y41256D01*
X138238D01*
X138045Y41385D01*
X137482Y41497D01*
X134825D01*
X134262Y41385D01*
X133784Y41066D01*
X133466Y40589D01*
X133354Y40026D01*
Y37522D01*
X132605Y36773D01*
X132500Y36794D01*
X131622Y36619D01*
X130878Y36122D01*
X130380Y35378D01*
X130206Y34500D01*
X130380Y33622D01*
X130878Y32878D01*
X131622Y32381D01*
X132500Y32206D01*
X133378Y32381D01*
X134122Y32878D01*
X134619Y33622D01*
X134794Y34500D01*
X134724Y34855D01*
X135372Y35503D01*
X137482D01*
X138045Y35615D01*
X138238Y35744D01*
X140762D01*
X140955Y35615D01*
X141518Y35503D01*
X142347D01*
Y38500D01*
Y41497D01*
D02*
G37*
G36*
X144175D02*
X143347D01*
Y39000D01*
X145646D01*
Y40026D01*
X145534Y40589D01*
X145215Y41066D01*
X144738Y41385D01*
X144175Y41497D01*
D02*
G37*
G36*
X145646Y38000D02*
X143347D01*
Y35503D01*
X144175D01*
X144738Y35615D01*
X145215Y35934D01*
X145534Y36411D01*
X145646Y36974D01*
Y38000D01*
D02*
G37*
G36*
X205469Y24917D02*
X199531D01*
Y13075D01*
X205469D01*
Y24917D01*
D02*
G37*
G36*
X185468D02*
X179532D01*
Y13075D01*
X185468D01*
Y24917D01*
D02*
G37*
G36*
X165469D02*
X159531D01*
Y13075D01*
X165469D01*
Y24917D01*
D02*
G37*
G36*
X37000Y59294D02*
X36122Y59119D01*
X35378Y58622D01*
X34881Y57878D01*
X34706Y57000D01*
X34752Y56770D01*
X31909Y53927D01*
X24917D01*
Y55468D01*
X13075D01*
Y49531D01*
X24917D01*
Y51073D01*
X32500D01*
X32500Y51073D01*
X33046Y51181D01*
X33509Y51491D01*
X36770Y54752D01*
X37000Y54706D01*
X37878Y54881D01*
X38622Y55378D01*
X39119Y56122D01*
X39294Y57000D01*
X39119Y57878D01*
X38622Y58622D01*
X37878Y59119D01*
X37000Y59294D01*
D02*
G37*
G36*
X102500Y56042D02*
X100382Y55875D01*
X98315Y55379D01*
X96352Y54566D01*
X94540Y53456D01*
X92924Y52075D01*
X91545Y50460D01*
X90434Y48648D01*
X89621Y46685D01*
X89125Y44618D01*
X88958Y42500D01*
X89125Y40382D01*
X89621Y38315D01*
X90434Y36352D01*
X91545Y34540D01*
X92924Y32925D01*
X94540Y31545D01*
X96352Y30434D01*
X98315Y29621D01*
X100382Y29125D01*
X102500Y28958D01*
X104618Y29125D01*
X106685Y29621D01*
X108648Y30434D01*
X110460Y31545D01*
X112075Y32925D01*
X113455Y34540D01*
X114566Y36352D01*
X115379Y38315D01*
X115875Y40382D01*
X116042Y42500D01*
X115875Y44618D01*
X115379Y46685D01*
X114566Y48648D01*
X113455Y50460D01*
X112075Y52075D01*
X110460Y53456D01*
X108648Y54566D01*
X106685Y55379D01*
X104618Y55875D01*
X102500Y56042D01*
D02*
G37*
G36*
X28000Y27794D02*
X27122Y27619D01*
X26378Y27122D01*
X25881Y26378D01*
X25706Y25500D01*
X25752Y25270D01*
X25399Y24917D01*
X19532D01*
Y13075D01*
X25469D01*
Y20950D01*
X27770Y23252D01*
X28000Y23206D01*
X28878Y23381D01*
X29622Y23878D01*
X30119Y24622D01*
X30294Y25500D01*
X30119Y26378D01*
X29622Y27122D01*
X28878Y27619D01*
X28000Y27794D01*
D02*
G37*
G36*
X105468Y24917D02*
X103000D01*
Y19496D01*
X105468D01*
Y24917D01*
D02*
G37*
G36*
X102000D02*
X99532D01*
Y19496D01*
X102000D01*
Y24917D01*
D02*
G37*
G36*
X105468Y18496D02*
X103000D01*
Y13075D01*
X105468D01*
Y18496D01*
D02*
G37*
G36*
X102000D02*
X99532D01*
Y13075D01*
X102000D01*
Y18496D01*
D02*
G37*
G36*
X56500Y58794D02*
X55622Y58619D01*
X54878Y58122D01*
X54381Y57378D01*
X54206Y56500D01*
X54381Y55622D01*
X54878Y54878D01*
X55622Y54381D01*
X56500Y54206D01*
X57378Y54381D01*
X57498Y54461D01*
X69655D01*
X80461Y43655D01*
Y24917D01*
X79532D01*
Y13075D01*
X85469D01*
Y24917D01*
X84539D01*
Y44500D01*
X84384Y45280D01*
X83942Y45942D01*
X71942Y57942D01*
X71280Y58384D01*
X70500Y58539D01*
X57498D01*
X57378Y58619D01*
X56500Y58794D01*
D02*
G37*
G36*
X66500Y29794D02*
X65622Y29620D01*
X64878Y29122D01*
X64381Y28378D01*
X64206Y27500D01*
X64381Y26622D01*
X64691Y26158D01*
X63450Y24917D01*
X59531D01*
Y13075D01*
X65469D01*
Y22899D01*
X67509Y24939D01*
X67509Y24939D01*
X67695Y25217D01*
X67819Y25403D01*
X67881Y25717D01*
X68122Y25878D01*
X68619Y26622D01*
X68794Y27500D01*
X68619Y28378D01*
X68122Y29122D01*
X67378Y29620D01*
X66500Y29794D01*
D02*
G37*
G36*
X42500Y31294D02*
X41622Y31119D01*
X40878Y30622D01*
X40380Y29878D01*
X40206Y29000D01*
X40380Y28122D01*
X40878Y27378D01*
X41073Y27248D01*
Y24917D01*
X39531D01*
Y13075D01*
X45469D01*
Y24917D01*
X43927D01*
Y27248D01*
X44122Y27378D01*
X44620Y28122D01*
X44794Y29000D01*
X44620Y29878D01*
X44122Y30622D01*
X43378Y31119D01*
X42500Y31294D01*
D02*
G37*
G36*
X95468Y11925D02*
X93000D01*
Y6504D01*
X95468D01*
Y11925D01*
D02*
G37*
G36*
X15469D02*
X13000D01*
Y6504D01*
X15469D01*
Y11925D01*
D02*
G37*
G36*
X92000D02*
X89531D01*
Y6504D01*
X92000D01*
Y11925D01*
D02*
G37*
G36*
X12000D02*
X9532D01*
Y6504D01*
X12000D01*
Y11925D01*
D02*
G37*
%LPD*%
D11*
X112500Y6004D02*
Y21949D01*
X33000Y61500D02*
X65000D01*
X32000Y62500D02*
X33000Y61500D01*
X6004Y62500D02*
X32000D01*
X65000Y61500D02*
X119500D01*
X127000Y54000D01*
Y46000D02*
Y54000D01*
Y36500D02*
Y46000D01*
X127500Y45500D01*
X136153D01*
X115000Y24449D02*
Y24500D01*
X112500Y21949D02*
X115000Y24449D01*
Y24500D02*
X127000Y36500D01*
X136153Y45500D02*
Y45697D01*
D12*
X0Y0D02*
X215000D01*
X215000Y258500D02*
X215000Y0D01*
X-0Y258500D02*
X215000D01*
X-0D02*
X0Y0D01*
D14*
X192500Y52500D02*
X208996D01*
X187500Y42500D02*
X196004D01*
X186000Y32500D02*
X208996D01*
X132500Y6004D02*
Y15000D01*
Y34500D02*
Y34650D01*
X66500Y25949D02*
Y27500D01*
X62500Y18996D02*
Y21949D01*
X66500Y25949D01*
X42504Y6004D02*
X43000Y6500D01*
X32500Y6004D02*
X42504D01*
X42500Y18996D02*
Y29000D01*
X32500Y52500D02*
X37000Y57000D01*
X18996Y52500D02*
X32500D01*
X22500Y20000D02*
X28000Y25500D01*
X6004Y102500D02*
X29000D01*
X5000D02*
X6004D01*
X18996Y132500D02*
X27000D01*
X17000D02*
X18996D01*
X44000Y90000D02*
Y150000D01*
Y90000D02*
X55500Y78500D01*
X41500Y152500D02*
X44000Y150000D01*
X18996Y152500D02*
X41500D01*
X43500Y73000D02*
X146000D01*
X123000Y75000D02*
X131000Y83000D01*
X121000Y78500D02*
X126500Y84000D01*
X58500Y82000D02*
X118481D01*
X55500Y78500D02*
X121000D01*
X34000Y82500D02*
X43500Y73000D01*
X146000D02*
X166000Y93000D01*
X49000Y91500D02*
X58500Y82000D01*
X118481D02*
X123000Y86519D01*
X50500Y75000D02*
X123000D01*
X39000Y86500D02*
X50500Y75000D01*
X147500Y111500D02*
Y118500D01*
X131000Y83000D02*
Y116500D01*
X158500Y144000D02*
Y167500D01*
X131000Y116500D02*
X158500Y144000D01*
X126500Y84000D02*
Y117000D01*
X152000Y142500D02*
Y154000D01*
X126500Y117000D02*
X152000Y142500D01*
X105000Y118500D02*
Y123000D01*
X91000Y137000D02*
Y161000D01*
Y137000D02*
X105000Y123000D01*
X66000Y105000D02*
Y136000D01*
X113500Y169000D02*
X114500Y168000D01*
Y151000D02*
Y168000D01*
Y151000D02*
X120500Y145000D01*
X127000D01*
X123000Y148500D02*
Y155500D01*
Y148500D02*
X124000Y147500D01*
X147500Y69500D02*
X172000Y94000D01*
X40500Y69500D02*
X147500D01*
X29000Y81000D02*
X40500Y69500D01*
X149500Y66000D02*
X176000Y92500D01*
X36500Y66000D02*
X149500D01*
X123000Y86519D02*
Y118000D01*
X85500Y130578D02*
Y136000D01*
X85122Y130200D02*
X85500Y130578D01*
X85122Y126500D02*
Y130200D01*
X52500Y22000D02*
X65500Y35000D01*
X52500Y6004D02*
Y22000D01*
X147500Y90304D02*
X147800Y90004D01*
X147500Y90304D02*
Y111500D01*
X105500D02*
Y117000D01*
Y90004D02*
Y111500D01*
X66000Y105000D02*
X68004Y102996D01*
X74500D01*
X56500Y122500D02*
Y162500D01*
X29000Y81000D02*
Y89000D01*
X6004Y142500D02*
X27000D01*
X132500Y34650D02*
X136153Y38303D01*
X187500Y57500D02*
X192500Y52500D01*
X181500Y37000D02*
X186000Y32500D01*
X136153Y38303D02*
Y38500D01*
X119000Y155000D02*
Y169000D01*
X113600Y174400D02*
X119000Y169000D01*
X108900Y174400D02*
X113600D01*
X45346Y202500D02*
X49500D01*
X6004D02*
X38653D01*
X49000Y91500D02*
Y158500D01*
X34000Y82500D02*
Y97500D01*
X39000Y86500D02*
Y108000D01*
X6004Y162500D02*
X45000D01*
X123000Y182000D02*
X167500D01*
X120500Y179500D02*
X123000Y182000D01*
X167500D02*
X176000Y173500D01*
X135500Y178500D02*
X165000D01*
X125500Y168500D02*
X135500Y178500D01*
X123500Y168500D02*
X125500D01*
X108500Y132500D02*
X110000Y134000D01*
X99500Y132500D02*
X108500D01*
X110250Y140500D02*
X122250Y128500D01*
X101000Y140500D02*
X110250D01*
X56500Y162500D02*
X61500Y167500D01*
X106618Y169000D02*
X113500D01*
X104309Y171309D02*
X106618Y169000D01*
X165000Y178500D02*
X172000Y171500D01*
X148500Y143500D02*
Y152500D01*
X123000Y118000D02*
X148500Y143500D01*
X143500Y162500D02*
X152000Y154000D01*
X126460Y162500D02*
X143500D01*
X123460Y159500D02*
X126460Y162500D01*
X156500Y169500D02*
X158500Y167500D01*
X136500Y169500D02*
X156500D01*
X166000Y93000D02*
Y171000D01*
X163000Y174000D02*
X166000Y171000D01*
X141500Y174000D02*
X163000D01*
X34500Y112500D02*
X39000Y108000D01*
X18996Y112500D02*
X34500D01*
X29000Y102500D02*
X34000Y97500D01*
X25500Y92500D02*
X29000Y89000D01*
X18996Y92500D02*
X25500D01*
X176000D02*
Y173500D01*
X172000Y94000D02*
Y171500D01*
X123000Y159500D02*
X123460D01*
X143000Y158000D02*
X148500Y152500D01*
X128500Y158000D02*
X143000D01*
X45000Y162500D02*
X49000Y158500D01*
D18*
X190000Y174500D02*
Y182500D01*
X115746Y194600D02*
X177900D01*
X142500Y21949D02*
Y27000D01*
Y18996D02*
Y21949D01*
X142032Y22417D02*
X142500Y21949D01*
X122968Y22417D02*
X142032D01*
X122968Y22000D02*
Y22417D01*
X122500Y18996D02*
Y21531D01*
X122968Y22000D01*
X163500Y39500D02*
Y72000D01*
X154500Y30500D02*
X163500Y39500D01*
X146000Y30500D02*
X154500D01*
X73256Y148500D02*
Y153744D01*
X72500Y6004D02*
Y40875D01*
Y41000D01*
X70500Y43000D02*
X72500Y41000D01*
X39000Y43000D02*
X70500D01*
X28500Y32500D02*
X39000Y43000D01*
X133244Y139189D02*
Y151500D01*
X118811Y139189D02*
X133244D01*
X18996Y32500D02*
X28500D01*
X142500Y27000D02*
X146000Y30500D01*
X169000Y72000D02*
X189500Y92500D01*
X163500Y72000D02*
X169000D01*
X192000Y172500D02*
X196004D01*
X190000Y174500D02*
X192000Y172500D01*
X190000Y182500D02*
X196004D01*
X177900Y194600D02*
X190000Y182500D01*
X73256Y171500D02*
X78000D01*
X73256Y178500D02*
Y185500D01*
Y171500D02*
Y178500D01*
X128500Y151500D02*
X133244D01*
X189500Y92500D02*
X208996D01*
X109500Y148500D02*
X118811Y139189D01*
X98500Y148500D02*
X109500D01*
X93750Y153250D02*
X98500Y148500D01*
D20*
X196004Y222500D02*
X205500D01*
X200000Y192500D02*
X208996D01*
X12500Y15000D02*
Y15027D01*
X13000Y15527D01*
Y6004D02*
Y15527D01*
X156500Y111500D02*
X157000D01*
X108243Y118500D02*
X115243Y111500D01*
X113973D02*
X115243D01*
X151000Y117500D02*
X157000Y111500D01*
X114473Y111000D02*
X114500D01*
X113973Y111500D02*
X114473Y111000D01*
X74000Y153000D02*
X81500D01*
X73256Y153744D02*
X74000Y153000D01*
X73256Y153744D02*
Y155500D01*
X78000Y171500D02*
X81500Y168000D01*
Y153000D02*
Y168000D01*
X7000Y81000D02*
X8500Y82500D01*
X18996D01*
X7000Y73269D02*
Y81000D01*
X6231Y72500D02*
X7000Y73269D01*
X6004Y72500D02*
X6231D01*
X73256Y141244D02*
Y148500D01*
Y141244D02*
X81878Y132622D01*
Y126500D02*
Y132622D01*
X157000Y111000D02*
X158000Y110000D01*
X156500Y111500D02*
X157000Y111000D01*
X114500D02*
X115500Y110000D01*
X158000Y103196D02*
Y110000D01*
X157800Y102996D02*
X158000Y103196D01*
X115500Y102996D02*
Y110000D01*
D21*
X113700Y212500D02*
X208996D01*
X181000Y202500D02*
X196004D01*
X196004Y172500D02*
X208996D01*
X196004Y142500D02*
X206000D01*
X199000Y132500D02*
X208996D01*
X200000Y72500D02*
X208996D01*
X199008Y62500D02*
X205500D01*
X102500Y9000D02*
Y18996D01*
X92500Y6004D02*
Y17500D01*
X82500Y18996D02*
Y44500D01*
X18996Y72500D02*
X27500D01*
X62878Y119500D02*
Y120750D01*
Y100122D02*
Y119500D01*
X18996Y172500D02*
X29000D01*
X18996Y192500D02*
X28000D01*
X18996Y212500D02*
X19000Y212496D01*
Y207500D02*
Y212496D01*
X138505Y111500D02*
X144255Y117250D01*
X138750Y110750D02*
X139500Y111500D01*
X95500Y107500D02*
X102000Y114000D01*
X101755Y118500D02*
X102000Y118255D01*
Y114000D02*
Y118255D01*
X95500Y102996D02*
Y107500D01*
X56500Y122500D02*
X59878D01*
X62628Y121000D02*
X62878Y120750D01*
X61378Y121000D02*
X62628D01*
X59878Y122500D02*
X61378Y121000D01*
X62878Y100122D02*
X64500Y98500D01*
X56500Y56500D02*
X70500D01*
X82500Y44500D01*
X176100Y207400D02*
X181000Y202500D01*
X118000Y207400D02*
X176100D01*
X95500Y96000D02*
Y102996D01*
X61500Y178500D02*
X67744D01*
X61500Y185500D02*
X67744D01*
X61500Y171500D02*
X67744D01*
X138000Y103196D02*
Y110000D01*
X137800Y102996D02*
X138000Y103196D01*
Y110000D02*
X138750Y110750D01*
X138505Y111500D02*
X139500D01*
X64500Y90004D02*
Y98500D01*
X7500Y122500D02*
X26000D01*
X115746Y205147D02*
X118000Y207400D01*
X115746Y194600D02*
Y205147D01*
X108900Y174400D02*
Y207700D01*
X113700Y212500D01*
X67744Y178500D02*
Y185500D01*
Y171500D02*
Y178500D01*
X138756Y151500D02*
X144000D01*
X142847Y38500D02*
X148000D01*
X142847Y45500D02*
X148000D01*
X144255Y117250D02*
Y118500D01*
D22*
X102500Y42500D02*
D03*
X32500Y242500D02*
D03*
X182500D02*
D03*
D23*
X206000Y142500D02*
D03*
X199000Y132500D02*
D03*
X200000Y72500D02*
D03*
X205500Y62500D02*
D03*
X187500Y42500D02*
D03*
X132500Y34500D02*
D03*
Y15000D02*
D03*
X102500Y9000D02*
D03*
X92500Y17500D02*
D03*
X66500Y27500D02*
D03*
X43000Y6500D02*
D03*
X42500Y29000D02*
D03*
X36500Y66000D02*
D03*
X37000Y57000D02*
D03*
X27500Y72500D02*
D03*
X29000Y172500D02*
D03*
X28000Y192500D02*
D03*
X205500Y222500D02*
D03*
X200000Y192500D02*
D03*
X12500Y15000D02*
D03*
X28000Y25500D02*
D03*
X18996Y82500D02*
D03*
X27000Y132500D02*
D03*
X147500Y111500D02*
D03*
X74000Y118000D02*
D03*
X99500Y144000D02*
D03*
X56500Y56500D02*
D03*
X127000Y145000D02*
D03*
X65000Y61500D02*
D03*
X19000Y207500D02*
D03*
X95500Y96000D02*
D03*
X138750Y110750D02*
D03*
X61500Y178500D02*
D03*
X126600Y185000D02*
D03*
X85500Y136000D02*
D03*
X65500Y35000D02*
D03*
X133244Y139189D02*
D03*
X157000Y111000D02*
D03*
X114500D02*
D03*
X26000Y122500D02*
D03*
X56500D02*
D03*
X27000Y142500D02*
D03*
X187500Y57500D02*
D03*
X181500Y37000D02*
D03*
X121500Y189000D02*
D03*
X124000Y147500D02*
D03*
X119000Y155000D02*
D03*
X123000Y155500D02*
D03*
X49500Y202500D02*
D03*
X139500Y189000D02*
D03*
X110000Y134000D02*
D03*
X195500Y47000D02*
D03*
X38500Y137500D02*
D03*
X81000Y146000D02*
D03*
X61500Y167500D02*
D03*
X108900Y174400D02*
D03*
X104309Y171309D02*
D03*
X134600Y185000D02*
D03*
X136500Y169500D02*
D03*
X141500Y174000D02*
D03*
X123500Y168500D02*
D03*
X120500Y179500D02*
D03*
X128500Y158000D02*
D03*
X144000Y151500D02*
D03*
X148000Y38500D02*
D03*
Y45500D02*
D03*
X63000Y148500D02*
D03*
X122250Y128500D02*
D03*
X101000Y140500D02*
D03*
X99500Y132500D02*
D03*
X78000Y171500D02*
D03*
X88000Y156000D02*
D03*
X91000Y161000D02*
D03*
X66000Y136000D02*
D03*
X123000Y159500D02*
D03*
X61500Y171500D02*
D03*
X96500Y168500D02*
D03*
X95574Y160937D02*
D03*
X61500Y185500D02*
D03*
X63000Y155500D02*
D03*
D24*
X81500Y153000D02*
D03*
X72500Y40875D02*
D03*
X128500Y151500D02*
D03*
X163500Y72000D02*
D03*
X93750Y153250D02*
D03*
D25*
X208996Y32500D02*
D03*
Y52500D02*
D03*
Y72500D02*
D03*
Y112500D02*
D03*
Y132500D02*
D03*
Y172500D02*
D03*
Y192500D02*
D03*
Y212500D02*
D03*
Y92500D02*
D03*
Y152500D02*
D03*
X6004Y42500D02*
D03*
Y82500D02*
D03*
Y122500D02*
D03*
Y162500D02*
D03*
Y202500D02*
D03*
X196004Y42500D02*
D03*
Y82500D02*
D03*
Y122500D02*
D03*
Y162500D02*
D03*
Y202500D02*
D03*
X6004Y62500D02*
D03*
Y102500D02*
D03*
Y142500D02*
D03*
Y182500D02*
D03*
Y222500D02*
D03*
X196004Y62500D02*
D03*
Y102500D02*
D03*
Y142500D02*
D03*
Y182500D02*
D03*
Y222500D02*
D03*
X18996Y52500D02*
D03*
Y32500D02*
D03*
Y72500D02*
D03*
Y112500D02*
D03*
Y132500D02*
D03*
Y172500D02*
D03*
Y212500D02*
D03*
Y192500D02*
D03*
Y92500D02*
D03*
Y152500D02*
D03*
D26*
X32500Y6004D02*
D03*
X72500D02*
D03*
X112500D02*
D03*
X152500D02*
D03*
X192500D02*
D03*
X12500D02*
D03*
X22500Y18996D02*
D03*
X52500Y6004D02*
D03*
X62500Y18996D02*
D03*
X82500D02*
D03*
X92500Y6004D02*
D03*
X122500Y18996D02*
D03*
X132500Y6004D02*
D03*
X142500Y18996D02*
D03*
X162500D02*
D03*
X172500Y6004D02*
D03*
X182500Y18996D02*
D03*
X42500D02*
D03*
X102500D02*
D03*
X202500D02*
D03*
X74500Y102996D02*
D03*
X64500Y90004D02*
D03*
X115500Y102996D02*
D03*
X95500D02*
D03*
X105500Y90004D02*
D03*
X157800Y102996D02*
D03*
X137800D02*
D03*
X147800Y90004D02*
D03*
D27*
X134800Y194656D02*
D03*
Y189144D02*
D03*
X126800Y194656D02*
D03*
Y189144D02*
D03*
D28*
X115746Y194600D02*
D03*
X109054D02*
D03*
X45346Y202500D02*
D03*
X38653D02*
D03*
X136153Y38500D02*
D03*
X142847D02*
D03*
X136153Y45500D02*
D03*
X142847D02*
D03*
D29*
X133244Y151500D02*
D03*
X138756D02*
D03*
X73256Y171500D02*
D03*
X67744D02*
D03*
X73256Y178500D02*
D03*
X67744D02*
D03*
X73256Y185500D02*
D03*
X67744D02*
D03*
X73256Y148500D02*
D03*
X67744D02*
D03*
X73256Y155500D02*
D03*
X67744D02*
D03*
D30*
X85122Y126500D02*
D03*
X81878D02*
D03*
X66122Y119500D02*
D03*
X62878D02*
D03*
X101755Y118500D02*
D03*
X105000D02*
D03*
X108243D02*
D03*
X144255D02*
D03*
X147500D02*
D03*
X150743D02*
D03*
D31*
X187333Y152500D02*
X208996D01*
X189000Y122500D02*
X196004D01*
X63000Y148500D02*
X67744D01*
X63000Y155500D02*
X67744D01*
X134600Y189144D02*
X134800Y189344D01*
X134600Y185000D02*
Y189144D01*
X134944Y189000D02*
X139500D01*
X134800Y189144D02*
X134944Y189000D01*
X126600Y185000D02*
Y189144D01*
X121500Y189000D02*
X126456D01*
X126600Y189144D01*
X185000Y126500D02*
X189000Y122500D01*
X185000Y126500D02*
Y150167D01*
X187333Y152500D01*
M02*
