G04 Layer_Color=8388736*
%FSLAX25Y25*%
%MOIN*%
G70*
G01*
G75*
%ADD32R,0.07087X0.06299*%
%ADD33R,0.10236X0.06299*%
%ADD34R,0.03300X0.05800*%
%ADD35R,0.04540X0.03753*%
%ADD36R,0.03753X0.04540*%
%ADD37R,0.01981X0.05524*%
%ADD38R,0.05524X0.01981*%
G04:AMPARAMS|DCode=39|XSize=47.37mil|YSize=43.43mil|CornerRadius=8.43mil|HoleSize=0mil|Usage=FLASHONLY|Rotation=90.000|XOffset=0mil|YOffset=0mil|HoleType=Round|Shape=RoundedRectangle|*
%AMROUNDEDRECTD39*
21,1,0.04737,0.02657,0,0,90.0*
21,1,0.03051,0.04343,0,0,90.0*
1,1,0.01686,0.01329,0.01526*
1,1,0.01686,0.01329,-0.01526*
1,1,0.01686,-0.01329,-0.01526*
1,1,0.01686,-0.01329,0.01526*
%
%ADD39ROUNDEDRECTD39*%
G04:AMPARAMS|DCode=40|XSize=47.37mil|YSize=43.43mil|CornerRadius=8.43mil|HoleSize=0mil|Usage=FLASHONLY|Rotation=0.000|XOffset=0mil|YOffset=0mil|HoleType=Round|Shape=RoundedRectangle|*
%AMROUNDEDRECTD40*
21,1,0.04737,0.02657,0,0,0.0*
21,1,0.03051,0.04343,0,0,0.0*
1,1,0.01686,0.01526,-0.01329*
1,1,0.01686,-0.01526,-0.01329*
1,1,0.01686,-0.01526,0.01329*
1,1,0.01686,0.01526,0.01329*
%
%ADD40ROUNDEDRECTD40*%
%ADD41C,0.00800*%
%ADD42C,0.25800*%
%ADD43O,0.11800X0.06800*%
%ADD44R,0.11800X0.06800*%
%ADD45O,0.06800X0.11800*%
%ADD46R,0.06800X0.11800*%
D32*
X63000Y143000D02*
D03*
X138878Y201000D02*
D03*
X269000Y143000D02*
D03*
X344878Y201000D02*
D03*
X63000Y397500D02*
D03*
X138878Y455500D02*
D03*
X269000Y397500D02*
D03*
X344878Y455500D02*
D03*
D33*
X167804Y122500D02*
D03*
X100953Y201000D02*
D03*
X373803Y122500D02*
D03*
X306953Y201000D02*
D03*
X167804Y377000D02*
D03*
X100953Y455500D02*
D03*
X373803Y377000D02*
D03*
X306953Y455500D02*
D03*
D34*
X61378Y143000D02*
D03*
X64622D02*
D03*
X164512Y122500D02*
D03*
X167757D02*
D03*
X171000D02*
D03*
X104244Y201000D02*
D03*
X101000D02*
D03*
X97757D02*
D03*
X137257D02*
D03*
X140500D02*
D03*
X267378Y143000D02*
D03*
X270622D02*
D03*
X370512Y122500D02*
D03*
X373757D02*
D03*
X377000D02*
D03*
X310244Y201000D02*
D03*
X307000D02*
D03*
X303757D02*
D03*
X343257D02*
D03*
X346500D02*
D03*
X61378Y397500D02*
D03*
X64622D02*
D03*
X164512Y377000D02*
D03*
X167757D02*
D03*
X171000D02*
D03*
X104244Y455500D02*
D03*
X101000D02*
D03*
X97757D02*
D03*
X137257D02*
D03*
X140500D02*
D03*
X267378Y397500D02*
D03*
X270622D02*
D03*
X370512Y377000D02*
D03*
X373757D02*
D03*
X377000D02*
D03*
X310244Y455500D02*
D03*
X307000D02*
D03*
X303757D02*
D03*
X343257D02*
D03*
X346500D02*
D03*
D35*
X37000Y37744D02*
D03*
Y43256D02*
D03*
X165500Y197756D02*
D03*
Y192244D02*
D03*
X173500Y197756D02*
D03*
Y192244D02*
D03*
X116500Y119256D02*
D03*
Y113744D02*
D03*
X72500Y132756D02*
D03*
Y127244D02*
D03*
X176500Y83500D02*
D03*
Y77988D02*
D03*
X243000Y37744D02*
D03*
Y43256D02*
D03*
X371500Y197756D02*
D03*
Y192244D02*
D03*
X379500Y197756D02*
D03*
Y192244D02*
D03*
X322500Y119256D02*
D03*
Y113744D02*
D03*
X278500Y132756D02*
D03*
Y127244D02*
D03*
X382500Y83500D02*
D03*
Y77988D02*
D03*
X37000Y292244D02*
D03*
Y297756D02*
D03*
X165500Y452256D02*
D03*
Y446744D02*
D03*
X173500Y452256D02*
D03*
Y446744D02*
D03*
X116500Y373756D02*
D03*
Y368244D02*
D03*
X72500Y387256D02*
D03*
Y381744D02*
D03*
X176500Y338000D02*
D03*
Y332488D02*
D03*
X243000Y292244D02*
D03*
Y297756D02*
D03*
X371500Y452256D02*
D03*
Y446744D02*
D03*
X379500Y452256D02*
D03*
Y446744D02*
D03*
X322500Y373756D02*
D03*
Y368244D02*
D03*
X278500Y387256D02*
D03*
Y381744D02*
D03*
X382500Y338000D02*
D03*
Y332488D02*
D03*
D36*
X66256Y184500D02*
D03*
X60744D02*
D03*
X112744Y191000D02*
D03*
X118256D02*
D03*
X141244Y165000D02*
D03*
X146756D02*
D03*
X272256Y184500D02*
D03*
X266744D02*
D03*
X318744Y191000D02*
D03*
X324256D02*
D03*
X347244Y165000D02*
D03*
X352756D02*
D03*
X66256Y439000D02*
D03*
X60744D02*
D03*
X112744Y445500D02*
D03*
X118256D02*
D03*
X141244Y419500D02*
D03*
X146756D02*
D03*
X272256Y439000D02*
D03*
X266744D02*
D03*
X318744Y445500D02*
D03*
X324256D02*
D03*
X347244Y419500D02*
D03*
X352756D02*
D03*
D37*
X116264Y133362D02*
D03*
X114295D02*
D03*
X112327D02*
D03*
X110358D02*
D03*
X108390D02*
D03*
X106421D02*
D03*
X104453D02*
D03*
X102484D02*
D03*
X100516D02*
D03*
X98547D02*
D03*
X96579D02*
D03*
X94610D02*
D03*
X92642D02*
D03*
X90673D02*
D03*
X88705D02*
D03*
X86736D02*
D03*
Y178638D02*
D03*
X88705D02*
D03*
X90673D02*
D03*
X92642D02*
D03*
X94610D02*
D03*
X96579D02*
D03*
X98547D02*
D03*
X100516D02*
D03*
X102484D02*
D03*
X104453D02*
D03*
X106421D02*
D03*
X108390D02*
D03*
X110358D02*
D03*
X112327D02*
D03*
X114295D02*
D03*
X116264D02*
D03*
X322264Y133362D02*
D03*
X320295D02*
D03*
X318327D02*
D03*
X316358D02*
D03*
X314390D02*
D03*
X312421D02*
D03*
X310453D02*
D03*
X308484D02*
D03*
X306516D02*
D03*
X304547D02*
D03*
X302579D02*
D03*
X300610D02*
D03*
X298642D02*
D03*
X296673D02*
D03*
X294705D02*
D03*
X292736D02*
D03*
Y178638D02*
D03*
X294705D02*
D03*
X296673D02*
D03*
X298642D02*
D03*
X300610D02*
D03*
X302579D02*
D03*
X304547D02*
D03*
X306516D02*
D03*
X308484D02*
D03*
X310453D02*
D03*
X312421D02*
D03*
X314390D02*
D03*
X316358D02*
D03*
X318327D02*
D03*
X320295D02*
D03*
X322264D02*
D03*
X116264Y387862D02*
D03*
X114295D02*
D03*
X112327D02*
D03*
X110358D02*
D03*
X108390D02*
D03*
X106421D02*
D03*
X104453D02*
D03*
X102484D02*
D03*
X100516D02*
D03*
X98547D02*
D03*
X96579D02*
D03*
X94610D02*
D03*
X92642D02*
D03*
X90673D02*
D03*
X88705D02*
D03*
X86736D02*
D03*
Y433138D02*
D03*
X88705D02*
D03*
X90673D02*
D03*
X92642D02*
D03*
X94610D02*
D03*
X96579D02*
D03*
X98547D02*
D03*
X100516D02*
D03*
X102484D02*
D03*
X104453D02*
D03*
X106421D02*
D03*
X108390D02*
D03*
X110358D02*
D03*
X112327D02*
D03*
X114295D02*
D03*
X116264D02*
D03*
X322264Y387862D02*
D03*
X320295D02*
D03*
X318327D02*
D03*
X316358D02*
D03*
X314390D02*
D03*
X312421D02*
D03*
X310453D02*
D03*
X308484D02*
D03*
X306516D02*
D03*
X304547D02*
D03*
X302579D02*
D03*
X300610D02*
D03*
X298642D02*
D03*
X296673D02*
D03*
X294705D02*
D03*
X292736D02*
D03*
Y433138D02*
D03*
X294705D02*
D03*
X296673D02*
D03*
X298642D02*
D03*
X300610D02*
D03*
X302579D02*
D03*
X304547D02*
D03*
X306516D02*
D03*
X308484D02*
D03*
X310453D02*
D03*
X312421D02*
D03*
X314390D02*
D03*
X316358D02*
D03*
X318327D02*
D03*
X320295D02*
D03*
X322264D02*
D03*
D38*
X78862Y141236D02*
D03*
Y143205D02*
D03*
Y145173D02*
D03*
Y147142D02*
D03*
Y149110D02*
D03*
Y151079D02*
D03*
Y153047D02*
D03*
Y155016D02*
D03*
Y156984D02*
D03*
Y158953D02*
D03*
Y160921D02*
D03*
Y162890D02*
D03*
Y164858D02*
D03*
Y166827D02*
D03*
Y168795D02*
D03*
Y170764D02*
D03*
X124138D02*
D03*
Y168795D02*
D03*
Y166827D02*
D03*
Y164858D02*
D03*
Y162890D02*
D03*
Y160921D02*
D03*
Y158953D02*
D03*
Y156984D02*
D03*
Y155016D02*
D03*
Y153047D02*
D03*
Y151079D02*
D03*
Y149110D02*
D03*
Y147142D02*
D03*
Y145173D02*
D03*
Y143205D02*
D03*
Y141236D02*
D03*
X284862D02*
D03*
Y143205D02*
D03*
Y145173D02*
D03*
Y147142D02*
D03*
Y149110D02*
D03*
Y151079D02*
D03*
Y153047D02*
D03*
Y155016D02*
D03*
Y156984D02*
D03*
Y158953D02*
D03*
Y160921D02*
D03*
Y162890D02*
D03*
Y164858D02*
D03*
Y166827D02*
D03*
Y168795D02*
D03*
Y170764D02*
D03*
X330138D02*
D03*
Y168795D02*
D03*
Y166827D02*
D03*
Y164858D02*
D03*
Y162890D02*
D03*
Y160921D02*
D03*
Y158953D02*
D03*
Y156984D02*
D03*
Y155016D02*
D03*
Y153047D02*
D03*
Y151079D02*
D03*
Y149110D02*
D03*
Y147142D02*
D03*
Y145173D02*
D03*
Y143205D02*
D03*
Y141236D02*
D03*
X78862Y395736D02*
D03*
Y397705D02*
D03*
Y399673D02*
D03*
Y401642D02*
D03*
Y403610D02*
D03*
Y405579D02*
D03*
Y407547D02*
D03*
Y409516D02*
D03*
Y411484D02*
D03*
Y413453D02*
D03*
Y415421D02*
D03*
Y417390D02*
D03*
Y419358D02*
D03*
Y421327D02*
D03*
Y423295D02*
D03*
Y425264D02*
D03*
X124138D02*
D03*
Y423295D02*
D03*
Y421327D02*
D03*
Y419358D02*
D03*
Y417390D02*
D03*
Y415421D02*
D03*
Y413453D02*
D03*
Y411484D02*
D03*
Y409516D02*
D03*
Y407547D02*
D03*
Y405579D02*
D03*
Y403610D02*
D03*
Y401642D02*
D03*
Y399673D02*
D03*
Y397705D02*
D03*
Y395736D02*
D03*
X284862D02*
D03*
Y397705D02*
D03*
Y399673D02*
D03*
Y401642D02*
D03*
Y403610D02*
D03*
Y405579D02*
D03*
Y407547D02*
D03*
Y409516D02*
D03*
Y411484D02*
D03*
Y413453D02*
D03*
Y415421D02*
D03*
Y417390D02*
D03*
Y419358D02*
D03*
Y421327D02*
D03*
Y423295D02*
D03*
Y425264D02*
D03*
X330138D02*
D03*
Y423295D02*
D03*
Y421327D02*
D03*
Y419358D02*
D03*
Y417390D02*
D03*
Y415421D02*
D03*
Y413453D02*
D03*
Y411484D02*
D03*
Y409516D02*
D03*
Y407547D02*
D03*
Y405579D02*
D03*
Y403610D02*
D03*
Y401642D02*
D03*
Y399673D02*
D03*
Y397705D02*
D03*
Y395736D02*
D03*
D39*
X131653Y49000D02*
D03*
X138347D02*
D03*
X40846Y198000D02*
D03*
X34154D02*
D03*
X337653Y49000D02*
D03*
X344346D02*
D03*
X246847Y198000D02*
D03*
X240154D02*
D03*
X131653Y303500D02*
D03*
X138347D02*
D03*
X40846Y452500D02*
D03*
X34154D02*
D03*
X337653Y303500D02*
D03*
X344346D02*
D03*
X246847Y452500D02*
D03*
X240154D02*
D03*
D40*
X107500Y97347D02*
D03*
Y90654D02*
D03*
X155000Y207347D02*
D03*
Y200654D02*
D03*
X313500Y97347D02*
D03*
Y90654D02*
D03*
X361000Y207347D02*
D03*
Y200654D02*
D03*
X107500Y351847D02*
D03*
Y345153D02*
D03*
X155000Y461846D02*
D03*
Y455154D02*
D03*
X313500Y351847D02*
D03*
Y345153D02*
D03*
X361000Y461846D02*
D03*
Y455154D02*
D03*
D41*
X419874Y516374D02*
D03*
Y-7874D02*
D03*
X-7874D02*
D03*
X-7874Y516374D02*
D03*
D42*
X178000Y238000D02*
D03*
X28000D02*
D03*
X98000Y38000D02*
D03*
X384000Y238000D02*
D03*
X234000D02*
D03*
X304000Y38000D02*
D03*
X178000Y492500D02*
D03*
X28000D02*
D03*
X98000Y292500D02*
D03*
X384000Y492500D02*
D03*
X234000D02*
D03*
X304000Y292500D02*
D03*
D43*
X198000Y28000D02*
D03*
Y38000D02*
D03*
Y48000D02*
D03*
Y58000D02*
D03*
Y68000D02*
D03*
Y78000D02*
D03*
Y88000D02*
D03*
Y98000D02*
D03*
Y108000D02*
D03*
Y118000D02*
D03*
Y128000D02*
D03*
Y138000D02*
D03*
Y148000D02*
D03*
Y158000D02*
D03*
Y168000D02*
D03*
Y178000D02*
D03*
Y188000D02*
D03*
Y198000D02*
D03*
Y208000D02*
D03*
X8000Y28000D02*
D03*
Y38000D02*
D03*
Y48000D02*
D03*
Y58000D02*
D03*
Y68000D02*
D03*
Y78000D02*
D03*
Y88000D02*
D03*
Y98000D02*
D03*
Y108000D02*
D03*
Y118000D02*
D03*
Y128000D02*
D03*
Y138000D02*
D03*
Y148000D02*
D03*
Y158000D02*
D03*
Y168000D02*
D03*
Y178000D02*
D03*
Y188000D02*
D03*
Y198000D02*
D03*
Y208000D02*
D03*
X404000Y28000D02*
D03*
Y38000D02*
D03*
Y48000D02*
D03*
Y58000D02*
D03*
Y68000D02*
D03*
Y78000D02*
D03*
Y88000D02*
D03*
Y98000D02*
D03*
Y108000D02*
D03*
Y118000D02*
D03*
Y128000D02*
D03*
Y138000D02*
D03*
Y148000D02*
D03*
Y158000D02*
D03*
Y168000D02*
D03*
Y178000D02*
D03*
Y188000D02*
D03*
Y198000D02*
D03*
Y208000D02*
D03*
X214000Y28000D02*
D03*
Y38000D02*
D03*
Y48000D02*
D03*
Y58000D02*
D03*
Y68000D02*
D03*
Y78000D02*
D03*
Y88000D02*
D03*
Y98000D02*
D03*
Y108000D02*
D03*
Y118000D02*
D03*
Y128000D02*
D03*
Y138000D02*
D03*
Y148000D02*
D03*
Y158000D02*
D03*
Y168000D02*
D03*
Y178000D02*
D03*
Y188000D02*
D03*
Y198000D02*
D03*
Y208000D02*
D03*
X198000Y282500D02*
D03*
Y292500D02*
D03*
Y302500D02*
D03*
Y312500D02*
D03*
Y322500D02*
D03*
Y332500D02*
D03*
Y342500D02*
D03*
Y352500D02*
D03*
Y362500D02*
D03*
Y372500D02*
D03*
Y382500D02*
D03*
Y392500D02*
D03*
Y402500D02*
D03*
Y412500D02*
D03*
Y422500D02*
D03*
Y432500D02*
D03*
Y442500D02*
D03*
Y452500D02*
D03*
Y462500D02*
D03*
X8000Y282500D02*
D03*
Y292500D02*
D03*
Y302500D02*
D03*
Y312500D02*
D03*
Y322500D02*
D03*
Y332500D02*
D03*
Y342500D02*
D03*
Y352500D02*
D03*
Y362500D02*
D03*
Y372500D02*
D03*
Y382500D02*
D03*
Y392500D02*
D03*
Y402500D02*
D03*
Y412500D02*
D03*
Y422500D02*
D03*
Y432500D02*
D03*
Y442500D02*
D03*
Y452500D02*
D03*
Y462500D02*
D03*
X404000Y282500D02*
D03*
Y292500D02*
D03*
Y302500D02*
D03*
Y312500D02*
D03*
Y322500D02*
D03*
Y332500D02*
D03*
Y342500D02*
D03*
Y352500D02*
D03*
Y362500D02*
D03*
Y372500D02*
D03*
Y382500D02*
D03*
Y392500D02*
D03*
Y402500D02*
D03*
Y412500D02*
D03*
Y422500D02*
D03*
Y432500D02*
D03*
Y442500D02*
D03*
Y452500D02*
D03*
Y462500D02*
D03*
X214000Y282500D02*
D03*
Y292500D02*
D03*
Y302500D02*
D03*
Y312500D02*
D03*
Y322500D02*
D03*
Y332500D02*
D03*
Y342500D02*
D03*
Y352500D02*
D03*
Y362500D02*
D03*
Y372500D02*
D03*
Y382500D02*
D03*
Y392500D02*
D03*
Y402500D02*
D03*
Y412500D02*
D03*
Y422500D02*
D03*
Y432500D02*
D03*
Y442500D02*
D03*
Y452500D02*
D03*
Y462500D02*
D03*
D44*
X198000Y218000D02*
D03*
X8000D02*
D03*
X404000D02*
D03*
X214000D02*
D03*
X198000Y472500D02*
D03*
X8000D02*
D03*
X404000D02*
D03*
X214000D02*
D03*
D45*
X198000Y8000D02*
D03*
X188000D02*
D03*
X178000D02*
D03*
X168000D02*
D03*
X158000D02*
D03*
X148000D02*
D03*
X138000D02*
D03*
X128000D02*
D03*
X118000D02*
D03*
X108000D02*
D03*
X98000D02*
D03*
X88000D02*
D03*
X78000D02*
D03*
X68000D02*
D03*
X58000D02*
D03*
X48000D02*
D03*
X38000D02*
D03*
X28000D02*
D03*
X18000D02*
D03*
X404000D02*
D03*
X394000D02*
D03*
X384000D02*
D03*
X374000D02*
D03*
X364000D02*
D03*
X354000D02*
D03*
X344000D02*
D03*
X334000D02*
D03*
X324000D02*
D03*
X314000D02*
D03*
X304000D02*
D03*
X294000D02*
D03*
X284000D02*
D03*
X274000D02*
D03*
X264000D02*
D03*
X254000D02*
D03*
X244000D02*
D03*
X234000D02*
D03*
X224000D02*
D03*
X198000Y262500D02*
D03*
X188000D02*
D03*
X178000D02*
D03*
X168000D02*
D03*
X158000D02*
D03*
X148000D02*
D03*
X138000D02*
D03*
X128000D02*
D03*
X118000D02*
D03*
X108000D02*
D03*
X98000D02*
D03*
X88000D02*
D03*
X78000D02*
D03*
X68000D02*
D03*
X58000D02*
D03*
X48000D02*
D03*
X38000D02*
D03*
X28000D02*
D03*
X18000D02*
D03*
X404000D02*
D03*
X394000D02*
D03*
X384000D02*
D03*
X374000D02*
D03*
X364000D02*
D03*
X354000D02*
D03*
X344000D02*
D03*
X334000D02*
D03*
X324000D02*
D03*
X314000D02*
D03*
X304000D02*
D03*
X294000D02*
D03*
X284000D02*
D03*
X274000D02*
D03*
X264000D02*
D03*
X254000D02*
D03*
X244000D02*
D03*
X234000D02*
D03*
X224000D02*
D03*
D46*
X8000Y8000D02*
D03*
X214000D02*
D03*
X8000Y262500D02*
D03*
X214000D02*
D03*
M02*
