G04 Layer_Physical_Order=2*
G04 Layer_Color=16711680*
%FSLAX25Y25*%
%MOIN*%
G70*
G01*
G75*
%ADD17C,0.01000*%
%ADD19C,0.02500*%
%ADD20C,0.00800*%
%ADD21C,0.25000*%
%ADD22O,0.11000X0.06000*%
%ADD23R,0.11000X0.06000*%
%ADD24O,0.06000X0.11000*%
%ADD25R,0.06000X0.11000*%
%ADD26C,0.02500*%
G36*
X410471Y476655D02*
X409971Y476388D01*
X409890Y476442D01*
X409500Y476520D01*
X404500D01*
Y472500D01*
Y468480D01*
X409500D01*
X409890Y468558D01*
X409971Y468612D01*
X410471Y468344D01*
Y463561D01*
X410007Y463440D01*
X409645Y464316D01*
X409067Y465068D01*
X408316Y465645D01*
X407440Y466007D01*
X406500Y466131D01*
X401500D01*
X400560Y466007D01*
X399685Y465645D01*
X398933Y465068D01*
X398355Y464316D01*
X397993Y463440D01*
X397869Y462500D01*
X397993Y461560D01*
X398355Y460684D01*
X398933Y459932D01*
X399685Y459355D01*
X400560Y458993D01*
X401500Y458869D01*
X406500D01*
X407440Y458993D01*
X408316Y459355D01*
X409067Y459932D01*
X409645Y460684D01*
X410007Y461560D01*
X410471Y461439D01*
Y453561D01*
X410007Y453440D01*
X409645Y454316D01*
X409067Y455068D01*
X408316Y455645D01*
X407440Y456007D01*
X406500Y456131D01*
X401500D01*
X400560Y456007D01*
X399685Y455645D01*
X398933Y455068D01*
X398355Y454316D01*
X397993Y453440D01*
X397869Y452500D01*
X397993Y451560D01*
X398355Y450684D01*
X398933Y449932D01*
X399685Y449355D01*
X400560Y448993D01*
X401500Y448869D01*
X406500D01*
X407440Y448993D01*
X408316Y449355D01*
X409067Y449932D01*
X409645Y450684D01*
X410007Y451560D01*
X410471Y451439D01*
Y444799D01*
X410024Y444545D01*
X409971Y444548D01*
X409353Y445353D01*
X408517Y445994D01*
X407544Y446397D01*
X406500Y446534D01*
X404500D01*
Y442500D01*
Y438465D01*
X406500D01*
X407544Y438603D01*
X408517Y439006D01*
X409353Y439647D01*
X409971Y440452D01*
X410024Y440455D01*
X410471Y440201D01*
Y433561D01*
X410007Y433440D01*
X409645Y434315D01*
X409067Y435068D01*
X408316Y435645D01*
X407440Y436007D01*
X406500Y436131D01*
X401500D01*
X400560Y436007D01*
X399685Y435645D01*
X398933Y435068D01*
X398355Y434315D01*
X397993Y433440D01*
X397869Y432500D01*
X397993Y431560D01*
X398355Y430685D01*
X398933Y429932D01*
X399685Y429355D01*
X400560Y428993D01*
X401500Y428869D01*
X406500D01*
X407440Y428993D01*
X408316Y429355D01*
X409067Y429932D01*
X409645Y430685D01*
X410007Y431560D01*
X410471Y431439D01*
Y423561D01*
X410007Y423440D01*
X409645Y424316D01*
X409067Y425068D01*
X408316Y425645D01*
X407440Y426007D01*
X406500Y426131D01*
X401500D01*
X400560Y426007D01*
X399685Y425645D01*
X398933Y425068D01*
X398355Y424316D01*
X397993Y423440D01*
X397869Y422500D01*
X397993Y421560D01*
X398355Y420684D01*
X398933Y419932D01*
X399685Y419355D01*
X400560Y418993D01*
X401500Y418869D01*
X406500D01*
X407440Y418993D01*
X408316Y419355D01*
X409067Y419932D01*
X409645Y420684D01*
X410007Y421560D01*
X410471Y421439D01*
Y414799D01*
X410024Y414545D01*
X409971Y414548D01*
X409353Y415353D01*
X408517Y415994D01*
X407544Y416397D01*
X406500Y416535D01*
X404500D01*
Y412500D01*
Y408465D01*
X406500D01*
X407544Y408603D01*
X408517Y409006D01*
X409353Y409647D01*
X409971Y410452D01*
X410024Y410455D01*
X410471Y410201D01*
Y403561D01*
X410007Y403440D01*
X409645Y404316D01*
X409067Y405067D01*
X408316Y405645D01*
X407440Y406007D01*
X406500Y406131D01*
X401500D01*
X400560Y406007D01*
X399685Y405645D01*
X398933Y405067D01*
X398355Y404316D01*
X397993Y403440D01*
X397869Y402500D01*
X397993Y401560D01*
X398355Y400684D01*
X398933Y399933D01*
X399685Y399355D01*
X400560Y398993D01*
X401500Y398869D01*
X406500D01*
X407440Y398993D01*
X408316Y399355D01*
X409067Y399933D01*
X409645Y400684D01*
X410007Y401560D01*
X410471Y401439D01*
Y394799D01*
X410024Y394545D01*
X409971Y394548D01*
X409353Y395353D01*
X408517Y395994D01*
X407544Y396397D01*
X406500Y396534D01*
X404500D01*
Y392500D01*
Y388465D01*
X406500D01*
X407544Y388603D01*
X408517Y389006D01*
X409353Y389647D01*
X409971Y390452D01*
X410024Y390455D01*
X410471Y390201D01*
Y384799D01*
X410024Y384545D01*
X409971Y384548D01*
X409353Y385353D01*
X408517Y385994D01*
X407544Y386397D01*
X406500Y386535D01*
X404500D01*
Y382500D01*
Y378466D01*
X406500D01*
X407544Y378603D01*
X408517Y379006D01*
X409353Y379647D01*
X409971Y380452D01*
X410024Y380455D01*
X410471Y380201D01*
Y373561D01*
X410007Y373440D01*
X409645Y374316D01*
X409067Y375067D01*
X408316Y375645D01*
X407440Y376007D01*
X406500Y376131D01*
X401500D01*
X400560Y376007D01*
X399685Y375645D01*
X398933Y375067D01*
X398355Y374316D01*
X397993Y373440D01*
X397869Y372500D01*
X397993Y371560D01*
X398355Y370685D01*
X398933Y369933D01*
X399685Y369355D01*
X400560Y368993D01*
X401500Y368869D01*
X406500D01*
X407440Y368993D01*
X408316Y369355D01*
X409067Y369933D01*
X409645Y370685D01*
X410007Y371560D01*
X410471Y371439D01*
Y363561D01*
X410007Y363440D01*
X409645Y364316D01*
X409067Y365068D01*
X408316Y365645D01*
X407440Y366007D01*
X406500Y366131D01*
X401500D01*
X400560Y366007D01*
X399685Y365645D01*
X398933Y365068D01*
X398355Y364316D01*
X397993Y363440D01*
X397869Y362500D01*
X397993Y361560D01*
X398355Y360684D01*
X398933Y359932D01*
X399685Y359355D01*
X400560Y358993D01*
X401500Y358869D01*
X406500D01*
X407440Y358993D01*
X408316Y359355D01*
X409067Y359932D01*
X409645Y360684D01*
X410007Y361560D01*
X410471Y361439D01*
Y353561D01*
X410007Y353440D01*
X409645Y354315D01*
X409067Y355067D01*
X408316Y355645D01*
X407440Y356007D01*
X406500Y356131D01*
X401500D01*
X400560Y356007D01*
X399685Y355645D01*
X398933Y355067D01*
X398355Y354315D01*
X397993Y353440D01*
X397869Y352500D01*
X397993Y351560D01*
X398355Y350684D01*
X398933Y349933D01*
X399685Y349355D01*
X400560Y348993D01*
X401500Y348869D01*
X406500D01*
X407440Y348993D01*
X408316Y349355D01*
X409067Y349933D01*
X409645Y350684D01*
X410007Y351560D01*
X410471Y351439D01*
Y343561D01*
X410007Y343440D01*
X409645Y344316D01*
X409067Y345068D01*
X408316Y345645D01*
X407440Y346007D01*
X406500Y346131D01*
X401500D01*
X400560Y346007D01*
X399685Y345645D01*
X398933Y345068D01*
X398355Y344316D01*
X397993Y343440D01*
X397869Y342500D01*
X397993Y341560D01*
X398355Y340685D01*
X398933Y339932D01*
X399685Y339355D01*
X400560Y338993D01*
X401500Y338869D01*
X406500D01*
X407440Y338993D01*
X408316Y339355D01*
X409067Y339932D01*
X409645Y340685D01*
X410007Y341560D01*
X410471Y341439D01*
Y333561D01*
X410007Y333440D01*
X409645Y334315D01*
X409067Y335068D01*
X408316Y335645D01*
X407440Y336007D01*
X406500Y336131D01*
X401500D01*
X400560Y336007D01*
X399685Y335645D01*
X398933Y335068D01*
X398355Y334315D01*
X397993Y333440D01*
X397869Y332500D01*
X397993Y331560D01*
X398355Y330684D01*
X398933Y329932D01*
X399685Y329355D01*
X400560Y328993D01*
X401500Y328869D01*
X406500D01*
X407440Y328993D01*
X408316Y329355D01*
X409067Y329932D01*
X409645Y330684D01*
X410007Y331560D01*
X410471Y331439D01*
Y324799D01*
X410024Y324545D01*
X409971Y324548D01*
X409353Y325353D01*
X408517Y325994D01*
X407544Y326397D01*
X406500Y326535D01*
X404500D01*
Y322500D01*
Y318465D01*
X406500D01*
X407544Y318603D01*
X408517Y319006D01*
X409353Y319647D01*
X409971Y320452D01*
X410024Y320455D01*
X410471Y320201D01*
Y314799D01*
X410024Y314545D01*
X409971Y314548D01*
X409353Y315353D01*
X408517Y315994D01*
X407544Y316397D01*
X406500Y316534D01*
X404500D01*
Y312500D01*
Y308466D01*
X406500D01*
X407544Y308603D01*
X408517Y309006D01*
X409353Y309647D01*
X409971Y310452D01*
X410024Y310455D01*
X410471Y310201D01*
Y303561D01*
X410007Y303440D01*
X409645Y304315D01*
X409067Y305067D01*
X408316Y305645D01*
X407440Y306007D01*
X406500Y306131D01*
X401500D01*
X400560Y306007D01*
X399685Y305645D01*
X398933Y305067D01*
X398355Y304315D01*
X397993Y303440D01*
X397869Y302500D01*
X397993Y301560D01*
X398355Y300684D01*
X398933Y299933D01*
X399685Y299355D01*
X400560Y298993D01*
X401500Y298869D01*
X406500D01*
X407440Y298993D01*
X408316Y299355D01*
X409067Y299933D01*
X409645Y300684D01*
X410007Y301560D01*
X410471Y301439D01*
Y293561D01*
X410007Y293440D01*
X409645Y294316D01*
X409067Y295068D01*
X408316Y295645D01*
X407440Y296007D01*
X406500Y296131D01*
X401500D01*
X400560Y296007D01*
X399685Y295645D01*
X398933Y295068D01*
X398355Y294316D01*
X397993Y293440D01*
X397869Y292500D01*
X397993Y291560D01*
X398355Y290685D01*
X398933Y289932D01*
X399685Y289355D01*
X400560Y288993D01*
X401500Y288869D01*
X406500D01*
X407440Y288993D01*
X408316Y289355D01*
X409067Y289932D01*
X409645Y290685D01*
X410007Y291560D01*
X410471Y291439D01*
Y283561D01*
X410007Y283440D01*
X409645Y284315D01*
X409067Y285068D01*
X408316Y285645D01*
X407440Y286007D01*
X406500Y286131D01*
X401500D01*
X400560Y286007D01*
X399685Y285645D01*
X398933Y285068D01*
X398355Y284315D01*
X397993Y283440D01*
X397869Y282500D01*
X397993Y281560D01*
X398355Y280684D01*
X398933Y279932D01*
X399685Y279355D01*
X400560Y278993D01*
X401500Y278869D01*
X406500D01*
X407440Y278993D01*
X408316Y279355D01*
X409067Y279932D01*
X409645Y280684D01*
X410007Y281560D01*
X410471Y281439D01*
Y256029D01*
X405061D01*
X404940Y256493D01*
X405816Y256855D01*
X406567Y257433D01*
X407145Y258185D01*
X407507Y259060D01*
X407631Y260000D01*
Y265000D01*
X407507Y265940D01*
X407145Y266815D01*
X406567Y267567D01*
X405816Y268145D01*
X404940Y268507D01*
X404000Y268631D01*
X403060Y268507D01*
X402184Y268145D01*
X401433Y267567D01*
X400855Y266815D01*
X400493Y265940D01*
X400369Y265000D01*
Y260000D01*
X400493Y259060D01*
X400855Y258185D01*
X401433Y257433D01*
X402184Y256855D01*
X403060Y256493D01*
X402939Y256029D01*
X395061D01*
X394940Y256493D01*
X395815Y256855D01*
X396568Y257433D01*
X397145Y258185D01*
X397507Y259060D01*
X397631Y260000D01*
Y265000D01*
X397507Y265940D01*
X397145Y266815D01*
X396568Y267567D01*
X395815Y268145D01*
X394940Y268507D01*
X394000Y268631D01*
X393060Y268507D01*
X392184Y268145D01*
X391432Y267567D01*
X390855Y266815D01*
X390493Y265940D01*
X390369Y265000D01*
Y260000D01*
X390493Y259060D01*
X390855Y258185D01*
X391432Y257433D01*
X392184Y256855D01*
X393060Y256493D01*
X392939Y256029D01*
X385061D01*
X384940Y256493D01*
X385816Y256855D01*
X386567Y257433D01*
X387145Y258185D01*
X387507Y259060D01*
X387631Y260000D01*
Y265000D01*
X387507Y265940D01*
X387145Y266815D01*
X386567Y267567D01*
X385816Y268145D01*
X384940Y268507D01*
X384000Y268631D01*
X383060Y268507D01*
X382185Y268145D01*
X381433Y267567D01*
X380855Y266815D01*
X380493Y265940D01*
X380369Y265000D01*
Y260000D01*
X380493Y259060D01*
X380855Y258185D01*
X381433Y257433D01*
X382185Y256855D01*
X383060Y256493D01*
X382939Y256029D01*
X375061D01*
X374940Y256493D01*
X375816Y256855D01*
X376568Y257433D01*
X377145Y258185D01*
X377507Y259060D01*
X377631Y260000D01*
Y265000D01*
X377507Y265940D01*
X377145Y266815D01*
X376568Y267567D01*
X375816Y268145D01*
X374940Y268507D01*
X374000Y268631D01*
X373060Y268507D01*
X372184Y268145D01*
X371432Y267567D01*
X370855Y266815D01*
X370493Y265940D01*
X370369Y265000D01*
Y260000D01*
X370493Y259060D01*
X370855Y258185D01*
X371432Y257433D01*
X372184Y256855D01*
X373060Y256493D01*
X372939Y256029D01*
X365061D01*
X364940Y256493D01*
X365815Y256855D01*
X366567Y257433D01*
X367145Y258185D01*
X367507Y259060D01*
X367631Y260000D01*
Y265000D01*
X367507Y265940D01*
X367145Y266815D01*
X366567Y267567D01*
X365815Y268145D01*
X364940Y268507D01*
X364000Y268631D01*
X363060Y268507D01*
X362185Y268145D01*
X361433Y267567D01*
X360855Y266815D01*
X360493Y265940D01*
X360369Y265000D01*
Y260000D01*
X360493Y259060D01*
X360855Y258185D01*
X361433Y257433D01*
X362185Y256855D01*
X363060Y256493D01*
X362939Y256029D01*
X355061D01*
X354940Y256493D01*
X355816Y256855D01*
X356568Y257433D01*
X357145Y258185D01*
X357507Y259060D01*
X357631Y260000D01*
Y265000D01*
X357507Y265940D01*
X357145Y266815D01*
X356568Y267567D01*
X355816Y268145D01*
X354940Y268507D01*
X354000Y268631D01*
X353060Y268507D01*
X352185Y268145D01*
X351432Y267567D01*
X350855Y266815D01*
X350493Y265940D01*
X350369Y265000D01*
Y260000D01*
X350493Y259060D01*
X350855Y258185D01*
X351432Y257433D01*
X352185Y256855D01*
X353060Y256493D01*
X352939Y256029D01*
X345061D01*
X344940Y256493D01*
X345815Y256855D01*
X346568Y257433D01*
X347145Y258185D01*
X347507Y259060D01*
X347631Y260000D01*
Y265000D01*
X347507Y265940D01*
X347145Y266815D01*
X346568Y267567D01*
X345815Y268145D01*
X344940Y268507D01*
X344000Y268631D01*
X343060Y268507D01*
X342184Y268145D01*
X341432Y267567D01*
X340855Y266815D01*
X340493Y265940D01*
X340369Y265000D01*
Y260000D01*
X340493Y259060D01*
X340855Y258185D01*
X341432Y257433D01*
X342184Y256855D01*
X343060Y256493D01*
X342939Y256029D01*
X335061D01*
X334940Y256493D01*
X335816Y256855D01*
X336567Y257433D01*
X337145Y258185D01*
X337507Y259060D01*
X337631Y260000D01*
Y265000D01*
X337507Y265940D01*
X337145Y266815D01*
X336567Y267567D01*
X335816Y268145D01*
X334940Y268507D01*
X334000Y268631D01*
X333060Y268507D01*
X332185Y268145D01*
X331433Y267567D01*
X330855Y266815D01*
X330493Y265940D01*
X330369Y265000D01*
Y260000D01*
X330493Y259060D01*
X330855Y258185D01*
X331433Y257433D01*
X332185Y256855D01*
X333060Y256493D01*
X332939Y256029D01*
X325061D01*
X324940Y256493D01*
X325816Y256855D01*
X326568Y257433D01*
X327145Y258185D01*
X327507Y259060D01*
X327631Y260000D01*
Y265000D01*
X327507Y265940D01*
X327145Y266815D01*
X326568Y267567D01*
X325816Y268145D01*
X324940Y268507D01*
X324000Y268631D01*
X323060Y268507D01*
X322184Y268145D01*
X321432Y267567D01*
X320855Y266815D01*
X320493Y265940D01*
X320369Y265000D01*
Y260000D01*
X320493Y259060D01*
X320855Y258185D01*
X321432Y257433D01*
X322184Y256855D01*
X323060Y256493D01*
X322939Y256029D01*
X315061D01*
X314940Y256493D01*
X315815Y256855D01*
X316567Y257433D01*
X317145Y258185D01*
X317507Y259060D01*
X317631Y260000D01*
Y265000D01*
X317507Y265940D01*
X317145Y266815D01*
X316567Y267567D01*
X315815Y268145D01*
X315122Y268432D01*
Y271535D01*
X324293Y280707D01*
X324293Y280707D01*
X324536Y281071D01*
X324622Y281500D01*
X324622Y281500D01*
Y313024D01*
X324834Y313166D01*
X325243Y313778D01*
X325386Y314500D01*
X325243Y315222D01*
X324834Y315834D01*
X324222Y316243D01*
X323500Y316386D01*
X322778Y316243D01*
X322166Y315834D01*
X321757Y315222D01*
X321614Y314500D01*
X321757Y313778D01*
X322166Y313166D01*
X322378Y313024D01*
Y281965D01*
X313207Y272793D01*
X312964Y272429D01*
X312878Y272000D01*
X312878Y272000D01*
Y268432D01*
X312185Y268145D01*
X311433Y267567D01*
X310855Y266815D01*
X310493Y265940D01*
X310369Y265000D01*
Y260000D01*
X310493Y259060D01*
X310855Y258185D01*
X311433Y257433D01*
X312185Y256855D01*
X313060Y256493D01*
X312939Y256029D01*
X306299D01*
X306045Y256476D01*
X306048Y256529D01*
X306853Y257147D01*
X307494Y257983D01*
X307897Y258956D01*
X308034Y260000D01*
Y262000D01*
X304000D01*
X299966D01*
Y260000D01*
X300103Y258956D01*
X300506Y257983D01*
X301147Y257147D01*
X301952Y256529D01*
X301955Y256476D01*
X301701Y256029D01*
X296299D01*
X296045Y256476D01*
X296048Y256529D01*
X296853Y257147D01*
X297494Y257983D01*
X297897Y258956D01*
X298035Y260000D01*
Y262000D01*
X294000D01*
X289966D01*
Y260000D01*
X290103Y258956D01*
X290506Y257983D01*
X291147Y257147D01*
X291952Y256529D01*
X291955Y256476D01*
X291701Y256029D01*
X285061D01*
X284940Y256493D01*
X285816Y256855D01*
X286567Y257433D01*
X287145Y258185D01*
X287507Y259060D01*
X287631Y260000D01*
Y265000D01*
X287507Y265940D01*
X287145Y266815D01*
X286567Y267567D01*
X285816Y268145D01*
X284940Y268507D01*
X284000Y268631D01*
X283060Y268507D01*
X282185Y268145D01*
X281433Y267567D01*
X280855Y266815D01*
X280493Y265940D01*
X280369Y265000D01*
Y260000D01*
X280493Y259060D01*
X280855Y258185D01*
X281433Y257433D01*
X282185Y256855D01*
X283060Y256493D01*
X282939Y256029D01*
X275061D01*
X274940Y256493D01*
X275816Y256855D01*
X276568Y257433D01*
X277145Y258185D01*
X277507Y259060D01*
X277631Y260000D01*
Y265000D01*
X277507Y265940D01*
X277145Y266815D01*
X276568Y267567D01*
X275816Y268145D01*
X274940Y268507D01*
X274000Y268631D01*
X273060Y268507D01*
X272184Y268145D01*
X271432Y267567D01*
X270855Y266815D01*
X270493Y265940D01*
X270369Y265000D01*
Y260000D01*
X270493Y259060D01*
X270855Y258185D01*
X271432Y257433D01*
X272184Y256855D01*
X273060Y256493D01*
X272939Y256029D01*
X265061D01*
X264940Y256493D01*
X265815Y256855D01*
X266567Y257433D01*
X267145Y258185D01*
X267507Y259060D01*
X267631Y260000D01*
Y265000D01*
X267507Y265940D01*
X267145Y266815D01*
X266567Y267567D01*
X265815Y268145D01*
X264940Y268507D01*
X264000Y268631D01*
X263060Y268507D01*
X262185Y268145D01*
X261433Y267567D01*
X260855Y266815D01*
X260493Y265940D01*
X260369Y265000D01*
Y260000D01*
X260493Y259060D01*
X260855Y258185D01*
X261433Y257433D01*
X262185Y256855D01*
X263060Y256493D01*
X262939Y256029D01*
X255061D01*
X254940Y256493D01*
X255816Y256855D01*
X256568Y257433D01*
X257145Y258185D01*
X257507Y259060D01*
X257631Y260000D01*
Y265000D01*
X257507Y265940D01*
X257145Y266815D01*
X256568Y267567D01*
X255816Y268145D01*
X255121Y268432D01*
Y286024D01*
X255334Y286166D01*
X255743Y286778D01*
X255886Y287500D01*
X255743Y288222D01*
X255334Y288834D01*
X254722Y289243D01*
X254000Y289386D01*
X253278Y289243D01*
X252666Y288834D01*
X252257Y288222D01*
X252114Y287500D01*
X252257Y286778D01*
X252666Y286166D01*
X252878Y286024D01*
Y268432D01*
X252185Y268145D01*
X251432Y267567D01*
X250855Y266815D01*
X250493Y265940D01*
X250369Y265000D01*
Y260000D01*
X250493Y259060D01*
X250855Y258185D01*
X251432Y257433D01*
X252185Y256855D01*
X253060Y256493D01*
X252939Y256029D01*
X245061D01*
X244940Y256493D01*
X245815Y256855D01*
X246568Y257433D01*
X247145Y258185D01*
X247507Y259060D01*
X247631Y260000D01*
Y265000D01*
X247507Y265940D01*
X247145Y266815D01*
X246568Y267567D01*
X245815Y268145D01*
X245020Y268474D01*
Y277078D01*
X245629Y277688D01*
X246000Y277614D01*
X246722Y277757D01*
X247334Y278166D01*
X247743Y278778D01*
X247886Y279500D01*
X247743Y280222D01*
X247334Y280834D01*
X246722Y281243D01*
X246000Y281386D01*
X245278Y281243D01*
X244666Y280834D01*
X244257Y280222D01*
X244114Y279500D01*
X244187Y279129D01*
X243279Y278221D01*
X243058Y277890D01*
X242980Y277500D01*
Y268474D01*
X242184Y268145D01*
X241432Y267567D01*
X240855Y266815D01*
X240493Y265940D01*
X240369Y265000D01*
Y260000D01*
X240493Y259060D01*
X240855Y258185D01*
X241432Y257433D01*
X242184Y256855D01*
X243060Y256493D01*
X242939Y256029D01*
X235061D01*
X234940Y256493D01*
X235816Y256855D01*
X236567Y257433D01*
X237145Y258185D01*
X237507Y259060D01*
X237631Y260000D01*
Y265000D01*
X237507Y265940D01*
X237145Y266815D01*
X236567Y267567D01*
X235816Y268145D01*
X234940Y268507D01*
X234000Y268631D01*
X233060Y268507D01*
X232185Y268145D01*
X231433Y267567D01*
X230855Y266815D01*
X230493Y265940D01*
X230369Y265000D01*
Y260000D01*
X230493Y259060D01*
X230855Y258185D01*
X231433Y257433D01*
X232185Y256855D01*
X233060Y256493D01*
X232939Y256029D01*
X225061D01*
X224940Y256493D01*
X225816Y256855D01*
X226568Y257433D01*
X227145Y258185D01*
X227507Y259060D01*
X227631Y260000D01*
Y265000D01*
X227507Y265940D01*
X227145Y266815D01*
X226568Y267567D01*
X225816Y268145D01*
X224940Y268507D01*
X224000Y268631D01*
X223060Y268507D01*
X222184Y268145D01*
X221432Y267567D01*
X220855Y266815D01*
X220493Y265940D01*
X220369Y265000D01*
Y260000D01*
X220493Y259060D01*
X220855Y258185D01*
X221432Y257433D01*
X222184Y256855D01*
X223060Y256493D01*
X222939Y256029D01*
X218156D01*
X217888Y256529D01*
X217942Y256610D01*
X218020Y257000D01*
Y262000D01*
X214000D01*
X209980D01*
Y257000D01*
X210058Y256610D01*
X210112Y256529D01*
X209844Y256029D01*
X207529D01*
Y281439D01*
X207993Y281560D01*
X208355Y280684D01*
X208932Y279932D01*
X209684Y279355D01*
X210560Y278993D01*
X211500Y278869D01*
X216500D01*
X217440Y278993D01*
X218316Y279355D01*
X219068Y279932D01*
X219645Y280684D01*
X220007Y281560D01*
X220131Y282500D01*
X220007Y283440D01*
X219645Y284315D01*
X219068Y285068D01*
X218316Y285645D01*
X217440Y286007D01*
X216500Y286131D01*
X211500D01*
X210560Y286007D01*
X209684Y285645D01*
X208932Y285068D01*
X208355Y284315D01*
X207993Y283440D01*
X207529Y283561D01*
Y291439D01*
X207993Y291560D01*
X208355Y290685D01*
X208932Y289932D01*
X209684Y289355D01*
X210560Y288993D01*
X211500Y288869D01*
X216500D01*
X217440Y288993D01*
X218316Y289355D01*
X219068Y289932D01*
X219645Y290685D01*
X220007Y291560D01*
X220131Y292500D01*
X220007Y293440D01*
X219645Y294316D01*
X219068Y295068D01*
X218316Y295645D01*
X217440Y296007D01*
X216500Y296131D01*
X211500D01*
X210560Y296007D01*
X209684Y295645D01*
X208932Y295068D01*
X208355Y294316D01*
X207993Y293440D01*
X207529Y293561D01*
Y301439D01*
X207993Y301560D01*
X208355Y300684D01*
X208932Y299933D01*
X209684Y299355D01*
X210560Y298993D01*
X211500Y298869D01*
X216500D01*
X217440Y298993D01*
X218316Y299355D01*
X219068Y299933D01*
X219645Y300684D01*
X220007Y301560D01*
X220131Y302500D01*
X220007Y303440D01*
X219645Y304315D01*
X219068Y305067D01*
X218316Y305645D01*
X217440Y306007D01*
X216500Y306131D01*
X211500D01*
X210560Y306007D01*
X209684Y305645D01*
X208932Y305067D01*
X208355Y304315D01*
X207993Y303440D01*
X207529Y303561D01*
Y311439D01*
X207993Y311560D01*
X208355Y310684D01*
X208932Y309932D01*
X209684Y309355D01*
X210560Y308993D01*
X211500Y308869D01*
X216500D01*
X217440Y308993D01*
X218316Y309355D01*
X219068Y309932D01*
X219645Y310684D01*
X220007Y311560D01*
X220131Y312500D01*
X220007Y313440D01*
X219645Y314316D01*
X219068Y315068D01*
X218316Y315645D01*
X217440Y316007D01*
X216500Y316131D01*
X211500D01*
X210560Y316007D01*
X209684Y315645D01*
X208932Y315068D01*
X208355Y314316D01*
X207993Y313440D01*
X207529Y313561D01*
Y320201D01*
X207976Y320455D01*
X208029Y320452D01*
X208647Y319647D01*
X209483Y319006D01*
X210456Y318603D01*
X211500Y318465D01*
X213500D01*
Y322500D01*
Y326535D01*
X211500D01*
X210456Y326397D01*
X209483Y325994D01*
X208647Y325353D01*
X208029Y324548D01*
X207976Y324545D01*
X207529Y324799D01*
Y330201D01*
X207976Y330455D01*
X208029Y330452D01*
X208647Y329647D01*
X209483Y329006D01*
X210456Y328603D01*
X211500Y328466D01*
X213500D01*
Y332500D01*
Y336535D01*
X211500D01*
X210456Y336397D01*
X209483Y335994D01*
X208647Y335353D01*
X208029Y334548D01*
X207976Y334545D01*
X207529Y334799D01*
Y341439D01*
X207993Y341560D01*
X208355Y340685D01*
X208932Y339932D01*
X209684Y339355D01*
X210560Y338993D01*
X211500Y338869D01*
X216500D01*
X217440Y338993D01*
X218316Y339355D01*
X219068Y339932D01*
X219645Y340685D01*
X220007Y341560D01*
X220131Y342500D01*
X220007Y343440D01*
X219645Y344316D01*
X219068Y345068D01*
X218316Y345645D01*
X217440Y346007D01*
X216500Y346131D01*
X211500D01*
X210560Y346007D01*
X209684Y345645D01*
X208932Y345068D01*
X208355Y344316D01*
X207993Y343440D01*
X207529Y343561D01*
Y351439D01*
X207993Y351560D01*
X208355Y350684D01*
X208932Y349933D01*
X209684Y349355D01*
X210560Y348993D01*
X211500Y348869D01*
X216500D01*
X217440Y348993D01*
X218316Y349355D01*
X219068Y349933D01*
X219645Y350684D01*
X220007Y351560D01*
X220131Y352500D01*
X220007Y353440D01*
X219645Y354315D01*
X219068Y355067D01*
X218316Y355645D01*
X217440Y356007D01*
X216500Y356131D01*
X211500D01*
X210560Y356007D01*
X209684Y355645D01*
X208932Y355067D01*
X208355Y354315D01*
X207993Y353440D01*
X207529Y353561D01*
Y361439D01*
X207993Y361560D01*
X208355Y360684D01*
X208932Y359932D01*
X209684Y359355D01*
X210560Y358993D01*
X211500Y358869D01*
X216500D01*
X217440Y358993D01*
X218316Y359355D01*
X219068Y359932D01*
X219645Y360684D01*
X220007Y361560D01*
X220131Y362500D01*
X220007Y363440D01*
X219645Y364316D01*
X219068Y365068D01*
X218316Y365645D01*
X217440Y366007D01*
X216500Y366131D01*
X211500D01*
X210560Y366007D01*
X209684Y365645D01*
X208932Y365068D01*
X208355Y364316D01*
X207993Y363440D01*
X207529Y363561D01*
Y371439D01*
X207993Y371560D01*
X208355Y370685D01*
X208932Y369933D01*
X209684Y369355D01*
X210560Y368993D01*
X211500Y368869D01*
X216500D01*
X217440Y368993D01*
X218316Y369355D01*
X219068Y369933D01*
X219645Y370685D01*
X220007Y371560D01*
X220131Y372500D01*
X220007Y373440D01*
X219645Y374316D01*
X219068Y375067D01*
X218316Y375645D01*
X217440Y376007D01*
X216500Y376131D01*
X211500D01*
X210560Y376007D01*
X209684Y375645D01*
X208932Y375067D01*
X208355Y374316D01*
X207993Y373440D01*
X207529Y373561D01*
Y381439D01*
X207993Y381560D01*
X208355Y380684D01*
X208932Y379932D01*
X209684Y379355D01*
X210560Y378993D01*
X211500Y378869D01*
X216500D01*
X217440Y378993D01*
X218316Y379355D01*
X219068Y379932D01*
X219645Y380684D01*
X220007Y381560D01*
X220131Y382500D01*
X220007Y383440D01*
X219645Y384315D01*
X219068Y385068D01*
X218316Y385645D01*
X217440Y386007D01*
X216500Y386131D01*
X211500D01*
X210560Y386007D01*
X209684Y385645D01*
X208932Y385068D01*
X208355Y384315D01*
X207993Y383440D01*
X207529Y383561D01*
Y391439D01*
X207993Y391560D01*
X208355Y390685D01*
X208932Y389932D01*
X209684Y389355D01*
X210560Y388993D01*
X211500Y388869D01*
X216500D01*
X217440Y388993D01*
X218316Y389355D01*
X219068Y389932D01*
X219645Y390685D01*
X220007Y391560D01*
X220131Y392500D01*
X220007Y393440D01*
X219645Y394316D01*
X219068Y395068D01*
X218316Y395645D01*
X217440Y396007D01*
X216500Y396131D01*
X211500D01*
X210560Y396007D01*
X209684Y395645D01*
X208932Y395068D01*
X208355Y394316D01*
X207993Y393440D01*
X207529Y393561D01*
Y401439D01*
X207993Y401560D01*
X208355Y400684D01*
X208932Y399933D01*
X209684Y399355D01*
X210560Y398993D01*
X211500Y398869D01*
X216500D01*
X217440Y398993D01*
X218316Y399355D01*
X219068Y399933D01*
X219645Y400684D01*
X220007Y401560D01*
X220131Y402500D01*
X220007Y403440D01*
X219645Y404316D01*
X219068Y405067D01*
X218316Y405645D01*
X217440Y406007D01*
X216500Y406131D01*
X211500D01*
X210560Y406007D01*
X209684Y405645D01*
X208932Y405067D01*
X208355Y404316D01*
X207993Y403440D01*
X207529Y403561D01*
Y411439D01*
X207993Y411560D01*
X208355Y410684D01*
X208932Y409932D01*
X209684Y409355D01*
X210560Y408993D01*
X211500Y408869D01*
X216500D01*
X217440Y408993D01*
X218316Y409355D01*
X219068Y409932D01*
X219645Y410684D01*
X220007Y411560D01*
X220131Y412500D01*
X220007Y413440D01*
X219645Y414316D01*
X219068Y415068D01*
X218316Y415645D01*
X217440Y416007D01*
X216500Y416131D01*
X211500D01*
X210560Y416007D01*
X209684Y415645D01*
X208932Y415068D01*
X208355Y414316D01*
X207993Y413440D01*
X207529Y413561D01*
Y420201D01*
X207976Y420455D01*
X208029Y420452D01*
X208647Y419647D01*
X209483Y419006D01*
X210456Y418603D01*
X211500Y418466D01*
X213500D01*
Y422500D01*
Y426535D01*
X211500D01*
X210456Y426397D01*
X209483Y425994D01*
X208647Y425353D01*
X208029Y424548D01*
X207976Y424545D01*
X207529Y424799D01*
Y431439D01*
X207993Y431560D01*
X208355Y430685D01*
X208932Y429932D01*
X209684Y429355D01*
X210560Y428993D01*
X211500Y428869D01*
X216500D01*
X217440Y428993D01*
X218316Y429355D01*
X219068Y429932D01*
X219645Y430685D01*
X220007Y431560D01*
X220131Y432500D01*
X220007Y433440D01*
X219645Y434315D01*
X219068Y435068D01*
X218316Y435645D01*
X217440Y436007D01*
X216500Y436131D01*
X211500D01*
X210560Y436007D01*
X209684Y435645D01*
X208932Y435068D01*
X208355Y434315D01*
X207993Y433440D01*
X207529Y433561D01*
Y440201D01*
X207976Y440455D01*
X208029Y440452D01*
X208647Y439647D01*
X209483Y439006D01*
X210456Y438603D01*
X211500Y438465D01*
X213500D01*
Y442500D01*
Y446534D01*
X211500D01*
X210456Y446397D01*
X209483Y445994D01*
X208647Y445353D01*
X208029Y444548D01*
X207976Y444545D01*
X207529Y444799D01*
Y451439D01*
X207993Y451560D01*
X208355Y450684D01*
X208932Y449932D01*
X209684Y449355D01*
X210560Y448993D01*
X211500Y448869D01*
X216500D01*
X217440Y448993D01*
X218316Y449355D01*
X219068Y449932D01*
X219645Y450684D01*
X220007Y451560D01*
X220131Y452500D01*
X220007Y453440D01*
X219645Y454316D01*
X219068Y455068D01*
X218316Y455645D01*
X217440Y456007D01*
X216500Y456131D01*
X211500D01*
X210560Y456007D01*
X209684Y455645D01*
X208932Y455068D01*
X208355Y454316D01*
X207993Y453440D01*
X207529Y453561D01*
Y460201D01*
X207976Y460455D01*
X208029Y460452D01*
X208647Y459647D01*
X209483Y459006D01*
X210456Y458603D01*
X211500Y458465D01*
X213500D01*
Y462500D01*
Y466535D01*
X211500D01*
X210456Y466397D01*
X209483Y465994D01*
X208647Y465353D01*
X208029Y464548D01*
X207976Y464545D01*
X207529Y464799D01*
Y468969D01*
X208029Y469068D01*
X208041Y469041D01*
X208500Y468851D01*
X219500D01*
X219959Y469041D01*
X220149Y469500D01*
Y475500D01*
X219959Y475959D01*
X219500Y476149D01*
X208500D01*
X208041Y475959D01*
X208029Y475932D01*
X207529Y476031D01*
Y507471D01*
X410471D01*
Y476655D01*
D02*
G37*
G36*
X204471D02*
X203971Y476388D01*
X203890Y476442D01*
X203500Y476520D01*
X198500D01*
Y472500D01*
Y468480D01*
X203500D01*
X203890Y468558D01*
X203971Y468612D01*
X204471Y468344D01*
Y463561D01*
X204007Y463440D01*
X203645Y464316D01*
X203068Y465068D01*
X202315Y465645D01*
X201440Y466007D01*
X200500Y466131D01*
X195500D01*
X194560Y466007D01*
X193684Y465645D01*
X192932Y465068D01*
X192355Y464316D01*
X191993Y463440D01*
X191869Y462500D01*
X191993Y461560D01*
X192355Y460684D01*
X192932Y459932D01*
X193684Y459355D01*
X194560Y458993D01*
X195500Y458869D01*
X200500D01*
X201440Y458993D01*
X202315Y459355D01*
X203068Y459932D01*
X203645Y460684D01*
X204007Y461560D01*
X204471Y461439D01*
Y453561D01*
X204007Y453440D01*
X203645Y454316D01*
X203068Y455068D01*
X202315Y455645D01*
X201440Y456007D01*
X200500Y456131D01*
X195500D01*
X194560Y456007D01*
X193684Y455645D01*
X192932Y455068D01*
X192355Y454316D01*
X191993Y453440D01*
X191869Y452500D01*
X191993Y451560D01*
X192355Y450684D01*
X192932Y449932D01*
X193684Y449355D01*
X194560Y448993D01*
X195500Y448869D01*
X200500D01*
X201440Y448993D01*
X202315Y449355D01*
X203068Y449932D01*
X203645Y450684D01*
X204007Y451560D01*
X204471Y451439D01*
Y444799D01*
X204024Y444545D01*
X203971Y444548D01*
X203353Y445353D01*
X202517Y445994D01*
X201544Y446397D01*
X200500Y446534D01*
X198500D01*
Y442500D01*
Y438465D01*
X200500D01*
X201544Y438603D01*
X202517Y439006D01*
X203353Y439647D01*
X203971Y440452D01*
X204024Y440455D01*
X204471Y440201D01*
Y433561D01*
X204007Y433440D01*
X203645Y434315D01*
X203068Y435068D01*
X202315Y435645D01*
X201440Y436007D01*
X200500Y436131D01*
X195500D01*
X194560Y436007D01*
X193684Y435645D01*
X192932Y435068D01*
X192355Y434315D01*
X191993Y433440D01*
X191869Y432500D01*
X191993Y431560D01*
X192355Y430685D01*
X192932Y429932D01*
X193684Y429355D01*
X194560Y428993D01*
X195500Y428869D01*
X200500D01*
X201440Y428993D01*
X202315Y429355D01*
X203068Y429932D01*
X203645Y430685D01*
X204007Y431560D01*
X204471Y431439D01*
Y423561D01*
X204007Y423440D01*
X203645Y424316D01*
X203068Y425068D01*
X202315Y425645D01*
X201440Y426007D01*
X200500Y426131D01*
X195500D01*
X194560Y426007D01*
X193684Y425645D01*
X192932Y425068D01*
X192355Y424316D01*
X191993Y423440D01*
X191869Y422500D01*
X191993Y421560D01*
X192355Y420684D01*
X192932Y419932D01*
X193684Y419355D01*
X194560Y418993D01*
X195500Y418869D01*
X200500D01*
X201440Y418993D01*
X202315Y419355D01*
X203068Y419932D01*
X203645Y420684D01*
X204007Y421560D01*
X204471Y421439D01*
Y414799D01*
X204024Y414545D01*
X203971Y414548D01*
X203353Y415353D01*
X202517Y415994D01*
X201544Y416397D01*
X200500Y416535D01*
X198500D01*
Y412500D01*
Y408465D01*
X200500D01*
X201544Y408603D01*
X202517Y409006D01*
X203353Y409647D01*
X203971Y410452D01*
X204024Y410455D01*
X204471Y410201D01*
Y403561D01*
X204007Y403440D01*
X203645Y404316D01*
X203068Y405067D01*
X202315Y405645D01*
X201440Y406007D01*
X200500Y406131D01*
X195500D01*
X194560Y406007D01*
X193684Y405645D01*
X192932Y405067D01*
X192355Y404316D01*
X191993Y403440D01*
X191869Y402500D01*
X191993Y401560D01*
X192355Y400684D01*
X192932Y399933D01*
X193684Y399355D01*
X194560Y398993D01*
X195500Y398869D01*
X200500D01*
X201440Y398993D01*
X202315Y399355D01*
X203068Y399933D01*
X203645Y400684D01*
X204007Y401560D01*
X204471Y401439D01*
Y394799D01*
X204024Y394545D01*
X203971Y394548D01*
X203353Y395353D01*
X202517Y395994D01*
X201544Y396397D01*
X200500Y396534D01*
X198500D01*
Y392500D01*
Y388465D01*
X200500D01*
X201544Y388603D01*
X202517Y389006D01*
X203353Y389647D01*
X203971Y390452D01*
X204024Y390455D01*
X204471Y390201D01*
Y384799D01*
X204024Y384545D01*
X203971Y384548D01*
X203353Y385353D01*
X202517Y385994D01*
X201544Y386397D01*
X200500Y386535D01*
X198500D01*
Y382500D01*
Y378466D01*
X200500D01*
X201544Y378603D01*
X202517Y379006D01*
X203353Y379647D01*
X203971Y380452D01*
X204024Y380455D01*
X204471Y380201D01*
Y373561D01*
X204007Y373440D01*
X203645Y374316D01*
X203068Y375067D01*
X202315Y375645D01*
X201440Y376007D01*
X200500Y376131D01*
X195500D01*
X194560Y376007D01*
X193684Y375645D01*
X192932Y375067D01*
X192355Y374316D01*
X191993Y373440D01*
X191869Y372500D01*
X191993Y371560D01*
X192355Y370685D01*
X192932Y369933D01*
X193684Y369355D01*
X194560Y368993D01*
X195500Y368869D01*
X200500D01*
X201440Y368993D01*
X202315Y369355D01*
X203068Y369933D01*
X203645Y370685D01*
X204007Y371560D01*
X204471Y371439D01*
Y363561D01*
X204007Y363440D01*
X203645Y364316D01*
X203068Y365068D01*
X202315Y365645D01*
X201440Y366007D01*
X200500Y366131D01*
X195500D01*
X194560Y366007D01*
X193684Y365645D01*
X192932Y365068D01*
X192355Y364316D01*
X191993Y363440D01*
X191869Y362500D01*
X191993Y361560D01*
X192355Y360684D01*
X192932Y359932D01*
X193684Y359355D01*
X194560Y358993D01*
X195500Y358869D01*
X200500D01*
X201440Y358993D01*
X202315Y359355D01*
X203068Y359932D01*
X203645Y360684D01*
X204007Y361560D01*
X204471Y361439D01*
Y353561D01*
X204007Y353440D01*
X203645Y354315D01*
X203068Y355067D01*
X202315Y355645D01*
X201440Y356007D01*
X200500Y356131D01*
X195500D01*
X194560Y356007D01*
X193684Y355645D01*
X192932Y355067D01*
X192355Y354315D01*
X191993Y353440D01*
X191869Y352500D01*
X191993Y351560D01*
X192355Y350684D01*
X192932Y349933D01*
X193684Y349355D01*
X194560Y348993D01*
X195500Y348869D01*
X200500D01*
X201440Y348993D01*
X202315Y349355D01*
X203068Y349933D01*
X203645Y350684D01*
X204007Y351560D01*
X204471Y351439D01*
Y343561D01*
X204007Y343440D01*
X203645Y344316D01*
X203068Y345068D01*
X202315Y345645D01*
X201440Y346007D01*
X200500Y346131D01*
X195500D01*
X194560Y346007D01*
X193684Y345645D01*
X192932Y345068D01*
X192355Y344316D01*
X191993Y343440D01*
X191869Y342500D01*
X191993Y341560D01*
X192355Y340685D01*
X192932Y339932D01*
X193684Y339355D01*
X194560Y338993D01*
X195500Y338869D01*
X200500D01*
X201440Y338993D01*
X202315Y339355D01*
X203068Y339932D01*
X203645Y340685D01*
X204007Y341560D01*
X204471Y341439D01*
Y333561D01*
X204007Y333440D01*
X203645Y334315D01*
X203068Y335068D01*
X202315Y335645D01*
X201440Y336007D01*
X200500Y336131D01*
X195500D01*
X194560Y336007D01*
X193684Y335645D01*
X192932Y335068D01*
X192355Y334315D01*
X191993Y333440D01*
X191869Y332500D01*
X191993Y331560D01*
X192355Y330684D01*
X192932Y329932D01*
X193684Y329355D01*
X194560Y328993D01*
X195500Y328869D01*
X200500D01*
X201440Y328993D01*
X202315Y329355D01*
X203068Y329932D01*
X203645Y330684D01*
X204007Y331560D01*
X204471Y331439D01*
Y324799D01*
X204024Y324545D01*
X203971Y324548D01*
X203353Y325353D01*
X202517Y325994D01*
X201544Y326397D01*
X200500Y326535D01*
X198500D01*
Y322500D01*
Y318465D01*
X200500D01*
X201544Y318603D01*
X202517Y319006D01*
X203353Y319647D01*
X203971Y320452D01*
X204024Y320455D01*
X204471Y320201D01*
Y314799D01*
X204024Y314545D01*
X203971Y314548D01*
X203353Y315353D01*
X202517Y315994D01*
X201544Y316397D01*
X200500Y316534D01*
X198500D01*
Y312500D01*
Y308466D01*
X200500D01*
X201544Y308603D01*
X202517Y309006D01*
X203353Y309647D01*
X203971Y310452D01*
X204024Y310455D01*
X204471Y310201D01*
Y303561D01*
X204007Y303440D01*
X203645Y304315D01*
X203068Y305067D01*
X202315Y305645D01*
X201440Y306007D01*
X200500Y306131D01*
X195500D01*
X194560Y306007D01*
X193684Y305645D01*
X192932Y305067D01*
X192355Y304315D01*
X191993Y303440D01*
X191869Y302500D01*
X191993Y301560D01*
X192355Y300684D01*
X192932Y299933D01*
X193684Y299355D01*
X194560Y298993D01*
X195500Y298869D01*
X200500D01*
X201440Y298993D01*
X202315Y299355D01*
X203068Y299933D01*
X203645Y300684D01*
X204007Y301560D01*
X204471Y301439D01*
Y293561D01*
X204007Y293440D01*
X203645Y294316D01*
X203068Y295068D01*
X202315Y295645D01*
X201440Y296007D01*
X200500Y296131D01*
X195500D01*
X194560Y296007D01*
X193684Y295645D01*
X192932Y295068D01*
X192355Y294316D01*
X191993Y293440D01*
X191869Y292500D01*
X191993Y291560D01*
X192355Y290685D01*
X192932Y289932D01*
X193684Y289355D01*
X194560Y288993D01*
X195500Y288869D01*
X200500D01*
X201440Y288993D01*
X202315Y289355D01*
X203068Y289932D01*
X203645Y290685D01*
X204007Y291560D01*
X204471Y291439D01*
Y283561D01*
X204007Y283440D01*
X203645Y284315D01*
X203068Y285068D01*
X202315Y285645D01*
X201440Y286007D01*
X200500Y286131D01*
X195500D01*
X194560Y286007D01*
X193684Y285645D01*
X192932Y285068D01*
X192355Y284315D01*
X191993Y283440D01*
X191869Y282500D01*
X191993Y281560D01*
X192355Y280684D01*
X192932Y279932D01*
X193684Y279355D01*
X194560Y278993D01*
X195500Y278869D01*
X200500D01*
X201440Y278993D01*
X202315Y279355D01*
X203068Y279932D01*
X203645Y280684D01*
X204007Y281560D01*
X204471Y281439D01*
Y256029D01*
X199061D01*
X198940Y256493D01*
X199815Y256855D01*
X200568Y257433D01*
X201145Y258185D01*
X201507Y259060D01*
X201631Y260000D01*
Y265000D01*
X201507Y265940D01*
X201145Y266815D01*
X200568Y267567D01*
X199815Y268145D01*
X198940Y268507D01*
X198000Y268631D01*
X197060Y268507D01*
X196185Y268145D01*
X195432Y267567D01*
X194855Y266815D01*
X194493Y265940D01*
X194369Y265000D01*
Y260000D01*
X194493Y259060D01*
X194855Y258185D01*
X195432Y257433D01*
X196185Y256855D01*
X197060Y256493D01*
X196939Y256029D01*
X189061D01*
X188940Y256493D01*
X189815Y256855D01*
X190568Y257433D01*
X191145Y258185D01*
X191507Y259060D01*
X191631Y260000D01*
Y265000D01*
X191507Y265940D01*
X191145Y266815D01*
X190568Y267567D01*
X189815Y268145D01*
X188940Y268507D01*
X188000Y268631D01*
X187060Y268507D01*
X186185Y268145D01*
X185432Y267567D01*
X184855Y266815D01*
X184493Y265940D01*
X184369Y265000D01*
Y260000D01*
X184493Y259060D01*
X184855Y258185D01*
X185432Y257433D01*
X186185Y256855D01*
X187060Y256493D01*
X186939Y256029D01*
X179061D01*
X178940Y256493D01*
X179815Y256855D01*
X180568Y257433D01*
X181145Y258185D01*
X181507Y259060D01*
X181631Y260000D01*
Y265000D01*
X181507Y265940D01*
X181145Y266815D01*
X180568Y267567D01*
X179815Y268145D01*
X178940Y268507D01*
X178000Y268631D01*
X177060Y268507D01*
X176184Y268145D01*
X175432Y267567D01*
X174855Y266815D01*
X174493Y265940D01*
X174369Y265000D01*
Y260000D01*
X174493Y259060D01*
X174855Y258185D01*
X175432Y257433D01*
X176184Y256855D01*
X177060Y256493D01*
X176939Y256029D01*
X169061D01*
X168940Y256493D01*
X169816Y256855D01*
X170568Y257433D01*
X171145Y258185D01*
X171507Y259060D01*
X171631Y260000D01*
Y265000D01*
X171507Y265940D01*
X171145Y266815D01*
X170568Y267567D01*
X169816Y268145D01*
X168940Y268507D01*
X168000Y268631D01*
X167060Y268507D01*
X166184Y268145D01*
X165432Y267567D01*
X164855Y266815D01*
X164493Y265940D01*
X164369Y265000D01*
Y260000D01*
X164493Y259060D01*
X164855Y258185D01*
X165432Y257433D01*
X166184Y256855D01*
X167060Y256493D01*
X166939Y256029D01*
X159061D01*
X158940Y256493D01*
X159816Y256855D01*
X160568Y257433D01*
X161145Y258185D01*
X161507Y259060D01*
X161631Y260000D01*
Y265000D01*
X161507Y265940D01*
X161145Y266815D01*
X160568Y267567D01*
X159816Y268145D01*
X158940Y268507D01*
X158000Y268631D01*
X157060Y268507D01*
X156184Y268145D01*
X155432Y267567D01*
X154855Y266815D01*
X154493Y265940D01*
X154369Y265000D01*
Y260000D01*
X154493Y259060D01*
X154855Y258185D01*
X155432Y257433D01*
X156184Y256855D01*
X157060Y256493D01*
X156939Y256029D01*
X149061D01*
X148940Y256493D01*
X149815Y256855D01*
X150568Y257433D01*
X151145Y258185D01*
X151507Y259060D01*
X151631Y260000D01*
Y265000D01*
X151507Y265940D01*
X151145Y266815D01*
X150568Y267567D01*
X149815Y268145D01*
X148940Y268507D01*
X148000Y268631D01*
X147060Y268507D01*
X146185Y268145D01*
X145432Y267567D01*
X144855Y266815D01*
X144493Y265940D01*
X144369Y265000D01*
Y260000D01*
X144493Y259060D01*
X144855Y258185D01*
X145432Y257433D01*
X146185Y256855D01*
X147060Y256493D01*
X146939Y256029D01*
X139061D01*
X138940Y256493D01*
X139815Y256855D01*
X140568Y257433D01*
X141145Y258185D01*
X141507Y259060D01*
X141631Y260000D01*
Y265000D01*
X141507Y265940D01*
X141145Y266815D01*
X140568Y267567D01*
X139815Y268145D01*
X138940Y268507D01*
X138000Y268631D01*
X137060Y268507D01*
X136185Y268145D01*
X135432Y267567D01*
X134855Y266815D01*
X134493Y265940D01*
X134369Y265000D01*
Y260000D01*
X134493Y259060D01*
X134855Y258185D01*
X135432Y257433D01*
X136185Y256855D01*
X137060Y256493D01*
X136939Y256029D01*
X129061D01*
X128940Y256493D01*
X129815Y256855D01*
X130568Y257433D01*
X131145Y258185D01*
X131507Y259060D01*
X131631Y260000D01*
Y265000D01*
X131507Y265940D01*
X131145Y266815D01*
X130568Y267567D01*
X129815Y268145D01*
X128940Y268507D01*
X128000Y268631D01*
X127060Y268507D01*
X126184Y268145D01*
X125432Y267567D01*
X124855Y266815D01*
X124493Y265940D01*
X124369Y265000D01*
Y260000D01*
X124493Y259060D01*
X124855Y258185D01*
X125432Y257433D01*
X126184Y256855D01*
X127060Y256493D01*
X126939Y256029D01*
X119061D01*
X118940Y256493D01*
X119816Y256855D01*
X120568Y257433D01*
X121145Y258185D01*
X121507Y259060D01*
X121631Y260000D01*
Y265000D01*
X121507Y265940D01*
X121145Y266815D01*
X120568Y267567D01*
X119816Y268145D01*
X118940Y268507D01*
X118000Y268631D01*
X117060Y268507D01*
X116184Y268145D01*
X115432Y267567D01*
X114855Y266815D01*
X114493Y265940D01*
X114369Y265000D01*
Y260000D01*
X114493Y259060D01*
X114855Y258185D01*
X115432Y257433D01*
X116184Y256855D01*
X117060Y256493D01*
X116939Y256029D01*
X109061D01*
X108940Y256493D01*
X109816Y256855D01*
X110568Y257433D01*
X111145Y258185D01*
X111507Y259060D01*
X111631Y260000D01*
Y265000D01*
X111507Y265940D01*
X111145Y266815D01*
X110568Y267567D01*
X109816Y268145D01*
X109122Y268432D01*
Y271535D01*
X118293Y280707D01*
X118293Y280707D01*
X118536Y281071D01*
X118622Y281500D01*
X118622Y281500D01*
Y313024D01*
X118834Y313166D01*
X119243Y313778D01*
X119386Y314500D01*
X119243Y315222D01*
X118834Y315834D01*
X118222Y316243D01*
X117500Y316386D01*
X116778Y316243D01*
X116166Y315834D01*
X115757Y315222D01*
X115614Y314500D01*
X115757Y313778D01*
X116166Y313166D01*
X116378Y313024D01*
Y281965D01*
X107207Y272793D01*
X106964Y272429D01*
X106878Y272000D01*
X106878Y272000D01*
Y268432D01*
X106184Y268145D01*
X105432Y267567D01*
X104855Y266815D01*
X104493Y265940D01*
X104369Y265000D01*
Y260000D01*
X104493Y259060D01*
X104855Y258185D01*
X105432Y257433D01*
X106184Y256855D01*
X107060Y256493D01*
X106939Y256029D01*
X100299D01*
X100045Y256476D01*
X100048Y256529D01*
X100853Y257147D01*
X101494Y257983D01*
X101897Y258956D01*
X102034Y260000D01*
Y262000D01*
X98000D01*
X93966D01*
Y260000D01*
X94103Y258956D01*
X94506Y257983D01*
X95147Y257147D01*
X95952Y256529D01*
X95955Y256476D01*
X95701Y256029D01*
X90299D01*
X90045Y256476D01*
X90048Y256529D01*
X90853Y257147D01*
X91494Y257983D01*
X91897Y258956D01*
X92035Y260000D01*
Y262000D01*
X88000D01*
X83965D01*
Y260000D01*
X84103Y258956D01*
X84506Y257983D01*
X85147Y257147D01*
X85952Y256529D01*
X85955Y256476D01*
X85701Y256029D01*
X79061D01*
X78940Y256493D01*
X79816Y256855D01*
X80568Y257433D01*
X81145Y258185D01*
X81507Y259060D01*
X81631Y260000D01*
Y265000D01*
X81507Y265940D01*
X81145Y266815D01*
X80568Y267567D01*
X79816Y268145D01*
X78940Y268507D01*
X78000Y268631D01*
X77060Y268507D01*
X76184Y268145D01*
X75432Y267567D01*
X74855Y266815D01*
X74493Y265940D01*
X74369Y265000D01*
Y260000D01*
X74493Y259060D01*
X74855Y258185D01*
X75432Y257433D01*
X76184Y256855D01*
X77060Y256493D01*
X76939Y256029D01*
X69061D01*
X68940Y256493D01*
X69815Y256855D01*
X70568Y257433D01*
X71145Y258185D01*
X71507Y259060D01*
X71631Y260000D01*
Y265000D01*
X71507Y265940D01*
X71145Y266815D01*
X70568Y267567D01*
X69815Y268145D01*
X68940Y268507D01*
X68000Y268631D01*
X67060Y268507D01*
X66185Y268145D01*
X65432Y267567D01*
X64855Y266815D01*
X64493Y265940D01*
X64369Y265000D01*
Y260000D01*
X64493Y259060D01*
X64855Y258185D01*
X65432Y257433D01*
X66185Y256855D01*
X67060Y256493D01*
X66939Y256029D01*
X59061D01*
X58940Y256493D01*
X59816Y256855D01*
X60568Y257433D01*
X61145Y258185D01*
X61507Y259060D01*
X61631Y260000D01*
Y265000D01*
X61507Y265940D01*
X61145Y266815D01*
X60568Y267567D01*
X59816Y268145D01*
X58940Y268507D01*
X58000Y268631D01*
X57060Y268507D01*
X56185Y268145D01*
X55432Y267567D01*
X54855Y266815D01*
X54493Y265940D01*
X54369Y265000D01*
Y260000D01*
X54493Y259060D01*
X54855Y258185D01*
X55432Y257433D01*
X56185Y256855D01*
X57060Y256493D01*
X56939Y256029D01*
X49061D01*
X48940Y256493D01*
X49815Y256855D01*
X50568Y257433D01*
X51145Y258185D01*
X51507Y259060D01*
X51631Y260000D01*
Y265000D01*
X51507Y265940D01*
X51145Y266815D01*
X50568Y267567D01*
X49815Y268145D01*
X49122Y268432D01*
Y286024D01*
X49334Y286166D01*
X49743Y286778D01*
X49886Y287500D01*
X49743Y288222D01*
X49334Y288834D01*
X48722Y289243D01*
X48000Y289386D01*
X47278Y289243D01*
X46666Y288834D01*
X46257Y288222D01*
X46114Y287500D01*
X46257Y286778D01*
X46666Y286166D01*
X46878Y286024D01*
Y268432D01*
X46185Y268145D01*
X45432Y267567D01*
X44855Y266815D01*
X44493Y265940D01*
X44369Y265000D01*
Y260000D01*
X44493Y259060D01*
X44855Y258185D01*
X45432Y257433D01*
X46185Y256855D01*
X47060Y256493D01*
X46939Y256029D01*
X39061D01*
X38940Y256493D01*
X39816Y256855D01*
X40567Y257433D01*
X41145Y258185D01*
X41507Y259060D01*
X41631Y260000D01*
Y265000D01*
X41507Y265940D01*
X41145Y266815D01*
X40567Y267567D01*
X39816Y268145D01*
X39020Y268474D01*
Y277078D01*
X39629Y277688D01*
X40000Y277614D01*
X40722Y277757D01*
X41334Y278166D01*
X41743Y278778D01*
X41886Y279500D01*
X41743Y280222D01*
X41334Y280834D01*
X40722Y281243D01*
X40000Y281386D01*
X39278Y281243D01*
X38666Y280834D01*
X38257Y280222D01*
X38114Y279500D01*
X38188Y279129D01*
X37279Y278221D01*
X37058Y277890D01*
X36980Y277500D01*
Y268474D01*
X36184Y268145D01*
X35432Y267567D01*
X34855Y266815D01*
X34493Y265940D01*
X34369Y265000D01*
Y260000D01*
X34493Y259060D01*
X34855Y258185D01*
X35432Y257433D01*
X36184Y256855D01*
X37060Y256493D01*
X36939Y256029D01*
X29061D01*
X28940Y256493D01*
X29816Y256855D01*
X30567Y257433D01*
X31145Y258185D01*
X31507Y259060D01*
X31631Y260000D01*
Y265000D01*
X31507Y265940D01*
X31145Y266815D01*
X30567Y267567D01*
X29816Y268145D01*
X28940Y268507D01*
X28000Y268631D01*
X27060Y268507D01*
X26184Y268145D01*
X25433Y267567D01*
X24855Y266815D01*
X24493Y265940D01*
X24369Y265000D01*
Y260000D01*
X24493Y259060D01*
X24855Y258185D01*
X25433Y257433D01*
X26184Y256855D01*
X27060Y256493D01*
X26939Y256029D01*
X19061D01*
X18940Y256493D01*
X19816Y256855D01*
X20568Y257433D01*
X21145Y258185D01*
X21507Y259060D01*
X21631Y260000D01*
Y265000D01*
X21507Y265940D01*
X21145Y266815D01*
X20568Y267567D01*
X19816Y268145D01*
X18940Y268507D01*
X18000Y268631D01*
X17060Y268507D01*
X16184Y268145D01*
X15432Y267567D01*
X14855Y266815D01*
X14493Y265940D01*
X14369Y265000D01*
Y260000D01*
X14493Y259060D01*
X14855Y258185D01*
X15432Y257433D01*
X16184Y256855D01*
X17060Y256493D01*
X16939Y256029D01*
X12156D01*
X11888Y256529D01*
X11942Y256610D01*
X12020Y257000D01*
Y262000D01*
X8000D01*
X3980D01*
Y257000D01*
X4058Y256610D01*
X4112Y256529D01*
X3844Y256029D01*
X1529D01*
Y281439D01*
X1993Y281560D01*
X2355Y280684D01*
X2932Y279932D01*
X3684Y279355D01*
X4560Y278993D01*
X5500Y278869D01*
X10500D01*
X11440Y278993D01*
X12315Y279355D01*
X13068Y279932D01*
X13645Y280684D01*
X14007Y281560D01*
X14131Y282500D01*
X14007Y283440D01*
X13645Y284315D01*
X13068Y285068D01*
X12315Y285645D01*
X11440Y286007D01*
X10500Y286131D01*
X5500D01*
X4560Y286007D01*
X3684Y285645D01*
X2932Y285068D01*
X2355Y284315D01*
X1993Y283440D01*
X1529Y283561D01*
Y291439D01*
X1993Y291560D01*
X2355Y290685D01*
X2932Y289932D01*
X3684Y289355D01*
X4560Y288993D01*
X5500Y288869D01*
X10500D01*
X11440Y288993D01*
X12315Y289355D01*
X13068Y289932D01*
X13645Y290685D01*
X14007Y291560D01*
X14131Y292500D01*
X14007Y293440D01*
X13645Y294316D01*
X13068Y295068D01*
X12315Y295645D01*
X11440Y296007D01*
X10500Y296131D01*
X5500D01*
X4560Y296007D01*
X3684Y295645D01*
X2932Y295068D01*
X2355Y294316D01*
X1993Y293440D01*
X1529Y293561D01*
Y301439D01*
X1993Y301560D01*
X2355Y300684D01*
X2932Y299933D01*
X3684Y299355D01*
X4560Y298993D01*
X5500Y298869D01*
X10500D01*
X11440Y298993D01*
X12315Y299355D01*
X13068Y299933D01*
X13645Y300684D01*
X14007Y301560D01*
X14131Y302500D01*
X14007Y303440D01*
X13645Y304315D01*
X13068Y305067D01*
X12315Y305645D01*
X11440Y306007D01*
X10500Y306131D01*
X5500D01*
X4560Y306007D01*
X3684Y305645D01*
X2932Y305067D01*
X2355Y304315D01*
X1993Y303440D01*
X1529Y303561D01*
Y311439D01*
X1993Y311560D01*
X2355Y310684D01*
X2932Y309932D01*
X3684Y309355D01*
X4560Y308993D01*
X5500Y308869D01*
X10500D01*
X11440Y308993D01*
X12315Y309355D01*
X13068Y309932D01*
X13645Y310684D01*
X14007Y311560D01*
X14131Y312500D01*
X14007Y313440D01*
X13645Y314316D01*
X13068Y315068D01*
X12315Y315645D01*
X11440Y316007D01*
X10500Y316131D01*
X5500D01*
X4560Y316007D01*
X3684Y315645D01*
X2932Y315068D01*
X2355Y314316D01*
X1993Y313440D01*
X1529Y313561D01*
Y320201D01*
X1976Y320455D01*
X2029Y320452D01*
X2647Y319647D01*
X3483Y319006D01*
X4456Y318603D01*
X5500Y318465D01*
X7500D01*
Y322500D01*
Y326535D01*
X5500D01*
X4456Y326397D01*
X3483Y325994D01*
X2647Y325353D01*
X2029Y324548D01*
X1976Y324545D01*
X1529Y324799D01*
Y330201D01*
X1976Y330455D01*
X2029Y330452D01*
X2647Y329647D01*
X3483Y329006D01*
X4456Y328603D01*
X5500Y328466D01*
X7500D01*
Y332500D01*
Y336535D01*
X5500D01*
X4456Y336397D01*
X3483Y335994D01*
X2647Y335353D01*
X2029Y334548D01*
X1976Y334545D01*
X1529Y334799D01*
Y341439D01*
X1993Y341560D01*
X2355Y340685D01*
X2932Y339932D01*
X3684Y339355D01*
X4560Y338993D01*
X5500Y338869D01*
X10500D01*
X11440Y338993D01*
X12315Y339355D01*
X13068Y339932D01*
X13645Y340685D01*
X14007Y341560D01*
X14131Y342500D01*
X14007Y343440D01*
X13645Y344316D01*
X13068Y345068D01*
X12315Y345645D01*
X11440Y346007D01*
X10500Y346131D01*
X5500D01*
X4560Y346007D01*
X3684Y345645D01*
X2932Y345068D01*
X2355Y344316D01*
X1993Y343440D01*
X1529Y343561D01*
Y351439D01*
X1993Y351560D01*
X2355Y350684D01*
X2932Y349933D01*
X3684Y349355D01*
X4560Y348993D01*
X5500Y348869D01*
X10500D01*
X11440Y348993D01*
X12315Y349355D01*
X13068Y349933D01*
X13645Y350684D01*
X14007Y351560D01*
X14131Y352500D01*
X14007Y353440D01*
X13645Y354315D01*
X13068Y355067D01*
X12315Y355645D01*
X11440Y356007D01*
X10500Y356131D01*
X5500D01*
X4560Y356007D01*
X3684Y355645D01*
X2932Y355067D01*
X2355Y354315D01*
X1993Y353440D01*
X1529Y353561D01*
Y361439D01*
X1993Y361560D01*
X2355Y360684D01*
X2932Y359932D01*
X3684Y359355D01*
X4560Y358993D01*
X5500Y358869D01*
X10500D01*
X11440Y358993D01*
X12315Y359355D01*
X13068Y359932D01*
X13645Y360684D01*
X14007Y361560D01*
X14131Y362500D01*
X14007Y363440D01*
X13645Y364316D01*
X13068Y365068D01*
X12315Y365645D01*
X11440Y366007D01*
X10500Y366131D01*
X5500D01*
X4560Y366007D01*
X3684Y365645D01*
X2932Y365068D01*
X2355Y364316D01*
X1993Y363440D01*
X1529Y363561D01*
Y371439D01*
X1993Y371560D01*
X2355Y370685D01*
X2932Y369933D01*
X3684Y369355D01*
X4560Y368993D01*
X5500Y368869D01*
X10500D01*
X11440Y368993D01*
X12315Y369355D01*
X13068Y369933D01*
X13645Y370685D01*
X14007Y371560D01*
X14131Y372500D01*
X14007Y373440D01*
X13645Y374316D01*
X13068Y375067D01*
X12315Y375645D01*
X11440Y376007D01*
X10500Y376131D01*
X5500D01*
X4560Y376007D01*
X3684Y375645D01*
X2932Y375067D01*
X2355Y374316D01*
X1993Y373440D01*
X1529Y373561D01*
Y381439D01*
X1993Y381560D01*
X2355Y380684D01*
X2932Y379932D01*
X3684Y379355D01*
X4560Y378993D01*
X5500Y378869D01*
X10500D01*
X11440Y378993D01*
X12315Y379355D01*
X13068Y379932D01*
X13645Y380684D01*
X14007Y381560D01*
X14131Y382500D01*
X14007Y383440D01*
X13645Y384315D01*
X13068Y385068D01*
X12315Y385645D01*
X11440Y386007D01*
X10500Y386131D01*
X5500D01*
X4560Y386007D01*
X3684Y385645D01*
X2932Y385068D01*
X2355Y384315D01*
X1993Y383440D01*
X1529Y383561D01*
Y391439D01*
X1993Y391560D01*
X2355Y390685D01*
X2932Y389932D01*
X3684Y389355D01*
X4560Y388993D01*
X5500Y388869D01*
X10500D01*
X11440Y388993D01*
X12315Y389355D01*
X13068Y389932D01*
X13645Y390685D01*
X14007Y391560D01*
X14131Y392500D01*
X14007Y393440D01*
X13645Y394316D01*
X13068Y395068D01*
X12315Y395645D01*
X11440Y396007D01*
X10500Y396131D01*
X5500D01*
X4560Y396007D01*
X3684Y395645D01*
X2932Y395068D01*
X2355Y394316D01*
X1993Y393440D01*
X1529Y393561D01*
Y401439D01*
X1993Y401560D01*
X2355Y400684D01*
X2932Y399933D01*
X3684Y399355D01*
X4560Y398993D01*
X5500Y398869D01*
X10500D01*
X11440Y398993D01*
X12315Y399355D01*
X13068Y399933D01*
X13645Y400684D01*
X14007Y401560D01*
X14131Y402500D01*
X14007Y403440D01*
X13645Y404316D01*
X13068Y405067D01*
X12315Y405645D01*
X11440Y406007D01*
X10500Y406131D01*
X5500D01*
X4560Y406007D01*
X3684Y405645D01*
X2932Y405067D01*
X2355Y404316D01*
X1993Y403440D01*
X1529Y403561D01*
Y411439D01*
X1993Y411560D01*
X2355Y410684D01*
X2932Y409932D01*
X3684Y409355D01*
X4560Y408993D01*
X5500Y408869D01*
X10500D01*
X11440Y408993D01*
X12315Y409355D01*
X13068Y409932D01*
X13645Y410684D01*
X14007Y411560D01*
X14131Y412500D01*
X14007Y413440D01*
X13645Y414316D01*
X13068Y415068D01*
X12315Y415645D01*
X11440Y416007D01*
X10500Y416131D01*
X5500D01*
X4560Y416007D01*
X3684Y415645D01*
X2932Y415068D01*
X2355Y414316D01*
X1993Y413440D01*
X1529Y413561D01*
Y420201D01*
X1976Y420455D01*
X2029Y420452D01*
X2647Y419647D01*
X3483Y419006D01*
X4456Y418603D01*
X5500Y418466D01*
X7500D01*
Y422500D01*
Y426535D01*
X5500D01*
X4456Y426397D01*
X3483Y425994D01*
X2647Y425353D01*
X2029Y424548D01*
X1976Y424545D01*
X1529Y424799D01*
Y431439D01*
X1993Y431560D01*
X2355Y430685D01*
X2932Y429932D01*
X3684Y429355D01*
X4560Y428993D01*
X5500Y428869D01*
X10500D01*
X11440Y428993D01*
X12315Y429355D01*
X13068Y429932D01*
X13645Y430685D01*
X14007Y431560D01*
X14131Y432500D01*
X14007Y433440D01*
X13645Y434315D01*
X13068Y435068D01*
X12315Y435645D01*
X11440Y436007D01*
X10500Y436131D01*
X5500D01*
X4560Y436007D01*
X3684Y435645D01*
X2932Y435068D01*
X2355Y434315D01*
X1993Y433440D01*
X1529Y433561D01*
Y440201D01*
X1976Y440455D01*
X2029Y440452D01*
X2647Y439647D01*
X3483Y439006D01*
X4456Y438603D01*
X5500Y438465D01*
X7500D01*
Y442500D01*
Y446534D01*
X5500D01*
X4456Y446397D01*
X3483Y445994D01*
X2647Y445353D01*
X2029Y444548D01*
X1976Y444545D01*
X1529Y444799D01*
Y451439D01*
X1993Y451560D01*
X2355Y450684D01*
X2932Y449932D01*
X3684Y449355D01*
X4560Y448993D01*
X5500Y448869D01*
X10500D01*
X11440Y448993D01*
X12315Y449355D01*
X13068Y449932D01*
X13645Y450684D01*
X14007Y451560D01*
X14131Y452500D01*
X14007Y453440D01*
X13645Y454316D01*
X13068Y455068D01*
X12315Y455645D01*
X11440Y456007D01*
X10500Y456131D01*
X5500D01*
X4560Y456007D01*
X3684Y455645D01*
X2932Y455068D01*
X2355Y454316D01*
X1993Y453440D01*
X1529Y453561D01*
Y460201D01*
X1976Y460455D01*
X2029Y460452D01*
X2647Y459647D01*
X3483Y459006D01*
X4456Y458603D01*
X5500Y458465D01*
X7500D01*
Y462500D01*
Y466535D01*
X5500D01*
X4456Y466397D01*
X3483Y465994D01*
X2647Y465353D01*
X2029Y464548D01*
X1976Y464545D01*
X1529Y464799D01*
Y468969D01*
X2029Y469068D01*
X2041Y469041D01*
X2500Y468851D01*
X13500D01*
X13959Y469041D01*
X14149Y469500D01*
Y475500D01*
X13959Y475959D01*
X13500Y476149D01*
X2500D01*
X2041Y475959D01*
X2029Y475932D01*
X1529Y476031D01*
Y507471D01*
X204471D01*
Y476655D01*
D02*
G37*
G36*
X410471Y222155D02*
X409971Y221888D01*
X409890Y221942D01*
X409500Y222020D01*
X404500D01*
Y218000D01*
Y213980D01*
X409500D01*
X409890Y214058D01*
X409971Y214112D01*
X410471Y213844D01*
Y209061D01*
X410007Y208940D01*
X409645Y209816D01*
X409067Y210567D01*
X408316Y211145D01*
X407440Y211507D01*
X406500Y211631D01*
X401500D01*
X400560Y211507D01*
X399685Y211145D01*
X398933Y210567D01*
X398355Y209816D01*
X397993Y208940D01*
X397869Y208000D01*
X397993Y207060D01*
X398355Y206185D01*
X398933Y205433D01*
X399685Y204855D01*
X400560Y204493D01*
X401500Y204369D01*
X406500D01*
X407440Y204493D01*
X408316Y204855D01*
X409067Y205433D01*
X409645Y206185D01*
X410007Y207060D01*
X410471Y206939D01*
Y199061D01*
X410007Y198940D01*
X409645Y199815D01*
X409067Y200568D01*
X408316Y201145D01*
X407440Y201507D01*
X406500Y201631D01*
X401500D01*
X400560Y201507D01*
X399685Y201145D01*
X398933Y200568D01*
X398355Y199815D01*
X397993Y198940D01*
X397869Y198000D01*
X397993Y197060D01*
X398355Y196185D01*
X398933Y195432D01*
X399685Y194855D01*
X400560Y194493D01*
X401500Y194369D01*
X406500D01*
X407440Y194493D01*
X408316Y194855D01*
X409067Y195432D01*
X409645Y196185D01*
X410007Y197060D01*
X410471Y196939D01*
Y190299D01*
X410024Y190045D01*
X409971Y190048D01*
X409353Y190853D01*
X408517Y191494D01*
X407544Y191897D01*
X406500Y192034D01*
X404500D01*
Y188000D01*
Y183966D01*
X406500D01*
X407544Y184103D01*
X408517Y184506D01*
X409353Y185147D01*
X409971Y185952D01*
X410024Y185955D01*
X410471Y185701D01*
Y179061D01*
X410007Y178940D01*
X409645Y179815D01*
X409067Y180568D01*
X408316Y181145D01*
X407440Y181507D01*
X406500Y181631D01*
X401500D01*
X400560Y181507D01*
X399685Y181145D01*
X398933Y180568D01*
X398355Y179815D01*
X397993Y178940D01*
X397869Y178000D01*
X397993Y177060D01*
X398355Y176184D01*
X398933Y175432D01*
X399685Y174855D01*
X400560Y174493D01*
X401500Y174369D01*
X406500D01*
X407440Y174493D01*
X408316Y174855D01*
X409067Y175432D01*
X409645Y176184D01*
X410007Y177060D01*
X410471Y176939D01*
Y169061D01*
X410007Y168940D01*
X409645Y169816D01*
X409067Y170568D01*
X408316Y171145D01*
X407440Y171507D01*
X406500Y171631D01*
X401500D01*
X400560Y171507D01*
X399685Y171145D01*
X398933Y170568D01*
X398355Y169816D01*
X397993Y168940D01*
X397869Y168000D01*
X397993Y167060D01*
X398355Y166184D01*
X398933Y165432D01*
X399685Y164855D01*
X400560Y164493D01*
X401500Y164369D01*
X406500D01*
X407440Y164493D01*
X408316Y164855D01*
X409067Y165432D01*
X409645Y166184D01*
X410007Y167060D01*
X410471Y166939D01*
Y160299D01*
X410024Y160045D01*
X409971Y160048D01*
X409353Y160853D01*
X408517Y161494D01*
X407544Y161897D01*
X406500Y162034D01*
X404500D01*
Y158000D01*
Y153965D01*
X406500D01*
X407544Y154103D01*
X408517Y154506D01*
X409353Y155147D01*
X409971Y155952D01*
X410024Y155955D01*
X410471Y155701D01*
Y149061D01*
X410007Y148940D01*
X409645Y149815D01*
X409067Y150568D01*
X408316Y151145D01*
X407440Y151507D01*
X406500Y151631D01*
X401500D01*
X400560Y151507D01*
X399685Y151145D01*
X398933Y150568D01*
X398355Y149815D01*
X397993Y148940D01*
X397869Y148000D01*
X397993Y147060D01*
X398355Y146185D01*
X398933Y145432D01*
X399685Y144855D01*
X400560Y144493D01*
X401500Y144369D01*
X406500D01*
X407440Y144493D01*
X408316Y144855D01*
X409067Y145432D01*
X409645Y146185D01*
X410007Y147060D01*
X410471Y146939D01*
Y140299D01*
X410024Y140045D01*
X409971Y140048D01*
X409353Y140853D01*
X408517Y141494D01*
X407544Y141897D01*
X406500Y142034D01*
X404500D01*
Y138000D01*
Y133966D01*
X406500D01*
X407544Y134103D01*
X408517Y134506D01*
X409353Y135147D01*
X409971Y135952D01*
X410024Y135955D01*
X410471Y135701D01*
Y130299D01*
X410024Y130045D01*
X409971Y130048D01*
X409353Y130853D01*
X408517Y131494D01*
X407544Y131897D01*
X406500Y132035D01*
X404500D01*
Y128000D01*
Y123966D01*
X406500D01*
X407544Y124103D01*
X408517Y124506D01*
X409353Y125147D01*
X409971Y125952D01*
X410024Y125955D01*
X410471Y125701D01*
Y119061D01*
X410007Y118940D01*
X409645Y119816D01*
X409067Y120568D01*
X408316Y121145D01*
X407440Y121507D01*
X406500Y121631D01*
X401500D01*
X400560Y121507D01*
X399685Y121145D01*
X398933Y120568D01*
X398355Y119816D01*
X397993Y118940D01*
X397869Y118000D01*
X397993Y117060D01*
X398355Y116184D01*
X398933Y115432D01*
X399685Y114855D01*
X400560Y114493D01*
X401500Y114369D01*
X406500D01*
X407440Y114493D01*
X408316Y114855D01*
X409067Y115432D01*
X409645Y116184D01*
X410007Y117060D01*
X410471Y116939D01*
Y109061D01*
X410007Y108940D01*
X409645Y109816D01*
X409067Y110568D01*
X408316Y111145D01*
X407440Y111507D01*
X406500Y111631D01*
X401500D01*
X400560Y111507D01*
X399685Y111145D01*
X398933Y110568D01*
X398355Y109816D01*
X397993Y108940D01*
X397869Y108000D01*
X397993Y107060D01*
X398355Y106184D01*
X398933Y105432D01*
X399685Y104855D01*
X400560Y104493D01*
X401500Y104369D01*
X406500D01*
X407440Y104493D01*
X408316Y104855D01*
X409067Y105432D01*
X409645Y106184D01*
X410007Y107060D01*
X410471Y106939D01*
Y99061D01*
X410007Y98940D01*
X409645Y99815D01*
X409067Y100568D01*
X408316Y101145D01*
X407440Y101507D01*
X406500Y101631D01*
X401500D01*
X400560Y101507D01*
X399685Y101145D01*
X398933Y100568D01*
X398355Y99815D01*
X397993Y98940D01*
X397869Y98000D01*
X397993Y97060D01*
X398355Y96184D01*
X398933Y95432D01*
X399685Y94855D01*
X400560Y94493D01*
X401500Y94369D01*
X406500D01*
X407440Y94493D01*
X408316Y94855D01*
X409067Y95432D01*
X409645Y96184D01*
X410007Y97060D01*
X410471Y96939D01*
Y89061D01*
X410007Y88940D01*
X409645Y89815D01*
X409067Y90568D01*
X408316Y91145D01*
X407440Y91507D01*
X406500Y91631D01*
X401500D01*
X400560Y91507D01*
X399685Y91145D01*
X398933Y90568D01*
X398355Y89815D01*
X397993Y88940D01*
X397869Y88000D01*
X397993Y87060D01*
X398355Y86185D01*
X398933Y85432D01*
X399685Y84855D01*
X400560Y84493D01*
X401500Y84369D01*
X406500D01*
X407440Y84493D01*
X408316Y84855D01*
X409067Y85432D01*
X409645Y86185D01*
X410007Y87060D01*
X410471Y86939D01*
Y79061D01*
X410007Y78940D01*
X409645Y79816D01*
X409067Y80568D01*
X408316Y81145D01*
X407440Y81507D01*
X406500Y81631D01*
X401500D01*
X400560Y81507D01*
X399685Y81145D01*
X398933Y80568D01*
X398355Y79816D01*
X397993Y78940D01*
X397869Y78000D01*
X397993Y77060D01*
X398355Y76184D01*
X398933Y75432D01*
X399685Y74855D01*
X400560Y74493D01*
X401500Y74369D01*
X406500D01*
X407440Y74493D01*
X408316Y74855D01*
X409067Y75432D01*
X409645Y76184D01*
X410007Y77060D01*
X410471Y76939D01*
Y70299D01*
X410024Y70045D01*
X409971Y70048D01*
X409353Y70853D01*
X408517Y71494D01*
X407544Y71897D01*
X406500Y72035D01*
X404500D01*
Y68000D01*
Y63965D01*
X406500D01*
X407544Y64103D01*
X408517Y64506D01*
X409353Y65147D01*
X409971Y65952D01*
X410024Y65955D01*
X410471Y65701D01*
Y60299D01*
X410024Y60045D01*
X409971Y60048D01*
X409353Y60853D01*
X408517Y61494D01*
X407544Y61897D01*
X406500Y62034D01*
X404500D01*
Y58000D01*
Y53966D01*
X406500D01*
X407544Y54103D01*
X408517Y54506D01*
X409353Y55147D01*
X409971Y55952D01*
X410024Y55955D01*
X410471Y55701D01*
Y49061D01*
X410007Y48940D01*
X409645Y49815D01*
X409067Y50568D01*
X408316Y51145D01*
X407440Y51507D01*
X406500Y51631D01*
X401500D01*
X400560Y51507D01*
X399685Y51145D01*
X398933Y50568D01*
X398355Y49815D01*
X397993Y48940D01*
X397869Y48000D01*
X397993Y47060D01*
X398355Y46185D01*
X398933Y45432D01*
X399685Y44855D01*
X400560Y44493D01*
X401500Y44369D01*
X406500D01*
X407440Y44493D01*
X408316Y44855D01*
X409067Y45432D01*
X409645Y46185D01*
X410007Y47060D01*
X410471Y46939D01*
Y39061D01*
X410007Y38940D01*
X409645Y39816D01*
X409067Y40567D01*
X408316Y41145D01*
X407440Y41507D01*
X406500Y41631D01*
X401500D01*
X400560Y41507D01*
X399685Y41145D01*
X398933Y40567D01*
X398355Y39816D01*
X397993Y38940D01*
X397869Y38000D01*
X397993Y37060D01*
X398355Y36184D01*
X398933Y35432D01*
X399685Y34855D01*
X400560Y34493D01*
X401500Y34369D01*
X406500D01*
X407440Y34493D01*
X408316Y34855D01*
X409067Y35432D01*
X409645Y36184D01*
X410007Y37060D01*
X410471Y36939D01*
Y29061D01*
X410007Y28940D01*
X409645Y29816D01*
X409067Y30567D01*
X408316Y31145D01*
X407440Y31507D01*
X406500Y31631D01*
X401500D01*
X400560Y31507D01*
X399685Y31145D01*
X398933Y30567D01*
X398355Y29816D01*
X397993Y28940D01*
X397869Y28000D01*
X397993Y27060D01*
X398355Y26184D01*
X398933Y25433D01*
X399685Y24855D01*
X400560Y24493D01*
X401500Y24369D01*
X406500D01*
X407440Y24493D01*
X408316Y24855D01*
X409067Y25433D01*
X409645Y26184D01*
X410007Y27060D01*
X410471Y26939D01*
Y1529D01*
X405061D01*
X404940Y1993D01*
X405816Y2355D01*
X406567Y2932D01*
X407145Y3684D01*
X407507Y4560D01*
X407631Y5500D01*
Y10500D01*
X407507Y11440D01*
X407145Y12315D01*
X406567Y13068D01*
X405816Y13645D01*
X404940Y14007D01*
X404000Y14131D01*
X403060Y14007D01*
X402184Y13645D01*
X401433Y13068D01*
X400855Y12315D01*
X400493Y11440D01*
X400369Y10500D01*
Y5500D01*
X400493Y4560D01*
X400855Y3684D01*
X401433Y2932D01*
X402184Y2355D01*
X403060Y1993D01*
X402939Y1529D01*
X395061D01*
X394940Y1993D01*
X395815Y2355D01*
X396568Y2932D01*
X397145Y3684D01*
X397507Y4560D01*
X397631Y5500D01*
Y10500D01*
X397507Y11440D01*
X397145Y12315D01*
X396568Y13068D01*
X395815Y13645D01*
X394940Y14007D01*
X394000Y14131D01*
X393060Y14007D01*
X392184Y13645D01*
X391432Y13068D01*
X390855Y12315D01*
X390493Y11440D01*
X390369Y10500D01*
Y5500D01*
X390493Y4560D01*
X390855Y3684D01*
X391432Y2932D01*
X392184Y2355D01*
X393060Y1993D01*
X392939Y1529D01*
X385061D01*
X384940Y1993D01*
X385816Y2355D01*
X386567Y2932D01*
X387145Y3684D01*
X387507Y4560D01*
X387631Y5500D01*
Y10500D01*
X387507Y11440D01*
X387145Y12315D01*
X386567Y13068D01*
X385816Y13645D01*
X384940Y14007D01*
X384000Y14131D01*
X383060Y14007D01*
X382185Y13645D01*
X381433Y13068D01*
X380855Y12315D01*
X380493Y11440D01*
X380369Y10500D01*
Y5500D01*
X380493Y4560D01*
X380855Y3684D01*
X381433Y2932D01*
X382185Y2355D01*
X383060Y1993D01*
X382939Y1529D01*
X375061D01*
X374940Y1993D01*
X375816Y2355D01*
X376568Y2932D01*
X377145Y3684D01*
X377507Y4560D01*
X377631Y5500D01*
Y10500D01*
X377507Y11440D01*
X377145Y12315D01*
X376568Y13068D01*
X375816Y13645D01*
X374940Y14007D01*
X374000Y14131D01*
X373060Y14007D01*
X372184Y13645D01*
X371432Y13068D01*
X370855Y12315D01*
X370493Y11440D01*
X370369Y10500D01*
Y5500D01*
X370493Y4560D01*
X370855Y3684D01*
X371432Y2932D01*
X372184Y2355D01*
X373060Y1993D01*
X372939Y1529D01*
X365061D01*
X364940Y1993D01*
X365815Y2355D01*
X366567Y2932D01*
X367145Y3684D01*
X367507Y4560D01*
X367631Y5500D01*
Y10500D01*
X367507Y11440D01*
X367145Y12315D01*
X366567Y13068D01*
X365815Y13645D01*
X364940Y14007D01*
X364000Y14131D01*
X363060Y14007D01*
X362185Y13645D01*
X361433Y13068D01*
X360855Y12315D01*
X360493Y11440D01*
X360369Y10500D01*
Y5500D01*
X360493Y4560D01*
X360855Y3684D01*
X361433Y2932D01*
X362185Y2355D01*
X363060Y1993D01*
X362939Y1529D01*
X355061D01*
X354940Y1993D01*
X355816Y2355D01*
X356568Y2932D01*
X357145Y3684D01*
X357507Y4560D01*
X357631Y5500D01*
Y10500D01*
X357507Y11440D01*
X357145Y12315D01*
X356568Y13068D01*
X355816Y13645D01*
X354940Y14007D01*
X354000Y14131D01*
X353060Y14007D01*
X352185Y13645D01*
X351432Y13068D01*
X350855Y12315D01*
X350493Y11440D01*
X350369Y10500D01*
Y5500D01*
X350493Y4560D01*
X350855Y3684D01*
X351432Y2932D01*
X352185Y2355D01*
X353060Y1993D01*
X352939Y1529D01*
X345061D01*
X344940Y1993D01*
X345815Y2355D01*
X346568Y2932D01*
X347145Y3684D01*
X347507Y4560D01*
X347631Y5500D01*
Y10500D01*
X347507Y11440D01*
X347145Y12315D01*
X346568Y13068D01*
X345815Y13645D01*
X344940Y14007D01*
X344000Y14131D01*
X343060Y14007D01*
X342184Y13645D01*
X341432Y13068D01*
X340855Y12315D01*
X340493Y11440D01*
X340369Y10500D01*
Y5500D01*
X340493Y4560D01*
X340855Y3684D01*
X341432Y2932D01*
X342184Y2355D01*
X343060Y1993D01*
X342939Y1529D01*
X335061D01*
X334940Y1993D01*
X335816Y2355D01*
X336567Y2932D01*
X337145Y3684D01*
X337507Y4560D01*
X337631Y5500D01*
Y10500D01*
X337507Y11440D01*
X337145Y12315D01*
X336567Y13068D01*
X335816Y13645D01*
X334940Y14007D01*
X334000Y14131D01*
X333060Y14007D01*
X332185Y13645D01*
X331433Y13068D01*
X330855Y12315D01*
X330493Y11440D01*
X330369Y10500D01*
Y5500D01*
X330493Y4560D01*
X330855Y3684D01*
X331433Y2932D01*
X332185Y2355D01*
X333060Y1993D01*
X332939Y1529D01*
X325061D01*
X324940Y1993D01*
X325816Y2355D01*
X326568Y2932D01*
X327145Y3684D01*
X327507Y4560D01*
X327631Y5500D01*
Y10500D01*
X327507Y11440D01*
X327145Y12315D01*
X326568Y13068D01*
X325816Y13645D01*
X324940Y14007D01*
X324000Y14131D01*
X323060Y14007D01*
X322184Y13645D01*
X321432Y13068D01*
X320855Y12315D01*
X320493Y11440D01*
X320369Y10500D01*
Y5500D01*
X320493Y4560D01*
X320855Y3684D01*
X321432Y2932D01*
X322184Y2355D01*
X323060Y1993D01*
X322939Y1529D01*
X315061D01*
X314940Y1993D01*
X315815Y2355D01*
X316567Y2932D01*
X317145Y3684D01*
X317507Y4560D01*
X317631Y5500D01*
Y10500D01*
X317507Y11440D01*
X317145Y12315D01*
X316567Y13068D01*
X315815Y13645D01*
X315122Y13932D01*
Y17035D01*
X324293Y26207D01*
X324293Y26207D01*
X324536Y26571D01*
X324622Y27000D01*
X324622Y27000D01*
Y58524D01*
X324834Y58666D01*
X325243Y59278D01*
X325386Y60000D01*
X325243Y60722D01*
X324834Y61334D01*
X324222Y61743D01*
X323500Y61886D01*
X322778Y61743D01*
X322166Y61334D01*
X321757Y60722D01*
X321614Y60000D01*
X321757Y59278D01*
X322166Y58666D01*
X322378Y58524D01*
Y27465D01*
X313207Y18293D01*
X312964Y17929D01*
X312878Y17500D01*
X312878Y17500D01*
Y13932D01*
X312185Y13645D01*
X311433Y13068D01*
X310855Y12315D01*
X310493Y11440D01*
X310369Y10500D01*
Y5500D01*
X310493Y4560D01*
X310855Y3684D01*
X311433Y2932D01*
X312185Y2355D01*
X313060Y1993D01*
X312939Y1529D01*
X306299D01*
X306045Y1976D01*
X306048Y2029D01*
X306853Y2647D01*
X307494Y3483D01*
X307897Y4456D01*
X308034Y5500D01*
Y7500D01*
X304000D01*
X299966D01*
Y5500D01*
X300103Y4456D01*
X300506Y3483D01*
X301147Y2647D01*
X301952Y2029D01*
X301955Y1976D01*
X301701Y1529D01*
X296299D01*
X296045Y1976D01*
X296048Y2029D01*
X296853Y2647D01*
X297494Y3483D01*
X297897Y4456D01*
X298035Y5500D01*
Y7500D01*
X294000D01*
X289966D01*
Y5500D01*
X290103Y4456D01*
X290506Y3483D01*
X291147Y2647D01*
X291952Y2029D01*
X291955Y1976D01*
X291701Y1529D01*
X285061D01*
X284940Y1993D01*
X285816Y2355D01*
X286567Y2932D01*
X287145Y3684D01*
X287507Y4560D01*
X287631Y5500D01*
Y10500D01*
X287507Y11440D01*
X287145Y12315D01*
X286567Y13068D01*
X285816Y13645D01*
X284940Y14007D01*
X284000Y14131D01*
X283060Y14007D01*
X282185Y13645D01*
X281433Y13068D01*
X280855Y12315D01*
X280493Y11440D01*
X280369Y10500D01*
Y5500D01*
X280493Y4560D01*
X280855Y3684D01*
X281433Y2932D01*
X282185Y2355D01*
X283060Y1993D01*
X282939Y1529D01*
X275061D01*
X274940Y1993D01*
X275816Y2355D01*
X276568Y2932D01*
X277145Y3684D01*
X277507Y4560D01*
X277631Y5500D01*
Y10500D01*
X277507Y11440D01*
X277145Y12315D01*
X276568Y13068D01*
X275816Y13645D01*
X274940Y14007D01*
X274000Y14131D01*
X273060Y14007D01*
X272184Y13645D01*
X271432Y13068D01*
X270855Y12315D01*
X270493Y11440D01*
X270369Y10500D01*
Y5500D01*
X270493Y4560D01*
X270855Y3684D01*
X271432Y2932D01*
X272184Y2355D01*
X273060Y1993D01*
X272939Y1529D01*
X265061D01*
X264940Y1993D01*
X265815Y2355D01*
X266567Y2932D01*
X267145Y3684D01*
X267507Y4560D01*
X267631Y5500D01*
Y10500D01*
X267507Y11440D01*
X267145Y12315D01*
X266567Y13068D01*
X265815Y13645D01*
X264940Y14007D01*
X264000Y14131D01*
X263060Y14007D01*
X262185Y13645D01*
X261433Y13068D01*
X260855Y12315D01*
X260493Y11440D01*
X260369Y10500D01*
Y5500D01*
X260493Y4560D01*
X260855Y3684D01*
X261433Y2932D01*
X262185Y2355D01*
X263060Y1993D01*
X262939Y1529D01*
X255061D01*
X254940Y1993D01*
X255816Y2355D01*
X256568Y2932D01*
X257145Y3684D01*
X257507Y4560D01*
X257631Y5500D01*
Y10500D01*
X257507Y11440D01*
X257145Y12315D01*
X256568Y13068D01*
X255816Y13645D01*
X255121Y13932D01*
Y31524D01*
X255334Y31666D01*
X255743Y32278D01*
X255886Y33000D01*
X255743Y33722D01*
X255334Y34334D01*
X254722Y34743D01*
X254000Y34886D01*
X253278Y34743D01*
X252666Y34334D01*
X252257Y33722D01*
X252114Y33000D01*
X252257Y32278D01*
X252666Y31666D01*
X252878Y31524D01*
Y13932D01*
X252185Y13645D01*
X251432Y13068D01*
X250855Y12315D01*
X250493Y11440D01*
X250369Y10500D01*
Y5500D01*
X250493Y4560D01*
X250855Y3684D01*
X251432Y2932D01*
X252185Y2355D01*
X253060Y1993D01*
X252939Y1529D01*
X245061D01*
X244940Y1993D01*
X245815Y2355D01*
X246568Y2932D01*
X247145Y3684D01*
X247507Y4560D01*
X247631Y5500D01*
Y10500D01*
X247507Y11440D01*
X247145Y12315D01*
X246568Y13068D01*
X245815Y13645D01*
X245020Y13974D01*
Y22578D01*
X245629Y23188D01*
X246000Y23114D01*
X246722Y23257D01*
X247334Y23666D01*
X247743Y24278D01*
X247886Y25000D01*
X247743Y25722D01*
X247334Y26334D01*
X246722Y26743D01*
X246000Y26886D01*
X245278Y26743D01*
X244666Y26334D01*
X244257Y25722D01*
X244114Y25000D01*
X244187Y24629D01*
X243279Y23721D01*
X243058Y23390D01*
X242980Y23000D01*
Y13974D01*
X242184Y13645D01*
X241432Y13068D01*
X240855Y12315D01*
X240493Y11440D01*
X240369Y10500D01*
Y5500D01*
X240493Y4560D01*
X240855Y3684D01*
X241432Y2932D01*
X242184Y2355D01*
X243060Y1993D01*
X242939Y1529D01*
X235061D01*
X234940Y1993D01*
X235816Y2355D01*
X236567Y2932D01*
X237145Y3684D01*
X237507Y4560D01*
X237631Y5500D01*
Y10500D01*
X237507Y11440D01*
X237145Y12315D01*
X236567Y13068D01*
X235816Y13645D01*
X234940Y14007D01*
X234000Y14131D01*
X233060Y14007D01*
X232185Y13645D01*
X231433Y13068D01*
X230855Y12315D01*
X230493Y11440D01*
X230369Y10500D01*
Y5500D01*
X230493Y4560D01*
X230855Y3684D01*
X231433Y2932D01*
X232185Y2355D01*
X233060Y1993D01*
X232939Y1529D01*
X225061D01*
X224940Y1993D01*
X225816Y2355D01*
X226568Y2932D01*
X227145Y3684D01*
X227507Y4560D01*
X227631Y5500D01*
Y10500D01*
X227507Y11440D01*
X227145Y12315D01*
X226568Y13068D01*
X225816Y13645D01*
X224940Y14007D01*
X224000Y14131D01*
X223060Y14007D01*
X222184Y13645D01*
X221432Y13068D01*
X220855Y12315D01*
X220493Y11440D01*
X220369Y10500D01*
Y5500D01*
X220493Y4560D01*
X220855Y3684D01*
X221432Y2932D01*
X222184Y2355D01*
X223060Y1993D01*
X222939Y1529D01*
X218156D01*
X217888Y2029D01*
X217942Y2110D01*
X218020Y2500D01*
Y7500D01*
X214000D01*
X209980D01*
Y2500D01*
X210058Y2110D01*
X210112Y2029D01*
X209844Y1529D01*
X207529D01*
Y26939D01*
X207993Y27060D01*
X208355Y26184D01*
X208932Y25433D01*
X209684Y24855D01*
X210560Y24493D01*
X211500Y24369D01*
X216500D01*
X217440Y24493D01*
X218316Y24855D01*
X219068Y25433D01*
X219645Y26184D01*
X220007Y27060D01*
X220131Y28000D01*
X220007Y28940D01*
X219645Y29816D01*
X219068Y30567D01*
X218316Y31145D01*
X217440Y31507D01*
X216500Y31631D01*
X211500D01*
X210560Y31507D01*
X209684Y31145D01*
X208932Y30567D01*
X208355Y29816D01*
X207993Y28940D01*
X207529Y29061D01*
Y36939D01*
X207993Y37060D01*
X208355Y36184D01*
X208932Y35432D01*
X209684Y34855D01*
X210560Y34493D01*
X211500Y34369D01*
X216500D01*
X217440Y34493D01*
X218316Y34855D01*
X219068Y35432D01*
X219645Y36184D01*
X220007Y37060D01*
X220131Y38000D01*
X220007Y38940D01*
X219645Y39816D01*
X219068Y40567D01*
X218316Y41145D01*
X217440Y41507D01*
X216500Y41631D01*
X211500D01*
X210560Y41507D01*
X209684Y41145D01*
X208932Y40567D01*
X208355Y39816D01*
X207993Y38940D01*
X207529Y39061D01*
Y46939D01*
X207993Y47060D01*
X208355Y46185D01*
X208932Y45432D01*
X209684Y44855D01*
X210560Y44493D01*
X211500Y44369D01*
X216500D01*
X217440Y44493D01*
X218316Y44855D01*
X219068Y45432D01*
X219645Y46185D01*
X220007Y47060D01*
X220131Y48000D01*
X220007Y48940D01*
X219645Y49815D01*
X219068Y50568D01*
X218316Y51145D01*
X217440Y51507D01*
X216500Y51631D01*
X211500D01*
X210560Y51507D01*
X209684Y51145D01*
X208932Y50568D01*
X208355Y49815D01*
X207993Y48940D01*
X207529Y49061D01*
Y56939D01*
X207993Y57060D01*
X208355Y56185D01*
X208932Y55432D01*
X209684Y54855D01*
X210560Y54493D01*
X211500Y54369D01*
X216500D01*
X217440Y54493D01*
X218316Y54855D01*
X219068Y55432D01*
X219645Y56185D01*
X220007Y57060D01*
X220131Y58000D01*
X220007Y58940D01*
X219645Y59816D01*
X219068Y60568D01*
X218316Y61145D01*
X217440Y61507D01*
X216500Y61631D01*
X211500D01*
X210560Y61507D01*
X209684Y61145D01*
X208932Y60568D01*
X208355Y59816D01*
X207993Y58940D01*
X207529Y59061D01*
Y65701D01*
X207976Y65955D01*
X208029Y65952D01*
X208647Y65147D01*
X209483Y64506D01*
X210456Y64103D01*
X211500Y63965D01*
X213500D01*
Y68000D01*
Y72035D01*
X211500D01*
X210456Y71897D01*
X209483Y71494D01*
X208647Y70853D01*
X208029Y70048D01*
X207976Y70045D01*
X207529Y70299D01*
Y75701D01*
X207976Y75955D01*
X208029Y75952D01*
X208647Y75147D01*
X209483Y74506D01*
X210456Y74103D01*
X211500Y73966D01*
X213500D01*
Y78000D01*
Y82034D01*
X211500D01*
X210456Y81897D01*
X209483Y81494D01*
X208647Y80853D01*
X208029Y80048D01*
X207976Y80045D01*
X207529Y80299D01*
Y86939D01*
X207993Y87060D01*
X208355Y86185D01*
X208932Y85432D01*
X209684Y84855D01*
X210560Y84493D01*
X211500Y84369D01*
X216500D01*
X217440Y84493D01*
X218316Y84855D01*
X219068Y85432D01*
X219645Y86185D01*
X220007Y87060D01*
X220131Y88000D01*
X220007Y88940D01*
X219645Y89815D01*
X219068Y90568D01*
X218316Y91145D01*
X217440Y91507D01*
X216500Y91631D01*
X211500D01*
X210560Y91507D01*
X209684Y91145D01*
X208932Y90568D01*
X208355Y89815D01*
X207993Y88940D01*
X207529Y89061D01*
Y96939D01*
X207993Y97060D01*
X208355Y96184D01*
X208932Y95432D01*
X209684Y94855D01*
X210560Y94493D01*
X211500Y94369D01*
X216500D01*
X217440Y94493D01*
X218316Y94855D01*
X219068Y95432D01*
X219645Y96184D01*
X220007Y97060D01*
X220131Y98000D01*
X220007Y98940D01*
X219645Y99815D01*
X219068Y100568D01*
X218316Y101145D01*
X217440Y101507D01*
X216500Y101631D01*
X211500D01*
X210560Y101507D01*
X209684Y101145D01*
X208932Y100568D01*
X208355Y99815D01*
X207993Y98940D01*
X207529Y99061D01*
Y106939D01*
X207993Y107060D01*
X208355Y106184D01*
X208932Y105432D01*
X209684Y104855D01*
X210560Y104493D01*
X211500Y104369D01*
X216500D01*
X217440Y104493D01*
X218316Y104855D01*
X219068Y105432D01*
X219645Y106184D01*
X220007Y107060D01*
X220131Y108000D01*
X220007Y108940D01*
X219645Y109816D01*
X219068Y110568D01*
X218316Y111145D01*
X217440Y111507D01*
X216500Y111631D01*
X211500D01*
X210560Y111507D01*
X209684Y111145D01*
X208932Y110568D01*
X208355Y109816D01*
X207993Y108940D01*
X207529Y109061D01*
Y116939D01*
X207993Y117060D01*
X208355Y116184D01*
X208932Y115432D01*
X209684Y114855D01*
X210560Y114493D01*
X211500Y114369D01*
X216500D01*
X217440Y114493D01*
X218316Y114855D01*
X219068Y115432D01*
X219645Y116184D01*
X220007Y117060D01*
X220131Y118000D01*
X220007Y118940D01*
X219645Y119816D01*
X219068Y120568D01*
X218316Y121145D01*
X217440Y121507D01*
X216500Y121631D01*
X211500D01*
X210560Y121507D01*
X209684Y121145D01*
X208932Y120568D01*
X208355Y119816D01*
X207993Y118940D01*
X207529Y119061D01*
Y126939D01*
X207993Y127060D01*
X208355Y126184D01*
X208932Y125432D01*
X209684Y124855D01*
X210560Y124493D01*
X211500Y124369D01*
X216500D01*
X217440Y124493D01*
X218316Y124855D01*
X219068Y125432D01*
X219645Y126184D01*
X220007Y127060D01*
X220131Y128000D01*
X220007Y128940D01*
X219645Y129815D01*
X219068Y130568D01*
X218316Y131145D01*
X217440Y131507D01*
X216500Y131631D01*
X211500D01*
X210560Y131507D01*
X209684Y131145D01*
X208932Y130568D01*
X208355Y129815D01*
X207993Y128940D01*
X207529Y129061D01*
Y136939D01*
X207993Y137060D01*
X208355Y136185D01*
X208932Y135432D01*
X209684Y134855D01*
X210560Y134493D01*
X211500Y134369D01*
X216500D01*
X217440Y134493D01*
X218316Y134855D01*
X219068Y135432D01*
X219645Y136185D01*
X220007Y137060D01*
X220131Y138000D01*
X220007Y138940D01*
X219645Y139815D01*
X219068Y140568D01*
X218316Y141145D01*
X217440Y141507D01*
X216500Y141631D01*
X211500D01*
X210560Y141507D01*
X209684Y141145D01*
X208932Y140568D01*
X208355Y139815D01*
X207993Y138940D01*
X207529Y139061D01*
Y146939D01*
X207993Y147060D01*
X208355Y146185D01*
X208932Y145432D01*
X209684Y144855D01*
X210560Y144493D01*
X211500Y144369D01*
X216500D01*
X217440Y144493D01*
X218316Y144855D01*
X219068Y145432D01*
X219645Y146185D01*
X220007Y147060D01*
X220131Y148000D01*
X220007Y148940D01*
X219645Y149815D01*
X219068Y150568D01*
X218316Y151145D01*
X217440Y151507D01*
X216500Y151631D01*
X211500D01*
X210560Y151507D01*
X209684Y151145D01*
X208932Y150568D01*
X208355Y149815D01*
X207993Y148940D01*
X207529Y149061D01*
Y156939D01*
X207993Y157060D01*
X208355Y156184D01*
X208932Y155432D01*
X209684Y154855D01*
X210560Y154493D01*
X211500Y154369D01*
X216500D01*
X217440Y154493D01*
X218316Y154855D01*
X219068Y155432D01*
X219645Y156184D01*
X220007Y157060D01*
X220131Y158000D01*
X220007Y158940D01*
X219645Y159816D01*
X219068Y160568D01*
X218316Y161145D01*
X217440Y161507D01*
X216500Y161631D01*
X211500D01*
X210560Y161507D01*
X209684Y161145D01*
X208932Y160568D01*
X208355Y159816D01*
X207993Y158940D01*
X207529Y159061D01*
Y165701D01*
X207976Y165955D01*
X208029Y165952D01*
X208647Y165147D01*
X209483Y164506D01*
X210456Y164103D01*
X211500Y163965D01*
X213500D01*
Y168000D01*
Y172035D01*
X211500D01*
X210456Y171897D01*
X209483Y171494D01*
X208647Y170853D01*
X208029Y170048D01*
X207976Y170045D01*
X207529Y170299D01*
Y176939D01*
X207993Y177060D01*
X208355Y176184D01*
X208932Y175432D01*
X209684Y174855D01*
X210560Y174493D01*
X211500Y174369D01*
X216500D01*
X217440Y174493D01*
X218316Y174855D01*
X219068Y175432D01*
X219645Y176184D01*
X220007Y177060D01*
X220131Y178000D01*
X220007Y178940D01*
X219645Y179815D01*
X219068Y180568D01*
X218316Y181145D01*
X217440Y181507D01*
X216500Y181631D01*
X211500D01*
X210560Y181507D01*
X209684Y181145D01*
X208932Y180568D01*
X208355Y179815D01*
X207993Y178940D01*
X207529Y179061D01*
Y185701D01*
X207976Y185955D01*
X208029Y185952D01*
X208647Y185147D01*
X209483Y184506D01*
X210456Y184103D01*
X211500Y183966D01*
X213500D01*
Y188000D01*
Y192034D01*
X211500D01*
X210456Y191897D01*
X209483Y191494D01*
X208647Y190853D01*
X208029Y190048D01*
X207976Y190045D01*
X207529Y190299D01*
Y196939D01*
X207993Y197060D01*
X208355Y196185D01*
X208932Y195432D01*
X209684Y194855D01*
X210560Y194493D01*
X211500Y194369D01*
X216500D01*
X217440Y194493D01*
X218316Y194855D01*
X219068Y195432D01*
X219645Y196185D01*
X220007Y197060D01*
X220131Y198000D01*
X220007Y198940D01*
X219645Y199815D01*
X219068Y200568D01*
X218316Y201145D01*
X217440Y201507D01*
X216500Y201631D01*
X211500D01*
X210560Y201507D01*
X209684Y201145D01*
X208932Y200568D01*
X208355Y199815D01*
X207993Y198940D01*
X207529Y199061D01*
Y205701D01*
X207976Y205955D01*
X208029Y205952D01*
X208647Y205147D01*
X209483Y204506D01*
X210456Y204103D01*
X211500Y203965D01*
X213500D01*
Y208000D01*
Y212035D01*
X211500D01*
X210456Y211897D01*
X209483Y211494D01*
X208647Y210853D01*
X208029Y210048D01*
X207976Y210045D01*
X207529Y210299D01*
Y214469D01*
X208029Y214568D01*
X208041Y214541D01*
X208500Y214351D01*
X219500D01*
X219959Y214541D01*
X220149Y215000D01*
Y221000D01*
X219959Y221459D01*
X219500Y221649D01*
X208500D01*
X208041Y221459D01*
X208029Y221432D01*
X207529Y221531D01*
Y252971D01*
X410471D01*
Y222155D01*
D02*
G37*
G36*
X204471D02*
X203971Y221888D01*
X203890Y221942D01*
X203500Y222020D01*
X198500D01*
Y218000D01*
Y213980D01*
X203500D01*
X203890Y214058D01*
X203971Y214112D01*
X204471Y213844D01*
Y209061D01*
X204007Y208940D01*
X203645Y209816D01*
X203068Y210567D01*
X202315Y211145D01*
X201440Y211507D01*
X200500Y211631D01*
X195500D01*
X194560Y211507D01*
X193684Y211145D01*
X192932Y210567D01*
X192355Y209816D01*
X191993Y208940D01*
X191869Y208000D01*
X191993Y207060D01*
X192355Y206185D01*
X192932Y205433D01*
X193684Y204855D01*
X194560Y204493D01*
X195500Y204369D01*
X200500D01*
X201440Y204493D01*
X202315Y204855D01*
X203068Y205433D01*
X203645Y206185D01*
X204007Y207060D01*
X204471Y206939D01*
Y199061D01*
X204007Y198940D01*
X203645Y199815D01*
X203068Y200568D01*
X202315Y201145D01*
X201440Y201507D01*
X200500Y201631D01*
X195500D01*
X194560Y201507D01*
X193684Y201145D01*
X192932Y200568D01*
X192355Y199815D01*
X191993Y198940D01*
X191869Y198000D01*
X191993Y197060D01*
X192355Y196185D01*
X192932Y195432D01*
X193684Y194855D01*
X194560Y194493D01*
X195500Y194369D01*
X200500D01*
X201440Y194493D01*
X202315Y194855D01*
X203068Y195432D01*
X203645Y196185D01*
X204007Y197060D01*
X204471Y196939D01*
Y190299D01*
X204024Y190045D01*
X203971Y190048D01*
X203353Y190853D01*
X202517Y191494D01*
X201544Y191897D01*
X200500Y192034D01*
X198500D01*
Y188000D01*
Y183966D01*
X200500D01*
X201544Y184103D01*
X202517Y184506D01*
X203353Y185147D01*
X203971Y185952D01*
X204024Y185955D01*
X204471Y185701D01*
Y179061D01*
X204007Y178940D01*
X203645Y179815D01*
X203068Y180568D01*
X202315Y181145D01*
X201440Y181507D01*
X200500Y181631D01*
X195500D01*
X194560Y181507D01*
X193684Y181145D01*
X192932Y180568D01*
X192355Y179815D01*
X191993Y178940D01*
X191869Y178000D01*
X191993Y177060D01*
X192355Y176184D01*
X192932Y175432D01*
X193684Y174855D01*
X194560Y174493D01*
X195500Y174369D01*
X200500D01*
X201440Y174493D01*
X202315Y174855D01*
X203068Y175432D01*
X203645Y176184D01*
X204007Y177060D01*
X204471Y176939D01*
Y169061D01*
X204007Y168940D01*
X203645Y169816D01*
X203068Y170568D01*
X202315Y171145D01*
X201440Y171507D01*
X200500Y171631D01*
X195500D01*
X194560Y171507D01*
X193684Y171145D01*
X192932Y170568D01*
X192355Y169816D01*
X191993Y168940D01*
X191869Y168000D01*
X191993Y167060D01*
X192355Y166184D01*
X192932Y165432D01*
X193684Y164855D01*
X194560Y164493D01*
X195500Y164369D01*
X200500D01*
X201440Y164493D01*
X202315Y164855D01*
X203068Y165432D01*
X203645Y166184D01*
X204007Y167060D01*
X204471Y166939D01*
Y160299D01*
X204024Y160045D01*
X203971Y160048D01*
X203353Y160853D01*
X202517Y161494D01*
X201544Y161897D01*
X200500Y162034D01*
X198500D01*
Y158000D01*
Y153965D01*
X200500D01*
X201544Y154103D01*
X202517Y154506D01*
X203353Y155147D01*
X203971Y155952D01*
X204024Y155955D01*
X204471Y155701D01*
Y149061D01*
X204007Y148940D01*
X203645Y149815D01*
X203068Y150568D01*
X202315Y151145D01*
X201440Y151507D01*
X200500Y151631D01*
X195500D01*
X194560Y151507D01*
X193684Y151145D01*
X192932Y150568D01*
X192355Y149815D01*
X191993Y148940D01*
X191869Y148000D01*
X191993Y147060D01*
X192355Y146185D01*
X192932Y145432D01*
X193684Y144855D01*
X194560Y144493D01*
X195500Y144369D01*
X200500D01*
X201440Y144493D01*
X202315Y144855D01*
X203068Y145432D01*
X203645Y146185D01*
X204007Y147060D01*
X204471Y146939D01*
Y140299D01*
X204024Y140045D01*
X203971Y140048D01*
X203353Y140853D01*
X202517Y141494D01*
X201544Y141897D01*
X200500Y142034D01*
X198500D01*
Y138000D01*
Y133966D01*
X200500D01*
X201544Y134103D01*
X202517Y134506D01*
X203353Y135147D01*
X203971Y135952D01*
X204024Y135955D01*
X204471Y135701D01*
Y130299D01*
X204024Y130045D01*
X203971Y130048D01*
X203353Y130853D01*
X202517Y131494D01*
X201544Y131897D01*
X200500Y132035D01*
X198500D01*
Y128000D01*
Y123966D01*
X200500D01*
X201544Y124103D01*
X202517Y124506D01*
X203353Y125147D01*
X203971Y125952D01*
X204024Y125955D01*
X204471Y125701D01*
Y119061D01*
X204007Y118940D01*
X203645Y119816D01*
X203068Y120568D01*
X202315Y121145D01*
X201440Y121507D01*
X200500Y121631D01*
X195500D01*
X194560Y121507D01*
X193684Y121145D01*
X192932Y120568D01*
X192355Y119816D01*
X191993Y118940D01*
X191869Y118000D01*
X191993Y117060D01*
X192355Y116184D01*
X192932Y115432D01*
X193684Y114855D01*
X194560Y114493D01*
X195500Y114369D01*
X200500D01*
X201440Y114493D01*
X202315Y114855D01*
X203068Y115432D01*
X203645Y116184D01*
X204007Y117060D01*
X204471Y116939D01*
Y109061D01*
X204007Y108940D01*
X203645Y109816D01*
X203068Y110568D01*
X202315Y111145D01*
X201440Y111507D01*
X200500Y111631D01*
X195500D01*
X194560Y111507D01*
X193684Y111145D01*
X192932Y110568D01*
X192355Y109816D01*
X191993Y108940D01*
X191869Y108000D01*
X191993Y107060D01*
X192355Y106184D01*
X192932Y105432D01*
X193684Y104855D01*
X194560Y104493D01*
X195500Y104369D01*
X200500D01*
X201440Y104493D01*
X202315Y104855D01*
X203068Y105432D01*
X203645Y106184D01*
X204007Y107060D01*
X204471Y106939D01*
Y99061D01*
X204007Y98940D01*
X203645Y99815D01*
X203068Y100568D01*
X202315Y101145D01*
X201440Y101507D01*
X200500Y101631D01*
X195500D01*
X194560Y101507D01*
X193684Y101145D01*
X192932Y100568D01*
X192355Y99815D01*
X191993Y98940D01*
X191869Y98000D01*
X191993Y97060D01*
X192355Y96184D01*
X192932Y95432D01*
X193684Y94855D01*
X194560Y94493D01*
X195500Y94369D01*
X200500D01*
X201440Y94493D01*
X202315Y94855D01*
X203068Y95432D01*
X203645Y96184D01*
X204007Y97060D01*
X204471Y96939D01*
Y89061D01*
X204007Y88940D01*
X203645Y89815D01*
X203068Y90568D01*
X202315Y91145D01*
X201440Y91507D01*
X200500Y91631D01*
X195500D01*
X194560Y91507D01*
X193684Y91145D01*
X192932Y90568D01*
X192355Y89815D01*
X191993Y88940D01*
X191869Y88000D01*
X191993Y87060D01*
X192355Y86185D01*
X192932Y85432D01*
X193684Y84855D01*
X194560Y84493D01*
X195500Y84369D01*
X200500D01*
X201440Y84493D01*
X202315Y84855D01*
X203068Y85432D01*
X203645Y86185D01*
X204007Y87060D01*
X204471Y86939D01*
Y79061D01*
X204007Y78940D01*
X203645Y79816D01*
X203068Y80568D01*
X202315Y81145D01*
X201440Y81507D01*
X200500Y81631D01*
X195500D01*
X194560Y81507D01*
X193684Y81145D01*
X192932Y80568D01*
X192355Y79816D01*
X191993Y78940D01*
X191869Y78000D01*
X191993Y77060D01*
X192355Y76184D01*
X192932Y75432D01*
X193684Y74855D01*
X194560Y74493D01*
X195500Y74369D01*
X200500D01*
X201440Y74493D01*
X202315Y74855D01*
X203068Y75432D01*
X203645Y76184D01*
X204007Y77060D01*
X204471Y76939D01*
Y70299D01*
X204024Y70045D01*
X203971Y70048D01*
X203353Y70853D01*
X202517Y71494D01*
X201544Y71897D01*
X200500Y72035D01*
X198500D01*
Y68000D01*
Y63965D01*
X200500D01*
X201544Y64103D01*
X202517Y64506D01*
X203353Y65147D01*
X203971Y65952D01*
X204024Y65955D01*
X204471Y65701D01*
Y60299D01*
X204024Y60045D01*
X203971Y60048D01*
X203353Y60853D01*
X202517Y61494D01*
X201544Y61897D01*
X200500Y62034D01*
X198500D01*
Y58000D01*
Y53966D01*
X200500D01*
X201544Y54103D01*
X202517Y54506D01*
X203353Y55147D01*
X203971Y55952D01*
X204024Y55955D01*
X204471Y55701D01*
Y49061D01*
X204007Y48940D01*
X203645Y49815D01*
X203068Y50568D01*
X202315Y51145D01*
X201440Y51507D01*
X200500Y51631D01*
X195500D01*
X194560Y51507D01*
X193684Y51145D01*
X192932Y50568D01*
X192355Y49815D01*
X191993Y48940D01*
X191869Y48000D01*
X191993Y47060D01*
X192355Y46185D01*
X192932Y45432D01*
X193684Y44855D01*
X194560Y44493D01*
X195500Y44369D01*
X200500D01*
X201440Y44493D01*
X202315Y44855D01*
X203068Y45432D01*
X203645Y46185D01*
X204007Y47060D01*
X204471Y46939D01*
Y39061D01*
X204007Y38940D01*
X203645Y39816D01*
X203068Y40567D01*
X202315Y41145D01*
X201440Y41507D01*
X200500Y41631D01*
X195500D01*
X194560Y41507D01*
X193684Y41145D01*
X192932Y40567D01*
X192355Y39816D01*
X191993Y38940D01*
X191869Y38000D01*
X191993Y37060D01*
X192355Y36184D01*
X192932Y35432D01*
X193684Y34855D01*
X194560Y34493D01*
X195500Y34369D01*
X200500D01*
X201440Y34493D01*
X202315Y34855D01*
X203068Y35432D01*
X203645Y36184D01*
X204007Y37060D01*
X204471Y36939D01*
Y29061D01*
X204007Y28940D01*
X203645Y29816D01*
X203068Y30567D01*
X202315Y31145D01*
X201440Y31507D01*
X200500Y31631D01*
X195500D01*
X194560Y31507D01*
X193684Y31145D01*
X192932Y30567D01*
X192355Y29816D01*
X191993Y28940D01*
X191869Y28000D01*
X191993Y27060D01*
X192355Y26184D01*
X192932Y25433D01*
X193684Y24855D01*
X194560Y24493D01*
X195500Y24369D01*
X200500D01*
X201440Y24493D01*
X202315Y24855D01*
X203068Y25433D01*
X203645Y26184D01*
X204007Y27060D01*
X204471Y26939D01*
Y1529D01*
X199061D01*
X198940Y1993D01*
X199815Y2355D01*
X200568Y2932D01*
X201145Y3684D01*
X201507Y4560D01*
X201631Y5500D01*
Y10500D01*
X201507Y11440D01*
X201145Y12315D01*
X200568Y13068D01*
X199815Y13645D01*
X198940Y14007D01*
X198000Y14131D01*
X197060Y14007D01*
X196185Y13645D01*
X195432Y13068D01*
X194855Y12315D01*
X194493Y11440D01*
X194369Y10500D01*
Y5500D01*
X194493Y4560D01*
X194855Y3684D01*
X195432Y2932D01*
X196185Y2355D01*
X197060Y1993D01*
X196939Y1529D01*
X189061D01*
X188940Y1993D01*
X189815Y2355D01*
X190568Y2932D01*
X191145Y3684D01*
X191507Y4560D01*
X191631Y5500D01*
Y10500D01*
X191507Y11440D01*
X191145Y12315D01*
X190568Y13068D01*
X189815Y13645D01*
X188940Y14007D01*
X188000Y14131D01*
X187060Y14007D01*
X186185Y13645D01*
X185432Y13068D01*
X184855Y12315D01*
X184493Y11440D01*
X184369Y10500D01*
Y5500D01*
X184493Y4560D01*
X184855Y3684D01*
X185432Y2932D01*
X186185Y2355D01*
X187060Y1993D01*
X186939Y1529D01*
X179061D01*
X178940Y1993D01*
X179815Y2355D01*
X180568Y2932D01*
X181145Y3684D01*
X181507Y4560D01*
X181631Y5500D01*
Y10500D01*
X181507Y11440D01*
X181145Y12315D01*
X180568Y13068D01*
X179815Y13645D01*
X178940Y14007D01*
X178000Y14131D01*
X177060Y14007D01*
X176184Y13645D01*
X175432Y13068D01*
X174855Y12315D01*
X174493Y11440D01*
X174369Y10500D01*
Y5500D01*
X174493Y4560D01*
X174855Y3684D01*
X175432Y2932D01*
X176184Y2355D01*
X177060Y1993D01*
X176939Y1529D01*
X169061D01*
X168940Y1993D01*
X169816Y2355D01*
X170568Y2932D01*
X171145Y3684D01*
X171507Y4560D01*
X171631Y5500D01*
Y10500D01*
X171507Y11440D01*
X171145Y12315D01*
X170568Y13068D01*
X169816Y13645D01*
X168940Y14007D01*
X168000Y14131D01*
X167060Y14007D01*
X166184Y13645D01*
X165432Y13068D01*
X164855Y12315D01*
X164493Y11440D01*
X164369Y10500D01*
Y5500D01*
X164493Y4560D01*
X164855Y3684D01*
X165432Y2932D01*
X166184Y2355D01*
X167060Y1993D01*
X166939Y1529D01*
X159061D01*
X158940Y1993D01*
X159816Y2355D01*
X160568Y2932D01*
X161145Y3684D01*
X161507Y4560D01*
X161631Y5500D01*
Y10500D01*
X161507Y11440D01*
X161145Y12315D01*
X160568Y13068D01*
X159816Y13645D01*
X158940Y14007D01*
X158000Y14131D01*
X157060Y14007D01*
X156184Y13645D01*
X155432Y13068D01*
X154855Y12315D01*
X154493Y11440D01*
X154369Y10500D01*
Y5500D01*
X154493Y4560D01*
X154855Y3684D01*
X155432Y2932D01*
X156184Y2355D01*
X157060Y1993D01*
X156939Y1529D01*
X149061D01*
X148940Y1993D01*
X149815Y2355D01*
X150568Y2932D01*
X151145Y3684D01*
X151507Y4560D01*
X151631Y5500D01*
Y10500D01*
X151507Y11440D01*
X151145Y12315D01*
X150568Y13068D01*
X149815Y13645D01*
X148940Y14007D01*
X148000Y14131D01*
X147060Y14007D01*
X146185Y13645D01*
X145432Y13068D01*
X144855Y12315D01*
X144493Y11440D01*
X144369Y10500D01*
Y5500D01*
X144493Y4560D01*
X144855Y3684D01*
X145432Y2932D01*
X146185Y2355D01*
X147060Y1993D01*
X146939Y1529D01*
X139061D01*
X138940Y1993D01*
X139815Y2355D01*
X140568Y2932D01*
X141145Y3684D01*
X141507Y4560D01*
X141631Y5500D01*
Y10500D01*
X141507Y11440D01*
X141145Y12315D01*
X140568Y13068D01*
X139815Y13645D01*
X138940Y14007D01*
X138000Y14131D01*
X137060Y14007D01*
X136185Y13645D01*
X135432Y13068D01*
X134855Y12315D01*
X134493Y11440D01*
X134369Y10500D01*
Y5500D01*
X134493Y4560D01*
X134855Y3684D01*
X135432Y2932D01*
X136185Y2355D01*
X137060Y1993D01*
X136939Y1529D01*
X129061D01*
X128940Y1993D01*
X129815Y2355D01*
X130568Y2932D01*
X131145Y3684D01*
X131507Y4560D01*
X131631Y5500D01*
Y10500D01*
X131507Y11440D01*
X131145Y12315D01*
X130568Y13068D01*
X129815Y13645D01*
X128940Y14007D01*
X128000Y14131D01*
X127060Y14007D01*
X126184Y13645D01*
X125432Y13068D01*
X124855Y12315D01*
X124493Y11440D01*
X124369Y10500D01*
Y5500D01*
X124493Y4560D01*
X124855Y3684D01*
X125432Y2932D01*
X126184Y2355D01*
X127060Y1993D01*
X126939Y1529D01*
X119061D01*
X118940Y1993D01*
X119816Y2355D01*
X120568Y2932D01*
X121145Y3684D01*
X121507Y4560D01*
X121631Y5500D01*
Y10500D01*
X121507Y11440D01*
X121145Y12315D01*
X120568Y13068D01*
X119816Y13645D01*
X118940Y14007D01*
X118000Y14131D01*
X117060Y14007D01*
X116184Y13645D01*
X115432Y13068D01*
X114855Y12315D01*
X114493Y11440D01*
X114369Y10500D01*
Y5500D01*
X114493Y4560D01*
X114855Y3684D01*
X115432Y2932D01*
X116184Y2355D01*
X117060Y1993D01*
X116939Y1529D01*
X109061D01*
X108940Y1993D01*
X109816Y2355D01*
X110568Y2932D01*
X111145Y3684D01*
X111507Y4560D01*
X111631Y5500D01*
Y10500D01*
X111507Y11440D01*
X111145Y12315D01*
X110568Y13068D01*
X109816Y13645D01*
X109122Y13932D01*
Y17035D01*
X118293Y26207D01*
X118293Y26207D01*
X118536Y26571D01*
X118622Y27000D01*
X118622Y27000D01*
Y58524D01*
X118834Y58666D01*
X119243Y59278D01*
X119386Y60000D01*
X119243Y60722D01*
X118834Y61334D01*
X118222Y61743D01*
X117500Y61886D01*
X116778Y61743D01*
X116166Y61334D01*
X115757Y60722D01*
X115614Y60000D01*
X115757Y59278D01*
X116166Y58666D01*
X116378Y58524D01*
Y27465D01*
X107207Y18293D01*
X106964Y17929D01*
X106878Y17500D01*
X106878Y17500D01*
Y13932D01*
X106184Y13645D01*
X105432Y13068D01*
X104855Y12315D01*
X104493Y11440D01*
X104369Y10500D01*
Y5500D01*
X104493Y4560D01*
X104855Y3684D01*
X105432Y2932D01*
X106184Y2355D01*
X107060Y1993D01*
X106939Y1529D01*
X100299D01*
X100045Y1976D01*
X100048Y2029D01*
X100853Y2647D01*
X101494Y3483D01*
X101897Y4456D01*
X102034Y5500D01*
Y7500D01*
X98000D01*
X93966D01*
Y5500D01*
X94103Y4456D01*
X94506Y3483D01*
X95147Y2647D01*
X95952Y2029D01*
X95955Y1976D01*
X95701Y1529D01*
X90299D01*
X90045Y1976D01*
X90048Y2029D01*
X90853Y2647D01*
X91494Y3483D01*
X91897Y4456D01*
X92035Y5500D01*
Y7500D01*
X88000D01*
X83965D01*
Y5500D01*
X84103Y4456D01*
X84506Y3483D01*
X85147Y2647D01*
X85952Y2029D01*
X85955Y1976D01*
X85701Y1529D01*
X79061D01*
X78940Y1993D01*
X79816Y2355D01*
X80568Y2932D01*
X81145Y3684D01*
X81507Y4560D01*
X81631Y5500D01*
Y10500D01*
X81507Y11440D01*
X81145Y12315D01*
X80568Y13068D01*
X79816Y13645D01*
X78940Y14007D01*
X78000Y14131D01*
X77060Y14007D01*
X76184Y13645D01*
X75432Y13068D01*
X74855Y12315D01*
X74493Y11440D01*
X74369Y10500D01*
Y5500D01*
X74493Y4560D01*
X74855Y3684D01*
X75432Y2932D01*
X76184Y2355D01*
X77060Y1993D01*
X76939Y1529D01*
X69061D01*
X68940Y1993D01*
X69815Y2355D01*
X70568Y2932D01*
X71145Y3684D01*
X71507Y4560D01*
X71631Y5500D01*
Y10500D01*
X71507Y11440D01*
X71145Y12315D01*
X70568Y13068D01*
X69815Y13645D01*
X68940Y14007D01*
X68000Y14131D01*
X67060Y14007D01*
X66185Y13645D01*
X65432Y13068D01*
X64855Y12315D01*
X64493Y11440D01*
X64369Y10500D01*
Y5500D01*
X64493Y4560D01*
X64855Y3684D01*
X65432Y2932D01*
X66185Y2355D01*
X67060Y1993D01*
X66939Y1529D01*
X59061D01*
X58940Y1993D01*
X59816Y2355D01*
X60568Y2932D01*
X61145Y3684D01*
X61507Y4560D01*
X61631Y5500D01*
Y10500D01*
X61507Y11440D01*
X61145Y12315D01*
X60568Y13068D01*
X59816Y13645D01*
X58940Y14007D01*
X58000Y14131D01*
X57060Y14007D01*
X56185Y13645D01*
X55432Y13068D01*
X54855Y12315D01*
X54493Y11440D01*
X54369Y10500D01*
Y5500D01*
X54493Y4560D01*
X54855Y3684D01*
X55432Y2932D01*
X56185Y2355D01*
X57060Y1993D01*
X56939Y1529D01*
X49061D01*
X48940Y1993D01*
X49815Y2355D01*
X50568Y2932D01*
X51145Y3684D01*
X51507Y4560D01*
X51631Y5500D01*
Y10500D01*
X51507Y11440D01*
X51145Y12315D01*
X50568Y13068D01*
X49815Y13645D01*
X49122Y13932D01*
Y31524D01*
X49334Y31666D01*
X49743Y32278D01*
X49886Y33000D01*
X49743Y33722D01*
X49334Y34334D01*
X48722Y34743D01*
X48000Y34886D01*
X47278Y34743D01*
X46666Y34334D01*
X46257Y33722D01*
X46114Y33000D01*
X46257Y32278D01*
X46666Y31666D01*
X46878Y31524D01*
Y13932D01*
X46185Y13645D01*
X45432Y13068D01*
X44855Y12315D01*
X44493Y11440D01*
X44369Y10500D01*
Y5500D01*
X44493Y4560D01*
X44855Y3684D01*
X45432Y2932D01*
X46185Y2355D01*
X47060Y1993D01*
X46939Y1529D01*
X39061D01*
X38940Y1993D01*
X39816Y2355D01*
X40567Y2932D01*
X41145Y3684D01*
X41507Y4560D01*
X41631Y5500D01*
Y10500D01*
X41507Y11440D01*
X41145Y12315D01*
X40567Y13068D01*
X39816Y13645D01*
X39020Y13974D01*
Y22578D01*
X39629Y23188D01*
X40000Y23114D01*
X40722Y23257D01*
X41334Y23666D01*
X41743Y24278D01*
X41886Y25000D01*
X41743Y25722D01*
X41334Y26334D01*
X40722Y26743D01*
X40000Y26886D01*
X39278Y26743D01*
X38666Y26334D01*
X38257Y25722D01*
X38114Y25000D01*
X38188Y24629D01*
X37279Y23721D01*
X37058Y23390D01*
X36980Y23000D01*
Y13974D01*
X36184Y13645D01*
X35432Y13068D01*
X34855Y12315D01*
X34493Y11440D01*
X34369Y10500D01*
Y5500D01*
X34493Y4560D01*
X34855Y3684D01*
X35432Y2932D01*
X36184Y2355D01*
X37060Y1993D01*
X36939Y1529D01*
X29061D01*
X28940Y1993D01*
X29816Y2355D01*
X30567Y2932D01*
X31145Y3684D01*
X31507Y4560D01*
X31631Y5500D01*
Y10500D01*
X31507Y11440D01*
X31145Y12315D01*
X30567Y13068D01*
X29816Y13645D01*
X28940Y14007D01*
X28000Y14131D01*
X27060Y14007D01*
X26184Y13645D01*
X25433Y13068D01*
X24855Y12315D01*
X24493Y11440D01*
X24369Y10500D01*
Y5500D01*
X24493Y4560D01*
X24855Y3684D01*
X25433Y2932D01*
X26184Y2355D01*
X27060Y1993D01*
X26939Y1529D01*
X19061D01*
X18940Y1993D01*
X19816Y2355D01*
X20568Y2932D01*
X21145Y3684D01*
X21507Y4560D01*
X21631Y5500D01*
Y10500D01*
X21507Y11440D01*
X21145Y12315D01*
X20568Y13068D01*
X19816Y13645D01*
X18940Y14007D01*
X18000Y14131D01*
X17060Y14007D01*
X16184Y13645D01*
X15432Y13068D01*
X14855Y12315D01*
X14493Y11440D01*
X14369Y10500D01*
Y5500D01*
X14493Y4560D01*
X14855Y3684D01*
X15432Y2932D01*
X16184Y2355D01*
X17060Y1993D01*
X16939Y1529D01*
X12156D01*
X11888Y2029D01*
X11942Y2110D01*
X12020Y2500D01*
Y7500D01*
X8000D01*
X3980D01*
Y2500D01*
X4058Y2110D01*
X4112Y2029D01*
X3844Y1529D01*
X1529D01*
Y26939D01*
X1993Y27060D01*
X2355Y26184D01*
X2932Y25433D01*
X3684Y24855D01*
X4560Y24493D01*
X5500Y24369D01*
X10500D01*
X11440Y24493D01*
X12315Y24855D01*
X13068Y25433D01*
X13645Y26184D01*
X14007Y27060D01*
X14131Y28000D01*
X14007Y28940D01*
X13645Y29816D01*
X13068Y30567D01*
X12315Y31145D01*
X11440Y31507D01*
X10500Y31631D01*
X5500D01*
X4560Y31507D01*
X3684Y31145D01*
X2932Y30567D01*
X2355Y29816D01*
X1993Y28940D01*
X1529Y29061D01*
Y36939D01*
X1993Y37060D01*
X2355Y36184D01*
X2932Y35432D01*
X3684Y34855D01*
X4560Y34493D01*
X5500Y34369D01*
X10500D01*
X11440Y34493D01*
X12315Y34855D01*
X13068Y35432D01*
X13645Y36184D01*
X14007Y37060D01*
X14131Y38000D01*
X14007Y38940D01*
X13645Y39816D01*
X13068Y40567D01*
X12315Y41145D01*
X11440Y41507D01*
X10500Y41631D01*
X5500D01*
X4560Y41507D01*
X3684Y41145D01*
X2932Y40567D01*
X2355Y39816D01*
X1993Y38940D01*
X1529Y39061D01*
Y46939D01*
X1993Y47060D01*
X2355Y46185D01*
X2932Y45432D01*
X3684Y44855D01*
X4560Y44493D01*
X5500Y44369D01*
X10500D01*
X11440Y44493D01*
X12315Y44855D01*
X13068Y45432D01*
X13645Y46185D01*
X14007Y47060D01*
X14131Y48000D01*
X14007Y48940D01*
X13645Y49815D01*
X13068Y50568D01*
X12315Y51145D01*
X11440Y51507D01*
X10500Y51631D01*
X5500D01*
X4560Y51507D01*
X3684Y51145D01*
X2932Y50568D01*
X2355Y49815D01*
X1993Y48940D01*
X1529Y49061D01*
Y56939D01*
X1993Y57060D01*
X2355Y56185D01*
X2932Y55432D01*
X3684Y54855D01*
X4560Y54493D01*
X5500Y54369D01*
X10500D01*
X11440Y54493D01*
X12315Y54855D01*
X13068Y55432D01*
X13645Y56185D01*
X14007Y57060D01*
X14131Y58000D01*
X14007Y58940D01*
X13645Y59816D01*
X13068Y60568D01*
X12315Y61145D01*
X11440Y61507D01*
X10500Y61631D01*
X5500D01*
X4560Y61507D01*
X3684Y61145D01*
X2932Y60568D01*
X2355Y59816D01*
X1993Y58940D01*
X1529Y59061D01*
Y65701D01*
X1976Y65955D01*
X2029Y65952D01*
X2647Y65147D01*
X3483Y64506D01*
X4456Y64103D01*
X5500Y63965D01*
X7500D01*
Y68000D01*
Y72035D01*
X5500D01*
X4456Y71897D01*
X3483Y71494D01*
X2647Y70853D01*
X2029Y70048D01*
X1976Y70045D01*
X1529Y70299D01*
Y75701D01*
X1976Y75955D01*
X2029Y75952D01*
X2647Y75147D01*
X3483Y74506D01*
X4456Y74103D01*
X5500Y73966D01*
X7500D01*
Y78000D01*
Y82034D01*
X5500D01*
X4456Y81897D01*
X3483Y81494D01*
X2647Y80853D01*
X2029Y80048D01*
X1976Y80045D01*
X1529Y80299D01*
Y86939D01*
X1993Y87060D01*
X2355Y86185D01*
X2932Y85432D01*
X3684Y84855D01*
X4560Y84493D01*
X5500Y84369D01*
X10500D01*
X11440Y84493D01*
X12315Y84855D01*
X13068Y85432D01*
X13645Y86185D01*
X14007Y87060D01*
X14131Y88000D01*
X14007Y88940D01*
X13645Y89815D01*
X13068Y90568D01*
X12315Y91145D01*
X11440Y91507D01*
X10500Y91631D01*
X5500D01*
X4560Y91507D01*
X3684Y91145D01*
X2932Y90568D01*
X2355Y89815D01*
X1993Y88940D01*
X1529Y89061D01*
Y96939D01*
X1993Y97060D01*
X2355Y96184D01*
X2932Y95432D01*
X3684Y94855D01*
X4560Y94493D01*
X5500Y94369D01*
X10500D01*
X11440Y94493D01*
X12315Y94855D01*
X13068Y95432D01*
X13645Y96184D01*
X14007Y97060D01*
X14131Y98000D01*
X14007Y98940D01*
X13645Y99815D01*
X13068Y100568D01*
X12315Y101145D01*
X11440Y101507D01*
X10500Y101631D01*
X5500D01*
X4560Y101507D01*
X3684Y101145D01*
X2932Y100568D01*
X2355Y99815D01*
X1993Y98940D01*
X1529Y99061D01*
Y106939D01*
X1993Y107060D01*
X2355Y106184D01*
X2932Y105432D01*
X3684Y104855D01*
X4560Y104493D01*
X5500Y104369D01*
X10500D01*
X11440Y104493D01*
X12315Y104855D01*
X13068Y105432D01*
X13645Y106184D01*
X14007Y107060D01*
X14131Y108000D01*
X14007Y108940D01*
X13645Y109816D01*
X13068Y110568D01*
X12315Y111145D01*
X11440Y111507D01*
X10500Y111631D01*
X5500D01*
X4560Y111507D01*
X3684Y111145D01*
X2932Y110568D01*
X2355Y109816D01*
X1993Y108940D01*
X1529Y109061D01*
Y116939D01*
X1993Y117060D01*
X2355Y116184D01*
X2932Y115432D01*
X3684Y114855D01*
X4560Y114493D01*
X5500Y114369D01*
X10500D01*
X11440Y114493D01*
X12315Y114855D01*
X13068Y115432D01*
X13645Y116184D01*
X14007Y117060D01*
X14131Y118000D01*
X14007Y118940D01*
X13645Y119816D01*
X13068Y120568D01*
X12315Y121145D01*
X11440Y121507D01*
X10500Y121631D01*
X5500D01*
X4560Y121507D01*
X3684Y121145D01*
X2932Y120568D01*
X2355Y119816D01*
X1993Y118940D01*
X1529Y119061D01*
Y126939D01*
X1993Y127060D01*
X2355Y126184D01*
X2932Y125432D01*
X3684Y124855D01*
X4560Y124493D01*
X5500Y124369D01*
X10500D01*
X11440Y124493D01*
X12315Y124855D01*
X13068Y125432D01*
X13645Y126184D01*
X14007Y127060D01*
X14131Y128000D01*
X14007Y128940D01*
X13645Y129815D01*
X13068Y130568D01*
X12315Y131145D01*
X11440Y131507D01*
X10500Y131631D01*
X5500D01*
X4560Y131507D01*
X3684Y131145D01*
X2932Y130568D01*
X2355Y129815D01*
X1993Y128940D01*
X1529Y129061D01*
Y136939D01*
X1993Y137060D01*
X2355Y136185D01*
X2932Y135432D01*
X3684Y134855D01*
X4560Y134493D01*
X5500Y134369D01*
X10500D01*
X11440Y134493D01*
X12315Y134855D01*
X13068Y135432D01*
X13645Y136185D01*
X14007Y137060D01*
X14131Y138000D01*
X14007Y138940D01*
X13645Y139815D01*
X13068Y140568D01*
X12315Y141145D01*
X11440Y141507D01*
X10500Y141631D01*
X5500D01*
X4560Y141507D01*
X3684Y141145D01*
X2932Y140568D01*
X2355Y139815D01*
X1993Y138940D01*
X1529Y139061D01*
Y146939D01*
X1993Y147060D01*
X2355Y146185D01*
X2932Y145432D01*
X3684Y144855D01*
X4560Y144493D01*
X5500Y144369D01*
X10500D01*
X11440Y144493D01*
X12315Y144855D01*
X13068Y145432D01*
X13645Y146185D01*
X14007Y147060D01*
X14131Y148000D01*
X14007Y148940D01*
X13645Y149815D01*
X13068Y150568D01*
X12315Y151145D01*
X11440Y151507D01*
X10500Y151631D01*
X5500D01*
X4560Y151507D01*
X3684Y151145D01*
X2932Y150568D01*
X2355Y149815D01*
X1993Y148940D01*
X1529Y149061D01*
Y156939D01*
X1993Y157060D01*
X2355Y156184D01*
X2932Y155432D01*
X3684Y154855D01*
X4560Y154493D01*
X5500Y154369D01*
X10500D01*
X11440Y154493D01*
X12315Y154855D01*
X13068Y155432D01*
X13645Y156184D01*
X14007Y157060D01*
X14131Y158000D01*
X14007Y158940D01*
X13645Y159816D01*
X13068Y160568D01*
X12315Y161145D01*
X11440Y161507D01*
X10500Y161631D01*
X5500D01*
X4560Y161507D01*
X3684Y161145D01*
X2932Y160568D01*
X2355Y159816D01*
X1993Y158940D01*
X1529Y159061D01*
Y165701D01*
X1976Y165955D01*
X2029Y165952D01*
X2647Y165147D01*
X3483Y164506D01*
X4456Y164103D01*
X5500Y163965D01*
X7500D01*
Y168000D01*
Y172035D01*
X5500D01*
X4456Y171897D01*
X3483Y171494D01*
X2647Y170853D01*
X2029Y170048D01*
X1976Y170045D01*
X1529Y170299D01*
Y176939D01*
X1993Y177060D01*
X2355Y176184D01*
X2932Y175432D01*
X3684Y174855D01*
X4560Y174493D01*
X5500Y174369D01*
X10500D01*
X11440Y174493D01*
X12315Y174855D01*
X13068Y175432D01*
X13645Y176184D01*
X14007Y177060D01*
X14131Y178000D01*
X14007Y178940D01*
X13645Y179815D01*
X13068Y180568D01*
X12315Y181145D01*
X11440Y181507D01*
X10500Y181631D01*
X5500D01*
X4560Y181507D01*
X3684Y181145D01*
X2932Y180568D01*
X2355Y179815D01*
X1993Y178940D01*
X1529Y179061D01*
Y185701D01*
X1976Y185955D01*
X2029Y185952D01*
X2647Y185147D01*
X3483Y184506D01*
X4456Y184103D01*
X5500Y183966D01*
X7500D01*
Y188000D01*
Y192034D01*
X5500D01*
X4456Y191897D01*
X3483Y191494D01*
X2647Y190853D01*
X2029Y190048D01*
X1976Y190045D01*
X1529Y190299D01*
Y196939D01*
X1993Y197060D01*
X2355Y196185D01*
X2932Y195432D01*
X3684Y194855D01*
X4560Y194493D01*
X5500Y194369D01*
X10500D01*
X11440Y194493D01*
X12315Y194855D01*
X13068Y195432D01*
X13645Y196185D01*
X14007Y197060D01*
X14131Y198000D01*
X14007Y198940D01*
X13645Y199815D01*
X13068Y200568D01*
X12315Y201145D01*
X11440Y201507D01*
X10500Y201631D01*
X5500D01*
X4560Y201507D01*
X3684Y201145D01*
X2932Y200568D01*
X2355Y199815D01*
X1993Y198940D01*
X1529Y199061D01*
Y205701D01*
X1976Y205955D01*
X2029Y205952D01*
X2647Y205147D01*
X3483Y204506D01*
X4456Y204103D01*
X5500Y203965D01*
X7500D01*
Y208000D01*
Y212035D01*
X5500D01*
X4456Y211897D01*
X3483Y211494D01*
X2647Y210853D01*
X2029Y210048D01*
X1976Y210045D01*
X1529Y210299D01*
Y214469D01*
X2029Y214568D01*
X2041Y214541D01*
X2500Y214351D01*
X13500D01*
X13959Y214541D01*
X14149Y215000D01*
Y221000D01*
X13959Y221459D01*
X13500Y221649D01*
X2500D01*
X2041Y221459D01*
X2029Y221432D01*
X1529Y221531D01*
Y252971D01*
X204471D01*
Y222155D01*
D02*
G37*
%LPC*%
G36*
X384000Y505641D02*
X381944Y505479D01*
X379939Y504997D01*
X378034Y504208D01*
X376276Y503131D01*
X374708Y501792D01*
X373369Y500224D01*
X372292Y498466D01*
X371503Y496561D01*
X371021Y494556D01*
X370860Y492500D01*
X371021Y490444D01*
X371503Y488439D01*
X372292Y486534D01*
X373369Y484776D01*
X374708Y483208D01*
X376276Y481869D01*
X378034Y480792D01*
X379939Y480003D01*
X381944Y479521D01*
X384000Y479359D01*
X386056Y479521D01*
X388061Y480003D01*
X389966Y480792D01*
X391724Y481869D01*
X393292Y483208D01*
X394631Y484776D01*
X395708Y486534D01*
X396497Y488439D01*
X396979Y490444D01*
X397141Y492500D01*
X396979Y494556D01*
X396497Y496561D01*
X395708Y498466D01*
X394631Y500224D01*
X393292Y501792D01*
X391724Y503131D01*
X389966Y504208D01*
X388061Y504997D01*
X386056Y505479D01*
X384000Y505641D01*
D02*
G37*
G36*
X234000D02*
X231944Y505479D01*
X229939Y504997D01*
X228034Y504208D01*
X226276Y503131D01*
X224708Y501792D01*
X223369Y500224D01*
X222292Y498466D01*
X221503Y496561D01*
X221021Y494556D01*
X220860Y492500D01*
X221021Y490444D01*
X221503Y488439D01*
X222292Y486534D01*
X223369Y484776D01*
X224708Y483208D01*
X226276Y481869D01*
X228034Y480792D01*
X229939Y480003D01*
X231944Y479521D01*
X234000Y479359D01*
X236056Y479521D01*
X238061Y480003D01*
X239966Y480792D01*
X241724Y481869D01*
X243292Y483208D01*
X244631Y484776D01*
X245708Y486534D01*
X246497Y488439D01*
X246979Y490444D01*
X247141Y492500D01*
X246979Y494556D01*
X246497Y496561D01*
X245708Y498466D01*
X244631Y500224D01*
X243292Y501792D01*
X241724Y503131D01*
X239966Y504208D01*
X238061Y504997D01*
X236056Y505479D01*
X234000Y505641D01*
D02*
G37*
G36*
X403500Y476520D02*
X398500D01*
X398110Y476442D01*
X397779Y476221D01*
X397558Y475890D01*
X397480Y475500D01*
Y473000D01*
X403500D01*
Y476520D01*
D02*
G37*
G36*
Y472000D02*
X397480D01*
Y469500D01*
X397558Y469110D01*
X397779Y468779D01*
X398110Y468558D01*
X398500Y468480D01*
X403500D01*
Y472000D01*
D02*
G37*
G36*
X216500Y466535D02*
X214500D01*
Y463000D01*
X220469D01*
X220397Y463544D01*
X219994Y464517D01*
X219353Y465353D01*
X218517Y465994D01*
X217544Y466397D01*
X216500Y466535D01*
D02*
G37*
G36*
X220469Y462000D02*
X214500D01*
Y458465D01*
X216500D01*
X217544Y458603D01*
X218517Y459006D01*
X219353Y459647D01*
X219994Y460483D01*
X220397Y461456D01*
X220469Y462000D01*
D02*
G37*
G36*
X403500Y446534D02*
X401500D01*
X400456Y446397D01*
X399483Y445994D01*
X398647Y445353D01*
X398006Y444517D01*
X397603Y443544D01*
X397531Y443000D01*
X403500D01*
Y446534D01*
D02*
G37*
G36*
X216500D02*
X214500D01*
Y443000D01*
X220469D01*
X220397Y443544D01*
X219994Y444517D01*
X219353Y445353D01*
X218517Y445994D01*
X217544Y446397D01*
X216500Y446534D01*
D02*
G37*
G36*
X299000Y440886D02*
X298278Y440743D01*
X297666Y440334D01*
X297524Y440122D01*
X290976D01*
X290834Y440334D01*
X290222Y440743D01*
X289500Y440886D01*
X288778Y440743D01*
X288166Y440334D01*
X287757Y439722D01*
X287614Y439000D01*
X287757Y438278D01*
X288166Y437666D01*
X288778Y437257D01*
X289500Y437114D01*
X290222Y437257D01*
X290834Y437666D01*
X290976Y437878D01*
X297524D01*
X297666Y437666D01*
X298278Y437257D01*
X299000Y437114D01*
X299722Y437257D01*
X300334Y437666D01*
X300743Y438278D01*
X300886Y439000D01*
X300743Y439722D01*
X300334Y440334D01*
X299722Y440743D01*
X299000Y440886D01*
D02*
G37*
G36*
X403500Y442000D02*
X397531D01*
X397603Y441456D01*
X398006Y440483D01*
X398647Y439647D01*
X399483Y439006D01*
X400456Y438603D01*
X401500Y438465D01*
X403500D01*
Y442000D01*
D02*
G37*
G36*
X220469D02*
X214500D01*
Y438465D01*
X216500D01*
X217544Y438603D01*
X218517Y439006D01*
X219353Y439647D01*
X219994Y440483D01*
X220397Y441456D01*
X220469Y442000D01*
D02*
G37*
G36*
X247000Y427386D02*
X246278Y427243D01*
X245666Y426834D01*
X245257Y426222D01*
X245114Y425500D01*
X245187Y425129D01*
X242529Y422471D01*
X242308Y422140D01*
X242230Y421750D01*
Y419433D01*
X241789Y419198D01*
X241722Y419243D01*
X241000Y419386D01*
X240278Y419243D01*
X239666Y418834D01*
X239551Y418661D01*
X238949D01*
X238834Y418834D01*
X238222Y419243D01*
X237500Y419386D01*
X236778Y419243D01*
X236166Y418834D01*
X235769Y418239D01*
X235690Y418227D01*
X235255Y418260D01*
X235243Y418322D01*
X234834Y418934D01*
X234222Y419343D01*
X233500Y419486D01*
X232778Y419343D01*
X232166Y418934D01*
X231757Y418322D01*
X231614Y417600D01*
X231757Y416878D01*
X232166Y416266D01*
X232778Y415857D01*
X233480Y415718D01*
Y407044D01*
X233166Y406834D01*
X232757Y406222D01*
X232614Y405500D01*
X232757Y404778D01*
X233166Y404166D01*
X233778Y403757D01*
X234500Y403614D01*
X235222Y403757D01*
X235834Y404166D01*
X236243Y404778D01*
X236281Y404973D01*
X236658Y405129D01*
X236823Y405132D01*
X237500Y404998D01*
X238222Y405141D01*
X238289Y405187D01*
X238730Y404951D01*
Y404211D01*
X238166Y403834D01*
X237757Y403222D01*
X237614Y402500D01*
X237757Y401778D01*
X238166Y401166D01*
X238778Y400757D01*
X239500Y400614D01*
X240222Y400757D01*
X240834Y401166D01*
X241243Y401778D01*
X241386Y402500D01*
X241243Y403222D01*
X241217Y403260D01*
X241518Y403710D01*
X242000Y403614D01*
X242722Y403757D01*
X243334Y404166D01*
X243743Y404778D01*
X243886Y405500D01*
X243812Y405871D01*
X243971Y406029D01*
X244192Y406360D01*
X244270Y406750D01*
Y421328D01*
X246629Y423688D01*
X247000Y423614D01*
X247722Y423757D01*
X248334Y424166D01*
X248743Y424778D01*
X248886Y425500D01*
X248743Y426222D01*
X248334Y426834D01*
X247722Y427243D01*
X247000Y427386D01*
D02*
G37*
G36*
X216500Y426535D02*
X214500D01*
Y423000D01*
X220469D01*
X220397Y423544D01*
X219994Y424517D01*
X219353Y425353D01*
X218517Y425994D01*
X217544Y426397D01*
X216500Y426535D01*
D02*
G37*
G36*
X220469Y422000D02*
X214500D01*
Y418466D01*
X216500D01*
X217544Y418603D01*
X218517Y419006D01*
X219353Y419647D01*
X219994Y420483D01*
X220397Y421456D01*
X220469Y422000D01*
D02*
G37*
G36*
X403500Y416535D02*
X401500D01*
X400456Y416397D01*
X399483Y415994D01*
X398647Y415353D01*
X398006Y414517D01*
X397603Y413544D01*
X397531Y413000D01*
X403500D01*
Y416535D01*
D02*
G37*
G36*
X296500Y413386D02*
X295778Y413243D01*
X295166Y412834D01*
X294757Y412222D01*
X294614Y411500D01*
X294757Y410778D01*
X295166Y410166D01*
X295778Y409757D01*
X296500Y409614D01*
X297222Y409757D01*
X297403Y409878D01*
X315024D01*
X315166Y409666D01*
X315778Y409257D01*
X316500Y409114D01*
X317222Y409257D01*
X317834Y409666D01*
X318243Y410278D01*
X318386Y411000D01*
X318243Y411722D01*
X317834Y412334D01*
X317222Y412743D01*
X316500Y412886D01*
X315778Y412743D01*
X315166Y412334D01*
X315024Y412122D01*
X298263D01*
X298243Y412222D01*
X297834Y412834D01*
X297222Y413243D01*
X296500Y413386D01*
D02*
G37*
G36*
X403500Y412000D02*
X397531D01*
X397603Y411456D01*
X398006Y410483D01*
X398647Y409647D01*
X399483Y409006D01*
X400456Y408603D01*
X401500Y408465D01*
X403500D01*
Y412000D01*
D02*
G37*
G36*
Y396534D02*
X401500D01*
X400456Y396397D01*
X399483Y395994D01*
X398647Y395353D01*
X398006Y394517D01*
X397603Y393544D01*
X397531Y393000D01*
X403500D01*
Y396534D01*
D02*
G37*
G36*
X354000Y391886D02*
X353278Y391743D01*
X352666Y391334D01*
X352524Y391122D01*
X345476D01*
X345334Y391334D01*
X344722Y391743D01*
X344000Y391886D01*
X343278Y391743D01*
X342666Y391334D01*
X342257Y390722D01*
X342114Y390000D01*
X342257Y389278D01*
X342666Y388666D01*
X343278Y388257D01*
X344000Y388114D01*
X344722Y388257D01*
X345334Y388666D01*
X345476Y388878D01*
X352524D01*
X352666Y388666D01*
X353278Y388257D01*
X354000Y388114D01*
X354722Y388257D01*
X355334Y388666D01*
X355743Y389278D01*
X355886Y390000D01*
X355743Y390722D01*
X355334Y391334D01*
X354722Y391743D01*
X354000Y391886D01*
D02*
G37*
G36*
X403500Y392000D02*
X397531D01*
X397603Y391456D01*
X398006Y390483D01*
X398647Y389647D01*
X399483Y389006D01*
X400456Y388603D01*
X401500Y388465D01*
X403500D01*
Y392000D01*
D02*
G37*
G36*
Y386535D02*
X401500D01*
X400456Y386397D01*
X399483Y385994D01*
X398647Y385353D01*
X398006Y384517D01*
X397603Y383544D01*
X397531Y383000D01*
X403500D01*
Y386535D01*
D02*
G37*
G36*
Y382000D02*
X397531D01*
X397603Y381456D01*
X398006Y380483D01*
X398647Y379647D01*
X399483Y379006D01*
X400456Y378603D01*
X401500Y378466D01*
X403500D01*
Y382000D01*
D02*
G37*
G36*
X307000Y401886D02*
X306278Y401743D01*
X305666Y401334D01*
X305257Y400722D01*
X305114Y400000D01*
X305257Y399278D01*
X305666Y398666D01*
X305878Y398524D01*
Y380476D01*
X305666Y380334D01*
X305257Y379722D01*
X305114Y379000D01*
X305257Y378278D01*
X305666Y377666D01*
X306278Y377257D01*
X307000Y377114D01*
X307722Y377257D01*
X308334Y377666D01*
X308743Y378278D01*
X308886Y379000D01*
X308743Y379722D01*
X308334Y380334D01*
X308121Y380476D01*
Y398524D01*
X308334Y398666D01*
X308743Y399278D01*
X308886Y400000D01*
X308743Y400722D01*
X308334Y401334D01*
X307722Y401743D01*
X307000Y401886D01*
D02*
G37*
G36*
X248000Y374386D02*
X247278Y374243D01*
X246666Y373834D01*
X246524Y373622D01*
X234976D01*
X234834Y373834D01*
X234222Y374243D01*
X233500Y374386D01*
X232778Y374243D01*
X232166Y373834D01*
X231757Y373222D01*
X231614Y372500D01*
X231757Y371778D01*
X232166Y371166D01*
X232778Y370757D01*
X233500Y370614D01*
X234222Y370757D01*
X234834Y371166D01*
X234976Y371378D01*
X246524D01*
X246666Y371166D01*
X247278Y370757D01*
X248000Y370614D01*
X248722Y370757D01*
X249334Y371166D01*
X249743Y371778D01*
X249886Y372500D01*
X249743Y373222D01*
X249334Y373834D01*
X248722Y374243D01*
X248000Y374386D01*
D02*
G37*
G36*
X292000D02*
X291278Y374243D01*
X290666Y373834D01*
X290257Y373222D01*
X290114Y372500D01*
X290257Y371778D01*
X290666Y371166D01*
X291278Y370757D01*
X292000Y370614D01*
X292722Y370757D01*
X293334Y371166D01*
X293476Y371378D01*
X314194D01*
X314614Y371000D01*
X314757Y370278D01*
X315166Y369666D01*
X315778Y369257D01*
X316500Y369114D01*
X317222Y369257D01*
X317834Y369666D01*
X318243Y370278D01*
X318386Y371000D01*
X318243Y371722D01*
X317834Y372334D01*
X317222Y372743D01*
X316500Y372886D01*
X316250Y372836D01*
X315793Y373293D01*
X315429Y373536D01*
X315000Y373622D01*
X315000Y373622D01*
X293476D01*
X293334Y373834D01*
X292722Y374243D01*
X292000Y374386D01*
D02*
G37*
G36*
X216500Y336535D02*
X214500D01*
Y333000D01*
X220469D01*
X220397Y333544D01*
X219994Y334517D01*
X219353Y335353D01*
X218517Y335994D01*
X217544Y336397D01*
X216500Y336535D01*
D02*
G37*
G36*
X220469Y332000D02*
X214500D01*
Y328466D01*
X216500D01*
X217544Y328603D01*
X218517Y329006D01*
X219353Y329647D01*
X219994Y330483D01*
X220397Y331456D01*
X220469Y332000D01*
D02*
G37*
G36*
X403500Y326535D02*
X401500D01*
X400456Y326397D01*
X399483Y325994D01*
X398647Y325353D01*
X398006Y324517D01*
X397603Y323544D01*
X397531Y323000D01*
X403500D01*
Y326535D01*
D02*
G37*
G36*
X216500D02*
X214500D01*
Y323000D01*
X220469D01*
X220397Y323544D01*
X219994Y324517D01*
X219353Y325353D01*
X218517Y325994D01*
X217544Y326397D01*
X216500Y326535D01*
D02*
G37*
G36*
X297500Y333886D02*
X296778Y333743D01*
X296166Y333334D01*
X295757Y332722D01*
X295614Y332000D01*
X295757Y331278D01*
X296166Y330666D01*
X296778Y330257D01*
X296806Y330252D01*
X304688Y322371D01*
X304614Y322000D01*
X304757Y321278D01*
X305166Y320666D01*
X305778Y320257D01*
X306500Y320114D01*
X307222Y320257D01*
X307834Y320666D01*
X308243Y321278D01*
X308386Y322000D01*
X308243Y322722D01*
X307834Y323334D01*
X307222Y323743D01*
X306500Y323886D01*
X306129Y323813D01*
X299011Y330931D01*
X299243Y331278D01*
X299386Y332000D01*
X299243Y332722D01*
X298834Y333334D01*
X298222Y333743D01*
X297500Y333886D01*
D02*
G37*
G36*
X403500Y322000D02*
X397531D01*
X397603Y321456D01*
X398006Y320483D01*
X398647Y319647D01*
X399483Y319006D01*
X400456Y318603D01*
X401500Y318465D01*
X403500D01*
Y322000D01*
D02*
G37*
G36*
X220469D02*
X214500D01*
Y318465D01*
X216500D01*
X217544Y318603D01*
X218517Y319006D01*
X219353Y319647D01*
X219994Y320483D01*
X220397Y321456D01*
X220469Y322000D01*
D02*
G37*
G36*
X298500Y326886D02*
X297778Y326743D01*
X297166Y326334D01*
X296757Y325722D01*
X296614Y325000D01*
X296757Y324278D01*
X297166Y323666D01*
X297480Y323456D01*
Y321500D01*
X297558Y321110D01*
X297779Y320779D01*
X300187Y318371D01*
X300114Y318000D01*
X300257Y317278D01*
X300666Y316666D01*
X301278Y316257D01*
X302000Y316114D01*
X302722Y316257D01*
X303334Y316666D01*
X303743Y317278D01*
X303886Y318000D01*
X303743Y318722D01*
X303334Y319334D01*
X302722Y319743D01*
X302000Y319886D01*
X301629Y319812D01*
X299520Y321922D01*
Y323456D01*
X299834Y323666D01*
X300243Y324278D01*
X300386Y325000D01*
X300243Y325722D01*
X299834Y326334D01*
X299222Y326743D01*
X298500Y326886D01*
D02*
G37*
G36*
X403500Y316534D02*
X401500D01*
X400456Y316397D01*
X399483Y315994D01*
X398647Y315353D01*
X398006Y314517D01*
X397603Y313544D01*
X397531Y313000D01*
X403500D01*
Y316534D01*
D02*
G37*
G36*
Y312000D02*
X397531D01*
X397603Y311456D01*
X398006Y310483D01*
X398647Y309647D01*
X399483Y309006D01*
X400456Y308603D01*
X401500Y308466D01*
X403500D01*
Y312000D01*
D02*
G37*
G36*
X379000Y314886D02*
X378278Y314743D01*
X377666Y314334D01*
X377257Y313722D01*
X377114Y313000D01*
Y312281D01*
X371666Y306834D01*
X371257Y306222D01*
X371114Y305500D01*
X371257Y304778D01*
X371666Y304166D01*
X372278Y303757D01*
X373000Y303614D01*
X373722Y303757D01*
X374334Y304166D01*
X380334Y310166D01*
X380743Y310778D01*
X380886Y311500D01*
Y313000D01*
X380743Y313722D01*
X380334Y314334D01*
X379722Y314743D01*
X379000Y314886D01*
D02*
G37*
G36*
X284000Y310886D02*
X283278Y310743D01*
X282666Y310334D01*
X282257Y309722D01*
X282114Y309000D01*
X282257Y308278D01*
X282666Y307666D01*
X282878Y307524D01*
Y296476D01*
X282666Y296334D01*
X282257Y295722D01*
X282114Y295000D01*
X282257Y294278D01*
X282666Y293666D01*
X283278Y293257D01*
X284000Y293114D01*
X284722Y293257D01*
X285334Y293666D01*
X285743Y294278D01*
X285886Y295000D01*
X285743Y295722D01*
X285334Y296334D01*
X285121Y296476D01*
Y307524D01*
X285334Y307666D01*
X285743Y308278D01*
X285886Y309000D01*
X285743Y309722D01*
X285334Y310334D01*
X284722Y310743D01*
X284000Y310886D01*
D02*
G37*
G36*
X304000Y305641D02*
X301944Y305479D01*
X299939Y304997D01*
X298034Y304208D01*
X296276Y303131D01*
X294708Y301792D01*
X293369Y300224D01*
X292292Y298466D01*
X291503Y296561D01*
X291021Y294556D01*
X290860Y292500D01*
X291021Y290444D01*
X291503Y288439D01*
X292292Y286534D01*
X293369Y284776D01*
X294708Y283208D01*
X296276Y281869D01*
X298034Y280792D01*
X299939Y280003D01*
X301944Y279521D01*
X304000Y279360D01*
X306056Y279521D01*
X308061Y280003D01*
X309966Y280792D01*
X311724Y281869D01*
X313292Y283208D01*
X314631Y284776D01*
X315708Y286534D01*
X316497Y288439D01*
X316979Y290444D01*
X317141Y292500D01*
X316979Y294556D01*
X316497Y296561D01*
X315708Y298466D01*
X314631Y300224D01*
X313292Y301792D01*
X311724Y303131D01*
X309966Y304208D01*
X308061Y304997D01*
X306056Y305479D01*
X304000Y305641D01*
D02*
G37*
G36*
X264500Y288886D02*
X261000D01*
X260278Y288743D01*
X259666Y288334D01*
X259257Y287722D01*
X259114Y287000D01*
X259257Y286278D01*
X259666Y285666D01*
X260278Y285257D01*
X261000Y285114D01*
X263719D01*
X269166Y279666D01*
X269778Y279257D01*
X270500Y279114D01*
X271222Y279257D01*
X271834Y279666D01*
X272243Y280278D01*
X272386Y281000D01*
X272243Y281722D01*
X271834Y282334D01*
X265834Y288334D01*
X265222Y288743D01*
X264500Y288886D01*
D02*
G37*
G36*
X286500Y279386D02*
X281000D01*
X280278Y279243D01*
X279666Y278834D01*
X279257Y278222D01*
X279114Y277500D01*
X279257Y276778D01*
X279666Y276166D01*
X280278Y275757D01*
X281000Y275614D01*
X286500D01*
X287222Y275757D01*
X287834Y276166D01*
X288243Y276778D01*
X288386Y277500D01*
X288243Y278222D01*
X287834Y278834D01*
X287222Y279243D01*
X286500Y279386D01*
D02*
G37*
G36*
X344000D02*
X324500D01*
X323778Y279243D01*
X323166Y278834D01*
X322757Y278222D01*
X322614Y277500D01*
X322757Y276778D01*
X323166Y276166D01*
X323778Y275757D01*
X324500Y275614D01*
X343245D01*
X343778Y275257D01*
X344500Y275114D01*
X345222Y275257D01*
X345834Y275666D01*
X346243Y276278D01*
X346386Y277000D01*
X346243Y277722D01*
X345834Y278334D01*
X345334Y278834D01*
X344722Y279243D01*
X344000Y279386D01*
D02*
G37*
G36*
X304500Y268969D02*
Y263000D01*
X308034D01*
Y265000D01*
X307897Y266044D01*
X307494Y267017D01*
X306853Y267853D01*
X306017Y268494D01*
X305044Y268897D01*
X304500Y268969D01*
D02*
G37*
G36*
X294500D02*
Y263000D01*
X298035D01*
Y265000D01*
X297897Y266044D01*
X297494Y267017D01*
X296853Y267853D01*
X296017Y268494D01*
X295044Y268897D01*
X294500Y268969D01*
D02*
G37*
G36*
X217000Y269020D02*
X214500D01*
Y263000D01*
X218020D01*
Y268000D01*
X217942Y268390D01*
X217721Y268721D01*
X217390Y268942D01*
X217000Y269020D01*
D02*
G37*
G36*
X213500D02*
X211000D01*
X210610Y268942D01*
X210279Y268721D01*
X210058Y268390D01*
X209980Y268000D01*
Y263000D01*
X213500D01*
Y269020D01*
D02*
G37*
G36*
X303500Y268969D02*
X302956Y268897D01*
X301983Y268494D01*
X301147Y267853D01*
X300506Y267017D01*
X300103Y266044D01*
X299966Y265000D01*
Y263000D01*
X303500D01*
Y268969D01*
D02*
G37*
G36*
X293500D02*
X292956Y268897D01*
X291983Y268494D01*
X291147Y267853D01*
X290506Y267017D01*
X290103Y266044D01*
X289966Y265000D01*
Y263000D01*
X293500D01*
Y268969D01*
D02*
G37*
G36*
X178000Y505641D02*
X175944Y505479D01*
X173939Y504997D01*
X172034Y504208D01*
X170276Y503131D01*
X168708Y501792D01*
X167369Y500224D01*
X166292Y498466D01*
X165503Y496561D01*
X165021Y494556D01*
X164859Y492500D01*
X165021Y490444D01*
X165503Y488439D01*
X166292Y486534D01*
X167369Y484776D01*
X168708Y483208D01*
X170276Y481869D01*
X172034Y480792D01*
X173939Y480003D01*
X175944Y479521D01*
X178000Y479359D01*
X180056Y479521D01*
X182061Y480003D01*
X183966Y480792D01*
X185724Y481869D01*
X187292Y483208D01*
X188631Y484776D01*
X189708Y486534D01*
X190497Y488439D01*
X190979Y490444D01*
X191140Y492500D01*
X190979Y494556D01*
X190497Y496561D01*
X189708Y498466D01*
X188631Y500224D01*
X187292Y501792D01*
X185724Y503131D01*
X183966Y504208D01*
X182061Y504997D01*
X180056Y505479D01*
X178000Y505641D01*
D02*
G37*
G36*
X28000D02*
X25944Y505479D01*
X23939Y504997D01*
X22034Y504208D01*
X20276Y503131D01*
X18708Y501792D01*
X17369Y500224D01*
X16292Y498466D01*
X15503Y496561D01*
X15021Y494556D01*
X14860Y492500D01*
X15021Y490444D01*
X15503Y488439D01*
X16292Y486534D01*
X17369Y484776D01*
X18708Y483208D01*
X20276Y481869D01*
X22034Y480792D01*
X23939Y480003D01*
X25944Y479521D01*
X28000Y479359D01*
X30056Y479521D01*
X32061Y480003D01*
X33966Y480792D01*
X35724Y481869D01*
X37292Y483208D01*
X38631Y484776D01*
X39708Y486534D01*
X40497Y488439D01*
X40979Y490444D01*
X41140Y492500D01*
X40979Y494556D01*
X40497Y496561D01*
X39708Y498466D01*
X38631Y500224D01*
X37292Y501792D01*
X35724Y503131D01*
X33966Y504208D01*
X32061Y504997D01*
X30056Y505479D01*
X28000Y505641D01*
D02*
G37*
G36*
X197500Y476520D02*
X192500D01*
X192110Y476442D01*
X191779Y476221D01*
X191558Y475890D01*
X191480Y475500D01*
Y473000D01*
X197500D01*
Y476520D01*
D02*
G37*
G36*
Y472000D02*
X191480D01*
Y469500D01*
X191558Y469110D01*
X191779Y468779D01*
X192110Y468558D01*
X192500Y468480D01*
X197500D01*
Y472000D01*
D02*
G37*
G36*
X10500Y466535D02*
X8500D01*
Y463000D01*
X14469D01*
X14397Y463544D01*
X13994Y464517D01*
X13353Y465353D01*
X12517Y465994D01*
X11544Y466397D01*
X10500Y466535D01*
D02*
G37*
G36*
X14469Y462000D02*
X8500D01*
Y458465D01*
X10500D01*
X11544Y458603D01*
X12517Y459006D01*
X13353Y459647D01*
X13994Y460483D01*
X14397Y461456D01*
X14469Y462000D01*
D02*
G37*
G36*
X197500Y446534D02*
X195500D01*
X194456Y446397D01*
X193483Y445994D01*
X192647Y445353D01*
X192006Y444517D01*
X191603Y443544D01*
X191531Y443000D01*
X197500D01*
Y446534D01*
D02*
G37*
G36*
X10500D02*
X8500D01*
Y443000D01*
X14469D01*
X14397Y443544D01*
X13994Y444517D01*
X13353Y445353D01*
X12517Y445994D01*
X11544Y446397D01*
X10500Y446534D01*
D02*
G37*
G36*
X93000Y440886D02*
X92278Y440743D01*
X91666Y440334D01*
X91524Y440122D01*
X84976D01*
X84834Y440334D01*
X84222Y440743D01*
X83500Y440886D01*
X82778Y440743D01*
X82166Y440334D01*
X81757Y439722D01*
X81614Y439000D01*
X81757Y438278D01*
X82166Y437666D01*
X82778Y437257D01*
X83500Y437114D01*
X84222Y437257D01*
X84834Y437666D01*
X84976Y437878D01*
X91524D01*
X91666Y437666D01*
X92278Y437257D01*
X93000Y437114D01*
X93722Y437257D01*
X94334Y437666D01*
X94743Y438278D01*
X94886Y439000D01*
X94743Y439722D01*
X94334Y440334D01*
X93722Y440743D01*
X93000Y440886D01*
D02*
G37*
G36*
X197500Y442000D02*
X191531D01*
X191603Y441456D01*
X192006Y440483D01*
X192647Y439647D01*
X193483Y439006D01*
X194456Y438603D01*
X195500Y438465D01*
X197500D01*
Y442000D01*
D02*
G37*
G36*
X14469D02*
X8500D01*
Y438465D01*
X10500D01*
X11544Y438603D01*
X12517Y439006D01*
X13353Y439647D01*
X13994Y440483D01*
X14397Y441456D01*
X14469Y442000D01*
D02*
G37*
G36*
X41000Y427386D02*
X40278Y427243D01*
X39666Y426834D01*
X39257Y426222D01*
X39114Y425500D01*
X39187Y425129D01*
X36529Y422471D01*
X36308Y422140D01*
X36230Y421750D01*
Y419433D01*
X35789Y419198D01*
X35722Y419243D01*
X35000Y419386D01*
X34278Y419243D01*
X33666Y418834D01*
X33551Y418661D01*
X32949D01*
X32834Y418834D01*
X32222Y419243D01*
X31500Y419386D01*
X30778Y419243D01*
X30166Y418834D01*
X29769Y418239D01*
X29690Y418227D01*
X29255Y418260D01*
X29243Y418322D01*
X28834Y418934D01*
X28222Y419343D01*
X27500Y419486D01*
X26778Y419343D01*
X26166Y418934D01*
X25757Y418322D01*
X25614Y417600D01*
X25757Y416878D01*
X26166Y416266D01*
X26778Y415857D01*
X27480Y415718D01*
Y407044D01*
X27166Y406834D01*
X26757Y406222D01*
X26614Y405500D01*
X26757Y404778D01*
X27166Y404166D01*
X27778Y403757D01*
X28500Y403614D01*
X29222Y403757D01*
X29834Y404166D01*
X30243Y404778D01*
X30281Y404973D01*
X30658Y405129D01*
X30823Y405132D01*
X31500Y404998D01*
X32222Y405141D01*
X32289Y405187D01*
X32730Y404951D01*
Y404211D01*
X32166Y403834D01*
X31757Y403222D01*
X31614Y402500D01*
X31757Y401778D01*
X32166Y401166D01*
X32778Y400757D01*
X33500Y400614D01*
X34222Y400757D01*
X34834Y401166D01*
X35243Y401778D01*
X35386Y402500D01*
X35243Y403222D01*
X35217Y403260D01*
X35518Y403710D01*
X36000Y403614D01*
X36722Y403757D01*
X37334Y404166D01*
X37743Y404778D01*
X37886Y405500D01*
X37813Y405871D01*
X37971Y406029D01*
X38192Y406360D01*
X38270Y406750D01*
Y421328D01*
X40629Y423688D01*
X41000Y423614D01*
X41722Y423757D01*
X42334Y424166D01*
X42743Y424778D01*
X42886Y425500D01*
X42743Y426222D01*
X42334Y426834D01*
X41722Y427243D01*
X41000Y427386D01*
D02*
G37*
G36*
X10500Y426535D02*
X8500D01*
Y423000D01*
X14469D01*
X14397Y423544D01*
X13994Y424517D01*
X13353Y425353D01*
X12517Y425994D01*
X11544Y426397D01*
X10500Y426535D01*
D02*
G37*
G36*
X14469Y422000D02*
X8500D01*
Y418466D01*
X10500D01*
X11544Y418603D01*
X12517Y419006D01*
X13353Y419647D01*
X13994Y420483D01*
X14397Y421456D01*
X14469Y422000D01*
D02*
G37*
G36*
X197500Y416535D02*
X195500D01*
X194456Y416397D01*
X193483Y415994D01*
X192647Y415353D01*
X192006Y414517D01*
X191603Y413544D01*
X191531Y413000D01*
X197500D01*
Y416535D01*
D02*
G37*
G36*
X90500Y413386D02*
X89778Y413243D01*
X89166Y412834D01*
X88757Y412222D01*
X88614Y411500D01*
X88757Y410778D01*
X89166Y410166D01*
X89778Y409757D01*
X90500Y409614D01*
X91222Y409757D01*
X91403Y409878D01*
X109024D01*
X109166Y409666D01*
X109778Y409257D01*
X110500Y409114D01*
X111222Y409257D01*
X111834Y409666D01*
X112243Y410278D01*
X112386Y411000D01*
X112243Y411722D01*
X111834Y412334D01*
X111222Y412743D01*
X110500Y412886D01*
X109778Y412743D01*
X109166Y412334D01*
X109024Y412122D01*
X92263D01*
X92243Y412222D01*
X91834Y412834D01*
X91222Y413243D01*
X90500Y413386D01*
D02*
G37*
G36*
X197500Y412000D02*
X191531D01*
X191603Y411456D01*
X192006Y410483D01*
X192647Y409647D01*
X193483Y409006D01*
X194456Y408603D01*
X195500Y408465D01*
X197500D01*
Y412000D01*
D02*
G37*
G36*
Y396534D02*
X195500D01*
X194456Y396397D01*
X193483Y395994D01*
X192647Y395353D01*
X192006Y394517D01*
X191603Y393544D01*
X191531Y393000D01*
X197500D01*
Y396534D01*
D02*
G37*
G36*
X148000Y391886D02*
X147278Y391743D01*
X146666Y391334D01*
X146524Y391122D01*
X139476D01*
X139334Y391334D01*
X138722Y391743D01*
X138000Y391886D01*
X137278Y391743D01*
X136666Y391334D01*
X136257Y390722D01*
X136114Y390000D01*
X136257Y389278D01*
X136666Y388666D01*
X137278Y388257D01*
X138000Y388114D01*
X138722Y388257D01*
X139334Y388666D01*
X139476Y388878D01*
X146524D01*
X146666Y388666D01*
X147278Y388257D01*
X148000Y388114D01*
X148722Y388257D01*
X149334Y388666D01*
X149743Y389278D01*
X149886Y390000D01*
X149743Y390722D01*
X149334Y391334D01*
X148722Y391743D01*
X148000Y391886D01*
D02*
G37*
G36*
X197500Y392000D02*
X191531D01*
X191603Y391456D01*
X192006Y390483D01*
X192647Y389647D01*
X193483Y389006D01*
X194456Y388603D01*
X195500Y388465D01*
X197500D01*
Y392000D01*
D02*
G37*
G36*
Y386535D02*
X195500D01*
X194456Y386397D01*
X193483Y385994D01*
X192647Y385353D01*
X192006Y384517D01*
X191603Y383544D01*
X191531Y383000D01*
X197500D01*
Y386535D01*
D02*
G37*
G36*
Y382000D02*
X191531D01*
X191603Y381456D01*
X192006Y380483D01*
X192647Y379647D01*
X193483Y379006D01*
X194456Y378603D01*
X195500Y378466D01*
X197500D01*
Y382000D01*
D02*
G37*
G36*
X101000Y401886D02*
X100278Y401743D01*
X99666Y401334D01*
X99257Y400722D01*
X99114Y400000D01*
X99257Y399278D01*
X99666Y398666D01*
X99878Y398524D01*
Y380476D01*
X99666Y380334D01*
X99257Y379722D01*
X99114Y379000D01*
X99257Y378278D01*
X99666Y377666D01*
X100278Y377257D01*
X101000Y377114D01*
X101722Y377257D01*
X102334Y377666D01*
X102743Y378278D01*
X102886Y379000D01*
X102743Y379722D01*
X102334Y380334D01*
X102122Y380476D01*
Y398524D01*
X102334Y398666D01*
X102743Y399278D01*
X102886Y400000D01*
X102743Y400722D01*
X102334Y401334D01*
X101722Y401743D01*
X101000Y401886D01*
D02*
G37*
G36*
X42000Y374386D02*
X41278Y374243D01*
X40666Y373834D01*
X40524Y373622D01*
X28976D01*
X28834Y373834D01*
X28222Y374243D01*
X27500Y374386D01*
X26778Y374243D01*
X26166Y373834D01*
X25757Y373222D01*
X25614Y372500D01*
X25757Y371778D01*
X26166Y371166D01*
X26778Y370757D01*
X27500Y370614D01*
X28222Y370757D01*
X28834Y371166D01*
X28976Y371378D01*
X40524D01*
X40666Y371166D01*
X41278Y370757D01*
X42000Y370614D01*
X42722Y370757D01*
X43334Y371166D01*
X43743Y371778D01*
X43886Y372500D01*
X43743Y373222D01*
X43334Y373834D01*
X42722Y374243D01*
X42000Y374386D01*
D02*
G37*
G36*
X86000D02*
X85278Y374243D01*
X84666Y373834D01*
X84257Y373222D01*
X84114Y372500D01*
X84257Y371778D01*
X84666Y371166D01*
X85278Y370757D01*
X86000Y370614D01*
X86722Y370757D01*
X87334Y371166D01*
X87476Y371378D01*
X108194D01*
X108614Y371000D01*
X108757Y370278D01*
X109166Y369666D01*
X109778Y369257D01*
X110500Y369114D01*
X111222Y369257D01*
X111834Y369666D01*
X112243Y370278D01*
X112386Y371000D01*
X112243Y371722D01*
X111834Y372334D01*
X111222Y372743D01*
X110500Y372886D01*
X110250Y372836D01*
X109793Y373293D01*
X109429Y373536D01*
X109000Y373622D01*
X109000Y373622D01*
X87476D01*
X87334Y373834D01*
X86722Y374243D01*
X86000Y374386D01*
D02*
G37*
G36*
X10500Y336535D02*
X8500D01*
Y333000D01*
X14469D01*
X14397Y333544D01*
X13994Y334517D01*
X13353Y335353D01*
X12517Y335994D01*
X11544Y336397D01*
X10500Y336535D01*
D02*
G37*
G36*
X14469Y332000D02*
X8500D01*
Y328466D01*
X10500D01*
X11544Y328603D01*
X12517Y329006D01*
X13353Y329647D01*
X13994Y330483D01*
X14397Y331456D01*
X14469Y332000D01*
D02*
G37*
G36*
X197500Y326535D02*
X195500D01*
X194456Y326397D01*
X193483Y325994D01*
X192647Y325353D01*
X192006Y324517D01*
X191603Y323544D01*
X191531Y323000D01*
X197500D01*
Y326535D01*
D02*
G37*
G36*
X10500D02*
X8500D01*
Y323000D01*
X14469D01*
X14397Y323544D01*
X13994Y324517D01*
X13353Y325353D01*
X12517Y325994D01*
X11544Y326397D01*
X10500Y326535D01*
D02*
G37*
G36*
X91500Y333886D02*
X90778Y333743D01*
X90166Y333334D01*
X89757Y332722D01*
X89614Y332000D01*
X89757Y331278D01*
X90166Y330666D01*
X90778Y330257D01*
X90806Y330252D01*
X98687Y322371D01*
X98614Y322000D01*
X98757Y321278D01*
X99166Y320666D01*
X99778Y320257D01*
X100500Y320114D01*
X101222Y320257D01*
X101834Y320666D01*
X102243Y321278D01*
X102386Y322000D01*
X102243Y322722D01*
X101834Y323334D01*
X101222Y323743D01*
X100500Y323886D01*
X100129Y323813D01*
X93011Y330931D01*
X93243Y331278D01*
X93386Y332000D01*
X93243Y332722D01*
X92834Y333334D01*
X92222Y333743D01*
X91500Y333886D01*
D02*
G37*
G36*
X197500Y322000D02*
X191531D01*
X191603Y321456D01*
X192006Y320483D01*
X192647Y319647D01*
X193483Y319006D01*
X194456Y318603D01*
X195500Y318465D01*
X197500D01*
Y322000D01*
D02*
G37*
G36*
X14469D02*
X8500D01*
Y318465D01*
X10500D01*
X11544Y318603D01*
X12517Y319006D01*
X13353Y319647D01*
X13994Y320483D01*
X14397Y321456D01*
X14469Y322000D01*
D02*
G37*
G36*
X92500Y326886D02*
X91778Y326743D01*
X91166Y326334D01*
X90757Y325722D01*
X90614Y325000D01*
X90757Y324278D01*
X91166Y323666D01*
X91480Y323456D01*
Y321500D01*
X91558Y321110D01*
X91779Y320779D01*
X94187Y318371D01*
X94114Y318000D01*
X94257Y317278D01*
X94666Y316666D01*
X95278Y316257D01*
X96000Y316114D01*
X96722Y316257D01*
X97334Y316666D01*
X97743Y317278D01*
X97886Y318000D01*
X97743Y318722D01*
X97334Y319334D01*
X96722Y319743D01*
X96000Y319886D01*
X95629Y319812D01*
X93520Y321922D01*
Y323456D01*
X93834Y323666D01*
X94243Y324278D01*
X94386Y325000D01*
X94243Y325722D01*
X93834Y326334D01*
X93222Y326743D01*
X92500Y326886D01*
D02*
G37*
G36*
X197500Y316534D02*
X195500D01*
X194456Y316397D01*
X193483Y315994D01*
X192647Y315353D01*
X192006Y314517D01*
X191603Y313544D01*
X191531Y313000D01*
X197500D01*
Y316534D01*
D02*
G37*
G36*
Y312000D02*
X191531D01*
X191603Y311456D01*
X192006Y310483D01*
X192647Y309647D01*
X193483Y309006D01*
X194456Y308603D01*
X195500Y308466D01*
X197500D01*
Y312000D01*
D02*
G37*
G36*
X173000Y314886D02*
X172278Y314743D01*
X171666Y314334D01*
X171257Y313722D01*
X171114Y313000D01*
Y312281D01*
X165666Y306834D01*
X165257Y306222D01*
X165114Y305500D01*
X165257Y304778D01*
X165666Y304166D01*
X166278Y303757D01*
X167000Y303614D01*
X167722Y303757D01*
X168334Y304166D01*
X174334Y310166D01*
X174743Y310778D01*
X174886Y311500D01*
Y313000D01*
X174743Y313722D01*
X174334Y314334D01*
X173722Y314743D01*
X173000Y314886D01*
D02*
G37*
G36*
X78000Y310886D02*
X77278Y310743D01*
X76666Y310334D01*
X76257Y309722D01*
X76114Y309000D01*
X76257Y308278D01*
X76666Y307666D01*
X76878Y307524D01*
Y296476D01*
X76666Y296334D01*
X76257Y295722D01*
X76114Y295000D01*
X76257Y294278D01*
X76666Y293666D01*
X77278Y293257D01*
X78000Y293114D01*
X78722Y293257D01*
X79334Y293666D01*
X79743Y294278D01*
X79886Y295000D01*
X79743Y295722D01*
X79334Y296334D01*
X79122Y296476D01*
Y307524D01*
X79334Y307666D01*
X79743Y308278D01*
X79886Y309000D01*
X79743Y309722D01*
X79334Y310334D01*
X78722Y310743D01*
X78000Y310886D01*
D02*
G37*
G36*
X98000Y305641D02*
X95944Y305479D01*
X93939Y304997D01*
X92034Y304208D01*
X90276Y303131D01*
X88708Y301792D01*
X87369Y300224D01*
X86292Y298466D01*
X85503Y296561D01*
X85021Y294556D01*
X84860Y292500D01*
X85021Y290444D01*
X85503Y288439D01*
X86292Y286534D01*
X87369Y284776D01*
X88708Y283208D01*
X90276Y281869D01*
X92034Y280792D01*
X93939Y280003D01*
X95944Y279521D01*
X98000Y279360D01*
X100056Y279521D01*
X102061Y280003D01*
X103966Y280792D01*
X105724Y281869D01*
X107292Y283208D01*
X108631Y284776D01*
X109708Y286534D01*
X110497Y288439D01*
X110979Y290444D01*
X111141Y292500D01*
X110979Y294556D01*
X110497Y296561D01*
X109708Y298466D01*
X108631Y300224D01*
X107292Y301792D01*
X105724Y303131D01*
X103966Y304208D01*
X102061Y304997D01*
X100056Y305479D01*
X98000Y305641D01*
D02*
G37*
G36*
X58500Y288886D02*
X55000D01*
X54278Y288743D01*
X53666Y288334D01*
X53257Y287722D01*
X53114Y287000D01*
X53257Y286278D01*
X53666Y285666D01*
X54278Y285257D01*
X55000Y285114D01*
X57719D01*
X63166Y279666D01*
X63778Y279257D01*
X64500Y279114D01*
X65222Y279257D01*
X65834Y279666D01*
X66243Y280278D01*
X66386Y281000D01*
X66243Y281722D01*
X65834Y282334D01*
X59834Y288334D01*
X59222Y288743D01*
X58500Y288886D01*
D02*
G37*
G36*
X80500Y279386D02*
X75000D01*
X74278Y279243D01*
X73666Y278834D01*
X73257Y278222D01*
X73114Y277500D01*
X73257Y276778D01*
X73666Y276166D01*
X74278Y275757D01*
X75000Y275614D01*
X80500D01*
X81222Y275757D01*
X81834Y276166D01*
X82243Y276778D01*
X82386Y277500D01*
X82243Y278222D01*
X81834Y278834D01*
X81222Y279243D01*
X80500Y279386D01*
D02*
G37*
G36*
X138000D02*
X118500D01*
X117778Y279243D01*
X117166Y278834D01*
X116757Y278222D01*
X116614Y277500D01*
X116757Y276778D01*
X117166Y276166D01*
X117778Y275757D01*
X118500Y275614D01*
X137245D01*
X137778Y275257D01*
X138500Y275114D01*
X139222Y275257D01*
X139834Y275666D01*
X140243Y276278D01*
X140386Y277000D01*
X140243Y277722D01*
X139834Y278334D01*
X139334Y278834D01*
X138722Y279243D01*
X138000Y279386D01*
D02*
G37*
G36*
X98500Y268969D02*
Y263000D01*
X102034D01*
Y265000D01*
X101897Y266044D01*
X101494Y267017D01*
X100853Y267853D01*
X100017Y268494D01*
X99044Y268897D01*
X98500Y268969D01*
D02*
G37*
G36*
X88500D02*
Y263000D01*
X92035D01*
Y265000D01*
X91897Y266044D01*
X91494Y267017D01*
X90853Y267853D01*
X90017Y268494D01*
X89044Y268897D01*
X88500Y268969D01*
D02*
G37*
G36*
X11000Y269020D02*
X8500D01*
Y263000D01*
X12020D01*
Y268000D01*
X11942Y268390D01*
X11721Y268721D01*
X11390Y268942D01*
X11000Y269020D01*
D02*
G37*
G36*
X7500D02*
X5000D01*
X4610Y268942D01*
X4279Y268721D01*
X4058Y268390D01*
X3980Y268000D01*
Y263000D01*
X7500D01*
Y269020D01*
D02*
G37*
G36*
X97500Y268969D02*
X96956Y268897D01*
X95983Y268494D01*
X95147Y267853D01*
X94506Y267017D01*
X94103Y266044D01*
X93966Y265000D01*
Y263000D01*
X97500D01*
Y268969D01*
D02*
G37*
G36*
X87500D02*
X86956Y268897D01*
X85983Y268494D01*
X85147Y267853D01*
X84506Y267017D01*
X84103Y266044D01*
X83965Y265000D01*
Y263000D01*
X87500D01*
Y268969D01*
D02*
G37*
G36*
X384000Y251140D02*
X381944Y250979D01*
X379939Y250497D01*
X378034Y249708D01*
X376276Y248631D01*
X374708Y247292D01*
X373369Y245724D01*
X372292Y243966D01*
X371503Y242061D01*
X371021Y240056D01*
X370860Y238000D01*
X371021Y235944D01*
X371503Y233939D01*
X372292Y232034D01*
X373369Y230276D01*
X374708Y228708D01*
X376276Y227369D01*
X378034Y226292D01*
X379939Y225503D01*
X381944Y225021D01*
X384000Y224859D01*
X386056Y225021D01*
X388061Y225503D01*
X389966Y226292D01*
X391724Y227369D01*
X393292Y228708D01*
X394631Y230276D01*
X395708Y232034D01*
X396497Y233939D01*
X396979Y235944D01*
X397141Y238000D01*
X396979Y240056D01*
X396497Y242061D01*
X395708Y243966D01*
X394631Y245724D01*
X393292Y247292D01*
X391724Y248631D01*
X389966Y249708D01*
X388061Y250497D01*
X386056Y250979D01*
X384000Y251140D01*
D02*
G37*
G36*
X234000D02*
X231944Y250979D01*
X229939Y250497D01*
X228034Y249708D01*
X226276Y248631D01*
X224708Y247292D01*
X223369Y245724D01*
X222292Y243966D01*
X221503Y242061D01*
X221021Y240056D01*
X220860Y238000D01*
X221021Y235944D01*
X221503Y233939D01*
X222292Y232034D01*
X223369Y230276D01*
X224708Y228708D01*
X226276Y227369D01*
X228034Y226292D01*
X229939Y225503D01*
X231944Y225021D01*
X234000Y224859D01*
X236056Y225021D01*
X238061Y225503D01*
X239966Y226292D01*
X241724Y227369D01*
X243292Y228708D01*
X244631Y230276D01*
X245708Y232034D01*
X246497Y233939D01*
X246979Y235944D01*
X247141Y238000D01*
X246979Y240056D01*
X246497Y242061D01*
X245708Y243966D01*
X244631Y245724D01*
X243292Y247292D01*
X241724Y248631D01*
X239966Y249708D01*
X238061Y250497D01*
X236056Y250979D01*
X234000Y251140D01*
D02*
G37*
G36*
X403500Y222020D02*
X398500D01*
X398110Y221942D01*
X397779Y221721D01*
X397558Y221390D01*
X397480Y221000D01*
Y218500D01*
X403500D01*
Y222020D01*
D02*
G37*
G36*
Y217500D02*
X397480D01*
Y215000D01*
X397558Y214610D01*
X397779Y214279D01*
X398110Y214058D01*
X398500Y213980D01*
X403500D01*
Y217500D01*
D02*
G37*
G36*
X216500Y212035D02*
X214500D01*
Y208500D01*
X220469D01*
X220397Y209044D01*
X219994Y210017D01*
X219353Y210853D01*
X218517Y211494D01*
X217544Y211897D01*
X216500Y212035D01*
D02*
G37*
G36*
X220469Y207500D02*
X214500D01*
Y203965D01*
X216500D01*
X217544Y204103D01*
X218517Y204506D01*
X219353Y205147D01*
X219994Y205983D01*
X220397Y206956D01*
X220469Y207500D01*
D02*
G37*
G36*
X403500Y192034D02*
X401500D01*
X400456Y191897D01*
X399483Y191494D01*
X398647Y190853D01*
X398006Y190017D01*
X397603Y189044D01*
X397531Y188500D01*
X403500D01*
Y192034D01*
D02*
G37*
G36*
X216500D02*
X214500D01*
Y188500D01*
X220469D01*
X220397Y189044D01*
X219994Y190017D01*
X219353Y190853D01*
X218517Y191494D01*
X217544Y191897D01*
X216500Y192034D01*
D02*
G37*
G36*
X299000Y186386D02*
X298278Y186243D01*
X297666Y185834D01*
X297524Y185622D01*
X290976D01*
X290834Y185834D01*
X290222Y186243D01*
X289500Y186386D01*
X288778Y186243D01*
X288166Y185834D01*
X287757Y185222D01*
X287614Y184500D01*
X287757Y183778D01*
X288166Y183166D01*
X288778Y182757D01*
X289500Y182614D01*
X290222Y182757D01*
X290834Y183166D01*
X290976Y183378D01*
X297524D01*
X297666Y183166D01*
X298278Y182757D01*
X299000Y182614D01*
X299722Y182757D01*
X300334Y183166D01*
X300743Y183778D01*
X300886Y184500D01*
X300743Y185222D01*
X300334Y185834D01*
X299722Y186243D01*
X299000Y186386D01*
D02*
G37*
G36*
X403500Y187500D02*
X397531D01*
X397603Y186956D01*
X398006Y185983D01*
X398647Y185147D01*
X399483Y184506D01*
X400456Y184103D01*
X401500Y183966D01*
X403500D01*
Y187500D01*
D02*
G37*
G36*
X220469D02*
X214500D01*
Y183966D01*
X216500D01*
X217544Y184103D01*
X218517Y184506D01*
X219353Y185147D01*
X219994Y185983D01*
X220397Y186956D01*
X220469Y187500D01*
D02*
G37*
G36*
X247000Y172886D02*
X246278Y172743D01*
X245666Y172334D01*
X245257Y171722D01*
X245114Y171000D01*
X245187Y170629D01*
X242529Y167971D01*
X242308Y167640D01*
X242230Y167250D01*
Y164933D01*
X241789Y164698D01*
X241722Y164743D01*
X241000Y164886D01*
X240278Y164743D01*
X239666Y164334D01*
X239551Y164161D01*
X238949D01*
X238834Y164334D01*
X238222Y164743D01*
X237500Y164886D01*
X236778Y164743D01*
X236166Y164334D01*
X235769Y163739D01*
X235690Y163727D01*
X235255Y163760D01*
X235243Y163822D01*
X234834Y164434D01*
X234222Y164843D01*
X233500Y164986D01*
X232778Y164843D01*
X232166Y164434D01*
X231757Y163822D01*
X231614Y163100D01*
X231757Y162378D01*
X232166Y161766D01*
X232778Y161357D01*
X233480Y161218D01*
Y152544D01*
X233166Y152334D01*
X232757Y151722D01*
X232614Y151000D01*
X232757Y150278D01*
X233166Y149666D01*
X233778Y149257D01*
X234500Y149114D01*
X235222Y149257D01*
X235834Y149666D01*
X236243Y150278D01*
X236281Y150473D01*
X236658Y150629D01*
X236823Y150633D01*
X237500Y150498D01*
X238222Y150641D01*
X238289Y150687D01*
X238730Y150451D01*
Y149711D01*
X238166Y149334D01*
X237757Y148722D01*
X237614Y148000D01*
X237757Y147278D01*
X238166Y146666D01*
X238778Y146257D01*
X239500Y146114D01*
X240222Y146257D01*
X240834Y146666D01*
X241243Y147278D01*
X241386Y148000D01*
X241243Y148722D01*
X241217Y148760D01*
X241518Y149210D01*
X242000Y149114D01*
X242722Y149257D01*
X243334Y149666D01*
X243743Y150278D01*
X243886Y151000D01*
X243812Y151371D01*
X243971Y151529D01*
X244192Y151860D01*
X244270Y152250D01*
Y166828D01*
X246629Y169187D01*
X247000Y169114D01*
X247722Y169257D01*
X248334Y169666D01*
X248743Y170278D01*
X248886Y171000D01*
X248743Y171722D01*
X248334Y172334D01*
X247722Y172743D01*
X247000Y172886D01*
D02*
G37*
G36*
X216500Y172035D02*
X214500D01*
Y168500D01*
X220469D01*
X220397Y169044D01*
X219994Y170017D01*
X219353Y170853D01*
X218517Y171494D01*
X217544Y171897D01*
X216500Y172035D01*
D02*
G37*
G36*
X220469Y167500D02*
X214500D01*
Y163965D01*
X216500D01*
X217544Y164103D01*
X218517Y164506D01*
X219353Y165147D01*
X219994Y165983D01*
X220397Y166956D01*
X220469Y167500D01*
D02*
G37*
G36*
X403500Y162034D02*
X401500D01*
X400456Y161897D01*
X399483Y161494D01*
X398647Y160853D01*
X398006Y160017D01*
X397603Y159044D01*
X397531Y158500D01*
X403500D01*
Y162034D01*
D02*
G37*
G36*
X296500Y158886D02*
X295778Y158743D01*
X295166Y158334D01*
X294757Y157722D01*
X294614Y157000D01*
X294757Y156278D01*
X295166Y155666D01*
X295778Y155257D01*
X296500Y155114D01*
X297222Y155257D01*
X297403Y155378D01*
X315024D01*
X315166Y155166D01*
X315778Y154757D01*
X316500Y154614D01*
X317222Y154757D01*
X317834Y155166D01*
X318243Y155778D01*
X318386Y156500D01*
X318243Y157222D01*
X317834Y157834D01*
X317222Y158243D01*
X316500Y158386D01*
X315778Y158243D01*
X315166Y157834D01*
X315024Y157622D01*
X298263D01*
X298243Y157722D01*
X297834Y158334D01*
X297222Y158743D01*
X296500Y158886D01*
D02*
G37*
G36*
X403500Y157500D02*
X397531D01*
X397603Y156956D01*
X398006Y155983D01*
X398647Y155147D01*
X399483Y154506D01*
X400456Y154103D01*
X401500Y153965D01*
X403500D01*
Y157500D01*
D02*
G37*
G36*
Y142034D02*
X401500D01*
X400456Y141897D01*
X399483Y141494D01*
X398647Y140853D01*
X398006Y140017D01*
X397603Y139044D01*
X397531Y138500D01*
X403500D01*
Y142034D01*
D02*
G37*
G36*
X354000Y137386D02*
X353278Y137243D01*
X352666Y136834D01*
X352524Y136622D01*
X345476D01*
X345334Y136834D01*
X344722Y137243D01*
X344000Y137386D01*
X343278Y137243D01*
X342666Y136834D01*
X342257Y136222D01*
X342114Y135500D01*
X342257Y134778D01*
X342666Y134166D01*
X343278Y133757D01*
X344000Y133614D01*
X344722Y133757D01*
X345334Y134166D01*
X345476Y134378D01*
X352524D01*
X352666Y134166D01*
X353278Y133757D01*
X354000Y133614D01*
X354722Y133757D01*
X355334Y134166D01*
X355743Y134778D01*
X355886Y135500D01*
X355743Y136222D01*
X355334Y136834D01*
X354722Y137243D01*
X354000Y137386D01*
D02*
G37*
G36*
X403500Y137500D02*
X397531D01*
X397603Y136956D01*
X398006Y135983D01*
X398647Y135147D01*
X399483Y134506D01*
X400456Y134103D01*
X401500Y133966D01*
X403500D01*
Y137500D01*
D02*
G37*
G36*
Y132035D02*
X401500D01*
X400456Y131897D01*
X399483Y131494D01*
X398647Y130853D01*
X398006Y130017D01*
X397603Y129044D01*
X397531Y128500D01*
X403500D01*
Y132035D01*
D02*
G37*
G36*
Y127500D02*
X397531D01*
X397603Y126956D01*
X398006Y125983D01*
X398647Y125147D01*
X399483Y124506D01*
X400456Y124103D01*
X401500Y123966D01*
X403500D01*
Y127500D01*
D02*
G37*
G36*
X307000Y147386D02*
X306278Y147243D01*
X305666Y146834D01*
X305257Y146222D01*
X305114Y145500D01*
X305257Y144778D01*
X305666Y144166D01*
X305878Y144024D01*
Y125976D01*
X305666Y125834D01*
X305257Y125222D01*
X305114Y124500D01*
X305257Y123778D01*
X305666Y123166D01*
X306278Y122757D01*
X307000Y122614D01*
X307722Y122757D01*
X308334Y123166D01*
X308743Y123778D01*
X308886Y124500D01*
X308743Y125222D01*
X308334Y125834D01*
X308121Y125976D01*
Y144024D01*
X308334Y144166D01*
X308743Y144778D01*
X308886Y145500D01*
X308743Y146222D01*
X308334Y146834D01*
X307722Y147243D01*
X307000Y147386D01*
D02*
G37*
G36*
X248000Y119886D02*
X247278Y119743D01*
X246666Y119334D01*
X246524Y119122D01*
X234976D01*
X234834Y119334D01*
X234222Y119743D01*
X233500Y119886D01*
X232778Y119743D01*
X232166Y119334D01*
X231757Y118722D01*
X231614Y118000D01*
X231757Y117278D01*
X232166Y116666D01*
X232778Y116257D01*
X233500Y116114D01*
X234222Y116257D01*
X234834Y116666D01*
X234976Y116878D01*
X246524D01*
X246666Y116666D01*
X247278Y116257D01*
X248000Y116114D01*
X248722Y116257D01*
X249334Y116666D01*
X249743Y117278D01*
X249886Y118000D01*
X249743Y118722D01*
X249334Y119334D01*
X248722Y119743D01*
X248000Y119886D01*
D02*
G37*
G36*
X292000D02*
X291278Y119743D01*
X290666Y119334D01*
X290257Y118722D01*
X290114Y118000D01*
X290257Y117278D01*
X290666Y116666D01*
X291278Y116257D01*
X292000Y116114D01*
X292722Y116257D01*
X293334Y116666D01*
X293476Y116878D01*
X314194D01*
X314614Y116500D01*
X314757Y115778D01*
X315166Y115166D01*
X315778Y114757D01*
X316500Y114614D01*
X317222Y114757D01*
X317834Y115166D01*
X318243Y115778D01*
X318386Y116500D01*
X318243Y117222D01*
X317834Y117834D01*
X317222Y118243D01*
X316500Y118386D01*
X316250Y118336D01*
X315793Y118793D01*
X315429Y119036D01*
X315000Y119122D01*
X315000Y119122D01*
X293476D01*
X293334Y119334D01*
X292722Y119743D01*
X292000Y119886D01*
D02*
G37*
G36*
X216500Y82034D02*
X214500D01*
Y78500D01*
X220469D01*
X220397Y79044D01*
X219994Y80017D01*
X219353Y80853D01*
X218517Y81494D01*
X217544Y81897D01*
X216500Y82034D01*
D02*
G37*
G36*
X220469Y77500D02*
X214500D01*
Y73966D01*
X216500D01*
X217544Y74103D01*
X218517Y74506D01*
X219353Y75147D01*
X219994Y75983D01*
X220397Y76956D01*
X220469Y77500D01*
D02*
G37*
G36*
X403500Y72035D02*
X401500D01*
X400456Y71897D01*
X399483Y71494D01*
X398647Y70853D01*
X398006Y70017D01*
X397603Y69044D01*
X397531Y68500D01*
X403500D01*
Y72035D01*
D02*
G37*
G36*
X216500D02*
X214500D01*
Y68500D01*
X220469D01*
X220397Y69044D01*
X219994Y70017D01*
X219353Y70853D01*
X218517Y71494D01*
X217544Y71897D01*
X216500Y72035D01*
D02*
G37*
G36*
X297500Y79386D02*
X296778Y79243D01*
X296166Y78834D01*
X295757Y78222D01*
X295614Y77500D01*
X295757Y76778D01*
X296166Y76166D01*
X296778Y75757D01*
X296806Y75752D01*
X304688Y67871D01*
X304614Y67500D01*
X304757Y66778D01*
X305166Y66166D01*
X305778Y65757D01*
X306500Y65614D01*
X307222Y65757D01*
X307834Y66166D01*
X308243Y66778D01*
X308386Y67500D01*
X308243Y68222D01*
X307834Y68834D01*
X307222Y69243D01*
X306500Y69386D01*
X306129Y69313D01*
X299011Y76431D01*
X299243Y76778D01*
X299386Y77500D01*
X299243Y78222D01*
X298834Y78834D01*
X298222Y79243D01*
X297500Y79386D01*
D02*
G37*
G36*
X403500Y67500D02*
X397531D01*
X397603Y66956D01*
X398006Y65983D01*
X398647Y65147D01*
X399483Y64506D01*
X400456Y64103D01*
X401500Y63965D01*
X403500D01*
Y67500D01*
D02*
G37*
G36*
X220469D02*
X214500D01*
Y63965D01*
X216500D01*
X217544Y64103D01*
X218517Y64506D01*
X219353Y65147D01*
X219994Y65983D01*
X220397Y66956D01*
X220469Y67500D01*
D02*
G37*
G36*
X298500Y72386D02*
X297778Y72243D01*
X297166Y71834D01*
X296757Y71222D01*
X296614Y70500D01*
X296757Y69778D01*
X297166Y69166D01*
X297480Y68956D01*
Y67000D01*
X297558Y66610D01*
X297779Y66279D01*
X300187Y63871D01*
X300114Y63500D01*
X300257Y62778D01*
X300666Y62166D01*
X301278Y61757D01*
X302000Y61614D01*
X302722Y61757D01*
X303334Y62166D01*
X303743Y62778D01*
X303886Y63500D01*
X303743Y64222D01*
X303334Y64834D01*
X302722Y65243D01*
X302000Y65386D01*
X301629Y65312D01*
X299520Y67422D01*
Y68956D01*
X299834Y69166D01*
X300243Y69778D01*
X300386Y70500D01*
X300243Y71222D01*
X299834Y71834D01*
X299222Y72243D01*
X298500Y72386D01*
D02*
G37*
G36*
X403500Y62034D02*
X401500D01*
X400456Y61897D01*
X399483Y61494D01*
X398647Y60853D01*
X398006Y60017D01*
X397603Y59044D01*
X397531Y58500D01*
X403500D01*
Y62034D01*
D02*
G37*
G36*
Y57500D02*
X397531D01*
X397603Y56956D01*
X398006Y55983D01*
X398647Y55147D01*
X399483Y54506D01*
X400456Y54103D01*
X401500Y53966D01*
X403500D01*
Y57500D01*
D02*
G37*
G36*
X379000Y60386D02*
X378278Y60243D01*
X377666Y59834D01*
X377257Y59222D01*
X377114Y58500D01*
Y57781D01*
X371666Y52334D01*
X371257Y51722D01*
X371114Y51000D01*
X371257Y50278D01*
X371666Y49666D01*
X372278Y49257D01*
X373000Y49114D01*
X373722Y49257D01*
X374334Y49666D01*
X380334Y55666D01*
X380743Y56278D01*
X380886Y57000D01*
Y58500D01*
X380743Y59222D01*
X380334Y59834D01*
X379722Y60243D01*
X379000Y60386D01*
D02*
G37*
G36*
X284000Y56386D02*
X283278Y56243D01*
X282666Y55834D01*
X282257Y55222D01*
X282114Y54500D01*
X282257Y53778D01*
X282666Y53166D01*
X282878Y53024D01*
Y41976D01*
X282666Y41834D01*
X282257Y41222D01*
X282114Y40500D01*
X282257Y39778D01*
X282666Y39166D01*
X283278Y38757D01*
X284000Y38614D01*
X284722Y38757D01*
X285334Y39166D01*
X285743Y39778D01*
X285886Y40500D01*
X285743Y41222D01*
X285334Y41834D01*
X285121Y41976D01*
Y53024D01*
X285334Y53166D01*
X285743Y53778D01*
X285886Y54500D01*
X285743Y55222D01*
X285334Y55834D01*
X284722Y56243D01*
X284000Y56386D01*
D02*
G37*
G36*
X304000Y51140D02*
X301944Y50979D01*
X299939Y50497D01*
X298034Y49708D01*
X296276Y48631D01*
X294708Y47292D01*
X293369Y45724D01*
X292292Y43966D01*
X291503Y42061D01*
X291021Y40056D01*
X290860Y38000D01*
X291021Y35944D01*
X291503Y33939D01*
X292292Y32034D01*
X293369Y30276D01*
X294708Y28708D01*
X296276Y27369D01*
X298034Y26292D01*
X299939Y25503D01*
X301944Y25021D01*
X304000Y24859D01*
X306056Y25021D01*
X308061Y25503D01*
X309966Y26292D01*
X311724Y27369D01*
X313292Y28708D01*
X314631Y30276D01*
X315708Y32034D01*
X316497Y33939D01*
X316979Y35944D01*
X317141Y38000D01*
X316979Y40056D01*
X316497Y42061D01*
X315708Y43966D01*
X314631Y45724D01*
X313292Y47292D01*
X311724Y48631D01*
X309966Y49708D01*
X308061Y50497D01*
X306056Y50979D01*
X304000Y51140D01*
D02*
G37*
G36*
X264500Y34386D02*
X261000D01*
X260278Y34243D01*
X259666Y33834D01*
X259257Y33222D01*
X259114Y32500D01*
X259257Y31778D01*
X259666Y31166D01*
X260278Y30757D01*
X261000Y30614D01*
X263719D01*
X269166Y25166D01*
X269778Y24757D01*
X270500Y24614D01*
X271222Y24757D01*
X271834Y25166D01*
X272243Y25778D01*
X272386Y26500D01*
X272243Y27222D01*
X271834Y27834D01*
X265834Y33834D01*
X265222Y34243D01*
X264500Y34386D01*
D02*
G37*
G36*
X286500Y24886D02*
X281000D01*
X280278Y24743D01*
X279666Y24334D01*
X279257Y23722D01*
X279114Y23000D01*
X279257Y22278D01*
X279666Y21666D01*
X280278Y21257D01*
X281000Y21114D01*
X286500D01*
X287222Y21257D01*
X287834Y21666D01*
X288243Y22278D01*
X288386Y23000D01*
X288243Y23722D01*
X287834Y24334D01*
X287222Y24743D01*
X286500Y24886D01*
D02*
G37*
G36*
X344000D02*
X324500D01*
X323778Y24743D01*
X323166Y24334D01*
X322757Y23722D01*
X322614Y23000D01*
X322757Y22278D01*
X323166Y21666D01*
X323778Y21257D01*
X324500Y21114D01*
X343245D01*
X343778Y20757D01*
X344500Y20614D01*
X345222Y20757D01*
X345834Y21166D01*
X346243Y21778D01*
X346386Y22500D01*
X346243Y23222D01*
X345834Y23834D01*
X345334Y24334D01*
X344722Y24743D01*
X344000Y24886D01*
D02*
G37*
G36*
X304500Y14469D02*
Y8500D01*
X308034D01*
Y10500D01*
X307897Y11544D01*
X307494Y12517D01*
X306853Y13353D01*
X306017Y13994D01*
X305044Y14397D01*
X304500Y14469D01*
D02*
G37*
G36*
X294500D02*
Y8500D01*
X298035D01*
Y10500D01*
X297897Y11544D01*
X297494Y12517D01*
X296853Y13353D01*
X296017Y13994D01*
X295044Y14397D01*
X294500Y14469D01*
D02*
G37*
G36*
X217000Y14520D02*
X214500D01*
Y8500D01*
X218020D01*
Y13500D01*
X217942Y13890D01*
X217721Y14221D01*
X217390Y14442D01*
X217000Y14520D01*
D02*
G37*
G36*
X213500D02*
X211000D01*
X210610Y14442D01*
X210279Y14221D01*
X210058Y13890D01*
X209980Y13500D01*
Y8500D01*
X213500D01*
Y14520D01*
D02*
G37*
G36*
X303500Y14469D02*
X302956Y14397D01*
X301983Y13994D01*
X301147Y13353D01*
X300506Y12517D01*
X300103Y11544D01*
X299966Y10500D01*
Y8500D01*
X303500D01*
Y14469D01*
D02*
G37*
G36*
X293500D02*
X292956Y14397D01*
X291983Y13994D01*
X291147Y13353D01*
X290506Y12517D01*
X290103Y11544D01*
X289966Y10500D01*
Y8500D01*
X293500D01*
Y14469D01*
D02*
G37*
G36*
X178000Y251140D02*
X175944Y250979D01*
X173939Y250497D01*
X172034Y249708D01*
X170276Y248631D01*
X168708Y247292D01*
X167369Y245724D01*
X166292Y243966D01*
X165503Y242061D01*
X165021Y240056D01*
X164859Y238000D01*
X165021Y235944D01*
X165503Y233939D01*
X166292Y232034D01*
X167369Y230276D01*
X168708Y228708D01*
X170276Y227369D01*
X172034Y226292D01*
X173939Y225503D01*
X175944Y225021D01*
X178000Y224859D01*
X180056Y225021D01*
X182061Y225503D01*
X183966Y226292D01*
X185724Y227369D01*
X187292Y228708D01*
X188631Y230276D01*
X189708Y232034D01*
X190497Y233939D01*
X190979Y235944D01*
X191140Y238000D01*
X190979Y240056D01*
X190497Y242061D01*
X189708Y243966D01*
X188631Y245724D01*
X187292Y247292D01*
X185724Y248631D01*
X183966Y249708D01*
X182061Y250497D01*
X180056Y250979D01*
X178000Y251140D01*
D02*
G37*
G36*
X28000D02*
X25944Y250979D01*
X23939Y250497D01*
X22034Y249708D01*
X20276Y248631D01*
X18708Y247292D01*
X17369Y245724D01*
X16292Y243966D01*
X15503Y242061D01*
X15021Y240056D01*
X14860Y238000D01*
X15021Y235944D01*
X15503Y233939D01*
X16292Y232034D01*
X17369Y230276D01*
X18708Y228708D01*
X20276Y227369D01*
X22034Y226292D01*
X23939Y225503D01*
X25944Y225021D01*
X28000Y224859D01*
X30056Y225021D01*
X32061Y225503D01*
X33966Y226292D01*
X35724Y227369D01*
X37292Y228708D01*
X38631Y230276D01*
X39708Y232034D01*
X40497Y233939D01*
X40979Y235944D01*
X41140Y238000D01*
X40979Y240056D01*
X40497Y242061D01*
X39708Y243966D01*
X38631Y245724D01*
X37292Y247292D01*
X35724Y248631D01*
X33966Y249708D01*
X32061Y250497D01*
X30056Y250979D01*
X28000Y251140D01*
D02*
G37*
G36*
X197500Y222020D02*
X192500D01*
X192110Y221942D01*
X191779Y221721D01*
X191558Y221390D01*
X191480Y221000D01*
Y218500D01*
X197500D01*
Y222020D01*
D02*
G37*
G36*
Y217500D02*
X191480D01*
Y215000D01*
X191558Y214610D01*
X191779Y214279D01*
X192110Y214058D01*
X192500Y213980D01*
X197500D01*
Y217500D01*
D02*
G37*
G36*
X10500Y212035D02*
X8500D01*
Y208500D01*
X14469D01*
X14397Y209044D01*
X13994Y210017D01*
X13353Y210853D01*
X12517Y211494D01*
X11544Y211897D01*
X10500Y212035D01*
D02*
G37*
G36*
X14469Y207500D02*
X8500D01*
Y203965D01*
X10500D01*
X11544Y204103D01*
X12517Y204506D01*
X13353Y205147D01*
X13994Y205983D01*
X14397Y206956D01*
X14469Y207500D01*
D02*
G37*
G36*
X197500Y192034D02*
X195500D01*
X194456Y191897D01*
X193483Y191494D01*
X192647Y190853D01*
X192006Y190017D01*
X191603Y189044D01*
X191531Y188500D01*
X197500D01*
Y192034D01*
D02*
G37*
G36*
X10500D02*
X8500D01*
Y188500D01*
X14469D01*
X14397Y189044D01*
X13994Y190017D01*
X13353Y190853D01*
X12517Y191494D01*
X11544Y191897D01*
X10500Y192034D01*
D02*
G37*
G36*
X93000Y186386D02*
X92278Y186243D01*
X91666Y185834D01*
X91524Y185622D01*
X84976D01*
X84834Y185834D01*
X84222Y186243D01*
X83500Y186386D01*
X82778Y186243D01*
X82166Y185834D01*
X81757Y185222D01*
X81614Y184500D01*
X81757Y183778D01*
X82166Y183166D01*
X82778Y182757D01*
X83500Y182614D01*
X84222Y182757D01*
X84834Y183166D01*
X84976Y183378D01*
X91524D01*
X91666Y183166D01*
X92278Y182757D01*
X93000Y182614D01*
X93722Y182757D01*
X94334Y183166D01*
X94743Y183778D01*
X94886Y184500D01*
X94743Y185222D01*
X94334Y185834D01*
X93722Y186243D01*
X93000Y186386D01*
D02*
G37*
G36*
X197500Y187500D02*
X191531D01*
X191603Y186956D01*
X192006Y185983D01*
X192647Y185147D01*
X193483Y184506D01*
X194456Y184103D01*
X195500Y183966D01*
X197500D01*
Y187500D01*
D02*
G37*
G36*
X14469D02*
X8500D01*
Y183966D01*
X10500D01*
X11544Y184103D01*
X12517Y184506D01*
X13353Y185147D01*
X13994Y185983D01*
X14397Y186956D01*
X14469Y187500D01*
D02*
G37*
G36*
X41000Y172886D02*
X40278Y172743D01*
X39666Y172334D01*
X39257Y171722D01*
X39114Y171000D01*
X39187Y170629D01*
X36529Y167971D01*
X36308Y167640D01*
X36230Y167250D01*
Y164933D01*
X35789Y164698D01*
X35722Y164743D01*
X35000Y164886D01*
X34278Y164743D01*
X33666Y164334D01*
X33551Y164161D01*
X32949D01*
X32834Y164334D01*
X32222Y164743D01*
X31500Y164886D01*
X30778Y164743D01*
X30166Y164334D01*
X29769Y163739D01*
X29690Y163727D01*
X29255Y163760D01*
X29243Y163822D01*
X28834Y164434D01*
X28222Y164843D01*
X27500Y164986D01*
X26778Y164843D01*
X26166Y164434D01*
X25757Y163822D01*
X25614Y163100D01*
X25757Y162378D01*
X26166Y161766D01*
X26778Y161357D01*
X27480Y161218D01*
Y152544D01*
X27166Y152334D01*
X26757Y151722D01*
X26614Y151000D01*
X26757Y150278D01*
X27166Y149666D01*
X27778Y149257D01*
X28500Y149114D01*
X29222Y149257D01*
X29834Y149666D01*
X30243Y150278D01*
X30281Y150473D01*
X30658Y150629D01*
X30823Y150633D01*
X31500Y150498D01*
X32222Y150641D01*
X32289Y150687D01*
X32730Y150451D01*
Y149711D01*
X32166Y149334D01*
X31757Y148722D01*
X31614Y148000D01*
X31757Y147278D01*
X32166Y146666D01*
X32778Y146257D01*
X33500Y146114D01*
X34222Y146257D01*
X34834Y146666D01*
X35243Y147278D01*
X35386Y148000D01*
X35243Y148722D01*
X35217Y148760D01*
X35518Y149210D01*
X36000Y149114D01*
X36722Y149257D01*
X37334Y149666D01*
X37743Y150278D01*
X37886Y151000D01*
X37813Y151371D01*
X37971Y151529D01*
X38192Y151860D01*
X38270Y152250D01*
Y166828D01*
X40629Y169187D01*
X41000Y169114D01*
X41722Y169257D01*
X42334Y169666D01*
X42743Y170278D01*
X42886Y171000D01*
X42743Y171722D01*
X42334Y172334D01*
X41722Y172743D01*
X41000Y172886D01*
D02*
G37*
G36*
X10500Y172035D02*
X8500D01*
Y168500D01*
X14469D01*
X14397Y169044D01*
X13994Y170017D01*
X13353Y170853D01*
X12517Y171494D01*
X11544Y171897D01*
X10500Y172035D01*
D02*
G37*
G36*
X14469Y167500D02*
X8500D01*
Y163965D01*
X10500D01*
X11544Y164103D01*
X12517Y164506D01*
X13353Y165147D01*
X13994Y165983D01*
X14397Y166956D01*
X14469Y167500D01*
D02*
G37*
G36*
X197500Y162034D02*
X195500D01*
X194456Y161897D01*
X193483Y161494D01*
X192647Y160853D01*
X192006Y160017D01*
X191603Y159044D01*
X191531Y158500D01*
X197500D01*
Y162034D01*
D02*
G37*
G36*
X90500Y158886D02*
X89778Y158743D01*
X89166Y158334D01*
X88757Y157722D01*
X88614Y157000D01*
X88757Y156278D01*
X89166Y155666D01*
X89778Y155257D01*
X90500Y155114D01*
X91222Y155257D01*
X91403Y155378D01*
X109024D01*
X109166Y155166D01*
X109778Y154757D01*
X110500Y154614D01*
X111222Y154757D01*
X111834Y155166D01*
X112243Y155778D01*
X112386Y156500D01*
X112243Y157222D01*
X111834Y157834D01*
X111222Y158243D01*
X110500Y158386D01*
X109778Y158243D01*
X109166Y157834D01*
X109024Y157622D01*
X92263D01*
X92243Y157722D01*
X91834Y158334D01*
X91222Y158743D01*
X90500Y158886D01*
D02*
G37*
G36*
X197500Y157500D02*
X191531D01*
X191603Y156956D01*
X192006Y155983D01*
X192647Y155147D01*
X193483Y154506D01*
X194456Y154103D01*
X195500Y153965D01*
X197500D01*
Y157500D01*
D02*
G37*
G36*
Y142034D02*
X195500D01*
X194456Y141897D01*
X193483Y141494D01*
X192647Y140853D01*
X192006Y140017D01*
X191603Y139044D01*
X191531Y138500D01*
X197500D01*
Y142034D01*
D02*
G37*
G36*
X148000Y137386D02*
X147278Y137243D01*
X146666Y136834D01*
X146524Y136622D01*
X139476D01*
X139334Y136834D01*
X138722Y137243D01*
X138000Y137386D01*
X137278Y137243D01*
X136666Y136834D01*
X136257Y136222D01*
X136114Y135500D01*
X136257Y134778D01*
X136666Y134166D01*
X137278Y133757D01*
X138000Y133614D01*
X138722Y133757D01*
X139334Y134166D01*
X139476Y134378D01*
X146524D01*
X146666Y134166D01*
X147278Y133757D01*
X148000Y133614D01*
X148722Y133757D01*
X149334Y134166D01*
X149743Y134778D01*
X149886Y135500D01*
X149743Y136222D01*
X149334Y136834D01*
X148722Y137243D01*
X148000Y137386D01*
D02*
G37*
G36*
X197500Y137500D02*
X191531D01*
X191603Y136956D01*
X192006Y135983D01*
X192647Y135147D01*
X193483Y134506D01*
X194456Y134103D01*
X195500Y133966D01*
X197500D01*
Y137500D01*
D02*
G37*
G36*
Y132035D02*
X195500D01*
X194456Y131897D01*
X193483Y131494D01*
X192647Y130853D01*
X192006Y130017D01*
X191603Y129044D01*
X191531Y128500D01*
X197500D01*
Y132035D01*
D02*
G37*
G36*
Y127500D02*
X191531D01*
X191603Y126956D01*
X192006Y125983D01*
X192647Y125147D01*
X193483Y124506D01*
X194456Y124103D01*
X195500Y123966D01*
X197500D01*
Y127500D01*
D02*
G37*
G36*
X101000Y147386D02*
X100278Y147243D01*
X99666Y146834D01*
X99257Y146222D01*
X99114Y145500D01*
X99257Y144778D01*
X99666Y144166D01*
X99878Y144024D01*
Y125976D01*
X99666Y125834D01*
X99257Y125222D01*
X99114Y124500D01*
X99257Y123778D01*
X99666Y123166D01*
X100278Y122757D01*
X101000Y122614D01*
X101722Y122757D01*
X102334Y123166D01*
X102743Y123778D01*
X102886Y124500D01*
X102743Y125222D01*
X102334Y125834D01*
X102122Y125976D01*
Y144024D01*
X102334Y144166D01*
X102743Y144778D01*
X102886Y145500D01*
X102743Y146222D01*
X102334Y146834D01*
X101722Y147243D01*
X101000Y147386D01*
D02*
G37*
G36*
X42000Y119886D02*
X41278Y119743D01*
X40666Y119334D01*
X40524Y119122D01*
X28976D01*
X28834Y119334D01*
X28222Y119743D01*
X27500Y119886D01*
X26778Y119743D01*
X26166Y119334D01*
X25757Y118722D01*
X25614Y118000D01*
X25757Y117278D01*
X26166Y116666D01*
X26778Y116257D01*
X27500Y116114D01*
X28222Y116257D01*
X28834Y116666D01*
X28976Y116878D01*
X40524D01*
X40666Y116666D01*
X41278Y116257D01*
X42000Y116114D01*
X42722Y116257D01*
X43334Y116666D01*
X43743Y117278D01*
X43886Y118000D01*
X43743Y118722D01*
X43334Y119334D01*
X42722Y119743D01*
X42000Y119886D01*
D02*
G37*
G36*
X86000D02*
X85278Y119743D01*
X84666Y119334D01*
X84257Y118722D01*
X84114Y118000D01*
X84257Y117278D01*
X84666Y116666D01*
X85278Y116257D01*
X86000Y116114D01*
X86722Y116257D01*
X87334Y116666D01*
X87476Y116878D01*
X108194D01*
X108614Y116500D01*
X108757Y115778D01*
X109166Y115166D01*
X109778Y114757D01*
X110500Y114614D01*
X111222Y114757D01*
X111834Y115166D01*
X112243Y115778D01*
X112386Y116500D01*
X112243Y117222D01*
X111834Y117834D01*
X111222Y118243D01*
X110500Y118386D01*
X110250Y118336D01*
X109793Y118793D01*
X109429Y119036D01*
X109000Y119122D01*
X109000Y119122D01*
X87476D01*
X87334Y119334D01*
X86722Y119743D01*
X86000Y119886D01*
D02*
G37*
G36*
X10500Y82034D02*
X8500D01*
Y78500D01*
X14469D01*
X14397Y79044D01*
X13994Y80017D01*
X13353Y80853D01*
X12517Y81494D01*
X11544Y81897D01*
X10500Y82034D01*
D02*
G37*
G36*
X14469Y77500D02*
X8500D01*
Y73966D01*
X10500D01*
X11544Y74103D01*
X12517Y74506D01*
X13353Y75147D01*
X13994Y75983D01*
X14397Y76956D01*
X14469Y77500D01*
D02*
G37*
G36*
X197500Y72035D02*
X195500D01*
X194456Y71897D01*
X193483Y71494D01*
X192647Y70853D01*
X192006Y70017D01*
X191603Y69044D01*
X191531Y68500D01*
X197500D01*
Y72035D01*
D02*
G37*
G36*
X10500D02*
X8500D01*
Y68500D01*
X14469D01*
X14397Y69044D01*
X13994Y70017D01*
X13353Y70853D01*
X12517Y71494D01*
X11544Y71897D01*
X10500Y72035D01*
D02*
G37*
G36*
X91500Y79386D02*
X90778Y79243D01*
X90166Y78834D01*
X89757Y78222D01*
X89614Y77500D01*
X89757Y76778D01*
X90166Y76166D01*
X90778Y75757D01*
X90806Y75752D01*
X98687Y67871D01*
X98614Y67500D01*
X98757Y66778D01*
X99166Y66166D01*
X99778Y65757D01*
X100500Y65614D01*
X101222Y65757D01*
X101834Y66166D01*
X102243Y66778D01*
X102386Y67500D01*
X102243Y68222D01*
X101834Y68834D01*
X101222Y69243D01*
X100500Y69386D01*
X100129Y69313D01*
X93011Y76431D01*
X93243Y76778D01*
X93386Y77500D01*
X93243Y78222D01*
X92834Y78834D01*
X92222Y79243D01*
X91500Y79386D01*
D02*
G37*
G36*
X197500Y67500D02*
X191531D01*
X191603Y66956D01*
X192006Y65983D01*
X192647Y65147D01*
X193483Y64506D01*
X194456Y64103D01*
X195500Y63965D01*
X197500D01*
Y67500D01*
D02*
G37*
G36*
X14469D02*
X8500D01*
Y63965D01*
X10500D01*
X11544Y64103D01*
X12517Y64506D01*
X13353Y65147D01*
X13994Y65983D01*
X14397Y66956D01*
X14469Y67500D01*
D02*
G37*
G36*
X92500Y72386D02*
X91778Y72243D01*
X91166Y71834D01*
X90757Y71222D01*
X90614Y70500D01*
X90757Y69778D01*
X91166Y69166D01*
X91480Y68956D01*
Y67000D01*
X91558Y66610D01*
X91779Y66279D01*
X94187Y63871D01*
X94114Y63500D01*
X94257Y62778D01*
X94666Y62166D01*
X95278Y61757D01*
X96000Y61614D01*
X96722Y61757D01*
X97334Y62166D01*
X97743Y62778D01*
X97886Y63500D01*
X97743Y64222D01*
X97334Y64834D01*
X96722Y65243D01*
X96000Y65386D01*
X95629Y65312D01*
X93520Y67422D01*
Y68956D01*
X93834Y69166D01*
X94243Y69778D01*
X94386Y70500D01*
X94243Y71222D01*
X93834Y71834D01*
X93222Y72243D01*
X92500Y72386D01*
D02*
G37*
G36*
X197500Y62034D02*
X195500D01*
X194456Y61897D01*
X193483Y61494D01*
X192647Y60853D01*
X192006Y60017D01*
X191603Y59044D01*
X191531Y58500D01*
X197500D01*
Y62034D01*
D02*
G37*
G36*
Y57500D02*
X191531D01*
X191603Y56956D01*
X192006Y55983D01*
X192647Y55147D01*
X193483Y54506D01*
X194456Y54103D01*
X195500Y53966D01*
X197500D01*
Y57500D01*
D02*
G37*
G36*
X173000Y60386D02*
X172278Y60243D01*
X171666Y59834D01*
X171257Y59222D01*
X171114Y58500D01*
Y57781D01*
X165666Y52334D01*
X165257Y51722D01*
X165114Y51000D01*
X165257Y50278D01*
X165666Y49666D01*
X166278Y49257D01*
X167000Y49114D01*
X167722Y49257D01*
X168334Y49666D01*
X174334Y55666D01*
X174743Y56278D01*
X174886Y57000D01*
Y58500D01*
X174743Y59222D01*
X174334Y59834D01*
X173722Y60243D01*
X173000Y60386D01*
D02*
G37*
G36*
X78000Y56386D02*
X77278Y56243D01*
X76666Y55834D01*
X76257Y55222D01*
X76114Y54500D01*
X76257Y53778D01*
X76666Y53166D01*
X76878Y53024D01*
Y41976D01*
X76666Y41834D01*
X76257Y41222D01*
X76114Y40500D01*
X76257Y39778D01*
X76666Y39166D01*
X77278Y38757D01*
X78000Y38614D01*
X78722Y38757D01*
X79334Y39166D01*
X79743Y39778D01*
X79886Y40500D01*
X79743Y41222D01*
X79334Y41834D01*
X79122Y41976D01*
Y53024D01*
X79334Y53166D01*
X79743Y53778D01*
X79886Y54500D01*
X79743Y55222D01*
X79334Y55834D01*
X78722Y56243D01*
X78000Y56386D01*
D02*
G37*
G36*
X98000Y51140D02*
X95944Y50979D01*
X93939Y50497D01*
X92034Y49708D01*
X90276Y48631D01*
X88708Y47292D01*
X87369Y45724D01*
X86292Y43966D01*
X85503Y42061D01*
X85021Y40056D01*
X84860Y38000D01*
X85021Y35944D01*
X85503Y33939D01*
X86292Y32034D01*
X87369Y30276D01*
X88708Y28708D01*
X90276Y27369D01*
X92034Y26292D01*
X93939Y25503D01*
X95944Y25021D01*
X98000Y24859D01*
X100056Y25021D01*
X102061Y25503D01*
X103966Y26292D01*
X105724Y27369D01*
X107292Y28708D01*
X108631Y30276D01*
X109708Y32034D01*
X110497Y33939D01*
X110979Y35944D01*
X111141Y38000D01*
X110979Y40056D01*
X110497Y42061D01*
X109708Y43966D01*
X108631Y45724D01*
X107292Y47292D01*
X105724Y48631D01*
X103966Y49708D01*
X102061Y50497D01*
X100056Y50979D01*
X98000Y51140D01*
D02*
G37*
G36*
X58500Y34386D02*
X55000D01*
X54278Y34243D01*
X53666Y33834D01*
X53257Y33222D01*
X53114Y32500D01*
X53257Y31778D01*
X53666Y31166D01*
X54278Y30757D01*
X55000Y30614D01*
X57719D01*
X63166Y25166D01*
X63778Y24757D01*
X64500Y24614D01*
X65222Y24757D01*
X65834Y25166D01*
X66243Y25778D01*
X66386Y26500D01*
X66243Y27222D01*
X65834Y27834D01*
X59834Y33834D01*
X59222Y34243D01*
X58500Y34386D01*
D02*
G37*
G36*
X80500Y24886D02*
X75000D01*
X74278Y24743D01*
X73666Y24334D01*
X73257Y23722D01*
X73114Y23000D01*
X73257Y22278D01*
X73666Y21666D01*
X74278Y21257D01*
X75000Y21114D01*
X80500D01*
X81222Y21257D01*
X81834Y21666D01*
X82243Y22278D01*
X82386Y23000D01*
X82243Y23722D01*
X81834Y24334D01*
X81222Y24743D01*
X80500Y24886D01*
D02*
G37*
G36*
X138000D02*
X118500D01*
X117778Y24743D01*
X117166Y24334D01*
X116757Y23722D01*
X116614Y23000D01*
X116757Y22278D01*
X117166Y21666D01*
X117778Y21257D01*
X118500Y21114D01*
X137245D01*
X137778Y20757D01*
X138500Y20614D01*
X139222Y20757D01*
X139834Y21166D01*
X140243Y21778D01*
X140386Y22500D01*
X140243Y23222D01*
X139834Y23834D01*
X139334Y24334D01*
X138722Y24743D01*
X138000Y24886D01*
D02*
G37*
G36*
X98500Y14469D02*
Y8500D01*
X102034D01*
Y10500D01*
X101897Y11544D01*
X101494Y12517D01*
X100853Y13353D01*
X100017Y13994D01*
X99044Y14397D01*
X98500Y14469D01*
D02*
G37*
G36*
X88500D02*
Y8500D01*
X92035D01*
Y10500D01*
X91897Y11544D01*
X91494Y12517D01*
X90853Y13353D01*
X90017Y13994D01*
X89044Y14397D01*
X88500Y14469D01*
D02*
G37*
G36*
X11000Y14520D02*
X8500D01*
Y8500D01*
X12020D01*
Y13500D01*
X11942Y13890D01*
X11721Y14221D01*
X11390Y14442D01*
X11000Y14520D01*
D02*
G37*
G36*
X7500D02*
X5000D01*
X4610Y14442D01*
X4279Y14221D01*
X4058Y13890D01*
X3980Y13500D01*
Y8500D01*
X7500D01*
Y14520D01*
D02*
G37*
G36*
X97500Y14469D02*
X96956Y14397D01*
X95983Y13994D01*
X95147Y13353D01*
X94506Y12517D01*
X94103Y11544D01*
X93966Y10500D01*
Y8500D01*
X97500D01*
Y14469D01*
D02*
G37*
G36*
X87500D02*
X86956Y14397D01*
X85983Y13994D01*
X85147Y13353D01*
X84506Y12517D01*
X84103Y11544D01*
X83965Y10500D01*
Y8500D01*
X87500D01*
Y14469D01*
D02*
G37*
%LPD*%
D17*
X48000Y8000D02*
Y33000D01*
X108000Y17500D02*
X117500Y27000D01*
X108000Y8000D02*
Y17500D01*
X78000Y40500D02*
Y54500D01*
X86000Y118000D02*
X109000D01*
X110500Y116500D01*
X138000Y135500D02*
X148000D01*
X27500Y118000D02*
X42000D01*
X90500Y157000D02*
X91000Y156500D01*
X110500D01*
X83500Y184500D02*
X93000D01*
X101000Y124500D02*
Y145500D01*
X117500Y27000D02*
Y60000D01*
X254000Y8000D02*
Y33000D01*
X314000Y17500D02*
X323500Y27000D01*
X314000Y8000D02*
Y17500D01*
X284000Y40500D02*
Y54500D01*
X292000Y118000D02*
X315000D01*
X316500Y116500D01*
X344000Y135500D02*
X354000D01*
X233500Y118000D02*
X248000D01*
X296500Y157000D02*
X297000Y156500D01*
X316500D01*
X289500Y184500D02*
X299000D01*
X307000Y124500D02*
Y145500D01*
X323500Y27000D02*
Y60000D01*
X48000Y262500D02*
Y287500D01*
X108000Y272000D02*
X117500Y281500D01*
X108000Y262500D02*
Y272000D01*
X78000Y295000D02*
Y309000D01*
X86000Y372500D02*
X109000D01*
X110500Y371000D01*
X138000Y390000D02*
X148000D01*
X27500Y372500D02*
X42000D01*
X90500Y411500D02*
X91000Y411000D01*
X110500D01*
X83500Y439000D02*
X93000D01*
X101000Y379000D02*
Y400000D01*
X117500Y281500D02*
Y314500D01*
X254000Y262500D02*
Y287500D01*
X314000Y272000D02*
X323500Y281500D01*
X314000Y262500D02*
Y272000D01*
X284000Y295000D02*
Y309000D01*
X292000Y372500D02*
X315000D01*
X316500Y371000D01*
X344000Y390000D02*
X354000D01*
X233500Y372500D02*
X248000D01*
X296500Y411500D02*
X297000Y411000D01*
X316500D01*
X289500Y439000D02*
X299000D01*
X307000Y379000D02*
Y400000D01*
X323500Y281500D02*
Y314500D01*
D19*
X173000Y57000D02*
Y58500D01*
X167000Y51000D02*
X173000Y57000D01*
X75000Y23000D02*
X80500D01*
X58500Y32500D02*
X64500Y26500D01*
X55000Y32500D02*
X58500D01*
X138000Y23000D02*
X138500Y22500D01*
X118500Y23000D02*
X138000D01*
X379000Y57000D02*
Y58500D01*
X373000Y51000D02*
X379000Y57000D01*
X281000Y23000D02*
X286500D01*
X264500Y32500D02*
X270500Y26500D01*
X261000Y32500D02*
X264500D01*
X344000Y23000D02*
X344500Y22500D01*
X324500Y23000D02*
X344000D01*
X173000Y311500D02*
Y313000D01*
X167000Y305500D02*
X173000Y311500D01*
X75000Y277500D02*
X80500D01*
X58500Y287000D02*
X64500Y281000D01*
X55000Y287000D02*
X58500D01*
X138000Y277500D02*
X138500Y277000D01*
X118500Y277500D02*
X138000D01*
X379000Y311500D02*
Y313000D01*
X373000Y305500D02*
X379000Y311500D01*
X281000Y277500D02*
X286500D01*
X264500Y287000D02*
X270500Y281000D01*
X261000Y287000D02*
X264500D01*
X344000Y277500D02*
X344500Y277000D01*
X324500Y277500D02*
X344000D01*
D20*
X37250Y167250D02*
X41000Y171000D01*
X37250Y152250D02*
Y167250D01*
X36000Y151000D02*
X37250Y152250D01*
X33500Y148000D02*
X33750Y148250D01*
Y151932D01*
X35000Y153182D01*
Y163000D01*
X31500Y152384D02*
Y162000D01*
X32000Y162500D01*
X31500Y163000D02*
X32000Y162500D01*
X92500Y67000D02*
X96000Y63500D01*
X38000Y23000D02*
X40000Y25000D01*
X38000Y8000D02*
Y23000D01*
X91500Y76500D02*
Y77500D01*
Y76500D02*
X100500Y67500D01*
X92500Y67000D02*
Y70500D01*
X28500Y151000D02*
Y162000D01*
X27500Y163000D02*
X28500Y162000D01*
X27500Y163000D02*
Y163100D01*
X243250Y167250D02*
X247000Y171000D01*
X243250Y152250D02*
Y167250D01*
X242000Y151000D02*
X243250Y152250D01*
X239500Y148000D02*
X239750Y148250D01*
Y151932D01*
X241000Y153182D01*
Y163000D01*
X237500Y152384D02*
Y162000D01*
X238000Y162500D01*
X237500Y163000D02*
X238000Y162500D01*
X298500Y67000D02*
X302000Y63500D01*
X244000Y23000D02*
X246000Y25000D01*
X244000Y8000D02*
Y23000D01*
X297500Y76500D02*
Y77500D01*
Y76500D02*
X306500Y67500D01*
X298500Y67000D02*
Y70500D01*
X234500Y151000D02*
Y162000D01*
X233500Y163000D02*
X234500Y162000D01*
X233500Y163000D02*
Y163100D01*
X37250Y421750D02*
X41000Y425500D01*
X37250Y406750D02*
Y421750D01*
X36000Y405500D02*
X37250Y406750D01*
X33500Y402500D02*
X33750Y402750D01*
Y406432D01*
X35000Y407682D01*
Y417500D01*
X31500Y406884D02*
Y416500D01*
X32000Y417000D01*
X31500Y417500D02*
X32000Y417000D01*
X92500Y321500D02*
X96000Y318000D01*
X38000Y277500D02*
X40000Y279500D01*
X38000Y262500D02*
Y277500D01*
X91500Y331000D02*
Y332000D01*
Y331000D02*
X100500Y322000D01*
X92500Y321500D02*
Y325000D01*
X28500Y405500D02*
Y416500D01*
X27500Y417500D02*
X28500Y416500D01*
X27500Y417500D02*
Y417600D01*
X243250Y421750D02*
X247000Y425500D01*
X243250Y406750D02*
Y421750D01*
X242000Y405500D02*
X243250Y406750D01*
X239500Y402500D02*
X239750Y402750D01*
Y406432D01*
X241000Y407682D01*
Y417500D01*
X237500Y406884D02*
Y416500D01*
X238000Y417000D01*
X237500Y417500D02*
X238000Y417000D01*
X298500Y321500D02*
X302000Y318000D01*
X244000Y277500D02*
X246000Y279500D01*
X244000Y262500D02*
Y277500D01*
X297500Y331000D02*
Y332000D01*
Y331000D02*
X306500Y322000D01*
X298500Y321500D02*
Y325000D01*
X234500Y405500D02*
Y416500D01*
X233500Y417500D02*
X234500Y416500D01*
X233500Y417500D02*
Y417600D01*
D21*
X178000Y238000D02*
D03*
X28000D02*
D03*
X98000Y38000D02*
D03*
X384000Y238000D02*
D03*
X234000D02*
D03*
X304000Y38000D02*
D03*
X178000Y492500D02*
D03*
X28000D02*
D03*
X98000Y292500D02*
D03*
X384000Y492500D02*
D03*
X234000D02*
D03*
X304000Y292500D02*
D03*
D22*
X198000Y28000D02*
D03*
Y38000D02*
D03*
Y48000D02*
D03*
Y58000D02*
D03*
Y68000D02*
D03*
Y78000D02*
D03*
Y88000D02*
D03*
Y98000D02*
D03*
Y108000D02*
D03*
Y118000D02*
D03*
Y128000D02*
D03*
Y138000D02*
D03*
Y148000D02*
D03*
Y158000D02*
D03*
Y168000D02*
D03*
Y178000D02*
D03*
Y188000D02*
D03*
Y198000D02*
D03*
Y208000D02*
D03*
X8000Y28000D02*
D03*
Y38000D02*
D03*
Y48000D02*
D03*
Y58000D02*
D03*
Y68000D02*
D03*
Y78000D02*
D03*
Y88000D02*
D03*
Y98000D02*
D03*
Y108000D02*
D03*
Y118000D02*
D03*
Y128000D02*
D03*
Y138000D02*
D03*
Y148000D02*
D03*
Y158000D02*
D03*
Y168000D02*
D03*
Y178000D02*
D03*
Y188000D02*
D03*
Y198000D02*
D03*
Y208000D02*
D03*
X404000Y28000D02*
D03*
Y38000D02*
D03*
Y48000D02*
D03*
Y58000D02*
D03*
Y68000D02*
D03*
Y78000D02*
D03*
Y88000D02*
D03*
Y98000D02*
D03*
Y108000D02*
D03*
Y118000D02*
D03*
Y128000D02*
D03*
Y138000D02*
D03*
Y148000D02*
D03*
Y158000D02*
D03*
Y168000D02*
D03*
Y178000D02*
D03*
Y188000D02*
D03*
Y198000D02*
D03*
Y208000D02*
D03*
X214000Y28000D02*
D03*
Y38000D02*
D03*
Y48000D02*
D03*
Y58000D02*
D03*
Y68000D02*
D03*
Y78000D02*
D03*
Y88000D02*
D03*
Y98000D02*
D03*
Y108000D02*
D03*
Y118000D02*
D03*
Y128000D02*
D03*
Y138000D02*
D03*
Y148000D02*
D03*
Y158000D02*
D03*
Y168000D02*
D03*
Y178000D02*
D03*
Y188000D02*
D03*
Y198000D02*
D03*
Y208000D02*
D03*
X198000Y282500D02*
D03*
Y292500D02*
D03*
Y302500D02*
D03*
Y312500D02*
D03*
Y322500D02*
D03*
Y332500D02*
D03*
Y342500D02*
D03*
Y352500D02*
D03*
Y362500D02*
D03*
Y372500D02*
D03*
Y382500D02*
D03*
Y392500D02*
D03*
Y402500D02*
D03*
Y412500D02*
D03*
Y422500D02*
D03*
Y432500D02*
D03*
Y442500D02*
D03*
Y452500D02*
D03*
Y462500D02*
D03*
X8000Y282500D02*
D03*
Y292500D02*
D03*
Y302500D02*
D03*
Y312500D02*
D03*
Y322500D02*
D03*
Y332500D02*
D03*
Y342500D02*
D03*
Y352500D02*
D03*
Y362500D02*
D03*
Y372500D02*
D03*
Y382500D02*
D03*
Y392500D02*
D03*
Y402500D02*
D03*
Y412500D02*
D03*
Y422500D02*
D03*
Y432500D02*
D03*
Y442500D02*
D03*
Y452500D02*
D03*
Y462500D02*
D03*
X404000Y282500D02*
D03*
Y292500D02*
D03*
Y302500D02*
D03*
Y312500D02*
D03*
Y322500D02*
D03*
Y332500D02*
D03*
Y342500D02*
D03*
Y352500D02*
D03*
Y362500D02*
D03*
Y372500D02*
D03*
Y382500D02*
D03*
Y392500D02*
D03*
Y402500D02*
D03*
Y412500D02*
D03*
Y422500D02*
D03*
Y432500D02*
D03*
Y442500D02*
D03*
Y452500D02*
D03*
Y462500D02*
D03*
X214000Y282500D02*
D03*
Y292500D02*
D03*
Y302500D02*
D03*
Y312500D02*
D03*
Y322500D02*
D03*
Y332500D02*
D03*
Y342500D02*
D03*
Y352500D02*
D03*
Y362500D02*
D03*
Y372500D02*
D03*
Y382500D02*
D03*
Y392500D02*
D03*
Y402500D02*
D03*
Y412500D02*
D03*
Y422500D02*
D03*
Y432500D02*
D03*
Y442500D02*
D03*
Y452500D02*
D03*
Y462500D02*
D03*
D23*
X198000Y218000D02*
D03*
X8000D02*
D03*
X404000D02*
D03*
X214000D02*
D03*
X198000Y472500D02*
D03*
X8000D02*
D03*
X404000D02*
D03*
X214000D02*
D03*
D24*
X198000Y8000D02*
D03*
X188000D02*
D03*
X178000D02*
D03*
X168000D02*
D03*
X158000D02*
D03*
X148000D02*
D03*
X138000D02*
D03*
X128000D02*
D03*
X118000D02*
D03*
X108000D02*
D03*
X98000D02*
D03*
X88000D02*
D03*
X78000D02*
D03*
X68000D02*
D03*
X58000D02*
D03*
X48000D02*
D03*
X38000D02*
D03*
X28000D02*
D03*
X18000D02*
D03*
X404000D02*
D03*
X394000D02*
D03*
X384000D02*
D03*
X374000D02*
D03*
X364000D02*
D03*
X354000D02*
D03*
X344000D02*
D03*
X334000D02*
D03*
X324000D02*
D03*
X314000D02*
D03*
X304000D02*
D03*
X294000D02*
D03*
X284000D02*
D03*
X274000D02*
D03*
X264000D02*
D03*
X254000D02*
D03*
X244000D02*
D03*
X234000D02*
D03*
X224000D02*
D03*
X198000Y262500D02*
D03*
X188000D02*
D03*
X178000D02*
D03*
X168000D02*
D03*
X158000D02*
D03*
X148000D02*
D03*
X138000D02*
D03*
X128000D02*
D03*
X118000D02*
D03*
X108000D02*
D03*
X98000D02*
D03*
X88000D02*
D03*
X78000D02*
D03*
X68000D02*
D03*
X58000D02*
D03*
X48000D02*
D03*
X38000D02*
D03*
X28000D02*
D03*
X18000D02*
D03*
X404000D02*
D03*
X394000D02*
D03*
X384000D02*
D03*
X374000D02*
D03*
X364000D02*
D03*
X354000D02*
D03*
X344000D02*
D03*
X334000D02*
D03*
X324000D02*
D03*
X314000D02*
D03*
X304000D02*
D03*
X294000D02*
D03*
X284000D02*
D03*
X274000D02*
D03*
X264000D02*
D03*
X254000D02*
D03*
X244000D02*
D03*
X234000D02*
D03*
X224000D02*
D03*
D25*
X8000Y8000D02*
D03*
X214000D02*
D03*
X8000Y262500D02*
D03*
X214000D02*
D03*
D26*
X27500Y118000D02*
D03*
X31500Y152384D02*
D03*
X36000Y151000D02*
D03*
X33500Y148000D02*
D03*
X35000Y163000D02*
D03*
X31500D02*
D03*
X41000Y171000D02*
D03*
X173000Y58500D02*
D03*
X37000Y49000D02*
D03*
X159500Y192000D02*
D03*
X180000D02*
D03*
X173500Y186500D02*
D03*
X165500D02*
D03*
X176500Y71500D02*
D03*
X144000Y49000D02*
D03*
X80500Y23000D02*
D03*
X75000D02*
D03*
X64500Y26500D02*
D03*
X55000Y32500D02*
D03*
X48000Y33000D02*
D03*
X138500Y22500D02*
D03*
X118500Y23000D02*
D03*
X167000Y51000D02*
D03*
X96000Y63500D02*
D03*
X78000Y54500D02*
D03*
Y40500D02*
D03*
X40000Y25000D02*
D03*
X91500Y77500D02*
D03*
X100500Y67500D02*
D03*
X92500Y70500D02*
D03*
X86000Y118000D02*
D03*
X148000Y135500D02*
D03*
X138000D02*
D03*
X110500Y116500D02*
D03*
X42000Y118000D02*
D03*
X90500Y157000D02*
D03*
X110500Y156500D02*
D03*
X116500Y107500D02*
D03*
X107500Y84000D02*
D03*
X72500Y122000D02*
D03*
X55500Y143000D02*
D03*
Y184500D02*
D03*
X153000Y165000D02*
D03*
X123500Y191000D02*
D03*
X83500Y184500D02*
D03*
X93000D02*
D03*
X115500D02*
D03*
X135000Y161000D02*
D03*
X111000Y123000D02*
D03*
X101000Y145500D02*
D03*
Y124500D02*
D03*
X117500Y60000D02*
D03*
X28500Y151000D02*
D03*
X27500Y163100D02*
D03*
X233500Y118000D02*
D03*
X237500Y152384D02*
D03*
X242000Y151000D02*
D03*
X239500Y148000D02*
D03*
X241000Y163000D02*
D03*
X237500D02*
D03*
X247000Y171000D02*
D03*
X379000Y58500D02*
D03*
X243000Y49000D02*
D03*
X365500Y192000D02*
D03*
X386000D02*
D03*
X379500Y186500D02*
D03*
X371500D02*
D03*
X382500Y71500D02*
D03*
X350000Y49000D02*
D03*
X286500Y23000D02*
D03*
X281000D02*
D03*
X270500Y26500D02*
D03*
X261000Y32500D02*
D03*
X254000Y33000D02*
D03*
X344500Y22500D02*
D03*
X324500Y23000D02*
D03*
X373000Y51000D02*
D03*
X302000Y63500D02*
D03*
X284000Y54500D02*
D03*
Y40500D02*
D03*
X246000Y25000D02*
D03*
X297500Y77500D02*
D03*
X306500Y67500D02*
D03*
X298500Y70500D02*
D03*
X292000Y118000D02*
D03*
X354000Y135500D02*
D03*
X344000D02*
D03*
X316500Y116500D02*
D03*
X248000Y118000D02*
D03*
X296500Y157000D02*
D03*
X316500Y156500D02*
D03*
X322500Y107500D02*
D03*
X313500Y84000D02*
D03*
X278500Y122000D02*
D03*
X261500Y143000D02*
D03*
Y184500D02*
D03*
X359000Y165000D02*
D03*
X329500Y191000D02*
D03*
X289500Y184500D02*
D03*
X299000D02*
D03*
X321500D02*
D03*
X341000Y161000D02*
D03*
X317000Y123000D02*
D03*
X307000Y145500D02*
D03*
Y124500D02*
D03*
X323500Y60000D02*
D03*
X234500Y151000D02*
D03*
X233500Y163100D02*
D03*
X27500Y372500D02*
D03*
X31500Y406884D02*
D03*
X36000Y405500D02*
D03*
X33500Y402500D02*
D03*
X35000Y417500D02*
D03*
X31500D02*
D03*
X41000Y425500D02*
D03*
X173000Y313000D02*
D03*
X37000Y303500D02*
D03*
X159500Y446500D02*
D03*
X180000D02*
D03*
X173500Y441000D02*
D03*
X165500D02*
D03*
X176500Y326000D02*
D03*
X144000Y303500D02*
D03*
X80500Y277500D02*
D03*
X75000D02*
D03*
X64500Y281000D02*
D03*
X55000Y287000D02*
D03*
X48000Y287500D02*
D03*
X138500Y277000D02*
D03*
X118500Y277500D02*
D03*
X167000Y305500D02*
D03*
X96000Y318000D02*
D03*
X78000Y309000D02*
D03*
Y295000D02*
D03*
X40000Y279500D02*
D03*
X91500Y332000D02*
D03*
X100500Y322000D02*
D03*
X92500Y325000D02*
D03*
X86000Y372500D02*
D03*
X148000Y390000D02*
D03*
X138000D02*
D03*
X110500Y371000D02*
D03*
X42000Y372500D02*
D03*
X90500Y411500D02*
D03*
X110500Y411000D02*
D03*
X116500Y362000D02*
D03*
X107500Y338500D02*
D03*
X72500Y376500D02*
D03*
X55500Y397500D02*
D03*
Y439000D02*
D03*
X153000Y419500D02*
D03*
X123500Y445500D02*
D03*
X83500Y439000D02*
D03*
X93000D02*
D03*
X115500D02*
D03*
X135000Y415500D02*
D03*
X111000Y377500D02*
D03*
X101000Y400000D02*
D03*
Y379000D02*
D03*
X117500Y314500D02*
D03*
X28500Y405500D02*
D03*
X27500Y417600D02*
D03*
X233500Y372500D02*
D03*
X237500Y406884D02*
D03*
X242000Y405500D02*
D03*
X239500Y402500D02*
D03*
X241000Y417500D02*
D03*
X237500D02*
D03*
X247000Y425500D02*
D03*
X379000Y313000D02*
D03*
X243000Y303500D02*
D03*
X365500Y446500D02*
D03*
X386000D02*
D03*
X379500Y441000D02*
D03*
X371500D02*
D03*
X382500Y326000D02*
D03*
X350000Y303500D02*
D03*
X286500Y277500D02*
D03*
X281000D02*
D03*
X270500Y281000D02*
D03*
X261000Y287000D02*
D03*
X254000Y287500D02*
D03*
X344500Y277000D02*
D03*
X324500Y277500D02*
D03*
X373000Y305500D02*
D03*
X302000Y318000D02*
D03*
X284000Y309000D02*
D03*
Y295000D02*
D03*
X246000Y279500D02*
D03*
X297500Y332000D02*
D03*
X306500Y322000D02*
D03*
X298500Y325000D02*
D03*
X292000Y372500D02*
D03*
X354000Y390000D02*
D03*
X344000D02*
D03*
X316500Y371000D02*
D03*
X248000Y372500D02*
D03*
X296500Y411500D02*
D03*
X316500Y411000D02*
D03*
X322500Y362000D02*
D03*
X313500Y338500D02*
D03*
X278500Y376500D02*
D03*
X261500Y397500D02*
D03*
Y439000D02*
D03*
X359000Y419500D02*
D03*
X329500Y445500D02*
D03*
X289500Y439000D02*
D03*
X299000D02*
D03*
X321500D02*
D03*
X341000Y415500D02*
D03*
X317000Y377500D02*
D03*
X307000Y400000D02*
D03*
Y379000D02*
D03*
X323500Y314500D02*
D03*
X234500Y405500D02*
D03*
X233500Y417600D02*
D03*
M02*
