G04 Layer_Physical_Order=1*
G04 Layer_Color=255*
%FSLAX25Y25*%
%MOIN*%
G70*
G01*
G75*
%ADD10R,0.02500X0.05000*%
%ADD11R,0.03740X0.02953*%
%ADD12R,0.02953X0.03740*%
%ADD13R,0.01181X0.04724*%
%ADD14R,0.04724X0.01181*%
G04:AMPARAMS|DCode=15|XSize=39.37mil|YSize=35.43mil|CornerRadius=4.43mil|HoleSize=0mil|Usage=FLASHONLY|Rotation=90.000|XOffset=0mil|YOffset=0mil|HoleType=Round|Shape=RoundedRectangle|*
%AMROUNDEDRECTD15*
21,1,0.03937,0.02657,0,0,90.0*
21,1,0.03051,0.03543,0,0,90.0*
1,1,0.00886,0.01329,0.01526*
1,1,0.00886,0.01329,-0.01526*
1,1,0.00886,-0.01329,-0.01526*
1,1,0.00886,-0.01329,0.01526*
%
%ADD15ROUNDEDRECTD15*%
G04:AMPARAMS|DCode=16|XSize=39.37mil|YSize=35.43mil|CornerRadius=4.43mil|HoleSize=0mil|Usage=FLASHONLY|Rotation=0.000|XOffset=0mil|YOffset=0mil|HoleType=Round|Shape=RoundedRectangle|*
%AMROUNDEDRECTD16*
21,1,0.03937,0.02657,0,0,0.0*
21,1,0.03051,0.03543,0,0,0.0*
1,1,0.00886,0.01526,-0.01329*
1,1,0.00886,-0.01526,-0.01329*
1,1,0.00886,-0.01526,0.01329*
1,1,0.00886,0.01526,0.01329*
%
%ADD16ROUNDEDRECTD16*%
%ADD17C,0.01000*%
%ADD18C,0.02000*%
%ADD19C,0.02500*%
%ADD20C,0.00800*%
%ADD21C,0.25000*%
%ADD22O,0.11000X0.06000*%
%ADD23R,0.11000X0.06000*%
%ADD24O,0.06000X0.11000*%
%ADD25R,0.06000X0.11000*%
%ADD26C,0.02500*%
D10*
X61378Y143000D02*
D03*
X64622D02*
D03*
X164512Y122500D02*
D03*
X167757D02*
D03*
X171000D02*
D03*
X104244Y201000D02*
D03*
X101000D02*
D03*
X97757D02*
D03*
X137257D02*
D03*
X140500D02*
D03*
X267378Y143000D02*
D03*
X270622D02*
D03*
X370512Y122500D02*
D03*
X373757D02*
D03*
X377000D02*
D03*
X310244Y201000D02*
D03*
X307000D02*
D03*
X303757D02*
D03*
X343257D02*
D03*
X346500D02*
D03*
X61378Y397500D02*
D03*
X64622D02*
D03*
X164512Y377000D02*
D03*
X167757D02*
D03*
X171000D02*
D03*
X104244Y455500D02*
D03*
X101000D02*
D03*
X97757D02*
D03*
X137257D02*
D03*
X140500D02*
D03*
X267378Y397500D02*
D03*
X270622D02*
D03*
X370512Y377000D02*
D03*
X373757D02*
D03*
X377000D02*
D03*
X310244Y455500D02*
D03*
X307000D02*
D03*
X303757D02*
D03*
X343257D02*
D03*
X346500D02*
D03*
D11*
X37000Y37744D02*
D03*
Y43256D02*
D03*
X165500Y197756D02*
D03*
Y192244D02*
D03*
X173500Y197756D02*
D03*
Y192244D02*
D03*
X116500Y119256D02*
D03*
Y113744D02*
D03*
X72500Y132756D02*
D03*
Y127244D02*
D03*
X176500Y83500D02*
D03*
Y77988D02*
D03*
X243000Y37744D02*
D03*
Y43256D02*
D03*
X371500Y197756D02*
D03*
Y192244D02*
D03*
X379500Y197756D02*
D03*
Y192244D02*
D03*
X322500Y119256D02*
D03*
Y113744D02*
D03*
X278500Y132756D02*
D03*
Y127244D02*
D03*
X382500Y83500D02*
D03*
Y77988D02*
D03*
X37000Y292244D02*
D03*
Y297756D02*
D03*
X165500Y452256D02*
D03*
Y446744D02*
D03*
X173500Y452256D02*
D03*
Y446744D02*
D03*
X116500Y373756D02*
D03*
Y368244D02*
D03*
X72500Y387256D02*
D03*
Y381744D02*
D03*
X176500Y338000D02*
D03*
Y332488D02*
D03*
X243000Y292244D02*
D03*
Y297756D02*
D03*
X371500Y452256D02*
D03*
Y446744D02*
D03*
X379500Y452256D02*
D03*
Y446744D02*
D03*
X322500Y373756D02*
D03*
Y368244D02*
D03*
X278500Y387256D02*
D03*
Y381744D02*
D03*
X382500Y338000D02*
D03*
Y332488D02*
D03*
D12*
X66256Y184500D02*
D03*
X60744D02*
D03*
X112744Y191000D02*
D03*
X118256D02*
D03*
X141244Y165000D02*
D03*
X146756D02*
D03*
X272256Y184500D02*
D03*
X266744D02*
D03*
X318744Y191000D02*
D03*
X324256D02*
D03*
X347244Y165000D02*
D03*
X352756D02*
D03*
X66256Y439000D02*
D03*
X60744D02*
D03*
X112744Y445500D02*
D03*
X118256D02*
D03*
X141244Y419500D02*
D03*
X146756D02*
D03*
X272256Y439000D02*
D03*
X266744D02*
D03*
X318744Y445500D02*
D03*
X324256D02*
D03*
X347244Y419500D02*
D03*
X352756D02*
D03*
D13*
X116264Y133362D02*
D03*
X114295D02*
D03*
X112327D02*
D03*
X110358D02*
D03*
X108390D02*
D03*
X106421D02*
D03*
X104453D02*
D03*
X102484D02*
D03*
X100516D02*
D03*
X98547D02*
D03*
X96579D02*
D03*
X94610D02*
D03*
X92642D02*
D03*
X90673D02*
D03*
X88705D02*
D03*
X86736D02*
D03*
Y178638D02*
D03*
X88705D02*
D03*
X90673D02*
D03*
X92642D02*
D03*
X94610D02*
D03*
X96579D02*
D03*
X98547D02*
D03*
X100516D02*
D03*
X102484D02*
D03*
X104453D02*
D03*
X106421D02*
D03*
X108390D02*
D03*
X110358D02*
D03*
X112327D02*
D03*
X114295D02*
D03*
X116264D02*
D03*
X322264Y133362D02*
D03*
X320295D02*
D03*
X318327D02*
D03*
X316358D02*
D03*
X314390D02*
D03*
X312421D02*
D03*
X310453D02*
D03*
X308484D02*
D03*
X306516D02*
D03*
X304547D02*
D03*
X302579D02*
D03*
X300610D02*
D03*
X298642D02*
D03*
X296673D02*
D03*
X294705D02*
D03*
X292736D02*
D03*
Y178638D02*
D03*
X294705D02*
D03*
X296673D02*
D03*
X298642D02*
D03*
X300610D02*
D03*
X302579D02*
D03*
X304547D02*
D03*
X306516D02*
D03*
X308484D02*
D03*
X310453D02*
D03*
X312421D02*
D03*
X314390D02*
D03*
X316358D02*
D03*
X318327D02*
D03*
X320295D02*
D03*
X322264D02*
D03*
X116264Y387862D02*
D03*
X114295D02*
D03*
X112327D02*
D03*
X110358D02*
D03*
X108390D02*
D03*
X106421D02*
D03*
X104453D02*
D03*
X102484D02*
D03*
X100516D02*
D03*
X98547D02*
D03*
X96579D02*
D03*
X94610D02*
D03*
X92642D02*
D03*
X90673D02*
D03*
X88705D02*
D03*
X86736D02*
D03*
Y433138D02*
D03*
X88705D02*
D03*
X90673D02*
D03*
X92642D02*
D03*
X94610D02*
D03*
X96579D02*
D03*
X98547D02*
D03*
X100516D02*
D03*
X102484D02*
D03*
X104453D02*
D03*
X106421D02*
D03*
X108390D02*
D03*
X110358D02*
D03*
X112327D02*
D03*
X114295D02*
D03*
X116264D02*
D03*
X322264Y387862D02*
D03*
X320295D02*
D03*
X318327D02*
D03*
X316358D02*
D03*
X314390D02*
D03*
X312421D02*
D03*
X310453D02*
D03*
X308484D02*
D03*
X306516D02*
D03*
X304547D02*
D03*
X302579D02*
D03*
X300610D02*
D03*
X298642D02*
D03*
X296673D02*
D03*
X294705D02*
D03*
X292736D02*
D03*
Y433138D02*
D03*
X294705D02*
D03*
X296673D02*
D03*
X298642D02*
D03*
X300610D02*
D03*
X302579D02*
D03*
X304547D02*
D03*
X306516D02*
D03*
X308484D02*
D03*
X310453D02*
D03*
X312421D02*
D03*
X314390D02*
D03*
X316358D02*
D03*
X318327D02*
D03*
X320295D02*
D03*
X322264D02*
D03*
D14*
X78862Y141236D02*
D03*
Y143205D02*
D03*
Y145173D02*
D03*
Y147142D02*
D03*
Y149110D02*
D03*
Y151079D02*
D03*
Y153047D02*
D03*
Y155016D02*
D03*
Y156984D02*
D03*
Y158953D02*
D03*
Y160921D02*
D03*
Y162890D02*
D03*
Y164858D02*
D03*
Y166827D02*
D03*
Y168795D02*
D03*
Y170764D02*
D03*
X124138D02*
D03*
Y168795D02*
D03*
Y166827D02*
D03*
Y164858D02*
D03*
Y162890D02*
D03*
Y160921D02*
D03*
Y158953D02*
D03*
Y156984D02*
D03*
Y155016D02*
D03*
Y153047D02*
D03*
Y151079D02*
D03*
Y149110D02*
D03*
Y147142D02*
D03*
Y145173D02*
D03*
Y143205D02*
D03*
Y141236D02*
D03*
X284862D02*
D03*
Y143205D02*
D03*
Y145173D02*
D03*
Y147142D02*
D03*
Y149110D02*
D03*
Y151079D02*
D03*
Y153047D02*
D03*
Y155016D02*
D03*
Y156984D02*
D03*
Y158953D02*
D03*
Y160921D02*
D03*
Y162890D02*
D03*
Y164858D02*
D03*
Y166827D02*
D03*
Y168795D02*
D03*
Y170764D02*
D03*
X330138D02*
D03*
Y168795D02*
D03*
Y166827D02*
D03*
Y164858D02*
D03*
Y162890D02*
D03*
Y160921D02*
D03*
Y158953D02*
D03*
Y156984D02*
D03*
Y155016D02*
D03*
Y153047D02*
D03*
Y151079D02*
D03*
Y149110D02*
D03*
Y147142D02*
D03*
Y145173D02*
D03*
Y143205D02*
D03*
Y141236D02*
D03*
X78862Y395736D02*
D03*
Y397705D02*
D03*
Y399673D02*
D03*
Y401642D02*
D03*
Y403610D02*
D03*
Y405579D02*
D03*
Y407547D02*
D03*
Y409516D02*
D03*
Y411484D02*
D03*
Y413453D02*
D03*
Y415421D02*
D03*
Y417390D02*
D03*
Y419358D02*
D03*
Y421327D02*
D03*
Y423295D02*
D03*
Y425264D02*
D03*
X124138D02*
D03*
Y423295D02*
D03*
Y421327D02*
D03*
Y419358D02*
D03*
Y417390D02*
D03*
Y415421D02*
D03*
Y413453D02*
D03*
Y411484D02*
D03*
Y409516D02*
D03*
Y407547D02*
D03*
Y405579D02*
D03*
Y403610D02*
D03*
Y401642D02*
D03*
Y399673D02*
D03*
Y397705D02*
D03*
Y395736D02*
D03*
X284862D02*
D03*
Y397705D02*
D03*
Y399673D02*
D03*
Y401642D02*
D03*
Y403610D02*
D03*
Y405579D02*
D03*
Y407547D02*
D03*
Y409516D02*
D03*
Y411484D02*
D03*
Y413453D02*
D03*
Y415421D02*
D03*
Y417390D02*
D03*
Y419358D02*
D03*
Y421327D02*
D03*
Y423295D02*
D03*
Y425264D02*
D03*
X330138D02*
D03*
Y423295D02*
D03*
Y421327D02*
D03*
Y419358D02*
D03*
Y417390D02*
D03*
Y415421D02*
D03*
Y413453D02*
D03*
Y411484D02*
D03*
Y409516D02*
D03*
Y407547D02*
D03*
Y405579D02*
D03*
Y403610D02*
D03*
Y401642D02*
D03*
Y399673D02*
D03*
Y397705D02*
D03*
Y395736D02*
D03*
D15*
X131653Y49000D02*
D03*
X138347D02*
D03*
X40846Y198000D02*
D03*
X34154D02*
D03*
X337653Y49000D02*
D03*
X344346D02*
D03*
X246847Y198000D02*
D03*
X240154D02*
D03*
X131653Y303500D02*
D03*
X138347D02*
D03*
X40846Y452500D02*
D03*
X34154D02*
D03*
X337653Y303500D02*
D03*
X344346D02*
D03*
X246847Y452500D02*
D03*
X240154D02*
D03*
D16*
X107500Y97347D02*
D03*
Y90654D02*
D03*
X155000Y207347D02*
D03*
Y200654D02*
D03*
X313500Y97347D02*
D03*
Y90654D02*
D03*
X361000Y207347D02*
D03*
Y200654D02*
D03*
X107500Y351847D02*
D03*
Y345153D02*
D03*
X155000Y461846D02*
D03*
Y455154D02*
D03*
X313500Y351847D02*
D03*
Y345153D02*
D03*
X361000Y461846D02*
D03*
Y455154D02*
D03*
D17*
X90500Y157000D02*
Y163000D01*
X82000Y174500D02*
X85000Y171500D01*
Y168500D02*
X90500Y163000D01*
X85000Y168500D02*
Y171500D01*
X8000Y118000D02*
X27500D01*
X38500Y150500D02*
X39500Y151500D01*
X38500Y88000D02*
Y150500D01*
X39500Y151500D02*
X65500D01*
X72500Y134000D02*
X76000D01*
X104244Y201000D02*
X105745D01*
X93500D02*
X97757D01*
X88705Y196205D02*
X93500Y201000D01*
X78000Y8000D02*
Y40500D01*
X48000Y33000D02*
Y78500D01*
X38500Y88000D02*
X48000Y78500D01*
X78000Y118000D02*
X86000D01*
X42000D02*
X78000D01*
Y54500D02*
Y118000D01*
X148000Y135500D02*
X148500Y136000D01*
Y146000D01*
X141453Y153047D02*
X148500Y146000D01*
X124138Y153047D02*
X141453D01*
X135500Y133000D02*
X138000Y135500D01*
X135500Y105500D02*
Y133000D01*
X132500Y102500D02*
X135500Y105500D01*
X114000Y102500D02*
X132500D01*
X110500Y106000D02*
X114000Y102500D01*
X110500Y106000D02*
Y116500D01*
X40846Y181154D02*
Y198500D01*
Y181154D02*
X47500Y174500D01*
X82000D01*
X110500Y156500D02*
X111500Y155500D01*
Y151000D02*
Y155500D01*
Y151000D02*
X113390Y149110D01*
X124138D01*
X96000Y146000D02*
Y164500D01*
X93500Y143500D02*
X96000Y146000D01*
X87295Y143500D02*
X93500D01*
X87000Y143205D02*
X87295Y143500D01*
X88705Y171795D02*
Y178638D01*
Y171795D02*
X96000Y164500D01*
X94610Y170390D02*
X99000Y166000D01*
Y147500D02*
Y166000D01*
Y147500D02*
X101000Y145500D01*
X94610Y170390D02*
Y178638D01*
X112327Y173500D02*
Y178638D01*
X103500Y141236D02*
X112764D01*
X78862D02*
X103500D01*
Y164673D02*
X112327Y173500D01*
X103500Y141236D02*
Y164673D01*
X112327Y184500D02*
Y190583D01*
Y178638D02*
Y184500D01*
X93000D02*
X112327D01*
X78862Y143205D02*
X87000D01*
X64622Y143000D02*
X64826Y143205D01*
X78862D01*
X66256Y184500D02*
X70500D01*
X76362Y178638D01*
X86736D01*
X76000Y134000D02*
X78862Y136862D01*
Y141236D01*
X116264Y119492D02*
X116500Y119256D01*
X88705Y178638D02*
Y196205D01*
X112327Y190583D02*
X112744Y191000D01*
X141102Y164858D02*
X141244Y165000D01*
X112764Y141236D02*
X116500Y137500D01*
X116264Y137264D02*
X116500Y137500D01*
X116264Y133362D02*
Y137264D01*
Y119492D02*
Y133362D01*
X86736Y178638D02*
Y181264D01*
X83500Y184500D02*
X86736Y181264D01*
X114295Y178638D02*
Y183295D01*
X115500Y184500D01*
X133110Y162890D02*
X135000Y161000D01*
X114295Y126295D02*
Y133362D01*
X111000Y123000D02*
X114295Y126295D01*
X8500Y157500D02*
X18000D01*
X8000Y158000D02*
X8500Y157500D01*
X17500Y149500D02*
Y153500D01*
X16000Y148000D02*
X17500Y149500D01*
X8000Y148000D02*
X16000D01*
X20500Y142000D02*
Y153000D01*
X16500Y138000D02*
X20500Y142000D01*
X8000Y138000D02*
X16500D01*
X23000Y135500D02*
Y152000D01*
X15500Y128000D02*
X23000Y135500D01*
X8000Y128000D02*
X15500D01*
X65500Y151500D02*
X71827Y145173D01*
X108390Y126890D02*
Y133362D01*
X106500Y125000D02*
X108390Y126890D01*
X106500Y101000D02*
Y125000D01*
Y101000D02*
X107500Y100000D01*
Y97347D02*
Y100000D01*
X124138Y164858D02*
X141102D01*
X124138Y162890D02*
X133110D01*
X101000Y73000D02*
Y124500D01*
Y73000D02*
X124500Y49500D01*
X131154D02*
X131653Y49000D01*
X128000Y8000D02*
Y49500D01*
X124500D02*
X128000D01*
X131154D01*
X107500Y97347D02*
X112346D01*
X112500Y97500D01*
X117500Y92500D01*
Y60000D02*
Y92500D01*
X72358Y147142D02*
X78862D01*
X72890Y149110D02*
X78862D01*
X73421Y151079D02*
X78862D01*
X73953Y153047D02*
X78862D01*
X71827Y145173D02*
X78862D01*
X64766Y154734D02*
X72358Y147142D01*
X23000Y152000D02*
X25734Y154734D01*
X64766D01*
X18000Y157500D02*
X20900Y160400D01*
X66600D01*
X73953Y153047D01*
X17500Y153500D02*
X22500Y158500D01*
X66000D01*
X73421Y151079D01*
X20500Y153000D02*
X24000Y156500D01*
X65500D01*
X72890Y149110D01*
X296500Y157000D02*
Y163000D01*
X288000Y174500D02*
X291000Y171500D01*
Y168500D02*
X296500Y163000D01*
X291000Y168500D02*
Y171500D01*
X214000Y118000D02*
X233500D01*
X244500Y150500D02*
X245500Y151500D01*
X244500Y88000D02*
Y150500D01*
X245500Y151500D02*
X271500D01*
X278500Y134000D02*
X282000D01*
X310244Y201000D02*
X311744D01*
X299500D02*
X303757D01*
X294705Y196205D02*
X299500Y201000D01*
X284000Y8000D02*
Y40500D01*
X254000Y33000D02*
Y78500D01*
X244500Y88000D02*
X254000Y78500D01*
X284000Y118000D02*
X292000D01*
X248000D02*
X284000D01*
Y54500D02*
Y118000D01*
X354000Y135500D02*
X354500Y136000D01*
Y146000D01*
X347453Y153047D02*
X354500Y146000D01*
X330138Y153047D02*
X347453D01*
X341500Y133000D02*
X344000Y135500D01*
X341500Y105500D02*
Y133000D01*
X338500Y102500D02*
X341500Y105500D01*
X320000Y102500D02*
X338500D01*
X316500Y106000D02*
X320000Y102500D01*
X316500Y106000D02*
Y116500D01*
X246847Y181154D02*
Y198500D01*
Y181154D02*
X253500Y174500D01*
X288000D01*
X316500Y156500D02*
X317500Y155500D01*
Y151000D02*
Y155500D01*
Y151000D02*
X319390Y149110D01*
X330138D01*
X302000Y146000D02*
Y164500D01*
X299500Y143500D02*
X302000Y146000D01*
X293295Y143500D02*
X299500D01*
X293000Y143205D02*
X293295Y143500D01*
X294705Y171795D02*
Y178638D01*
Y171795D02*
X302000Y164500D01*
X300610Y170390D02*
X305000Y166000D01*
Y147500D02*
Y166000D01*
Y147500D02*
X307000Y145500D01*
X300610Y170390D02*
Y178638D01*
X318327Y173500D02*
Y178638D01*
X309500Y141236D02*
X318764D01*
X284862D02*
X309500D01*
Y164673D02*
X318327Y173500D01*
X309500Y141236D02*
Y164673D01*
X318327Y184500D02*
Y190583D01*
Y178638D02*
Y184500D01*
X299000D02*
X318327D01*
X284862Y143205D02*
X293000D01*
X270622Y143000D02*
X270826Y143205D01*
X284862D01*
X272256Y184500D02*
X276500D01*
X282362Y178638D01*
X292736D01*
X282000Y134000D02*
X284862Y136862D01*
Y141236D01*
X322264Y119492D02*
X322500Y119256D01*
X294705Y178638D02*
Y196205D01*
X318327Y190583D02*
X318744Y191000D01*
X347102Y164858D02*
X347244Y165000D01*
X318764Y141236D02*
X322500Y137500D01*
X322264Y137264D02*
X322500Y137500D01*
X322264Y133362D02*
Y137264D01*
Y119492D02*
Y133362D01*
X292736Y178638D02*
Y181264D01*
X289500Y184500D02*
X292736Y181264D01*
X320295Y178638D02*
Y183295D01*
X321500Y184500D01*
X339110Y162890D02*
X341000Y161000D01*
X320295Y126295D02*
Y133362D01*
X317000Y123000D02*
X320295Y126295D01*
X214500Y157500D02*
X224000D01*
X214000Y158000D02*
X214500Y157500D01*
X223500Y149500D02*
Y153500D01*
X222000Y148000D02*
X223500Y149500D01*
X214000Y148000D02*
X222000D01*
X226500Y142000D02*
Y153000D01*
X222500Y138000D02*
X226500Y142000D01*
X214000Y138000D02*
X222500D01*
X229000Y135500D02*
Y152000D01*
X221500Y128000D02*
X229000Y135500D01*
X214000Y128000D02*
X221500D01*
X271500Y151500D02*
X277827Y145173D01*
X314390Y126890D02*
Y133362D01*
X312500Y125000D02*
X314390Y126890D01*
X312500Y101000D02*
Y125000D01*
Y101000D02*
X313500Y100000D01*
Y97347D02*
Y100000D01*
X330138Y164858D02*
X347102D01*
X330138Y162890D02*
X339110D01*
X307000Y73000D02*
Y124500D01*
Y73000D02*
X330500Y49500D01*
X337154D02*
X337653Y49000D01*
X334000Y8000D02*
Y49500D01*
X330500D02*
X334000D01*
X337154D01*
X313500Y97347D02*
X318347D01*
X318500Y97500D01*
X323500Y92500D01*
Y60000D02*
Y92500D01*
X278358Y147142D02*
X284862D01*
X278890Y149110D02*
X284862D01*
X279421Y151079D02*
X284862D01*
X279953Y153047D02*
X284862D01*
X277827Y145173D02*
X284862D01*
X270766Y154734D02*
X278358Y147142D01*
X229000Y152000D02*
X231734Y154734D01*
X270766D01*
X224000Y157500D02*
X226900Y160400D01*
X272600D01*
X279953Y153047D01*
X223500Y153500D02*
X228500Y158500D01*
X272000D01*
X279421Y151079D01*
X226500Y153000D02*
X230000Y156500D01*
X271500D01*
X278890Y149110D01*
X90500Y411500D02*
Y417500D01*
X82000Y429000D02*
X85000Y426000D01*
Y423000D02*
X90500Y417500D01*
X85000Y423000D02*
Y426000D01*
X8000Y372500D02*
X27500D01*
X38500Y405000D02*
X39500Y406000D01*
X38500Y342500D02*
Y405000D01*
X39500Y406000D02*
X65500D01*
X72500Y388500D02*
X76000D01*
X104244Y455500D02*
X105745D01*
X93500D02*
X97757D01*
X88705Y450705D02*
X93500Y455500D01*
X78000Y262500D02*
Y295000D01*
X48000Y287500D02*
Y333000D01*
X38500Y342500D02*
X48000Y333000D01*
X78000Y372500D02*
X86000D01*
X42000D02*
X78000D01*
Y309000D02*
Y372500D01*
X148000Y390000D02*
X148500Y390500D01*
Y400500D01*
X141453Y407547D02*
X148500Y400500D01*
X124138Y407547D02*
X141453D01*
X135500Y387500D02*
X138000Y390000D01*
X135500Y360000D02*
Y387500D01*
X132500Y357000D02*
X135500Y360000D01*
X114000Y357000D02*
X132500D01*
X110500Y360500D02*
X114000Y357000D01*
X110500Y360500D02*
Y371000D01*
X40846Y435653D02*
Y453000D01*
Y435653D02*
X47500Y429000D01*
X82000D01*
X110500Y411000D02*
X111500Y410000D01*
Y405500D02*
Y410000D01*
Y405500D02*
X113390Y403610D01*
X124138D01*
X96000Y400500D02*
Y419000D01*
X93500Y398000D02*
X96000Y400500D01*
X87295Y398000D02*
X93500D01*
X87000Y397705D02*
X87295Y398000D01*
X88705Y426295D02*
Y433138D01*
Y426295D02*
X96000Y419000D01*
X94610Y424890D02*
X99000Y420500D01*
Y402000D02*
Y420500D01*
Y402000D02*
X101000Y400000D01*
X94610Y424890D02*
Y433138D01*
X112327Y428000D02*
Y433138D01*
X103500Y395736D02*
X112764D01*
X78862D02*
X103500D01*
Y419173D02*
X112327Y428000D01*
X103500Y395736D02*
Y419173D01*
X112327Y439000D02*
Y445083D01*
Y433138D02*
Y439000D01*
X93000D02*
X112327D01*
X78862Y397705D02*
X87000D01*
X64622Y397500D02*
X64826Y397705D01*
X78862D01*
X66256Y439000D02*
X70500D01*
X76362Y433138D01*
X86736D01*
X76000Y388500D02*
X78862Y391362D01*
Y395736D01*
X116264Y373992D02*
X116500Y373756D01*
X88705Y433138D02*
Y450705D01*
X112327Y445083D02*
X112744Y445500D01*
X141102Y419358D02*
X141244Y419500D01*
X112764Y395736D02*
X116500Y392000D01*
X116264Y391764D02*
X116500Y392000D01*
X116264Y387862D02*
Y391764D01*
Y373992D02*
Y387862D01*
X86736Y433138D02*
Y435764D01*
X83500Y439000D02*
X86736Y435764D01*
X114295Y433138D02*
Y437795D01*
X115500Y439000D01*
X133110Y417390D02*
X135000Y415500D01*
X114295Y380795D02*
Y387862D01*
X111000Y377500D02*
X114295Y380795D01*
X8500Y412000D02*
X18000D01*
X8000Y412500D02*
X8500Y412000D01*
X17500Y404000D02*
Y408000D01*
X16000Y402500D02*
X17500Y404000D01*
X8000Y402500D02*
X16000D01*
X20500Y396500D02*
Y407500D01*
X16500Y392500D02*
X20500Y396500D01*
X8000Y392500D02*
X16500D01*
X23000Y390000D02*
Y406500D01*
X15500Y382500D02*
X23000Y390000D01*
X8000Y382500D02*
X15500D01*
X65500Y406000D02*
X71827Y399673D01*
X108390Y381390D02*
Y387862D01*
X106500Y379500D02*
X108390Y381390D01*
X106500Y355500D02*
Y379500D01*
Y355500D02*
X107500Y354500D01*
Y351847D02*
Y354500D01*
X124138Y419358D02*
X141102D01*
X124138Y417390D02*
X133110D01*
X101000Y327500D02*
Y379000D01*
Y327500D02*
X124500Y304000D01*
X131154D02*
X131653Y303500D01*
X128000Y262500D02*
Y304000D01*
X124500D02*
X128000D01*
X131154D01*
X107500Y351847D02*
X112346D01*
X112500Y352000D01*
X117500Y347000D01*
Y314500D02*
Y347000D01*
X72358Y401642D02*
X78862D01*
X72890Y403610D02*
X78862D01*
X73421Y405579D02*
X78862D01*
X73953Y407547D02*
X78862D01*
X71827Y399673D02*
X78862D01*
X64766Y409234D02*
X72358Y401642D01*
X23000Y406500D02*
X25734Y409234D01*
X64766D01*
X18000Y412000D02*
X20900Y414900D01*
X66600D01*
X73953Y407547D01*
X17500Y408000D02*
X22500Y413000D01*
X66000D01*
X73421Y405579D01*
X20500Y407500D02*
X24000Y411000D01*
X65500D01*
X72890Y403610D01*
X296500Y411500D02*
Y417500D01*
X288000Y429000D02*
X291000Y426000D01*
Y423000D02*
X296500Y417500D01*
X291000Y423000D02*
Y426000D01*
X214000Y372500D02*
X233500D01*
X244500Y405000D02*
X245500Y406000D01*
X244500Y342500D02*
Y405000D01*
X245500Y406000D02*
X271500D01*
X278500Y388500D02*
X282000D01*
X310244Y455500D02*
X311744D01*
X299500D02*
X303757D01*
X294705Y450705D02*
X299500Y455500D01*
X284000Y262500D02*
Y295000D01*
X254000Y287500D02*
Y333000D01*
X244500Y342500D02*
X254000Y333000D01*
X284000Y372500D02*
X292000D01*
X248000D02*
X284000D01*
Y309000D02*
Y372500D01*
X354000Y390000D02*
X354500Y390500D01*
Y400500D01*
X347453Y407547D02*
X354500Y400500D01*
X330138Y407547D02*
X347453D01*
X341500Y387500D02*
X344000Y390000D01*
X341500Y360000D02*
Y387500D01*
X338500Y357000D02*
X341500Y360000D01*
X320000Y357000D02*
X338500D01*
X316500Y360500D02*
X320000Y357000D01*
X316500Y360500D02*
Y371000D01*
X246847Y435653D02*
Y453000D01*
Y435653D02*
X253500Y429000D01*
X288000D01*
X316500Y411000D02*
X317500Y410000D01*
Y405500D02*
Y410000D01*
Y405500D02*
X319390Y403610D01*
X330138D01*
X302000Y400500D02*
Y419000D01*
X299500Y398000D02*
X302000Y400500D01*
X293295Y398000D02*
X299500D01*
X293000Y397705D02*
X293295Y398000D01*
X294705Y426295D02*
Y433138D01*
Y426295D02*
X302000Y419000D01*
X300610Y424890D02*
X305000Y420500D01*
Y402000D02*
Y420500D01*
Y402000D02*
X307000Y400000D01*
X300610Y424890D02*
Y433138D01*
X318327Y428000D02*
Y433138D01*
X309500Y395736D02*
X318764D01*
X284862D02*
X309500D01*
Y419173D02*
X318327Y428000D01*
X309500Y395736D02*
Y419173D01*
X318327Y439000D02*
Y445083D01*
Y433138D02*
Y439000D01*
X299000D02*
X318327D01*
X284862Y397705D02*
X293000D01*
X270622Y397500D02*
X270826Y397705D01*
X284862D01*
X272256Y439000D02*
X276500D01*
X282362Y433138D01*
X292736D01*
X282000Y388500D02*
X284862Y391362D01*
Y395736D01*
X322264Y373992D02*
X322500Y373756D01*
X294705Y433138D02*
Y450705D01*
X318327Y445083D02*
X318744Y445500D01*
X347102Y419358D02*
X347244Y419500D01*
X318764Y395736D02*
X322500Y392000D01*
X322264Y391764D02*
X322500Y392000D01*
X322264Y387862D02*
Y391764D01*
Y373992D02*
Y387862D01*
X292736Y433138D02*
Y435764D01*
X289500Y439000D02*
X292736Y435764D01*
X320295Y433138D02*
Y437795D01*
X321500Y439000D01*
X339110Y417390D02*
X341000Y415500D01*
X320295Y380795D02*
Y387862D01*
X317000Y377500D02*
X320295Y380795D01*
X214500Y412000D02*
X224000D01*
X214000Y412500D02*
X214500Y412000D01*
X223500Y404000D02*
Y408000D01*
X222000Y402500D02*
X223500Y404000D01*
X214000Y402500D02*
X222000D01*
X226500Y396500D02*
Y407500D01*
X222500Y392500D02*
X226500Y396500D01*
X214000Y392500D02*
X222500D01*
X229000Y390000D02*
Y406500D01*
X221500Y382500D02*
X229000Y390000D01*
X214000Y382500D02*
X221500D01*
X271500Y406000D02*
X277827Y399673D01*
X314390Y381390D02*
Y387862D01*
X312500Y379500D02*
X314390Y381390D01*
X312500Y355500D02*
Y379500D01*
Y355500D02*
X313500Y354500D01*
Y351847D02*
Y354500D01*
X330138Y419358D02*
X347102D01*
X330138Y417390D02*
X339110D01*
X307000Y327500D02*
Y379000D01*
Y327500D02*
X330500Y304000D01*
X337154D02*
X337653Y303500D01*
X334000Y262500D02*
Y304000D01*
X330500D02*
X334000D01*
X337154D01*
X313500Y351847D02*
X318347D01*
X318500Y352000D01*
X323500Y347000D01*
Y314500D02*
Y347000D01*
X278358Y401642D02*
X284862D01*
X278890Y403610D02*
X284862D01*
X279421Y405579D02*
X284862D01*
X279953Y407547D02*
X284862D01*
X277827Y399673D02*
X284862D01*
X270766Y409234D02*
X278358Y401642D01*
X229000Y406500D02*
X231734Y409234D01*
X270766D01*
X224000Y412000D02*
X226900Y414900D01*
X272600D01*
X279953Y407547D01*
X223500Y408000D02*
X228500Y413000D01*
X272000D01*
X279421Y405579D01*
X226500Y407500D02*
X230000Y411000D01*
X271500D01*
X278890Y403610D01*
D18*
X184000Y198000D02*
X198000D01*
X157653D02*
X184000D01*
X105745Y194755D02*
Y201000D01*
X101000D02*
Y209000D01*
X102000Y210000D01*
X163000Y97000D02*
Y144000D01*
Y97000D02*
X176500Y83500D01*
X155000Y152000D02*
X163000Y144000D01*
X149000Y152000D02*
X155000D01*
X141244Y159756D02*
X149000Y152000D01*
X141244Y159756D02*
Y165000D01*
X105745Y194755D02*
X109500Y191000D01*
X112744D01*
X140500Y165744D02*
X141244Y165000D01*
X140500Y165744D02*
Y201000D01*
X105745D02*
X137257D01*
X155000Y200654D02*
X157653Y198000D01*
X155000Y207347D02*
X155654Y208000D01*
X198000D01*
X154347D02*
X155000Y207347D01*
X151000Y208000D02*
X154347D01*
X149000Y210000D02*
X151000Y208000D01*
X102000Y210000D02*
X149000D01*
X116500Y107500D02*
Y113744D01*
X107500Y84000D02*
Y90654D01*
X72500Y122000D02*
Y127244D01*
X55500Y143000D02*
X61378D01*
X55500Y184500D02*
X60744D01*
X146756Y165000D02*
X153000D01*
X118256Y191000D02*
X123500D01*
X390000Y198000D02*
X404000D01*
X363653D02*
X390000D01*
X311744Y194755D02*
Y201000D01*
X307000D02*
Y209000D01*
X308000Y210000D01*
X369000Y97000D02*
Y144000D01*
Y97000D02*
X382500Y83500D01*
X361000Y152000D02*
X369000Y144000D01*
X355000Y152000D02*
X361000D01*
X347244Y159756D02*
X355000Y152000D01*
X347244Y159756D02*
Y165000D01*
X311744Y194755D02*
X315500Y191000D01*
X318744D01*
X346500Y165744D02*
X347244Y165000D01*
X346500Y165744D02*
Y201000D01*
X311744D02*
X343257D01*
X361000Y200654D02*
X363653Y198000D01*
X361000Y207347D02*
X361653Y208000D01*
X404000D01*
X360347D02*
X361000Y207347D01*
X357000Y208000D02*
X360347D01*
X355000Y210000D02*
X357000Y208000D01*
X308000Y210000D02*
X355000D01*
X322500Y107500D02*
Y113744D01*
X313500Y84000D02*
Y90654D01*
X278500Y122000D02*
Y127244D01*
X261500Y143000D02*
X267378D01*
X261500Y184500D02*
X266744D01*
X352756Y165000D02*
X359000D01*
X324256Y191000D02*
X329500D01*
X184000Y452500D02*
X198000D01*
X157653D02*
X184000D01*
X105745Y449256D02*
Y455500D01*
X101000D02*
Y463500D01*
X102000Y464500D01*
X163000Y351500D02*
Y398500D01*
Y351500D02*
X176500Y338000D01*
X155000Y406500D02*
X163000Y398500D01*
X149000Y406500D02*
X155000D01*
X141244Y414256D02*
X149000Y406500D01*
X141244Y414256D02*
Y419500D01*
X105745Y449256D02*
X109500Y445500D01*
X112744D01*
X140500Y420244D02*
X141244Y419500D01*
X140500Y420244D02*
Y455500D01*
X105745D02*
X137257D01*
X155000Y455154D02*
X157653Y452500D01*
X155000Y461846D02*
X155654Y462500D01*
X198000D01*
X154347D02*
X155000Y461846D01*
X151000Y462500D02*
X154347D01*
X149000Y464500D02*
X151000Y462500D01*
X102000Y464500D02*
X149000D01*
X116500Y362000D02*
Y368244D01*
X107500Y338500D02*
Y345153D01*
X72500Y376500D02*
Y381744D01*
X55500Y397500D02*
X61378D01*
X55500Y439000D02*
X60744D01*
X146756Y419500D02*
X153000D01*
X118256Y445500D02*
X123500D01*
X390000Y452500D02*
X404000D01*
X363653D02*
X390000D01*
X311744Y449256D02*
Y455500D01*
X307000D02*
Y463500D01*
X308000Y464500D01*
X369000Y351500D02*
Y398500D01*
Y351500D02*
X382500Y338000D01*
X361000Y406500D02*
X369000Y398500D01*
X355000Y406500D02*
X361000D01*
X347244Y414256D02*
X355000Y406500D01*
X347244Y414256D02*
Y419500D01*
X311744Y449256D02*
X315500Y445500D01*
X318744D01*
X346500Y420244D02*
X347244Y419500D01*
X346500Y420244D02*
Y455500D01*
X311744D02*
X343257D01*
X361000Y455154D02*
X363653Y452500D01*
X361000Y461846D02*
X361653Y462500D01*
X404000D01*
X360347D02*
X361000Y461846D01*
X357000Y462500D02*
X360347D01*
X355000Y464500D02*
X357000Y462500D01*
X308000Y464500D02*
X355000D01*
X322500Y362000D02*
Y368244D01*
X313500Y338500D02*
Y345153D01*
X278500Y376500D02*
Y381744D01*
X261500Y397500D02*
X267378D01*
X261500Y439000D02*
X266744D01*
X352756Y419500D02*
X359000D01*
X324256Y445500D02*
X329500D01*
D19*
X185500Y178000D02*
X186500D01*
X184000Y180500D02*
Y198000D01*
Y180500D02*
X186500Y178000D01*
X198000D01*
X184000Y176500D02*
X185500Y178000D01*
X184000Y171500D02*
Y176500D01*
Y171500D02*
X187500Y168000D01*
X198000D01*
X29000Y36000D02*
X30744Y37744D01*
X174000Y83500D02*
X176500D01*
X173500Y84000D02*
X174000Y83500D01*
X168000Y78500D02*
X173500Y84000D01*
X168000Y66500D02*
Y78500D01*
Y66500D02*
X173000Y61500D01*
Y58500D02*
Y61500D01*
X37000Y43756D02*
Y49000D01*
X159500Y192000D02*
X159744Y192244D01*
X165500D01*
X179756D02*
X180000Y192000D01*
X173500Y192244D02*
X179756D01*
X173500Y186500D02*
Y192244D01*
X165500Y186500D02*
Y192244D01*
X186500Y118000D02*
X198000D01*
X182000Y122500D02*
X186500Y118000D01*
X171000Y122500D02*
X182000D01*
X197500Y147500D02*
X198000Y148000D01*
X170500Y147500D02*
X197500D01*
X167757Y144757D02*
X170500Y147500D01*
X167757Y122500D02*
Y144757D01*
X176500Y71500D02*
Y77988D01*
X138347Y49000D02*
X144000D01*
X80500Y23000D02*
X118500D01*
X68000D02*
X75000D01*
X64500Y26500D02*
X68000Y23000D01*
X69000D02*
X75000D01*
X68000Y22000D02*
X69000Y23000D01*
X51000Y28500D02*
X55000Y32500D01*
X44500Y28500D02*
X51000D01*
X35256Y37744D02*
X44500Y28500D01*
X30744Y37744D02*
X35256D01*
X21000Y28000D02*
X29000Y36000D01*
X8000Y28000D02*
X21000D01*
X68000Y8000D02*
Y22000D01*
X138500Y22500D02*
X167000Y51000D01*
X138000Y22000D02*
X138500Y22500D01*
X118000D02*
X118500Y23000D01*
X118000Y8000D02*
Y22500D01*
X138000Y8000D02*
Y22000D01*
X176500Y83500D02*
Y86500D01*
X178000Y88000D01*
X198000D01*
X391500Y178000D02*
X392500D01*
X390000Y180500D02*
Y198000D01*
Y180500D02*
X392500Y178000D01*
X404000D01*
X390000Y176500D02*
X391500Y178000D01*
X390000Y171500D02*
Y176500D01*
Y171500D02*
X393500Y168000D01*
X404000D01*
X235000Y36000D02*
X236744Y37744D01*
X380000Y83500D02*
X382500D01*
X379500Y84000D02*
X380000Y83500D01*
X374000Y78500D02*
X379500Y84000D01*
X374000Y66500D02*
Y78500D01*
Y66500D02*
X379000Y61500D01*
Y58500D02*
Y61500D01*
X243000Y43756D02*
Y49000D01*
X365500Y192000D02*
X365744Y192244D01*
X371500D01*
X385756D02*
X386000Y192000D01*
X379500Y192244D02*
X385756D01*
X379500Y186500D02*
Y192244D01*
X371500Y186500D02*
Y192244D01*
X392500Y118000D02*
X404000D01*
X388000Y122500D02*
X392500Y118000D01*
X377000Y122500D02*
X388000D01*
X403500Y147500D02*
X404000Y148000D01*
X376500Y147500D02*
X403500D01*
X373757Y144757D02*
X376500Y147500D01*
X373757Y122500D02*
Y144757D01*
X382500Y71500D02*
Y77988D01*
X344346Y49000D02*
X350000D01*
X286500Y23000D02*
X324500D01*
X274000D02*
X281000D01*
X270500Y26500D02*
X274000Y23000D01*
X275000D02*
X281000D01*
X274000Y22000D02*
X275000Y23000D01*
X257000Y28500D02*
X261000Y32500D01*
X250500Y28500D02*
X257000D01*
X241256Y37744D02*
X250500Y28500D01*
X236744Y37744D02*
X241256D01*
X227000Y28000D02*
X235000Y36000D01*
X214000Y28000D02*
X227000D01*
X274000Y8000D02*
Y22000D01*
X344500Y22500D02*
X373000Y51000D01*
X344000Y22000D02*
X344500Y22500D01*
X324000D02*
X324500Y23000D01*
X324000Y8000D02*
Y22500D01*
X344000Y8000D02*
Y22000D01*
X382500Y83500D02*
Y86500D01*
X384000Y88000D01*
X404000D01*
X185500Y432500D02*
X186500D01*
X184000Y435000D02*
Y452500D01*
Y435000D02*
X186500Y432500D01*
X198000D01*
X184000Y431000D02*
X185500Y432500D01*
X184000Y426000D02*
Y431000D01*
Y426000D02*
X187500Y422500D01*
X198000D01*
X29000Y290500D02*
X30744Y292244D01*
X174000Y338000D02*
X176500D01*
X173500Y338500D02*
X174000Y338000D01*
X168000Y333000D02*
X173500Y338500D01*
X168000Y321000D02*
Y333000D01*
Y321000D02*
X173000Y316000D01*
Y313000D02*
Y316000D01*
X37000Y298256D02*
Y303500D01*
X159500Y446500D02*
X159744Y446744D01*
X165500D01*
X179756D02*
X180000Y446500D01*
X173500Y446744D02*
X179756D01*
X173500Y441000D02*
Y446744D01*
X165500Y441000D02*
Y446744D01*
X186500Y372500D02*
X198000D01*
X182000Y377000D02*
X186500Y372500D01*
X171000Y377000D02*
X182000D01*
X197500Y402000D02*
X198000Y402500D01*
X170500Y402000D02*
X197500D01*
X167757Y399257D02*
X170500Y402000D01*
X167757Y377000D02*
Y399257D01*
X176500Y326000D02*
Y332488D01*
X138347Y303500D02*
X144000D01*
X80500Y277500D02*
X118500D01*
X68000D02*
X75000D01*
X64500Y281000D02*
X68000Y277500D01*
X69000D02*
X75000D01*
X68000Y276500D02*
X69000Y277500D01*
X51000Y283000D02*
X55000Y287000D01*
X44500Y283000D02*
X51000D01*
X35256Y292244D02*
X44500Y283000D01*
X30744Y292244D02*
X35256D01*
X21000Y282500D02*
X29000Y290500D01*
X8000Y282500D02*
X21000D01*
X68000Y262500D02*
Y276500D01*
X138500Y277000D02*
X167000Y305500D01*
X138000Y276500D02*
X138500Y277000D01*
X118000D02*
X118500Y277500D01*
X118000Y262500D02*
Y277000D01*
X138000Y262500D02*
Y276500D01*
X176500Y338000D02*
Y341000D01*
X178000Y342500D01*
X198000D01*
X391500Y432500D02*
X392500D01*
X390000Y435000D02*
Y452500D01*
Y435000D02*
X392500Y432500D01*
X404000D01*
X390000Y431000D02*
X391500Y432500D01*
X390000Y426000D02*
Y431000D01*
Y426000D02*
X393500Y422500D01*
X404000D01*
X235000Y290500D02*
X236744Y292244D01*
X380000Y338000D02*
X382500D01*
X379500Y338500D02*
X380000Y338000D01*
X374000Y333000D02*
X379500Y338500D01*
X374000Y321000D02*
Y333000D01*
Y321000D02*
X379000Y316000D01*
Y313000D02*
Y316000D01*
X243000Y298256D02*
Y303500D01*
X365500Y446500D02*
X365744Y446744D01*
X371500D01*
X385756D02*
X386000Y446500D01*
X379500Y446744D02*
X385756D01*
X379500Y441000D02*
Y446744D01*
X371500Y441000D02*
Y446744D01*
X392500Y372500D02*
X404000D01*
X388000Y377000D02*
X392500Y372500D01*
X377000Y377000D02*
X388000D01*
X403500Y402000D02*
X404000Y402500D01*
X376500Y402000D02*
X403500D01*
X373757Y399257D02*
X376500Y402000D01*
X373757Y377000D02*
Y399257D01*
X382500Y326000D02*
Y332488D01*
X344346Y303500D02*
X350000D01*
X286500Y277500D02*
X324500D01*
X274000D02*
X281000D01*
X270500Y281000D02*
X274000Y277500D01*
X275000D02*
X281000D01*
X274000Y276500D02*
X275000Y277500D01*
X257000Y283000D02*
X261000Y287000D01*
X250500Y283000D02*
X257000D01*
X241256Y292244D02*
X250500Y283000D01*
X236744Y292244D02*
X241256D01*
X227000Y282500D02*
X235000Y290500D01*
X214000Y282500D02*
X227000D01*
X274000Y262500D02*
Y276500D01*
X344500Y277000D02*
X373000Y305500D01*
X344000Y276500D02*
X344500Y277000D01*
X324000D02*
X324500Y277500D01*
X324000Y262500D02*
Y277000D01*
X344000Y262500D02*
Y276500D01*
X382500Y338000D02*
Y341000D01*
X384000Y342500D01*
X404000D01*
D20*
X28500Y144500D02*
X30400Y142600D01*
Y109900D02*
Y142600D01*
X28500Y108000D02*
X30400Y109900D01*
X33500Y145500D02*
X34100Y144900D01*
Y89600D02*
Y144900D01*
X32500Y88000D02*
X34100Y89600D01*
X33500Y145500D02*
Y148000D01*
X31250Y152134D02*
X31500Y151884D01*
Y150500D02*
Y151884D01*
X30750Y144750D02*
X32500Y143000D01*
Y100000D02*
Y143000D01*
X40264Y170764D02*
X78862D01*
X36000Y63000D02*
Y151000D01*
X21000Y48000D02*
X36000Y63000D01*
X8000Y108000D02*
X28500D01*
X30500Y98000D02*
X32500Y100000D01*
X8000Y98000D02*
X30500D01*
X8000Y88000D02*
X32500D01*
X8000Y48000D02*
X21000D01*
X34500Y163500D02*
X35000Y163000D01*
X34500Y163500D02*
Y164500D01*
X34858Y164858D01*
X78862D01*
X32827Y166827D02*
X78862D01*
X31500Y165500D02*
X32827Y166827D01*
X31500Y163000D02*
Y165500D01*
X30295Y168795D02*
X40023D01*
X40068Y168750D01*
X78817D01*
X78862Y168795D01*
X40500Y171000D02*
X41000D01*
X40264Y170764D02*
X40500Y171000D01*
X141500Y81000D02*
X194500Y28000D01*
X143100Y81920D02*
X185500Y39520D01*
X144500Y82500D02*
X179000Y48000D01*
X51682Y25000D02*
X96000Y69318D01*
X40000Y25000D02*
X51682D01*
X51500Y22500D02*
X98000Y69000D01*
X24000Y22500D02*
X51500D01*
X52000Y20500D02*
X95750Y64250D01*
X30000Y20500D02*
X52000D01*
X100500Y64000D02*
Y67500D01*
X95250Y58750D02*
X100500Y64000D01*
X92750Y58750D02*
X95250D01*
X95750Y64250D02*
X96500Y63500D01*
X96000D02*
X96500D01*
X58000Y24000D02*
X92750Y58750D01*
X58000Y8000D02*
Y24000D01*
X28000Y18500D02*
X30000Y20500D01*
X98000Y69000D02*
Y125500D01*
X96000Y69318D02*
Y126500D01*
X92000Y77500D02*
Y122000D01*
X94000Y72000D02*
Y122500D01*
X92500Y70500D02*
X94000Y72000D01*
X88705Y127795D02*
X94000Y122500D01*
X28000Y8000D02*
Y18500D01*
X18000Y8000D02*
Y16500D01*
X24000Y22500D01*
X86736Y127264D02*
X92000Y122000D01*
X86736Y127264D02*
Y133362D01*
X88705Y127795D02*
Y133362D01*
X96000Y126500D02*
X98547Y129047D01*
Y133362D01*
X98000Y125500D02*
X100516Y128016D01*
Y133362D01*
X33654Y198000D02*
X34154Y198500D01*
X8000Y198000D02*
X33654D01*
X124138Y147142D02*
X136358D01*
X144500Y139000D01*
Y82500D02*
Y139000D01*
X179000Y48000D02*
X198000D01*
X124138Y145173D02*
X135827D01*
X143100Y137900D01*
Y81920D02*
Y137900D01*
X185500Y39500D02*
Y39520D01*
Y39500D02*
X196500D01*
X198000Y38000D01*
X124138Y143205D02*
X135795D01*
X141500Y137500D01*
Y81000D02*
Y137500D01*
X194500Y28000D02*
X198000D01*
X28500Y144500D02*
Y151000D01*
X31000Y150000D02*
X31500Y150500D01*
X30750Y150000D02*
X31000D01*
X30750Y144750D02*
Y150000D01*
X27500Y163100D02*
Y166000D01*
X30295Y168795D01*
X234500Y144500D02*
X236400Y142600D01*
Y109900D02*
Y142600D01*
X234500Y108000D02*
X236400Y109900D01*
X239500Y145500D02*
X240100Y144900D01*
Y89600D02*
Y144900D01*
X238500Y88000D02*
X240100Y89600D01*
X239500Y145500D02*
Y148000D01*
X237250Y152134D02*
X237500Y151884D01*
Y150500D02*
Y151884D01*
X236750Y144750D02*
X238500Y143000D01*
Y100000D02*
Y143000D01*
X246264Y170764D02*
X284862D01*
X242000Y63000D02*
Y151000D01*
X227000Y48000D02*
X242000Y63000D01*
X214000Y108000D02*
X234500D01*
X236500Y98000D02*
X238500Y100000D01*
X214000Y98000D02*
X236500D01*
X214000Y88000D02*
X238500D01*
X214000Y48000D02*
X227000D01*
X240500Y163500D02*
X241000Y163000D01*
X240500Y163500D02*
Y164500D01*
X240858Y164858D01*
X284862D01*
X238827Y166827D02*
X284862D01*
X237500Y165500D02*
X238827Y166827D01*
X237500Y163000D02*
Y165500D01*
X236295Y168795D02*
X246023D01*
X246068Y168750D01*
X284817D01*
X284862Y168795D01*
X246500Y171000D02*
X247000D01*
X246264Y170764D02*
X246500Y171000D01*
X347500Y81000D02*
X400500Y28000D01*
X349100Y81920D02*
X391500Y39520D01*
X350500Y82500D02*
X385000Y48000D01*
X257682Y25000D02*
X302000Y69318D01*
X246000Y25000D02*
X257682D01*
X257500Y22500D02*
X304000Y69000D01*
X230000Y22500D02*
X257500D01*
X258000Y20500D02*
X301750Y64250D01*
X236000Y20500D02*
X258000D01*
X306500Y64000D02*
Y67500D01*
X301250Y58750D02*
X306500Y64000D01*
X298750Y58750D02*
X301250D01*
X301750Y64250D02*
X302500Y63500D01*
X302000D02*
X302500D01*
X264000Y24000D02*
X298750Y58750D01*
X264000Y8000D02*
Y24000D01*
X234000Y18500D02*
X236000Y20500D01*
X304000Y69000D02*
Y125500D01*
X302000Y69318D02*
Y126500D01*
X298000Y77500D02*
Y122000D01*
X300000Y72000D02*
Y122500D01*
X298500Y70500D02*
X300000Y72000D01*
X294705Y127795D02*
X300000Y122500D01*
X234000Y8000D02*
Y18500D01*
X224000Y8000D02*
Y16500D01*
X230000Y22500D01*
X292736Y127264D02*
X298000Y122000D01*
X292736Y127264D02*
Y133362D01*
X294705Y127795D02*
Y133362D01*
X302000Y126500D02*
X304547Y129047D01*
Y133362D01*
X304000Y125500D02*
X306516Y128016D01*
Y133362D01*
X239653Y198000D02*
X240154Y198500D01*
X214000Y198000D02*
X239653D01*
X330138Y147142D02*
X342358D01*
X350500Y139000D01*
Y82500D02*
Y139000D01*
X385000Y48000D02*
X404000D01*
X330138Y145173D02*
X341827D01*
X349100Y137900D01*
Y81920D02*
Y137900D01*
X391500Y39500D02*
Y39520D01*
Y39500D02*
X402500D01*
X404000Y38000D01*
X330138Y143205D02*
X341795D01*
X347500Y137500D01*
Y81000D02*
Y137500D01*
X400500Y28000D02*
X404000D01*
X234500Y144500D02*
Y151000D01*
X237000Y150000D02*
X237500Y150500D01*
X236750Y150000D02*
X237000D01*
X236750Y144750D02*
Y150000D01*
X233500Y163100D02*
Y166000D01*
X236295Y168795D01*
X28500Y399000D02*
X30400Y397100D01*
Y364400D02*
Y397100D01*
X28500Y362500D02*
X30400Y364400D01*
X33500Y400000D02*
X34100Y399400D01*
Y344100D02*
Y399400D01*
X32500Y342500D02*
X34100Y344100D01*
X33500Y400000D02*
Y402500D01*
X31250Y406634D02*
X31500Y406384D01*
Y405000D02*
Y406384D01*
X30750Y399250D02*
X32500Y397500D01*
Y354500D02*
Y397500D01*
X40264Y425264D02*
X78862D01*
X36000Y317500D02*
Y405500D01*
X21000Y302500D02*
X36000Y317500D01*
X8000Y362500D02*
X28500D01*
X30500Y352500D02*
X32500Y354500D01*
X8000Y352500D02*
X30500D01*
X8000Y342500D02*
X32500D01*
X8000Y302500D02*
X21000D01*
X34500Y418000D02*
X35000Y417500D01*
X34500Y418000D02*
Y419000D01*
X34858Y419358D01*
X78862D01*
X32827Y421327D02*
X78862D01*
X31500Y420000D02*
X32827Y421327D01*
X31500Y417500D02*
Y420000D01*
X30295Y423295D02*
X40023D01*
X40068Y423250D01*
X78817D01*
X78862Y423295D01*
X40500Y425500D02*
X41000D01*
X40264Y425264D02*
X40500Y425500D01*
X141500Y335500D02*
X194500Y282500D01*
X143100Y336420D02*
X185500Y294020D01*
X144500Y337000D02*
X179000Y302500D01*
X51682Y279500D02*
X96000Y323818D01*
X40000Y279500D02*
X51682D01*
X51500Y277000D02*
X98000Y323500D01*
X24000Y277000D02*
X51500D01*
X52000Y275000D02*
X95750Y318750D01*
X30000Y275000D02*
X52000D01*
X100500Y318500D02*
Y322000D01*
X95250Y313250D02*
X100500Y318500D01*
X92750Y313250D02*
X95250D01*
X95750Y318750D02*
X96500Y318000D01*
X96000D02*
X96500D01*
X58000Y278500D02*
X92750Y313250D01*
X58000Y262500D02*
Y278500D01*
X28000Y273000D02*
X30000Y275000D01*
X98000Y323500D02*
Y380000D01*
X96000Y323818D02*
Y381000D01*
X92000Y332000D02*
Y376500D01*
X94000Y326500D02*
Y377000D01*
X92500Y325000D02*
X94000Y326500D01*
X88705Y382295D02*
X94000Y377000D01*
X28000Y262500D02*
Y273000D01*
X18000Y262500D02*
Y271000D01*
X24000Y277000D01*
X86736Y381764D02*
X92000Y376500D01*
X86736Y381764D02*
Y387862D01*
X88705Y382295D02*
Y387862D01*
X96000Y381000D02*
X98547Y383547D01*
Y387862D01*
X98000Y380000D02*
X100516Y382516D01*
Y387862D01*
X33654Y452500D02*
X34154Y453000D01*
X8000Y452500D02*
X33654D01*
X124138Y401642D02*
X136358D01*
X144500Y393500D01*
Y337000D02*
Y393500D01*
X179000Y302500D02*
X198000D01*
X124138Y399673D02*
X135827D01*
X143100Y392400D01*
Y336420D02*
Y392400D01*
X185500Y294000D02*
Y294020D01*
Y294000D02*
X196500D01*
X198000Y292500D01*
X124138Y397705D02*
X135795D01*
X141500Y392000D01*
Y335500D02*
Y392000D01*
X194500Y282500D02*
X198000D01*
X28500Y399000D02*
Y405500D01*
X31000Y404500D02*
X31500Y405000D01*
X30750Y404500D02*
X31000D01*
X30750Y399250D02*
Y404500D01*
X27500Y417600D02*
Y420500D01*
X30295Y423295D01*
X234500Y399000D02*
X236400Y397100D01*
Y364400D02*
Y397100D01*
X234500Y362500D02*
X236400Y364400D01*
X239500Y400000D02*
X240100Y399400D01*
Y344100D02*
Y399400D01*
X238500Y342500D02*
X240100Y344100D01*
X239500Y400000D02*
Y402500D01*
X237250Y406634D02*
X237500Y406384D01*
Y405000D02*
Y406384D01*
X236750Y399250D02*
X238500Y397500D01*
Y354500D02*
Y397500D01*
X246264Y425264D02*
X284862D01*
X242000Y317500D02*
Y405500D01*
X227000Y302500D02*
X242000Y317500D01*
X214000Y362500D02*
X234500D01*
X236500Y352500D02*
X238500Y354500D01*
X214000Y352500D02*
X236500D01*
X214000Y342500D02*
X238500D01*
X214000Y302500D02*
X227000D01*
X240500Y418000D02*
X241000Y417500D01*
X240500Y418000D02*
Y419000D01*
X240858Y419358D01*
X284862D01*
X238827Y421327D02*
X284862D01*
X237500Y420000D02*
X238827Y421327D01*
X237500Y417500D02*
Y420000D01*
X236295Y423295D02*
X246023D01*
X246068Y423250D01*
X284817D01*
X284862Y423295D01*
X246500Y425500D02*
X247000D01*
X246264Y425264D02*
X246500Y425500D01*
X347500Y335500D02*
X400500Y282500D01*
X349100Y336420D02*
X391500Y294020D01*
X350500Y337000D02*
X385000Y302500D01*
X257682Y279500D02*
X302000Y323818D01*
X246000Y279500D02*
X257682D01*
X257500Y277000D02*
X304000Y323500D01*
X230000Y277000D02*
X257500D01*
X258000Y275000D02*
X301750Y318750D01*
X236000Y275000D02*
X258000D01*
X306500Y318500D02*
Y322000D01*
X301250Y313250D02*
X306500Y318500D01*
X298750Y313250D02*
X301250D01*
X301750Y318750D02*
X302500Y318000D01*
X302000D02*
X302500D01*
X264000Y278500D02*
X298750Y313250D01*
X264000Y262500D02*
Y278500D01*
X234000Y273000D02*
X236000Y275000D01*
X304000Y323500D02*
Y380000D01*
X302000Y323818D02*
Y381000D01*
X298000Y332000D02*
Y376500D01*
X300000Y326500D02*
Y377000D01*
X298500Y325000D02*
X300000Y326500D01*
X294705Y382295D02*
X300000Y377000D01*
X234000Y262500D02*
Y273000D01*
X224000Y262500D02*
Y271000D01*
X230000Y277000D01*
X292736Y381764D02*
X298000Y376500D01*
X292736Y381764D02*
Y387862D01*
X294705Y382295D02*
Y387862D01*
X302000Y381000D02*
X304547Y383547D01*
Y387862D01*
X304000Y380000D02*
X306516Y382516D01*
Y387862D01*
X239653Y452500D02*
X240154Y453000D01*
X214000Y452500D02*
X239653D01*
X330138Y401642D02*
X342358D01*
X350500Y393500D01*
Y337000D02*
Y393500D01*
X385000Y302500D02*
X404000D01*
X330138Y399673D02*
X341827D01*
X349100Y392400D01*
Y336420D02*
Y392400D01*
X391500Y294000D02*
Y294020D01*
Y294000D02*
X402500D01*
X404000Y292500D01*
X330138Y397705D02*
X341795D01*
X347500Y392000D01*
Y335500D02*
Y392000D01*
X400500Y282500D02*
X404000D01*
X234500Y399000D02*
Y405500D01*
X237000Y404500D02*
X237500Y405000D01*
X236750Y404500D02*
X237000D01*
X236750Y399250D02*
Y404500D01*
X233500Y417600D02*
Y420500D01*
X236295Y423295D01*
D21*
X178000Y238000D02*
D03*
X28000D02*
D03*
X98000Y38000D02*
D03*
X384000Y238000D02*
D03*
X234000D02*
D03*
X304000Y38000D02*
D03*
X178000Y492500D02*
D03*
X28000D02*
D03*
X98000Y292500D02*
D03*
X384000Y492500D02*
D03*
X234000D02*
D03*
X304000Y292500D02*
D03*
D22*
X198000Y28000D02*
D03*
Y38000D02*
D03*
Y48000D02*
D03*
Y58000D02*
D03*
Y68000D02*
D03*
Y78000D02*
D03*
Y88000D02*
D03*
Y98000D02*
D03*
Y108000D02*
D03*
Y118000D02*
D03*
Y128000D02*
D03*
Y138000D02*
D03*
Y148000D02*
D03*
Y158000D02*
D03*
Y168000D02*
D03*
Y178000D02*
D03*
Y188000D02*
D03*
Y198000D02*
D03*
Y208000D02*
D03*
X8000Y28000D02*
D03*
Y38000D02*
D03*
Y48000D02*
D03*
Y58000D02*
D03*
Y68000D02*
D03*
Y78000D02*
D03*
Y88000D02*
D03*
Y98000D02*
D03*
Y108000D02*
D03*
Y118000D02*
D03*
Y128000D02*
D03*
Y138000D02*
D03*
Y148000D02*
D03*
Y158000D02*
D03*
Y168000D02*
D03*
Y178000D02*
D03*
Y188000D02*
D03*
Y198000D02*
D03*
Y208000D02*
D03*
X404000Y28000D02*
D03*
Y38000D02*
D03*
Y48000D02*
D03*
Y58000D02*
D03*
Y68000D02*
D03*
Y78000D02*
D03*
Y88000D02*
D03*
Y98000D02*
D03*
Y108000D02*
D03*
Y118000D02*
D03*
Y128000D02*
D03*
Y138000D02*
D03*
Y148000D02*
D03*
Y158000D02*
D03*
Y168000D02*
D03*
Y178000D02*
D03*
Y188000D02*
D03*
Y198000D02*
D03*
Y208000D02*
D03*
X214000Y28000D02*
D03*
Y38000D02*
D03*
Y48000D02*
D03*
Y58000D02*
D03*
Y68000D02*
D03*
Y78000D02*
D03*
Y88000D02*
D03*
Y98000D02*
D03*
Y108000D02*
D03*
Y118000D02*
D03*
Y128000D02*
D03*
Y138000D02*
D03*
Y148000D02*
D03*
Y158000D02*
D03*
Y168000D02*
D03*
Y178000D02*
D03*
Y188000D02*
D03*
Y198000D02*
D03*
Y208000D02*
D03*
X198000Y282500D02*
D03*
Y292500D02*
D03*
Y302500D02*
D03*
Y312500D02*
D03*
Y322500D02*
D03*
Y332500D02*
D03*
Y342500D02*
D03*
Y352500D02*
D03*
Y362500D02*
D03*
Y372500D02*
D03*
Y382500D02*
D03*
Y392500D02*
D03*
Y402500D02*
D03*
Y412500D02*
D03*
Y422500D02*
D03*
Y432500D02*
D03*
Y442500D02*
D03*
Y452500D02*
D03*
Y462500D02*
D03*
X8000Y282500D02*
D03*
Y292500D02*
D03*
Y302500D02*
D03*
Y312500D02*
D03*
Y322500D02*
D03*
Y332500D02*
D03*
Y342500D02*
D03*
Y352500D02*
D03*
Y362500D02*
D03*
Y372500D02*
D03*
Y382500D02*
D03*
Y392500D02*
D03*
Y402500D02*
D03*
Y412500D02*
D03*
Y422500D02*
D03*
Y432500D02*
D03*
Y442500D02*
D03*
Y452500D02*
D03*
Y462500D02*
D03*
X404000Y282500D02*
D03*
Y292500D02*
D03*
Y302500D02*
D03*
Y312500D02*
D03*
Y322500D02*
D03*
Y332500D02*
D03*
Y342500D02*
D03*
Y352500D02*
D03*
Y362500D02*
D03*
Y372500D02*
D03*
Y382500D02*
D03*
Y392500D02*
D03*
Y402500D02*
D03*
Y412500D02*
D03*
Y422500D02*
D03*
Y432500D02*
D03*
Y442500D02*
D03*
Y452500D02*
D03*
Y462500D02*
D03*
X214000Y282500D02*
D03*
Y292500D02*
D03*
Y302500D02*
D03*
Y312500D02*
D03*
Y322500D02*
D03*
Y332500D02*
D03*
Y342500D02*
D03*
Y352500D02*
D03*
Y362500D02*
D03*
Y372500D02*
D03*
Y382500D02*
D03*
Y392500D02*
D03*
Y402500D02*
D03*
Y412500D02*
D03*
Y422500D02*
D03*
Y432500D02*
D03*
Y442500D02*
D03*
Y452500D02*
D03*
Y462500D02*
D03*
D23*
X198000Y218000D02*
D03*
X8000D02*
D03*
X404000D02*
D03*
X214000D02*
D03*
X198000Y472500D02*
D03*
X8000D02*
D03*
X404000D02*
D03*
X214000D02*
D03*
D24*
X198000Y8000D02*
D03*
X188000D02*
D03*
X178000D02*
D03*
X168000D02*
D03*
X158000D02*
D03*
X148000D02*
D03*
X138000D02*
D03*
X128000D02*
D03*
X118000D02*
D03*
X108000D02*
D03*
X98000D02*
D03*
X88000D02*
D03*
X78000D02*
D03*
X68000D02*
D03*
X58000D02*
D03*
X48000D02*
D03*
X38000D02*
D03*
X28000D02*
D03*
X18000D02*
D03*
X404000D02*
D03*
X394000D02*
D03*
X384000D02*
D03*
X374000D02*
D03*
X364000D02*
D03*
X354000D02*
D03*
X344000D02*
D03*
X334000D02*
D03*
X324000D02*
D03*
X314000D02*
D03*
X304000D02*
D03*
X294000D02*
D03*
X284000D02*
D03*
X274000D02*
D03*
X264000D02*
D03*
X254000D02*
D03*
X244000D02*
D03*
X234000D02*
D03*
X224000D02*
D03*
X198000Y262500D02*
D03*
X188000D02*
D03*
X178000D02*
D03*
X168000D02*
D03*
X158000D02*
D03*
X148000D02*
D03*
X138000D02*
D03*
X128000D02*
D03*
X118000D02*
D03*
X108000D02*
D03*
X98000D02*
D03*
X88000D02*
D03*
X78000D02*
D03*
X68000D02*
D03*
X58000D02*
D03*
X48000D02*
D03*
X38000D02*
D03*
X28000D02*
D03*
X18000D02*
D03*
X404000D02*
D03*
X394000D02*
D03*
X384000D02*
D03*
X374000D02*
D03*
X364000D02*
D03*
X354000D02*
D03*
X344000D02*
D03*
X334000D02*
D03*
X324000D02*
D03*
X314000D02*
D03*
X304000D02*
D03*
X294000D02*
D03*
X284000D02*
D03*
X274000D02*
D03*
X264000D02*
D03*
X254000D02*
D03*
X244000D02*
D03*
X234000D02*
D03*
X224000D02*
D03*
D25*
X8000Y8000D02*
D03*
X214000D02*
D03*
X8000Y262500D02*
D03*
X214000D02*
D03*
D26*
X27500Y118000D02*
D03*
X31500Y152384D02*
D03*
X36000Y151000D02*
D03*
X33500Y148000D02*
D03*
X35000Y163000D02*
D03*
X31500D02*
D03*
X41000Y171000D02*
D03*
X173000Y58500D02*
D03*
X37000Y49000D02*
D03*
X159500Y192000D02*
D03*
X180000D02*
D03*
X173500Y186500D02*
D03*
X165500D02*
D03*
X176500Y71500D02*
D03*
X144000Y49000D02*
D03*
X80500Y23000D02*
D03*
X75000D02*
D03*
X64500Y26500D02*
D03*
X55000Y32500D02*
D03*
X48000Y33000D02*
D03*
X138500Y22500D02*
D03*
X118500Y23000D02*
D03*
X167000Y51000D02*
D03*
X96000Y63500D02*
D03*
X78000Y54500D02*
D03*
Y40500D02*
D03*
X40000Y25000D02*
D03*
X91500Y77500D02*
D03*
X100500Y67500D02*
D03*
X92500Y70500D02*
D03*
X86000Y118000D02*
D03*
X148000Y135500D02*
D03*
X138000D02*
D03*
X110500Y116500D02*
D03*
X42000Y118000D02*
D03*
X90500Y157000D02*
D03*
X110500Y156500D02*
D03*
X116500Y107500D02*
D03*
X107500Y84000D02*
D03*
X72500Y122000D02*
D03*
X55500Y143000D02*
D03*
Y184500D02*
D03*
X153000Y165000D02*
D03*
X123500Y191000D02*
D03*
X83500Y184500D02*
D03*
X93000D02*
D03*
X115500D02*
D03*
X135000Y161000D02*
D03*
X111000Y123000D02*
D03*
X101000Y145500D02*
D03*
Y124500D02*
D03*
X117500Y60000D02*
D03*
X28500Y151000D02*
D03*
X27500Y163100D02*
D03*
X233500Y118000D02*
D03*
X237500Y152384D02*
D03*
X242000Y151000D02*
D03*
X239500Y148000D02*
D03*
X241000Y163000D02*
D03*
X237500D02*
D03*
X247000Y171000D02*
D03*
X379000Y58500D02*
D03*
X243000Y49000D02*
D03*
X365500Y192000D02*
D03*
X386000D02*
D03*
X379500Y186500D02*
D03*
X371500D02*
D03*
X382500Y71500D02*
D03*
X350000Y49000D02*
D03*
X286500Y23000D02*
D03*
X281000D02*
D03*
X270500Y26500D02*
D03*
X261000Y32500D02*
D03*
X254000Y33000D02*
D03*
X344500Y22500D02*
D03*
X324500Y23000D02*
D03*
X373000Y51000D02*
D03*
X302000Y63500D02*
D03*
X284000Y54500D02*
D03*
Y40500D02*
D03*
X246000Y25000D02*
D03*
X297500Y77500D02*
D03*
X306500Y67500D02*
D03*
X298500Y70500D02*
D03*
X292000Y118000D02*
D03*
X354000Y135500D02*
D03*
X344000D02*
D03*
X316500Y116500D02*
D03*
X248000Y118000D02*
D03*
X296500Y157000D02*
D03*
X316500Y156500D02*
D03*
X322500Y107500D02*
D03*
X313500Y84000D02*
D03*
X278500Y122000D02*
D03*
X261500Y143000D02*
D03*
Y184500D02*
D03*
X359000Y165000D02*
D03*
X329500Y191000D02*
D03*
X289500Y184500D02*
D03*
X299000D02*
D03*
X321500D02*
D03*
X341000Y161000D02*
D03*
X317000Y123000D02*
D03*
X307000Y145500D02*
D03*
Y124500D02*
D03*
X323500Y60000D02*
D03*
X234500Y151000D02*
D03*
X233500Y163100D02*
D03*
X27500Y372500D02*
D03*
X31500Y406884D02*
D03*
X36000Y405500D02*
D03*
X33500Y402500D02*
D03*
X35000Y417500D02*
D03*
X31500D02*
D03*
X41000Y425500D02*
D03*
X173000Y313000D02*
D03*
X37000Y303500D02*
D03*
X159500Y446500D02*
D03*
X180000D02*
D03*
X173500Y441000D02*
D03*
X165500D02*
D03*
X176500Y326000D02*
D03*
X144000Y303500D02*
D03*
X80500Y277500D02*
D03*
X75000D02*
D03*
X64500Y281000D02*
D03*
X55000Y287000D02*
D03*
X48000Y287500D02*
D03*
X138500Y277000D02*
D03*
X118500Y277500D02*
D03*
X167000Y305500D02*
D03*
X96000Y318000D02*
D03*
X78000Y309000D02*
D03*
Y295000D02*
D03*
X40000Y279500D02*
D03*
X91500Y332000D02*
D03*
X100500Y322000D02*
D03*
X92500Y325000D02*
D03*
X86000Y372500D02*
D03*
X148000Y390000D02*
D03*
X138000D02*
D03*
X110500Y371000D02*
D03*
X42000Y372500D02*
D03*
X90500Y411500D02*
D03*
X110500Y411000D02*
D03*
X116500Y362000D02*
D03*
X107500Y338500D02*
D03*
X72500Y376500D02*
D03*
X55500Y397500D02*
D03*
Y439000D02*
D03*
X153000Y419500D02*
D03*
X123500Y445500D02*
D03*
X83500Y439000D02*
D03*
X93000D02*
D03*
X115500D02*
D03*
X135000Y415500D02*
D03*
X111000Y377500D02*
D03*
X101000Y400000D02*
D03*
Y379000D02*
D03*
X117500Y314500D02*
D03*
X28500Y405500D02*
D03*
X27500Y417600D02*
D03*
X233500Y372500D02*
D03*
X237500Y406884D02*
D03*
X242000Y405500D02*
D03*
X239500Y402500D02*
D03*
X241000Y417500D02*
D03*
X237500D02*
D03*
X247000Y425500D02*
D03*
X379000Y313000D02*
D03*
X243000Y303500D02*
D03*
X365500Y446500D02*
D03*
X386000D02*
D03*
X379500Y441000D02*
D03*
X371500D02*
D03*
X382500Y326000D02*
D03*
X350000Y303500D02*
D03*
X286500Y277500D02*
D03*
X281000D02*
D03*
X270500Y281000D02*
D03*
X261000Y287000D02*
D03*
X254000Y287500D02*
D03*
X344500Y277000D02*
D03*
X324500Y277500D02*
D03*
X373000Y305500D02*
D03*
X302000Y318000D02*
D03*
X284000Y309000D02*
D03*
Y295000D02*
D03*
X246000Y279500D02*
D03*
X297500Y332000D02*
D03*
X306500Y322000D02*
D03*
X298500Y325000D02*
D03*
X292000Y372500D02*
D03*
X354000Y390000D02*
D03*
X344000D02*
D03*
X316500Y371000D02*
D03*
X248000Y372500D02*
D03*
X296500Y411500D02*
D03*
X316500Y411000D02*
D03*
X322500Y362000D02*
D03*
X313500Y338500D02*
D03*
X278500Y376500D02*
D03*
X261500Y397500D02*
D03*
Y439000D02*
D03*
X359000Y419500D02*
D03*
X329500Y445500D02*
D03*
X289500Y439000D02*
D03*
X299000D02*
D03*
X321500D02*
D03*
X341000Y415500D02*
D03*
X317000Y377500D02*
D03*
X307000Y400000D02*
D03*
Y379000D02*
D03*
X323500Y314500D02*
D03*
X234500Y405500D02*
D03*
X233500Y417600D02*
D03*
M02*
