M48
;Layer_Color=9474304
;FILE_FORMAT=2:5
INCH,LZ
;TYPE=PLATED
T1F00S00C0.01200
T2F00S00C0.03543
T3F00S00C0.11220
%
T01
X00663Y02505
X00694Y02481
X00685Y02571
X00645Y02847
X001887Y0302445
X00919Y02841
X00958Y0284
X01072Y02743
X01205Y0278
X01194Y02854
X013004Y02838
X01439Y02797
X01523Y02849
X01589Y0287
X01623Y02815
X01669Y02843
X01704Y02829
X01743Y02828
X02018Y02794
X0207Y02731
X0215721Y0302445
X01837Y02518
X0172644Y0243354
X0167744Y0239154
X0165044Y0235154
X0169444Y0230353
X0169344Y0223553
X0165244Y0218953
X0159644Y0239154
X0154444Y0243454
X01489Y02412
X0144256Y0236544
X0140344Y0232154
X0130482Y0237754
X0118144Y0230053
X0120944Y0214154
X0124744Y0211554
X0131644Y0214454
X0136144Y0218754
X0133144Y0204954
X0149144Y0206954
X0154344Y0198254
X0159444Y0193454
X0170444Y0193154
X0176144Y0198153
X0128844Y0186953
X0112244Y0202654
X0100544Y0207053
Y0222054
X0089944Y0226354
X00807Y02142
X00809Y02084
X00767Y02423
X0073Y02438
X00733Y02483
X0071Y0253
X0076727Y0252061
X008Y02504
X0084Y02464
X00945Y02465
X01043Y02475
X01089Y02493
X01088Y02422
X01034Y0259
X00936
X0084Y02591
X00731Y02589
X0209908Y0304852
X02075Y0310665
X0209908Y0316478
X0215721Y0318886
X0221533Y0316478
X0223941Y0310665
X0221533Y0304852
X0024683
X0027091Y0310665
X0024683Y0316478
X001887Y0318886
X0013057Y0316478
X0010649Y0310665
X0013057Y0304852
T02
X00435Y02682
X00535
X00635
X00735
X00835
X00935
X01035
X01135
X01235
X01335
X01435
X01535
X01635
X01735
X01835
X01935
T03
X0215721Y0310665
X001887
M30
