G04*
G04 #@! TF.GenerationSoftware,Altium Limited,Altium Designer,20.2.6 (244)*
G04*
G04 Layer_Color=128*
%FSLAX25Y25*%
%MOIN*%
G70*
G04*
G04 #@! TF.SameCoordinates,F81447C0-1865-472D-A3CA-BC0DD41CEC34*
G04*
G04*
G04 #@! TF.FilePolarity,Positive*
G04*
G01*
G75*
%ADD21R,0.09843X0.03937*%
%ADD22R,0.03937X0.09843*%
%ADD23R,0.03740X0.02953*%
G04:AMPARAMS|DCode=24|XSize=39.37mil|YSize=35.43mil|CornerRadius=4.43mil|HoleSize=0mil|Usage=FLASHONLY|Rotation=270.000|XOffset=0mil|YOffset=0mil|HoleType=Round|Shape=RoundedRectangle|*
%AMROUNDEDRECTD24*
21,1,0.03937,0.02657,0,0,270.0*
21,1,0.03051,0.03543,0,0,270.0*
1,1,0.00886,-0.01329,-0.01526*
1,1,0.00886,-0.01329,0.01526*
1,1,0.00886,0.01329,0.01526*
1,1,0.00886,0.01329,-0.01526*
%
%ADD24ROUNDEDRECTD24*%
%ADD25R,0.02953X0.03740*%
%ADD26R,0.02500X0.05000*%
%ADD43R,0.09606X0.08661*%
%ADD44R,0.06299X0.06299*%
D21*
X208996Y32500D02*
D03*
Y52500D02*
D03*
Y72500D02*
D03*
Y112500D02*
D03*
Y132500D02*
D03*
Y172500D02*
D03*
Y192500D02*
D03*
Y212500D02*
D03*
Y92500D02*
D03*
Y152500D02*
D03*
X6004Y42500D02*
D03*
Y82500D02*
D03*
Y122500D02*
D03*
Y162500D02*
D03*
Y202500D02*
D03*
X196004Y42500D02*
D03*
Y82500D02*
D03*
Y122500D02*
D03*
Y162500D02*
D03*
Y202500D02*
D03*
X6004Y62500D02*
D03*
Y102500D02*
D03*
Y142500D02*
D03*
Y182500D02*
D03*
Y222500D02*
D03*
X196004Y62500D02*
D03*
Y102500D02*
D03*
Y142500D02*
D03*
Y182500D02*
D03*
Y222500D02*
D03*
X18996Y52500D02*
D03*
Y32500D02*
D03*
Y72500D02*
D03*
Y112500D02*
D03*
Y132500D02*
D03*
Y172500D02*
D03*
Y212500D02*
D03*
Y192500D02*
D03*
Y92500D02*
D03*
Y152500D02*
D03*
X424784Y32500D02*
D03*
Y52500D02*
D03*
Y72500D02*
D03*
Y112500D02*
D03*
Y132500D02*
D03*
Y172500D02*
D03*
Y192500D02*
D03*
Y212500D02*
D03*
Y92500D02*
D03*
Y152500D02*
D03*
X221791Y42500D02*
D03*
Y82500D02*
D03*
Y122500D02*
D03*
Y162500D02*
D03*
Y202500D02*
D03*
X411791Y42500D02*
D03*
Y82500D02*
D03*
Y122500D02*
D03*
Y162500D02*
D03*
Y202500D02*
D03*
X221791Y62500D02*
D03*
Y102500D02*
D03*
Y142500D02*
D03*
Y182500D02*
D03*
Y222500D02*
D03*
X411791Y62500D02*
D03*
Y102500D02*
D03*
Y142500D02*
D03*
Y182500D02*
D03*
Y222500D02*
D03*
X234784Y52500D02*
D03*
Y32500D02*
D03*
Y72500D02*
D03*
Y112500D02*
D03*
Y132500D02*
D03*
Y172500D02*
D03*
Y212500D02*
D03*
Y192500D02*
D03*
Y92500D02*
D03*
Y152500D02*
D03*
X208996Y291787D02*
D03*
Y311787D02*
D03*
Y331787D02*
D03*
Y371787D02*
D03*
Y391787D02*
D03*
Y431787D02*
D03*
Y451787D02*
D03*
Y471787D02*
D03*
Y351787D02*
D03*
Y411787D02*
D03*
X6004Y301787D02*
D03*
Y341787D02*
D03*
Y381787D02*
D03*
Y421787D02*
D03*
Y461787D02*
D03*
X196004Y301787D02*
D03*
Y341787D02*
D03*
Y381787D02*
D03*
Y421787D02*
D03*
Y461787D02*
D03*
X6004Y321787D02*
D03*
Y361787D02*
D03*
Y401787D02*
D03*
Y441787D02*
D03*
Y481787D02*
D03*
X196004Y321787D02*
D03*
Y361787D02*
D03*
Y401787D02*
D03*
Y441787D02*
D03*
Y481787D02*
D03*
X18996Y311787D02*
D03*
Y291787D02*
D03*
Y331787D02*
D03*
Y371787D02*
D03*
Y391787D02*
D03*
Y431787D02*
D03*
Y471787D02*
D03*
Y451787D02*
D03*
Y351787D02*
D03*
Y411787D02*
D03*
X424784Y291787D02*
D03*
Y311787D02*
D03*
Y331787D02*
D03*
Y371787D02*
D03*
Y391787D02*
D03*
Y431787D02*
D03*
Y451787D02*
D03*
Y471787D02*
D03*
Y351787D02*
D03*
Y411787D02*
D03*
X221791Y301787D02*
D03*
Y341787D02*
D03*
Y381787D02*
D03*
Y421787D02*
D03*
Y461787D02*
D03*
X411791Y301787D02*
D03*
Y341787D02*
D03*
Y381787D02*
D03*
Y421787D02*
D03*
Y461787D02*
D03*
X221791Y321787D02*
D03*
Y361787D02*
D03*
Y401787D02*
D03*
Y441787D02*
D03*
Y481787D02*
D03*
X411791Y321787D02*
D03*
Y361787D02*
D03*
Y401787D02*
D03*
Y441787D02*
D03*
Y481787D02*
D03*
X234784Y311787D02*
D03*
Y291787D02*
D03*
Y331787D02*
D03*
Y371787D02*
D03*
Y391787D02*
D03*
Y431787D02*
D03*
Y471787D02*
D03*
Y451787D02*
D03*
Y351787D02*
D03*
Y411787D02*
D03*
D22*
X32500Y6004D02*
D03*
X72500D02*
D03*
X112500D02*
D03*
X152500D02*
D03*
X192500D02*
D03*
X12500D02*
D03*
X22500Y18996D02*
D03*
X52500Y6004D02*
D03*
X62500Y18996D02*
D03*
X82500D02*
D03*
X92500Y6004D02*
D03*
X122500Y18996D02*
D03*
X132500Y6004D02*
D03*
X142500Y18996D02*
D03*
X162500D02*
D03*
X172500Y6004D02*
D03*
X182500Y18996D02*
D03*
X42500D02*
D03*
X102500D02*
D03*
X202500D02*
D03*
X74500Y102996D02*
D03*
X64500Y90004D02*
D03*
X115500Y102996D02*
D03*
X95500D02*
D03*
X105500Y90004D02*
D03*
X157800Y102996D02*
D03*
X137800D02*
D03*
X147800Y90004D02*
D03*
X248287Y6004D02*
D03*
X288287D02*
D03*
X328287D02*
D03*
X368287D02*
D03*
X408287D02*
D03*
X228287D02*
D03*
X238287Y18996D02*
D03*
X268287Y6004D02*
D03*
X278287Y18996D02*
D03*
X298287D02*
D03*
X308287Y6004D02*
D03*
X338287Y18996D02*
D03*
X348287Y6004D02*
D03*
X358287Y18996D02*
D03*
X378287D02*
D03*
X388287Y6004D02*
D03*
X398287Y18996D02*
D03*
X258287D02*
D03*
X318287D02*
D03*
X418287D02*
D03*
X290287Y102996D02*
D03*
X280287Y90004D02*
D03*
X331287Y102996D02*
D03*
X311287D02*
D03*
X321287Y90004D02*
D03*
X373587Y102996D02*
D03*
X353587D02*
D03*
X363587Y90004D02*
D03*
X32500Y265291D02*
D03*
X72500D02*
D03*
X112500D02*
D03*
X152500D02*
D03*
X192500D02*
D03*
X12500D02*
D03*
X22500Y278284D02*
D03*
X52500Y265291D02*
D03*
X62500Y278284D02*
D03*
X82500D02*
D03*
X92500Y265291D02*
D03*
X122500Y278284D02*
D03*
X132500Y265291D02*
D03*
X142500Y278284D02*
D03*
X162500D02*
D03*
X172500Y265291D02*
D03*
X182500Y278284D02*
D03*
X42500D02*
D03*
X102500D02*
D03*
X202500D02*
D03*
X74500Y362283D02*
D03*
X64500Y349291D02*
D03*
X115500Y362283D02*
D03*
X95500D02*
D03*
X105500Y349291D02*
D03*
X157800Y362283D02*
D03*
X137800D02*
D03*
X147800Y349291D02*
D03*
X248287Y265291D02*
D03*
X288287D02*
D03*
X328287D02*
D03*
X368287D02*
D03*
X408287D02*
D03*
X228287D02*
D03*
X238287Y278284D02*
D03*
X268287Y265291D02*
D03*
X278287Y278284D02*
D03*
X298287D02*
D03*
X308287Y265291D02*
D03*
X338287Y278284D02*
D03*
X348287Y265291D02*
D03*
X358287Y278284D02*
D03*
X378287D02*
D03*
X388287Y265291D02*
D03*
X398287Y278284D02*
D03*
X258287D02*
D03*
X318287D02*
D03*
X418287D02*
D03*
X290287Y362283D02*
D03*
X280287Y349291D02*
D03*
X331287Y362283D02*
D03*
X311287D02*
D03*
X321287Y349291D02*
D03*
X373587Y362283D02*
D03*
X353587D02*
D03*
X363587Y349291D02*
D03*
D23*
X134800Y194656D02*
D03*
Y189144D02*
D03*
X126800Y194656D02*
D03*
Y189144D02*
D03*
X350587Y194656D02*
D03*
Y189144D02*
D03*
X342587Y194656D02*
D03*
Y189144D02*
D03*
X134800Y453943D02*
D03*
Y448431D02*
D03*
X126800Y453943D02*
D03*
Y448431D02*
D03*
X350587Y453943D02*
D03*
Y448431D02*
D03*
X342587Y453943D02*
D03*
Y448431D02*
D03*
D24*
X115746Y194600D02*
D03*
X109054D02*
D03*
X45347Y202500D02*
D03*
X38654D02*
D03*
X136154Y38500D02*
D03*
X142847D02*
D03*
X136154Y45500D02*
D03*
X142847D02*
D03*
X331534Y194600D02*
D03*
X324841D02*
D03*
X261134Y202500D02*
D03*
X254441D02*
D03*
X351941Y38500D02*
D03*
X358634D02*
D03*
X351941Y45500D02*
D03*
X358634D02*
D03*
X115746Y453887D02*
D03*
X109054D02*
D03*
X45347Y461787D02*
D03*
X38654D02*
D03*
X136154Y297787D02*
D03*
X142847D02*
D03*
X136154Y304787D02*
D03*
X142847D02*
D03*
X331534Y453887D02*
D03*
X324841D02*
D03*
X261134Y461787D02*
D03*
X254441D02*
D03*
X351941Y297787D02*
D03*
X358634D02*
D03*
X351941Y304787D02*
D03*
X358634D02*
D03*
D25*
X133244Y151500D02*
D03*
X138756D02*
D03*
X73256Y171500D02*
D03*
X67744D02*
D03*
X73256Y178500D02*
D03*
X67744D02*
D03*
X73256Y185500D02*
D03*
X67744D02*
D03*
X73256Y148500D02*
D03*
X67744D02*
D03*
X73256Y155500D02*
D03*
X67744D02*
D03*
X349031Y151500D02*
D03*
X354543D02*
D03*
X289043Y171500D02*
D03*
X283531D02*
D03*
X289043Y178500D02*
D03*
X283531D02*
D03*
X289043Y185500D02*
D03*
X283531D02*
D03*
X289043Y148500D02*
D03*
X283531D02*
D03*
X289043Y155500D02*
D03*
X283531D02*
D03*
X133244Y410787D02*
D03*
X138756D02*
D03*
X73256Y430787D02*
D03*
X67744D02*
D03*
X73256Y437787D02*
D03*
X67744D02*
D03*
X73256Y444787D02*
D03*
X67744D02*
D03*
X73256Y407787D02*
D03*
X67744D02*
D03*
X73256Y414787D02*
D03*
X67744D02*
D03*
X349031Y410787D02*
D03*
X354543D02*
D03*
X289043Y430787D02*
D03*
X283531D02*
D03*
X289043Y437787D02*
D03*
X283531D02*
D03*
X289043Y444787D02*
D03*
X283531D02*
D03*
X289043Y407787D02*
D03*
X283531D02*
D03*
X289043Y414787D02*
D03*
X283531D02*
D03*
D26*
X85122Y126500D02*
D03*
X81878D02*
D03*
X105000Y118500D02*
D03*
X108243D02*
D03*
X147500D02*
D03*
X150743D02*
D03*
X300909Y126500D02*
D03*
X297666D02*
D03*
X320787Y118500D02*
D03*
X324031D02*
D03*
X363287D02*
D03*
X366531D02*
D03*
X85122Y385787D02*
D03*
X81878D02*
D03*
X105000Y377787D02*
D03*
X108243D02*
D03*
X147500D02*
D03*
X150743D02*
D03*
X300909Y385787D02*
D03*
X297666D02*
D03*
X320787Y377787D02*
D03*
X324031D02*
D03*
X363287D02*
D03*
X366531D02*
D03*
D43*
X83500Y126500D02*
D03*
X64500Y119500D02*
D03*
X299287Y126500D02*
D03*
X280287Y119500D02*
D03*
X83500Y385787D02*
D03*
X64500Y378787D02*
D03*
X299287Y385787D02*
D03*
X280287Y378787D02*
D03*
D44*
X107015Y118500D02*
D03*
X149515D02*
D03*
X322803D02*
D03*
X365303D02*
D03*
X107015Y377787D02*
D03*
X149515D02*
D03*
X322803D02*
D03*
X365303D02*
D03*
M02*
