G04 Layer_Physical_Order=2*
G04 Layer_Color=16711680*
%FSLAX25Y25*%
%MOIN*%
G70*
G01*
G75*
%ADD21C,0.02000*%
%ADD22C,0.02500*%
%ADD23C,0.00800*%
%ADD24C,0.01200*%
%ADD25C,0.00600*%
%ADD26C,0.01000*%
%ADD27C,0.25000*%
%ADD28O,0.11000X0.06000*%
%ADD29R,0.11000X0.06000*%
%ADD30O,0.06000X0.11000*%
%ADD31R,0.06000X0.11000*%
%ADD32R,0.06102X0.06102*%
%ADD33C,0.06102*%
%ADD34C,0.02500*%
%ADD35C,0.01968*%
G36*
X406371Y501816D02*
Y476295D01*
X405030D01*
Y472295D01*
Y468294D01*
X406371D01*
Y465926D01*
X402030D01*
X401090Y465802D01*
X400214Y465439D01*
X399462Y464862D01*
X398885Y464110D01*
X398523Y463234D01*
X398399Y462294D01*
X398523Y461355D01*
X398885Y460479D01*
X399462Y459727D01*
X400214Y459150D01*
X401090Y458787D01*
X402030Y458663D01*
X406371D01*
Y455926D01*
X402030D01*
X401090Y455802D01*
X400214Y455439D01*
X399462Y454862D01*
X398885Y454110D01*
X398523Y453234D01*
X398399Y452294D01*
X398523Y451355D01*
X398885Y450479D01*
X399462Y449727D01*
X400214Y449150D01*
X401090Y448787D01*
X402030Y448663D01*
X406371D01*
Y446329D01*
X405030D01*
Y442295D01*
Y438260D01*
X406371D01*
Y435926D01*
X402030D01*
X401090Y435802D01*
X400214Y435439D01*
X399462Y434862D01*
X398885Y434110D01*
X398523Y433234D01*
X398399Y432295D01*
X398523Y431355D01*
X398885Y430479D01*
X399462Y429727D01*
X400214Y429150D01*
X401090Y428787D01*
X402030Y428663D01*
X406371D01*
Y425926D01*
X402030D01*
X401090Y425802D01*
X400214Y425439D01*
X399462Y424862D01*
X398885Y424110D01*
X398523Y423234D01*
X398399Y422295D01*
X398523Y421355D01*
X398885Y420479D01*
X399462Y419727D01*
X400214Y419150D01*
X401090Y418787D01*
X402030Y418663D01*
X406371D01*
Y416329D01*
X405030D01*
Y412294D01*
Y408260D01*
X406371D01*
Y405926D01*
X402030D01*
X401090Y405802D01*
X400214Y405439D01*
X399462Y404862D01*
X398885Y404110D01*
X398523Y403234D01*
X398399Y402294D01*
X398523Y401355D01*
X398885Y400479D01*
X399462Y399727D01*
X400214Y399150D01*
X401090Y398787D01*
X402030Y398663D01*
X406371D01*
Y396329D01*
X405030D01*
Y392295D01*
Y388260D01*
X406371D01*
Y386329D01*
X405030D01*
Y382295D01*
Y378260D01*
X406371D01*
Y375926D01*
X402030D01*
X401090Y375802D01*
X400214Y375439D01*
X399462Y374862D01*
X398885Y374110D01*
X398523Y373234D01*
X398399Y372294D01*
X398523Y371355D01*
X398885Y370479D01*
X399462Y369727D01*
X400214Y369150D01*
X401090Y368787D01*
X402030Y368663D01*
X406371D01*
Y365926D01*
X402030D01*
X401090Y365802D01*
X400214Y365439D01*
X399462Y364862D01*
X398885Y364110D01*
X398523Y363234D01*
X398399Y362295D01*
X398523Y361355D01*
X398885Y360479D01*
X399462Y359727D01*
X400214Y359150D01*
X401090Y358787D01*
X402030Y358663D01*
X406371D01*
Y355926D01*
X402030D01*
X401090Y355802D01*
X400214Y355439D01*
X399462Y354862D01*
X398885Y354110D01*
X398523Y353234D01*
X398399Y352294D01*
X398523Y351355D01*
X398885Y350479D01*
X399462Y349727D01*
X400214Y349150D01*
X401090Y348787D01*
X402030Y348663D01*
X406371D01*
Y345926D01*
X402030D01*
X401090Y345802D01*
X400214Y345439D01*
X399462Y344862D01*
X398885Y344110D01*
X398523Y343234D01*
X398399Y342295D01*
X398523Y341355D01*
X398885Y340479D01*
X399462Y339727D01*
X400214Y339150D01*
X401090Y338787D01*
X402030Y338663D01*
X406371D01*
Y335926D01*
X402030D01*
X401090Y335802D01*
X400214Y335439D01*
X399462Y334862D01*
X398885Y334110D01*
X398523Y333234D01*
X398399Y332295D01*
X398523Y331355D01*
X398885Y330479D01*
X399462Y329727D01*
X400214Y329150D01*
X401090Y328787D01*
X402030Y328663D01*
X406371D01*
Y326329D01*
X405030D01*
Y322294D01*
Y318260D01*
X406371D01*
Y316329D01*
X405030D01*
Y312295D01*
Y308260D01*
X406371D01*
Y305926D01*
X402030D01*
X401090Y305802D01*
X400214Y305439D01*
X399462Y304862D01*
X398885Y304110D01*
X398523Y303234D01*
X398399Y302294D01*
X398523Y301355D01*
X398885Y300479D01*
X399462Y299727D01*
X400214Y299150D01*
X401090Y298787D01*
X402030Y298663D01*
X406371D01*
Y295926D01*
X402030D01*
X401090Y295802D01*
X400214Y295439D01*
X399462Y294862D01*
X398885Y294110D01*
X398523Y293234D01*
X398399Y292295D01*
X398523Y291355D01*
X398885Y290479D01*
X399462Y289727D01*
X400214Y289150D01*
X401090Y288787D01*
X402030Y288663D01*
X406371D01*
Y285926D01*
X402030D01*
X401090Y285802D01*
X400214Y285439D01*
X399462Y284862D01*
X398885Y284110D01*
X398523Y283234D01*
X398399Y282295D01*
X398523Y281355D01*
X398885Y280479D01*
X399462Y279727D01*
X400214Y279150D01*
X401090Y278787D01*
X402030Y278663D01*
X406371D01*
Y268470D01*
X405871Y268136D01*
X405470Y268302D01*
X404530Y268426D01*
X403590Y268302D01*
X402714Y267939D01*
X401962Y267362D01*
X401385Y266610D01*
X401023Y265734D01*
X400899Y264794D01*
Y260229D01*
X398161D01*
Y264794D01*
X398037Y265734D01*
X397674Y266610D01*
X397097Y267362D01*
X396345Y267939D01*
X395470Y268302D01*
X394530Y268426D01*
X393590Y268302D01*
X392714Y267939D01*
X391962Y267362D01*
X391385Y266610D01*
X391023Y265734D01*
X390899Y264794D01*
Y260229D01*
X388161D01*
Y264794D01*
X388037Y265734D01*
X387674Y266610D01*
X387098Y267362D01*
X386345Y267939D01*
X385470Y268302D01*
X384530Y268426D01*
X383590Y268302D01*
X382714Y267939D01*
X381962Y267362D01*
X381385Y266610D01*
X381023Y265734D01*
X380899Y264794D01*
Y260229D01*
X378161D01*
Y264794D01*
X378037Y265734D01*
X377675Y266610D01*
X377098Y267362D01*
X376345Y267939D01*
X375470Y268302D01*
X374530Y268426D01*
X373590Y268302D01*
X372714Y267939D01*
X371962Y267362D01*
X371385Y266610D01*
X371023Y265734D01*
X370899Y264794D01*
Y260229D01*
X368161D01*
Y264794D01*
X368037Y265734D01*
X367674Y266610D01*
X367097Y267362D01*
X366345Y267939D01*
X365470Y268302D01*
X364530Y268426D01*
X363590Y268302D01*
X362714Y267939D01*
X361962Y267362D01*
X361385Y266610D01*
X361023Y265734D01*
X360899Y264794D01*
Y260229D01*
X358161D01*
Y264794D01*
X358037Y265734D01*
X357675Y266610D01*
X357098Y267362D01*
X356345Y267939D01*
X355470Y268302D01*
X355448Y268305D01*
Y271531D01*
X355378Y271882D01*
X355179Y272180D01*
X349634Y277725D01*
X349731Y278216D01*
X349587Y278938D01*
X349179Y279550D01*
X348567Y279958D01*
X347845Y280102D01*
X347123Y279958D01*
X346511Y279550D01*
X346102Y278938D01*
X345959Y278216D01*
X346102Y277494D01*
X346511Y276882D01*
X347123Y276473D01*
X347845Y276329D01*
X348336Y276427D01*
X353612Y271151D01*
Y268305D01*
X353590Y268302D01*
X352714Y267939D01*
X351962Y267362D01*
X351385Y266610D01*
X351023Y265734D01*
X350899Y264794D01*
Y260229D01*
X348161D01*
Y264794D01*
X348037Y265734D01*
X347674Y266610D01*
X347097Y267362D01*
X346345Y267939D01*
X345470Y268302D01*
X344530Y268426D01*
X343590Y268302D01*
X342714Y267939D01*
X341962Y267362D01*
X341385Y266610D01*
X341023Y265734D01*
X340899Y264794D01*
Y260229D01*
X338161D01*
Y264794D01*
X338037Y265734D01*
X337674Y266610D01*
X337098Y267362D01*
X336345Y267939D01*
X335470Y268302D01*
X334530Y268426D01*
X333590Y268302D01*
X332714Y267939D01*
X331962Y267362D01*
X331385Y266610D01*
X331023Y265734D01*
X330899Y264794D01*
Y260229D01*
X328161D01*
Y264794D01*
X328037Y265734D01*
X327675Y266610D01*
X327098Y267362D01*
X326345Y267939D01*
X325470Y268302D01*
X324530Y268426D01*
X323590Y268302D01*
X322714Y267939D01*
X321962Y267362D01*
X321385Y266610D01*
X321023Y265734D01*
X320899Y264794D01*
Y260229D01*
X318161D01*
Y264794D01*
X318037Y265734D01*
X317674Y266610D01*
X317097Y267362D01*
X316345Y267939D01*
X315470Y268302D01*
X314530Y268426D01*
X313590Y268302D01*
X312714Y267939D01*
X311962Y267362D01*
X311385Y266610D01*
X311023Y265734D01*
X310899Y264794D01*
Y260229D01*
X308564D01*
Y261794D01*
X304530D01*
X300495D01*
Y260229D01*
X298564D01*
Y261794D01*
X294530D01*
X290495D01*
Y260229D01*
X288161D01*
Y264794D01*
X288037Y265734D01*
X287674Y266610D01*
X287098Y267362D01*
X286345Y267939D01*
X285470Y268302D01*
X284530Y268426D01*
X283590Y268302D01*
X282714Y267939D01*
X281962Y267362D01*
X281385Y266610D01*
X281023Y265734D01*
X280899Y264794D01*
Y260229D01*
X278161D01*
Y264794D01*
X278037Y265734D01*
X277675Y266610D01*
X277098Y267362D01*
X276345Y267939D01*
X275470Y268302D01*
X274530Y268426D01*
X273590Y268302D01*
X272714Y267939D01*
X271962Y267362D01*
X271385Y266610D01*
X271023Y265734D01*
X270899Y264794D01*
Y260229D01*
X268161D01*
Y264794D01*
X268037Y265734D01*
X267674Y266610D01*
X267097Y267362D01*
X266345Y267939D01*
X265470Y268302D01*
X264530Y268426D01*
X263590Y268302D01*
X262714Y267939D01*
X261962Y267362D01*
X261385Y266610D01*
X261023Y265734D01*
X260899Y264794D01*
Y260229D01*
X258161D01*
Y264794D01*
X258037Y265734D01*
X257675Y266610D01*
X257098Y267362D01*
X256345Y267939D01*
X255470Y268302D01*
X254530Y268426D01*
X253590Y268302D01*
X252714Y267939D01*
X251962Y267362D01*
X251385Y266610D01*
X251023Y265734D01*
X250899Y264794D01*
Y260229D01*
X248161D01*
Y264794D01*
X248037Y265734D01*
X247674Y266610D01*
X247097Y267362D01*
X246345Y267939D01*
X245613Y268243D01*
Y270999D01*
X248252D01*
X248377Y270874D01*
X248675Y270675D01*
X249026Y270605D01*
X262018D01*
X262369Y270675D01*
X262667Y270874D01*
X263973Y272180D01*
X266705D01*
X266984Y271764D01*
X267596Y271355D01*
X268317Y271211D01*
X269039Y271355D01*
X269651Y271764D01*
X270060Y272376D01*
X270203Y273098D01*
X270060Y273819D01*
X269651Y274431D01*
X269039Y274840D01*
X268317Y274984D01*
X267596Y274840D01*
X266984Y274431D01*
X266705Y274015D01*
X263593D01*
X263242Y273945D01*
X262944Y273746D01*
X261638Y272441D01*
X249406D01*
X249281Y272565D01*
X248983Y272764D01*
X248632Y272834D01*
X245089D01*
X244738Y272764D01*
X244440Y272565D01*
X244046Y272172D01*
X243847Y271874D01*
X243778Y271523D01*
Y268326D01*
X243590Y268302D01*
X242714Y267939D01*
X241962Y267362D01*
X241385Y266610D01*
X241023Y265734D01*
X240899Y264794D01*
Y260229D01*
X238161D01*
Y264794D01*
X238037Y265734D01*
X237674Y266610D01*
X237098Y267362D01*
X236345Y267939D01*
X236164Y268014D01*
Y269962D01*
X240351Y274149D01*
X257257D01*
X257535Y273732D01*
X258147Y273323D01*
X258869Y273180D01*
X259590Y273323D01*
X260202Y273732D01*
X260611Y274344D01*
X260755Y275066D01*
X260611Y275788D01*
X260202Y276400D01*
X259590Y276809D01*
X258869Y276952D01*
X258147Y276809D01*
X257535Y276400D01*
X257257Y275984D01*
X239971D01*
X239620Y275914D01*
X239322Y275715D01*
X235246Y271639D01*
X232621Y274265D01*
Y282153D01*
X232551Y282504D01*
X232352Y282802D01*
X228439Y286715D01*
X228471Y286877D01*
X228328Y287599D01*
X227919Y288211D01*
X227307Y288620D01*
X226585Y288763D01*
X225863Y288620D01*
X225251Y288211D01*
X224842Y287599D01*
X224699Y286877D01*
X224842Y286155D01*
X225251Y285543D01*
X225863Y285135D01*
X226585Y284991D01*
X227307Y285135D01*
X227377Y285181D01*
X230785Y281773D01*
Y273885D01*
X230855Y273534D01*
X231054Y273236D01*
X234329Y269962D01*
Y268399D01*
X233590Y268302D01*
X232714Y267939D01*
X231962Y267362D01*
X231385Y266610D01*
X231023Y265734D01*
X230899Y264794D01*
Y260229D01*
X228161D01*
Y264794D01*
X228037Y265734D01*
X227675Y266610D01*
X227098Y267362D01*
X226345Y267939D01*
X225470Y268302D01*
X224530Y268426D01*
X223590Y268302D01*
X222714Y267939D01*
X221962Y267362D01*
X221385Y266610D01*
X221023Y265734D01*
X220899Y264794D01*
Y260229D01*
X218530D01*
Y261794D01*
X214530D01*
Y262295D01*
X214030D01*
Y268794D01*
X212929D01*
Y278663D01*
X217030D01*
X217970Y278787D01*
X218845Y279150D01*
X219598Y279727D01*
X220175Y280479D01*
X220537Y281355D01*
X220661Y282295D01*
X220537Y283234D01*
X220175Y284110D01*
X219598Y284862D01*
X218845Y285439D01*
X217970Y285802D01*
X217030Y285926D01*
X212929D01*
Y288663D01*
X217030D01*
X217970Y288787D01*
X218845Y289150D01*
X219598Y289727D01*
X220175Y290479D01*
X220537Y291355D01*
X220661Y292295D01*
X220537Y293234D01*
X220175Y294110D01*
X219598Y294862D01*
X218845Y295439D01*
X217970Y295802D01*
X217030Y295926D01*
X212929D01*
Y298663D01*
X217030D01*
X217970Y298787D01*
X218845Y299150D01*
X219598Y299727D01*
X220175Y300479D01*
X220537Y301355D01*
X220661Y302294D01*
X220537Y303234D01*
X220175Y304110D01*
X219598Y304862D01*
X218845Y305439D01*
X217970Y305802D01*
X217030Y305926D01*
X212929D01*
Y308663D01*
X217030D01*
X217970Y308787D01*
X218845Y309150D01*
X219598Y309727D01*
X220175Y310479D01*
X220504Y311275D01*
X235467D01*
X235857Y311352D01*
X236188Y311574D01*
X240781Y316167D01*
X241152Y316093D01*
X241874Y316237D01*
X242486Y316646D01*
X242895Y317258D01*
X243038Y317980D01*
X242895Y318701D01*
X242486Y319313D01*
X241874Y319722D01*
X241152Y319866D01*
X240430Y319722D01*
X239818Y319313D01*
X239409Y318701D01*
X239266Y317980D01*
X239339Y317609D01*
X235045Y313314D01*
X220504D01*
X220175Y314110D01*
X219598Y314862D01*
X218845Y315439D01*
X217970Y315802D01*
X217030Y315926D01*
X212929D01*
Y318260D01*
X214030D01*
Y322294D01*
Y326329D01*
X212929D01*
Y328260D01*
X214030D01*
Y332295D01*
Y336329D01*
X212929D01*
Y338663D01*
X217030D01*
X217970Y338787D01*
X218845Y339150D01*
X219598Y339727D01*
X220175Y340479D01*
X220537Y341355D01*
X220661Y342295D01*
X220537Y343234D01*
X220175Y344110D01*
X219598Y344862D01*
X218845Y345439D01*
X217970Y345802D01*
X217030Y345926D01*
X212929D01*
Y348663D01*
X217030D01*
X217970Y348787D01*
X218845Y349150D01*
X219598Y349727D01*
X220175Y350479D01*
X220537Y351355D01*
X220661Y352294D01*
X220537Y353234D01*
X220175Y354110D01*
X219598Y354862D01*
X218845Y355439D01*
X217970Y355802D01*
X217030Y355926D01*
X212929D01*
Y358663D01*
X217030D01*
X217970Y358787D01*
X218845Y359150D01*
X219598Y359727D01*
X220175Y360479D01*
X220537Y361355D01*
X220661Y362295D01*
X220537Y363234D01*
X220175Y364110D01*
X219598Y364862D01*
X218845Y365439D01*
X217970Y365802D01*
X217030Y365926D01*
X212929D01*
Y368663D01*
X217030D01*
X217970Y368787D01*
X218845Y369150D01*
X219598Y369727D01*
X220175Y370479D01*
X220537Y371355D01*
X220661Y372294D01*
X220537Y373234D01*
X220175Y374110D01*
X219598Y374862D01*
X218845Y375439D01*
X217970Y375802D01*
X217030Y375926D01*
X212929D01*
Y378663D01*
X217030D01*
X217970Y378787D01*
X218845Y379150D01*
X219598Y379727D01*
X220175Y380479D01*
X220504Y381275D01*
X297776D01*
X297802Y381249D01*
X298133Y381028D01*
X298523Y380950D01*
X300712D01*
X301308Y380552D01*
X302030Y380408D01*
X302752Y380552D01*
X303364Y380961D01*
X303773Y381573D01*
X303916Y382295D01*
X303773Y383016D01*
X303364Y383628D01*
X302752Y384037D01*
X302030Y384181D01*
X301828Y384141D01*
X301341Y384220D01*
X301285Y384504D01*
X301198Y384942D01*
X300789Y385554D01*
X300177Y385962D01*
X299455Y386106D01*
X298733Y385962D01*
X298121Y385554D01*
X297911Y385239D01*
X279027D01*
X271156Y393110D01*
X270826Y393331D01*
X270435Y393409D01*
X233247D01*
X233037Y393723D01*
X232425Y394132D01*
X231703Y394275D01*
X230981Y394132D01*
X230369Y393723D01*
X229960Y393111D01*
X229817Y392389D01*
X229960Y391667D01*
X230369Y391055D01*
X230981Y390646D01*
X231703Y390503D01*
X232425Y390646D01*
X233037Y391055D01*
X233247Y391369D01*
X270013D01*
X277568Y383814D01*
X277361Y383314D01*
X220504D01*
X220175Y384110D01*
X219598Y384862D01*
X218845Y385439D01*
X217970Y385802D01*
X217030Y385926D01*
X212929D01*
Y388663D01*
X217030D01*
X217970Y388787D01*
X218845Y389150D01*
X219598Y389727D01*
X220175Y390479D01*
X220537Y391355D01*
X220661Y392295D01*
X220537Y393234D01*
X220175Y394110D01*
X219598Y394862D01*
X218845Y395439D01*
X217970Y395802D01*
X217030Y395926D01*
X212929D01*
Y398663D01*
X217030D01*
X217970Y398787D01*
X218845Y399150D01*
X219598Y399727D01*
X220175Y400479D01*
X220537Y401355D01*
X220636Y402103D01*
X250710Y432177D01*
X293611D01*
X293962Y432247D01*
X294157Y432377D01*
X296030D01*
X296381Y432447D01*
X296679Y432646D01*
X299679Y435646D01*
X299878Y435943D01*
X299948Y436295D01*
Y437683D01*
X300364Y437961D01*
X300773Y438573D01*
X300916Y439294D01*
X300773Y440016D01*
X300364Y440628D01*
X299752Y441037D01*
X299188Y441149D01*
X299044Y441655D01*
X299120Y441705D01*
X299529Y442317D01*
X299672Y443039D01*
X299529Y443760D01*
X299120Y444372D01*
X298508Y444781D01*
X297786Y444925D01*
X297064Y444781D01*
X296897Y444670D01*
X286301D01*
X285752Y445037D01*
X285030Y445181D01*
X284308Y445037D01*
X283696Y444628D01*
X283287Y444016D01*
X283144Y443294D01*
X283287Y442573D01*
X283696Y441961D01*
X284308Y441552D01*
X285030Y441408D01*
X285155Y441433D01*
X285286Y441407D01*
X296897D01*
X297064Y441296D01*
X297628Y441184D01*
X297771Y440679D01*
X297696Y440628D01*
X297287Y440016D01*
X297234Y439748D01*
X297102Y439303D01*
X296380Y439447D01*
X295658Y439303D01*
X295046Y438894D01*
X294637Y438282D01*
X294494Y437561D01*
X294591Y437070D01*
X292734Y435212D01*
X249530D01*
X249179Y435142D01*
X248881Y434943D01*
X227150Y413212D01*
X220540D01*
X220537Y413234D01*
X220175Y414110D01*
X219598Y414862D01*
X218845Y415439D01*
X217970Y415802D01*
X217030Y415926D01*
X212929D01*
Y418260D01*
X214030D01*
Y422295D01*
Y426329D01*
X212929D01*
Y428663D01*
X217030D01*
X217970Y428787D01*
X218845Y429150D01*
X219598Y429727D01*
X220175Y430479D01*
X220537Y431355D01*
X220661Y432295D01*
X220537Y433234D01*
X220175Y434110D01*
X219598Y434862D01*
X218845Y435439D01*
X217970Y435802D01*
X217030Y435926D01*
X212929D01*
Y438260D01*
X214030D01*
Y442295D01*
Y446329D01*
X212929D01*
Y448663D01*
X217030D01*
X217970Y448787D01*
X218845Y449150D01*
X219598Y449727D01*
X220175Y450479D01*
X220537Y451355D01*
X220661Y452294D01*
X220537Y453234D01*
X220175Y454110D01*
X219598Y454862D01*
X218845Y455439D01*
X217970Y455802D01*
X217030Y455926D01*
X212929D01*
Y458260D01*
X214030D01*
Y462294D01*
Y466329D01*
X212929D01*
Y468694D01*
X220630D01*
Y475894D01*
X212929D01*
Y502110D01*
X225133Y502114D01*
X225306Y501645D01*
X225238Y501586D01*
X223899Y500018D01*
X222822Y498260D01*
X222032Y496355D01*
X221551Y494350D01*
X221389Y492295D01*
X221551Y490239D01*
X222032Y488234D01*
X222822Y486329D01*
X223899Y484571D01*
X225238Y483003D01*
X226806Y481664D01*
X228564Y480586D01*
X230469Y479797D01*
X232474Y479316D01*
X234530Y479154D01*
X236585Y479316D01*
X238591Y479797D01*
X240496Y480586D01*
X242254Y481664D01*
X243822Y483003D01*
X245161Y484571D01*
X246238Y486329D01*
X247027Y488234D01*
X247509Y490239D01*
X247670Y492295D01*
X247509Y494350D01*
X247027Y496355D01*
X246238Y498260D01*
X245161Y500018D01*
X243822Y501586D01*
X243747Y501650D01*
X243920Y502119D01*
X375187Y502160D01*
X375360Y501690D01*
X375238Y501586D01*
X373899Y500018D01*
X372822Y498260D01*
X372032Y496355D01*
X371551Y494350D01*
X371389Y492295D01*
X371551Y490239D01*
X372032Y488234D01*
X372822Y486329D01*
X373899Y484571D01*
X375238Y483003D01*
X376806Y481664D01*
X378564Y480586D01*
X380469Y479797D01*
X382474Y479316D01*
X384530Y479154D01*
X386585Y479316D01*
X388591Y479797D01*
X390496Y480586D01*
X392254Y481664D01*
X393822Y483003D01*
X395161Y484571D01*
X396238Y486329D01*
X397027Y488234D01*
X397509Y490239D01*
X397670Y492295D01*
X397509Y494350D01*
X397027Y496355D01*
X396238Y498260D01*
X395161Y500018D01*
X393822Y501586D01*
X393693Y501696D01*
X393866Y502165D01*
X406017Y502169D01*
X406371Y501816D01*
D02*
G37*
G36*
X199671D02*
Y476295D01*
X198330D01*
Y472295D01*
Y468294D01*
X199671D01*
Y465926D01*
X195330D01*
X194390Y465802D01*
X193514Y465439D01*
X192762Y464862D01*
X192185Y464110D01*
X191823Y463234D01*
X191699Y462294D01*
X191823Y461355D01*
X192185Y460479D01*
X192762Y459727D01*
X193514Y459150D01*
X194390Y458787D01*
X195330Y458663D01*
X199671D01*
Y455926D01*
X195330D01*
X194390Y455802D01*
X193514Y455439D01*
X192762Y454862D01*
X192185Y454110D01*
X191823Y453234D01*
X191699Y452294D01*
X191823Y451355D01*
X192185Y450479D01*
X192762Y449727D01*
X193514Y449150D01*
X194390Y448787D01*
X195330Y448663D01*
X199671D01*
Y446329D01*
X198330D01*
Y442295D01*
Y438260D01*
X199671D01*
Y435926D01*
X195330D01*
X194390Y435802D01*
X193514Y435439D01*
X192762Y434862D01*
X192185Y434110D01*
X191823Y433234D01*
X191699Y432295D01*
X191823Y431355D01*
X192185Y430479D01*
X192762Y429727D01*
X193514Y429150D01*
X194390Y428787D01*
X195330Y428663D01*
X199671D01*
Y425926D01*
X195330D01*
X194390Y425802D01*
X193514Y425439D01*
X192762Y424862D01*
X192185Y424110D01*
X191823Y423234D01*
X191699Y422295D01*
X191823Y421355D01*
X192185Y420479D01*
X192762Y419727D01*
X193514Y419150D01*
X194390Y418787D01*
X195330Y418663D01*
X199671D01*
Y416329D01*
X198330D01*
Y412294D01*
Y408260D01*
X199671D01*
Y405926D01*
X195330D01*
X194390Y405802D01*
X193514Y405439D01*
X192762Y404862D01*
X192185Y404110D01*
X191823Y403234D01*
X191699Y402294D01*
X191823Y401355D01*
X192185Y400479D01*
X192762Y399727D01*
X193514Y399150D01*
X194390Y398787D01*
X195330Y398663D01*
X199671D01*
Y396329D01*
X198330D01*
Y392295D01*
Y388260D01*
X199671D01*
Y386329D01*
X198330D01*
Y382295D01*
Y378260D01*
X199671D01*
Y375926D01*
X195330D01*
X194390Y375802D01*
X193514Y375439D01*
X192762Y374862D01*
X192185Y374110D01*
X191823Y373234D01*
X191699Y372294D01*
X191823Y371355D01*
X192185Y370479D01*
X192762Y369727D01*
X193514Y369150D01*
X194390Y368787D01*
X195330Y368663D01*
X199671D01*
Y365926D01*
X195330D01*
X194390Y365802D01*
X193514Y365439D01*
X192762Y364862D01*
X192185Y364110D01*
X191823Y363234D01*
X191699Y362295D01*
X191823Y361355D01*
X192185Y360479D01*
X192762Y359727D01*
X193514Y359150D01*
X194390Y358787D01*
X195330Y358663D01*
X199671D01*
Y355926D01*
X195330D01*
X194390Y355802D01*
X193514Y355439D01*
X192762Y354862D01*
X192185Y354110D01*
X191823Y353234D01*
X191699Y352294D01*
X191823Y351355D01*
X192185Y350479D01*
X192762Y349727D01*
X193514Y349150D01*
X194390Y348787D01*
X195330Y348663D01*
X199671D01*
Y345926D01*
X195330D01*
X194390Y345802D01*
X193514Y345439D01*
X192762Y344862D01*
X192185Y344110D01*
X191823Y343234D01*
X191699Y342295D01*
X191823Y341355D01*
X192185Y340479D01*
X192762Y339727D01*
X193514Y339150D01*
X194390Y338787D01*
X195330Y338663D01*
X199671D01*
Y335926D01*
X195330D01*
X194390Y335802D01*
X193514Y335439D01*
X192762Y334862D01*
X192185Y334110D01*
X191823Y333234D01*
X191699Y332295D01*
X191823Y331355D01*
X192185Y330479D01*
X192762Y329727D01*
X193514Y329150D01*
X194390Y328787D01*
X195330Y328663D01*
X199671D01*
Y326329D01*
X198330D01*
Y322294D01*
Y318260D01*
X199671D01*
Y316329D01*
X198330D01*
Y312295D01*
Y308260D01*
X199671D01*
Y305926D01*
X195330D01*
X194390Y305802D01*
X193514Y305439D01*
X192762Y304862D01*
X192185Y304110D01*
X191823Y303234D01*
X191699Y302294D01*
X191823Y301355D01*
X192185Y300479D01*
X192762Y299727D01*
X193514Y299150D01*
X194390Y298787D01*
X195330Y298663D01*
X199671D01*
Y295926D01*
X195330D01*
X194390Y295802D01*
X193514Y295439D01*
X192762Y294862D01*
X192185Y294110D01*
X191823Y293234D01*
X191699Y292295D01*
X191823Y291355D01*
X192185Y290479D01*
X192762Y289727D01*
X193514Y289150D01*
X194390Y288787D01*
X195330Y288663D01*
X199671D01*
Y285926D01*
X195330D01*
X194390Y285802D01*
X193514Y285439D01*
X192762Y284862D01*
X192185Y284110D01*
X191823Y283234D01*
X191699Y282295D01*
X191823Y281355D01*
X192185Y280479D01*
X192762Y279727D01*
X193514Y279150D01*
X194390Y278787D01*
X195330Y278663D01*
X199671D01*
Y268470D01*
X199171Y268136D01*
X198770Y268302D01*
X197830Y268426D01*
X196890Y268302D01*
X196014Y267939D01*
X195262Y267362D01*
X194685Y266610D01*
X194323Y265734D01*
X194199Y264794D01*
Y260229D01*
X191461D01*
Y264794D01*
X191337Y265734D01*
X190974Y266610D01*
X190398Y267362D01*
X189645Y267939D01*
X188770Y268302D01*
X187830Y268426D01*
X186890Y268302D01*
X186014Y267939D01*
X185262Y267362D01*
X184685Y266610D01*
X184323Y265734D01*
X184199Y264794D01*
Y260229D01*
X181461D01*
Y264794D01*
X181337Y265734D01*
X180974Y266610D01*
X180397Y267362D01*
X179645Y267939D01*
X178770Y268302D01*
X177830Y268426D01*
X176890Y268302D01*
X176014Y267939D01*
X175262Y267362D01*
X174685Y266610D01*
X174323Y265734D01*
X174199Y264794D01*
Y260229D01*
X171461D01*
Y264794D01*
X171337Y265734D01*
X170975Y266610D01*
X170397Y267362D01*
X169645Y267939D01*
X168770Y268302D01*
X167830Y268426D01*
X166890Y268302D01*
X166014Y267939D01*
X165262Y267362D01*
X164685Y266610D01*
X164323Y265734D01*
X164199Y264794D01*
Y260229D01*
X161461D01*
Y264794D01*
X161337Y265734D01*
X160975Y266610D01*
X160398Y267362D01*
X159645Y267939D01*
X158770Y268302D01*
X157830Y268426D01*
X156890Y268302D01*
X156014Y267939D01*
X155262Y267362D01*
X154685Y266610D01*
X154323Y265734D01*
X154199Y264794D01*
Y260229D01*
X151461D01*
Y264794D01*
X151337Y265734D01*
X150975Y266610D01*
X150398Y267362D01*
X149645Y267939D01*
X148770Y268302D01*
X148748Y268305D01*
Y271531D01*
X148678Y271882D01*
X148479Y272180D01*
X142933Y277725D01*
X143031Y278216D01*
X142887Y278938D01*
X142479Y279550D01*
X141867Y279958D01*
X141145Y280102D01*
X140423Y279958D01*
X139811Y279550D01*
X139402Y278938D01*
X139259Y278216D01*
X139402Y277494D01*
X139811Y276882D01*
X140423Y276473D01*
X141145Y276329D01*
X141636Y276427D01*
X146912Y271151D01*
Y268305D01*
X146890Y268302D01*
X146014Y267939D01*
X145262Y267362D01*
X144685Y266610D01*
X144323Y265734D01*
X144199Y264794D01*
Y260229D01*
X141461D01*
Y264794D01*
X141337Y265734D01*
X140974Y266610D01*
X140398Y267362D01*
X139645Y267939D01*
X138770Y268302D01*
X137830Y268426D01*
X136890Y268302D01*
X136014Y267939D01*
X135262Y267362D01*
X134685Y266610D01*
X134323Y265734D01*
X134199Y264794D01*
Y260229D01*
X131461D01*
Y264794D01*
X131337Y265734D01*
X130974Y266610D01*
X130397Y267362D01*
X129645Y267939D01*
X128770Y268302D01*
X127830Y268426D01*
X126890Y268302D01*
X126014Y267939D01*
X125262Y267362D01*
X124685Y266610D01*
X124323Y265734D01*
X124199Y264794D01*
Y260229D01*
X121461D01*
Y264794D01*
X121337Y265734D01*
X120975Y266610D01*
X120397Y267362D01*
X119645Y267939D01*
X118770Y268302D01*
X117830Y268426D01*
X116890Y268302D01*
X116014Y267939D01*
X115262Y267362D01*
X114685Y266610D01*
X114323Y265734D01*
X114199Y264794D01*
Y260229D01*
X111461D01*
Y264794D01*
X111337Y265734D01*
X110975Y266610D01*
X110398Y267362D01*
X109645Y267939D01*
X108770Y268302D01*
X107830Y268426D01*
X106890Y268302D01*
X106014Y267939D01*
X105262Y267362D01*
X104685Y266610D01*
X104323Y265734D01*
X104199Y264794D01*
Y260229D01*
X101864D01*
Y261794D01*
X97830D01*
X93795D01*
Y260229D01*
X91864D01*
Y261794D01*
X87830D01*
X83795D01*
Y260229D01*
X81461D01*
Y264794D01*
X81337Y265734D01*
X80975Y266610D01*
X80397Y267362D01*
X79645Y267939D01*
X78770Y268302D01*
X77830Y268426D01*
X76890Y268302D01*
X76014Y267939D01*
X75262Y267362D01*
X74685Y266610D01*
X74323Y265734D01*
X74199Y264794D01*
Y260229D01*
X71461D01*
Y264794D01*
X71337Y265734D01*
X70974Y266610D01*
X70398Y267362D01*
X69645Y267939D01*
X68770Y268302D01*
X67830Y268426D01*
X66890Y268302D01*
X66014Y267939D01*
X65262Y267362D01*
X64685Y266610D01*
X64323Y265734D01*
X64199Y264794D01*
Y260229D01*
X61461D01*
Y264794D01*
X61337Y265734D01*
X60975Y266610D01*
X60397Y267362D01*
X59645Y267939D01*
X58770Y268302D01*
X57830Y268426D01*
X56890Y268302D01*
X56014Y267939D01*
X55262Y267362D01*
X54685Y266610D01*
X54323Y265734D01*
X54199Y264794D01*
Y260229D01*
X51461D01*
Y264794D01*
X51337Y265734D01*
X50975Y266610D01*
X50397Y267362D01*
X49645Y267939D01*
X48770Y268302D01*
X47830Y268426D01*
X46890Y268302D01*
X46014Y267939D01*
X45262Y267362D01*
X44685Y266610D01*
X44323Y265734D01*
X44199Y264794D01*
Y260229D01*
X41461D01*
Y264794D01*
X41337Y265734D01*
X40975Y266610D01*
X40398Y267362D01*
X39645Y267939D01*
X38913Y268243D01*
Y270999D01*
X41552D01*
X41677Y270874D01*
X41975Y270675D01*
X42326Y270605D01*
X55318D01*
X55669Y270675D01*
X55967Y270874D01*
X57273Y272180D01*
X60005D01*
X60283Y271764D01*
X60896Y271355D01*
X61617Y271211D01*
X62339Y271355D01*
X62951Y271764D01*
X63360Y272376D01*
X63503Y273098D01*
X63360Y273819D01*
X62951Y274431D01*
X62339Y274840D01*
X61617Y274984D01*
X60896Y274840D01*
X60283Y274431D01*
X60005Y274015D01*
X56893D01*
X56542Y273945D01*
X56244Y273746D01*
X54938Y272441D01*
X42706D01*
X42581Y272565D01*
X42283Y272764D01*
X41932Y272834D01*
X38389D01*
X38038Y272764D01*
X37740Y272565D01*
X37346Y272172D01*
X37148Y271874D01*
X37078Y271523D01*
Y268326D01*
X36890Y268302D01*
X36014Y267939D01*
X35262Y267362D01*
X34685Y266610D01*
X34323Y265734D01*
X34199Y264794D01*
Y260229D01*
X31461D01*
Y264794D01*
X31337Y265734D01*
X30975Y266610D01*
X30397Y267362D01*
X29645Y267939D01*
X29464Y268014D01*
Y269962D01*
X33651Y274149D01*
X50557D01*
X50835Y273732D01*
X51447Y273323D01*
X52169Y273180D01*
X52890Y273323D01*
X53502Y273732D01*
X53911Y274344D01*
X54055Y275066D01*
X53911Y275788D01*
X53502Y276400D01*
X52890Y276809D01*
X52169Y276952D01*
X51447Y276809D01*
X50835Y276400D01*
X50557Y275984D01*
X33271D01*
X32920Y275914D01*
X32622Y275715D01*
X28546Y271639D01*
X25921Y274265D01*
Y282153D01*
X25851Y282504D01*
X25652Y282802D01*
X21739Y286715D01*
X21771Y286877D01*
X21628Y287599D01*
X21219Y288211D01*
X20607Y288620D01*
X19885Y288763D01*
X19163Y288620D01*
X18551Y288211D01*
X18142Y287599D01*
X17999Y286877D01*
X18142Y286155D01*
X18551Y285543D01*
X19163Y285135D01*
X19885Y284991D01*
X20607Y285135D01*
X20677Y285181D01*
X24085Y281773D01*
Y273885D01*
X24155Y273534D01*
X24354Y273236D01*
X27629Y269962D01*
Y268399D01*
X26890Y268302D01*
X26014Y267939D01*
X25262Y267362D01*
X24685Y266610D01*
X24323Y265734D01*
X24199Y264794D01*
Y260229D01*
X21461D01*
Y264794D01*
X21337Y265734D01*
X20975Y266610D01*
X20398Y267362D01*
X19645Y267939D01*
X18770Y268302D01*
X17830Y268426D01*
X16890Y268302D01*
X16014Y267939D01*
X15262Y267362D01*
X14685Y266610D01*
X14323Y265734D01*
X14199Y264794D01*
Y260229D01*
X11830D01*
Y261794D01*
X7830D01*
Y262295D01*
X7330D01*
Y268794D01*
X6229D01*
Y278663D01*
X10330D01*
X11270Y278787D01*
X12145Y279150D01*
X12898Y279727D01*
X13475Y280479D01*
X13837Y281355D01*
X13961Y282295D01*
X13837Y283234D01*
X13475Y284110D01*
X12898Y284862D01*
X12145Y285439D01*
X11270Y285802D01*
X10330Y285926D01*
X6229D01*
Y288663D01*
X10330D01*
X11270Y288787D01*
X12145Y289150D01*
X12898Y289727D01*
X13475Y290479D01*
X13837Y291355D01*
X13961Y292295D01*
X13837Y293234D01*
X13475Y294110D01*
X12898Y294862D01*
X12145Y295439D01*
X11270Y295802D01*
X10330Y295926D01*
X6229D01*
Y298663D01*
X10330D01*
X11270Y298787D01*
X12145Y299150D01*
X12898Y299727D01*
X13475Y300479D01*
X13837Y301355D01*
X13961Y302294D01*
X13837Y303234D01*
X13475Y304110D01*
X12898Y304862D01*
X12145Y305439D01*
X11270Y305802D01*
X10330Y305926D01*
X6229D01*
Y308663D01*
X10330D01*
X11270Y308787D01*
X12145Y309150D01*
X12898Y309727D01*
X13475Y310479D01*
X13804Y311275D01*
X28767D01*
X29157Y311352D01*
X29488Y311574D01*
X34081Y316167D01*
X34452Y316093D01*
X35174Y316237D01*
X35786Y316646D01*
X36195Y317258D01*
X36338Y317980D01*
X36195Y318701D01*
X35786Y319313D01*
X35174Y319722D01*
X34452Y319866D01*
X33730Y319722D01*
X33118Y319313D01*
X32709Y318701D01*
X32566Y317980D01*
X32639Y317609D01*
X28345Y313314D01*
X13804D01*
X13475Y314110D01*
X12898Y314862D01*
X12145Y315439D01*
X11270Y315802D01*
X10330Y315926D01*
X6229D01*
Y318260D01*
X7330D01*
Y322294D01*
Y326329D01*
X6229D01*
Y328260D01*
X7330D01*
Y332295D01*
Y336329D01*
X6229D01*
Y338663D01*
X10330D01*
X11270Y338787D01*
X12145Y339150D01*
X12898Y339727D01*
X13475Y340479D01*
X13837Y341355D01*
X13961Y342295D01*
X13837Y343234D01*
X13475Y344110D01*
X12898Y344862D01*
X12145Y345439D01*
X11270Y345802D01*
X10330Y345926D01*
X6229D01*
Y348663D01*
X10330D01*
X11270Y348787D01*
X12145Y349150D01*
X12898Y349727D01*
X13475Y350479D01*
X13837Y351355D01*
X13961Y352294D01*
X13837Y353234D01*
X13475Y354110D01*
X12898Y354862D01*
X12145Y355439D01*
X11270Y355802D01*
X10330Y355926D01*
X6229D01*
Y358663D01*
X10330D01*
X11270Y358787D01*
X12145Y359150D01*
X12898Y359727D01*
X13475Y360479D01*
X13837Y361355D01*
X13961Y362295D01*
X13837Y363234D01*
X13475Y364110D01*
X12898Y364862D01*
X12145Y365439D01*
X11270Y365802D01*
X10330Y365926D01*
X6229D01*
Y368663D01*
X10330D01*
X11270Y368787D01*
X12145Y369150D01*
X12898Y369727D01*
X13475Y370479D01*
X13837Y371355D01*
X13961Y372294D01*
X13837Y373234D01*
X13475Y374110D01*
X12898Y374862D01*
X12145Y375439D01*
X11270Y375802D01*
X10330Y375926D01*
X6229D01*
Y378663D01*
X10330D01*
X11270Y378787D01*
X12145Y379150D01*
X12898Y379727D01*
X13475Y380479D01*
X13804Y381275D01*
X91076D01*
X91102Y381249D01*
X91433Y381028D01*
X91823Y380950D01*
X94012D01*
X94608Y380552D01*
X95330Y380408D01*
X96052Y380552D01*
X96664Y380961D01*
X97073Y381573D01*
X97216Y382295D01*
X97073Y383016D01*
X96664Y383628D01*
X96052Y384037D01*
X95330Y384181D01*
X95128Y384141D01*
X94641Y384220D01*
X94585Y384504D01*
X94498Y384942D01*
X94089Y385554D01*
X93477Y385962D01*
X92755Y386106D01*
X92033Y385962D01*
X91421Y385554D01*
X91211Y385239D01*
X72327D01*
X64456Y393110D01*
X64126Y393331D01*
X63735Y393409D01*
X26547D01*
X26337Y393723D01*
X25725Y394132D01*
X25003Y394275D01*
X24281Y394132D01*
X23669Y393723D01*
X23260Y393111D01*
X23117Y392389D01*
X23260Y391667D01*
X23669Y391055D01*
X24281Y390646D01*
X25003Y390503D01*
X25725Y390646D01*
X26337Y391055D01*
X26547Y391369D01*
X63313D01*
X70868Y383814D01*
X70661Y383314D01*
X13804D01*
X13475Y384110D01*
X12898Y384862D01*
X12145Y385439D01*
X11270Y385802D01*
X10330Y385926D01*
X6229D01*
Y388663D01*
X10330D01*
X11270Y388787D01*
X12145Y389150D01*
X12898Y389727D01*
X13475Y390479D01*
X13837Y391355D01*
X13961Y392295D01*
X13837Y393234D01*
X13475Y394110D01*
X12898Y394862D01*
X12145Y395439D01*
X11270Y395802D01*
X10330Y395926D01*
X6229D01*
Y398663D01*
X10330D01*
X11270Y398787D01*
X12145Y399150D01*
X12898Y399727D01*
X13475Y400479D01*
X13837Y401355D01*
X13936Y402103D01*
X44010Y432177D01*
X86911D01*
X87262Y432247D01*
X87457Y432377D01*
X89330D01*
X89681Y432447D01*
X89979Y432646D01*
X92979Y435646D01*
X93178Y435943D01*
X93247Y436295D01*
Y437683D01*
X93664Y437961D01*
X94073Y438573D01*
X94216Y439294D01*
X94073Y440016D01*
X93664Y440628D01*
X93052Y441037D01*
X92488Y441149D01*
X92344Y441655D01*
X92420Y441705D01*
X92829Y442317D01*
X92972Y443039D01*
X92829Y443760D01*
X92420Y444372D01*
X91808Y444781D01*
X91086Y444925D01*
X90364Y444781D01*
X90197Y444670D01*
X79601D01*
X79052Y445037D01*
X78330Y445181D01*
X77608Y445037D01*
X76996Y444628D01*
X76587Y444016D01*
X76444Y443294D01*
X76587Y442573D01*
X76996Y441961D01*
X77608Y441552D01*
X78330Y441408D01*
X78455Y441433D01*
X78586Y441407D01*
X90197D01*
X90364Y441296D01*
X90928Y441184D01*
X91071Y440679D01*
X90996Y440628D01*
X90587Y440016D01*
X90534Y439748D01*
X90402Y439303D01*
X89680Y439447D01*
X88958Y439303D01*
X88346Y438894D01*
X87937Y438282D01*
X87794Y437561D01*
X87891Y437070D01*
X86034Y435212D01*
X42830D01*
X42479Y435142D01*
X42181Y434943D01*
X20450Y413212D01*
X13840D01*
X13837Y413234D01*
X13475Y414110D01*
X12898Y414862D01*
X12145Y415439D01*
X11270Y415802D01*
X10330Y415926D01*
X6229D01*
Y418260D01*
X7330D01*
Y422295D01*
Y426329D01*
X6229D01*
Y428663D01*
X10330D01*
X11270Y428787D01*
X12145Y429150D01*
X12898Y429727D01*
X13475Y430479D01*
X13837Y431355D01*
X13961Y432295D01*
X13837Y433234D01*
X13475Y434110D01*
X12898Y434862D01*
X12145Y435439D01*
X11270Y435802D01*
X10330Y435926D01*
X6229D01*
Y438260D01*
X7330D01*
Y442295D01*
Y446329D01*
X6229D01*
Y448663D01*
X10330D01*
X11270Y448787D01*
X12145Y449150D01*
X12898Y449727D01*
X13475Y450479D01*
X13837Y451355D01*
X13961Y452294D01*
X13837Y453234D01*
X13475Y454110D01*
X12898Y454862D01*
X12145Y455439D01*
X11270Y455802D01*
X10330Y455926D01*
X6229D01*
Y458260D01*
X7330D01*
Y462294D01*
Y466329D01*
X6229D01*
Y468694D01*
X13930D01*
Y475894D01*
X6229D01*
Y502110D01*
X18433Y502114D01*
X18607Y501645D01*
X18538Y501586D01*
X17199Y500018D01*
X16122Y498260D01*
X15333Y496355D01*
X14851Y494350D01*
X14689Y492295D01*
X14851Y490239D01*
X15333Y488234D01*
X16122Y486329D01*
X17199Y484571D01*
X18538Y483003D01*
X20106Y481664D01*
X21864Y480586D01*
X23769Y479797D01*
X25774Y479316D01*
X27830Y479154D01*
X29886Y479316D01*
X31891Y479797D01*
X33796Y480586D01*
X35554Y481664D01*
X37122Y483003D01*
X38461Y484571D01*
X39538Y486329D01*
X40327Y488234D01*
X40809Y490239D01*
X40970Y492295D01*
X40809Y494350D01*
X40327Y496355D01*
X39538Y498260D01*
X38461Y500018D01*
X37122Y501586D01*
X37047Y501650D01*
X37220Y502119D01*
X168487Y502160D01*
X168660Y501690D01*
X168538Y501586D01*
X167199Y500018D01*
X166122Y498260D01*
X165332Y496355D01*
X164851Y494350D01*
X164689Y492295D01*
X164851Y490239D01*
X165332Y488234D01*
X166122Y486329D01*
X167199Y484571D01*
X168538Y483003D01*
X170106Y481664D01*
X171864Y480586D01*
X173769Y479797D01*
X175774Y479316D01*
X177830Y479154D01*
X179885Y479316D01*
X181891Y479797D01*
X183796Y480586D01*
X185554Y481664D01*
X187122Y483003D01*
X188461Y484571D01*
X189538Y486329D01*
X190327Y488234D01*
X190809Y490239D01*
X190970Y492295D01*
X190809Y494350D01*
X190327Y496355D01*
X189538Y498260D01*
X188461Y500018D01*
X187122Y501586D01*
X186993Y501696D01*
X187166Y502165D01*
X199317Y502169D01*
X199671Y501816D01*
D02*
G37*
G36*
X226853Y410915D02*
X220388Y404450D01*
X219889Y404483D01*
X219598Y404862D01*
X218845Y405439D01*
X217970Y405802D01*
X217030Y405926D01*
X212929D01*
Y408663D01*
X217030D01*
X217970Y408787D01*
X218845Y409150D01*
X219598Y409727D01*
X220175Y410479D01*
X220537Y411355D01*
X220540Y411377D01*
X226661D01*
X226853Y410915D01*
D02*
G37*
G36*
X20153D02*
X13688Y404450D01*
X13189Y404483D01*
X12898Y404862D01*
X12145Y405439D01*
X11270Y405802D01*
X10330Y405926D01*
X6229D01*
Y408663D01*
X10330D01*
X11270Y408787D01*
X12145Y409150D01*
X12898Y409727D01*
X13475Y410479D01*
X13837Y411355D01*
X13840Y411377D01*
X19961D01*
X20153Y410915D01*
D02*
G37*
G36*
X406371Y247616D02*
Y222094D01*
X405030D01*
Y218094D01*
Y214094D01*
X406371D01*
Y211726D01*
X402030D01*
X401090Y211602D01*
X400214Y211239D01*
X399462Y210662D01*
X398885Y209910D01*
X398523Y209034D01*
X398399Y208095D01*
X398523Y207155D01*
X398885Y206279D01*
X399462Y205527D01*
X400214Y204950D01*
X401090Y204587D01*
X402030Y204463D01*
X406371D01*
Y201726D01*
X402030D01*
X401090Y201602D01*
X400214Y201239D01*
X399462Y200662D01*
X398885Y199910D01*
X398523Y199034D01*
X398399Y198094D01*
X398523Y197155D01*
X398885Y196279D01*
X399462Y195527D01*
X400214Y194950D01*
X401090Y194587D01*
X402030Y194463D01*
X406371D01*
Y192129D01*
X405030D01*
Y188094D01*
Y184060D01*
X406371D01*
Y181726D01*
X402030D01*
X401090Y181602D01*
X400214Y181239D01*
X399462Y180662D01*
X398885Y179910D01*
X398523Y179034D01*
X398399Y178094D01*
X398523Y177155D01*
X398885Y176279D01*
X399462Y175527D01*
X400214Y174950D01*
X401090Y174587D01*
X402030Y174463D01*
X406371D01*
Y171726D01*
X402030D01*
X401090Y171602D01*
X400214Y171239D01*
X399462Y170662D01*
X398885Y169910D01*
X398523Y169034D01*
X398399Y168095D01*
X398523Y167155D01*
X398885Y166279D01*
X399462Y165527D01*
X400214Y164950D01*
X401090Y164587D01*
X402030Y164463D01*
X406371D01*
Y162129D01*
X405030D01*
Y158095D01*
Y154060D01*
X406371D01*
Y151726D01*
X402030D01*
X401090Y151602D01*
X400214Y151239D01*
X399462Y150662D01*
X398885Y149910D01*
X398523Y149034D01*
X398399Y148094D01*
X398523Y147155D01*
X398885Y146279D01*
X399462Y145527D01*
X400214Y144950D01*
X401090Y144587D01*
X402030Y144463D01*
X406371D01*
Y142129D01*
X405030D01*
Y138094D01*
Y134060D01*
X406371D01*
Y132129D01*
X405030D01*
Y128094D01*
Y124060D01*
X406371D01*
Y121726D01*
X402030D01*
X401090Y121602D01*
X400214Y121239D01*
X399462Y120662D01*
X398885Y119910D01*
X398523Y119034D01*
X398399Y118095D01*
X398523Y117155D01*
X398885Y116279D01*
X399462Y115527D01*
X400214Y114950D01*
X401090Y114587D01*
X402030Y114463D01*
X406371D01*
Y111726D01*
X402030D01*
X401090Y111602D01*
X400214Y111239D01*
X399462Y110662D01*
X398885Y109910D01*
X398523Y109034D01*
X398399Y108095D01*
X398523Y107155D01*
X398885Y106279D01*
X399462Y105527D01*
X400214Y104950D01*
X401090Y104587D01*
X402030Y104463D01*
X406371D01*
Y101726D01*
X402030D01*
X401090Y101602D01*
X400214Y101239D01*
X399462Y100662D01*
X398885Y99910D01*
X398523Y99034D01*
X398399Y98094D01*
X398523Y97155D01*
X398885Y96279D01*
X399462Y95527D01*
X400214Y94950D01*
X401090Y94587D01*
X402030Y94463D01*
X406371D01*
Y91726D01*
X402030D01*
X401090Y91602D01*
X400214Y91239D01*
X399462Y90662D01*
X398885Y89910D01*
X398523Y89034D01*
X398399Y88095D01*
X398523Y87155D01*
X398885Y86279D01*
X399462Y85527D01*
X400214Y84950D01*
X401090Y84587D01*
X402030Y84463D01*
X406371D01*
Y81726D01*
X402030D01*
X401090Y81602D01*
X400214Y81239D01*
X399462Y80662D01*
X398885Y79910D01*
X398523Y79034D01*
X398399Y78095D01*
X398523Y77155D01*
X398885Y76279D01*
X399462Y75527D01*
X400214Y74950D01*
X401090Y74587D01*
X402030Y74463D01*
X406371D01*
Y72129D01*
X405030D01*
Y68094D01*
Y64060D01*
X406371D01*
Y62129D01*
X405030D01*
Y58095D01*
Y54060D01*
X406371D01*
Y51726D01*
X402030D01*
X401090Y51602D01*
X400214Y51239D01*
X399462Y50662D01*
X398885Y49910D01*
X398523Y49034D01*
X398399Y48094D01*
X398523Y47155D01*
X398885Y46279D01*
X399462Y45527D01*
X400214Y44950D01*
X401090Y44587D01*
X402030Y44463D01*
X406371D01*
Y41726D01*
X402030D01*
X401090Y41602D01*
X400214Y41239D01*
X399462Y40662D01*
X398885Y39910D01*
X398523Y39034D01*
X398399Y38094D01*
X398523Y37155D01*
X398885Y36279D01*
X399462Y35527D01*
X400214Y34950D01*
X401090Y34587D01*
X402030Y34463D01*
X406371D01*
Y31726D01*
X402030D01*
X401090Y31602D01*
X400214Y31239D01*
X399462Y30662D01*
X398885Y29910D01*
X398523Y29034D01*
X398399Y28095D01*
X398523Y27155D01*
X398885Y26279D01*
X399462Y25527D01*
X400214Y24950D01*
X401090Y24587D01*
X402030Y24463D01*
X406371D01*
Y14270D01*
X405871Y13936D01*
X405470Y14102D01*
X404530Y14226D01*
X403590Y14102D01*
X402714Y13739D01*
X401962Y13162D01*
X401385Y12410D01*
X401023Y11534D01*
X400899Y10594D01*
Y6029D01*
X398161D01*
Y10594D01*
X398037Y11534D01*
X397674Y12410D01*
X397097Y13162D01*
X396345Y13739D01*
X395470Y14102D01*
X394530Y14226D01*
X393590Y14102D01*
X392714Y13739D01*
X391962Y13162D01*
X391385Y12410D01*
X391023Y11534D01*
X390899Y10594D01*
Y6029D01*
X388161D01*
Y10594D01*
X388037Y11534D01*
X387674Y12410D01*
X387098Y13162D01*
X386345Y13739D01*
X385470Y14102D01*
X384530Y14226D01*
X383590Y14102D01*
X382714Y13739D01*
X381962Y13162D01*
X381385Y12410D01*
X381023Y11534D01*
X380899Y10594D01*
Y6029D01*
X378161D01*
Y10594D01*
X378037Y11534D01*
X377675Y12410D01*
X377098Y13162D01*
X376345Y13739D01*
X375470Y14102D01*
X374530Y14226D01*
X373590Y14102D01*
X372714Y13739D01*
X371962Y13162D01*
X371385Y12410D01*
X371023Y11534D01*
X370899Y10594D01*
Y6029D01*
X368161D01*
Y10594D01*
X368037Y11534D01*
X367674Y12410D01*
X367097Y13162D01*
X366345Y13739D01*
X365470Y14102D01*
X364530Y14226D01*
X363590Y14102D01*
X362714Y13739D01*
X361962Y13162D01*
X361385Y12410D01*
X361023Y11534D01*
X360899Y10594D01*
Y6029D01*
X358161D01*
Y10594D01*
X358037Y11534D01*
X357675Y12410D01*
X357098Y13162D01*
X356345Y13739D01*
X355470Y14102D01*
X355448Y14105D01*
Y17331D01*
X355378Y17682D01*
X355179Y17980D01*
X349634Y23525D01*
X349731Y24016D01*
X349587Y24738D01*
X349179Y25350D01*
X348567Y25758D01*
X347845Y25902D01*
X347123Y25758D01*
X346511Y25350D01*
X346102Y24738D01*
X345959Y24016D01*
X346102Y23294D01*
X346511Y22682D01*
X347123Y22273D01*
X347845Y22129D01*
X348336Y22227D01*
X353612Y16951D01*
Y14105D01*
X353590Y14102D01*
X352714Y13739D01*
X351962Y13162D01*
X351385Y12410D01*
X351023Y11534D01*
X350899Y10594D01*
Y6029D01*
X348161D01*
Y10594D01*
X348037Y11534D01*
X347674Y12410D01*
X347097Y13162D01*
X346345Y13739D01*
X345470Y14102D01*
X344530Y14226D01*
X343590Y14102D01*
X342714Y13739D01*
X341962Y13162D01*
X341385Y12410D01*
X341023Y11534D01*
X340899Y10594D01*
Y6029D01*
X338161D01*
Y10594D01*
X338037Y11534D01*
X337674Y12410D01*
X337098Y13162D01*
X336345Y13739D01*
X335470Y14102D01*
X334530Y14226D01*
X333590Y14102D01*
X332714Y13739D01*
X331962Y13162D01*
X331385Y12410D01*
X331023Y11534D01*
X330899Y10594D01*
Y6029D01*
X328161D01*
Y10594D01*
X328037Y11534D01*
X327675Y12410D01*
X327098Y13162D01*
X326345Y13739D01*
X325470Y14102D01*
X324530Y14226D01*
X323590Y14102D01*
X322714Y13739D01*
X321962Y13162D01*
X321385Y12410D01*
X321023Y11534D01*
X320899Y10594D01*
Y6029D01*
X318161D01*
Y10594D01*
X318037Y11534D01*
X317674Y12410D01*
X317097Y13162D01*
X316345Y13739D01*
X315470Y14102D01*
X314530Y14226D01*
X313590Y14102D01*
X312714Y13739D01*
X311962Y13162D01*
X311385Y12410D01*
X311023Y11534D01*
X310899Y10594D01*
Y6029D01*
X308564D01*
Y7594D01*
X304530D01*
X300495D01*
Y6029D01*
X298564D01*
Y7594D01*
X294530D01*
X290495D01*
Y6029D01*
X288161D01*
Y10594D01*
X288037Y11534D01*
X287674Y12410D01*
X287098Y13162D01*
X286345Y13739D01*
X285470Y14102D01*
X284530Y14226D01*
X283590Y14102D01*
X282714Y13739D01*
X281962Y13162D01*
X281385Y12410D01*
X281023Y11534D01*
X280899Y10594D01*
Y6029D01*
X278161D01*
Y10594D01*
X278037Y11534D01*
X277675Y12410D01*
X277098Y13162D01*
X276345Y13739D01*
X275470Y14102D01*
X274530Y14226D01*
X273590Y14102D01*
X272714Y13739D01*
X271962Y13162D01*
X271385Y12410D01*
X271023Y11534D01*
X270899Y10594D01*
Y6029D01*
X268161D01*
Y10594D01*
X268037Y11534D01*
X267674Y12410D01*
X267097Y13162D01*
X266345Y13739D01*
X265470Y14102D01*
X264530Y14226D01*
X263590Y14102D01*
X262714Y13739D01*
X261962Y13162D01*
X261385Y12410D01*
X261023Y11534D01*
X260899Y10594D01*
Y6029D01*
X258161D01*
Y10594D01*
X258037Y11534D01*
X257675Y12410D01*
X257098Y13162D01*
X256345Y13739D01*
X255470Y14102D01*
X254530Y14226D01*
X253590Y14102D01*
X252714Y13739D01*
X251962Y13162D01*
X251385Y12410D01*
X251023Y11534D01*
X250899Y10594D01*
Y6029D01*
X248161D01*
Y10594D01*
X248037Y11534D01*
X247674Y12410D01*
X247097Y13162D01*
X246345Y13739D01*
X245613Y14042D01*
Y16799D01*
X248252D01*
X248377Y16674D01*
X248675Y16475D01*
X249026Y16405D01*
X262018D01*
X262369Y16475D01*
X262667Y16674D01*
X263973Y17980D01*
X266705D01*
X266984Y17564D01*
X267596Y17155D01*
X268317Y17011D01*
X269039Y17155D01*
X269651Y17564D01*
X270060Y18176D01*
X270203Y18898D01*
X270060Y19620D01*
X269651Y20231D01*
X269039Y20640D01*
X268317Y20784D01*
X267596Y20640D01*
X266984Y20231D01*
X266705Y19815D01*
X263593D01*
X263242Y19745D01*
X262944Y19546D01*
X261638Y18240D01*
X249406D01*
X249281Y18365D01*
X248983Y18564D01*
X248632Y18634D01*
X245089D01*
X244738Y18564D01*
X244440Y18365D01*
X244046Y17972D01*
X243847Y17674D01*
X243778Y17323D01*
Y14127D01*
X243590Y14102D01*
X242714Y13739D01*
X241962Y13162D01*
X241385Y12410D01*
X241023Y11534D01*
X240899Y10594D01*
Y6029D01*
X238161D01*
Y10594D01*
X238037Y11534D01*
X237674Y12410D01*
X237098Y13162D01*
X236345Y13739D01*
X236164Y13814D01*
Y15762D01*
X240351Y19949D01*
X257257D01*
X257535Y19532D01*
X258147Y19124D01*
X258869Y18980D01*
X259590Y19124D01*
X260202Y19532D01*
X260611Y20144D01*
X260755Y20866D01*
X260611Y21588D01*
X260202Y22200D01*
X259590Y22609D01*
X258869Y22752D01*
X258147Y22609D01*
X257535Y22200D01*
X257257Y21784D01*
X239971D01*
X239620Y21714D01*
X239322Y21515D01*
X235246Y17439D01*
X232621Y20065D01*
Y27953D01*
X232551Y28304D01*
X232352Y28602D01*
X228439Y32515D01*
X228471Y32677D01*
X228328Y33399D01*
X227919Y34011D01*
X227307Y34420D01*
X226585Y34563D01*
X225863Y34420D01*
X225251Y34011D01*
X224842Y33399D01*
X224699Y32677D01*
X224842Y31955D01*
X225251Y31343D01*
X225863Y30935D01*
X226585Y30791D01*
X227307Y30935D01*
X227377Y30981D01*
X230785Y27573D01*
Y19685D01*
X230855Y19334D01*
X231054Y19036D01*
X234329Y15762D01*
Y14199D01*
X233590Y14102D01*
X232714Y13739D01*
X231962Y13162D01*
X231385Y12410D01*
X231023Y11534D01*
X230899Y10594D01*
Y6029D01*
X228161D01*
Y10594D01*
X228037Y11534D01*
X227675Y12410D01*
X227098Y13162D01*
X226345Y13739D01*
X225470Y14102D01*
X224530Y14226D01*
X223590Y14102D01*
X222714Y13739D01*
X221962Y13162D01*
X221385Y12410D01*
X221023Y11534D01*
X220899Y10594D01*
Y6029D01*
X218530D01*
Y7594D01*
X214530D01*
Y8095D01*
X214030D01*
Y14594D01*
X212929D01*
Y24463D01*
X217030D01*
X217970Y24587D01*
X218845Y24950D01*
X219598Y25527D01*
X220175Y26279D01*
X220537Y27155D01*
X220661Y28095D01*
X220537Y29034D01*
X220175Y29910D01*
X219598Y30662D01*
X218845Y31239D01*
X217970Y31602D01*
X217030Y31726D01*
X212929D01*
Y34463D01*
X217030D01*
X217970Y34587D01*
X218845Y34950D01*
X219598Y35527D01*
X220175Y36279D01*
X220537Y37155D01*
X220661Y38094D01*
X220537Y39034D01*
X220175Y39910D01*
X219598Y40662D01*
X218845Y41239D01*
X217970Y41602D01*
X217030Y41726D01*
X212929D01*
Y44463D01*
X217030D01*
X217970Y44587D01*
X218845Y44950D01*
X219598Y45527D01*
X220175Y46279D01*
X220537Y47155D01*
X220661Y48094D01*
X220537Y49034D01*
X220175Y49910D01*
X219598Y50662D01*
X218845Y51239D01*
X217970Y51602D01*
X217030Y51726D01*
X212929D01*
Y54463D01*
X217030D01*
X217970Y54587D01*
X218845Y54950D01*
X219598Y55527D01*
X220175Y56279D01*
X220504Y57075D01*
X235467D01*
X235857Y57152D01*
X236188Y57373D01*
X240781Y61967D01*
X241152Y61893D01*
X241874Y62037D01*
X242486Y62446D01*
X242895Y63058D01*
X243038Y63779D01*
X242895Y64501D01*
X242486Y65113D01*
X241874Y65522D01*
X241152Y65666D01*
X240430Y65522D01*
X239818Y65113D01*
X239409Y64501D01*
X239266Y63779D01*
X239339Y63409D01*
X235045Y59114D01*
X220504D01*
X220175Y59910D01*
X219598Y60662D01*
X218845Y61239D01*
X217970Y61602D01*
X217030Y61726D01*
X212929D01*
Y64060D01*
X214030D01*
Y68094D01*
Y72129D01*
X212929D01*
Y74060D01*
X214030D01*
Y78095D01*
Y82129D01*
X212929D01*
Y84463D01*
X217030D01*
X217970Y84587D01*
X218845Y84950D01*
X219598Y85527D01*
X220175Y86279D01*
X220537Y87155D01*
X220661Y88095D01*
X220537Y89034D01*
X220175Y89910D01*
X219598Y90662D01*
X218845Y91239D01*
X217970Y91602D01*
X217030Y91726D01*
X212929D01*
Y94463D01*
X217030D01*
X217970Y94587D01*
X218845Y94950D01*
X219598Y95527D01*
X220175Y96279D01*
X220537Y97155D01*
X220661Y98094D01*
X220537Y99034D01*
X220175Y99910D01*
X219598Y100662D01*
X218845Y101239D01*
X217970Y101602D01*
X217030Y101726D01*
X212929D01*
Y104463D01*
X217030D01*
X217970Y104587D01*
X218845Y104950D01*
X219598Y105527D01*
X220175Y106279D01*
X220537Y107155D01*
X220661Y108095D01*
X220537Y109034D01*
X220175Y109910D01*
X219598Y110662D01*
X218845Y111239D01*
X217970Y111602D01*
X217030Y111726D01*
X212929D01*
Y114463D01*
X217030D01*
X217970Y114587D01*
X218845Y114950D01*
X219598Y115527D01*
X220175Y116279D01*
X220537Y117155D01*
X220661Y118095D01*
X220537Y119034D01*
X220175Y119910D01*
X219598Y120662D01*
X218845Y121239D01*
X217970Y121602D01*
X217030Y121726D01*
X212929D01*
Y124463D01*
X217030D01*
X217970Y124587D01*
X218845Y124950D01*
X219598Y125527D01*
X220175Y126279D01*
X220504Y127075D01*
X297776D01*
X297802Y127049D01*
X298133Y126828D01*
X298523Y126750D01*
X300712D01*
X301308Y126352D01*
X302030Y126208D01*
X302752Y126352D01*
X303364Y126761D01*
X303773Y127373D01*
X303916Y128094D01*
X303773Y128816D01*
X303364Y129428D01*
X302752Y129837D01*
X302030Y129981D01*
X301828Y129941D01*
X301341Y130020D01*
X301285Y130304D01*
X301198Y130742D01*
X300789Y131353D01*
X300177Y131762D01*
X299455Y131906D01*
X298733Y131762D01*
X298121Y131353D01*
X297911Y131039D01*
X279027D01*
X271156Y138910D01*
X270826Y139131D01*
X270435Y139209D01*
X233247D01*
X233037Y139523D01*
X232425Y139932D01*
X231703Y140075D01*
X230981Y139932D01*
X230369Y139523D01*
X229960Y138911D01*
X229817Y138189D01*
X229960Y137467D01*
X230369Y136855D01*
X230981Y136446D01*
X231703Y136303D01*
X232425Y136446D01*
X233037Y136855D01*
X233247Y137169D01*
X270013D01*
X277568Y129614D01*
X277361Y129114D01*
X220504D01*
X220175Y129910D01*
X219598Y130662D01*
X218845Y131239D01*
X217970Y131602D01*
X217030Y131726D01*
X212929D01*
Y134463D01*
X217030D01*
X217970Y134587D01*
X218845Y134950D01*
X219598Y135527D01*
X220175Y136279D01*
X220537Y137155D01*
X220661Y138094D01*
X220537Y139034D01*
X220175Y139910D01*
X219598Y140662D01*
X218845Y141239D01*
X217970Y141602D01*
X217030Y141726D01*
X212929D01*
Y144463D01*
X217030D01*
X217970Y144587D01*
X218845Y144950D01*
X219598Y145527D01*
X220175Y146279D01*
X220537Y147155D01*
X220636Y147903D01*
X250710Y177977D01*
X293611D01*
X293962Y178047D01*
X294157Y178177D01*
X296030D01*
X296381Y178247D01*
X296679Y178446D01*
X299679Y181446D01*
X299878Y181743D01*
X299948Y182095D01*
Y183483D01*
X300364Y183761D01*
X300773Y184373D01*
X300916Y185094D01*
X300773Y185816D01*
X300364Y186428D01*
X299752Y186837D01*
X299188Y186949D01*
X299044Y187455D01*
X299120Y187505D01*
X299529Y188117D01*
X299672Y188839D01*
X299529Y189560D01*
X299120Y190172D01*
X298508Y190581D01*
X297786Y190725D01*
X297064Y190581D01*
X296897Y190470D01*
X286301D01*
X285752Y190837D01*
X285030Y190981D01*
X284308Y190837D01*
X283696Y190428D01*
X283287Y189816D01*
X283144Y189094D01*
X283287Y188373D01*
X283696Y187761D01*
X284308Y187352D01*
X285030Y187208D01*
X285155Y187233D01*
X285286Y187207D01*
X296897D01*
X297064Y187096D01*
X297628Y186984D01*
X297771Y186478D01*
X297696Y186428D01*
X297287Y185816D01*
X297234Y185548D01*
X297102Y185103D01*
X296380Y185247D01*
X295658Y185103D01*
X295046Y184694D01*
X294637Y184082D01*
X294494Y183361D01*
X294591Y182870D01*
X292734Y181012D01*
X249530D01*
X249179Y180942D01*
X248881Y180743D01*
X227150Y159012D01*
X220540D01*
X220537Y159034D01*
X220175Y159910D01*
X219598Y160662D01*
X218845Y161239D01*
X217970Y161602D01*
X217030Y161726D01*
X212929D01*
Y164060D01*
X214030D01*
Y168095D01*
Y172129D01*
X212929D01*
Y174463D01*
X217030D01*
X217970Y174587D01*
X218845Y174950D01*
X219598Y175527D01*
X220175Y176279D01*
X220537Y177155D01*
X220661Y178094D01*
X220537Y179034D01*
X220175Y179910D01*
X219598Y180662D01*
X218845Y181239D01*
X217970Y181602D01*
X217030Y181726D01*
X212929D01*
Y184060D01*
X214030D01*
Y188094D01*
Y192129D01*
X212929D01*
Y194463D01*
X217030D01*
X217970Y194587D01*
X218845Y194950D01*
X219598Y195527D01*
X220175Y196279D01*
X220537Y197155D01*
X220661Y198094D01*
X220537Y199034D01*
X220175Y199910D01*
X219598Y200662D01*
X218845Y201239D01*
X217970Y201602D01*
X217030Y201726D01*
X212929D01*
Y204060D01*
X214030D01*
Y208095D01*
Y212129D01*
X212929D01*
Y214494D01*
X220630D01*
Y221694D01*
X212929D01*
Y247910D01*
X225133Y247914D01*
X225306Y247445D01*
X225238Y247386D01*
X223899Y245818D01*
X222822Y244060D01*
X222032Y242155D01*
X221551Y240150D01*
X221389Y238094D01*
X221551Y236039D01*
X222032Y234034D01*
X222822Y232129D01*
X223899Y230371D01*
X225238Y228803D01*
X226806Y227464D01*
X228564Y226386D01*
X230469Y225597D01*
X232474Y225116D01*
X234530Y224954D01*
X236585Y225116D01*
X238591Y225597D01*
X240496Y226386D01*
X242254Y227464D01*
X243822Y228803D01*
X245161Y230371D01*
X246238Y232129D01*
X247027Y234034D01*
X247509Y236039D01*
X247670Y238094D01*
X247509Y240150D01*
X247027Y242155D01*
X246238Y244060D01*
X245161Y245818D01*
X243822Y247386D01*
X243747Y247450D01*
X243920Y247919D01*
X375187Y247960D01*
X375360Y247491D01*
X375238Y247386D01*
X373899Y245818D01*
X372822Y244060D01*
X372032Y242155D01*
X371551Y240150D01*
X371389Y238094D01*
X371551Y236039D01*
X372032Y234034D01*
X372822Y232129D01*
X373899Y230371D01*
X375238Y228803D01*
X376806Y227464D01*
X378564Y226386D01*
X380469Y225597D01*
X382474Y225116D01*
X384530Y224954D01*
X386585Y225116D01*
X388591Y225597D01*
X390496Y226386D01*
X392254Y227464D01*
X393822Y228803D01*
X395161Y230371D01*
X396238Y232129D01*
X397027Y234034D01*
X397509Y236039D01*
X397670Y238094D01*
X397509Y240150D01*
X397027Y242155D01*
X396238Y244060D01*
X395161Y245818D01*
X393822Y247386D01*
X393693Y247496D01*
X393866Y247965D01*
X406017Y247969D01*
X406371Y247616D01*
D02*
G37*
G36*
X199671D02*
Y222094D01*
X198330D01*
Y218094D01*
Y214094D01*
X199671D01*
Y211726D01*
X195330D01*
X194390Y211602D01*
X193514Y211239D01*
X192762Y210662D01*
X192185Y209910D01*
X191823Y209034D01*
X191699Y208095D01*
X191823Y207155D01*
X192185Y206279D01*
X192762Y205527D01*
X193514Y204950D01*
X194390Y204587D01*
X195330Y204463D01*
X199671D01*
Y201726D01*
X195330D01*
X194390Y201602D01*
X193514Y201239D01*
X192762Y200662D01*
X192185Y199910D01*
X191823Y199034D01*
X191699Y198094D01*
X191823Y197155D01*
X192185Y196279D01*
X192762Y195527D01*
X193514Y194950D01*
X194390Y194587D01*
X195330Y194463D01*
X199671D01*
Y192129D01*
X198330D01*
Y188094D01*
Y184060D01*
X199671D01*
Y181726D01*
X195330D01*
X194390Y181602D01*
X193514Y181239D01*
X192762Y180662D01*
X192185Y179910D01*
X191823Y179034D01*
X191699Y178094D01*
X191823Y177155D01*
X192185Y176279D01*
X192762Y175527D01*
X193514Y174950D01*
X194390Y174587D01*
X195330Y174463D01*
X199671D01*
Y171726D01*
X195330D01*
X194390Y171602D01*
X193514Y171239D01*
X192762Y170662D01*
X192185Y169910D01*
X191823Y169034D01*
X191699Y168095D01*
X191823Y167155D01*
X192185Y166279D01*
X192762Y165527D01*
X193514Y164950D01*
X194390Y164587D01*
X195330Y164463D01*
X199671D01*
Y162129D01*
X198330D01*
Y158095D01*
Y154060D01*
X199671D01*
Y151726D01*
X195330D01*
X194390Y151602D01*
X193514Y151239D01*
X192762Y150662D01*
X192185Y149910D01*
X191823Y149034D01*
X191699Y148094D01*
X191823Y147155D01*
X192185Y146279D01*
X192762Y145527D01*
X193514Y144950D01*
X194390Y144587D01*
X195330Y144463D01*
X199671D01*
Y142129D01*
X198330D01*
Y138094D01*
Y134060D01*
X199671D01*
Y132129D01*
X198330D01*
Y128094D01*
Y124060D01*
X199671D01*
Y121726D01*
X195330D01*
X194390Y121602D01*
X193514Y121239D01*
X192762Y120662D01*
X192185Y119910D01*
X191823Y119034D01*
X191699Y118095D01*
X191823Y117155D01*
X192185Y116279D01*
X192762Y115527D01*
X193514Y114950D01*
X194390Y114587D01*
X195330Y114463D01*
X199671D01*
Y111726D01*
X195330D01*
X194390Y111602D01*
X193514Y111239D01*
X192762Y110662D01*
X192185Y109910D01*
X191823Y109034D01*
X191699Y108095D01*
X191823Y107155D01*
X192185Y106279D01*
X192762Y105527D01*
X193514Y104950D01*
X194390Y104587D01*
X195330Y104463D01*
X199671D01*
Y101726D01*
X195330D01*
X194390Y101602D01*
X193514Y101239D01*
X192762Y100662D01*
X192185Y99910D01*
X191823Y99034D01*
X191699Y98094D01*
X191823Y97155D01*
X192185Y96279D01*
X192762Y95527D01*
X193514Y94950D01*
X194390Y94587D01*
X195330Y94463D01*
X199671D01*
Y91726D01*
X195330D01*
X194390Y91602D01*
X193514Y91239D01*
X192762Y90662D01*
X192185Y89910D01*
X191823Y89034D01*
X191699Y88095D01*
X191823Y87155D01*
X192185Y86279D01*
X192762Y85527D01*
X193514Y84950D01*
X194390Y84587D01*
X195330Y84463D01*
X199671D01*
Y81726D01*
X195330D01*
X194390Y81602D01*
X193514Y81239D01*
X192762Y80662D01*
X192185Y79910D01*
X191823Y79034D01*
X191699Y78095D01*
X191823Y77155D01*
X192185Y76279D01*
X192762Y75527D01*
X193514Y74950D01*
X194390Y74587D01*
X195330Y74463D01*
X199671D01*
Y72129D01*
X198330D01*
Y68094D01*
Y64060D01*
X199671D01*
Y62129D01*
X198330D01*
Y58095D01*
Y54060D01*
X199671D01*
Y51726D01*
X195330D01*
X194390Y51602D01*
X193514Y51239D01*
X192762Y50662D01*
X192185Y49910D01*
X191823Y49034D01*
X191699Y48094D01*
X191823Y47155D01*
X192185Y46279D01*
X192762Y45527D01*
X193514Y44950D01*
X194390Y44587D01*
X195330Y44463D01*
X199671D01*
Y41726D01*
X195330D01*
X194390Y41602D01*
X193514Y41239D01*
X192762Y40662D01*
X192185Y39910D01*
X191823Y39034D01*
X191699Y38094D01*
X191823Y37155D01*
X192185Y36279D01*
X192762Y35527D01*
X193514Y34950D01*
X194390Y34587D01*
X195330Y34463D01*
X199671D01*
Y31726D01*
X195330D01*
X194390Y31602D01*
X193514Y31239D01*
X192762Y30662D01*
X192185Y29910D01*
X191823Y29034D01*
X191699Y28095D01*
X191823Y27155D01*
X192185Y26279D01*
X192762Y25527D01*
X193514Y24950D01*
X194390Y24587D01*
X195330Y24463D01*
X199671D01*
Y14270D01*
X199171Y13936D01*
X198770Y14102D01*
X197830Y14226D01*
X196890Y14102D01*
X196014Y13739D01*
X195262Y13162D01*
X194685Y12410D01*
X194323Y11534D01*
X194199Y10594D01*
Y6029D01*
X191461D01*
Y10594D01*
X191337Y11534D01*
X190974Y12410D01*
X190398Y13162D01*
X189645Y13739D01*
X188770Y14102D01*
X187830Y14226D01*
X186890Y14102D01*
X186014Y13739D01*
X185262Y13162D01*
X184685Y12410D01*
X184323Y11534D01*
X184199Y10594D01*
Y6029D01*
X181461D01*
Y10594D01*
X181337Y11534D01*
X180974Y12410D01*
X180397Y13162D01*
X179645Y13739D01*
X178770Y14102D01*
X177830Y14226D01*
X176890Y14102D01*
X176014Y13739D01*
X175262Y13162D01*
X174685Y12410D01*
X174323Y11534D01*
X174199Y10594D01*
Y6029D01*
X171461D01*
Y10594D01*
X171337Y11534D01*
X170975Y12410D01*
X170397Y13162D01*
X169645Y13739D01*
X168770Y14102D01*
X167830Y14226D01*
X166890Y14102D01*
X166014Y13739D01*
X165262Y13162D01*
X164685Y12410D01*
X164323Y11534D01*
X164199Y10594D01*
Y6029D01*
X161461D01*
Y10594D01*
X161337Y11534D01*
X160975Y12410D01*
X160398Y13162D01*
X159645Y13739D01*
X158770Y14102D01*
X157830Y14226D01*
X156890Y14102D01*
X156014Y13739D01*
X155262Y13162D01*
X154685Y12410D01*
X154323Y11534D01*
X154199Y10594D01*
Y6029D01*
X151461D01*
Y10594D01*
X151337Y11534D01*
X150975Y12410D01*
X150398Y13162D01*
X149645Y13739D01*
X148770Y14102D01*
X148748Y14105D01*
Y17331D01*
X148678Y17682D01*
X148479Y17980D01*
X142933Y23525D01*
X143031Y24016D01*
X142887Y24738D01*
X142479Y25350D01*
X141867Y25758D01*
X141145Y25902D01*
X140423Y25758D01*
X139811Y25350D01*
X139402Y24738D01*
X139259Y24016D01*
X139402Y23294D01*
X139811Y22682D01*
X140423Y22273D01*
X141145Y22129D01*
X141636Y22227D01*
X146912Y16951D01*
Y14105D01*
X146890Y14102D01*
X146014Y13739D01*
X145262Y13162D01*
X144685Y12410D01*
X144323Y11534D01*
X144199Y10594D01*
Y6029D01*
X141461D01*
Y10594D01*
X141337Y11534D01*
X140974Y12410D01*
X140398Y13162D01*
X139645Y13739D01*
X138770Y14102D01*
X137830Y14226D01*
X136890Y14102D01*
X136014Y13739D01*
X135262Y13162D01*
X134685Y12410D01*
X134323Y11534D01*
X134199Y10594D01*
Y6029D01*
X131461D01*
Y10594D01*
X131337Y11534D01*
X130974Y12410D01*
X130397Y13162D01*
X129645Y13739D01*
X128770Y14102D01*
X127830Y14226D01*
X126890Y14102D01*
X126014Y13739D01*
X125262Y13162D01*
X124685Y12410D01*
X124323Y11534D01*
X124199Y10594D01*
Y6029D01*
X121461D01*
Y10594D01*
X121337Y11534D01*
X120975Y12410D01*
X120397Y13162D01*
X119645Y13739D01*
X118770Y14102D01*
X117830Y14226D01*
X116890Y14102D01*
X116014Y13739D01*
X115262Y13162D01*
X114685Y12410D01*
X114323Y11534D01*
X114199Y10594D01*
Y6029D01*
X111461D01*
Y10594D01*
X111337Y11534D01*
X110975Y12410D01*
X110398Y13162D01*
X109645Y13739D01*
X108770Y14102D01*
X107830Y14226D01*
X106890Y14102D01*
X106014Y13739D01*
X105262Y13162D01*
X104685Y12410D01*
X104323Y11534D01*
X104199Y10594D01*
Y6029D01*
X101864D01*
Y7594D01*
X97830D01*
X93795D01*
Y6029D01*
X91864D01*
Y7594D01*
X87830D01*
X83795D01*
Y6029D01*
X81461D01*
Y10594D01*
X81337Y11534D01*
X80975Y12410D01*
X80397Y13162D01*
X79645Y13739D01*
X78770Y14102D01*
X77830Y14226D01*
X76890Y14102D01*
X76014Y13739D01*
X75262Y13162D01*
X74685Y12410D01*
X74323Y11534D01*
X74199Y10594D01*
Y6029D01*
X71461D01*
Y10594D01*
X71337Y11534D01*
X70974Y12410D01*
X70398Y13162D01*
X69645Y13739D01*
X68770Y14102D01*
X67830Y14226D01*
X66890Y14102D01*
X66014Y13739D01*
X65262Y13162D01*
X64685Y12410D01*
X64323Y11534D01*
X64199Y10594D01*
Y6029D01*
X61461D01*
Y10594D01*
X61337Y11534D01*
X60975Y12410D01*
X60397Y13162D01*
X59645Y13739D01*
X58770Y14102D01*
X57830Y14226D01*
X56890Y14102D01*
X56014Y13739D01*
X55262Y13162D01*
X54685Y12410D01*
X54323Y11534D01*
X54199Y10594D01*
Y6029D01*
X51461D01*
Y10594D01*
X51337Y11534D01*
X50975Y12410D01*
X50397Y13162D01*
X49645Y13739D01*
X48770Y14102D01*
X47830Y14226D01*
X46890Y14102D01*
X46014Y13739D01*
X45262Y13162D01*
X44685Y12410D01*
X44323Y11534D01*
X44199Y10594D01*
Y6029D01*
X41461D01*
Y10594D01*
X41337Y11534D01*
X40975Y12410D01*
X40398Y13162D01*
X39645Y13739D01*
X38913Y14042D01*
Y16799D01*
X41552D01*
X41677Y16674D01*
X41975Y16475D01*
X42326Y16405D01*
X55318D01*
X55669Y16475D01*
X55967Y16674D01*
X57273Y17980D01*
X60005D01*
X60283Y17564D01*
X60896Y17155D01*
X61617Y17011D01*
X62339Y17155D01*
X62951Y17564D01*
X63360Y18176D01*
X63503Y18898D01*
X63360Y19620D01*
X62951Y20231D01*
X62339Y20640D01*
X61617Y20784D01*
X60896Y20640D01*
X60283Y20231D01*
X60005Y19815D01*
X56893D01*
X56542Y19745D01*
X56244Y19546D01*
X54938Y18240D01*
X42706D01*
X42581Y18365D01*
X42283Y18564D01*
X41932Y18634D01*
X38389D01*
X38038Y18564D01*
X37740Y18365D01*
X37346Y17972D01*
X37148Y17674D01*
X37078Y17323D01*
Y14127D01*
X36890Y14102D01*
X36014Y13739D01*
X35262Y13162D01*
X34685Y12410D01*
X34323Y11534D01*
X34199Y10594D01*
Y6029D01*
X31461D01*
Y10594D01*
X31337Y11534D01*
X30975Y12410D01*
X30397Y13162D01*
X29645Y13739D01*
X29464Y13814D01*
Y15762D01*
X33651Y19949D01*
X50557D01*
X50835Y19532D01*
X51447Y19124D01*
X52169Y18980D01*
X52890Y19124D01*
X53502Y19532D01*
X53911Y20144D01*
X54055Y20866D01*
X53911Y21588D01*
X53502Y22200D01*
X52890Y22609D01*
X52169Y22752D01*
X51447Y22609D01*
X50835Y22200D01*
X50557Y21784D01*
X33271D01*
X32920Y21714D01*
X32622Y21515D01*
X28546Y17439D01*
X25921Y20065D01*
Y27953D01*
X25851Y28304D01*
X25652Y28602D01*
X21739Y32515D01*
X21771Y32677D01*
X21628Y33399D01*
X21219Y34011D01*
X20607Y34420D01*
X19885Y34563D01*
X19163Y34420D01*
X18551Y34011D01*
X18142Y33399D01*
X17999Y32677D01*
X18142Y31955D01*
X18551Y31343D01*
X19163Y30935D01*
X19885Y30791D01*
X20607Y30935D01*
X20677Y30981D01*
X24085Y27573D01*
Y19685D01*
X24155Y19334D01*
X24354Y19036D01*
X27629Y15762D01*
Y14199D01*
X26890Y14102D01*
X26014Y13739D01*
X25262Y13162D01*
X24685Y12410D01*
X24323Y11534D01*
X24199Y10594D01*
Y6029D01*
X21461D01*
Y10594D01*
X21337Y11534D01*
X20975Y12410D01*
X20398Y13162D01*
X19645Y13739D01*
X18770Y14102D01*
X17830Y14226D01*
X16890Y14102D01*
X16014Y13739D01*
X15262Y13162D01*
X14685Y12410D01*
X14323Y11534D01*
X14199Y10594D01*
Y6029D01*
X11830D01*
Y7594D01*
X7830D01*
Y8095D01*
X7330D01*
Y14594D01*
X6229D01*
Y24463D01*
X10330D01*
X11270Y24587D01*
X12145Y24950D01*
X12898Y25527D01*
X13475Y26279D01*
X13837Y27155D01*
X13961Y28095D01*
X13837Y29034D01*
X13475Y29910D01*
X12898Y30662D01*
X12145Y31239D01*
X11270Y31602D01*
X10330Y31726D01*
X6229D01*
Y34463D01*
X10330D01*
X11270Y34587D01*
X12145Y34950D01*
X12898Y35527D01*
X13475Y36279D01*
X13837Y37155D01*
X13961Y38094D01*
X13837Y39034D01*
X13475Y39910D01*
X12898Y40662D01*
X12145Y41239D01*
X11270Y41602D01*
X10330Y41726D01*
X6229D01*
Y44463D01*
X10330D01*
X11270Y44587D01*
X12145Y44950D01*
X12898Y45527D01*
X13475Y46279D01*
X13837Y47155D01*
X13961Y48094D01*
X13837Y49034D01*
X13475Y49910D01*
X12898Y50662D01*
X12145Y51239D01*
X11270Y51602D01*
X10330Y51726D01*
X6229D01*
Y54463D01*
X10330D01*
X11270Y54587D01*
X12145Y54950D01*
X12898Y55527D01*
X13475Y56279D01*
X13804Y57075D01*
X28767D01*
X29157Y57152D01*
X29488Y57373D01*
X34081Y61967D01*
X34452Y61893D01*
X35174Y62037D01*
X35786Y62446D01*
X36195Y63058D01*
X36338Y63779D01*
X36195Y64501D01*
X35786Y65113D01*
X35174Y65522D01*
X34452Y65666D01*
X33730Y65522D01*
X33118Y65113D01*
X32709Y64501D01*
X32566Y63779D01*
X32639Y63409D01*
X28345Y59114D01*
X13804D01*
X13475Y59910D01*
X12898Y60662D01*
X12145Y61239D01*
X11270Y61602D01*
X10330Y61726D01*
X6229D01*
Y64060D01*
X7330D01*
Y68094D01*
Y72129D01*
X6229D01*
Y74060D01*
X7330D01*
Y78095D01*
Y82129D01*
X6229D01*
Y84463D01*
X10330D01*
X11270Y84587D01*
X12145Y84950D01*
X12898Y85527D01*
X13475Y86279D01*
X13837Y87155D01*
X13961Y88095D01*
X13837Y89034D01*
X13475Y89910D01*
X12898Y90662D01*
X12145Y91239D01*
X11270Y91602D01*
X10330Y91726D01*
X6229D01*
Y94463D01*
X10330D01*
X11270Y94587D01*
X12145Y94950D01*
X12898Y95527D01*
X13475Y96279D01*
X13837Y97155D01*
X13961Y98094D01*
X13837Y99034D01*
X13475Y99910D01*
X12898Y100662D01*
X12145Y101239D01*
X11270Y101602D01*
X10330Y101726D01*
X6229D01*
Y104463D01*
X10330D01*
X11270Y104587D01*
X12145Y104950D01*
X12898Y105527D01*
X13475Y106279D01*
X13837Y107155D01*
X13961Y108095D01*
X13837Y109034D01*
X13475Y109910D01*
X12898Y110662D01*
X12145Y111239D01*
X11270Y111602D01*
X10330Y111726D01*
X6229D01*
Y114463D01*
X10330D01*
X11270Y114587D01*
X12145Y114950D01*
X12898Y115527D01*
X13475Y116279D01*
X13837Y117155D01*
X13961Y118095D01*
X13837Y119034D01*
X13475Y119910D01*
X12898Y120662D01*
X12145Y121239D01*
X11270Y121602D01*
X10330Y121726D01*
X6229D01*
Y124463D01*
X10330D01*
X11270Y124587D01*
X12145Y124950D01*
X12898Y125527D01*
X13475Y126279D01*
X13804Y127075D01*
X91076D01*
X91102Y127049D01*
X91433Y126828D01*
X91823Y126750D01*
X94012D01*
X94608Y126352D01*
X95330Y126208D01*
X96052Y126352D01*
X96664Y126761D01*
X97073Y127373D01*
X97216Y128094D01*
X97073Y128816D01*
X96664Y129428D01*
X96052Y129837D01*
X95330Y129981D01*
X95128Y129941D01*
X94641Y130020D01*
X94585Y130304D01*
X94498Y130742D01*
X94089Y131353D01*
X93477Y131762D01*
X92755Y131906D01*
X92033Y131762D01*
X91421Y131353D01*
X91211Y131039D01*
X72327D01*
X64456Y138910D01*
X64126Y139131D01*
X63735Y139209D01*
X26547D01*
X26337Y139523D01*
X25725Y139932D01*
X25003Y140075D01*
X24281Y139932D01*
X23669Y139523D01*
X23260Y138911D01*
X23117Y138189D01*
X23260Y137467D01*
X23669Y136855D01*
X24281Y136446D01*
X25003Y136303D01*
X25725Y136446D01*
X26337Y136855D01*
X26547Y137169D01*
X63313D01*
X70868Y129614D01*
X70661Y129114D01*
X13804D01*
X13475Y129910D01*
X12898Y130662D01*
X12145Y131239D01*
X11270Y131602D01*
X10330Y131726D01*
X6229D01*
Y134463D01*
X10330D01*
X11270Y134587D01*
X12145Y134950D01*
X12898Y135527D01*
X13475Y136279D01*
X13837Y137155D01*
X13961Y138094D01*
X13837Y139034D01*
X13475Y139910D01*
X12898Y140662D01*
X12145Y141239D01*
X11270Y141602D01*
X10330Y141726D01*
X6229D01*
Y144463D01*
X10330D01*
X11270Y144587D01*
X12145Y144950D01*
X12898Y145527D01*
X13475Y146279D01*
X13837Y147155D01*
X13936Y147903D01*
X44010Y177977D01*
X86911D01*
X87262Y178047D01*
X87457Y178177D01*
X89330D01*
X89681Y178247D01*
X89979Y178446D01*
X92979Y181446D01*
X93178Y181743D01*
X93247Y182095D01*
Y183483D01*
X93664Y183761D01*
X94073Y184373D01*
X94216Y185094D01*
X94073Y185816D01*
X93664Y186428D01*
X93052Y186837D01*
X92488Y186949D01*
X92344Y187455D01*
X92420Y187505D01*
X92829Y188117D01*
X92972Y188839D01*
X92829Y189560D01*
X92420Y190172D01*
X91808Y190581D01*
X91086Y190725D01*
X90364Y190581D01*
X90197Y190470D01*
X79601D01*
X79052Y190837D01*
X78330Y190981D01*
X77608Y190837D01*
X76996Y190428D01*
X76587Y189816D01*
X76444Y189094D01*
X76587Y188373D01*
X76996Y187761D01*
X77608Y187352D01*
X78330Y187208D01*
X78455Y187233D01*
X78586Y187207D01*
X90197D01*
X90364Y187096D01*
X90928Y186984D01*
X91071Y186478D01*
X90996Y186428D01*
X90587Y185816D01*
X90534Y185548D01*
X90402Y185103D01*
X89680Y185247D01*
X88958Y185103D01*
X88346Y184694D01*
X87937Y184082D01*
X87794Y183361D01*
X87891Y182870D01*
X86034Y181012D01*
X42830D01*
X42479Y180942D01*
X42181Y180743D01*
X20450Y159012D01*
X13840D01*
X13837Y159034D01*
X13475Y159910D01*
X12898Y160662D01*
X12145Y161239D01*
X11270Y161602D01*
X10330Y161726D01*
X6229D01*
Y164060D01*
X7330D01*
Y168095D01*
Y172129D01*
X6229D01*
Y174463D01*
X10330D01*
X11270Y174587D01*
X12145Y174950D01*
X12898Y175527D01*
X13475Y176279D01*
X13837Y177155D01*
X13961Y178094D01*
X13837Y179034D01*
X13475Y179910D01*
X12898Y180662D01*
X12145Y181239D01*
X11270Y181602D01*
X10330Y181726D01*
X6229D01*
Y184060D01*
X7330D01*
Y188094D01*
Y192129D01*
X6229D01*
Y194463D01*
X10330D01*
X11270Y194587D01*
X12145Y194950D01*
X12898Y195527D01*
X13475Y196279D01*
X13837Y197155D01*
X13961Y198094D01*
X13837Y199034D01*
X13475Y199910D01*
X12898Y200662D01*
X12145Y201239D01*
X11270Y201602D01*
X10330Y201726D01*
X6229D01*
Y204060D01*
X7330D01*
Y208095D01*
Y212129D01*
X6229D01*
Y214494D01*
X13930D01*
Y221694D01*
X6229D01*
Y247910D01*
X18433Y247914D01*
X18607Y247445D01*
X18538Y247386D01*
X17199Y245818D01*
X16122Y244060D01*
X15333Y242155D01*
X14851Y240150D01*
X14689Y238094D01*
X14851Y236039D01*
X15333Y234034D01*
X16122Y232129D01*
X17199Y230371D01*
X18538Y228803D01*
X20106Y227464D01*
X21864Y226386D01*
X23769Y225597D01*
X25774Y225116D01*
X27830Y224954D01*
X29886Y225116D01*
X31891Y225597D01*
X33796Y226386D01*
X35554Y227464D01*
X37122Y228803D01*
X38461Y230371D01*
X39538Y232129D01*
X40327Y234034D01*
X40809Y236039D01*
X40970Y238094D01*
X40809Y240150D01*
X40327Y242155D01*
X39538Y244060D01*
X38461Y245818D01*
X37122Y247386D01*
X37047Y247450D01*
X37220Y247919D01*
X168487Y247960D01*
X168660Y247491D01*
X168538Y247386D01*
X167199Y245818D01*
X166122Y244060D01*
X165332Y242155D01*
X164851Y240150D01*
X164689Y238094D01*
X164851Y236039D01*
X165332Y234034D01*
X166122Y232129D01*
X167199Y230371D01*
X168538Y228803D01*
X170106Y227464D01*
X171864Y226386D01*
X173769Y225597D01*
X175774Y225116D01*
X177830Y224954D01*
X179885Y225116D01*
X181891Y225597D01*
X183796Y226386D01*
X185554Y227464D01*
X187122Y228803D01*
X188461Y230371D01*
X189538Y232129D01*
X190327Y234034D01*
X190809Y236039D01*
X190970Y238094D01*
X190809Y240150D01*
X190327Y242155D01*
X189538Y244060D01*
X188461Y245818D01*
X187122Y247386D01*
X186993Y247496D01*
X187166Y247965D01*
X199317Y247969D01*
X199671Y247616D01*
D02*
G37*
G36*
X226853Y156715D02*
X220388Y150250D01*
X219889Y150283D01*
X219598Y150662D01*
X218845Y151239D01*
X217970Y151602D01*
X217030Y151726D01*
X212929D01*
Y154463D01*
X217030D01*
X217970Y154587D01*
X218845Y154950D01*
X219598Y155527D01*
X220175Y156279D01*
X220537Y157155D01*
X220540Y157177D01*
X226661D01*
X226853Y156715D01*
D02*
G37*
G36*
X20153D02*
X13688Y150250D01*
X13189Y150283D01*
X12898Y150662D01*
X12145Y151239D01*
X11270Y151602D01*
X10330Y151726D01*
X6229D01*
Y154463D01*
X10330D01*
X11270Y154587D01*
X12145Y154950D01*
X12898Y155527D01*
X13475Y156279D01*
X13837Y157155D01*
X13840Y157177D01*
X19961D01*
X20153Y156715D01*
D02*
G37*
%LPC*%
G36*
X404030Y476295D02*
X398030D01*
Y472794D01*
X404030D01*
Y476295D01*
D02*
G37*
G36*
Y471795D02*
X398030D01*
Y468294D01*
X404030D01*
Y471795D01*
D02*
G37*
G36*
X351782Y470245D02*
X350829Y470119D01*
X349940Y469752D01*
X349178Y469166D01*
X348593Y468404D01*
X348225Y467515D01*
X348099Y466562D01*
X348225Y465609D01*
X348593Y464721D01*
X349178Y463958D01*
X349940Y463373D01*
X350829Y463005D01*
X351782Y462880D01*
X352735Y463005D01*
X353623Y463373D01*
X354386Y463958D01*
X354971Y464721D01*
X355339Y465609D01*
X355465Y466562D01*
X355339Y467515D01*
X354971Y468404D01*
X354386Y469166D01*
X353623Y469752D01*
X352735Y470119D01*
X351782Y470245D01*
D02*
G37*
G36*
X341782D02*
X340829Y470119D01*
X339941Y469752D01*
X339178Y469166D01*
X338593Y468404D01*
X338225Y467515D01*
X338099Y466562D01*
X338225Y465609D01*
X338593Y464721D01*
X339178Y463958D01*
X339941Y463373D01*
X340829Y463005D01*
X341782Y462880D01*
X342735Y463005D01*
X343623Y463373D01*
X344386Y463958D01*
X344971Y464721D01*
X345339Y465609D01*
X345465Y466562D01*
X345339Y467515D01*
X344971Y468404D01*
X344386Y469166D01*
X343623Y469752D01*
X342735Y470119D01*
X341782Y470245D01*
D02*
G37*
G36*
X217030Y466329D02*
X215030D01*
Y462794D01*
X220999D01*
X220927Y463339D01*
X220524Y464312D01*
X219883Y465147D01*
X219047Y465789D01*
X218074Y466192D01*
X217030Y466329D01*
D02*
G37*
G36*
X220999Y461795D02*
X215030D01*
Y458260D01*
X217030D01*
X218074Y458397D01*
X219047Y458801D01*
X219883Y459442D01*
X220524Y460277D01*
X220927Y461250D01*
X220999Y461795D01*
D02*
G37*
G36*
X351782Y460245D02*
X350829Y460119D01*
X349940Y459752D01*
X349178Y459166D01*
X348593Y458404D01*
X348225Y457515D01*
X348099Y456562D01*
X348225Y455609D01*
X348593Y454721D01*
X349178Y453958D01*
X349940Y453373D01*
X350829Y453005D01*
X351782Y452879D01*
X352735Y453005D01*
X353623Y453373D01*
X354386Y453958D01*
X354971Y454721D01*
X355339Y455609D01*
X355465Y456562D01*
X355339Y457515D01*
X354971Y458404D01*
X354386Y459166D01*
X353623Y459752D01*
X352735Y460119D01*
X351782Y460245D01*
D02*
G37*
G36*
X341782D02*
X340829Y460119D01*
X339941Y459752D01*
X339178Y459166D01*
X338593Y458404D01*
X338225Y457515D01*
X338099Y456562D01*
X338225Y455609D01*
X338593Y454721D01*
X339178Y453958D01*
X339941Y453373D01*
X340829Y453005D01*
X341782Y452879D01*
X342735Y453005D01*
X343623Y453373D01*
X344386Y453958D01*
X344971Y454721D01*
X345339Y455609D01*
X345465Y456562D01*
X345339Y457515D01*
X344971Y458404D01*
X344386Y459166D01*
X343623Y459752D01*
X342735Y460119D01*
X341782Y460245D01*
D02*
G37*
G36*
X365561Y463960D02*
X364840Y463817D01*
X364228Y463408D01*
X363819Y462796D01*
X363675Y462074D01*
X363819Y461352D01*
X363930Y461186D01*
Y452332D01*
X363819Y452166D01*
X363675Y451444D01*
X363819Y450722D01*
X364228Y450110D01*
X364840Y449701D01*
X365561Y449558D01*
X366283Y449701D01*
X366895Y450110D01*
X367304Y450722D01*
X367448Y451444D01*
X367304Y452166D01*
X367193Y452332D01*
Y461186D01*
X367304Y461352D01*
X367448Y462074D01*
X367304Y462796D01*
X366895Y463408D01*
X366283Y463817D01*
X365561Y463960D01*
D02*
G37*
G36*
X355433Y450213D02*
X348131D01*
Y442911D01*
X355433D01*
Y450213D01*
D02*
G37*
G36*
X341782Y450245D02*
X340829Y450119D01*
X339941Y449752D01*
X339178Y449166D01*
X338593Y448404D01*
X338225Y447515D01*
X338099Y446562D01*
X338225Y445609D01*
X338593Y444721D01*
X339178Y443958D01*
X339941Y443373D01*
X340829Y443005D01*
X341782Y442879D01*
X342735Y443005D01*
X343623Y443373D01*
X344386Y443958D01*
X344971Y444721D01*
X345339Y445609D01*
X345465Y446562D01*
X345339Y447515D01*
X344971Y448404D01*
X344386Y449166D01*
X343623Y449752D01*
X342735Y450119D01*
X341782Y450245D01*
D02*
G37*
G36*
X404030Y446329D02*
X402030D01*
X400986Y446192D01*
X400013Y445788D01*
X399177Y445147D01*
X398536Y444312D01*
X398133Y443339D01*
X398061Y442795D01*
X404030D01*
Y446329D01*
D02*
G37*
G36*
X217030D02*
X215030D01*
Y442795D01*
X220999D01*
X220927Y443339D01*
X220524Y444312D01*
X219883Y445147D01*
X219047Y445788D01*
X218074Y446192D01*
X217030Y446329D01*
D02*
G37*
G36*
X404030Y441794D02*
X398061D01*
X398133Y441250D01*
X398536Y440277D01*
X399177Y439442D01*
X400013Y438800D01*
X400986Y438398D01*
X402030Y438260D01*
X404030D01*
Y441794D01*
D02*
G37*
G36*
X220999D02*
X215030D01*
Y438260D01*
X217030D01*
X218074Y438398D01*
X219047Y438800D01*
X219883Y439442D01*
X220524Y440277D01*
X220927Y441250D01*
X220999Y441794D01*
D02*
G37*
G36*
X262286Y427425D02*
X261564Y427281D01*
X260952Y426872D01*
X260543Y426260D01*
X260400Y425539D01*
X260543Y424817D01*
X260952Y424205D01*
X261564Y423796D01*
X262286Y423652D01*
X263008Y423796D01*
X263620Y424205D01*
X264029Y424817D01*
X264172Y425539D01*
X264029Y426260D01*
X263620Y426872D01*
X263008Y427281D01*
X262286Y427425D01*
D02*
G37*
G36*
X217030Y426329D02*
X215030D01*
Y422794D01*
X220999D01*
X220927Y423339D01*
X220524Y424312D01*
X219883Y425147D01*
X219047Y425788D01*
X218074Y426192D01*
X217030Y426329D01*
D02*
G37*
G36*
X220999Y421795D02*
X215030D01*
Y418260D01*
X217030D01*
X218074Y418398D01*
X219047Y418800D01*
X219883Y419442D01*
X220524Y420277D01*
X220927Y421250D01*
X220999Y421795D01*
D02*
G37*
G36*
X404030Y416329D02*
X402030D01*
X400986Y416192D01*
X400013Y415789D01*
X399177Y415147D01*
X398536Y414312D01*
X398133Y413339D01*
X398061Y412794D01*
X404030D01*
Y416329D01*
D02*
G37*
G36*
Y411795D02*
X398061D01*
X398133Y411250D01*
X398536Y410277D01*
X399177Y409442D01*
X400013Y408801D01*
X400986Y408397D01*
X402030Y408260D01*
X404030D01*
Y411795D01*
D02*
G37*
G36*
X336030Y417681D02*
X335308Y417537D01*
X334696Y417128D01*
X334287Y416516D01*
X334144Y415795D01*
X334287Y415073D01*
X334696Y414461D01*
X334908Y414319D01*
Y408035D01*
X334700Y407896D01*
X334291Y407284D01*
X334148Y406562D01*
X334291Y405840D01*
X334700Y405229D01*
X335312Y404820D01*
X336034Y404676D01*
X336756Y404820D01*
X337368Y405229D01*
X337776Y405840D01*
X337920Y406562D01*
X337776Y407284D01*
X337368Y407896D01*
X337152Y408040D01*
Y414319D01*
X337364Y414461D01*
X337773Y415073D01*
X337916Y415795D01*
X337773Y416516D01*
X337364Y417128D01*
X336752Y417537D01*
X336030Y417681D01*
D02*
G37*
G36*
X318530Y420681D02*
X317808Y420537D01*
X317196Y420128D01*
X316787Y419516D01*
X316644Y418794D01*
X316787Y418073D01*
X317019Y417726D01*
X314309Y415016D01*
X314088Y414685D01*
X314010Y414294D01*
Y409456D01*
X314088Y409066D01*
X314309Y408735D01*
X315717Y407327D01*
X315644Y406956D01*
X315787Y406234D01*
X316196Y405622D01*
X316808Y405213D01*
X317530Y405070D01*
X317683Y405100D01*
X318036Y404746D01*
X318006Y404594D01*
X318149Y403872D01*
X318558Y403260D01*
X319170Y402851D01*
X319892Y402707D01*
X320614Y402851D01*
X321226Y403260D01*
X321635Y403872D01*
X321778Y404594D01*
X321635Y405315D01*
X321226Y405928D01*
X320614Y406336D01*
X320598Y406340D01*
Y407846D01*
X320528Y408198D01*
X320329Y408495D01*
X319447Y409377D01*
Y412683D01*
X319864Y412961D01*
X320273Y413573D01*
X320416Y414294D01*
X320273Y415016D01*
X319864Y415628D01*
X319252Y416037D01*
X318976Y416092D01*
X318812Y416635D01*
X319224Y417046D01*
X319252Y417052D01*
X319864Y417461D01*
X320273Y418073D01*
X320416Y418794D01*
X320273Y419516D01*
X319864Y420128D01*
X319252Y420537D01*
X318530Y420681D01*
D02*
G37*
G36*
X323530Y414181D02*
X322808Y414037D01*
X322196Y413628D01*
X321787Y413016D01*
X321644Y412294D01*
X321787Y411573D01*
X322196Y410961D01*
X322808Y410552D01*
X323530Y410408D01*
X323604Y410423D01*
X328817Y405210D01*
Y401875D01*
X328401Y401597D01*
X327992Y400985D01*
X327848Y400263D01*
X327992Y399541D01*
X328401Y398929D01*
X329013Y398520D01*
X329735Y398377D01*
X330456Y398520D01*
X331068Y398929D01*
X331477Y399541D01*
X331621Y400263D01*
X331477Y400985D01*
X331068Y401597D01*
X330652Y401875D01*
Y405590D01*
X330582Y405941D01*
X330383Y406239D01*
X325183Y411439D01*
X325273Y411573D01*
X325416Y412294D01*
X325273Y413016D01*
X324864Y413628D01*
X324252Y414037D01*
X323530Y414181D01*
D02*
G37*
G36*
X324530Y448681D02*
X323808Y448537D01*
X323196Y448128D01*
X306696Y431628D01*
X306287Y431016D01*
X306144Y430295D01*
Y402076D01*
X301749Y397681D01*
X293030D01*
X292308Y397537D01*
X291696Y397128D01*
X291287Y396516D01*
X291144Y395795D01*
X291287Y395073D01*
X291696Y394461D01*
X292308Y394052D01*
X293030Y393908D01*
X302530D01*
X303252Y394052D01*
X303864Y394461D01*
X309364Y399961D01*
X309773Y400573D01*
X309916Y401295D01*
Y429513D01*
X325864Y445461D01*
X326273Y446073D01*
X326416Y446795D01*
X326273Y447516D01*
X325864Y448128D01*
X325252Y448537D01*
X324530Y448681D01*
D02*
G37*
G36*
X404030Y396329D02*
X402030D01*
X400986Y396192D01*
X400013Y395789D01*
X399177Y395147D01*
X398536Y394312D01*
X398133Y393339D01*
X398061Y392794D01*
X404030D01*
Y396329D01*
D02*
G37*
G36*
X265168Y389945D02*
X264446Y389801D01*
X264279Y389690D01*
X259363D01*
X259197Y389801D01*
X258475Y389945D01*
X257753Y389801D01*
X257141Y389392D01*
X256732Y388780D01*
X256589Y388058D01*
X256732Y387336D01*
X257141Y386724D01*
X257753Y386316D01*
X258475Y386172D01*
X259197Y386316D01*
X259363Y386427D01*
X264279D01*
X264446Y386316D01*
X265168Y386172D01*
X265890Y386316D01*
X266501Y386724D01*
X266910Y387336D01*
X267054Y388058D01*
X266910Y388780D01*
X266501Y389392D01*
X265890Y389801D01*
X265168Y389945D01*
D02*
G37*
G36*
X404030Y391794D02*
X398061D01*
X398133Y391250D01*
X398536Y390277D01*
X399177Y389442D01*
X400013Y388801D01*
X400986Y388397D01*
X402030Y388260D01*
X404030D01*
Y391794D01*
D02*
G37*
G36*
X334459Y386401D02*
X333737Y386258D01*
X333125Y385849D01*
X333052Y385738D01*
X324056D01*
X323982Y385849D01*
X323370Y386258D01*
X322648Y386401D01*
X321926Y386258D01*
X321314Y385849D01*
X320905Y385237D01*
X320762Y384515D01*
X320905Y383793D01*
X321314Y383181D01*
X321926Y382772D01*
X322648Y382629D01*
X323370Y382772D01*
X323982Y383181D01*
X324056Y383292D01*
X333052D01*
X333125Y383181D01*
X333737Y382772D01*
X334459Y382629D01*
X335181Y382772D01*
X335793Y383181D01*
X336202Y383793D01*
X336345Y384515D01*
X336202Y385237D01*
X335793Y385849D01*
X335181Y386258D01*
X334459Y386401D01*
D02*
G37*
G36*
X404030Y386329D02*
X402030D01*
X400986Y386192D01*
X400013Y385788D01*
X399177Y385147D01*
X398536Y384312D01*
X398133Y383339D01*
X398061Y382794D01*
X404030D01*
Y386329D01*
D02*
G37*
G36*
X354786Y384925D02*
X354064Y384781D01*
X353452Y384372D01*
X353043Y383760D01*
X352900Y383039D01*
X353043Y382317D01*
X353452Y381705D01*
X354064Y381296D01*
X354786Y381152D01*
X355508Y381296D01*
X356120Y381705D01*
X356528Y382317D01*
X356672Y383039D01*
X356528Y383760D01*
X356120Y384372D01*
X355508Y384781D01*
X354786Y384925D01*
D02*
G37*
G36*
X367136Y384039D02*
X366414Y383895D01*
X365802Y383487D01*
X365394Y382875D01*
X365250Y382153D01*
X365394Y381431D01*
X365802Y380819D01*
X366414Y380410D01*
X366777Y380338D01*
X366906Y380252D01*
X367530Y380128D01*
X376878D01*
X377044Y380016D01*
X377766Y379873D01*
X378488Y380016D01*
X379100Y380425D01*
X379509Y381037D01*
X379652Y381759D01*
X379509Y382481D01*
X379100Y383093D01*
X378488Y383502D01*
X377766Y383645D01*
X377044Y383502D01*
X376878Y383390D01*
X368534D01*
X368470Y383487D01*
X367858Y383895D01*
X367136Y384039D01*
D02*
G37*
G36*
X404030Y381795D02*
X398061D01*
X398133Y381250D01*
X398536Y380277D01*
X399177Y379442D01*
X400013Y378801D01*
X400986Y378397D01*
X402030Y378260D01*
X404030D01*
Y381795D01*
D02*
G37*
G36*
X311624Y382070D02*
X310903Y381927D01*
X310291Y381518D01*
X309882Y380906D01*
X309738Y380184D01*
X309882Y379462D01*
X310291Y378851D01*
X310903Y378442D01*
X311624Y378298D01*
X312115Y378396D01*
X315348Y375163D01*
X315250Y374672D01*
X315394Y373951D01*
X315802Y373339D01*
X316414Y372930D01*
X317136Y372786D01*
X317858Y372930D01*
X318470Y373339D01*
X318879Y373951D01*
X319022Y374672D01*
X318879Y375394D01*
X318470Y376006D01*
X317858Y376415D01*
X317136Y376559D01*
X316645Y376461D01*
X313413Y379693D01*
X313511Y380184D01*
X313367Y380906D01*
X312958Y381518D01*
X312346Y381927D01*
X311624Y382070D01*
D02*
G37*
G36*
X331309Y378134D02*
X330588Y377990D01*
X329976Y377581D01*
X329567Y376969D01*
X329423Y376247D01*
X329567Y375525D01*
X329976Y374914D01*
X330290Y374704D01*
Y373520D01*
X327743Y370973D01*
X327372Y371047D01*
X326651Y370903D01*
X326039Y370494D01*
X325630Y369882D01*
X325486Y369161D01*
X325630Y368439D01*
X326039Y367827D01*
X326651Y367418D01*
X327372Y367274D01*
X328094Y367418D01*
X328706Y367827D01*
X329115Y368439D01*
X329259Y369161D01*
X329185Y369531D01*
X332030Y372377D01*
X332251Y372708D01*
X332329Y373098D01*
Y374704D01*
X332643Y374914D01*
X333052Y375525D01*
X333196Y376247D01*
X333052Y376969D01*
X332643Y377581D01*
X332031Y377990D01*
X331309Y378134D01*
D02*
G37*
G36*
X268711Y378527D02*
X267989Y378384D01*
X267377Y377975D01*
X266968Y377363D01*
X266825Y376641D01*
X266968Y375919D01*
X267377Y375307D01*
X267989Y374898D01*
X268186Y374859D01*
X276613Y366432D01*
X277142Y366079D01*
X277622Y365983D01*
X277832Y365843D01*
X278554Y365700D01*
X279275Y365843D01*
X279887Y366252D01*
X280296Y366864D01*
X280440Y367586D01*
X280296Y368308D01*
X279887Y368920D01*
X279275Y369328D01*
X278554Y369472D01*
X278248Y369411D01*
X270493Y377166D01*
X270454Y377363D01*
X270045Y377975D01*
X269433Y378384D01*
X268711Y378527D01*
D02*
G37*
G36*
X260530Y373681D02*
X259808Y373537D01*
X259196Y373128D01*
X258787Y372516D01*
X258644Y371795D01*
X258787Y371073D01*
X259196Y370461D01*
X259808Y370052D01*
X260530Y369908D01*
X260900Y369982D01*
X270406Y360476D01*
X270333Y360105D01*
X270476Y359384D01*
X270885Y358772D01*
X271497Y358363D01*
X272219Y358219D01*
X272941Y358363D01*
X273553Y358772D01*
X273961Y359384D01*
X274105Y360105D01*
X273961Y360827D01*
X273553Y361439D01*
X272941Y361848D01*
X272219Y361992D01*
X271848Y361918D01*
X262342Y371424D01*
X262416Y371795D01*
X262273Y372516D01*
X261864Y373128D01*
X261252Y373537D01*
X260530Y373681D01*
D02*
G37*
G36*
X272648Y354905D02*
X271926Y354762D01*
X271314Y354353D01*
X271241Y354242D01*
X261063D01*
X260990Y354353D01*
X260378Y354762D01*
X259656Y354905D01*
X258934Y354762D01*
X258322Y354353D01*
X257913Y353741D01*
X257770Y353019D01*
X257913Y352297D01*
X258322Y351685D01*
X258934Y351276D01*
X259656Y351133D01*
X260378Y351276D01*
X260990Y351685D01*
X261063Y351795D01*
X271241D01*
X271314Y351685D01*
X271926Y351276D01*
X272648Y351133D01*
X273370Y351276D01*
X273982Y351685D01*
X274391Y352297D01*
X274534Y353019D01*
X274391Y353741D01*
X273982Y354353D01*
X273370Y354762D01*
X272648Y354905D01*
D02*
G37*
G36*
X378160Y345850D02*
X377438Y345706D01*
X376826Y345298D01*
X376417Y344686D01*
X376274Y343964D01*
X376417Y343242D01*
X376826Y342630D01*
X377438Y342221D01*
X377800Y342149D01*
X377929Y342063D01*
X378554Y341939D01*
X389476D01*
X389643Y341827D01*
X390365Y341684D01*
X391086Y341827D01*
X391698Y342236D01*
X392107Y342848D01*
X392251Y343570D01*
X392107Y344292D01*
X391698Y344904D01*
X391086Y345313D01*
X390365Y345456D01*
X389643Y345313D01*
X389476Y345201D01*
X379558D01*
X379494Y345298D01*
X378882Y345706D01*
X378160Y345850D01*
D02*
G37*
G36*
X321073Y348212D02*
X320351Y348069D01*
X319739Y347660D01*
X319331Y347048D01*
X319187Y346326D01*
X319331Y345604D01*
X319739Y344992D01*
X320054Y344782D01*
Y340783D01*
X319739Y340573D01*
X319331Y339961D01*
X319187Y339239D01*
X319331Y338517D01*
X319739Y337906D01*
X320351Y337497D01*
X321073Y337353D01*
X321795Y337497D01*
X322407Y337906D01*
X322816Y338517D01*
X322959Y339239D01*
X322816Y339961D01*
X322407Y340573D01*
X322093Y340783D01*
Y344782D01*
X322407Y344992D01*
X322816Y345604D01*
X322959Y346326D01*
X322816Y347048D01*
X322407Y347660D01*
X321795Y348069D01*
X321073Y348212D01*
D02*
G37*
G36*
X217030Y336329D02*
X215030D01*
Y332794D01*
X220999D01*
X220927Y333339D01*
X220524Y334312D01*
X219883Y335147D01*
X219047Y335788D01*
X218074Y336192D01*
X217030Y336329D01*
D02*
G37*
G36*
X329735Y344669D02*
X329013Y344525D01*
X328401Y344116D01*
X327992Y343505D01*
X327848Y342783D01*
X327992Y342061D01*
X328401Y341449D01*
X328715Y341239D01*
Y331728D01*
X328401Y331518D01*
X327992Y330906D01*
X327848Y330184D01*
X327992Y329462D01*
X328401Y328851D01*
X329013Y328442D01*
X329735Y328298D01*
X330456Y328442D01*
X331068Y328851D01*
X331477Y329462D01*
X331621Y330184D01*
X331477Y330906D01*
X331068Y331518D01*
X330754Y331728D01*
Y341239D01*
X331068Y341449D01*
X331477Y342061D01*
X331621Y342783D01*
X331477Y343505D01*
X331068Y344116D01*
X330456Y344525D01*
X329735Y344669D01*
D02*
G37*
G36*
X220999Y331795D02*
X215030D01*
Y328260D01*
X217030D01*
X218074Y328397D01*
X219047Y328801D01*
X219883Y329442D01*
X220524Y330277D01*
X220927Y331250D01*
X220999Y331795D01*
D02*
G37*
G36*
X316349Y348212D02*
X315627Y348069D01*
X315015Y347660D01*
X314606Y347048D01*
X314463Y346326D01*
X314606Y345604D01*
X315015Y344992D01*
X315431Y344714D01*
Y329397D01*
X315501Y329046D01*
X315700Y328748D01*
X317006Y327442D01*
Y326678D01*
X316590Y326400D01*
X316181Y325788D01*
X316037Y325066D01*
X316181Y324344D01*
X316590Y323732D01*
X317202Y323323D01*
X317924Y323180D01*
X318645Y323323D01*
X319257Y323732D01*
X319666Y324344D01*
X319810Y325066D01*
X319666Y325788D01*
X319257Y326400D01*
X318841Y326678D01*
Y327822D01*
X318771Y328173D01*
X318572Y328471D01*
X317266Y329777D01*
Y344714D01*
X317683Y344992D01*
X318092Y345604D01*
X318235Y346326D01*
X318092Y347048D01*
X317683Y347660D01*
X317071Y348069D01*
X316349Y348212D01*
D02*
G37*
G36*
X404030Y326329D02*
X402030D01*
X400986Y326192D01*
X400013Y325788D01*
X399177Y325147D01*
X398536Y324312D01*
X398133Y323339D01*
X398061Y322795D01*
X404030D01*
Y326329D01*
D02*
G37*
G36*
X217030D02*
X215030D01*
Y322795D01*
X220999D01*
X220927Y323339D01*
X220524Y324312D01*
X219883Y325147D01*
X219047Y325788D01*
X218074Y326192D01*
X217030Y326329D01*
D02*
G37*
G36*
X404030Y321795D02*
X398061D01*
X398133Y321250D01*
X398536Y320277D01*
X399177Y319442D01*
X400013Y318800D01*
X400986Y318397D01*
X402030Y318260D01*
X404030D01*
Y321795D01*
D02*
G37*
G36*
X220999D02*
X215030D01*
Y318260D01*
X217030D01*
X218074Y318397D01*
X219047Y318800D01*
X219883Y319442D01*
X220524Y320277D01*
X220927Y321250D01*
X220999Y321795D01*
D02*
G37*
G36*
X404030Y316329D02*
X402030D01*
X400986Y316192D01*
X400013Y315789D01*
X399177Y315147D01*
X398536Y314312D01*
X398133Y313339D01*
X398061Y312794D01*
X404030D01*
Y316329D01*
D02*
G37*
G36*
X273435Y310811D02*
X272714Y310667D01*
X272102Y310258D01*
X271892Y309944D01*
X260018D01*
X259809Y310258D01*
X259197Y310667D01*
X258475Y310811D01*
X257753Y310667D01*
X257141Y310258D01*
X256732Y309646D01*
X256589Y308924D01*
X256732Y308203D01*
X257141Y307591D01*
X257753Y307182D01*
X258475Y307038D01*
X259197Y307182D01*
X259809Y307591D01*
X260018Y307905D01*
X271892D01*
X272102Y307591D01*
X272714Y307182D01*
X273435Y307038D01*
X274157Y307182D01*
X274769Y307591D01*
X275178Y308203D01*
X275322Y308924D01*
X275178Y309646D01*
X274769Y310258D01*
X274157Y310667D01*
X273435Y310811D01*
D02*
G37*
G36*
X404030Y311794D02*
X398061D01*
X398133Y311250D01*
X398536Y310277D01*
X399177Y309442D01*
X400013Y308801D01*
X400986Y308397D01*
X402030Y308260D01*
X404030D01*
Y311794D01*
D02*
G37*
G36*
X304530Y305435D02*
X302474Y305273D01*
X300469Y304792D01*
X298564Y304003D01*
X296806Y302925D01*
X295238Y301586D01*
X293899Y300018D01*
X292822Y298260D01*
X292033Y296355D01*
X291551Y294350D01*
X291389Y292295D01*
X291551Y290239D01*
X292033Y288234D01*
X292822Y286329D01*
X293899Y284571D01*
X295238Y283003D01*
X296806Y281664D01*
X298564Y280586D01*
X300469Y279797D01*
X302474Y279316D01*
X304530Y279154D01*
X306586Y279316D01*
X308591Y279797D01*
X310496Y280586D01*
X312254Y281664D01*
X313822Y283003D01*
X315161Y284571D01*
X316238Y286329D01*
X317027Y288234D01*
X317509Y290239D01*
X317670Y292295D01*
X317509Y294350D01*
X317027Y296355D01*
X316238Y298260D01*
X315161Y300018D01*
X313822Y301586D01*
X312254Y302925D01*
X310496Y304003D01*
X308591Y304792D01*
X306586Y305273D01*
X304530Y305435D01*
D02*
G37*
G36*
X257687Y284433D02*
X256966Y284289D01*
X256354Y283880D01*
X255945Y283268D01*
X255801Y282546D01*
X255945Y281825D01*
X256354Y281213D01*
X256966Y280804D01*
X257687Y280660D01*
X258409Y280804D01*
X259021Y281213D01*
X259095Y281323D01*
X267417D01*
X268425Y280314D01*
X268400Y280184D01*
X268543Y279462D01*
X268952Y278851D01*
X269564Y278442D01*
X270286Y278298D01*
X271008Y278442D01*
X271620Y278851D01*
X272028Y279462D01*
X272172Y280184D01*
X272028Y280906D01*
X271620Y281518D01*
X271008Y281927D01*
X270286Y282070D01*
X270156Y282045D01*
X268789Y283412D01*
X268392Y283677D01*
X267924Y283770D01*
X259095D01*
X259021Y283880D01*
X258409Y284289D01*
X257687Y284433D01*
D02*
G37*
G36*
X288002Y276559D02*
X287281Y276415D01*
X287114Y276304D01*
X281017D01*
X280850Y276415D01*
X280128Y276559D01*
X279406Y276415D01*
X278795Y276006D01*
X278386Y275394D01*
X278242Y274672D01*
X278386Y273951D01*
X278795Y273339D01*
X279406Y272930D01*
X280128Y272786D01*
X280850Y272930D01*
X281017Y273041D01*
X287114D01*
X287281Y272930D01*
X288002Y272786D01*
X288724Y272930D01*
X289336Y273339D01*
X289745Y273951D01*
X289889Y274672D01*
X289745Y275394D01*
X289336Y276006D01*
X288724Y276415D01*
X288002Y276559D01*
D02*
G37*
G36*
X305030Y268763D02*
Y262794D01*
X308564D01*
Y264794D01*
X308427Y265839D01*
X308024Y266812D01*
X307383Y267647D01*
X306547Y268288D01*
X305574Y268692D01*
X305030Y268763D01*
D02*
G37*
G36*
X295030D02*
Y262794D01*
X298564D01*
Y264794D01*
X298427Y265839D01*
X298024Y266812D01*
X297383Y267647D01*
X296547Y268288D01*
X295574Y268692D01*
X295030Y268763D01*
D02*
G37*
G36*
X218530Y268794D02*
X215030D01*
Y262794D01*
X218530D01*
Y268794D01*
D02*
G37*
G36*
X304030Y268763D02*
X303486Y268692D01*
X302513Y268288D01*
X301677Y267647D01*
X301036Y266812D01*
X300633Y265839D01*
X300495Y264794D01*
Y262794D01*
X304030D01*
Y268763D01*
D02*
G37*
G36*
X294030D02*
X293486Y268692D01*
X292513Y268288D01*
X291677Y267647D01*
X291036Y266812D01*
X290633Y265839D01*
X290495Y264794D01*
Y262794D01*
X294030D01*
Y268763D01*
D02*
G37*
G36*
X197330Y476295D02*
X191330D01*
Y472794D01*
X197330D01*
Y476295D01*
D02*
G37*
G36*
Y471795D02*
X191330D01*
Y468294D01*
X197330D01*
Y471795D01*
D02*
G37*
G36*
X145082Y470245D02*
X144129Y470119D01*
X143240Y469752D01*
X142478Y469166D01*
X141893Y468404D01*
X141525Y467515D01*
X141399Y466562D01*
X141525Y465609D01*
X141893Y464721D01*
X142478Y463958D01*
X143240Y463373D01*
X144129Y463005D01*
X145082Y462880D01*
X146035Y463005D01*
X146923Y463373D01*
X147686Y463958D01*
X148271Y464721D01*
X148639Y465609D01*
X148765Y466562D01*
X148639Y467515D01*
X148271Y468404D01*
X147686Y469166D01*
X146923Y469752D01*
X146035Y470119D01*
X145082Y470245D01*
D02*
G37*
G36*
X135082D02*
X134129Y470119D01*
X133240Y469752D01*
X132478Y469166D01*
X131893Y468404D01*
X131525Y467515D01*
X131399Y466562D01*
X131525Y465609D01*
X131893Y464721D01*
X132478Y463958D01*
X133240Y463373D01*
X134129Y463005D01*
X135082Y462880D01*
X136035Y463005D01*
X136923Y463373D01*
X137686Y463958D01*
X138271Y464721D01*
X138639Y465609D01*
X138765Y466562D01*
X138639Y467515D01*
X138271Y468404D01*
X137686Y469166D01*
X136923Y469752D01*
X136035Y470119D01*
X135082Y470245D01*
D02*
G37*
G36*
X10330Y466329D02*
X8330D01*
Y462794D01*
X14299D01*
X14227Y463339D01*
X13824Y464312D01*
X13183Y465147D01*
X12347Y465789D01*
X11374Y466192D01*
X10330Y466329D01*
D02*
G37*
G36*
X14299Y461795D02*
X8330D01*
Y458260D01*
X10330D01*
X11374Y458397D01*
X12347Y458801D01*
X13183Y459442D01*
X13824Y460277D01*
X14227Y461250D01*
X14299Y461795D01*
D02*
G37*
G36*
X145082Y460245D02*
X144129Y460119D01*
X143240Y459752D01*
X142478Y459166D01*
X141893Y458404D01*
X141525Y457515D01*
X141399Y456562D01*
X141525Y455609D01*
X141893Y454721D01*
X142478Y453958D01*
X143240Y453373D01*
X144129Y453005D01*
X145082Y452879D01*
X146035Y453005D01*
X146923Y453373D01*
X147686Y453958D01*
X148271Y454721D01*
X148639Y455609D01*
X148765Y456562D01*
X148639Y457515D01*
X148271Y458404D01*
X147686Y459166D01*
X146923Y459752D01*
X146035Y460119D01*
X145082Y460245D01*
D02*
G37*
G36*
X135082D02*
X134129Y460119D01*
X133240Y459752D01*
X132478Y459166D01*
X131893Y458404D01*
X131525Y457515D01*
X131399Y456562D01*
X131525Y455609D01*
X131893Y454721D01*
X132478Y453958D01*
X133240Y453373D01*
X134129Y453005D01*
X135082Y452879D01*
X136035Y453005D01*
X136923Y453373D01*
X137686Y453958D01*
X138271Y454721D01*
X138639Y455609D01*
X138765Y456562D01*
X138639Y457515D01*
X138271Y458404D01*
X137686Y459166D01*
X136923Y459752D01*
X136035Y460119D01*
X135082Y460245D01*
D02*
G37*
G36*
X158861Y463960D02*
X158140Y463817D01*
X157528Y463408D01*
X157119Y462796D01*
X156975Y462074D01*
X157119Y461352D01*
X157230Y461186D01*
Y452332D01*
X157119Y452166D01*
X156975Y451444D01*
X157119Y450722D01*
X157528Y450110D01*
X158140Y449701D01*
X158861Y449558D01*
X159583Y449701D01*
X160195Y450110D01*
X160604Y450722D01*
X160748Y451444D01*
X160604Y452166D01*
X160493Y452332D01*
Y461186D01*
X160604Y461352D01*
X160748Y462074D01*
X160604Y462796D01*
X160195Y463408D01*
X159583Y463817D01*
X158861Y463960D01*
D02*
G37*
G36*
X148733Y450213D02*
X141431D01*
Y442911D01*
X148733D01*
Y450213D01*
D02*
G37*
G36*
X135082Y450245D02*
X134129Y450119D01*
X133240Y449752D01*
X132478Y449166D01*
X131893Y448404D01*
X131525Y447515D01*
X131399Y446562D01*
X131525Y445609D01*
X131893Y444721D01*
X132478Y443958D01*
X133240Y443373D01*
X134129Y443005D01*
X135082Y442879D01*
X136035Y443005D01*
X136923Y443373D01*
X137686Y443958D01*
X138271Y444721D01*
X138639Y445609D01*
X138765Y446562D01*
X138639Y447515D01*
X138271Y448404D01*
X137686Y449166D01*
X136923Y449752D01*
X136035Y450119D01*
X135082Y450245D01*
D02*
G37*
G36*
X197330Y446329D02*
X195330D01*
X194286Y446192D01*
X193313Y445788D01*
X192477Y445147D01*
X191836Y444312D01*
X191433Y443339D01*
X191361Y442795D01*
X197330D01*
Y446329D01*
D02*
G37*
G36*
X10330D02*
X8330D01*
Y442795D01*
X14299D01*
X14227Y443339D01*
X13824Y444312D01*
X13183Y445147D01*
X12347Y445788D01*
X11374Y446192D01*
X10330Y446329D01*
D02*
G37*
G36*
X197330Y441794D02*
X191361D01*
X191433Y441250D01*
X191836Y440277D01*
X192477Y439442D01*
X193313Y438800D01*
X194286Y438398D01*
X195330Y438260D01*
X197330D01*
Y441794D01*
D02*
G37*
G36*
X14299D02*
X8330D01*
Y438260D01*
X10330D01*
X11374Y438398D01*
X12347Y438800D01*
X13183Y439442D01*
X13824Y440277D01*
X14227Y441250D01*
X14299Y441794D01*
D02*
G37*
G36*
X55586Y427425D02*
X54864Y427281D01*
X54252Y426872D01*
X53843Y426260D01*
X53700Y425539D01*
X53843Y424817D01*
X54252Y424205D01*
X54864Y423796D01*
X55586Y423652D01*
X56308Y423796D01*
X56920Y424205D01*
X57328Y424817D01*
X57472Y425539D01*
X57328Y426260D01*
X56920Y426872D01*
X56308Y427281D01*
X55586Y427425D01*
D02*
G37*
G36*
X10330Y426329D02*
X8330D01*
Y422794D01*
X14299D01*
X14227Y423339D01*
X13824Y424312D01*
X13183Y425147D01*
X12347Y425788D01*
X11374Y426192D01*
X10330Y426329D01*
D02*
G37*
G36*
X14299Y421795D02*
X8330D01*
Y418260D01*
X10330D01*
X11374Y418398D01*
X12347Y418800D01*
X13183Y419442D01*
X13824Y420277D01*
X14227Y421250D01*
X14299Y421795D01*
D02*
G37*
G36*
X197330Y416329D02*
X195330D01*
X194286Y416192D01*
X193313Y415789D01*
X192477Y415147D01*
X191836Y414312D01*
X191433Y413339D01*
X191361Y412794D01*
X197330D01*
Y416329D01*
D02*
G37*
G36*
Y411795D02*
X191361D01*
X191433Y411250D01*
X191836Y410277D01*
X192477Y409442D01*
X193313Y408801D01*
X194286Y408397D01*
X195330Y408260D01*
X197330D01*
Y411795D01*
D02*
G37*
G36*
X129330Y417681D02*
X128608Y417537D01*
X127996Y417128D01*
X127587Y416516D01*
X127444Y415795D01*
X127587Y415073D01*
X127996Y414461D01*
X128208Y414319D01*
Y408035D01*
X128000Y407896D01*
X127591Y407284D01*
X127448Y406562D01*
X127591Y405840D01*
X128000Y405229D01*
X128612Y404820D01*
X129334Y404676D01*
X130056Y404820D01*
X130668Y405229D01*
X131077Y405840D01*
X131220Y406562D01*
X131077Y407284D01*
X130668Y407896D01*
X130452Y408040D01*
Y414319D01*
X130664Y414461D01*
X131073Y415073D01*
X131216Y415795D01*
X131073Y416516D01*
X130664Y417128D01*
X130052Y417537D01*
X129330Y417681D01*
D02*
G37*
G36*
X111830Y420681D02*
X111108Y420537D01*
X110496Y420128D01*
X110087Y419516D01*
X109944Y418794D01*
X110087Y418073D01*
X110319Y417726D01*
X107609Y415016D01*
X107388Y414685D01*
X107310Y414294D01*
Y409456D01*
X107388Y409066D01*
X107609Y408735D01*
X109017Y407327D01*
X108944Y406956D01*
X109087Y406234D01*
X109496Y405622D01*
X110108Y405213D01*
X110830Y405070D01*
X110983Y405100D01*
X111336Y404746D01*
X111306Y404594D01*
X111450Y403872D01*
X111858Y403260D01*
X112470Y402851D01*
X113192Y402707D01*
X113914Y402851D01*
X114526Y403260D01*
X114935Y403872D01*
X115078Y404594D01*
X114935Y405315D01*
X114526Y405928D01*
X113914Y406336D01*
X113898Y406340D01*
Y407846D01*
X113828Y408198D01*
X113629Y408495D01*
X112748Y409377D01*
Y412683D01*
X113164Y412961D01*
X113573Y413573D01*
X113716Y414294D01*
X113573Y415016D01*
X113164Y415628D01*
X112552Y416037D01*
X112276Y416092D01*
X112112Y416635D01*
X112524Y417046D01*
X112552Y417052D01*
X113164Y417461D01*
X113573Y418073D01*
X113716Y418794D01*
X113573Y419516D01*
X113164Y420128D01*
X112552Y420537D01*
X111830Y420681D01*
D02*
G37*
G36*
X116830Y414181D02*
X116108Y414037D01*
X115496Y413628D01*
X115087Y413016D01*
X114944Y412294D01*
X115087Y411573D01*
X115496Y410961D01*
X116108Y410552D01*
X116830Y410408D01*
X116904Y410423D01*
X122117Y405210D01*
Y401875D01*
X121701Y401597D01*
X121292Y400985D01*
X121148Y400263D01*
X121292Y399541D01*
X121701Y398929D01*
X122313Y398520D01*
X123035Y398377D01*
X123757Y398520D01*
X124368Y398929D01*
X124777Y399541D01*
X124921Y400263D01*
X124777Y400985D01*
X124368Y401597D01*
X123952Y401875D01*
Y405590D01*
X123882Y405941D01*
X123684Y406239D01*
X118483Y411439D01*
X118573Y411573D01*
X118716Y412294D01*
X118573Y413016D01*
X118164Y413628D01*
X117552Y414037D01*
X116830Y414181D01*
D02*
G37*
G36*
X117830Y448681D02*
X117108Y448537D01*
X116496Y448128D01*
X99996Y431628D01*
X99587Y431016D01*
X99444Y430295D01*
Y402076D01*
X95049Y397681D01*
X86330D01*
X85608Y397537D01*
X84996Y397128D01*
X84587Y396516D01*
X84444Y395795D01*
X84587Y395073D01*
X84996Y394461D01*
X85608Y394052D01*
X86330Y393908D01*
X95830D01*
X96552Y394052D01*
X97164Y394461D01*
X102664Y399961D01*
X103073Y400573D01*
X103216Y401295D01*
Y429513D01*
X119164Y445461D01*
X119573Y446073D01*
X119716Y446795D01*
X119573Y447516D01*
X119164Y448128D01*
X118552Y448537D01*
X117830Y448681D01*
D02*
G37*
G36*
X197330Y396329D02*
X195330D01*
X194286Y396192D01*
X193313Y395789D01*
X192477Y395147D01*
X191836Y394312D01*
X191433Y393339D01*
X191361Y392794D01*
X197330D01*
Y396329D01*
D02*
G37*
G36*
X58468Y389945D02*
X57746Y389801D01*
X57579Y389690D01*
X52663D01*
X52497Y389801D01*
X51775Y389945D01*
X51053Y389801D01*
X50441Y389392D01*
X50032Y388780D01*
X49889Y388058D01*
X50032Y387336D01*
X50441Y386724D01*
X51053Y386316D01*
X51775Y386172D01*
X52497Y386316D01*
X52663Y386427D01*
X57579D01*
X57746Y386316D01*
X58468Y386172D01*
X59189Y386316D01*
X59802Y386724D01*
X60210Y387336D01*
X60354Y388058D01*
X60210Y388780D01*
X59802Y389392D01*
X59189Y389801D01*
X58468Y389945D01*
D02*
G37*
G36*
X197330Y391794D02*
X191361D01*
X191433Y391250D01*
X191836Y390277D01*
X192477Y389442D01*
X193313Y388801D01*
X194286Y388397D01*
X195330Y388260D01*
X197330D01*
Y391794D01*
D02*
G37*
G36*
X127759Y386401D02*
X127037Y386258D01*
X126425Y385849D01*
X126352Y385738D01*
X117356D01*
X117282Y385849D01*
X116670Y386258D01*
X115948Y386401D01*
X115226Y386258D01*
X114614Y385849D01*
X114205Y385237D01*
X114062Y384515D01*
X114205Y383793D01*
X114614Y383181D01*
X115226Y382772D01*
X115948Y382629D01*
X116670Y382772D01*
X117282Y383181D01*
X117356Y383292D01*
X126352D01*
X126425Y383181D01*
X127037Y382772D01*
X127759Y382629D01*
X128481Y382772D01*
X129093Y383181D01*
X129502Y383793D01*
X129645Y384515D01*
X129502Y385237D01*
X129093Y385849D01*
X128481Y386258D01*
X127759Y386401D01*
D02*
G37*
G36*
X197330Y386329D02*
X195330D01*
X194286Y386192D01*
X193313Y385788D01*
X192477Y385147D01*
X191836Y384312D01*
X191433Y383339D01*
X191361Y382794D01*
X197330D01*
Y386329D01*
D02*
G37*
G36*
X148086Y384925D02*
X147364Y384781D01*
X146752Y384372D01*
X146343Y383760D01*
X146200Y383039D01*
X146343Y382317D01*
X146752Y381705D01*
X147364Y381296D01*
X148086Y381152D01*
X148808Y381296D01*
X149420Y381705D01*
X149829Y382317D01*
X149972Y383039D01*
X149829Y383760D01*
X149420Y384372D01*
X148808Y384781D01*
X148086Y384925D01*
D02*
G37*
G36*
X160436Y384039D02*
X159714Y383895D01*
X159102Y383487D01*
X158694Y382875D01*
X158550Y382153D01*
X158694Y381431D01*
X159102Y380819D01*
X159714Y380410D01*
X160077Y380338D01*
X160206Y380252D01*
X160830Y380128D01*
X170178D01*
X170344Y380016D01*
X171066Y379873D01*
X171788Y380016D01*
X172400Y380425D01*
X172809Y381037D01*
X172952Y381759D01*
X172809Y382481D01*
X172400Y383093D01*
X171788Y383502D01*
X171066Y383645D01*
X170344Y383502D01*
X170178Y383390D01*
X161834D01*
X161770Y383487D01*
X161158Y383895D01*
X160436Y384039D01*
D02*
G37*
G36*
X197330Y381795D02*
X191361D01*
X191433Y381250D01*
X191836Y380277D01*
X192477Y379442D01*
X193313Y378801D01*
X194286Y378397D01*
X195330Y378260D01*
X197330D01*
Y381795D01*
D02*
G37*
G36*
X104924Y382070D02*
X104203Y381927D01*
X103591Y381518D01*
X103182Y380906D01*
X103038Y380184D01*
X103182Y379462D01*
X103591Y378851D01*
X104203Y378442D01*
X104924Y378298D01*
X105415Y378396D01*
X108648Y375163D01*
X108550Y374672D01*
X108694Y373951D01*
X109102Y373339D01*
X109714Y372930D01*
X110436Y372786D01*
X111158Y372930D01*
X111770Y373339D01*
X112179Y373951D01*
X112322Y374672D01*
X112179Y375394D01*
X111770Y376006D01*
X111158Y376415D01*
X110436Y376559D01*
X109945Y376461D01*
X106713Y379693D01*
X106811Y380184D01*
X106667Y380906D01*
X106258Y381518D01*
X105646Y381927D01*
X104924Y382070D01*
D02*
G37*
G36*
X124609Y378134D02*
X123888Y377990D01*
X123276Y377581D01*
X122867Y376969D01*
X122723Y376247D01*
X122867Y375525D01*
X123276Y374914D01*
X123590Y374704D01*
Y373520D01*
X121043Y370973D01*
X120672Y371047D01*
X119951Y370903D01*
X119339Y370494D01*
X118930Y369882D01*
X118786Y369161D01*
X118930Y368439D01*
X119339Y367827D01*
X119951Y367418D01*
X120672Y367274D01*
X121394Y367418D01*
X122006Y367827D01*
X122415Y368439D01*
X122559Y369161D01*
X122485Y369531D01*
X125330Y372377D01*
X125551Y372708D01*
X125629Y373098D01*
Y374704D01*
X125943Y374914D01*
X126352Y375525D01*
X126496Y376247D01*
X126352Y376969D01*
X125943Y377581D01*
X125331Y377990D01*
X124609Y378134D01*
D02*
G37*
G36*
X62011Y378527D02*
X61289Y378384D01*
X60677Y377975D01*
X60268Y377363D01*
X60125Y376641D01*
X60268Y375919D01*
X60677Y375307D01*
X61289Y374898D01*
X61486Y374859D01*
X69913Y366432D01*
X70442Y366079D01*
X70922Y365983D01*
X71132Y365843D01*
X71854Y365700D01*
X72575Y365843D01*
X73187Y366252D01*
X73596Y366864D01*
X73740Y367586D01*
X73596Y368308D01*
X73187Y368920D01*
X72575Y369328D01*
X71854Y369472D01*
X71548Y369411D01*
X63793Y377166D01*
X63754Y377363D01*
X63345Y377975D01*
X62733Y378384D01*
X62011Y378527D01*
D02*
G37*
G36*
X53830Y373681D02*
X53108Y373537D01*
X52496Y373128D01*
X52087Y372516D01*
X51944Y371795D01*
X52087Y371073D01*
X52496Y370461D01*
X53108Y370052D01*
X53830Y369908D01*
X54201Y369982D01*
X63706Y360476D01*
X63633Y360105D01*
X63776Y359384D01*
X64185Y358772D01*
X64797Y358363D01*
X65519Y358219D01*
X66241Y358363D01*
X66853Y358772D01*
X67261Y359384D01*
X67405Y360105D01*
X67261Y360827D01*
X66853Y361439D01*
X66241Y361848D01*
X65519Y361992D01*
X65148Y361918D01*
X55642Y371424D01*
X55716Y371795D01*
X55573Y372516D01*
X55164Y373128D01*
X54552Y373537D01*
X53830Y373681D01*
D02*
G37*
G36*
X65948Y354905D02*
X65226Y354762D01*
X64614Y354353D01*
X64541Y354242D01*
X54363D01*
X54290Y354353D01*
X53678Y354762D01*
X52956Y354905D01*
X52234Y354762D01*
X51622Y354353D01*
X51213Y353741D01*
X51070Y353019D01*
X51213Y352297D01*
X51622Y351685D01*
X52234Y351276D01*
X52956Y351133D01*
X53678Y351276D01*
X54290Y351685D01*
X54363Y351795D01*
X64541D01*
X64614Y351685D01*
X65226Y351276D01*
X65948Y351133D01*
X66670Y351276D01*
X67282Y351685D01*
X67691Y352297D01*
X67834Y353019D01*
X67691Y353741D01*
X67282Y354353D01*
X66670Y354762D01*
X65948Y354905D01*
D02*
G37*
G36*
X171460Y345850D02*
X170738Y345706D01*
X170126Y345298D01*
X169717Y344686D01*
X169574Y343964D01*
X169717Y343242D01*
X170126Y342630D01*
X170738Y342221D01*
X171100Y342149D01*
X171229Y342063D01*
X171853Y341939D01*
X182776D01*
X182943Y341827D01*
X183665Y341684D01*
X184386Y341827D01*
X184998Y342236D01*
X185407Y342848D01*
X185551Y343570D01*
X185407Y344292D01*
X184998Y344904D01*
X184386Y345313D01*
X183665Y345456D01*
X182943Y345313D01*
X182776Y345201D01*
X172858D01*
X172794Y345298D01*
X172182Y345706D01*
X171460Y345850D01*
D02*
G37*
G36*
X114373Y348212D02*
X113651Y348069D01*
X113040Y347660D01*
X112631Y347048D01*
X112487Y346326D01*
X112631Y345604D01*
X113040Y344992D01*
X113354Y344782D01*
Y340783D01*
X113040Y340573D01*
X112631Y339961D01*
X112487Y339239D01*
X112631Y338517D01*
X113040Y337906D01*
X113651Y337497D01*
X114373Y337353D01*
X115095Y337497D01*
X115707Y337906D01*
X116116Y338517D01*
X116260Y339239D01*
X116116Y339961D01*
X115707Y340573D01*
X115393Y340783D01*
Y344782D01*
X115707Y344992D01*
X116116Y345604D01*
X116260Y346326D01*
X116116Y347048D01*
X115707Y347660D01*
X115095Y348069D01*
X114373Y348212D01*
D02*
G37*
G36*
X10330Y336329D02*
X8330D01*
Y332794D01*
X14299D01*
X14227Y333339D01*
X13824Y334312D01*
X13183Y335147D01*
X12347Y335788D01*
X11374Y336192D01*
X10330Y336329D01*
D02*
G37*
G36*
X123035Y344669D02*
X122313Y344525D01*
X121701Y344116D01*
X121292Y343505D01*
X121148Y342783D01*
X121292Y342061D01*
X121701Y341449D01*
X122015Y341239D01*
Y331728D01*
X121701Y331518D01*
X121292Y330906D01*
X121148Y330184D01*
X121292Y329462D01*
X121701Y328851D01*
X122313Y328442D01*
X123035Y328298D01*
X123757Y328442D01*
X124368Y328851D01*
X124777Y329462D01*
X124921Y330184D01*
X124777Y330906D01*
X124368Y331518D01*
X124054Y331728D01*
Y341239D01*
X124368Y341449D01*
X124777Y342061D01*
X124921Y342783D01*
X124777Y343505D01*
X124368Y344116D01*
X123757Y344525D01*
X123035Y344669D01*
D02*
G37*
G36*
X14299Y331795D02*
X8330D01*
Y328260D01*
X10330D01*
X11374Y328397D01*
X12347Y328801D01*
X13183Y329442D01*
X13824Y330277D01*
X14227Y331250D01*
X14299Y331795D01*
D02*
G37*
G36*
X109649Y348212D02*
X108927Y348069D01*
X108315Y347660D01*
X107906Y347048D01*
X107763Y346326D01*
X107906Y345604D01*
X108315Y344992D01*
X108731Y344714D01*
Y329397D01*
X108801Y329046D01*
X109000Y328748D01*
X110306Y327442D01*
Y326678D01*
X109890Y326400D01*
X109481Y325788D01*
X109337Y325066D01*
X109481Y324344D01*
X109890Y323732D01*
X110502Y323323D01*
X111224Y323180D01*
X111945Y323323D01*
X112557Y323732D01*
X112966Y324344D01*
X113110Y325066D01*
X112966Y325788D01*
X112557Y326400D01*
X112141Y326678D01*
Y327822D01*
X112071Y328173D01*
X111872Y328471D01*
X110566Y329777D01*
Y344714D01*
X110983Y344992D01*
X111391Y345604D01*
X111535Y346326D01*
X111391Y347048D01*
X110983Y347660D01*
X110371Y348069D01*
X109649Y348212D01*
D02*
G37*
G36*
X197330Y326329D02*
X195330D01*
X194286Y326192D01*
X193313Y325788D01*
X192477Y325147D01*
X191836Y324312D01*
X191433Y323339D01*
X191361Y322795D01*
X197330D01*
Y326329D01*
D02*
G37*
G36*
X10330D02*
X8330D01*
Y322795D01*
X14299D01*
X14227Y323339D01*
X13824Y324312D01*
X13183Y325147D01*
X12347Y325788D01*
X11374Y326192D01*
X10330Y326329D01*
D02*
G37*
G36*
X197330Y321795D02*
X191361D01*
X191433Y321250D01*
X191836Y320277D01*
X192477Y319442D01*
X193313Y318800D01*
X194286Y318397D01*
X195330Y318260D01*
X197330D01*
Y321795D01*
D02*
G37*
G36*
X14299D02*
X8330D01*
Y318260D01*
X10330D01*
X11374Y318397D01*
X12347Y318800D01*
X13183Y319442D01*
X13824Y320277D01*
X14227Y321250D01*
X14299Y321795D01*
D02*
G37*
G36*
X197330Y316329D02*
X195330D01*
X194286Y316192D01*
X193313Y315789D01*
X192477Y315147D01*
X191836Y314312D01*
X191433Y313339D01*
X191361Y312794D01*
X197330D01*
Y316329D01*
D02*
G37*
G36*
X66735Y310811D02*
X66014Y310667D01*
X65402Y310258D01*
X65192Y309944D01*
X53319D01*
X53109Y310258D01*
X52497Y310667D01*
X51775Y310811D01*
X51053Y310667D01*
X50441Y310258D01*
X50032Y309646D01*
X49889Y308924D01*
X50032Y308203D01*
X50441Y307591D01*
X51053Y307182D01*
X51775Y307038D01*
X52497Y307182D01*
X53109Y307591D01*
X53319Y307905D01*
X65192D01*
X65402Y307591D01*
X66014Y307182D01*
X66735Y307038D01*
X67457Y307182D01*
X68069Y307591D01*
X68478Y308203D01*
X68622Y308924D01*
X68478Y309646D01*
X68069Y310258D01*
X67457Y310667D01*
X66735Y310811D01*
D02*
G37*
G36*
X197330Y311794D02*
X191361D01*
X191433Y311250D01*
X191836Y310277D01*
X192477Y309442D01*
X193313Y308801D01*
X194286Y308397D01*
X195330Y308260D01*
X197330D01*
Y311794D01*
D02*
G37*
G36*
X97830Y305435D02*
X95774Y305273D01*
X93769Y304792D01*
X91864Y304003D01*
X90106Y302925D01*
X88538Y301586D01*
X87199Y300018D01*
X86122Y298260D01*
X85333Y296355D01*
X84851Y294350D01*
X84689Y292295D01*
X84851Y290239D01*
X85333Y288234D01*
X86122Y286329D01*
X87199Y284571D01*
X88538Y283003D01*
X90106Y281664D01*
X91864Y280586D01*
X93769Y279797D01*
X95774Y279316D01*
X97830Y279154D01*
X99885Y279316D01*
X101891Y279797D01*
X103796Y280586D01*
X105554Y281664D01*
X107122Y283003D01*
X108461Y284571D01*
X109538Y286329D01*
X110327Y288234D01*
X110809Y290239D01*
X110970Y292295D01*
X110809Y294350D01*
X110327Y296355D01*
X109538Y298260D01*
X108461Y300018D01*
X107122Y301586D01*
X105554Y302925D01*
X103796Y304003D01*
X101891Y304792D01*
X99885Y305273D01*
X97830Y305435D01*
D02*
G37*
G36*
X50987Y284433D02*
X50266Y284289D01*
X49654Y283880D01*
X49245Y283268D01*
X49101Y282546D01*
X49245Y281825D01*
X49654Y281213D01*
X50266Y280804D01*
X50987Y280660D01*
X51709Y280804D01*
X52321Y281213D01*
X52395Y281323D01*
X60717D01*
X61725Y280314D01*
X61700Y280184D01*
X61843Y279462D01*
X62252Y278851D01*
X62864Y278442D01*
X63586Y278298D01*
X64308Y278442D01*
X64920Y278851D01*
X65329Y279462D01*
X65472Y280184D01*
X65329Y280906D01*
X64920Y281518D01*
X64308Y281927D01*
X63586Y282070D01*
X63456Y282045D01*
X62089Y283412D01*
X61692Y283677D01*
X61224Y283770D01*
X52395D01*
X52321Y283880D01*
X51709Y284289D01*
X50987Y284433D01*
D02*
G37*
G36*
X81302Y276559D02*
X80581Y276415D01*
X80414Y276304D01*
X74317D01*
X74150Y276415D01*
X73428Y276559D01*
X72707Y276415D01*
X72095Y276006D01*
X71686Y275394D01*
X71542Y274672D01*
X71686Y273951D01*
X72095Y273339D01*
X72707Y272930D01*
X73428Y272786D01*
X74150Y272930D01*
X74317Y273041D01*
X80414D01*
X80581Y272930D01*
X81302Y272786D01*
X82024Y272930D01*
X82636Y273339D01*
X83045Y273951D01*
X83189Y274672D01*
X83045Y275394D01*
X82636Y276006D01*
X82024Y276415D01*
X81302Y276559D01*
D02*
G37*
G36*
X98330Y268763D02*
Y262794D01*
X101864D01*
Y264794D01*
X101727Y265839D01*
X101324Y266812D01*
X100683Y267647D01*
X99847Y268288D01*
X98874Y268692D01*
X98330Y268763D01*
D02*
G37*
G36*
X88330D02*
Y262794D01*
X91864D01*
Y264794D01*
X91727Y265839D01*
X91324Y266812D01*
X90683Y267647D01*
X89847Y268288D01*
X88874Y268692D01*
X88330Y268763D01*
D02*
G37*
G36*
X11830Y268794D02*
X8330D01*
Y262794D01*
X11830D01*
Y268794D01*
D02*
G37*
G36*
X97330Y268763D02*
X96786Y268692D01*
X95813Y268288D01*
X94977Y267647D01*
X94336Y266812D01*
X93933Y265839D01*
X93795Y264794D01*
Y262794D01*
X97330D01*
Y268763D01*
D02*
G37*
G36*
X87330D02*
X86786Y268692D01*
X85813Y268288D01*
X84977Y267647D01*
X84336Y266812D01*
X83933Y265839D01*
X83795Y264794D01*
Y262794D01*
X87330D01*
Y268763D01*
D02*
G37*
G36*
X404030Y222094D02*
X398030D01*
Y218595D01*
X404030D01*
Y222094D01*
D02*
G37*
G36*
Y217595D02*
X398030D01*
Y214094D01*
X404030D01*
Y217595D01*
D02*
G37*
G36*
X351782Y216045D02*
X350829Y215919D01*
X349940Y215551D01*
X349178Y214966D01*
X348593Y214204D01*
X348225Y213315D01*
X348099Y212362D01*
X348225Y211409D01*
X348593Y210521D01*
X349178Y209758D01*
X349940Y209173D01*
X350829Y208805D01*
X351782Y208680D01*
X352735Y208805D01*
X353623Y209173D01*
X354386Y209758D01*
X354971Y210521D01*
X355339Y211409D01*
X355465Y212362D01*
X355339Y213315D01*
X354971Y214204D01*
X354386Y214966D01*
X353623Y215551D01*
X352735Y215919D01*
X351782Y216045D01*
D02*
G37*
G36*
X341782D02*
X340829Y215919D01*
X339941Y215551D01*
X339178Y214966D01*
X338593Y214204D01*
X338225Y213315D01*
X338099Y212362D01*
X338225Y211409D01*
X338593Y210521D01*
X339178Y209758D01*
X339941Y209173D01*
X340829Y208805D01*
X341782Y208680D01*
X342735Y208805D01*
X343623Y209173D01*
X344386Y209758D01*
X344971Y210521D01*
X345339Y211409D01*
X345465Y212362D01*
X345339Y213315D01*
X344971Y214204D01*
X344386Y214966D01*
X343623Y215551D01*
X342735Y215919D01*
X341782Y216045D01*
D02*
G37*
G36*
X217030Y212129D02*
X215030D01*
Y208594D01*
X220999D01*
X220927Y209139D01*
X220524Y210112D01*
X219883Y210947D01*
X219047Y211589D01*
X218074Y211992D01*
X217030Y212129D01*
D02*
G37*
G36*
X220999Y207594D02*
X215030D01*
Y204060D01*
X217030D01*
X218074Y204198D01*
X219047Y204601D01*
X219883Y205242D01*
X220524Y206077D01*
X220927Y207050D01*
X220999Y207594D01*
D02*
G37*
G36*
X351782Y206045D02*
X350829Y205919D01*
X349940Y205552D01*
X349178Y204966D01*
X348593Y204204D01*
X348225Y203315D01*
X348099Y202362D01*
X348225Y201409D01*
X348593Y200521D01*
X349178Y199758D01*
X349940Y199173D01*
X350829Y198805D01*
X351782Y198679D01*
X352735Y198805D01*
X353623Y199173D01*
X354386Y199758D01*
X354971Y200521D01*
X355339Y201409D01*
X355465Y202362D01*
X355339Y203315D01*
X354971Y204204D01*
X354386Y204966D01*
X353623Y205552D01*
X352735Y205919D01*
X351782Y206045D01*
D02*
G37*
G36*
X341782D02*
X340829Y205919D01*
X339941Y205552D01*
X339178Y204966D01*
X338593Y204204D01*
X338225Y203315D01*
X338099Y202362D01*
X338225Y201409D01*
X338593Y200521D01*
X339178Y199758D01*
X339941Y199173D01*
X340829Y198805D01*
X341782Y198679D01*
X342735Y198805D01*
X343623Y199173D01*
X344386Y199758D01*
X344971Y200521D01*
X345339Y201409D01*
X345465Y202362D01*
X345339Y203315D01*
X344971Y204204D01*
X344386Y204966D01*
X343623Y205552D01*
X342735Y205919D01*
X341782Y206045D01*
D02*
G37*
G36*
X365561Y209760D02*
X364840Y209617D01*
X364228Y209208D01*
X363819Y208596D01*
X363675Y207874D01*
X363819Y207152D01*
X363930Y206986D01*
Y198133D01*
X363819Y197966D01*
X363675Y197244D01*
X363819Y196522D01*
X364228Y195910D01*
X364840Y195501D01*
X365561Y195358D01*
X366283Y195501D01*
X366895Y195910D01*
X367304Y196522D01*
X367448Y197244D01*
X367304Y197966D01*
X367193Y198133D01*
Y206986D01*
X367304Y207152D01*
X367448Y207874D01*
X367304Y208596D01*
X366895Y209208D01*
X366283Y209617D01*
X365561Y209760D01*
D02*
G37*
G36*
X355433Y196013D02*
X348131D01*
Y188711D01*
X355433D01*
Y196013D01*
D02*
G37*
G36*
X341782Y196045D02*
X340829Y195919D01*
X339941Y195552D01*
X339178Y194966D01*
X338593Y194204D01*
X338225Y193315D01*
X338099Y192362D01*
X338225Y191409D01*
X338593Y190521D01*
X339178Y189758D01*
X339941Y189173D01*
X340829Y188805D01*
X341782Y188680D01*
X342735Y188805D01*
X343623Y189173D01*
X344386Y189758D01*
X344971Y190521D01*
X345339Y191409D01*
X345465Y192362D01*
X345339Y193315D01*
X344971Y194204D01*
X344386Y194966D01*
X343623Y195552D01*
X342735Y195919D01*
X341782Y196045D01*
D02*
G37*
G36*
X404030Y192129D02*
X402030D01*
X400986Y191992D01*
X400013Y191588D01*
X399177Y190947D01*
X398536Y190112D01*
X398133Y189139D01*
X398061Y188594D01*
X404030D01*
Y192129D01*
D02*
G37*
G36*
X217030D02*
X215030D01*
Y188594D01*
X220999D01*
X220927Y189139D01*
X220524Y190112D01*
X219883Y190947D01*
X219047Y191588D01*
X218074Y191992D01*
X217030Y192129D01*
D02*
G37*
G36*
X404030Y187594D02*
X398061D01*
X398133Y187050D01*
X398536Y186077D01*
X399177Y185242D01*
X400013Y184600D01*
X400986Y184197D01*
X402030Y184060D01*
X404030D01*
Y187594D01*
D02*
G37*
G36*
X220999D02*
X215030D01*
Y184060D01*
X217030D01*
X218074Y184197D01*
X219047Y184600D01*
X219883Y185242D01*
X220524Y186077D01*
X220927Y187050D01*
X220999Y187594D01*
D02*
G37*
G36*
X262286Y173225D02*
X261564Y173081D01*
X260952Y172672D01*
X260543Y172060D01*
X260400Y171339D01*
X260543Y170617D01*
X260952Y170005D01*
X261564Y169596D01*
X262286Y169452D01*
X263008Y169596D01*
X263620Y170005D01*
X264029Y170617D01*
X264172Y171339D01*
X264029Y172060D01*
X263620Y172672D01*
X263008Y173081D01*
X262286Y173225D01*
D02*
G37*
G36*
X217030Y172129D02*
X215030D01*
Y168595D01*
X220999D01*
X220927Y169139D01*
X220524Y170112D01*
X219883Y170947D01*
X219047Y171589D01*
X218074Y171992D01*
X217030Y172129D01*
D02*
G37*
G36*
X220999Y167595D02*
X215030D01*
Y164060D01*
X217030D01*
X218074Y164198D01*
X219047Y164601D01*
X219883Y165242D01*
X220524Y166077D01*
X220927Y167050D01*
X220999Y167595D01*
D02*
G37*
G36*
X404030Y162129D02*
X402030D01*
X400986Y161992D01*
X400013Y161589D01*
X399177Y160947D01*
X398536Y160112D01*
X398133Y159139D01*
X398061Y158595D01*
X404030D01*
Y162129D01*
D02*
G37*
G36*
Y157595D02*
X398061D01*
X398133Y157050D01*
X398536Y156077D01*
X399177Y155242D01*
X400013Y154601D01*
X400986Y154198D01*
X402030Y154060D01*
X404030D01*
Y157595D01*
D02*
G37*
G36*
X336030Y163481D02*
X335308Y163337D01*
X334696Y162928D01*
X334287Y162316D01*
X334144Y161594D01*
X334287Y160873D01*
X334696Y160261D01*
X334908Y160119D01*
Y153835D01*
X334700Y153696D01*
X334291Y153084D01*
X334148Y152362D01*
X334291Y151640D01*
X334700Y151028D01*
X335312Y150620D01*
X336034Y150476D01*
X336756Y150620D01*
X337368Y151028D01*
X337776Y151640D01*
X337920Y152362D01*
X337776Y153084D01*
X337368Y153696D01*
X337152Y153840D01*
Y160119D01*
X337364Y160261D01*
X337773Y160873D01*
X337916Y161594D01*
X337773Y162316D01*
X337364Y162928D01*
X336752Y163337D01*
X336030Y163481D01*
D02*
G37*
G36*
X318530Y166481D02*
X317808Y166337D01*
X317196Y165928D01*
X316787Y165316D01*
X316644Y164594D01*
X316787Y163873D01*
X317019Y163526D01*
X314309Y160816D01*
X314088Y160485D01*
X314010Y160094D01*
Y155256D01*
X314088Y154866D01*
X314309Y154535D01*
X315717Y153127D01*
X315644Y152756D01*
X315787Y152034D01*
X316196Y151422D01*
X316808Y151013D01*
X317530Y150870D01*
X317683Y150900D01*
X318036Y150547D01*
X318006Y150394D01*
X318149Y149672D01*
X318558Y149060D01*
X319170Y148651D01*
X319892Y148507D01*
X320614Y148651D01*
X321226Y149060D01*
X321635Y149672D01*
X321778Y150394D01*
X321635Y151116D01*
X321226Y151727D01*
X320614Y152136D01*
X320598Y152140D01*
Y153647D01*
X320528Y153998D01*
X320329Y154295D01*
X319447Y155177D01*
Y158483D01*
X319864Y158761D01*
X320273Y159373D01*
X320416Y160094D01*
X320273Y160816D01*
X319864Y161428D01*
X319252Y161837D01*
X318976Y161892D01*
X318812Y162434D01*
X319224Y162846D01*
X319252Y162852D01*
X319864Y163261D01*
X320273Y163873D01*
X320416Y164594D01*
X320273Y165316D01*
X319864Y165928D01*
X319252Y166337D01*
X318530Y166481D01*
D02*
G37*
G36*
X323530Y159981D02*
X322808Y159837D01*
X322196Y159428D01*
X321787Y158816D01*
X321644Y158095D01*
X321787Y157373D01*
X322196Y156761D01*
X322808Y156352D01*
X323530Y156208D01*
X323604Y156223D01*
X328817Y151010D01*
Y147675D01*
X328401Y147397D01*
X327992Y146785D01*
X327848Y146063D01*
X327992Y145341D01*
X328401Y144729D01*
X329013Y144320D01*
X329735Y144177D01*
X330456Y144320D01*
X331068Y144729D01*
X331477Y145341D01*
X331621Y146063D01*
X331477Y146785D01*
X331068Y147397D01*
X330652Y147675D01*
Y151390D01*
X330582Y151741D01*
X330383Y152039D01*
X325183Y157239D01*
X325273Y157373D01*
X325416Y158095D01*
X325273Y158816D01*
X324864Y159428D01*
X324252Y159837D01*
X323530Y159981D01*
D02*
G37*
G36*
X324530Y194481D02*
X323808Y194337D01*
X323196Y193928D01*
X306696Y177428D01*
X306287Y176816D01*
X306144Y176094D01*
Y147876D01*
X301749Y143481D01*
X293030D01*
X292308Y143337D01*
X291696Y142928D01*
X291287Y142316D01*
X291144Y141595D01*
X291287Y140873D01*
X291696Y140261D01*
X292308Y139852D01*
X293030Y139708D01*
X302530D01*
X303252Y139852D01*
X303864Y140261D01*
X309364Y145761D01*
X309773Y146373D01*
X309916Y147095D01*
Y175313D01*
X325864Y191261D01*
X326273Y191873D01*
X326416Y192595D01*
X326273Y193316D01*
X325864Y193928D01*
X325252Y194337D01*
X324530Y194481D01*
D02*
G37*
G36*
X404030Y142129D02*
X402030D01*
X400986Y141992D01*
X400013Y141588D01*
X399177Y140947D01*
X398536Y140112D01*
X398133Y139139D01*
X398061Y138594D01*
X404030D01*
Y142129D01*
D02*
G37*
G36*
X265168Y135745D02*
X264446Y135601D01*
X264279Y135490D01*
X259363D01*
X259197Y135601D01*
X258475Y135745D01*
X257753Y135601D01*
X257141Y135192D01*
X256732Y134580D01*
X256589Y133858D01*
X256732Y133136D01*
X257141Y132525D01*
X257753Y132116D01*
X258475Y131972D01*
X259197Y132116D01*
X259363Y132227D01*
X264279D01*
X264446Y132116D01*
X265168Y131972D01*
X265890Y132116D01*
X266501Y132525D01*
X266910Y133136D01*
X267054Y133858D01*
X266910Y134580D01*
X266501Y135192D01*
X265890Y135601D01*
X265168Y135745D01*
D02*
G37*
G36*
X404030Y137594D02*
X398061D01*
X398133Y137050D01*
X398536Y136077D01*
X399177Y135242D01*
X400013Y134600D01*
X400986Y134197D01*
X402030Y134060D01*
X404030D01*
Y137594D01*
D02*
G37*
G36*
X334459Y132201D02*
X333737Y132058D01*
X333125Y131649D01*
X333052Y131538D01*
X324056D01*
X323982Y131649D01*
X323370Y132058D01*
X322648Y132201D01*
X321926Y132058D01*
X321314Y131649D01*
X320905Y131037D01*
X320762Y130315D01*
X320905Y129593D01*
X321314Y128981D01*
X321926Y128572D01*
X322648Y128429D01*
X323370Y128572D01*
X323982Y128981D01*
X324056Y129092D01*
X333052D01*
X333125Y128981D01*
X333737Y128572D01*
X334459Y128429D01*
X335181Y128572D01*
X335793Y128981D01*
X336202Y129593D01*
X336345Y130315D01*
X336202Y131037D01*
X335793Y131649D01*
X335181Y132058D01*
X334459Y132201D01*
D02*
G37*
G36*
X404030Y132129D02*
X402030D01*
X400986Y131992D01*
X400013Y131588D01*
X399177Y130947D01*
X398536Y130112D01*
X398133Y129139D01*
X398061Y128595D01*
X404030D01*
Y132129D01*
D02*
G37*
G36*
X354786Y130725D02*
X354064Y130581D01*
X353452Y130172D01*
X353043Y129560D01*
X352900Y128839D01*
X353043Y128117D01*
X353452Y127505D01*
X354064Y127096D01*
X354786Y126952D01*
X355508Y127096D01*
X356120Y127505D01*
X356528Y128117D01*
X356672Y128839D01*
X356528Y129560D01*
X356120Y130172D01*
X355508Y130581D01*
X354786Y130725D01*
D02*
G37*
G36*
X367136Y129839D02*
X366414Y129695D01*
X365802Y129287D01*
X365394Y128675D01*
X365250Y127953D01*
X365394Y127231D01*
X365802Y126619D01*
X366414Y126210D01*
X366777Y126138D01*
X366906Y126052D01*
X367530Y125928D01*
X376878D01*
X377044Y125816D01*
X377766Y125673D01*
X378488Y125816D01*
X379100Y126225D01*
X379509Y126837D01*
X379652Y127559D01*
X379509Y128281D01*
X379100Y128893D01*
X378488Y129302D01*
X377766Y129445D01*
X377044Y129302D01*
X376878Y129190D01*
X368534D01*
X368470Y129287D01*
X367858Y129695D01*
X367136Y129839D01*
D02*
G37*
G36*
X404030Y127594D02*
X398061D01*
X398133Y127050D01*
X398536Y126077D01*
X399177Y125242D01*
X400013Y124601D01*
X400986Y124197D01*
X402030Y124060D01*
X404030D01*
Y127594D01*
D02*
G37*
G36*
X311624Y127871D02*
X310903Y127727D01*
X310291Y127318D01*
X309882Y126706D01*
X309738Y125984D01*
X309882Y125262D01*
X310291Y124651D01*
X310903Y124242D01*
X311624Y124098D01*
X312115Y124196D01*
X315348Y120963D01*
X315250Y120473D01*
X315394Y119751D01*
X315802Y119139D01*
X316414Y118730D01*
X317136Y118586D01*
X317858Y118730D01*
X318470Y119139D01*
X318879Y119751D01*
X319022Y120473D01*
X318879Y121194D01*
X318470Y121806D01*
X317858Y122215D01*
X317136Y122359D01*
X316645Y122261D01*
X313413Y125493D01*
X313511Y125984D01*
X313367Y126706D01*
X312958Y127318D01*
X312346Y127727D01*
X311624Y127871D01*
D02*
G37*
G36*
X331309Y123933D02*
X330588Y123790D01*
X329976Y123381D01*
X329567Y122769D01*
X329423Y122047D01*
X329567Y121325D01*
X329976Y120713D01*
X330290Y120504D01*
Y119320D01*
X327743Y116773D01*
X327372Y116847D01*
X326651Y116703D01*
X326039Y116294D01*
X325630Y115682D01*
X325486Y114961D01*
X325630Y114239D01*
X326039Y113627D01*
X326651Y113218D01*
X327372Y113074D01*
X328094Y113218D01*
X328706Y113627D01*
X329115Y114239D01*
X329259Y114961D01*
X329185Y115331D01*
X332030Y118177D01*
X332251Y118508D01*
X332329Y118898D01*
Y120504D01*
X332643Y120713D01*
X333052Y121325D01*
X333196Y122047D01*
X333052Y122769D01*
X332643Y123381D01*
X332031Y123790D01*
X331309Y123933D01*
D02*
G37*
G36*
X268711Y124327D02*
X267989Y124184D01*
X267377Y123775D01*
X266968Y123163D01*
X266825Y122441D01*
X266968Y121719D01*
X267377Y121107D01*
X267989Y120698D01*
X268186Y120659D01*
X276613Y112232D01*
X277142Y111879D01*
X277622Y111783D01*
X277832Y111643D01*
X278554Y111500D01*
X279275Y111643D01*
X279887Y112052D01*
X280296Y112664D01*
X280440Y113386D01*
X280296Y114108D01*
X279887Y114720D01*
X279275Y115129D01*
X278554Y115272D01*
X278248Y115211D01*
X270493Y122966D01*
X270454Y123163D01*
X270045Y123775D01*
X269433Y124184D01*
X268711Y124327D01*
D02*
G37*
G36*
X260530Y119481D02*
X259808Y119337D01*
X259196Y118928D01*
X258787Y118316D01*
X258644Y117595D01*
X258787Y116873D01*
X259196Y116261D01*
X259808Y115852D01*
X260530Y115708D01*
X260900Y115782D01*
X270406Y106276D01*
X270333Y105905D01*
X270476Y105184D01*
X270885Y104572D01*
X271497Y104163D01*
X272219Y104019D01*
X272941Y104163D01*
X273553Y104572D01*
X273961Y105184D01*
X274105Y105905D01*
X273961Y106627D01*
X273553Y107239D01*
X272941Y107648D01*
X272219Y107792D01*
X271848Y107718D01*
X262342Y117224D01*
X262416Y117595D01*
X262273Y118316D01*
X261864Y118928D01*
X261252Y119337D01*
X260530Y119481D01*
D02*
G37*
G36*
X272648Y100705D02*
X271926Y100562D01*
X271314Y100153D01*
X271241Y100042D01*
X261063D01*
X260990Y100153D01*
X260378Y100562D01*
X259656Y100705D01*
X258934Y100562D01*
X258322Y100153D01*
X257913Y99541D01*
X257770Y98819D01*
X257913Y98097D01*
X258322Y97485D01*
X258934Y97076D01*
X259656Y96933D01*
X260378Y97076D01*
X260990Y97485D01*
X261063Y97595D01*
X271241D01*
X271314Y97485D01*
X271926Y97076D01*
X272648Y96933D01*
X273370Y97076D01*
X273982Y97485D01*
X274391Y98097D01*
X274534Y98819D01*
X274391Y99541D01*
X273982Y100153D01*
X273370Y100562D01*
X272648Y100705D01*
D02*
G37*
G36*
X378160Y91650D02*
X377438Y91506D01*
X376826Y91098D01*
X376417Y90486D01*
X376274Y89764D01*
X376417Y89042D01*
X376826Y88430D01*
X377438Y88021D01*
X377800Y87949D01*
X377929Y87863D01*
X378554Y87739D01*
X389476D01*
X389643Y87627D01*
X390365Y87484D01*
X391086Y87627D01*
X391698Y88036D01*
X392107Y88648D01*
X392251Y89370D01*
X392107Y90092D01*
X391698Y90704D01*
X391086Y91113D01*
X390365Y91256D01*
X389643Y91113D01*
X389476Y91001D01*
X379558D01*
X379494Y91098D01*
X378882Y91506D01*
X378160Y91650D01*
D02*
G37*
G36*
X321073Y94012D02*
X320351Y93869D01*
X319739Y93460D01*
X319331Y92848D01*
X319187Y92126D01*
X319331Y91404D01*
X319739Y90792D01*
X320054Y90582D01*
Y86583D01*
X319739Y86373D01*
X319331Y85761D01*
X319187Y85039D01*
X319331Y84318D01*
X319739Y83706D01*
X320351Y83297D01*
X321073Y83153D01*
X321795Y83297D01*
X322407Y83706D01*
X322816Y84318D01*
X322959Y85039D01*
X322816Y85761D01*
X322407Y86373D01*
X322093Y86583D01*
Y90582D01*
X322407Y90792D01*
X322816Y91404D01*
X322959Y92126D01*
X322816Y92848D01*
X322407Y93460D01*
X321795Y93869D01*
X321073Y94012D01*
D02*
G37*
G36*
X217030Y82129D02*
X215030D01*
Y78594D01*
X220999D01*
X220927Y79139D01*
X220524Y80112D01*
X219883Y80947D01*
X219047Y81589D01*
X218074Y81991D01*
X217030Y82129D01*
D02*
G37*
G36*
X329735Y90469D02*
X329013Y90325D01*
X328401Y89916D01*
X327992Y89305D01*
X327848Y88583D01*
X327992Y87861D01*
X328401Y87249D01*
X328715Y87039D01*
Y77528D01*
X328401Y77318D01*
X327992Y76706D01*
X327848Y75984D01*
X327992Y75262D01*
X328401Y74651D01*
X329013Y74242D01*
X329735Y74098D01*
X330456Y74242D01*
X331068Y74651D01*
X331477Y75262D01*
X331621Y75984D01*
X331477Y76706D01*
X331068Y77318D01*
X330754Y77528D01*
Y87039D01*
X331068Y87249D01*
X331477Y87861D01*
X331621Y88583D01*
X331477Y89305D01*
X331068Y89916D01*
X330456Y90325D01*
X329735Y90469D01*
D02*
G37*
G36*
X220999Y77595D02*
X215030D01*
Y74060D01*
X217030D01*
X218074Y74198D01*
X219047Y74600D01*
X219883Y75242D01*
X220524Y76077D01*
X220927Y77050D01*
X220999Y77595D01*
D02*
G37*
G36*
X316349Y94012D02*
X315627Y93869D01*
X315015Y93460D01*
X314606Y92848D01*
X314463Y92126D01*
X314606Y91404D01*
X315015Y90792D01*
X315431Y90514D01*
Y75197D01*
X315501Y74846D01*
X315700Y74548D01*
X317006Y73242D01*
Y72478D01*
X316590Y72200D01*
X316181Y71588D01*
X316037Y70866D01*
X316181Y70144D01*
X316590Y69532D01*
X317202Y69124D01*
X317924Y68980D01*
X318645Y69124D01*
X319257Y69532D01*
X319666Y70144D01*
X319810Y70866D01*
X319666Y71588D01*
X319257Y72200D01*
X318841Y72478D01*
Y73622D01*
X318771Y73973D01*
X318572Y74271D01*
X317266Y75577D01*
Y90514D01*
X317683Y90792D01*
X318092Y91404D01*
X318235Y92126D01*
X318092Y92848D01*
X317683Y93460D01*
X317071Y93869D01*
X316349Y94012D01*
D02*
G37*
G36*
X404030Y72129D02*
X402030D01*
X400986Y71991D01*
X400013Y71588D01*
X399177Y70947D01*
X398536Y70112D01*
X398133Y69139D01*
X398061Y68594D01*
X404030D01*
Y72129D01*
D02*
G37*
G36*
X217030D02*
X215030D01*
Y68594D01*
X220999D01*
X220927Y69139D01*
X220524Y70112D01*
X219883Y70947D01*
X219047Y71588D01*
X218074Y71991D01*
X217030Y72129D01*
D02*
G37*
G36*
X404030Y67594D02*
X398061D01*
X398133Y67050D01*
X398536Y66077D01*
X399177Y65242D01*
X400013Y64600D01*
X400986Y64197D01*
X402030Y64060D01*
X404030D01*
Y67594D01*
D02*
G37*
G36*
X220999D02*
X215030D01*
Y64060D01*
X217030D01*
X218074Y64197D01*
X219047Y64600D01*
X219883Y65242D01*
X220524Y66077D01*
X220927Y67050D01*
X220999Y67594D01*
D02*
G37*
G36*
X404030Y62129D02*
X402030D01*
X400986Y61992D01*
X400013Y61589D01*
X399177Y60947D01*
X398536Y60112D01*
X398133Y59139D01*
X398061Y58595D01*
X404030D01*
Y62129D01*
D02*
G37*
G36*
X273435Y56611D02*
X272714Y56467D01*
X272102Y56058D01*
X271892Y55744D01*
X260018D01*
X259809Y56058D01*
X259197Y56467D01*
X258475Y56611D01*
X257753Y56467D01*
X257141Y56058D01*
X256732Y55446D01*
X256589Y54724D01*
X256732Y54003D01*
X257141Y53391D01*
X257753Y52982D01*
X258475Y52838D01*
X259197Y52982D01*
X259809Y53391D01*
X260018Y53705D01*
X271892D01*
X272102Y53391D01*
X272714Y52982D01*
X273435Y52838D01*
X274157Y52982D01*
X274769Y53391D01*
X275178Y54003D01*
X275322Y54724D01*
X275178Y55446D01*
X274769Y56058D01*
X274157Y56467D01*
X273435Y56611D01*
D02*
G37*
G36*
X404030Y57595D02*
X398061D01*
X398133Y57050D01*
X398536Y56077D01*
X399177Y55242D01*
X400013Y54601D01*
X400986Y54198D01*
X402030Y54060D01*
X404030D01*
Y57595D01*
D02*
G37*
G36*
X304530Y51235D02*
X302474Y51073D01*
X300469Y50592D01*
X298564Y49803D01*
X296806Y48725D01*
X295238Y47386D01*
X293899Y45818D01*
X292822Y44060D01*
X292033Y42155D01*
X291551Y40150D01*
X291389Y38094D01*
X291551Y36039D01*
X292033Y34034D01*
X292822Y32129D01*
X293899Y30371D01*
X295238Y28803D01*
X296806Y27464D01*
X298564Y26386D01*
X300469Y25597D01*
X302474Y25116D01*
X304530Y24954D01*
X306586Y25116D01*
X308591Y25597D01*
X310496Y26386D01*
X312254Y27464D01*
X313822Y28803D01*
X315161Y30371D01*
X316238Y32129D01*
X317027Y34034D01*
X317509Y36039D01*
X317670Y38094D01*
X317509Y40150D01*
X317027Y42155D01*
X316238Y44060D01*
X315161Y45818D01*
X313822Y47386D01*
X312254Y48725D01*
X310496Y49803D01*
X308591Y50592D01*
X306586Y51073D01*
X304530Y51235D01*
D02*
G37*
G36*
X257687Y30233D02*
X256966Y30089D01*
X256354Y29680D01*
X255945Y29068D01*
X255801Y28346D01*
X255945Y27625D01*
X256354Y27013D01*
X256966Y26604D01*
X257687Y26460D01*
X258409Y26604D01*
X259021Y27013D01*
X259095Y27123D01*
X267417D01*
X268425Y26114D01*
X268400Y25984D01*
X268543Y25262D01*
X268952Y24651D01*
X269564Y24242D01*
X270286Y24098D01*
X271008Y24242D01*
X271620Y24651D01*
X272028Y25262D01*
X272172Y25984D01*
X272028Y26706D01*
X271620Y27318D01*
X271008Y27727D01*
X270286Y27871D01*
X270156Y27845D01*
X268789Y29212D01*
X268392Y29477D01*
X267924Y29570D01*
X259095D01*
X259021Y29680D01*
X258409Y30089D01*
X257687Y30233D01*
D02*
G37*
G36*
X288002Y22359D02*
X287281Y22215D01*
X287114Y22104D01*
X281017D01*
X280850Y22215D01*
X280128Y22359D01*
X279406Y22215D01*
X278795Y21806D01*
X278386Y21194D01*
X278242Y20472D01*
X278386Y19751D01*
X278795Y19139D01*
X279406Y18730D01*
X280128Y18586D01*
X280850Y18730D01*
X281017Y18841D01*
X287114D01*
X287281Y18730D01*
X288002Y18586D01*
X288724Y18730D01*
X289336Y19139D01*
X289745Y19751D01*
X289889Y20472D01*
X289745Y21194D01*
X289336Y21806D01*
X288724Y22215D01*
X288002Y22359D01*
D02*
G37*
G36*
X305030Y14563D02*
Y8595D01*
X308564D01*
Y10594D01*
X308427Y11639D01*
X308024Y12612D01*
X307383Y13447D01*
X306547Y14088D01*
X305574Y14492D01*
X305030Y14563D01*
D02*
G37*
G36*
X295030D02*
Y8595D01*
X298564D01*
Y10594D01*
X298427Y11639D01*
X298024Y12612D01*
X297383Y13447D01*
X296547Y14088D01*
X295574Y14492D01*
X295030Y14563D01*
D02*
G37*
G36*
X218530Y14594D02*
X215030D01*
Y8595D01*
X218530D01*
Y14594D01*
D02*
G37*
G36*
X304030Y14563D02*
X303486Y14492D01*
X302513Y14088D01*
X301677Y13447D01*
X301036Y12612D01*
X300633Y11639D01*
X300495Y10594D01*
Y8595D01*
X304030D01*
Y14563D01*
D02*
G37*
G36*
X294030D02*
X293486Y14492D01*
X292513Y14088D01*
X291677Y13447D01*
X291036Y12612D01*
X290633Y11639D01*
X290495Y10594D01*
Y8595D01*
X294030D01*
Y14563D01*
D02*
G37*
G36*
X197330Y222094D02*
X191330D01*
Y218595D01*
X197330D01*
Y222094D01*
D02*
G37*
G36*
Y217595D02*
X191330D01*
Y214094D01*
X197330D01*
Y217595D01*
D02*
G37*
G36*
X145082Y216045D02*
X144129Y215919D01*
X143240Y215551D01*
X142478Y214966D01*
X141893Y214204D01*
X141525Y213315D01*
X141399Y212362D01*
X141525Y211409D01*
X141893Y210521D01*
X142478Y209758D01*
X143240Y209173D01*
X144129Y208805D01*
X145082Y208680D01*
X146035Y208805D01*
X146923Y209173D01*
X147686Y209758D01*
X148271Y210521D01*
X148639Y211409D01*
X148765Y212362D01*
X148639Y213315D01*
X148271Y214204D01*
X147686Y214966D01*
X146923Y215551D01*
X146035Y215919D01*
X145082Y216045D01*
D02*
G37*
G36*
X135082D02*
X134129Y215919D01*
X133240Y215551D01*
X132478Y214966D01*
X131893Y214204D01*
X131525Y213315D01*
X131399Y212362D01*
X131525Y211409D01*
X131893Y210521D01*
X132478Y209758D01*
X133240Y209173D01*
X134129Y208805D01*
X135082Y208680D01*
X136035Y208805D01*
X136923Y209173D01*
X137686Y209758D01*
X138271Y210521D01*
X138639Y211409D01*
X138765Y212362D01*
X138639Y213315D01*
X138271Y214204D01*
X137686Y214966D01*
X136923Y215551D01*
X136035Y215919D01*
X135082Y216045D01*
D02*
G37*
G36*
X10330Y212129D02*
X8330D01*
Y208594D01*
X14299D01*
X14227Y209139D01*
X13824Y210112D01*
X13183Y210947D01*
X12347Y211589D01*
X11374Y211992D01*
X10330Y212129D01*
D02*
G37*
G36*
X14299Y207594D02*
X8330D01*
Y204060D01*
X10330D01*
X11374Y204198D01*
X12347Y204601D01*
X13183Y205242D01*
X13824Y206077D01*
X14227Y207050D01*
X14299Y207594D01*
D02*
G37*
G36*
X145082Y206045D02*
X144129Y205919D01*
X143240Y205552D01*
X142478Y204966D01*
X141893Y204204D01*
X141525Y203315D01*
X141399Y202362D01*
X141525Y201409D01*
X141893Y200521D01*
X142478Y199758D01*
X143240Y199173D01*
X144129Y198805D01*
X145082Y198679D01*
X146035Y198805D01*
X146923Y199173D01*
X147686Y199758D01*
X148271Y200521D01*
X148639Y201409D01*
X148765Y202362D01*
X148639Y203315D01*
X148271Y204204D01*
X147686Y204966D01*
X146923Y205552D01*
X146035Y205919D01*
X145082Y206045D01*
D02*
G37*
G36*
X135082D02*
X134129Y205919D01*
X133240Y205552D01*
X132478Y204966D01*
X131893Y204204D01*
X131525Y203315D01*
X131399Y202362D01*
X131525Y201409D01*
X131893Y200521D01*
X132478Y199758D01*
X133240Y199173D01*
X134129Y198805D01*
X135082Y198679D01*
X136035Y198805D01*
X136923Y199173D01*
X137686Y199758D01*
X138271Y200521D01*
X138639Y201409D01*
X138765Y202362D01*
X138639Y203315D01*
X138271Y204204D01*
X137686Y204966D01*
X136923Y205552D01*
X136035Y205919D01*
X135082Y206045D01*
D02*
G37*
G36*
X158861Y209760D02*
X158140Y209617D01*
X157528Y209208D01*
X157119Y208596D01*
X156975Y207874D01*
X157119Y207152D01*
X157230Y206986D01*
Y198133D01*
X157119Y197966D01*
X156975Y197244D01*
X157119Y196522D01*
X157528Y195910D01*
X158140Y195501D01*
X158861Y195358D01*
X159583Y195501D01*
X160195Y195910D01*
X160604Y196522D01*
X160748Y197244D01*
X160604Y197966D01*
X160493Y198133D01*
Y206986D01*
X160604Y207152D01*
X160748Y207874D01*
X160604Y208596D01*
X160195Y209208D01*
X159583Y209617D01*
X158861Y209760D01*
D02*
G37*
G36*
X148733Y196013D02*
X141431D01*
Y188711D01*
X148733D01*
Y196013D01*
D02*
G37*
G36*
X135082Y196045D02*
X134129Y195919D01*
X133240Y195552D01*
X132478Y194966D01*
X131893Y194204D01*
X131525Y193315D01*
X131399Y192362D01*
X131525Y191409D01*
X131893Y190521D01*
X132478Y189758D01*
X133240Y189173D01*
X134129Y188805D01*
X135082Y188680D01*
X136035Y188805D01*
X136923Y189173D01*
X137686Y189758D01*
X138271Y190521D01*
X138639Y191409D01*
X138765Y192362D01*
X138639Y193315D01*
X138271Y194204D01*
X137686Y194966D01*
X136923Y195552D01*
X136035Y195919D01*
X135082Y196045D01*
D02*
G37*
G36*
X197330Y192129D02*
X195330D01*
X194286Y191992D01*
X193313Y191588D01*
X192477Y190947D01*
X191836Y190112D01*
X191433Y189139D01*
X191361Y188594D01*
X197330D01*
Y192129D01*
D02*
G37*
G36*
X10330D02*
X8330D01*
Y188594D01*
X14299D01*
X14227Y189139D01*
X13824Y190112D01*
X13183Y190947D01*
X12347Y191588D01*
X11374Y191992D01*
X10330Y192129D01*
D02*
G37*
G36*
X197330Y187594D02*
X191361D01*
X191433Y187050D01*
X191836Y186077D01*
X192477Y185242D01*
X193313Y184600D01*
X194286Y184197D01*
X195330Y184060D01*
X197330D01*
Y187594D01*
D02*
G37*
G36*
X14299D02*
X8330D01*
Y184060D01*
X10330D01*
X11374Y184197D01*
X12347Y184600D01*
X13183Y185242D01*
X13824Y186077D01*
X14227Y187050D01*
X14299Y187594D01*
D02*
G37*
G36*
X55586Y173225D02*
X54864Y173081D01*
X54252Y172672D01*
X53843Y172060D01*
X53700Y171339D01*
X53843Y170617D01*
X54252Y170005D01*
X54864Y169596D01*
X55586Y169452D01*
X56308Y169596D01*
X56920Y170005D01*
X57328Y170617D01*
X57472Y171339D01*
X57328Y172060D01*
X56920Y172672D01*
X56308Y173081D01*
X55586Y173225D01*
D02*
G37*
G36*
X10330Y172129D02*
X8330D01*
Y168595D01*
X14299D01*
X14227Y169139D01*
X13824Y170112D01*
X13183Y170947D01*
X12347Y171589D01*
X11374Y171992D01*
X10330Y172129D01*
D02*
G37*
G36*
X14299Y167595D02*
X8330D01*
Y164060D01*
X10330D01*
X11374Y164198D01*
X12347Y164601D01*
X13183Y165242D01*
X13824Y166077D01*
X14227Y167050D01*
X14299Y167595D01*
D02*
G37*
G36*
X197330Y162129D02*
X195330D01*
X194286Y161992D01*
X193313Y161589D01*
X192477Y160947D01*
X191836Y160112D01*
X191433Y159139D01*
X191361Y158595D01*
X197330D01*
Y162129D01*
D02*
G37*
G36*
Y157595D02*
X191361D01*
X191433Y157050D01*
X191836Y156077D01*
X192477Y155242D01*
X193313Y154601D01*
X194286Y154198D01*
X195330Y154060D01*
X197330D01*
Y157595D01*
D02*
G37*
G36*
X129330Y163481D02*
X128608Y163337D01*
X127996Y162928D01*
X127587Y162316D01*
X127444Y161594D01*
X127587Y160873D01*
X127996Y160261D01*
X128208Y160119D01*
Y153835D01*
X128000Y153696D01*
X127591Y153084D01*
X127448Y152362D01*
X127591Y151640D01*
X128000Y151028D01*
X128612Y150620D01*
X129334Y150476D01*
X130056Y150620D01*
X130668Y151028D01*
X131077Y151640D01*
X131220Y152362D01*
X131077Y153084D01*
X130668Y153696D01*
X130452Y153840D01*
Y160119D01*
X130664Y160261D01*
X131073Y160873D01*
X131216Y161594D01*
X131073Y162316D01*
X130664Y162928D01*
X130052Y163337D01*
X129330Y163481D01*
D02*
G37*
G36*
X111830Y166481D02*
X111108Y166337D01*
X110496Y165928D01*
X110087Y165316D01*
X109944Y164594D01*
X110087Y163873D01*
X110319Y163526D01*
X107609Y160816D01*
X107388Y160485D01*
X107310Y160094D01*
Y155256D01*
X107388Y154866D01*
X107609Y154535D01*
X109017Y153127D01*
X108944Y152756D01*
X109087Y152034D01*
X109496Y151422D01*
X110108Y151013D01*
X110830Y150870D01*
X110983Y150900D01*
X111336Y150547D01*
X111306Y150394D01*
X111450Y149672D01*
X111858Y149060D01*
X112470Y148651D01*
X113192Y148507D01*
X113914Y148651D01*
X114526Y149060D01*
X114935Y149672D01*
X115078Y150394D01*
X114935Y151116D01*
X114526Y151727D01*
X113914Y152136D01*
X113898Y152140D01*
Y153647D01*
X113828Y153998D01*
X113629Y154295D01*
X112748Y155177D01*
Y158483D01*
X113164Y158761D01*
X113573Y159373D01*
X113716Y160094D01*
X113573Y160816D01*
X113164Y161428D01*
X112552Y161837D01*
X112276Y161892D01*
X112112Y162434D01*
X112524Y162846D01*
X112552Y162852D01*
X113164Y163261D01*
X113573Y163873D01*
X113716Y164594D01*
X113573Y165316D01*
X113164Y165928D01*
X112552Y166337D01*
X111830Y166481D01*
D02*
G37*
G36*
X116830Y159981D02*
X116108Y159837D01*
X115496Y159428D01*
X115087Y158816D01*
X114944Y158095D01*
X115087Y157373D01*
X115496Y156761D01*
X116108Y156352D01*
X116830Y156208D01*
X116904Y156223D01*
X122117Y151010D01*
Y147675D01*
X121701Y147397D01*
X121292Y146785D01*
X121148Y146063D01*
X121292Y145341D01*
X121701Y144729D01*
X122313Y144320D01*
X123035Y144177D01*
X123757Y144320D01*
X124368Y144729D01*
X124777Y145341D01*
X124921Y146063D01*
X124777Y146785D01*
X124368Y147397D01*
X123952Y147675D01*
Y151390D01*
X123882Y151741D01*
X123684Y152039D01*
X118483Y157239D01*
X118573Y157373D01*
X118716Y158095D01*
X118573Y158816D01*
X118164Y159428D01*
X117552Y159837D01*
X116830Y159981D01*
D02*
G37*
G36*
X117830Y194481D02*
X117108Y194337D01*
X116496Y193928D01*
X99996Y177428D01*
X99587Y176816D01*
X99444Y176094D01*
Y147876D01*
X95049Y143481D01*
X86330D01*
X85608Y143337D01*
X84996Y142928D01*
X84587Y142316D01*
X84444Y141595D01*
X84587Y140873D01*
X84996Y140261D01*
X85608Y139852D01*
X86330Y139708D01*
X95830D01*
X96552Y139852D01*
X97164Y140261D01*
X102664Y145761D01*
X103073Y146373D01*
X103216Y147095D01*
Y175313D01*
X119164Y191261D01*
X119573Y191873D01*
X119716Y192595D01*
X119573Y193316D01*
X119164Y193928D01*
X118552Y194337D01*
X117830Y194481D01*
D02*
G37*
G36*
X197330Y142129D02*
X195330D01*
X194286Y141992D01*
X193313Y141588D01*
X192477Y140947D01*
X191836Y140112D01*
X191433Y139139D01*
X191361Y138594D01*
X197330D01*
Y142129D01*
D02*
G37*
G36*
X58468Y135745D02*
X57746Y135601D01*
X57579Y135490D01*
X52663D01*
X52497Y135601D01*
X51775Y135745D01*
X51053Y135601D01*
X50441Y135192D01*
X50032Y134580D01*
X49889Y133858D01*
X50032Y133136D01*
X50441Y132525D01*
X51053Y132116D01*
X51775Y131972D01*
X52497Y132116D01*
X52663Y132227D01*
X57579D01*
X57746Y132116D01*
X58468Y131972D01*
X59189Y132116D01*
X59802Y132525D01*
X60210Y133136D01*
X60354Y133858D01*
X60210Y134580D01*
X59802Y135192D01*
X59189Y135601D01*
X58468Y135745D01*
D02*
G37*
G36*
X197330Y137594D02*
X191361D01*
X191433Y137050D01*
X191836Y136077D01*
X192477Y135242D01*
X193313Y134600D01*
X194286Y134197D01*
X195330Y134060D01*
X197330D01*
Y137594D01*
D02*
G37*
G36*
X127759Y132201D02*
X127037Y132058D01*
X126425Y131649D01*
X126352Y131538D01*
X117356D01*
X117282Y131649D01*
X116670Y132058D01*
X115948Y132201D01*
X115226Y132058D01*
X114614Y131649D01*
X114205Y131037D01*
X114062Y130315D01*
X114205Y129593D01*
X114614Y128981D01*
X115226Y128572D01*
X115948Y128429D01*
X116670Y128572D01*
X117282Y128981D01*
X117356Y129092D01*
X126352D01*
X126425Y128981D01*
X127037Y128572D01*
X127759Y128429D01*
X128481Y128572D01*
X129093Y128981D01*
X129502Y129593D01*
X129645Y130315D01*
X129502Y131037D01*
X129093Y131649D01*
X128481Y132058D01*
X127759Y132201D01*
D02*
G37*
G36*
X197330Y132129D02*
X195330D01*
X194286Y131992D01*
X193313Y131588D01*
X192477Y130947D01*
X191836Y130112D01*
X191433Y129139D01*
X191361Y128595D01*
X197330D01*
Y132129D01*
D02*
G37*
G36*
X148086Y130725D02*
X147364Y130581D01*
X146752Y130172D01*
X146343Y129560D01*
X146200Y128839D01*
X146343Y128117D01*
X146752Y127505D01*
X147364Y127096D01*
X148086Y126952D01*
X148808Y127096D01*
X149420Y127505D01*
X149829Y128117D01*
X149972Y128839D01*
X149829Y129560D01*
X149420Y130172D01*
X148808Y130581D01*
X148086Y130725D01*
D02*
G37*
G36*
X160436Y129839D02*
X159714Y129695D01*
X159102Y129287D01*
X158694Y128675D01*
X158550Y127953D01*
X158694Y127231D01*
X159102Y126619D01*
X159714Y126210D01*
X160077Y126138D01*
X160206Y126052D01*
X160830Y125928D01*
X170178D01*
X170344Y125816D01*
X171066Y125673D01*
X171788Y125816D01*
X172400Y126225D01*
X172809Y126837D01*
X172952Y127559D01*
X172809Y128281D01*
X172400Y128893D01*
X171788Y129302D01*
X171066Y129445D01*
X170344Y129302D01*
X170178Y129190D01*
X161834D01*
X161770Y129287D01*
X161158Y129695D01*
X160436Y129839D01*
D02*
G37*
G36*
X197330Y127594D02*
X191361D01*
X191433Y127050D01*
X191836Y126077D01*
X192477Y125242D01*
X193313Y124601D01*
X194286Y124197D01*
X195330Y124060D01*
X197330D01*
Y127594D01*
D02*
G37*
G36*
X104924Y127871D02*
X104203Y127727D01*
X103591Y127318D01*
X103182Y126706D01*
X103038Y125984D01*
X103182Y125262D01*
X103591Y124651D01*
X104203Y124242D01*
X104924Y124098D01*
X105415Y124196D01*
X108648Y120963D01*
X108550Y120473D01*
X108694Y119751D01*
X109102Y119139D01*
X109714Y118730D01*
X110436Y118586D01*
X111158Y118730D01*
X111770Y119139D01*
X112179Y119751D01*
X112322Y120473D01*
X112179Y121194D01*
X111770Y121806D01*
X111158Y122215D01*
X110436Y122359D01*
X109945Y122261D01*
X106713Y125493D01*
X106811Y125984D01*
X106667Y126706D01*
X106258Y127318D01*
X105646Y127727D01*
X104924Y127871D01*
D02*
G37*
G36*
X124609Y123933D02*
X123888Y123790D01*
X123276Y123381D01*
X122867Y122769D01*
X122723Y122047D01*
X122867Y121325D01*
X123276Y120713D01*
X123590Y120504D01*
Y119320D01*
X121043Y116773D01*
X120672Y116847D01*
X119951Y116703D01*
X119339Y116294D01*
X118930Y115682D01*
X118786Y114961D01*
X118930Y114239D01*
X119339Y113627D01*
X119951Y113218D01*
X120672Y113074D01*
X121394Y113218D01*
X122006Y113627D01*
X122415Y114239D01*
X122559Y114961D01*
X122485Y115331D01*
X125330Y118177D01*
X125551Y118508D01*
X125629Y118898D01*
Y120504D01*
X125943Y120713D01*
X126352Y121325D01*
X126496Y122047D01*
X126352Y122769D01*
X125943Y123381D01*
X125331Y123790D01*
X124609Y123933D01*
D02*
G37*
G36*
X62011Y124327D02*
X61289Y124184D01*
X60677Y123775D01*
X60268Y123163D01*
X60125Y122441D01*
X60268Y121719D01*
X60677Y121107D01*
X61289Y120698D01*
X61486Y120659D01*
X69913Y112232D01*
X70442Y111879D01*
X70922Y111783D01*
X71132Y111643D01*
X71854Y111500D01*
X72575Y111643D01*
X73187Y112052D01*
X73596Y112664D01*
X73740Y113386D01*
X73596Y114108D01*
X73187Y114720D01*
X72575Y115129D01*
X71854Y115272D01*
X71548Y115211D01*
X63793Y122966D01*
X63754Y123163D01*
X63345Y123775D01*
X62733Y124184D01*
X62011Y124327D01*
D02*
G37*
G36*
X53830Y119481D02*
X53108Y119337D01*
X52496Y118928D01*
X52087Y118316D01*
X51944Y117595D01*
X52087Y116873D01*
X52496Y116261D01*
X53108Y115852D01*
X53830Y115708D01*
X54201Y115782D01*
X63706Y106276D01*
X63633Y105905D01*
X63776Y105184D01*
X64185Y104572D01*
X64797Y104163D01*
X65519Y104019D01*
X66241Y104163D01*
X66853Y104572D01*
X67261Y105184D01*
X67405Y105905D01*
X67261Y106627D01*
X66853Y107239D01*
X66241Y107648D01*
X65519Y107792D01*
X65148Y107718D01*
X55642Y117224D01*
X55716Y117595D01*
X55573Y118316D01*
X55164Y118928D01*
X54552Y119337D01*
X53830Y119481D01*
D02*
G37*
G36*
X65948Y100705D02*
X65226Y100562D01*
X64614Y100153D01*
X64541Y100042D01*
X54363D01*
X54290Y100153D01*
X53678Y100562D01*
X52956Y100705D01*
X52234Y100562D01*
X51622Y100153D01*
X51213Y99541D01*
X51070Y98819D01*
X51213Y98097D01*
X51622Y97485D01*
X52234Y97076D01*
X52956Y96933D01*
X53678Y97076D01*
X54290Y97485D01*
X54363Y97595D01*
X64541D01*
X64614Y97485D01*
X65226Y97076D01*
X65948Y96933D01*
X66670Y97076D01*
X67282Y97485D01*
X67691Y98097D01*
X67834Y98819D01*
X67691Y99541D01*
X67282Y100153D01*
X66670Y100562D01*
X65948Y100705D01*
D02*
G37*
G36*
X171460Y91650D02*
X170738Y91506D01*
X170126Y91098D01*
X169717Y90486D01*
X169574Y89764D01*
X169717Y89042D01*
X170126Y88430D01*
X170738Y88021D01*
X171100Y87949D01*
X171229Y87863D01*
X171853Y87739D01*
X182776D01*
X182943Y87627D01*
X183665Y87484D01*
X184386Y87627D01*
X184998Y88036D01*
X185407Y88648D01*
X185551Y89370D01*
X185407Y90092D01*
X184998Y90704D01*
X184386Y91113D01*
X183665Y91256D01*
X182943Y91113D01*
X182776Y91001D01*
X172858D01*
X172794Y91098D01*
X172182Y91506D01*
X171460Y91650D01*
D02*
G37*
G36*
X114373Y94012D02*
X113651Y93869D01*
X113040Y93460D01*
X112631Y92848D01*
X112487Y92126D01*
X112631Y91404D01*
X113040Y90792D01*
X113354Y90582D01*
Y86583D01*
X113040Y86373D01*
X112631Y85761D01*
X112487Y85039D01*
X112631Y84318D01*
X113040Y83706D01*
X113651Y83297D01*
X114373Y83153D01*
X115095Y83297D01*
X115707Y83706D01*
X116116Y84318D01*
X116260Y85039D01*
X116116Y85761D01*
X115707Y86373D01*
X115393Y86583D01*
Y90582D01*
X115707Y90792D01*
X116116Y91404D01*
X116260Y92126D01*
X116116Y92848D01*
X115707Y93460D01*
X115095Y93869D01*
X114373Y94012D01*
D02*
G37*
G36*
X10330Y82129D02*
X8330D01*
Y78594D01*
X14299D01*
X14227Y79139D01*
X13824Y80112D01*
X13183Y80947D01*
X12347Y81589D01*
X11374Y81991D01*
X10330Y82129D01*
D02*
G37*
G36*
X123035Y90469D02*
X122313Y90325D01*
X121701Y89916D01*
X121292Y89305D01*
X121148Y88583D01*
X121292Y87861D01*
X121701Y87249D01*
X122015Y87039D01*
Y77528D01*
X121701Y77318D01*
X121292Y76706D01*
X121148Y75984D01*
X121292Y75262D01*
X121701Y74651D01*
X122313Y74242D01*
X123035Y74098D01*
X123757Y74242D01*
X124368Y74651D01*
X124777Y75262D01*
X124921Y75984D01*
X124777Y76706D01*
X124368Y77318D01*
X124054Y77528D01*
Y87039D01*
X124368Y87249D01*
X124777Y87861D01*
X124921Y88583D01*
X124777Y89305D01*
X124368Y89916D01*
X123757Y90325D01*
X123035Y90469D01*
D02*
G37*
G36*
X14299Y77595D02*
X8330D01*
Y74060D01*
X10330D01*
X11374Y74198D01*
X12347Y74600D01*
X13183Y75242D01*
X13824Y76077D01*
X14227Y77050D01*
X14299Y77595D01*
D02*
G37*
G36*
X109649Y94012D02*
X108927Y93869D01*
X108315Y93460D01*
X107906Y92848D01*
X107763Y92126D01*
X107906Y91404D01*
X108315Y90792D01*
X108731Y90514D01*
Y75197D01*
X108801Y74846D01*
X109000Y74548D01*
X110306Y73242D01*
Y72478D01*
X109890Y72200D01*
X109481Y71588D01*
X109337Y70866D01*
X109481Y70144D01*
X109890Y69532D01*
X110502Y69124D01*
X111224Y68980D01*
X111945Y69124D01*
X112557Y69532D01*
X112966Y70144D01*
X113110Y70866D01*
X112966Y71588D01*
X112557Y72200D01*
X112141Y72478D01*
Y73622D01*
X112071Y73973D01*
X111872Y74271D01*
X110566Y75577D01*
Y90514D01*
X110983Y90792D01*
X111391Y91404D01*
X111535Y92126D01*
X111391Y92848D01*
X110983Y93460D01*
X110371Y93869D01*
X109649Y94012D01*
D02*
G37*
G36*
X197330Y72129D02*
X195330D01*
X194286Y71991D01*
X193313Y71588D01*
X192477Y70947D01*
X191836Y70112D01*
X191433Y69139D01*
X191361Y68594D01*
X197330D01*
Y72129D01*
D02*
G37*
G36*
X10330D02*
X8330D01*
Y68594D01*
X14299D01*
X14227Y69139D01*
X13824Y70112D01*
X13183Y70947D01*
X12347Y71588D01*
X11374Y71991D01*
X10330Y72129D01*
D02*
G37*
G36*
X197330Y67594D02*
X191361D01*
X191433Y67050D01*
X191836Y66077D01*
X192477Y65242D01*
X193313Y64600D01*
X194286Y64197D01*
X195330Y64060D01*
X197330D01*
Y67594D01*
D02*
G37*
G36*
X14299D02*
X8330D01*
Y64060D01*
X10330D01*
X11374Y64197D01*
X12347Y64600D01*
X13183Y65242D01*
X13824Y66077D01*
X14227Y67050D01*
X14299Y67594D01*
D02*
G37*
G36*
X197330Y62129D02*
X195330D01*
X194286Y61992D01*
X193313Y61589D01*
X192477Y60947D01*
X191836Y60112D01*
X191433Y59139D01*
X191361Y58595D01*
X197330D01*
Y62129D01*
D02*
G37*
G36*
X66735Y56611D02*
X66014Y56467D01*
X65402Y56058D01*
X65192Y55744D01*
X53319D01*
X53109Y56058D01*
X52497Y56467D01*
X51775Y56611D01*
X51053Y56467D01*
X50441Y56058D01*
X50032Y55446D01*
X49889Y54724D01*
X50032Y54003D01*
X50441Y53391D01*
X51053Y52982D01*
X51775Y52838D01*
X52497Y52982D01*
X53109Y53391D01*
X53319Y53705D01*
X65192D01*
X65402Y53391D01*
X66014Y52982D01*
X66735Y52838D01*
X67457Y52982D01*
X68069Y53391D01*
X68478Y54003D01*
X68622Y54724D01*
X68478Y55446D01*
X68069Y56058D01*
X67457Y56467D01*
X66735Y56611D01*
D02*
G37*
G36*
X197330Y57595D02*
X191361D01*
X191433Y57050D01*
X191836Y56077D01*
X192477Y55242D01*
X193313Y54601D01*
X194286Y54198D01*
X195330Y54060D01*
X197330D01*
Y57595D01*
D02*
G37*
G36*
X97830Y51235D02*
X95774Y51073D01*
X93769Y50592D01*
X91864Y49803D01*
X90106Y48725D01*
X88538Y47386D01*
X87199Y45818D01*
X86122Y44060D01*
X85333Y42155D01*
X84851Y40150D01*
X84689Y38094D01*
X84851Y36039D01*
X85333Y34034D01*
X86122Y32129D01*
X87199Y30371D01*
X88538Y28803D01*
X90106Y27464D01*
X91864Y26386D01*
X93769Y25597D01*
X95774Y25116D01*
X97830Y24954D01*
X99885Y25116D01*
X101891Y25597D01*
X103796Y26386D01*
X105554Y27464D01*
X107122Y28803D01*
X108461Y30371D01*
X109538Y32129D01*
X110327Y34034D01*
X110809Y36039D01*
X110970Y38094D01*
X110809Y40150D01*
X110327Y42155D01*
X109538Y44060D01*
X108461Y45818D01*
X107122Y47386D01*
X105554Y48725D01*
X103796Y49803D01*
X101891Y50592D01*
X99885Y51073D01*
X97830Y51235D01*
D02*
G37*
G36*
X50987Y30233D02*
X50266Y30089D01*
X49654Y29680D01*
X49245Y29068D01*
X49101Y28346D01*
X49245Y27625D01*
X49654Y27013D01*
X50266Y26604D01*
X50987Y26460D01*
X51709Y26604D01*
X52321Y27013D01*
X52395Y27123D01*
X60717D01*
X61725Y26114D01*
X61700Y25984D01*
X61843Y25262D01*
X62252Y24651D01*
X62864Y24242D01*
X63586Y24098D01*
X64308Y24242D01*
X64920Y24651D01*
X65329Y25262D01*
X65472Y25984D01*
X65329Y26706D01*
X64920Y27318D01*
X64308Y27727D01*
X63586Y27871D01*
X63456Y27845D01*
X62089Y29212D01*
X61692Y29477D01*
X61224Y29570D01*
X52395D01*
X52321Y29680D01*
X51709Y30089D01*
X50987Y30233D01*
D02*
G37*
G36*
X81302Y22359D02*
X80581Y22215D01*
X80414Y22104D01*
X74317D01*
X74150Y22215D01*
X73428Y22359D01*
X72707Y22215D01*
X72095Y21806D01*
X71686Y21194D01*
X71542Y20472D01*
X71686Y19751D01*
X72095Y19139D01*
X72707Y18730D01*
X73428Y18586D01*
X74150Y18730D01*
X74317Y18841D01*
X80414D01*
X80581Y18730D01*
X81302Y18586D01*
X82024Y18730D01*
X82636Y19139D01*
X83045Y19751D01*
X83189Y20472D01*
X83045Y21194D01*
X82636Y21806D01*
X82024Y22215D01*
X81302Y22359D01*
D02*
G37*
G36*
X98330Y14563D02*
Y8595D01*
X101864D01*
Y10594D01*
X101727Y11639D01*
X101324Y12612D01*
X100683Y13447D01*
X99847Y14088D01*
X98874Y14492D01*
X98330Y14563D01*
D02*
G37*
G36*
X88330D02*
Y8595D01*
X91864D01*
Y10594D01*
X91727Y11639D01*
X91324Y12612D01*
X90683Y13447D01*
X89847Y14088D01*
X88874Y14492D01*
X88330Y14563D01*
D02*
G37*
G36*
X11830Y14594D02*
X8330D01*
Y8595D01*
X11830D01*
Y14594D01*
D02*
G37*
G36*
X97330Y14563D02*
X96786Y14492D01*
X95813Y14088D01*
X94977Y13447D01*
X94336Y12612D01*
X93933Y11639D01*
X93795Y10594D01*
Y8595D01*
X97330D01*
Y14563D01*
D02*
G37*
G36*
X87330D02*
X86786Y14492D01*
X85813Y14088D01*
X84977Y13447D01*
X84336Y12612D01*
X83933Y11639D01*
X83795Y10594D01*
Y8595D01*
X87330D01*
Y14563D01*
D02*
G37*
%LPD*%
D21*
X158861Y197244D02*
Y207874D01*
X73428Y20472D02*
X81302D01*
X51775Y133858D02*
X58468D01*
X160436Y127953D02*
X160830Y127559D01*
X171066D01*
X171460Y89764D02*
X171853Y89370D01*
X183665D01*
X78330Y189094D02*
X78586Y188839D01*
X91086D01*
X62011Y122441D02*
X71066Y113386D01*
X71854D01*
X365561Y197244D02*
Y207874D01*
X280128Y20472D02*
X288002D01*
X258475Y133858D02*
X265168D01*
X367136Y127953D02*
X367530Y127559D01*
X377766D01*
X378160Y89764D02*
X378554Y89370D01*
X390365D01*
X285030Y189094D02*
X285286Y188839D01*
X297786D01*
X268711Y122441D02*
X277766Y113386D01*
X278554D01*
X158861Y451444D02*
Y462074D01*
X73428Y274672D02*
X81302D01*
X51775Y388058D02*
X58468D01*
X160436Y382153D02*
X160830Y381759D01*
X171066D01*
X171460Y343964D02*
X171853Y343570D01*
X183665D01*
X78330Y443294D02*
X78586Y443039D01*
X91086D01*
X62011Y376641D02*
X71066Y367586D01*
X71854D01*
X365561Y451444D02*
Y462074D01*
X280128Y274672D02*
X288002D01*
X258475Y388058D02*
X265168D01*
X367136Y382153D02*
X367530Y381759D01*
X377766D01*
X378160Y343964D02*
X378554Y343570D01*
X390365D01*
X285030Y443294D02*
X285286Y443039D01*
X297786D01*
X268711Y376641D02*
X277766Y367586D01*
X278554D01*
D22*
X101330Y176094D02*
X117830Y192595D01*
X101330Y147095D02*
Y176094D01*
X95830Y141595D02*
X101330Y147095D01*
X86330Y141595D02*
X95830D01*
X308030Y176094D02*
X324530Y192595D01*
X308030Y147095D02*
Y176094D01*
X302530Y141595D02*
X308030Y147095D01*
X293030Y141595D02*
X302530D01*
X101330Y430295D02*
X117830Y446795D01*
X101330Y401295D02*
Y430295D01*
X95830Y395795D02*
X101330Y401295D01*
X86330Y395795D02*
X95830D01*
X308030Y430295D02*
X324530Y446795D01*
X308030Y401295D02*
Y430295D01*
X302530Y395795D02*
X308030Y401295D01*
X293030Y395795D02*
X302530D01*
D23*
X71905Y130020D02*
X92755D01*
X95005Y127770D02*
X95330Y128094D01*
X111830Y163594D02*
Y164594D01*
X91823Y127770D02*
X95005D01*
X91498Y128094D02*
X91823Y127770D01*
X7830Y128094D02*
X91498D01*
X108330Y160094D02*
X111830Y163594D01*
X25003Y138189D02*
X63735D01*
X71905Y130020D01*
X65519Y105905D02*
X65537Y105888D01*
X53830Y117595D02*
X65519Y105905D01*
X114373Y85039D02*
Y92126D01*
X123035Y75984D02*
Y88583D01*
X108330Y155256D02*
Y160094D01*
Y155256D02*
X110830Y152756D01*
X51775Y54724D02*
X66735D01*
X7830Y58095D02*
X28767D01*
X34452Y63779D01*
X120672Y114961D02*
X124609Y118898D01*
Y122047D01*
X278605Y130020D02*
X299455D01*
X301705Y127770D02*
X302030Y128094D01*
X318530Y163594D02*
Y164594D01*
X298523Y127770D02*
X301705D01*
X298198Y128094D02*
X298523Y127770D01*
X214530Y128094D02*
X298198D01*
X315030Y160094D02*
X318530Y163594D01*
X231703Y138189D02*
X270435D01*
X278605Y130020D01*
X272219Y105905D02*
X272237Y105888D01*
X260530Y117595D02*
X272219Y105905D01*
X321073Y85039D02*
Y92126D01*
X329735Y75984D02*
Y88583D01*
X315030Y155256D02*
Y160094D01*
Y155256D02*
X317530Y152756D01*
X258475Y54724D02*
X273435D01*
X214530Y58095D02*
X235467D01*
X241152Y63779D01*
X327372Y114961D02*
X331309Y118898D01*
Y122047D01*
X71905Y384220D02*
X92755D01*
X95005Y381970D02*
X95330Y382295D01*
X111830Y417795D02*
Y418794D01*
X91823Y381970D02*
X95005D01*
X91498Y382295D02*
X91823Y381970D01*
X7830Y382295D02*
X91498D01*
X108330Y414294D02*
X111830Y417795D01*
X25003Y392389D02*
X63735D01*
X71905Y384220D01*
X65519Y360105D02*
X65537Y360088D01*
X53830Y371795D02*
X65519Y360105D01*
X114373Y339239D02*
Y346326D01*
X123035Y330184D02*
Y342783D01*
X108330Y409456D02*
Y414294D01*
Y409456D02*
X110830Y406956D01*
X51775Y308924D02*
X66735D01*
X7830Y312295D02*
X28767D01*
X34452Y317980D01*
X120672Y369161D02*
X124609Y373098D01*
Y376247D01*
X278605Y384220D02*
X299455D01*
X301705Y381970D02*
X302030Y382295D01*
X318530Y417795D02*
Y418794D01*
X298523Y381970D02*
X301705D01*
X298198Y382295D02*
X298523Y381970D01*
X214530Y382295D02*
X298198D01*
X315030Y414294D02*
X318530Y417795D01*
X231703Y392389D02*
X270435D01*
X278605Y384220D01*
X272219Y360105D02*
X272237Y360088D01*
X260530Y371795D02*
X272219Y360105D01*
X321073Y339239D02*
Y346326D01*
X329735Y330184D02*
Y342783D01*
X315030Y409456D02*
Y414294D01*
Y409456D02*
X317530Y406956D01*
X258475Y308924D02*
X273435D01*
X214530Y312295D02*
X235467D01*
X241152Y317980D01*
X327372Y369161D02*
X331309Y373098D01*
Y376247D01*
D24*
X61224Y28346D02*
X63586Y25984D01*
X50987Y28346D02*
X61224D01*
X52956Y98819D02*
X65948D01*
X115948Y130315D02*
X127759D01*
X267924Y28346D02*
X270286Y25984D01*
X257687Y28346D02*
X267924D01*
X259656Y98819D02*
X272648D01*
X322648Y130315D02*
X334459D01*
X61224Y282546D02*
X63586Y280184D01*
X50987Y282546D02*
X61224D01*
X52956Y353019D02*
X65948D01*
X115948Y384515D02*
X127759D01*
X267924Y282546D02*
X270286Y280184D01*
X257687Y282546D02*
X267924D01*
X259656Y353019D02*
X272648D01*
X322648Y384515D02*
X334459D01*
D25*
X92330Y182095D02*
Y185094D01*
X89330Y179095D02*
X92330Y182095D01*
X87111Y179095D02*
X89330D01*
X86911Y178894D02*
X87111Y179095D01*
X43630Y178894D02*
X86911D01*
X12830Y148094D02*
X43630Y178894D01*
X7830Y148094D02*
X12830D01*
X86414Y180095D02*
X89680Y183361D01*
X42830Y180095D02*
X86414D01*
X20830Y158095D02*
X42830Y180095D01*
X7830Y158095D02*
X20830D01*
X116830Y157595D02*
Y158095D01*
X28546Y8811D02*
Y16142D01*
X27830Y8095D02*
X28546Y8811D01*
X33271Y20866D02*
X52169D01*
X28546Y16142D02*
X33271Y20866D01*
X56893Y18898D02*
X61617D01*
X55318Y17323D02*
X56893Y18898D01*
X42326Y17323D02*
X55318D01*
X41932Y17717D02*
X42326Y17323D01*
X38389Y17717D02*
X41932D01*
X37995Y17323D02*
X38389Y17717D01*
X37995Y8260D02*
Y17323D01*
X37830Y8095D02*
X37995Y8260D01*
X123035Y146063D02*
Y151390D01*
X116830Y157595D02*
X123035Y151390D01*
X111830Y154797D02*
Y160094D01*
Y154797D02*
X112980Y153647D01*
Y150606D02*
Y153647D01*
Y150606D02*
X113192Y150394D01*
X104924Y125984D02*
X110436Y120473D01*
X109649Y75197D02*
Y92126D01*
Y75197D02*
X111224Y73622D01*
Y70866D02*
Y73622D01*
X141145Y24016D02*
X147830Y17331D01*
Y8095D02*
Y17331D01*
X25003Y19685D02*
X28546Y16142D01*
X25003Y19685D02*
Y27953D01*
X20279Y32677D02*
X25003Y27953D01*
X19885Y32677D02*
X20279D01*
X299030Y182095D02*
Y185094D01*
X296030Y179095D02*
X299030Y182095D01*
X293811Y179095D02*
X296030D01*
X293611Y178894D02*
X293811Y179095D01*
X250330Y178894D02*
X293611D01*
X219530Y148094D02*
X250330Y178894D01*
X214530Y148094D02*
X219530D01*
X293114Y180095D02*
X296380Y183361D01*
X249530Y180095D02*
X293114D01*
X227530Y158095D02*
X249530Y180095D01*
X214530Y158095D02*
X227530D01*
X323530Y157595D02*
Y158095D01*
X235246Y8811D02*
Y16142D01*
X234530Y8095D02*
X235246Y8811D01*
X239971Y20866D02*
X258869D01*
X235246Y16142D02*
X239971Y20866D01*
X263593Y18898D02*
X268317D01*
X262018Y17323D02*
X263593Y18898D01*
X249026Y17323D02*
X262018D01*
X248632Y17717D02*
X249026Y17323D01*
X245089Y17717D02*
X248632D01*
X244695Y17323D02*
X245089Y17717D01*
X244695Y8260D02*
Y17323D01*
X244530Y8095D02*
X244695Y8260D01*
X329735Y146063D02*
Y151390D01*
X323530Y157595D02*
X329735Y151390D01*
X318530Y154797D02*
Y160094D01*
Y154797D02*
X319680Y153647D01*
Y150606D02*
Y153647D01*
Y150606D02*
X319892Y150394D01*
X311624Y125984D02*
X317136Y120473D01*
X316349Y75197D02*
Y92126D01*
Y75197D02*
X317924Y73622D01*
Y70866D02*
Y73622D01*
X347845Y24016D02*
X354530Y17331D01*
Y8095D02*
Y17331D01*
X231703Y19685D02*
X235246Y16142D01*
X231703Y19685D02*
Y27953D01*
X226979Y32677D02*
X231703Y27953D01*
X226585Y32677D02*
X226979D01*
X92330Y436295D02*
Y439294D01*
X89330Y433294D02*
X92330Y436295D01*
X87111Y433294D02*
X89330D01*
X86911Y433095D02*
X87111Y433294D01*
X43630Y433095D02*
X86911D01*
X12830Y402294D02*
X43630Y433095D01*
X7830Y402294D02*
X12830D01*
X86414Y434295D02*
X89680Y437561D01*
X42830Y434295D02*
X86414D01*
X20830Y412294D02*
X42830Y434295D01*
X7830Y412294D02*
X20830D01*
X116830Y411795D02*
Y412294D01*
X28546Y263011D02*
Y270342D01*
X27830Y262295D02*
X28546Y263011D01*
X33271Y275066D02*
X52169D01*
X28546Y270342D02*
X33271Y275066D01*
X56893Y273098D02*
X61617D01*
X55318Y271523D02*
X56893Y273098D01*
X42326Y271523D02*
X55318D01*
X41932Y271917D02*
X42326Y271523D01*
X38389Y271917D02*
X41932D01*
X37995Y271523D02*
X38389Y271917D01*
X37995Y262460D02*
Y271523D01*
X37830Y262295D02*
X37995Y262460D01*
X123035Y400263D02*
Y405590D01*
X116830Y411795D02*
X123035Y405590D01*
X111830Y408996D02*
Y414294D01*
Y408996D02*
X112980Y407846D01*
Y404806D02*
Y407846D01*
Y404806D02*
X113192Y404594D01*
X104924Y380184D02*
X110436Y374672D01*
X109649Y329397D02*
Y346326D01*
Y329397D02*
X111224Y327822D01*
Y325066D02*
Y327822D01*
X141145Y278216D02*
X147830Y271531D01*
Y262295D02*
Y271531D01*
X25003Y273885D02*
X28546Y270342D01*
X25003Y273885D02*
Y282153D01*
X20279Y286877D02*
X25003Y282153D01*
X19885Y286877D02*
X20279D01*
X299030Y436295D02*
Y439294D01*
X296030Y433294D02*
X299030Y436295D01*
X293811Y433294D02*
X296030D01*
X293611Y433095D02*
X293811Y433294D01*
X250330Y433095D02*
X293611D01*
X219530Y402294D02*
X250330Y433095D01*
X214530Y402294D02*
X219530D01*
X293114Y434295D02*
X296380Y437561D01*
X249530Y434295D02*
X293114D01*
X227530Y412294D02*
X249530Y434295D01*
X214530Y412294D02*
X227530D01*
X323530Y411795D02*
Y412294D01*
X235246Y263011D02*
Y270342D01*
X234530Y262295D02*
X235246Y263011D01*
X239971Y275066D02*
X258869D01*
X235246Y270342D02*
X239971Y275066D01*
X263593Y273098D02*
X268317D01*
X262018Y271523D02*
X263593Y273098D01*
X249026Y271523D02*
X262018D01*
X248632Y271917D02*
X249026Y271523D01*
X245089Y271917D02*
X248632D01*
X244695Y271523D02*
X245089Y271917D01*
X244695Y262460D02*
Y271523D01*
X244530Y262295D02*
X244695Y262460D01*
X329735Y400263D02*
Y405590D01*
X323530Y411795D02*
X329735Y405590D01*
X318530Y408996D02*
Y414294D01*
Y408996D02*
X319680Y407846D01*
Y404806D02*
Y407846D01*
Y404806D02*
X319892Y404594D01*
X311624Y380184D02*
X317136Y374672D01*
X316349Y329397D02*
Y346326D01*
Y329397D02*
X317924Y327822D01*
Y325066D02*
Y327822D01*
X347845Y278216D02*
X354530Y271531D01*
Y262295D02*
Y271531D01*
X231703Y273885D02*
X235246Y270342D01*
X231703Y273885D02*
Y282153D01*
X226979Y286877D02*
X231703Y282153D01*
X226585Y286877D02*
X226979D01*
D26*
X129330Y152366D02*
X129334Y152362D01*
X129330Y152366D02*
Y161594D01*
X336030Y152366D02*
X336034Y152362D01*
X336030Y152366D02*
Y161594D01*
X129330Y406566D02*
X129334Y406562D01*
X129330Y406566D02*
Y415795D01*
X336030Y406566D02*
X336034Y406562D01*
X336030Y406566D02*
Y415795D01*
D27*
X177830Y238094D02*
D03*
X27830D02*
D03*
X97830Y38094D02*
D03*
X384530Y238094D02*
D03*
X234530D02*
D03*
X304530Y38094D02*
D03*
X177830Y492295D02*
D03*
X27830D02*
D03*
X97830Y292295D02*
D03*
X384530Y492295D02*
D03*
X234530D02*
D03*
X304530Y292295D02*
D03*
D28*
X197830Y28095D02*
D03*
Y38094D02*
D03*
Y48094D02*
D03*
Y58095D02*
D03*
Y68094D02*
D03*
Y78095D02*
D03*
Y88095D02*
D03*
Y98094D02*
D03*
Y108095D02*
D03*
Y118095D02*
D03*
Y128094D02*
D03*
Y138094D02*
D03*
Y148094D02*
D03*
Y158095D02*
D03*
Y168095D02*
D03*
Y178094D02*
D03*
Y188094D02*
D03*
Y198094D02*
D03*
Y208095D02*
D03*
X7830Y28095D02*
D03*
Y38094D02*
D03*
Y48094D02*
D03*
Y58095D02*
D03*
Y68094D02*
D03*
Y78095D02*
D03*
Y88095D02*
D03*
Y98094D02*
D03*
Y108095D02*
D03*
Y118095D02*
D03*
Y128094D02*
D03*
Y138094D02*
D03*
Y148094D02*
D03*
Y158095D02*
D03*
Y168095D02*
D03*
Y178094D02*
D03*
Y188094D02*
D03*
Y198094D02*
D03*
Y208095D02*
D03*
X404530Y28095D02*
D03*
Y38094D02*
D03*
Y48094D02*
D03*
Y58095D02*
D03*
Y68094D02*
D03*
Y78095D02*
D03*
Y88095D02*
D03*
Y98094D02*
D03*
Y108095D02*
D03*
Y118095D02*
D03*
Y128094D02*
D03*
Y138094D02*
D03*
Y148094D02*
D03*
Y158095D02*
D03*
Y168095D02*
D03*
Y178094D02*
D03*
Y188094D02*
D03*
Y198094D02*
D03*
Y208095D02*
D03*
X214530Y28095D02*
D03*
Y38094D02*
D03*
Y48094D02*
D03*
Y58095D02*
D03*
Y68094D02*
D03*
Y78095D02*
D03*
Y88095D02*
D03*
Y98094D02*
D03*
Y108095D02*
D03*
Y118095D02*
D03*
Y128094D02*
D03*
Y138094D02*
D03*
Y148094D02*
D03*
Y158095D02*
D03*
Y168095D02*
D03*
Y178094D02*
D03*
Y188094D02*
D03*
Y198094D02*
D03*
Y208095D02*
D03*
X197830Y282295D02*
D03*
Y292295D02*
D03*
Y302294D02*
D03*
Y312295D02*
D03*
Y322294D02*
D03*
Y332295D02*
D03*
Y342295D02*
D03*
Y352294D02*
D03*
Y362295D02*
D03*
Y372294D02*
D03*
Y382295D02*
D03*
Y392295D02*
D03*
Y402294D02*
D03*
Y412294D02*
D03*
Y422295D02*
D03*
Y432295D02*
D03*
Y442295D02*
D03*
Y452294D02*
D03*
Y462294D02*
D03*
X7830Y282295D02*
D03*
Y292295D02*
D03*
Y302294D02*
D03*
Y312295D02*
D03*
Y322294D02*
D03*
Y332295D02*
D03*
Y342295D02*
D03*
Y352294D02*
D03*
Y362295D02*
D03*
Y372294D02*
D03*
Y382295D02*
D03*
Y392295D02*
D03*
Y402294D02*
D03*
Y412294D02*
D03*
Y422295D02*
D03*
Y432295D02*
D03*
Y442295D02*
D03*
Y452294D02*
D03*
Y462294D02*
D03*
X404530Y282295D02*
D03*
Y292295D02*
D03*
Y302294D02*
D03*
Y312295D02*
D03*
Y322294D02*
D03*
Y332295D02*
D03*
Y342295D02*
D03*
Y352294D02*
D03*
Y362295D02*
D03*
Y372294D02*
D03*
Y382295D02*
D03*
Y392295D02*
D03*
Y402294D02*
D03*
Y412294D02*
D03*
Y422295D02*
D03*
Y432295D02*
D03*
Y442295D02*
D03*
Y452294D02*
D03*
Y462294D02*
D03*
X214530Y282295D02*
D03*
Y292295D02*
D03*
Y302294D02*
D03*
Y312295D02*
D03*
Y322294D02*
D03*
Y332295D02*
D03*
Y342295D02*
D03*
Y352294D02*
D03*
Y362295D02*
D03*
Y372294D02*
D03*
Y382295D02*
D03*
Y392295D02*
D03*
Y402294D02*
D03*
Y412294D02*
D03*
Y422295D02*
D03*
Y432295D02*
D03*
Y442295D02*
D03*
Y452294D02*
D03*
Y462294D02*
D03*
D29*
X197830Y218094D02*
D03*
X7830D02*
D03*
X404530D02*
D03*
X214530D02*
D03*
X197830Y472295D02*
D03*
X7830D02*
D03*
X404530D02*
D03*
X214530D02*
D03*
D30*
X197830Y8095D02*
D03*
X187830D02*
D03*
X177830D02*
D03*
X167830D02*
D03*
X157830D02*
D03*
X147830D02*
D03*
X137830D02*
D03*
X127830D02*
D03*
X117830D02*
D03*
X107830D02*
D03*
X97830D02*
D03*
X87830D02*
D03*
X77830D02*
D03*
X67830D02*
D03*
X57830D02*
D03*
X47830D02*
D03*
X37830D02*
D03*
X27830D02*
D03*
X17830D02*
D03*
X404530D02*
D03*
X394530D02*
D03*
X384530D02*
D03*
X374530D02*
D03*
X364530D02*
D03*
X354530D02*
D03*
X344530D02*
D03*
X334530D02*
D03*
X324530D02*
D03*
X314530D02*
D03*
X304530D02*
D03*
X294530D02*
D03*
X284530D02*
D03*
X274530D02*
D03*
X264530D02*
D03*
X254530D02*
D03*
X244530D02*
D03*
X234530D02*
D03*
X224530D02*
D03*
X197830Y262295D02*
D03*
X187830D02*
D03*
X177830D02*
D03*
X167830D02*
D03*
X157830D02*
D03*
X147830D02*
D03*
X137830D02*
D03*
X127830D02*
D03*
X117830D02*
D03*
X107830D02*
D03*
X97830D02*
D03*
X87830D02*
D03*
X77830D02*
D03*
X67830D02*
D03*
X57830D02*
D03*
X47830D02*
D03*
X37830D02*
D03*
X27830D02*
D03*
X17830D02*
D03*
X404530D02*
D03*
X394530D02*
D03*
X384530D02*
D03*
X374530D02*
D03*
X364530D02*
D03*
X354530D02*
D03*
X344530D02*
D03*
X334530D02*
D03*
X324530D02*
D03*
X314530D02*
D03*
X304530D02*
D03*
X294530D02*
D03*
X284530D02*
D03*
X274530D02*
D03*
X264530D02*
D03*
X254530D02*
D03*
X244530D02*
D03*
X234530D02*
D03*
X224530D02*
D03*
D31*
X7830Y8095D02*
D03*
X214530D02*
D03*
X7830Y262295D02*
D03*
X214530D02*
D03*
D32*
X145082Y192362D02*
D03*
X351782D02*
D03*
X145082Y446562D02*
D03*
X351782D02*
D03*
D33*
X145082Y202362D02*
D03*
Y212362D02*
D03*
X135082Y192362D02*
D03*
Y202362D02*
D03*
Y212362D02*
D03*
X351782Y202362D02*
D03*
Y212362D02*
D03*
X341782Y192362D02*
D03*
Y202362D02*
D03*
Y212362D02*
D03*
X145082Y456562D02*
D03*
Y466562D02*
D03*
X135082Y446562D02*
D03*
Y456562D02*
D03*
Y466562D02*
D03*
X351782Y456562D02*
D03*
Y466562D02*
D03*
X341782Y446562D02*
D03*
Y456562D02*
D03*
Y466562D02*
D03*
D34*
X195830Y234095D02*
D03*
X185830Y214094D02*
D03*
Y74094D02*
D03*
Y54094D02*
D03*
Y34095D02*
D03*
X180830Y24094D02*
D03*
X175830Y214094D02*
D03*
Y174094D02*
D03*
X170830Y144095D02*
D03*
Y84095D02*
D03*
Y64095D02*
D03*
Y44094D02*
D03*
X175830Y34095D02*
D03*
X170830Y24094D02*
D03*
X160830Y244094D02*
D03*
X165830Y214094D02*
D03*
Y194095D02*
D03*
X160830Y164094D02*
D03*
X165830Y154095D02*
D03*
X160830Y124094D02*
D03*
X165830Y94095D02*
D03*
X160830Y84095D02*
D03*
Y64095D02*
D03*
X165830Y54094D02*
D03*
X160830Y44094D02*
D03*
X165830Y34095D02*
D03*
X160830Y24094D02*
D03*
X150830Y244094D02*
D03*
X155830Y234095D02*
D03*
X150830Y184095D02*
D03*
Y144095D02*
D03*
X155830Y134095D02*
D03*
X150830Y84095D02*
D03*
Y64095D02*
D03*
Y44094D02*
D03*
X140830Y244094D02*
D03*
X145830Y234095D02*
D03*
X140830Y184095D02*
D03*
X145830Y174094D02*
D03*
Y74094D02*
D03*
Y54094D02*
D03*
X140830Y44094D02*
D03*
X145830Y34095D02*
D03*
X130830Y244094D02*
D03*
X135830Y234095D02*
D03*
Y174094D02*
D03*
X130830Y144095D02*
D03*
X135830Y74094D02*
D03*
Y54094D02*
D03*
X130830Y44094D02*
D03*
X135830Y34095D02*
D03*
X120830Y244094D02*
D03*
X125830Y234095D02*
D03*
X120830Y224095D02*
D03*
Y184095D02*
D03*
X125830Y174094D02*
D03*
Y134095D02*
D03*
Y94095D02*
D03*
Y74094D02*
D03*
X120830Y64095D02*
D03*
X125830Y54094D02*
D03*
X120830Y44094D02*
D03*
X125830Y34095D02*
D03*
X110830Y244094D02*
D03*
X115830Y234095D02*
D03*
X110830Y224095D02*
D03*
X115830Y174094D02*
D03*
Y134095D02*
D03*
X110830Y104095D02*
D03*
Y64095D02*
D03*
X115830Y54094D02*
D03*
Y34095D02*
D03*
X100830Y244094D02*
D03*
X105830Y234095D02*
D03*
X100830Y224095D02*
D03*
X105830Y214094D02*
D03*
Y194095D02*
D03*
X100830Y184095D02*
D03*
X105830Y174094D02*
D03*
X100830Y124094D02*
D03*
X105830Y94095D02*
D03*
X100830Y64095D02*
D03*
X105830Y54094D02*
D03*
X90830Y244094D02*
D03*
X95830Y234095D02*
D03*
X90830Y224095D02*
D03*
X95830Y214094D02*
D03*
X90830Y204095D02*
D03*
X95830Y194095D02*
D03*
X90830Y104095D02*
D03*
Y64095D02*
D03*
X95830Y54094D02*
D03*
X80830Y244094D02*
D03*
X85830Y234095D02*
D03*
X80830Y224095D02*
D03*
X85830Y214094D02*
D03*
Y54094D02*
D03*
X80830Y44094D02*
D03*
X70830Y244094D02*
D03*
X75830Y234095D02*
D03*
X70830Y224095D02*
D03*
X75830Y214094D02*
D03*
X70830Y144095D02*
D03*
Y104095D02*
D03*
X75830Y54094D02*
D03*
X70830Y44094D02*
D03*
X75830Y34095D02*
D03*
X60830Y244094D02*
D03*
X65830Y234095D02*
D03*
X60830Y224095D02*
D03*
X65830Y214094D02*
D03*
X60830Y144095D02*
D03*
X65830Y34095D02*
D03*
X50830Y244094D02*
D03*
X55830Y234095D02*
D03*
X50830Y224095D02*
D03*
X55830Y214094D02*
D03*
X50830Y144095D02*
D03*
Y104095D02*
D03*
Y44094D02*
D03*
X45830Y234095D02*
D03*
X40830Y224095D02*
D03*
X45830Y214094D02*
D03*
Y194095D02*
D03*
X40830Y144095D02*
D03*
Y44094D02*
D03*
X45830Y34095D02*
D03*
X40830Y24094D02*
D03*
X35830Y214094D02*
D03*
Y194095D02*
D03*
Y154095D02*
D03*
Y134095D02*
D03*
Y114094D02*
D03*
X30830Y104095D02*
D03*
X35830Y94095D02*
D03*
Y74094D02*
D03*
Y54094D02*
D03*
X30830Y44094D02*
D03*
Y24094D02*
D03*
X20830Y224095D02*
D03*
X25830Y214094D02*
D03*
Y194095D02*
D03*
X20830Y164094D02*
D03*
X25830Y154095D02*
D03*
X20830Y144095D02*
D03*
X25830Y134095D02*
D03*
X20830Y124094D02*
D03*
X25830Y114094D02*
D03*
X20830Y84095D02*
D03*
X25830Y74094D02*
D03*
X20830Y64095D02*
D03*
Y44094D02*
D03*
Y24094D02*
D03*
X10830Y244094D02*
D03*
X158861Y197244D02*
D03*
Y207874D02*
D03*
X63586Y25984D02*
D03*
X50987Y28346D02*
D03*
X73428Y20472D02*
D03*
X81302D02*
D03*
X71854Y113386D02*
D03*
X62011Y122441D02*
D03*
X58468Y133858D02*
D03*
X51775D02*
D03*
X160436Y127953D02*
D03*
X171066Y127559D02*
D03*
X171460Y89764D02*
D03*
X183665Y89370D02*
D03*
X129334Y152362D02*
D03*
X127759Y130315D02*
D03*
X115948D02*
D03*
X92755Y130020D02*
D03*
X95330Y128094D02*
D03*
X165948Y70473D02*
D03*
X52956Y98819D02*
D03*
X148086Y128839D02*
D03*
X76972Y105905D02*
D03*
X40358D02*
D03*
X65948Y98819D02*
D03*
X163586Y175984D02*
D03*
X164586Y218323D02*
D03*
X169070Y223594D02*
D03*
X111830Y164594D02*
D03*
X89680Y183361D02*
D03*
X92330Y185094D02*
D03*
X117830Y192595D02*
D03*
X133830Y92339D02*
D03*
X133330Y226594D02*
D03*
X22507Y170520D02*
D03*
X37330Y42421D02*
D03*
X116330Y140094D02*
D03*
X53830Y117595D02*
D03*
X86330Y141595D02*
D03*
X116830Y158095D02*
D03*
X111830Y160094D02*
D03*
X53830Y153595D02*
D03*
X46830D02*
D03*
X62074Y158339D02*
D03*
X38586D02*
D03*
X168574Y186339D02*
D03*
X168830Y180595D02*
D03*
X173330Y181595D02*
D03*
X181330D02*
D03*
X129330Y161594D02*
D03*
X91086Y188839D02*
D03*
X78330Y189094D02*
D03*
X55586Y171339D02*
D03*
X46330Y175594D02*
D03*
X33830Y185594D02*
D03*
X68574Y184350D02*
D03*
Y193350D02*
D03*
X64330Y189094D02*
D03*
X91330Y194095D02*
D03*
X86830Y198594D02*
D03*
X25003Y138189D02*
D03*
X61617Y18898D02*
D03*
X52169Y20866D02*
D03*
X65519Y105905D02*
D03*
X114373Y85039D02*
D03*
Y92126D02*
D03*
X123035Y75984D02*
D03*
Y88583D02*
D03*
Y146063D02*
D03*
X110830Y152756D02*
D03*
X142326Y128740D02*
D03*
X41145Y62598D02*
D03*
X80515Y50787D02*
D03*
X66735Y54724D02*
D03*
X51775D02*
D03*
X34452Y63779D02*
D03*
X113192Y150394D02*
D03*
X124609Y122047D02*
D03*
X120672Y114961D02*
D03*
X85633Y112205D02*
D03*
X104924Y125984D02*
D03*
X110436Y120473D02*
D03*
X109649Y92126D02*
D03*
X111224Y70866D02*
D03*
X141145Y24016D02*
D03*
X19885Y32677D02*
D03*
X402530Y234095D02*
D03*
X392530Y214094D02*
D03*
Y74094D02*
D03*
Y54094D02*
D03*
Y34095D02*
D03*
X387530Y24094D02*
D03*
X382530Y214094D02*
D03*
Y174094D02*
D03*
X377530Y144095D02*
D03*
Y84095D02*
D03*
Y64095D02*
D03*
Y44094D02*
D03*
X382530Y34095D02*
D03*
X377530Y24094D02*
D03*
X367530Y244094D02*
D03*
X372530Y214094D02*
D03*
Y194095D02*
D03*
X367530Y164094D02*
D03*
X372530Y154095D02*
D03*
X367530Y124094D02*
D03*
X372530Y94095D02*
D03*
X367530Y84095D02*
D03*
Y64095D02*
D03*
X372530Y54094D02*
D03*
X367530Y44094D02*
D03*
X372530Y34095D02*
D03*
X367530Y24094D02*
D03*
X357530Y244094D02*
D03*
X362530Y234095D02*
D03*
X357530Y184095D02*
D03*
Y144095D02*
D03*
X362530Y134095D02*
D03*
X357530Y84095D02*
D03*
Y64095D02*
D03*
Y44094D02*
D03*
X347530Y244094D02*
D03*
X352530Y234095D02*
D03*
X347530Y184095D02*
D03*
X352530Y174094D02*
D03*
Y74094D02*
D03*
Y54094D02*
D03*
X347530Y44094D02*
D03*
X352530Y34095D02*
D03*
X337530Y244094D02*
D03*
X342530Y234095D02*
D03*
Y174094D02*
D03*
X337530Y144095D02*
D03*
X342530Y74094D02*
D03*
Y54094D02*
D03*
X337530Y44094D02*
D03*
X342530Y34095D02*
D03*
X327530Y244094D02*
D03*
X332530Y234095D02*
D03*
X327530Y224095D02*
D03*
Y184095D02*
D03*
X332530Y174094D02*
D03*
Y134095D02*
D03*
Y94095D02*
D03*
Y74094D02*
D03*
X327530Y64095D02*
D03*
X332530Y54094D02*
D03*
X327530Y44094D02*
D03*
X332530Y34095D02*
D03*
X317530Y244094D02*
D03*
X322530Y234095D02*
D03*
X317530Y224095D02*
D03*
X322530Y174094D02*
D03*
Y134095D02*
D03*
X317530Y104095D02*
D03*
Y64095D02*
D03*
X322530Y54094D02*
D03*
Y34095D02*
D03*
X307530Y244094D02*
D03*
X312530Y234095D02*
D03*
X307530Y224095D02*
D03*
X312530Y214094D02*
D03*
Y194095D02*
D03*
X307530Y184095D02*
D03*
X312530Y174094D02*
D03*
X307530Y124094D02*
D03*
X312530Y94095D02*
D03*
X307530Y64095D02*
D03*
X312530Y54094D02*
D03*
X297530Y244094D02*
D03*
X302530Y234095D02*
D03*
X297530Y224095D02*
D03*
X302530Y214094D02*
D03*
X297530Y204095D02*
D03*
X302530Y194095D02*
D03*
X297530Y104095D02*
D03*
Y64095D02*
D03*
X302530Y54094D02*
D03*
X287530Y244094D02*
D03*
X292530Y234095D02*
D03*
X287530Y224095D02*
D03*
X292530Y214094D02*
D03*
Y54094D02*
D03*
X287530Y44094D02*
D03*
X277530Y244094D02*
D03*
X282530Y234095D02*
D03*
X277530Y224095D02*
D03*
X282530Y214094D02*
D03*
X277530Y144095D02*
D03*
Y104095D02*
D03*
X282530Y54094D02*
D03*
X277530Y44094D02*
D03*
X282530Y34095D02*
D03*
X267530Y244094D02*
D03*
X272530Y234095D02*
D03*
X267530Y224095D02*
D03*
X272530Y214094D02*
D03*
X267530Y144095D02*
D03*
X272530Y34095D02*
D03*
X257530Y244094D02*
D03*
X262530Y234095D02*
D03*
X257530Y224095D02*
D03*
X262530Y214094D02*
D03*
X257530Y144095D02*
D03*
Y104095D02*
D03*
Y44094D02*
D03*
X252530Y234095D02*
D03*
X247530Y224095D02*
D03*
X252530Y214094D02*
D03*
Y194095D02*
D03*
X247530Y144095D02*
D03*
Y44094D02*
D03*
X252530Y34095D02*
D03*
X247530Y24094D02*
D03*
X242530Y214094D02*
D03*
Y194095D02*
D03*
Y154095D02*
D03*
Y134095D02*
D03*
Y114094D02*
D03*
X237530Y104095D02*
D03*
X242530Y94095D02*
D03*
Y74094D02*
D03*
Y54094D02*
D03*
X237530Y44094D02*
D03*
Y24094D02*
D03*
X227530Y224095D02*
D03*
X232530Y214094D02*
D03*
Y194095D02*
D03*
X227530Y164094D02*
D03*
X232530Y154095D02*
D03*
X227530Y144095D02*
D03*
X232530Y134095D02*
D03*
X227530Y124094D02*
D03*
X232530Y114094D02*
D03*
X227530Y84095D02*
D03*
X232530Y74094D02*
D03*
X227530Y64095D02*
D03*
Y44094D02*
D03*
Y24094D02*
D03*
X217530Y244094D02*
D03*
X365561Y197244D02*
D03*
Y207874D02*
D03*
X270286Y25984D02*
D03*
X257687Y28346D02*
D03*
X280128Y20472D02*
D03*
X288002D02*
D03*
X278554Y113386D02*
D03*
X268711Y122441D02*
D03*
X265168Y133858D02*
D03*
X258475D02*
D03*
X367136Y127953D02*
D03*
X377766Y127559D02*
D03*
X378160Y89764D02*
D03*
X390365Y89370D02*
D03*
X336034Y152362D02*
D03*
X334459Y130315D02*
D03*
X322648D02*
D03*
X299455Y130020D02*
D03*
X302030Y128094D02*
D03*
X372648Y70473D02*
D03*
X259656Y98819D02*
D03*
X354786Y128839D02*
D03*
X283672Y105905D02*
D03*
X247058D02*
D03*
X272648Y98819D02*
D03*
X370286Y175984D02*
D03*
X371286Y218323D02*
D03*
X375770Y223594D02*
D03*
X318530Y164594D02*
D03*
X296380Y183361D02*
D03*
X299030Y185094D02*
D03*
X324530Y192595D02*
D03*
X340530Y92339D02*
D03*
X340030Y226594D02*
D03*
X229207Y170520D02*
D03*
X244030Y42421D02*
D03*
X323030Y140094D02*
D03*
X260530Y117595D02*
D03*
X293030Y141595D02*
D03*
X323530Y158095D02*
D03*
X318530Y160094D02*
D03*
X260530Y153595D02*
D03*
X253530D02*
D03*
X268774Y158339D02*
D03*
X245286D02*
D03*
X375274Y186339D02*
D03*
X375530Y180595D02*
D03*
X380030Y181595D02*
D03*
X388030D02*
D03*
X336030Y161594D02*
D03*
X297786Y188839D02*
D03*
X285030Y189094D02*
D03*
X262286Y171339D02*
D03*
X253030Y175594D02*
D03*
X240530Y185594D02*
D03*
X275274Y184350D02*
D03*
Y193350D02*
D03*
X271030Y189094D02*
D03*
X298030Y194095D02*
D03*
X293530Y198594D02*
D03*
X231703Y138189D02*
D03*
X268317Y18898D02*
D03*
X258869Y20866D02*
D03*
X272219Y105905D02*
D03*
X321073Y85039D02*
D03*
Y92126D02*
D03*
X329735Y75984D02*
D03*
Y88583D02*
D03*
Y146063D02*
D03*
X317530Y152756D02*
D03*
X349026Y128740D02*
D03*
X247845Y62598D02*
D03*
X287215Y50787D02*
D03*
X273435Y54724D02*
D03*
X258475D02*
D03*
X241152Y63779D02*
D03*
X319892Y150394D02*
D03*
X331309Y122047D02*
D03*
X327372Y114961D02*
D03*
X292333Y112205D02*
D03*
X311624Y125984D02*
D03*
X317136Y120473D02*
D03*
X316349Y92126D02*
D03*
X317924Y70866D02*
D03*
X347845Y24016D02*
D03*
X226585Y32677D02*
D03*
X195830Y488295D02*
D03*
X185830Y468294D02*
D03*
Y328294D02*
D03*
Y308295D02*
D03*
Y288295D02*
D03*
X180830Y278294D02*
D03*
X175830Y468294D02*
D03*
Y428295D02*
D03*
X170830Y398294D02*
D03*
Y338295D02*
D03*
Y318295D02*
D03*
Y298294D02*
D03*
X175830Y288295D02*
D03*
X170830Y278294D02*
D03*
X160830Y498294D02*
D03*
X165830Y468294D02*
D03*
Y448294D02*
D03*
X160830Y418294D02*
D03*
X165830Y408294D02*
D03*
X160830Y378294D02*
D03*
X165830Y348294D02*
D03*
X160830Y338295D02*
D03*
Y318295D02*
D03*
X165830Y308295D02*
D03*
X160830Y298294D02*
D03*
X165830Y288295D02*
D03*
X160830Y278294D02*
D03*
X150830Y498294D02*
D03*
X155830Y488295D02*
D03*
X150830Y438295D02*
D03*
Y398294D02*
D03*
X155830Y388295D02*
D03*
X150830Y338295D02*
D03*
Y318295D02*
D03*
Y298294D02*
D03*
X140830Y498294D02*
D03*
X145830Y488295D02*
D03*
X140830Y438295D02*
D03*
X145830Y428295D02*
D03*
Y328294D02*
D03*
Y308295D02*
D03*
X140830Y298294D02*
D03*
X145830Y288295D02*
D03*
X130830Y498294D02*
D03*
X135830Y488295D02*
D03*
Y428295D02*
D03*
X130830Y398294D02*
D03*
X135830Y328294D02*
D03*
Y308295D02*
D03*
X130830Y298294D02*
D03*
X135830Y288295D02*
D03*
X120830Y498294D02*
D03*
X125830Y488295D02*
D03*
X120830Y478295D02*
D03*
Y438295D02*
D03*
X125830Y428295D02*
D03*
Y388295D02*
D03*
Y348294D02*
D03*
Y328294D02*
D03*
X120830Y318295D02*
D03*
X125830Y308295D02*
D03*
X120830Y298294D02*
D03*
X125830Y288295D02*
D03*
X110830Y498294D02*
D03*
X115830Y488295D02*
D03*
X110830Y478295D02*
D03*
X115830Y428295D02*
D03*
Y388295D02*
D03*
X110830Y358295D02*
D03*
Y318295D02*
D03*
X115830Y308295D02*
D03*
Y288295D02*
D03*
X100830Y498294D02*
D03*
X105830Y488295D02*
D03*
X100830Y478295D02*
D03*
X105830Y468294D02*
D03*
Y448294D02*
D03*
X100830Y438295D02*
D03*
X105830Y428295D02*
D03*
X100830Y378294D02*
D03*
X105830Y348294D02*
D03*
X100830Y318295D02*
D03*
X105830Y308295D02*
D03*
X90830Y498294D02*
D03*
X95830Y488295D02*
D03*
X90830Y478295D02*
D03*
X95830Y468294D02*
D03*
X90830Y458294D02*
D03*
X95830Y448294D02*
D03*
X90830Y358295D02*
D03*
Y318295D02*
D03*
X95830Y308295D02*
D03*
X80830Y498294D02*
D03*
X85830Y488295D02*
D03*
X80830Y478295D02*
D03*
X85830Y468294D02*
D03*
Y308295D02*
D03*
X80830Y298294D02*
D03*
X70830Y498294D02*
D03*
X75830Y488295D02*
D03*
X70830Y478295D02*
D03*
X75830Y468294D02*
D03*
X70830Y398294D02*
D03*
Y358295D02*
D03*
X75830Y308295D02*
D03*
X70830Y298294D02*
D03*
X75830Y288295D02*
D03*
X60830Y498294D02*
D03*
X65830Y488295D02*
D03*
X60830Y478295D02*
D03*
X65830Y468294D02*
D03*
X60830Y398294D02*
D03*
X65830Y288295D02*
D03*
X50830Y498294D02*
D03*
X55830Y488295D02*
D03*
X50830Y478295D02*
D03*
X55830Y468294D02*
D03*
X50830Y398294D02*
D03*
Y358295D02*
D03*
Y298294D02*
D03*
X45830Y488295D02*
D03*
X40830Y478295D02*
D03*
X45830Y468294D02*
D03*
Y448294D02*
D03*
X40830Y398294D02*
D03*
Y298294D02*
D03*
X45830Y288295D02*
D03*
X40830Y278294D02*
D03*
X35830Y468294D02*
D03*
Y448294D02*
D03*
Y408294D02*
D03*
Y388295D02*
D03*
Y368295D02*
D03*
X30830Y358295D02*
D03*
X35830Y348294D02*
D03*
Y328294D02*
D03*
Y308295D02*
D03*
X30830Y298294D02*
D03*
Y278294D02*
D03*
X20830Y478295D02*
D03*
X25830Y468294D02*
D03*
Y448294D02*
D03*
X20830Y418294D02*
D03*
X25830Y408294D02*
D03*
X20830Y398294D02*
D03*
X25830Y388295D02*
D03*
X20830Y378294D02*
D03*
X25830Y368295D02*
D03*
X20830Y338295D02*
D03*
X25830Y328294D02*
D03*
X20830Y318295D02*
D03*
Y298294D02*
D03*
Y278294D02*
D03*
X10830Y498294D02*
D03*
X158861Y451444D02*
D03*
Y462074D02*
D03*
X63586Y280184D02*
D03*
X50987Y282546D02*
D03*
X73428Y274672D02*
D03*
X81302D02*
D03*
X71854Y367586D02*
D03*
X62011Y376641D02*
D03*
X58468Y388058D02*
D03*
X51775D02*
D03*
X160436Y382153D02*
D03*
X171066Y381759D02*
D03*
X171460Y343964D02*
D03*
X183665Y343570D02*
D03*
X129334Y406562D02*
D03*
X127759Y384515D02*
D03*
X115948D02*
D03*
X92755Y384220D02*
D03*
X95330Y382295D02*
D03*
X165948Y324673D02*
D03*
X52956Y353019D02*
D03*
X148086Y383039D02*
D03*
X76972Y360105D02*
D03*
X40358D02*
D03*
X65948Y353019D02*
D03*
X163586Y430184D02*
D03*
X164586Y472523D02*
D03*
X169070Y477795D02*
D03*
X111830Y418794D02*
D03*
X89680Y437561D02*
D03*
X92330Y439294D02*
D03*
X117830Y446795D02*
D03*
X133830Y346539D02*
D03*
X133330Y480794D02*
D03*
X22507Y424720D02*
D03*
X37330Y296621D02*
D03*
X116330Y394295D02*
D03*
X53830Y371795D02*
D03*
X86330Y395795D02*
D03*
X116830Y412294D02*
D03*
X111830Y414294D02*
D03*
X53830Y407795D02*
D03*
X46830D02*
D03*
X62074Y412539D02*
D03*
X38586D02*
D03*
X168574Y440539D02*
D03*
X168830Y434795D02*
D03*
X173330Y435794D02*
D03*
X181330D02*
D03*
X129330Y415795D02*
D03*
X91086Y443039D02*
D03*
X78330Y443294D02*
D03*
X55586Y425539D02*
D03*
X46330Y429795D02*
D03*
X33830Y439794D02*
D03*
X68574Y438550D02*
D03*
Y447550D02*
D03*
X64330Y443294D02*
D03*
X91330Y448294D02*
D03*
X86830Y452795D02*
D03*
X25003Y392389D02*
D03*
X61617Y273098D02*
D03*
X52169Y275066D02*
D03*
X65519Y360105D02*
D03*
X114373Y339239D02*
D03*
Y346326D02*
D03*
X123035Y330184D02*
D03*
Y342783D02*
D03*
Y400263D02*
D03*
X110830Y406956D02*
D03*
X142326Y382940D02*
D03*
X41145Y316798D02*
D03*
X80515Y304987D02*
D03*
X66735Y308924D02*
D03*
X51775D02*
D03*
X34452Y317980D02*
D03*
X113192Y404594D02*
D03*
X124609Y376247D02*
D03*
X120672Y369161D02*
D03*
X85633Y366405D02*
D03*
X104924Y380184D02*
D03*
X110436Y374672D02*
D03*
X109649Y346326D02*
D03*
X111224Y325066D02*
D03*
X141145Y278216D02*
D03*
X19885Y286877D02*
D03*
X402530Y488295D02*
D03*
X392530Y468294D02*
D03*
Y328294D02*
D03*
Y308295D02*
D03*
Y288295D02*
D03*
X387530Y278294D02*
D03*
X382530Y468294D02*
D03*
Y428295D02*
D03*
X377530Y398294D02*
D03*
Y338295D02*
D03*
Y318295D02*
D03*
Y298294D02*
D03*
X382530Y288295D02*
D03*
X377530Y278294D02*
D03*
X367530Y498294D02*
D03*
X372530Y468294D02*
D03*
Y448294D02*
D03*
X367530Y418294D02*
D03*
X372530Y408294D02*
D03*
X367530Y378294D02*
D03*
X372530Y348294D02*
D03*
X367530Y338295D02*
D03*
Y318295D02*
D03*
X372530Y308295D02*
D03*
X367530Y298294D02*
D03*
X372530Y288295D02*
D03*
X367530Y278294D02*
D03*
X357530Y498294D02*
D03*
X362530Y488295D02*
D03*
X357530Y438295D02*
D03*
Y398294D02*
D03*
X362530Y388295D02*
D03*
X357530Y338295D02*
D03*
Y318295D02*
D03*
Y298294D02*
D03*
X347530Y498294D02*
D03*
X352530Y488295D02*
D03*
X347530Y438295D02*
D03*
X352530Y428295D02*
D03*
Y328294D02*
D03*
Y308295D02*
D03*
X347530Y298294D02*
D03*
X352530Y288295D02*
D03*
X337530Y498294D02*
D03*
X342530Y488295D02*
D03*
Y428295D02*
D03*
X337530Y398294D02*
D03*
X342530Y328294D02*
D03*
Y308295D02*
D03*
X337530Y298294D02*
D03*
X342530Y288295D02*
D03*
X327530Y498294D02*
D03*
X332530Y488295D02*
D03*
X327530Y478295D02*
D03*
Y438295D02*
D03*
X332530Y428295D02*
D03*
Y388295D02*
D03*
Y348294D02*
D03*
Y328294D02*
D03*
X327530Y318295D02*
D03*
X332530Y308295D02*
D03*
X327530Y298294D02*
D03*
X332530Y288295D02*
D03*
X317530Y498294D02*
D03*
X322530Y488295D02*
D03*
X317530Y478295D02*
D03*
X322530Y428295D02*
D03*
Y388295D02*
D03*
X317530Y358295D02*
D03*
Y318295D02*
D03*
X322530Y308295D02*
D03*
Y288295D02*
D03*
X307530Y498294D02*
D03*
X312530Y488295D02*
D03*
X307530Y478295D02*
D03*
X312530Y468294D02*
D03*
Y448294D02*
D03*
X307530Y438295D02*
D03*
X312530Y428295D02*
D03*
X307530Y378294D02*
D03*
X312530Y348294D02*
D03*
X307530Y318295D02*
D03*
X312530Y308295D02*
D03*
X297530Y498294D02*
D03*
X302530Y488295D02*
D03*
X297530Y478295D02*
D03*
X302530Y468294D02*
D03*
X297530Y458294D02*
D03*
X302530Y448294D02*
D03*
X297530Y358295D02*
D03*
Y318295D02*
D03*
X302530Y308295D02*
D03*
X287530Y498294D02*
D03*
X292530Y488295D02*
D03*
X287530Y478295D02*
D03*
X292530Y468294D02*
D03*
Y308295D02*
D03*
X287530Y298294D02*
D03*
X277530Y498294D02*
D03*
X282530Y488295D02*
D03*
X277530Y478295D02*
D03*
X282530Y468294D02*
D03*
X277530Y398294D02*
D03*
Y358295D02*
D03*
X282530Y308295D02*
D03*
X277530Y298294D02*
D03*
X282530Y288295D02*
D03*
X267530Y498294D02*
D03*
X272530Y488295D02*
D03*
X267530Y478295D02*
D03*
X272530Y468294D02*
D03*
X267530Y398294D02*
D03*
X272530Y288295D02*
D03*
X257530Y498294D02*
D03*
X262530Y488295D02*
D03*
X257530Y478295D02*
D03*
X262530Y468294D02*
D03*
X257530Y398294D02*
D03*
Y358295D02*
D03*
Y298294D02*
D03*
X252530Y488295D02*
D03*
X247530Y478295D02*
D03*
X252530Y468294D02*
D03*
Y448294D02*
D03*
X247530Y398294D02*
D03*
Y298294D02*
D03*
X252530Y288295D02*
D03*
X247530Y278294D02*
D03*
X242530Y468294D02*
D03*
Y448294D02*
D03*
Y408294D02*
D03*
Y388295D02*
D03*
Y368295D02*
D03*
X237530Y358295D02*
D03*
X242530Y348294D02*
D03*
Y328294D02*
D03*
Y308295D02*
D03*
X237530Y298294D02*
D03*
Y278294D02*
D03*
X227530Y478295D02*
D03*
X232530Y468294D02*
D03*
Y448294D02*
D03*
X227530Y418294D02*
D03*
X232530Y408294D02*
D03*
X227530Y398294D02*
D03*
X232530Y388295D02*
D03*
X227530Y378294D02*
D03*
X232530Y368295D02*
D03*
X227530Y338295D02*
D03*
X232530Y328294D02*
D03*
X227530Y318295D02*
D03*
Y298294D02*
D03*
Y278294D02*
D03*
X217530Y498294D02*
D03*
X365561Y451444D02*
D03*
Y462074D02*
D03*
X270286Y280184D02*
D03*
X257687Y282546D02*
D03*
X280128Y274672D02*
D03*
X288002D02*
D03*
X278554Y367586D02*
D03*
X268711Y376641D02*
D03*
X265168Y388058D02*
D03*
X258475D02*
D03*
X367136Y382153D02*
D03*
X377766Y381759D02*
D03*
X378160Y343964D02*
D03*
X390365Y343570D02*
D03*
X336034Y406562D02*
D03*
X334459Y384515D02*
D03*
X322648D02*
D03*
X299455Y384220D02*
D03*
X302030Y382295D02*
D03*
X372648Y324673D02*
D03*
X259656Y353019D02*
D03*
X354786Y383039D02*
D03*
X283672Y360105D02*
D03*
X247058D02*
D03*
X272648Y353019D02*
D03*
X370286Y430184D02*
D03*
X371286Y472523D02*
D03*
X375770Y477795D02*
D03*
X318530Y418794D02*
D03*
X296380Y437561D02*
D03*
X299030Y439294D02*
D03*
X324530Y446795D02*
D03*
X340530Y346539D02*
D03*
X340030Y480794D02*
D03*
X229207Y424720D02*
D03*
X244030Y296621D02*
D03*
X323030Y394295D02*
D03*
X260530Y371795D02*
D03*
X293030Y395795D02*
D03*
X323530Y412294D02*
D03*
X318530Y414294D02*
D03*
X260530Y407795D02*
D03*
X253530D02*
D03*
X268774Y412539D02*
D03*
X245286D02*
D03*
X375274Y440539D02*
D03*
X375530Y434795D02*
D03*
X380030Y435794D02*
D03*
X388030D02*
D03*
X336030Y415795D02*
D03*
X297786Y443039D02*
D03*
X285030Y443294D02*
D03*
X262286Y425539D02*
D03*
X253030Y429795D02*
D03*
X240530Y439794D02*
D03*
X275274Y438550D02*
D03*
Y447550D02*
D03*
X271030Y443294D02*
D03*
X298030Y448294D02*
D03*
X293530Y452795D02*
D03*
X231703Y392389D02*
D03*
X268317Y273098D02*
D03*
X258869Y275066D02*
D03*
X272219Y360105D02*
D03*
X321073Y339239D02*
D03*
Y346326D02*
D03*
X329735Y330184D02*
D03*
Y342783D02*
D03*
Y400263D02*
D03*
X317530Y406956D02*
D03*
X349026Y382940D02*
D03*
X247845Y316798D02*
D03*
X287215Y304987D02*
D03*
X273435Y308924D02*
D03*
X258475D02*
D03*
X241152Y317980D02*
D03*
X319892Y404594D02*
D03*
X331309Y376247D02*
D03*
X327372Y369161D02*
D03*
X292333Y366405D02*
D03*
X311624Y380184D02*
D03*
X317136Y374672D02*
D03*
X316349Y346326D02*
D03*
X317924Y325066D02*
D03*
X347845Y278216D02*
D03*
X226585Y286877D02*
D03*
D35*
X92165Y155795D02*
D03*
X87834D02*
D03*
X83503D02*
D03*
X79172D02*
D03*
X92165Y160126D02*
D03*
X87834D02*
D03*
X83503D02*
D03*
X79172D02*
D03*
X92165Y164457D02*
D03*
X87834D02*
D03*
X83503D02*
D03*
X79172D02*
D03*
X92165Y168787D02*
D03*
X87834D02*
D03*
X83503D02*
D03*
X79172D02*
D03*
X298865Y155795D02*
D03*
X294534D02*
D03*
X290203D02*
D03*
X285872D02*
D03*
X298865Y160126D02*
D03*
X294534D02*
D03*
X290203D02*
D03*
X285872D02*
D03*
X298865Y164457D02*
D03*
X294534D02*
D03*
X290203D02*
D03*
X285872D02*
D03*
X298865Y168787D02*
D03*
X294534D02*
D03*
X290203D02*
D03*
X285872D02*
D03*
X92165Y409995D02*
D03*
X87834D02*
D03*
X83503D02*
D03*
X79172D02*
D03*
X92165Y414326D02*
D03*
X87834D02*
D03*
X83503D02*
D03*
X79172D02*
D03*
X92165Y418657D02*
D03*
X87834D02*
D03*
X83503D02*
D03*
X79172D02*
D03*
X92165Y422987D02*
D03*
X87834D02*
D03*
X83503D02*
D03*
X79172D02*
D03*
X298865Y409995D02*
D03*
X294534D02*
D03*
X290203D02*
D03*
X285872D02*
D03*
X298865Y414326D02*
D03*
X294534D02*
D03*
X290203D02*
D03*
X285872D02*
D03*
X298865Y418657D02*
D03*
X294534D02*
D03*
X290203D02*
D03*
X285872D02*
D03*
X298865Y422987D02*
D03*
X294534D02*
D03*
X290203D02*
D03*
X285872D02*
D03*
M02*
