G04 Layer_Color=8421504*
%FSLAX25Y25*%
%MOIN*%
G70*
G01*
G75*
%ADD11R,0.03740X0.02953*%
%ADD12R,0.02953X0.03740*%
G04:AMPARAMS|DCode=13|XSize=39.37mil|YSize=35.43mil|CornerRadius=4.43mil|HoleSize=0mil|Usage=FLASHONLY|Rotation=0.000|XOffset=0mil|YOffset=0mil|HoleType=Round|Shape=RoundedRectangle|*
%AMROUNDEDRECTD13*
21,1,0.03937,0.02657,0,0,0.0*
21,1,0.03051,0.03543,0,0,0.0*
1,1,0.00886,0.01526,-0.01329*
1,1,0.00886,-0.01526,-0.01329*
1,1,0.00886,-0.01526,0.01329*
1,1,0.00886,0.01526,0.01329*
%
%ADD13ROUNDEDRECTD13*%
%ADD14R,0.02500X0.05000*%
G04:AMPARAMS|DCode=15|XSize=39.37mil|YSize=35.43mil|CornerRadius=4.43mil|HoleSize=0mil|Usage=FLASHONLY|Rotation=90.000|XOffset=0mil|YOffset=0mil|HoleType=Round|Shape=RoundedRectangle|*
%AMROUNDEDRECTD15*
21,1,0.03937,0.02657,0,0,90.0*
21,1,0.03051,0.03543,0,0,90.0*
1,1,0.00886,0.01329,0.01526*
1,1,0.00886,0.01329,-0.01526*
1,1,0.00886,-0.01329,-0.01526*
1,1,0.00886,-0.01329,0.01526*
%
%ADD15ROUNDEDRECTD15*%
G04:AMPARAMS|DCode=16|XSize=23.62mil|YSize=57.09mil|CornerRadius=1.18mil|HoleSize=0mil|Usage=FLASHONLY|Rotation=90.000|XOffset=0mil|YOffset=0mil|HoleType=Round|Shape=RoundedRectangle|*
%AMROUNDEDRECTD16*
21,1,0.02362,0.05472,0,0,90.0*
21,1,0.02126,0.05709,0,0,90.0*
1,1,0.00236,0.02736,0.01063*
1,1,0.00236,0.02736,-0.01063*
1,1,0.00236,-0.02736,-0.01063*
1,1,0.00236,-0.02736,0.01063*
%
%ADD16ROUNDEDRECTD16*%
%ADD17O,0.09842X0.02559*%
%ADD41R,0.09606X0.08661*%
%ADD42R,0.05905X0.05905*%
%ADD43O,0.00630X0.03425*%
%ADD44O,0.03425X0.00630*%
D11*
X42720Y114961D02*
D03*
Y120473D02*
D03*
X165948Y80315D02*
D03*
Y74803D02*
D03*
X43330Y158339D02*
D03*
Y163850D02*
D03*
X50330D02*
D03*
Y158339D02*
D03*
X57330D02*
D03*
Y163850D02*
D03*
X86830Y194350D02*
D03*
Y188839D02*
D03*
X173330Y186339D02*
D03*
Y191850D02*
D03*
X181330Y186339D02*
D03*
Y191850D02*
D03*
X37330Y38177D02*
D03*
Y32665D02*
D03*
X22507Y180276D02*
D03*
Y174764D02*
D03*
X76972Y101575D02*
D03*
Y96063D02*
D03*
X40358Y101575D02*
D03*
Y96063D02*
D03*
X249420Y114961D02*
D03*
Y120473D02*
D03*
X372648Y80315D02*
D03*
Y74803D02*
D03*
X250030Y158339D02*
D03*
Y163850D02*
D03*
X257030D02*
D03*
Y158339D02*
D03*
X264030D02*
D03*
Y163850D02*
D03*
X293530Y194350D02*
D03*
Y188839D02*
D03*
X380030Y186339D02*
D03*
Y191850D02*
D03*
X388030Y186339D02*
D03*
Y191850D02*
D03*
X244030Y38177D02*
D03*
Y32665D02*
D03*
X229207Y180276D02*
D03*
Y174764D02*
D03*
X283672Y101575D02*
D03*
Y96063D02*
D03*
X247058Y101575D02*
D03*
Y96063D02*
D03*
X42720Y369161D02*
D03*
Y374673D02*
D03*
X165948Y334515D02*
D03*
Y329003D02*
D03*
X43330Y412539D02*
D03*
Y418050D02*
D03*
X50330D02*
D03*
Y412539D02*
D03*
X57330D02*
D03*
Y418050D02*
D03*
X86830Y448550D02*
D03*
Y443039D02*
D03*
X173330Y440539D02*
D03*
Y446050D02*
D03*
X181330Y440539D02*
D03*
Y446050D02*
D03*
X37330Y292377D02*
D03*
Y286865D02*
D03*
X22507Y434476D02*
D03*
Y428964D02*
D03*
X76972Y355775D02*
D03*
Y350263D02*
D03*
X40358Y355775D02*
D03*
Y350263D02*
D03*
X249420Y369161D02*
D03*
Y374673D02*
D03*
X372648Y334515D02*
D03*
Y329003D02*
D03*
X250030Y412539D02*
D03*
Y418050D02*
D03*
X257030D02*
D03*
Y412539D02*
D03*
X264030D02*
D03*
Y418050D02*
D03*
X293530Y448550D02*
D03*
Y443039D02*
D03*
X380030Y440539D02*
D03*
Y446050D02*
D03*
X388030Y440539D02*
D03*
Y446050D02*
D03*
X244030Y292377D02*
D03*
Y286865D02*
D03*
X229207Y434476D02*
D03*
Y428964D02*
D03*
X283672Y355775D02*
D03*
Y350263D02*
D03*
X247058Y355775D02*
D03*
Y350263D02*
D03*
D12*
X55586Y175594D02*
D03*
X50074D02*
D03*
X74086Y189094D02*
D03*
X68574D02*
D03*
X148086Y123594D02*
D03*
X142574D02*
D03*
X159074Y223594D02*
D03*
X164586D02*
D03*
X158074Y180595D02*
D03*
X163586D02*
D03*
X39074Y185594D02*
D03*
X44586D02*
D03*
X56586D02*
D03*
X51074D02*
D03*
X107074Y140094D02*
D03*
X112586D02*
D03*
X138074Y226594D02*
D03*
X143586D02*
D03*
X262286Y175594D02*
D03*
X256774D02*
D03*
X280786Y189094D02*
D03*
X275274D02*
D03*
X354786Y123594D02*
D03*
X349274D02*
D03*
X365774Y223594D02*
D03*
X371286D02*
D03*
X364774Y180595D02*
D03*
X370286D02*
D03*
X245774Y185594D02*
D03*
X251286D02*
D03*
X263286D02*
D03*
X257774D02*
D03*
X313774Y140094D02*
D03*
X319286D02*
D03*
X344774Y226594D02*
D03*
X350286D02*
D03*
X55586Y429795D02*
D03*
X50074D02*
D03*
X74086Y443294D02*
D03*
X68574D02*
D03*
X148086Y377795D02*
D03*
X142574D02*
D03*
X159074Y477795D02*
D03*
X164586D02*
D03*
X158074Y434795D02*
D03*
X163586D02*
D03*
X39074Y439794D02*
D03*
X44586D02*
D03*
X56586D02*
D03*
X51074D02*
D03*
X107074Y394295D02*
D03*
X112586D02*
D03*
X138074Y480794D02*
D03*
X143586D02*
D03*
X262286Y429795D02*
D03*
X256774D02*
D03*
X280786Y443294D02*
D03*
X275274D02*
D03*
X354786Y377795D02*
D03*
X349274D02*
D03*
X365774Y477795D02*
D03*
X371286D02*
D03*
X364774Y434795D02*
D03*
X370286D02*
D03*
X245774Y439794D02*
D03*
X251286D02*
D03*
X263286D02*
D03*
X257774D02*
D03*
X313774Y394295D02*
D03*
X319286D02*
D03*
X344774Y480794D02*
D03*
X350286D02*
D03*
D13*
X173330Y208941D02*
D03*
Y202248D02*
D03*
X42720Y133268D02*
D03*
Y126575D02*
D03*
X85633Y123031D02*
D03*
Y116339D02*
D03*
X80515Y55512D02*
D03*
Y62205D02*
D03*
X25003Y32087D02*
D03*
Y38780D02*
D03*
X94295Y116339D02*
D03*
Y123031D02*
D03*
X380030Y208941D02*
D03*
Y202248D02*
D03*
X249420Y133268D02*
D03*
Y126575D02*
D03*
X292333Y123031D02*
D03*
Y116339D02*
D03*
X287215Y55512D02*
D03*
Y62205D02*
D03*
X231703Y32087D02*
D03*
Y38780D02*
D03*
X300994Y116339D02*
D03*
Y123031D02*
D03*
X173330Y463141D02*
D03*
Y456448D02*
D03*
X42720Y387468D02*
D03*
Y380775D02*
D03*
X85633Y377232D02*
D03*
Y370539D02*
D03*
X80515Y309712D02*
D03*
Y316405D02*
D03*
X25003Y286287D02*
D03*
Y292980D02*
D03*
X94295Y370539D02*
D03*
Y377232D02*
D03*
X380030Y463141D02*
D03*
Y456448D02*
D03*
X249420Y387468D02*
D03*
Y380775D02*
D03*
X292333Y377232D02*
D03*
Y370539D02*
D03*
X287215Y309712D02*
D03*
Y316405D02*
D03*
X231703Y286287D02*
D03*
Y292980D02*
D03*
X300994Y370539D02*
D03*
Y377232D02*
D03*
D14*
X122688Y202756D02*
D03*
X119445D02*
D03*
X142373Y179134D02*
D03*
X139129D02*
D03*
X329388Y202756D02*
D03*
X326145D02*
D03*
X349073Y179134D02*
D03*
X345830D02*
D03*
X122688Y456956D02*
D03*
X119445D02*
D03*
X142373Y433334D02*
D03*
X139129D02*
D03*
X329388Y456956D02*
D03*
X326145D02*
D03*
X349073Y433334D02*
D03*
X345830D02*
D03*
D15*
X50484Y193095D02*
D03*
X57176D02*
D03*
X71657Y205118D02*
D03*
X78350D02*
D03*
X124176Y161594D02*
D03*
X117483D02*
D03*
X124176Y152094D02*
D03*
X117483D02*
D03*
X141735Y67716D02*
D03*
X135043D02*
D03*
X257184Y193095D02*
D03*
X263876D02*
D03*
X278357Y205118D02*
D03*
X285050D02*
D03*
X330876Y161594D02*
D03*
X324183D02*
D03*
X330876Y152094D02*
D03*
X324183D02*
D03*
X348435Y67716D02*
D03*
X341742D02*
D03*
X50484Y447295D02*
D03*
X57176D02*
D03*
X71657Y459318D02*
D03*
X78350D02*
D03*
X124176Y415795D02*
D03*
X117483D02*
D03*
X124176Y406294D02*
D03*
X117483D02*
D03*
X141735Y321917D02*
D03*
X135043D02*
D03*
X257184Y447295D02*
D03*
X263876D02*
D03*
X278357Y459318D02*
D03*
X285050D02*
D03*
X330876Y415795D02*
D03*
X324183D02*
D03*
X330876Y406294D02*
D03*
X324183D02*
D03*
X348435Y321917D02*
D03*
X341742D02*
D03*
D16*
X48035Y93386D02*
D03*
Y88386D02*
D03*
Y83386D02*
D03*
Y78386D02*
D03*
Y73386D02*
D03*
Y68386D02*
D03*
Y63386D02*
D03*
X69491Y93386D02*
D03*
Y88386D02*
D03*
Y83386D02*
D03*
Y78386D02*
D03*
Y73386D02*
D03*
Y68386D02*
D03*
Y63386D02*
D03*
X254735Y93386D02*
D03*
Y88386D02*
D03*
Y83386D02*
D03*
Y78386D02*
D03*
Y73386D02*
D03*
Y68386D02*
D03*
Y63386D02*
D03*
X276191Y93386D02*
D03*
Y88386D02*
D03*
Y83386D02*
D03*
Y78386D02*
D03*
Y73386D02*
D03*
Y68386D02*
D03*
Y63386D02*
D03*
X48035Y347586D02*
D03*
Y342586D02*
D03*
Y337586D02*
D03*
Y332586D02*
D03*
Y327586D02*
D03*
Y322586D02*
D03*
Y317586D02*
D03*
X69491Y347586D02*
D03*
Y342586D02*
D03*
Y337586D02*
D03*
Y332586D02*
D03*
Y327586D02*
D03*
Y322586D02*
D03*
Y317586D02*
D03*
X254735Y347586D02*
D03*
Y342586D02*
D03*
Y337586D02*
D03*
Y332586D02*
D03*
Y327586D02*
D03*
Y322586D02*
D03*
Y317586D02*
D03*
X276191Y347586D02*
D03*
Y342586D02*
D03*
Y337586D02*
D03*
Y332586D02*
D03*
Y327586D02*
D03*
Y322586D02*
D03*
Y317586D02*
D03*
D17*
X131247Y114094D02*
D03*
Y109095D02*
D03*
Y104095D02*
D03*
Y99094D02*
D03*
X158413Y114094D02*
D03*
Y109095D02*
D03*
Y104095D02*
D03*
Y99094D02*
D03*
X337947Y114094D02*
D03*
Y109095D02*
D03*
Y104095D02*
D03*
Y99094D02*
D03*
X365113Y114094D02*
D03*
Y109095D02*
D03*
Y104095D02*
D03*
Y99094D02*
D03*
X131247Y368295D02*
D03*
Y363295D02*
D03*
Y358295D02*
D03*
Y353294D02*
D03*
X158413Y368295D02*
D03*
Y363295D02*
D03*
Y358295D02*
D03*
Y353294D02*
D03*
X337947Y368295D02*
D03*
Y363295D02*
D03*
Y358295D02*
D03*
Y353294D02*
D03*
X365113Y368295D02*
D03*
Y363295D02*
D03*
Y358295D02*
D03*
Y353294D02*
D03*
D41*
X121066Y202756D02*
D03*
X140751Y179134D02*
D03*
X327766Y202756D02*
D03*
X347451Y179134D02*
D03*
X121066Y456956D02*
D03*
X140751Y433334D02*
D03*
X327766Y456956D02*
D03*
X347451Y433334D02*
D03*
D42*
X89605Y166228D02*
D03*
X89605Y158354D02*
D03*
X81731D02*
D03*
Y166228D02*
D03*
X296305Y166228D02*
D03*
X296305Y158354D02*
D03*
X288432D02*
D03*
Y166228D02*
D03*
X89605Y420428D02*
D03*
X89605Y412554D02*
D03*
X81731D02*
D03*
Y420428D02*
D03*
X296305Y420428D02*
D03*
X296305Y412554D02*
D03*
X288432D02*
D03*
Y420428D02*
D03*
D43*
X77007Y173906D02*
D03*
X78582D02*
D03*
X80157D02*
D03*
X81731D02*
D03*
X83306D02*
D03*
X84881D02*
D03*
X86456D02*
D03*
X88031D02*
D03*
X89605D02*
D03*
X91180D02*
D03*
X92755D02*
D03*
X94330D02*
D03*
Y150677D02*
D03*
X92755D02*
D03*
X91180D02*
D03*
X89605D02*
D03*
X88031D02*
D03*
X86456D02*
D03*
X84881D02*
D03*
X83306D02*
D03*
X81731D02*
D03*
X80157D02*
D03*
X78582D02*
D03*
X77007D02*
D03*
X283707Y173906D02*
D03*
X285282D02*
D03*
X286857D02*
D03*
X288432D02*
D03*
X290006D02*
D03*
X291581D02*
D03*
X293156D02*
D03*
X294731D02*
D03*
X296305D02*
D03*
X297880D02*
D03*
X299455D02*
D03*
X301030D02*
D03*
Y150677D02*
D03*
X299455D02*
D03*
X297880D02*
D03*
X296305D02*
D03*
X294731D02*
D03*
X293156D02*
D03*
X291581D02*
D03*
X290006D02*
D03*
X288432D02*
D03*
X286857D02*
D03*
X285282D02*
D03*
X283707D02*
D03*
X77007Y428105D02*
D03*
X78582D02*
D03*
X80157D02*
D03*
X81731D02*
D03*
X83306D02*
D03*
X84881D02*
D03*
X86456D02*
D03*
X88031D02*
D03*
X89605D02*
D03*
X91180D02*
D03*
X92755D02*
D03*
X94330D02*
D03*
Y404877D02*
D03*
X92755D02*
D03*
X91180D02*
D03*
X89605D02*
D03*
X88031D02*
D03*
X86456D02*
D03*
X84881D02*
D03*
X83306D02*
D03*
X81731D02*
D03*
X80157D02*
D03*
X78582D02*
D03*
X77007D02*
D03*
X283707Y428105D02*
D03*
X285282D02*
D03*
X286857D02*
D03*
X288432D02*
D03*
X290006D02*
D03*
X291581D02*
D03*
X293156D02*
D03*
X294731D02*
D03*
X296305D02*
D03*
X297880D02*
D03*
X299455D02*
D03*
X301030D02*
D03*
Y404877D02*
D03*
X299455D02*
D03*
X297880D02*
D03*
X296305D02*
D03*
X294731D02*
D03*
X293156D02*
D03*
X291581D02*
D03*
X290006D02*
D03*
X288432D02*
D03*
X286857D02*
D03*
X285282D02*
D03*
X283707D02*
D03*
D44*
X97283Y170953D02*
D03*
Y169378D02*
D03*
Y167803D02*
D03*
Y166228D02*
D03*
Y164654D02*
D03*
Y163079D02*
D03*
Y161504D02*
D03*
Y159929D02*
D03*
Y158354D02*
D03*
Y156780D02*
D03*
Y155205D02*
D03*
Y153630D02*
D03*
X74054D02*
D03*
Y155205D02*
D03*
Y156780D02*
D03*
Y158354D02*
D03*
Y159929D02*
D03*
Y161504D02*
D03*
Y163079D02*
D03*
Y164654D02*
D03*
Y166228D02*
D03*
Y167803D02*
D03*
Y169378D02*
D03*
Y170953D02*
D03*
X303983D02*
D03*
Y169378D02*
D03*
Y167803D02*
D03*
Y166228D02*
D03*
Y164654D02*
D03*
Y163079D02*
D03*
Y161504D02*
D03*
Y159929D02*
D03*
Y158354D02*
D03*
Y156780D02*
D03*
Y155205D02*
D03*
Y153630D02*
D03*
X280754D02*
D03*
Y155205D02*
D03*
Y156780D02*
D03*
Y158354D02*
D03*
Y159929D02*
D03*
Y161504D02*
D03*
Y163079D02*
D03*
Y164654D02*
D03*
Y166228D02*
D03*
Y167803D02*
D03*
Y169378D02*
D03*
Y170953D02*
D03*
X97283Y425153D02*
D03*
Y423578D02*
D03*
Y422003D02*
D03*
Y420428D02*
D03*
Y418854D02*
D03*
Y417279D02*
D03*
Y415704D02*
D03*
Y414129D02*
D03*
Y412554D02*
D03*
Y410980D02*
D03*
Y409405D02*
D03*
Y407830D02*
D03*
X74054D02*
D03*
Y409405D02*
D03*
Y410980D02*
D03*
Y412554D02*
D03*
Y414129D02*
D03*
Y415704D02*
D03*
Y417279D02*
D03*
Y418854D02*
D03*
Y420428D02*
D03*
Y422003D02*
D03*
Y423578D02*
D03*
Y425153D02*
D03*
X303983D02*
D03*
Y423578D02*
D03*
Y422003D02*
D03*
Y420428D02*
D03*
Y418854D02*
D03*
Y417279D02*
D03*
Y415704D02*
D03*
Y414129D02*
D03*
Y412554D02*
D03*
Y410980D02*
D03*
Y409405D02*
D03*
Y407830D02*
D03*
X280754D02*
D03*
Y409405D02*
D03*
Y410980D02*
D03*
Y412554D02*
D03*
Y414129D02*
D03*
Y415704D02*
D03*
Y417279D02*
D03*
Y418854D02*
D03*
Y420428D02*
D03*
Y422003D02*
D03*
Y423578D02*
D03*
Y425153D02*
D03*
M02*
