G04*
G04 #@! TF.GenerationSoftware,Altium Limited,Altium Designer,18.1.7 (191)*
G04*
G04 Layer_Physical_Order=1*
G04 Layer_Color=255*
%FSLAX25Y25*%
%MOIN*%
G70*
G01*
G75*
%ADD10C,0.00984*%
%ADD14C,0.00600*%
%ADD16R,0.02953X0.03740*%
%ADD17R,0.03740X0.02953*%
G04:AMPARAMS|DCode=18|XSize=39.37mil|YSize=35.43mil|CornerRadius=4.43mil|HoleSize=0mil|Usage=FLASHONLY|Rotation=270.000|XOffset=0mil|YOffset=0mil|HoleType=Round|Shape=RoundedRectangle|*
%AMROUNDEDRECTD18*
21,1,0.03937,0.02657,0,0,270.0*
21,1,0.03051,0.03543,0,0,270.0*
1,1,0.00886,-0.01329,-0.01526*
1,1,0.00886,-0.01329,0.01526*
1,1,0.00886,0.01329,0.01526*
1,1,0.00886,0.01329,-0.01526*
%
%ADD18ROUNDEDRECTD18*%
G04:AMPARAMS|DCode=19|XSize=39.37mil|YSize=35.43mil|CornerRadius=4.43mil|HoleSize=0mil|Usage=FLASHONLY|Rotation=0.000|XOffset=0mil|YOffset=0mil|HoleType=Round|Shape=RoundedRectangle|*
%AMROUNDEDRECTD19*
21,1,0.03937,0.02657,0,0,0.0*
21,1,0.03051,0.03543,0,0,0.0*
1,1,0.00886,0.01526,-0.01329*
1,1,0.00886,-0.01526,-0.01329*
1,1,0.00886,-0.01526,0.01329*
1,1,0.00886,0.01526,0.01329*
%
%ADD19ROUNDEDRECTD19*%
%ADD20R,0.07087X0.03937*%
%ADD23R,0.02362X0.01968*%
%ADD24R,0.01968X0.02362*%
%ADD25R,0.01968X0.02559*%
%ADD45R,0.09508X0.20000*%
%ADD46R,0.09016X0.20000*%
%ADD47R,0.19095X0.19095*%
%ADD48C,0.01083*%
%ADD49C,0.02000*%
%ADD50C,0.00591*%
%ADD51C,0.01200*%
%ADD52C,0.03000*%
%ADD53C,0.00571*%
%ADD54R,0.05984X0.05984*%
%ADD55C,0.05984*%
%ADD56C,0.25000*%
%ADD57R,0.11000X0.06000*%
%ADD58O,0.11000X0.06000*%
%ADD59R,0.06000X0.11000*%
%ADD60O,0.06000X0.11000*%
%ADD61C,0.02800*%
%ADD62C,0.02400*%
G36*
X123892Y231900D02*
X126859D01*
Y223544D01*
X101986Y198671D01*
X101522Y197977D01*
X101359Y197158D01*
Y181390D01*
X99831D01*
Y179405D01*
Y177421D01*
X101359D01*
Y170160D01*
X99831D01*
Y168175D01*
Y166191D01*
X101359D01*
Y164675D01*
X101479Y164072D01*
X100542Y163660D01*
X98968D01*
Y161675D01*
X97969D01*
Y163660D01*
X97304D01*
X96327Y163875D01*
X96188Y164577D01*
X96188Y164577D01*
X96123Y164673D01*
Y166291D01*
X95999Y166915D01*
X95646Y167444D01*
X93931Y169159D01*
Y175354D01*
X93931Y175354D01*
X93807Y175978D01*
X93454Y176507D01*
X92173Y177787D01*
X92286Y179000D01*
X96953Y183667D01*
X97307Y184197D01*
X97431Y184821D01*
Y189200D01*
X97307Y189824D01*
X97255Y189902D01*
X97196Y190202D01*
X96798Y190798D01*
X96202Y191196D01*
X95500Y191335D01*
X94798Y191196D01*
X94202Y190798D01*
X93804Y190202D01*
X93740Y189879D01*
X93273Y189538D01*
X92876Y189330D01*
X92687Y189290D01*
X92256Y189375D01*
X80303D01*
X80264Y189396D01*
X79951Y189813D01*
X79870Y190779D01*
X79870D01*
Y192756D01*
X77000D01*
X74130D01*
Y190779D01*
X74130D01*
X74054Y189874D01*
X72945D01*
X72870Y190779D01*
X72870D01*
Y192756D01*
X70000D01*
X67130D01*
Y190779D01*
X67431D01*
X67530Y189821D01*
X67530Y189779D01*
Y185668D01*
X71369D01*
Y185500D01*
X71493Y184876D01*
X71846Y184346D01*
X72782Y183411D01*
X72804Y183298D01*
X73202Y182702D01*
X73798Y182304D01*
X74500Y182165D01*
X75202Y182304D01*
X75798Y182702D01*
X76196Y183298D01*
X76335Y184000D01*
X76202Y184668D01*
X76198Y184706D01*
X76753Y185668D01*
X79470D01*
Y186113D01*
X84911D01*
Y185518D01*
X84992Y185111D01*
X85223Y184766D01*
X85532Y184559D01*
Y182441D01*
X85223Y182234D01*
X84992Y181889D01*
X84911Y181482D01*
Y178825D01*
X84992Y178418D01*
X85223Y178073D01*
X85567Y177842D01*
X85974Y177761D01*
X87585D01*
X90669Y174678D01*
Y168483D01*
X90793Y167859D01*
X91146Y167329D01*
X92657Y165819D01*
X92369Y164819D01*
X91547D01*
Y162638D01*
X91047D01*
Y162138D01*
X89063D01*
Y160457D01*
X89463D01*
Y158005D01*
X88463Y157591D01*
X78649Y167405D01*
X78351Y167604D01*
X78000Y167674D01*
X68588D01*
Y168970D01*
X67887D01*
Y171530D01*
X68332D01*
Y176470D01*
X64179D01*
Y171530D01*
X64625D01*
Y169918D01*
X64348Y169679D01*
X63476Y169370D01*
Y169370D01*
X61500D01*
Y166500D01*
Y163630D01*
X63476D01*
Y163931D01*
X64435Y164030D01*
X64476Y164030D01*
X68588D01*
Y165838D01*
X77620D01*
X90607Y152851D01*
X90905Y152652D01*
X91256Y152582D01*
X92121D01*
X92909Y151795D01*
X92913Y151785D01*
X92882Y150665D01*
X92630Y150288D01*
X92541Y149843D01*
X91809Y149006D01*
X91769Y148987D01*
X88685D01*
X88259Y148903D01*
X87898Y148661D01*
X87182Y147946D01*
X86182Y148361D01*
Y150030D01*
X86628D01*
Y154970D01*
X82516D01*
X82475Y154970D01*
X81516Y155069D01*
Y155370D01*
X79539D01*
Y152500D01*
X79039D01*
Y152000D01*
X76563D01*
Y150131D01*
X76563Y149630D01*
X75770Y149131D01*
X64000D01*
X63376Y149007D01*
X62957Y148727D01*
X62798Y148696D01*
X62202Y148298D01*
X61804Y147702D01*
X61665Y147000D01*
X61804Y146298D01*
X62202Y145702D01*
X62542Y145475D01*
X62239Y144475D01*
X33823D01*
X30702Y147596D01*
Y156916D01*
X30632Y157267D01*
X30433Y157565D01*
X28850Y159149D01*
X28552Y159348D01*
X28201Y159418D01*
X14510D01*
X14507Y159440D01*
X14145Y160316D01*
X13567Y161068D01*
X12815Y161645D01*
X11940Y162007D01*
X11000Y162131D01*
X6000D01*
X5060Y162007D01*
X4526Y161786D01*
X3526Y162293D01*
Y164156D01*
X4526Y164781D01*
X4956Y164603D01*
X6000Y164465D01*
X8000D01*
Y168500D01*
Y172535D01*
X6000D01*
X4956Y172397D01*
X4526Y172219D01*
X3526Y172844D01*
Y174707D01*
X4526Y175214D01*
X5060Y174993D01*
X6000Y174869D01*
X11000D01*
X11940Y174993D01*
X12815Y175355D01*
X13567Y175932D01*
X14145Y176684D01*
X14507Y177560D01*
X14631Y178500D01*
X14507Y179440D01*
X14145Y180315D01*
X13567Y181068D01*
X12815Y181645D01*
X11940Y182007D01*
X11000Y182131D01*
X6000D01*
X5060Y182007D01*
X4526Y181786D01*
X3526Y182292D01*
Y184156D01*
X4526Y184781D01*
X4956Y184603D01*
X6000Y184466D01*
X8000D01*
Y188500D01*
Y192534D01*
X6000D01*
X4956Y192397D01*
X4526Y192219D01*
X3526Y192844D01*
Y194708D01*
X4526Y195214D01*
X5060Y194993D01*
X6000Y194869D01*
X11000D01*
X11940Y194993D01*
X12815Y195355D01*
X13567Y195932D01*
X14145Y196685D01*
X14221Y196869D01*
X29783D01*
X29842Y196567D01*
X30073Y196222D01*
X30418Y195992D01*
X30825Y195911D01*
X33482D01*
X33889Y195992D01*
X34234Y196222D01*
X34441Y196531D01*
X36559D01*
X36766Y196222D01*
X37111Y195992D01*
X37518Y195911D01*
X40175D01*
X40582Y195992D01*
X40927Y196222D01*
X41158Y196567D01*
X41217Y196869D01*
X52824D01*
X59113Y190580D01*
Y176470D01*
X58668D01*
Y171530D01*
X62821D01*
Y176470D01*
X62375D01*
Y191256D01*
X62251Y191880D01*
X61898Y192409D01*
X54654Y199653D01*
X54124Y200007D01*
X53500Y200131D01*
X41217D01*
X41158Y200432D01*
X40927Y200778D01*
X40582Y201008D01*
X40175Y201089D01*
X37518D01*
X37111Y201008D01*
X36766Y200778D01*
X36559Y200468D01*
X34441D01*
X34234Y200778D01*
X33889Y201008D01*
X33482Y201089D01*
X30825D01*
X30418Y201008D01*
X30073Y200778D01*
X29842Y200432D01*
X29783Y200131D01*
X14221D01*
X14145Y200315D01*
X13567Y201068D01*
X12815Y201645D01*
X11940Y202007D01*
X11000Y202131D01*
X6000D01*
X5060Y202007D01*
X4526Y201786D01*
X3526Y202292D01*
Y204156D01*
X4526Y204781D01*
X4956Y204603D01*
X6000Y204466D01*
X8000D01*
Y208500D01*
Y212534D01*
X6000D01*
X4956Y212397D01*
X4526Y212219D01*
X3526Y212844D01*
Y214900D01*
X14600D01*
Y222100D01*
X3526D01*
Y251474D01*
X22977D01*
X23176Y250474D01*
X22534Y250208D01*
X20776Y249131D01*
X19208Y247792D01*
X17869Y246224D01*
X16792Y244466D01*
X16003Y242561D01*
X15521Y240556D01*
X15360Y238500D01*
X15521Y236444D01*
X16003Y234439D01*
X16792Y232534D01*
X17869Y230776D01*
X19208Y229208D01*
X20776Y227869D01*
X22534Y226792D01*
X24439Y226003D01*
X26444Y225521D01*
X28500Y225360D01*
X30556Y225521D01*
X32561Y226003D01*
X34466Y226792D01*
X36224Y227869D01*
X37792Y229208D01*
X39131Y230776D01*
X40208Y232534D01*
X40997Y234439D01*
X41479Y236444D01*
X41640Y238500D01*
X41479Y240556D01*
X40997Y242561D01*
X40208Y244466D01*
X39131Y246224D01*
X37792Y247792D01*
X36224Y249131D01*
X34466Y250208D01*
X33824Y250474D01*
X34023Y251474D01*
X105992D01*
Y243000D01*
X111746D01*
X117500D01*
Y251474D01*
X123892D01*
Y231900D01*
D02*
G37*
G36*
X203474Y222500D02*
X199000D01*
Y218500D01*
Y214500D01*
X203474D01*
Y212293D01*
X202474Y211786D01*
X201940Y212007D01*
X201000Y212131D01*
X196000D01*
X195060Y212007D01*
X194185Y211645D01*
X193432Y211068D01*
X192855Y210315D01*
X192779Y210131D01*
X133586D01*
X132961Y210007D01*
X132432Y209653D01*
X114497Y191718D01*
X114383Y191696D01*
X113788Y191298D01*
X113390Y190702D01*
X113251Y190000D01*
X113390Y189298D01*
X113788Y188702D01*
X114383Y188304D01*
X114804Y187202D01*
X114665Y186500D01*
X114804Y185798D01*
X115202Y185202D01*
X115343Y185108D01*
X115372Y185018D01*
X115292Y183963D01*
X115045Y183798D01*
X114647Y183202D01*
X114507Y182500D01*
X114647Y181798D01*
X115045Y181202D01*
X115640Y180804D01*
X116342Y180665D01*
X117045Y180804D01*
X117141Y180869D01*
X118909D01*
X119533Y180993D01*
X120062Y181346D01*
X130584Y191869D01*
X164824D01*
X179422Y177270D01*
X179369Y177000D01*
Y172000D01*
X179493Y171376D01*
X179847Y170846D01*
X183346Y167347D01*
X183876Y166993D01*
X184500Y166869D01*
X192779D01*
X192855Y166684D01*
X193432Y165932D01*
X194185Y165355D01*
X195060Y164993D01*
X196000Y164869D01*
X201000D01*
X201940Y164993D01*
X202474Y165214D01*
X203474Y164708D01*
Y162844D01*
X202474Y162219D01*
X202044Y162397D01*
X201000Y162534D01*
X199000D01*
Y158500D01*
Y154465D01*
X201000D01*
X202044Y154603D01*
X202474Y154781D01*
X203474Y154156D01*
Y152293D01*
X202474Y151786D01*
X201940Y152007D01*
X201000Y152131D01*
X196000D01*
X195060Y152007D01*
X194185Y151645D01*
X193432Y151068D01*
X192855Y150315D01*
X192493Y149440D01*
X192369Y148500D01*
X192493Y147560D01*
X192855Y146685D01*
X193432Y145932D01*
X194185Y145355D01*
X195060Y144993D01*
X196000Y144869D01*
X201000D01*
X201940Y144993D01*
X202474Y145214D01*
X203474Y144708D01*
Y142844D01*
X202474Y142219D01*
X202044Y142397D01*
X201000Y142534D01*
X199000D01*
Y138500D01*
Y134466D01*
X201000D01*
X202044Y134603D01*
X202474Y134781D01*
X203474Y134156D01*
Y132844D01*
X202474Y132219D01*
X202044Y132397D01*
X201000Y132535D01*
X199000D01*
Y128500D01*
Y124466D01*
X201000D01*
X202044Y124603D01*
X202474Y124781D01*
X203474Y124156D01*
Y122292D01*
X202474Y121786D01*
X201940Y122007D01*
X201000Y122131D01*
X196000D01*
X195060Y122007D01*
X194185Y121645D01*
X193432Y121068D01*
X192855Y120316D01*
X192493Y119440D01*
X192369Y118500D01*
X192493Y117560D01*
X192855Y116684D01*
X193432Y115932D01*
X194185Y115355D01*
X195060Y114993D01*
X196000Y114869D01*
X201000D01*
X201940Y114993D01*
X202474Y115214D01*
X203474Y114708D01*
Y112293D01*
X202474Y111786D01*
X201940Y112007D01*
X201000Y112131D01*
X196000D01*
X195060Y112007D01*
X194185Y111645D01*
X193432Y111068D01*
X192855Y110316D01*
X192493Y109440D01*
X192369Y108500D01*
X192493Y107560D01*
X192855Y106685D01*
X193432Y105932D01*
X194185Y105355D01*
X195060Y104993D01*
X196000Y104869D01*
X201000D01*
X201940Y104993D01*
X202474Y105214D01*
X203474Y104708D01*
Y102293D01*
X202474Y101786D01*
X201940Y102007D01*
X201000Y102131D01*
X196000D01*
X195060Y102007D01*
X194185Y101645D01*
X193432Y101068D01*
X192855Y100315D01*
X192493Y99440D01*
X192369Y98500D01*
X192493Y97560D01*
X192855Y96684D01*
X193432Y95932D01*
X194185Y95355D01*
X195060Y94993D01*
X196000Y94869D01*
X201000D01*
X201940Y94993D01*
X202474Y95214D01*
X203474Y94708D01*
Y92292D01*
X202474Y91786D01*
X201940Y92007D01*
X201000Y92131D01*
X196000D01*
X195060Y92007D01*
X194185Y91645D01*
X193432Y91068D01*
X192855Y90316D01*
X192779Y90131D01*
X184235D01*
X175654Y98713D01*
X175124Y99067D01*
X174925Y99107D01*
X174702Y99255D01*
X174000Y99395D01*
X173298Y99255D01*
X172702Y98857D01*
X172418Y98431D01*
X171633Y98516D01*
X171418Y98598D01*
Y139000D01*
X171348Y139351D01*
X171149Y139649D01*
X148149Y162649D01*
X147851Y162848D01*
X147500Y162918D01*
X122500D01*
X122149Y162848D01*
X121851Y162649D01*
X114709Y155507D01*
X114511Y155209D01*
X114441Y154858D01*
Y153684D01*
X114308Y153509D01*
X113441Y152965D01*
X113390Y152975D01*
X112944Y152886D01*
X112406Y152692D01*
X111867Y152886D01*
X111421Y152975D01*
X111316Y152954D01*
X110823Y153875D01*
X115161Y158214D01*
X115349Y158494D01*
X115958D01*
Y162031D01*
X116358D01*
Y163713D01*
X114374D01*
Y164213D01*
X113874D01*
Y166394D01*
X112819D01*
X112653Y167394D01*
X113761Y168502D01*
X143039D01*
X146828Y164713D01*
X147190Y164471D01*
X147616Y164386D01*
X154408D01*
Y161908D01*
X161592D01*
Y169092D01*
X154408D01*
Y166613D01*
X148077D01*
X144967Y169723D01*
X144335Y170393D01*
X144967Y171063D01*
X148290Y174387D01*
X154573D01*
X154862Y173688D01*
X155438Y172938D01*
X156188Y172362D01*
X157062Y172000D01*
X158000Y171877D01*
X158938Y172000D01*
X159812Y172362D01*
X160562Y172938D01*
X161138Y173688D01*
X161500Y174562D01*
X161623Y175500D01*
X161500Y176438D01*
X161138Y177312D01*
X160562Y178062D01*
X159812Y178638D01*
X158938Y179000D01*
X158000Y179123D01*
X157062Y179000D01*
X156188Y178638D01*
X155438Y178062D01*
X154862Y177312D01*
X154573Y176613D01*
X147829D01*
X147403Y176529D01*
X147042Y176287D01*
X143039Y172284D01*
X112656D01*
X112656Y172284D01*
X112230Y172200D01*
X111869Y171958D01*
X111869Y171958D01*
X109079Y169168D01*
X108837Y168807D01*
X108753Y168381D01*
Y162996D01*
X107779Y162933D01*
Y162933D01*
X106064D01*
X105503Y163817D01*
X105493Y163933D01*
X105641Y164675D01*
Y196271D01*
X130514Y221144D01*
X130978Y221838D01*
X131141Y222657D01*
Y231900D01*
X134108D01*
Y251474D01*
X140500D01*
Y243000D01*
X146254D01*
X152008D01*
Y251474D01*
X172977D01*
X173176Y250474D01*
X172534Y250208D01*
X170776Y249131D01*
X169208Y247792D01*
X167869Y246224D01*
X166792Y244466D01*
X166003Y242561D01*
X165521Y240556D01*
X165359Y238500D01*
X165521Y236444D01*
X166003Y234439D01*
X166792Y232534D01*
X167869Y230776D01*
X169208Y229208D01*
X170776Y227869D01*
X172534Y226792D01*
X174439Y226003D01*
X176444Y225521D01*
X178500Y225360D01*
X180556Y225521D01*
X182561Y226003D01*
X184466Y226792D01*
X186224Y227869D01*
X187792Y229208D01*
X189131Y230776D01*
X190208Y232534D01*
X190997Y234439D01*
X191479Y236444D01*
X191640Y238500D01*
X191479Y240556D01*
X190997Y242561D01*
X190208Y244466D01*
X189131Y246224D01*
X187792Y247792D01*
X186224Y249131D01*
X184466Y250208D01*
X183824Y250474D01*
X184023Y251474D01*
X203474D01*
Y222500D01*
D02*
G37*
G36*
X192855Y206684D02*
X193432Y205932D01*
X194185Y205355D01*
X195060Y204993D01*
X196000Y204869D01*
X201000D01*
X201940Y204993D01*
X202474Y205214D01*
X203474Y204708D01*
Y202292D01*
X202474Y201786D01*
X201940Y202007D01*
X201000Y202131D01*
X196000D01*
X195060Y202007D01*
X194185Y201645D01*
X193432Y201068D01*
X192855Y200315D01*
X192779Y200131D01*
X128938D01*
X128524Y201131D01*
X134262Y206869D01*
X192779D01*
X192855Y206684D01*
D02*
G37*
G36*
Y196685D02*
X193432Y195932D01*
X194185Y195355D01*
X195060Y194993D01*
X196000Y194869D01*
X201000D01*
X201940Y194993D01*
X202474Y195214D01*
X203474Y194708D01*
Y192844D01*
X202474Y192219D01*
X202044Y192397D01*
X201000Y192534D01*
X199000D01*
Y188500D01*
Y184466D01*
X201000D01*
X202044Y184603D01*
X202474Y184781D01*
X203474Y184156D01*
Y182292D01*
X202474Y181786D01*
X201940Y182007D01*
X201000Y182131D01*
X196000D01*
X195060Y182007D01*
X194185Y181645D01*
X193432Y181068D01*
X192855Y180315D01*
X192779Y180131D01*
X182500D01*
X181876Y180007D01*
X181530Y179777D01*
X166654Y194653D01*
X166124Y195007D01*
X165500Y195131D01*
X129909D01*
X129284Y195007D01*
X128755Y194653D01*
X118852Y184750D01*
X118721Y184783D01*
X118196Y185798D01*
X118218Y185911D01*
X129176Y196869D01*
X192779D01*
X192855Y196685D01*
D02*
G37*
G36*
X28867Y156536D02*
Y147215D01*
X28937Y146864D01*
X29136Y146567D01*
X32794Y142909D01*
X33091Y142710D01*
X33443Y142640D01*
X73914D01*
X74266Y142710D01*
X74484Y142856D01*
X75516D01*
X75734Y142710D01*
X76086Y142640D01*
X78335D01*
Y142173D01*
X80516D01*
Y141173D01*
X78335D01*
Y139933D01*
X30364D01*
X21149Y149149D01*
X20851Y149348D01*
X20500Y149418D01*
X14510D01*
X14507Y149440D01*
X14145Y150315D01*
X13567Y151068D01*
X12815Y151645D01*
X11940Y152007D01*
X11000Y152131D01*
X6000D01*
X5060Y152007D01*
X4526Y151786D01*
X3526Y152293D01*
Y154708D01*
X4526Y155214D01*
X5060Y154993D01*
X6000Y154869D01*
X11000D01*
X11940Y154993D01*
X12815Y155355D01*
X13567Y155932D01*
X14145Y156685D01*
X14507Y157560D01*
X14510Y157582D01*
X27821D01*
X28867Y156536D01*
D02*
G37*
G36*
X168082Y138120D02*
Y75380D01*
X165300Y72598D01*
X164298Y72298D01*
X163702Y72696D01*
X163478Y72740D01*
Y73760D01*
X163702Y73804D01*
X164298Y74202D01*
X164696Y74798D01*
X164835Y75500D01*
X164696Y76202D01*
X164298Y76798D01*
X163918Y77052D01*
Y135091D01*
X163848Y135442D01*
X163649Y135740D01*
X149593Y149795D01*
X149296Y149994D01*
X148945Y150064D01*
X126715D01*
X126532Y150212D01*
X126007Y151064D01*
X126019Y151122D01*
Y152412D01*
X126170Y152524D01*
X127168Y152530D01*
Y152530D01*
X131280D01*
X131321Y152530D01*
X132280Y152431D01*
Y152130D01*
X134256D01*
Y155000D01*
Y157870D01*
X132280D01*
Y157569D01*
X131321Y157470D01*
X131280Y157470D01*
X127168D01*
Y156223D01*
X125240D01*
X125176Y156211D01*
X124709Y156304D01*
X124006Y156164D01*
X123411Y155766D01*
X123013Y155171D01*
X122873Y154469D01*
X123013Y153766D01*
X123411Y153171D01*
X123609Y153039D01*
X123468Y152039D01*
X120378D01*
X119952Y151954D01*
X119591Y151713D01*
X119466Y151588D01*
X118994Y151696D01*
X118455Y151991D01*
X118402Y152256D01*
X118244Y152492D01*
Y154120D01*
X123872Y159748D01*
X146455D01*
X168082Y138120D01*
D02*
G37*
G36*
X92006Y136981D02*
X92551Y136114D01*
X92541Y136063D01*
X92630Y135618D01*
X92882Y135240D01*
Y134917D01*
X92630Y134540D01*
X92541Y134095D01*
X92630Y133649D01*
X92882Y133272D01*
X93259Y133019D01*
X93709Y131993D01*
X93709Y131988D01*
X93680Y131939D01*
X93526Y131777D01*
X93165Y131535D01*
X90528Y128898D01*
X90311Y128942D01*
X89608Y128802D01*
X89013Y128404D01*
X88890Y128220D01*
X85374D01*
X85372Y128220D01*
X85101Y128548D01*
X84870Y129453D01*
X84870D01*
Y131429D01*
X82000D01*
X79130D01*
Y129453D01*
X79431D01*
X79530Y128494D01*
X79530Y128453D01*
Y124341D01*
X84470D01*
Y125993D01*
X88890D01*
X89013Y125809D01*
X89608Y125411D01*
X90311Y125271D01*
X91013Y125411D01*
X91608Y125809D01*
X92006Y126404D01*
X92146Y127106D01*
X92103Y127324D01*
X93567Y128788D01*
X93926Y128767D01*
X94727Y128534D01*
X94850Y128350D01*
X94814Y127981D01*
X94649Y127282D01*
X94355Y127086D01*
X90087Y122818D01*
X90000Y122835D01*
X89298Y122696D01*
X88702Y122298D01*
X88653Y122223D01*
X87478D01*
X87010Y122130D01*
X86613Y121865D01*
X84635Y119887D01*
X84370Y119490D01*
X84276Y119022D01*
Y116772D01*
X83030D01*
Y116327D01*
X79195D01*
X78599Y116208D01*
X64958Y129849D01*
Y133173D01*
X64834Y133798D01*
X64751Y133921D01*
X64696Y134202D01*
X64364Y134698D01*
X64479Y135158D01*
X64750Y135698D01*
X89190D01*
X89541Y135768D01*
X89839Y135967D01*
X90986Y137114D01*
X91831D01*
X92006Y136981D01*
D02*
G37*
G36*
X61521Y135158D02*
X61636Y134698D01*
X61304Y134202D01*
X61165Y133500D01*
X61304Y132798D01*
X61695Y132212D01*
Y129173D01*
X61820Y128549D01*
X62173Y128020D01*
X76869Y113324D01*
Y99424D01*
X76804Y99328D01*
X76665Y98626D01*
X76804Y97923D01*
X76808Y97918D01*
X76274Y96918D01*
X59880D01*
X47649Y109149D01*
X47351Y109348D01*
X47000Y109418D01*
X14510D01*
X14507Y109440D01*
X14145Y110316D01*
X13567Y111068D01*
X12815Y111645D01*
X11940Y112007D01*
X11000Y112131D01*
X6000D01*
X5060Y112007D01*
X4526Y111786D01*
X3526Y112293D01*
Y114708D01*
X4526Y115214D01*
X5060Y114993D01*
X6000Y114869D01*
X11000D01*
X11940Y114993D01*
X12815Y115355D01*
X13567Y115932D01*
X14145Y116684D01*
X14507Y117560D01*
X14631Y118500D01*
X14507Y119440D01*
X14145Y120316D01*
X13567Y121068D01*
X12815Y121645D01*
X11940Y122007D01*
X11000Y122131D01*
X6000D01*
X5060Y122007D01*
X4526Y121786D01*
X3526Y122292D01*
Y124707D01*
X4526Y125214D01*
X5060Y124993D01*
X6000Y124869D01*
X11000D01*
X11940Y124993D01*
X12815Y125355D01*
X13567Y125932D01*
X14145Y126684D01*
X14507Y127560D01*
X14510Y127582D01*
X22000D01*
X22351Y127652D01*
X22649Y127851D01*
X30496Y135698D01*
X61250D01*
X61521Y135158D01*
D02*
G37*
G36*
X95060Y122916D02*
X95052Y122874D01*
Y118668D01*
X93216Y116832D01*
X90530D01*
Y112721D01*
X90530Y112680D01*
X90431Y111721D01*
X90130D01*
Y109744D01*
X95870D01*
Y111721D01*
X95569D01*
X95470Y112680D01*
X95470Y112721D01*
Y115585D01*
X96230Y116206D01*
X97103Y115844D01*
Y113455D01*
X97172Y113109D01*
X97368Y112816D01*
X98584Y111600D01*
X98321Y110965D01*
X98321D01*
Y105853D01*
X98216D01*
Y104368D01*
X100398D01*
Y103868D01*
X100898D01*
Y101884D01*
X102579D01*
Y102284D01*
X106116D01*
Y105453D01*
X106608Y105828D01*
X106608D01*
Y109758D01*
X107673D01*
Y111439D01*
X106189D01*
Y110965D01*
X101773D01*
X98909Y113829D01*
Y115670D01*
X106589D01*
Y114120D01*
X106189D01*
Y112439D01*
X108173D01*
Y111939D01*
X108673D01*
Y109758D01*
X110158D01*
X110568Y108928D01*
Y100339D01*
X110542Y100300D01*
X110508Y100129D01*
X107297Y96918D01*
X80726D01*
X80192Y97918D01*
X80196Y97923D01*
X80335Y98626D01*
X80196Y99328D01*
X80131Y99424D01*
Y113064D01*
X82197D01*
X82236Y113043D01*
X82549Y112627D01*
X82630Y111660D01*
X82630D01*
Y109684D01*
X88370D01*
Y111660D01*
X88069D01*
X87970Y112619D01*
X87970Y112660D01*
Y116772D01*
X86724D01*
Y118515D01*
X87756Y119548D01*
X88702Y119702D01*
X89298Y119304D01*
X90000Y119165D01*
X90702Y119304D01*
X91298Y119702D01*
X91696Y120298D01*
X91835Y121000D01*
X91818Y121088D01*
X94138Y123408D01*
X95060Y122916D01*
D02*
G37*
G36*
X125992Y132687D02*
X126125Y132182D01*
X125804Y131702D01*
X125665Y131000D01*
X125804Y130298D01*
X126202Y129702D01*
X126798Y129304D01*
X127500Y129165D01*
X128202Y129304D01*
X128298Y129369D01*
X134824D01*
X136369Y127824D01*
Y111676D01*
X135320Y110627D01*
X124962D01*
Y114850D01*
X125026Y114946D01*
X125166Y115648D01*
X125119Y115885D01*
X125682Y116806D01*
X126279Y116738D01*
Y116630D01*
X128256D01*
Y119500D01*
Y122370D01*
X126279D01*
Y122069D01*
X125320Y121970D01*
X125279Y121970D01*
X122324D01*
X118547Y125747D01*
X118795Y126211D01*
Y128189D01*
X119295D01*
Y128689D01*
X120767D01*
X120747Y128790D01*
X120406Y129300D01*
X120335Y129659D01*
X120370Y129712D01*
X120459Y130157D01*
X120370Y130603D01*
X120176Y131142D01*
X120370Y131681D01*
X120459Y132126D01*
X120448Y132182D01*
X120989Y133046D01*
X121165Y133182D01*
X125725D01*
X125992Y132687D01*
D02*
G37*
G36*
X156082Y135620D02*
Y99870D01*
X155344Y99354D01*
X155082Y99279D01*
X154500Y99395D01*
X153798Y99255D01*
X153702Y99191D01*
X149743D01*
X149647Y99255D01*
X148945Y99395D01*
X148242Y99255D01*
X147918Y99038D01*
X147030Y99385D01*
X146918Y99481D01*
Y132000D01*
X146848Y132351D01*
X146649Y132649D01*
X140617Y138680D01*
X140320Y138879D01*
X139969Y138949D01*
X137232D01*
Y141000D01*
X134756D01*
Y142000D01*
X137232D01*
Y144370D01*
X138144Y144582D01*
X147120D01*
X156082Y135620D01*
D02*
G37*
G36*
X137702Y88702D02*
X138298Y88304D01*
X139000Y88165D01*
X139582Y88281D01*
X139844Y88205D01*
X140582Y87690D01*
Y77385D01*
X140339Y77202D01*
X139582Y76942D01*
X139202Y77196D01*
X138500Y77335D01*
X137798Y77196D01*
X137202Y76798D01*
X136948Y76418D01*
X121752D01*
X121696Y76702D01*
X121298Y77298D01*
X120702Y77696D01*
X120000Y77835D01*
X119298Y77696D01*
X118308Y78237D01*
Y87521D01*
X119308Y88203D01*
X119500Y88165D01*
X120202Y88304D01*
X120798Y88702D01*
X121052Y89082D01*
X137448D01*
X137702Y88702D01*
D02*
G37*
G36*
X38798Y91696D02*
X38202Y91298D01*
X37804Y90702D01*
X37665Y90000D01*
X37804Y89298D01*
X38202Y88702D01*
X38798Y88304D01*
X39500Y88165D01*
X40202Y88304D01*
X40798Y88702D01*
X41052Y89082D01*
X77462D01*
X77544Y88867D01*
X77628Y88082D01*
X77202Y87798D01*
X76804Y87202D01*
X76790Y87131D01*
X38500D01*
X37876Y87007D01*
X37347Y86654D01*
X24847Y74154D01*
X24493Y73624D01*
X24369Y73000D01*
Y34176D01*
X20324Y30131D01*
X14221D01*
X14145Y30316D01*
X13567Y31067D01*
X12815Y31645D01*
X11940Y32007D01*
X11000Y32131D01*
X6000D01*
X5060Y32007D01*
X4526Y31786D01*
X3526Y32293D01*
Y34707D01*
X4526Y35214D01*
X5060Y34993D01*
X6000Y34869D01*
X11000D01*
X11940Y34993D01*
X12815Y35355D01*
X13567Y35932D01*
X14145Y36685D01*
X14507Y37560D01*
X14631Y38500D01*
X14507Y39440D01*
X14145Y40315D01*
X13567Y41067D01*
X12815Y41645D01*
X11940Y42007D01*
X11000Y42131D01*
X6000D01*
X5060Y42007D01*
X4526Y41786D01*
X3526Y42292D01*
Y44708D01*
X4526Y45214D01*
X5060Y44993D01*
X6000Y44869D01*
X11000D01*
X11940Y44993D01*
X12815Y45355D01*
X13567Y45932D01*
X14145Y46685D01*
X14507Y47560D01*
X14631Y48500D01*
X14507Y49440D01*
X14145Y50315D01*
X13567Y51068D01*
X12815Y51645D01*
X11940Y52007D01*
X11000Y52131D01*
X6000D01*
X5060Y52007D01*
X4526Y51786D01*
X3526Y52293D01*
Y54707D01*
X4526Y55214D01*
X5060Y54993D01*
X6000Y54869D01*
X11000D01*
X11940Y54993D01*
X12815Y55355D01*
X13567Y55932D01*
X14145Y56684D01*
X14507Y57560D01*
X14631Y58500D01*
X14507Y59440D01*
X14145Y60316D01*
X13567Y61068D01*
X12815Y61645D01*
X11940Y62007D01*
X11000Y62131D01*
X6000D01*
X5060Y62007D01*
X4526Y61786D01*
X3526Y62292D01*
Y64156D01*
X4526Y64781D01*
X4956Y64603D01*
X6000Y64465D01*
X8000D01*
Y68500D01*
Y72535D01*
X6000D01*
X4956Y72397D01*
X4526Y72219D01*
X3526Y72844D01*
Y74156D01*
X4526Y74781D01*
X4956Y74603D01*
X6000Y74466D01*
X8000D01*
Y78500D01*
Y82534D01*
X6000D01*
X4956Y82397D01*
X4526Y82219D01*
X3526Y82844D01*
Y84707D01*
X4526Y85214D01*
X5060Y84993D01*
X6000Y84869D01*
X11000D01*
X11940Y84993D01*
X12815Y85355D01*
X13567Y85932D01*
X14145Y86685D01*
X14507Y87560D01*
X14510Y87582D01*
X21000D01*
X21351Y87652D01*
X21649Y87851D01*
X26480Y92682D01*
X38633D01*
X38798Y91696D01*
D02*
G37*
G36*
X110949Y84148D02*
X111768Y83855D01*
Y71436D01*
X110768Y71337D01*
X110696Y71702D01*
X110298Y72298D01*
X109702Y72696D01*
X109000Y72835D01*
X108298Y72696D01*
X107702Y72298D01*
X107448Y71918D01*
X64000D01*
X63649Y71848D01*
X63351Y71649D01*
X47851Y56149D01*
X47652Y55851D01*
X47582Y55500D01*
Y14510D01*
X47560Y14507D01*
X46685Y14145D01*
X45932Y13567D01*
X45355Y12815D01*
X44993Y11940D01*
X44869Y11000D01*
Y6000D01*
X44993Y5060D01*
X45214Y4526D01*
X44708Y3526D01*
X42292D01*
X41786Y4526D01*
X42007Y5060D01*
X42131Y6000D01*
Y11000D01*
X42007Y11940D01*
X41645Y12815D01*
X41067Y13567D01*
X40315Y14145D01*
X39440Y14507D01*
X39418Y14510D01*
Y59620D01*
X54880Y75082D01*
X107310D01*
X107564Y74702D01*
X108160Y74304D01*
X108862Y74165D01*
X109564Y74304D01*
X110160Y74702D01*
X110558Y75298D01*
X110697Y76000D01*
X110558Y76702D01*
X110160Y77298D01*
X109564Y77696D01*
X108862Y77835D01*
X108160Y77696D01*
X107564Y77298D01*
X107310Y76918D01*
X54500D01*
X54149Y76848D01*
X53851Y76649D01*
X37851Y60649D01*
X37652Y60351D01*
X37582Y60000D01*
Y14510D01*
X37560Y14507D01*
X36685Y14145D01*
X35932Y13567D01*
X35355Y12815D01*
X34993Y11940D01*
X34869Y11000D01*
Y6000D01*
X34993Y5060D01*
X35214Y4526D01*
X34707Y3526D01*
X32293D01*
X31786Y4526D01*
X32007Y5060D01*
X32131Y6000D01*
Y11000D01*
X32007Y11940D01*
X31645Y12815D01*
X31067Y13567D01*
X30316Y14145D01*
X29440Y14507D01*
X28500Y14631D01*
X27560Y14507D01*
X26684Y14145D01*
X25932Y13567D01*
X25355Y12815D01*
X24993Y11940D01*
X24869Y11000D01*
Y6000D01*
X24993Y5060D01*
X25214Y4526D01*
X24708Y3526D01*
X22293D01*
X21786Y4526D01*
X22007Y5060D01*
X22131Y6000D01*
Y11000D01*
X22007Y11940D01*
X21645Y12815D01*
X21068Y13567D01*
X20315Y14145D01*
X19440Y14507D01*
X18500Y14631D01*
X17560Y14507D01*
X16684Y14145D01*
X15933Y13567D01*
X15355Y12815D01*
X14993Y11940D01*
X14869Y11000D01*
Y6000D01*
X14993Y5060D01*
X15214Y4526D01*
X14707Y3526D01*
X12500D01*
Y8000D01*
X8500D01*
Y8500D01*
X8000D01*
Y15000D01*
X4500D01*
Y15000D01*
X3526Y15062D01*
Y24708D01*
X4526Y25214D01*
X5060Y24993D01*
X6000Y24869D01*
X11000D01*
X11940Y24993D01*
X12815Y25355D01*
X13567Y25932D01*
X14145Y26684D01*
X14221Y26869D01*
X21000D01*
X21624Y26993D01*
X22153Y27347D01*
X27154Y32346D01*
X27507Y32876D01*
X27631Y33500D01*
Y72324D01*
X39176Y83869D01*
X108702D01*
X108798Y83804D01*
X109500Y83665D01*
X110202Y83804D01*
X110768Y84183D01*
X110949Y84148D01*
D02*
G37*
G36*
X172702Y96262D02*
X173298Y95864D01*
X174000Y95724D01*
X174023Y95729D01*
X182406Y87347D01*
X182935Y86993D01*
X183560Y86869D01*
X192779D01*
X192855Y86685D01*
X193432Y85932D01*
X194185Y85355D01*
X195060Y84993D01*
X196000Y84869D01*
X201000D01*
X201940Y84993D01*
X202474Y85214D01*
X203474Y84707D01*
Y82292D01*
X202474Y81786D01*
X201940Y82007D01*
X201000Y82131D01*
X196000D01*
X195060Y82007D01*
X194185Y81645D01*
X193432Y81068D01*
X192855Y80316D01*
X192493Y79440D01*
X192369Y78500D01*
X192493Y77560D01*
X192855Y76684D01*
X193432Y75932D01*
X194185Y75355D01*
X195060Y74993D01*
X196000Y74869D01*
X201000D01*
X201940Y74993D01*
X202474Y75214D01*
X203474Y74708D01*
Y72844D01*
X202474Y72219D01*
X202044Y72397D01*
X201000Y72535D01*
X199000D01*
Y68500D01*
Y64465D01*
X201000D01*
X202044Y64603D01*
X202474Y64781D01*
X203474Y64156D01*
Y62844D01*
X202474Y62219D01*
X202044Y62397D01*
X201000Y62534D01*
X199000D01*
Y58500D01*
Y54466D01*
X201000D01*
X202044Y54603D01*
X202474Y54781D01*
X203474Y54156D01*
Y52293D01*
X202474Y51786D01*
X201940Y52007D01*
X201000Y52131D01*
X196000D01*
X195060Y52007D01*
X194185Y51645D01*
X193432Y51068D01*
X192855Y50315D01*
X192493Y49440D01*
X192490Y49418D01*
X171280D01*
X160318Y60380D01*
Y66633D01*
X161304Y66798D01*
X161702Y66202D01*
X162298Y65804D01*
X163000Y65665D01*
X163702Y65804D01*
X164298Y66202D01*
X164552Y66582D01*
X166500D01*
X166851Y66652D01*
X167149Y66851D01*
X171149Y70851D01*
X171348Y71149D01*
X171418Y71500D01*
Y96522D01*
X171633Y96603D01*
X172418Y96688D01*
X172702Y96262D01*
D02*
G37*
G36*
X153202Y66202D02*
X153798Y65804D01*
X154500Y65665D01*
X155082Y65781D01*
X155344Y65705D01*
X156082Y65190D01*
Y43000D01*
X156152Y42649D01*
X156351Y42351D01*
X170851Y27851D01*
X171149Y27652D01*
X171500Y27582D01*
X192490D01*
X192493Y27560D01*
X192855Y26684D01*
X193432Y25932D01*
X194185Y25355D01*
X195060Y24993D01*
X196000Y24869D01*
X201000D01*
X201940Y24993D01*
X202474Y25214D01*
X203474Y24708D01*
Y3526D01*
X202292D01*
X201786Y4526D01*
X202007Y5060D01*
X202131Y6000D01*
Y11000D01*
X202007Y11940D01*
X201645Y12815D01*
X201068Y13567D01*
X200315Y14145D01*
X199440Y14507D01*
X198500Y14631D01*
X197560Y14507D01*
X196685Y14145D01*
X195932Y13567D01*
X195355Y12815D01*
X194993Y11940D01*
X194869Y11000D01*
Y6000D01*
X194993Y5060D01*
X195214Y4526D01*
X194708Y3526D01*
X192292D01*
X191786Y4526D01*
X192007Y5060D01*
X192131Y6000D01*
Y11000D01*
X192007Y11940D01*
X191645Y12815D01*
X191068Y13567D01*
X190315Y14145D01*
X189440Y14507D01*
X188500Y14631D01*
X187560Y14507D01*
X186685Y14145D01*
X185932Y13567D01*
X185355Y12815D01*
X184993Y11940D01*
X184869Y11000D01*
Y6000D01*
X184993Y5060D01*
X185214Y4526D01*
X184707Y3526D01*
X182292D01*
X181786Y4526D01*
X182007Y5060D01*
X182131Y6000D01*
Y11000D01*
X182007Y11940D01*
X181645Y12815D01*
X181068Y13567D01*
X180315Y14145D01*
X179440Y14507D01*
X178500Y14631D01*
X177560Y14507D01*
X176684Y14145D01*
X175932Y13567D01*
X175355Y12815D01*
X174993Y11940D01*
X174869Y11000D01*
Y6000D01*
X174993Y5060D01*
X175214Y4526D01*
X174707Y3526D01*
X172292D01*
X171786Y4526D01*
X172007Y5060D01*
X172131Y6000D01*
Y11000D01*
X172007Y11940D01*
X171645Y12815D01*
X171068Y13567D01*
X170316Y14145D01*
X169440Y14507D01*
X168500Y14631D01*
X167560Y14507D01*
X166684Y14145D01*
X165932Y13567D01*
X165355Y12815D01*
X164993Y11940D01*
X164869Y11000D01*
Y6000D01*
X164993Y5060D01*
X165214Y4526D01*
X164708Y3526D01*
X162293D01*
X161786Y4526D01*
X162007Y5060D01*
X162131Y6000D01*
Y11000D01*
X162007Y11940D01*
X161645Y12815D01*
X161068Y13567D01*
X160316Y14145D01*
X159440Y14507D01*
X158500Y14631D01*
X157560Y14507D01*
X156685Y14145D01*
X155932Y13567D01*
X155355Y12815D01*
X154993Y11940D01*
X154869Y11000D01*
Y6000D01*
X154993Y5060D01*
X155214Y4526D01*
X154708Y3526D01*
X152293D01*
X151786Y4526D01*
X152007Y5060D01*
X152131Y6000D01*
Y11000D01*
X152007Y11940D01*
X151645Y12815D01*
X151068Y13567D01*
X150315Y14145D01*
X149440Y14507D01*
X149418Y14510D01*
Y18000D01*
X149348Y18351D01*
X149149Y18649D01*
X145410Y22388D01*
Y65195D01*
X146183Y65725D01*
X146410Y65782D01*
X147000Y65665D01*
X147702Y65804D01*
X148298Y66202D01*
X148552Y66582D01*
X152948D01*
X153202Y66202D01*
D02*
G37*
G36*
X137668D02*
X138263Y65804D01*
X138966Y65665D01*
X139582Y65787D01*
X139720Y65771D01*
X140582Y65213D01*
Y24380D01*
X137851Y21649D01*
X137652Y21351D01*
X137582Y21000D01*
Y14510D01*
X137560Y14507D01*
X136685Y14145D01*
X135932Y13567D01*
X135355Y12815D01*
X134993Y11940D01*
X134869Y11000D01*
Y6000D01*
X134993Y5060D01*
X135214Y4526D01*
X134707Y3526D01*
X132292D01*
X131786Y4526D01*
X132007Y5060D01*
X132131Y6000D01*
Y11000D01*
X132007Y11940D01*
X131645Y12815D01*
X131068Y13567D01*
X130315Y14145D01*
X129440Y14507D01*
X129418Y14510D01*
Y52760D01*
X129348Y53111D01*
X129149Y53409D01*
X118308Y64250D01*
Y65263D01*
X119298Y65804D01*
X120000Y65665D01*
X120702Y65804D01*
X121298Y66202D01*
X121552Y66582D01*
X137414D01*
X137668Y66202D01*
D02*
G37*
G36*
X111768Y67064D02*
Y43313D01*
X110768Y43114D01*
X110208Y44466D01*
X109131Y46224D01*
X107792Y47792D01*
X106224Y49131D01*
X104466Y50208D01*
X102561Y50997D01*
X100556Y51479D01*
X98500Y51640D01*
X96444Y51479D01*
X94439Y50997D01*
X92534Y50208D01*
X90776Y49131D01*
X89208Y47792D01*
X87869Y46224D01*
X86792Y44466D01*
X86003Y42561D01*
X85521Y40556D01*
X85360Y38500D01*
X85521Y36444D01*
X86003Y34439D01*
X86792Y32534D01*
X87869Y30776D01*
X89208Y29208D01*
X90776Y27869D01*
X92534Y26792D01*
X94439Y26003D01*
X96444Y25521D01*
X98500Y25359D01*
X100556Y25521D01*
X102561Y26003D01*
X104466Y26792D01*
X106224Y27869D01*
X107792Y29208D01*
X109131Y30776D01*
X110208Y32534D01*
X110768Y33886D01*
X111768Y33687D01*
Y25660D01*
X108025Y21918D01*
X81516D01*
X81165Y21848D01*
X80867Y21649D01*
X77851Y18633D01*
X77652Y18335D01*
X77582Y17984D01*
Y14510D01*
X77560Y14507D01*
X76684Y14145D01*
X75932Y13567D01*
X75355Y12815D01*
X74993Y11940D01*
X74869Y11000D01*
Y6000D01*
X74993Y5060D01*
X75214Y4526D01*
X74708Y3526D01*
X72293D01*
X71786Y4526D01*
X72007Y5060D01*
X72131Y6000D01*
Y11000D01*
X72007Y11940D01*
X71645Y12815D01*
X71068Y13567D01*
X70315Y14145D01*
X69440Y14507D01*
X68500Y14631D01*
X67560Y14507D01*
X66685Y14145D01*
X65932Y13567D01*
X65355Y12815D01*
X64993Y11940D01*
X64869Y11000D01*
Y6000D01*
X64993Y5060D01*
X65214Y4526D01*
X64707Y3526D01*
X62292D01*
X61786Y4526D01*
X62007Y5060D01*
X62131Y6000D01*
Y11000D01*
X62007Y11940D01*
X61645Y12815D01*
X61068Y13567D01*
X60316Y14145D01*
X59440Y14507D01*
X59418Y14510D01*
Y59864D01*
X66136Y66582D01*
X107448D01*
X107702Y66202D01*
X108298Y65804D01*
X109000Y65665D01*
X109702Y65804D01*
X110298Y66202D01*
X110696Y66798D01*
X110768Y67163D01*
X111768Y67064D01*
D02*
G37*
G36*
X120582Y53297D02*
Y20380D01*
X117851Y17649D01*
X117652Y17351D01*
X117582Y17000D01*
Y14510D01*
X117560Y14507D01*
X116684Y14145D01*
X115932Y13567D01*
X115355Y12815D01*
X114993Y11940D01*
X114869Y11000D01*
Y6000D01*
X114993Y5060D01*
X115214Y4526D01*
X114708Y3526D01*
X112293D01*
X111786Y4526D01*
X112007Y5060D01*
X112131Y6000D01*
Y11000D01*
X112007Y11940D01*
X111645Y12815D01*
X111068Y13567D01*
X110316Y14145D01*
X109440Y14507D01*
X109418Y14510D01*
Y15620D01*
X115639Y21841D01*
X115838Y22139D01*
X115908Y22490D01*
Y56665D01*
X116832Y57048D01*
X120582Y53297D01*
D02*
G37*
G36*
X114073Y23999D02*
Y22870D01*
X107851Y16649D01*
X107652Y16351D01*
X107582Y16000D01*
Y14510D01*
X107560Y14507D01*
X106685Y14145D01*
X105932Y13567D01*
X105355Y12815D01*
X104993Y11940D01*
X104869Y11000D01*
Y6000D01*
X104993Y5060D01*
X105214Y4526D01*
X104708Y3526D01*
X102844D01*
X102219Y4526D01*
X102397Y4956D01*
X102534Y6000D01*
Y8000D01*
X98500D01*
X94466D01*
Y6000D01*
X94603Y4956D01*
X94781Y4526D01*
X94156Y3526D01*
X92844D01*
X92219Y4526D01*
X92397Y4956D01*
X92535Y6000D01*
Y8000D01*
X88500D01*
X84465D01*
Y6000D01*
X84603Y4956D01*
X84781Y4526D01*
X84156Y3526D01*
X82292D01*
X81786Y4526D01*
X82007Y5060D01*
X82131Y6000D01*
Y11000D01*
X82007Y11940D01*
X81645Y12815D01*
X81068Y13567D01*
X80316Y14145D01*
X79440Y14507D01*
X79418Y14510D01*
Y17604D01*
X81896Y20082D01*
X108405D01*
X108757Y20152D01*
X109054Y20351D01*
X113073Y24369D01*
X114073Y23999D01*
D02*
G37*
%LPC*%
G36*
X117500Y242000D02*
X112246D01*
Y231500D01*
X117500D01*
Y242000D01*
D02*
G37*
G36*
X111246D02*
X105992D01*
Y231500D01*
X111246D01*
Y242000D01*
D02*
G37*
G36*
X11000Y212534D02*
X9000D01*
Y209000D01*
X14969D01*
X14897Y209544D01*
X14494Y210517D01*
X13853Y211353D01*
X13017Y211994D01*
X12044Y212397D01*
X11000Y212534D01*
D02*
G37*
G36*
X14969Y208000D02*
X9000D01*
Y204466D01*
X11000D01*
X12044Y204603D01*
X13017Y205006D01*
X13853Y205647D01*
X14494Y206483D01*
X14897Y207456D01*
X14969Y208000D01*
D02*
G37*
G36*
X79870Y195732D02*
X77500D01*
Y193756D01*
X79870D01*
Y195732D01*
D02*
G37*
G36*
X72870D02*
X70500D01*
Y193756D01*
X72870D01*
Y195732D01*
D02*
G37*
G36*
X76500D02*
X74130D01*
Y193756D01*
X76500D01*
Y195732D01*
D02*
G37*
G36*
X69500D02*
X67130D01*
Y193756D01*
X69500D01*
Y195732D01*
D02*
G37*
G36*
X11000Y192534D02*
X9000D01*
Y189000D01*
X14969D01*
X14897Y189544D01*
X14494Y190517D01*
X13853Y191353D01*
X13017Y191994D01*
X12044Y192397D01*
X11000Y192534D01*
D02*
G37*
G36*
X14969Y188000D02*
X9000D01*
Y184466D01*
X11000D01*
X12044Y184603D01*
X13017Y185006D01*
X13853Y185647D01*
X14494Y186483D01*
X14897Y187456D01*
X14969Y188000D01*
D02*
G37*
G36*
X98831Y181390D02*
X97150D01*
Y179905D01*
X98831D01*
Y181390D01*
D02*
G37*
G36*
Y178905D02*
X97150D01*
Y177421D01*
X98831D01*
Y178905D01*
D02*
G37*
G36*
X11000Y172535D02*
X9000D01*
Y169000D01*
X14969D01*
X14897Y169544D01*
X14494Y170517D01*
X13853Y171353D01*
X13017Y171994D01*
X12044Y172397D01*
X11000Y172535D01*
D02*
G37*
G36*
X98831Y170160D02*
X97150D01*
Y168675D01*
X98831D01*
Y170160D01*
D02*
G37*
G36*
X60500Y169370D02*
X58524D01*
Y167000D01*
X60500D01*
Y169370D01*
D02*
G37*
G36*
X98831Y167675D02*
X97150D01*
Y166191D01*
X98831D01*
Y167675D01*
D02*
G37*
G36*
X14969Y168000D02*
X9000D01*
Y164465D01*
X11000D01*
X12044Y164603D01*
X13017Y165006D01*
X13853Y165647D01*
X14494Y166483D01*
X14897Y167456D01*
X14969Y168000D01*
D02*
G37*
G36*
X60500Y166000D02*
X58524D01*
Y163630D01*
X60500D01*
Y166000D01*
D02*
G37*
G36*
X90547Y164819D02*
X89063D01*
Y163138D01*
X90547D01*
Y164819D01*
D02*
G37*
G36*
X78539Y155370D02*
X76563D01*
Y153000D01*
X78539D01*
Y155370D01*
D02*
G37*
G36*
X152008Y242000D02*
X146754D01*
Y231500D01*
X152008D01*
Y242000D01*
D02*
G37*
G36*
X145754D02*
X140500D01*
Y231500D01*
X145754D01*
Y242000D01*
D02*
G37*
G36*
X198000Y222500D02*
X192000D01*
Y219000D01*
X198000D01*
Y222500D01*
D02*
G37*
G36*
Y218000D02*
X192000D01*
Y214500D01*
X198000D01*
Y218000D01*
D02*
G37*
G36*
X116358Y166394D02*
X114874D01*
Y164713D01*
X116358D01*
Y166394D01*
D02*
G37*
G36*
X198000Y162534D02*
X196000D01*
X194956Y162397D01*
X193983Y161994D01*
X193147Y161353D01*
X192506Y160517D01*
X192103Y159544D01*
X192031Y159000D01*
X198000D01*
Y162534D01*
D02*
G37*
G36*
Y158000D02*
X192031D01*
X192103Y157456D01*
X192506Y156483D01*
X193147Y155647D01*
X193983Y155006D01*
X194956Y154603D01*
X196000Y154465D01*
X198000D01*
Y158000D01*
D02*
G37*
G36*
Y142534D02*
X196000D01*
X194956Y142397D01*
X193983Y141994D01*
X193147Y141353D01*
X192506Y140517D01*
X192103Y139544D01*
X192031Y139000D01*
X198000D01*
Y142534D01*
D02*
G37*
G36*
Y138000D02*
X192031D01*
X192103Y137456D01*
X192506Y136483D01*
X193147Y135647D01*
X193983Y135006D01*
X194956Y134603D01*
X196000Y134466D01*
X198000D01*
Y138000D01*
D02*
G37*
G36*
Y132535D02*
X196000D01*
X194956Y132397D01*
X193983Y131994D01*
X193147Y131353D01*
X192506Y130517D01*
X192103Y129544D01*
X192031Y129000D01*
X198000D01*
Y132535D01*
D02*
G37*
G36*
Y128000D02*
X192031D01*
X192103Y127456D01*
X192506Y126483D01*
X193147Y125647D01*
X193983Y125006D01*
X194956Y124603D01*
X196000Y124466D01*
X198000D01*
Y128000D01*
D02*
G37*
G36*
Y192534D02*
X196000D01*
X194956Y192397D01*
X193983Y191994D01*
X193147Y191353D01*
X192506Y190517D01*
X192103Y189544D01*
X192031Y189000D01*
X198000D01*
Y192534D01*
D02*
G37*
G36*
Y188000D02*
X192031D01*
X192103Y187456D01*
X192506Y186483D01*
X193147Y185647D01*
X193983Y185006D01*
X194956Y184603D01*
X196000Y184466D01*
X198000D01*
Y188000D01*
D02*
G37*
G36*
X137232Y157870D02*
X135256D01*
Y155500D01*
X137232D01*
Y157870D01*
D02*
G37*
G36*
Y154500D02*
X135256D01*
Y152130D01*
X137232D01*
Y154500D01*
D02*
G37*
G36*
X84870Y134406D02*
X82500D01*
Y132429D01*
X84870D01*
Y134406D01*
D02*
G37*
G36*
X81500D02*
X79130D01*
Y132429D01*
X81500D01*
Y134406D01*
D02*
G37*
G36*
X95870Y108744D02*
X93500D01*
Y106768D01*
X95870D01*
Y108744D01*
D02*
G37*
G36*
X92500D02*
X90130D01*
Y106768D01*
X92500D01*
Y108744D01*
D02*
G37*
G36*
X88370Y108684D02*
X86000D01*
Y106707D01*
X88370D01*
Y108684D01*
D02*
G37*
G36*
X85000D02*
X82630D01*
Y106707D01*
X85000D01*
Y108684D01*
D02*
G37*
G36*
X99898Y103368D02*
X98216D01*
Y101884D01*
X99898D01*
Y103368D01*
D02*
G37*
G36*
X120767Y127689D02*
X119795D01*
Y126717D01*
X119897Y126737D01*
X120406Y127078D01*
X120747Y127588D01*
X120767Y127689D01*
D02*
G37*
G36*
X131232Y122370D02*
X129256D01*
Y120000D01*
X131232D01*
Y122370D01*
D02*
G37*
G36*
Y119000D02*
X129256D01*
Y116630D01*
X131232D01*
Y119000D01*
D02*
G37*
G36*
X11000Y82534D02*
X9000D01*
Y79000D01*
X14969D01*
X14897Y79544D01*
X14494Y80517D01*
X13853Y81353D01*
X13017Y81994D01*
X12044Y82397D01*
X11000Y82534D01*
D02*
G37*
G36*
X14969Y78000D02*
X9000D01*
Y74466D01*
X11000D01*
X12044Y74603D01*
X13017Y75006D01*
X13853Y75647D01*
X14494Y76483D01*
X14897Y77456D01*
X14969Y78000D01*
D02*
G37*
G36*
X11000Y72535D02*
X9000D01*
Y69000D01*
X14969D01*
X14897Y69544D01*
X14494Y70517D01*
X13853Y71353D01*
X13017Y71994D01*
X12044Y72397D01*
X11000Y72535D01*
D02*
G37*
G36*
X14969Y68000D02*
X9000D01*
Y64465D01*
X11000D01*
X12044Y64603D01*
X13017Y65006D01*
X13853Y65647D01*
X14494Y66483D01*
X14897Y67456D01*
X14969Y68000D01*
D02*
G37*
G36*
X12500Y15000D02*
X9000D01*
Y9000D01*
X12500D01*
Y15000D01*
D02*
G37*
G36*
X198000Y72535D02*
X196000D01*
X194956Y72397D01*
X193983Y71994D01*
X193147Y71353D01*
X192506Y70517D01*
X192103Y69544D01*
X192031Y69000D01*
X198000D01*
Y72535D01*
D02*
G37*
G36*
Y68000D02*
X192031D01*
X192103Y67456D01*
X192506Y66483D01*
X193147Y65647D01*
X193983Y65006D01*
X194956Y64603D01*
X196000Y64465D01*
X198000D01*
Y68000D01*
D02*
G37*
G36*
Y62534D02*
X196000D01*
X194956Y62397D01*
X193983Y61994D01*
X193147Y61353D01*
X192506Y60517D01*
X192103Y59544D01*
X192031Y59000D01*
X198000D01*
Y62534D01*
D02*
G37*
G36*
Y58000D02*
X192031D01*
X192103Y57456D01*
X192506Y56483D01*
X193147Y55647D01*
X193983Y55006D01*
X194956Y54603D01*
X196000Y54466D01*
X198000D01*
Y58000D01*
D02*
G37*
G36*
X99000Y14969D02*
Y9000D01*
X102534D01*
Y11000D01*
X102397Y12044D01*
X101994Y13017D01*
X101353Y13853D01*
X100517Y14494D01*
X99544Y14897D01*
X99000Y14969D01*
D02*
G37*
G36*
X89000D02*
Y9000D01*
X92535D01*
Y11000D01*
X92397Y12044D01*
X91994Y13017D01*
X91353Y13853D01*
X90517Y14494D01*
X89544Y14897D01*
X89000Y14969D01*
D02*
G37*
G36*
X98000D02*
X97456Y14897D01*
X96483Y14494D01*
X95647Y13853D01*
X95006Y13017D01*
X94603Y12044D01*
X94466Y11000D01*
Y9000D01*
X98000D01*
Y14969D01*
D02*
G37*
G36*
X88000D02*
X87456Y14897D01*
X86483Y14494D01*
X85647Y13853D01*
X85006Y13017D01*
X84603Y12044D01*
X84465Y11000D01*
Y9000D01*
X88000D01*
Y14969D01*
D02*
G37*
%LPD*%
D10*
X85000Y146000D02*
X86032D01*
X86421Y145610D01*
X124906Y151122D02*
Y154469D01*
X113300Y169616D02*
X143500D01*
Y169587D02*
X143529D01*
X147616Y165500D01*
X158000D01*
X112656Y171171D02*
X143500D01*
Y171200D02*
X143529D01*
X147829Y175500D01*
X158000D01*
X94369Y132490D02*
X94989Y133110D01*
X92159Y132490D02*
X94369D01*
X94979Y130748D02*
X95373Y131142D01*
X93952Y130748D02*
X94979D01*
X82000Y126417D02*
X82689Y127106D01*
X124709Y140000D02*
Y143051D01*
X86421Y145610D02*
X88685Y147874D01*
X93705D01*
X90460Y143937D02*
X93705D01*
X107484Y151811D02*
Y152111D01*
X103547Y151811D02*
Y152573D01*
X105516Y151811D02*
Y152342D01*
X124709Y150925D02*
X124906Y151122D01*
X120378Y150925D02*
X124709D01*
X119295Y149843D02*
X120378Y150925D01*
X119295Y140000D02*
X124709D01*
X100594Y144921D02*
X106500Y139016D01*
X100594Y144921D02*
Y149843D01*
X84453Y141673D02*
X88196D01*
X90460Y143937D01*
X94989Y133110D02*
X95673D01*
X95373Y131142D02*
X95673D01*
X82689Y127106D02*
X90311D01*
X93952Y130748D01*
X97642Y124350D02*
Y126221D01*
X96165Y122874D02*
X97642Y124350D01*
X96165Y118051D02*
Y122874D01*
X123331Y115648D02*
Y119388D01*
X95673Y133110D02*
X100594D01*
X106500Y139016D01*
X116498Y126221D02*
X123331Y119388D01*
X114374Y127889D02*
Y128189D01*
Y127889D02*
X116042Y126221D01*
X116498D01*
X113390D02*
X116042D01*
X109866Y168381D02*
X112656Y171171D01*
X111421Y167737D02*
X113300Y169616D01*
X103547Y152573D02*
X109866Y158892D01*
Y168381D01*
X111421Y158248D02*
Y167737D01*
X105516Y152342D02*
X111421Y158248D01*
X114374Y159001D02*
Y160275D01*
X107484Y152111D02*
X114374Y159001D01*
D14*
X8500Y158500D02*
X28201D01*
X29785Y156916D01*
Y147215D02*
Y156916D01*
Y147215D02*
X33443Y143558D01*
X73914D01*
X74130Y143773D01*
X75870D01*
X76086Y143558D01*
X86911D01*
X89259Y145905D01*
X93705D01*
X66256Y166756D02*
X78000D01*
X92501Y153500D02*
X94190Y151811D01*
X78000Y166756D02*
X91256Y153500D01*
X92501D01*
X94190Y151811D02*
X95673D01*
X117327Y154500D02*
X123492Y160665D01*
X163000Y67500D02*
X166500D01*
X147500Y162000D02*
X170500Y139000D01*
Y71500D02*
Y139000D01*
X166500Y67500D02*
X170500Y71500D01*
X115358Y151811D02*
Y154858D01*
X122500Y162000D01*
X147500D01*
X147000Y67500D02*
X154500D01*
X120000D02*
X138966D01*
X65756D02*
X109000D01*
X58500Y60244D02*
X65756Y67500D01*
X58500Y8500D02*
Y60244D01*
X48500Y55500D02*
X64000Y71000D01*
X48500Y8500D02*
Y55500D01*
X64000Y71000D02*
X109000D01*
X112500Y90000D02*
X112686Y89814D01*
Y25280D02*
Y89814D01*
X108405Y21000D02*
X112686Y25280D01*
X81516Y21000D02*
X108405D01*
X78500Y17984D02*
X81516Y21000D01*
X78500Y8500D02*
Y17984D01*
X147000Y75500D02*
X154500D01*
X38500Y8500D02*
Y60000D01*
X54500Y76000D01*
X108862D01*
X120000D02*
X120500Y75500D01*
X138500D01*
X146500D02*
X147000D01*
X144492Y22008D02*
Y131008D01*
Y22008D02*
X148500Y18000D01*
X39500Y90000D02*
X112500D01*
X120000Y71000D02*
X139000D01*
X114990Y22490D02*
Y98458D01*
X116190Y58987D02*
Y97961D01*
X117390Y63870D02*
Y97464D01*
X119500Y71000D02*
X120000D01*
X147000D02*
X154500D01*
X163000D02*
X165000D01*
X169000Y75000D01*
Y138500D01*
X146835Y160665D02*
X169000Y138500D01*
X163000Y75500D02*
Y135091D01*
X148945Y149146D02*
X163000Y135091D01*
X122199Y149146D02*
X148945D01*
X170900Y48500D02*
X198500D01*
X159400Y60000D02*
X170900Y48500D01*
X123492Y160665D02*
X146835D01*
X117327Y151811D02*
Y154500D01*
X26100Y93600D02*
X108797D01*
X21000Y88500D02*
X26100Y93600D01*
X8500Y98500D02*
X55303D01*
X8500Y108500D02*
X47000D01*
X55303Y98500D02*
X59003Y94800D01*
X47000Y108500D02*
X59500Y96000D01*
X119500Y90000D02*
X139000D01*
X146000Y91000D02*
X147500Y89500D01*
X146000Y91000D02*
Y132000D01*
X139969Y138031D02*
X146000Y132000D01*
X119295Y138031D02*
X139969D01*
X117327Y139016D02*
X119295Y138031D01*
X139437Y136063D02*
X144492Y131008D01*
X138500Y21000D02*
X141500Y24000D01*
Y132000D01*
X139406Y134095D02*
X141500Y132000D01*
X138500Y8500D02*
Y21000D01*
X159400Y60000D02*
Y136994D01*
X120926Y147874D02*
X122199Y149146D01*
X123194Y147900D02*
X148494D01*
X123691Y146700D02*
X147997D01*
X124188Y145500D02*
X147500D01*
X119295Y147874D02*
X120926D01*
X121199Y145905D02*
X123194Y147900D01*
X121409Y144418D02*
X123691Y146700D01*
X122609Y143921D02*
X124188Y145500D01*
X122609Y142609D02*
Y143921D01*
X121968Y141969D02*
X122609Y142609D01*
X121409Y143921D02*
Y144418D01*
X119311Y143921D02*
X121409D01*
X148494Y147900D02*
X159400Y136994D01*
X119295Y145905D02*
X121199D01*
X119295Y143937D02*
X119311Y143921D01*
X147997Y146700D02*
X158200Y136497D01*
Y44300D02*
Y136497D01*
Y44300D02*
X164000Y38500D01*
X198500D01*
X171500Y28500D02*
X198500D01*
X157000Y43000D02*
X171500Y28500D01*
X157000Y43000D02*
Y136000D01*
X147500Y145500D02*
X157000Y136000D01*
X119295Y141969D02*
X121968D01*
X8500Y88500D02*
X21000D01*
X115086Y98554D02*
Y118261D01*
X108500Y8500D02*
Y16000D01*
X114990Y22490D01*
Y98458D02*
X115086Y98554D01*
X116286Y98057D02*
Y118757D01*
X117486Y97560D02*
Y119270D01*
X116190Y97961D02*
X116286Y98057D01*
X109453Y125591D02*
X116286Y118757D01*
X117390Y97464D02*
X117486Y97560D01*
X111421Y125335D02*
X117486Y119270D01*
X118500Y8500D02*
Y17000D01*
X121500Y20000D01*
Y53677D01*
X116190Y58987D02*
X121500Y53677D01*
X107677Y96000D02*
X111390Y99713D01*
X108797Y93600D02*
X113790Y98593D01*
X111486Y100045D02*
Y116514D01*
X111390Y99949D02*
X111486Y100045D01*
X111390Y99713D02*
Y99949D01*
X112686Y99548D02*
Y117014D01*
X112590Y99452D02*
X112686Y99548D01*
X112590Y99216D02*
Y99452D01*
X112000Y98626D02*
X112590Y99216D01*
X113886Y99051D02*
Y117525D01*
X113790Y98955D02*
X113886Y99051D01*
X113790Y98593D02*
Y98955D01*
X128500Y8500D02*
Y52760D01*
X117390Y63870D02*
X128500Y52760D01*
X111421Y125335D02*
Y126221D01*
X109453Y125591D02*
Y126221D01*
X107484Y125862D02*
X115086Y118261D01*
X107484Y125862D02*
Y126221D01*
X105703Y123900D02*
X107511D01*
X113886Y117525D01*
X103800Y122700D02*
X107000D01*
X112686Y117014D01*
X102579Y121500D02*
X106500D01*
X111486Y116514D01*
X105516Y124087D02*
Y126221D01*
Y124087D02*
X105703Y123900D01*
X108300Y94800D02*
X112000Y98500D01*
X103547Y122953D02*
Y126221D01*
X112000Y98500D02*
Y98626D01*
X103547Y122953D02*
X103800Y122700D01*
X101579Y122500D02*
Y126221D01*
Y122500D02*
X102579Y121500D01*
X59003Y94800D02*
X108300D01*
X59500Y96000D02*
X107677D01*
X8500Y128500D02*
X22000D01*
X30116Y136616D01*
X89190D01*
X90606Y138031D01*
X93705D01*
X8500Y138500D02*
X9184Y137816D01*
X88693D01*
X90877Y140000D01*
X93705D01*
X8500Y148500D02*
X20500D01*
X29984Y139016D01*
X88196D01*
X91149Y141969D01*
X93705D01*
X148500Y8500D02*
Y18000D01*
X134500Y134095D02*
X139406D01*
D16*
X129244Y155000D02*
D03*
X134756D02*
D03*
X129244Y141500D02*
D03*
X134756D02*
D03*
X123244Y119500D02*
D03*
X128756D02*
D03*
X84551Y152500D02*
D03*
X79039D02*
D03*
X66256Y174000D02*
D03*
X60744D02*
D03*
X66512Y166500D02*
D03*
X61000D02*
D03*
D17*
X93000Y114756D02*
D03*
Y109244D02*
D03*
X85500Y114695D02*
D03*
Y109184D02*
D03*
X82000Y126417D02*
D03*
Y131929D02*
D03*
X77000Y187744D02*
D03*
Y193256D02*
D03*
X70000Y187744D02*
D03*
Y193256D02*
D03*
D18*
X38846Y198500D02*
D03*
X32153D02*
D03*
D19*
X87500Y180154D02*
D03*
Y186846D02*
D03*
D20*
X102465Y108396D02*
D03*
Y118239D02*
D03*
D23*
X100398Y103868D02*
D03*
X104335D02*
D03*
X80516Y141673D02*
D03*
X84453D02*
D03*
X103269Y168175D02*
D03*
X99331D02*
D03*
X94532Y161675D02*
D03*
X98469D02*
D03*
X103447Y156935D02*
D03*
X99510D02*
D03*
X99331Y179405D02*
D03*
X103269D02*
D03*
D24*
X108173Y111939D02*
D03*
Y115876D02*
D03*
X91047Y158701D02*
D03*
Y162638D02*
D03*
X114374Y160275D02*
D03*
Y164213D02*
D03*
D25*
X103479Y160665D02*
D03*
X103479Y164406D02*
D03*
D45*
X111746Y242500D02*
D03*
X146254D02*
D03*
D46*
X129000D02*
D03*
D47*
X106500Y139016D02*
D03*
D48*
X119295Y149843D02*
D03*
Y147874D02*
D03*
Y145905D02*
D03*
Y143937D02*
D03*
Y141969D02*
D03*
Y140000D02*
D03*
Y136063D02*
D03*
Y134095D02*
D03*
Y132126D02*
D03*
Y130157D02*
D03*
Y128189D02*
D03*
X117327Y151811D02*
D03*
Y146890D02*
D03*
Y144921D02*
D03*
Y142953D02*
D03*
Y140984D02*
D03*
Y139016D02*
D03*
Y137047D02*
D03*
Y135079D02*
D03*
Y131142D02*
D03*
X116342Y128189D02*
D03*
X115358Y151811D02*
D03*
X114374Y149843D02*
D03*
Y128189D02*
D03*
X113390Y151811D02*
D03*
Y126221D02*
D03*
X112406Y149843D02*
D03*
X111421Y151811D02*
D03*
Y126221D02*
D03*
X110437Y149843D02*
D03*
Y128189D02*
D03*
X109453Y151811D02*
D03*
Y126221D02*
D03*
X108468Y149843D02*
D03*
Y128189D02*
D03*
X107484Y151811D02*
D03*
Y126221D02*
D03*
X106500Y128189D02*
D03*
X105516Y151811D02*
D03*
Y126221D02*
D03*
X104532Y128189D02*
D03*
X103547Y151811D02*
D03*
Y126221D02*
D03*
X102563Y149843D02*
D03*
Y128189D02*
D03*
X101579Y126221D02*
D03*
X100594Y149843D02*
D03*
Y128189D02*
D03*
X99610Y151811D02*
D03*
X98626Y128189D02*
D03*
X97642Y126221D02*
D03*
X98626Y149843D02*
D03*
X95673Y151811D02*
D03*
Y144921D02*
D03*
Y142953D02*
D03*
Y140984D02*
D03*
Y139016D02*
D03*
Y137047D02*
D03*
Y135079D02*
D03*
Y133110D02*
D03*
Y131142D02*
D03*
Y129173D02*
D03*
Y126221D02*
D03*
X93705Y149843D02*
D03*
Y145905D02*
D03*
Y143937D02*
D03*
Y141969D02*
D03*
Y140000D02*
D03*
Y138031D02*
D03*
Y136063D02*
D03*
Y134095D02*
D03*
Y147874D02*
D03*
D49*
X84654Y146000D02*
X85000D01*
X84551Y146102D02*
X84654Y146000D01*
X95500Y189500D02*
X95800Y189200D01*
Y184821D02*
Y189200D01*
X91133Y180154D02*
X95800Y184821D01*
X87500Y180154D02*
X91133D01*
X115086Y190000D02*
X133586Y208500D01*
X198500D01*
X73000Y187744D02*
X77000D01*
X70000D02*
X73000D01*
Y185500D02*
X74500Y184000D01*
X73000Y185500D02*
Y187744D01*
X77000D02*
X92256D01*
X181750Y177750D02*
X182500Y178500D01*
X181000Y177000D02*
X181750Y177750D01*
X116342Y182500D02*
X118909D01*
X129909Y193500D01*
X165500D01*
X181250Y177750D01*
X181750D01*
X116500Y186500D02*
X128500Y198500D01*
X198500D01*
X182500Y178500D02*
X198500D01*
X181000Y172000D02*
Y177000D01*
Y172000D02*
X184500Y168500D01*
X198500D01*
X26000Y73000D02*
X38500Y85500D01*
X26000Y33500D02*
Y73000D01*
X21000Y28500D02*
X26000Y33500D01*
X8500Y28500D02*
X21000D01*
X66256Y166756D02*
Y174000D01*
X60744D02*
Y191256D01*
X53500Y198500D02*
X60744Y191256D01*
X38846Y198500D02*
X53500D01*
X8500D02*
X32153D01*
X84551Y147500D02*
Y152500D01*
Y146102D02*
Y147500D01*
X63500Y147000D02*
X64000Y147500D01*
X84551D01*
X63000Y133500D02*
X63327Y133173D01*
Y129173D02*
Y133173D01*
Y129173D02*
X78500Y114000D01*
X126000Y97560D02*
X138000D01*
X124497D02*
X126000D01*
Y92500D02*
Y97560D01*
X38500Y85500D02*
X109500D01*
X78500Y98626D02*
Y114000D01*
X79195Y114695D01*
X85500D01*
X123331Y108996D02*
Y115648D01*
Y98726D02*
Y108996D01*
X127500Y131000D02*
X135500D01*
X138000Y128500D01*
Y111000D02*
Y128500D01*
X135996Y108996D02*
X138000Y111000D01*
X123331Y108996D02*
X135996D01*
X148945Y97560D02*
X154500D01*
X174000D02*
X174500D01*
X183560Y88500D01*
X198500D01*
X123331Y98726D02*
X124497Y97560D01*
X92256Y187744D02*
X93000Y187000D01*
X94492Y163875D02*
Y166291D01*
X92300Y168483D02*
X94492Y166291D01*
X92300Y168483D02*
Y175354D01*
X87500Y180154D02*
X92300Y175354D01*
X103466Y156947D02*
Y160467D01*
D50*
X94492Y156702D02*
Y163875D01*
X119295Y136063D02*
X139437D01*
X119295Y134095D02*
X134500D01*
X109453Y151811D02*
Y151885D01*
X97347Y151144D02*
X98626Y149864D01*
Y149843D02*
Y149864D01*
X97347Y151144D02*
Y152205D01*
X99383Y151811D02*
X99610D01*
X108173Y115876D02*
X109059D01*
X93567Y135925D02*
X93705Y136063D01*
X94492Y156702D02*
X99383Y151811D01*
X91047Y158504D02*
X97347Y152205D01*
D51*
X96500Y169000D02*
X97325Y168175D01*
X99331D01*
X89468Y166500D02*
X90606D01*
X91047Y166059D01*
X91933Y131929D02*
X91933Y131929D01*
X87478Y121000D02*
X90000D01*
X85500Y119022D02*
X87478Y121000D01*
X85500Y114695D02*
Y119022D01*
X90000Y121000D02*
X95221Y126221D01*
X95673D01*
X93000Y114886D02*
X96165Y118051D01*
X93000Y114756D02*
Y114886D01*
X97000Y102000D02*
X98869Y103868D01*
X100398D01*
X108173Y109323D02*
X108500Y108996D01*
X108173Y109323D02*
Y111939D01*
X93000Y104500D02*
Y109244D01*
X85500Y104500D02*
Y109184D01*
X56000Y166500D02*
X61000D01*
X70000Y193256D02*
Y198000D01*
X77000Y193256D02*
Y198000D01*
X70000Y193256D02*
X77000D01*
X96000Y179405D02*
X99331D01*
X114374Y164213D02*
X118288D01*
X98469Y159752D02*
Y161675D01*
Y159752D02*
X99510Y158711D01*
Y156935D02*
Y158711D01*
X98437Y165000D02*
X98469Y164969D01*
Y161675D02*
Y164969D01*
X98437Y165000D02*
X99331Y165894D01*
Y168175D01*
X91047Y162638D02*
Y166059D01*
X74000Y152573D02*
X74073Y152500D01*
X79039D01*
X75000Y141673D02*
X80516D01*
X74571Y131929D02*
X82000D01*
X91933D01*
X123311Y128189D02*
X123500Y128000D01*
X119295Y128189D02*
X123311D01*
X128756Y119500D02*
X133500D01*
X124709Y140000D02*
X126209Y141500D01*
X129244D01*
X140466D02*
X141466Y140500D01*
X134756Y141500D02*
X140466D01*
X141466Y157500D02*
X141500D01*
X138966Y155000D02*
X141466Y157500D01*
X134756Y155000D02*
X138966D01*
X124709Y154469D02*
X125240Y155000D01*
X129244D01*
D52*
X103500Y164675D02*
Y197158D01*
X129000Y222657D02*
Y242500D01*
X103500Y197158D02*
X129000Y222657D01*
D53*
X102150Y150256D02*
X102563Y149843D01*
X100594D02*
X101008Y150256D01*
X100181Y127776D02*
X100594Y128189D01*
X98626D02*
X99039Y127776D01*
X98006Y122808D02*
X98990Y123792D01*
Y123829D01*
X99039Y123878D01*
Y127776D01*
X100181Y120522D02*
X102465Y118239D01*
X105811D02*
X108173Y115876D01*
X102465Y118239D02*
X105811D01*
X102465Y108396D02*
X104335Y106526D01*
Y103868D02*
Y106526D01*
X98006Y113455D02*
Y122808D01*
X100181Y120522D02*
Y127776D01*
X98006Y113455D02*
X102465Y108996D01*
Y108396D02*
Y108996D01*
X103466Y156947D02*
X103486Y156967D01*
X102150Y155631D02*
X103466Y156947D01*
X102150Y150256D02*
Y155631D01*
X101008Y150256D02*
Y155438D01*
X99510Y156935D02*
X101008Y155438D01*
D54*
X158000Y165500D02*
D03*
D55*
Y175500D02*
D03*
D56*
X98500Y38500D02*
D03*
X28500Y238500D02*
D03*
X178500D02*
D03*
D57*
X8500Y218500D02*
D03*
X198500D02*
D03*
D58*
X8500Y208500D02*
D03*
Y198500D02*
D03*
Y188500D02*
D03*
Y178500D02*
D03*
Y168500D02*
D03*
Y158500D02*
D03*
Y148500D02*
D03*
Y138500D02*
D03*
Y128500D02*
D03*
Y118500D02*
D03*
Y108500D02*
D03*
Y98500D02*
D03*
Y88500D02*
D03*
Y78500D02*
D03*
Y68500D02*
D03*
Y58500D02*
D03*
Y48500D02*
D03*
Y38500D02*
D03*
Y28500D02*
D03*
X198500Y208500D02*
D03*
Y198500D02*
D03*
Y188500D02*
D03*
Y178500D02*
D03*
Y168500D02*
D03*
Y158500D02*
D03*
Y148500D02*
D03*
Y138500D02*
D03*
Y128500D02*
D03*
Y118500D02*
D03*
Y108500D02*
D03*
Y98500D02*
D03*
Y88500D02*
D03*
Y78500D02*
D03*
Y68500D02*
D03*
Y58500D02*
D03*
Y48500D02*
D03*
Y38500D02*
D03*
Y28500D02*
D03*
D59*
X8500Y8500D02*
D03*
D60*
X18500D02*
D03*
X28500D02*
D03*
X38500D02*
D03*
X48500D02*
D03*
X58500D02*
D03*
X68500D02*
D03*
X78500D02*
D03*
X88500D02*
D03*
X98500D02*
D03*
X108500D02*
D03*
X118500D02*
D03*
X128500D02*
D03*
X138500D02*
D03*
X148500D02*
D03*
X158500D02*
D03*
X168500D02*
D03*
X178500D02*
D03*
X188500D02*
D03*
X198500D02*
D03*
D61*
X25500Y124869D02*
D03*
Y112007D02*
D03*
X22977Y152965D02*
D03*
X115500Y196531D02*
D03*
X143000Y189000D02*
D03*
X137240Y166059D02*
D03*
X33000Y39544D02*
D03*
X157000Y38000D02*
D03*
X153642Y58987D02*
D03*
X130500Y81994D02*
D03*
X81000Y121000D02*
D03*
X108004Y175647D02*
D03*
X98500Y173979D02*
D03*
X109059Y196850D02*
D03*
X182500Y189500D02*
D03*
X150500Y203000D02*
D03*
X177165Y216535D02*
D03*
Y157480D02*
D03*
Y137795D02*
D03*
Y118110D02*
D03*
Y78740D02*
D03*
Y59055D02*
D03*
Y19685D02*
D03*
X157480Y236221D02*
D03*
Y216535D02*
D03*
Y157480D02*
D03*
Y19685D02*
D03*
X137795Y236221D02*
D03*
Y216535D02*
D03*
Y177165D02*
D03*
Y59055D02*
D03*
Y39370D02*
D03*
X118110Y177165D02*
D03*
Y39370D02*
D03*
X98425Y236221D02*
D03*
Y216535D02*
D03*
Y196850D02*
D03*
Y78740D02*
D03*
Y59055D02*
D03*
X78740Y236221D02*
D03*
Y216535D02*
D03*
Y177165D02*
D03*
Y157480D02*
D03*
Y78740D02*
D03*
Y59055D02*
D03*
Y39370D02*
D03*
X59055Y236221D02*
D03*
Y216535D02*
D03*
Y157480D02*
D03*
Y118110D02*
D03*
Y78740D02*
D03*
X39370Y216535D02*
D03*
Y177165D02*
D03*
Y157480D02*
D03*
Y78740D02*
D03*
X19685Y216535D02*
D03*
Y177165D02*
D03*
Y78740D02*
D03*
Y59055D02*
D03*
Y39370D02*
D03*
Y19685D02*
D03*
D62*
X85000Y146000D02*
D03*
X95500Y189500D02*
D03*
X115086Y190000D02*
D03*
X74500Y184000D02*
D03*
X116500Y186500D02*
D03*
X116342Y182500D02*
D03*
X63500Y147000D02*
D03*
X63000Y133500D02*
D03*
X126000Y92500D02*
D03*
X109500Y85500D02*
D03*
X78500Y86500D02*
D03*
Y98626D02*
D03*
X127500Y131000D02*
D03*
X148945Y97560D02*
D03*
X154500D02*
D03*
X174000D02*
D03*
X138000D02*
D03*
X93000Y187000D02*
D03*
X96500Y169000D02*
D03*
X89468Y166500D02*
D03*
X91933Y131929D02*
D03*
X163000Y67500D02*
D03*
X154500D02*
D03*
X147000D02*
D03*
X138966D02*
D03*
X120000D02*
D03*
X109000D02*
D03*
X108862Y76000D02*
D03*
X120000D02*
D03*
X138500Y75500D02*
D03*
X147000D02*
D03*
X109000Y71000D02*
D03*
X120000D02*
D03*
X139000D02*
D03*
X147000D02*
D03*
X154500D02*
D03*
X163000D02*
D03*
X154500Y75500D02*
D03*
X163000D02*
D03*
X39500Y90000D02*
D03*
X112500D02*
D03*
X119500D02*
D03*
X139000D02*
D03*
X147500Y89500D02*
D03*
X90000Y121000D02*
D03*
X97000Y102000D02*
D03*
X108500Y108996D02*
D03*
X93000Y104500D02*
D03*
X85500D02*
D03*
X56000Y166500D02*
D03*
X70000Y198000D02*
D03*
X77000D02*
D03*
X96000Y179405D02*
D03*
X118288Y164213D02*
D03*
X98437Y165000D02*
D03*
X74000Y152573D02*
D03*
X75000Y141673D02*
D03*
X74571Y131929D02*
D03*
X123500Y128000D02*
D03*
X133500Y119500D02*
D03*
X141466Y140500D02*
D03*
X141500Y157500D02*
D03*
X124709Y143051D02*
D03*
X113587Y146102D02*
D03*
Y141378D02*
D03*
Y136653D02*
D03*
Y131929D02*
D03*
X108862Y146102D02*
D03*
Y141378D02*
D03*
Y136653D02*
D03*
Y131929D02*
D03*
X104138Y146102D02*
D03*
Y141378D02*
D03*
Y136653D02*
D03*
Y131929D02*
D03*
X99413Y146102D02*
D03*
Y141378D02*
D03*
Y136653D02*
D03*
Y131929D02*
D03*
X90311Y127106D02*
D03*
X124709Y154469D02*
D03*
X123331Y115648D02*
D03*
X94492Y163875D02*
D03*
M02*
