G04*
G04 #@! TF.GenerationSoftware,Altium Limited,Altium Designer,18.1.7 (191)*
G04*
G04 Layer_Physical_Order=2*
G04 Layer_Color=16711680*
%FSLAX25Y25*%
%MOIN*%
G70*
G01*
G75*
%ADD14C,0.00600*%
%ADD45R,0.09508X0.20000*%
%ADD49C,0.02000*%
%ADD54R,0.05984X0.05984*%
%ADD55C,0.05984*%
%ADD56C,0.25000*%
%ADD57R,0.11000X0.06000*%
%ADD58O,0.11000X0.06000*%
%ADD59R,0.06000X0.11000*%
%ADD60O,0.06000X0.11000*%
%ADD61C,0.02800*%
%ADD62C,0.02400*%
G36*
X203474Y222500D02*
X199000D01*
Y218500D01*
Y214500D01*
X203474D01*
Y211704D01*
X203026Y211483D01*
X202816Y211645D01*
X201940Y212007D01*
X201000Y212131D01*
X196000D01*
X195060Y212007D01*
X194185Y211645D01*
X193432Y211068D01*
X192855Y210315D01*
X192493Y209440D01*
X192369Y208500D01*
X192493Y207560D01*
X192855Y206684D01*
X193432Y205932D01*
X194185Y205355D01*
X195060Y204993D01*
X196000Y204869D01*
X201000D01*
X201940Y204993D01*
X202816Y205355D01*
X203026Y205517D01*
X203474Y205295D01*
Y201705D01*
X203026Y201483D01*
X202816Y201645D01*
X201940Y202007D01*
X201000Y202131D01*
X196000D01*
X195060Y202007D01*
X194185Y201645D01*
X193432Y201068D01*
X192855Y200315D01*
X192493Y199440D01*
X192369Y198500D01*
X192493Y197560D01*
X192855Y196685D01*
X193432Y195932D01*
X194185Y195355D01*
X195060Y194993D01*
X196000Y194869D01*
X201000D01*
X201940Y194993D01*
X202816Y195355D01*
X203026Y195517D01*
X203474Y195296D01*
Y192209D01*
X203340Y192142D01*
X202974Y192012D01*
X202044Y192397D01*
X201000Y192534D01*
X199000D01*
Y188500D01*
Y184466D01*
X201000D01*
X202044Y184603D01*
X202974Y184988D01*
X203340Y184857D01*
X203474Y184791D01*
Y181704D01*
X203026Y181483D01*
X202816Y181645D01*
X201940Y182007D01*
X201000Y182131D01*
X196000D01*
X195060Y182007D01*
X194185Y181645D01*
X193432Y181068D01*
X192855Y180315D01*
X192493Y179440D01*
X192369Y178500D01*
X192493Y177560D01*
X192855Y176684D01*
X193432Y175932D01*
X194185Y175355D01*
X195060Y174993D01*
X196000Y174869D01*
X201000D01*
X201940Y174993D01*
X202816Y175355D01*
X203026Y175517D01*
X203474Y175295D01*
Y171704D01*
X203026Y171483D01*
X202816Y171645D01*
X201940Y172007D01*
X201000Y172131D01*
X196000D01*
X195060Y172007D01*
X194185Y171645D01*
X193432Y171068D01*
X192855Y170316D01*
X192493Y169440D01*
X192369Y168500D01*
X192493Y167560D01*
X192855Y166684D01*
X193432Y165932D01*
X194185Y165355D01*
X195060Y164993D01*
X196000Y164869D01*
X201000D01*
X201940Y164993D01*
X202816Y165355D01*
X203026Y165517D01*
X203474Y165296D01*
Y162209D01*
X203340Y162143D01*
X202974Y162012D01*
X202044Y162397D01*
X201000Y162534D01*
X199000D01*
Y158500D01*
Y154465D01*
X201000D01*
X202044Y154603D01*
X202974Y154988D01*
X203340Y154858D01*
X203474Y154791D01*
Y151705D01*
X203026Y151483D01*
X202816Y151645D01*
X201940Y152007D01*
X201000Y152131D01*
X196000D01*
X195060Y152007D01*
X194185Y151645D01*
X193432Y151068D01*
X192855Y150315D01*
X192493Y149440D01*
X192369Y148500D01*
X192493Y147560D01*
X192855Y146685D01*
X193432Y145932D01*
X194185Y145355D01*
X195060Y144993D01*
X196000Y144869D01*
X201000D01*
X201940Y144993D01*
X202816Y145355D01*
X203026Y145517D01*
X203474Y145296D01*
Y142209D01*
X203340Y142142D01*
X202974Y142012D01*
X202044Y142397D01*
X201000Y142534D01*
X199000D01*
Y138500D01*
Y134466D01*
X201000D01*
X202044Y134603D01*
X202974Y134988D01*
X203340Y134857D01*
X203474Y134791D01*
Y132209D01*
X203340Y132142D01*
X202974Y132012D01*
X202044Y132397D01*
X201000Y132535D01*
X199000D01*
Y128500D01*
Y124466D01*
X201000D01*
X202044Y124603D01*
X202974Y124988D01*
X203340Y124857D01*
X203474Y124791D01*
Y121704D01*
X203026Y121483D01*
X202816Y121645D01*
X201940Y122007D01*
X201000Y122131D01*
X196000D01*
X195060Y122007D01*
X194185Y121645D01*
X193432Y121068D01*
X192855Y120316D01*
X192493Y119440D01*
X192369Y118500D01*
X192493Y117560D01*
X192855Y116684D01*
X193432Y115932D01*
X194185Y115355D01*
X195060Y114993D01*
X196000Y114869D01*
X201000D01*
X201940Y114993D01*
X202816Y115355D01*
X203026Y115517D01*
X203474Y115296D01*
Y111705D01*
X203026Y111483D01*
X202816Y111645D01*
X201940Y112007D01*
X201000Y112131D01*
X196000D01*
X195060Y112007D01*
X194185Y111645D01*
X193432Y111068D01*
X192855Y110316D01*
X192493Y109440D01*
X192369Y108500D01*
X192493Y107560D01*
X192855Y106685D01*
X193432Y105932D01*
X194185Y105355D01*
X195060Y104993D01*
X196000Y104869D01*
X201000D01*
X201940Y104993D01*
X202816Y105355D01*
X203026Y105517D01*
X203474Y105296D01*
Y101705D01*
X203026Y101483D01*
X202816Y101645D01*
X201940Y102007D01*
X201000Y102131D01*
X196000D01*
X195060Y102007D01*
X194185Y101645D01*
X193432Y101068D01*
X192855Y100315D01*
X192493Y99440D01*
X192369Y98500D01*
X192493Y97560D01*
X192855Y96684D01*
X193432Y95932D01*
X194185Y95355D01*
X195060Y94993D01*
X196000Y94869D01*
X201000D01*
X201940Y94993D01*
X202816Y95355D01*
X203026Y95517D01*
X203474Y95296D01*
Y91704D01*
X203026Y91483D01*
X202816Y91645D01*
X201940Y92007D01*
X201000Y92131D01*
X196000D01*
X195060Y92007D01*
X194185Y91645D01*
X193432Y91068D01*
X192855Y90316D01*
X192493Y89440D01*
X192369Y88500D01*
X192493Y87560D01*
X192855Y86685D01*
X193432Y85932D01*
X194185Y85355D01*
X195060Y84993D01*
X196000Y84869D01*
X201000D01*
X201940Y84993D01*
X202816Y85355D01*
X203026Y85517D01*
X203474Y85295D01*
Y81704D01*
X203026Y81483D01*
X202816Y81645D01*
X201940Y82007D01*
X201000Y82131D01*
X196000D01*
X195060Y82007D01*
X194185Y81645D01*
X193432Y81068D01*
X192855Y80316D01*
X192493Y79440D01*
X192369Y78500D01*
X192493Y77560D01*
X192855Y76684D01*
X193432Y75932D01*
X194185Y75355D01*
X195060Y74993D01*
X196000Y74869D01*
X201000D01*
X201940Y74993D01*
X202816Y75355D01*
X203026Y75517D01*
X203474Y75296D01*
Y72209D01*
X203340Y72142D01*
X202974Y72012D01*
X202044Y72397D01*
X201000Y72535D01*
X199000D01*
Y68500D01*
Y64465D01*
X201000D01*
X202044Y64603D01*
X202974Y64988D01*
X203340Y64858D01*
X203474Y64791D01*
Y62209D01*
X203340Y62142D01*
X202974Y62012D01*
X202044Y62397D01*
X201000Y62534D01*
X199000D01*
Y58500D01*
Y54466D01*
X201000D01*
X202044Y54603D01*
X202974Y54988D01*
X203340Y54858D01*
X203474Y54791D01*
Y51705D01*
X203026Y51483D01*
X202816Y51645D01*
X201940Y52007D01*
X201000Y52131D01*
X196000D01*
X195060Y52007D01*
X194185Y51645D01*
X193432Y51068D01*
X192855Y50315D01*
X192493Y49440D01*
X192369Y48500D01*
X192493Y47560D01*
X192855Y46685D01*
X193432Y45932D01*
X194185Y45355D01*
X195060Y44993D01*
X196000Y44869D01*
X201000D01*
X201940Y44993D01*
X202816Y45355D01*
X203026Y45517D01*
X203474Y45296D01*
Y41704D01*
X203026Y41483D01*
X202816Y41645D01*
X201940Y42007D01*
X201000Y42131D01*
X196000D01*
X195060Y42007D01*
X194185Y41645D01*
X193432Y41067D01*
X192855Y40315D01*
X192493Y39440D01*
X192369Y38500D01*
X192493Y37560D01*
X192855Y36685D01*
X193432Y35932D01*
X194185Y35355D01*
X195060Y34993D01*
X196000Y34869D01*
X201000D01*
X201940Y34993D01*
X202816Y35355D01*
X203026Y35517D01*
X203474Y35296D01*
Y31705D01*
X203026Y31483D01*
X202816Y31645D01*
X201940Y32007D01*
X201000Y32131D01*
X196000D01*
X195060Y32007D01*
X194185Y31645D01*
X193432Y31067D01*
X192855Y30316D01*
X192493Y29440D01*
X192369Y28500D01*
X192493Y27560D01*
X192855Y26684D01*
X193432Y25932D01*
X194185Y25355D01*
X195060Y24993D01*
X196000Y24869D01*
X201000D01*
X201940Y24993D01*
X202816Y25355D01*
X203026Y25517D01*
X203474Y25295D01*
Y3526D01*
X201705D01*
X201483Y3974D01*
X201645Y4185D01*
X202007Y5060D01*
X202131Y6000D01*
Y11000D01*
X202007Y11940D01*
X201645Y12815D01*
X201068Y13567D01*
X200315Y14145D01*
X199440Y14507D01*
X198500Y14631D01*
X197560Y14507D01*
X196685Y14145D01*
X195932Y13567D01*
X195355Y12815D01*
X194993Y11940D01*
X194869Y11000D01*
Y6000D01*
X194993Y5060D01*
X195355Y4185D01*
X195517Y3974D01*
X195296Y3526D01*
X191704D01*
X191483Y3974D01*
X191645Y4185D01*
X192007Y5060D01*
X192131Y6000D01*
Y11000D01*
X192007Y11940D01*
X191645Y12815D01*
X191068Y13567D01*
X190315Y14145D01*
X189440Y14507D01*
X188500Y14631D01*
X187560Y14507D01*
X186685Y14145D01*
X185932Y13567D01*
X185355Y12815D01*
X184993Y11940D01*
X184869Y11000D01*
Y6000D01*
X184993Y5060D01*
X185355Y4185D01*
X185517Y3974D01*
X185295Y3526D01*
X181704D01*
X181483Y3974D01*
X181645Y4185D01*
X182007Y5060D01*
X182131Y6000D01*
Y11000D01*
X182007Y11940D01*
X181645Y12815D01*
X181068Y13567D01*
X180315Y14145D01*
X179440Y14507D01*
X178500Y14631D01*
X177560Y14507D01*
X176684Y14145D01*
X175932Y13567D01*
X175355Y12815D01*
X174993Y11940D01*
X174869Y11000D01*
Y6000D01*
X174993Y5060D01*
X175355Y4185D01*
X175517Y3974D01*
X175295Y3526D01*
X171704D01*
X171483Y3974D01*
X171645Y4185D01*
X172007Y5060D01*
X172131Y6000D01*
Y11000D01*
X172007Y11940D01*
X171645Y12815D01*
X171068Y13567D01*
X170316Y14145D01*
X169440Y14507D01*
X168500Y14631D01*
X167560Y14507D01*
X166684Y14145D01*
X165932Y13567D01*
X165355Y12815D01*
X164993Y11940D01*
X164869Y11000D01*
Y6000D01*
X164993Y5060D01*
X165355Y4185D01*
X165517Y3974D01*
X165296Y3526D01*
X161705D01*
X161483Y3974D01*
X161645Y4185D01*
X162007Y5060D01*
X162131Y6000D01*
Y11000D01*
X162007Y11940D01*
X161645Y12815D01*
X161068Y13567D01*
X160316Y14145D01*
X159440Y14507D01*
X158500Y14631D01*
X157560Y14507D01*
X156685Y14145D01*
X155932Y13567D01*
X155355Y12815D01*
X154993Y11940D01*
X154869Y11000D01*
Y6000D01*
X154993Y5060D01*
X155355Y4185D01*
X155517Y3974D01*
X155296Y3526D01*
X151705D01*
X151483Y3974D01*
X151645Y4185D01*
X152007Y5060D01*
X152131Y6000D01*
Y11000D01*
X152007Y11940D01*
X151645Y12815D01*
X151068Y13567D01*
X150315Y14145D01*
X149440Y14507D01*
X148500Y14631D01*
X147560Y14507D01*
X146685Y14145D01*
X145932Y13567D01*
X145355Y12815D01*
X144993Y11940D01*
X144869Y11000D01*
Y6000D01*
X144993Y5060D01*
X145355Y4185D01*
X145517Y3974D01*
X145296Y3526D01*
X141704D01*
X141483Y3974D01*
X141645Y4185D01*
X142007Y5060D01*
X142131Y6000D01*
Y11000D01*
X142007Y11940D01*
X141645Y12815D01*
X141068Y13567D01*
X140315Y14145D01*
X139440Y14507D01*
X138500Y14631D01*
X137560Y14507D01*
X136685Y14145D01*
X135932Y13567D01*
X135355Y12815D01*
X134993Y11940D01*
X134869Y11000D01*
Y6000D01*
X134993Y5060D01*
X135355Y4185D01*
X135517Y3974D01*
X135295Y3526D01*
X131704D01*
X131483Y3974D01*
X131645Y4185D01*
X132007Y5060D01*
X132131Y6000D01*
Y11000D01*
X132007Y11940D01*
X131645Y12815D01*
X131068Y13567D01*
X130315Y14145D01*
X129440Y14507D01*
X128500Y14631D01*
X127560Y14507D01*
X126684Y14145D01*
X125932Y13567D01*
X125355Y12815D01*
X124993Y11940D01*
X124869Y11000D01*
Y6000D01*
X124993Y5060D01*
X125355Y4185D01*
X125517Y3974D01*
X125295Y3526D01*
X121704D01*
X121483Y3974D01*
X121645Y4185D01*
X122007Y5060D01*
X122131Y6000D01*
Y11000D01*
X122007Y11940D01*
X121645Y12815D01*
X121068Y13567D01*
X120316Y14145D01*
X119440Y14507D01*
X118500Y14631D01*
X117560Y14507D01*
X116684Y14145D01*
X115932Y13567D01*
X115355Y12815D01*
X114993Y11940D01*
X114869Y11000D01*
Y6000D01*
X114993Y5060D01*
X115355Y4185D01*
X115517Y3974D01*
X115296Y3526D01*
X111705D01*
X111483Y3974D01*
X111645Y4185D01*
X112007Y5060D01*
X112131Y6000D01*
Y11000D01*
X112007Y11940D01*
X111645Y12815D01*
X111068Y13567D01*
X110316Y14145D01*
X109440Y14507D01*
X108500Y14631D01*
X107560Y14507D01*
X106685Y14145D01*
X105932Y13567D01*
X105355Y12815D01*
X104993Y11940D01*
X104869Y11000D01*
Y6000D01*
X104993Y5060D01*
X105355Y4185D01*
X105517Y3974D01*
X105296Y3526D01*
X102209D01*
X102142Y3660D01*
X102012Y4026D01*
X102397Y4956D01*
X102534Y6000D01*
Y8000D01*
X98500D01*
X94466D01*
Y6000D01*
X94603Y4956D01*
X94988Y4026D01*
X94858Y3660D01*
X94791Y3526D01*
X92209D01*
X92142Y3660D01*
X92012Y4026D01*
X92397Y4956D01*
X92535Y6000D01*
Y8000D01*
X88500D01*
X84465D01*
Y6000D01*
X84603Y4956D01*
X84988Y4026D01*
X84858Y3660D01*
X84791Y3526D01*
X81704D01*
X81483Y3974D01*
X81645Y4185D01*
X82007Y5060D01*
X82131Y6000D01*
Y11000D01*
X82007Y11940D01*
X81645Y12815D01*
X81068Y13567D01*
X80316Y14145D01*
X79440Y14507D01*
X78500Y14631D01*
X77560Y14507D01*
X76684Y14145D01*
X75932Y13567D01*
X75355Y12815D01*
X74993Y11940D01*
X74869Y11000D01*
Y6000D01*
X74993Y5060D01*
X75355Y4185D01*
X75517Y3974D01*
X75296Y3526D01*
X71705D01*
X71483Y3974D01*
X71645Y4185D01*
X72007Y5060D01*
X72131Y6000D01*
Y11000D01*
X72007Y11940D01*
X71645Y12815D01*
X71068Y13567D01*
X70315Y14145D01*
X70131Y14221D01*
Y21500D01*
X70007Y22124D01*
X69653Y22654D01*
X62653Y29653D01*
X62124Y30007D01*
X61500Y30131D01*
X14221D01*
X14145Y30316D01*
X13567Y31067D01*
X12815Y31645D01*
X11940Y32007D01*
X11000Y32131D01*
X6000D01*
X5060Y32007D01*
X4185Y31645D01*
X3974Y31483D01*
X3526Y31705D01*
Y35296D01*
X3974Y35517D01*
X4185Y35355D01*
X5060Y34993D01*
X6000Y34869D01*
X11000D01*
X11940Y34993D01*
X12815Y35355D01*
X13567Y35932D01*
X14145Y36685D01*
X14507Y37560D01*
X14631Y38500D01*
X14507Y39440D01*
X14145Y40315D01*
X13567Y41067D01*
X12815Y41645D01*
X11940Y42007D01*
X11000Y42131D01*
X6000D01*
X5060Y42007D01*
X4185Y41645D01*
X3974Y41483D01*
X3526Y41704D01*
Y45296D01*
X3974Y45517D01*
X4185Y45355D01*
X5060Y44993D01*
X6000Y44869D01*
X11000D01*
X11940Y44993D01*
X12815Y45355D01*
X13567Y45932D01*
X14145Y46685D01*
X14507Y47560D01*
X14631Y48500D01*
X14507Y49440D01*
X14145Y50315D01*
X13567Y51068D01*
X12815Y51645D01*
X11940Y52007D01*
X11000Y52131D01*
X6000D01*
X5060Y52007D01*
X4185Y51645D01*
X3974Y51483D01*
X3526Y51705D01*
Y55295D01*
X3974Y55517D01*
X4185Y55355D01*
X5060Y54993D01*
X6000Y54869D01*
X11000D01*
X11940Y54993D01*
X12815Y55355D01*
X13567Y55932D01*
X14145Y56684D01*
X14507Y57560D01*
X14631Y58500D01*
X14507Y59440D01*
X14145Y60316D01*
X13567Y61068D01*
X12815Y61645D01*
X11940Y62007D01*
X11000Y62131D01*
X6000D01*
X5060Y62007D01*
X4185Y61645D01*
X3974Y61483D01*
X3526Y61704D01*
Y64791D01*
X3660Y64858D01*
X4026Y64988D01*
X4956Y64603D01*
X6000Y64465D01*
X8000D01*
Y68500D01*
Y72535D01*
X6000D01*
X4956Y72397D01*
X4026Y72012D01*
X3660Y72142D01*
X3526Y72209D01*
Y74791D01*
X3660Y74858D01*
X4026Y74988D01*
X4956Y74603D01*
X6000Y74466D01*
X8000D01*
Y78500D01*
Y82534D01*
X6000D01*
X4956Y82397D01*
X4026Y82012D01*
X3660Y82142D01*
X3526Y82209D01*
Y85295D01*
X3974Y85517D01*
X4185Y85355D01*
X5060Y84993D01*
X6000Y84869D01*
X11000D01*
X11940Y84993D01*
X12815Y85355D01*
X13567Y85932D01*
X14145Y86685D01*
X14507Y87560D01*
X14631Y88500D01*
X14507Y89440D01*
X14145Y90316D01*
X13567Y91068D01*
X12815Y91645D01*
X11940Y92007D01*
X11000Y92131D01*
X6000D01*
X5060Y92007D01*
X4185Y91645D01*
X3974Y91483D01*
X3526Y91704D01*
Y95296D01*
X3974Y95517D01*
X4185Y95355D01*
X5060Y94993D01*
X6000Y94869D01*
X11000D01*
X11940Y94993D01*
X12815Y95355D01*
X13567Y95932D01*
X14145Y96684D01*
X14507Y97560D01*
X14631Y98500D01*
X14507Y99440D01*
X14145Y100315D01*
X13567Y101068D01*
X12815Y101645D01*
X11940Y102007D01*
X11000Y102131D01*
X6000D01*
X5060Y102007D01*
X4185Y101645D01*
X3974Y101483D01*
X3526Y101705D01*
Y105296D01*
X3974Y105517D01*
X4185Y105355D01*
X5060Y104993D01*
X6000Y104869D01*
X11000D01*
X11940Y104993D01*
X12815Y105355D01*
X13567Y105932D01*
X14145Y106685D01*
X14507Y107560D01*
X14631Y108500D01*
X14507Y109440D01*
X14145Y110316D01*
X13567Y111068D01*
X12815Y111645D01*
X11940Y112007D01*
X11000Y112131D01*
X6000D01*
X5060Y112007D01*
X4185Y111645D01*
X3974Y111483D01*
X3526Y111705D01*
Y115296D01*
X3974Y115517D01*
X4185Y115355D01*
X5060Y114993D01*
X6000Y114869D01*
X11000D01*
X11940Y114993D01*
X12815Y115355D01*
X13567Y115932D01*
X14145Y116684D01*
X14507Y117560D01*
X14510Y117582D01*
X36120D01*
X38582Y115120D01*
Y91552D01*
X38202Y91298D01*
X37804Y90702D01*
X37665Y90000D01*
X37804Y89298D01*
X38202Y88702D01*
X38798Y88304D01*
X39500Y88165D01*
X40202Y88304D01*
X40798Y88702D01*
X41196Y89298D01*
X41335Y90000D01*
X41196Y90702D01*
X40798Y91298D01*
X40418Y91552D01*
Y115500D01*
X40348Y115851D01*
X40149Y116149D01*
X37149Y119149D01*
X36851Y119348D01*
X36500Y119418D01*
X14510D01*
X14507Y119440D01*
X14145Y120316D01*
X13567Y121068D01*
X12815Y121645D01*
X11940Y122007D01*
X11000Y122131D01*
X6000D01*
X5060Y122007D01*
X4185Y121645D01*
X3974Y121483D01*
X3526Y121704D01*
Y125295D01*
X3974Y125517D01*
X4185Y125355D01*
X5060Y124993D01*
X6000Y124869D01*
X11000D01*
X11940Y124993D01*
X12815Y125355D01*
X13567Y125932D01*
X14145Y126684D01*
X14507Y127560D01*
X14631Y128500D01*
X14507Y129440D01*
X14145Y130315D01*
X13567Y131068D01*
X12815Y131645D01*
X11940Y132007D01*
X11000Y132131D01*
X6000D01*
X5060Y132007D01*
X4185Y131645D01*
X3974Y131483D01*
X3526Y131704D01*
Y135295D01*
X3974Y135517D01*
X4185Y135355D01*
X5060Y134993D01*
X6000Y134869D01*
X11000D01*
X11940Y134993D01*
X12815Y135355D01*
X13567Y135932D01*
X14145Y136685D01*
X14507Y137560D01*
X14631Y138500D01*
X14507Y139440D01*
X14145Y140315D01*
X13567Y141068D01*
X12815Y141645D01*
X11940Y142007D01*
X11000Y142131D01*
X6000D01*
X5060Y142007D01*
X4185Y141645D01*
X3974Y141483D01*
X3526Y141704D01*
Y145296D01*
X3974Y145517D01*
X4185Y145355D01*
X5060Y144993D01*
X6000Y144869D01*
X11000D01*
X11940Y144993D01*
X12815Y145355D01*
X13567Y145932D01*
X14145Y146685D01*
X14507Y147560D01*
X14631Y148500D01*
X14507Y149440D01*
X14145Y150315D01*
X13567Y151068D01*
X12815Y151645D01*
X11940Y152007D01*
X11000Y152131D01*
X6000D01*
X5060Y152007D01*
X4185Y151645D01*
X3974Y151483D01*
X3526Y151705D01*
Y155296D01*
X3974Y155517D01*
X4185Y155355D01*
X5060Y154993D01*
X6000Y154869D01*
X11000D01*
X11940Y154993D01*
X12815Y155355D01*
X13567Y155932D01*
X14145Y156685D01*
X14507Y157560D01*
X14631Y158500D01*
X14507Y159440D01*
X14145Y160316D01*
X13567Y161068D01*
X12815Y161645D01*
X11940Y162007D01*
X11000Y162131D01*
X6000D01*
X5060Y162007D01*
X4185Y161645D01*
X3974Y161483D01*
X3526Y161705D01*
Y164791D01*
X3660Y164857D01*
X4026Y164988D01*
X4956Y164603D01*
X6000Y164465D01*
X8000D01*
Y168500D01*
Y172535D01*
X6000D01*
X4956Y172397D01*
X4026Y172012D01*
X3660Y172143D01*
X3526Y172209D01*
Y175295D01*
X3974Y175517D01*
X4185Y175355D01*
X5060Y174993D01*
X6000Y174869D01*
X11000D01*
X11940Y174993D01*
X12815Y175355D01*
X13567Y175932D01*
X14145Y176684D01*
X14507Y177560D01*
X14631Y178500D01*
X14507Y179440D01*
X14145Y180315D01*
X13567Y181068D01*
X12815Y181645D01*
X11940Y182007D01*
X11000Y182131D01*
X6000D01*
X5060Y182007D01*
X4185Y181645D01*
X3974Y181483D01*
X3526Y181704D01*
Y184791D01*
X3660Y184857D01*
X4026Y184988D01*
X4956Y184603D01*
X6000Y184466D01*
X8000D01*
Y188500D01*
Y192534D01*
X6000D01*
X4956Y192397D01*
X4026Y192012D01*
X3660Y192142D01*
X3526Y192209D01*
Y195296D01*
X3974Y195517D01*
X4185Y195355D01*
X5060Y194993D01*
X6000Y194869D01*
X11000D01*
X11940Y194993D01*
X12815Y195355D01*
X13567Y195932D01*
X14145Y196685D01*
X14507Y197560D01*
X14631Y198500D01*
X14507Y199440D01*
X14145Y200315D01*
X13567Y201068D01*
X12815Y201645D01*
X11940Y202007D01*
X11000Y202131D01*
X6000D01*
X5060Y202007D01*
X4185Y201645D01*
X3974Y201483D01*
X3526Y201705D01*
Y204791D01*
X3660Y204857D01*
X4026Y204988D01*
X4956Y204603D01*
X6000Y204466D01*
X8000D01*
Y208500D01*
Y212534D01*
X6000D01*
X4956Y212397D01*
X4026Y212012D01*
X3660Y212142D01*
X3526Y212209D01*
Y214900D01*
X14600D01*
Y222100D01*
X3526D01*
Y251474D01*
X24383D01*
X24439Y250997D01*
X22534Y250208D01*
X20776Y249131D01*
X19208Y247792D01*
X17869Y246224D01*
X16792Y244466D01*
X16003Y242561D01*
X15521Y240556D01*
X15360Y238500D01*
X15521Y236444D01*
X16003Y234439D01*
X16792Y232534D01*
X17869Y230776D01*
X19208Y229208D01*
X20776Y227869D01*
X22534Y226792D01*
X24439Y226003D01*
X26444Y225521D01*
X28500Y225360D01*
X30556Y225521D01*
X32561Y226003D01*
X34466Y226792D01*
X36224Y227869D01*
X37792Y229208D01*
X39131Y230776D01*
X40208Y232534D01*
X40997Y234439D01*
X41479Y236444D01*
X41640Y238500D01*
X41479Y240556D01*
X40997Y242561D01*
X40208Y244466D01*
X39131Y246224D01*
X37792Y247792D01*
X36224Y249131D01*
X34466Y250208D01*
X32561Y250997D01*
X32617Y251474D01*
X105992D01*
Y243000D01*
X111746D01*
X117500D01*
Y251474D01*
X140500D01*
Y243000D01*
X146254D01*
X152008D01*
Y251474D01*
X174383D01*
X174439Y250997D01*
X172534Y250208D01*
X170776Y249131D01*
X169208Y247792D01*
X167869Y246224D01*
X166792Y244466D01*
X166003Y242561D01*
X165521Y240556D01*
X165359Y238500D01*
X165521Y236444D01*
X166003Y234439D01*
X166792Y232534D01*
X167869Y230776D01*
X169208Y229208D01*
X170776Y227869D01*
X172534Y226792D01*
X174439Y226003D01*
X176444Y225521D01*
X178500Y225360D01*
X180556Y225521D01*
X182561Y226003D01*
X184466Y226792D01*
X186224Y227869D01*
X187792Y229208D01*
X189131Y230776D01*
X190208Y232534D01*
X190997Y234439D01*
X191479Y236444D01*
X191640Y238500D01*
X191479Y240556D01*
X190997Y242561D01*
X190208Y244466D01*
X189131Y246224D01*
X187792Y247792D01*
X186224Y249131D01*
X184466Y250208D01*
X182561Y250997D01*
X182617Y251474D01*
X203474D01*
Y222500D01*
D02*
G37*
G36*
X66869Y20824D02*
Y14221D01*
X66685Y14145D01*
X65932Y13567D01*
X65355Y12815D01*
X64993Y11940D01*
X64869Y11000D01*
Y6000D01*
X64993Y5060D01*
X65355Y4185D01*
X65517Y3974D01*
X65295Y3526D01*
X61704D01*
X61483Y3974D01*
X61645Y4185D01*
X62007Y5060D01*
X62131Y6000D01*
Y11000D01*
X62007Y11940D01*
X61645Y12815D01*
X61068Y13567D01*
X60316Y14145D01*
X59440Y14507D01*
X58500Y14631D01*
X57560Y14507D01*
X56684Y14145D01*
X55932Y13567D01*
X55355Y12815D01*
X54993Y11940D01*
X54869Y11000D01*
Y6000D01*
X54993Y5060D01*
X55355Y4185D01*
X55517Y3974D01*
X55295Y3526D01*
X51705D01*
X51483Y3974D01*
X51645Y4185D01*
X52007Y5060D01*
X52131Y6000D01*
Y11000D01*
X52007Y11940D01*
X51645Y12815D01*
X51068Y13567D01*
X50315Y14145D01*
X49440Y14507D01*
X48500Y14631D01*
X47560Y14507D01*
X46685Y14145D01*
X45932Y13567D01*
X45355Y12815D01*
X44993Y11940D01*
X44869Y11000D01*
Y6000D01*
X44993Y5060D01*
X45355Y4185D01*
X45517Y3974D01*
X45296Y3526D01*
X41704D01*
X41483Y3974D01*
X41645Y4185D01*
X42007Y5060D01*
X42131Y6000D01*
Y11000D01*
X42007Y11940D01*
X41645Y12815D01*
X41067Y13567D01*
X40315Y14145D01*
X39440Y14507D01*
X38500Y14631D01*
X37560Y14507D01*
X36685Y14145D01*
X35932Y13567D01*
X35355Y12815D01*
X34993Y11940D01*
X34869Y11000D01*
Y6000D01*
X34993Y5060D01*
X35355Y4185D01*
X35517Y3974D01*
X35296Y3526D01*
X31705D01*
X31483Y3974D01*
X31645Y4185D01*
X32007Y5060D01*
X32131Y6000D01*
Y11000D01*
X32007Y11940D01*
X31645Y12815D01*
X31067Y13567D01*
X30316Y14145D01*
X29440Y14507D01*
X28500Y14631D01*
X27560Y14507D01*
X26684Y14145D01*
X25932Y13567D01*
X25355Y12815D01*
X24993Y11940D01*
X24869Y11000D01*
Y6000D01*
X24993Y5060D01*
X25355Y4185D01*
X25517Y3974D01*
X25295Y3526D01*
X21704D01*
X21483Y3974D01*
X21645Y4185D01*
X22007Y5060D01*
X22131Y6000D01*
Y11000D01*
X22007Y11940D01*
X21645Y12815D01*
X21068Y13567D01*
X20315Y14145D01*
X19440Y14507D01*
X18500Y14631D01*
X17560Y14507D01*
X16684Y14145D01*
X15933Y13567D01*
X15355Y12815D01*
X14993Y11940D01*
X14869Y11000D01*
Y6000D01*
X14993Y5060D01*
X15355Y4185D01*
X15517Y3974D01*
X15295Y3526D01*
X12500D01*
Y8000D01*
X8500D01*
X4500D01*
Y3526D01*
X3526D01*
Y25295D01*
X3974Y25517D01*
X4185Y25355D01*
X5060Y24993D01*
X6000Y24869D01*
X11000D01*
X11940Y24993D01*
X12815Y25355D01*
X13567Y25932D01*
X14145Y26684D01*
X14221Y26869D01*
X60824D01*
X66869Y20824D01*
D02*
G37*
%LPC*%
G36*
X152008Y242000D02*
X146754D01*
Y231500D01*
X152008D01*
Y242000D01*
D02*
G37*
G36*
X145754D02*
X140500D01*
Y231500D01*
X145754D01*
Y242000D01*
D02*
G37*
G36*
X117500D02*
X112246D01*
Y231500D01*
X117500D01*
Y242000D01*
D02*
G37*
G36*
X111246D02*
X105992D01*
Y231500D01*
X111246D01*
Y242000D01*
D02*
G37*
G36*
X198000Y222500D02*
X192000D01*
Y219000D01*
X198000D01*
Y222500D01*
D02*
G37*
G36*
Y218000D02*
X192000D01*
Y214500D01*
X198000D01*
Y218000D01*
D02*
G37*
G36*
X11000Y212534D02*
X9000D01*
Y209000D01*
X14969D01*
X14897Y209544D01*
X14494Y210517D01*
X13853Y211353D01*
X13017Y211994D01*
X12044Y212397D01*
X11000Y212534D01*
D02*
G37*
G36*
X14969Y208000D02*
X9000D01*
Y204466D01*
X11000D01*
X12044Y204603D01*
X13017Y205006D01*
X13853Y205647D01*
X14494Y206483D01*
X14897Y207456D01*
X14969Y208000D01*
D02*
G37*
G36*
X115086Y191835D02*
X114383Y191696D01*
X114287Y191631D01*
X96000D01*
X95376Y191507D01*
X95248Y191422D01*
X95200Y191431D01*
X94576Y191307D01*
X94046Y190954D01*
X93693Y190424D01*
X93569Y189800D01*
X93693Y189176D01*
X93571Y188972D01*
X93299Y188776D01*
X93000Y188835D01*
X92298Y188696D01*
X91702Y188298D01*
X91304Y187702D01*
X91165Y187000D01*
X91304Y186298D01*
X91416Y186131D01*
X91148Y185631D01*
X75298D01*
X75202Y185696D01*
X74500Y185835D01*
X73798Y185696D01*
X73202Y185298D01*
X72804Y184702D01*
X72665Y184000D01*
X72804Y183298D01*
X73202Y182702D01*
X73798Y182304D01*
X74500Y182165D01*
X75202Y182304D01*
X75298Y182369D01*
X112911D01*
X113933Y181346D01*
X114462Y180993D01*
X115087Y180869D01*
X115544D01*
X115640Y180804D01*
X116342Y180665D01*
X117045Y180804D01*
X117640Y181202D01*
X118038Y181798D01*
X118178Y182500D01*
X118038Y183202D01*
X117640Y183798D01*
X117045Y184196D01*
X116875Y184229D01*
Y184739D01*
X117202Y184804D01*
X117798Y185202D01*
X118196Y185798D01*
X118335Y186500D01*
X118196Y187202D01*
X117798Y187798D01*
X117202Y188196D01*
X116671Y188301D01*
X116587Y188419D01*
X116464Y188746D01*
X116458Y188814D01*
X116781Y189298D01*
X116921Y190000D01*
X116781Y190702D01*
X116384Y191298D01*
X115788Y191696D01*
X115086Y191835D01*
D02*
G37*
G36*
X198000Y192534D02*
X196000D01*
X194956Y192397D01*
X193983Y191994D01*
X193147Y191353D01*
X192506Y190517D01*
X192103Y189544D01*
X192031Y189000D01*
X198000D01*
Y192534D01*
D02*
G37*
G36*
X11000D02*
X9000D01*
Y189000D01*
X14969D01*
X14897Y189544D01*
X14494Y190517D01*
X13853Y191353D01*
X13017Y191994D01*
X12044Y192397D01*
X11000Y192534D01*
D02*
G37*
G36*
X198000Y188000D02*
X192031D01*
X192103Y187456D01*
X192506Y186483D01*
X193147Y185647D01*
X193983Y185006D01*
X194956Y184603D01*
X196000Y184466D01*
X198000D01*
Y188000D01*
D02*
G37*
G36*
X14969D02*
X9000D01*
Y184466D01*
X11000D01*
X12044Y184603D01*
X13017Y185006D01*
X13853Y185647D01*
X14494Y186483D01*
X14897Y187456D01*
X14969Y188000D01*
D02*
G37*
G36*
X158000Y179123D02*
X157062Y179000D01*
X156188Y178638D01*
X155438Y178062D01*
X154862Y177312D01*
X154500Y176438D01*
X154377Y175500D01*
X154500Y174562D01*
X154862Y173688D01*
X155438Y172938D01*
X156188Y172362D01*
X157062Y172000D01*
X158000Y171877D01*
X158938Y172000D01*
X159812Y172362D01*
X160562Y172938D01*
X161138Y173688D01*
X161500Y174562D01*
X161623Y175500D01*
X161500Y176438D01*
X161138Y177312D01*
X160562Y178062D01*
X159812Y178638D01*
X158938Y179000D01*
X158000Y179123D01*
D02*
G37*
G36*
X11000Y172535D02*
X9000D01*
Y169000D01*
X14969D01*
X14897Y169544D01*
X14494Y170517D01*
X13853Y171353D01*
X13017Y171994D01*
X12044Y172397D01*
X11000Y172535D01*
D02*
G37*
G36*
X14969Y168000D02*
X9000D01*
Y164465D01*
X11000D01*
X12044Y164603D01*
X13017Y165006D01*
X13853Y165647D01*
X14494Y166483D01*
X14897Y167456D01*
X14969Y168000D01*
D02*
G37*
G36*
X161592Y169092D02*
X154408D01*
Y161908D01*
X161592D01*
Y169092D01*
D02*
G37*
G36*
X198000Y162534D02*
X196000D01*
X194956Y162397D01*
X193983Y161994D01*
X193147Y161353D01*
X192506Y160517D01*
X192103Y159544D01*
X192031Y159000D01*
X198000D01*
Y162534D01*
D02*
G37*
G36*
Y158000D02*
X192031D01*
X192103Y157456D01*
X192506Y156483D01*
X193147Y155647D01*
X193983Y155006D01*
X194956Y154603D01*
X196000Y154465D01*
X198000D01*
Y158000D01*
D02*
G37*
G36*
X85000Y147835D02*
X84298Y147696D01*
X83702Y147298D01*
X83304Y146702D01*
X83165Y146000D01*
X83304Y145298D01*
X83702Y144702D01*
X84298Y144304D01*
X85000Y144165D01*
X85702Y144304D01*
X86298Y144702D01*
X86696Y145298D01*
X86835Y146000D01*
X86696Y146702D01*
X86298Y147298D01*
X85702Y147696D01*
X85000Y147835D01*
D02*
G37*
G36*
X198000Y142534D02*
X196000D01*
X194956Y142397D01*
X193983Y141994D01*
X193147Y141353D01*
X192506Y140517D01*
X192103Y139544D01*
X192031Y139000D01*
X198000D01*
Y142534D01*
D02*
G37*
G36*
Y138000D02*
X192031D01*
X192103Y137456D01*
X192506Y136483D01*
X193147Y135647D01*
X193983Y135006D01*
X194956Y134603D01*
X196000Y134466D01*
X198000D01*
Y138000D01*
D02*
G37*
G36*
X63500Y148835D02*
X62798Y148696D01*
X62202Y148298D01*
X61804Y147702D01*
X61773Y147543D01*
X61493Y147124D01*
X61369Y146500D01*
Y134298D01*
X61304Y134202D01*
X61165Y133500D01*
X61304Y132798D01*
X61702Y132202D01*
X62298Y131804D01*
X63000Y131665D01*
X63702Y131804D01*
X64298Y132202D01*
X64696Y132798D01*
X64835Y133500D01*
X64696Y134202D01*
X64631Y134298D01*
Y145591D01*
X64798Y145702D01*
X65196Y146298D01*
X65335Y147000D01*
X65196Y147702D01*
X64798Y148298D01*
X64202Y148696D01*
X63500Y148835D01*
D02*
G37*
G36*
X124709Y156304D02*
X124006Y156164D01*
X123411Y155766D01*
X123013Y155171D01*
X122873Y154469D01*
X123013Y153766D01*
X123077Y153670D01*
Y143850D01*
X123013Y143754D01*
X122873Y143051D01*
X123013Y142349D01*
X123411Y141753D01*
X124006Y141356D01*
X124120Y141333D01*
X125869Y139584D01*
Y131798D01*
X125804Y131702D01*
X125665Y131000D01*
X125804Y130298D01*
X126202Y129702D01*
X126798Y129304D01*
X127500Y129165D01*
X128202Y129304D01*
X128798Y129702D01*
X129196Y130298D01*
X129335Y131000D01*
X129196Y131702D01*
X129131Y131798D01*
Y140260D01*
X129007Y140884D01*
X128654Y141413D01*
X126427Y143640D01*
X126404Y143754D01*
X126340Y143850D01*
Y153670D01*
X126404Y153766D01*
X126544Y154469D01*
X126404Y155171D01*
X126006Y155766D01*
X125411Y156164D01*
X124709Y156304D01*
D02*
G37*
G36*
X198000Y132535D02*
X196000D01*
X194956Y132397D01*
X193983Y131994D01*
X193147Y131353D01*
X192506Y130517D01*
X192103Y129544D01*
X192031Y129000D01*
X198000D01*
Y132535D01*
D02*
G37*
G36*
X94492Y165710D02*
X93790Y165570D01*
X93194Y165173D01*
X92797Y164577D01*
X92657Y163875D01*
X92797Y163172D01*
X93194Y162577D01*
X93790Y162179D01*
X93903Y162157D01*
X97369Y158691D01*
Y152176D01*
X94346Y149153D01*
X93993Y148624D01*
X93869Y148000D01*
Y130176D01*
X92431Y128738D01*
X91109D01*
X91013Y128802D01*
X90311Y128942D01*
X89608Y128802D01*
X89013Y128404D01*
X88615Y127809D01*
X88475Y127106D01*
X88615Y126404D01*
X89013Y125809D01*
X89608Y125411D01*
X90311Y125271D01*
X91013Y125411D01*
X91109Y125475D01*
X93106D01*
X93731Y125599D01*
X94260Y125953D01*
X96653Y128347D01*
X97007Y128876D01*
X97131Y129500D01*
Y147324D01*
X100154Y150347D01*
X100507Y150876D01*
X100631Y151500D01*
Y159367D01*
X100507Y159991D01*
X100154Y160521D01*
X96210Y164464D01*
X96188Y164577D01*
X95790Y165173D01*
X95194Y165570D01*
X94492Y165710D01*
D02*
G37*
G36*
X198000Y128000D02*
X192031D01*
X192103Y127456D01*
X192506Y126483D01*
X193147Y125647D01*
X193983Y125006D01*
X194956Y124603D01*
X196000Y124466D01*
X198000D01*
Y128000D01*
D02*
G37*
G36*
X90000Y122835D02*
X89298Y122696D01*
X88702Y122298D01*
X88304Y121702D01*
X88165Y121000D01*
X88304Y120298D01*
X88702Y119702D01*
X89298Y119304D01*
X90000Y119165D01*
X90702Y119304D01*
X91298Y119702D01*
X91696Y120298D01*
X91835Y121000D01*
X91696Y121702D01*
X91298Y122298D01*
X90702Y122696D01*
X90000Y122835D01*
D02*
G37*
G36*
X123331Y117483D02*
X122628Y117344D01*
X122033Y116946D01*
X121635Y116350D01*
X121495Y115648D01*
X121635Y114946D01*
X122033Y114350D01*
X122628Y113953D01*
X123331Y113813D01*
X124033Y113953D01*
X124628Y114350D01*
X125026Y114946D01*
X125166Y115648D01*
X125026Y116350D01*
X124628Y116946D01*
X124033Y117344D01*
X123331Y117483D01*
D02*
G37*
G36*
X174000Y99395D02*
X173298Y99255D01*
X173202Y99191D01*
X155298D01*
X155202Y99255D01*
X154500Y99395D01*
X153798Y99255D01*
X153202Y98857D01*
X152804Y98262D01*
X152665Y97560D01*
X152804Y96857D01*
X153202Y96262D01*
X153798Y95864D01*
X154500Y95724D01*
X155202Y95864D01*
X155298Y95928D01*
X173202D01*
X173298Y95864D01*
X174000Y95724D01*
X174702Y95864D01*
X175298Y96262D01*
X175696Y96857D01*
X175835Y97560D01*
X175696Y98262D01*
X175298Y98857D01*
X174702Y99255D01*
X174000Y99395D01*
D02*
G37*
G36*
X148945D02*
X148242Y99255D01*
X148146Y99191D01*
X138798D01*
X138702Y99255D01*
X138000Y99395D01*
X137298Y99255D01*
X136702Y98857D01*
X136304Y98262D01*
X136165Y97560D01*
X136304Y96857D01*
X136702Y96262D01*
X137298Y95864D01*
X138000Y95724D01*
X138702Y95864D01*
X138798Y95928D01*
X148146D01*
X148242Y95864D01*
X148945Y95724D01*
X149647Y95864D01*
X150242Y96262D01*
X150640Y96857D01*
X150780Y97560D01*
X150640Y98262D01*
X150242Y98857D01*
X149647Y99255D01*
X148945Y99395D01*
D02*
G37*
G36*
X119500Y91835D02*
X118798Y91696D01*
X118202Y91298D01*
X117948Y90918D01*
X114052D01*
X113798Y91298D01*
X113202Y91696D01*
X112500Y91835D01*
X111798Y91696D01*
X111202Y91298D01*
X110804Y90702D01*
X110665Y90000D01*
X110804Y89298D01*
X111202Y88702D01*
X111798Y88304D01*
X112500Y88165D01*
X113202Y88304D01*
X113798Y88702D01*
X114052Y89082D01*
X117948D01*
X118202Y88702D01*
X118798Y88304D01*
X119500Y88165D01*
X120202Y88304D01*
X120798Y88702D01*
X121196Y89298D01*
X121335Y90000D01*
X121196Y90702D01*
X120798Y91298D01*
X120202Y91696D01*
X119500Y91835D01*
D02*
G37*
G36*
X139000D02*
X138298Y91696D01*
X137702Y91298D01*
X137304Y90702D01*
X137165Y90000D01*
X137304Y89298D01*
X137702Y88702D01*
X138298Y88304D01*
X139000Y88165D01*
X139702Y88304D01*
X140118Y88582D01*
X145948D01*
X146202Y88202D01*
X146798Y87804D01*
X147500Y87665D01*
X148202Y87804D01*
X148798Y88202D01*
X149196Y88798D01*
X149335Y89500D01*
X149196Y90202D01*
X148798Y90798D01*
X148202Y91196D01*
X147500Y91335D01*
X146798Y91196D01*
X146202Y90798D01*
X145948Y90418D01*
X140752D01*
X140696Y90702D01*
X140298Y91298D01*
X139702Y91696D01*
X139000Y91835D01*
D02*
G37*
G36*
X126000Y94335D02*
X125298Y94196D01*
X124702Y93798D01*
X124304Y93202D01*
X124165Y92500D01*
X124304Y91798D01*
X124369Y91702D01*
Y89676D01*
X121824Y87131D01*
X110298D01*
X110202Y87196D01*
X109500Y87335D01*
X108798Y87196D01*
X108202Y86798D01*
X107804Y86202D01*
X107665Y85500D01*
X107804Y84798D01*
X108202Y84202D01*
X108798Y83804D01*
X109500Y83665D01*
X110202Y83804D01*
X110298Y83869D01*
X122500D01*
X123124Y83993D01*
X123653Y84346D01*
X127154Y87846D01*
X127507Y88376D01*
X127631Y89000D01*
Y91702D01*
X127696Y91798D01*
X127835Y92500D01*
X127696Y93202D01*
X127298Y93798D01*
X126702Y94196D01*
X126000Y94335D01*
D02*
G37*
G36*
X78500Y100461D02*
X77798Y100321D01*
X77202Y99923D01*
X76804Y99328D01*
X76665Y98626D01*
X76804Y97923D01*
X76869Y97827D01*
Y87298D01*
X76804Y87202D01*
X76665Y86500D01*
X76804Y85798D01*
X77202Y85202D01*
X77798Y84804D01*
X78500Y84665D01*
X79202Y84804D01*
X79798Y85202D01*
X80196Y85798D01*
X80335Y86500D01*
X80196Y87202D01*
X80131Y87298D01*
Y97827D01*
X80196Y97923D01*
X80335Y98626D01*
X80196Y99328D01*
X79798Y99923D01*
X79202Y100321D01*
X78500Y100461D01*
D02*
G37*
G36*
X11000Y82534D02*
X9000D01*
Y79000D01*
X14969D01*
X14897Y79544D01*
X14494Y80517D01*
X13853Y81353D01*
X13017Y81994D01*
X12044Y82397D01*
X11000Y82534D01*
D02*
G37*
G36*
X120000Y77835D02*
X119298Y77696D01*
X118702Y77298D01*
X118448Y76918D01*
X110414D01*
X110160Y77298D01*
X109564Y77696D01*
X108862Y77835D01*
X108160Y77696D01*
X107564Y77298D01*
X107167Y76702D01*
X107027Y76000D01*
X107167Y75298D01*
X107564Y74702D01*
X108160Y74304D01*
X108862Y74165D01*
X109564Y74304D01*
X110160Y74702D01*
X110414Y75082D01*
X118448D01*
X118702Y74702D01*
X119298Y74304D01*
X120000Y74165D01*
X120702Y74304D01*
X121298Y74702D01*
X121696Y75298D01*
X121835Y76000D01*
X121696Y76702D01*
X121298Y77298D01*
X120702Y77696D01*
X120000Y77835D01*
D02*
G37*
G36*
X163000Y77335D02*
X162298Y77196D01*
X161702Y76798D01*
X161448Y76418D01*
X156052D01*
X155798Y76798D01*
X155202Y77196D01*
X154500Y77335D01*
X153798Y77196D01*
X153202Y76798D01*
X152804Y76202D01*
X152665Y75500D01*
X152804Y74798D01*
X153202Y74202D01*
X153798Y73804D01*
X154500Y73665D01*
X155202Y73804D01*
X155798Y74202D01*
X156052Y74582D01*
X161448D01*
X161702Y74202D01*
X162298Y73804D01*
X163000Y73665D01*
X163702Y73804D01*
X164298Y74202D01*
X164696Y74798D01*
X164835Y75500D01*
X164696Y76202D01*
X164298Y76798D01*
X163702Y77196D01*
X163000Y77335D01*
D02*
G37*
G36*
X147000D02*
X146298Y77196D01*
X145702Y76798D01*
X145448Y76418D01*
X140052D01*
X139798Y76798D01*
X139202Y77196D01*
X138500Y77335D01*
X137798Y77196D01*
X137202Y76798D01*
X136804Y76202D01*
X136665Y75500D01*
X136804Y74798D01*
X137202Y74202D01*
X137798Y73804D01*
X138500Y73665D01*
X139202Y73804D01*
X139798Y74202D01*
X140052Y74582D01*
X145448D01*
X145702Y74202D01*
X146298Y73804D01*
X147000Y73665D01*
X147702Y73804D01*
X148298Y74202D01*
X148696Y74798D01*
X148835Y75500D01*
X148696Y76202D01*
X148298Y76798D01*
X147702Y77196D01*
X147000Y77335D01*
D02*
G37*
G36*
X14969Y78000D02*
X9000D01*
Y74466D01*
X11000D01*
X12044Y74603D01*
X13017Y75006D01*
X13853Y75647D01*
X14494Y76483D01*
X14897Y77456D01*
X14969Y78000D01*
D02*
G37*
G36*
X163000Y72835D02*
X162298Y72696D01*
X161702Y72298D01*
X161448Y71918D01*
X156052D01*
X155798Y72298D01*
X155202Y72696D01*
X154500Y72835D01*
X153798Y72696D01*
X153202Y72298D01*
X152804Y71702D01*
X152665Y71000D01*
X152804Y70298D01*
X153202Y69702D01*
X153429Y69551D01*
Y68949D01*
X153202Y68798D01*
X152804Y68202D01*
X152665Y67500D01*
X152804Y66798D01*
X153202Y66202D01*
X153798Y65804D01*
X154500Y65665D01*
X155202Y65804D01*
X155798Y66202D01*
X156052Y66582D01*
X161448D01*
X161702Y66202D01*
X162298Y65804D01*
X163000Y65665D01*
X163702Y65804D01*
X164298Y66202D01*
X164696Y66798D01*
X164835Y67500D01*
X164696Y68202D01*
X164298Y68798D01*
X164071Y68949D01*
Y69551D01*
X164298Y69702D01*
X164696Y70298D01*
X164835Y71000D01*
X164696Y71702D01*
X164298Y72298D01*
X163702Y72696D01*
X163000Y72835D01*
D02*
G37*
G36*
X147000D02*
X146298Y72696D01*
X145702Y72298D01*
X145448Y71918D01*
X140552D01*
X140298Y72298D01*
X139702Y72696D01*
X139000Y72835D01*
X138298Y72696D01*
X137702Y72298D01*
X137304Y71702D01*
X137165Y71000D01*
X137304Y70298D01*
X137702Y69702D01*
X137912Y69562D01*
Y68961D01*
X137668Y68798D01*
X137270Y68202D01*
X137130Y67500D01*
X137270Y66798D01*
X137668Y66202D01*
X138263Y65804D01*
X138966Y65665D01*
X139668Y65804D01*
X140263Y66202D01*
X140517Y66582D01*
X145448D01*
X145702Y66202D01*
X146298Y65804D01*
X147000Y65665D01*
X147702Y65804D01*
X148298Y66202D01*
X148696Y66798D01*
X148835Y67500D01*
X148696Y68202D01*
X148298Y68798D01*
X148071Y68949D01*
Y69551D01*
X148298Y69702D01*
X148696Y70298D01*
X148835Y71000D01*
X148696Y71702D01*
X148298Y72298D01*
X147702Y72696D01*
X147000Y72835D01*
D02*
G37*
G36*
X120000D02*
X119298Y72696D01*
X118702Y72298D01*
X118448Y71918D01*
X110552D01*
X110298Y72298D01*
X109702Y72696D01*
X109000Y72835D01*
X108298Y72696D01*
X107702Y72298D01*
X107304Y71702D01*
X107165Y71000D01*
X107304Y70298D01*
X107702Y69702D01*
X107929Y69551D01*
Y68949D01*
X107702Y68798D01*
X107304Y68202D01*
X107165Y67500D01*
X107304Y66798D01*
X107702Y66202D01*
X108298Y65804D01*
X109000Y65665D01*
X109702Y65804D01*
X110298Y66202D01*
X110552Y66582D01*
X118448D01*
X118702Y66202D01*
X119298Y65804D01*
X120000Y65665D01*
X120702Y65804D01*
X121298Y66202D01*
X121696Y66798D01*
X121835Y67500D01*
X121696Y68202D01*
X121298Y68798D01*
X121071Y68949D01*
Y69551D01*
X121298Y69702D01*
X121696Y70298D01*
X121835Y71000D01*
X121696Y71702D01*
X121298Y72298D01*
X120702Y72696D01*
X120000Y72835D01*
D02*
G37*
G36*
X198000Y72535D02*
X196000D01*
X194956Y72397D01*
X193983Y71994D01*
X193147Y71353D01*
X192506Y70517D01*
X192103Y69544D01*
X192031Y69000D01*
X198000D01*
Y72535D01*
D02*
G37*
G36*
X11000D02*
X9000D01*
Y69000D01*
X14969D01*
X14897Y69544D01*
X14494Y70517D01*
X13853Y71353D01*
X13017Y71994D01*
X12044Y72397D01*
X11000Y72535D01*
D02*
G37*
G36*
X198000Y68000D02*
X192031D01*
X192103Y67456D01*
X192506Y66483D01*
X193147Y65647D01*
X193983Y65006D01*
X194956Y64603D01*
X196000Y64465D01*
X198000D01*
Y68000D01*
D02*
G37*
G36*
X14969D02*
X9000D01*
Y64465D01*
X11000D01*
X12044Y64603D01*
X13017Y65006D01*
X13853Y65647D01*
X14494Y66483D01*
X14897Y67456D01*
X14969Y68000D01*
D02*
G37*
G36*
X198000Y62534D02*
X196000D01*
X194956Y62397D01*
X193983Y61994D01*
X193147Y61353D01*
X192506Y60517D01*
X192103Y59544D01*
X192031Y59000D01*
X198000D01*
Y62534D01*
D02*
G37*
G36*
Y58000D02*
X192031D01*
X192103Y57456D01*
X192506Y56483D01*
X193147Y55647D01*
X193983Y55006D01*
X194956Y54603D01*
X196000Y54466D01*
X198000D01*
Y58000D01*
D02*
G37*
G36*
X98500Y51640D02*
X96444Y51479D01*
X94439Y50997D01*
X92534Y50208D01*
X90776Y49131D01*
X89208Y47792D01*
X87869Y46224D01*
X86792Y44466D01*
X86003Y42561D01*
X85521Y40556D01*
X85360Y38500D01*
X85521Y36444D01*
X86003Y34439D01*
X86792Y32534D01*
X87869Y30776D01*
X89208Y29208D01*
X90776Y27869D01*
X92534Y26792D01*
X94439Y26003D01*
X96444Y25521D01*
X98500Y25359D01*
X100556Y25521D01*
X102561Y26003D01*
X104466Y26792D01*
X106224Y27869D01*
X107792Y29208D01*
X109131Y30776D01*
X110208Y32534D01*
X110997Y34439D01*
X111479Y36444D01*
X111641Y38500D01*
X111479Y40556D01*
X110997Y42561D01*
X110208Y44466D01*
X109131Y46224D01*
X107792Y47792D01*
X106224Y49131D01*
X104466Y50208D01*
X102561Y50997D01*
X100556Y51479D01*
X98500Y51640D01*
D02*
G37*
G36*
X99000Y14969D02*
Y9000D01*
X102534D01*
Y11000D01*
X102397Y12044D01*
X101994Y13017D01*
X101353Y13853D01*
X100517Y14494D01*
X99544Y14897D01*
X99000Y14969D01*
D02*
G37*
G36*
X89000D02*
Y9000D01*
X92535D01*
Y11000D01*
X92397Y12044D01*
X91994Y13017D01*
X91353Y13853D01*
X90517Y14494D01*
X89544Y14897D01*
X89000Y14969D01*
D02*
G37*
G36*
X98000D02*
X97456Y14897D01*
X96483Y14494D01*
X95647Y13853D01*
X95006Y13017D01*
X94603Y12044D01*
X94466Y11000D01*
Y9000D01*
X98000D01*
Y14969D01*
D02*
G37*
G36*
X88000D02*
X87456Y14897D01*
X86483Y14494D01*
X85647Y13853D01*
X85006Y13017D01*
X84603Y12044D01*
X84465Y11000D01*
Y9000D01*
X88000D01*
Y14969D01*
D02*
G37*
G36*
X12500Y15000D02*
X9000D01*
Y9000D01*
X12500D01*
Y15000D01*
D02*
G37*
G36*
X8000D02*
X4500D01*
Y9000D01*
X8000D01*
Y15000D01*
D02*
G37*
%LPD*%
D14*
X154500Y67500D02*
X163000D01*
X147000D02*
X147500D01*
X138966D02*
X147000D01*
X109000D02*
X120000D01*
X108862Y76000D02*
X120000D01*
X138500Y75500D02*
X147000D01*
X109000Y71000D02*
X120000D01*
X139000D02*
X147000D01*
X154500D02*
X163000D01*
X154500Y75500D02*
X163000D01*
X8500Y118500D02*
X36500D01*
X39500Y115500D01*
Y90000D02*
Y115500D01*
X112500Y90000D02*
X119500D01*
X139000D02*
X139500Y89500D01*
X147500D01*
D45*
X111746Y242500D02*
D03*
X146254D02*
D03*
D49*
X95200Y189800D02*
X95500Y189500D01*
X96000Y190000D01*
X115086D01*
X93500Y186500D02*
X116500D01*
X93000Y187000D02*
X93500Y186500D01*
X74500Y184000D02*
X113587D01*
X115087Y182500D01*
X116342D01*
X68500Y8500D02*
Y21500D01*
X61500Y28500D02*
X68500Y21500D01*
X8500Y28500D02*
X61500D01*
X95500Y129500D02*
Y148000D01*
X94492Y163875D02*
X99000Y159367D01*
Y151500D02*
Y159367D01*
X95500Y148000D02*
X99000Y151500D01*
X63000Y146500D02*
X63500Y147000D01*
X63000Y133500D02*
Y146500D01*
X124709Y143051D02*
X127500Y140260D01*
Y131000D02*
Y140260D01*
X126000Y89000D02*
Y92500D01*
X122500Y85500D02*
X126000Y89000D01*
X109500Y85500D02*
X122500D01*
X78500Y86500D02*
Y98626D01*
X138000Y97560D02*
X148945D01*
X154500D02*
X174000D01*
X124709Y143051D02*
X124709Y143051D01*
X124709Y143051D02*
Y154469D01*
X93106Y127106D02*
X95500Y129500D01*
X90311Y127106D02*
X93106D01*
D54*
X158000Y165500D02*
D03*
D55*
Y175500D02*
D03*
D56*
X98500Y38500D02*
D03*
X28500Y238500D02*
D03*
X178500D02*
D03*
D57*
X8500Y218500D02*
D03*
X198500D02*
D03*
D58*
X8500Y208500D02*
D03*
Y198500D02*
D03*
Y188500D02*
D03*
Y178500D02*
D03*
Y168500D02*
D03*
Y158500D02*
D03*
Y148500D02*
D03*
Y138500D02*
D03*
Y128500D02*
D03*
Y118500D02*
D03*
Y108500D02*
D03*
Y98500D02*
D03*
Y88500D02*
D03*
Y78500D02*
D03*
Y68500D02*
D03*
Y58500D02*
D03*
Y48500D02*
D03*
Y38500D02*
D03*
Y28500D02*
D03*
X198500Y208500D02*
D03*
Y198500D02*
D03*
Y188500D02*
D03*
Y178500D02*
D03*
Y168500D02*
D03*
Y158500D02*
D03*
Y148500D02*
D03*
Y138500D02*
D03*
Y128500D02*
D03*
Y118500D02*
D03*
Y108500D02*
D03*
Y98500D02*
D03*
Y88500D02*
D03*
Y78500D02*
D03*
Y68500D02*
D03*
Y58500D02*
D03*
Y48500D02*
D03*
Y38500D02*
D03*
Y28500D02*
D03*
D59*
X8500Y8500D02*
D03*
D60*
X18500D02*
D03*
X28500D02*
D03*
X38500D02*
D03*
X48500D02*
D03*
X58500D02*
D03*
X68500D02*
D03*
X78500D02*
D03*
X88500D02*
D03*
X98500D02*
D03*
X108500D02*
D03*
X118500D02*
D03*
X128500D02*
D03*
X138500D02*
D03*
X148500D02*
D03*
X158500D02*
D03*
X168500D02*
D03*
X178500D02*
D03*
X188500D02*
D03*
X198500D02*
D03*
D61*
X25500Y124869D02*
D03*
Y112007D02*
D03*
X22977Y152965D02*
D03*
X115500Y196531D02*
D03*
X143000Y189000D02*
D03*
X137240Y166059D02*
D03*
X33000Y39544D02*
D03*
X157000Y38000D02*
D03*
X153642Y58987D02*
D03*
X130500Y81994D02*
D03*
X81000Y121000D02*
D03*
X108004Y175647D02*
D03*
X98500Y173979D02*
D03*
X109059Y196850D02*
D03*
X182500Y189500D02*
D03*
X150500Y203000D02*
D03*
X177165Y216535D02*
D03*
Y157480D02*
D03*
Y137795D02*
D03*
Y118110D02*
D03*
Y78740D02*
D03*
Y59055D02*
D03*
Y19685D02*
D03*
X157480Y236221D02*
D03*
Y216535D02*
D03*
Y157480D02*
D03*
Y19685D02*
D03*
X137795Y236221D02*
D03*
Y216535D02*
D03*
Y177165D02*
D03*
Y59055D02*
D03*
Y39370D02*
D03*
X118110Y177165D02*
D03*
Y39370D02*
D03*
X98425Y236221D02*
D03*
Y216535D02*
D03*
Y196850D02*
D03*
Y78740D02*
D03*
Y59055D02*
D03*
X78740Y236221D02*
D03*
Y216535D02*
D03*
Y177165D02*
D03*
Y157480D02*
D03*
Y78740D02*
D03*
Y59055D02*
D03*
Y39370D02*
D03*
X59055Y236221D02*
D03*
Y216535D02*
D03*
Y157480D02*
D03*
Y118110D02*
D03*
Y78740D02*
D03*
X39370Y216535D02*
D03*
Y177165D02*
D03*
Y157480D02*
D03*
Y78740D02*
D03*
X19685Y216535D02*
D03*
Y177165D02*
D03*
Y78740D02*
D03*
Y59055D02*
D03*
Y39370D02*
D03*
Y19685D02*
D03*
D62*
X85000Y146000D02*
D03*
X95500Y189500D02*
D03*
X115086Y190000D02*
D03*
X74500Y184000D02*
D03*
X116500Y186500D02*
D03*
X116342Y182500D02*
D03*
X63500Y147000D02*
D03*
X63000Y133500D02*
D03*
X126000Y92500D02*
D03*
X109500Y85500D02*
D03*
X78500Y86500D02*
D03*
Y98626D02*
D03*
X127500Y131000D02*
D03*
X148945Y97560D02*
D03*
X154500D02*
D03*
X174000D02*
D03*
X138000D02*
D03*
X93000Y187000D02*
D03*
X96500Y169000D02*
D03*
X89468Y166500D02*
D03*
X91933Y131929D02*
D03*
X163000Y67500D02*
D03*
X154500D02*
D03*
X147000D02*
D03*
X138966D02*
D03*
X120000D02*
D03*
X109000D02*
D03*
X108862Y76000D02*
D03*
X120000D02*
D03*
X138500Y75500D02*
D03*
X147000D02*
D03*
X109000Y71000D02*
D03*
X120000D02*
D03*
X139000D02*
D03*
X147000D02*
D03*
X154500D02*
D03*
X163000D02*
D03*
X154500Y75500D02*
D03*
X163000D02*
D03*
X39500Y90000D02*
D03*
X112500D02*
D03*
X119500D02*
D03*
X139000D02*
D03*
X147500Y89500D02*
D03*
X90000Y121000D02*
D03*
X97000Y102000D02*
D03*
X108500Y108996D02*
D03*
X93000Y104500D02*
D03*
X85500D02*
D03*
X56000Y166500D02*
D03*
X70000Y198000D02*
D03*
X77000D02*
D03*
X96000Y179405D02*
D03*
X118288Y164213D02*
D03*
X98437Y165000D02*
D03*
X74000Y152573D02*
D03*
X75000Y141673D02*
D03*
X74571Y131929D02*
D03*
X123500Y128000D02*
D03*
X133500Y119500D02*
D03*
X141466Y140500D02*
D03*
X141500Y157500D02*
D03*
X124709Y143051D02*
D03*
X113587Y146102D02*
D03*
Y141378D02*
D03*
Y136653D02*
D03*
Y131929D02*
D03*
X108862Y146102D02*
D03*
Y141378D02*
D03*
Y136653D02*
D03*
Y131929D02*
D03*
X104138Y146102D02*
D03*
Y141378D02*
D03*
Y136653D02*
D03*
Y131929D02*
D03*
X99413Y146102D02*
D03*
Y141378D02*
D03*
Y136653D02*
D03*
Y131929D02*
D03*
X90311Y127106D02*
D03*
X124709Y154469D02*
D03*
X123331Y115648D02*
D03*
X94492Y163875D02*
D03*
M02*
