G04*
G04 #@! TF.GenerationSoftware,Altium Limited,Altium Designer,23.0.1 (38)*
G04*
G04 Layer_Physical_Order=2*
G04 Layer_Color=16711680*
%FSLAX25Y25*%
%MOIN*%
G70*
G04*
G04 #@! TF.SameCoordinates,DFA4F6AB-FAC1-4BA6-B1F9-F2E106443939*
G04*
G04*
G04 #@! TF.FilePolarity,Positive*
G04*
G01*
G75*
%ADD11C,0.01000*%
%ADD13C,0.01200*%
%ADD15C,0.00800*%
%ADD17C,0.05079*%
%ADD18R,0.05079X0.05079*%
%ADD29C,0.02000*%
%ADD30C,0.02500*%
%ADD31O,0.04528X0.05709*%
%ADD32O,0.05709X0.04528*%
%ADD33C,0.05000*%
%ADD34C,0.07087*%
%ADD35R,0.07087X0.07087*%
%ADD36C,0.25000*%
%ADD37R,0.11000X0.06000*%
%ADD38O,0.11000X0.06000*%
%ADD39R,0.06000X0.11000*%
%ADD40O,0.06000X0.11000*%
%ADD41C,0.02800*%
%ADD42C,0.02500*%
%ADD43R,0.02500X0.05000*%
%ADD44R,0.05000X0.02500*%
%ADD45R,0.03740X0.02953*%
G04:AMPARAMS|DCode=46|XSize=39.37mil|YSize=35.43mil|CornerRadius=4.43mil|HoleSize=0mil|Usage=FLASHONLY|Rotation=0.000|XOffset=0mil|YOffset=0mil|HoleType=Round|Shape=RoundedRectangle|*
%AMROUNDEDRECTD46*
21,1,0.03937,0.02657,0,0,0.0*
21,1,0.03051,0.03543,0,0,0.0*
1,1,0.00886,0.01526,-0.01329*
1,1,0.00886,-0.01526,-0.01329*
1,1,0.00886,-0.01526,0.01329*
1,1,0.00886,0.01526,0.01329*
%
%ADD46ROUNDEDRECTD46*%
%ADD47R,0.02953X0.03740*%
G04:AMPARAMS|DCode=48|XSize=39.37mil|YSize=35.43mil|CornerRadius=4.43mil|HoleSize=0mil|Usage=FLASHONLY|Rotation=270.000|XOffset=0mil|YOffset=0mil|HoleType=Round|Shape=RoundedRectangle|*
%AMROUNDEDRECTD48*
21,1,0.03937,0.02657,0,0,270.0*
21,1,0.03051,0.03543,0,0,270.0*
1,1,0.00886,-0.01329,-0.01526*
1,1,0.00886,-0.01329,0.01526*
1,1,0.00886,0.01329,0.01526*
1,1,0.00886,0.01329,-0.01526*
%
%ADD48ROUNDEDRECTD48*%
G36*
X114184Y251971D02*
X112871Y250658D01*
X112374Y249913D01*
X112210Y249088D01*
X111476Y248524D01*
X110908Y247785D01*
X110552Y246924D01*
X110430Y246000D01*
X110552Y245076D01*
X110908Y244215D01*
X111476Y243476D01*
X112215Y242908D01*
X113076Y242552D01*
X114000Y242430D01*
X114924Y242552D01*
X115785Y242908D01*
X116524Y243476D01*
X117092Y244215D01*
X117448Y245076D01*
X117570Y246000D01*
X117448Y246924D01*
X117124Y247706D01*
X117234Y247979D01*
X117399Y248206D01*
X120676D01*
X120876Y247706D01*
X120552Y246924D01*
X120430Y246000D01*
X120552Y245076D01*
X120908Y244215D01*
X121476Y243476D01*
X121961Y243103D01*
Y238345D01*
X120411Y236795D01*
X115370D01*
Y237232D01*
X112514D01*
X108873Y240873D01*
X107804Y241942D01*
X107230Y242326D01*
X106628Y242927D01*
Y243611D01*
X107092Y244215D01*
X107448Y245076D01*
X107570Y246000D01*
X107448Y246924D01*
X107092Y247785D01*
X106524Y248524D01*
X105785Y249092D01*
X104924Y249448D01*
X104000Y249570D01*
X103076Y249448D01*
X102215Y249092D01*
X101476Y248524D01*
X100908Y247785D01*
X100552Y246924D01*
X100430Y246000D01*
X100552Y245076D01*
X100908Y244215D01*
X101476Y243476D01*
X102215Y242908D01*
X102550Y242770D01*
Y242083D01*
X102705Y241302D01*
X103147Y240641D01*
X104449Y239338D01*
X97111Y232000D01*
X96539D01*
Y243495D01*
X97092Y244215D01*
X97448Y245076D01*
X97570Y246000D01*
X97448Y246924D01*
X97092Y247785D01*
X96524Y248524D01*
X95785Y249092D01*
X94924Y249448D01*
X94000Y249570D01*
X93076Y249448D01*
X92215Y249092D01*
X91476Y248524D01*
X90908Y247785D01*
X90552Y246924D01*
X90430Y246000D01*
X90552Y245076D01*
X90908Y244215D01*
X91476Y243476D01*
X92215Y242908D01*
X92461Y242807D01*
Y237076D01*
X91999Y236885D01*
X86628Y242256D01*
Y243611D01*
X87092Y244215D01*
X87448Y245076D01*
X87570Y246000D01*
X87448Y246924D01*
X87092Y247785D01*
X86524Y248524D01*
X85785Y249092D01*
X84924Y249448D01*
X84000Y249570D01*
X83076Y249448D01*
X82215Y249092D01*
X81476Y248524D01*
X80908Y247785D01*
X80552Y246924D01*
X80430Y246000D01*
X80552Y245076D01*
X80908Y244215D01*
X81476Y243476D01*
X82215Y242908D01*
X82550Y242770D01*
Y241411D01*
X82705Y240631D01*
X83147Y239969D01*
X89218Y233899D01*
Y232000D01*
X89007D01*
Y225539D01*
X84845D01*
X84442Y225942D01*
X83780Y226384D01*
X83000Y226539D01*
X75172D01*
X74391Y226384D01*
X73730Y225942D01*
X73730Y225942D01*
X72558Y224770D01*
X72116Y224109D01*
X71961Y223328D01*
Y206993D01*
X70500D01*
Y202493D01*
Y199250D01*
X71961D01*
Y197000D01*
X72116Y196220D01*
X72558Y195558D01*
X74058Y194058D01*
X74720Y193616D01*
X75500Y193461D01*
X83155D01*
X83461Y193155D01*
Y190870D01*
X83024D01*
Y185130D01*
X86294D01*
X86586Y184630D01*
X86461Y184000D01*
Y132016D01*
X84984Y130539D01*
X75879D01*
X74411Y132008D01*
X74414Y132032D01*
X74302Y132884D01*
X73973Y133677D01*
X73450Y134359D01*
X73033Y134679D01*
Y135290D01*
X73450Y135609D01*
X73973Y136291D01*
X74302Y137085D01*
X74414Y137937D01*
X74302Y138789D01*
X73973Y139583D01*
X73450Y140265D01*
X73033Y140584D01*
Y141195D01*
X73450Y141515D01*
X73973Y142197D01*
X74302Y142991D01*
X74414Y143842D01*
X74302Y144694D01*
X73973Y145489D01*
X73450Y146170D01*
X73033Y146490D01*
Y147101D01*
X73450Y147420D01*
X73973Y148102D01*
X74302Y148896D01*
X74414Y149748D01*
X74302Y150600D01*
X73973Y151394D01*
X73450Y152076D01*
X73033Y152395D01*
Y153006D01*
X73450Y153326D01*
X73973Y154008D01*
X74302Y154801D01*
X74414Y155654D01*
X74302Y156506D01*
X73973Y157299D01*
X73450Y157981D01*
X73033Y158301D01*
Y158912D01*
X73450Y159231D01*
X73973Y159913D01*
X74302Y160707D01*
X74414Y161559D01*
X74302Y162411D01*
X73973Y163205D01*
X73450Y163887D01*
X72768Y164410D01*
X71974Y164739D01*
X71122Y164851D01*
X69941D01*
X69089Y164739D01*
X68295Y164410D01*
X67613Y163887D01*
X67090Y163205D01*
X66761Y162411D01*
X66649Y161559D01*
X66761Y160707D01*
X67090Y159913D01*
X67613Y159231D01*
X68030Y158912D01*
Y158301D01*
X67613Y157981D01*
X67090Y157299D01*
X66761Y156506D01*
X66649Y155654D01*
X66761Y154801D01*
X67090Y154008D01*
X67613Y153326D01*
X68030Y153006D01*
Y152395D01*
X67613Y152076D01*
X67090Y151394D01*
X66761Y150600D01*
X66649Y149748D01*
X66761Y148896D01*
X67090Y148102D01*
X67613Y147420D01*
X68030Y147101D01*
Y146490D01*
X67613Y146170D01*
X67090Y145489D01*
X66761Y144694D01*
X66649Y143842D01*
X66761Y142991D01*
X67090Y142197D01*
X67613Y141515D01*
X68030Y141195D01*
Y140584D01*
X67613Y140265D01*
X67090Y139583D01*
X66761Y138789D01*
X66649Y137937D01*
X66761Y137085D01*
X67090Y136291D01*
X67613Y135609D01*
X68030Y135290D01*
Y134679D01*
X67613Y134359D01*
X67090Y133677D01*
X66761Y132884D01*
X66649Y132032D01*
X66761Y131179D01*
X67090Y130385D01*
X67613Y129704D01*
X68295Y129181D01*
X69089Y128852D01*
X69941Y128740D01*
X71122D01*
X71819Y128831D01*
X73113Y127538D01*
Y125370D01*
X72268D01*
Y119630D01*
X77220D01*
Y125370D01*
X76375D01*
Y126461D01*
X85828D01*
X86609Y126616D01*
X87270Y127058D01*
X89009Y128796D01*
X89471Y128605D01*
Y128000D01*
X89514Y127780D01*
X89536Y127556D01*
X89572Y127489D01*
X89587Y127415D01*
X89712Y127228D01*
X89818Y127030D01*
X89876Y126982D01*
X89919Y126919D01*
X90105Y126794D01*
X90279Y126651D01*
X90352Y126629D01*
X90415Y126587D01*
X90635Y126543D01*
X90850Y126478D01*
X91014Y126462D01*
X91245Y126366D01*
X91366Y126245D01*
X91462Y126014D01*
X91478Y125850D01*
X91543Y125635D01*
X91587Y125415D01*
X91629Y125352D01*
X91651Y125279D01*
X91794Y125105D01*
X91919Y124919D01*
X91982Y124876D01*
X92030Y124818D01*
X92228Y124712D01*
X92415Y124587D01*
X92489Y124572D01*
X92556Y124537D01*
X92780Y124514D01*
X93000Y124471D01*
X129296D01*
X129443Y124500D01*
X129594D01*
X130173Y124615D01*
X130313Y124673D01*
X130460Y124702D01*
X131006Y124928D01*
X131131Y125012D01*
X131271Y125070D01*
X131762Y125398D01*
X131869Y125505D01*
X131994Y125588D01*
X132412Y126006D01*
X132495Y126131D01*
X132602Y126238D01*
X132930Y126729D01*
X132988Y126868D01*
X133071Y126994D01*
X133298Y127540D01*
X133327Y127687D01*
X133385Y127826D01*
X133500Y128406D01*
Y128557D01*
X133529Y128705D01*
Y129000D01*
Y164000D01*
Y164295D01*
X133500Y164443D01*
Y164594D01*
X133385Y165173D01*
X133327Y165313D01*
X133298Y165460D01*
X133071Y166006D01*
X132988Y166131D01*
X132930Y166271D01*
X132602Y166762D01*
X132495Y166869D01*
X132412Y166994D01*
X131994Y167412D01*
X131869Y167495D01*
X131762Y167602D01*
X131271Y167930D01*
X131131Y167988D01*
X131006Y168071D01*
X130460Y168298D01*
X130313Y168327D01*
X130173Y168385D01*
X129594Y168500D01*
X129443D01*
X129296Y168529D01*
X92602D01*
X92017Y168413D01*
X91282Y168108D01*
X91039Y167946D01*
X90625Y168122D01*
X90539Y168214D01*
Y183155D01*
X93124Y185740D01*
X93819D01*
X93901Y185543D01*
X94424Y184861D01*
X95106Y184338D01*
X95900Y184009D01*
X96752Y183897D01*
X97604Y184009D01*
X98398Y184338D01*
X99080Y184861D01*
X99399Y185278D01*
X100010D01*
X100330Y184861D01*
X101012Y184338D01*
X101805Y184009D01*
X102657Y183897D01*
X103509Y184009D01*
X104303Y184338D01*
X104985Y184861D01*
X105305Y185278D01*
X105916D01*
X106235Y184861D01*
X106917Y184338D01*
X107711Y184009D01*
X108563Y183897D01*
X109415Y184009D01*
X110209Y184338D01*
X110891Y184861D01*
X111210Y185278D01*
X111821D01*
X112141Y184861D01*
X112822Y184338D01*
X113617Y184009D01*
X114469Y183897D01*
X115321Y184009D01*
X116114Y184338D01*
X116796Y184861D01*
X117116Y185278D01*
X117727D01*
X118046Y184861D01*
X118728Y184338D01*
X119522Y184009D01*
X120374Y183897D01*
X121226Y184009D01*
X122020Y184338D01*
X122702Y184861D01*
X123021Y185278D01*
X123632D01*
X123952Y184861D01*
X124634Y184338D01*
X125427Y184009D01*
X126279Y183897D01*
X127131Y184009D01*
X127926Y184338D01*
X128607Y184861D01*
X129130Y185543D01*
X129459Y186337D01*
X129571Y187189D01*
Y188370D01*
X129459Y189222D01*
X129130Y190016D01*
X128607Y190698D01*
X127926Y191221D01*
X127131Y191550D01*
X126279Y191662D01*
X125427Y191550D01*
X124634Y191221D01*
X123952Y190698D01*
X123632Y190281D01*
X123021D01*
X122702Y190698D01*
X122020Y191221D01*
X121226Y191550D01*
X120374Y191662D01*
X119522Y191550D01*
X118728Y191221D01*
X118046Y190698D01*
X117727Y190281D01*
X117116D01*
X116796Y190698D01*
X116114Y191221D01*
X115321Y191550D01*
X114469Y191662D01*
X113617Y191550D01*
X112822Y191221D01*
X112141Y190698D01*
X111821Y190281D01*
X111210D01*
X110891Y190698D01*
X110209Y191221D01*
X109415Y191550D01*
X108563Y191662D01*
X107711Y191550D01*
X106917Y191221D01*
X106235Y190698D01*
X105916Y190281D01*
X105305D01*
X104985Y190698D01*
X104303Y191221D01*
X103509Y191550D01*
X102657Y191662D01*
X101805Y191550D01*
X101012Y191221D01*
X100330Y190698D01*
X100010Y190281D01*
X99399D01*
X99080Y190698D01*
X98398Y191221D01*
X97604Y191550D01*
X96752Y191662D01*
X95900Y191550D01*
X95106Y191221D01*
X94424Y190698D01*
X93901Y190016D01*
X93819Y189819D01*
X92279D01*
X91499Y189664D01*
X90838Y189222D01*
X90750Y189134D01*
X90442Y189442D01*
X89780Y189884D01*
X89000Y190039D01*
X87976D01*
Y190870D01*
X87539D01*
Y194000D01*
X87384Y194780D01*
X86942Y195442D01*
X85442Y196942D01*
X84780Y197384D01*
X84000Y197539D01*
X76345D01*
X76039Y197845D01*
Y199250D01*
X77500D01*
Y202493D01*
Y206993D01*
X76039D01*
Y222461D01*
X82155D01*
X82558Y222058D01*
X83220Y221616D01*
X84000Y221461D01*
X96409D01*
X97189Y221616D01*
X97851Y222058D01*
X99022Y223230D01*
X99022Y223230D01*
X99464Y223891D01*
X99620Y224672D01*
Y225000D01*
X99994D01*
Y229116D01*
X107428Y236550D01*
X109630Y234349D01*
Y232279D01*
X115370D01*
Y232717D01*
X121256D01*
X121921Y232849D01*
X122622Y232381D01*
X123500Y232206D01*
X124378Y232381D01*
X125122Y232878D01*
X125378D01*
X126122Y232381D01*
X127000Y232206D01*
X127878Y232381D01*
X128622Y232878D01*
X129120Y233622D01*
X129294Y234500D01*
X129120Y235378D01*
X128622Y236122D01*
X127878Y236619D01*
X127000Y236794D01*
X126384Y236672D01*
X125952Y237061D01*
X126039Y237500D01*
Y243103D01*
X126524Y243476D01*
X127092Y244215D01*
X127448Y245076D01*
X127570Y246000D01*
X127448Y246924D01*
X127124Y247706D01*
X127324Y248206D01*
X130676D01*
X130876Y247706D01*
X130552Y246924D01*
X130430Y246000D01*
X130552Y245076D01*
X130908Y244215D01*
X131476Y243476D01*
X132215Y242908D01*
X133076Y242552D01*
X134000Y242430D01*
X134924Y242552D01*
X135785Y242908D01*
X136524Y243476D01*
X136604Y243580D01*
X137078Y243420D01*
Y241794D01*
X136500D01*
X135622Y241619D01*
X134878Y241122D01*
X132378Y238622D01*
X131880Y237878D01*
X131706Y237000D01*
Y227631D01*
X129495D01*
Y229500D01*
X118507D01*
Y227631D01*
X117500D01*
X116876Y227507D01*
X116347Y227153D01*
X115806Y226613D01*
X115370Y226884D01*
X115370Y227219D01*
Y228744D01*
X113000D01*
Y226768D01*
X114885D01*
X115253Y226768D01*
X115525Y226332D01*
X112847Y223654D01*
X112493Y223124D01*
X112369Y222500D01*
Y219155D01*
X112215Y219092D01*
X111476Y218524D01*
X110908Y217785D01*
X110552Y216924D01*
X110430Y216000D01*
X110552Y215076D01*
X110908Y214215D01*
X111476Y213476D01*
X112215Y212908D01*
X113076Y212552D01*
X114000Y212430D01*
X114924Y212552D01*
X115785Y212908D01*
X116524Y213476D01*
X117092Y214215D01*
X117448Y215076D01*
X117570Y216000D01*
X117448Y216924D01*
X117092Y217785D01*
X116524Y218524D01*
X115785Y219092D01*
X115631Y219155D01*
Y221824D01*
X118007Y224200D01*
X118507Y223992D01*
Y222500D01*
X121961D01*
Y218897D01*
X121476Y218524D01*
X120908Y217785D01*
X120552Y216924D01*
X120430Y216000D01*
X120552Y215076D01*
X120908Y214215D01*
X121476Y213476D01*
X122215Y212908D01*
X122500Y212790D01*
Y210461D01*
X122655Y209680D01*
X123098Y209019D01*
X126269Y205848D01*
X126258Y205822D01*
X125974Y205435D01*
X125500Y205529D01*
X106000D01*
X105415Y205413D01*
X104919Y205081D01*
X103544Y203707D01*
X103213Y203211D01*
X103097Y202626D01*
Y201269D01*
X102980Y201221D01*
X102298Y200698D01*
X101979Y200281D01*
X101368D01*
X101048Y200698D01*
X100366Y201221D01*
X99572Y201550D01*
X98721Y201662D01*
X97868Y201550D01*
X97075Y201221D01*
X96393Y200698D01*
X95870Y200016D01*
X95788Y199819D01*
X92000D01*
Y202750D01*
Y204500D01*
X88500D01*
X85000D01*
Y202750D01*
Y199507D01*
X86461D01*
Y199000D01*
X86616Y198220D01*
X87058Y197558D01*
X88279Y196338D01*
X88279Y196338D01*
X88940Y195896D01*
X89720Y195740D01*
X89720Y195740D01*
X95788D01*
X95870Y195543D01*
X96393Y194861D01*
X97075Y194338D01*
X97868Y194009D01*
X98721Y193897D01*
X99572Y194009D01*
X100366Y194338D01*
X101048Y194861D01*
X101368Y195278D01*
X101979D01*
X102298Y194861D01*
X102980Y194338D01*
X103774Y194009D01*
X104626Y193897D01*
X105478Y194009D01*
X106272Y194338D01*
X106954Y194861D01*
X107273Y195278D01*
X107884D01*
X108204Y194861D01*
X108886Y194338D01*
X109679Y194009D01*
X110531Y193897D01*
X111383Y194009D01*
X112178Y194338D01*
X112859Y194861D01*
X113179Y195278D01*
X113790D01*
X114109Y194861D01*
X114791Y194338D01*
X115585Y194009D01*
X116437Y193897D01*
X117289Y194009D01*
X118083Y194338D01*
X118765Y194861D01*
X119084Y195278D01*
X119695D01*
X120015Y194861D01*
X120697Y194338D01*
X121491Y194009D01*
X122343Y193897D01*
X123195Y194009D01*
X123988Y194338D01*
X124670Y194861D01*
X125193Y195543D01*
X125275Y195740D01*
X126876D01*
X145461Y177155D01*
Y160547D01*
X144961Y160301D01*
X144737Y160473D01*
X143943Y160802D01*
X143091Y160914D01*
X141909D01*
X141057Y160802D01*
X140263Y160473D01*
X139582Y159950D01*
X139058Y159268D01*
X138730Y158474D01*
X138618Y157622D01*
X138730Y156770D01*
X139058Y155976D01*
X139582Y155294D01*
X139998Y154975D01*
Y154364D01*
X139582Y154044D01*
X139058Y153363D01*
X138730Y152569D01*
X138618Y151716D01*
X138730Y150865D01*
X139058Y150071D01*
X139582Y149389D01*
X139998Y149069D01*
Y148458D01*
X139582Y148139D01*
X139058Y147457D01*
X138730Y146663D01*
X138618Y145811D01*
X138730Y144959D01*
X139058Y144165D01*
X139582Y143483D01*
X139998Y143164D01*
Y142553D01*
X139582Y142233D01*
X139058Y141551D01*
X139010Y141435D01*
X137906D01*
X137320Y141319D01*
X136824Y140987D01*
X135419Y139581D01*
X135087Y139085D01*
X134971Y138500D01*
Y124634D01*
X133367Y123029D01*
X91500D01*
X90915Y122913D01*
X90419Y122581D01*
X87717Y119879D01*
X84850D01*
X84265Y119763D01*
X83769Y119431D01*
X79866Y115529D01*
X50634D01*
X43876Y122287D01*
Y194543D01*
X44238Y194615D01*
X44715Y194934D01*
X45034Y195411D01*
X45146Y195974D01*
Y199026D01*
X45034Y199589D01*
X44715Y200066D01*
X44238Y200385D01*
X43675Y200497D01*
X41018D01*
X40455Y200385D01*
X40262Y200256D01*
X37738D01*
X37545Y200385D01*
X36982Y200497D01*
X34325D01*
X33762Y200385D01*
X33285Y200066D01*
X32966Y199589D01*
X32875Y199131D01*
X32176D01*
X32153Y199153D01*
X31624Y199507D01*
X31000Y199631D01*
X14154D01*
X13994Y200017D01*
X13353Y200853D01*
X12517Y201494D01*
X11544Y201897D01*
X10500Y202034D01*
X5500D01*
X4456Y201897D01*
X3483Y201494D01*
X2647Y200853D01*
X2029Y200048D01*
X1976Y200045D01*
X1529Y200299D01*
Y205701D01*
X1976Y205955D01*
X2029Y205952D01*
X2647Y205147D01*
X3483Y204506D01*
X4456Y204103D01*
X5500Y203965D01*
X7500D01*
Y208000D01*
Y212035D01*
X5500D01*
X4456Y211897D01*
X3483Y211494D01*
X2647Y210853D01*
X2029Y210048D01*
X1976Y210045D01*
X1529Y210299D01*
Y214000D01*
X14500D01*
Y222000D01*
X1529D01*
Y249000D01*
Y249342D01*
X1663Y250012D01*
X1924Y250644D01*
X2304Y251212D01*
X2788Y251696D01*
X3356Y252076D01*
X3988Y252337D01*
X4658Y252471D01*
X113977D01*
X114184Y251971D01*
D02*
G37*
G36*
X202012Y252337D02*
X202644Y252076D01*
X203212Y251696D01*
X203696Y251212D01*
X204076Y250644D01*
X204337Y250012D01*
X204471Y249342D01*
Y249000D01*
Y222000D01*
X198500D01*
Y218000D01*
Y214000D01*
X204471D01*
Y210299D01*
X204024Y210045D01*
X203971Y210048D01*
X203353Y210853D01*
X202517Y211494D01*
X201544Y211897D01*
X200500Y212035D01*
X195500D01*
X194456Y211897D01*
X193483Y211494D01*
X192647Y210853D01*
X192023Y210039D01*
X174000D01*
X173220Y209884D01*
X172558Y209442D01*
X168502Y205386D01*
X165786D01*
X165566Y205715D01*
X165089Y206034D01*
X164526Y206146D01*
X161474D01*
X160911Y206034D01*
X160434Y205715D01*
X160214Y205386D01*
X132498D01*
X126578Y211305D01*
Y213546D01*
X127092Y214215D01*
X127448Y215076D01*
X127570Y216000D01*
X127448Y216924D01*
X127092Y217785D01*
X126524Y218524D01*
X126039Y218897D01*
Y222500D01*
X129495D01*
Y224369D01*
X131706D01*
Y218701D01*
X131476Y218524D01*
X130908Y217785D01*
X130552Y216924D01*
X130430Y216000D01*
X130552Y215076D01*
X130908Y214215D01*
X131476Y213476D01*
X132215Y212908D01*
X133076Y212552D01*
X134000Y212430D01*
X134924Y212552D01*
X135785Y212908D01*
X136524Y213476D01*
X137092Y214215D01*
X137448Y215076D01*
X137570Y216000D01*
X137448Y216924D01*
X137092Y217785D01*
X136524Y218524D01*
X136294Y218701D01*
Y226000D01*
Y236050D01*
X137450Y237206D01*
X139768D01*
Y236630D01*
X144720D01*
Y242370D01*
X141666D01*
Y248628D01*
X141491Y249506D01*
X140994Y250250D01*
X139274Y251971D01*
X139481Y252471D01*
X201342D01*
X202012Y252337D01*
D02*
G37*
G36*
X30347Y196346D02*
X30876Y195993D01*
X31500Y195869D01*
X32875D01*
X32966Y195411D01*
X33285Y194934D01*
X33762Y194615D01*
X34325Y194503D01*
X36982D01*
X37545Y194615D01*
X37738Y194744D01*
X40262D01*
X40455Y194615D01*
X40817Y194543D01*
Y121653D01*
X40933Y121068D01*
X41265Y120572D01*
X42743Y119095D01*
X42555Y118575D01*
X41878Y118122D01*
X41381Y117378D01*
X41229Y116614D01*
X40854Y116474D01*
X40728Y116464D01*
X40622Y116622D01*
X39878Y117120D01*
X39000Y117294D01*
X38122Y117120D01*
X37378Y116622D01*
X37122D01*
X36677Y116919D01*
Y143961D01*
X37119Y144622D01*
X37294Y145500D01*
X37119Y146378D01*
X36622Y147122D01*
X35878Y147619D01*
X35000Y147794D01*
X34122Y147619D01*
X33868Y147450D01*
X33427Y147686D01*
Y159791D01*
X33878Y159880D01*
X34622Y160378D01*
X35120Y161122D01*
X35294Y162000D01*
X35120Y162878D01*
X34622Y163622D01*
X33878Y164120D01*
X33000Y164294D01*
X32122Y164120D01*
X31378Y163622D01*
X30880Y162878D01*
X30706Y162000D01*
X30840Y161324D01*
X30681Y161086D01*
X30573Y160540D01*
X30573Y160540D01*
Y110252D01*
X30378Y110122D01*
X29880Y109378D01*
X29709Y108517D01*
X29509Y108380D01*
X29268Y108251D01*
X28427Y109091D01*
Y143248D01*
X28622Y143378D01*
X29120Y144122D01*
X29294Y145000D01*
X29120Y145878D01*
X28622Y146622D01*
X27878Y147119D01*
X27000Y147294D01*
X26122Y147119D01*
X25378Y146622D01*
X24881Y145878D01*
X24706Y145000D01*
X24805Y144500D01*
X24335Y144304D01*
X24122Y144622D01*
X23378Y145120D01*
X22500Y145294D01*
X21622Y145120D01*
X20878Y144622D01*
X20380Y143878D01*
X20206Y143000D01*
X20380Y142122D01*
X20878Y141378D01*
X21073Y141248D01*
Y107709D01*
X20622Y107620D01*
X19878Y107122D01*
X19380Y106378D01*
X19206Y105500D01*
X19380Y104622D01*
X19878Y103878D01*
X20622Y103381D01*
X21500Y103206D01*
X22378Y103381D01*
X23122Y103878D01*
X23619Y104622D01*
X23794Y105500D01*
X23660Y106176D01*
X23819Y106414D01*
X23927Y106960D01*
Y141248D01*
X24122Y141378D01*
X24620Y142122D01*
X24794Y143000D01*
X24694Y143500D01*
X25166Y143696D01*
X25378Y143378D01*
X25573Y143248D01*
Y108500D01*
X25573Y108500D01*
X25681Y107954D01*
X25991Y107491D01*
X29159Y104322D01*
X29622Y104013D01*
X30169Y103904D01*
X30169Y103904D01*
X30831D01*
X30831Y103904D01*
X31378Y104013D01*
X31467Y104073D01*
X37500D01*
X37500Y104073D01*
X38046Y104181D01*
X38509Y104491D01*
X40009Y105991D01*
X40319Y106454D01*
X40427Y107000D01*
X40427Y107000D01*
Y113248D01*
X40622Y113378D01*
X41120Y114122D01*
X41271Y114886D01*
X41646Y115026D01*
X41772Y115036D01*
X41878Y114878D01*
X42622Y114381D01*
X43500Y114206D01*
X43730Y114252D01*
X44573Y113409D01*
Y112252D01*
X44378Y112122D01*
X43881Y111378D01*
X43706Y110500D01*
X43881Y109622D01*
X44378Y108878D01*
X45122Y108380D01*
X46000Y108206D01*
X46878Y108380D01*
X47622Y108878D01*
X48120Y109622D01*
X48294Y110500D01*
X48120Y111378D01*
X47622Y112122D01*
X47427Y112252D01*
Y113703D01*
X47927Y113910D01*
X48919Y112919D01*
X49415Y112587D01*
X50000Y112471D01*
X80500D01*
X81085Y112587D01*
X81581Y112919D01*
X81662Y112999D01*
X82123Y112753D01*
X82073Y112500D01*
X82073Y112500D01*
Y110591D01*
X74597Y103115D01*
X74220Y103446D01*
X74345Y103609D01*
X74785Y104671D01*
X74935Y105811D01*
X74785Y106951D01*
X74345Y108013D01*
X73646Y108925D01*
X72733Y109625D01*
X71671Y110065D01*
X70531Y110215D01*
X69392Y110065D01*
X68330Y109625D01*
X67418Y108925D01*
X66718Y108013D01*
X66278Y106951D01*
X66128Y105811D01*
X66278Y104671D01*
X66718Y103609D01*
X67418Y102697D01*
X68330Y101997D01*
X69392Y101557D01*
X70531Y101407D01*
X71671Y101557D01*
X72733Y101997D01*
X72897Y102122D01*
X73227Y101746D01*
X69409Y97927D01*
X68752D01*
X68622Y98122D01*
X67878Y98619D01*
X67000Y98794D01*
X66122Y98619D01*
X65378Y98122D01*
X64881Y97378D01*
X64706Y96500D01*
X64793Y96064D01*
X64476Y95677D01*
X63559D01*
X63294Y96000D01*
X63119Y96878D01*
X62622Y97622D01*
X61878Y98119D01*
X61000Y98294D01*
X60122Y98119D01*
X59378Y97622D01*
X58881Y96878D01*
X58706Y96000D01*
X58881Y95122D01*
X59378Y94378D01*
X60122Y93881D01*
X60511Y93803D01*
X60574Y93709D01*
X61043Y93241D01*
X61043Y93241D01*
X61506Y92931D01*
X62052Y92823D01*
X70932D01*
X70932Y92823D01*
X71478Y92931D01*
X71941Y93241D01*
X75111Y96410D01*
X75573Y96219D01*
Y95752D01*
X75378Y95622D01*
X74881Y94878D01*
X74706Y94000D01*
X74881Y93122D01*
X75378Y92378D01*
X76122Y91881D01*
X77000Y91706D01*
X77878Y91881D01*
X78622Y92378D01*
X79119Y93122D01*
X79294Y94000D01*
X79119Y94878D01*
X78622Y95622D01*
X78427Y95752D01*
Y96409D01*
X80841Y98823D01*
X87961D01*
X88622Y98381D01*
X89500Y98206D01*
X90378Y98381D01*
X91122Y98878D01*
X91619Y99622D01*
X91794Y100500D01*
X91619Y101378D01*
X91122Y102122D01*
X90378Y102620D01*
X89500Y102794D01*
X88622Y102620D01*
X87878Y102122D01*
X87581Y101677D01*
X81031D01*
X80840Y102139D01*
X87111Y108411D01*
X87341Y108365D01*
X88219Y108540D01*
X88963Y109037D01*
X89460Y109781D01*
X89635Y110659D01*
X89460Y111537D01*
X88963Y112281D01*
X88219Y112778D01*
X87341Y112953D01*
X86976Y112881D01*
X86407Y113272D01*
X86390Y113371D01*
X86770Y113752D01*
X87000Y113706D01*
X87878Y113881D01*
X88622Y114378D01*
X89119Y115122D01*
X89294Y116000D01*
X89119Y116878D01*
X89035Y117004D01*
X89431Y117269D01*
X92133Y119971D01*
X97502D01*
X97601Y119471D01*
X97075Y119253D01*
X96393Y118729D01*
X95870Y118048D01*
X95541Y117254D01*
X95429Y116402D01*
Y115220D01*
X95541Y114368D01*
X95870Y113575D01*
X96393Y112893D01*
X97075Y112370D01*
X97868Y112041D01*
X98721Y111928D01*
X99572Y112041D01*
X100366Y112370D01*
X101048Y112893D01*
X101368Y113309D01*
X101979D01*
X102298Y112893D01*
X102980Y112370D01*
X103774Y112041D01*
X104626Y111928D01*
X105478Y112041D01*
X106272Y112370D01*
X106954Y112893D01*
X107273Y113309D01*
X107884D01*
X108204Y112893D01*
X108886Y112370D01*
X109679Y112041D01*
X110531Y111928D01*
X111383Y112041D01*
X112178Y112370D01*
X112859Y112893D01*
X113179Y113309D01*
X113790D01*
X114109Y112893D01*
X114791Y112370D01*
X115585Y112041D01*
X116437Y111928D01*
X117289Y112041D01*
X118083Y112370D01*
X118765Y112893D01*
X119084Y113309D01*
X119695D01*
X120015Y112893D01*
X120697Y112370D01*
X121491Y112041D01*
X122343Y111928D01*
X123195Y112041D01*
X123988Y112370D01*
X124670Y112893D01*
X125193Y113575D01*
X125522Y114368D01*
X125635Y115220D01*
Y116402D01*
X125522Y117254D01*
X125193Y118048D01*
X124670Y118729D01*
X123988Y119253D01*
X123462Y119471D01*
X123561Y119971D01*
X134000D01*
X134585Y120087D01*
X135081Y120419D01*
X137581Y122919D01*
X137913Y123415D01*
X138029Y124000D01*
Y137866D01*
X138539Y138376D01*
X139010D01*
X139058Y138259D01*
X139582Y137578D01*
X139998Y137258D01*
Y136647D01*
X139582Y136328D01*
X139058Y135646D01*
X138730Y134852D01*
X138618Y134000D01*
X138730Y133148D01*
X139058Y132354D01*
X139582Y131672D01*
X140263Y131149D01*
X141057Y130820D01*
X141909Y130708D01*
X143091D01*
X143164Y130718D01*
X143386Y130269D01*
X140058Y126942D01*
X139616Y126280D01*
X139461Y125500D01*
Y113845D01*
X133355Y107739D01*
X132795Y107850D01*
X129212D01*
X129130Y108048D01*
X128607Y108729D01*
X127926Y109253D01*
X127131Y109581D01*
X126279Y109694D01*
X125427Y109581D01*
X124634Y109253D01*
X123952Y108729D01*
X123632Y108313D01*
X123021D01*
X122702Y108729D01*
X122020Y109253D01*
X121226Y109581D01*
X120374Y109694D01*
X119522Y109581D01*
X118728Y109253D01*
X118046Y108729D01*
X117727Y108313D01*
X117116D01*
X116796Y108729D01*
X116114Y109253D01*
X115321Y109581D01*
X114469Y109694D01*
X113617Y109581D01*
X112822Y109253D01*
X112141Y108729D01*
X111821Y108313D01*
X111210D01*
X110891Y108729D01*
X110209Y109253D01*
X109415Y109581D01*
X108563Y109694D01*
X107711Y109581D01*
X106917Y109253D01*
X106235Y108729D01*
X105916Y108313D01*
X105305D01*
X104985Y108729D01*
X104303Y109253D01*
X103509Y109581D01*
X102657Y109694D01*
X101805Y109581D01*
X101012Y109253D01*
X100330Y108729D01*
X100010Y108313D01*
X99399D01*
X99080Y108729D01*
X98398Y109253D01*
X97604Y109581D01*
X96752Y109694D01*
X95900Y109581D01*
X95106Y109253D01*
X94424Y108729D01*
X93901Y108048D01*
X93572Y107254D01*
X93460Y106402D01*
Y105220D01*
X93572Y104368D01*
X93901Y103575D01*
X94424Y102893D01*
X95106Y102370D01*
X95900Y102041D01*
X96752Y101928D01*
X97604Y102041D01*
X98398Y102370D01*
X99080Y102893D01*
X99399Y103309D01*
X100010D01*
X100330Y102893D01*
X101012Y102370D01*
X101805Y102041D01*
X102657Y101928D01*
X103509Y102041D01*
X104303Y102370D01*
X104985Y102893D01*
X105305Y103309D01*
X105916D01*
X106235Y102893D01*
X106917Y102370D01*
X107711Y102041D01*
X108563Y101928D01*
X109415Y102041D01*
X110209Y102370D01*
X110891Y102893D01*
X111210Y103309D01*
X111821D01*
X112141Y102893D01*
X112822Y102370D01*
X113617Y102041D01*
X114469Y101928D01*
X115321Y102041D01*
X116114Y102370D01*
X116796Y102893D01*
X117116Y103309D01*
X117727D01*
X118046Y102893D01*
X118728Y102370D01*
X119522Y102041D01*
X120374Y101928D01*
X121226Y102041D01*
X122020Y102370D01*
X122702Y102893D01*
X123021Y103309D01*
X123632D01*
X123952Y102893D01*
X124634Y102370D01*
X125427Y102041D01*
X126279Y101928D01*
X127131Y102041D01*
X127926Y102370D01*
X128607Y102893D01*
X129130Y103575D01*
X129212Y103772D01*
X131951D01*
X132111Y103611D01*
X132773Y103169D01*
X133130Y103098D01*
Y100524D01*
X138870D01*
Y105476D01*
X138039D01*
Y105500D01*
X137884Y106280D01*
X137796Y106412D01*
X142942Y111558D01*
X142942Y111558D01*
X143384Y112220D01*
X143539Y113000D01*
Y124655D01*
X145155Y126271D01*
X145653Y126222D01*
X145830Y125957D01*
Y113850D01*
X144991Y113011D01*
X144681Y112548D01*
X144573Y112001D01*
X144573Y112001D01*
Y109752D01*
X144378Y109622D01*
X143880Y108878D01*
X143706Y108000D01*
X143880Y107122D01*
X144378Y106378D01*
X145122Y105880D01*
X146000Y105706D01*
X146878Y105880D01*
X147622Y106378D01*
X148119Y107122D01*
X148294Y108000D01*
X148119Y108878D01*
X147622Y109622D01*
X147427Y109752D01*
Y111410D01*
X148267Y112250D01*
X148267Y112250D01*
X148576Y112713D01*
X148685Y113259D01*
Y125560D01*
X149137Y125863D01*
X149635Y126607D01*
X149809Y127485D01*
X149635Y128363D01*
X149137Y129107D01*
X149066Y129686D01*
X149582Y129704D01*
X150264Y129181D01*
X151057Y128852D01*
X151909Y128740D01*
X153091D01*
X153943Y128852D01*
X154736Y129181D01*
X155418Y129704D01*
X155941Y130385D01*
X156270Y131179D01*
X156383Y132032D01*
X156270Y132884D01*
X155941Y133677D01*
X155418Y134359D01*
X155002Y134679D01*
Y135290D01*
X155418Y135609D01*
X155941Y136291D01*
X156270Y137085D01*
X156383Y137937D01*
X156270Y138789D01*
X155941Y139583D01*
X155418Y140265D01*
X155002Y140584D01*
Y141195D01*
X155418Y141515D01*
X155941Y142197D01*
X156270Y142991D01*
X156383Y143842D01*
X156270Y144695D01*
X155941Y145489D01*
X155418Y146170D01*
X155002Y146490D01*
Y147101D01*
X155418Y147420D01*
X155941Y148102D01*
X156270Y148896D01*
X156383Y149748D01*
X156270Y150600D01*
X155941Y151394D01*
X155418Y152076D01*
X155002Y152395D01*
Y153006D01*
X155418Y153326D01*
X155941Y154008D01*
X156270Y154801D01*
X156383Y155654D01*
X156270Y156506D01*
X156264Y156520D01*
X158275Y158530D01*
X158864Y158413D01*
X159058Y157945D01*
X159582Y157263D01*
X159998Y156943D01*
Y156333D01*
X159582Y156013D01*
X159058Y155331D01*
X158730Y154537D01*
X158683Y154185D01*
X162500D01*
X166317D01*
X166270Y154537D01*
X165942Y155331D01*
X165418Y156013D01*
X165002Y156333D01*
Y156943D01*
X165418Y157263D01*
X165942Y157945D01*
X166270Y158739D01*
X166383Y159591D01*
X166270Y160443D01*
X165942Y161237D01*
X165418Y161918D01*
X164736Y162442D01*
X163943Y162770D01*
X163091Y162882D01*
X161909D01*
X161057Y162770D01*
X160264Y162442D01*
X160080Y162301D01*
X159631Y162522D01*
Y165206D01*
X172050D01*
X173206Y164050D01*
Y117000D01*
X173380Y116122D01*
X173878Y115378D01*
X179706Y109550D01*
Y88000D01*
Y84131D01*
X153608D01*
X152878Y84619D01*
X152000Y84794D01*
X151122Y84619D01*
X150392Y84131D01*
X146000D01*
X145376Y84007D01*
X144846Y83653D01*
X143084Y81891D01*
X142541Y82055D01*
X142534Y82089D01*
X142216Y82566D01*
X141738Y82885D01*
X141175Y82997D01*
X138518D01*
X137955Y82885D01*
X137762Y82756D01*
X135238D01*
X135045Y82885D01*
X134482Y82997D01*
X131825D01*
X131262Y82885D01*
X130784Y82566D01*
X130466Y82089D01*
X130354Y81526D01*
Y78474D01*
X130466Y77911D01*
X130784Y77434D01*
X131262Y77115D01*
X131624Y77043D01*
Y75018D01*
X129919Y73312D01*
X129587Y72816D01*
X129471Y72231D01*
Y68284D01*
X128709Y67969D01*
X127760Y67240D01*
X127031Y66291D01*
X126574Y65186D01*
X126418Y64000D01*
X126574Y62814D01*
X127031Y61709D01*
X127760Y60760D01*
X128709Y60031D01*
X129814Y59574D01*
X131000Y59417D01*
X132186Y59574D01*
X133291Y60031D01*
X134240Y60760D01*
X134969Y61709D01*
X135426Y62814D01*
X135582Y64000D01*
X135426Y65186D01*
X134969Y66291D01*
X134240Y67240D01*
X133291Y67969D01*
X132529Y68284D01*
Y71597D01*
X134235Y73303D01*
X134566Y73799D01*
X134683Y74384D01*
Y77043D01*
X135045Y77115D01*
X135238Y77244D01*
X137762D01*
X137955Y77115D01*
X138215Y77063D01*
Y73654D01*
X138339Y73029D01*
X138693Y72500D01*
X139369Y71824D01*
Y68242D01*
X138709Y67969D01*
X137760Y67240D01*
X137031Y66291D01*
X136574Y65186D01*
X136417Y64000D01*
X136574Y62814D01*
X137031Y61709D01*
X137760Y60760D01*
X138709Y60031D01*
X139814Y59574D01*
X141000Y59417D01*
X142186Y59574D01*
X143291Y60031D01*
X144240Y60760D01*
X144969Y61709D01*
X145426Y62814D01*
X145582Y64000D01*
X145426Y65186D01*
X144969Y66291D01*
X144240Y67240D01*
X143291Y67969D01*
X142631Y68242D01*
Y72500D01*
X142507Y73124D01*
X142154Y73654D01*
X141478Y74329D01*
Y77063D01*
X141738Y77115D01*
X142216Y77434D01*
X142534Y77911D01*
X142625Y78369D01*
X143500D01*
X144124Y78493D01*
X144653Y78847D01*
X146676Y80869D01*
X150392D01*
X151122Y80381D01*
X152000Y80206D01*
X152878Y80381D01*
X153608Y80869D01*
X179706D01*
Y78732D01*
X179130D01*
Y73779D01*
X184870D01*
Y78732D01*
X184294D01*
Y82128D01*
Y85706D01*
X192218D01*
X192647Y85147D01*
X193483Y84506D01*
X194456Y84103D01*
X195500Y83965D01*
X200500D01*
X201544Y84103D01*
X202517Y84506D01*
X203353Y85147D01*
X203971Y85952D01*
X204024Y85955D01*
X204471Y85701D01*
Y80299D01*
X204024Y80045D01*
X203971Y80048D01*
X203353Y80853D01*
X202517Y81494D01*
X201544Y81897D01*
X200500Y82034D01*
X195500D01*
X194456Y81897D01*
X193483Y81494D01*
X192647Y80853D01*
X192006Y80017D01*
X191603Y79044D01*
X191465Y78000D01*
X191603Y76956D01*
X192006Y75983D01*
X192647Y75147D01*
X193483Y74506D01*
X194456Y74103D01*
X195500Y73966D01*
X200500D01*
X201544Y74103D01*
X202517Y74506D01*
X203353Y75147D01*
X203971Y75952D01*
X204024Y75955D01*
X204471Y75701D01*
Y70299D01*
X204024Y70045D01*
X203971Y70048D01*
X203353Y70853D01*
X202517Y71494D01*
X201544Y71897D01*
X200500Y72035D01*
X198500D01*
Y68000D01*
Y63965D01*
X200500D01*
X201544Y64103D01*
X202517Y64506D01*
X203353Y65147D01*
X203971Y65952D01*
X204024Y65955D01*
X204471Y65701D01*
Y60299D01*
X204024Y60045D01*
X203971Y60048D01*
X203353Y60853D01*
X202517Y61494D01*
X201544Y61897D01*
X200500Y62034D01*
X198500D01*
Y58000D01*
Y53966D01*
X200500D01*
X201544Y54103D01*
X202517Y54506D01*
X203353Y55147D01*
X203971Y55952D01*
X204024Y55955D01*
X204471Y55701D01*
Y50299D01*
X204024Y50045D01*
X203971Y50048D01*
X203353Y50853D01*
X202517Y51494D01*
X201544Y51897D01*
X200500Y52034D01*
X195500D01*
X194456Y51897D01*
X193483Y51494D01*
X192647Y50853D01*
X192006Y50017D01*
X191603Y49044D01*
X191465Y48000D01*
X191603Y46956D01*
X192006Y45983D01*
X192647Y45147D01*
X193483Y44506D01*
X194456Y44103D01*
X195500Y43966D01*
X200500D01*
X201544Y44103D01*
X202517Y44506D01*
X203353Y45147D01*
X203971Y45952D01*
X204024Y45955D01*
X204471Y45701D01*
Y40299D01*
X204024Y40045D01*
X203971Y40048D01*
X203353Y40853D01*
X202517Y41494D01*
X201544Y41897D01*
X200500Y42035D01*
X195500D01*
X194456Y41897D01*
X193483Y41494D01*
X192647Y40853D01*
X192006Y40017D01*
X191603Y39044D01*
X191465Y38000D01*
X191603Y36956D01*
X192006Y35983D01*
X192647Y35147D01*
X193483Y34506D01*
X194456Y34103D01*
X195500Y33966D01*
X200500D01*
X201544Y34103D01*
X202517Y34506D01*
X203353Y35147D01*
X203971Y35952D01*
X204024Y35955D01*
X204471Y35701D01*
Y30299D01*
X204024Y30045D01*
X203971Y30048D01*
X203353Y30853D01*
X202517Y31494D01*
X201544Y31897D01*
X200500Y32035D01*
X195500D01*
X194456Y31897D01*
X193483Y31494D01*
X192647Y30853D01*
X192006Y30017D01*
X191603Y29044D01*
X191465Y28000D01*
X191603Y26956D01*
X192006Y25983D01*
X192647Y25147D01*
X193483Y24506D01*
X194456Y24103D01*
X195500Y23966D01*
X200500D01*
X201544Y24103D01*
X202517Y24506D01*
X203353Y25147D01*
X203971Y25952D01*
X204024Y25955D01*
X204471Y25701D01*
Y5000D01*
Y4658D01*
X204337Y3988D01*
X204076Y3356D01*
X203696Y2788D01*
X203212Y2304D01*
X202644Y1924D01*
X202012Y1663D01*
X201342Y1529D01*
X200299D01*
X200045Y1976D01*
X200048Y2029D01*
X200853Y2647D01*
X201494Y3483D01*
X201897Y4456D01*
X202034Y5500D01*
Y10500D01*
X201897Y11544D01*
X201494Y12517D01*
X200853Y13353D01*
X200017Y13994D01*
X199044Y14397D01*
X198000Y14535D01*
X196956Y14397D01*
X195983Y13994D01*
X195147Y13353D01*
X194506Y12517D01*
X194103Y11544D01*
X193965Y10500D01*
Y5500D01*
X194103Y4456D01*
X194506Y3483D01*
X195147Y2647D01*
X195952Y2029D01*
X195955Y1976D01*
X195701Y1529D01*
X190299D01*
X190045Y1976D01*
X190048Y2029D01*
X190853Y2647D01*
X191494Y3483D01*
X191897Y4456D01*
X192034Y5500D01*
Y10500D01*
X191897Y11544D01*
X191494Y12517D01*
X190853Y13353D01*
X190017Y13994D01*
X189044Y14397D01*
X188000Y14535D01*
X186956Y14397D01*
X185983Y13994D01*
X185147Y13353D01*
X184506Y12517D01*
X184103Y11544D01*
X183966Y10500D01*
Y5500D01*
X184103Y4456D01*
X184506Y3483D01*
X185147Y2647D01*
X185952Y2029D01*
X185955Y1976D01*
X185701Y1529D01*
X180299D01*
X180045Y1976D01*
X180048Y2029D01*
X180853Y2647D01*
X181494Y3483D01*
X181897Y4456D01*
X182035Y5500D01*
Y10500D01*
X181897Y11544D01*
X181494Y12517D01*
X180853Y13353D01*
X180017Y13994D01*
X179044Y14397D01*
X178000Y14535D01*
X176956Y14397D01*
X175983Y13994D01*
X175147Y13353D01*
X174506Y12517D01*
X174103Y11544D01*
X173966Y10500D01*
Y5500D01*
X174103Y4456D01*
X174506Y3483D01*
X175147Y2647D01*
X175952Y2029D01*
X175955Y1976D01*
X175701Y1529D01*
X170299D01*
X170045Y1976D01*
X170048Y2029D01*
X170853Y2647D01*
X171494Y3483D01*
X171897Y4456D01*
X172035Y5500D01*
Y10500D01*
X171897Y11544D01*
X171494Y12517D01*
X170853Y13353D01*
X170017Y13994D01*
X169044Y14397D01*
X168000Y14535D01*
X166956Y14397D01*
X165983Y13994D01*
X165147Y13353D01*
X164506Y12517D01*
X164103Y11544D01*
X163965Y10500D01*
Y5500D01*
X164103Y4456D01*
X164506Y3483D01*
X165147Y2647D01*
X165952Y2029D01*
X165955Y1976D01*
X165701Y1529D01*
X160299D01*
X160045Y1976D01*
X160048Y2029D01*
X160853Y2647D01*
X161494Y3483D01*
X161897Y4456D01*
X162034Y5500D01*
Y10500D01*
X161897Y11544D01*
X161494Y12517D01*
X160853Y13353D01*
X160017Y13994D01*
X159044Y14397D01*
X158000Y14535D01*
X156956Y14397D01*
X155983Y13994D01*
X155147Y13353D01*
X154506Y12517D01*
X154103Y11544D01*
X153965Y10500D01*
Y5500D01*
X154103Y4456D01*
X154506Y3483D01*
X155147Y2647D01*
X155952Y2029D01*
X155955Y1976D01*
X155701Y1529D01*
X150299D01*
X150045Y1976D01*
X150048Y2029D01*
X150853Y2647D01*
X151494Y3483D01*
X151897Y4456D01*
X152034Y5500D01*
Y10500D01*
X151897Y11544D01*
X151494Y12517D01*
X150853Y13353D01*
X150017Y13994D01*
X149044Y14397D01*
X148000Y14535D01*
X146956Y14397D01*
X145983Y13994D01*
X145147Y13353D01*
X144506Y12517D01*
X144103Y11544D01*
X143965Y10500D01*
Y5500D01*
X144103Y4456D01*
X144506Y3483D01*
X145147Y2647D01*
X145952Y2029D01*
X145955Y1976D01*
X145701Y1529D01*
X140299D01*
X140045Y1976D01*
X140048Y2029D01*
X140853Y2647D01*
X141494Y3483D01*
X141897Y4456D01*
X142034Y5500D01*
Y10500D01*
X141897Y11544D01*
X141494Y12517D01*
X140853Y13353D01*
X140017Y13994D01*
X139044Y14397D01*
X138000Y14535D01*
X136956Y14397D01*
X135983Y13994D01*
X135147Y13353D01*
X134506Y12517D01*
X134103Y11544D01*
X133966Y10500D01*
Y5500D01*
X134103Y4456D01*
X134506Y3483D01*
X135147Y2647D01*
X135952Y2029D01*
X135955Y1976D01*
X135701Y1529D01*
X130299D01*
X130045Y1976D01*
X130048Y2029D01*
X130853Y2647D01*
X131494Y3483D01*
X131897Y4456D01*
X132035Y5500D01*
Y10500D01*
X131897Y11544D01*
X131494Y12517D01*
X130853Y13353D01*
X130017Y13994D01*
X129529Y14196D01*
Y17854D01*
X130089Y17966D01*
X130566Y18284D01*
X130885Y18762D01*
X130900Y18840D01*
X131154Y19226D01*
X131700Y19335D01*
X132163Y19644D01*
X134509Y21991D01*
X134509Y21991D01*
X134819Y22454D01*
X134927Y23000D01*
X134927Y23000D01*
Y25748D01*
X135122Y25878D01*
X135619Y26622D01*
X135794Y27500D01*
X135619Y28378D01*
X135122Y29122D01*
X134378Y29620D01*
X133500Y29794D01*
X132622Y29620D01*
X131878Y29122D01*
X131497Y28552D01*
X131050Y28662D01*
X130992Y28697D01*
X130885Y29238D01*
X130566Y29715D01*
X130089Y30034D01*
X129526Y30146D01*
X128500D01*
Y27347D01*
X128000D01*
Y26847D01*
X125003D01*
Y26018D01*
X125115Y25455D01*
X125244Y25262D01*
Y22738D01*
X125115Y22545D01*
X125003Y21982D01*
Y19325D01*
X125115Y18762D01*
X125434Y18284D01*
X125911Y17966D01*
X126471Y17854D01*
Y14196D01*
X125983Y13994D01*
X125147Y13353D01*
X124506Y12517D01*
X124103Y11544D01*
X123966Y10500D01*
Y5500D01*
X124103Y4456D01*
X124506Y3483D01*
X125147Y2647D01*
X125952Y2029D01*
X125955Y1976D01*
X125701Y1529D01*
X120299D01*
X120045Y1976D01*
X120048Y2029D01*
X120853Y2647D01*
X121494Y3483D01*
X121897Y4456D01*
X122035Y5500D01*
Y10500D01*
X121897Y11544D01*
X121494Y12517D01*
X120853Y13353D01*
X120017Y13994D01*
X119044Y14397D01*
X118000Y14535D01*
X116956Y14397D01*
X115983Y13994D01*
X115147Y13353D01*
X114506Y12517D01*
X114103Y11544D01*
X113965Y10500D01*
Y5500D01*
X114103Y4456D01*
X114506Y3483D01*
X115147Y2647D01*
X115952Y2029D01*
X115955Y1976D01*
X115701Y1529D01*
X110299D01*
X110045Y1976D01*
X110048Y2029D01*
X110853Y2647D01*
X111494Y3483D01*
X111897Y4456D01*
X112034Y5500D01*
Y10500D01*
X111897Y11544D01*
X111494Y12517D01*
X110853Y13353D01*
X110017Y13994D01*
X109800Y14084D01*
Y14723D01*
X109692Y15270D01*
X109427Y15665D01*
Y18449D01*
X110009Y19031D01*
X110009Y19031D01*
X110051Y19073D01*
X111553D01*
X111615Y18762D01*
X111934Y18284D01*
X112411Y17966D01*
X112974Y17854D01*
X116026D01*
X116589Y17966D01*
X117066Y18284D01*
X117385Y18762D01*
X117497Y19325D01*
Y21982D01*
X117385Y22545D01*
X117256Y22738D01*
Y25262D01*
X117385Y25455D01*
X117497Y26018D01*
Y26847D01*
X111503D01*
Y26018D01*
X111615Y25455D01*
X111744Y25262D01*
Y22738D01*
X111615Y22545D01*
X111503Y21982D01*
Y21927D01*
X110586D01*
X110122Y22622D01*
X109378Y23120D01*
X108500Y23294D01*
X107622Y23120D01*
X106878Y22622D01*
X106380Y21878D01*
X106206Y21000D01*
X106380Y20122D01*
X106710Y19629D01*
X106681Y19586D01*
X106573Y19040D01*
X106573Y19040D01*
Y14238D01*
X105983Y13994D01*
X105147Y13353D01*
X104506Y12517D01*
X104103Y11544D01*
X103965Y10500D01*
Y5500D01*
X104103Y4456D01*
X104506Y3483D01*
X105147Y2647D01*
X105952Y2029D01*
X105955Y1976D01*
X105701Y1529D01*
X100299D01*
X100045Y1976D01*
X100048Y2029D01*
X100853Y2647D01*
X101494Y3483D01*
X101897Y4456D01*
X102034Y5500D01*
Y7500D01*
X98000D01*
X93966D01*
Y5500D01*
X94103Y4456D01*
X94506Y3483D01*
X95147Y2647D01*
X95952Y2029D01*
X95955Y1976D01*
X95701Y1529D01*
X90299D01*
X90045Y1976D01*
X90048Y2029D01*
X90853Y2647D01*
X91494Y3483D01*
X91897Y4456D01*
X92035Y5500D01*
Y7500D01*
X88000D01*
X83965D01*
Y5500D01*
X84103Y4456D01*
X84506Y3483D01*
X85147Y2647D01*
X85952Y2029D01*
X85955Y1976D01*
X85701Y1529D01*
X80299D01*
X80045Y1976D01*
X80048Y2029D01*
X80853Y2647D01*
X81494Y3483D01*
X81897Y4456D01*
X82034Y5500D01*
Y10500D01*
X81897Y11544D01*
X81494Y12517D01*
X80853Y13353D01*
X80017Y13994D01*
X79044Y14397D01*
X78000Y14535D01*
X76956Y14397D01*
X75983Y13994D01*
X75147Y13353D01*
X74506Y12517D01*
X74103Y11544D01*
X73966Y10500D01*
Y5500D01*
X74103Y4456D01*
X74506Y3483D01*
X75147Y2647D01*
X75952Y2029D01*
X75955Y1976D01*
X75701Y1529D01*
X70299D01*
X70045Y1976D01*
X70048Y2029D01*
X70853Y2647D01*
X71494Y3483D01*
X71897Y4456D01*
X72035Y5500D01*
Y10500D01*
X71897Y11544D01*
X71494Y12517D01*
X70853Y13353D01*
X70017Y13994D01*
X69044Y14397D01*
X68000Y14535D01*
X66956Y14397D01*
X65983Y13994D01*
X65147Y13353D01*
X64506Y12517D01*
X64103Y11544D01*
X63965Y10500D01*
Y5500D01*
X64103Y4456D01*
X64506Y3483D01*
X65147Y2647D01*
X65952Y2029D01*
X65955Y1976D01*
X65701Y1529D01*
X60299D01*
X60045Y1976D01*
X60048Y2029D01*
X60853Y2647D01*
X61494Y3483D01*
X61897Y4456D01*
X62034Y5500D01*
Y10500D01*
X61897Y11544D01*
X61494Y12517D01*
X60853Y13353D01*
X60017Y13994D01*
X59044Y14397D01*
X58000Y14535D01*
X56956Y14397D01*
X55983Y13994D01*
X55147Y13353D01*
X54506Y12517D01*
X54103Y11544D01*
X53966Y10500D01*
Y5500D01*
X54103Y4456D01*
X54506Y3483D01*
X55147Y2647D01*
X55952Y2029D01*
X55955Y1976D01*
X55701Y1529D01*
X50299D01*
X50045Y1976D01*
X50048Y2029D01*
X50853Y2647D01*
X51494Y3483D01*
X51897Y4456D01*
X52034Y5500D01*
Y10500D01*
X51897Y11544D01*
X51494Y12517D01*
X50853Y13353D01*
X50017Y13994D01*
X49044Y14397D01*
X48000Y14535D01*
X46956Y14397D01*
X45983Y13994D01*
X45147Y13353D01*
X44506Y12517D01*
X44103Y11544D01*
X43966Y10500D01*
Y5500D01*
X44103Y4456D01*
X44506Y3483D01*
X45147Y2647D01*
X45952Y2029D01*
X45955Y1976D01*
X45701Y1529D01*
X40299D01*
X40045Y1976D01*
X40048Y2029D01*
X40853Y2647D01*
X41494Y3483D01*
X41897Y4456D01*
X42035Y5500D01*
Y10500D01*
X41897Y11544D01*
X41494Y12517D01*
X40853Y13353D01*
X40017Y13994D01*
X39044Y14397D01*
X38000Y14535D01*
X36956Y14397D01*
X35983Y13994D01*
X35147Y13353D01*
X34506Y12517D01*
X34103Y11544D01*
X33966Y10500D01*
Y5500D01*
X34103Y4456D01*
X34506Y3483D01*
X35147Y2647D01*
X35952Y2029D01*
X35955Y1976D01*
X35701Y1529D01*
X30299D01*
X30045Y1976D01*
X30048Y2029D01*
X30853Y2647D01*
X31494Y3483D01*
X31897Y4456D01*
X32035Y5500D01*
Y10500D01*
X31897Y11544D01*
X31494Y12517D01*
X30853Y13353D01*
X30017Y13994D01*
X29044Y14397D01*
X28000Y14535D01*
X26956Y14397D01*
X25983Y13994D01*
X25147Y13353D01*
X24506Y12517D01*
X24103Y11544D01*
X23966Y10500D01*
Y5500D01*
X24103Y4456D01*
X24506Y3483D01*
X25147Y2647D01*
X25952Y2029D01*
X25955Y1976D01*
X25701Y1529D01*
X20299D01*
X20045Y1976D01*
X20048Y2029D01*
X20853Y2647D01*
X21494Y3483D01*
X21897Y4456D01*
X22035Y5500D01*
Y10500D01*
X21897Y11544D01*
X21494Y12517D01*
X20853Y13353D01*
X20017Y13994D01*
X19044Y14397D01*
X18000Y14535D01*
X16956Y14397D01*
X15983Y13994D01*
X15147Y13353D01*
X14506Y12517D01*
X14103Y11544D01*
X13965Y10500D01*
Y5500D01*
X14103Y4456D01*
X14506Y3483D01*
X15147Y2647D01*
X15952Y2029D01*
X15955Y1976D01*
X15701Y1529D01*
X12000D01*
Y7500D01*
X8000D01*
X4000D01*
Y2199D01*
X3500Y1865D01*
X3356Y1924D01*
X2788Y2304D01*
X2304Y2788D01*
X1924Y3356D01*
X1663Y3988D01*
X1529Y4658D01*
Y5000D01*
Y25701D01*
X1976Y25955D01*
X2029Y25952D01*
X2647Y25147D01*
X3483Y24506D01*
X4456Y24103D01*
X5500Y23966D01*
X10500D01*
X11544Y24103D01*
X12517Y24506D01*
X13353Y25147D01*
X13994Y25983D01*
X14154Y26369D01*
X61682D01*
X62500Y26206D01*
X63378Y26381D01*
X64122Y26878D01*
X64619Y27622D01*
X64794Y28500D01*
X64619Y29378D01*
X64122Y30122D01*
X63378Y30619D01*
X62500Y30794D01*
X61622Y30619D01*
X60878Y30122D01*
X60550Y29631D01*
X14154D01*
X13994Y30017D01*
X13353Y30853D01*
X12517Y31494D01*
X11544Y31897D01*
X10500Y32035D01*
X5500D01*
X4456Y31897D01*
X3483Y31494D01*
X2647Y30853D01*
X2029Y30048D01*
X1976Y30045D01*
X1529Y30299D01*
Y35701D01*
X1976Y35955D01*
X2029Y35952D01*
X2647Y35147D01*
X3483Y34506D01*
X4456Y34103D01*
X5500Y33966D01*
X10500D01*
X11544Y34103D01*
X12517Y34506D01*
X13353Y35147D01*
X13994Y35983D01*
X14397Y36956D01*
X14535Y38000D01*
X14397Y39044D01*
X13994Y40017D01*
X13353Y40853D01*
X12517Y41494D01*
X11544Y41897D01*
X10500Y42035D01*
X5500D01*
X4456Y41897D01*
X3483Y41494D01*
X2647Y40853D01*
X2029Y40048D01*
X1976Y40045D01*
X1529Y40299D01*
Y45701D01*
X1976Y45955D01*
X2029Y45952D01*
X2647Y45147D01*
X3483Y44506D01*
X4456Y44103D01*
X5500Y43966D01*
X10500D01*
X11544Y44103D01*
X12517Y44506D01*
X13353Y45147D01*
X13994Y45983D01*
X14397Y46956D01*
X14535Y48000D01*
X14397Y49044D01*
X13994Y50017D01*
X13353Y50853D01*
X12517Y51494D01*
X11544Y51897D01*
X10500Y52034D01*
X5500D01*
X4456Y51897D01*
X3483Y51494D01*
X2647Y50853D01*
X2029Y50048D01*
X1976Y50045D01*
X1529Y50299D01*
Y55701D01*
X1976Y55955D01*
X2029Y55952D01*
X2647Y55147D01*
X3483Y54506D01*
X4456Y54103D01*
X5500Y53966D01*
X10500D01*
X11544Y54103D01*
X12517Y54506D01*
X13353Y55147D01*
X13994Y55983D01*
X14238Y56573D01*
X41909D01*
X46491Y51991D01*
X46491Y51991D01*
X46954Y51681D01*
X47500Y51573D01*
X47500Y51573D01*
X65748D01*
X65878Y51378D01*
X66622Y50880D01*
X67500Y50706D01*
X68378Y50880D01*
X69122Y51378D01*
X69619Y52122D01*
X69794Y53000D01*
X69619Y53878D01*
X69122Y54622D01*
X68378Y55119D01*
X67500Y55294D01*
X66622Y55119D01*
X65878Y54622D01*
X65748Y54427D01*
X48091D01*
X43509Y59009D01*
X43046Y59319D01*
X42500Y59427D01*
X42500Y59427D01*
X14238D01*
X13994Y60017D01*
X13353Y60853D01*
X12517Y61494D01*
X11544Y61897D01*
X10500Y62034D01*
X5500D01*
X4456Y61897D01*
X3483Y61494D01*
X2647Y60853D01*
X2029Y60048D01*
X1976Y60045D01*
X1529Y60299D01*
Y65701D01*
X1976Y65955D01*
X2029Y65952D01*
X2647Y65147D01*
X3483Y64506D01*
X4456Y64103D01*
X5500Y63965D01*
X7500D01*
Y68000D01*
Y72035D01*
X5500D01*
X4456Y71897D01*
X3483Y71494D01*
X2647Y70853D01*
X2029Y70048D01*
X1976Y70045D01*
X1529Y70299D01*
Y75701D01*
X1976Y75955D01*
X2029Y75952D01*
X2647Y75147D01*
X3483Y74506D01*
X4456Y74103D01*
X5500Y73966D01*
X7500D01*
Y78000D01*
Y82034D01*
X5500D01*
X4456Y81897D01*
X3483Y81494D01*
X2647Y80853D01*
X2029Y80048D01*
X1976Y80045D01*
X1529Y80299D01*
Y85701D01*
X1976Y85955D01*
X2029Y85952D01*
X2647Y85147D01*
X3483Y84506D01*
X4456Y84103D01*
X5500Y83965D01*
X10500D01*
X11544Y84103D01*
X12517Y84506D01*
X13353Y85147D01*
X13994Y85983D01*
X14397Y86956D01*
X14535Y88000D01*
X14397Y89044D01*
X13994Y90017D01*
X13353Y90853D01*
X12517Y91494D01*
X11544Y91897D01*
X10500Y92035D01*
X5500D01*
X4456Y91897D01*
X3483Y91494D01*
X2647Y90853D01*
X2029Y90048D01*
X1976Y90045D01*
X1529Y90299D01*
Y95701D01*
X1976Y95955D01*
X2029Y95952D01*
X2647Y95147D01*
X3483Y94506D01*
X4456Y94103D01*
X5500Y93966D01*
X10500D01*
X11544Y94103D01*
X12517Y94506D01*
X13353Y95147D01*
X13994Y95983D01*
X14397Y96956D01*
X14535Y98000D01*
X14397Y99044D01*
X13994Y100017D01*
X13353Y100853D01*
X12517Y101494D01*
X11544Y101897D01*
X10500Y102034D01*
X5500D01*
X4456Y101897D01*
X3483Y101494D01*
X2647Y100853D01*
X2029Y100048D01*
X1976Y100045D01*
X1529Y100299D01*
Y105701D01*
X1976Y105955D01*
X2029Y105952D01*
X2647Y105147D01*
X3483Y104506D01*
X4456Y104103D01*
X5500Y103965D01*
X10500D01*
X11544Y104103D01*
X12517Y104506D01*
X13353Y105147D01*
X13994Y105983D01*
X14397Y106956D01*
X14535Y108000D01*
X14397Y109044D01*
X13994Y110017D01*
X13353Y110853D01*
X12517Y111494D01*
X11544Y111897D01*
X10500Y112034D01*
X5500D01*
X4456Y111897D01*
X3483Y111494D01*
X2647Y110853D01*
X2029Y110048D01*
X1976Y110045D01*
X1529Y110299D01*
Y115701D01*
X1976Y115955D01*
X2029Y115952D01*
X2647Y115147D01*
X3483Y114506D01*
X4456Y114103D01*
X5500Y113965D01*
X10500D01*
X11544Y114103D01*
X12517Y114506D01*
X13353Y115147D01*
X13994Y115983D01*
X14397Y116956D01*
X14535Y118000D01*
X14397Y119044D01*
X13994Y120017D01*
X13353Y120853D01*
X12517Y121494D01*
X11544Y121897D01*
X10500Y122035D01*
X5500D01*
X4456Y121897D01*
X3483Y121494D01*
X2647Y120853D01*
X2029Y120048D01*
X1976Y120045D01*
X1529Y120299D01*
Y125701D01*
X1976Y125955D01*
X2029Y125952D01*
X2647Y125147D01*
X3483Y124506D01*
X4456Y124103D01*
X5500Y123966D01*
X10500D01*
X11544Y124103D01*
X12517Y124506D01*
X13353Y125147D01*
X13994Y125983D01*
X14397Y126956D01*
X14535Y128000D01*
X14397Y129044D01*
X13994Y130017D01*
X13353Y130853D01*
X12517Y131494D01*
X11544Y131897D01*
X10500Y132035D01*
X5500D01*
X4456Y131897D01*
X3483Y131494D01*
X2647Y130853D01*
X2029Y130048D01*
X1976Y130045D01*
X1529Y130299D01*
Y135701D01*
X1976Y135955D01*
X2029Y135952D01*
X2647Y135147D01*
X3483Y134506D01*
X4456Y134103D01*
X5500Y133966D01*
X10500D01*
X11544Y134103D01*
X12517Y134506D01*
X13353Y135147D01*
X13994Y135983D01*
X14397Y136956D01*
X14535Y138000D01*
X14397Y139044D01*
X13994Y140017D01*
X13353Y140853D01*
X12517Y141494D01*
X11544Y141897D01*
X10500Y142034D01*
X5500D01*
X4456Y141897D01*
X3483Y141494D01*
X2647Y140853D01*
X2029Y140048D01*
X1976Y140045D01*
X1529Y140299D01*
Y145701D01*
X1976Y145955D01*
X2029Y145952D01*
X2647Y145147D01*
X3483Y144506D01*
X4456Y144103D01*
X5500Y143965D01*
X10500D01*
X11544Y144103D01*
X12517Y144506D01*
X13353Y145147D01*
X13994Y145983D01*
X14397Y146956D01*
X14535Y148000D01*
X14397Y149044D01*
X13994Y150017D01*
X13353Y150853D01*
X12517Y151494D01*
X11544Y151897D01*
X10500Y152034D01*
X5500D01*
X4456Y151897D01*
X3483Y151494D01*
X2647Y150853D01*
X2029Y150048D01*
X1976Y150045D01*
X1529Y150299D01*
Y155701D01*
X1976Y155955D01*
X2029Y155952D01*
X2647Y155147D01*
X3483Y154506D01*
X4456Y154103D01*
X5500Y153965D01*
X10500D01*
X11544Y154103D01*
X12517Y154506D01*
X13353Y155147D01*
X13994Y155983D01*
X14397Y156956D01*
X14535Y158000D01*
X14397Y159044D01*
X13994Y160017D01*
X13353Y160853D01*
X12517Y161494D01*
X11544Y161897D01*
X10500Y162034D01*
X5500D01*
X4456Y161897D01*
X3483Y161494D01*
X2647Y160853D01*
X2029Y160048D01*
X1976Y160045D01*
X1529Y160299D01*
Y165701D01*
X1976Y165955D01*
X2029Y165952D01*
X2647Y165147D01*
X3483Y164506D01*
X4456Y164103D01*
X5500Y163965D01*
X7500D01*
Y168000D01*
Y172035D01*
X5500D01*
X4456Y171897D01*
X3483Y171494D01*
X2647Y170853D01*
X2029Y170048D01*
X1976Y170045D01*
X1529Y170299D01*
Y175701D01*
X1976Y175955D01*
X2029Y175952D01*
X2647Y175147D01*
X3483Y174506D01*
X4456Y174103D01*
X5500Y173966D01*
X10500D01*
X11544Y174103D01*
X12517Y174506D01*
X13353Y175147D01*
X13994Y175983D01*
X14397Y176956D01*
X14535Y178000D01*
X14397Y179044D01*
X13994Y180017D01*
X13353Y180853D01*
X12517Y181494D01*
X11544Y181897D01*
X10500Y182035D01*
X5500D01*
X4456Y181897D01*
X3483Y181494D01*
X2647Y180853D01*
X2029Y180048D01*
X1976Y180045D01*
X1529Y180299D01*
Y185701D01*
X1976Y185955D01*
X2029Y185952D01*
X2647Y185147D01*
X3483Y184506D01*
X4456Y184103D01*
X5500Y183966D01*
X7500D01*
Y188000D01*
Y192034D01*
X5500D01*
X4456Y191897D01*
X3483Y191494D01*
X2647Y190853D01*
X2029Y190048D01*
X1976Y190045D01*
X1529Y190299D01*
Y195701D01*
X1976Y195955D01*
X2029Y195952D01*
X2647Y195147D01*
X3483Y194506D01*
X4456Y194103D01*
X5500Y193965D01*
X10500D01*
X11544Y194103D01*
X12517Y194506D01*
X13353Y195147D01*
X13994Y195983D01*
X14154Y196369D01*
X30324D01*
X30347Y196346D01*
D02*
G37*
G36*
X192647Y195147D02*
X193483Y194506D01*
X194456Y194103D01*
X195500Y193965D01*
X200500D01*
X201544Y194103D01*
X202517Y194506D01*
X203353Y195147D01*
X203971Y195952D01*
X204024Y195955D01*
X204471Y195701D01*
Y190299D01*
X204024Y190045D01*
X203971Y190048D01*
X203353Y190853D01*
X202517Y191494D01*
X201544Y191897D01*
X200500Y192034D01*
X198500D01*
Y188000D01*
Y183966D01*
X200500D01*
X201544Y184103D01*
X202517Y184506D01*
X203353Y185147D01*
X203971Y185952D01*
X204024Y185955D01*
X204471Y185701D01*
Y180299D01*
X204024Y180045D01*
X203971Y180048D01*
X203353Y180853D01*
X202517Y181494D01*
X201544Y181897D01*
X200500Y182035D01*
X195500D01*
X194456Y181897D01*
X193483Y181494D01*
X192647Y180853D01*
X192218Y180294D01*
X187870D01*
Y181220D01*
X182130D01*
Y180294D01*
X178870D01*
Y181220D01*
X173130D01*
Y180294D01*
X168950D01*
X165294Y183950D01*
Y194103D01*
X165566Y194284D01*
X165786Y194614D01*
X170653D01*
X171434Y194770D01*
X172096Y195212D01*
X172845Y195961D01*
X192023D01*
X192647Y195147D01*
D02*
G37*
G36*
X131653Y201307D02*
X160214D01*
X160244Y201262D01*
Y198738D01*
X160115Y198545D01*
X160003Y197982D01*
Y195325D01*
X160115Y194762D01*
X160434Y194284D01*
X160706Y194103D01*
Y183000D01*
X160880Y182122D01*
X161378Y181378D01*
X166378Y176378D01*
X167122Y175881D01*
X168000Y175706D01*
X182706D01*
Y171000D01*
X182880Y170122D01*
X183378Y169378D01*
X186378Y166378D01*
X187122Y165881D01*
X188000Y165706D01*
X192218D01*
X192647Y165147D01*
X193483Y164506D01*
X194456Y164103D01*
X195500Y163965D01*
X200500D01*
X201544Y164103D01*
X202517Y164506D01*
X203353Y165147D01*
X203971Y165952D01*
X204024Y165955D01*
X204471Y165701D01*
Y160299D01*
X204024Y160045D01*
X203971Y160048D01*
X203353Y160853D01*
X202517Y161494D01*
X201544Y161897D01*
X200500Y162034D01*
X198500D01*
Y158000D01*
Y153965D01*
X200500D01*
X201544Y154103D01*
X202517Y154506D01*
X203353Y155147D01*
X203971Y155952D01*
X204024Y155955D01*
X204471Y155701D01*
Y150299D01*
X204024Y150045D01*
X203971Y150048D01*
X203353Y150853D01*
X202517Y151494D01*
X201544Y151897D01*
X200500Y152034D01*
X195500D01*
X194456Y151897D01*
X193483Y151494D01*
X192647Y150853D01*
X192006Y150017D01*
X191603Y149044D01*
X191465Y148000D01*
X191603Y146956D01*
X192006Y145983D01*
X192647Y145147D01*
X193483Y144506D01*
X194456Y144103D01*
X195500Y143965D01*
X200500D01*
X201544Y144103D01*
X202517Y144506D01*
X203353Y145147D01*
X203971Y145952D01*
X204024Y145955D01*
X204471Y145701D01*
Y140299D01*
X204024Y140045D01*
X203971Y140048D01*
X203353Y140853D01*
X202517Y141494D01*
X201544Y141897D01*
X200500Y142034D01*
X198500D01*
Y138000D01*
Y133966D01*
X200500D01*
X201544Y134103D01*
X202517Y134506D01*
X203353Y135147D01*
X203971Y135952D01*
X204024Y135955D01*
X204471Y135701D01*
Y130299D01*
X204024Y130045D01*
X203971Y130048D01*
X203353Y130853D01*
X202517Y131494D01*
X201544Y131897D01*
X200500Y132035D01*
X198500D01*
Y128000D01*
Y123966D01*
X200500D01*
X201544Y124103D01*
X202517Y124506D01*
X203353Y125147D01*
X203971Y125952D01*
X204024Y125955D01*
X204471Y125701D01*
Y120299D01*
X204024Y120045D01*
X203971Y120048D01*
X203353Y120853D01*
X202517Y121494D01*
X201544Y121897D01*
X200500Y122035D01*
X195500D01*
X194456Y121897D01*
X193483Y121494D01*
X192647Y120853D01*
X192006Y120017D01*
X191603Y119044D01*
X191465Y118000D01*
X191603Y116956D01*
X192006Y115983D01*
X192647Y115147D01*
X193483Y114506D01*
X194456Y114103D01*
X195500Y113965D01*
X200500D01*
X201544Y114103D01*
X202517Y114506D01*
X203353Y115147D01*
X203971Y115952D01*
X204024Y115955D01*
X204471Y115701D01*
Y110299D01*
X204024Y110045D01*
X203971Y110048D01*
X203353Y110853D01*
X202517Y111494D01*
X201544Y111897D01*
X200500Y112034D01*
X195500D01*
X194456Y111897D01*
X193483Y111494D01*
X192647Y110853D01*
X192006Y110017D01*
X191603Y109044D01*
X191465Y108000D01*
X191603Y106956D01*
X192006Y105983D01*
X192647Y105147D01*
X193483Y104506D01*
X194456Y104103D01*
X195500Y103965D01*
X200500D01*
X201544Y104103D01*
X202517Y104506D01*
X203353Y105147D01*
X203971Y105952D01*
X204024Y105955D01*
X204471Y105701D01*
Y100299D01*
X204024Y100045D01*
X203971Y100048D01*
X203353Y100853D01*
X202517Y101494D01*
X201544Y101897D01*
X200500Y102034D01*
X195500D01*
X194456Y101897D01*
X193483Y101494D01*
X192647Y100853D01*
X192006Y100017D01*
X191603Y99044D01*
X191465Y98000D01*
X191603Y96956D01*
X192006Y95983D01*
X192647Y95147D01*
X193483Y94506D01*
X194456Y94103D01*
X195500Y93966D01*
X200500D01*
X201544Y94103D01*
X202517Y94506D01*
X203353Y95147D01*
X203971Y95952D01*
X204024Y95955D01*
X204471Y95701D01*
Y90299D01*
X204024Y90045D01*
X203971Y90048D01*
X203353Y90853D01*
X202517Y91494D01*
X201544Y91897D01*
X200500Y92035D01*
X195500D01*
X194456Y91897D01*
X193483Y91494D01*
X192647Y90853D01*
X192218Y90294D01*
X184294D01*
Y110500D01*
X184119Y111378D01*
X183622Y112122D01*
X177794Y117950D01*
Y165000D01*
X177620Y165878D01*
X177122Y166622D01*
X174622Y169122D01*
X173878Y169620D01*
X173000Y169794D01*
X160870D01*
Y172221D01*
X155130D01*
Y170768D01*
X154668Y170576D01*
X153794Y171450D01*
Y180000D01*
X153620Y180878D01*
X153122Y181622D01*
X151778Y182966D01*
X152011Y183440D01*
X152500Y183376D01*
X153640Y183526D01*
X154702Y183966D01*
X155614Y184666D01*
X156314Y185578D01*
X156754Y186640D01*
X156904Y187779D01*
X156754Y188919D01*
X156314Y189981D01*
X155614Y190893D01*
X154702Y191593D01*
X153640Y192033D01*
X152500Y192183D01*
X151360Y192033D01*
X150298Y191593D01*
X149386Y190893D01*
X148686Y189981D01*
X148246Y188919D01*
X148096Y187779D01*
X148161Y187291D01*
X147687Y187057D01*
X144294Y190450D01*
Y194000D01*
X144120Y194878D01*
X143622Y195622D01*
X143120Y195958D01*
Y196542D01*
X143622Y196878D01*
X144120Y197622D01*
X144294Y198500D01*
X144120Y199378D01*
X143622Y200122D01*
X142878Y200620D01*
X142000Y200794D01*
X141122Y200620D01*
X140378Y200122D01*
X139881Y199378D01*
X139706Y198500D01*
X139881Y197622D01*
X140378Y196878D01*
X140880Y196542D01*
Y195958D01*
X140378Y195622D01*
X139881Y194878D01*
X139706Y194000D01*
Y189500D01*
X139734Y189357D01*
X139274Y189110D01*
X137023Y191360D01*
X137169Y191839D01*
X137378Y191881D01*
X138122Y192378D01*
X138619Y193122D01*
X138794Y194000D01*
X138619Y194878D01*
X138122Y195622D01*
X137378Y196119D01*
X136500Y196294D01*
X135622Y196119D01*
X135575Y196088D01*
X130774Y200889D01*
X130887Y201431D01*
X130916Y201454D01*
X131653Y201307D01*
D02*
G37*
%LPC*%
G36*
X115370Y231720D02*
X113000D01*
Y229744D01*
X115370D01*
Y231720D01*
D02*
G37*
G36*
X112000D02*
X109630D01*
Y229744D01*
X112000D01*
Y231720D01*
D02*
G37*
G36*
Y228744D02*
X109630D01*
Y226768D01*
X112000D01*
Y228744D01*
D02*
G37*
G36*
X28000Y251542D02*
X25882Y251375D01*
X23815Y250879D01*
X21852Y250066D01*
X20040Y248955D01*
X18425Y247575D01*
X17044Y245960D01*
X15934Y244148D01*
X15121Y242185D01*
X14625Y240118D01*
X14458Y238000D01*
X14625Y235882D01*
X15121Y233815D01*
X15934Y231852D01*
X17044Y230040D01*
X18425Y228425D01*
X20040Y227045D01*
X21852Y225934D01*
X23815Y225121D01*
X25882Y224625D01*
X28000Y224458D01*
X30118Y224625D01*
X32185Y225121D01*
X34148Y225934D01*
X35960Y227045D01*
X37576Y228425D01*
X38956Y230040D01*
X40066Y231852D01*
X40879Y233815D01*
X41375Y235882D01*
X41542Y238000D01*
X41375Y240118D01*
X40879Y242185D01*
X40066Y244148D01*
X38956Y245960D01*
X37576Y247575D01*
X35960Y248955D01*
X34148Y250066D01*
X32185Y250879D01*
X30118Y251375D01*
X28000Y251542D01*
D02*
G37*
G36*
X94500Y219504D02*
Y216500D01*
X97504D01*
X97448Y216924D01*
X97092Y217785D01*
X96524Y218524D01*
X95785Y219092D01*
X94924Y219448D01*
X94500Y219504D01*
D02*
G37*
G36*
X93500D02*
X93076Y219448D01*
X92215Y219092D01*
X91476Y218524D01*
X90908Y217785D01*
X90552Y216924D01*
X90496Y216500D01*
X93500D01*
Y219504D01*
D02*
G37*
G36*
X97504Y215500D02*
X94500D01*
Y212496D01*
X94924Y212552D01*
X95785Y212908D01*
X96524Y213476D01*
X97092Y214215D01*
X97448Y215076D01*
X97504Y215500D01*
D02*
G37*
G36*
X93500D02*
X90496D01*
X90552Y215076D01*
X90908Y214215D01*
X91476Y213476D01*
X92215Y212908D01*
X93076Y212552D01*
X93500Y212496D01*
Y215500D01*
D02*
G37*
G36*
X87539Y219539D02*
X80461D01*
Y212461D01*
X87539D01*
Y219539D01*
D02*
G37*
G36*
X104000Y219570D02*
X103076Y219448D01*
X102215Y219092D01*
X101476Y218524D01*
X100908Y217785D01*
X100552Y216924D01*
X100430Y216000D01*
X100552Y215076D01*
X100908Y214215D01*
X101476Y213476D01*
X102215Y212908D01*
X103076Y212552D01*
X104000Y212430D01*
X104924Y212552D01*
X105785Y212908D01*
X106524Y213476D01*
X107092Y214215D01*
X107448Y215076D01*
X107570Y216000D01*
X107448Y216924D01*
X107092Y217785D01*
X106524Y218524D01*
X105785Y219092D01*
X104924Y219448D01*
X104000Y219570D01*
D02*
G37*
G36*
X10500Y212035D02*
X8500D01*
Y208500D01*
X14469D01*
X14397Y209044D01*
X13994Y210017D01*
X13353Y210853D01*
X12517Y211494D01*
X11544Y211897D01*
X10500Y212035D01*
D02*
G37*
G36*
X92000Y207250D02*
X89000D01*
Y205500D01*
X92000D01*
Y207250D01*
D02*
G37*
G36*
X88000D02*
X85000D01*
Y205500D01*
X88000D01*
Y207250D01*
D02*
G37*
G36*
X14469Y207500D02*
X8500D01*
Y203965D01*
X10500D01*
X11544Y204103D01*
X12517Y204506D01*
X13353Y205147D01*
X13994Y205983D01*
X14397Y206956D01*
X14469Y207500D01*
D02*
G37*
G36*
X82465Y190870D02*
X80488D01*
Y188500D01*
X82465D01*
Y190870D01*
D02*
G37*
G36*
X79488D02*
X77512D01*
Y188500D01*
X79488D01*
Y190870D01*
D02*
G37*
G36*
X82465Y187500D02*
X80488D01*
Y185130D01*
X82465D01*
Y187500D01*
D02*
G37*
G36*
X79488D02*
X77512D01*
Y185130D01*
X79488D01*
Y187500D01*
D02*
G37*
G36*
X118405Y181662D02*
X117553Y181550D01*
X116760Y181221D01*
X116078Y180698D01*
X115758Y180281D01*
X115147D01*
X114828Y180698D01*
X114146Y181221D01*
X113352Y181550D01*
X112500Y181662D01*
X111648Y181550D01*
X110854Y181221D01*
X110172Y180698D01*
X109853Y180281D01*
X109242D01*
X108922Y180698D01*
X108240Y181221D01*
X107447Y181550D01*
X106595Y181662D01*
X105743Y181550D01*
X104948Y181221D01*
X104267Y180698D01*
X103947Y180281D01*
X103336D01*
X103017Y180698D01*
X102335Y181221D01*
X101541Y181550D01*
X100689Y181662D01*
X99837Y181550D01*
X99043Y181221D01*
X98361Y180698D01*
X97838Y180016D01*
X97509Y179222D01*
X97397Y178370D01*
Y177189D01*
X97509Y176337D01*
X97838Y175543D01*
X98361Y174861D01*
X99043Y174338D01*
X99837Y174009D01*
X100689Y173897D01*
X101541Y174009D01*
X102335Y174338D01*
X103017Y174861D01*
X103336Y175278D01*
X103947D01*
X104267Y174861D01*
X104948Y174338D01*
X105743Y174009D01*
X106595Y173897D01*
X107447Y174009D01*
X108240Y174338D01*
X108922Y174861D01*
X109242Y175278D01*
X109853D01*
X110172Y174861D01*
X110854Y174338D01*
X111648Y174009D01*
X112500Y173897D01*
X113352Y174009D01*
X114146Y174338D01*
X114828Y174861D01*
X115147Y175278D01*
X115758D01*
X116078Y174861D01*
X116760Y174338D01*
X117553Y174009D01*
X118405Y173897D01*
X119257Y174009D01*
X120052Y174338D01*
X120733Y174861D01*
X121053Y175278D01*
X121664D01*
X121983Y174861D01*
X122665Y174338D01*
X123459Y174009D01*
X123811Y173963D01*
Y177779D01*
Y181596D01*
X123459Y181550D01*
X122665Y181221D01*
X121983Y180698D01*
X121664Y180281D01*
X121053D01*
X120733Y180698D01*
X120052Y181221D01*
X119257Y181550D01*
X118405Y181662D01*
D02*
G37*
G36*
X124811Y181596D02*
Y178279D01*
X127603D01*
Y178370D01*
X127491Y179222D01*
X127162Y180016D01*
X126639Y180698D01*
X125957Y181221D01*
X125163Y181550D01*
X124811Y181596D01*
D02*
G37*
G36*
X127603Y177279D02*
X124811D01*
Y173963D01*
X125163Y174009D01*
X125957Y174338D01*
X126639Y174861D01*
X127162Y175543D01*
X127491Y176337D01*
X127603Y177189D01*
Y177279D01*
D02*
G37*
G36*
X61000Y174294D02*
X60122Y174119D01*
X59378Y173622D01*
X58881Y172878D01*
X58706Y172000D01*
X58881Y171122D01*
X59378Y170378D01*
X59573Y170248D01*
Y167852D01*
X59378Y167722D01*
X58881Y166978D01*
X58706Y166100D01*
X58881Y165222D01*
X59378Y164478D01*
X60122Y163980D01*
X61000Y163806D01*
X61878Y163980D01*
X62622Y164478D01*
X63119Y165222D01*
X63294Y166100D01*
X63119Y166978D01*
X62622Y167722D01*
X62427Y167852D01*
Y170248D01*
X62622Y170378D01*
X63119Y171122D01*
X63294Y172000D01*
X63119Y172878D01*
X62622Y173622D01*
X61878Y174119D01*
X61000Y174294D01*
D02*
G37*
G36*
X81122Y162882D02*
X79941D01*
X79089Y162770D01*
X78295Y162442D01*
X77613Y161918D01*
X77090Y161237D01*
X76761Y160443D01*
X76649Y159591D01*
X76761Y158739D01*
X77090Y157945D01*
X77613Y157263D01*
X78030Y156943D01*
Y156333D01*
X77613Y156013D01*
X77090Y155331D01*
X76761Y154537D01*
X76649Y153685D01*
X76761Y152833D01*
X77090Y152039D01*
X77613Y151357D01*
X78030Y151038D01*
Y150427D01*
X77613Y150107D01*
X77090Y149425D01*
X76761Y148632D01*
X76649Y147780D01*
X76761Y146927D01*
X77090Y146134D01*
X77613Y145452D01*
X78030Y145132D01*
Y144521D01*
X77613Y144202D01*
X77090Y143520D01*
X76761Y142726D01*
X76649Y141874D01*
X76761Y141022D01*
X77090Y140228D01*
X77613Y139546D01*
X78030Y139227D01*
Y138616D01*
X77613Y138296D01*
X77090Y137615D01*
X76761Y136820D01*
X76649Y135968D01*
X76761Y135117D01*
X77090Y134323D01*
X77613Y133641D01*
X78295Y133118D01*
X79089Y132789D01*
X79941Y132677D01*
X81122D01*
X81974Y132789D01*
X82768Y133118D01*
X83450Y133641D01*
X83973Y134323D01*
X84302Y135117D01*
X84414Y135968D01*
X84302Y136820D01*
X83973Y137615D01*
X83450Y138296D01*
X83033Y138616D01*
Y139227D01*
X83450Y139546D01*
X83973Y140228D01*
X84302Y141022D01*
X84414Y141874D01*
X84302Y142726D01*
X83973Y143520D01*
X83450Y144202D01*
X83033Y144521D01*
Y145132D01*
X83450Y145452D01*
X83973Y146134D01*
X84302Y146927D01*
X84414Y147780D01*
X84302Y148632D01*
X83973Y149425D01*
X83450Y150107D01*
X83033Y150427D01*
Y151038D01*
X83450Y151357D01*
X83973Y152039D01*
X84302Y152833D01*
X84414Y153685D01*
X84302Y154537D01*
X83973Y155331D01*
X83450Y156013D01*
X83033Y156333D01*
Y156943D01*
X83450Y157263D01*
X83973Y157945D01*
X84302Y158739D01*
X84414Y159591D01*
X84302Y160443D01*
X83973Y161237D01*
X83450Y161918D01*
X82768Y162442D01*
X81974Y162770D01*
X81122Y162882D01*
D02*
G37*
G36*
X52500Y177294D02*
X51622Y177120D01*
X50878Y176622D01*
X50380Y175878D01*
X50206Y175000D01*
X50380Y174122D01*
X50878Y173378D01*
X51622Y172880D01*
X52369Y172732D01*
Y136500D01*
X52493Y135876D01*
X52846Y135346D01*
X55347Y132846D01*
X55876Y132493D01*
X56500Y132369D01*
X57084D01*
X57090Y132354D01*
X57613Y131672D01*
X58295Y131149D01*
X59089Y130820D01*
X59941Y130708D01*
X61122D01*
X61974Y130820D01*
X62768Y131149D01*
X63450Y131672D01*
X63973Y132354D01*
X64302Y133148D01*
X64414Y134000D01*
X64302Y134852D01*
X63973Y135646D01*
X63450Y136328D01*
X63033Y136647D01*
Y137258D01*
X63450Y137578D01*
X63973Y138259D01*
X64302Y139053D01*
X64414Y139906D01*
X64302Y140758D01*
X63973Y141551D01*
X63450Y142233D01*
X63033Y142553D01*
Y143164D01*
X63450Y143483D01*
X63973Y144165D01*
X64302Y144959D01*
X64414Y145811D01*
X64302Y146663D01*
X63973Y147457D01*
X63450Y148139D01*
X63033Y148458D01*
Y149069D01*
X63450Y149389D01*
X63973Y150071D01*
X64302Y150865D01*
X64414Y151716D01*
X64302Y152569D01*
X63973Y153363D01*
X63450Y154044D01*
X63033Y154364D01*
Y154975D01*
X63450Y155294D01*
X63973Y155976D01*
X64302Y156770D01*
X64414Y157622D01*
X64302Y158474D01*
X63973Y159268D01*
X63450Y159950D01*
X62768Y160473D01*
X61974Y160802D01*
X61122Y160914D01*
X59941D01*
X59089Y160802D01*
X58295Y160473D01*
X57613Y159950D01*
X57090Y159268D01*
X56761Y158474D01*
X56649Y157622D01*
X56761Y156770D01*
X57090Y155976D01*
X57613Y155294D01*
X58030Y154975D01*
Y154364D01*
X57613Y154044D01*
X57090Y153363D01*
X56761Y152569D01*
X56649Y151716D01*
X56761Y150865D01*
X57090Y150071D01*
X57613Y149389D01*
X58030Y149069D01*
Y148458D01*
X57613Y148139D01*
X57090Y147457D01*
X56761Y146663D01*
X56649Y145811D01*
X56761Y144959D01*
X57090Y144165D01*
X57613Y143483D01*
X58030Y143164D01*
Y142553D01*
X57613Y142233D01*
X57090Y141551D01*
X56761Y140758D01*
X56649Y139906D01*
X56761Y139053D01*
X57090Y138259D01*
X57613Y137578D01*
X58030Y137258D01*
Y136647D01*
X57613Y136328D01*
X57352Y135987D01*
X56853Y135954D01*
X55631Y137176D01*
Y173500D01*
X55507Y174124D01*
X55154Y174653D01*
X54791Y175016D01*
X54619Y175878D01*
X54122Y176622D01*
X53378Y177120D01*
X52500Y177294D01*
D02*
G37*
G36*
X82732Y125370D02*
X80756D01*
Y123000D01*
X82732D01*
Y125370D01*
D02*
G37*
G36*
X79756D02*
X77780D01*
Y123000D01*
X79756D01*
Y125370D01*
D02*
G37*
G36*
X82732Y122000D02*
X80756D01*
Y119630D01*
X82732D01*
Y122000D01*
D02*
G37*
G36*
X79756D02*
X77780D01*
Y119630D01*
X79756D01*
Y122000D01*
D02*
G37*
G36*
X150232Y242370D02*
X148256D01*
Y240000D01*
X150232D01*
Y242370D01*
D02*
G37*
G36*
X147256D02*
X145280D01*
Y240000D01*
X147256D01*
Y242370D01*
D02*
G37*
G36*
X150232Y239000D02*
X148256D01*
Y236630D01*
X150232D01*
Y239000D01*
D02*
G37*
G36*
X147256D02*
X145280D01*
Y236630D01*
X147256D01*
Y239000D01*
D02*
G37*
G36*
X178000Y251542D02*
X175882Y251375D01*
X173815Y250879D01*
X171852Y250066D01*
X170040Y248955D01*
X168424Y247575D01*
X167044Y245960D01*
X165934Y244148D01*
X165121Y242185D01*
X164625Y240118D01*
X164458Y238000D01*
X164625Y235882D01*
X165121Y233815D01*
X165934Y231852D01*
X167044Y230040D01*
X168424Y228425D01*
X170040Y227045D01*
X171852Y225934D01*
X173815Y225121D01*
X175882Y224625D01*
X178000Y224458D01*
X180118Y224625D01*
X182185Y225121D01*
X184148Y225934D01*
X185960Y227045D01*
X187575Y228425D01*
X188955Y230040D01*
X190066Y231852D01*
X190879Y233815D01*
X191375Y235882D01*
X191542Y238000D01*
X191375Y240118D01*
X190879Y242185D01*
X190066Y244148D01*
X188955Y245960D01*
X187575Y247575D01*
X185960Y248955D01*
X184148Y250066D01*
X182185Y250879D01*
X180118Y251375D01*
X178000Y251542D01*
D02*
G37*
G36*
X197500Y222000D02*
X191500D01*
Y218500D01*
X197500D01*
Y222000D01*
D02*
G37*
G36*
Y217500D02*
X191500D01*
Y214000D01*
X197500D01*
Y217500D01*
D02*
G37*
G36*
X10500Y192034D02*
X8500D01*
Y188500D01*
X14469D01*
X14397Y189044D01*
X13994Y190017D01*
X13353Y190853D01*
X12517Y191494D01*
X11544Y191897D01*
X10500Y192034D01*
D02*
G37*
G36*
X14469Y187500D02*
X8500D01*
Y183966D01*
X10500D01*
X11544Y184103D01*
X12517Y184506D01*
X13353Y185147D01*
X13994Y185983D01*
X14397Y186956D01*
X14469Y187500D01*
D02*
G37*
G36*
X10500Y172035D02*
X8500D01*
Y168500D01*
X14469D01*
X14397Y169044D01*
X13994Y170017D01*
X13353Y170853D01*
X12517Y171494D01*
X11544Y171897D01*
X10500Y172035D01*
D02*
G37*
G36*
X14469Y167500D02*
X8500D01*
Y163965D01*
X10500D01*
X11544Y164103D01*
X12517Y164506D01*
X13353Y165147D01*
X13994Y165983D01*
X14397Y166956D01*
X14469Y167500D01*
D02*
G37*
G36*
X166317Y153185D02*
X162500D01*
X158683D01*
X158730Y152833D01*
X159058Y152039D01*
X159582Y151357D01*
X159998Y151038D01*
Y150427D01*
X159582Y150107D01*
X159058Y149425D01*
X158730Y148632D01*
X158617Y147780D01*
X158730Y146927D01*
X159058Y146134D01*
X159582Y145452D01*
X159998Y145132D01*
Y144521D01*
X159582Y144202D01*
X159058Y143520D01*
X158730Y142726D01*
X158617Y141874D01*
X158730Y141022D01*
X159058Y140228D01*
X159582Y139546D01*
X159998Y139227D01*
Y138616D01*
X159582Y138296D01*
X159058Y137615D01*
X158730Y136820D01*
X158617Y135968D01*
X158730Y135117D01*
X159058Y134323D01*
X159582Y133641D01*
X160264Y133118D01*
X161057Y132789D01*
X161909Y132677D01*
X163091D01*
X163943Y132789D01*
X164736Y133118D01*
X165418Y133641D01*
X165942Y134323D01*
X166270Y135117D01*
X166383Y135968D01*
X166270Y136820D01*
X165942Y137615D01*
X165418Y138296D01*
X165002Y138616D01*
Y139227D01*
X165418Y139546D01*
X165942Y140228D01*
X166270Y141022D01*
X166383Y141874D01*
X166270Y142726D01*
X165942Y143520D01*
X165418Y144202D01*
X165002Y144521D01*
Y145132D01*
X165418Y145452D01*
X165942Y146134D01*
X166270Y146927D01*
X166383Y147780D01*
X166270Y148632D01*
X165942Y149425D01*
X165418Y150107D01*
X165002Y150427D01*
Y151038D01*
X165418Y151357D01*
X165942Y152039D01*
X166270Y152833D01*
X166317Y153185D01*
D02*
G37*
G36*
X159500Y125294D02*
X158622Y125119D01*
X157878Y124622D01*
X157380Y123878D01*
X157206Y123000D01*
X157380Y122122D01*
X157878Y121378D01*
X158622Y120880D01*
X159500Y120706D01*
X160378Y120880D01*
X160665Y121073D01*
X163748D01*
X163878Y120878D01*
X164622Y120380D01*
X165500Y120206D01*
X166378Y120380D01*
X167122Y120878D01*
X167620Y121622D01*
X167794Y122500D01*
X167620Y123378D01*
X167122Y124122D01*
X166378Y124619D01*
X165500Y124794D01*
X164622Y124619D01*
X163878Y124122D01*
X163748Y123927D01*
X161586D01*
X161122Y124622D01*
X160378Y125119D01*
X159500Y125294D01*
D02*
G37*
G36*
X168500Y116294D02*
X167622Y116120D01*
X166878Y115622D01*
X166381Y114878D01*
X166206Y114000D01*
X166335Y113353D01*
X159730Y106748D01*
X159500Y106794D01*
X158622Y106620D01*
X157878Y106122D01*
X157380Y105378D01*
X157206Y104500D01*
X157380Y103622D01*
X157878Y102878D01*
X158622Y102381D01*
X159247Y102256D01*
X159706Y102000D01*
X159880Y101122D01*
X160378Y100378D01*
X161122Y99881D01*
X162000Y99706D01*
X162878Y99881D01*
X163622Y100378D01*
X164120Y101122D01*
X164294Y102000D01*
X164248Y102230D01*
X172009Y109991D01*
X172009Y109991D01*
X172319Y110454D01*
X172324Y110478D01*
X172780Y110783D01*
X173278Y111527D01*
X173452Y112405D01*
X173278Y113283D01*
X172780Y114027D01*
X172036Y114524D01*
X171158Y114699D01*
X170674Y114603D01*
X170619Y114878D01*
X170122Y115622D01*
X169378Y116120D01*
X168500Y116294D01*
D02*
G37*
G36*
X118405Y99694D02*
X117553Y99581D01*
X116760Y99252D01*
X116078Y98729D01*
X115758Y98313D01*
X115147D01*
X114828Y98729D01*
X114146Y99252D01*
X113352Y99581D01*
X112500Y99694D01*
X111648Y99581D01*
X110854Y99252D01*
X110172Y98729D01*
X109853Y98313D01*
X109242D01*
X108922Y98729D01*
X108240Y99252D01*
X107447Y99581D01*
X106595Y99694D01*
X105743Y99581D01*
X104948Y99252D01*
X104267Y98729D01*
X103947Y98313D01*
X103336D01*
X103017Y98729D01*
X102335Y99252D01*
X101541Y99581D01*
X100689Y99694D01*
X99837Y99581D01*
X99043Y99252D01*
X98361Y98729D01*
X97838Y98048D01*
X97509Y97254D01*
X97397Y96402D01*
Y95221D01*
X97509Y94368D01*
X97838Y93575D01*
X98361Y92893D01*
X99043Y92370D01*
X99837Y92041D01*
X100689Y91928D01*
X101541Y92041D01*
X102335Y92370D01*
X103017Y92893D01*
X103336Y93309D01*
X103947D01*
X104267Y92893D01*
X104948Y92370D01*
X105743Y92041D01*
X106595Y91928D01*
X107447Y92041D01*
X108240Y92370D01*
X108922Y92893D01*
X109242Y93309D01*
X109853D01*
X110172Y92893D01*
X110854Y92370D01*
X111648Y92041D01*
X112500Y91928D01*
X113352Y92041D01*
X114146Y92370D01*
X114828Y92893D01*
X115147Y93309D01*
X115758D01*
X116078Y92893D01*
X116760Y92370D01*
X117553Y92041D01*
X118405Y91928D01*
X119257Y92041D01*
X120052Y92370D01*
X120733Y92893D01*
X121053Y93309D01*
X121664D01*
X121983Y92893D01*
X122665Y92370D01*
X123459Y92041D01*
X123811Y91994D01*
Y95811D01*
Y99628D01*
X123459Y99581D01*
X122665Y99252D01*
X121983Y98729D01*
X121664Y98313D01*
X121053D01*
X120733Y98729D01*
X120052Y99252D01*
X119257Y99581D01*
X118405Y99694D01*
D02*
G37*
G36*
X138870Y99965D02*
X136500D01*
Y97988D01*
X138870D01*
Y99965D01*
D02*
G37*
G36*
X135500D02*
X133130D01*
Y97988D01*
X135500D01*
Y99965D01*
D02*
G37*
G36*
X124811Y99628D02*
Y96311D01*
X127603D01*
Y96402D01*
X127491Y97254D01*
X127162Y98048D01*
X126639Y98729D01*
X125957Y99252D01*
X125163Y99581D01*
X124811Y99628D01*
D02*
G37*
G36*
X138870Y96988D02*
X136500D01*
Y95012D01*
X138870D01*
Y96988D01*
D02*
G37*
G36*
X135500D02*
X133130D01*
Y95012D01*
X135500D01*
Y96988D01*
D02*
G37*
G36*
X154000Y100294D02*
X153122Y100119D01*
X152378Y99622D01*
X151881Y98878D01*
X151706Y98000D01*
X151881Y97122D01*
X152378Y96378D01*
X153122Y95881D01*
X154000Y95706D01*
X154230Y95752D01*
X154491Y95491D01*
X154954Y95181D01*
X155500Y95073D01*
X155500Y95073D01*
X161248D01*
X161378Y94878D01*
X162122Y94381D01*
X163000Y94206D01*
X163878Y94381D01*
X164622Y94878D01*
X165120Y95622D01*
X165294Y96500D01*
X165120Y97378D01*
X164622Y98122D01*
X163878Y98619D01*
X163000Y98794D01*
X162122Y98619D01*
X161378Y98122D01*
X161248Y97927D01*
X156354D01*
X156294Y98000D01*
X156120Y98878D01*
X155622Y99622D01*
X154878Y100119D01*
X154000Y100294D01*
D02*
G37*
G36*
X127603Y95311D02*
X124811D01*
Y91994D01*
X125163Y92041D01*
X125957Y92370D01*
X126639Y92893D01*
X127162Y93575D01*
X127491Y94368D01*
X127603Y95221D01*
Y95311D01*
D02*
G37*
G36*
X10500Y82034D02*
X8500D01*
Y78500D01*
X14469D01*
X14397Y79044D01*
X13994Y80017D01*
X13353Y80853D01*
X12517Y81494D01*
X11544Y81897D01*
X10500Y82034D01*
D02*
G37*
G36*
X14469Y77500D02*
X8500D01*
Y73966D01*
X10500D01*
X11544Y74103D01*
X12517Y74506D01*
X13353Y75147D01*
X13994Y75983D01*
X14397Y76956D01*
X14469Y77500D01*
D02*
G37*
G36*
X47000Y76294D02*
X46122Y76119D01*
X45378Y75622D01*
X44881Y74878D01*
X44706Y74000D01*
X44782Y73617D01*
X44332Y73316D01*
X43878Y73619D01*
X43000Y73794D01*
X42122Y73619D01*
X41378Y73122D01*
X40881Y72378D01*
X40706Y71500D01*
X40881Y70622D01*
X41378Y69878D01*
X42122Y69381D01*
X43000Y69206D01*
X43230Y69252D01*
X48970Y63512D01*
X48880Y63378D01*
X48706Y62500D01*
X48880Y61622D01*
X49378Y60878D01*
X50122Y60381D01*
X51000Y60206D01*
X51878Y60381D01*
X52622Y60878D01*
X53119Y61622D01*
X53294Y62500D01*
X53119Y63378D01*
X52622Y64122D01*
X51942Y64577D01*
X45248Y71270D01*
X45294Y71500D01*
X45218Y71883D01*
X45668Y72184D01*
X46122Y71881D01*
X47000Y71706D01*
X47230Y71752D01*
X59923Y59058D01*
X60378Y58378D01*
X61122Y57881D01*
X62000Y57706D01*
X62878Y57881D01*
X63622Y58378D01*
X64119Y59122D01*
X64294Y60000D01*
X64119Y60878D01*
X63622Y61622D01*
X62878Y62119D01*
X62000Y62294D01*
X61122Y62119D01*
X60988Y62030D01*
X49248Y73770D01*
X49294Y74000D01*
X49119Y74878D01*
X48622Y75622D01*
X47878Y76119D01*
X47000Y76294D01*
D02*
G37*
G36*
X184870Y73220D02*
X182500D01*
Y71244D01*
X184870D01*
Y73220D01*
D02*
G37*
G36*
X181500D02*
X179130D01*
Y71244D01*
X181500D01*
Y73220D01*
D02*
G37*
G36*
X197500Y72035D02*
X195500D01*
X194456Y71897D01*
X193483Y71494D01*
X192647Y70853D01*
X192006Y70017D01*
X191603Y69044D01*
X191531Y68500D01*
X197500D01*
Y72035D01*
D02*
G37*
G36*
X10500D02*
X8500D01*
Y68500D01*
X14469D01*
X14397Y69044D01*
X13994Y70017D01*
X13353Y70853D01*
X12517Y71494D01*
X11544Y71897D01*
X10500Y72035D01*
D02*
G37*
G36*
X184870Y70244D02*
X182500D01*
Y68268D01*
X184870D01*
Y70244D01*
D02*
G37*
G36*
X181500D02*
X179130D01*
Y68268D01*
X181500D01*
Y70244D01*
D02*
G37*
G36*
X151500Y68517D02*
Y64500D01*
X155517D01*
X155426Y65186D01*
X154969Y66291D01*
X154240Y67240D01*
X153291Y67969D01*
X152186Y68426D01*
X151500Y68517D01*
D02*
G37*
G36*
X150500D02*
X149814Y68426D01*
X148709Y67969D01*
X147760Y67240D01*
X147031Y66291D01*
X146574Y65186D01*
X146483Y64500D01*
X150500D01*
Y68517D01*
D02*
G37*
G36*
X197500Y67500D02*
X191531D01*
X191603Y66956D01*
X192006Y65983D01*
X192647Y65147D01*
X193483Y64506D01*
X194456Y64103D01*
X195500Y63965D01*
X197500D01*
Y67500D01*
D02*
G37*
G36*
X14469D02*
X8500D01*
Y63965D01*
X10500D01*
X11544Y64103D01*
X12517Y64506D01*
X13353Y65147D01*
X13994Y65983D01*
X14397Y66956D01*
X14469Y67500D01*
D02*
G37*
G36*
X155517Y63500D02*
X151500D01*
Y59483D01*
X152186Y59574D01*
X153291Y60031D01*
X154240Y60760D01*
X154969Y61709D01*
X155426Y62814D01*
X155517Y63500D01*
D02*
G37*
G36*
X150500D02*
X146483D01*
X146574Y62814D01*
X147031Y61709D01*
X147760Y60760D01*
X148709Y60031D01*
X149814Y59574D01*
X150500Y59483D01*
Y63500D01*
D02*
G37*
G36*
X197500Y62034D02*
X195500D01*
X194456Y61897D01*
X193483Y61494D01*
X192647Y60853D01*
X192006Y60017D01*
X191603Y59044D01*
X191531Y58500D01*
X197500D01*
Y62034D01*
D02*
G37*
G36*
Y57500D02*
X191531D01*
X191603Y56956D01*
X192006Y55983D01*
X192647Y55147D01*
X193483Y54506D01*
X194456Y54103D01*
X195500Y53966D01*
X197500D01*
Y57500D01*
D02*
G37*
G36*
X135543Y58543D02*
X126457D01*
Y49457D01*
X135543D01*
Y58543D01*
D02*
G37*
G36*
X151000Y58583D02*
X149814Y58426D01*
X148709Y57969D01*
X147760Y57240D01*
X147031Y56291D01*
X146574Y55186D01*
X146417Y54000D01*
X146574Y52814D01*
X147031Y51709D01*
X147760Y50760D01*
X148709Y50031D01*
X149814Y49574D01*
X151000Y49417D01*
X152186Y49574D01*
X153291Y50031D01*
X154240Y50760D01*
X154969Y51709D01*
X155426Y52814D01*
X155582Y54000D01*
X155426Y55186D01*
X154969Y56291D01*
X154240Y57240D01*
X153291Y57969D01*
X152186Y58426D01*
X151000Y58583D01*
D02*
G37*
G36*
X141000D02*
X139814Y58426D01*
X138709Y57969D01*
X137760Y57240D01*
X137031Y56291D01*
X136574Y55186D01*
X136417Y54000D01*
X136574Y52814D01*
X137031Y51709D01*
X137760Y50760D01*
X138709Y50031D01*
X139814Y49574D01*
X141000Y49417D01*
X142186Y49574D01*
X143291Y50031D01*
X144240Y50760D01*
X144969Y51709D01*
X145426Y52814D01*
X145582Y54000D01*
X145426Y55186D01*
X144969Y56291D01*
X144240Y57240D01*
X143291Y57969D01*
X142186Y58426D01*
X141000Y58583D01*
D02*
G37*
G36*
X98000Y51542D02*
X95882Y51375D01*
X93815Y50879D01*
X91852Y50066D01*
X90040Y48956D01*
X88424Y47576D01*
X87045Y45960D01*
X85934Y44148D01*
X85121Y42185D01*
X84625Y40118D01*
X84458Y38000D01*
X84625Y35882D01*
X85121Y33815D01*
X85934Y31852D01*
X87045Y30040D01*
X88424Y28425D01*
X90040Y27044D01*
X91852Y25934D01*
X93815Y25121D01*
X95882Y24625D01*
X98000Y24458D01*
X100118Y24625D01*
X102185Y25121D01*
X104148Y25934D01*
X105960Y27044D01*
X107576Y28425D01*
X108956Y30040D01*
X110066Y31852D01*
X110879Y33815D01*
X111375Y35882D01*
X111458Y36935D01*
X111989Y37308D01*
X112500Y37206D01*
X112821Y37270D01*
X112954Y37181D01*
X113500Y37073D01*
X116248D01*
X116378Y36878D01*
X117122Y36380D01*
X118000Y36206D01*
X118878Y36380D01*
X119622Y36878D01*
X120120Y37622D01*
X120294Y38500D01*
X120120Y39378D01*
X119622Y40122D01*
X118878Y40620D01*
X118000Y40794D01*
X117122Y40620D01*
X116378Y40122D01*
X116248Y39927D01*
X114709D01*
X114620Y40378D01*
X114122Y41122D01*
X113378Y41620D01*
X112500Y41794D01*
X111622Y41620D01*
X111462Y41513D01*
X110997Y41695D01*
X110879Y42185D01*
X110066Y44148D01*
X108956Y45960D01*
X107576Y47576D01*
X105960Y48956D01*
X104148Y50066D01*
X102185Y50879D01*
X100118Y51375D01*
X98000Y51542D01*
D02*
G37*
G36*
X127500Y30146D02*
X126474D01*
X125911Y30034D01*
X125434Y29715D01*
X125115Y29238D01*
X125003Y28675D01*
Y27847D01*
X127500D01*
Y30146D01*
D02*
G37*
G36*
X116026D02*
X115000D01*
Y27847D01*
X117497D01*
Y28675D01*
X117385Y29238D01*
X117066Y29715D01*
X116589Y30034D01*
X116026Y30146D01*
D02*
G37*
G36*
X114000D02*
X112974D01*
X112411Y30034D01*
X111934Y29715D01*
X111615Y29238D01*
X111503Y28675D01*
Y27847D01*
X114000D01*
Y30146D01*
D02*
G37*
G36*
X83000Y21794D02*
X82122Y21620D01*
X81392Y21131D01*
X69608D01*
X68878Y21620D01*
X68000Y21794D01*
X67122Y21620D01*
X66378Y21122D01*
X65881Y20378D01*
X65706Y19500D01*
X65881Y18622D01*
X66378Y17878D01*
X67122Y17380D01*
X68000Y17206D01*
X68878Y17380D01*
X69608Y17869D01*
X81392D01*
X82122Y17380D01*
X83000Y17206D01*
X83878Y17380D01*
X84622Y17878D01*
X85119Y18622D01*
X85294Y19500D01*
X85119Y20378D01*
X84622Y21122D01*
X83878Y21620D01*
X83000Y21794D01*
D02*
G37*
G36*
X98500Y14469D02*
Y8500D01*
X102034D01*
Y10500D01*
X101897Y11544D01*
X101494Y12517D01*
X100853Y13353D01*
X100017Y13994D01*
X99044Y14397D01*
X98500Y14469D01*
D02*
G37*
G36*
X88500D02*
Y8500D01*
X92035D01*
Y10500D01*
X91897Y11544D01*
X91494Y12517D01*
X90853Y13353D01*
X90017Y13994D01*
X89044Y14397D01*
X88500Y14469D01*
D02*
G37*
G36*
X12000Y14500D02*
X8500D01*
Y8500D01*
X12000D01*
Y14500D01*
D02*
G37*
G36*
X7500D02*
X4000D01*
Y8500D01*
X7500D01*
Y14500D01*
D02*
G37*
G36*
X97500Y14469D02*
X96956Y14397D01*
X95983Y13994D01*
X95147Y13353D01*
X94506Y12517D01*
X94103Y11544D01*
X93966Y10500D01*
Y8500D01*
X97500D01*
Y14469D01*
D02*
G37*
G36*
X87500D02*
X86956Y14397D01*
X85983Y13994D01*
X85147Y13353D01*
X84506Y12517D01*
X84103Y11544D01*
X83965Y10500D01*
Y8500D01*
X87500D01*
Y14469D01*
D02*
G37*
G36*
X197500Y192034D02*
X195500D01*
X194456Y191897D01*
X193483Y191494D01*
X192647Y190853D01*
X192006Y190017D01*
X191603Y189044D01*
X191531Y188500D01*
X197500D01*
Y192034D01*
D02*
G37*
G36*
X187870Y186732D02*
X185500D01*
Y184756D01*
X187870D01*
Y186732D01*
D02*
G37*
G36*
X184500D02*
X182130D01*
Y184756D01*
X184500D01*
Y186732D01*
D02*
G37*
G36*
X178870D02*
X176500D01*
Y184756D01*
X178870D01*
Y186732D01*
D02*
G37*
G36*
X175500D02*
X173130D01*
Y184756D01*
X175500D01*
Y186732D01*
D02*
G37*
G36*
X197500Y187500D02*
X191531D01*
X191603Y186956D01*
X192006Y185983D01*
X192647Y185147D01*
X193483Y184506D01*
X194456Y184103D01*
X195500Y183966D01*
X197500D01*
Y187500D01*
D02*
G37*
G36*
X187870Y183756D02*
X185500D01*
Y181780D01*
X187870D01*
Y183756D01*
D02*
G37*
G36*
X184500D02*
X182130D01*
Y181780D01*
X184500D01*
Y183756D01*
D02*
G37*
G36*
X178870D02*
X176500D01*
Y181780D01*
X178870D01*
Y183756D01*
D02*
G37*
G36*
X175500D02*
X173130D01*
Y181780D01*
X175500D01*
Y183756D01*
D02*
G37*
G36*
X160870Y177732D02*
X158500D01*
Y175756D01*
X160870D01*
Y177732D01*
D02*
G37*
G36*
X157500D02*
X155130D01*
Y175756D01*
X157500D01*
Y177732D01*
D02*
G37*
G36*
X160870Y174756D02*
X158500D01*
Y172780D01*
X160870D01*
Y174756D01*
D02*
G37*
G36*
X157500D02*
X155130D01*
Y172780D01*
X157500D01*
Y174756D01*
D02*
G37*
G36*
X197500Y162034D02*
X195500D01*
X194456Y161897D01*
X193483Y161494D01*
X192647Y160853D01*
X192006Y160017D01*
X191603Y159044D01*
X191531Y158500D01*
X197500D01*
Y162034D01*
D02*
G37*
G36*
Y157500D02*
X191531D01*
X191603Y156956D01*
X192006Y155983D01*
X192647Y155147D01*
X193483Y154506D01*
X194456Y154103D01*
X195500Y153965D01*
X197500D01*
Y157500D01*
D02*
G37*
G36*
Y142034D02*
X195500D01*
X194456Y141897D01*
X193483Y141494D01*
X192647Y140853D01*
X192006Y140017D01*
X191603Y139044D01*
X191531Y138500D01*
X197500D01*
Y142034D01*
D02*
G37*
G36*
Y137500D02*
X191531D01*
X191603Y136956D01*
X192006Y135983D01*
X192647Y135147D01*
X193483Y134506D01*
X194456Y134103D01*
X195500Y133966D01*
X197500D01*
Y137500D01*
D02*
G37*
G36*
Y132035D02*
X195500D01*
X194456Y131897D01*
X193483Y131494D01*
X192647Y130853D01*
X192006Y130017D01*
X191603Y129044D01*
X191531Y128500D01*
X197500D01*
Y132035D01*
D02*
G37*
G36*
Y127500D02*
X191531D01*
X191603Y126956D01*
X192006Y125983D01*
X192647Y125147D01*
X193483Y124506D01*
X194456Y124103D01*
X195500Y123966D01*
X197500D01*
Y127500D01*
D02*
G37*
%LPD*%
D11*
X135500Y194000D02*
X136500D01*
X125500Y204000D02*
X135500Y194000D01*
X136500Y138500D02*
X137906Y139906D01*
X142500D01*
X136500Y124000D02*
Y138500D01*
X134000Y121500D02*
X136500Y124000D01*
X106000Y204000D02*
X125500D01*
X104626Y202626D02*
X106000Y204000D01*
X104626Y197780D02*
Y202626D01*
X133153Y74384D02*
Y80000D01*
X131000Y72231D02*
X133153Y74384D01*
X131000Y64000D02*
Y72231D01*
X128000Y8000D02*
Y20654D01*
X42346Y121653D02*
X50000Y114000D01*
X88350Y118350D02*
X91500Y121500D01*
X50000Y114000D02*
X80500D01*
X84850Y118350D02*
X88350D01*
X91500Y121500D02*
X134000D01*
X80500Y114000D02*
X84850Y118350D01*
X42346Y121653D02*
Y197500D01*
X93000Y167000D02*
G03*
X91000Y165000I0J-2000D01*
G01*
Y128000D02*
G03*
X93000Y126000I2000J0D01*
G01*
X129000D02*
G03*
X132000Y129000I0J3000D01*
G01*
Y164000D02*
G03*
X129000Y167000I-3000J0D01*
G01*
X5000Y254000D02*
G03*
X0Y249000I0J-5000D01*
G01*
Y5000D02*
G03*
X5000Y0I5000J0D01*
G01*
X201000D02*
G03*
X206000Y5000I0J5000D01*
G01*
Y249000D02*
G03*
X201000Y254000I-5000J0D01*
G01*
X91000Y128000D02*
Y165000D01*
X93000Y126000D02*
X129000D01*
X132000Y129000D02*
Y164000D01*
X93000Y167000D02*
X129000D01*
X5000Y254000D02*
X16000D01*
X0Y5000D02*
Y249000D01*
X5000Y0D02*
X201000D01*
X206000Y5000D02*
Y249000D01*
X16000Y254000D02*
X201000D01*
D13*
X68000Y19500D02*
X83000D01*
X62000Y28000D02*
X62500Y28500D01*
X8000Y28000D02*
X62000D01*
X139847Y80000D02*
X143500D01*
X146000Y82500D01*
X152000D01*
X181628D02*
X182000Y82128D01*
X152000Y82500D02*
X181628D01*
X153654Y155654D02*
Y156217D01*
X158000Y160563D01*
Y167500D01*
X152500Y155654D02*
X153654D01*
X74744Y122500D02*
Y128791D01*
X114000Y222500D02*
X117500Y226000D01*
X114000Y216000D02*
Y222500D01*
X117500Y226000D02*
X120757D01*
X127244D02*
X134000D01*
X139847Y73654D02*
X141000Y72500D01*
Y64000D02*
Y72500D01*
X139847Y73654D02*
Y80000D01*
X96752Y187189D02*
Y187779D01*
X52500Y175000D02*
X54000Y173500D01*
Y136500D02*
Y173500D01*
Y136500D02*
X56500Y134000D01*
X60532D01*
X31000Y198000D02*
X31500Y197500D01*
X35653D01*
X8000Y198000D02*
X31000D01*
D15*
X146000Y108000D02*
Y112001D01*
X147258Y113259D01*
X131154Y20654D02*
X133500Y23000D01*
X128000Y20654D02*
X131154D01*
X133500Y23000D02*
Y27500D01*
X147258Y113259D02*
Y127227D01*
X108000Y19040D02*
X109000Y20040D01*
X114347Y20500D02*
X114500Y20654D01*
X109460Y20500D02*
X114347D01*
X109000Y20040D02*
X109460Y20500D01*
X108000Y14723D02*
Y19040D01*
X108500Y20540D02*
X109000Y20040D01*
X108000Y8000D02*
Y8373D01*
X108500Y20540D02*
Y21000D01*
X108000Y8373D02*
Y14723D01*
X171000Y111000D02*
Y112247D01*
X160000Y122500D02*
X165500D01*
X159500Y104500D02*
X168500Y113500D01*
X155500Y96500D02*
X163000D01*
X162000Y102000D02*
X171000Y111000D01*
X159500Y123000D02*
X160000Y122500D01*
X171000Y112247D02*
X171158Y112405D01*
X147258Y127227D02*
X147515Y127485D01*
X47500Y53000D02*
X67500D01*
X42500Y58000D02*
X47500Y53000D01*
X8000Y58000D02*
X42500D01*
X108373Y8373D02*
Y14723D01*
X108000Y8000D02*
X108373Y8373D01*
X61000Y60000D02*
X62000D01*
X47000Y74000D02*
X61000Y60000D01*
X43000Y71500D02*
X51000Y63500D01*
Y62500D02*
Y63500D01*
X46000Y110500D02*
Y114000D01*
X43500Y116500D02*
X46000Y114000D01*
X112500Y39500D02*
X113500Y38500D01*
X118000D01*
X83500Y112500D02*
X87000Y116000D01*
X39000Y107000D02*
Y115000D01*
X80250Y100250D02*
X89250D01*
X77000Y97000D02*
X80250Y100250D01*
X77000Y94000D02*
Y97000D01*
X61000Y95540D02*
X61583Y94956D01*
Y94719D02*
X62052Y94250D01*
X61000Y95540D02*
Y96000D01*
X61583Y94719D02*
Y94956D01*
X62052Y94250D02*
X70932D01*
X70000Y96500D02*
X83500Y110000D01*
Y112500D01*
X70932Y94250D02*
X87341Y110659D01*
X87341D01*
X67000Y96500D02*
X70000D01*
X89250Y100250D02*
X89500Y100500D01*
X154000Y98000D02*
X155500Y96500D01*
X168500Y113500D02*
Y114000D01*
X35250Y115250D02*
Y145250D01*
Y115250D02*
X35500Y115000D01*
X35000Y145500D02*
X35250Y145250D01*
X32000Y160540D02*
X33000Y161540D01*
X32000Y108500D02*
Y160540D01*
X33000Y161540D02*
Y162000D01*
X27000Y108500D02*
Y145000D01*
X37500Y105500D02*
X39000Y107000D01*
X30169Y105331D02*
X30831D01*
X31000Y105500D01*
X37500D01*
X27000Y108500D02*
X30169Y105331D01*
X21500Y105960D02*
X22500Y106960D01*
X21500Y105500D02*
Y105960D01*
X22500Y106960D02*
Y143000D01*
X61000Y166100D02*
Y172000D01*
D17*
X84000Y246000D02*
D03*
X94000D02*
D03*
X104000D02*
D03*
X114000D02*
D03*
X124000D02*
D03*
X134000D02*
D03*
Y216000D02*
D03*
X124000D02*
D03*
X114000D02*
D03*
X104000D02*
D03*
X94000D02*
D03*
D18*
X84000D02*
D03*
D29*
X94000Y246000D02*
X94500Y245500D01*
Y228500D02*
Y245500D01*
X97580Y228336D02*
X97745Y228500D01*
X84000Y223500D02*
X96409D01*
X97580Y224672D01*
Y228336D01*
X75172Y224500D02*
X83000D01*
X74000Y204743D02*
Y223328D01*
X75172Y224500D01*
X83000D02*
X84000Y223500D01*
X84589Y241411D02*
Y245411D01*
X84000Y246000D02*
X84589Y245411D01*
Y241411D02*
X91257Y234743D01*
Y228500D02*
Y234743D01*
X107431Y239431D02*
X112106Y234756D01*
X106362Y240500D02*
X107431Y239431D01*
X107426D02*
X107431D01*
X97745Y228500D02*
Y229750D01*
X107426Y239431D01*
X84000Y246000D02*
X84589Y246589D01*
X104000Y246000D02*
X104589Y245411D01*
Y242083D02*
Y245411D01*
Y242083D02*
X106172Y240500D01*
X106362D01*
X112106Y234756D02*
X112500D01*
X136000Y93000D02*
Y97488D01*
X135250Y106750D02*
X141500Y113000D01*
X133553Y105053D02*
X135250Y106750D01*
Y106250D02*
Y106750D01*
Y106250D02*
X136000Y105500D01*
Y103000D02*
Y105500D01*
X182000Y65500D02*
X182500Y65000D01*
X182000Y65500D02*
Y70744D01*
X189000Y188000D02*
X198000D01*
X186172D02*
X189000D01*
X176000D02*
X186172D01*
X185000Y184256D02*
Y186828D01*
X186172Y188000D01*
X176000Y184256D02*
Y188000D01*
X158000Y175256D02*
Y179500D01*
X121256Y234756D02*
X124000Y237500D01*
X124539Y210461D02*
X131653Y203346D01*
X163000D01*
X124539Y210461D02*
Y215461D01*
X124000Y216000D02*
X124539Y215461D01*
X163000Y203346D02*
X169346D01*
X132795Y105811D02*
X133553Y105053D01*
X122343Y197780D02*
X127720D01*
X147500Y178000D01*
Y131500D02*
Y178000D01*
X141500Y125500D02*
X147500Y131500D01*
X141500Y113000D02*
Y125500D01*
X126279Y105811D02*
X132795D01*
X124000Y246000D02*
Y246833D01*
Y237500D02*
Y246000D01*
X112500Y234756D02*
X121256D01*
X91000Y212167D02*
X94000Y215167D01*
Y216000D01*
X91000Y211000D02*
Y212167D01*
X88500Y208500D02*
X91000Y211000D01*
X88500Y205000D02*
Y208500D01*
Y199000D02*
Y201757D01*
X89720Y197780D02*
X98721D01*
X88500Y199000D02*
X89720Y197780D01*
X74000Y197000D02*
X75500Y195500D01*
X74000Y197000D02*
Y201500D01*
X75500Y195500D02*
X84000D01*
X85500Y194000D01*
Y188000D02*
Y194000D01*
X90750Y186250D02*
X92279Y187779D01*
X88500Y184000D02*
X90750Y186250D01*
X89000Y188000D02*
X90750Y186250D01*
X85500Y188000D02*
X89000D01*
X74744Y128791D02*
X75035Y128500D01*
X71503Y132032D02*
X74744Y128791D01*
X92279Y187779D02*
X96752D01*
X88500Y131172D02*
Y184000D01*
X85828Y128500D02*
X88500Y131172D01*
X75035Y128500D02*
X85828D01*
X70531Y132032D02*
X71503D01*
X124000Y216000D02*
Y226000D01*
X109846Y27347D02*
X114500D01*
X128000D01*
Y32000D01*
X90000Y18500D02*
X98000D01*
X88000Y16500D02*
X90000Y18500D01*
X88000Y8000D02*
Y16500D01*
X105500Y23000D02*
X109846Y27347D01*
X102500Y23000D02*
X105500D01*
X98000Y18500D02*
X102500Y23000D01*
X98000Y8000D02*
Y18500D01*
X74000Y188000D02*
X79988D01*
X170653Y196653D02*
X172000Y198000D01*
X198000D01*
X163000Y196653D02*
X170653D01*
X169346Y203346D02*
X174000Y208000D01*
X198000D01*
X80256Y122500D02*
X86000D01*
D30*
X139372Y239500D02*
X142244D01*
X136500D02*
X139372D01*
Y248628D01*
X137500Y250500D02*
X139372Y248628D01*
X115958Y250500D02*
X137500D01*
X114493Y246493D02*
Y249036D01*
X115958Y250500D01*
X114000Y246000D02*
X114493Y246493D01*
X134000Y237000D02*
X136500Y239500D01*
X134000Y226000D02*
Y237000D01*
X182000Y82128D02*
Y88000D01*
Y76256D02*
Y82128D01*
Y88000D02*
Y110500D01*
Y88000D02*
X198000D01*
X185000Y178000D02*
X198000D01*
X168000D02*
X185000D01*
Y178744D01*
Y171000D02*
Y178000D01*
Y171000D02*
X188000Y168000D01*
X198000D01*
X142000Y189500D02*
Y194000D01*
X158000Y167500D02*
X173000D01*
X154500D02*
X158000D01*
X142000Y189500D02*
X151500Y180000D01*
Y170500D02*
Y180000D01*
Y170500D02*
X154500Y167500D01*
X134000Y216000D02*
Y226000D01*
X173000Y167500D02*
X175500Y165000D01*
Y117000D02*
Y165000D01*
Y117000D02*
X182000Y110500D01*
X163000Y183000D02*
Y196653D01*
Y183000D02*
X168000Y178000D01*
D31*
X112500Y95811D02*
D03*
X124311D02*
D03*
X118405D02*
D03*
X100689D02*
D03*
X106595D02*
D03*
X108563Y105811D02*
D03*
X98721Y115811D02*
D03*
X114469Y105811D02*
D03*
X110531Y115811D02*
D03*
X96752Y105811D02*
D03*
X102657D02*
D03*
X104626Y115811D02*
D03*
X116437D02*
D03*
X120374Y105811D02*
D03*
X126279D02*
D03*
X122343Y115811D02*
D03*
X126279Y187779D02*
D03*
X124311Y177779D02*
D03*
X98721Y197780D02*
D03*
X122343D02*
D03*
X106595Y177779D02*
D03*
X114469Y187779D02*
D03*
X116437Y197780D02*
D03*
X110531D02*
D03*
X104626D02*
D03*
X120374Y187779D02*
D03*
X118405Y177779D02*
D03*
X112500D02*
D03*
X108563Y187779D02*
D03*
X102657D02*
D03*
X100689Y177779D02*
D03*
X96752Y187779D02*
D03*
D32*
X162500Y159591D02*
D03*
Y135968D02*
D03*
X142500Y151716D02*
D03*
X152500Y143842D02*
D03*
X162500Y141874D02*
D03*
Y147780D02*
D03*
Y153685D02*
D03*
X142500Y134000D02*
D03*
X152500Y137937D02*
D03*
X142500Y139906D02*
D03*
Y145811D02*
D03*
X152500Y149748D02*
D03*
Y155654D02*
D03*
X142500Y157622D02*
D03*
X152500Y161559D02*
D03*
Y132032D02*
D03*
X60532Y134000D02*
D03*
Y157622D02*
D03*
X80532Y141874D02*
D03*
X70531Y149748D02*
D03*
X60532Y151716D02*
D03*
Y145811D02*
D03*
Y139906D02*
D03*
X80532Y159591D02*
D03*
X70531Y155654D02*
D03*
X80532Y153685D02*
D03*
Y147780D02*
D03*
X70531Y143842D02*
D03*
Y137937D02*
D03*
X80532Y135968D02*
D03*
X70531Y132032D02*
D03*
Y161559D02*
D03*
D33*
X152500Y187779D02*
D03*
X70531Y105811D02*
D03*
D34*
X151000Y64000D02*
D03*
Y54000D02*
D03*
X141000Y64000D02*
D03*
Y54000D02*
D03*
X131000Y64000D02*
D03*
D35*
Y54000D02*
D03*
D36*
X98000Y38000D02*
D03*
X28000Y238000D02*
D03*
X178000D02*
D03*
D37*
X8000Y218000D02*
D03*
X198000D02*
D03*
D38*
X8000Y208000D02*
D03*
Y198000D02*
D03*
Y188000D02*
D03*
Y178000D02*
D03*
Y168000D02*
D03*
Y158000D02*
D03*
Y148000D02*
D03*
Y138000D02*
D03*
Y128000D02*
D03*
Y118000D02*
D03*
Y108000D02*
D03*
Y98000D02*
D03*
Y88000D02*
D03*
Y78000D02*
D03*
Y68000D02*
D03*
Y58000D02*
D03*
Y48000D02*
D03*
Y38000D02*
D03*
Y28000D02*
D03*
X198000Y208000D02*
D03*
Y198000D02*
D03*
Y188000D02*
D03*
Y178000D02*
D03*
Y168000D02*
D03*
Y158000D02*
D03*
Y148000D02*
D03*
Y138000D02*
D03*
Y128000D02*
D03*
Y118000D02*
D03*
Y108000D02*
D03*
Y98000D02*
D03*
Y88000D02*
D03*
Y78000D02*
D03*
Y68000D02*
D03*
Y58000D02*
D03*
Y48000D02*
D03*
Y38000D02*
D03*
Y28000D02*
D03*
D39*
X8000Y8000D02*
D03*
D40*
X18000D02*
D03*
X28000D02*
D03*
X38000D02*
D03*
X48000D02*
D03*
X58000D02*
D03*
X68000D02*
D03*
X78000D02*
D03*
X88000D02*
D03*
X98000D02*
D03*
X108000D02*
D03*
X118000D02*
D03*
X128000D02*
D03*
X138000D02*
D03*
X148000D02*
D03*
X158000D02*
D03*
X168000D02*
D03*
X178000D02*
D03*
X188000D02*
D03*
X198000D02*
D03*
D41*
X98500Y220000D02*
D03*
X198500Y240000D02*
D03*
X193500Y230000D02*
D03*
X188500Y220000D02*
D03*
Y140000D02*
D03*
Y100000D02*
D03*
Y80000D02*
D03*
Y60000D02*
D03*
X173500Y190000D02*
D03*
X163500Y230000D02*
D03*
Y210000D02*
D03*
X158500Y240000D02*
D03*
X153500Y210000D02*
D03*
X148500Y220000D02*
D03*
X143500Y170000D02*
D03*
X133500D02*
D03*
Y110000D02*
D03*
X138500Y40000D02*
D03*
X128500Y220000D02*
D03*
X123500Y170000D02*
D03*
Y90000D02*
D03*
X128500Y80000D02*
D03*
Y40000D02*
D03*
X123500Y30000D02*
D03*
X118500Y220000D02*
D03*
X113500Y170000D02*
D03*
X118500Y60000D02*
D03*
X108500Y220000D02*
D03*
X103500Y170000D02*
D03*
X93500Y210000D02*
D03*
Y170000D02*
D03*
X83500Y230000D02*
D03*
Y210000D02*
D03*
X78500Y240000D02*
D03*
X73500Y230000D02*
D03*
X78500Y220000D02*
D03*
Y180000D02*
D03*
X68500Y240000D02*
D03*
X63500Y230000D02*
D03*
X68500Y220000D02*
D03*
X63500Y210000D02*
D03*
Y190000D02*
D03*
X68500Y180000D02*
D03*
X63500Y110000D02*
D03*
X68500Y100000D02*
D03*
X58500Y240000D02*
D03*
X53500Y230000D02*
D03*
X58500Y220000D02*
D03*
X53500Y210000D02*
D03*
X58500Y180000D02*
D03*
X53500Y110000D02*
D03*
X58500Y100000D02*
D03*
X53500Y90000D02*
D03*
Y50000D02*
D03*
X48500Y240000D02*
D03*
X43500Y230000D02*
D03*
X48500Y220000D02*
D03*
X43500Y210000D02*
D03*
X48500Y200000D02*
D03*
Y180000D02*
D03*
X38500Y220000D02*
D03*
X33500Y210000D02*
D03*
Y190000D02*
D03*
X38500Y180000D02*
D03*
X33500Y170000D02*
D03*
Y90000D02*
D03*
X28500Y220000D02*
D03*
X23500Y210000D02*
D03*
Y190000D02*
D03*
X28500Y180000D02*
D03*
X23500Y170000D02*
D03*
X28500Y80000D02*
D03*
X23500Y70000D02*
D03*
X13500Y230000D02*
D03*
X18500Y220000D02*
D03*
Y180000D02*
D03*
Y80000D02*
D03*
X8500Y240000D02*
D03*
X3500Y230000D02*
D03*
X8500Y20000D02*
D03*
D42*
X146000Y108000D02*
D03*
X133500Y27500D02*
D03*
X136500Y194000D02*
D03*
X136000Y93000D02*
D03*
X68000Y19500D02*
D03*
X83000D02*
D03*
X108500Y21000D02*
D03*
X62500Y28500D02*
D03*
X152000Y82500D02*
D03*
X159500Y123000D02*
D03*
X162000Y102000D02*
D03*
X159500Y104500D02*
D03*
X163000Y96500D02*
D03*
X182500Y65000D02*
D03*
X189000Y188000D02*
D03*
X176000D02*
D03*
X158000Y179500D02*
D03*
X142000Y194000D02*
D03*
Y198500D02*
D03*
X123500Y234500D02*
D03*
X127000D02*
D03*
X147515Y127485D02*
D03*
X67500Y53000D02*
D03*
X128000Y32000D02*
D03*
X62000Y60000D02*
D03*
X51000Y62500D02*
D03*
X47000Y74000D02*
D03*
X46000Y110500D02*
D03*
X112500Y39500D02*
D03*
X118000Y38500D02*
D03*
X87000Y116000D02*
D03*
X39000Y115000D02*
D03*
X43500Y116500D02*
D03*
X43000Y71500D02*
D03*
X87341Y110659D02*
D03*
X67000Y96500D02*
D03*
X77000Y94000D02*
D03*
X61000Y96000D02*
D03*
X89500Y100500D02*
D03*
X74000Y188000D02*
D03*
X52500Y175000D02*
D03*
X86000Y122500D02*
D03*
X154000Y98000D02*
D03*
X171158Y112405D02*
D03*
X168500Y114000D02*
D03*
X165500Y122500D02*
D03*
X27000Y145000D02*
D03*
X35500Y115000D02*
D03*
X21500Y105500D02*
D03*
X32000Y108500D02*
D03*
X33000Y162000D02*
D03*
X61000Y166100D02*
D03*
X35000Y145500D02*
D03*
X22500Y143000D02*
D03*
X61000Y172000D02*
D03*
D43*
X91257Y228500D02*
D03*
X94500D02*
D03*
X97745D02*
D03*
X120757Y226000D02*
D03*
X124000D02*
D03*
X127244D02*
D03*
D44*
X74000Y201500D02*
D03*
Y204743D02*
D03*
X88500Y205000D02*
D03*
Y201757D02*
D03*
D45*
X182000Y76256D02*
D03*
Y70744D02*
D03*
X136000Y97488D02*
D03*
Y103000D02*
D03*
X158000Y169744D02*
D03*
Y175256D02*
D03*
X185000Y178744D02*
D03*
Y184256D02*
D03*
X176000Y178744D02*
D03*
Y184256D02*
D03*
X112500Y234756D02*
D03*
Y229244D02*
D03*
D46*
X128000Y20654D02*
D03*
Y27347D02*
D03*
X114500Y20654D02*
D03*
Y27347D02*
D03*
X163000Y203346D02*
D03*
Y196653D02*
D03*
D47*
X74744Y122500D02*
D03*
X80256D02*
D03*
X147756Y239500D02*
D03*
X142244D02*
D03*
X79988Y188000D02*
D03*
X85500D02*
D03*
D48*
X133153Y80000D02*
D03*
X139847D02*
D03*
X42346Y197500D02*
D03*
X35653D02*
D03*
M02*
