G04*
G04 #@! TF.GenerationSoftware,Altium Limited,Altium Designer,23.0.1 (38)*
G04*
G04 Layer_Color=16711935*
%FSLAX25Y25*%
%MOIN*%
G70*
G04*
G04 #@! TF.SameCoordinates,DFA4F6AB-FAC1-4BA6-B1F9-F2E106443939*
G04*
G04*
G04 #@! TF.FilePolarity,Negative*
G04*
G01*
G75*
%ADD11C,0.01000*%
%ADD17C,0.05079*%
%ADD18R,0.05079X0.05079*%
%ADD19O,0.05328X0.06509*%
%ADD20O,0.06509X0.05328*%
%ADD21C,0.05800*%
%ADD22C,0.07887*%
%ADD23R,0.07887X0.07887*%
%ADD24C,0.25800*%
%ADD25R,0.11800X0.06800*%
%ADD26O,0.11800X0.06800*%
%ADD27R,0.06800X0.11800*%
%ADD28O,0.06800X0.11800*%
%ADD49R,0.10236X0.06299*%
%ADD50R,0.06299X0.07087*%
%ADD51R,0.03300X0.05800*%
%ADD52R,0.05800X0.03300*%
%ADD53R,0.04540X0.03753*%
G04:AMPARAMS|DCode=54|XSize=47.37mil|YSize=43.43mil|CornerRadius=8.43mil|HoleSize=0mil|Usage=FLASHONLY|Rotation=0.000|XOffset=0mil|YOffset=0mil|HoleType=Round|Shape=RoundedRectangle|*
%AMROUNDEDRECTD54*
21,1,0.04737,0.02657,0,0,0.0*
21,1,0.03051,0.04343,0,0,0.0*
1,1,0.01686,0.01526,-0.01329*
1,1,0.01686,-0.01526,-0.01329*
1,1,0.01686,-0.01526,0.01329*
1,1,0.01686,0.01526,0.01329*
%
%ADD54ROUNDEDRECTD54*%
%ADD55R,0.03753X0.04540*%
G04:AMPARAMS|DCode=56|XSize=47.37mil|YSize=43.43mil|CornerRadius=8.43mil|HoleSize=0mil|Usage=FLASHONLY|Rotation=270.000|XOffset=0mil|YOffset=0mil|HoleType=Round|Shape=RoundedRectangle|*
%AMROUNDEDRECTD56*
21,1,0.04737,0.02657,0,0,270.0*
21,1,0.03051,0.04343,0,0,270.0*
1,1,0.01686,-0.01329,-0.01526*
1,1,0.01686,-0.01329,0.01526*
1,1,0.01686,0.01329,0.01526*
1,1,0.01686,0.01329,-0.01526*
%
%ADD56ROUNDEDRECTD56*%
D11*
X93000Y167000D02*
G03*
X91000Y165000I0J-2000D01*
G01*
Y128000D02*
G03*
X93000Y126000I2000J0D01*
G01*
X129000D02*
G03*
X132000Y129000I0J3000D01*
G01*
Y164000D02*
G03*
X129000Y167000I-3000J0D01*
G01*
X5000Y254000D02*
G03*
X0Y249000I0J-5000D01*
G01*
Y5000D02*
G03*
X5000Y0I5000J0D01*
G01*
X201000D02*
G03*
X206000Y5000I0J5000D01*
G01*
Y249000D02*
G03*
X201000Y254000I-5000J0D01*
G01*
X91000Y128000D02*
Y165000D01*
X93000Y126000D02*
X129000D01*
X132000Y129000D02*
Y164000D01*
X93000Y167000D02*
X129000D01*
X5000Y254000D02*
X16000D01*
X0Y5000D02*
Y249000D01*
X5000Y0D02*
X201000D01*
X206000Y5000D02*
Y249000D01*
X16000Y254000D02*
X201000D01*
D17*
X84000Y246000D02*
D03*
X94000D02*
D03*
X104000D02*
D03*
X114000D02*
D03*
X124000D02*
D03*
X134000D02*
D03*
Y216000D02*
D03*
X124000D02*
D03*
X114000D02*
D03*
X104000D02*
D03*
X94000D02*
D03*
D18*
X84000D02*
D03*
D19*
X112500Y95811D02*
D03*
X124311D02*
D03*
X118405D02*
D03*
X100689D02*
D03*
X106595D02*
D03*
X108563Y105811D02*
D03*
X98721Y115811D02*
D03*
X114469Y105811D02*
D03*
X110531Y115811D02*
D03*
X96752Y105811D02*
D03*
X102657D02*
D03*
X104626Y115811D02*
D03*
X116437D02*
D03*
X120374Y105811D02*
D03*
X126279D02*
D03*
X122343Y115811D02*
D03*
X126279Y187779D02*
D03*
X124311Y177779D02*
D03*
X98721Y197780D02*
D03*
X122343D02*
D03*
X106595Y177779D02*
D03*
X114469Y187779D02*
D03*
X116437Y197780D02*
D03*
X110531D02*
D03*
X104626D02*
D03*
X120374Y187779D02*
D03*
X118405Y177779D02*
D03*
X112500D02*
D03*
X108563Y187779D02*
D03*
X102657D02*
D03*
X100689Y177779D02*
D03*
X96752Y187779D02*
D03*
D20*
X162500Y159591D02*
D03*
Y135968D02*
D03*
X142500Y151716D02*
D03*
X152500Y143842D02*
D03*
X162500Y141874D02*
D03*
Y147780D02*
D03*
Y153685D02*
D03*
X142500Y134000D02*
D03*
X152500Y137937D02*
D03*
X142500Y139906D02*
D03*
Y145811D02*
D03*
X152500Y149748D02*
D03*
Y155654D02*
D03*
X142500Y157622D02*
D03*
X152500Y161559D02*
D03*
Y132032D02*
D03*
X60532Y134000D02*
D03*
Y157622D02*
D03*
X80532Y141874D02*
D03*
X70531Y149748D02*
D03*
X60532Y151716D02*
D03*
Y145811D02*
D03*
Y139906D02*
D03*
X80532Y159591D02*
D03*
X70531Y155654D02*
D03*
X80532Y153685D02*
D03*
Y147780D02*
D03*
X70531Y143842D02*
D03*
Y137937D02*
D03*
X80532Y135968D02*
D03*
X70531Y132032D02*
D03*
Y161559D02*
D03*
D21*
X152500Y187779D02*
D03*
X70531Y105811D02*
D03*
D22*
X151000Y64000D02*
D03*
Y54000D02*
D03*
X141000Y64000D02*
D03*
Y54000D02*
D03*
X131000Y64000D02*
D03*
D23*
Y54000D02*
D03*
D24*
X98000Y38000D02*
D03*
X28000Y238000D02*
D03*
X178000D02*
D03*
D25*
X8000Y218000D02*
D03*
X198000D02*
D03*
D26*
X8000Y208000D02*
D03*
Y198000D02*
D03*
Y188000D02*
D03*
Y178000D02*
D03*
Y168000D02*
D03*
Y158000D02*
D03*
Y148000D02*
D03*
Y138000D02*
D03*
Y128000D02*
D03*
Y118000D02*
D03*
Y108000D02*
D03*
Y98000D02*
D03*
Y88000D02*
D03*
Y78000D02*
D03*
Y68000D02*
D03*
Y58000D02*
D03*
Y48000D02*
D03*
Y38000D02*
D03*
Y28000D02*
D03*
X198000Y208000D02*
D03*
Y198000D02*
D03*
Y188000D02*
D03*
Y178000D02*
D03*
Y168000D02*
D03*
Y158000D02*
D03*
Y148000D02*
D03*
Y138000D02*
D03*
Y128000D02*
D03*
Y118000D02*
D03*
Y108000D02*
D03*
Y98000D02*
D03*
Y88000D02*
D03*
Y78000D02*
D03*
Y68000D02*
D03*
Y58000D02*
D03*
Y48000D02*
D03*
Y38000D02*
D03*
Y28000D02*
D03*
D27*
X8000Y8000D02*
D03*
D28*
X18000D02*
D03*
X28000D02*
D03*
X38000D02*
D03*
X48000D02*
D03*
X58000D02*
D03*
X68000D02*
D03*
X78000D02*
D03*
X88000D02*
D03*
X98000D02*
D03*
X108000D02*
D03*
X118000D02*
D03*
X128000D02*
D03*
X138000D02*
D03*
X148000D02*
D03*
X158000D02*
D03*
X168000D02*
D03*
X178000D02*
D03*
X188000D02*
D03*
X198000D02*
D03*
D49*
X94453Y228500D02*
D03*
X123953Y226000D02*
D03*
D50*
X73992Y203120D02*
D03*
X88500Y203378D02*
D03*
D51*
X91257Y228500D02*
D03*
X94500D02*
D03*
X97745D02*
D03*
X120757Y226000D02*
D03*
X124000D02*
D03*
X127244D02*
D03*
D52*
X74000Y201500D02*
D03*
Y204743D02*
D03*
X88500Y205000D02*
D03*
Y201757D02*
D03*
D53*
X182000Y76256D02*
D03*
Y70744D02*
D03*
X136000Y97488D02*
D03*
Y103000D02*
D03*
X158000Y169744D02*
D03*
Y175256D02*
D03*
X185000Y178744D02*
D03*
Y184256D02*
D03*
X176000Y178744D02*
D03*
Y184256D02*
D03*
X112500Y234756D02*
D03*
Y229244D02*
D03*
D54*
X128000Y20654D02*
D03*
Y27347D02*
D03*
X114500Y20654D02*
D03*
Y27347D02*
D03*
X163000Y203346D02*
D03*
Y196653D02*
D03*
D55*
X74744Y122500D02*
D03*
X80256D02*
D03*
X147756Y239500D02*
D03*
X142244D02*
D03*
X79988Y188000D02*
D03*
X85500D02*
D03*
D56*
X133153Y80000D02*
D03*
X139847D02*
D03*
X42346Y197500D02*
D03*
X35653D02*
D03*
M02*
