G04 Layer_Physical_Order=2*
G04 Layer_Color=16711680*
%FSLAX25Y25*%
%MOIN*%
G70*
G01*
G75*
%ADD12C,0.06000*%
%ADD13C,0.17323*%
%ADD14R,0.11000X0.06000*%
%ADD15O,0.11000X0.06000*%
%ADD16R,0.06000X0.11000*%
%ADD17O,0.06000X0.11000*%
%ADD18C,0.02362*%
%ADD19C,0.04724*%
D12*
X340000Y150000D02*
D03*
X350000D02*
D03*
X330000D02*
D03*
X360000D02*
D03*
X400000D02*
D03*
X390000D02*
D03*
X380000D02*
D03*
X370000D02*
D03*
X440000D02*
D03*
X430000D02*
D03*
X420000D02*
D03*
X410000D02*
D03*
X480000D02*
D03*
X470000D02*
D03*
X460000D02*
D03*
X450000D02*
D03*
X490000D02*
D03*
X500000D02*
D03*
X510000D02*
D03*
X520000D02*
D03*
X510000Y170000D02*
D03*
Y180000D02*
D03*
Y160000D02*
D03*
Y190000D02*
D03*
Y230000D02*
D03*
Y220000D02*
D03*
Y210000D02*
D03*
Y200000D02*
D03*
Y270000D02*
D03*
Y260000D02*
D03*
Y250000D02*
D03*
Y240000D02*
D03*
Y310000D02*
D03*
Y300000D02*
D03*
Y290000D02*
D03*
Y280000D02*
D03*
Y320000D02*
D03*
Y330000D02*
D03*
Y340000D02*
D03*
Y350000D02*
D03*
X340000Y170000D02*
D03*
Y180000D02*
D03*
Y160000D02*
D03*
Y190000D02*
D03*
Y230000D02*
D03*
Y220000D02*
D03*
Y210000D02*
D03*
Y200000D02*
D03*
Y270000D02*
D03*
Y260000D02*
D03*
Y250000D02*
D03*
Y240000D02*
D03*
Y310000D02*
D03*
Y300000D02*
D03*
Y290000D02*
D03*
Y280000D02*
D03*
Y320000D02*
D03*
Y330000D02*
D03*
Y340000D02*
D03*
Y350000D02*
D03*
X350000D02*
D03*
X360000D02*
D03*
X370000D02*
D03*
X380000D02*
D03*
X390000D02*
D03*
X400000D02*
D03*
X410000D02*
D03*
X420000D02*
D03*
X430000D02*
D03*
X440000D02*
D03*
X450000D02*
D03*
X460000D02*
D03*
X470000D02*
D03*
X490000D02*
D03*
X480000D02*
D03*
X500000D02*
D03*
Y340000D02*
D03*
X480000D02*
D03*
X490000D02*
D03*
X470000D02*
D03*
X460000D02*
D03*
X450000D02*
D03*
X440000D02*
D03*
X430000D02*
D03*
X420000D02*
D03*
X410000D02*
D03*
X400000D02*
D03*
X390000D02*
D03*
X380000D02*
D03*
X370000D02*
D03*
X360000D02*
D03*
X350000D02*
D03*
X500000Y330000D02*
D03*
X480000D02*
D03*
X490000D02*
D03*
X470000D02*
D03*
X460000D02*
D03*
X450000D02*
D03*
X440000D02*
D03*
X430000D02*
D03*
X420000D02*
D03*
X410000D02*
D03*
X400000D02*
D03*
X390000D02*
D03*
X380000D02*
D03*
X370000D02*
D03*
X360000D02*
D03*
X350000D02*
D03*
X500000Y320000D02*
D03*
X480000D02*
D03*
X490000D02*
D03*
X470000D02*
D03*
X460000D02*
D03*
X450000D02*
D03*
X440000D02*
D03*
X430000D02*
D03*
X420000D02*
D03*
X410000D02*
D03*
X400000D02*
D03*
X390000D02*
D03*
X380000D02*
D03*
X370000D02*
D03*
X360000D02*
D03*
X350000D02*
D03*
Y280000D02*
D03*
X360000D02*
D03*
X370000D02*
D03*
X380000D02*
D03*
X390000D02*
D03*
X400000D02*
D03*
X410000D02*
D03*
X420000D02*
D03*
X430000D02*
D03*
X440000D02*
D03*
X450000D02*
D03*
X460000D02*
D03*
X470000D02*
D03*
X490000D02*
D03*
X480000D02*
D03*
X500000D02*
D03*
X350000Y290000D02*
D03*
X360000D02*
D03*
X370000D02*
D03*
X380000D02*
D03*
X390000D02*
D03*
X400000D02*
D03*
X410000D02*
D03*
X420000D02*
D03*
X430000D02*
D03*
X440000D02*
D03*
X450000D02*
D03*
X460000D02*
D03*
X470000D02*
D03*
X490000D02*
D03*
X480000D02*
D03*
X500000D02*
D03*
X350000Y300000D02*
D03*
X360000D02*
D03*
X370000D02*
D03*
X380000D02*
D03*
X390000D02*
D03*
X400000D02*
D03*
X410000D02*
D03*
X420000D02*
D03*
X430000D02*
D03*
X440000D02*
D03*
X450000D02*
D03*
X460000D02*
D03*
X470000D02*
D03*
X490000D02*
D03*
X480000D02*
D03*
X500000D02*
D03*
Y310000D02*
D03*
X480000D02*
D03*
X490000D02*
D03*
X470000D02*
D03*
X460000D02*
D03*
X450000D02*
D03*
X440000D02*
D03*
X430000D02*
D03*
X420000D02*
D03*
X410000D02*
D03*
X400000D02*
D03*
X390000D02*
D03*
X380000D02*
D03*
X370000D02*
D03*
X360000D02*
D03*
X350000D02*
D03*
Y240000D02*
D03*
X360000D02*
D03*
X370000D02*
D03*
X380000D02*
D03*
X390000D02*
D03*
X400000D02*
D03*
X410000D02*
D03*
X420000D02*
D03*
X430000D02*
D03*
X440000D02*
D03*
X450000D02*
D03*
X460000D02*
D03*
X470000D02*
D03*
X490000D02*
D03*
X480000D02*
D03*
X500000D02*
D03*
X350000Y250000D02*
D03*
X360000D02*
D03*
X370000D02*
D03*
X380000D02*
D03*
X390000D02*
D03*
X400000D02*
D03*
X410000D02*
D03*
X420000D02*
D03*
X430000D02*
D03*
X440000D02*
D03*
X450000D02*
D03*
X460000D02*
D03*
X470000D02*
D03*
X490000D02*
D03*
X480000D02*
D03*
X500000D02*
D03*
X350000Y260000D02*
D03*
X360000D02*
D03*
X370000D02*
D03*
X380000D02*
D03*
X390000D02*
D03*
X400000D02*
D03*
X410000D02*
D03*
X420000D02*
D03*
X430000D02*
D03*
X440000D02*
D03*
X450000D02*
D03*
X460000D02*
D03*
X470000D02*
D03*
X490000D02*
D03*
X480000D02*
D03*
X500000D02*
D03*
Y270000D02*
D03*
X480000D02*
D03*
X490000D02*
D03*
X470000D02*
D03*
X460000D02*
D03*
X450000D02*
D03*
X440000D02*
D03*
X430000D02*
D03*
X420000D02*
D03*
X410000D02*
D03*
X400000D02*
D03*
X390000D02*
D03*
X380000D02*
D03*
X370000D02*
D03*
X360000D02*
D03*
X350000D02*
D03*
Y200000D02*
D03*
X360000D02*
D03*
X370000D02*
D03*
X380000D02*
D03*
X390000D02*
D03*
X400000D02*
D03*
X410000D02*
D03*
X420000D02*
D03*
X430000D02*
D03*
X440000D02*
D03*
X450000D02*
D03*
X460000D02*
D03*
X470000D02*
D03*
X490000D02*
D03*
X480000D02*
D03*
X500000D02*
D03*
X350000Y210000D02*
D03*
X360000D02*
D03*
X370000D02*
D03*
X380000D02*
D03*
X390000D02*
D03*
X400000D02*
D03*
X410000D02*
D03*
X420000D02*
D03*
X430000D02*
D03*
X440000D02*
D03*
X450000D02*
D03*
X460000D02*
D03*
X470000D02*
D03*
X490000D02*
D03*
X480000D02*
D03*
X500000D02*
D03*
X350000Y220000D02*
D03*
X360000D02*
D03*
X370000D02*
D03*
X380000D02*
D03*
X390000D02*
D03*
X400000D02*
D03*
X410000D02*
D03*
X420000D02*
D03*
X430000D02*
D03*
X440000D02*
D03*
X450000D02*
D03*
X460000D02*
D03*
X470000D02*
D03*
X490000D02*
D03*
X480000D02*
D03*
X500000D02*
D03*
Y230000D02*
D03*
X480000D02*
D03*
X490000D02*
D03*
X470000D02*
D03*
X460000D02*
D03*
X450000D02*
D03*
X440000D02*
D03*
X430000D02*
D03*
X420000D02*
D03*
X410000D02*
D03*
X400000D02*
D03*
X390000D02*
D03*
X380000D02*
D03*
X370000D02*
D03*
X360000D02*
D03*
X350000D02*
D03*
X500000Y190000D02*
D03*
X480000D02*
D03*
X490000D02*
D03*
X470000D02*
D03*
X460000D02*
D03*
X450000D02*
D03*
X440000D02*
D03*
X430000D02*
D03*
X420000D02*
D03*
X410000D02*
D03*
X400000D02*
D03*
X390000D02*
D03*
X380000D02*
D03*
X370000D02*
D03*
X360000D02*
D03*
X350000D02*
D03*
Y160000D02*
D03*
X360000D02*
D03*
X370000D02*
D03*
X380000D02*
D03*
X390000D02*
D03*
X400000D02*
D03*
Y180000D02*
D03*
X390000D02*
D03*
X380000D02*
D03*
X370000D02*
D03*
X360000D02*
D03*
X350000D02*
D03*
X400000Y170000D02*
D03*
X390000D02*
D03*
X380000D02*
D03*
X370000D02*
D03*
X360000D02*
D03*
X350000D02*
D03*
X440000Y160000D02*
D03*
X450000D02*
D03*
X460000D02*
D03*
X470000D02*
D03*
X480000D02*
D03*
X490000D02*
D03*
Y180000D02*
D03*
X480000D02*
D03*
X470000D02*
D03*
X460000D02*
D03*
X450000D02*
D03*
X440000D02*
D03*
X490000Y170000D02*
D03*
X480000D02*
D03*
X470000D02*
D03*
X460000D02*
D03*
X450000D02*
D03*
X440000D02*
D03*
X500000D02*
D03*
Y160000D02*
D03*
Y180000D02*
D03*
X370000Y360000D02*
D03*
X380000D02*
D03*
X390000D02*
D03*
X400000D02*
D03*
X410000D02*
D03*
X420000D02*
D03*
X430000D02*
D03*
X440000D02*
D03*
X450000D02*
D03*
X460000D02*
D03*
X470000D02*
D03*
X480000D02*
D03*
X370000Y370000D02*
D03*
X380000D02*
D03*
X390000D02*
D03*
X400000D02*
D03*
X410000D02*
D03*
X420000D02*
D03*
X430000D02*
D03*
X440000D02*
D03*
X450000D02*
D03*
X460000D02*
D03*
X470000D02*
D03*
X480000D02*
D03*
Y380000D02*
D03*
X470000D02*
D03*
X460000D02*
D03*
X450000D02*
D03*
X440000D02*
D03*
X430000D02*
D03*
X420000D02*
D03*
X410000D02*
D03*
X400000D02*
D03*
X390000D02*
D03*
X380000D02*
D03*
X370000D02*
D03*
Y390000D02*
D03*
X380000D02*
D03*
X390000D02*
D03*
X400000D02*
D03*
X410000D02*
D03*
X420000D02*
D03*
X430000D02*
D03*
X440000D02*
D03*
X450000D02*
D03*
X460000D02*
D03*
X470000D02*
D03*
D13*
X420000Y170000D02*
D03*
X350000Y370000D02*
D03*
X500000D02*
D03*
D14*
X520000Y350000D02*
D03*
X330000D02*
D03*
D15*
X520000Y340000D02*
D03*
Y330000D02*
D03*
Y320000D02*
D03*
Y310000D02*
D03*
Y300000D02*
D03*
Y290000D02*
D03*
Y280000D02*
D03*
Y270000D02*
D03*
Y260000D02*
D03*
Y250000D02*
D03*
Y240000D02*
D03*
Y230000D02*
D03*
Y220000D02*
D03*
Y210000D02*
D03*
Y200000D02*
D03*
Y190000D02*
D03*
Y180000D02*
D03*
Y170000D02*
D03*
Y160000D02*
D03*
X330000Y340000D02*
D03*
Y330000D02*
D03*
Y320000D02*
D03*
Y310000D02*
D03*
Y300000D02*
D03*
Y290000D02*
D03*
Y280000D02*
D03*
Y270000D02*
D03*
Y260000D02*
D03*
Y250000D02*
D03*
Y240000D02*
D03*
Y230000D02*
D03*
Y220000D02*
D03*
Y210000D02*
D03*
Y200000D02*
D03*
Y190000D02*
D03*
Y180000D02*
D03*
Y170000D02*
D03*
Y160000D02*
D03*
D16*
Y140000D02*
D03*
D17*
X340000D02*
D03*
X350000D02*
D03*
X360000D02*
D03*
X370000D02*
D03*
X380000D02*
D03*
X390000D02*
D03*
X400000D02*
D03*
X410000D02*
D03*
X420000D02*
D03*
X430000D02*
D03*
X440000D02*
D03*
X450000D02*
D03*
X460000D02*
D03*
X470000D02*
D03*
X480000D02*
D03*
X490000D02*
D03*
X500000D02*
D03*
X510000D02*
D03*
X520000D02*
D03*
D18*
X426124Y176125D02*
D03*
X428661Y170000D02*
D03*
X426124Y163875D02*
D03*
X420000Y161339D02*
D03*
X413875Y163875D02*
D03*
X411339Y170000D02*
D03*
X413875Y176125D02*
D03*
X420000Y178661D02*
D03*
X356124Y376125D02*
D03*
X358661Y370000D02*
D03*
X356124Y363876D02*
D03*
X350000Y361339D02*
D03*
X343876Y363876D02*
D03*
X341339Y370000D02*
D03*
X343876Y376125D02*
D03*
X350000Y378661D02*
D03*
X506124Y376125D02*
D03*
X508661Y370000D02*
D03*
X506124Y363876D02*
D03*
X500000Y361339D02*
D03*
X493876Y363876D02*
D03*
X491339Y370000D02*
D03*
X493876Y376125D02*
D03*
X500000Y378661D02*
D03*
D19*
X430637Y170000D02*
G03*
X430637Y170000I-10637J0D01*
G01*
X360637Y370000D02*
G03*
X360637Y370000I-10637J0D01*
G01*
X510637D02*
G03*
X510637Y370000I-10637J0D01*
G01*
M02*
