G04 Layer_Color=32896*
%FSLAX25Y25*%
%MOIN*%
G70*
G01*
G75*
%ADD11C,0.01000*%
G36*
X415000Y305000D02*
X435000D01*
Y255000D01*
X505000D01*
Y205000D01*
X435000D01*
Y255000D01*
X415000D01*
Y305000D01*
X345000D01*
Y355000D01*
X415000D01*
Y305000D01*
D02*
G37*
G36*
X505000D02*
X435000D01*
Y355000D01*
X505000D01*
Y305000D01*
D02*
G37*
G36*
X415000Y205000D02*
X435000D01*
Y155000D01*
X415000D01*
Y156100D01*
X416000Y156666D01*
X417819Y156229D01*
X420000Y156058D01*
X422181Y156229D01*
X424308Y156740D01*
X426330Y157577D01*
X428195Y158720D01*
X429859Y160141D01*
X431280Y161805D01*
X432423Y163670D01*
X433260Y165692D01*
X433771Y167819D01*
X433942Y170000D01*
X433771Y172181D01*
X433260Y174308D01*
X432423Y176330D01*
X431280Y178195D01*
X429859Y179859D01*
X428195Y181280D01*
X426330Y182423D01*
X424308Y183260D01*
X422181Y183771D01*
X420000Y183942D01*
X417819Y183771D01*
X416000Y183334D01*
X415000Y183899D01*
Y205000D01*
X345000D01*
Y255000D01*
X415000D01*
Y205000D01*
D02*
G37*
%LPC*%
G36*
X460000Y243934D02*
X458982Y243800D01*
X458033Y243407D01*
X457219Y242781D01*
X456593Y241967D01*
X456200Y241018D01*
X456066Y240000D01*
X456200Y238982D01*
X456593Y238033D01*
X457219Y237218D01*
X458033Y236593D01*
X458982Y236200D01*
X460000Y236066D01*
X461018Y236200D01*
X461967Y236593D01*
X462781Y237218D01*
X463407Y238033D01*
X463800Y238982D01*
X463934Y240000D01*
X463800Y241018D01*
X463407Y241967D01*
X462781Y242781D01*
X461967Y243407D01*
X461018Y243800D01*
X460000Y243934D01*
D02*
G37*
G36*
X470000D02*
X468982Y243800D01*
X468033Y243407D01*
X467218Y242781D01*
X466593Y241967D01*
X466200Y241018D01*
X466066Y240000D01*
X466200Y238982D01*
X466593Y238033D01*
X467218Y237218D01*
X468033Y236593D01*
X468982Y236200D01*
X470000Y236066D01*
X471018Y236200D01*
X471967Y236593D01*
X472782Y237218D01*
X473407Y238033D01*
X473800Y238982D01*
X473934Y240000D01*
X473800Y241018D01*
X473407Y241967D01*
X472782Y242781D01*
X471967Y243407D01*
X471018Y243800D01*
X470000Y243934D01*
D02*
G37*
G36*
X450000D02*
X448982Y243800D01*
X448033Y243407D01*
X447219Y242781D01*
X446593Y241967D01*
X446200Y241018D01*
X446066Y240000D01*
X446200Y238982D01*
X446593Y238033D01*
X447219Y237218D01*
X448033Y236593D01*
X448982Y236200D01*
X450000Y236066D01*
X451018Y236200D01*
X451967Y236593D01*
X452781Y237218D01*
X453407Y238033D01*
X453800Y238982D01*
X453934Y240000D01*
X453800Y241018D01*
X453407Y241967D01*
X452781Y242781D01*
X451967Y243407D01*
X451018Y243800D01*
X450000Y243934D01*
D02*
G37*
G36*
X440000D02*
X438982Y243800D01*
X438033Y243407D01*
X437219Y242781D01*
X436593Y241967D01*
X436200Y241018D01*
X436066Y240000D01*
X436200Y238982D01*
X436593Y238033D01*
X437219Y237218D01*
X438033Y236593D01*
X438982Y236200D01*
X440000Y236066D01*
X441018Y236200D01*
X441967Y236593D01*
X442781Y237218D01*
X443407Y238033D01*
X443800Y238982D01*
X443934Y240000D01*
X443800Y241018D01*
X443407Y241967D01*
X442781Y242781D01*
X441967Y243407D01*
X441018Y243800D01*
X440000Y243934D01*
D02*
G37*
G36*
X470000Y233934D02*
X468982Y233800D01*
X468033Y233407D01*
X467218Y232782D01*
X466593Y231967D01*
X466200Y231018D01*
X466066Y230000D01*
X466200Y228982D01*
X466593Y228033D01*
X467218Y227219D01*
X468033Y226593D01*
X468982Y226200D01*
X470000Y226066D01*
X471018Y226200D01*
X471967Y226593D01*
X472782Y227219D01*
X473407Y228033D01*
X473800Y228982D01*
X473934Y230000D01*
X473800Y231018D01*
X473407Y231967D01*
X472782Y232782D01*
X471967Y233407D01*
X471018Y233800D01*
X470000Y233934D01*
D02*
G37*
G36*
X440000D02*
X438982Y233800D01*
X438033Y233407D01*
X437219Y232782D01*
X436593Y231967D01*
X436200Y231018D01*
X436066Y230000D01*
X436200Y228982D01*
X436593Y228033D01*
X437219Y227219D01*
X438033Y226593D01*
X438982Y226200D01*
X440000Y226066D01*
X441018Y226200D01*
X441967Y226593D01*
X442781Y227219D01*
X443407Y228033D01*
X443800Y228982D01*
X443934Y230000D01*
X443800Y231018D01*
X443407Y231967D01*
X442781Y232782D01*
X441967Y233407D01*
X441018Y233800D01*
X440000Y233934D01*
D02*
G37*
G36*
X450000D02*
X448982Y233800D01*
X448033Y233407D01*
X447219Y232782D01*
X446593Y231967D01*
X446200Y231018D01*
X446066Y230000D01*
X446200Y228982D01*
X446593Y228033D01*
X447219Y227219D01*
X448033Y226593D01*
X448982Y226200D01*
X450000Y226066D01*
X451018Y226200D01*
X451967Y226593D01*
X452781Y227219D01*
X453407Y228033D01*
X453800Y228982D01*
X453934Y230000D01*
X453800Y231018D01*
X453407Y231967D01*
X452781Y232782D01*
X451967Y233407D01*
X451018Y233800D01*
X450000Y233934D01*
D02*
G37*
G36*
X460000D02*
X458982Y233800D01*
X458033Y233407D01*
X457219Y232782D01*
X456593Y231967D01*
X456200Y231018D01*
X456066Y230000D01*
X456200Y228982D01*
X456593Y228033D01*
X457219Y227219D01*
X458033Y226593D01*
X458982Y226200D01*
X460000Y226066D01*
X461018Y226200D01*
X461967Y226593D01*
X462781Y227219D01*
X463407Y228033D01*
X463800Y228982D01*
X463934Y230000D01*
X463800Y231018D01*
X463407Y231967D01*
X462781Y232782D01*
X461967Y233407D01*
X461018Y233800D01*
X460000Y233934D01*
D02*
G37*
G36*
X480000D02*
X478982Y233800D01*
X478033Y233407D01*
X477218Y232782D01*
X476593Y231967D01*
X476200Y231018D01*
X476066Y230000D01*
X476200Y228982D01*
X476593Y228033D01*
X477218Y227219D01*
X478033Y226593D01*
X478982Y226200D01*
X480000Y226066D01*
X481018Y226200D01*
X481967Y226593D01*
X482782Y227219D01*
X483407Y228033D01*
X483800Y228982D01*
X483934Y230000D01*
X483800Y231018D01*
X483407Y231967D01*
X482782Y232782D01*
X481967Y233407D01*
X481018Y233800D01*
X480000Y233934D01*
D02*
G37*
G36*
X490000D02*
X488982Y233800D01*
X488033Y233407D01*
X487219Y232782D01*
X486593Y231967D01*
X486200Y231018D01*
X486066Y230000D01*
X486200Y228982D01*
X486593Y228033D01*
X487219Y227219D01*
X488033Y226593D01*
X488982Y226200D01*
X490000Y226066D01*
X491018Y226200D01*
X491967Y226593D01*
X492781Y227219D01*
X493407Y228033D01*
X493800Y228982D01*
X493934Y230000D01*
X493800Y231018D01*
X493407Y231967D01*
X492781Y232782D01*
X491967Y233407D01*
X491018Y233800D01*
X490000Y233934D01*
D02*
G37*
G36*
X500000D02*
X498982Y233800D01*
X498033Y233407D01*
X497219Y232782D01*
X496593Y231967D01*
X496200Y231018D01*
X496066Y230000D01*
X496200Y228982D01*
X496593Y228033D01*
X497219Y227219D01*
X498033Y226593D01*
X498982Y226200D01*
X500000Y226066D01*
X501018Y226200D01*
X501967Y226593D01*
X502781Y227219D01*
X503407Y228033D01*
X503800Y228982D01*
X503934Y230000D01*
X503800Y231018D01*
X503407Y231967D01*
X502781Y232782D01*
X501967Y233407D01*
X501018Y233800D01*
X500000Y233934D01*
D02*
G37*
G36*
X480000Y243934D02*
X478982Y243800D01*
X478033Y243407D01*
X477218Y242781D01*
X476593Y241967D01*
X476200Y241018D01*
X476066Y240000D01*
X476200Y238982D01*
X476593Y238033D01*
X477218Y237218D01*
X478033Y236593D01*
X478982Y236200D01*
X480000Y236066D01*
X481018Y236200D01*
X481967Y236593D01*
X482782Y237218D01*
X483407Y238033D01*
X483800Y238982D01*
X483934Y240000D01*
X483800Y241018D01*
X483407Y241967D01*
X482782Y242781D01*
X481967Y243407D01*
X481018Y243800D01*
X480000Y243934D01*
D02*
G37*
G36*
X460000Y253934D02*
X458982Y253800D01*
X458033Y253407D01*
X457219Y252782D01*
X456593Y251967D01*
X456200Y251018D01*
X456066Y250000D01*
X456200Y248982D01*
X456593Y248033D01*
X457219Y247218D01*
X458033Y246593D01*
X458982Y246200D01*
X460000Y246066D01*
X461018Y246200D01*
X461967Y246593D01*
X462781Y247218D01*
X463407Y248033D01*
X463800Y248982D01*
X463934Y250000D01*
X463800Y251018D01*
X463407Y251967D01*
X462781Y252782D01*
X461967Y253407D01*
X461018Y253800D01*
X460000Y253934D01*
D02*
G37*
G36*
X470000D02*
X468982Y253800D01*
X468033Y253407D01*
X467218Y252782D01*
X466593Y251967D01*
X466200Y251018D01*
X466066Y250000D01*
X466200Y248982D01*
X466593Y248033D01*
X467218Y247218D01*
X468033Y246593D01*
X468982Y246200D01*
X470000Y246066D01*
X471018Y246200D01*
X471967Y246593D01*
X472782Y247218D01*
X473407Y248033D01*
X473800Y248982D01*
X473934Y250000D01*
X473800Y251018D01*
X473407Y251967D01*
X472782Y252782D01*
X471967Y253407D01*
X471018Y253800D01*
X470000Y253934D01*
D02*
G37*
G36*
X440000D02*
X438982Y253800D01*
X438033Y253407D01*
X437219Y252782D01*
X436593Y251967D01*
X436200Y251018D01*
X436066Y250000D01*
X436200Y248982D01*
X436593Y248033D01*
X437219Y247218D01*
X438033Y246593D01*
X438982Y246200D01*
X440000Y246066D01*
X441018Y246200D01*
X441967Y246593D01*
X442781Y247218D01*
X443407Y248033D01*
X443800Y248982D01*
X443934Y250000D01*
X443800Y251018D01*
X443407Y251967D01*
X442781Y252782D01*
X441967Y253407D01*
X441018Y253800D01*
X440000Y253934D01*
D02*
G37*
G36*
X450000D02*
X448982Y253800D01*
X448033Y253407D01*
X447219Y252782D01*
X446593Y251967D01*
X446200Y251018D01*
X446066Y250000D01*
X446200Y248982D01*
X446593Y248033D01*
X447219Y247218D01*
X448033Y246593D01*
X448982Y246200D01*
X450000Y246066D01*
X451018Y246200D01*
X451967Y246593D01*
X452781Y247218D01*
X453407Y248033D01*
X453800Y248982D01*
X453934Y250000D01*
X453800Y251018D01*
X453407Y251967D01*
X452781Y252782D01*
X451967Y253407D01*
X451018Y253800D01*
X450000Y253934D01*
D02*
G37*
G36*
X480000D02*
X478982Y253800D01*
X478033Y253407D01*
X477218Y252782D01*
X476593Y251967D01*
X476200Y251018D01*
X476066Y250000D01*
X476200Y248982D01*
X476593Y248033D01*
X477218Y247218D01*
X478033Y246593D01*
X478982Y246200D01*
X480000Y246066D01*
X481018Y246200D01*
X481967Y246593D01*
X482782Y247218D01*
X483407Y248033D01*
X483800Y248982D01*
X483934Y250000D01*
X483800Y251018D01*
X483407Y251967D01*
X482782Y252782D01*
X481967Y253407D01*
X481018Y253800D01*
X480000Y253934D01*
D02*
G37*
G36*
X420000Y263934D02*
X418982Y263800D01*
X418033Y263407D01*
X417218Y262782D01*
X416593Y261967D01*
X416200Y261018D01*
X416066Y260000D01*
X416200Y258982D01*
X416593Y258033D01*
X417218Y257219D01*
X418033Y256593D01*
X418982Y256200D01*
X420000Y256066D01*
X421018Y256200D01*
X421967Y256593D01*
X422782Y257219D01*
X423407Y258033D01*
X423800Y258982D01*
X423934Y260000D01*
X423800Y261018D01*
X423407Y261967D01*
X422782Y262782D01*
X421967Y263407D01*
X421018Y263800D01*
X420000Y263934D01*
D02*
G37*
G36*
X430000D02*
X428982Y263800D01*
X428033Y263407D01*
X427218Y262782D01*
X426593Y261967D01*
X426200Y261018D01*
X426066Y260000D01*
X426200Y258982D01*
X426593Y258033D01*
X427218Y257219D01*
X428033Y256593D01*
X428982Y256200D01*
X430000Y256066D01*
X431018Y256200D01*
X431967Y256593D01*
X432782Y257219D01*
X433407Y258033D01*
X433800Y258982D01*
X433934Y260000D01*
X433800Y261018D01*
X433407Y261967D01*
X432782Y262782D01*
X431967Y263407D01*
X431018Y263800D01*
X430000Y263934D01*
D02*
G37*
G36*
X490000Y253934D02*
X488982Y253800D01*
X488033Y253407D01*
X487219Y252782D01*
X486593Y251967D01*
X486200Y251018D01*
X486066Y250000D01*
X486200Y248982D01*
X486593Y248033D01*
X487219Y247218D01*
X488033Y246593D01*
X488982Y246200D01*
X490000Y246066D01*
X491018Y246200D01*
X491967Y246593D01*
X492781Y247218D01*
X493407Y248033D01*
X493800Y248982D01*
X493934Y250000D01*
X493800Y251018D01*
X493407Y251967D01*
X492781Y252782D01*
X491967Y253407D01*
X491018Y253800D01*
X490000Y253934D01*
D02*
G37*
G36*
X500000D02*
X498982Y253800D01*
X498033Y253407D01*
X497219Y252782D01*
X496593Y251967D01*
X496200Y251018D01*
X496066Y250000D01*
X496200Y248982D01*
X496593Y248033D01*
X497219Y247218D01*
X498033Y246593D01*
X498982Y246200D01*
X500000Y246066D01*
X501018Y246200D01*
X501967Y246593D01*
X502781Y247218D01*
X503407Y248033D01*
X503800Y248982D01*
X503934Y250000D01*
X503800Y251018D01*
X503407Y251967D01*
X502781Y252782D01*
X501967Y253407D01*
X501018Y253800D01*
X500000Y253934D01*
D02*
G37*
G36*
X490000Y243934D02*
X488982Y243800D01*
X488033Y243407D01*
X487219Y242781D01*
X486593Y241967D01*
X486200Y241018D01*
X486066Y240000D01*
X486200Y238982D01*
X486593Y238033D01*
X487219Y237218D01*
X488033Y236593D01*
X488982Y236200D01*
X490000Y236066D01*
X491018Y236200D01*
X491967Y236593D01*
X492781Y237218D01*
X493407Y238033D01*
X493800Y238982D01*
X493934Y240000D01*
X493800Y241018D01*
X493407Y241967D01*
X492781Y242781D01*
X491967Y243407D01*
X491018Y243800D01*
X490000Y243934D01*
D02*
G37*
G36*
X500000D02*
X498982Y243800D01*
X498033Y243407D01*
X497219Y242781D01*
X496593Y241967D01*
X496200Y241018D01*
X496066Y240000D01*
X496200Y238982D01*
X496593Y238033D01*
X497219Y237218D01*
X498033Y236593D01*
X498982Y236200D01*
X500000Y236066D01*
X501018Y236200D01*
X501967Y236593D01*
X502781Y237218D01*
X503407Y238033D01*
X503800Y238982D01*
X503934Y240000D01*
X503800Y241018D01*
X503407Y241967D01*
X502781Y242781D01*
X501967Y243407D01*
X501018Y243800D01*
X500000Y243934D01*
D02*
G37*
G36*
X450000Y213934D02*
X448982Y213800D01*
X448033Y213407D01*
X447219Y212782D01*
X446593Y211967D01*
X446200Y211018D01*
X446066Y210000D01*
X446200Y208982D01*
X446593Y208033D01*
X447219Y207219D01*
X448033Y206593D01*
X448982Y206200D01*
X450000Y206066D01*
X451018Y206200D01*
X451967Y206593D01*
X452781Y207219D01*
X453407Y208033D01*
X453800Y208982D01*
X453934Y210000D01*
X453800Y211018D01*
X453407Y211967D01*
X452781Y212782D01*
X451967Y213407D01*
X451018Y213800D01*
X450000Y213934D01*
D02*
G37*
G36*
X460000D02*
X458982Y213800D01*
X458033Y213407D01*
X457219Y212782D01*
X456593Y211967D01*
X456200Y211018D01*
X456066Y210000D01*
X456200Y208982D01*
X456593Y208033D01*
X457219Y207219D01*
X458033Y206593D01*
X458982Y206200D01*
X460000Y206066D01*
X461018Y206200D01*
X461967Y206593D01*
X462781Y207219D01*
X463407Y208033D01*
X463800Y208982D01*
X463934Y210000D01*
X463800Y211018D01*
X463407Y211967D01*
X462781Y212782D01*
X461967Y213407D01*
X461018Y213800D01*
X460000Y213934D01*
D02*
G37*
G36*
X440000D02*
X438982Y213800D01*
X438033Y213407D01*
X437219Y212782D01*
X436593Y211967D01*
X436200Y211018D01*
X436066Y210000D01*
X436200Y208982D01*
X436593Y208033D01*
X437219Y207219D01*
X438033Y206593D01*
X438982Y206200D01*
X440000Y206066D01*
X441018Y206200D01*
X441967Y206593D01*
X442781Y207219D01*
X443407Y208033D01*
X443800Y208982D01*
X443934Y210000D01*
X443800Y211018D01*
X443407Y211967D01*
X442781Y212782D01*
X441967Y213407D01*
X441018Y213800D01*
X440000Y213934D01*
D02*
G37*
G36*
X470000D02*
X468982Y213800D01*
X468033Y213407D01*
X467218Y212782D01*
X466593Y211967D01*
X466200Y211018D01*
X466066Y210000D01*
X466200Y208982D01*
X466593Y208033D01*
X467218Y207219D01*
X468033Y206593D01*
X468982Y206200D01*
X470000Y206066D01*
X471018Y206200D01*
X471967Y206593D01*
X472782Y207219D01*
X473407Y208033D01*
X473800Y208982D01*
X473934Y210000D01*
X473800Y211018D01*
X473407Y211967D01*
X472782Y212782D01*
X471967Y213407D01*
X471018Y213800D01*
X470000Y213934D01*
D02*
G37*
G36*
X500000D02*
X498982Y213800D01*
X498033Y213407D01*
X497219Y212782D01*
X496593Y211967D01*
X496200Y211018D01*
X496066Y210000D01*
X496200Y208982D01*
X496593Y208033D01*
X497219Y207219D01*
X498033Y206593D01*
X498982Y206200D01*
X500000Y206066D01*
X501018Y206200D01*
X501967Y206593D01*
X502781Y207219D01*
X503407Y208033D01*
X503800Y208982D01*
X503934Y210000D01*
X503800Y211018D01*
X503407Y211967D01*
X502781Y212782D01*
X501967Y213407D01*
X501018Y213800D01*
X500000Y213934D01*
D02*
G37*
G36*
X480000D02*
X478982Y213800D01*
X478033Y213407D01*
X477218Y212782D01*
X476593Y211967D01*
X476200Y211018D01*
X476066Y210000D01*
X476200Y208982D01*
X476593Y208033D01*
X477218Y207219D01*
X478033Y206593D01*
X478982Y206200D01*
X480000Y206066D01*
X481018Y206200D01*
X481967Y206593D01*
X482782Y207219D01*
X483407Y208033D01*
X483800Y208982D01*
X483934Y210000D01*
X483800Y211018D01*
X483407Y211967D01*
X482782Y212782D01*
X481967Y213407D01*
X481018Y213800D01*
X480000Y213934D01*
D02*
G37*
G36*
X490000D02*
X488982Y213800D01*
X488033Y213407D01*
X487219Y212782D01*
X486593Y211967D01*
X486200Y211018D01*
X486066Y210000D01*
X486200Y208982D01*
X486593Y208033D01*
X487219Y207219D01*
X488033Y206593D01*
X488982Y206200D01*
X490000Y206066D01*
X491018Y206200D01*
X491967Y206593D01*
X492781Y207219D01*
X493407Y208033D01*
X493800Y208982D01*
X493934Y210000D01*
X493800Y211018D01*
X493407Y211967D01*
X492781Y212782D01*
X491967Y213407D01*
X491018Y213800D01*
X490000Y213934D01*
D02*
G37*
G36*
X500000Y223934D02*
X498982Y223800D01*
X498033Y223407D01*
X497219Y222781D01*
X496593Y221967D01*
X496200Y221018D01*
X496066Y220000D01*
X496200Y218982D01*
X496593Y218033D01*
X497219Y217218D01*
X498033Y216593D01*
X498982Y216200D01*
X500000Y216066D01*
X501018Y216200D01*
X501967Y216593D01*
X502781Y217218D01*
X503407Y218033D01*
X503800Y218982D01*
X503934Y220000D01*
X503800Y221018D01*
X503407Y221967D01*
X502781Y222781D01*
X501967Y223407D01*
X501018Y223800D01*
X500000Y223934D01*
D02*
G37*
G36*
X480000D02*
X478982Y223800D01*
X478033Y223407D01*
X477218Y222781D01*
X476593Y221967D01*
X476200Y221018D01*
X476066Y220000D01*
X476200Y218982D01*
X476593Y218033D01*
X477218Y217218D01*
X478033Y216593D01*
X478982Y216200D01*
X480000Y216066D01*
X481018Y216200D01*
X481967Y216593D01*
X482782Y217218D01*
X483407Y218033D01*
X483800Y218982D01*
X483934Y220000D01*
X483800Y221018D01*
X483407Y221967D01*
X482782Y222781D01*
X481967Y223407D01*
X481018Y223800D01*
X480000Y223934D01*
D02*
G37*
G36*
X490000D02*
X488982Y223800D01*
X488033Y223407D01*
X487219Y222781D01*
X486593Y221967D01*
X486200Y221018D01*
X486066Y220000D01*
X486200Y218982D01*
X486593Y218033D01*
X487219Y217218D01*
X488033Y216593D01*
X488982Y216200D01*
X490000Y216066D01*
X491018Y216200D01*
X491967Y216593D01*
X492781Y217218D01*
X493407Y218033D01*
X493800Y218982D01*
X493934Y220000D01*
X493800Y221018D01*
X493407Y221967D01*
X492781Y222781D01*
X491967Y223407D01*
X491018Y223800D01*
X490000Y223934D01*
D02*
G37*
G36*
X470000D02*
X468982Y223800D01*
X468033Y223407D01*
X467218Y222781D01*
X466593Y221967D01*
X466200Y221018D01*
X466066Y220000D01*
X466200Y218982D01*
X466593Y218033D01*
X467218Y217218D01*
X468033Y216593D01*
X468982Y216200D01*
X470000Y216066D01*
X471018Y216200D01*
X471967Y216593D01*
X472782Y217218D01*
X473407Y218033D01*
X473800Y218982D01*
X473934Y220000D01*
X473800Y221018D01*
X473407Y221967D01*
X472782Y222781D01*
X471967Y223407D01*
X471018Y223800D01*
X470000Y223934D01*
D02*
G37*
G36*
X450000D02*
X448982Y223800D01*
X448033Y223407D01*
X447219Y222781D01*
X446593Y221967D01*
X446200Y221018D01*
X446066Y220000D01*
X446200Y218982D01*
X446593Y218033D01*
X447219Y217218D01*
X448033Y216593D01*
X448982Y216200D01*
X450000Y216066D01*
X451018Y216200D01*
X451967Y216593D01*
X452781Y217218D01*
X453407Y218033D01*
X453800Y218982D01*
X453934Y220000D01*
X453800Y221018D01*
X453407Y221967D01*
X452781Y222781D01*
X451967Y223407D01*
X451018Y223800D01*
X450000Y223934D01*
D02*
G37*
G36*
X460000D02*
X458982Y223800D01*
X458033Y223407D01*
X457219Y222781D01*
X456593Y221967D01*
X456200Y221018D01*
X456066Y220000D01*
X456200Y218982D01*
X456593Y218033D01*
X457219Y217218D01*
X458033Y216593D01*
X458982Y216200D01*
X460000Y216066D01*
X461018Y216200D01*
X461967Y216593D01*
X462781Y217218D01*
X463407Y218033D01*
X463800Y218982D01*
X463934Y220000D01*
X463800Y221018D01*
X463407Y221967D01*
X462781Y222781D01*
X461967Y223407D01*
X461018Y223800D01*
X460000Y223934D01*
D02*
G37*
G36*
X440000D02*
X438982Y223800D01*
X438033Y223407D01*
X437219Y222781D01*
X436593Y221967D01*
X436200Y221018D01*
X436066Y220000D01*
X436200Y218982D01*
X436593Y218033D01*
X437219Y217218D01*
X438033Y216593D01*
X438982Y216200D01*
X440000Y216066D01*
X441018Y216200D01*
X441967Y216593D01*
X442781Y217218D01*
X443407Y218033D01*
X443800Y218982D01*
X443934Y220000D01*
X443800Y221018D01*
X443407Y221967D01*
X442781Y222781D01*
X441967Y223407D01*
X441018Y223800D01*
X440000Y223934D01*
D02*
G37*
G36*
X360000Y343934D02*
X358982Y343800D01*
X358033Y343407D01*
X357219Y342781D01*
X356593Y341967D01*
X356200Y341018D01*
X356066Y340000D01*
X356200Y338982D01*
X356593Y338033D01*
X357219Y337218D01*
X358033Y336593D01*
X358982Y336200D01*
X360000Y336066D01*
X361018Y336200D01*
X361967Y336593D01*
X362782Y337218D01*
X363407Y338033D01*
X363800Y338982D01*
X363934Y340000D01*
X363800Y341018D01*
X363407Y341967D01*
X362782Y342781D01*
X361967Y343407D01*
X361018Y343800D01*
X360000Y343934D01*
D02*
G37*
G36*
X370000D02*
X368982Y343800D01*
X368033Y343407D01*
X367218Y342781D01*
X366593Y341967D01*
X366200Y341018D01*
X366066Y340000D01*
X366200Y338982D01*
X366593Y338033D01*
X367218Y337218D01*
X368033Y336593D01*
X368982Y336200D01*
X370000Y336066D01*
X371018Y336200D01*
X371967Y336593D01*
X372781Y337218D01*
X373407Y338033D01*
X373800Y338982D01*
X373934Y340000D01*
X373800Y341018D01*
X373407Y341967D01*
X372781Y342781D01*
X371967Y343407D01*
X371018Y343800D01*
X370000Y343934D01*
D02*
G37*
G36*
X350000D02*
X348982Y343800D01*
X348033Y343407D01*
X347218Y342781D01*
X346593Y341967D01*
X346200Y341018D01*
X346066Y340000D01*
X346200Y338982D01*
X346593Y338033D01*
X347218Y337218D01*
X348033Y336593D01*
X348982Y336200D01*
X350000Y336066D01*
X351018Y336200D01*
X351967Y336593D01*
X352782Y337218D01*
X353407Y338033D01*
X353800Y338982D01*
X353934Y340000D01*
X353800Y341018D01*
X353407Y341967D01*
X352782Y342781D01*
X351967Y343407D01*
X351018Y343800D01*
X350000Y343934D01*
D02*
G37*
G36*
X380000D02*
X378982Y343800D01*
X378033Y343407D01*
X377219Y342781D01*
X376593Y341967D01*
X376200Y341018D01*
X376066Y340000D01*
X376200Y338982D01*
X376593Y338033D01*
X377219Y337218D01*
X378033Y336593D01*
X378982Y336200D01*
X380000Y336066D01*
X381018Y336200D01*
X381967Y336593D01*
X382782Y337218D01*
X383407Y338033D01*
X383800Y338982D01*
X383934Y340000D01*
X383800Y341018D01*
X383407Y341967D01*
X382782Y342781D01*
X381967Y343407D01*
X381018Y343800D01*
X380000Y343934D01*
D02*
G37*
G36*
X410000D02*
X408982Y343800D01*
X408033Y343407D01*
X407219Y342781D01*
X406593Y341967D01*
X406200Y341018D01*
X406066Y340000D01*
X406200Y338982D01*
X406593Y338033D01*
X407219Y337218D01*
X408033Y336593D01*
X408982Y336200D01*
X410000Y336066D01*
X411018Y336200D01*
X411967Y336593D01*
X412781Y337218D01*
X413407Y338033D01*
X413800Y338982D01*
X413934Y340000D01*
X413800Y341018D01*
X413407Y341967D01*
X412781Y342781D01*
X411967Y343407D01*
X411018Y343800D01*
X410000Y343934D01*
D02*
G37*
G36*
X390000D02*
X388982Y343800D01*
X388033Y343407D01*
X387218Y342781D01*
X386593Y341967D01*
X386200Y341018D01*
X386066Y340000D01*
X386200Y338982D01*
X386593Y338033D01*
X387218Y337218D01*
X388033Y336593D01*
X388982Y336200D01*
X390000Y336066D01*
X391018Y336200D01*
X391967Y336593D01*
X392781Y337218D01*
X393407Y338033D01*
X393800Y338982D01*
X393934Y340000D01*
X393800Y341018D01*
X393407Y341967D01*
X392781Y342781D01*
X391967Y343407D01*
X391018Y343800D01*
X390000Y343934D01*
D02*
G37*
G36*
X400000D02*
X398982Y343800D01*
X398033Y343407D01*
X397218Y342781D01*
X396593Y341967D01*
X396200Y341018D01*
X396066Y340000D01*
X396200Y338982D01*
X396593Y338033D01*
X397218Y337218D01*
X398033Y336593D01*
X398982Y336200D01*
X400000Y336066D01*
X401018Y336200D01*
X401967Y336593D01*
X402781Y337218D01*
X403407Y338033D01*
X403800Y338982D01*
X403934Y340000D01*
X403800Y341018D01*
X403407Y341967D01*
X402781Y342781D01*
X401967Y343407D01*
X401018Y343800D01*
X400000Y343934D01*
D02*
G37*
G36*
Y333934D02*
X398982Y333800D01*
X398033Y333407D01*
X397218Y332782D01*
X396593Y331967D01*
X396200Y331018D01*
X396066Y330000D01*
X396200Y328982D01*
X396593Y328033D01*
X397218Y327219D01*
X398033Y326593D01*
X398982Y326200D01*
X400000Y326066D01*
X401018Y326200D01*
X401967Y326593D01*
X402781Y327219D01*
X403407Y328033D01*
X403800Y328982D01*
X403934Y330000D01*
X403800Y331018D01*
X403407Y331967D01*
X402781Y332782D01*
X401967Y333407D01*
X401018Y333800D01*
X400000Y333934D01*
D02*
G37*
G36*
X410000D02*
X408982Y333800D01*
X408033Y333407D01*
X407219Y332782D01*
X406593Y331967D01*
X406200Y331018D01*
X406066Y330000D01*
X406200Y328982D01*
X406593Y328033D01*
X407219Y327219D01*
X408033Y326593D01*
X408982Y326200D01*
X410000Y326066D01*
X411018Y326200D01*
X411967Y326593D01*
X412781Y327219D01*
X413407Y328033D01*
X413800Y328982D01*
X413934Y330000D01*
X413800Y331018D01*
X413407Y331967D01*
X412781Y332782D01*
X411967Y333407D01*
X411018Y333800D01*
X410000Y333934D01*
D02*
G37*
G36*
X380000D02*
X378982Y333800D01*
X378033Y333407D01*
X377219Y332782D01*
X376593Y331967D01*
X376200Y331018D01*
X376066Y330000D01*
X376200Y328982D01*
X376593Y328033D01*
X377219Y327219D01*
X378033Y326593D01*
X378982Y326200D01*
X380000Y326066D01*
X381018Y326200D01*
X381967Y326593D01*
X382782Y327219D01*
X383407Y328033D01*
X383800Y328982D01*
X383934Y330000D01*
X383800Y331018D01*
X383407Y331967D01*
X382782Y332782D01*
X381967Y333407D01*
X381018Y333800D01*
X380000Y333934D01*
D02*
G37*
G36*
X390000D02*
X388982Y333800D01*
X388033Y333407D01*
X387218Y332782D01*
X386593Y331967D01*
X386200Y331018D01*
X386066Y330000D01*
X386200Y328982D01*
X386593Y328033D01*
X387218Y327219D01*
X388033Y326593D01*
X388982Y326200D01*
X390000Y326066D01*
X391018Y326200D01*
X391967Y326593D01*
X392781Y327219D01*
X393407Y328033D01*
X393800Y328982D01*
X393934Y330000D01*
X393800Y331018D01*
X393407Y331967D01*
X392781Y332782D01*
X391967Y333407D01*
X391018Y333800D01*
X390000Y333934D01*
D02*
G37*
G36*
X400000Y353934D02*
X398982Y353800D01*
X398033Y353407D01*
X397218Y352782D01*
X396593Y351967D01*
X396200Y351018D01*
X396066Y350000D01*
X396200Y348982D01*
X396593Y348033D01*
X397218Y347218D01*
X398033Y346593D01*
X398982Y346200D01*
X400000Y346066D01*
X401018Y346200D01*
X401967Y346593D01*
X402781Y347218D01*
X403407Y348033D01*
X403800Y348982D01*
X403934Y350000D01*
X403800Y351018D01*
X403407Y351967D01*
X402781Y352782D01*
X401967Y353407D01*
X401018Y353800D01*
X400000Y353934D01*
D02*
G37*
G36*
X410000D02*
X408982Y353800D01*
X408033Y353407D01*
X407219Y352782D01*
X406593Y351967D01*
X406200Y351018D01*
X406066Y350000D01*
X406200Y348982D01*
X406593Y348033D01*
X407219Y347218D01*
X408033Y346593D01*
X408982Y346200D01*
X410000Y346066D01*
X411018Y346200D01*
X411967Y346593D01*
X412781Y347218D01*
X413407Y348033D01*
X413800Y348982D01*
X413934Y350000D01*
X413800Y351018D01*
X413407Y351967D01*
X412781Y352782D01*
X411967Y353407D01*
X411018Y353800D01*
X410000Y353934D01*
D02*
G37*
G36*
X390000D02*
X388982Y353800D01*
X388033Y353407D01*
X387218Y352782D01*
X386593Y351967D01*
X386200Y351018D01*
X386066Y350000D01*
X386200Y348982D01*
X386593Y348033D01*
X387218Y347218D01*
X388033Y346593D01*
X388982Y346200D01*
X390000Y346066D01*
X391018Y346200D01*
X391967Y346593D01*
X392781Y347218D01*
X393407Y348033D01*
X393800Y348982D01*
X393934Y350000D01*
X393800Y351018D01*
X393407Y351967D01*
X392781Y352782D01*
X391967Y353407D01*
X391018Y353800D01*
X390000Y353934D01*
D02*
G37*
G36*
X370000D02*
X368982Y353800D01*
X368033Y353407D01*
X367218Y352782D01*
X366593Y351967D01*
X366200Y351018D01*
X366066Y350000D01*
X366200Y348982D01*
X366593Y348033D01*
X367218Y347218D01*
X368033Y346593D01*
X368982Y346200D01*
X370000Y346066D01*
X371018Y346200D01*
X371967Y346593D01*
X372781Y347218D01*
X373407Y348033D01*
X373800Y348982D01*
X373934Y350000D01*
X373800Y351018D01*
X373407Y351967D01*
X372781Y352782D01*
X371967Y353407D01*
X371018Y353800D01*
X370000Y353934D01*
D02*
G37*
G36*
X380000D02*
X378982Y353800D01*
X378033Y353407D01*
X377219Y352782D01*
X376593Y351967D01*
X376200Y351018D01*
X376066Y350000D01*
X376200Y348982D01*
X376593Y348033D01*
X377219Y347218D01*
X378033Y346593D01*
X378982Y346200D01*
X380000Y346066D01*
X381018Y346200D01*
X381967Y346593D01*
X382782Y347218D01*
X383407Y348033D01*
X383800Y348982D01*
X383934Y350000D01*
X383800Y351018D01*
X383407Y351967D01*
X382782Y352782D01*
X381967Y353407D01*
X381018Y353800D01*
X380000Y353934D01*
D02*
G37*
G36*
X350000D02*
X348982Y353800D01*
X348033Y353407D01*
X347218Y352782D01*
X346593Y351967D01*
X346200Y351018D01*
X346066Y350000D01*
X346200Y348982D01*
X346593Y348033D01*
X347218Y347218D01*
X348033Y346593D01*
X348982Y346200D01*
X350000Y346066D01*
X351018Y346200D01*
X351967Y346593D01*
X352782Y347218D01*
X353407Y348033D01*
X353800Y348982D01*
X353934Y350000D01*
X353800Y351018D01*
X353407Y351967D01*
X352782Y352782D01*
X351967Y353407D01*
X351018Y353800D01*
X350000Y353934D01*
D02*
G37*
G36*
X360000D02*
X358982Y353800D01*
X358033Y353407D01*
X357219Y352782D01*
X356593Y351967D01*
X356200Y351018D01*
X356066Y350000D01*
X356200Y348982D01*
X356593Y348033D01*
X357219Y347218D01*
X358033Y346593D01*
X358982Y346200D01*
X360000Y346066D01*
X361018Y346200D01*
X361967Y346593D01*
X362782Y347218D01*
X363407Y348033D01*
X363800Y348982D01*
X363934Y350000D01*
X363800Y351018D01*
X363407Y351967D01*
X362782Y352782D01*
X361967Y353407D01*
X361018Y353800D01*
X360000Y353934D01*
D02*
G37*
G36*
X390000Y313934D02*
X388982Y313800D01*
X388033Y313407D01*
X387218Y312782D01*
X386593Y311967D01*
X386200Y311018D01*
X386066Y310000D01*
X386200Y308982D01*
X386593Y308033D01*
X387218Y307219D01*
X388033Y306593D01*
X388982Y306200D01*
X390000Y306066D01*
X391018Y306200D01*
X391967Y306593D01*
X392781Y307219D01*
X393407Y308033D01*
X393800Y308982D01*
X393934Y310000D01*
X393800Y311018D01*
X393407Y311967D01*
X392781Y312782D01*
X391967Y313407D01*
X391018Y313800D01*
X390000Y313934D01*
D02*
G37*
G36*
X400000D02*
X398982Y313800D01*
X398033Y313407D01*
X397218Y312782D01*
X396593Y311967D01*
X396200Y311018D01*
X396066Y310000D01*
X396200Y308982D01*
X396593Y308033D01*
X397218Y307219D01*
X398033Y306593D01*
X398982Y306200D01*
X400000Y306066D01*
X401018Y306200D01*
X401967Y306593D01*
X402781Y307219D01*
X403407Y308033D01*
X403800Y308982D01*
X403934Y310000D01*
X403800Y311018D01*
X403407Y311967D01*
X402781Y312782D01*
X401967Y313407D01*
X401018Y313800D01*
X400000Y313934D01*
D02*
G37*
G36*
X370000D02*
X368982Y313800D01*
X368033Y313407D01*
X367218Y312782D01*
X366593Y311967D01*
X366200Y311018D01*
X366066Y310000D01*
X366200Y308982D01*
X366593Y308033D01*
X367218Y307219D01*
X368033Y306593D01*
X368982Y306200D01*
X370000Y306066D01*
X371018Y306200D01*
X371967Y306593D01*
X372781Y307219D01*
X373407Y308033D01*
X373800Y308982D01*
X373934Y310000D01*
X373800Y311018D01*
X373407Y311967D01*
X372781Y312782D01*
X371967Y313407D01*
X371018Y313800D01*
X370000Y313934D01*
D02*
G37*
G36*
X380000D02*
X378982Y313800D01*
X378033Y313407D01*
X377219Y312782D01*
X376593Y311967D01*
X376200Y311018D01*
X376066Y310000D01*
X376200Y308982D01*
X376593Y308033D01*
X377219Y307219D01*
X378033Y306593D01*
X378982Y306200D01*
X380000Y306066D01*
X381018Y306200D01*
X381967Y306593D01*
X382782Y307219D01*
X383407Y308033D01*
X383800Y308982D01*
X383934Y310000D01*
X383800Y311018D01*
X383407Y311967D01*
X382782Y312782D01*
X381967Y313407D01*
X381018Y313800D01*
X380000Y313934D01*
D02*
G37*
G36*
X410000D02*
X408982Y313800D01*
X408033Y313407D01*
X407219Y312782D01*
X406593Y311967D01*
X406200Y311018D01*
X406066Y310000D01*
X406200Y308982D01*
X406593Y308033D01*
X407219Y307219D01*
X408033Y306593D01*
X408982Y306200D01*
X410000Y306066D01*
X411018Y306200D01*
X411967Y306593D01*
X412781Y307219D01*
X413407Y308033D01*
X413800Y308982D01*
X413934Y310000D01*
X413800Y311018D01*
X413407Y311967D01*
X412781Y312782D01*
X411967Y313407D01*
X411018Y313800D01*
X410000Y313934D01*
D02*
G37*
G36*
X360000D02*
X358982Y313800D01*
X358033Y313407D01*
X357219Y312782D01*
X356593Y311967D01*
X356200Y311018D01*
X356066Y310000D01*
X356200Y308982D01*
X356593Y308033D01*
X357219Y307219D01*
X358033Y306593D01*
X358982Y306200D01*
X360000Y306066D01*
X361018Y306200D01*
X361967Y306593D01*
X362782Y307219D01*
X363407Y308033D01*
X363800Y308982D01*
X363934Y310000D01*
X363800Y311018D01*
X363407Y311967D01*
X362782Y312782D01*
X361967Y313407D01*
X361018Y313800D01*
X360000Y313934D01*
D02*
G37*
G36*
X420000Y283934D02*
X418982Y283800D01*
X418033Y283407D01*
X417218Y282782D01*
X416593Y281967D01*
X416200Y281018D01*
X416066Y280000D01*
X416200Y278982D01*
X416593Y278033D01*
X417218Y277219D01*
X418033Y276593D01*
X418982Y276200D01*
X420000Y276066D01*
X421018Y276200D01*
X421967Y276593D01*
X422782Y277219D01*
X423407Y278033D01*
X423800Y278982D01*
X423934Y280000D01*
X423800Y281018D01*
X423407Y281967D01*
X422782Y282782D01*
X421967Y283407D01*
X421018Y283800D01*
X420000Y283934D01*
D02*
G37*
G36*
X430000D02*
X428982Y283800D01*
X428033Y283407D01*
X427218Y282782D01*
X426593Y281967D01*
X426200Y281018D01*
X426066Y280000D01*
X426200Y278982D01*
X426593Y278033D01*
X427218Y277219D01*
X428033Y276593D01*
X428982Y276200D01*
X430000Y276066D01*
X431018Y276200D01*
X431967Y276593D01*
X432782Y277219D01*
X433407Y278033D01*
X433800Y278982D01*
X433934Y280000D01*
X433800Y281018D01*
X433407Y281967D01*
X432782Y282782D01*
X431967Y283407D01*
X431018Y283800D01*
X430000Y283934D01*
D02*
G37*
G36*
X420000Y273934D02*
X418982Y273800D01*
X418033Y273407D01*
X417218Y272781D01*
X416593Y271967D01*
X416200Y271018D01*
X416066Y270000D01*
X416200Y268982D01*
X416593Y268033D01*
X417218Y267218D01*
X418033Y266593D01*
X418982Y266200D01*
X420000Y266066D01*
X421018Y266200D01*
X421967Y266593D01*
X422782Y267218D01*
X423407Y268033D01*
X423800Y268982D01*
X423934Y270000D01*
X423800Y271018D01*
X423407Y271967D01*
X422782Y272781D01*
X421967Y273407D01*
X421018Y273800D01*
X420000Y273934D01*
D02*
G37*
G36*
X430000D02*
X428982Y273800D01*
X428033Y273407D01*
X427218Y272781D01*
X426593Y271967D01*
X426200Y271018D01*
X426066Y270000D01*
X426200Y268982D01*
X426593Y268033D01*
X427218Y267218D01*
X428033Y266593D01*
X428982Y266200D01*
X430000Y266066D01*
X431018Y266200D01*
X431967Y266593D01*
X432782Y267218D01*
X433407Y268033D01*
X433800Y268982D01*
X433934Y270000D01*
X433800Y271018D01*
X433407Y271967D01*
X432782Y272781D01*
X431967Y273407D01*
X431018Y273800D01*
X430000Y273934D01*
D02*
G37*
G36*
X420000Y293934D02*
X418982Y293800D01*
X418033Y293407D01*
X417218Y292781D01*
X416593Y291967D01*
X416200Y291018D01*
X416066Y290000D01*
X416200Y288982D01*
X416593Y288033D01*
X417218Y287218D01*
X418033Y286593D01*
X418982Y286200D01*
X420000Y286066D01*
X421018Y286200D01*
X421967Y286593D01*
X422782Y287218D01*
X423407Y288033D01*
X423800Y288982D01*
X423934Y290000D01*
X423800Y291018D01*
X423407Y291967D01*
X422782Y292781D01*
X421967Y293407D01*
X421018Y293800D01*
X420000Y293934D01*
D02*
G37*
G36*
X430000Y303934D02*
X428982Y303800D01*
X428033Y303407D01*
X427218Y302782D01*
X426593Y301967D01*
X426200Y301018D01*
X426066Y300000D01*
X426200Y298982D01*
X426593Y298033D01*
X427218Y297218D01*
X428033Y296593D01*
X428982Y296200D01*
X430000Y296066D01*
X431018Y296200D01*
X431967Y296593D01*
X432782Y297218D01*
X433407Y298033D01*
X433800Y298982D01*
X433934Y300000D01*
X433800Y301018D01*
X433407Y301967D01*
X432782Y302782D01*
X431967Y303407D01*
X431018Y303800D01*
X430000Y303934D01*
D02*
G37*
G36*
X350000Y313934D02*
X348982Y313800D01*
X348033Y313407D01*
X347218Y312782D01*
X346593Y311967D01*
X346200Y311018D01*
X346066Y310000D01*
X346200Y308982D01*
X346593Y308033D01*
X347218Y307219D01*
X348033Y306593D01*
X348982Y306200D01*
X350000Y306066D01*
X351018Y306200D01*
X351967Y306593D01*
X352782Y307219D01*
X353407Y308033D01*
X353800Y308982D01*
X353934Y310000D01*
X353800Y311018D01*
X353407Y311967D01*
X352782Y312782D01*
X351967Y313407D01*
X351018Y313800D01*
X350000Y313934D01*
D02*
G37*
G36*
X430000Y293934D02*
X428982Y293800D01*
X428033Y293407D01*
X427218Y292781D01*
X426593Y291967D01*
X426200Y291018D01*
X426066Y290000D01*
X426200Y288982D01*
X426593Y288033D01*
X427218Y287218D01*
X428033Y286593D01*
X428982Y286200D01*
X430000Y286066D01*
X431018Y286200D01*
X431967Y286593D01*
X432782Y287218D01*
X433407Y288033D01*
X433800Y288982D01*
X433934Y290000D01*
X433800Y291018D01*
X433407Y291967D01*
X432782Y292781D01*
X431967Y293407D01*
X431018Y293800D01*
X430000Y293934D01*
D02*
G37*
G36*
X420000Y303934D02*
X418982Y303800D01*
X418033Y303407D01*
X417218Y302782D01*
X416593Y301967D01*
X416200Y301018D01*
X416066Y300000D01*
X416200Y298982D01*
X416593Y298033D01*
X417218Y297218D01*
X418033Y296593D01*
X418982Y296200D01*
X420000Y296066D01*
X421018Y296200D01*
X421967Y296593D01*
X422782Y297218D01*
X423407Y298033D01*
X423800Y298982D01*
X423934Y300000D01*
X423800Y301018D01*
X423407Y301967D01*
X422782Y302782D01*
X421967Y303407D01*
X421018Y303800D01*
X420000Y303934D01*
D02*
G37*
G36*
X360000Y333934D02*
X358982Y333800D01*
X358033Y333407D01*
X357219Y332782D01*
X356593Y331967D01*
X356200Y331018D01*
X356066Y330000D01*
X356200Y328982D01*
X356593Y328033D01*
X357219Y327219D01*
X358033Y326593D01*
X358982Y326200D01*
X360000Y326066D01*
X361018Y326200D01*
X361967Y326593D01*
X362782Y327219D01*
X363407Y328033D01*
X363800Y328982D01*
X363934Y330000D01*
X363800Y331018D01*
X363407Y331967D01*
X362782Y332782D01*
X361967Y333407D01*
X361018Y333800D01*
X360000Y333934D01*
D02*
G37*
G36*
X370000D02*
X368982Y333800D01*
X368033Y333407D01*
X367218Y332782D01*
X366593Y331967D01*
X366200Y331018D01*
X366066Y330000D01*
X366200Y328982D01*
X366593Y328033D01*
X367218Y327219D01*
X368033Y326593D01*
X368982Y326200D01*
X370000Y326066D01*
X371018Y326200D01*
X371967Y326593D01*
X372781Y327219D01*
X373407Y328033D01*
X373800Y328982D01*
X373934Y330000D01*
X373800Y331018D01*
X373407Y331967D01*
X372781Y332782D01*
X371967Y333407D01*
X371018Y333800D01*
X370000Y333934D01*
D02*
G37*
G36*
X350000D02*
X348982Y333800D01*
X348033Y333407D01*
X347218Y332782D01*
X346593Y331967D01*
X346200Y331018D01*
X346066Y330000D01*
X346200Y328982D01*
X346593Y328033D01*
X347218Y327219D01*
X348033Y326593D01*
X348982Y326200D01*
X350000Y326066D01*
X351018Y326200D01*
X351967Y326593D01*
X352782Y327219D01*
X353407Y328033D01*
X353800Y328982D01*
X353934Y330000D01*
X353800Y331018D01*
X353407Y331967D01*
X352782Y332782D01*
X351967Y333407D01*
X351018Y333800D01*
X350000Y333934D01*
D02*
G37*
G36*
Y323934D02*
X348982Y323800D01*
X348033Y323407D01*
X347218Y322781D01*
X346593Y321967D01*
X346200Y321018D01*
X346066Y320000D01*
X346200Y318982D01*
X346593Y318033D01*
X347218Y317218D01*
X348033Y316593D01*
X348982Y316200D01*
X350000Y316066D01*
X351018Y316200D01*
X351967Y316593D01*
X352782Y317218D01*
X353407Y318033D01*
X353800Y318982D01*
X353934Y320000D01*
X353800Y321018D01*
X353407Y321967D01*
X352782Y322781D01*
X351967Y323407D01*
X351018Y323800D01*
X350000Y323934D01*
D02*
G37*
G36*
X360000D02*
X358982Y323800D01*
X358033Y323407D01*
X357219Y322781D01*
X356593Y321967D01*
X356200Y321018D01*
X356066Y320000D01*
X356200Y318982D01*
X356593Y318033D01*
X357219Y317218D01*
X358033Y316593D01*
X358982Y316200D01*
X360000Y316066D01*
X361018Y316200D01*
X361967Y316593D01*
X362782Y317218D01*
X363407Y318033D01*
X363800Y318982D01*
X363934Y320000D01*
X363800Y321018D01*
X363407Y321967D01*
X362782Y322781D01*
X361967Y323407D01*
X361018Y323800D01*
X360000Y323934D01*
D02*
G37*
G36*
X370000D02*
X368982Y323800D01*
X368033Y323407D01*
X367218Y322781D01*
X366593Y321967D01*
X366200Y321018D01*
X366066Y320000D01*
X366200Y318982D01*
X366593Y318033D01*
X367218Y317218D01*
X368033Y316593D01*
X368982Y316200D01*
X370000Y316066D01*
X371018Y316200D01*
X371967Y316593D01*
X372781Y317218D01*
X373407Y318033D01*
X373800Y318982D01*
X373934Y320000D01*
X373800Y321018D01*
X373407Y321967D01*
X372781Y322781D01*
X371967Y323407D01*
X371018Y323800D01*
X370000Y323934D01*
D02*
G37*
G36*
X400000D02*
X398982Y323800D01*
X398033Y323407D01*
X397218Y322781D01*
X396593Y321967D01*
X396200Y321018D01*
X396066Y320000D01*
X396200Y318982D01*
X396593Y318033D01*
X397218Y317218D01*
X398033Y316593D01*
X398982Y316200D01*
X400000Y316066D01*
X401018Y316200D01*
X401967Y316593D01*
X402781Y317218D01*
X403407Y318033D01*
X403800Y318982D01*
X403934Y320000D01*
X403800Y321018D01*
X403407Y321967D01*
X402781Y322781D01*
X401967Y323407D01*
X401018Y323800D01*
X400000Y323934D01*
D02*
G37*
G36*
X410000D02*
X408982Y323800D01*
X408033Y323407D01*
X407219Y322781D01*
X406593Y321967D01*
X406200Y321018D01*
X406066Y320000D01*
X406200Y318982D01*
X406593Y318033D01*
X407219Y317218D01*
X408033Y316593D01*
X408982Y316200D01*
X410000Y316066D01*
X411018Y316200D01*
X411967Y316593D01*
X412781Y317218D01*
X413407Y318033D01*
X413800Y318982D01*
X413934Y320000D01*
X413800Y321018D01*
X413407Y321967D01*
X412781Y322781D01*
X411967Y323407D01*
X411018Y323800D01*
X410000Y323934D01*
D02*
G37*
G36*
X380000D02*
X378982Y323800D01*
X378033Y323407D01*
X377219Y322781D01*
X376593Y321967D01*
X376200Y321018D01*
X376066Y320000D01*
X376200Y318982D01*
X376593Y318033D01*
X377219Y317218D01*
X378033Y316593D01*
X378982Y316200D01*
X380000Y316066D01*
X381018Y316200D01*
X381967Y316593D01*
X382782Y317218D01*
X383407Y318033D01*
X383800Y318982D01*
X383934Y320000D01*
X383800Y321018D01*
X383407Y321967D01*
X382782Y322781D01*
X381967Y323407D01*
X381018Y323800D01*
X380000Y323934D01*
D02*
G37*
G36*
X390000D02*
X388982Y323800D01*
X388033Y323407D01*
X387218Y322781D01*
X386593Y321967D01*
X386200Y321018D01*
X386066Y320000D01*
X386200Y318982D01*
X386593Y318033D01*
X387218Y317218D01*
X388033Y316593D01*
X388982Y316200D01*
X390000Y316066D01*
X391018Y316200D01*
X391967Y316593D01*
X392781Y317218D01*
X393407Y318033D01*
X393800Y318982D01*
X393934Y320000D01*
X393800Y321018D01*
X393407Y321967D01*
X392781Y322781D01*
X391967Y323407D01*
X391018Y323800D01*
X390000Y323934D01*
D02*
G37*
G36*
X500000Y333934D02*
X498982Y333800D01*
X498033Y333407D01*
X497219Y332782D01*
X496593Y331967D01*
X496200Y331018D01*
X496066Y330000D01*
X496200Y328982D01*
X496593Y328033D01*
X497219Y327219D01*
X498033Y326593D01*
X498982Y326200D01*
X500000Y326066D01*
X501018Y326200D01*
X501967Y326593D01*
X502781Y327219D01*
X503407Y328033D01*
X503800Y328982D01*
X503934Y330000D01*
X503800Y331018D01*
X503407Y331967D01*
X502781Y332782D01*
X501967Y333407D01*
X501018Y333800D01*
X500000Y333934D01*
D02*
G37*
G36*
X440000Y343934D02*
X438982Y343800D01*
X438033Y343407D01*
X437219Y342781D01*
X436593Y341967D01*
X436200Y341018D01*
X436066Y340000D01*
X436200Y338982D01*
X436593Y338033D01*
X437219Y337218D01*
X438033Y336593D01*
X438982Y336200D01*
X440000Y336066D01*
X441018Y336200D01*
X441967Y336593D01*
X442781Y337218D01*
X443407Y338033D01*
X443800Y338982D01*
X443934Y340000D01*
X443800Y341018D01*
X443407Y341967D01*
X442781Y342781D01*
X441967Y343407D01*
X441018Y343800D01*
X440000Y343934D01*
D02*
G37*
G36*
X490000Y333934D02*
X488982Y333800D01*
X488033Y333407D01*
X487219Y332782D01*
X486593Y331967D01*
X486200Y331018D01*
X486066Y330000D01*
X486200Y328982D01*
X486593Y328033D01*
X487219Y327219D01*
X488033Y326593D01*
X488982Y326200D01*
X490000Y326066D01*
X491018Y326200D01*
X491967Y326593D01*
X492781Y327219D01*
X493407Y328033D01*
X493800Y328982D01*
X493934Y330000D01*
X493800Y331018D01*
X493407Y331967D01*
X492781Y332782D01*
X491967Y333407D01*
X491018Y333800D01*
X490000Y333934D01*
D02*
G37*
G36*
X440000D02*
X438982Y333800D01*
X438033Y333407D01*
X437219Y332782D01*
X436593Y331967D01*
X436200Y331018D01*
X436066Y330000D01*
X436200Y328982D01*
X436593Y328033D01*
X437219Y327219D01*
X438033Y326593D01*
X438982Y326200D01*
X440000Y326066D01*
X441018Y326200D01*
X441967Y326593D01*
X442781Y327219D01*
X443407Y328033D01*
X443800Y328982D01*
X443934Y330000D01*
X443800Y331018D01*
X443407Y331967D01*
X442781Y332782D01*
X441967Y333407D01*
X441018Y333800D01*
X440000Y333934D01*
D02*
G37*
G36*
X470000D02*
X468982Y333800D01*
X468033Y333407D01*
X467218Y332782D01*
X466593Y331967D01*
X466200Y331018D01*
X466066Y330000D01*
X466200Y328982D01*
X466593Y328033D01*
X467218Y327219D01*
X468033Y326593D01*
X468982Y326200D01*
X470000Y326066D01*
X471018Y326200D01*
X471967Y326593D01*
X472782Y327219D01*
X473407Y328033D01*
X473800Y328982D01*
X473934Y330000D01*
X473800Y331018D01*
X473407Y331967D01*
X472782Y332782D01*
X471967Y333407D01*
X471018Y333800D01*
X470000Y333934D01*
D02*
G37*
G36*
X480000D02*
X478982Y333800D01*
X478033Y333407D01*
X477218Y332782D01*
X476593Y331967D01*
X476200Y331018D01*
X476066Y330000D01*
X476200Y328982D01*
X476593Y328033D01*
X477218Y327219D01*
X478033Y326593D01*
X478982Y326200D01*
X480000Y326066D01*
X481018Y326200D01*
X481967Y326593D01*
X482782Y327219D01*
X483407Y328033D01*
X483800Y328982D01*
X483934Y330000D01*
X483800Y331018D01*
X483407Y331967D01*
X482782Y332782D01*
X481967Y333407D01*
X481018Y333800D01*
X480000Y333934D01*
D02*
G37*
G36*
X450000D02*
X448982Y333800D01*
X448033Y333407D01*
X447219Y332782D01*
X446593Y331967D01*
X446200Y331018D01*
X446066Y330000D01*
X446200Y328982D01*
X446593Y328033D01*
X447219Y327219D01*
X448033Y326593D01*
X448982Y326200D01*
X450000Y326066D01*
X451018Y326200D01*
X451967Y326593D01*
X452781Y327219D01*
X453407Y328033D01*
X453800Y328982D01*
X453934Y330000D01*
X453800Y331018D01*
X453407Y331967D01*
X452781Y332782D01*
X451967Y333407D01*
X451018Y333800D01*
X450000Y333934D01*
D02*
G37*
G36*
X460000D02*
X458982Y333800D01*
X458033Y333407D01*
X457219Y332782D01*
X456593Y331967D01*
X456200Y331018D01*
X456066Y330000D01*
X456200Y328982D01*
X456593Y328033D01*
X457219Y327219D01*
X458033Y326593D01*
X458982Y326200D01*
X460000Y326066D01*
X461018Y326200D01*
X461967Y326593D01*
X462781Y327219D01*
X463407Y328033D01*
X463800Y328982D01*
X463934Y330000D01*
X463800Y331018D01*
X463407Y331967D01*
X462781Y332782D01*
X461967Y333407D01*
X461018Y333800D01*
X460000Y333934D01*
D02*
G37*
G36*
X450000Y343934D02*
X448982Y343800D01*
X448033Y343407D01*
X447219Y342781D01*
X446593Y341967D01*
X446200Y341018D01*
X446066Y340000D01*
X446200Y338982D01*
X446593Y338033D01*
X447219Y337218D01*
X448033Y336593D01*
X448982Y336200D01*
X450000Y336066D01*
X451018Y336200D01*
X451967Y336593D01*
X452781Y337218D01*
X453407Y338033D01*
X453800Y338982D01*
X453934Y340000D01*
X453800Y341018D01*
X453407Y341967D01*
X452781Y342781D01*
X451967Y343407D01*
X451018Y343800D01*
X450000Y343934D01*
D02*
G37*
G36*
X440000Y353934D02*
X438982Y353800D01*
X438033Y353407D01*
X437219Y352782D01*
X436593Y351967D01*
X436200Y351018D01*
X436066Y350000D01*
X436200Y348982D01*
X436593Y348033D01*
X437219Y347218D01*
X438033Y346593D01*
X438982Y346200D01*
X440000Y346066D01*
X441018Y346200D01*
X441967Y346593D01*
X442781Y347218D01*
X443407Y348033D01*
X443800Y348982D01*
X443934Y350000D01*
X443800Y351018D01*
X443407Y351967D01*
X442781Y352782D01*
X441967Y353407D01*
X441018Y353800D01*
X440000Y353934D01*
D02*
G37*
G36*
X450000D02*
X448982Y353800D01*
X448033Y353407D01*
X447219Y352782D01*
X446593Y351967D01*
X446200Y351018D01*
X446066Y350000D01*
X446200Y348982D01*
X446593Y348033D01*
X447219Y347218D01*
X448033Y346593D01*
X448982Y346200D01*
X450000Y346066D01*
X451018Y346200D01*
X451967Y346593D01*
X452781Y347218D01*
X453407Y348033D01*
X453800Y348982D01*
X453934Y350000D01*
X453800Y351018D01*
X453407Y351967D01*
X452781Y352782D01*
X451967Y353407D01*
X451018Y353800D01*
X450000Y353934D01*
D02*
G37*
G36*
X460000D02*
X458982Y353800D01*
X458033Y353407D01*
X457219Y352782D01*
X456593Y351967D01*
X456200Y351018D01*
X456066Y350000D01*
X456200Y348982D01*
X456593Y348033D01*
X457219Y347218D01*
X458033Y346593D01*
X458982Y346200D01*
X460000Y346066D01*
X461018Y346200D01*
X461967Y346593D01*
X462781Y347218D01*
X463407Y348033D01*
X463800Y348982D01*
X463934Y350000D01*
X463800Y351018D01*
X463407Y351967D01*
X462781Y352782D01*
X461967Y353407D01*
X461018Y353800D01*
X460000Y353934D01*
D02*
G37*
G36*
X490000D02*
X488982Y353800D01*
X488033Y353407D01*
X487219Y352782D01*
X486593Y351967D01*
X486200Y351018D01*
X486066Y350000D01*
X486200Y348982D01*
X486593Y348033D01*
X487219Y347218D01*
X488033Y346593D01*
X488982Y346200D01*
X490000Y346066D01*
X491018Y346200D01*
X491967Y346593D01*
X492781Y347218D01*
X493407Y348033D01*
X493800Y348982D01*
X493934Y350000D01*
X493800Y351018D01*
X493407Y351967D01*
X492781Y352782D01*
X491967Y353407D01*
X491018Y353800D01*
X490000Y353934D01*
D02*
G37*
G36*
X500000D02*
X498982Y353800D01*
X498033Y353407D01*
X497219Y352782D01*
X496593Y351967D01*
X496200Y351018D01*
X496066Y350000D01*
X496200Y348982D01*
X496593Y348033D01*
X497219Y347218D01*
X498033Y346593D01*
X498982Y346200D01*
X500000Y346066D01*
X501018Y346200D01*
X501967Y346593D01*
X502781Y347218D01*
X503407Y348033D01*
X503800Y348982D01*
X503934Y350000D01*
X503800Y351018D01*
X503407Y351967D01*
X502781Y352782D01*
X501967Y353407D01*
X501018Y353800D01*
X500000Y353934D01*
D02*
G37*
G36*
X470000D02*
X468982Y353800D01*
X468033Y353407D01*
X467218Y352782D01*
X466593Y351967D01*
X466200Y351018D01*
X466066Y350000D01*
X466200Y348982D01*
X466593Y348033D01*
X467218Y347218D01*
X468033Y346593D01*
X468982Y346200D01*
X470000Y346066D01*
X471018Y346200D01*
X471967Y346593D01*
X472782Y347218D01*
X473407Y348033D01*
X473800Y348982D01*
X473934Y350000D01*
X473800Y351018D01*
X473407Y351967D01*
X472782Y352782D01*
X471967Y353407D01*
X471018Y353800D01*
X470000Y353934D01*
D02*
G37*
G36*
X480000D02*
X478982Y353800D01*
X478033Y353407D01*
X477218Y352782D01*
X476593Y351967D01*
X476200Y351018D01*
X476066Y350000D01*
X476200Y348982D01*
X476593Y348033D01*
X477218Y347218D01*
X478033Y346593D01*
X478982Y346200D01*
X480000Y346066D01*
X481018Y346200D01*
X481967Y346593D01*
X482782Y347218D01*
X483407Y348033D01*
X483800Y348982D01*
X483934Y350000D01*
X483800Y351018D01*
X483407Y351967D01*
X482782Y352782D01*
X481967Y353407D01*
X481018Y353800D01*
X480000Y353934D01*
D02*
G37*
G36*
Y343934D02*
X478982Y343800D01*
X478033Y343407D01*
X477218Y342781D01*
X476593Y341967D01*
X476200Y341018D01*
X476066Y340000D01*
X476200Y338982D01*
X476593Y338033D01*
X477218Y337218D01*
X478033Y336593D01*
X478982Y336200D01*
X480000Y336066D01*
X481018Y336200D01*
X481967Y336593D01*
X482782Y337218D01*
X483407Y338033D01*
X483800Y338982D01*
X483934Y340000D01*
X483800Y341018D01*
X483407Y341967D01*
X482782Y342781D01*
X481967Y343407D01*
X481018Y343800D01*
X480000Y343934D01*
D02*
G37*
G36*
X490000D02*
X488982Y343800D01*
X488033Y343407D01*
X487219Y342781D01*
X486593Y341967D01*
X486200Y341018D01*
X486066Y340000D01*
X486200Y338982D01*
X486593Y338033D01*
X487219Y337218D01*
X488033Y336593D01*
X488982Y336200D01*
X490000Y336066D01*
X491018Y336200D01*
X491967Y336593D01*
X492781Y337218D01*
X493407Y338033D01*
X493800Y338982D01*
X493934Y340000D01*
X493800Y341018D01*
X493407Y341967D01*
X492781Y342781D01*
X491967Y343407D01*
X491018Y343800D01*
X490000Y343934D01*
D02*
G37*
G36*
X460000D02*
X458982Y343800D01*
X458033Y343407D01*
X457219Y342781D01*
X456593Y341967D01*
X456200Y341018D01*
X456066Y340000D01*
X456200Y338982D01*
X456593Y338033D01*
X457219Y337218D01*
X458033Y336593D01*
X458982Y336200D01*
X460000Y336066D01*
X461018Y336200D01*
X461967Y336593D01*
X462781Y337218D01*
X463407Y338033D01*
X463800Y338982D01*
X463934Y340000D01*
X463800Y341018D01*
X463407Y341967D01*
X462781Y342781D01*
X461967Y343407D01*
X461018Y343800D01*
X460000Y343934D01*
D02*
G37*
G36*
X470000D02*
X468982Y343800D01*
X468033Y343407D01*
X467218Y342781D01*
X466593Y341967D01*
X466200Y341018D01*
X466066Y340000D01*
X466200Y338982D01*
X466593Y338033D01*
X467218Y337218D01*
X468033Y336593D01*
X468982Y336200D01*
X470000Y336066D01*
X471018Y336200D01*
X471967Y336593D01*
X472782Y337218D01*
X473407Y338033D01*
X473800Y338982D01*
X473934Y340000D01*
X473800Y341018D01*
X473407Y341967D01*
X472782Y342781D01*
X471967Y343407D01*
X471018Y343800D01*
X470000Y343934D01*
D02*
G37*
G36*
X500000D02*
X498982Y343800D01*
X498033Y343407D01*
X497219Y342781D01*
X496593Y341967D01*
X496200Y341018D01*
X496066Y340000D01*
X496200Y338982D01*
X496593Y338033D01*
X497219Y337218D01*
X498033Y336593D01*
X498982Y336200D01*
X500000Y336066D01*
X501018Y336200D01*
X501967Y336593D01*
X502781Y337218D01*
X503407Y338033D01*
X503800Y338982D01*
X503934Y340000D01*
X503800Y341018D01*
X503407Y341967D01*
X502781Y342781D01*
X501967Y343407D01*
X501018Y343800D01*
X500000Y343934D01*
D02*
G37*
G36*
X460000Y313934D02*
X458982Y313800D01*
X458033Y313407D01*
X457219Y312782D01*
X456593Y311967D01*
X456200Y311018D01*
X456066Y310000D01*
X456200Y308982D01*
X456593Y308033D01*
X457219Y307219D01*
X458033Y306593D01*
X458982Y306200D01*
X460000Y306066D01*
X461018Y306200D01*
X461967Y306593D01*
X462781Y307219D01*
X463407Y308033D01*
X463800Y308982D01*
X463934Y310000D01*
X463800Y311018D01*
X463407Y311967D01*
X462781Y312782D01*
X461967Y313407D01*
X461018Y313800D01*
X460000Y313934D01*
D02*
G37*
G36*
X470000D02*
X468982Y313800D01*
X468033Y313407D01*
X467218Y312782D01*
X466593Y311967D01*
X466200Y311018D01*
X466066Y310000D01*
X466200Y308982D01*
X466593Y308033D01*
X467218Y307219D01*
X468033Y306593D01*
X468982Y306200D01*
X470000Y306066D01*
X471018Y306200D01*
X471967Y306593D01*
X472782Y307219D01*
X473407Y308033D01*
X473800Y308982D01*
X473934Y310000D01*
X473800Y311018D01*
X473407Y311967D01*
X472782Y312782D01*
X471967Y313407D01*
X471018Y313800D01*
X470000Y313934D01*
D02*
G37*
G36*
X440000D02*
X438982Y313800D01*
X438033Y313407D01*
X437219Y312782D01*
X436593Y311967D01*
X436200Y311018D01*
X436066Y310000D01*
X436200Y308982D01*
X436593Y308033D01*
X437219Y307219D01*
X438033Y306593D01*
X438982Y306200D01*
X440000Y306066D01*
X441018Y306200D01*
X441967Y306593D01*
X442781Y307219D01*
X443407Y308033D01*
X443800Y308982D01*
X443934Y310000D01*
X443800Y311018D01*
X443407Y311967D01*
X442781Y312782D01*
X441967Y313407D01*
X441018Y313800D01*
X440000Y313934D01*
D02*
G37*
G36*
X450000D02*
X448982Y313800D01*
X448033Y313407D01*
X447219Y312782D01*
X446593Y311967D01*
X446200Y311018D01*
X446066Y310000D01*
X446200Y308982D01*
X446593Y308033D01*
X447219Y307219D01*
X448033Y306593D01*
X448982Y306200D01*
X450000Y306066D01*
X451018Y306200D01*
X451967Y306593D01*
X452781Y307219D01*
X453407Y308033D01*
X453800Y308982D01*
X453934Y310000D01*
X453800Y311018D01*
X453407Y311967D01*
X452781Y312782D01*
X451967Y313407D01*
X451018Y313800D01*
X450000Y313934D01*
D02*
G37*
G36*
X480000D02*
X478982Y313800D01*
X478033Y313407D01*
X477218Y312782D01*
X476593Y311967D01*
X476200Y311018D01*
X476066Y310000D01*
X476200Y308982D01*
X476593Y308033D01*
X477218Y307219D01*
X478033Y306593D01*
X478982Y306200D01*
X480000Y306066D01*
X481018Y306200D01*
X481967Y306593D01*
X482782Y307219D01*
X483407Y308033D01*
X483800Y308982D01*
X483934Y310000D01*
X483800Y311018D01*
X483407Y311967D01*
X482782Y312782D01*
X481967Y313407D01*
X481018Y313800D01*
X480000Y313934D01*
D02*
G37*
G36*
X470000Y323934D02*
X468982Y323800D01*
X468033Y323407D01*
X467218Y322781D01*
X466593Y321967D01*
X466200Y321018D01*
X466066Y320000D01*
X466200Y318982D01*
X466593Y318033D01*
X467218Y317218D01*
X468033Y316593D01*
X468982Y316200D01*
X470000Y316066D01*
X471018Y316200D01*
X471967Y316593D01*
X472782Y317218D01*
X473407Y318033D01*
X473800Y318982D01*
X473934Y320000D01*
X473800Y321018D01*
X473407Y321967D01*
X472782Y322781D01*
X471967Y323407D01*
X471018Y323800D01*
X470000Y323934D01*
D02*
G37*
G36*
X480000D02*
X478982Y323800D01*
X478033Y323407D01*
X477218Y322781D01*
X476593Y321967D01*
X476200Y321018D01*
X476066Y320000D01*
X476200Y318982D01*
X476593Y318033D01*
X477218Y317218D01*
X478033Y316593D01*
X478982Y316200D01*
X480000Y316066D01*
X481018Y316200D01*
X481967Y316593D01*
X482782Y317218D01*
X483407Y318033D01*
X483800Y318982D01*
X483934Y320000D01*
X483800Y321018D01*
X483407Y321967D01*
X482782Y322781D01*
X481967Y323407D01*
X481018Y323800D01*
X480000Y323934D01*
D02*
G37*
G36*
X450000D02*
X448982Y323800D01*
X448033Y323407D01*
X447219Y322781D01*
X446593Y321967D01*
X446200Y321018D01*
X446066Y320000D01*
X446200Y318982D01*
X446593Y318033D01*
X447219Y317218D01*
X448033Y316593D01*
X448982Y316200D01*
X450000Y316066D01*
X451018Y316200D01*
X451967Y316593D01*
X452781Y317218D01*
X453407Y318033D01*
X453800Y318982D01*
X453934Y320000D01*
X453800Y321018D01*
X453407Y321967D01*
X452781Y322781D01*
X451967Y323407D01*
X451018Y323800D01*
X450000Y323934D01*
D02*
G37*
G36*
X460000D02*
X458982Y323800D01*
X458033Y323407D01*
X457219Y322781D01*
X456593Y321967D01*
X456200Y321018D01*
X456066Y320000D01*
X456200Y318982D01*
X456593Y318033D01*
X457219Y317218D01*
X458033Y316593D01*
X458982Y316200D01*
X460000Y316066D01*
X461018Y316200D01*
X461967Y316593D01*
X462781Y317218D01*
X463407Y318033D01*
X463800Y318982D01*
X463934Y320000D01*
X463800Y321018D01*
X463407Y321967D01*
X462781Y322781D01*
X461967Y323407D01*
X461018Y323800D01*
X460000Y323934D01*
D02*
G37*
G36*
X490000D02*
X488982Y323800D01*
X488033Y323407D01*
X487219Y322781D01*
X486593Y321967D01*
X486200Y321018D01*
X486066Y320000D01*
X486200Y318982D01*
X486593Y318033D01*
X487219Y317218D01*
X488033Y316593D01*
X488982Y316200D01*
X490000Y316066D01*
X491018Y316200D01*
X491967Y316593D01*
X492781Y317218D01*
X493407Y318033D01*
X493800Y318982D01*
X493934Y320000D01*
X493800Y321018D01*
X493407Y321967D01*
X492781Y322781D01*
X491967Y323407D01*
X491018Y323800D01*
X490000Y323934D01*
D02*
G37*
G36*
X500000D02*
X498982Y323800D01*
X498033Y323407D01*
X497219Y322781D01*
X496593Y321967D01*
X496200Y321018D01*
X496066Y320000D01*
X496200Y318982D01*
X496593Y318033D01*
X497219Y317218D01*
X498033Y316593D01*
X498982Y316200D01*
X500000Y316066D01*
X501018Y316200D01*
X501967Y316593D01*
X502781Y317218D01*
X503407Y318033D01*
X503800Y318982D01*
X503934Y320000D01*
X503800Y321018D01*
X503407Y321967D01*
X502781Y322781D01*
X501967Y323407D01*
X501018Y323800D01*
X500000Y323934D01*
D02*
G37*
G36*
X440000D02*
X438982Y323800D01*
X438033Y323407D01*
X437219Y322781D01*
X436593Y321967D01*
X436200Y321018D01*
X436066Y320000D01*
X436200Y318982D01*
X436593Y318033D01*
X437219Y317218D01*
X438033Y316593D01*
X438982Y316200D01*
X440000Y316066D01*
X441018Y316200D01*
X441967Y316593D01*
X442781Y317218D01*
X443407Y318033D01*
X443800Y318982D01*
X443934Y320000D01*
X443800Y321018D01*
X443407Y321967D01*
X442781Y322781D01*
X441967Y323407D01*
X441018Y323800D01*
X440000Y323934D01*
D02*
G37*
G36*
X490000Y313934D02*
X488982Y313800D01*
X488033Y313407D01*
X487219Y312782D01*
X486593Y311967D01*
X486200Y311018D01*
X486066Y310000D01*
X486200Y308982D01*
X486593Y308033D01*
X487219Y307219D01*
X488033Y306593D01*
X488982Y306200D01*
X490000Y306066D01*
X491018Y306200D01*
X491967Y306593D01*
X492781Y307219D01*
X493407Y308033D01*
X493800Y308982D01*
X493934Y310000D01*
X493800Y311018D01*
X493407Y311967D01*
X492781Y312782D01*
X491967Y313407D01*
X491018Y313800D01*
X490000Y313934D01*
D02*
G37*
G36*
X500000D02*
X498982Y313800D01*
X498033Y313407D01*
X497219Y312782D01*
X496593Y311967D01*
X496200Y311018D01*
X496066Y310000D01*
X496200Y308982D01*
X496593Y308033D01*
X497219Y307219D01*
X498033Y306593D01*
X498982Y306200D01*
X500000Y306066D01*
X501018Y306200D01*
X501967Y306593D01*
X502781Y307219D01*
X503407Y308033D01*
X503800Y308982D01*
X503934Y310000D01*
X503800Y311018D01*
X503407Y311967D01*
X502781Y312782D01*
X501967Y313407D01*
X501018Y313800D01*
X500000Y313934D01*
D02*
G37*
G36*
X390000Y243934D02*
X388982Y243800D01*
X388033Y243407D01*
X387218Y242781D01*
X386593Y241967D01*
X386200Y241018D01*
X386066Y240000D01*
X386200Y238982D01*
X386593Y238033D01*
X387218Y237218D01*
X388033Y236593D01*
X388982Y236200D01*
X390000Y236066D01*
X391018Y236200D01*
X391967Y236593D01*
X392781Y237218D01*
X393407Y238033D01*
X393800Y238982D01*
X393934Y240000D01*
X393800Y241018D01*
X393407Y241967D01*
X392781Y242781D01*
X391967Y243407D01*
X391018Y243800D01*
X390000Y243934D01*
D02*
G37*
G36*
X400000D02*
X398982Y243800D01*
X398033Y243407D01*
X397218Y242781D01*
X396593Y241967D01*
X396200Y241018D01*
X396066Y240000D01*
X396200Y238982D01*
X396593Y238033D01*
X397218Y237218D01*
X398033Y236593D01*
X398982Y236200D01*
X400000Y236066D01*
X401018Y236200D01*
X401967Y236593D01*
X402781Y237218D01*
X403407Y238033D01*
X403800Y238982D01*
X403934Y240000D01*
X403800Y241018D01*
X403407Y241967D01*
X402781Y242781D01*
X401967Y243407D01*
X401018Y243800D01*
X400000Y243934D01*
D02*
G37*
G36*
X370000D02*
X368982Y243800D01*
X368033Y243407D01*
X367218Y242781D01*
X366593Y241967D01*
X366200Y241018D01*
X366066Y240000D01*
X366200Y238982D01*
X366593Y238033D01*
X367218Y237218D01*
X368033Y236593D01*
X368982Y236200D01*
X370000Y236066D01*
X371018Y236200D01*
X371967Y236593D01*
X372781Y237218D01*
X373407Y238033D01*
X373800Y238982D01*
X373934Y240000D01*
X373800Y241018D01*
X373407Y241967D01*
X372781Y242781D01*
X371967Y243407D01*
X371018Y243800D01*
X370000Y243934D01*
D02*
G37*
G36*
X380000D02*
X378982Y243800D01*
X378033Y243407D01*
X377219Y242781D01*
X376593Y241967D01*
X376200Y241018D01*
X376066Y240000D01*
X376200Y238982D01*
X376593Y238033D01*
X377219Y237218D01*
X378033Y236593D01*
X378982Y236200D01*
X380000Y236066D01*
X381018Y236200D01*
X381967Y236593D01*
X382782Y237218D01*
X383407Y238033D01*
X383800Y238982D01*
X383934Y240000D01*
X383800Y241018D01*
X383407Y241967D01*
X382782Y242781D01*
X381967Y243407D01*
X381018Y243800D01*
X380000Y243934D01*
D02*
G37*
G36*
X410000D02*
X408982Y243800D01*
X408033Y243407D01*
X407219Y242781D01*
X406593Y241967D01*
X406200Y241018D01*
X406066Y240000D01*
X406200Y238982D01*
X406593Y238033D01*
X407219Y237218D01*
X408033Y236593D01*
X408982Y236200D01*
X410000Y236066D01*
X411018Y236200D01*
X411967Y236593D01*
X412781Y237218D01*
X413407Y238033D01*
X413800Y238982D01*
X413934Y240000D01*
X413800Y241018D01*
X413407Y241967D01*
X412781Y242781D01*
X411967Y243407D01*
X411018Y243800D01*
X410000Y243934D01*
D02*
G37*
G36*
X350000D02*
X348982Y243800D01*
X348033Y243407D01*
X347218Y242781D01*
X346593Y241967D01*
X346200Y241018D01*
X346066Y240000D01*
X346200Y238982D01*
X346593Y238033D01*
X347218Y237218D01*
X348033Y236593D01*
X348982Y236200D01*
X350000Y236066D01*
X351018Y236200D01*
X351967Y236593D01*
X352782Y237218D01*
X353407Y238033D01*
X353800Y238982D01*
X353934Y240000D01*
X353800Y241018D01*
X353407Y241967D01*
X352782Y242781D01*
X351967Y243407D01*
X351018Y243800D01*
X350000Y243934D01*
D02*
G37*
G36*
X360000D02*
X358982Y243800D01*
X358033Y243407D01*
X357219Y242781D01*
X356593Y241967D01*
X356200Y241018D01*
X356066Y240000D01*
X356200Y238982D01*
X356593Y238033D01*
X357219Y237218D01*
X358033Y236593D01*
X358982Y236200D01*
X360000Y236066D01*
X361018Y236200D01*
X361967Y236593D01*
X362782Y237218D01*
X363407Y238033D01*
X363800Y238982D01*
X363934Y240000D01*
X363800Y241018D01*
X363407Y241967D01*
X362782Y242781D01*
X361967Y243407D01*
X361018Y243800D01*
X360000Y243934D01*
D02*
G37*
G36*
X350000Y253934D02*
X348982Y253800D01*
X348033Y253407D01*
X347218Y252782D01*
X346593Y251967D01*
X346200Y251018D01*
X346066Y250000D01*
X346200Y248982D01*
X346593Y248033D01*
X347218Y247218D01*
X348033Y246593D01*
X348982Y246200D01*
X350000Y246066D01*
X351018Y246200D01*
X351967Y246593D01*
X352782Y247218D01*
X353407Y248033D01*
X353800Y248982D01*
X353934Y250000D01*
X353800Y251018D01*
X353407Y251967D01*
X352782Y252782D01*
X351967Y253407D01*
X351018Y253800D01*
X350000Y253934D01*
D02*
G37*
G36*
X360000D02*
X358982Y253800D01*
X358033Y253407D01*
X357219Y252782D01*
X356593Y251967D01*
X356200Y251018D01*
X356066Y250000D01*
X356200Y248982D01*
X356593Y248033D01*
X357219Y247218D01*
X358033Y246593D01*
X358982Y246200D01*
X360000Y246066D01*
X361018Y246200D01*
X361967Y246593D01*
X362782Y247218D01*
X363407Y248033D01*
X363800Y248982D01*
X363934Y250000D01*
X363800Y251018D01*
X363407Y251967D01*
X362782Y252782D01*
X361967Y253407D01*
X361018Y253800D01*
X360000Y253934D01*
D02*
G37*
G36*
X370000D02*
X368982Y253800D01*
X368033Y253407D01*
X367218Y252782D01*
X366593Y251967D01*
X366200Y251018D01*
X366066Y250000D01*
X366200Y248982D01*
X366593Y248033D01*
X367218Y247218D01*
X368033Y246593D01*
X368982Y246200D01*
X370000Y246066D01*
X371018Y246200D01*
X371967Y246593D01*
X372781Y247218D01*
X373407Y248033D01*
X373800Y248982D01*
X373934Y250000D01*
X373800Y251018D01*
X373407Y251967D01*
X372781Y252782D01*
X371967Y253407D01*
X371018Y253800D01*
X370000Y253934D01*
D02*
G37*
G36*
X400000D02*
X398982Y253800D01*
X398033Y253407D01*
X397218Y252782D01*
X396593Y251967D01*
X396200Y251018D01*
X396066Y250000D01*
X396200Y248982D01*
X396593Y248033D01*
X397218Y247218D01*
X398033Y246593D01*
X398982Y246200D01*
X400000Y246066D01*
X401018Y246200D01*
X401967Y246593D01*
X402781Y247218D01*
X403407Y248033D01*
X403800Y248982D01*
X403934Y250000D01*
X403800Y251018D01*
X403407Y251967D01*
X402781Y252782D01*
X401967Y253407D01*
X401018Y253800D01*
X400000Y253934D01*
D02*
G37*
G36*
X410000D02*
X408982Y253800D01*
X408033Y253407D01*
X407219Y252782D01*
X406593Y251967D01*
X406200Y251018D01*
X406066Y250000D01*
X406200Y248982D01*
X406593Y248033D01*
X407219Y247218D01*
X408033Y246593D01*
X408982Y246200D01*
X410000Y246066D01*
X411018Y246200D01*
X411967Y246593D01*
X412781Y247218D01*
X413407Y248033D01*
X413800Y248982D01*
X413934Y250000D01*
X413800Y251018D01*
X413407Y251967D01*
X412781Y252782D01*
X411967Y253407D01*
X411018Y253800D01*
X410000Y253934D01*
D02*
G37*
G36*
X380000D02*
X378982Y253800D01*
X378033Y253407D01*
X377219Y252782D01*
X376593Y251967D01*
X376200Y251018D01*
X376066Y250000D01*
X376200Y248982D01*
X376593Y248033D01*
X377219Y247218D01*
X378033Y246593D01*
X378982Y246200D01*
X380000Y246066D01*
X381018Y246200D01*
X381967Y246593D01*
X382782Y247218D01*
X383407Y248033D01*
X383800Y248982D01*
X383934Y250000D01*
X383800Y251018D01*
X383407Y251967D01*
X382782Y252782D01*
X381967Y253407D01*
X381018Y253800D01*
X380000Y253934D01*
D02*
G37*
G36*
X390000D02*
X388982Y253800D01*
X388033Y253407D01*
X387218Y252782D01*
X386593Y251967D01*
X386200Y251018D01*
X386066Y250000D01*
X386200Y248982D01*
X386593Y248033D01*
X387218Y247218D01*
X388033Y246593D01*
X388982Y246200D01*
X390000Y246066D01*
X391018Y246200D01*
X391967Y246593D01*
X392781Y247218D01*
X393407Y248033D01*
X393800Y248982D01*
X393934Y250000D01*
X393800Y251018D01*
X393407Y251967D01*
X392781Y252782D01*
X391967Y253407D01*
X391018Y253800D01*
X390000Y253934D01*
D02*
G37*
G36*
X410000Y233934D02*
X408982Y233800D01*
X408033Y233407D01*
X407219Y232782D01*
X406593Y231967D01*
X406200Y231018D01*
X406066Y230000D01*
X406200Y228982D01*
X406593Y228033D01*
X407219Y227219D01*
X408033Y226593D01*
X408982Y226200D01*
X410000Y226066D01*
X411018Y226200D01*
X411967Y226593D01*
X412781Y227219D01*
X413407Y228033D01*
X413800Y228982D01*
X413934Y230000D01*
X413800Y231018D01*
X413407Y231967D01*
X412781Y232782D01*
X411967Y233407D01*
X411018Y233800D01*
X410000Y233934D01*
D02*
G37*
G36*
Y213934D02*
X408982Y213800D01*
X408033Y213407D01*
X407219Y212782D01*
X406593Y211967D01*
X406200Y211018D01*
X406066Y210000D01*
X406200Y208982D01*
X406593Y208033D01*
X407219Y207219D01*
X408033Y206593D01*
X408982Y206200D01*
X410000Y206066D01*
X411018Y206200D01*
X411967Y206593D01*
X412781Y207219D01*
X413407Y208033D01*
X413800Y208982D01*
X413934Y210000D01*
X413800Y211018D01*
X413407Y211967D01*
X412781Y212782D01*
X411967Y213407D01*
X411018Y213800D01*
X410000Y213934D01*
D02*
G37*
G36*
X350000Y223934D02*
X348982Y223800D01*
X348033Y223407D01*
X347218Y222781D01*
X346593Y221967D01*
X346200Y221018D01*
X346066Y220000D01*
X346200Y218982D01*
X346593Y218033D01*
X347218Y217218D01*
X348033Y216593D01*
X348982Y216200D01*
X350000Y216066D01*
X351018Y216200D01*
X351967Y216593D01*
X352782Y217218D01*
X353407Y218033D01*
X353800Y218982D01*
X353934Y220000D01*
X353800Y221018D01*
X353407Y221967D01*
X352782Y222781D01*
X351967Y223407D01*
X351018Y223800D01*
X350000Y223934D01*
D02*
G37*
G36*
X400000Y213934D02*
X398982Y213800D01*
X398033Y213407D01*
X397218Y212782D01*
X396593Y211967D01*
X396200Y211018D01*
X396066Y210000D01*
X396200Y208982D01*
X396593Y208033D01*
X397218Y207219D01*
X398033Y206593D01*
X398982Y206200D01*
X400000Y206066D01*
X401018Y206200D01*
X401967Y206593D01*
X402781Y207219D01*
X403407Y208033D01*
X403800Y208982D01*
X403934Y210000D01*
X403800Y211018D01*
X403407Y211967D01*
X402781Y212782D01*
X401967Y213407D01*
X401018Y213800D01*
X400000Y213934D01*
D02*
G37*
G36*
X420000Y203934D02*
X418982Y203800D01*
X418033Y203407D01*
X417218Y202782D01*
X416593Y201967D01*
X416200Y201018D01*
X416066Y200000D01*
X416200Y198982D01*
X416593Y198033D01*
X417218Y197219D01*
X418033Y196593D01*
X418982Y196200D01*
X420000Y196066D01*
X421018Y196200D01*
X421967Y196593D01*
X422782Y197219D01*
X423407Y198033D01*
X423800Y198982D01*
X423934Y200000D01*
X423800Y201018D01*
X423407Y201967D01*
X422782Y202782D01*
X421967Y203407D01*
X421018Y203800D01*
X420000Y203934D01*
D02*
G37*
G36*
X430000D02*
X428982Y203800D01*
X428033Y203407D01*
X427218Y202782D01*
X426593Y201967D01*
X426200Y201018D01*
X426066Y200000D01*
X426200Y198982D01*
X426593Y198033D01*
X427218Y197219D01*
X428033Y196593D01*
X428982Y196200D01*
X430000Y196066D01*
X431018Y196200D01*
X431967Y196593D01*
X432782Y197219D01*
X433407Y198033D01*
X433800Y198982D01*
X433934Y200000D01*
X433800Y201018D01*
X433407Y201967D01*
X432782Y202782D01*
X431967Y203407D01*
X431018Y203800D01*
X430000Y203934D01*
D02*
G37*
G36*
X420000Y193934D02*
X418982Y193800D01*
X418033Y193407D01*
X417218Y192781D01*
X416593Y191967D01*
X416200Y191018D01*
X416066Y190000D01*
X416200Y188982D01*
X416593Y188033D01*
X417218Y187218D01*
X418033Y186593D01*
X418982Y186200D01*
X420000Y186066D01*
X421018Y186200D01*
X421967Y186593D01*
X422782Y187218D01*
X423407Y188033D01*
X423800Y188982D01*
X423934Y190000D01*
X423800Y191018D01*
X423407Y191967D01*
X422782Y192781D01*
X421967Y193407D01*
X421018Y193800D01*
X420000Y193934D01*
D02*
G37*
G36*
X430000D02*
X428982Y193800D01*
X428033Y193407D01*
X427218Y192781D01*
X426593Y191967D01*
X426200Y191018D01*
X426066Y190000D01*
X426200Y188982D01*
X426593Y188033D01*
X427218Y187218D01*
X428033Y186593D01*
X428982Y186200D01*
X430000Y186066D01*
X431018Y186200D01*
X431967Y186593D01*
X432782Y187218D01*
X433407Y188033D01*
X433800Y188982D01*
X433934Y190000D01*
X433800Y191018D01*
X433407Y191967D01*
X432782Y192781D01*
X431967Y193407D01*
X431018Y193800D01*
X430000Y193934D01*
D02*
G37*
G36*
X350000Y213934D02*
X348982Y213800D01*
X348033Y213407D01*
X347218Y212782D01*
X346593Y211967D01*
X346200Y211018D01*
X346066Y210000D01*
X346200Y208982D01*
X346593Y208033D01*
X347218Y207219D01*
X348033Y206593D01*
X348982Y206200D01*
X350000Y206066D01*
X351018Y206200D01*
X351967Y206593D01*
X352782Y207219D01*
X353407Y208033D01*
X353800Y208982D01*
X353934Y210000D01*
X353800Y211018D01*
X353407Y211967D01*
X352782Y212782D01*
X351967Y213407D01*
X351018Y213800D01*
X350000Y213934D01*
D02*
G37*
G36*
X380000D02*
X378982Y213800D01*
X378033Y213407D01*
X377219Y212782D01*
X376593Y211967D01*
X376200Y211018D01*
X376066Y210000D01*
X376200Y208982D01*
X376593Y208033D01*
X377219Y207219D01*
X378033Y206593D01*
X378982Y206200D01*
X380000Y206066D01*
X381018Y206200D01*
X381967Y206593D01*
X382782Y207219D01*
X383407Y208033D01*
X383800Y208982D01*
X383934Y210000D01*
X383800Y211018D01*
X383407Y211967D01*
X382782Y212782D01*
X381967Y213407D01*
X381018Y213800D01*
X380000Y213934D01*
D02*
G37*
G36*
X390000D02*
X388982Y213800D01*
X388033Y213407D01*
X387218Y212782D01*
X386593Y211967D01*
X386200Y211018D01*
X386066Y210000D01*
X386200Y208982D01*
X386593Y208033D01*
X387218Y207219D01*
X388033Y206593D01*
X388982Y206200D01*
X390000Y206066D01*
X391018Y206200D01*
X391967Y206593D01*
X392781Y207219D01*
X393407Y208033D01*
X393800Y208982D01*
X393934Y210000D01*
X393800Y211018D01*
X393407Y211967D01*
X392781Y212782D01*
X391967Y213407D01*
X391018Y213800D01*
X390000Y213934D01*
D02*
G37*
G36*
X360000D02*
X358982Y213800D01*
X358033Y213407D01*
X357219Y212782D01*
X356593Y211967D01*
X356200Y211018D01*
X356066Y210000D01*
X356200Y208982D01*
X356593Y208033D01*
X357219Y207219D01*
X358033Y206593D01*
X358982Y206200D01*
X360000Y206066D01*
X361018Y206200D01*
X361967Y206593D01*
X362782Y207219D01*
X363407Y208033D01*
X363800Y208982D01*
X363934Y210000D01*
X363800Y211018D01*
X363407Y211967D01*
X362782Y212782D01*
X361967Y213407D01*
X361018Y213800D01*
X360000Y213934D01*
D02*
G37*
G36*
X370000D02*
X368982Y213800D01*
X368033Y213407D01*
X367218Y212782D01*
X366593Y211967D01*
X366200Y211018D01*
X366066Y210000D01*
X366200Y208982D01*
X366593Y208033D01*
X367218Y207219D01*
X368033Y206593D01*
X368982Y206200D01*
X370000Y206066D01*
X371018Y206200D01*
X371967Y206593D01*
X372781Y207219D01*
X373407Y208033D01*
X373800Y208982D01*
X373934Y210000D01*
X373800Y211018D01*
X373407Y211967D01*
X372781Y212782D01*
X371967Y213407D01*
X371018Y213800D01*
X370000Y213934D01*
D02*
G37*
G36*
X350000Y233934D02*
X348982Y233800D01*
X348033Y233407D01*
X347218Y232782D01*
X346593Y231967D01*
X346200Y231018D01*
X346066Y230000D01*
X346200Y228982D01*
X346593Y228033D01*
X347218Y227219D01*
X348033Y226593D01*
X348982Y226200D01*
X350000Y226066D01*
X351018Y226200D01*
X351967Y226593D01*
X352782Y227219D01*
X353407Y228033D01*
X353800Y228982D01*
X353934Y230000D01*
X353800Y231018D01*
X353407Y231967D01*
X352782Y232782D01*
X351967Y233407D01*
X351018Y233800D01*
X350000Y233934D01*
D02*
G37*
G36*
X360000D02*
X358982Y233800D01*
X358033Y233407D01*
X357219Y232782D01*
X356593Y231967D01*
X356200Y231018D01*
X356066Y230000D01*
X356200Y228982D01*
X356593Y228033D01*
X357219Y227219D01*
X358033Y226593D01*
X358982Y226200D01*
X360000Y226066D01*
X361018Y226200D01*
X361967Y226593D01*
X362782Y227219D01*
X363407Y228033D01*
X363800Y228982D01*
X363934Y230000D01*
X363800Y231018D01*
X363407Y231967D01*
X362782Y232782D01*
X361967Y233407D01*
X361018Y233800D01*
X360000Y233934D01*
D02*
G37*
G36*
X390000D02*
X388982Y233800D01*
X388033Y233407D01*
X387218Y232782D01*
X386593Y231967D01*
X386200Y231018D01*
X386066Y230000D01*
X386200Y228982D01*
X386593Y228033D01*
X387218Y227219D01*
X388033Y226593D01*
X388982Y226200D01*
X390000Y226066D01*
X391018Y226200D01*
X391967Y226593D01*
X392781Y227219D01*
X393407Y228033D01*
X393800Y228982D01*
X393934Y230000D01*
X393800Y231018D01*
X393407Y231967D01*
X392781Y232782D01*
X391967Y233407D01*
X391018Y233800D01*
X390000Y233934D01*
D02*
G37*
G36*
X400000D02*
X398982Y233800D01*
X398033Y233407D01*
X397218Y232782D01*
X396593Y231967D01*
X396200Y231018D01*
X396066Y230000D01*
X396200Y228982D01*
X396593Y228033D01*
X397218Y227219D01*
X398033Y226593D01*
X398982Y226200D01*
X400000Y226066D01*
X401018Y226200D01*
X401967Y226593D01*
X402781Y227219D01*
X403407Y228033D01*
X403800Y228982D01*
X403934Y230000D01*
X403800Y231018D01*
X403407Y231967D01*
X402781Y232782D01*
X401967Y233407D01*
X401018Y233800D01*
X400000Y233934D01*
D02*
G37*
G36*
X370000D02*
X368982Y233800D01*
X368033Y233407D01*
X367218Y232782D01*
X366593Y231967D01*
X366200Y231018D01*
X366066Y230000D01*
X366200Y228982D01*
X366593Y228033D01*
X367218Y227219D01*
X368033Y226593D01*
X368982Y226200D01*
X370000Y226066D01*
X371018Y226200D01*
X371967Y226593D01*
X372781Y227219D01*
X373407Y228033D01*
X373800Y228982D01*
X373934Y230000D01*
X373800Y231018D01*
X373407Y231967D01*
X372781Y232782D01*
X371967Y233407D01*
X371018Y233800D01*
X370000Y233934D01*
D02*
G37*
G36*
X380000D02*
X378982Y233800D01*
X378033Y233407D01*
X377219Y232782D01*
X376593Y231967D01*
X376200Y231018D01*
X376066Y230000D01*
X376200Y228982D01*
X376593Y228033D01*
X377219Y227219D01*
X378033Y226593D01*
X378982Y226200D01*
X380000Y226066D01*
X381018Y226200D01*
X381967Y226593D01*
X382782Y227219D01*
X383407Y228033D01*
X383800Y228982D01*
X383934Y230000D01*
X383800Y231018D01*
X383407Y231967D01*
X382782Y232782D01*
X381967Y233407D01*
X381018Y233800D01*
X380000Y233934D01*
D02*
G37*
G36*
Y223934D02*
X378982Y223800D01*
X378033Y223407D01*
X377219Y222781D01*
X376593Y221967D01*
X376200Y221018D01*
X376066Y220000D01*
X376200Y218982D01*
X376593Y218033D01*
X377219Y217218D01*
X378033Y216593D01*
X378982Y216200D01*
X380000Y216066D01*
X381018Y216200D01*
X381967Y216593D01*
X382782Y217218D01*
X383407Y218033D01*
X383800Y218982D01*
X383934Y220000D01*
X383800Y221018D01*
X383407Y221967D01*
X382782Y222781D01*
X381967Y223407D01*
X381018Y223800D01*
X380000Y223934D01*
D02*
G37*
G36*
X390000D02*
X388982Y223800D01*
X388033Y223407D01*
X387218Y222781D01*
X386593Y221967D01*
X386200Y221018D01*
X386066Y220000D01*
X386200Y218982D01*
X386593Y218033D01*
X387218Y217218D01*
X388033Y216593D01*
X388982Y216200D01*
X390000Y216066D01*
X391018Y216200D01*
X391967Y216593D01*
X392781Y217218D01*
X393407Y218033D01*
X393800Y218982D01*
X393934Y220000D01*
X393800Y221018D01*
X393407Y221967D01*
X392781Y222781D01*
X391967Y223407D01*
X391018Y223800D01*
X390000Y223934D01*
D02*
G37*
G36*
X360000D02*
X358982Y223800D01*
X358033Y223407D01*
X357219Y222781D01*
X356593Y221967D01*
X356200Y221018D01*
X356066Y220000D01*
X356200Y218982D01*
X356593Y218033D01*
X357219Y217218D01*
X358033Y216593D01*
X358982Y216200D01*
X360000Y216066D01*
X361018Y216200D01*
X361967Y216593D01*
X362782Y217218D01*
X363407Y218033D01*
X363800Y218982D01*
X363934Y220000D01*
X363800Y221018D01*
X363407Y221967D01*
X362782Y222781D01*
X361967Y223407D01*
X361018Y223800D01*
X360000Y223934D01*
D02*
G37*
G36*
X370000D02*
X368982Y223800D01*
X368033Y223407D01*
X367218Y222781D01*
X366593Y221967D01*
X366200Y221018D01*
X366066Y220000D01*
X366200Y218982D01*
X366593Y218033D01*
X367218Y217218D01*
X368033Y216593D01*
X368982Y216200D01*
X370000Y216066D01*
X371018Y216200D01*
X371967Y216593D01*
X372781Y217218D01*
X373407Y218033D01*
X373800Y218982D01*
X373934Y220000D01*
X373800Y221018D01*
X373407Y221967D01*
X372781Y222781D01*
X371967Y223407D01*
X371018Y223800D01*
X370000Y223934D01*
D02*
G37*
G36*
X400000D02*
X398982Y223800D01*
X398033Y223407D01*
X397218Y222781D01*
X396593Y221967D01*
X396200Y221018D01*
X396066Y220000D01*
X396200Y218982D01*
X396593Y218033D01*
X397218Y217218D01*
X398033Y216593D01*
X398982Y216200D01*
X400000Y216066D01*
X401018Y216200D01*
X401967Y216593D01*
X402781Y217218D01*
X403407Y218033D01*
X403800Y218982D01*
X403934Y220000D01*
X403800Y221018D01*
X403407Y221967D01*
X402781Y222781D01*
X401967Y223407D01*
X401018Y223800D01*
X400000Y223934D01*
D02*
G37*
G36*
X410000D02*
X408982Y223800D01*
X408033Y223407D01*
X407219Y222781D01*
X406593Y221967D01*
X406200Y221018D01*
X406066Y220000D01*
X406200Y218982D01*
X406593Y218033D01*
X407219Y217218D01*
X408033Y216593D01*
X408982Y216200D01*
X410000Y216066D01*
X411018Y216200D01*
X411967Y216593D01*
X412781Y217218D01*
X413407Y218033D01*
X413800Y218982D01*
X413934Y220000D01*
X413800Y221018D01*
X413407Y221967D01*
X412781Y222781D01*
X411967Y223407D01*
X411018Y223800D01*
X410000Y223934D01*
D02*
G37*
%LPD*%
D11*
X415000Y155000D02*
Y157500D01*
Y182500D02*
Y355000D01*
X435000Y155000D02*
Y355000D01*
X325000Y155000D02*
X525000D01*
X325000Y205000D02*
X525000D01*
X325000Y255000D02*
X525000D01*
X325000Y305000D02*
X525000D01*
X325000Y355000D02*
X525000D01*
X359500Y392099D02*
Y395598D01*
X357751D01*
X357167Y395014D01*
Y393848D01*
X357751Y393265D01*
X359500D01*
X358334D02*
X357167Y392099D01*
X355418D02*
X354252D01*
X353669Y392682D01*
Y393848D01*
X354252Y394431D01*
X355418D01*
X356001Y393848D01*
Y392682D01*
X355418Y392099D01*
X352502Y395598D02*
Y392099D01*
Y393848D01*
X350170D01*
Y395598D01*
Y392099D01*
X346671Y395014D02*
X347254Y395598D01*
X348420D01*
X349003Y395014D01*
Y394431D01*
X348420Y393848D01*
X347254D01*
X346671Y393265D01*
Y392682D01*
X347254Y392099D01*
X348420D01*
X349003Y392682D01*
X359500Y385500D02*
Y388999D01*
X357751D01*
X357167Y388416D01*
Y387249D01*
X357751Y386666D01*
X359500D01*
X356001Y388999D02*
Y385500D01*
X354252D01*
X353669Y386083D01*
Y386666D01*
X354252Y387249D01*
X356001D01*
X354252D01*
X353669Y387833D01*
Y388416D01*
X354252Y388999D01*
X356001D01*
X352502Y387249D02*
X350170D01*
X346671Y388999D02*
X349003D01*
Y387249D01*
X347837D01*
X349003D01*
Y385500D01*
X345504Y387833D02*
Y385500D01*
Y386666D01*
X344921Y387249D01*
X344338Y387833D01*
X343755D01*
X340256Y385500D02*
X341423D01*
X342006Y386083D01*
Y387249D01*
X341423Y387833D01*
X340256D01*
X339673Y387249D01*
Y386666D01*
X342006D01*
X336757Y385500D02*
X337924D01*
X338507Y386083D01*
Y387249D01*
X337924Y387833D01*
X336757D01*
X336174Y387249D01*
Y386666D01*
X338507D01*
X517500Y360000D02*
X519833D01*
Y361749D01*
X519249Y362333D01*
X517500D01*
Y365248D02*
Y364082D01*
X518083Y363499D01*
X519249D01*
X519833Y364082D01*
Y365248D01*
X519249Y365831D01*
X518666D01*
Y363499D01*
X519833Y366998D02*
X518083D01*
X517500Y367581D01*
X518083Y368164D01*
X517500Y368747D01*
X518083Y369330D01*
X519833D01*
Y371080D02*
Y372246D01*
X519249Y372829D01*
X517500D01*
Y371080D01*
X518083Y370497D01*
X518666Y371080D01*
Y372829D01*
X517500Y375745D02*
Y374579D01*
X518083Y373995D01*
X519249D01*
X519833Y374579D01*
Y375745D01*
X519249Y376328D01*
X518666D01*
Y373995D01*
X517500Y377494D02*
X518083D01*
Y378078D01*
X517500D01*
Y377494D01*
X519833Y382743D02*
Y380993D01*
X519249Y380410D01*
X518083D01*
X517500Y380993D01*
Y382743D01*
Y384492D02*
Y385658D01*
X518083Y386242D01*
X519249D01*
X519833Y385658D01*
Y384492D01*
X519249Y383909D01*
X518083D01*
X517500Y384492D01*
Y387408D02*
X519833D01*
Y387991D01*
X519249Y388574D01*
X517500D01*
X519249D01*
X519833Y389157D01*
X519249Y389740D01*
X517500D01*
X512500Y387500D02*
Y390999D01*
X510167Y387500D01*
Y390999D01*
X507252Y387500D02*
X508418D01*
X509001Y388083D01*
Y389249D01*
X508418Y389833D01*
X507252D01*
X506669Y389249D01*
Y388666D01*
X509001D01*
X505502Y389833D02*
Y388083D01*
X504919Y387500D01*
X504336Y388083D01*
X503753Y387500D01*
X503170Y388083D01*
Y389833D01*
X502003Y387500D02*
Y389833D01*
X500837Y390999D01*
X499671Y389833D01*
Y387500D01*
Y389249D01*
X502003D01*
X496172Y390999D02*
X498504D01*
Y387500D01*
X496172D01*
X498504Y389249D02*
X497338D01*
X491507Y390999D02*
X489174D01*
X490341D01*
Y387500D01*
X486259D02*
X487425D01*
X488008Y388083D01*
Y389249D01*
X487425Y389833D01*
X486259D01*
X485675Y389249D01*
Y388666D01*
X488008D01*
X482176Y389833D02*
X483926D01*
X484509Y389249D01*
Y388083D01*
X483926Y387500D01*
X482176D01*
X481010Y390999D02*
Y387500D01*
Y389249D01*
X480427Y389833D01*
X479261D01*
X478678Y389249D01*
Y387500D01*
X477511D02*
Y388083D01*
X476928D01*
Y387500D01*
X477511D01*
X330916Y360333D02*
X331499Y359749D01*
Y358583D01*
X330916Y358000D01*
X328583D01*
X328000Y358583D01*
Y359749D01*
X328583Y360333D01*
X331499Y361499D02*
X328000D01*
X329166Y362665D01*
X328000Y363831D01*
X331499D01*
X330916Y364998D02*
X331499Y365581D01*
Y366747D01*
X330916Y367330D01*
X330333D01*
X329749Y366747D01*
Y366164D01*
Y366747D01*
X329166Y367330D01*
X328583D01*
X328000Y366747D01*
Y365581D01*
X328583Y364998D01*
X330916Y368497D02*
X331499Y369080D01*
Y370246D01*
X330916Y370829D01*
X328583D01*
X328000Y370246D01*
Y369080D01*
X328583Y368497D01*
X330916D01*
Y371995D02*
X331499Y372579D01*
Y373745D01*
X330916Y374328D01*
X330333D01*
X329749Y373745D01*
X329166Y374328D01*
X328583D01*
X328000Y373745D01*
Y372579D01*
X328583Y371995D01*
X329166D01*
X329749Y372579D01*
X330333Y371995D01*
X330916D01*
X329749Y372579D02*
Y373745D01*
X331499Y375494D02*
Y377827D01*
Y376661D01*
X328000D01*
X329749Y378993D02*
Y381326D01*
X328000Y384825D02*
Y382492D01*
X330333Y384825D01*
X330916D01*
X331499Y384242D01*
Y383075D01*
X330916Y382492D01*
X331499Y388323D02*
Y385991D01*
X329749D01*
X330333Y387157D01*
Y387740D01*
X329749Y388323D01*
X328583D01*
X328000Y387740D01*
Y386574D01*
X328583Y385991D01*
X328000Y389490D02*
X328583D01*
Y390073D01*
X328000D01*
Y389490D01*
Y394155D02*
X331499D01*
X329749Y392406D01*
Y394738D01*
M02*
