G04*
G04 #@! TF.GenerationSoftware,Altium Limited,Altium Designer,22.9.1 (49)*
G04*
G04 Layer_Color=8388736*
%FSLAX25Y25*%
%MOIN*%
G70*
G04*
G04 #@! TF.SameCoordinates,F39438FC-3B75-4A19-992D-F472731E60C8*
G04*
G04*
G04 #@! TF.FilePolarity,Negative*
G04*
G01*
G75*
%ADD27R,0.10236X0.06299*%
%ADD28R,1.37008X0.23524*%
%ADD29C,0.10512*%
G04:AMPARAMS|DCode=30|XSize=47.37mil|YSize=43.43mil|CornerRadius=8.43mil|HoleSize=0mil|Usage=FLASHONLY|Rotation=270.000|XOffset=0mil|YOffset=0mil|HoleType=Round|Shape=RoundedRectangle|*
%AMROUNDEDRECTD30*
21,1,0.04737,0.02657,0,0,270.0*
21,1,0.03051,0.04343,0,0,270.0*
1,1,0.01686,-0.01329,-0.01526*
1,1,0.01686,-0.01329,0.01526*
1,1,0.01686,0.01329,0.01526*
1,1,0.01686,0.01329,-0.01526*
%
%ADD30ROUNDEDRECTD30*%
%ADD31R,0.03300X0.05800*%
%ADD32O,0.01784X0.05524*%
G04:AMPARAMS|DCode=33|XSize=47.37mil|YSize=43.43mil|CornerRadius=8.43mil|HoleSize=0mil|Usage=FLASHONLY|Rotation=0.000|XOffset=0mil|YOffset=0mil|HoleType=Round|Shape=RoundedRectangle|*
%AMROUNDEDRECTD33*
21,1,0.04737,0.02657,0,0,0.0*
21,1,0.03051,0.04343,0,0,0.0*
1,1,0.01686,0.01526,-0.01329*
1,1,0.01686,-0.01526,-0.01329*
1,1,0.01686,-0.01526,0.01329*
1,1,0.01686,0.01526,0.01329*
%
%ADD33ROUNDEDRECTD33*%
%ADD34R,0.03556X0.17335*%
%ADD35O,0.05524X0.01784*%
%ADD36R,0.16942X0.16942*%
%ADD37R,0.04540X0.03753*%
%ADD38R,0.03753X0.04540*%
%ADD39R,0.03556X0.17335*%
%ADD40C,0.21666*%
%ADD41C,0.02200*%
%ADD42C,0.02400*%
%ADD43C,0.03200*%
D27*
X394565Y286163D02*
D03*
D28*
X425295Y381456D02*
D03*
D29*
X320000Y210000D02*
D03*
Y365000D02*
D03*
X530000Y210000D02*
D03*
D30*
X375654Y322669D02*
D03*
X382347D02*
D03*
X466347Y270756D02*
D03*
X459654D02*
D03*
X466653Y332500D02*
D03*
X473347D02*
D03*
D31*
X391368Y286163D02*
D03*
X394611D02*
D03*
X397856D02*
D03*
D32*
X425016Y289425D02*
D03*
X436827Y317575D02*
D03*
X434858D02*
D03*
X432890D02*
D03*
X430921D02*
D03*
X428953D02*
D03*
X426984D02*
D03*
X425016D02*
D03*
X423047D02*
D03*
X421079D02*
D03*
X419110D02*
D03*
X417142D02*
D03*
X415173D02*
D03*
Y289425D02*
D03*
X417142D02*
D03*
X419110D02*
D03*
X421079D02*
D03*
X423047D02*
D03*
X426984D02*
D03*
X428953D02*
D03*
X430921D02*
D03*
X432890D02*
D03*
X434858D02*
D03*
X436827D02*
D03*
D33*
X428953Y269847D02*
D03*
X379000Y342834D02*
D03*
Y336141D02*
D03*
X428953Y263154D02*
D03*
D34*
X387894Y378454D02*
D03*
X380020D02*
D03*
X399705D02*
D03*
X372146D02*
D03*
X391831D02*
D03*
X383957D02*
D03*
X376083D02*
D03*
X368209D02*
D03*
X395768D02*
D03*
X411516D02*
D03*
X407579D02*
D03*
X403642D02*
D03*
X360335D02*
D03*
X490256D02*
D03*
X486319D02*
D03*
X458760D02*
D03*
X470571D02*
D03*
X482382D02*
D03*
X462697D02*
D03*
X478445D02*
D03*
X474508D02*
D03*
X466634D02*
D03*
X454823D02*
D03*
X450886D02*
D03*
X435138D02*
D03*
X415453D02*
D03*
X431201D02*
D03*
X423327D02*
D03*
X427264D02*
D03*
X439075D02*
D03*
D35*
X440075Y292673D02*
D03*
Y294642D02*
D03*
Y296610D02*
D03*
Y298579D02*
D03*
Y300547D02*
D03*
Y302516D02*
D03*
Y304484D02*
D03*
Y306453D02*
D03*
Y308421D02*
D03*
Y310390D02*
D03*
Y312358D02*
D03*
Y314327D02*
D03*
X411925D02*
D03*
Y312358D02*
D03*
Y310390D02*
D03*
Y308421D02*
D03*
Y306453D02*
D03*
Y304484D02*
D03*
Y302516D02*
D03*
Y300547D02*
D03*
Y298579D02*
D03*
Y296610D02*
D03*
Y294642D02*
D03*
Y292673D02*
D03*
D36*
X426000Y303500D02*
D03*
D37*
X502319Y332500D02*
D03*
Y326988D02*
D03*
X494319Y332756D02*
D03*
Y327244D02*
D03*
X485319Y332756D02*
D03*
Y327244D02*
D03*
X450500Y265244D02*
D03*
Y270756D02*
D03*
X443000Y265244D02*
D03*
Y270756D02*
D03*
X427000Y330744D02*
D03*
Y336256D02*
D03*
X422000Y270256D02*
D03*
Y264744D02*
D03*
X435719Y264462D02*
D03*
Y269973D02*
D03*
D38*
X454365Y346296D02*
D03*
X459877D02*
D03*
X461516Y316500D02*
D03*
X456004D02*
D03*
X388744Y299000D02*
D03*
X394256D02*
D03*
D39*
X364272Y378454D02*
D03*
X419390D02*
D03*
D40*
X326870Y390265D02*
D03*
X523721D02*
D03*
D41*
X332683Y384452D02*
D03*
X335091Y390265D02*
D03*
X332683Y396078D02*
D03*
X326870Y398486D02*
D03*
D03*
X321057Y396078D02*
D03*
X318649Y390265D02*
D03*
X321057Y384452D02*
D03*
X326870Y382045D02*
D03*
X529533Y384452D02*
D03*
X531941Y390265D02*
D03*
X529533Y396078D02*
D03*
X523721Y398486D02*
D03*
D03*
X517907Y396078D02*
D03*
X515500Y390265D02*
D03*
X517907Y384452D02*
D03*
X523721Y382045D02*
D03*
D42*
X375000Y352815D02*
D03*
D43*
X419504Y309996D02*
D03*
X423835D02*
D03*
X428165D02*
D03*
X432496D02*
D03*
X419504Y305665D02*
D03*
X423835D02*
D03*
X428165D02*
D03*
X432496D02*
D03*
X419504Y301335D02*
D03*
X423835D02*
D03*
X428165D02*
D03*
X432496D02*
D03*
X419504Y297004D02*
D03*
X423835D02*
D03*
X428165D02*
D03*
X432496D02*
D03*
M02*
