G04*
G04 #@! TF.GenerationSoftware,Altium Limited,Altium Designer,23.3.1 (30)*
G04*
G04 Layer_Color=16711935*
%FSLAX45Y45*%
%MOMM*%
G71*
G04*
G04 #@! TF.SameCoordinates,3C985EEB-511E-42A5-9B31-B82869618DE1*
G04*
G04*
G04 #@! TF.FilePolarity,Negative*
G04*
G01*
G75*
%ADD34R,34.79998X5.97499*%
G04:AMPARAMS|DCode=36|XSize=1.2032mm|YSize=1.1032mm|CornerRadius=0.2141mm|HoleSize=0mm|Usage=FLASHONLY|Rotation=270.000|XOffset=0mm|YOffset=0mm|HoleType=Round|Shape=RoundedRectangle|*
%AMROUNDEDRECTD36*
21,1,1.20320,0.67500,0,0,270.0*
21,1,0.77500,1.10320,0,0,270.0*
1,1,0.42820,-0.33750,-0.38750*
1,1,0.42820,-0.33750,0.38750*
1,1,0.42820,0.33750,0.38750*
1,1,0.42820,0.33750,-0.38750*
%
%ADD36ROUNDEDRECTD36*%
%ADD47R,0.90320X4.40320*%
%ADD49R,0.90320X4.40319*%
%ADD51C,0.20320*%
%ADD52C,5.50320*%
%ADD53C,0.55880*%
D34*
X10802501Y9688991D02*
D03*
D36*
X9036857Y7647986D02*
D03*
X9206857D02*
D03*
X9038402Y8050193D02*
D03*
X9208401D02*
D03*
X9208394Y7493683D02*
D03*
X9038394D02*
D03*
X9208394Y7896570D02*
D03*
X9038394D02*
D03*
X9205873Y8320000D02*
D03*
X9035873D02*
D03*
X9035065Y8475489D02*
D03*
X9205065D02*
D03*
D47*
X9952498Y9612740D02*
D03*
X10152503D02*
D03*
X10452502D02*
D03*
X9152500D02*
D03*
X9452499D02*
D03*
X9752498D02*
D03*
X9652499D02*
D03*
X9252499D02*
D03*
X9552499D02*
D03*
X10252502D02*
D03*
X10052498D02*
D03*
X9352499D02*
D03*
X10352502D02*
D03*
X9852498D02*
D03*
X10652502D02*
D03*
X11652500D02*
D03*
X10752501D02*
D03*
X11052501D02*
D03*
X12352498D02*
D03*
X12152499D02*
D03*
X11452500D02*
D03*
X11752499D02*
D03*
X11152501D02*
D03*
X10852501D02*
D03*
X11952499D02*
D03*
X11852499D02*
D03*
X11552500D02*
D03*
X12252498D02*
D03*
X12052499D02*
D03*
X10952501D02*
D03*
X10552502D02*
D03*
D49*
X12452503D02*
D03*
D51*
X12267500Y5580380D02*
D03*
X13267500D02*
D03*
D52*
X8302500Y9912740D02*
D03*
X13302499D02*
D03*
D53*
X8450148Y9765091D02*
D03*
X8511306Y9912740D02*
D03*
X8450148Y10060388D02*
D03*
X8302500Y10121546D02*
D03*
X8154852Y10060388D02*
D03*
X8093694Y9912740D02*
D03*
X8154852Y9765091D02*
D03*
X8302500Y9703934D02*
D03*
X13450148Y9765091D02*
D03*
X13511307Y9912740D02*
D03*
X13450148Y10060388D02*
D03*
X13302499Y10121546D02*
D03*
X13154852Y10060388D02*
D03*
X13093694Y9912740D02*
D03*
X13154852Y9765091D02*
D03*
X13302499Y9703934D02*
D03*
M02*
