G04 Layer_Physical_Order=1*
G04 Layer_Color=255*
%FSLAX25Y25*%
%MOIN*%
G70*
G01*
G75*
%ADD10R,0.09016X0.20000*%
%ADD11R,0.09508X0.20000*%
%ADD12R,0.03740X0.02953*%
%ADD13R,0.02520X0.02520*%
G04:AMPARAMS|DCode=14|XSize=23.62mil|YSize=23.62mil|CornerRadius=2.36mil|HoleSize=0mil|Usage=FLASHONLY|Rotation=270.000|XOffset=0mil|YOffset=0mil|HoleType=Round|Shape=RoundedRectangle|*
%AMROUNDEDRECTD14*
21,1,0.02362,0.01890,0,0,270.0*
21,1,0.01890,0.02362,0,0,270.0*
1,1,0.00472,-0.00945,-0.00945*
1,1,0.00472,-0.00945,0.00945*
1,1,0.00472,0.00945,0.00945*
1,1,0.00472,0.00945,-0.00945*
%
%ADD14ROUNDEDRECTD14*%
%ADD15O,0.02559X0.07283*%
%ADD16R,0.02520X0.02520*%
G04:AMPARAMS|DCode=17|XSize=23.62mil|YSize=23.62mil|CornerRadius=2.36mil|HoleSize=0mil|Usage=FLASHONLY|Rotation=180.000|XOffset=0mil|YOffset=0mil|HoleType=Round|Shape=RoundedRectangle|*
%AMROUNDEDRECTD17*
21,1,0.02362,0.01890,0,0,180.0*
21,1,0.01890,0.02362,0,0,180.0*
1,1,0.00472,-0.00945,0.00945*
1,1,0.00472,0.00945,0.00945*
1,1,0.00472,0.00945,-0.00945*
1,1,0.00472,-0.00945,-0.00945*
%
%ADD17ROUNDEDRECTD17*%
G04:AMPARAMS|DCode=18|XSize=39.37mil|YSize=35.43mil|CornerRadius=4.43mil|HoleSize=0mil|Usage=FLASHONLY|Rotation=90.000|XOffset=0mil|YOffset=0mil|HoleType=Round|Shape=RoundedRectangle|*
%AMROUNDEDRECTD18*
21,1,0.03937,0.02657,0,0,90.0*
21,1,0.03051,0.03543,0,0,90.0*
1,1,0.00886,0.01329,0.01526*
1,1,0.00886,0.01329,-0.01526*
1,1,0.00886,-0.01329,-0.01526*
1,1,0.00886,-0.01329,0.01526*
%
%ADD18ROUNDEDRECTD18*%
G04:AMPARAMS|DCode=19|XSize=39.37mil|YSize=35.43mil|CornerRadius=4.43mil|HoleSize=0mil|Usage=FLASHONLY|Rotation=180.000|XOffset=0mil|YOffset=0mil|HoleType=Round|Shape=RoundedRectangle|*
%AMROUNDEDRECTD19*
21,1,0.03937,0.02657,0,0,180.0*
21,1,0.03051,0.03543,0,0,180.0*
1,1,0.00886,-0.01526,0.01329*
1,1,0.00886,0.01526,0.01329*
1,1,0.00886,0.01526,-0.01329*
1,1,0.00886,-0.01526,-0.01329*
%
%ADD19ROUNDEDRECTD19*%
%ADD20C,0.01200*%
%ADD21C,0.02000*%
%ADD22C,0.05000*%
%ADD23C,0.01000*%
%ADD24C,0.02500*%
%ADD25C,0.07874*%
%ADD26C,0.01181*%
%ADD27C,0.25000*%
%ADD28R,0.11000X0.06000*%
%ADD29O,0.11000X0.06000*%
%ADD30R,0.06000X0.11000*%
%ADD31O,0.06000X0.11000*%
%ADD32C,0.02400*%
G36*
X491480Y393557D02*
Y384443D01*
X490980Y384411D01*
X490897Y385044D01*
X490494Y386017D01*
X489853Y386853D01*
X489017Y387494D01*
X488044Y387897D01*
X487000Y388035D01*
X482000D01*
X480956Y387897D01*
X479983Y387494D01*
X479147Y386853D01*
X478523Y386039D01*
X468539D01*
Y391155D01*
X469345Y391961D01*
X478523D01*
X479147Y391147D01*
X479983Y390506D01*
X480956Y390103D01*
X482000Y389966D01*
X487000D01*
X488044Y390103D01*
X489017Y390506D01*
X489853Y391147D01*
X490494Y391983D01*
X490897Y392956D01*
X490980Y393589D01*
X491480Y393557D01*
D02*
G37*
G36*
X449062Y273131D02*
Y259437D01*
X448801Y259385D01*
X448608Y259256D01*
X446085D01*
X445892Y259385D01*
X445329Y259497D01*
X442671D01*
X442108Y259385D01*
X441631Y259066D01*
X441312Y258589D01*
X441200Y258026D01*
Y255863D01*
X433844Y248507D01*
X433785Y248419D01*
X433285Y248570D01*
Y287347D01*
X433161Y287971D01*
X432807Y288500D01*
X403154Y318154D01*
X402624Y318507D01*
X402000Y318631D01*
X384676D01*
X383154Y320153D01*
X382832Y320369D01*
X382978Y320850D01*
X382995Y320869D01*
X401324D01*
X449062Y273131D01*
D02*
G37*
G36*
X467346Y252847D02*
X467876Y252493D01*
X468500Y252369D01*
X468500Y252369D01*
X478346D01*
X478506Y251983D01*
X479147Y251147D01*
X479983Y250506D01*
X480956Y250103D01*
X482000Y249966D01*
X487000D01*
X488044Y250103D01*
X489017Y250506D01*
X489853Y251147D01*
X490494Y251983D01*
X490897Y252956D01*
X490980Y253589D01*
X491480Y253557D01*
Y244443D01*
X490980Y244411D01*
X490897Y245044D01*
X490494Y246017D01*
X489853Y246853D01*
X489017Y247494D01*
X488044Y247897D01*
X487000Y248035D01*
X482000D01*
X480956Y247897D01*
X479983Y247494D01*
X479147Y246853D01*
X478506Y246017D01*
X478346Y245631D01*
X472676D01*
X463131Y255176D01*
Y256408D01*
X463593Y256600D01*
X467346Y252847D01*
D02*
G37*
G36*
X491480Y423557D02*
Y414443D01*
X490980Y414411D01*
X490897Y415044D01*
X490494Y416017D01*
X489853Y416853D01*
X489017Y417494D01*
X488044Y417897D01*
X487000Y418035D01*
X482000D01*
X480956Y417897D01*
X479983Y417494D01*
X479147Y416853D01*
X478523Y416039D01*
X465500D01*
X464720Y415884D01*
X464058Y415442D01*
X461558Y412942D01*
X461539Y412914D01*
X461039Y413065D01*
Y418655D01*
X464345Y421961D01*
X478523D01*
X479147Y421147D01*
X479983Y420506D01*
X480956Y420103D01*
X482000Y419966D01*
X487000D01*
X488044Y420103D01*
X489017Y420506D01*
X489853Y421147D01*
X490494Y421983D01*
X490897Y422956D01*
X490980Y423589D01*
X491480Y423557D01*
D02*
G37*
G36*
Y413557D02*
Y404443D01*
X490980Y404411D01*
X490897Y405044D01*
X490494Y406017D01*
X489853Y406853D01*
X489017Y407494D01*
X488044Y407897D01*
X487000Y408035D01*
X485000D01*
Y404000D01*
Y399966D01*
X487000D01*
X488044Y400103D01*
X489017Y400506D01*
X489853Y401147D01*
X490494Y401983D01*
X490897Y402956D01*
X490980Y403589D01*
X491480Y403557D01*
Y394443D01*
X490980Y394411D01*
X490897Y395044D01*
X490494Y396017D01*
X489853Y396853D01*
X489017Y397494D01*
X488044Y397897D01*
X487000Y398035D01*
X482000D01*
X480956Y397897D01*
X479983Y397494D01*
X479147Y396853D01*
X478523Y396039D01*
X468500D01*
X467720Y395884D01*
X467058Y395442D01*
X465539Y393923D01*
X465039Y394130D01*
Y410655D01*
X466345Y411961D01*
X478523D01*
X479147Y411147D01*
X479983Y410506D01*
X480956Y410103D01*
X482000Y409966D01*
X487000D01*
X488044Y410103D01*
X489017Y410506D01*
X489853Y411147D01*
X490494Y411983D01*
X490897Y412956D01*
X490980Y413589D01*
X491480Y413557D01*
D02*
G37*
G36*
Y383557D02*
Y374443D01*
X490980Y374411D01*
X490897Y375044D01*
X490494Y376017D01*
X489853Y376853D01*
X489017Y377494D01*
X488044Y377897D01*
X487000Y378034D01*
X485000D01*
Y374000D01*
Y369966D01*
X487000D01*
X488044Y370103D01*
X489017Y370506D01*
X489853Y371147D01*
X490494Y371983D01*
X490897Y372956D01*
X490980Y373589D01*
X491480Y373557D01*
Y364443D01*
X490980Y364411D01*
X490897Y365044D01*
X490494Y366017D01*
X489853Y366853D01*
X489017Y367494D01*
X488044Y367897D01*
X487000Y368035D01*
X482000D01*
X480956Y367897D01*
X480070Y367530D01*
X473000D01*
X472086Y367410D01*
X471235Y367057D01*
X470504Y366496D01*
X469639Y365631D01*
X468018D01*
X467358Y366072D01*
X466500Y366243D01*
X465642Y366072D01*
X464914Y365586D01*
X464428Y364858D01*
X464257Y364000D01*
X464428Y363142D01*
X464914Y362414D01*
X465394Y362093D01*
X465494Y361486D01*
X465004Y360996D01*
X464443Y360265D01*
X464090Y359414D01*
X463970Y358500D01*
Y309500D01*
X464090Y308586D01*
X464443Y307735D01*
X465004Y307004D01*
X465914Y306093D01*
X465723Y305631D01*
X449500D01*
X448876Y305507D01*
X448347Y305153D01*
X447296Y304103D01*
X447142Y304072D01*
X446414Y303586D01*
X445928Y302858D01*
X445757Y302000D01*
X445928Y301142D01*
X446414Y300414D01*
X447142Y299928D01*
X448000Y299757D01*
X448858Y299928D01*
X449586Y300414D01*
X450072Y301142D01*
X450243Y302000D01*
X450680Y302369D01*
X469639D01*
X470504Y301504D01*
X471235Y300943D01*
X472086Y300590D01*
X473000Y300470D01*
X480070D01*
X480956Y300103D01*
X482000Y299966D01*
X487000D01*
X488044Y300103D01*
X489017Y300506D01*
X489853Y301147D01*
X490494Y301983D01*
X490897Y302956D01*
X490980Y303589D01*
X491480Y303557D01*
Y294443D01*
X490980Y294411D01*
X490897Y295044D01*
X490494Y296017D01*
X489853Y296853D01*
X489017Y297494D01*
X488044Y297897D01*
X487000Y298035D01*
X482000D01*
X480956Y297897D01*
X479983Y297494D01*
X479147Y296853D01*
X478506Y296017D01*
X478103Y295044D01*
X477965Y294000D01*
X478103Y292956D01*
X478506Y291983D01*
X479147Y291147D01*
X479983Y290506D01*
X480956Y290103D01*
X482000Y289966D01*
X487000D01*
X488044Y290103D01*
X489017Y290506D01*
X489853Y291147D01*
X490494Y291983D01*
X490897Y292956D01*
X490980Y293589D01*
X491480Y293557D01*
Y284443D01*
X490980Y284411D01*
X490897Y285044D01*
X490494Y286017D01*
X489853Y286853D01*
X489017Y287494D01*
X488044Y287897D01*
X487000Y288035D01*
X485000D01*
Y284000D01*
Y279965D01*
X487000D01*
X488044Y280103D01*
X489017Y280506D01*
X489853Y281147D01*
X490494Y281983D01*
X490897Y282956D01*
X490980Y283589D01*
X491480Y283557D01*
Y274443D01*
X490980Y274411D01*
X490897Y275044D01*
X490494Y276017D01*
X489853Y276853D01*
X489017Y277494D01*
X488044Y277897D01*
X487000Y278034D01*
X485000D01*
Y274000D01*
Y269966D01*
X487000D01*
X488044Y270103D01*
X489017Y270506D01*
X489853Y271147D01*
X490494Y271983D01*
X490897Y272956D01*
X490980Y273589D01*
X491480Y273557D01*
Y264443D01*
X490980Y264411D01*
X490897Y265044D01*
X490494Y266017D01*
X489853Y266853D01*
X489017Y267494D01*
X488044Y267897D01*
X487000Y268035D01*
X482000D01*
X480956Y267897D01*
X479983Y267494D01*
X479147Y266853D01*
X478506Y266017D01*
X478103Y265044D01*
X477965Y264000D01*
X478103Y262956D01*
X478506Y261983D01*
X479147Y261147D01*
X479983Y260506D01*
X480956Y260103D01*
X482000Y259965D01*
X487000D01*
X488044Y260103D01*
X489017Y260506D01*
X489853Y261147D01*
X490494Y261983D01*
X490897Y262956D01*
X490980Y263589D01*
X491480Y263557D01*
Y254443D01*
X490980Y254411D01*
X490897Y255044D01*
X490494Y256017D01*
X489853Y256853D01*
X489017Y257494D01*
X488044Y257897D01*
X487000Y258034D01*
X482000D01*
X480956Y257897D01*
X479983Y257494D01*
X479147Y256853D01*
X478506Y256017D01*
X478346Y255631D01*
X469176D01*
X465331Y259476D01*
Y273411D01*
X465207Y274036D01*
X464853Y274565D01*
X408631Y330787D01*
Y346982D01*
X409072Y347642D01*
X409243Y348500D01*
X409072Y349358D01*
X408586Y350086D01*
X408025Y350461D01*
X408177Y350961D01*
X409000D01*
X409780Y351116D01*
X410442Y351558D01*
X411691Y352807D01*
X413714D01*
X413744Y352762D01*
Y350238D01*
X413615Y350045D01*
X413503Y349482D01*
Y346825D01*
X413615Y346262D01*
X413934Y345784D01*
X414411Y345466D01*
X414974Y345354D01*
X415263D01*
X417558Y343058D01*
X418220Y342616D01*
X419000Y342461D01*
X422367D01*
X422618Y341961D01*
X422486Y341783D01*
X420244D01*
X420244Y341783D01*
X419464Y341628D01*
X418802Y341186D01*
X418802Y341186D01*
X418558Y340942D01*
X418116Y340280D01*
X417961Y339500D01*
X418116Y338720D01*
X418558Y338058D01*
X419220Y337616D01*
X420000Y337461D01*
X420780Y337616D01*
X420913Y337705D01*
X422803D01*
X422909Y337547D01*
X423240Y337326D01*
X423630Y337248D01*
X425000D01*
Y339744D01*
X426000D01*
Y337248D01*
X426961D01*
Y335000D01*
X427116Y334220D01*
X427558Y333558D01*
X428220Y333116D01*
X429000Y332961D01*
X429780Y333116D01*
X430442Y333558D01*
X430884Y334220D01*
X431039Y335000D01*
Y337248D01*
X432000D01*
Y339744D01*
Y342240D01*
X430630D01*
X430240Y342162D01*
X429909Y341941D01*
X429803Y341783D01*
X428197D01*
X428091Y341941D01*
X427760Y342162D01*
X427370Y342240D01*
X426464D01*
X426212Y342740D01*
X426227Y342760D01*
X427370D01*
X427760Y342838D01*
X428091Y343059D01*
X428197Y343217D01*
X429803D01*
X429909Y343059D01*
X430240Y342838D01*
X430630Y342760D01*
X434370D01*
X434760Y342838D01*
X435091Y343059D01*
X435312Y343389D01*
X435390Y343779D01*
Y346732D01*
X435312Y347123D01*
X435091Y347453D01*
X435039Y347488D01*
Y348655D01*
X467942Y381558D01*
X467942Y381558D01*
X468211Y381961D01*
X478523D01*
X479147Y381147D01*
X479983Y380506D01*
X480956Y380103D01*
X482000Y379965D01*
X487000D01*
X488044Y380103D01*
X489017Y380506D01*
X489853Y381147D01*
X490494Y381983D01*
X490897Y382956D01*
X490980Y383589D01*
X491480Y383557D01*
D02*
G37*
G36*
X288103Y372956D02*
X288506Y371983D01*
X289147Y371147D01*
X289983Y370506D01*
X290956Y370103D01*
X292000Y369966D01*
X297000D01*
X298044Y370103D01*
X299017Y370506D01*
X299853Y371147D01*
X300494Y371983D01*
X300897Y372956D01*
X300951Y373369D01*
X324324D01*
X331028Y366665D01*
X331557Y366312D01*
X332181Y366188D01*
X368176D01*
Y365457D01*
X368353Y364567D01*
X368857Y363813D01*
X369611Y363309D01*
X370500Y363133D01*
X371389Y363309D01*
X372143Y363813D01*
X372647Y364567D01*
X372745Y365059D01*
X373255D01*
X373353Y364567D01*
X373461Y364405D01*
Y355000D01*
X373616Y354220D01*
X374058Y353558D01*
X376058Y351558D01*
X376720Y351116D01*
X377500Y350961D01*
X405823D01*
X405975Y350461D01*
X405414Y350086D01*
X404928Y349358D01*
X404757Y348500D01*
X404928Y347642D01*
X405369Y346982D01*
Y331592D01*
X404907Y331400D01*
X402131Y334176D01*
Y341167D01*
X402143Y341176D01*
X402647Y341930D01*
X402824Y342819D01*
Y347543D01*
X402647Y348433D01*
X402143Y349187D01*
X401389Y349691D01*
X400500Y349868D01*
X399611Y349691D01*
X398857Y349187D01*
X398353Y348433D01*
X398255Y347941D01*
X397745D01*
X397647Y348433D01*
X397143Y349187D01*
X396389Y349691D01*
X395500Y349868D01*
X394611Y349691D01*
X393857Y349187D01*
X393353Y348433D01*
X393255Y347941D01*
X392745D01*
X392647Y348433D01*
X392143Y349187D01*
X391389Y349691D01*
X390500Y349868D01*
X389611Y349691D01*
X388857Y349187D01*
X388353Y348433D01*
X388255Y347941D01*
X387745D01*
X387647Y348433D01*
X387143Y349187D01*
X386389Y349691D01*
X385500Y349868D01*
X384611Y349691D01*
X383857Y349187D01*
X383353Y348433D01*
X383255Y347941D01*
X382745D01*
X382647Y348433D01*
X382143Y349187D01*
X381389Y349691D01*
X380500Y349868D01*
X379611Y349691D01*
X378857Y349187D01*
X378353Y348433D01*
X378255Y347941D01*
X377745D01*
X377647Y348433D01*
X377143Y349187D01*
X376389Y349691D01*
X375500Y349868D01*
X374611Y349691D01*
X373857Y349187D01*
X373353Y348433D01*
X373255Y347941D01*
X372745D01*
X372647Y348433D01*
X372143Y349187D01*
X371389Y349691D01*
X370500Y349868D01*
X369611Y349691D01*
X368857Y349187D01*
X368353Y348433D01*
X368176Y347543D01*
Y346812D01*
X343495D01*
X325153Y365154D01*
X324624Y365507D01*
X324000Y365631D01*
X300654D01*
X300494Y366017D01*
X299853Y366853D01*
X299017Y367494D01*
X298044Y367897D01*
X297000Y368035D01*
X292000D01*
X290956Y367897D01*
X289983Y367494D01*
X289147Y366853D01*
X288506Y366017D01*
X288103Y365044D01*
X288019Y364411D01*
X287520Y364443D01*
Y373557D01*
X288019Y373589D01*
X288103Y372956D01*
D02*
G37*
G36*
Y352956D02*
X288506Y351983D01*
X289147Y351147D01*
X289983Y350506D01*
X290956Y350103D01*
X292000Y349966D01*
X297000D01*
X298044Y350103D01*
X299017Y350506D01*
X299853Y351147D01*
X300494Y351983D01*
X300654Y352369D01*
X326824D01*
X342347Y336846D01*
X342876Y336493D01*
X343500Y336369D01*
X360981D01*
X361167Y335869D01*
X360934Y335631D01*
X342176D01*
X332653Y345153D01*
X332124Y345507D01*
X331500Y345631D01*
X300654D01*
X300494Y346017D01*
X299853Y346853D01*
X299017Y347494D01*
X298044Y347897D01*
X297000Y348035D01*
X292000D01*
X290956Y347897D01*
X289983Y347494D01*
X289147Y346853D01*
X288506Y346017D01*
X288103Y345044D01*
X288019Y344411D01*
X287520Y344443D01*
Y353557D01*
X288019Y353589D01*
X288103Y352956D01*
D02*
G37*
G36*
X491480Y363557D02*
Y354443D01*
X490980Y354411D01*
X490897Y355044D01*
X490494Y356017D01*
X489853Y356853D01*
X489017Y357494D01*
X488044Y357897D01*
X487000Y358034D01*
X482000D01*
X480956Y357897D01*
X479983Y357494D01*
X479147Y356853D01*
X478506Y356017D01*
X478103Y355044D01*
X477965Y354000D01*
X478103Y352956D01*
X478506Y351983D01*
X479147Y351147D01*
X479983Y350506D01*
X480956Y350103D01*
X482000Y349966D01*
X487000D01*
X488044Y350103D01*
X489017Y350506D01*
X489853Y351147D01*
X490494Y351983D01*
X490897Y352956D01*
X490980Y353589D01*
X491480Y353557D01*
Y344443D01*
X490980Y344411D01*
X490897Y345044D01*
X490494Y346017D01*
X489853Y346853D01*
X489017Y347494D01*
X488044Y347897D01*
X487000Y348035D01*
X482000D01*
X480956Y347897D01*
X479983Y347494D01*
X479147Y346853D01*
X478506Y346017D01*
X478103Y345044D01*
X477965Y344000D01*
X478103Y342956D01*
X478506Y341983D01*
X479147Y341147D01*
X479983Y340506D01*
X480956Y340103D01*
X482000Y339966D01*
X487000D01*
X488044Y340103D01*
X489017Y340506D01*
X489853Y341147D01*
X490494Y341983D01*
X490897Y342956D01*
X490980Y343589D01*
X491480Y343557D01*
Y334443D01*
X490980Y334411D01*
X490897Y335044D01*
X490494Y336017D01*
X489853Y336853D01*
X489017Y337494D01*
X488044Y337897D01*
X487000Y338035D01*
X482000D01*
X480956Y337897D01*
X479983Y337494D01*
X479147Y336853D01*
X478506Y336017D01*
X478103Y335044D01*
X477965Y334000D01*
X478103Y332956D01*
X478506Y331983D01*
X479147Y331147D01*
X479983Y330506D01*
X480956Y330103D01*
X482000Y329965D01*
X487000D01*
X488044Y330103D01*
X489017Y330506D01*
X489853Y331147D01*
X490494Y331983D01*
X490897Y332956D01*
X490980Y333589D01*
X491480Y333557D01*
Y324443D01*
X490980Y324411D01*
X490897Y325044D01*
X490494Y326017D01*
X489853Y326853D01*
X489017Y327494D01*
X488044Y327897D01*
X487000Y328034D01*
X482000D01*
X480956Y327897D01*
X479983Y327494D01*
X479147Y326853D01*
X478506Y326017D01*
X478103Y325044D01*
X477965Y324000D01*
X478103Y322956D01*
X478506Y321983D01*
X479147Y321147D01*
X479983Y320506D01*
X480956Y320103D01*
X482000Y319966D01*
X487000D01*
X488044Y320103D01*
X489017Y320506D01*
X489853Y321147D01*
X490494Y321983D01*
X490897Y322956D01*
X490980Y323589D01*
X491480Y323557D01*
Y314443D01*
X490980Y314411D01*
X490897Y315044D01*
X490494Y316017D01*
X489853Y316853D01*
X489017Y317494D01*
X488044Y317897D01*
X487000Y318035D01*
X482000D01*
X480956Y317897D01*
X479983Y317494D01*
X479147Y316853D01*
X478506Y316017D01*
X478103Y315044D01*
X477965Y314000D01*
X478103Y312956D01*
X478506Y311983D01*
X479147Y311147D01*
X479983Y310506D01*
X480956Y310103D01*
X482000Y309965D01*
X487000D01*
X488044Y310103D01*
X489017Y310506D01*
X489853Y311147D01*
X490494Y311983D01*
X490897Y312956D01*
X490980Y313589D01*
X491480Y313557D01*
Y304443D01*
X490980Y304411D01*
X490897Y305044D01*
X490494Y306017D01*
X489853Y306853D01*
X489017Y307494D01*
X488044Y307897D01*
X487000Y308034D01*
X482000D01*
X480956Y307897D01*
X480070Y307530D01*
X474462D01*
X471030Y310962D01*
Y357038D01*
X474462Y360470D01*
X480070D01*
X480956Y360103D01*
X482000Y359965D01*
X487000D01*
X488044Y360103D01*
X489017Y360506D01*
X489853Y361147D01*
X490494Y361983D01*
X490897Y362956D01*
X490980Y363589D01*
X491480Y363557D01*
D02*
G37*
G36*
X288103Y362956D02*
X288506Y361983D01*
X289147Y361147D01*
X289983Y360506D01*
X290956Y360103D01*
X292000Y359965D01*
X297000D01*
X298044Y360103D01*
X299017Y360506D01*
X299853Y361147D01*
X300494Y361983D01*
X300654Y362369D01*
X323324D01*
X341665Y344028D01*
X342195Y343674D01*
X342819Y343550D01*
X368176D01*
Y342819D01*
X368353Y341930D01*
X368857Y341176D01*
X369611Y340672D01*
X370500Y340495D01*
X371389Y340672D01*
X372143Y341176D01*
X372647Y341930D01*
X372745Y342421D01*
X373255D01*
X373353Y341930D01*
X373857Y341176D01*
X373869Y341167D01*
Y324500D01*
X373993Y323876D01*
X374346Y323346D01*
X376346Y321346D01*
X376876Y320993D01*
X377500Y320869D01*
X379005D01*
X379269Y320369D01*
X378928Y319858D01*
X378757Y319000D01*
X378928Y318142D01*
X379414Y317414D01*
X380142Y316928D01*
X381000Y316757D01*
X381781Y316912D01*
X382846Y315846D01*
X383376Y315493D01*
X384000Y315369D01*
X401324D01*
X430022Y286671D01*
Y246937D01*
X429762Y246885D01*
X429284Y246566D01*
X428966Y246089D01*
X428854Y245526D01*
Y243507D01*
X423347Y238000D01*
X422993Y237471D01*
X422869Y236846D01*
Y230154D01*
X422483Y229994D01*
X421647Y229353D01*
X421006Y228517D01*
X420603Y227544D01*
X420466Y226500D01*
Y221500D01*
X420603Y220456D01*
X421006Y219483D01*
X421647Y218647D01*
X422483Y218006D01*
X423456Y217603D01*
X424089Y217519D01*
X424057Y217020D01*
X414943D01*
X414911Y217519D01*
X415544Y217603D01*
X416517Y218006D01*
X417353Y218647D01*
X417994Y219483D01*
X418397Y220456D01*
X418535Y221500D01*
Y223500D01*
X414500D01*
X410465D01*
Y221500D01*
X410603Y220456D01*
X411006Y219483D01*
X411647Y218647D01*
X412483Y218006D01*
X413456Y217603D01*
X414089Y217519D01*
X414057Y217020D01*
X404943D01*
X404911Y217519D01*
X405544Y217603D01*
X406517Y218006D01*
X407353Y218647D01*
X407994Y219483D01*
X408397Y220456D01*
X408534Y221500D01*
Y223500D01*
X404500D01*
X400465D01*
Y221500D01*
X400603Y220456D01*
X401006Y219483D01*
X401647Y218647D01*
X402483Y218006D01*
X403456Y217603D01*
X404089Y217519D01*
X404057Y217020D01*
X394943D01*
X394911Y217519D01*
X395544Y217603D01*
X396517Y218006D01*
X397353Y218647D01*
X397994Y219483D01*
X398397Y220456D01*
X398534Y221500D01*
Y226500D01*
X398397Y227544D01*
X397994Y228517D01*
X397353Y229353D01*
X396517Y229994D01*
X395544Y230397D01*
X394500Y230535D01*
X393456Y230397D01*
X392483Y229994D01*
X391647Y229353D01*
X391006Y228517D01*
X390603Y227544D01*
X390465Y226500D01*
Y221500D01*
X390603Y220456D01*
X391006Y219483D01*
X391647Y218647D01*
X392483Y218006D01*
X393456Y217603D01*
X394089Y217519D01*
X394057Y217020D01*
X384943D01*
X384911Y217519D01*
X385544Y217603D01*
X386517Y218006D01*
X387353Y218647D01*
X387994Y219483D01*
X388397Y220456D01*
X388534Y221500D01*
Y223500D01*
X384500D01*
X380466D01*
Y221500D01*
X380603Y220456D01*
X381006Y219483D01*
X381647Y218647D01*
X382483Y218006D01*
X383456Y217603D01*
X384089Y217519D01*
X384057Y217020D01*
X374943D01*
X374911Y217519D01*
X375544Y217603D01*
X376517Y218006D01*
X377353Y218647D01*
X377994Y219483D01*
X378397Y220456D01*
X378535Y221500D01*
Y223500D01*
X374500D01*
X370465D01*
Y221500D01*
X370603Y220456D01*
X371006Y219483D01*
X371647Y218647D01*
X372483Y218006D01*
X373456Y217603D01*
X374089Y217519D01*
X374057Y217020D01*
X364943D01*
X364911Y217519D01*
X365544Y217603D01*
X366517Y218006D01*
X367353Y218647D01*
X367994Y219483D01*
X368397Y220456D01*
X368534Y221500D01*
Y226500D01*
X368397Y227544D01*
X367994Y228517D01*
X367353Y229353D01*
X366517Y229994D01*
X365544Y230397D01*
X364500Y230535D01*
X363456Y230397D01*
X362483Y229994D01*
X361647Y229353D01*
X361006Y228517D01*
X360603Y227544D01*
X360466Y226500D01*
Y221500D01*
X360603Y220456D01*
X361006Y219483D01*
X361647Y218647D01*
X362483Y218006D01*
X363456Y217603D01*
X364089Y217519D01*
X364057Y217020D01*
X354943D01*
X354911Y217519D01*
X355544Y217603D01*
X356517Y218006D01*
X357353Y218647D01*
X357994Y219483D01*
X358397Y220456D01*
X358535Y221500D01*
Y226500D01*
X358397Y227544D01*
X357994Y228517D01*
X357353Y229353D01*
X356517Y229994D01*
X355544Y230397D01*
X354500Y230535D01*
X353456Y230397D01*
X352483Y229994D01*
X351647Y229353D01*
X351006Y228517D01*
X350603Y227544D01*
X350465Y226500D01*
Y221500D01*
X350603Y220456D01*
X351006Y219483D01*
X351647Y218647D01*
X352483Y218006D01*
X353456Y217603D01*
X354089Y217519D01*
X354057Y217020D01*
X344943D01*
X344911Y217519D01*
X345544Y217603D01*
X346517Y218006D01*
X347353Y218647D01*
X347994Y219483D01*
X348397Y220456D01*
X348534Y221500D01*
Y226500D01*
X348397Y227544D01*
X347994Y228517D01*
X347353Y229353D01*
X346517Y229994D01*
X345544Y230397D01*
X344500Y230535D01*
X343456Y230397D01*
X342483Y229994D01*
X341647Y229353D01*
X341006Y228517D01*
X340603Y227544D01*
X340465Y226500D01*
Y221500D01*
X340603Y220456D01*
X341006Y219483D01*
X341647Y218647D01*
X342483Y218006D01*
X343456Y217603D01*
X344089Y217519D01*
X344057Y217020D01*
X334943D01*
X334911Y217519D01*
X335544Y217603D01*
X336517Y218006D01*
X337353Y218647D01*
X337994Y219483D01*
X338397Y220456D01*
X338534Y221500D01*
Y226500D01*
X338397Y227544D01*
X337994Y228517D01*
X337353Y229353D01*
X336517Y229994D01*
X335544Y230397D01*
X334500Y230535D01*
X333456Y230397D01*
X332483Y229994D01*
X331647Y229353D01*
X331006Y228517D01*
X330603Y227544D01*
X330466Y226500D01*
Y221500D01*
X330603Y220456D01*
X331006Y219483D01*
X331647Y218647D01*
X332483Y218006D01*
X333456Y217603D01*
X334089Y217519D01*
X334057Y217020D01*
X324943D01*
X324911Y217519D01*
X325544Y217603D01*
X326517Y218006D01*
X327353Y218647D01*
X327994Y219483D01*
X328397Y220456D01*
X328535Y221500D01*
Y226500D01*
X328397Y227544D01*
X327994Y228517D01*
X327353Y229353D01*
X326517Y229994D01*
X325544Y230397D01*
X324500Y230535D01*
X323456Y230397D01*
X322483Y229994D01*
X321647Y229353D01*
X321006Y228517D01*
X320603Y227544D01*
X320465Y226500D01*
Y221500D01*
X320603Y220456D01*
X321006Y219483D01*
X321647Y218647D01*
X322483Y218006D01*
X323456Y217603D01*
X324089Y217519D01*
X324057Y217020D01*
X314943D01*
X314911Y217519D01*
X315544Y217603D01*
X316517Y218006D01*
X317353Y218647D01*
X317994Y219483D01*
X318397Y220456D01*
X318534Y221500D01*
Y226500D01*
X318397Y227544D01*
X317994Y228517D01*
X317353Y229353D01*
X316517Y229994D01*
X315544Y230397D01*
X314500Y230535D01*
X313456Y230397D01*
X312483Y229994D01*
X311647Y229353D01*
X311006Y228517D01*
X310603Y227544D01*
X310466Y226500D01*
Y221500D01*
X310603Y220456D01*
X311006Y219483D01*
X311647Y218647D01*
X312483Y218006D01*
X313456Y217603D01*
X314089Y217519D01*
X314057Y217020D01*
X304943D01*
X304911Y217519D01*
X305544Y217603D01*
X306517Y218006D01*
X307353Y218647D01*
X307994Y219483D01*
X308397Y220456D01*
X308535Y221500D01*
Y226500D01*
X308397Y227544D01*
X307994Y228517D01*
X307353Y229353D01*
X306517Y229994D01*
X305544Y230397D01*
X304500Y230535D01*
X303456Y230397D01*
X302483Y229994D01*
X301647Y229353D01*
X301006Y228517D01*
X300603Y227544D01*
X300465Y226500D01*
Y221500D01*
X300603Y220456D01*
X301006Y219483D01*
X301647Y218647D01*
X302483Y218006D01*
X303456Y217603D01*
X304089Y217519D01*
X304057Y217020D01*
X297746D01*
X297697Y217519D01*
X297890Y217558D01*
X298221Y217779D01*
X298442Y218110D01*
X298520Y218500D01*
Y223500D01*
X294500D01*
X290480D01*
Y218500D01*
X290558Y218110D01*
X290779Y217779D01*
X291110Y217558D01*
X291303Y217519D01*
X291254Y217020D01*
X287520D01*
Y243557D01*
X288019Y243589D01*
X288103Y242956D01*
X288506Y241983D01*
X289147Y241147D01*
X289983Y240506D01*
X290956Y240103D01*
X292000Y239966D01*
X297000D01*
X298044Y240103D01*
X299017Y240506D01*
X299853Y241147D01*
X300494Y241983D01*
X300654Y242369D01*
X317194D01*
X317409Y242047D01*
X317740Y241826D01*
X318130Y241748D01*
X321870D01*
X322260Y241826D01*
X322591Y242047D01*
X322812Y242377D01*
X322859Y242613D01*
X331744D01*
X332368Y242737D01*
X332898Y243091D01*
X384676Y294869D01*
X414482D01*
X415142Y294428D01*
X416000Y294257D01*
X416858Y294428D01*
X417586Y294914D01*
X418072Y295642D01*
X418243Y296500D01*
X418072Y297358D01*
X417586Y298086D01*
X416858Y298572D01*
X416000Y298743D01*
X415142Y298572D01*
X414482Y298131D01*
X384000D01*
X383376Y298007D01*
X382846Y297654D01*
X331068Y245876D01*
X322859D01*
X322812Y246111D01*
X322591Y246441D01*
X322260Y246662D01*
X321870Y246740D01*
X318130D01*
X317740Y246662D01*
X317409Y246441D01*
X317188Y246111D01*
X317110Y245721D01*
Y245631D01*
X300654D01*
X300494Y246017D01*
X299853Y246853D01*
X299017Y247494D01*
X298044Y247897D01*
X297000Y248035D01*
X292000D01*
X290956Y247897D01*
X289983Y247494D01*
X289147Y246853D01*
X288506Y246017D01*
X288103Y245044D01*
X288019Y244411D01*
X287520Y244443D01*
Y253557D01*
X288019Y253589D01*
X288103Y252956D01*
X288506Y251983D01*
X289147Y251147D01*
X289983Y250506D01*
X290956Y250103D01*
X292000Y249966D01*
X297000D01*
X298044Y250103D01*
X299017Y250506D01*
X299853Y251147D01*
X300494Y251983D01*
X300897Y252956D01*
X301034Y254000D01*
X300897Y255044D01*
X300494Y256017D01*
X299853Y256853D01*
X299017Y257494D01*
X298044Y257897D01*
X297000Y258034D01*
X292000D01*
X290956Y257897D01*
X289983Y257494D01*
X289147Y256853D01*
X288506Y256017D01*
X288103Y255044D01*
X288019Y254411D01*
X287520Y254443D01*
Y263557D01*
X288019Y263589D01*
X288103Y262956D01*
X288506Y261983D01*
X289147Y261147D01*
X289983Y260506D01*
X290956Y260103D01*
X292000Y259965D01*
X297000D01*
X298044Y260103D01*
X299017Y260506D01*
X299853Y261147D01*
X300494Y261983D01*
X300897Y262956D01*
X301034Y264000D01*
X300897Y265044D01*
X300494Y266017D01*
X299853Y266853D01*
X299017Y267494D01*
X298044Y267897D01*
X297000Y268035D01*
X292000D01*
X290956Y267897D01*
X289983Y267494D01*
X289147Y266853D01*
X288506Y266017D01*
X288103Y265044D01*
X288019Y264411D01*
X287520Y264443D01*
Y273557D01*
X288019Y273589D01*
X288103Y272956D01*
X288506Y271983D01*
X289147Y271147D01*
X289983Y270506D01*
X290956Y270103D01*
X292000Y269966D01*
X297000D01*
X298044Y270103D01*
X299017Y270506D01*
X299853Y271147D01*
X300494Y271983D01*
X300897Y272956D01*
X301034Y274000D01*
X300897Y275044D01*
X300494Y276017D01*
X299853Y276853D01*
X299017Y277494D01*
X298044Y277897D01*
X297000Y278034D01*
X292000D01*
X290956Y277897D01*
X289983Y277494D01*
X289147Y276853D01*
X288506Y276017D01*
X288103Y275044D01*
X288019Y274411D01*
X287520Y274443D01*
Y283557D01*
X288019Y283589D01*
X288103Y282956D01*
X288506Y281983D01*
X289147Y281147D01*
X289983Y280506D01*
X290956Y280103D01*
X292000Y279965D01*
X294000D01*
Y284000D01*
Y288035D01*
X292000D01*
X290956Y287897D01*
X289983Y287494D01*
X289147Y286853D01*
X288506Y286017D01*
X288103Y285044D01*
X288019Y284411D01*
X287520Y284443D01*
Y293557D01*
X288019Y293589D01*
X288103Y292956D01*
X288506Y291983D01*
X289147Y291147D01*
X289983Y290506D01*
X290956Y290103D01*
X292000Y289966D01*
X294000D01*
Y294000D01*
Y298035D01*
X292000D01*
X290956Y297897D01*
X289983Y297494D01*
X289147Y296853D01*
X288506Y296017D01*
X288103Y295044D01*
X288019Y294411D01*
X287520Y294443D01*
Y303557D01*
X288019Y303589D01*
X288103Y302956D01*
X288506Y301983D01*
X289147Y301147D01*
X289983Y300506D01*
X290956Y300103D01*
X292000Y299966D01*
X297000D01*
X298044Y300103D01*
X299017Y300506D01*
X299853Y301147D01*
X300494Y301983D01*
X300897Y302956D01*
X301034Y304000D01*
X300897Y305044D01*
X300494Y306017D01*
X299853Y306853D01*
X299017Y307494D01*
X298044Y307897D01*
X297000Y308034D01*
X292000D01*
X290956Y307897D01*
X289983Y307494D01*
X289147Y306853D01*
X288506Y306017D01*
X288103Y305044D01*
X288019Y304411D01*
X287520Y304443D01*
Y313557D01*
X288019Y313589D01*
X288103Y312956D01*
X288506Y311983D01*
X289147Y311147D01*
X289983Y310506D01*
X290956Y310103D01*
X292000Y309965D01*
X297000D01*
X298044Y310103D01*
X299017Y310506D01*
X299853Y311147D01*
X300494Y311983D01*
X300897Y312956D01*
X301034Y314000D01*
X300897Y315044D01*
X300494Y316017D01*
X299853Y316853D01*
X299017Y317494D01*
X298044Y317897D01*
X297000Y318035D01*
X292000D01*
X290956Y317897D01*
X289983Y317494D01*
X289147Y316853D01*
X288506Y316017D01*
X288103Y315044D01*
X288019Y314411D01*
X287520Y314443D01*
Y323557D01*
X288019Y323589D01*
X288103Y322956D01*
X288506Y321983D01*
X289147Y321147D01*
X289983Y320506D01*
X290956Y320103D01*
X292000Y319966D01*
X297000D01*
X298044Y320103D01*
X299017Y320506D01*
X299853Y321147D01*
X300494Y321983D01*
X300897Y322956D01*
X301034Y324000D01*
X300897Y325044D01*
X300494Y326017D01*
X299853Y326853D01*
X299017Y327494D01*
X298044Y327897D01*
X297000Y328034D01*
X292000D01*
X290956Y327897D01*
X289983Y327494D01*
X289147Y326853D01*
X288506Y326017D01*
X288103Y325044D01*
X288019Y324411D01*
X287520Y324443D01*
Y333557D01*
X288019Y333589D01*
X288103Y332956D01*
X288506Y331983D01*
X289147Y331147D01*
X289983Y330506D01*
X290956Y330103D01*
X292000Y329965D01*
X297000D01*
X298044Y330103D01*
X299017Y330506D01*
X299853Y331147D01*
X300494Y331983D01*
X300897Y332956D01*
X301034Y334000D01*
X300897Y335044D01*
X300494Y336017D01*
X299853Y336853D01*
X299017Y337494D01*
X298044Y337897D01*
X297000Y338035D01*
X292000D01*
X290956Y337897D01*
X289983Y337494D01*
X289147Y336853D01*
X288506Y336017D01*
X288103Y335044D01*
X288019Y334411D01*
X287520Y334443D01*
Y343557D01*
X288019Y343589D01*
X288103Y342956D01*
X288506Y341983D01*
X289147Y341147D01*
X289983Y340506D01*
X290956Y340103D01*
X292000Y339966D01*
X297000D01*
X298044Y340103D01*
X299017Y340506D01*
X299853Y341147D01*
X300494Y341983D01*
X300654Y342369D01*
X330824D01*
X340347Y332846D01*
X340876Y332493D01*
X341500Y332369D01*
X341500Y332369D01*
X360982D01*
X361642Y331928D01*
X362500Y331757D01*
X363358Y331928D01*
X364086Y332414D01*
X364572Y333142D01*
X364743Y334000D01*
X364683Y334303D01*
X365144Y334549D01*
X368273Y331420D01*
X368428Y330642D01*
X368914Y329914D01*
X369642Y329428D01*
X370500Y329257D01*
X371358Y329428D01*
X372086Y329914D01*
X372572Y330642D01*
X372743Y331500D01*
X372572Y332358D01*
X372086Y333086D01*
X371358Y333572D01*
X370580Y333727D01*
X365154Y339154D01*
X364624Y339507D01*
X364000Y339631D01*
X344176D01*
X328654Y355153D01*
X328124Y355507D01*
X327500Y355631D01*
X300654D01*
X300494Y356017D01*
X299853Y356853D01*
X299017Y357494D01*
X298044Y357897D01*
X297000Y358034D01*
X292000D01*
X290956Y357897D01*
X289983Y357494D01*
X289147Y356853D01*
X288506Y356017D01*
X288103Y355044D01*
X288019Y354411D01*
X287520Y354443D01*
Y363557D01*
X288019Y363589D01*
X288103Y362956D01*
D02*
G37*
G36*
X398353Y341930D02*
X398857Y341176D01*
X398869Y341167D01*
Y333500D01*
X398993Y332876D01*
X399346Y332347D01*
X459869Y271824D01*
Y254500D01*
X459993Y253876D01*
X460347Y253346D01*
X470847Y242846D01*
X471376Y242493D01*
X472000Y242369D01*
X478346D01*
X478506Y241983D01*
X479147Y241147D01*
X479983Y240506D01*
X480956Y240103D01*
X482000Y239966D01*
X487000D01*
X488044Y240103D01*
X489017Y240506D01*
X489853Y241147D01*
X490494Y241983D01*
X490897Y242956D01*
X490980Y243589D01*
X491480Y243557D01*
Y217020D01*
X484943D01*
X484911Y217519D01*
X485544Y217603D01*
X486517Y218006D01*
X487353Y218647D01*
X487994Y219483D01*
X488397Y220456D01*
X488534Y221500D01*
Y226500D01*
X488397Y227544D01*
X487994Y228517D01*
X487353Y229353D01*
X486517Y229994D01*
X485544Y230397D01*
X484500Y230535D01*
X483456Y230397D01*
X482483Y229994D01*
X481647Y229353D01*
X481006Y228517D01*
X480603Y227544D01*
X480466Y226500D01*
Y221500D01*
X480603Y220456D01*
X481006Y219483D01*
X481647Y218647D01*
X482483Y218006D01*
X483456Y217603D01*
X484089Y217519D01*
X484057Y217020D01*
X474943D01*
X474911Y217519D01*
X475544Y217603D01*
X476517Y218006D01*
X477353Y218647D01*
X477994Y219483D01*
X478397Y220456D01*
X478535Y221500D01*
Y223500D01*
X474500D01*
X470466D01*
Y221500D01*
X470603Y220456D01*
X471006Y219483D01*
X471647Y218647D01*
X472483Y218006D01*
X473456Y217603D01*
X474089Y217519D01*
X474057Y217020D01*
X464943D01*
X464911Y217519D01*
X465544Y217603D01*
X466517Y218006D01*
X467353Y218647D01*
X467994Y219483D01*
X468397Y220456D01*
X468535Y221500D01*
Y226500D01*
X468397Y227544D01*
X467994Y228517D01*
X467353Y229353D01*
X466517Y229994D01*
X465544Y230397D01*
X464500Y230535D01*
X463456Y230397D01*
X462483Y229994D01*
X461647Y229353D01*
X461006Y228517D01*
X460603Y227544D01*
X460465Y226500D01*
Y221500D01*
X460603Y220456D01*
X461006Y219483D01*
X461647Y218647D01*
X462483Y218006D01*
X463456Y217603D01*
X464089Y217519D01*
X464057Y217020D01*
X454943D01*
X454911Y217519D01*
X455544Y217603D01*
X456517Y218006D01*
X457353Y218647D01*
X457994Y219483D01*
X458397Y220456D01*
X458534Y221500D01*
Y226500D01*
X458397Y227544D01*
X457994Y228517D01*
X457353Y229353D01*
X456517Y229994D01*
X456131Y230154D01*
Y252693D01*
X456007Y253317D01*
X455653Y253847D01*
X453493Y256007D01*
Y258026D01*
X453381Y258589D01*
X453062Y259066D01*
X452585Y259385D01*
X452324Y259437D01*
Y273807D01*
X452200Y274431D01*
X451847Y274961D01*
X403154Y323654D01*
X402624Y324007D01*
X402000Y324131D01*
X382315D01*
X382163Y324631D01*
X382586Y324914D01*
X383072Y325642D01*
X383243Y326500D01*
X383072Y327358D01*
X382631Y328018D01*
Y341906D01*
X382647Y341930D01*
X382745Y342421D01*
X383255D01*
X383353Y341930D01*
X383857Y341176D01*
X384611Y340672D01*
X385500Y340495D01*
X386389Y340672D01*
X387143Y341176D01*
X387647Y341930D01*
X387745Y342421D01*
X388255D01*
X388353Y341930D01*
X388857Y341176D01*
X388869Y341167D01*
Y338518D01*
X388428Y337858D01*
X388257Y337000D01*
X388428Y336142D01*
X388914Y335414D01*
X389642Y334928D01*
X389743Y334908D01*
X389849Y334377D01*
X389414Y334086D01*
X388928Y333358D01*
X388757Y332500D01*
X388928Y331642D01*
X389414Y330914D01*
X390142Y330428D01*
X391000Y330257D01*
X391858Y330428D01*
X392586Y330914D01*
X393072Y331642D01*
X393227Y332420D01*
X396654Y335846D01*
X397007Y336376D01*
X397131Y337000D01*
Y341167D01*
X397143Y341176D01*
X397647Y341930D01*
X397745Y342421D01*
X398255D01*
X398353Y341930D01*
D02*
G37*
G36*
X491480Y437246D02*
X490980Y437197D01*
X490942Y437390D01*
X490721Y437721D01*
X490390Y437942D01*
X490000Y438020D01*
X485000D01*
Y434000D01*
Y429980D01*
X490000D01*
X490390Y430058D01*
X490721Y430279D01*
X490942Y430610D01*
X490980Y430803D01*
X491480Y430754D01*
Y424443D01*
X490980Y424411D01*
X490897Y425044D01*
X490494Y426017D01*
X489853Y426853D01*
X489017Y427494D01*
X488044Y427897D01*
X487000Y428034D01*
X482000D01*
X480956Y427897D01*
X479983Y427494D01*
X479147Y426853D01*
X478523Y426039D01*
X463500D01*
X462720Y425884D01*
X462058Y425442D01*
X457558Y420942D01*
X457116Y420280D01*
X456961Y419500D01*
Y388345D01*
X425502Y356886D01*
X419286D01*
X419066Y357215D01*
X418589Y357534D01*
X418026Y357646D01*
X414974D01*
X414411Y357534D01*
X413934Y357215D01*
X413714Y356886D01*
X410847D01*
X410066Y356730D01*
X409405Y356288D01*
X408155Y355039D01*
X378345D01*
X377539Y355845D01*
Y363905D01*
X378039Y363961D01*
X380000Y362000D01*
X380500Y362500D01*
X387500D01*
Y364000D01*
X387905Y364405D01*
X387925Y364412D01*
X388461Y364405D01*
X388857Y363813D01*
X389611Y363309D01*
X390000Y363232D01*
Y367819D01*
X391000D01*
Y363232D01*
X391389Y363309D01*
X392143Y363813D01*
X392647Y364567D01*
X392745Y365059D01*
X393255D01*
X393353Y364567D01*
X393857Y363813D01*
X394611Y363309D01*
X395500Y363133D01*
X396389Y363309D01*
X397143Y363813D01*
X397647Y364567D01*
X397745Y365059D01*
X398255D01*
X398353Y364567D01*
X398857Y363813D01*
X399611Y363309D01*
X400500Y363133D01*
X401389Y363309D01*
X402143Y363813D01*
X402647Y364567D01*
X402824Y365457D01*
Y365662D01*
X403324Y365869D01*
X405369Y363824D01*
Y360018D01*
X404928Y359358D01*
X404757Y358500D01*
X404928Y357642D01*
X405414Y356914D01*
X406142Y356428D01*
X407000Y356257D01*
X407858Y356428D01*
X408586Y356914D01*
X409072Y357642D01*
X409243Y358500D01*
X409072Y359358D01*
X408631Y360018D01*
Y364500D01*
X408507Y365124D01*
X408153Y365653D01*
X404654Y369153D01*
X404124Y369507D01*
X403500Y369631D01*
X403324Y369596D01*
X402824Y370007D01*
Y370181D01*
X402647Y371071D01*
X402143Y371825D01*
X401389Y372328D01*
X400500Y372505D01*
X399611Y372328D01*
X398857Y371825D01*
X398353Y371071D01*
X398255Y370579D01*
X397745D01*
X397647Y371071D01*
X397143Y371825D01*
X397131Y371833D01*
Y371982D01*
X397572Y372642D01*
X397743Y373500D01*
X397572Y374358D01*
X397086Y375086D01*
X396358Y375572D01*
X395500Y375743D01*
X394642Y375572D01*
X393914Y375086D01*
X393428Y374358D01*
X393257Y373500D01*
X393428Y372642D01*
X393869Y371982D01*
Y371833D01*
X393857Y371825D01*
X393353Y371071D01*
X393255Y370579D01*
X392745D01*
X392647Y371071D01*
X392143Y371825D01*
X392131Y371833D01*
Y373500D01*
X392007Y374124D01*
X391653Y374654D01*
X391124Y375007D01*
X390500Y375131D01*
X389876Y375007D01*
X389347Y374654D01*
X388993Y374124D01*
X388869Y373500D01*
Y371833D01*
X388857Y371825D01*
X388500Y371291D01*
X388000Y371443D01*
Y376500D01*
X390886Y376956D01*
X390914Y376914D01*
X391642Y376428D01*
X392500Y376257D01*
X393358Y376428D01*
X394086Y376914D01*
X394495Y377525D01*
X397500Y378000D01*
Y378695D01*
X398000Y378918D01*
X398041Y378891D01*
X398524Y378795D01*
X400413D01*
X400896Y378891D01*
X401305Y379164D01*
X401441Y379369D01*
X403435D01*
X403632Y379237D01*
X404256Y379113D01*
X408202D01*
X408409Y378803D01*
X408740Y378582D01*
X409130Y378504D01*
X412870D01*
X413260Y378582D01*
X413591Y378803D01*
X413798Y379113D01*
X423641D01*
X423688Y378877D01*
X423909Y378547D01*
X424240Y378326D01*
X424630Y378248D01*
X428370D01*
X428760Y378326D01*
X429091Y378547D01*
X429312Y378877D01*
X429359Y379113D01*
X432334D01*
X432428Y378642D01*
X432914Y377914D01*
X433642Y377428D01*
X434500Y377257D01*
X435358Y377428D01*
X436086Y377914D01*
X436572Y378642D01*
X436743Y379500D01*
X436572Y380358D01*
X436086Y381086D01*
X435358Y381572D01*
X434580Y381727D01*
X434409Y381898D01*
X433880Y382251D01*
X433256Y382376D01*
X429359D01*
X429312Y382611D01*
X429091Y382941D01*
X428760Y383162D01*
X428370Y383240D01*
X424630D01*
X424240Y383162D01*
X423909Y382941D01*
X423688Y382611D01*
X423641Y382376D01*
X413890D01*
Y382476D01*
X413812Y382867D01*
X413591Y383197D01*
X413260Y383418D01*
X412870Y383496D01*
X409130D01*
X408740Y383418D01*
X408409Y383197D01*
X408188Y382867D01*
X408110Y382476D01*
Y382376D01*
X404821D01*
X404624Y382507D01*
X404000Y382631D01*
X401441D01*
X401305Y382836D01*
X400896Y383109D01*
X400413Y383205D01*
X398524D01*
X398041Y383109D01*
X398000Y383082D01*
X397500Y383305D01*
Y383850D01*
X398000Y384231D01*
X398051Y384221D01*
X398811D01*
Y386500D01*
Y388779D01*
X398051D01*
X397661Y388702D01*
X397500Y388594D01*
X397339Y388702D01*
X397242Y388721D01*
X390500Y394500D01*
Y432000D01*
X388500D01*
X385825Y434675D01*
X385819Y434721D01*
X385889Y434933D01*
X386000Y435099D01*
Y437500D01*
Y439779D01*
X385500D01*
Y448221D01*
X385811D01*
Y450500D01*
Y453203D01*
X385779Y453279D01*
X390019Y457518D01*
X390480Y457327D01*
Y454000D01*
X390558Y453610D01*
X390779Y453279D01*
X391110Y453058D01*
X391500Y452980D01*
X395754D01*
Y464000D01*
X396254D01*
Y464500D01*
X402028D01*
Y472980D01*
X491480D01*
Y437246D01*
D02*
G37*
G36*
X448801Y253615D02*
X449364Y253503D01*
X451383D01*
X452869Y252017D01*
Y230154D01*
X452483Y229994D01*
X451647Y229353D01*
X451006Y228517D01*
X450603Y227544D01*
X450465Y226500D01*
Y221500D01*
X450603Y220456D01*
X451006Y219483D01*
X451647Y218647D01*
X452483Y218006D01*
X453456Y217603D01*
X454089Y217519D01*
X454057Y217020D01*
X444943D01*
X444911Y217519D01*
X445544Y217603D01*
X446517Y218006D01*
X447353Y218647D01*
X447994Y219483D01*
X448397Y220456D01*
X448534Y221500D01*
Y226500D01*
X448397Y227544D01*
X447994Y228517D01*
X447353Y229353D01*
X446517Y229994D01*
X446131Y230154D01*
Y237846D01*
X446007Y238471D01*
X445653Y239000D01*
X441146Y243507D01*
Y245526D01*
X441034Y246089D01*
X440716Y246566D01*
X440238Y246885D01*
X439675Y246997D01*
X437367D01*
X437160Y247497D01*
X443166Y253503D01*
X445329D01*
X445892Y253615D01*
X446085Y253744D01*
X448608D01*
X448801Y253615D01*
D02*
G37*
G36*
X369000Y383500D02*
X368909Y383279D01*
X368689D01*
Y381000D01*
Y378721D01*
X369449D01*
X369839Y378798D01*
X370000Y378906D01*
X370161Y378798D01*
X370551Y378721D01*
X371737D01*
X371789Y378710D01*
X372187Y378585D01*
X372257Y378500D01*
X372428Y377642D01*
X372914Y376914D01*
X373642Y376428D01*
X374500Y376257D01*
X375358Y376428D01*
X375786Y376714D01*
X378000Y374500D01*
Y371443D01*
X377500Y371291D01*
X377143Y371825D01*
X376389Y372328D01*
X375500Y372505D01*
X374611Y372328D01*
X373857Y371825D01*
X373353Y371071D01*
X373255Y370579D01*
X372745D01*
X372647Y371071D01*
X372143Y371825D01*
X371389Y372328D01*
X370500Y372505D01*
X369611Y372328D01*
X368857Y371825D01*
X368353Y371071D01*
X368176Y370181D01*
Y369450D01*
X332857D01*
X326153Y376153D01*
X325624Y376507D01*
X325000Y376631D01*
X300023D01*
X299853Y376853D01*
X299017Y377494D01*
X298044Y377897D01*
X297000Y378034D01*
X292000D01*
X290956Y377897D01*
X289983Y377494D01*
X289147Y376853D01*
X288506Y376017D01*
X288103Y375044D01*
X288019Y374411D01*
X287520Y374443D01*
Y383557D01*
X288019Y383589D01*
X288103Y382956D01*
X288506Y381983D01*
X289147Y381147D01*
X289983Y380506D01*
X290956Y380103D01*
X292000Y379965D01*
X294000D01*
Y384000D01*
Y388035D01*
X292000D01*
X290956Y387897D01*
X289983Y387494D01*
X289147Y386853D01*
X288506Y386017D01*
X288103Y385044D01*
X288019Y384411D01*
X287520Y384443D01*
Y393557D01*
X288019Y393589D01*
X288103Y392956D01*
X288506Y391983D01*
X289147Y391147D01*
X289983Y390506D01*
X290956Y390103D01*
X292000Y389966D01*
X297000D01*
X298044Y390103D01*
X299017Y390506D01*
X299853Y391147D01*
X300494Y391983D01*
X300897Y392956D01*
X301034Y394000D01*
X300897Y395044D01*
X300494Y396017D01*
X299853Y396853D01*
X299017Y397494D01*
X298044Y397897D01*
X297000Y398035D01*
X292000D01*
X290956Y397897D01*
X289983Y397494D01*
X289147Y396853D01*
X288506Y396017D01*
X288103Y395044D01*
X288019Y394411D01*
X287520Y394443D01*
Y403557D01*
X288019Y403589D01*
X288103Y402956D01*
X288506Y401983D01*
X289147Y401147D01*
X289983Y400506D01*
X290956Y400103D01*
X292000Y399966D01*
X294000D01*
Y404000D01*
Y408035D01*
X292000D01*
X290956Y407897D01*
X289983Y407494D01*
X289147Y406853D01*
X288506Y406017D01*
X288103Y405044D01*
X288019Y404411D01*
X287520Y404443D01*
Y413557D01*
X288019Y413589D01*
X288103Y412956D01*
X288506Y411983D01*
X289147Y411147D01*
X289983Y410506D01*
X290956Y410103D01*
X292000Y409966D01*
X297000D01*
X298044Y410103D01*
X299017Y410506D01*
X299853Y411147D01*
X300494Y411983D01*
X300654Y412369D01*
X319824D01*
X331369Y400824D01*
Y386500D01*
X331493Y385876D01*
X331846Y385347D01*
X333347Y383846D01*
X333876Y383493D01*
X334009Y383466D01*
X334119Y382911D01*
X334438Y382434D01*
X334915Y382115D01*
X335478Y382003D01*
X338136D01*
X338699Y382115D01*
X338892Y382244D01*
X341415D01*
X341608Y382115D01*
X342171Y382003D01*
X344829D01*
X345392Y382115D01*
X345869Y382434D01*
X346188Y382911D01*
X346279Y383369D01*
X349382D01*
X349428Y383142D01*
X349914Y382414D01*
X350642Y381928D01*
X351500Y381757D01*
X352358Y381928D01*
X353086Y382414D01*
X353572Y383142D01*
X353743Y384000D01*
X353572Y384858D01*
X353086Y385586D01*
X352358Y386072D01*
X351528Y386238D01*
X351124Y386507D01*
X350500Y386631D01*
X346279D01*
X346188Y387089D01*
X345869Y387566D01*
X345392Y387885D01*
X344829Y387997D01*
X342171D01*
X341608Y387885D01*
X341415Y387756D01*
X338892D01*
X338699Y387885D01*
X338136Y387997D01*
X335478D01*
X335131Y387928D01*
X334631Y388251D01*
Y401500D01*
X334507Y402124D01*
X334154Y402654D01*
X321654Y415154D01*
X321124Y415507D01*
X320500Y415631D01*
X300654D01*
X300494Y416017D01*
X299853Y416853D01*
X299017Y417494D01*
X298044Y417897D01*
X297000Y418035D01*
X292000D01*
X290956Y417897D01*
X289983Y417494D01*
X289147Y416853D01*
X288506Y416017D01*
X288103Y415044D01*
X288019Y414411D01*
X287520Y414443D01*
Y423557D01*
X288019Y423589D01*
X288103Y422956D01*
X288506Y421983D01*
X289147Y421147D01*
X289983Y420506D01*
X290956Y420103D01*
X292000Y419966D01*
X294000D01*
Y424000D01*
Y428034D01*
X292000D01*
X290956Y427897D01*
X289983Y427494D01*
X289147Y426853D01*
X288506Y426017D01*
X288103Y425044D01*
X288019Y424411D01*
X287520Y424443D01*
Y430754D01*
X288019Y430803D01*
X288058Y430610D01*
X288279Y430279D01*
X288610Y430058D01*
X289000Y429980D01*
X300000D01*
X300390Y430058D01*
X300721Y430279D01*
X300942Y430610D01*
X301020Y431000D01*
Y437000D01*
X300942Y437390D01*
X300721Y437721D01*
X300390Y437942D01*
X300000Y438020D01*
X289000D01*
X288610Y437942D01*
X288279Y437721D01*
X288058Y437390D01*
X288019Y437197D01*
X287520Y437246D01*
Y472980D01*
X355973D01*
Y464500D01*
X361746D01*
X367520D01*
Y472980D01*
X369000D01*
X369000Y383500D01*
D02*
G37*
%LPC*%
G36*
X484000Y408035D02*
X482000D01*
X480956Y407897D01*
X479983Y407494D01*
X479147Y406853D01*
X478506Y406017D01*
X478103Y405044D01*
X478031Y404500D01*
X484000D01*
Y408035D01*
D02*
G37*
G36*
Y403500D02*
X478031D01*
X478103Y402956D01*
X478506Y401983D01*
X479147Y401147D01*
X479983Y400506D01*
X480956Y400103D01*
X482000Y399966D01*
X484000D01*
Y403500D01*
D02*
G37*
G36*
Y288035D02*
X482000D01*
X480956Y287897D01*
X479983Y287494D01*
X479147Y286853D01*
X478506Y286017D01*
X478103Y285044D01*
X478031Y284500D01*
X484000D01*
Y288035D01*
D02*
G37*
G36*
Y283500D02*
X478031D01*
X478103Y282956D01*
X478506Y281983D01*
X479147Y281147D01*
X479983Y280506D01*
X480956Y280103D01*
X482000Y279965D01*
X484000D01*
Y283500D01*
D02*
G37*
G36*
Y278034D02*
X482000D01*
X480956Y277897D01*
X479983Y277494D01*
X479147Y276853D01*
X478506Y276017D01*
X478103Y275044D01*
X478031Y274500D01*
X484000D01*
Y278034D01*
D02*
G37*
G36*
Y273500D02*
X478031D01*
X478103Y272956D01*
X478506Y271983D01*
X479147Y271147D01*
X479983Y270506D01*
X480956Y270103D01*
X482000Y269966D01*
X484000D01*
Y273500D01*
D02*
G37*
G36*
X434370Y342240D02*
X433000D01*
Y339744D01*
Y337248D01*
X434370D01*
X434760Y337326D01*
X435091Y337547D01*
X435197Y337705D01*
X437587D01*
X437720Y337616D01*
X438500Y337461D01*
X439280Y337616D01*
X439942Y338058D01*
X440384Y338720D01*
X440539Y339500D01*
X440384Y340280D01*
X439942Y340942D01*
X439698Y341186D01*
X439036Y341628D01*
X438256Y341783D01*
X435197D01*
X435091Y341941D01*
X434760Y342162D01*
X434370Y342240D01*
D02*
G37*
G36*
X484000Y373500D02*
X478031D01*
X478103Y372956D01*
X478506Y371983D01*
X479147Y371147D01*
X479983Y370506D01*
X480956Y370103D01*
X482000Y369966D01*
X484000D01*
Y373500D01*
D02*
G37*
G36*
Y378034D02*
X482000D01*
X480956Y377897D01*
X479983Y377494D01*
X479147Y376853D01*
X478506Y376017D01*
X478103Y375044D01*
X478031Y374500D01*
X484000D01*
Y378034D01*
D02*
G37*
G36*
X297000Y288035D02*
X295000D01*
Y284500D01*
X300969D01*
X300897Y285044D01*
X300494Y286017D01*
X299853Y286853D01*
X299017Y287494D01*
X298044Y287897D01*
X297000Y288035D01*
D02*
G37*
G36*
X300969Y283500D02*
X295000D01*
Y279965D01*
X297000D01*
X298044Y280103D01*
X299017Y280506D01*
X299853Y281147D01*
X300494Y281983D01*
X300897Y282956D01*
X300969Y283500D01*
D02*
G37*
G36*
X384000Y230469D02*
X383456Y230397D01*
X382483Y229994D01*
X381647Y229353D01*
X381006Y228517D01*
X380603Y227544D01*
X380466Y226500D01*
Y224500D01*
X384000D01*
Y230469D01*
D02*
G37*
G36*
X374000D02*
X373456Y230397D01*
X372483Y229994D01*
X371647Y229353D01*
X371006Y228517D01*
X370603Y227544D01*
X370465Y226500D01*
Y224500D01*
X374000D01*
Y230469D01*
D02*
G37*
G36*
X297000Y298035D02*
X295000D01*
Y294500D01*
X300969D01*
X300897Y295044D01*
X300494Y296017D01*
X299853Y296853D01*
X299017Y297494D01*
X298044Y297897D01*
X297000Y298035D01*
D02*
G37*
G36*
X404000Y230469D02*
X403456Y230397D01*
X402483Y229994D01*
X401647Y229353D01*
X401006Y228517D01*
X400603Y227544D01*
X400465Y226500D01*
Y224500D01*
X404000D01*
Y230469D01*
D02*
G37*
G36*
X300969Y293500D02*
X295000D01*
Y289966D01*
X297000D01*
X298044Y290103D01*
X299017Y290506D01*
X299853Y291147D01*
X300494Y291983D01*
X300897Y292956D01*
X300969Y293500D01*
D02*
G37*
G36*
X375000Y230469D02*
Y224500D01*
X378535D01*
Y226500D01*
X378397Y227544D01*
X377994Y228517D01*
X377353Y229353D01*
X376517Y229994D01*
X375544Y230397D01*
X375000Y230469D01*
D02*
G37*
G36*
X297500Y230520D02*
X295000D01*
Y224500D01*
X298520D01*
Y229500D01*
X298442Y229890D01*
X298221Y230221D01*
X297890Y230442D01*
X297500Y230520D01*
D02*
G37*
G36*
X385000Y230469D02*
Y224500D01*
X388534D01*
Y226500D01*
X388397Y227544D01*
X387994Y228517D01*
X387353Y229353D01*
X386517Y229994D01*
X385544Y230397D01*
X385000Y230469D01*
D02*
G37*
G36*
X405000D02*
Y224500D01*
X408534D01*
Y226500D01*
X408397Y227544D01*
X407994Y228517D01*
X407353Y229353D01*
X406517Y229994D01*
X405544Y230397D01*
X405000Y230469D01*
D02*
G37*
G36*
X415000D02*
Y224500D01*
X418535D01*
Y226500D01*
X418397Y227544D01*
X417994Y228517D01*
X417353Y229353D01*
X416517Y229994D01*
X415544Y230397D01*
X415000Y230469D01*
D02*
G37*
G36*
X384500Y267542D02*
X382382Y267375D01*
X380315Y266879D01*
X378352Y266066D01*
X376540Y264955D01*
X374924Y263576D01*
X373545Y261960D01*
X372434Y260148D01*
X371621Y258185D01*
X371125Y256118D01*
X370958Y254000D01*
X371125Y251882D01*
X371621Y249815D01*
X372434Y247852D01*
X373545Y246040D01*
X374924Y244425D01*
X376540Y243044D01*
X378352Y241934D01*
X380315Y241121D01*
X382382Y240625D01*
X384500Y240458D01*
X386618Y240625D01*
X388685Y241121D01*
X390648Y241934D01*
X392460Y243044D01*
X394075Y244425D01*
X395456Y246040D01*
X396566Y247852D01*
X397379Y249815D01*
X397875Y251882D01*
X398042Y254000D01*
X397875Y256118D01*
X397379Y258185D01*
X396566Y260148D01*
X395456Y261960D01*
X394075Y263576D01*
X392460Y264955D01*
X390648Y266066D01*
X388685Y266879D01*
X386618Y267375D01*
X384500Y267542D01*
D02*
G37*
G36*
X320000Y256039D02*
X319220Y255884D01*
X318558Y255442D01*
X318116Y254780D01*
X317961Y254000D01*
Y252218D01*
X317740Y252174D01*
X317409Y251953D01*
X317188Y251623D01*
X317110Y251232D01*
Y250256D01*
X322890D01*
Y251232D01*
X322812Y251623D01*
X322591Y251953D01*
X322260Y252174D01*
X322039Y252218D01*
Y254000D01*
X321884Y254780D01*
X321442Y255442D01*
X320780Y255884D01*
X320000Y256039D01*
D02*
G37*
G36*
X414000Y230469D02*
X413456Y230397D01*
X412483Y229994D01*
X411647Y229353D01*
X411006Y228517D01*
X410603Y227544D01*
X410465Y226500D01*
Y224500D01*
X414000D01*
Y230469D01*
D02*
G37*
G36*
X294000Y230520D02*
X291500D01*
X291110Y230442D01*
X290779Y230221D01*
X290558Y229890D01*
X290480Y229500D01*
Y224500D01*
X294000D01*
Y230520D01*
D02*
G37*
G36*
X319500Y249256D02*
X317110D01*
Y248280D01*
X317188Y247889D01*
X317409Y247559D01*
X317740Y247338D01*
X318130Y247260D01*
X319500D01*
Y249256D01*
D02*
G37*
G36*
X322890D02*
X320500D01*
Y247260D01*
X321870D01*
X322260Y247338D01*
X322591Y247559D01*
X322812Y247889D01*
X322890Y248280D01*
Y249256D01*
D02*
G37*
G36*
X475000Y230469D02*
Y224500D01*
X478535D01*
Y226500D01*
X478397Y227544D01*
X477994Y228517D01*
X477353Y229353D01*
X476517Y229994D01*
X475544Y230397D01*
X475000Y230469D01*
D02*
G37*
G36*
X474000D02*
X473456Y230397D01*
X472483Y229994D01*
X471647Y229353D01*
X471006Y228517D01*
X470603Y227544D01*
X470466Y226500D01*
Y224500D01*
X474000D01*
Y230469D01*
D02*
G37*
G36*
X484000Y433500D02*
X477980D01*
Y431000D01*
X478058Y430610D01*
X478279Y430279D01*
X478610Y430058D01*
X479000Y429980D01*
X484000D01*
Y433500D01*
D02*
G37*
G36*
Y438020D02*
X479000D01*
X478610Y437942D01*
X478279Y437721D01*
X478058Y437390D01*
X477980Y437000D01*
Y434500D01*
X484000D01*
Y438020D01*
D02*
G37*
G36*
X388779Y437000D02*
X387000D01*
Y435221D01*
X387760D01*
X388150Y435298D01*
X388481Y435519D01*
X388702Y435850D01*
X388779Y436240D01*
Y437000D01*
D02*
G37*
G36*
X387760Y439779D02*
X387000D01*
Y438000D01*
X388779D01*
Y438760D01*
X388702Y439150D01*
X388481Y439481D01*
X388150Y439702D01*
X387760Y439779D01*
D02*
G37*
G36*
X402028Y463500D02*
X396754D01*
Y452980D01*
X401008D01*
X401398Y453058D01*
X401729Y453279D01*
X401950Y453610D01*
X402028Y454000D01*
Y463500D01*
D02*
G37*
G36*
X387571Y452779D02*
X386811D01*
Y451000D01*
X388591D01*
Y451760D01*
X388513Y452150D01*
X388292Y452481D01*
X387961Y452702D01*
X387571Y452779D01*
D02*
G37*
G36*
X464500Y467542D02*
X462382Y467375D01*
X460315Y466879D01*
X458352Y466066D01*
X456540Y464956D01*
X454924Y463576D01*
X453545Y461960D01*
X452434Y460148D01*
X451621Y458185D01*
X451125Y456118D01*
X450958Y454000D01*
X451125Y451882D01*
X451621Y449815D01*
X452434Y447852D01*
X453545Y446040D01*
X454924Y444424D01*
X456540Y443045D01*
X458352Y441934D01*
X460315Y441121D01*
X462382Y440625D01*
X464500Y440458D01*
X466618Y440625D01*
X468685Y441121D01*
X470648Y441934D01*
X472460Y443045D01*
X474076Y444424D01*
X475456Y446040D01*
X476566Y447852D01*
X477379Y449815D01*
X477875Y451882D01*
X478042Y454000D01*
X477875Y456118D01*
X477379Y458185D01*
X476566Y460148D01*
X475456Y461960D01*
X474076Y463576D01*
X472460Y464956D01*
X470648Y466066D01*
X468685Y466879D01*
X466618Y467375D01*
X464500Y467542D01*
D02*
G37*
G36*
X388591Y450000D02*
X386811D01*
Y448221D01*
X387571D01*
X387961Y448298D01*
X388292Y448519D01*
X388513Y448850D01*
X388591Y449240D01*
Y450000D01*
D02*
G37*
G36*
X426000Y385756D02*
X423610D01*
Y384780D01*
X423688Y384389D01*
X423909Y384059D01*
X424240Y383838D01*
X424630Y383760D01*
X426000D01*
Y385756D01*
D02*
G37*
G36*
X429390D02*
X427000D01*
Y383760D01*
X428370D01*
X428760Y383838D01*
X429091Y384059D01*
X429312Y384389D01*
X429390Y384780D01*
Y385756D01*
D02*
G37*
G36*
X410500Y386012D02*
X408110D01*
Y385035D01*
X408188Y384645D01*
X408409Y384314D01*
X408740Y384093D01*
X409130Y384016D01*
X410500D01*
Y386012D01*
D02*
G37*
G36*
X411000Y392539D02*
X410220Y392384D01*
X409558Y391942D01*
X409116Y391280D01*
X408961Y390500D01*
Y388974D01*
X408740Y388930D01*
X408409Y388709D01*
X408188Y388378D01*
X408110Y387988D01*
Y387012D01*
X413890D01*
Y387988D01*
X413812Y388378D01*
X413591Y388709D01*
X413260Y388930D01*
X413039Y388974D01*
Y390500D01*
X412884Y391280D01*
X412442Y391942D01*
X411780Y392384D01*
X411000Y392539D01*
D02*
G37*
G36*
X426500D02*
X425720Y392384D01*
X425058Y391942D01*
X424616Y391280D01*
X424461Y390500D01*
Y388718D01*
X424240Y388674D01*
X423909Y388453D01*
X423688Y388123D01*
X423610Y387732D01*
Y386756D01*
X429390D01*
Y387732D01*
X429312Y388123D01*
X429091Y388453D01*
X428760Y388674D01*
X428539Y388718D01*
Y390500D01*
X428384Y391280D01*
X427942Y391942D01*
X427280Y392384D01*
X426500Y392539D01*
D02*
G37*
G36*
X413890Y386012D02*
X411500D01*
Y384016D01*
X412870D01*
X413260Y384093D01*
X413591Y384314D01*
X413812Y384645D01*
X413890Y385035D01*
Y386012D01*
D02*
G37*
G36*
X400571Y388779D02*
X399811D01*
Y386500D01*
Y384221D01*
X400571D01*
X400961Y384298D01*
X401204Y384461D01*
X404000D01*
X404780Y384616D01*
X405442Y385058D01*
X405884Y385720D01*
X406039Y386500D01*
X405884Y387280D01*
X405442Y387942D01*
X404780Y388384D01*
X404000Y388539D01*
X401204D01*
X400961Y388702D01*
X400571Y388779D01*
D02*
G37*
G36*
X297000Y428034D02*
X295000D01*
Y424500D01*
X300969D01*
X300897Y425044D01*
X300494Y426017D01*
X299853Y426853D01*
X299017Y427494D01*
X298044Y427897D01*
X297000Y428034D01*
D02*
G37*
G36*
Y408035D02*
X295000D01*
Y404500D01*
X300969D01*
X300897Y405044D01*
X300494Y406017D01*
X299853Y406853D01*
X299017Y407494D01*
X298044Y407897D01*
X297000Y408035D01*
D02*
G37*
G36*
X300969Y423500D02*
X295000D01*
Y419966D01*
X297000D01*
X298044Y420103D01*
X299017Y420506D01*
X299853Y421147D01*
X300494Y421983D01*
X300897Y422956D01*
X300969Y423500D01*
D02*
G37*
G36*
X361246Y463500D02*
X355973D01*
Y454000D01*
X356050Y453610D01*
X356271Y453279D01*
X356602Y453058D01*
X356992Y452980D01*
X361246D01*
Y463500D01*
D02*
G37*
G36*
X367520D02*
X362246D01*
Y452980D01*
X366500D01*
X366890Y453058D01*
X367221Y453279D01*
X367442Y453610D01*
X367520Y454000D01*
Y463500D01*
D02*
G37*
G36*
X314500Y467542D02*
X312382Y467375D01*
X310315Y466879D01*
X308352Y466066D01*
X306540Y464956D01*
X304925Y463576D01*
X303544Y461960D01*
X302434Y460148D01*
X301621Y458185D01*
X301125Y456118D01*
X300958Y454000D01*
X301125Y451882D01*
X301621Y449815D01*
X302434Y447852D01*
X303544Y446040D01*
X304925Y444424D01*
X306540Y443045D01*
X308352Y441934D01*
X310315Y441121D01*
X312382Y440625D01*
X314500Y440458D01*
X316618Y440625D01*
X318685Y441121D01*
X320648Y441934D01*
X322460Y443045D01*
X324076Y444424D01*
X325455Y446040D01*
X326566Y447852D01*
X327379Y449815D01*
X327875Y451882D01*
X328042Y454000D01*
X327875Y456118D01*
X327379Y458185D01*
X326566Y460148D01*
X325455Y461960D01*
X324076Y463576D01*
X322460Y464956D01*
X320648Y466066D01*
X318685Y466879D01*
X316618Y467375D01*
X314500Y467542D01*
D02*
G37*
G36*
X300969Y383500D02*
X295000D01*
Y379965D01*
X297000D01*
X298044Y380103D01*
X299017Y380506D01*
X299853Y381147D01*
X300494Y381983D01*
X300897Y382956D01*
X300969Y383500D01*
D02*
G37*
G36*
X367689Y383279D02*
X366929D01*
X366539Y383202D01*
X366208Y382981D01*
X365987Y382650D01*
X365983Y382631D01*
X363500D01*
X362876Y382507D01*
X362347Y382154D01*
X361993Y381624D01*
X361869Y381000D01*
X361993Y380376D01*
X362347Y379847D01*
X362876Y379493D01*
X363500Y379369D01*
X365983D01*
X365987Y379350D01*
X366208Y379019D01*
X366539Y378798D01*
X366929Y378721D01*
X367689D01*
Y381000D01*
Y383279D01*
D02*
G37*
G36*
X300969Y403500D02*
X295000D01*
Y399966D01*
X297000D01*
X298044Y400103D01*
X299017Y400506D01*
X299853Y401147D01*
X300494Y401983D01*
X300897Y402956D01*
X300969Y403500D01*
D02*
G37*
G36*
X297000Y388035D02*
X295000D01*
Y384500D01*
X300969D01*
X300897Y385044D01*
X300494Y386017D01*
X299853Y386853D01*
X299017Y387494D01*
X298044Y387897D01*
X297000Y388035D01*
D02*
G37*
%LPD*%
D10*
X379000Y464000D02*
D03*
D11*
X396254D02*
D03*
X361746D02*
D03*
D12*
X320000Y249756D02*
D03*
Y244244D02*
D03*
X411000Y386512D02*
D03*
Y381000D02*
D03*
X426500Y386256D02*
D03*
Y380744D02*
D03*
X425500Y339744D02*
D03*
Y345256D02*
D03*
X432500Y339744D02*
D03*
Y345256D02*
D03*
D13*
X371811Y381000D02*
D03*
X368189D02*
D03*
X377189Y386500D02*
D03*
X380811D02*
D03*
X395689D02*
D03*
X399311D02*
D03*
X382689Y450500D02*
D03*
X386311D02*
D03*
X382878Y437500D02*
D03*
X386500D02*
D03*
D14*
X380968Y381000D02*
D03*
X377031D02*
D03*
X386032D02*
D03*
X389968D02*
D03*
Y386500D02*
D03*
X386032D02*
D03*
X395532Y381000D02*
D03*
X399468D02*
D03*
D15*
X400500Y367819D02*
D03*
X395500D02*
D03*
X390500D02*
D03*
X385500D02*
D03*
X380500D02*
D03*
X375500D02*
D03*
X370500D02*
D03*
X400500Y345181D02*
D03*
X395500D02*
D03*
X390500D02*
D03*
X385500D02*
D03*
X380500D02*
D03*
X375500D02*
D03*
X370500D02*
D03*
D16*
X381000Y392189D02*
D03*
Y395811D02*
D03*
D17*
X381500Y442031D02*
D03*
Y445968D02*
D03*
D18*
X431653Y244000D02*
D03*
X438346D02*
D03*
X450693Y256500D02*
D03*
X444000D02*
D03*
X336807Y385000D02*
D03*
X343500D02*
D03*
D19*
X416500Y348153D02*
D03*
Y354847D02*
D03*
D20*
X407000Y330111D02*
Y348500D01*
Y330111D02*
X463700Y273411D01*
Y258800D02*
Y273411D01*
X461500Y254500D02*
Y272500D01*
X400500Y333500D02*
X461500Y272500D01*
X400500Y333500D02*
Y345181D01*
Y367819D02*
X403319D01*
X403500Y368000D01*
X407000Y364500D01*
Y358500D02*
Y364500D01*
X463700Y258800D02*
X468500Y254000D01*
X484500D01*
X466500Y364000D02*
X473000D01*
X449500Y304000D02*
X473000D01*
X404256Y380744D02*
X426500D01*
X433256D02*
X434500Y379500D01*
X426500Y380744D02*
X433256D01*
X404000Y381000D02*
X404256Y380744D01*
X448000Y302000D02*
Y302500D01*
X449500Y304000D01*
X384000Y296500D02*
X416000D01*
X331744Y244244D02*
X384000Y296500D01*
X320000Y244244D02*
X331744D01*
X402000Y317000D02*
X431653Y287347D01*
X384000Y317000D02*
X402000D01*
X431653Y244000D02*
Y287347D01*
X319756Y244000D02*
X320000Y244244D01*
X294500Y244000D02*
X319756D01*
X334500Y385000D02*
X336807D01*
X333000Y386500D02*
X334500Y385000D01*
X333000Y386500D02*
Y401500D01*
X320500Y414000D02*
X333000Y401500D01*
X294500Y414000D02*
X320500D01*
X391000Y332500D02*
X395500Y337000D01*
X341500Y334000D02*
X362500D01*
X331500Y344000D02*
X341500Y334000D01*
X294500Y344000D02*
X331500D01*
X364000Y338000D02*
X370500Y331500D01*
X343500Y338000D02*
X364000D01*
X327500Y354000D02*
X343500Y338000D01*
X294500Y354000D02*
X327500D01*
X395500Y337000D02*
Y345181D01*
X390500Y337000D02*
Y345181D01*
X294500Y364000D02*
X324000D01*
X342819Y345181D01*
X370500D01*
X294500Y374000D02*
X295500Y375000D01*
X325000D01*
X332181Y367819D01*
X370500D01*
X380500Y345181D02*
X381000Y344681D01*
Y326500D02*
Y344681D01*
Y319000D02*
X382000D01*
X384000Y317000D01*
X424500Y236846D02*
X431653Y244000D01*
X424500Y224000D02*
Y236846D01*
X375500Y324500D02*
Y345181D01*
Y324500D02*
X377500Y322500D01*
X402000D01*
X450693Y273807D01*
Y256500D02*
Y273807D01*
X438346Y244000D02*
X444500Y237846D01*
Y224000D02*
Y237846D01*
X450693Y256500D02*
X454500Y252693D01*
Y224000D02*
Y252693D01*
X472000Y244000D02*
X484500D01*
X461500Y254500D02*
X472000Y244000D01*
X390500Y367819D02*
Y373500D01*
X395500Y367819D02*
Y373500D01*
X350500Y385000D02*
X351500Y384000D01*
X343500Y385000D02*
X350500D01*
X374000Y379000D02*
Y381000D01*
Y379000D02*
X374500Y378500D01*
X392500D02*
X392750Y378750D01*
Y381000D01*
X399468D02*
X404000D01*
X363500D02*
X368189D01*
X377031Y383850D02*
X378668D01*
X377031D02*
Y386343D01*
X378668Y383850D02*
X380968Y381550D01*
X389968Y384937D02*
Y386500D01*
X388881Y383850D02*
X389968Y384937D01*
X388332Y383850D02*
X388881D01*
X386032Y381550D02*
X388332Y383850D01*
X386032Y381000D02*
Y381550D01*
X377031Y386343D02*
X377189Y386500D01*
X380968Y381000D02*
Y381550D01*
D21*
X410847Y354847D02*
X416500D01*
X409000Y353000D02*
X410847Y354847D01*
X320000Y249756D02*
Y254000D01*
X399311Y386500D02*
X404000D01*
X411000Y386512D02*
Y390500D01*
X426500Y386256D02*
Y390500D01*
X429000Y339744D02*
X432500D01*
X425500D02*
X429000D01*
Y335000D02*
Y339744D01*
X438256D02*
X438500Y339500D01*
X432500Y339744D02*
X438256D01*
X420000Y339500D02*
X420244Y339744D01*
X425500D01*
X466500Y384500D02*
Y392000D01*
Y383000D02*
Y384500D01*
X467000Y384000D01*
X484500D01*
X432500Y345256D02*
X433000Y345756D01*
Y349500D01*
X466500Y383000D01*
Y392000D02*
X468500Y394000D01*
X484500D01*
X425500Y345256D02*
X432500D01*
X424744Y344500D02*
X425500Y345256D01*
X419000Y344500D02*
X424744D01*
X416500Y347000D02*
X419000Y344500D01*
X416500Y347000D02*
Y348153D01*
X422000Y351000D02*
X429000D01*
X419153Y348153D02*
X422000Y351000D01*
X416500Y348153D02*
X419153D01*
X429000Y351000D02*
X463000Y385000D01*
Y411500D01*
X465500Y414000D01*
X484500D01*
X463500Y424000D02*
X484500D01*
X459000Y419500D02*
X463500Y424000D01*
X459000Y387500D02*
Y419500D01*
X426346Y354847D02*
X459000Y387500D01*
X416500Y354847D02*
X426346D01*
X377500Y353000D02*
X409000D01*
X375500Y355000D02*
X377500Y353000D01*
X375500Y355000D02*
Y367819D01*
D22*
X473000Y364000D02*
X484500D01*
X467500Y358500D02*
X473000Y364000D01*
X467500Y309500D02*
Y358500D01*
Y309500D02*
X473000Y304000D01*
X484500D01*
D23*
X434925Y224000D02*
Y247425D01*
X434500Y224000D02*
X434925D01*
Y247425D02*
X444000Y256500D01*
D24*
X374000Y381000D02*
X377031D01*
X371811D02*
X374000D01*
X392750D02*
X395532D01*
X389968D02*
X392750D01*
X381000Y386689D02*
Y392189D01*
X389968Y386500D02*
X395689D01*
X380968Y381000D02*
X381000Y380968D01*
Y377500D02*
Y380968D01*
X380500Y377000D02*
X381000Y377500D01*
X380500Y367819D02*
Y377000D01*
X386000Y380968D02*
X386032Y381000D01*
X386000Y378500D02*
Y380968D01*
X385500Y378000D02*
X386000Y378500D01*
X385500Y367819D02*
Y378000D01*
X380811Y386500D02*
X386032D01*
X380811D02*
X381000Y386689D01*
X381500Y434000D02*
Y442031D01*
X381000Y433500D02*
X381500Y434000D01*
Y445968D02*
Y448000D01*
X382689Y449189D01*
Y450500D01*
X379000Y454189D02*
Y464000D01*
Y454189D02*
X382689Y450500D01*
D25*
X381000Y400035D02*
Y433500D01*
D26*
X286500Y216000D02*
Y474000D01*
X492500D01*
Y216000D02*
Y474000D01*
X286500Y216000D02*
X492500D01*
D27*
X384500Y254000D02*
D03*
X314500Y454000D02*
D03*
X464500D02*
D03*
D28*
X294500Y434000D02*
D03*
X484500D02*
D03*
D29*
X294500Y424000D02*
D03*
Y414000D02*
D03*
Y404000D02*
D03*
Y394000D02*
D03*
Y384000D02*
D03*
Y374000D02*
D03*
Y364000D02*
D03*
Y354000D02*
D03*
Y344000D02*
D03*
Y334000D02*
D03*
Y324000D02*
D03*
Y314000D02*
D03*
Y304000D02*
D03*
Y294000D02*
D03*
Y284000D02*
D03*
Y274000D02*
D03*
Y264000D02*
D03*
Y254000D02*
D03*
Y244000D02*
D03*
X484500Y424000D02*
D03*
Y414000D02*
D03*
Y404000D02*
D03*
Y394000D02*
D03*
Y384000D02*
D03*
Y374000D02*
D03*
Y364000D02*
D03*
Y354000D02*
D03*
Y344000D02*
D03*
Y334000D02*
D03*
Y324000D02*
D03*
Y314000D02*
D03*
Y304000D02*
D03*
Y294000D02*
D03*
Y284000D02*
D03*
Y274000D02*
D03*
Y264000D02*
D03*
Y254000D02*
D03*
Y244000D02*
D03*
D30*
X294500Y224000D02*
D03*
D31*
X304500D02*
D03*
X314500D02*
D03*
X324500D02*
D03*
X334500D02*
D03*
X344500D02*
D03*
X354500D02*
D03*
X364500D02*
D03*
X374500D02*
D03*
X384500D02*
D03*
X394500D02*
D03*
X404500D02*
D03*
X414500D02*
D03*
X424500D02*
D03*
X434500D02*
D03*
X444500D02*
D03*
X454500D02*
D03*
X464500D02*
D03*
X474500D02*
D03*
X484500D02*
D03*
D32*
X480000Y460000D02*
D03*
X485000Y450000D02*
D03*
X480000Y440000D02*
D03*
X470000D02*
D03*
X475000Y430000D02*
D03*
X470000Y420000D02*
D03*
X475000Y410000D02*
D03*
X470000Y400000D02*
D03*
X475000Y390000D02*
D03*
X470000Y380000D02*
D03*
X475000Y370000D02*
D03*
Y350000D02*
D03*
Y330000D02*
D03*
Y310000D02*
D03*
X470000Y300000D02*
D03*
X475000Y290000D02*
D03*
X470000Y280000D02*
D03*
X475000Y270000D02*
D03*
X470000Y260000D02*
D03*
X475000Y250000D02*
D03*
X470000Y240000D02*
D03*
X465000Y430000D02*
D03*
Y370000D02*
D03*
X460000Y360000D02*
D03*
Y340000D02*
D03*
Y320000D02*
D03*
Y300000D02*
D03*
X465000Y290000D02*
D03*
X460000Y240000D02*
D03*
X450000Y460000D02*
D03*
Y440000D02*
D03*
X455000Y430000D02*
D03*
X450000Y420000D02*
D03*
X455000Y410000D02*
D03*
X450000Y400000D02*
D03*
X455000Y390000D02*
D03*
X450000Y360000D02*
D03*
X455000Y350000D02*
D03*
X450000Y340000D02*
D03*
X455000Y330000D02*
D03*
X450000Y320000D02*
D03*
X455000Y310000D02*
D03*
Y290000D02*
D03*
Y270000D02*
D03*
X450000Y240000D02*
D03*
X440000Y460000D02*
D03*
X445000Y450000D02*
D03*
X440000Y440000D02*
D03*
X445000Y430000D02*
D03*
X440000Y420000D02*
D03*
X445000Y410000D02*
D03*
X440000Y400000D02*
D03*
X445000Y390000D02*
D03*
X440000Y380000D02*
D03*
X445000Y350000D02*
D03*
Y330000D02*
D03*
X440000Y320000D02*
D03*
X445000Y310000D02*
D03*
X440000Y280000D02*
D03*
X445000Y270000D02*
D03*
X440000Y260000D02*
D03*
X445000Y250000D02*
D03*
X430000Y460000D02*
D03*
X435000Y450000D02*
D03*
X430000Y440000D02*
D03*
X435000Y430000D02*
D03*
X430000Y420000D02*
D03*
X435000Y410000D02*
D03*
X430000Y400000D02*
D03*
X435000Y390000D02*
D03*
Y370000D02*
D03*
Y330000D02*
D03*
X430000Y320000D02*
D03*
X435000Y310000D02*
D03*
Y270000D02*
D03*
X420000Y460000D02*
D03*
X425000Y450000D02*
D03*
X420000Y440000D02*
D03*
X425000Y430000D02*
D03*
X420000Y420000D02*
D03*
X425000Y410000D02*
D03*
X420000Y400000D02*
D03*
X425000Y370000D02*
D03*
X420000Y360000D02*
D03*
X425000Y330000D02*
D03*
X420000Y280000D02*
D03*
X425000Y270000D02*
D03*
X420000Y260000D02*
D03*
X425000Y250000D02*
D03*
X420000Y240000D02*
D03*
X410000Y460000D02*
D03*
X415000Y450000D02*
D03*
X410000Y440000D02*
D03*
X415000Y430000D02*
D03*
X410000Y420000D02*
D03*
X415000Y410000D02*
D03*
X410000Y400000D02*
D03*
X415000Y390000D02*
D03*
Y370000D02*
D03*
X410000Y340000D02*
D03*
X415000Y330000D02*
D03*
X410000Y300000D02*
D03*
X415000Y290000D02*
D03*
X410000Y280000D02*
D03*
X415000Y270000D02*
D03*
X410000Y260000D02*
D03*
X415000Y250000D02*
D03*
X410000Y240000D02*
D03*
X405000Y450000D02*
D03*
X400000Y440000D02*
D03*
X405000Y430000D02*
D03*
X400000Y420000D02*
D03*
X405000Y410000D02*
D03*
X400000Y400000D02*
D03*
X405000Y390000D02*
D03*
X400000Y360000D02*
D03*
Y300000D02*
D03*
X405000Y290000D02*
D03*
X400000Y280000D02*
D03*
X405000Y270000D02*
D03*
X400000Y260000D02*
D03*
X405000Y250000D02*
D03*
X400000Y240000D02*
D03*
X395000Y450000D02*
D03*
X390000Y440000D02*
D03*
X395000Y430000D02*
D03*
Y410000D02*
D03*
X390000Y360000D02*
D03*
X395000Y330000D02*
D03*
Y310000D02*
D03*
X390000Y300000D02*
D03*
X395000Y290000D02*
D03*
X390000Y280000D02*
D03*
X395000Y270000D02*
D03*
X390000Y240000D02*
D03*
X380000Y360000D02*
D03*
X385000Y310000D02*
D03*
X380000Y300000D02*
D03*
X385000Y290000D02*
D03*
X380000Y280000D02*
D03*
X385000Y270000D02*
D03*
X370000Y360000D02*
D03*
Y320000D02*
D03*
X375000Y310000D02*
D03*
X370000Y300000D02*
D03*
X375000Y270000D02*
D03*
X370000Y260000D02*
D03*
Y240000D02*
D03*
X365000Y450000D02*
D03*
X360000Y440000D02*
D03*
X365000Y430000D02*
D03*
X360000Y420000D02*
D03*
X365000Y410000D02*
D03*
X360000Y400000D02*
D03*
X365000Y390000D02*
D03*
X360000Y380000D02*
D03*
Y360000D02*
D03*
X365000Y350000D02*
D03*
Y330000D02*
D03*
X360000Y320000D02*
D03*
X365000Y310000D02*
D03*
X360000Y300000D02*
D03*
X365000Y290000D02*
D03*
X360000Y280000D02*
D03*
X365000Y270000D02*
D03*
X360000Y260000D02*
D03*
X365000Y250000D02*
D03*
X360000Y240000D02*
D03*
X350000Y460000D02*
D03*
X355000Y450000D02*
D03*
X350000Y440000D02*
D03*
X355000Y430000D02*
D03*
X350000Y420000D02*
D03*
X355000Y410000D02*
D03*
X350000Y400000D02*
D03*
X355000Y390000D02*
D03*
X350000Y360000D02*
D03*
X355000Y350000D02*
D03*
Y330000D02*
D03*
X350000Y320000D02*
D03*
X355000Y310000D02*
D03*
X350000Y300000D02*
D03*
X355000Y290000D02*
D03*
X350000Y280000D02*
D03*
X355000Y250000D02*
D03*
X350000Y240000D02*
D03*
X340000Y460000D02*
D03*
X345000Y450000D02*
D03*
X340000Y440000D02*
D03*
X345000Y430000D02*
D03*
X340000Y420000D02*
D03*
X345000Y410000D02*
D03*
X340000Y400000D02*
D03*
X345000Y390000D02*
D03*
X340000Y380000D02*
D03*
Y360000D02*
D03*
X345000Y350000D02*
D03*
Y330000D02*
D03*
X340000Y320000D02*
D03*
X345000Y310000D02*
D03*
X340000Y300000D02*
D03*
X345000Y290000D02*
D03*
X340000Y280000D02*
D03*
X345000Y270000D02*
D03*
X340000Y260000D02*
D03*
X345000Y250000D02*
D03*
X340000Y240000D02*
D03*
X330000Y460000D02*
D03*
X335000Y450000D02*
D03*
X330000Y440000D02*
D03*
X335000Y430000D02*
D03*
X330000Y420000D02*
D03*
X335000Y410000D02*
D03*
X330000Y400000D02*
D03*
Y380000D02*
D03*
Y340000D02*
D03*
X335000Y330000D02*
D03*
X330000Y320000D02*
D03*
X335000Y310000D02*
D03*
X330000Y300000D02*
D03*
X335000Y290000D02*
D03*
X330000Y280000D02*
D03*
X335000Y270000D02*
D03*
X330000Y260000D02*
D03*
Y240000D02*
D03*
X320000Y440000D02*
D03*
X325000Y430000D02*
D03*
X320000Y420000D02*
D03*
Y400000D02*
D03*
X325000Y390000D02*
D03*
X320000Y380000D02*
D03*
X325000Y370000D02*
D03*
X320000Y360000D02*
D03*
X325000Y350000D02*
D03*
X320000Y340000D02*
D03*
X325000Y330000D02*
D03*
X320000Y320000D02*
D03*
X325000Y310000D02*
D03*
X320000Y300000D02*
D03*
X325000Y290000D02*
D03*
X320000Y280000D02*
D03*
X325000Y270000D02*
D03*
X320000Y260000D02*
D03*
X325000Y250000D02*
D03*
X320000Y240000D02*
D03*
X315000Y430000D02*
D03*
X310000Y420000D02*
D03*
X315000Y410000D02*
D03*
X310000Y400000D02*
D03*
X315000Y390000D02*
D03*
X310000Y380000D02*
D03*
X315000Y370000D02*
D03*
X310000Y360000D02*
D03*
X315000Y350000D02*
D03*
X310000Y340000D02*
D03*
X315000Y330000D02*
D03*
X310000Y320000D02*
D03*
X315000Y310000D02*
D03*
X310000Y300000D02*
D03*
X315000Y290000D02*
D03*
X310000Y280000D02*
D03*
X315000Y270000D02*
D03*
X310000Y260000D02*
D03*
X315000Y250000D02*
D03*
X310000Y240000D02*
D03*
X300000Y460000D02*
D03*
Y440000D02*
D03*
X305000Y430000D02*
D03*
Y410000D02*
D03*
Y390000D02*
D03*
Y370000D02*
D03*
Y350000D02*
D03*
Y330000D02*
D03*
Y310000D02*
D03*
Y290000D02*
D03*
Y270000D02*
D03*
Y250000D02*
D03*
X290000Y460000D02*
D03*
X295000Y450000D02*
D03*
X290000Y440000D02*
D03*
X407000Y358500D02*
D03*
Y348500D02*
D03*
X320000Y254000D02*
D03*
X404000Y386500D02*
D03*
X411000Y390500D02*
D03*
X426500D02*
D03*
X429000Y335000D02*
D03*
X438500Y339500D02*
D03*
X420000D02*
D03*
X466500Y364000D02*
D03*
X434500Y379500D02*
D03*
X448000Y302000D02*
D03*
X416000Y296500D02*
D03*
X391000Y332500D02*
D03*
X362500Y334000D02*
D03*
X370500Y331500D02*
D03*
X390500Y337000D02*
D03*
X381000Y326500D02*
D03*
Y319000D02*
D03*
X390500Y373500D02*
D03*
X395500D02*
D03*
X351500Y384000D02*
D03*
X374500Y378500D02*
D03*
X392500D02*
D03*
X363500Y381000D02*
D03*
M02*
