G04 Layer_Color=16711935*
%FSLAX25Y25*%
%MOIN*%
G70*
G01*
G75*
%ADD26C,0.01181*%
%ADD40R,0.10308X0.20800*%
%ADD49C,0.25800*%
%ADD50R,0.11800X0.06800*%
%ADD51O,0.11800X0.06800*%
%ADD52R,0.06800X0.11800*%
%ADD53O,0.06800X0.11800*%
%ADD54C,0.03200*%
D26*
X286500Y216000D02*
Y474000D01*
X492500D01*
Y216000D02*
Y474000D01*
X286500Y216000D02*
X492500D01*
D40*
X396254Y464000D02*
D03*
X361746D02*
D03*
D49*
X384500Y254000D02*
D03*
X314500Y454000D02*
D03*
X464500D02*
D03*
D50*
X294500Y434000D02*
D03*
X484500D02*
D03*
D51*
X294500Y424000D02*
D03*
Y414000D02*
D03*
Y404000D02*
D03*
Y394000D02*
D03*
Y384000D02*
D03*
Y374000D02*
D03*
Y364000D02*
D03*
Y354000D02*
D03*
Y344000D02*
D03*
Y334000D02*
D03*
Y324000D02*
D03*
Y314000D02*
D03*
Y304000D02*
D03*
Y294000D02*
D03*
Y284000D02*
D03*
Y274000D02*
D03*
Y264000D02*
D03*
Y254000D02*
D03*
Y244000D02*
D03*
X484500Y424000D02*
D03*
Y414000D02*
D03*
Y404000D02*
D03*
Y394000D02*
D03*
Y384000D02*
D03*
Y374000D02*
D03*
Y364000D02*
D03*
Y354000D02*
D03*
Y344000D02*
D03*
Y334000D02*
D03*
Y324000D02*
D03*
Y314000D02*
D03*
Y304000D02*
D03*
Y294000D02*
D03*
Y284000D02*
D03*
Y274000D02*
D03*
Y264000D02*
D03*
Y254000D02*
D03*
Y244000D02*
D03*
D52*
X294500Y224000D02*
D03*
D53*
X304500D02*
D03*
X314500D02*
D03*
X324500D02*
D03*
X334500D02*
D03*
X344500D02*
D03*
X354500D02*
D03*
X364500D02*
D03*
X374500D02*
D03*
X384500D02*
D03*
X394500D02*
D03*
X404500D02*
D03*
X414500D02*
D03*
X424500D02*
D03*
X434500D02*
D03*
X444500D02*
D03*
X454500D02*
D03*
X464500D02*
D03*
X474500D02*
D03*
X484500D02*
D03*
D54*
X407000Y358500D02*
D03*
Y348500D02*
D03*
X320000Y254000D02*
D03*
X404000Y386500D02*
D03*
X411000Y390500D02*
D03*
X426500D02*
D03*
X429000Y335000D02*
D03*
X438500Y339500D02*
D03*
X420000D02*
D03*
X466500Y364000D02*
D03*
X434500Y379500D02*
D03*
X448000Y302000D02*
D03*
X416000Y296500D02*
D03*
X391000Y332500D02*
D03*
X362500Y334000D02*
D03*
X370500Y331500D02*
D03*
X390500Y337000D02*
D03*
X381000Y326500D02*
D03*
Y319000D02*
D03*
X390500Y373500D02*
D03*
X395500D02*
D03*
X351500Y384000D02*
D03*
X374500Y378500D02*
D03*
X392500D02*
D03*
X363500Y381000D02*
D03*
M02*
