G04 Layer_Color=32896*
%FSLAX25Y25*%
%MOIN*%
G70*
G01*
G75*
%ADD23C,0.01000*%
%ADD26C,0.01181*%
%ADD35C,0.00787*%
D23*
X448000Y370500D02*
X443502D01*
Y368251D01*
X444251Y367501D01*
X445751D01*
X446500Y368251D01*
Y370500D01*
Y369001D02*
X448000Y367501D01*
Y365252D02*
Y363752D01*
X447250Y363002D01*
X445751D01*
X445001Y363752D01*
Y365252D01*
X445751Y366002D01*
X447250D01*
X448000Y365252D01*
X443502Y361503D02*
X448000D01*
X445751D01*
Y358504D01*
X443502D01*
X448000D01*
X444251Y354005D02*
X443502Y354755D01*
Y356255D01*
X444251Y357004D01*
X445001D01*
X445751Y356255D01*
Y354755D01*
X446500Y354005D01*
X447250D01*
X448000Y354755D01*
Y356255D01*
X447250Y357004D01*
X448000Y348007D02*
X445001Y345008D01*
X448000Y339010D02*
X443502D01*
Y336761D01*
X444251Y336011D01*
X445751D01*
X446500Y336761D01*
Y339010D01*
X443502Y334512D02*
X448000D01*
Y332262D01*
X447250Y331513D01*
X446500D01*
X445751Y332262D01*
Y334512D01*
Y332262D01*
X445001Y331513D01*
X444251D01*
X443502Y332262D01*
Y334512D01*
X445751Y330013D02*
Y327014D01*
X443502Y322516D02*
Y325515D01*
X445751D01*
Y324015D01*
Y325515D01*
X448000D01*
X445001Y321016D02*
X448000D01*
X446500D01*
X445751Y320266D01*
X445001Y319516D01*
Y318767D01*
X448000Y314268D02*
Y315768D01*
X447250Y316517D01*
X445751D01*
X445001Y315768D01*
Y314268D01*
X445751Y313518D01*
X446500D01*
Y316517D01*
X448000Y309770D02*
Y311269D01*
X447250Y312019D01*
X445751D01*
X445001Y311269D01*
Y309770D01*
X445751Y309020D01*
X446500D01*
Y312019D01*
X456500Y371000D02*
X452001D01*
X456500Y368001D01*
X452001D01*
X456500Y366501D02*
X452001D01*
Y364252D01*
X452751Y363502D01*
X454251D01*
X455000Y364252D01*
Y366501D01*
X452751Y359004D02*
X452001Y359754D01*
Y361253D01*
X452751Y362003D01*
X455750D01*
X456500Y361253D01*
Y359754D01*
X455750Y359004D01*
X452001Y357504D02*
X456500D01*
Y355255D01*
X455750Y354505D01*
X455000D01*
X454251Y355255D01*
Y357504D01*
Y355255D01*
X453501Y354505D01*
X452751D01*
X452001Y355255D01*
Y357504D01*
X454251Y353006D02*
Y350007D01*
X452751Y345508D02*
X452001Y346258D01*
Y347758D01*
X452751Y348507D01*
X455750D01*
X456500Y347758D01*
Y346258D01*
X455750Y345508D01*
X452001Y344009D02*
X456500D01*
X455000Y342509D01*
X456500Y341010D01*
X452001D01*
X452751Y339510D02*
X452001Y338760D01*
Y337261D01*
X452751Y336511D01*
X453501D01*
X454251Y337261D01*
Y338011D01*
Y337261D01*
X455000Y336511D01*
X455750D01*
X456500Y337261D01*
Y338760D01*
X455750Y339510D01*
X452751Y335012D02*
X452001Y334262D01*
Y332762D01*
X452751Y332013D01*
X455750D01*
X456500Y332762D01*
Y334262D01*
X455750Y335012D01*
X452751D01*
Y330513D02*
X452001Y329763D01*
Y328264D01*
X452751Y327514D01*
X453501D01*
X454251Y328264D01*
X455000Y327514D01*
X455750D01*
X456500Y328264D01*
Y329763D01*
X455750Y330513D01*
X455000D01*
X454251Y329763D01*
X453501Y330513D01*
X452751D01*
X454251Y329763D02*
Y328264D01*
X452001Y326014D02*
Y323015D01*
Y324515D01*
X456500D01*
X454251Y321516D02*
Y318517D01*
X452751Y314018D02*
X452001Y314768D01*
Y316268D01*
X452751Y317017D01*
X453501D01*
X454251Y316268D01*
Y314768D01*
X455000Y314018D01*
X455750D01*
X456500Y314768D01*
Y316268D01*
X455750Y317017D01*
X452001Y312519D02*
Y311019D01*
Y311769D01*
X456500D01*
Y312519D01*
Y311019D01*
Y306521D02*
X452001D01*
X454251Y308770D01*
Y305771D01*
X452751Y304272D02*
X452001Y303522D01*
Y302022D01*
X452751Y301273D01*
X455750D01*
X456500Y302022D01*
Y303522D01*
X455750Y304272D01*
X452751D01*
X456500Y299773D02*
Y298273D01*
Y299023D01*
X452001D01*
X452751Y299773D01*
Y296024D02*
X452001Y295274D01*
Y293775D01*
X452751Y293025D01*
X455750D01*
X456500Y293775D01*
Y295274D01*
X455750Y296024D01*
X452751D01*
X454251Y291526D02*
Y288527D01*
X452751Y287027D02*
X452001Y286277D01*
Y284778D01*
X452751Y284028D01*
X455750D01*
X456500Y284778D01*
Y286277D01*
X455750Y287027D01*
X452751D01*
X456500Y282528D02*
Y281029D01*
Y281779D01*
X452001D01*
X452751Y282528D01*
X464000Y371000D02*
X459502D01*
X464000Y368001D01*
X459502D01*
X464000Y364252D02*
Y365752D01*
X463250Y366501D01*
X461751D01*
X461001Y365752D01*
Y364252D01*
X461751Y363502D01*
X462500D01*
Y366501D01*
X461001Y362003D02*
X463250D01*
X464000Y361253D01*
X463250Y360503D01*
X464000Y359754D01*
X463250Y359004D01*
X461001D01*
X464000Y357504D02*
X461001D01*
X459502Y356005D01*
X461001Y354505D01*
X464000D01*
X461751D01*
Y357504D01*
X459502Y350007D02*
Y353006D01*
X464000D01*
Y350007D01*
X461751Y353006D02*
Y351506D01*
X459502Y344009D02*
Y341010D01*
Y342509D01*
X464000D01*
Y337261D02*
Y338760D01*
X463250Y339510D01*
X461751D01*
X461001Y338760D01*
Y337261D01*
X461751Y336511D01*
X462500D01*
Y339510D01*
X461001Y332013D02*
Y334262D01*
X461751Y335012D01*
X463250D01*
X464000Y334262D01*
Y332013D01*
X459502Y330513D02*
X464000D01*
X461751D01*
X461001Y329763D01*
Y328264D01*
X461751Y327514D01*
X464000D01*
Y326014D02*
X461001D01*
Y323765D01*
X461751Y323015D01*
X464000D01*
Y320766D02*
Y319267D01*
X463250Y318517D01*
X461751D01*
X461001Y319267D01*
Y320766D01*
X461751Y321516D01*
X463250D01*
X464000Y320766D01*
Y317017D02*
Y315518D01*
Y316268D01*
X459502D01*
Y317017D01*
X464000Y312519D02*
Y311019D01*
X463250Y310270D01*
X461751D01*
X461001Y311019D01*
Y312519D01*
X461751Y313269D01*
X463250D01*
X464000Y312519D01*
X465499Y307271D02*
Y306521D01*
X464750Y305771D01*
X461001D01*
Y308020D01*
X461751Y308770D01*
X463250D01*
X464000Y308020D01*
Y305771D01*
X461001Y304272D02*
X463250D01*
X464000Y303522D01*
Y301273D01*
X464750D01*
X465499Y302022D01*
Y302772D01*
X464000Y301273D02*
X461001D01*
X459502Y295274D02*
Y293775D01*
Y294525D01*
X464000D01*
Y295274D01*
Y293775D01*
Y291526D02*
X461001D01*
Y289276D01*
X461751Y288527D01*
X464000D01*
X461001Y284028D02*
Y286277D01*
X461751Y287027D01*
X463250D01*
X464000Y286277D01*
Y284028D01*
Y282528D02*
X463250D01*
Y281779D01*
X464000D01*
Y282528D01*
D26*
X286500Y216000D02*
Y474000D01*
X492500D01*
Y216000D02*
Y474000D01*
X286500Y216000D02*
X492500D01*
D35*
X402228Y455732D02*
Y471087D01*
X355772Y455732D02*
Y471087D01*
M02*
