G04*
G04 #@! TF.GenerationSoftware,Altium Limited,Altium Designer,19.0.10 (269)*
G04*
G04 Layer_Physical_Order=2*
G04 Layer_Color=16711680*
%FSLAX25Y25*%
%MOIN*%
G70*
G01*
G75*
%ADD15C,0.01000*%
%ADD17C,0.00800*%
%ADD41C,0.02000*%
%ADD42C,0.02500*%
%ADD43C,0.25000*%
%ADD44R,0.11000X0.06000*%
%ADD45O,0.11000X0.06000*%
%ADD46R,0.06000X0.11000*%
%ADD47O,0.06000X0.11000*%
%ADD48C,0.02400*%
G36*
X203461Y222000D02*
X198500D01*
Y218000D01*
Y214000D01*
X203461D01*
Y211274D01*
X202961Y211028D01*
X202467Y211407D01*
X201518Y211800D01*
X200500Y211934D01*
X195500D01*
X194482Y211800D01*
X193533Y211407D01*
X192719Y210782D01*
X192093Y209967D01*
X191700Y209018D01*
X191566Y208000D01*
X191700Y206982D01*
X192093Y206033D01*
X192719Y205219D01*
X193533Y204593D01*
X194482Y204200D01*
X195500Y204066D01*
X200500D01*
X201518Y204200D01*
X202467Y204593D01*
X202961Y204972D01*
X203461Y204726D01*
Y201274D01*
X202961Y201027D01*
X202467Y201407D01*
X201518Y201800D01*
X200500Y201934D01*
X195500D01*
X194482Y201800D01*
X193533Y201407D01*
X192719Y200781D01*
X192093Y199967D01*
X191700Y199018D01*
X191566Y198000D01*
X191700Y196982D01*
X192093Y196033D01*
X192719Y195219D01*
X193533Y194593D01*
X194482Y194200D01*
X195500Y194066D01*
X200500D01*
X201518Y194200D01*
X202467Y194593D01*
X202961Y194973D01*
X203461Y194726D01*
Y191400D01*
X202961Y191154D01*
X202517Y191494D01*
X201544Y191897D01*
X200500Y192034D01*
X198500D01*
Y188000D01*
Y183966D01*
X200500D01*
X201544Y184103D01*
X202517Y184506D01*
X202961Y184846D01*
X203461Y184600D01*
Y181274D01*
X202961Y181027D01*
X202467Y181407D01*
X201518Y181800D01*
X200500Y181934D01*
X195500D01*
X194482Y181800D01*
X193533Y181407D01*
X192719Y180781D01*
X192093Y179967D01*
X191700Y179018D01*
X191566Y178000D01*
X191700Y176982D01*
X192093Y176033D01*
X192719Y175218D01*
X193533Y174593D01*
X194482Y174200D01*
X195500Y174066D01*
X200500D01*
X201518Y174200D01*
X202467Y174593D01*
X202961Y174972D01*
X203461Y174726D01*
Y171274D01*
X202961Y171028D01*
X202467Y171407D01*
X201518Y171800D01*
X200500Y171934D01*
X195500D01*
X194482Y171800D01*
X193533Y171407D01*
X192719Y170782D01*
X192093Y169967D01*
X191700Y169018D01*
X191566Y168000D01*
X191700Y166982D01*
X192093Y166033D01*
X192719Y165218D01*
X193533Y164593D01*
X194482Y164200D01*
X195500Y164066D01*
X200500D01*
X201518Y164200D01*
X202467Y164593D01*
X202961Y164972D01*
X203461Y164726D01*
Y161400D01*
X202961Y161154D01*
X202517Y161494D01*
X201544Y161897D01*
X200500Y162034D01*
X198500D01*
Y158000D01*
Y153965D01*
X200500D01*
X201544Y154103D01*
X202517Y154506D01*
X202961Y154846D01*
X203461Y154600D01*
Y151274D01*
X202961Y151028D01*
X202467Y151407D01*
X201518Y151800D01*
X200500Y151934D01*
X195500D01*
X194482Y151800D01*
X193533Y151407D01*
X192719Y150782D01*
X192093Y149967D01*
X191700Y149018D01*
X191566Y148000D01*
X191700Y146982D01*
X192093Y146033D01*
X192719Y145219D01*
X193533Y144593D01*
X194482Y144200D01*
X195500Y144066D01*
X200500D01*
X201518Y144200D01*
X202467Y144593D01*
X202961Y144973D01*
X203461Y144726D01*
Y141400D01*
X202961Y141154D01*
X202517Y141494D01*
X201544Y141897D01*
X200500Y142034D01*
X198500D01*
Y138000D01*
Y133966D01*
X200500D01*
X201544Y134103D01*
X202517Y134506D01*
X202961Y134846D01*
X203461Y134600D01*
Y131400D01*
X202961Y131154D01*
X202517Y131494D01*
X201544Y131897D01*
X200500Y132035D01*
X198500D01*
Y128000D01*
Y123966D01*
X200500D01*
X201544Y124103D01*
X202517Y124506D01*
X202961Y124846D01*
X203461Y124600D01*
Y121274D01*
X202961Y121028D01*
X202467Y121407D01*
X201518Y121800D01*
X200500Y121934D01*
X195500D01*
X194482Y121800D01*
X193533Y121407D01*
X192719Y120782D01*
X192093Y119967D01*
X191700Y119018D01*
X191566Y118000D01*
X191700Y116982D01*
X192093Y116033D01*
X192719Y115218D01*
X193533Y114593D01*
X194482Y114200D01*
X195500Y114066D01*
X200500D01*
X201518Y114200D01*
X202467Y114593D01*
X202961Y114972D01*
X203461Y114726D01*
Y111274D01*
X202961Y111028D01*
X202467Y111407D01*
X201518Y111800D01*
X200500Y111934D01*
X195500D01*
X194482Y111800D01*
X193533Y111407D01*
X192719Y110782D01*
X192093Y109967D01*
X191700Y109018D01*
X191566Y108000D01*
X191700Y106982D01*
X192093Y106033D01*
X192719Y105219D01*
X193533Y104593D01*
X194482Y104200D01*
X195500Y104066D01*
X200500D01*
X201518Y104200D01*
X202467Y104593D01*
X202961Y104973D01*
X203461Y104726D01*
Y101274D01*
X202961Y101028D01*
X202467Y101407D01*
X201518Y101800D01*
X200500Y101934D01*
X195500D01*
X194482Y101800D01*
X193533Y101407D01*
X192719Y100782D01*
X192093Y99967D01*
X191700Y99018D01*
X191566Y98000D01*
X191700Y96982D01*
X192093Y96033D01*
X192719Y95218D01*
X193533Y94593D01*
X194482Y94200D01*
X195500Y94066D01*
X200500D01*
X201518Y94200D01*
X202467Y94593D01*
X202961Y94972D01*
X203461Y94726D01*
Y91274D01*
X202961Y91027D01*
X202467Y91407D01*
X201518Y91800D01*
X200500Y91934D01*
X195500D01*
X194482Y91800D01*
X193533Y91407D01*
X192719Y90781D01*
X192093Y89967D01*
X191700Y89018D01*
X191566Y88000D01*
X191700Y86982D01*
X192093Y86033D01*
X192719Y85219D01*
X193533Y84593D01*
X194482Y84200D01*
X195500Y84066D01*
X200500D01*
X201518Y84200D01*
X202467Y84593D01*
X202961Y84973D01*
X203461Y84726D01*
Y81274D01*
X202961Y81028D01*
X202467Y81407D01*
X201518Y81800D01*
X200500Y81934D01*
X195500D01*
X194482Y81800D01*
X193533Y81407D01*
X192719Y80782D01*
X192093Y79967D01*
X191700Y79018D01*
X191566Y78000D01*
X191700Y76982D01*
X192093Y76033D01*
X192719Y75218D01*
X193533Y74593D01*
X194482Y74200D01*
X195500Y74066D01*
X200500D01*
X201518Y74200D01*
X202467Y74593D01*
X202961Y74972D01*
X203461Y74726D01*
Y71400D01*
X202961Y71154D01*
X202517Y71494D01*
X201544Y71897D01*
X200500Y72035D01*
X198500D01*
Y68000D01*
Y63965D01*
X200500D01*
X201544Y64103D01*
X202517Y64506D01*
X202961Y64846D01*
X203461Y64600D01*
Y61400D01*
X202961Y61154D01*
X202517Y61494D01*
X201544Y61897D01*
X200500Y62034D01*
X198500D01*
Y58000D01*
Y53966D01*
X200500D01*
X201544Y54103D01*
X202517Y54506D01*
X202961Y54846D01*
X203461Y54600D01*
Y51274D01*
X202961Y51028D01*
X202467Y51407D01*
X201518Y51800D01*
X200500Y51934D01*
X195500D01*
X194482Y51800D01*
X193533Y51407D01*
X192719Y50782D01*
X192093Y49967D01*
X191700Y49018D01*
X191566Y48000D01*
X191700Y46982D01*
X192093Y46033D01*
X192719Y45219D01*
X193533Y44593D01*
X194482Y44200D01*
X195500Y44066D01*
X200500D01*
X201518Y44200D01*
X202467Y44593D01*
X202961Y44972D01*
X203461Y44726D01*
Y41274D01*
X202961Y41028D01*
X202467Y41407D01*
X201518Y41800D01*
X200500Y41934D01*
X195500D01*
X194482Y41800D01*
X193533Y41407D01*
X192719Y40782D01*
X192093Y39967D01*
X191700Y39018D01*
X191566Y38000D01*
X191700Y36982D01*
X192093Y36033D01*
X192719Y35219D01*
X193533Y34593D01*
X194482Y34200D01*
X195500Y34066D01*
X200500D01*
X201518Y34200D01*
X202467Y34593D01*
X202961Y34972D01*
X203461Y34726D01*
Y31274D01*
X202961Y31028D01*
X202467Y31407D01*
X201518Y31800D01*
X200500Y31934D01*
X195500D01*
X194482Y31800D01*
X193533Y31407D01*
X192719Y30781D01*
X192093Y29967D01*
X191700Y29018D01*
X191566Y28000D01*
X191700Y26982D01*
X192093Y26033D01*
X192719Y25218D01*
X193533Y24593D01*
X194482Y24200D01*
X195500Y24066D01*
X200500D01*
X201518Y24200D01*
X202467Y24593D01*
X202961Y24972D01*
X203461Y24726D01*
Y2039D01*
X200717D01*
X200548Y2539D01*
X200781Y2719D01*
X201407Y3533D01*
X201800Y4482D01*
X201934Y5500D01*
Y10500D01*
X201800Y11518D01*
X201407Y12467D01*
X200781Y13282D01*
X199967Y13907D01*
X199018Y14300D01*
X198000Y14434D01*
X196982Y14300D01*
X196033Y13907D01*
X195219Y13282D01*
X194593Y12467D01*
X194200Y11518D01*
X194066Y10500D01*
Y5500D01*
X194200Y4482D01*
X194593Y3533D01*
X195219Y2719D01*
X195452Y2539D01*
X195282Y2039D01*
X190717D01*
X190548Y2539D01*
X190781Y2719D01*
X191407Y3533D01*
X191800Y4482D01*
X191934Y5500D01*
Y10500D01*
X191800Y11518D01*
X191407Y12467D01*
X190781Y13282D01*
X189967Y13907D01*
X189018Y14300D01*
X188000Y14434D01*
X186982Y14300D01*
X186033Y13907D01*
X185219Y13282D01*
X184593Y12467D01*
X184200Y11518D01*
X184066Y10500D01*
Y5500D01*
X184200Y4482D01*
X184593Y3533D01*
X185219Y2719D01*
X185452Y2539D01*
X185283Y2039D01*
X180718D01*
X180548Y2539D01*
X180781Y2719D01*
X181407Y3533D01*
X181800Y4482D01*
X181934Y5500D01*
Y10500D01*
X181800Y11518D01*
X181407Y12467D01*
X180781Y13282D01*
X179967Y13907D01*
X179018Y14300D01*
X178000Y14434D01*
X176982Y14300D01*
X176033Y13907D01*
X175218Y13282D01*
X174593Y12467D01*
X174200Y11518D01*
X174066Y10500D01*
Y5500D01*
X174200Y4482D01*
X174593Y3533D01*
X175218Y2719D01*
X175452Y2539D01*
X175283Y2039D01*
X170718D01*
X170548Y2539D01*
X170782Y2719D01*
X171407Y3533D01*
X171800Y4482D01*
X171934Y5500D01*
Y10500D01*
X171800Y11518D01*
X171407Y12467D01*
X170782Y13282D01*
X169967Y13907D01*
X169018Y14300D01*
X168000Y14434D01*
X166982Y14300D01*
X166033Y13907D01*
X165218Y13282D01*
X164593Y12467D01*
X164200Y11518D01*
X164066Y10500D01*
Y5500D01*
X164200Y4482D01*
X164593Y3533D01*
X165218Y2719D01*
X165452Y2539D01*
X165282Y2039D01*
X160717D01*
X160548Y2539D01*
X160782Y2719D01*
X161407Y3533D01*
X161800Y4482D01*
X161934Y5500D01*
Y10500D01*
X161800Y11518D01*
X161407Y12467D01*
X160782Y13282D01*
X159967Y13907D01*
X159018Y14300D01*
X158000Y14434D01*
X156982Y14300D01*
X156033Y13907D01*
X155219Y13282D01*
X154593Y12467D01*
X154200Y11518D01*
X154066Y10500D01*
Y5500D01*
X154200Y4482D01*
X154593Y3533D01*
X155219Y2719D01*
X155452Y2539D01*
X155282Y2039D01*
X150717D01*
X150548Y2539D01*
X150782Y2719D01*
X151407Y3533D01*
X151800Y4482D01*
X151934Y5500D01*
Y10500D01*
X151800Y11518D01*
X151407Y12467D01*
X150782Y13282D01*
X149967Y13907D01*
X149018Y14300D01*
X148000Y14434D01*
X146982Y14300D01*
X146033Y13907D01*
X145219Y13282D01*
X144593Y12467D01*
X144200Y11518D01*
X144066Y10500D01*
Y5500D01*
X144200Y4482D01*
X144593Y3533D01*
X145219Y2719D01*
X145452Y2539D01*
X145282Y2039D01*
X140717D01*
X140548Y2539D01*
X140781Y2719D01*
X141407Y3533D01*
X141800Y4482D01*
X141934Y5500D01*
Y10500D01*
X141800Y11518D01*
X141407Y12467D01*
X140781Y13282D01*
X139967Y13907D01*
X139018Y14300D01*
X138000Y14434D01*
X136982Y14300D01*
X136033Y13907D01*
X135219Y13282D01*
X134593Y12467D01*
X134200Y11518D01*
X134066Y10500D01*
Y5500D01*
X134200Y4482D01*
X134593Y3533D01*
X135219Y2719D01*
X135452Y2539D01*
X135283Y2039D01*
X130718D01*
X130548Y2539D01*
X130781Y2719D01*
X131407Y3533D01*
X131800Y4482D01*
X131934Y5500D01*
Y10500D01*
X131800Y11518D01*
X131407Y12467D01*
X130781Y13282D01*
X129967Y13907D01*
X129018Y14300D01*
X128000Y14434D01*
X126982Y14300D01*
X126033Y13907D01*
X125218Y13282D01*
X124593Y12467D01*
X124200Y11518D01*
X124066Y10500D01*
Y5500D01*
X124200Y4482D01*
X124593Y3533D01*
X125218Y2719D01*
X125452Y2539D01*
X125283Y2039D01*
X120718D01*
X120548Y2539D01*
X120782Y2719D01*
X121407Y3533D01*
X121800Y4482D01*
X121934Y5500D01*
Y10500D01*
X121800Y11518D01*
X121407Y12467D01*
X120782Y13282D01*
X119967Y13907D01*
X119018Y14300D01*
X118000Y14434D01*
X116982Y14300D01*
X116033Y13907D01*
X115218Y13282D01*
X114593Y12467D01*
X114200Y11518D01*
X114066Y10500D01*
Y5500D01*
X114200Y4482D01*
X114593Y3533D01*
X115218Y2719D01*
X115452Y2539D01*
X115282Y2039D01*
X110717D01*
X110548Y2539D01*
X110782Y2719D01*
X111407Y3533D01*
X111800Y4482D01*
X111934Y5500D01*
Y10500D01*
X111800Y11518D01*
X111407Y12467D01*
X110782Y13282D01*
X109967Y13907D01*
X109018Y14300D01*
X108000Y14434D01*
X106982Y14300D01*
X106033Y13907D01*
X105219Y13282D01*
X104593Y12467D01*
X104200Y11518D01*
X104066Y10500D01*
Y5500D01*
X104200Y4482D01*
X104593Y3533D01*
X105219Y2719D01*
X105452Y2539D01*
X105282Y2039D01*
X100838D01*
X100678Y2513D01*
X100853Y2647D01*
X101494Y3483D01*
X101897Y4456D01*
X102034Y5500D01*
Y7500D01*
X98000D01*
X93966D01*
Y5500D01*
X94103Y4456D01*
X94506Y3483D01*
X95147Y2647D01*
X95323Y2513D01*
X95162Y2039D01*
X90838D01*
X90677Y2513D01*
X90853Y2647D01*
X91494Y3483D01*
X91897Y4456D01*
X92035Y5500D01*
Y7500D01*
X88000D01*
X83965D01*
Y5500D01*
X84103Y4456D01*
X84506Y3483D01*
X85147Y2647D01*
X85322Y2513D01*
X85162Y2039D01*
X80717D01*
X80548Y2539D01*
X80782Y2719D01*
X81407Y3533D01*
X81800Y4482D01*
X81934Y5500D01*
Y10500D01*
X81800Y11518D01*
X81407Y12467D01*
X80782Y13282D01*
X79967Y13907D01*
X79018Y14300D01*
X78000Y14434D01*
X76982Y14300D01*
X76033Y13907D01*
X75218Y13282D01*
X74593Y12467D01*
X74200Y11518D01*
X74066Y10500D01*
Y5500D01*
X74200Y4482D01*
X74593Y3533D01*
X75218Y2719D01*
X75452Y2539D01*
X75283Y2039D01*
X70718D01*
X70548Y2539D01*
X70781Y2719D01*
X71407Y3533D01*
X71800Y4482D01*
X71934Y5500D01*
Y10500D01*
X71800Y11518D01*
X71407Y12467D01*
X70781Y13282D01*
X69967Y13907D01*
X69937Y13919D01*
Y28000D01*
X69790Y28741D01*
X69370Y29370D01*
X66370Y32370D01*
X65741Y32790D01*
X65000Y32937D01*
X46381D01*
X46319Y32978D01*
X45500Y33141D01*
X44681Y32978D01*
X43986Y32514D01*
X43522Y31819D01*
X43359Y31000D01*
X43522Y30181D01*
X43986Y29486D01*
X44681Y29022D01*
X45500Y28859D01*
X46319Y29022D01*
X46381Y29063D01*
X64198D01*
X66063Y27198D01*
Y13919D01*
X66033Y13907D01*
X65219Y13282D01*
X64593Y12467D01*
X64200Y11518D01*
X64066Y10500D01*
Y5500D01*
X64200Y4482D01*
X64593Y3533D01*
X65219Y2719D01*
X65452Y2539D01*
X65282Y2039D01*
X60717D01*
X60548Y2539D01*
X60782Y2719D01*
X61407Y3533D01*
X61800Y4482D01*
X61934Y5500D01*
Y10500D01*
X61800Y11518D01*
X61407Y12467D01*
X60782Y13282D01*
X59967Y13907D01*
X59018Y14300D01*
X58000Y14434D01*
X56982Y14300D01*
X56033Y13907D01*
X55218Y13282D01*
X54593Y12467D01*
X54200Y11518D01*
X54066Y10500D01*
Y5500D01*
X54200Y4482D01*
X54593Y3533D01*
X55218Y2719D01*
X55452Y2539D01*
X55282Y2039D01*
X50718D01*
X50548Y2539D01*
X50782Y2719D01*
X51407Y3533D01*
X51800Y4482D01*
X51934Y5500D01*
Y10500D01*
X51800Y11518D01*
X51407Y12467D01*
X50782Y13282D01*
X49967Y13907D01*
X49018Y14300D01*
X48000Y14434D01*
X46982Y14300D01*
X46033Y13907D01*
X45219Y13282D01*
X44593Y12467D01*
X44200Y11518D01*
X44066Y10500D01*
Y5500D01*
X44200Y4482D01*
X44593Y3533D01*
X45219Y2719D01*
X45452Y2539D01*
X45283Y2039D01*
X40718D01*
X40548Y2539D01*
X40782Y2719D01*
X41407Y3533D01*
X41800Y4482D01*
X41934Y5500D01*
Y10500D01*
X41800Y11518D01*
X41407Y12467D01*
X40782Y13282D01*
X39967Y13907D01*
X39018Y14300D01*
X38000Y14434D01*
X36982Y14300D01*
X36033Y13907D01*
X35219Y13282D01*
X34593Y12467D01*
X34200Y11518D01*
X34066Y10500D01*
Y5500D01*
X34200Y4482D01*
X34593Y3533D01*
X35219Y2719D01*
X35452Y2539D01*
X35282Y2039D01*
X30718D01*
X30548Y2539D01*
X30781Y2719D01*
X31407Y3533D01*
X31800Y4482D01*
X31934Y5500D01*
Y10500D01*
X31800Y11518D01*
X31407Y12467D01*
X30781Y13282D01*
X29967Y13907D01*
X29018Y14300D01*
X28000Y14434D01*
X26982Y14300D01*
X26033Y13907D01*
X25218Y13282D01*
X24593Y12467D01*
X24200Y11518D01*
X24066Y10500D01*
Y5500D01*
X24200Y4482D01*
X24593Y3533D01*
X25218Y2719D01*
X25452Y2539D01*
X25282Y2039D01*
X20718D01*
X20548Y2539D01*
X20782Y2719D01*
X21407Y3533D01*
X21800Y4482D01*
X21934Y5500D01*
Y10500D01*
X21800Y11518D01*
X21407Y12467D01*
X20782Y13282D01*
X19967Y13907D01*
X19018Y14300D01*
X18000Y14434D01*
X16982Y14300D01*
X16033Y13907D01*
X15218Y13282D01*
X14593Y12467D01*
X14200Y11518D01*
X14066Y10500D01*
Y5500D01*
X14200Y4482D01*
X14593Y3533D01*
X15218Y2719D01*
X15452Y2539D01*
X15282Y2039D01*
X12000D01*
Y7500D01*
X8000D01*
X4000D01*
Y2039D01*
X2039D01*
Y25282D01*
X2539Y25452D01*
X2719Y25218D01*
X3533Y24593D01*
X4482Y24200D01*
X5500Y24066D01*
X10500D01*
X11518Y24200D01*
X12467Y24593D01*
X13282Y25218D01*
X13907Y26033D01*
X14300Y26982D01*
X14434Y28000D01*
X14300Y29018D01*
X13907Y29967D01*
X13282Y30781D01*
X12467Y31407D01*
X11518Y31800D01*
X10500Y31934D01*
X5500D01*
X4482Y31800D01*
X3533Y31407D01*
X2719Y30781D01*
X2539Y30548D01*
X2039Y30718D01*
Y35282D01*
X2539Y35452D01*
X2719Y35219D01*
X3533Y34593D01*
X4482Y34200D01*
X5500Y34066D01*
X10500D01*
X11518Y34200D01*
X12467Y34593D01*
X13282Y35219D01*
X13907Y36033D01*
X14300Y36982D01*
X14434Y38000D01*
X14300Y39018D01*
X13907Y39967D01*
X13282Y40782D01*
X12467Y41407D01*
X11518Y41800D01*
X10500Y41934D01*
X5500D01*
X4482Y41800D01*
X3533Y41407D01*
X2719Y40782D01*
X2539Y40548D01*
X2039Y40718D01*
Y45283D01*
X2539Y45452D01*
X2719Y45219D01*
X3533Y44593D01*
X4482Y44200D01*
X5500Y44066D01*
X10500D01*
X11518Y44200D01*
X12467Y44593D01*
X13282Y45219D01*
X13907Y46033D01*
X14300Y46982D01*
X14434Y48000D01*
X14300Y49018D01*
X13907Y49967D01*
X13282Y50782D01*
X12467Y51407D01*
X11518Y51800D01*
X10500Y51934D01*
X5500D01*
X4482Y51800D01*
X3533Y51407D01*
X2719Y50782D01*
X2539Y50548D01*
X2039Y50718D01*
Y55282D01*
X2539Y55452D01*
X2719Y55218D01*
X3533Y54593D01*
X4482Y54200D01*
X5500Y54066D01*
X10500D01*
X11518Y54200D01*
X12467Y54593D01*
X13282Y55218D01*
X13907Y56033D01*
X14300Y56982D01*
X14434Y58000D01*
X14300Y59018D01*
X13907Y59967D01*
X13282Y60782D01*
X12467Y61407D01*
X11518Y61800D01*
X10500Y61934D01*
X5500D01*
X4482Y61800D01*
X3533Y61407D01*
X2719Y60782D01*
X2539Y60548D01*
X2039Y60717D01*
Y65162D01*
X2513Y65323D01*
X2647Y65147D01*
X3483Y64506D01*
X4456Y64103D01*
X5500Y63965D01*
X7500D01*
Y68000D01*
Y72035D01*
X5500D01*
X4456Y71897D01*
X3483Y71494D01*
X2647Y70853D01*
X2513Y70678D01*
X2039Y70838D01*
Y75162D01*
X2513Y75323D01*
X2647Y75147D01*
X3483Y74506D01*
X4456Y74103D01*
X5500Y73966D01*
X7500D01*
Y78000D01*
Y82034D01*
X5500D01*
X4456Y81897D01*
X3483Y81494D01*
X2647Y80853D01*
X2513Y80677D01*
X2039Y80838D01*
Y85282D01*
X2539Y85452D01*
X2719Y85219D01*
X3533Y84593D01*
X4482Y84200D01*
X5500Y84066D01*
X10500D01*
X11518Y84200D01*
X12467Y84593D01*
X13282Y85219D01*
X13907Y86033D01*
X14300Y86982D01*
X14434Y88000D01*
X14300Y89018D01*
X13907Y89967D01*
X13282Y90781D01*
X12467Y91407D01*
X11518Y91800D01*
X10500Y91934D01*
X5500D01*
X4482Y91800D01*
X3533Y91407D01*
X2719Y90781D01*
X2539Y90548D01*
X2039Y90718D01*
Y95283D01*
X2539Y95452D01*
X2719Y95218D01*
X3533Y94593D01*
X4482Y94200D01*
X5500Y94066D01*
X10500D01*
X11518Y94200D01*
X12467Y94593D01*
X13282Y95218D01*
X13907Y96033D01*
X14300Y96982D01*
X14434Y98000D01*
X14300Y99018D01*
X13907Y99967D01*
X13282Y100782D01*
X12467Y101407D01*
X11518Y101800D01*
X10500Y101934D01*
X5500D01*
X4482Y101800D01*
X3533Y101407D01*
X2719Y100782D01*
X2539Y100548D01*
X2039Y100717D01*
Y105282D01*
X2539Y105452D01*
X2719Y105219D01*
X3533Y104593D01*
X4482Y104200D01*
X5500Y104066D01*
X10500D01*
X11518Y104200D01*
X12467Y104593D01*
X13282Y105219D01*
X13907Y106033D01*
X14300Y106982D01*
X14434Y108000D01*
X14300Y109018D01*
X13907Y109967D01*
X13282Y110782D01*
X12467Y111407D01*
X11518Y111800D01*
X10500Y111934D01*
X5500D01*
X4482Y111800D01*
X3533Y111407D01*
X2719Y110782D01*
X2539Y110548D01*
X2039Y110717D01*
Y115282D01*
X2539Y115452D01*
X2719Y115218D01*
X3533Y114593D01*
X4482Y114200D01*
X5500Y114066D01*
X10500D01*
X11518Y114200D01*
X12467Y114593D01*
X13282Y115218D01*
X13907Y116033D01*
X14300Y116982D01*
X14434Y118000D01*
X14300Y119018D01*
X13907Y119967D01*
X13282Y120782D01*
X12467Y121407D01*
X11518Y121800D01*
X10500Y121934D01*
X5500D01*
X4482Y121800D01*
X3533Y121407D01*
X2719Y120782D01*
X2539Y120548D01*
X2039Y120718D01*
Y125283D01*
X2539Y125452D01*
X2719Y125218D01*
X3533Y124593D01*
X4482Y124200D01*
X5500Y124066D01*
X10500D01*
X11518Y124200D01*
X12467Y124593D01*
X13282Y125218D01*
X13907Y126033D01*
X14300Y126982D01*
X14434Y128000D01*
X14300Y129018D01*
X13907Y129967D01*
X13282Y130781D01*
X12467Y131407D01*
X11518Y131800D01*
X10500Y131934D01*
X5500D01*
X4482Y131800D01*
X3533Y131407D01*
X2719Y130781D01*
X2539Y130548D01*
X2039Y130718D01*
Y135283D01*
X2539Y135452D01*
X2719Y135219D01*
X3533Y134593D01*
X4482Y134200D01*
X5500Y134066D01*
X10500D01*
X11518Y134200D01*
X12467Y134593D01*
X13282Y135219D01*
X13907Y136033D01*
X14300Y136982D01*
X14434Y138000D01*
X14300Y139018D01*
X13907Y139967D01*
X13282Y140781D01*
X12467Y141407D01*
X11518Y141800D01*
X10500Y141934D01*
X5500D01*
X4482Y141800D01*
X3533Y141407D01*
X2719Y140781D01*
X2539Y140548D01*
X2039Y140717D01*
Y145282D01*
X2539Y145452D01*
X2719Y145219D01*
X3533Y144593D01*
X4482Y144200D01*
X5500Y144066D01*
X10500D01*
X11518Y144200D01*
X12467Y144593D01*
X13282Y145219D01*
X13907Y146033D01*
X14300Y146982D01*
X14434Y148000D01*
X14300Y149018D01*
X13907Y149967D01*
X13282Y150782D01*
X12467Y151407D01*
X11518Y151800D01*
X10500Y151934D01*
X5500D01*
X4482Y151800D01*
X3533Y151407D01*
X2719Y150782D01*
X2539Y150548D01*
X2039Y150717D01*
Y155282D01*
X2539Y155452D01*
X2719Y155219D01*
X3533Y154593D01*
X4482Y154200D01*
X5500Y154066D01*
X10500D01*
X11518Y154200D01*
X12467Y154593D01*
X13282Y155219D01*
X13907Y156033D01*
X14300Y156982D01*
X14434Y158000D01*
X14300Y159018D01*
X13907Y159967D01*
X13282Y160782D01*
X12467Y161407D01*
X11518Y161800D01*
X10500Y161934D01*
X5500D01*
X4482Y161800D01*
X3533Y161407D01*
X2719Y160782D01*
X2539Y160548D01*
X2039Y160717D01*
Y165162D01*
X2513Y165322D01*
X2647Y165147D01*
X3483Y164506D01*
X4456Y164103D01*
X5500Y163965D01*
X7500D01*
Y168000D01*
Y172035D01*
X5500D01*
X4456Y171897D01*
X3483Y171494D01*
X2647Y170853D01*
X2513Y170677D01*
X2039Y170838D01*
Y175283D01*
X2539Y175452D01*
X2719Y175218D01*
X3533Y174593D01*
X4482Y174200D01*
X5500Y174066D01*
X10500D01*
X11518Y174200D01*
X12467Y174593D01*
X13282Y175218D01*
X13907Y176033D01*
X14300Y176982D01*
X14434Y178000D01*
X14300Y179018D01*
X13907Y179967D01*
X13282Y180781D01*
X12467Y181407D01*
X11518Y181800D01*
X10500Y181934D01*
X5500D01*
X4482Y181800D01*
X3533Y181407D01*
X2719Y180781D01*
X2539Y180548D01*
X2039Y180718D01*
Y185162D01*
X2513Y185322D01*
X2647Y185147D01*
X3483Y184506D01*
X4456Y184103D01*
X5500Y183966D01*
X7500D01*
Y188000D01*
Y192034D01*
X5500D01*
X4456Y191897D01*
X3483Y191494D01*
X2647Y190853D01*
X2513Y190677D01*
X2039Y190838D01*
Y195282D01*
X2539Y195452D01*
X2719Y195219D01*
X3533Y194593D01*
X4482Y194200D01*
X5500Y194066D01*
X10500D01*
X11518Y194200D01*
X12467Y194593D01*
X13282Y195219D01*
X13907Y196033D01*
X14300Y196982D01*
X14434Y198000D01*
X14300Y199018D01*
X13907Y199967D01*
X13282Y200781D01*
X12467Y201407D01*
X11518Y201800D01*
X10500Y201934D01*
X5500D01*
X4482Y201800D01*
X3533Y201407D01*
X2719Y200781D01*
X2539Y200548D01*
X2039Y200717D01*
Y205162D01*
X2513Y205323D01*
X2647Y205147D01*
X3483Y204506D01*
X4456Y204103D01*
X5500Y203965D01*
X7500D01*
Y208000D01*
Y212035D01*
X5500D01*
X4456Y211897D01*
X3483Y211494D01*
X2647Y210853D01*
X2513Y210678D01*
X2039Y210838D01*
Y214100D01*
X14400D01*
Y221900D01*
X2039D01*
Y251961D01*
X203461D01*
Y222000D01*
D02*
G37*
%LPC*%
G36*
X178000Y251441D02*
X175897Y251276D01*
X173846Y250784D01*
X171898Y249976D01*
X170099Y248874D01*
X168496Y247504D01*
X167126Y245901D01*
X166024Y244102D01*
X165216Y242154D01*
X164724Y240103D01*
X164559Y238000D01*
X164724Y235897D01*
X165216Y233846D01*
X166024Y231898D01*
X167126Y230099D01*
X168496Y228496D01*
X170099Y227126D01*
X171898Y226024D01*
X173846Y225216D01*
X175897Y224724D01*
X178000Y224559D01*
X180103Y224724D01*
X182154Y225216D01*
X184102Y226024D01*
X185901Y227126D01*
X187504Y228496D01*
X188874Y230099D01*
X189976Y231898D01*
X190784Y233846D01*
X191276Y235897D01*
X191441Y238000D01*
X191276Y240103D01*
X190784Y242154D01*
X189976Y244102D01*
X188874Y245901D01*
X187504Y247504D01*
X185901Y248874D01*
X184102Y249976D01*
X182154Y250784D01*
X180103Y251276D01*
X178000Y251441D01*
D02*
G37*
G36*
X28000D02*
X25897Y251276D01*
X23846Y250784D01*
X21898Y249976D01*
X20099Y248874D01*
X18496Y247504D01*
X17126Y245901D01*
X16024Y244102D01*
X15216Y242154D01*
X14724Y240103D01*
X14559Y238000D01*
X14724Y235897D01*
X15216Y233846D01*
X16024Y231898D01*
X17126Y230099D01*
X18496Y228496D01*
X20099Y227126D01*
X21898Y226024D01*
X23846Y225216D01*
X25897Y224724D01*
X28000Y224559D01*
X30103Y224724D01*
X32154Y225216D01*
X34102Y226024D01*
X35901Y227126D01*
X37505Y228496D01*
X38874Y230099D01*
X39976Y231898D01*
X40784Y233846D01*
X41276Y235897D01*
X41441Y238000D01*
X41276Y240103D01*
X40784Y242154D01*
X39976Y244102D01*
X38874Y245901D01*
X37505Y247504D01*
X35901Y248874D01*
X34102Y249976D01*
X32154Y250784D01*
X30103Y251276D01*
X28000Y251441D01*
D02*
G37*
G36*
X197500Y222000D02*
X191500D01*
Y218500D01*
X197500D01*
Y222000D01*
D02*
G37*
G36*
Y217500D02*
X191500D01*
Y214000D01*
X197500D01*
Y217500D01*
D02*
G37*
G36*
X10500Y212035D02*
X8500D01*
Y208500D01*
X14469D01*
X14397Y209044D01*
X13994Y210017D01*
X13353Y210853D01*
X12517Y211494D01*
X11544Y211897D01*
X10500Y212035D01*
D02*
G37*
G36*
X14469Y207500D02*
X8500D01*
Y203965D01*
X10500D01*
X11544Y204103D01*
X12517Y204506D01*
X13353Y205147D01*
X13994Y205983D01*
X14397Y206956D01*
X14469Y207500D01*
D02*
G37*
G36*
X197500Y192034D02*
X195500D01*
X194456Y191897D01*
X193483Y191494D01*
X192647Y190853D01*
X192006Y190017D01*
X191603Y189044D01*
X191531Y188500D01*
X197500D01*
Y192034D01*
D02*
G37*
G36*
X10500D02*
X8500D01*
Y188500D01*
X14469D01*
X14397Y189044D01*
X13994Y190017D01*
X13353Y190853D01*
X12517Y191494D01*
X11544Y191897D01*
X10500Y192034D01*
D02*
G37*
G36*
X152500Y199692D02*
X151661Y199525D01*
X150950Y199050D01*
X143450Y191550D01*
X142975Y190839D01*
X142808Y190000D01*
Y189362D01*
X142975Y188523D01*
X143450Y187812D01*
X144161Y187337D01*
X145000Y187170D01*
X145839Y187337D01*
X146550Y187812D01*
X147025Y188523D01*
X147125Y189025D01*
X154050Y195950D01*
X154525Y196661D01*
X154692Y197500D01*
X154525Y198339D01*
X154050Y199050D01*
X153339Y199525D01*
X152500Y199692D01*
D02*
G37*
G36*
X197500Y187500D02*
X191531D01*
X191603Y186956D01*
X192006Y185983D01*
X192647Y185147D01*
X193483Y184506D01*
X194456Y184103D01*
X195500Y183966D01*
X197500D01*
Y187500D01*
D02*
G37*
G36*
X14469D02*
X8500D01*
Y183966D01*
X10500D01*
X11544Y184103D01*
X12517Y184506D01*
X13353Y185147D01*
X13994Y185983D01*
X14397Y186956D01*
X14469Y187500D01*
D02*
G37*
G36*
X51500Y189641D02*
X50681Y189478D01*
X49986Y189014D01*
X49522Y188319D01*
X49359Y187500D01*
X49522Y186681D01*
X49986Y185986D01*
X50681Y185522D01*
X51500Y185359D01*
X52319Y185522D01*
X53014Y185986D01*
X53140Y186174D01*
X58026D01*
X58486Y185486D01*
X59181Y185022D01*
X59266Y185005D01*
Y184495D01*
X59181Y184478D01*
X58486Y184014D01*
X58360Y183826D01*
X52640D01*
X52514Y184014D01*
X51819Y184478D01*
X51000Y184641D01*
X50181Y184478D01*
X49486Y184014D01*
X49022Y183319D01*
X48859Y182500D01*
X49022Y181681D01*
X49486Y180986D01*
X50181Y180522D01*
X51000Y180359D01*
X51819Y180522D01*
X52514Y180986D01*
X52640Y181175D01*
X58360D01*
X58486Y180986D01*
X59181Y180522D01*
X60000Y180359D01*
X60819Y180522D01*
X61514Y180986D01*
X61978Y181681D01*
X62141Y182500D01*
X61978Y183319D01*
X61514Y184014D01*
X60819Y184478D01*
X60734Y184495D01*
Y185005D01*
X60819Y185022D01*
X61514Y185486D01*
X61978Y186181D01*
X62141Y187000D01*
X61978Y187819D01*
X61514Y188514D01*
X60819Y188978D01*
X60000Y189141D01*
X59181Y188978D01*
X58952Y188826D01*
X53140D01*
X53014Y189014D01*
X52319Y189478D01*
X51500Y189641D01*
D02*
G37*
G36*
X10500Y172035D02*
X8500D01*
Y168500D01*
X14469D01*
X14397Y169044D01*
X13994Y170017D01*
X13353Y170853D01*
X12517Y171494D01*
X11544Y171897D01*
X10500Y172035D01*
D02*
G37*
G36*
X58500Y165141D02*
X57681Y164978D01*
X56986Y164514D01*
X56860Y164325D01*
X53640D01*
X53514Y164514D01*
X52819Y164978D01*
X52000Y165141D01*
X51181Y164978D01*
X50486Y164514D01*
X50022Y163819D01*
X49859Y163000D01*
X50022Y162181D01*
X50486Y161486D01*
X51181Y161022D01*
X52000Y160859D01*
X52819Y161022D01*
X53514Y161486D01*
X53640Y161674D01*
X56860D01*
X56986Y161486D01*
X57681Y161022D01*
X58500Y160859D01*
X59319Y161022D01*
X60014Y161486D01*
X60478Y162181D01*
X60641Y163000D01*
X60478Y163819D01*
X60014Y164514D01*
X59319Y164978D01*
X58500Y165141D01*
D02*
G37*
G36*
X14469Y167500D02*
X8500D01*
Y163965D01*
X10500D01*
X11544Y164103D01*
X12517Y164506D01*
X13353Y165147D01*
X13994Y165983D01*
X14397Y166956D01*
X14469Y167500D01*
D02*
G37*
G36*
X197500Y162034D02*
X195500D01*
X194456Y161897D01*
X193483Y161494D01*
X192647Y160853D01*
X192006Y160017D01*
X191603Y159044D01*
X191531Y158500D01*
X197500D01*
Y162034D01*
D02*
G37*
G36*
X26000Y167641D02*
X25181Y167478D01*
X24486Y167014D01*
X24022Y166319D01*
X23859Y165500D01*
X24022Y164681D01*
X24486Y163986D01*
X25181Y163522D01*
X25675Y163424D01*
Y160640D01*
X25486Y160514D01*
X25022Y159819D01*
X24859Y159000D01*
X25022Y158181D01*
X25486Y157486D01*
X26181Y157022D01*
X27000Y156859D01*
X27819Y157022D01*
X28514Y157486D01*
X28978Y158181D01*
X29141Y159000D01*
X28978Y159819D01*
X28514Y160514D01*
X28326Y160640D01*
Y164500D01*
X28225Y165007D01*
X28085Y165217D01*
X28141Y165500D01*
X27978Y166319D01*
X27514Y167014D01*
X26819Y167478D01*
X26000Y167641D01*
D02*
G37*
G36*
X58500Y157641D02*
X57681Y157478D01*
X56986Y157014D01*
X56860Y156825D01*
X54140D01*
X54014Y157014D01*
X53319Y157478D01*
X52500Y157641D01*
X51681Y157478D01*
X50986Y157014D01*
X50522Y156319D01*
X50359Y155500D01*
X50522Y154681D01*
X50986Y153986D01*
X51681Y153522D01*
X52500Y153359D01*
X53319Y153522D01*
X54014Y153986D01*
X54140Y154174D01*
X56860D01*
X56986Y153986D01*
X57681Y153522D01*
X58500Y153359D01*
X59319Y153522D01*
X60014Y153986D01*
X60478Y154681D01*
X60641Y155500D01*
X60478Y156319D01*
X60014Y157014D01*
X59319Y157478D01*
X58500Y157641D01*
D02*
G37*
G36*
X197500Y157500D02*
X191531D01*
X191603Y156956D01*
X192006Y155983D01*
X192647Y155147D01*
X193483Y154506D01*
X194456Y154103D01*
X195500Y153965D01*
X197500D01*
Y157500D01*
D02*
G37*
G36*
Y142034D02*
X195500D01*
X194456Y141897D01*
X193483Y141494D01*
X192647Y140853D01*
X192006Y140017D01*
X191603Y139044D01*
X191531Y138500D01*
X197500D01*
Y142034D01*
D02*
G37*
G36*
Y137500D02*
X191531D01*
X191603Y136956D01*
X192006Y135983D01*
X192647Y135147D01*
X193483Y134506D01*
X194456Y134103D01*
X195500Y133966D01*
X197500D01*
Y137500D01*
D02*
G37*
G36*
Y132035D02*
X195500D01*
X194456Y131897D01*
X193483Y131494D01*
X192647Y130853D01*
X192006Y130017D01*
X191603Y129044D01*
X191531Y128500D01*
X197500D01*
Y132035D01*
D02*
G37*
G36*
Y127500D02*
X191531D01*
X191603Y126956D01*
X192006Y125983D01*
X192647Y125147D01*
X193483Y124506D01*
X194456Y124103D01*
X195500Y123966D01*
X197500D01*
Y127500D01*
D02*
G37*
G36*
X142000Y117141D02*
X141181Y116978D01*
X140486Y116514D01*
X140301Y116237D01*
X139699D01*
X139514Y116514D01*
X138819Y116978D01*
X138000Y117141D01*
X137181Y116978D01*
X136486Y116514D01*
X136022Y115819D01*
X135918Y115299D01*
X135820Y115230D01*
X135371Y115110D01*
X134819Y115478D01*
X134000Y115641D01*
X133181Y115478D01*
X132486Y115014D01*
X132022Y114319D01*
X131859Y113500D01*
X132022Y112681D01*
X132486Y111986D01*
X132573Y111928D01*
Y90572D01*
X132486Y90514D01*
X132022Y89819D01*
X131859Y89000D01*
X132022Y88181D01*
X132486Y87486D01*
X133181Y87022D01*
X134000Y86859D01*
X134819Y87022D01*
X135514Y87486D01*
X135866Y88013D01*
X136428Y88073D01*
X136486Y87986D01*
X137181Y87522D01*
X138000Y87359D01*
X138819Y87522D01*
X139514Y87986D01*
X139866Y88513D01*
X140428Y88573D01*
X140486Y88486D01*
X141181Y88022D01*
X142000Y87859D01*
X142819Y88022D01*
X143514Y88486D01*
X143978Y89181D01*
X144141Y90000D01*
X143978Y90819D01*
X143514Y91514D01*
X143325Y91640D01*
Y113360D01*
X143514Y113486D01*
X143978Y114181D01*
X144141Y115000D01*
X143978Y115819D01*
X143514Y116514D01*
X142819Y116978D01*
X142000Y117141D01*
D02*
G37*
G36*
X10500Y82034D02*
X8500D01*
Y78500D01*
X14469D01*
X14397Y79044D01*
X13994Y80017D01*
X13353Y80853D01*
X12517Y81494D01*
X11544Y81897D01*
X10500Y82034D01*
D02*
G37*
G36*
X14469Y77500D02*
X8500D01*
Y73966D01*
X10500D01*
X11544Y74103D01*
X12517Y74506D01*
X13353Y75147D01*
X13994Y75983D01*
X14397Y76956D01*
X14469Y77500D01*
D02*
G37*
G36*
X74000Y81692D02*
X73161Y81525D01*
X72450Y81050D01*
X68092Y76692D01*
X68000D01*
X67161Y76525D01*
X66450Y76050D01*
X65975Y75339D01*
X65808Y74500D01*
X65975Y73661D01*
X66450Y72950D01*
X67161Y72475D01*
X68000Y72308D01*
X69000D01*
X69839Y72475D01*
X70550Y72950D01*
X75550Y77950D01*
X76025Y78661D01*
X76192Y79500D01*
X76025Y80339D01*
X75550Y81050D01*
X74839Y81525D01*
X74000Y81692D01*
D02*
G37*
G36*
X197500Y72035D02*
X195500D01*
X194456Y71897D01*
X193483Y71494D01*
X192647Y70853D01*
X192006Y70017D01*
X191603Y69044D01*
X191531Y68500D01*
X197500D01*
Y72035D01*
D02*
G37*
G36*
X10500D02*
X8500D01*
Y68500D01*
X14469D01*
X14397Y69044D01*
X13994Y70017D01*
X13353Y70853D01*
X12517Y71494D01*
X11544Y71897D01*
X10500Y72035D01*
D02*
G37*
G36*
X81000Y67141D02*
X80181Y66978D01*
X79486Y66514D01*
X79360Y66325D01*
X75640D01*
X75514Y66514D01*
X74819Y66978D01*
X74000Y67141D01*
X73181Y66978D01*
X72486Y66514D01*
X72022Y65819D01*
X71859Y65000D01*
X72022Y64181D01*
X72272Y63806D01*
X72173Y63139D01*
X71986Y63014D01*
X71522Y62319D01*
X71359Y61500D01*
X71522Y60681D01*
X71986Y59986D01*
X72681Y59522D01*
X73500Y59359D01*
X74319Y59522D01*
X75014Y59986D01*
X75140Y60175D01*
X80360D01*
X80486Y59986D01*
X81181Y59522D01*
X82000Y59359D01*
X82819Y59522D01*
X83514Y59986D01*
X83978Y60681D01*
X84141Y61500D01*
X83978Y62319D01*
X83514Y63014D01*
X83020Y63344D01*
X82823Y63948D01*
X82978Y64181D01*
X83141Y65000D01*
X82978Y65819D01*
X82514Y66514D01*
X81819Y66978D01*
X81000Y67141D01*
D02*
G37*
G36*
X197500Y67500D02*
X191531D01*
X191603Y66956D01*
X192006Y65983D01*
X192647Y65147D01*
X193483Y64506D01*
X194456Y64103D01*
X195500Y63965D01*
X197500D01*
Y67500D01*
D02*
G37*
G36*
X14469D02*
X8500D01*
Y63965D01*
X10500D01*
X11544Y64103D01*
X12517Y64506D01*
X13353Y65147D01*
X13994Y65983D01*
X14397Y66956D01*
X14469Y67500D01*
D02*
G37*
G36*
X197500Y62034D02*
X195500D01*
X194456Y61897D01*
X193483Y61494D01*
X192647Y60853D01*
X192006Y60017D01*
X191603Y59044D01*
X191531Y58500D01*
X197500D01*
Y62034D01*
D02*
G37*
G36*
Y57500D02*
X191531D01*
X191603Y56956D01*
X192006Y55983D01*
X192647Y55147D01*
X193483Y54506D01*
X194456Y54103D01*
X195500Y53966D01*
X197500D01*
Y57500D01*
D02*
G37*
G36*
X98000Y51441D02*
X95897Y51276D01*
X93846Y50784D01*
X91898Y49976D01*
X90099Y48874D01*
X88495Y47504D01*
X87126Y45901D01*
X86024Y44102D01*
X85216Y42154D01*
X84724Y40103D01*
X84559Y38000D01*
X84724Y35897D01*
X85216Y33846D01*
X86024Y31898D01*
X87126Y30099D01*
X88495Y28495D01*
X90099Y27126D01*
X91898Y26024D01*
X93846Y25216D01*
X95897Y24724D01*
X98000Y24559D01*
X100103Y24724D01*
X102154Y25216D01*
X104102Y26024D01*
X105901Y27126D01*
X107504Y28495D01*
X108874Y30099D01*
X109976Y31898D01*
X110784Y33846D01*
X111276Y35897D01*
X111441Y38000D01*
X111276Y40103D01*
X110784Y42154D01*
X109976Y44102D01*
X108874Y45901D01*
X107504Y47504D01*
X105901Y48874D01*
X104102Y49976D01*
X102154Y50784D01*
X100103Y51276D01*
X98000Y51441D01*
D02*
G37*
G36*
X98500Y14469D02*
Y8500D01*
X102034D01*
Y10500D01*
X101897Y11544D01*
X101494Y12517D01*
X100853Y13353D01*
X100017Y13994D01*
X99044Y14397D01*
X98500Y14469D01*
D02*
G37*
G36*
X88500D02*
Y8500D01*
X92035D01*
Y10500D01*
X91897Y11544D01*
X91494Y12517D01*
X90853Y13353D01*
X90017Y13994D01*
X89044Y14397D01*
X88500Y14469D01*
D02*
G37*
G36*
X12000Y14500D02*
X8500D01*
Y8500D01*
X12000D01*
Y14500D01*
D02*
G37*
G36*
X7500D02*
X4000D01*
Y8500D01*
X7500D01*
Y14500D01*
D02*
G37*
G36*
X97500Y14469D02*
X96956Y14397D01*
X95983Y13994D01*
X95147Y13353D01*
X94506Y12517D01*
X94103Y11544D01*
X93966Y10500D01*
Y8500D01*
X97500D01*
Y14469D01*
D02*
G37*
G36*
X87500D02*
X86956Y14397D01*
X85983Y13994D01*
X85147Y13353D01*
X84506Y12517D01*
X84103Y11544D01*
X83965Y10500D01*
Y8500D01*
X87500D01*
Y14469D01*
D02*
G37*
%LPD*%
G36*
X140486Y113486D02*
X140674Y113360D01*
Y91640D01*
X140486Y91514D01*
X140194Y91077D01*
X139668Y91014D01*
X139325Y91319D01*
Y113360D01*
X139514Y113486D01*
X139699Y113763D01*
X140301D01*
X140486Y113486D01*
D02*
G37*
G36*
X136674Y112885D02*
Y91140D01*
X136486Y91014D01*
X136278Y90702D01*
X135692Y90633D01*
X135427Y90874D01*
Y111928D01*
X135514Y111986D01*
X135978Y112681D01*
X135998Y112778D01*
X136548Y112983D01*
X136674Y112885D01*
D02*
G37*
D15*
X134000Y89000D02*
Y113500D01*
X0Y0D02*
Y254000D01*
X205500D01*
Y0D02*
Y254000D01*
X0Y0D02*
X205500D01*
D17*
X73500Y61500D02*
X82000D01*
X74000Y65000D02*
X81000D01*
X52500Y155500D02*
X58500D01*
X52000Y163000D02*
X58500D01*
X51000Y182500D02*
X60000D01*
X59500Y187500D02*
X60000Y187000D01*
X51500Y187500D02*
X59500D01*
X27000Y159000D02*
Y164500D01*
X26000Y165500D02*
X27000Y164500D01*
X138000Y89500D02*
Y115000D01*
X142000Y90000D02*
Y115000D01*
D41*
X45500Y31000D02*
X65000D01*
X68000Y28000D01*
Y8000D02*
Y28000D01*
D42*
X145000Y190000D02*
X152500Y197500D01*
X145000Y189362D02*
Y190000D01*
X68000Y74500D02*
X69000D01*
X74000Y79500D01*
D43*
X98000Y38000D02*
D03*
X28000Y238000D02*
D03*
X178000D02*
D03*
D44*
X8000Y218000D02*
D03*
X198000D02*
D03*
D45*
X8000Y208000D02*
D03*
Y198000D02*
D03*
Y188000D02*
D03*
Y178000D02*
D03*
Y168000D02*
D03*
Y158000D02*
D03*
Y148000D02*
D03*
Y138000D02*
D03*
Y128000D02*
D03*
Y118000D02*
D03*
Y108000D02*
D03*
Y98000D02*
D03*
Y88000D02*
D03*
Y78000D02*
D03*
Y68000D02*
D03*
Y58000D02*
D03*
Y48000D02*
D03*
Y38000D02*
D03*
Y28000D02*
D03*
X198000Y208000D02*
D03*
Y198000D02*
D03*
Y188000D02*
D03*
Y178000D02*
D03*
Y168000D02*
D03*
Y158000D02*
D03*
Y148000D02*
D03*
Y138000D02*
D03*
Y128000D02*
D03*
Y118000D02*
D03*
Y108000D02*
D03*
Y98000D02*
D03*
Y88000D02*
D03*
Y78000D02*
D03*
Y68000D02*
D03*
Y58000D02*
D03*
Y48000D02*
D03*
Y38000D02*
D03*
Y28000D02*
D03*
D46*
X8000Y8000D02*
D03*
D47*
X18000D02*
D03*
X28000D02*
D03*
X38000D02*
D03*
X48000D02*
D03*
X58000D02*
D03*
X68000D02*
D03*
X78000D02*
D03*
X88000D02*
D03*
X98000D02*
D03*
X108000D02*
D03*
X118000D02*
D03*
X128000D02*
D03*
X138000D02*
D03*
X148000D02*
D03*
X158000D02*
D03*
X168000D02*
D03*
X178000D02*
D03*
X188000D02*
D03*
X198000D02*
D03*
D48*
X93654Y126500D02*
D03*
X93000Y173000D02*
D03*
X119000Y171941D02*
D03*
X177000Y93256D02*
D03*
X172000Y97000D02*
D03*
X68000Y74500D02*
D03*
X74000Y79500D02*
D03*
X45500Y31000D02*
D03*
X29500Y20500D02*
D03*
X82000Y61500D02*
D03*
X73500D02*
D03*
X74000Y65000D02*
D03*
X81000D02*
D03*
X134000Y113500D02*
D03*
Y89000D02*
D03*
X58500Y155500D02*
D03*
X52000Y163000D02*
D03*
X58500D02*
D03*
X52500Y155500D02*
D03*
X27000Y159000D02*
D03*
X26000Y165500D02*
D03*
X51000Y182500D02*
D03*
X51500Y187500D02*
D03*
X60000Y187000D02*
D03*
Y182500D02*
D03*
X138000Y89500D02*
D03*
X142000Y90000D02*
D03*
X138000Y115000D02*
D03*
X142000D02*
D03*
X135256Y170500D02*
D03*
X139500Y174500D02*
D03*
X102500Y95744D02*
D03*
X84500Y107244D02*
D03*
X93398Y96000D02*
D03*
X113000Y202724D02*
D03*
X104000D02*
D03*
X109000Y206500D02*
D03*
X84000Y183653D02*
D03*
X54500Y140642D02*
D03*
X98000Y91000D02*
D03*
X88673Y102500D02*
D03*
X133500Y119000D02*
D03*
X162000Y186409D02*
D03*
X171000Y186500D02*
D03*
X180500D02*
D03*
X145000Y189362D02*
D03*
X152500Y197500D02*
D03*
M02*
