G04*
G04 #@! TF.GenerationSoftware,Altium Limited,Altium Designer,19.0.10 (269)*
G04*
G04 Layer_Color=65535*
%FSLAX25Y25*%
%MOIN*%
G70*
G01*
G75*
%ADD10C,0.02362*%
%ADD11C,0.00984*%
%ADD12C,0.01200*%
%ADD13C,0.00787*%
%ADD14C,0.01181*%
%ADD15C,0.01000*%
%ADD16C,0.00394*%
%ADD17C,0.00800*%
%ADD18C,0.01100*%
G36*
X28933Y120702D02*
X28963D01*
X29000Y120698D01*
X29081Y120695D01*
X29173Y120684D01*
X29273Y120669D01*
X29384Y120654D01*
X29499Y120632D01*
X29618Y120602D01*
X29740Y120569D01*
X29862Y120528D01*
X29976Y120476D01*
X30091Y120421D01*
X30195Y120354D01*
X30291Y120280D01*
X30298Y120277D01*
X30313Y120262D01*
X30335Y120236D01*
X30369Y120203D01*
X30406Y120162D01*
X30446Y120110D01*
X30491Y120051D01*
X30539Y119981D01*
X30587Y119907D01*
X30631Y119822D01*
X30676Y119729D01*
X30713Y119629D01*
X30750Y119522D01*
X30776Y119407D01*
X30794Y119285D01*
X30805Y119156D01*
X29773Y119111D01*
Y119115D01*
X29769Y119130D01*
X29765Y119148D01*
X29758Y119174D01*
X29751Y119207D01*
X29740Y119244D01*
X29728Y119285D01*
X29714Y119330D01*
X29673Y119422D01*
X29625Y119515D01*
X29562Y119603D01*
X29529Y119644D01*
X29488Y119677D01*
X29484Y119681D01*
X29477Y119685D01*
X29466Y119692D01*
X29447Y119703D01*
X29425Y119718D01*
X29395Y119733D01*
X29362Y119748D01*
X29325Y119766D01*
X29281Y119781D01*
X29233Y119796D01*
X29177Y119810D01*
X29118Y119825D01*
X29055Y119836D01*
X28989Y119844D01*
X28911Y119851D01*
X28789D01*
X28759Y119848D01*
X28722Y119844D01*
X28678Y119840D01*
X28630Y119836D01*
X28574Y119829D01*
X28463Y119807D01*
X28345Y119773D01*
X28286Y119751D01*
X28230Y119725D01*
X28178Y119696D01*
X28126Y119662D01*
X28119Y119659D01*
X28100Y119640D01*
X28075Y119614D01*
X28045Y119577D01*
X28015Y119533D01*
X27990Y119481D01*
X27971Y119418D01*
X27967Y119385D01*
X27964Y119348D01*
Y119344D01*
Y119341D01*
X27967Y119318D01*
X27971Y119285D01*
X27982Y119241D01*
X28001Y119193D01*
X28027Y119141D01*
X28063Y119089D01*
X28115Y119037D01*
X28119D01*
X28126Y119030D01*
X28137Y119022D01*
X28160Y119008D01*
X28186Y118993D01*
X28219Y118974D01*
X28260Y118956D01*
X28308Y118934D01*
X28367Y118908D01*
X28433Y118882D01*
X28511Y118852D01*
X28600Y118823D01*
X28700Y118789D01*
X28807Y118760D01*
X28933Y118726D01*
X29066Y118693D01*
X29070D01*
X29074Y118689D01*
X29085D01*
X29100Y118686D01*
X29136Y118675D01*
X29188Y118664D01*
X29251Y118645D01*
X29325Y118626D01*
X29403Y118604D01*
X29488Y118582D01*
X29577Y118552D01*
X29669Y118527D01*
X29854Y118464D01*
X29943Y118430D01*
X30028Y118393D01*
X30110Y118360D01*
X30180Y118323D01*
X30184Y118319D01*
X30195Y118316D01*
X30213Y118305D01*
X30239Y118290D01*
X30269Y118268D01*
X30306Y118245D01*
X30343Y118219D01*
X30387Y118186D01*
X30432Y118153D01*
X30476Y118112D01*
X30524Y118071D01*
X30572Y118023D01*
X30665Y117920D01*
X30705Y117861D01*
X30746Y117801D01*
X30750Y117798D01*
X30753Y117787D01*
X30764Y117768D01*
X30779Y117742D01*
X30794Y117709D01*
X30813Y117672D01*
X30831Y117628D01*
X30850Y117576D01*
X30868Y117520D01*
X30887Y117457D01*
X30905Y117391D01*
X30920Y117320D01*
X30935Y117243D01*
X30946Y117161D01*
X30950Y117076D01*
X30953Y116987D01*
Y116984D01*
Y116969D01*
Y116943D01*
X30950Y116913D01*
X30946Y116873D01*
X30938Y116828D01*
X30931Y116777D01*
X30924Y116721D01*
X30909Y116658D01*
X30894Y116592D01*
X30872Y116525D01*
X30850Y116455D01*
X30820Y116381D01*
X30787Y116307D01*
X30750Y116236D01*
X30705Y116162D01*
X30702Y116159D01*
X30694Y116147D01*
X30679Y116125D01*
X30661Y116099D01*
X30635Y116070D01*
X30605Y116033D01*
X30568Y115992D01*
X30528Y115948D01*
X30480Y115903D01*
X30428Y115855D01*
X30372Y115807D01*
X30309Y115763D01*
X30243Y115715D01*
X30173Y115670D01*
X30095Y115629D01*
X30013Y115593D01*
X30010Y115589D01*
X29995Y115585D01*
X29969Y115574D01*
X29932Y115563D01*
X29891Y115548D01*
X29840Y115533D01*
X29777Y115518D01*
X29710Y115500D01*
X29632Y115481D01*
X29547Y115467D01*
X29455Y115452D01*
X29359Y115437D01*
X29255Y115426D01*
X29144Y115415D01*
X29026Y115411D01*
X28903Y115408D01*
X28837D01*
X28811Y115411D01*
X28778D01*
X28744Y115415D01*
X28663Y115422D01*
X28567Y115430D01*
X28463Y115445D01*
X28352Y115463D01*
X28234Y115489D01*
X28112Y115518D01*
X27986Y115552D01*
X27864Y115596D01*
X27742Y115648D01*
X27623Y115707D01*
X27512Y115778D01*
X27409Y115855D01*
X27401Y115859D01*
X27386Y115877D01*
X27360Y115903D01*
X27327Y115940D01*
X27286Y115985D01*
X27238Y116044D01*
X27190Y116111D01*
X27139Y116188D01*
X27083Y116273D01*
X27031Y116373D01*
X26979Y116481D01*
X26931Y116595D01*
X26883Y116725D01*
X26846Y116862D01*
X26813Y117010D01*
X26791Y117165D01*
X27797Y117261D01*
Y117254D01*
X27801Y117239D01*
X27808Y117213D01*
X27816Y117180D01*
X27827Y117135D01*
X27841Y117087D01*
X27856Y117035D01*
X27875Y116980D01*
X27927Y116858D01*
X27956Y116795D01*
X27990Y116732D01*
X28027Y116673D01*
X28067Y116617D01*
X28115Y116566D01*
X28163Y116517D01*
X28167Y116514D01*
X28178Y116506D01*
X28193Y116495D01*
X28215Y116481D01*
X28241Y116462D01*
X28278Y116444D01*
X28315Y116421D01*
X28363Y116399D01*
X28411Y116377D01*
X28471Y116355D01*
X28530Y116336D01*
X28596Y116318D01*
X28670Y116303D01*
X28748Y116292D01*
X28829Y116284D01*
X28914Y116281D01*
X28963D01*
X28996Y116284D01*
X29037Y116288D01*
X29085Y116292D01*
X29140Y116299D01*
X29196Y116307D01*
X29318Y116332D01*
X29381Y116351D01*
X29444Y116369D01*
X29503Y116395D01*
X29562Y116421D01*
X29618Y116455D01*
X29666Y116492D01*
X29669Y116495D01*
X29677Y116503D01*
X29688Y116514D01*
X29706Y116529D01*
X29725Y116551D01*
X29747Y116573D01*
X29769Y116603D01*
X29795Y116632D01*
X29840Y116706D01*
X29880Y116788D01*
X29899Y116836D01*
X29910Y116880D01*
X29917Y116932D01*
X29921Y116984D01*
Y116987D01*
Y116991D01*
Y117013D01*
X29917Y117047D01*
X29906Y117091D01*
X29895Y117139D01*
X29877Y117191D01*
X29851Y117243D01*
X29814Y117291D01*
X29810Y117298D01*
X29791Y117313D01*
X29765Y117335D01*
X29728Y117368D01*
X29677Y117402D01*
X29610Y117443D01*
X29532Y117480D01*
X29488Y117498D01*
X29440Y117517D01*
X29436D01*
X29432Y117520D01*
X29418Y117524D01*
X29403Y117528D01*
X29377Y117535D01*
X29347Y117546D01*
X29310Y117557D01*
X29270Y117568D01*
X29218Y117583D01*
X29159Y117598D01*
X29092Y117616D01*
X29014Y117639D01*
X28929Y117661D01*
X28833Y117683D01*
X28726Y117709D01*
X28611Y117738D01*
X28607D01*
X28600Y117742D01*
X28589D01*
X28574Y117750D01*
X28556Y117753D01*
X28533Y117761D01*
X28478Y117775D01*
X28408Y117794D01*
X28330Y117820D01*
X28245Y117850D01*
X28156Y117879D01*
X28060Y117916D01*
X27964Y117953D01*
X27864Y117994D01*
X27771Y118038D01*
X27679Y118086D01*
X27594Y118138D01*
X27516Y118190D01*
X27446Y118245D01*
X27442Y118249D01*
X27427Y118264D01*
X27401Y118290D01*
X27372Y118319D01*
X27338Y118360D01*
X27298Y118412D01*
X27253Y118467D01*
X27213Y118534D01*
X27168Y118604D01*
X27124Y118682D01*
X27083Y118767D01*
X27050Y118856D01*
X27020Y118952D01*
X26994Y119056D01*
X26979Y119163D01*
X26976Y119274D01*
Y119278D01*
Y119292D01*
Y119311D01*
X26979Y119341D01*
X26983Y119374D01*
X26987Y119415D01*
X26994Y119463D01*
X27002Y119515D01*
X27016Y119566D01*
X27027Y119625D01*
X27046Y119685D01*
X27068Y119748D01*
X27094Y119814D01*
X27124Y119877D01*
X27157Y119944D01*
X27194Y120007D01*
X27198Y120010D01*
X27205Y120021D01*
X27216Y120040D01*
X27235Y120062D01*
X27257Y120092D01*
X27286Y120125D01*
X27320Y120158D01*
X27357Y120199D01*
X27401Y120240D01*
X27449Y120284D01*
X27501Y120325D01*
X27557Y120369D01*
X27619Y120410D01*
X27686Y120451D01*
X27756Y120491D01*
X27834Y120525D01*
X27838Y120528D01*
X27853Y120532D01*
X27878Y120543D01*
X27908Y120554D01*
X27949Y120565D01*
X27997Y120584D01*
X28052Y120599D01*
X28115Y120617D01*
X28186Y120632D01*
X28263Y120650D01*
X28345Y120665D01*
X28433Y120676D01*
X28530Y120691D01*
X28630Y120698D01*
X28733Y120702D01*
X28841Y120706D01*
X28907D01*
X28933Y120702D01*
D02*
G37*
G36*
X19720Y119289D02*
X19753Y119285D01*
X19790Y119281D01*
X19831Y119278D01*
X19924Y119263D01*
X20023Y119244D01*
X20123Y119215D01*
X20227Y119174D01*
X20231D01*
X20238Y119170D01*
X20253Y119163D01*
X20271Y119152D01*
X20293Y119141D01*
X20319Y119126D01*
X20379Y119093D01*
X20445Y119048D01*
X20512Y118997D01*
X20578Y118941D01*
X20634Y118874D01*
Y118871D01*
X20641Y118867D01*
X20649Y118856D01*
X20656Y118841D01*
X20682Y118804D01*
X20712Y118756D01*
X20745Y118693D01*
X20775Y118626D01*
X20804Y118549D01*
X20830Y118464D01*
Y118460D01*
X20834Y118453D01*
Y118441D01*
X20837Y118423D01*
X20845Y118397D01*
X20849Y118368D01*
X20852Y118334D01*
X20860Y118293D01*
X20863Y118249D01*
X20867Y118201D01*
X20874Y118146D01*
X20878Y118086D01*
X20882Y118023D01*
Y117953D01*
X20886Y117879D01*
Y117801D01*
Y115500D01*
X19905D01*
Y117391D01*
Y117398D01*
Y117417D01*
Y117446D01*
Y117487D01*
X19901Y117535D01*
Y117590D01*
Y117650D01*
X19898Y117713D01*
X19890Y117842D01*
X19883Y117909D01*
X19875Y117972D01*
X19868Y118031D01*
X19861Y118083D01*
X19850Y118131D01*
X19838Y118168D01*
Y118171D01*
X19835Y118175D01*
X19827Y118197D01*
X19813Y118231D01*
X19790Y118268D01*
X19761Y118312D01*
X19727Y118360D01*
X19683Y118401D01*
X19635Y118441D01*
X19627Y118445D01*
X19609Y118456D01*
X19579Y118475D01*
X19539Y118493D01*
X19491Y118508D01*
X19431Y118527D01*
X19365Y118538D01*
X19295Y118541D01*
X19269D01*
X19250Y118538D01*
X19228D01*
X19202Y118534D01*
X19139Y118523D01*
X19069Y118508D01*
X18991Y118482D01*
X18910Y118449D01*
X18832Y118401D01*
X18828D01*
X18825Y118393D01*
X18813Y118386D01*
X18799Y118375D01*
X18765Y118345D01*
X18721Y118301D01*
X18677Y118249D01*
X18629Y118183D01*
X18588Y118108D01*
X18554Y118027D01*
Y118023D01*
X18551Y118016D01*
X18547Y118001D01*
X18543Y117983D01*
X18536Y117957D01*
X18532Y117923D01*
X18525Y117883D01*
X18518Y117835D01*
X18510Y117779D01*
X18503Y117720D01*
X18499Y117650D01*
X18492Y117572D01*
X18488Y117487D01*
X18484Y117391D01*
X18481Y117287D01*
Y117176D01*
Y115500D01*
X17500D01*
Y119211D01*
X18410D01*
Y118664D01*
X18418Y118671D01*
X18432Y118689D01*
X18458Y118723D01*
X18499Y118763D01*
X18547Y118808D01*
X18603Y118863D01*
X18669Y118919D01*
X18747Y118978D01*
X18828Y119037D01*
X18921Y119093D01*
X19024Y119148D01*
X19132Y119193D01*
X19246Y119233D01*
X19368Y119267D01*
X19498Y119285D01*
X19635Y119292D01*
X19690D01*
X19720Y119289D01*
D02*
G37*
G36*
X35530Y119755D02*
X34013D01*
Y115500D01*
X32981D01*
Y119755D01*
X31460D01*
Y120621D01*
X35530D01*
Y119755D01*
D02*
G37*
G36*
X24197Y120617D02*
X24267D01*
X24345Y120613D01*
X24430Y120610D01*
X24523Y120602D01*
X24619Y120595D01*
X24715Y120588D01*
X24915Y120562D01*
X25007Y120547D01*
X25096Y120528D01*
X25181Y120506D01*
X25255Y120480D01*
X25259D01*
X25270Y120473D01*
X25292Y120465D01*
X25318Y120454D01*
X25348Y120440D01*
X25385Y120417D01*
X25425Y120395D01*
X25470Y120369D01*
X25518Y120336D01*
X25566Y120299D01*
X25614Y120258D01*
X25666Y120214D01*
X25714Y120166D01*
X25762Y120110D01*
X25806Y120051D01*
X25851Y119988D01*
X25855Y119984D01*
X25862Y119973D01*
X25873Y119951D01*
X25888Y119925D01*
X25903Y119892D01*
X25921Y119855D01*
X25943Y119807D01*
X25966Y119755D01*
X25984Y119700D01*
X26006Y119637D01*
X26025Y119570D01*
X26043Y119500D01*
X26054Y119426D01*
X26065Y119348D01*
X26073Y119270D01*
X26077Y119185D01*
Y119178D01*
Y119159D01*
X26073Y119130D01*
Y119089D01*
X26065Y119041D01*
X26058Y118982D01*
X26047Y118919D01*
X26036Y118849D01*
X26017Y118774D01*
X25995Y118697D01*
X25966Y118619D01*
X25932Y118538D01*
X25895Y118460D01*
X25847Y118379D01*
X25795Y118305D01*
X25736Y118231D01*
X25732Y118227D01*
X25721Y118216D01*
X25699Y118197D01*
X25673Y118171D01*
X25636Y118142D01*
X25596Y118108D01*
X25544Y118071D01*
X25485Y118031D01*
X25414Y117990D01*
X25340Y117953D01*
X25259Y117912D01*
X25166Y117875D01*
X25067Y117838D01*
X24959Y117809D01*
X24845Y117783D01*
X24722Y117761D01*
X24726Y117757D01*
X24737Y117753D01*
X24756Y117742D01*
X24778Y117727D01*
X24807Y117709D01*
X24841Y117687D01*
X24878Y117661D01*
X24918Y117635D01*
X25007Y117568D01*
X25100Y117494D01*
X25192Y117413D01*
X25277Y117328D01*
X25281Y117324D01*
X25289Y117317D01*
X25300Y117302D01*
X25318Y117283D01*
X25340Y117257D01*
X25366Y117224D01*
X25396Y117183D01*
X25433Y117135D01*
X25473Y117084D01*
X25518Y117024D01*
X25566Y116954D01*
X25618Y116880D01*
X25673Y116795D01*
X25732Y116706D01*
X25799Y116606D01*
X25866Y116499D01*
X26491Y115500D01*
X25251D01*
X24508Y116614D01*
X24504Y116621D01*
X24489Y116640D01*
X24471Y116669D01*
X24445Y116710D01*
X24412Y116758D01*
X24375Y116810D01*
X24334Y116869D01*
X24290Y116932D01*
X24197Y117058D01*
X24153Y117121D01*
X24108Y117183D01*
X24068Y117239D01*
X24027Y117287D01*
X23990Y117332D01*
X23960Y117365D01*
X23953Y117372D01*
X23934Y117391D01*
X23905Y117417D01*
X23868Y117450D01*
X23820Y117487D01*
X23768Y117520D01*
X23712Y117553D01*
X23649Y117579D01*
X23642Y117583D01*
X23631Y117587D01*
X23620Y117590D01*
X23601Y117594D01*
X23579Y117598D01*
X23553Y117605D01*
X23524Y117609D01*
X23490Y117616D01*
X23453Y117620D01*
X23409Y117624D01*
X23361Y117631D01*
X23313Y117635D01*
X23257D01*
X23194Y117639D01*
X22924D01*
Y115500D01*
X21892D01*
Y120621D01*
X24141D01*
X24197Y120617D01*
D02*
G37*
G36*
X31131Y130636D02*
X31172D01*
X31223Y130628D01*
X31279Y130621D01*
X31345Y130613D01*
X31412Y130599D01*
X31490Y130580D01*
X31567Y130558D01*
X31645Y130532D01*
X31727Y130499D01*
X31808Y130462D01*
X31886Y130417D01*
X31963Y130369D01*
X32037Y130310D01*
X32041Y130306D01*
X32056Y130295D01*
X32074Y130277D01*
X32100Y130251D01*
X32130Y130218D01*
X32163Y130173D01*
X32204Y130125D01*
X32245Y130069D01*
X32285Y130007D01*
X32326Y129936D01*
X32367Y129859D01*
X32407Y129773D01*
X32444Y129685D01*
X32478Y129585D01*
X32507Y129478D01*
X32529Y129367D01*
X31578Y129263D01*
Y129267D01*
Y129274D01*
X31575Y129289D01*
X31571Y129311D01*
X31564Y129333D01*
X31560Y129363D01*
X31541Y129426D01*
X31516Y129496D01*
X31486Y129566D01*
X31445Y129633D01*
X31394Y129692D01*
X31386Y129700D01*
X31368Y129714D01*
X31334Y129736D01*
X31294Y129762D01*
X31238Y129788D01*
X31172Y129811D01*
X31097Y129825D01*
X31012Y129833D01*
X30983D01*
X30961Y129829D01*
X30935Y129825D01*
X30901Y129818D01*
X30868Y129811D01*
X30831Y129799D01*
X30790Y129785D01*
X30746Y129762D01*
X30705Y129740D01*
X30661Y129714D01*
X30617Y129681D01*
X30572Y129644D01*
X30528Y129600D01*
X30487Y129551D01*
X30483Y129548D01*
X30480Y129537D01*
X30468Y129522D01*
X30454Y129496D01*
X30435Y129459D01*
X30417Y129418D01*
X30395Y129367D01*
X30372Y129304D01*
X30350Y129230D01*
X30328Y129145D01*
X30306Y129052D01*
X30283Y128945D01*
X30261Y128826D01*
X30243Y128693D01*
X30228Y128549D01*
X30217Y128390D01*
X30221Y128393D01*
X30235Y128408D01*
X30254Y128430D01*
X30283Y128456D01*
X30317Y128490D01*
X30361Y128527D01*
X30413Y128567D01*
X30468Y128608D01*
X30531Y128649D01*
X30602Y128689D01*
X30676Y128726D01*
X30757Y128760D01*
X30842Y128786D01*
X30931Y128808D01*
X31027Y128823D01*
X31127Y128826D01*
X31153D01*
X31186Y128823D01*
X31231Y128819D01*
X31282Y128812D01*
X31345Y128800D01*
X31416Y128786D01*
X31490Y128767D01*
X31571Y128741D01*
X31656Y128712D01*
X31745Y128675D01*
X31834Y128627D01*
X31923Y128575D01*
X32011Y128512D01*
X32096Y128438D01*
X32182Y128356D01*
X32185Y128353D01*
X32200Y128334D01*
X32222Y128308D01*
X32252Y128271D01*
X32285Y128223D01*
X32322Y128168D01*
X32359Y128105D01*
X32404Y128031D01*
X32444Y127946D01*
X32481Y127853D01*
X32518Y127753D01*
X32552Y127650D01*
X32581Y127531D01*
X32603Y127413D01*
X32618Y127283D01*
X32622Y127146D01*
Y127143D01*
Y127139D01*
Y127128D01*
Y127113D01*
Y127095D01*
X32618Y127073D01*
X32614Y127017D01*
X32607Y126950D01*
X32596Y126873D01*
X32585Y126788D01*
X32563Y126695D01*
X32541Y126595D01*
X32511Y126492D01*
X32470Y126388D01*
X32426Y126281D01*
X32374Y126177D01*
X32311Y126074D01*
X32241Y125977D01*
X32159Y125885D01*
X32156Y125881D01*
X32137Y125866D01*
X32111Y125840D01*
X32074Y125811D01*
X32030Y125774D01*
X31974Y125737D01*
X31912Y125692D01*
X31837Y125648D01*
X31756Y125604D01*
X31667Y125563D01*
X31571Y125522D01*
X31464Y125485D01*
X31353Y125456D01*
X31234Y125433D01*
X31109Y125415D01*
X30975Y125411D01*
X30942D01*
X30924Y125415D01*
X30901D01*
X30846Y125422D01*
X30779Y125430D01*
X30702Y125444D01*
X30617Y125463D01*
X30524Y125485D01*
X30424Y125519D01*
X30324Y125559D01*
X30217Y125607D01*
X30110Y125663D01*
X30002Y125733D01*
X29899Y125814D01*
X29795Y125907D01*
X29699Y126011D01*
X29695Y126018D01*
X29677Y126040D01*
X29666Y126055D01*
X29654Y126077D01*
X29640Y126099D01*
X29621Y126125D01*
X29603Y126159D01*
X29584Y126192D01*
X29562Y126233D01*
X29544Y126273D01*
X29521Y126321D01*
X29499Y126370D01*
X29473Y126425D01*
X29451Y126484D01*
X29429Y126547D01*
X29407Y126614D01*
X29381Y126684D01*
X29359Y126758D01*
X29340Y126836D01*
X29318Y126921D01*
X29299Y127006D01*
X29281Y127098D01*
X29262Y127195D01*
X29247Y127295D01*
X29236Y127398D01*
X29225Y127509D01*
X29214Y127620D01*
X29210Y127738D01*
X29203Y127861D01*
Y127986D01*
Y127990D01*
Y128001D01*
Y128023D01*
Y128049D01*
X29207Y128083D01*
Y128120D01*
Y128164D01*
X29210Y128216D01*
X29214Y128271D01*
X29218Y128331D01*
X29225Y128397D01*
X29229Y128464D01*
X29247Y128612D01*
X29270Y128767D01*
X29296Y128930D01*
X29329Y129100D01*
X29373Y129267D01*
X29421Y129437D01*
X29481Y129596D01*
X29551Y129748D01*
X29588Y129822D01*
X29629Y129888D01*
X29673Y129955D01*
X29721Y130014D01*
X29728Y130021D01*
X29747Y130040D01*
X29777Y130073D01*
X29817Y130110D01*
X29869Y130158D01*
X29932Y130214D01*
X30002Y130269D01*
X30087Y130329D01*
X30180Y130384D01*
X30280Y130443D01*
X30391Y130495D01*
X30513Y130543D01*
X30642Y130580D01*
X30779Y130613D01*
X30924Y130632D01*
X31075Y130639D01*
X31101D01*
X31131Y130636D01*
D02*
G37*
G36*
X24545Y130702D02*
X24571D01*
X24604Y130699D01*
X24637D01*
X24719Y130687D01*
X24807Y130676D01*
X24911Y130658D01*
X25022Y130636D01*
X25141Y130606D01*
X25266Y130569D01*
X25392Y130525D01*
X25522Y130469D01*
X25647Y130406D01*
X25773Y130332D01*
X25892Y130247D01*
X26006Y130147D01*
X26010Y130143D01*
X26021Y130132D01*
X26040Y130114D01*
X26062Y130088D01*
X26091Y130055D01*
X26125Y130010D01*
X26162Y129962D01*
X26202Y129907D01*
X26243Y129844D01*
X26287Y129773D01*
X26332Y129696D01*
X26376Y129614D01*
X26417Y129522D01*
X26458Y129426D01*
X26498Y129318D01*
X26532Y129207D01*
X25507Y128963D01*
Y128967D01*
X25503Y128982D01*
X25496Y129000D01*
X25488Y129030D01*
X25477Y129063D01*
X25462Y129100D01*
X25444Y129145D01*
X25425Y129189D01*
X25374Y129289D01*
X25340Y129341D01*
X25307Y129392D01*
X25270Y129444D01*
X25226Y129496D01*
X25177Y129544D01*
X25126Y129588D01*
X25122Y129592D01*
X25115Y129600D01*
X25096Y129611D01*
X25074Y129625D01*
X25048Y129644D01*
X25015Y129663D01*
X24974Y129685D01*
X24933Y129707D01*
X24882Y129725D01*
X24830Y129748D01*
X24770Y129766D01*
X24711Y129785D01*
X24645Y129799D01*
X24574Y129811D01*
X24504Y129818D01*
X24426Y129822D01*
X24400D01*
X24371Y129818D01*
X24334Y129814D01*
X24286Y129811D01*
X24230Y129799D01*
X24167Y129788D01*
X24101Y129770D01*
X24027Y129748D01*
X23953Y129722D01*
X23875Y129688D01*
X23797Y129648D01*
X23723Y129600D01*
X23646Y129548D01*
X23575Y129485D01*
X23505Y129411D01*
X23501Y129407D01*
X23490Y129392D01*
X23472Y129367D01*
X23450Y129333D01*
X23424Y129289D01*
X23394Y129233D01*
X23361Y129170D01*
X23331Y129093D01*
X23298Y129008D01*
X23265Y128908D01*
X23235Y128800D01*
X23209Y128682D01*
X23187Y128549D01*
X23168Y128408D01*
X23157Y128253D01*
X23154Y128086D01*
Y128083D01*
Y128075D01*
Y128060D01*
Y128046D01*
Y128020D01*
X23157Y127994D01*
Y127964D01*
X23161Y127927D01*
X23165Y127849D01*
X23172Y127757D01*
X23183Y127657D01*
X23198Y127550D01*
X23216Y127439D01*
X23239Y127324D01*
X23268Y127209D01*
X23302Y127095D01*
X23339Y126987D01*
X23387Y126884D01*
X23438Y126791D01*
X23501Y126706D01*
X23505Y126702D01*
X23516Y126688D01*
X23538Y126669D01*
X23564Y126643D01*
X23598Y126610D01*
X23642Y126577D01*
X23690Y126540D01*
X23746Y126503D01*
X23809Y126462D01*
X23875Y126425D01*
X23949Y126392D01*
X24031Y126358D01*
X24116Y126332D01*
X24208Y126314D01*
X24304Y126299D01*
X24408Y126295D01*
X24449D01*
X24478Y126299D01*
X24511Y126303D01*
X24552Y126310D01*
X24600Y126318D01*
X24652Y126329D01*
X24704Y126340D01*
X24759Y126358D01*
X24819Y126381D01*
X24878Y126407D01*
X24941Y126436D01*
X25000Y126469D01*
X25059Y126510D01*
X25115Y126555D01*
X25118Y126558D01*
X25129Y126566D01*
X25144Y126584D01*
X25163Y126606D01*
X25189Y126632D01*
X25218Y126669D01*
X25248Y126710D01*
X25281Y126758D01*
X25314Y126810D01*
X25351Y126873D01*
X25388Y126939D01*
X25422Y127013D01*
X25455Y127098D01*
X25488Y127183D01*
X25518Y127280D01*
X25544Y127383D01*
X26546Y127065D01*
Y127061D01*
X26543Y127054D01*
X26539Y127043D01*
X26535Y127028D01*
X26528Y127010D01*
X26521Y126984D01*
X26502Y126928D01*
X26476Y126858D01*
X26443Y126777D01*
X26406Y126688D01*
X26362Y126595D01*
X26313Y126495D01*
X26258Y126392D01*
X26195Y126288D01*
X26125Y126184D01*
X26047Y126085D01*
X25966Y125988D01*
X25873Y125900D01*
X25777Y125818D01*
X25769Y125814D01*
X25751Y125800D01*
X25721Y125781D01*
X25681Y125755D01*
X25629Y125726D01*
X25566Y125689D01*
X25492Y125652D01*
X25407Y125615D01*
X25314Y125578D01*
X25211Y125541D01*
X25100Y125507D01*
X24978Y125474D01*
X24852Y125448D01*
X24715Y125430D01*
X24571Y125415D01*
X24419Y125411D01*
X24375D01*
X24349Y125415D01*
X24319D01*
X24286Y125419D01*
X24249Y125422D01*
X24208Y125426D01*
X24164Y125433D01*
X24060Y125448D01*
X23949Y125470D01*
X23827Y125500D01*
X23697Y125533D01*
X23561Y125581D01*
X23424Y125637D01*
X23279Y125704D01*
X23143Y125785D01*
X23002Y125877D01*
X22935Y125929D01*
X22869Y125985D01*
X22806Y126044D01*
X22743Y126107D01*
Y126110D01*
X22736Y126114D01*
X22728Y126125D01*
X22713Y126140D01*
X22698Y126159D01*
X22684Y126181D01*
X22661Y126207D01*
X22639Y126236D01*
X22617Y126270D01*
X22591Y126307D01*
X22565Y126347D01*
X22536Y126392D01*
X22477Y126492D01*
X22417Y126606D01*
X22354Y126736D01*
X22295Y126876D01*
X22240Y127035D01*
X22192Y127206D01*
X22147Y127387D01*
X22118Y127583D01*
X22095Y127790D01*
X22092Y127901D01*
X22088Y128012D01*
Y128016D01*
Y128027D01*
Y128046D01*
Y128068D01*
X22092Y128097D01*
Y128134D01*
X22095Y128175D01*
X22099Y128223D01*
X22103Y128275D01*
X22106Y128331D01*
X22114Y128390D01*
X22121Y128453D01*
X22143Y128589D01*
X22169Y128737D01*
X22206Y128897D01*
X22247Y129059D01*
X22303Y129222D01*
X22366Y129389D01*
X22443Y129551D01*
X22528Y129707D01*
X22632Y129859D01*
X22687Y129929D01*
X22747Y129996D01*
X22750Y129999D01*
X22754Y130003D01*
X22765Y130014D01*
X22776Y130025D01*
X22813Y130062D01*
X22865Y130106D01*
X22932Y130162D01*
X23013Y130221D01*
X23106Y130284D01*
X23209Y130351D01*
X23327Y130417D01*
X23461Y130480D01*
X23601Y130543D01*
X23757Y130595D01*
X23923Y130639D01*
X24097Y130676D01*
X24286Y130699D01*
X24382Y130702D01*
X24482Y130706D01*
X24523D01*
X24545Y130702D01*
D02*
G37*
G36*
X28408Y125500D02*
X27427D01*
Y126480D01*
X28408D01*
Y125500D01*
D02*
G37*
G36*
X19383Y130617D02*
X19468D01*
X19561Y130613D01*
X19661Y130610D01*
X19868Y130602D01*
X19972Y130595D01*
X20072Y130587D01*
X20164Y130580D01*
X20249Y130569D01*
X20323Y130558D01*
X20353Y130551D01*
X20382Y130543D01*
X20386D01*
X20401Y130536D01*
X20427Y130528D01*
X20456Y130521D01*
X20493Y130506D01*
X20538Y130488D01*
X20586Y130465D01*
X20641Y130436D01*
X20697Y130406D01*
X20756Y130369D01*
X20815Y130329D01*
X20878Y130284D01*
X20941Y130232D01*
X21004Y130173D01*
X21063Y130110D01*
X21119Y130040D01*
X21122Y130036D01*
X21133Y130021D01*
X21148Y129999D01*
X21167Y129970D01*
X21189Y129933D01*
X21215Y129885D01*
X21241Y129833D01*
X21270Y129770D01*
X21296Y129703D01*
X21322Y129629D01*
X21348Y129548D01*
X21370Y129459D01*
X21392Y129363D01*
X21407Y129263D01*
X21415Y129156D01*
X21418Y129045D01*
Y129041D01*
Y129022D01*
Y129000D01*
X21415Y128967D01*
Y128926D01*
X21411Y128878D01*
X21404Y128826D01*
X21396Y128767D01*
X21389Y128708D01*
X21378Y128641D01*
X21344Y128508D01*
X21304Y128375D01*
X21274Y128312D01*
X21244Y128249D01*
X21241Y128245D01*
X21237Y128234D01*
X21226Y128219D01*
X21215Y128197D01*
X21196Y128171D01*
X21178Y128138D01*
X21126Y128068D01*
X21063Y127986D01*
X20989Y127901D01*
X20904Y127820D01*
X20811Y127746D01*
X20808Y127742D01*
X20800Y127738D01*
X20786Y127727D01*
X20767Y127716D01*
X20741Y127701D01*
X20715Y127683D01*
X20682Y127664D01*
X20645Y127646D01*
X20564Y127605D01*
X20475Y127565D01*
X20379Y127528D01*
X20275Y127502D01*
X20271D01*
X20256Y127498D01*
X20238Y127494D01*
X20205Y127491D01*
X20168Y127487D01*
X20120Y127480D01*
X20068Y127472D01*
X20001Y127468D01*
X19931Y127461D01*
X19853Y127454D01*
X19764Y127446D01*
X19668Y127443D01*
X19565Y127439D01*
X19454Y127435D01*
X19331Y127431D01*
X18532D01*
Y125500D01*
X17500D01*
Y130621D01*
X19306D01*
X19383Y130617D01*
D02*
G37*
G36*
X59885Y188636D02*
X59933Y188632D01*
X59996Y188625D01*
X60066Y188613D01*
X60144Y188602D01*
X60229Y188580D01*
X60321Y188558D01*
X60414Y188528D01*
X60510Y188488D01*
X60606Y188443D01*
X60702Y188391D01*
X60799Y188329D01*
X60887Y188258D01*
X60972Y188177D01*
X60976Y188173D01*
X60987Y188158D01*
X61006Y188140D01*
X61028Y188110D01*
X61058Y188073D01*
X61087Y188032D01*
X61120Y187984D01*
X61154Y187929D01*
X61187Y187870D01*
X61220Y187803D01*
X61250Y187733D01*
X61279Y187659D01*
X61302Y187581D01*
X61320Y187500D01*
X61331Y187415D01*
X61335Y187326D01*
Y187318D01*
Y187296D01*
X61331Y187263D01*
X61324Y187215D01*
X61313Y187156D01*
X61294Y187093D01*
X61272Y187019D01*
X61243Y186937D01*
X61202Y186856D01*
X61154Y186767D01*
X61094Y186678D01*
X61024Y186586D01*
X60939Y186497D01*
X60891Y186453D01*
X60839Y186412D01*
X60784Y186367D01*
X60725Y186327D01*
X60662Y186286D01*
X60595Y186249D01*
X60599D01*
X60614Y186245D01*
X60636Y186238D01*
X60669Y186231D01*
X60706Y186220D01*
X60747Y186201D01*
X60795Y186182D01*
X60847Y186160D01*
X60902Y186134D01*
X60961Y186105D01*
X61020Y186072D01*
X61076Y186031D01*
X61135Y185990D01*
X61191Y185938D01*
X61246Y185887D01*
X61298Y185827D01*
X61302Y185824D01*
X61309Y185812D01*
X61324Y185794D01*
X61339Y185768D01*
X61357Y185739D01*
X61379Y185698D01*
X61405Y185653D01*
X61431Y185605D01*
X61453Y185550D01*
X61479Y185491D01*
X61501Y185424D01*
X61520Y185354D01*
X61535Y185280D01*
X61550Y185202D01*
X61557Y185121D01*
X61561Y185036D01*
Y185028D01*
Y185006D01*
X61557Y184969D01*
X61553Y184921D01*
X61546Y184865D01*
X61535Y184795D01*
X61520Y184721D01*
X61498Y184640D01*
X61472Y184551D01*
X61439Y184458D01*
X61398Y184362D01*
X61353Y184266D01*
X61294Y184166D01*
X61228Y184070D01*
X61154Y183977D01*
X61065Y183885D01*
X61058Y183881D01*
X61043Y183866D01*
X61013Y183840D01*
X60976Y183811D01*
X60928Y183774D01*
X60873Y183737D01*
X60802Y183692D01*
X60728Y183648D01*
X60643Y183604D01*
X60551Y183563D01*
X60451Y183522D01*
X60340Y183485D01*
X60225Y183456D01*
X60103Y183433D01*
X59973Y183415D01*
X59840Y183411D01*
X59811D01*
X59774Y183415D01*
X59725Y183419D01*
X59666Y183422D01*
X59596Y183433D01*
X59522Y183444D01*
X59437Y183463D01*
X59348Y183482D01*
X59256Y183507D01*
X59159Y183541D01*
X59063Y183581D01*
X58967Y183626D01*
X58871Y183678D01*
X58778Y183740D01*
X58689Y183811D01*
X58686Y183815D01*
X58671Y183829D01*
X58645Y183852D01*
X58615Y183885D01*
X58582Y183922D01*
X58542Y183970D01*
X58497Y184029D01*
X58453Y184092D01*
X58405Y184162D01*
X58360Y184240D01*
X58316Y184329D01*
X58271Y184421D01*
X58234Y184518D01*
X58205Y184625D01*
X58179Y184736D01*
X58160Y184854D01*
X59111Y184973D01*
Y184969D01*
X59115Y184958D01*
Y184939D01*
X59122Y184913D01*
X59126Y184880D01*
X59137Y184847D01*
X59145Y184806D01*
X59159Y184765D01*
X59189Y184677D01*
X59233Y184584D01*
X59285Y184492D01*
X59319Y184451D01*
X59352Y184414D01*
X59355Y184410D01*
X59363Y184406D01*
X59374Y184395D01*
X59389Y184384D01*
X59407Y184370D01*
X59430Y184355D01*
X59489Y184321D01*
X59559Y184284D01*
X59640Y184255D01*
X59733Y184233D01*
X59781Y184229D01*
X59833Y184225D01*
X59862D01*
X59885Y184229D01*
X59911Y184233D01*
X59940Y184236D01*
X60010Y184255D01*
X60092Y184281D01*
X60132Y184299D01*
X60177Y184321D01*
X60221Y184347D01*
X60262Y184381D01*
X60303Y184414D01*
X60343Y184455D01*
X60347Y184458D01*
X60351Y184466D01*
X60362Y184477D01*
X60377Y184495D01*
X60391Y184521D01*
X60410Y184547D01*
X60429Y184580D01*
X60451Y184617D01*
X60469Y184662D01*
X60488Y184706D01*
X60506Y184758D01*
X60521Y184813D01*
X60536Y184873D01*
X60547Y184936D01*
X60551Y185006D01*
X60554Y185076D01*
Y185080D01*
Y185091D01*
Y185113D01*
X60551Y185139D01*
X60547Y185169D01*
X60543Y185206D01*
X60540Y185246D01*
X60528Y185287D01*
X60506Y185383D01*
X60469Y185479D01*
X60447Y185528D01*
X60421Y185576D01*
X60391Y185624D01*
X60355Y185664D01*
X60351Y185668D01*
X60347Y185676D01*
X60336Y185683D01*
X60317Y185698D01*
X60299Y185716D01*
X60277Y185735D01*
X60218Y185775D01*
X60147Y185812D01*
X60066Y185849D01*
X60022Y185864D01*
X59973Y185872D01*
X59922Y185879D01*
X59870Y185883D01*
X59837D01*
X59818Y185879D01*
X59796D01*
X59744Y185875D01*
X59677Y185864D01*
X59600Y185853D01*
X59515Y185835D01*
X59422Y185809D01*
X59529Y186608D01*
X59596D01*
X59629Y186612D01*
X59666Y186615D01*
X59711Y186619D01*
X59755Y186627D01*
X59855Y186645D01*
X59955Y186675D01*
X60007Y186697D01*
X60055Y186719D01*
X60099Y186745D01*
X60140Y186778D01*
X60144Y186782D01*
X60147Y186786D01*
X60158Y186797D01*
X60173Y186811D01*
X60188Y186830D01*
X60207Y186852D01*
X60225Y186878D01*
X60247Y186908D01*
X60284Y186978D01*
X60317Y187063D01*
X60332Y187108D01*
X60343Y187159D01*
X60347Y187211D01*
X60351Y187267D01*
Y187270D01*
Y187278D01*
Y187293D01*
X60347Y187311D01*
Y187333D01*
X60343Y187355D01*
X60332Y187415D01*
X60314Y187481D01*
X60284Y187548D01*
X60247Y187614D01*
X60195Y187677D01*
X60188Y187685D01*
X60166Y187703D01*
X60132Y187725D01*
X60084Y187755D01*
X60025Y187785D01*
X59955Y187807D01*
X59877Y187825D01*
X59785Y187833D01*
X59759D01*
X59744Y187829D01*
X59722D01*
X59696Y187825D01*
X59637Y187811D01*
X59570Y187788D01*
X59496Y187759D01*
X59422Y187714D01*
X59385Y187685D01*
X59352Y187655D01*
X59348Y187651D01*
X59344Y187648D01*
X59337Y187637D01*
X59322Y187622D01*
X59311Y187603D01*
X59293Y187581D01*
X59278Y187555D01*
X59259Y187526D01*
X59241Y187492D01*
X59222Y187455D01*
X59204Y187415D01*
X59185Y187366D01*
X59171Y187318D01*
X59156Y187267D01*
X59145Y187207D01*
X59137Y187148D01*
X58234Y187300D01*
Y187304D01*
X58238Y187322D01*
X58245Y187344D01*
X58253Y187378D01*
X58260Y187418D01*
X58275Y187463D01*
X58286Y187514D01*
X58305Y187566D01*
X58345Y187685D01*
X58394Y187811D01*
X58449Y187933D01*
X58482Y187988D01*
X58516Y188044D01*
X58519Y188047D01*
X58523Y188055D01*
X58534Y188069D01*
X58553Y188088D01*
X58571Y188114D01*
X58593Y188140D01*
X58623Y188169D01*
X58656Y188203D01*
X58689Y188236D01*
X58730Y188273D01*
X58775Y188310D01*
X58823Y188343D01*
X58874Y188380D01*
X58926Y188417D01*
X59048Y188480D01*
X59052Y188484D01*
X59063Y188488D01*
X59082Y188495D01*
X59108Y188506D01*
X59141Y188517D01*
X59178Y188532D01*
X59222Y188547D01*
X59270Y188562D01*
X59326Y188576D01*
X59385Y188587D01*
X59448Y188602D01*
X59515Y188613D01*
X59659Y188632D01*
X59737Y188639D01*
X59848D01*
X59885Y188636D01*
D02*
G37*
G36*
X56729Y183500D02*
X55748D01*
Y187196D01*
X55741Y187189D01*
X55722Y187174D01*
X55692Y187148D01*
X55652Y187115D01*
X55600Y187074D01*
X55537Y187026D01*
X55467Y186971D01*
X55385Y186915D01*
X55297Y186856D01*
X55200Y186793D01*
X55097Y186730D01*
X54986Y186671D01*
X54867Y186612D01*
X54742Y186553D01*
X54612Y186501D01*
X54479Y186453D01*
Y187344D01*
X54483D01*
X54497Y187352D01*
X54516Y187359D01*
X54545Y187370D01*
X54583Y187385D01*
X54623Y187400D01*
X54671Y187422D01*
X54727Y187448D01*
X54786Y187481D01*
X54849Y187514D01*
X54919Y187551D01*
X54989Y187596D01*
X55067Y187644D01*
X55145Y187696D01*
X55226Y187755D01*
X55311Y187818D01*
X55315Y187822D01*
X55330Y187833D01*
X55356Y187855D01*
X55385Y187881D01*
X55422Y187914D01*
X55463Y187955D01*
X55507Y187999D01*
X55559Y188051D01*
X55607Y188110D01*
X55659Y188173D01*
X55711Y188240D01*
X55763Y188314D01*
X55811Y188388D01*
X55855Y188469D01*
X55896Y188554D01*
X55929Y188639D01*
X56729D01*
Y183500D01*
D02*
G37*
G36*
X51526Y188617D02*
X51589D01*
X51660Y188613D01*
X51807Y188610D01*
X51955Y188599D01*
X52030Y188595D01*
X52100Y188587D01*
X52163Y188576D01*
X52222Y188569D01*
X52226D01*
X52237Y188565D01*
X52251Y188562D01*
X52274Y188558D01*
X52300Y188550D01*
X52329Y188543D01*
X52363Y188536D01*
X52403Y188525D01*
X52485Y188495D01*
X52573Y188458D01*
X52666Y188410D01*
X52758Y188354D01*
X52762D01*
X52770Y188347D01*
X52781Y188340D01*
X52799Y188325D01*
X52840Y188292D01*
X52895Y188243D01*
X52958Y188180D01*
X53025Y188107D01*
X53088Y188025D01*
X53151Y187929D01*
X53154Y187925D01*
X53158Y187918D01*
X53165Y187903D01*
X53176Y187881D01*
X53188Y187859D01*
X53202Y187829D01*
X53217Y187792D01*
X53232Y187755D01*
X53247Y187711D01*
X53258Y187666D01*
X53284Y187563D01*
X53302Y187452D01*
X53310Y187392D01*
Y187329D01*
Y187326D01*
Y187315D01*
Y187296D01*
X53306Y187270D01*
X53302Y187237D01*
X53299Y187200D01*
X53295Y187159D01*
X53284Y187111D01*
X53262Y187011D01*
X53228Y186900D01*
X53206Y186845D01*
X53180Y186786D01*
X53147Y186726D01*
X53114Y186671D01*
X53110Y186667D01*
X53106Y186656D01*
X53095Y186641D01*
X53080Y186623D01*
X53058Y186597D01*
X53036Y186567D01*
X53006Y186538D01*
X52977Y186501D01*
X52940Y186467D01*
X52903Y186430D01*
X52814Y186353D01*
X52710Y186282D01*
X52592Y186220D01*
X52596D01*
X52614Y186212D01*
X52636Y186205D01*
X52670Y186194D01*
X52707Y186179D01*
X52751Y186160D01*
X52803Y186138D01*
X52858Y186112D01*
X52914Y186083D01*
X52973Y186049D01*
X53032Y186009D01*
X53091Y185968D01*
X53151Y185924D01*
X53206Y185872D01*
X53262Y185816D01*
X53310Y185757D01*
X53313Y185753D01*
X53321Y185742D01*
X53332Y185724D01*
X53350Y185698D01*
X53369Y185668D01*
X53391Y185631D01*
X53413Y185587D01*
X53435Y185539D01*
X53458Y185483D01*
X53484Y185424D01*
X53502Y185361D01*
X53521Y185291D01*
X53539Y185221D01*
X53550Y185143D01*
X53558Y185065D01*
X53561Y184984D01*
Y184980D01*
Y184969D01*
Y184950D01*
X53558Y184924D01*
Y184891D01*
X53554Y184858D01*
X53547Y184813D01*
X53543Y184769D01*
X53532Y184717D01*
X53521Y184666D01*
X53491Y184551D01*
X53454Y184429D01*
X53428Y184366D01*
X53399Y184303D01*
Y184299D01*
X53391Y184288D01*
X53380Y184270D01*
X53369Y184247D01*
X53354Y184221D01*
X53332Y184188D01*
X53284Y184114D01*
X53217Y184029D01*
X53143Y183940D01*
X53054Y183855D01*
X52955Y183774D01*
X52951Y183770D01*
X52943Y183766D01*
X52925Y183755D01*
X52903Y183744D01*
X52877Y183726D01*
X52843Y183711D01*
X52807Y183689D01*
X52762Y183670D01*
X52714Y183648D01*
X52662Y183630D01*
X52603Y183607D01*
X52544Y183589D01*
X52477Y183570D01*
X52407Y183555D01*
X52259Y183533D01*
X52248D01*
X52229Y183530D01*
X52203D01*
X52170Y183526D01*
X52126Y183522D01*
X52074D01*
X52007Y183519D01*
X51930Y183515D01*
X51841Y183511D01*
X51741D01*
X51626Y183507D01*
X51563D01*
X51497Y183504D01*
X51349D01*
X51271Y183500D01*
X49273D01*
Y188621D01*
X51471D01*
X51526Y188617D01*
D02*
G37*
G36*
X46383D02*
X46468D01*
X46561Y188613D01*
X46661Y188610D01*
X46868Y188602D01*
X46972Y188595D01*
X47071Y188587D01*
X47164Y188580D01*
X47249Y188569D01*
X47323Y188558D01*
X47353Y188550D01*
X47382Y188543D01*
X47386D01*
X47401Y188536D01*
X47427Y188528D01*
X47456Y188521D01*
X47493Y188506D01*
X47538Y188488D01*
X47586Y188465D01*
X47641Y188436D01*
X47697Y188406D01*
X47756Y188369D01*
X47815Y188329D01*
X47878Y188284D01*
X47941Y188232D01*
X48004Y188173D01*
X48063Y188110D01*
X48119Y188040D01*
X48122Y188036D01*
X48133Y188021D01*
X48148Y187999D01*
X48167Y187970D01*
X48189Y187933D01*
X48215Y187884D01*
X48241Y187833D01*
X48270Y187770D01*
X48296Y187703D01*
X48322Y187629D01*
X48348Y187548D01*
X48370Y187459D01*
X48392Y187363D01*
X48407Y187263D01*
X48415Y187156D01*
X48418Y187045D01*
Y187041D01*
Y187022D01*
Y187000D01*
X48415Y186967D01*
Y186926D01*
X48411Y186878D01*
X48403Y186826D01*
X48396Y186767D01*
X48389Y186708D01*
X48378Y186641D01*
X48344Y186508D01*
X48304Y186375D01*
X48274Y186312D01*
X48244Y186249D01*
X48241Y186245D01*
X48237Y186234D01*
X48226Y186220D01*
X48215Y186197D01*
X48196Y186171D01*
X48178Y186138D01*
X48126Y186068D01*
X48063Y185986D01*
X47989Y185901D01*
X47904Y185820D01*
X47811Y185746D01*
X47808Y185742D01*
X47800Y185739D01*
X47786Y185727D01*
X47767Y185716D01*
X47741Y185702D01*
X47715Y185683D01*
X47682Y185664D01*
X47645Y185646D01*
X47564Y185605D01*
X47475Y185565D01*
X47379Y185528D01*
X47275Y185502D01*
X47271D01*
X47256Y185498D01*
X47238Y185494D01*
X47205Y185491D01*
X47168Y185487D01*
X47120Y185479D01*
X47068Y185472D01*
X47001Y185468D01*
X46931Y185461D01*
X46853Y185454D01*
X46764Y185446D01*
X46668Y185442D01*
X46565Y185439D01*
X46454Y185435D01*
X46332Y185431D01*
X45532D01*
Y183500D01*
X44500D01*
Y188621D01*
X46306D01*
X46383Y188617D01*
D02*
G37*
G36*
X59955Y178636D02*
X60007Y178632D01*
X60070Y178628D01*
X60144Y178617D01*
X60225Y178606D01*
X60314Y178587D01*
X60406Y178565D01*
X60506Y178539D01*
X60606Y178506D01*
X60702Y178465D01*
X60802Y178417D01*
X60898Y178366D01*
X60987Y178303D01*
X61072Y178229D01*
X61076Y178225D01*
X61091Y178210D01*
X61113Y178188D01*
X61139Y178155D01*
X61172Y178114D01*
X61209Y178069D01*
X61250Y178010D01*
X61291Y177947D01*
X61331Y177877D01*
X61372Y177803D01*
X61409Y177718D01*
X61442Y177629D01*
X61468Y177533D01*
X61490Y177429D01*
X61505Y177322D01*
X61509Y177211D01*
Y177207D01*
Y177196D01*
Y177178D01*
Y177152D01*
X61505Y177122D01*
X61501Y177085D01*
X61498Y177045D01*
X61494Y177000D01*
X61479Y176900D01*
X61457Y176789D01*
X61424Y176671D01*
X61383Y176552D01*
Y176549D01*
X61376Y176538D01*
X61368Y176523D01*
X61361Y176497D01*
X61346Y176471D01*
X61328Y176438D01*
X61309Y176397D01*
X61287Y176356D01*
X61261Y176308D01*
X61231Y176257D01*
X61165Y176146D01*
X61083Y176027D01*
X60991Y175901D01*
X60987Y175898D01*
X60984Y175890D01*
X60972Y175879D01*
X60958Y175861D01*
X60935Y175835D01*
X60909Y175805D01*
X60880Y175772D01*
X60843Y175735D01*
X60802Y175690D01*
X60754Y175642D01*
X60702Y175587D01*
X60643Y175528D01*
X60580Y175465D01*
X60510Y175398D01*
X60432Y175324D01*
X60347Y175246D01*
X60343Y175243D01*
X60329Y175228D01*
X60303Y175206D01*
X60273Y175176D01*
X60236Y175143D01*
X60192Y175106D01*
X60147Y175061D01*
X60099Y175017D01*
X59999Y174921D01*
X59899Y174828D01*
X59855Y174784D01*
X59818Y174747D01*
X59781Y174710D01*
X59755Y174680D01*
X59751Y174673D01*
X59737Y174658D01*
X59711Y174628D01*
X59685Y174595D01*
X59651Y174555D01*
X59618Y174506D01*
X59585Y174458D01*
X59555Y174410D01*
X61509D01*
Y173500D01*
X58068D01*
Y173507D01*
X58072Y173522D01*
X58075Y173552D01*
X58083Y173589D01*
X58090Y173633D01*
X58101Y173689D01*
X58112Y173748D01*
X58131Y173814D01*
X58149Y173889D01*
X58175Y173966D01*
X58201Y174044D01*
X58231Y174129D01*
X58268Y174214D01*
X58308Y174303D01*
X58353Y174388D01*
X58401Y174477D01*
X58405Y174480D01*
X58416Y174499D01*
X58434Y174525D01*
X58456Y174562D01*
X58490Y174606D01*
X58534Y174662D01*
X58586Y174728D01*
X58645Y174802D01*
X58715Y174888D01*
X58793Y174980D01*
X58886Y175080D01*
X58986Y175191D01*
X59100Y175309D01*
X59222Y175431D01*
X59359Y175565D01*
X59507Y175705D01*
X59511Y175709D01*
X59515Y175713D01*
X59537Y175731D01*
X59570Y175764D01*
X59614Y175805D01*
X59666Y175857D01*
X59725Y175912D01*
X59788Y175975D01*
X59859Y176042D01*
X59996Y176182D01*
X60066Y176249D01*
X60129Y176319D01*
X60192Y176382D01*
X60243Y176442D01*
X60288Y176497D01*
X60321Y176541D01*
X60325Y176545D01*
X60329Y176556D01*
X60340Y176571D01*
X60355Y176593D01*
X60369Y176623D01*
X60384Y176652D01*
X60403Y176689D01*
X60425Y176730D01*
X60462Y176823D01*
X60491Y176923D01*
X60517Y177033D01*
X60521Y177089D01*
X60525Y177145D01*
Y177148D01*
Y177159D01*
Y177174D01*
X60521Y177200D01*
Y177226D01*
X60517Y177255D01*
X60502Y177330D01*
X60480Y177411D01*
X60451Y177496D01*
X60406Y177574D01*
X60377Y177614D01*
X60347Y177648D01*
X60343Y177651D01*
X60340Y177655D01*
X60329Y177663D01*
X60314Y177677D01*
X60295Y177688D01*
X60273Y177703D01*
X60247Y177722D01*
X60221Y177736D01*
X60151Y177770D01*
X60066Y177799D01*
X59970Y177818D01*
X59914Y177822D01*
X59859Y177825D01*
X59829D01*
X59807Y177822D01*
X59781D01*
X59751Y177814D01*
X59681Y177803D01*
X59603Y177781D01*
X59518Y177748D01*
X59481Y177725D01*
X59441Y177703D01*
X59404Y177674D01*
X59367Y177640D01*
X59363Y177637D01*
X59359Y177633D01*
X59348Y177622D01*
X59337Y177603D01*
X59322Y177585D01*
X59307Y177559D01*
X59293Y177529D01*
X59274Y177496D01*
X59256Y177455D01*
X59237Y177411D01*
X59219Y177359D01*
X59204Y177304D01*
X59189Y177241D01*
X59174Y177174D01*
X59167Y177104D01*
X59159Y177026D01*
X58183Y177122D01*
Y177126D01*
Y177133D01*
X58186Y177145D01*
Y177159D01*
X58190Y177178D01*
X58194Y177200D01*
X58205Y177255D01*
X58216Y177322D01*
X58234Y177396D01*
X58257Y177481D01*
X58283Y177570D01*
X58316Y177666D01*
X58353Y177762D01*
X58397Y177859D01*
X58449Y177955D01*
X58504Y178047D01*
X58571Y178132D01*
X58645Y178214D01*
X58727Y178284D01*
X58730Y178288D01*
X58749Y178299D01*
X58775Y178317D01*
X58808Y178340D01*
X58856Y178366D01*
X58908Y178395D01*
X58974Y178428D01*
X59045Y178462D01*
X59122Y178495D01*
X59211Y178528D01*
X59307Y178558D01*
X59407Y178584D01*
X59518Y178606D01*
X59633Y178624D01*
X59755Y178636D01*
X59881Y178639D01*
X59914D01*
X59955Y178636D01*
D02*
G37*
G36*
X56729Y173500D02*
X55748D01*
Y177196D01*
X55741Y177189D01*
X55722Y177174D01*
X55692Y177148D01*
X55652Y177115D01*
X55600Y177074D01*
X55537Y177026D01*
X55467Y176971D01*
X55385Y176915D01*
X55297Y176856D01*
X55200Y176793D01*
X55097Y176730D01*
X54986Y176671D01*
X54867Y176612D01*
X54742Y176552D01*
X54612Y176501D01*
X54479Y176453D01*
Y177344D01*
X54483D01*
X54497Y177352D01*
X54516Y177359D01*
X54545Y177370D01*
X54583Y177385D01*
X54623Y177400D01*
X54671Y177422D01*
X54727Y177448D01*
X54786Y177481D01*
X54849Y177515D01*
X54919Y177551D01*
X54989Y177596D01*
X55067Y177644D01*
X55145Y177696D01*
X55226Y177755D01*
X55311Y177818D01*
X55315Y177822D01*
X55330Y177833D01*
X55356Y177855D01*
X55385Y177881D01*
X55422Y177914D01*
X55463Y177955D01*
X55507Y177999D01*
X55559Y178051D01*
X55607Y178110D01*
X55659Y178173D01*
X55711Y178240D01*
X55763Y178314D01*
X55811Y178388D01*
X55855Y178469D01*
X55896Y178554D01*
X55929Y178639D01*
X56729D01*
Y173500D01*
D02*
G37*
G36*
X51526Y178617D02*
X51589D01*
X51660Y178613D01*
X51807Y178610D01*
X51955Y178599D01*
X52030Y178595D01*
X52100Y178587D01*
X52163Y178576D01*
X52222Y178569D01*
X52226D01*
X52237Y178565D01*
X52251Y178562D01*
X52274Y178558D01*
X52300Y178551D01*
X52329Y178543D01*
X52363Y178536D01*
X52403Y178525D01*
X52485Y178495D01*
X52573Y178458D01*
X52666Y178410D01*
X52758Y178354D01*
X52762D01*
X52770Y178347D01*
X52781Y178340D01*
X52799Y178325D01*
X52840Y178291D01*
X52895Y178243D01*
X52958Y178181D01*
X53025Y178106D01*
X53088Y178025D01*
X53151Y177929D01*
X53154Y177925D01*
X53158Y177918D01*
X53165Y177903D01*
X53176Y177881D01*
X53188Y177859D01*
X53202Y177829D01*
X53217Y177792D01*
X53232Y177755D01*
X53247Y177711D01*
X53258Y177666D01*
X53284Y177563D01*
X53302Y177452D01*
X53310Y177392D01*
Y177330D01*
Y177326D01*
Y177315D01*
Y177296D01*
X53306Y177270D01*
X53302Y177237D01*
X53299Y177200D01*
X53295Y177159D01*
X53284Y177111D01*
X53262Y177011D01*
X53228Y176900D01*
X53206Y176845D01*
X53180Y176786D01*
X53147Y176726D01*
X53114Y176671D01*
X53110Y176667D01*
X53106Y176656D01*
X53095Y176641D01*
X53080Y176623D01*
X53058Y176597D01*
X53036Y176567D01*
X53006Y176538D01*
X52977Y176501D01*
X52940Y176467D01*
X52903Y176430D01*
X52814Y176353D01*
X52710Y176282D01*
X52592Y176219D01*
X52596D01*
X52614Y176212D01*
X52636Y176205D01*
X52670Y176194D01*
X52707Y176179D01*
X52751Y176160D01*
X52803Y176138D01*
X52858Y176112D01*
X52914Y176083D01*
X52973Y176049D01*
X53032Y176009D01*
X53091Y175968D01*
X53151Y175924D01*
X53206Y175872D01*
X53262Y175816D01*
X53310Y175757D01*
X53313Y175753D01*
X53321Y175742D01*
X53332Y175724D01*
X53350Y175698D01*
X53369Y175668D01*
X53391Y175631D01*
X53413Y175587D01*
X53435Y175539D01*
X53458Y175483D01*
X53484Y175424D01*
X53502Y175361D01*
X53521Y175291D01*
X53539Y175221D01*
X53550Y175143D01*
X53558Y175065D01*
X53561Y174984D01*
Y174980D01*
Y174969D01*
Y174950D01*
X53558Y174925D01*
Y174891D01*
X53554Y174858D01*
X53547Y174813D01*
X53543Y174769D01*
X53532Y174717D01*
X53521Y174665D01*
X53491Y174551D01*
X53454Y174429D01*
X53428Y174366D01*
X53399Y174303D01*
Y174299D01*
X53391Y174288D01*
X53380Y174270D01*
X53369Y174247D01*
X53354Y174222D01*
X53332Y174188D01*
X53284Y174114D01*
X53217Y174029D01*
X53143Y173940D01*
X53054Y173855D01*
X52955Y173774D01*
X52951Y173770D01*
X52943Y173766D01*
X52925Y173755D01*
X52903Y173744D01*
X52877Y173726D01*
X52843Y173711D01*
X52807Y173689D01*
X52762Y173670D01*
X52714Y173648D01*
X52662Y173629D01*
X52603Y173607D01*
X52544Y173589D01*
X52477Y173570D01*
X52407Y173556D01*
X52259Y173533D01*
X52248D01*
X52229Y173530D01*
X52203D01*
X52170Y173526D01*
X52126Y173522D01*
X52074D01*
X52007Y173519D01*
X51930Y173515D01*
X51841Y173511D01*
X51741D01*
X51626Y173507D01*
X51563D01*
X51497Y173504D01*
X51349D01*
X51271Y173500D01*
X49273D01*
Y178621D01*
X51471D01*
X51526Y178617D01*
D02*
G37*
G36*
X46383D02*
X46468D01*
X46561Y178613D01*
X46661Y178610D01*
X46868Y178602D01*
X46972Y178595D01*
X47071Y178587D01*
X47164Y178580D01*
X47249Y178569D01*
X47323Y178558D01*
X47353Y178551D01*
X47382Y178543D01*
X47386D01*
X47401Y178536D01*
X47427Y178528D01*
X47456Y178521D01*
X47493Y178506D01*
X47538Y178488D01*
X47586Y178465D01*
X47641Y178436D01*
X47697Y178406D01*
X47756Y178369D01*
X47815Y178329D01*
X47878Y178284D01*
X47941Y178232D01*
X48004Y178173D01*
X48063Y178110D01*
X48119Y178040D01*
X48122Y178036D01*
X48133Y178021D01*
X48148Y177999D01*
X48167Y177970D01*
X48189Y177933D01*
X48215Y177884D01*
X48241Y177833D01*
X48270Y177770D01*
X48296Y177703D01*
X48322Y177629D01*
X48348Y177548D01*
X48370Y177459D01*
X48392Y177363D01*
X48407Y177263D01*
X48415Y177156D01*
X48418Y177045D01*
Y177041D01*
Y177022D01*
Y177000D01*
X48415Y176967D01*
Y176926D01*
X48411Y176878D01*
X48403Y176826D01*
X48396Y176767D01*
X48389Y176708D01*
X48378Y176641D01*
X48344Y176508D01*
X48304Y176375D01*
X48274Y176312D01*
X48244Y176249D01*
X48241Y176245D01*
X48237Y176234D01*
X48226Y176219D01*
X48215Y176197D01*
X48196Y176171D01*
X48178Y176138D01*
X48126Y176068D01*
X48063Y175986D01*
X47989Y175901D01*
X47904Y175820D01*
X47811Y175746D01*
X47808Y175742D01*
X47800Y175739D01*
X47786Y175727D01*
X47767Y175716D01*
X47741Y175701D01*
X47715Y175683D01*
X47682Y175664D01*
X47645Y175646D01*
X47564Y175605D01*
X47475Y175565D01*
X47379Y175528D01*
X47275Y175502D01*
X47271D01*
X47256Y175498D01*
X47238Y175494D01*
X47205Y175491D01*
X47168Y175487D01*
X47120Y175479D01*
X47068Y175472D01*
X47001Y175468D01*
X46931Y175461D01*
X46853Y175454D01*
X46764Y175446D01*
X46668Y175443D01*
X46565Y175439D01*
X46454Y175435D01*
X46332Y175431D01*
X45532D01*
Y173500D01*
X44500D01*
Y178621D01*
X46306D01*
X46383Y178617D01*
D02*
G37*
G36*
X24545Y140702D02*
X24571D01*
X24604Y140699D01*
X24637D01*
X24719Y140687D01*
X24807Y140676D01*
X24911Y140658D01*
X25022Y140636D01*
X25141Y140606D01*
X25266Y140569D01*
X25392Y140525D01*
X25522Y140469D01*
X25647Y140406D01*
X25773Y140332D01*
X25892Y140247D01*
X26006Y140147D01*
X26010Y140144D01*
X26021Y140132D01*
X26040Y140114D01*
X26062Y140088D01*
X26091Y140055D01*
X26125Y140010D01*
X26162Y139962D01*
X26202Y139907D01*
X26243Y139844D01*
X26287Y139773D01*
X26332Y139696D01*
X26376Y139614D01*
X26417Y139522D01*
X26458Y139426D01*
X26498Y139318D01*
X26532Y139207D01*
X25507Y138963D01*
Y138967D01*
X25503Y138982D01*
X25496Y139000D01*
X25488Y139030D01*
X25477Y139063D01*
X25462Y139100D01*
X25444Y139145D01*
X25425Y139189D01*
X25374Y139289D01*
X25340Y139341D01*
X25307Y139392D01*
X25270Y139444D01*
X25226Y139496D01*
X25177Y139544D01*
X25126Y139588D01*
X25122Y139592D01*
X25115Y139600D01*
X25096Y139611D01*
X25074Y139626D01*
X25048Y139644D01*
X25015Y139663D01*
X24974Y139685D01*
X24933Y139707D01*
X24882Y139725D01*
X24830Y139748D01*
X24770Y139766D01*
X24711Y139785D01*
X24645Y139799D01*
X24574Y139811D01*
X24504Y139818D01*
X24426Y139822D01*
X24400D01*
X24371Y139818D01*
X24334Y139814D01*
X24286Y139811D01*
X24230Y139799D01*
X24167Y139788D01*
X24101Y139770D01*
X24027Y139748D01*
X23953Y139722D01*
X23875Y139688D01*
X23797Y139648D01*
X23723Y139600D01*
X23646Y139548D01*
X23575Y139485D01*
X23505Y139411D01*
X23501Y139407D01*
X23490Y139392D01*
X23472Y139366D01*
X23450Y139333D01*
X23424Y139289D01*
X23394Y139233D01*
X23361Y139170D01*
X23331Y139093D01*
X23298Y139008D01*
X23265Y138908D01*
X23235Y138800D01*
X23209Y138682D01*
X23187Y138549D01*
X23168Y138408D01*
X23157Y138253D01*
X23154Y138086D01*
Y138083D01*
Y138075D01*
Y138060D01*
Y138046D01*
Y138020D01*
X23157Y137994D01*
Y137964D01*
X23161Y137927D01*
X23165Y137849D01*
X23172Y137757D01*
X23183Y137657D01*
X23198Y137550D01*
X23216Y137439D01*
X23239Y137324D01*
X23268Y137209D01*
X23302Y137095D01*
X23339Y136987D01*
X23387Y136884D01*
X23438Y136791D01*
X23501Y136706D01*
X23505Y136703D01*
X23516Y136688D01*
X23538Y136669D01*
X23564Y136643D01*
X23598Y136610D01*
X23642Y136577D01*
X23690Y136540D01*
X23746Y136503D01*
X23809Y136462D01*
X23875Y136425D01*
X23949Y136392D01*
X24031Y136358D01*
X24116Y136332D01*
X24208Y136314D01*
X24304Y136299D01*
X24408Y136295D01*
X24449D01*
X24478Y136299D01*
X24511Y136303D01*
X24552Y136310D01*
X24600Y136318D01*
X24652Y136329D01*
X24704Y136340D01*
X24759Y136358D01*
X24819Y136381D01*
X24878Y136407D01*
X24941Y136436D01*
X25000Y136469D01*
X25059Y136510D01*
X25115Y136555D01*
X25118Y136558D01*
X25129Y136566D01*
X25144Y136584D01*
X25163Y136606D01*
X25189Y136632D01*
X25218Y136669D01*
X25248Y136710D01*
X25281Y136758D01*
X25314Y136810D01*
X25351Y136873D01*
X25388Y136939D01*
X25422Y137013D01*
X25455Y137098D01*
X25488Y137183D01*
X25518Y137280D01*
X25544Y137383D01*
X26546Y137065D01*
Y137061D01*
X26543Y137054D01*
X26539Y137043D01*
X26535Y137028D01*
X26528Y137010D01*
X26521Y136984D01*
X26502Y136928D01*
X26476Y136858D01*
X26443Y136776D01*
X26406Y136688D01*
X26362Y136595D01*
X26313Y136495D01*
X26258Y136392D01*
X26195Y136288D01*
X26125Y136185D01*
X26047Y136085D01*
X25966Y135988D01*
X25873Y135900D01*
X25777Y135818D01*
X25769Y135814D01*
X25751Y135800D01*
X25721Y135781D01*
X25681Y135755D01*
X25629Y135726D01*
X25566Y135689D01*
X25492Y135652D01*
X25407Y135615D01*
X25314Y135578D01*
X25211Y135541D01*
X25100Y135507D01*
X24978Y135474D01*
X24852Y135448D01*
X24715Y135430D01*
X24571Y135415D01*
X24419Y135411D01*
X24375D01*
X24349Y135415D01*
X24319D01*
X24286Y135419D01*
X24249Y135422D01*
X24208Y135426D01*
X24164Y135433D01*
X24060Y135448D01*
X23949Y135470D01*
X23827Y135500D01*
X23697Y135533D01*
X23561Y135581D01*
X23424Y135637D01*
X23279Y135704D01*
X23143Y135785D01*
X23002Y135877D01*
X22935Y135929D01*
X22869Y135985D01*
X22806Y136044D01*
X22743Y136107D01*
Y136110D01*
X22736Y136114D01*
X22728Y136125D01*
X22713Y136140D01*
X22698Y136159D01*
X22684Y136181D01*
X22661Y136207D01*
X22639Y136236D01*
X22617Y136270D01*
X22591Y136307D01*
X22565Y136347D01*
X22536Y136392D01*
X22477Y136492D01*
X22417Y136606D01*
X22354Y136736D01*
X22295Y136876D01*
X22240Y137036D01*
X22192Y137206D01*
X22147Y137387D01*
X22118Y137583D01*
X22095Y137790D01*
X22092Y137901D01*
X22088Y138012D01*
Y138016D01*
Y138027D01*
Y138046D01*
Y138068D01*
X22092Y138097D01*
Y138134D01*
X22095Y138175D01*
X22099Y138223D01*
X22103Y138275D01*
X22106Y138330D01*
X22114Y138390D01*
X22121Y138453D01*
X22143Y138590D01*
X22169Y138737D01*
X22206Y138897D01*
X22247Y139059D01*
X22303Y139222D01*
X22366Y139389D01*
X22443Y139551D01*
X22528Y139707D01*
X22632Y139859D01*
X22687Y139929D01*
X22747Y139996D01*
X22750Y139999D01*
X22754Y140003D01*
X22765Y140014D01*
X22776Y140025D01*
X22813Y140062D01*
X22865Y140106D01*
X22932Y140162D01*
X23013Y140221D01*
X23106Y140284D01*
X23209Y140351D01*
X23327Y140417D01*
X23461Y140480D01*
X23601Y140543D01*
X23757Y140595D01*
X23923Y140639D01*
X24097Y140676D01*
X24286Y140699D01*
X24382Y140702D01*
X24482Y140706D01*
X24523D01*
X24545Y140702D01*
D02*
G37*
G36*
X32559Y139840D02*
X32555Y139836D01*
X32541Y139822D01*
X32518Y139796D01*
X32489Y139762D01*
X32448Y139722D01*
X32404Y139670D01*
X32352Y139611D01*
X32296Y139540D01*
X32233Y139459D01*
X32167Y139374D01*
X32100Y139278D01*
X32026Y139170D01*
X31949Y139056D01*
X31871Y138934D01*
X31793Y138804D01*
X31712Y138663D01*
Y138660D01*
X31708Y138656D01*
X31701Y138645D01*
X31693Y138630D01*
X31682Y138612D01*
X31671Y138586D01*
X31656Y138560D01*
X31641Y138530D01*
X31604Y138460D01*
X31564Y138375D01*
X31519Y138279D01*
X31468Y138171D01*
X31416Y138057D01*
X31364Y137931D01*
X31308Y137794D01*
X31253Y137653D01*
X31201Y137505D01*
X31149Y137354D01*
X31101Y137195D01*
X31057Y137036D01*
Y137032D01*
X31053Y137024D01*
Y137013D01*
X31046Y136998D01*
X31042Y136976D01*
X31038Y136950D01*
X31031Y136925D01*
X31023Y136891D01*
X31005Y136817D01*
X30986Y136728D01*
X30968Y136628D01*
X30946Y136521D01*
X30927Y136407D01*
X30905Y136284D01*
X30887Y136155D01*
X30872Y136025D01*
X30857Y135892D01*
X30846Y135759D01*
X30842Y135629D01*
X30839Y135500D01*
X29891D01*
Y135504D01*
Y135511D01*
Y135526D01*
X29895Y135548D01*
Y135574D01*
Y135604D01*
X29899Y135641D01*
X29902Y135685D01*
X29906Y135729D01*
X29910Y135781D01*
X29913Y135837D01*
X29921Y135896D01*
X29928Y135959D01*
X29936Y136025D01*
X29954Y136170D01*
X29980Y136325D01*
X30006Y136495D01*
X30043Y136673D01*
X30084Y136862D01*
X30136Y137054D01*
X30191Y137254D01*
X30254Y137457D01*
X30328Y137664D01*
Y137668D01*
X30332Y137676D01*
X30339Y137694D01*
X30346Y137713D01*
X30358Y137742D01*
X30372Y137772D01*
X30387Y137809D01*
X30402Y137849D01*
X30424Y137898D01*
X30446Y137949D01*
X30468Y138001D01*
X30494Y138060D01*
X30554Y138186D01*
X30620Y138327D01*
X30698Y138475D01*
X30779Y138634D01*
X30872Y138797D01*
X30968Y138967D01*
X31075Y139137D01*
X31186Y139307D01*
X31308Y139478D01*
X31434Y139644D01*
X29203D01*
Y140554D01*
X32559D01*
Y139840D01*
D02*
G37*
G36*
X28408Y135500D02*
X27427D01*
Y136480D01*
X28408D01*
Y135500D01*
D02*
G37*
G36*
X19383Y140617D02*
X19468D01*
X19561Y140613D01*
X19661Y140610D01*
X19868Y140602D01*
X19972Y140595D01*
X20072Y140587D01*
X20164Y140580D01*
X20249Y140569D01*
X20323Y140558D01*
X20353Y140550D01*
X20382Y140543D01*
X20386D01*
X20401Y140536D01*
X20427Y140528D01*
X20456Y140521D01*
X20493Y140506D01*
X20538Y140488D01*
X20586Y140465D01*
X20641Y140436D01*
X20697Y140406D01*
X20756Y140369D01*
X20815Y140329D01*
X20878Y140284D01*
X20941Y140232D01*
X21004Y140173D01*
X21063Y140110D01*
X21119Y140040D01*
X21122Y140036D01*
X21133Y140021D01*
X21148Y139999D01*
X21167Y139970D01*
X21189Y139933D01*
X21215Y139884D01*
X21241Y139833D01*
X21270Y139770D01*
X21296Y139703D01*
X21322Y139629D01*
X21348Y139548D01*
X21370Y139459D01*
X21392Y139363D01*
X21407Y139263D01*
X21415Y139156D01*
X21418Y139045D01*
Y139041D01*
Y139022D01*
Y139000D01*
X21415Y138967D01*
Y138926D01*
X21411Y138878D01*
X21404Y138826D01*
X21396Y138767D01*
X21389Y138708D01*
X21378Y138641D01*
X21344Y138508D01*
X21304Y138375D01*
X21274Y138312D01*
X21244Y138249D01*
X21241Y138245D01*
X21237Y138234D01*
X21226Y138219D01*
X21215Y138197D01*
X21196Y138171D01*
X21178Y138138D01*
X21126Y138068D01*
X21063Y137986D01*
X20989Y137901D01*
X20904Y137820D01*
X20811Y137746D01*
X20808Y137742D01*
X20800Y137739D01*
X20786Y137727D01*
X20767Y137716D01*
X20741Y137701D01*
X20715Y137683D01*
X20682Y137664D01*
X20645Y137646D01*
X20564Y137605D01*
X20475Y137565D01*
X20379Y137528D01*
X20275Y137502D01*
X20271D01*
X20256Y137498D01*
X20238Y137494D01*
X20205Y137491D01*
X20168Y137487D01*
X20120Y137479D01*
X20068Y137472D01*
X20001Y137468D01*
X19931Y137461D01*
X19853Y137454D01*
X19764Y137446D01*
X19668Y137443D01*
X19565Y137439D01*
X19454Y137435D01*
X19331Y137431D01*
X18532D01*
Y135500D01*
X17500D01*
Y140621D01*
X19306D01*
X19383Y140617D01*
D02*
G37*
G36*
X30599Y200636D02*
X30647Y200632D01*
X30709Y200624D01*
X30780Y200613D01*
X30858Y200602D01*
X30943Y200580D01*
X31035Y200558D01*
X31128Y200528D01*
X31224Y200488D01*
X31320Y200443D01*
X31416Y200391D01*
X31512Y200328D01*
X31601Y200258D01*
X31686Y200177D01*
X31690Y200173D01*
X31701Y200158D01*
X31720Y200140D01*
X31742Y200110D01*
X31771Y200073D01*
X31801Y200032D01*
X31834Y199984D01*
X31868Y199929D01*
X31901Y199870D01*
X31934Y199803D01*
X31964Y199733D01*
X31993Y199659D01*
X32016Y199581D01*
X32034Y199500D01*
X32045Y199415D01*
X32049Y199326D01*
Y199318D01*
Y199296D01*
X32045Y199263D01*
X32038Y199215D01*
X32027Y199156D01*
X32008Y199093D01*
X31986Y199019D01*
X31956Y198937D01*
X31916Y198856D01*
X31868Y198767D01*
X31808Y198678D01*
X31738Y198586D01*
X31653Y198497D01*
X31605Y198453D01*
X31553Y198412D01*
X31498Y198368D01*
X31438Y198327D01*
X31376Y198286D01*
X31309Y198249D01*
X31313D01*
X31327Y198245D01*
X31350Y198238D01*
X31383Y198231D01*
X31420Y198220D01*
X31461Y198201D01*
X31509Y198182D01*
X31561Y198160D01*
X31616Y198134D01*
X31675Y198105D01*
X31734Y198072D01*
X31790Y198031D01*
X31849Y197990D01*
X31905Y197938D01*
X31960Y197887D01*
X32012Y197827D01*
X32016Y197824D01*
X32023Y197812D01*
X32038Y197794D01*
X32053Y197768D01*
X32071Y197739D01*
X32093Y197698D01*
X32119Y197653D01*
X32145Y197605D01*
X32167Y197550D01*
X32193Y197491D01*
X32215Y197424D01*
X32234Y197354D01*
X32249Y197280D01*
X32263Y197202D01*
X32271Y197121D01*
X32275Y197036D01*
Y197028D01*
Y197006D01*
X32271Y196969D01*
X32267Y196921D01*
X32260Y196865D01*
X32249Y196795D01*
X32234Y196721D01*
X32212Y196640D01*
X32186Y196551D01*
X32153Y196458D01*
X32112Y196362D01*
X32067Y196266D01*
X32008Y196166D01*
X31942Y196070D01*
X31868Y195977D01*
X31779Y195885D01*
X31771Y195881D01*
X31757Y195866D01*
X31727Y195840D01*
X31690Y195811D01*
X31642Y195774D01*
X31586Y195737D01*
X31516Y195692D01*
X31442Y195648D01*
X31357Y195604D01*
X31264Y195563D01*
X31165Y195522D01*
X31054Y195485D01*
X30939Y195456D01*
X30817Y195433D01*
X30687Y195415D01*
X30554Y195411D01*
X30525D01*
X30487Y195415D01*
X30439Y195419D01*
X30380Y195422D01*
X30310Y195433D01*
X30236Y195445D01*
X30151Y195463D01*
X30062Y195482D01*
X29969Y195507D01*
X29873Y195541D01*
X29777Y195581D01*
X29681Y195626D01*
X29585Y195678D01*
X29492Y195740D01*
X29403Y195811D01*
X29400Y195815D01*
X29385Y195829D01*
X29359Y195852D01*
X29329Y195885D01*
X29296Y195922D01*
X29255Y195970D01*
X29211Y196029D01*
X29167Y196092D01*
X29118Y196162D01*
X29074Y196240D01*
X29030Y196329D01*
X28985Y196421D01*
X28948Y196518D01*
X28919Y196625D01*
X28893Y196736D01*
X28874Y196854D01*
X29825Y196973D01*
Y196969D01*
X29829Y196958D01*
Y196939D01*
X29836Y196913D01*
X29840Y196880D01*
X29851Y196847D01*
X29858Y196806D01*
X29873Y196765D01*
X29903Y196677D01*
X29947Y196584D01*
X29999Y196492D01*
X30032Y196451D01*
X30066Y196414D01*
X30069Y196410D01*
X30077Y196406D01*
X30088Y196395D01*
X30103Y196384D01*
X30121Y196370D01*
X30143Y196355D01*
X30203Y196321D01*
X30273Y196284D01*
X30354Y196255D01*
X30447Y196233D01*
X30495Y196229D01*
X30547Y196225D01*
X30576D01*
X30599Y196229D01*
X30624Y196233D01*
X30654Y196236D01*
X30724Y196255D01*
X30806Y196281D01*
X30846Y196299D01*
X30891Y196321D01*
X30935Y196347D01*
X30976Y196381D01*
X31017Y196414D01*
X31057Y196455D01*
X31061Y196458D01*
X31065Y196466D01*
X31076Y196477D01*
X31091Y196495D01*
X31105Y196521D01*
X31124Y196547D01*
X31142Y196580D01*
X31165Y196617D01*
X31183Y196662D01*
X31202Y196706D01*
X31220Y196758D01*
X31235Y196813D01*
X31250Y196873D01*
X31261Y196936D01*
X31264Y197006D01*
X31268Y197076D01*
Y197080D01*
Y197091D01*
Y197113D01*
X31264Y197139D01*
X31261Y197169D01*
X31257Y197206D01*
X31253Y197246D01*
X31242Y197287D01*
X31220Y197383D01*
X31183Y197479D01*
X31161Y197528D01*
X31135Y197576D01*
X31105Y197624D01*
X31068Y197664D01*
X31065Y197668D01*
X31061Y197676D01*
X31050Y197683D01*
X31031Y197698D01*
X31013Y197716D01*
X30991Y197735D01*
X30931Y197775D01*
X30861Y197812D01*
X30780Y197850D01*
X30735Y197864D01*
X30687Y197872D01*
X30635Y197879D01*
X30584Y197883D01*
X30550D01*
X30532Y197879D01*
X30510D01*
X30458Y197875D01*
X30391Y197864D01*
X30314Y197853D01*
X30228Y197835D01*
X30136Y197809D01*
X30243Y198608D01*
X30310D01*
X30343Y198612D01*
X30380Y198615D01*
X30425Y198619D01*
X30469Y198626D01*
X30569Y198645D01*
X30669Y198675D01*
X30721Y198697D01*
X30769Y198719D01*
X30813Y198745D01*
X30854Y198778D01*
X30858Y198782D01*
X30861Y198786D01*
X30872Y198797D01*
X30887Y198811D01*
X30902Y198830D01*
X30920Y198852D01*
X30939Y198878D01*
X30961Y198908D01*
X30998Y198978D01*
X31031Y199063D01*
X31046Y199108D01*
X31057Y199159D01*
X31061Y199211D01*
X31065Y199267D01*
Y199270D01*
Y199278D01*
Y199293D01*
X31061Y199311D01*
Y199333D01*
X31057Y199355D01*
X31046Y199415D01*
X31028Y199481D01*
X30998Y199548D01*
X30961Y199614D01*
X30909Y199677D01*
X30902Y199685D01*
X30880Y199703D01*
X30846Y199725D01*
X30798Y199755D01*
X30739Y199785D01*
X30669Y199807D01*
X30591Y199825D01*
X30499Y199833D01*
X30473D01*
X30458Y199829D01*
X30436D01*
X30410Y199825D01*
X30351Y199811D01*
X30284Y199788D01*
X30210Y199759D01*
X30136Y199714D01*
X30099Y199685D01*
X30066Y199655D01*
X30062Y199651D01*
X30058Y199648D01*
X30051Y199637D01*
X30036Y199622D01*
X30025Y199603D01*
X30007Y199581D01*
X29992Y199555D01*
X29973Y199526D01*
X29955Y199492D01*
X29936Y199455D01*
X29918Y199415D01*
X29899Y199366D01*
X29884Y199318D01*
X29870Y199267D01*
X29858Y199207D01*
X29851Y199148D01*
X28948Y199300D01*
Y199304D01*
X28952Y199322D01*
X28959Y199344D01*
X28967Y199378D01*
X28974Y199418D01*
X28989Y199463D01*
X29000Y199514D01*
X29019Y199566D01*
X29059Y199685D01*
X29107Y199811D01*
X29163Y199933D01*
X29196Y199988D01*
X29230Y200044D01*
X29233Y200047D01*
X29237Y200055D01*
X29248Y200069D01*
X29267Y200088D01*
X29285Y200114D01*
X29307Y200140D01*
X29337Y200169D01*
X29370Y200203D01*
X29403Y200236D01*
X29444Y200273D01*
X29489Y200310D01*
X29537Y200343D01*
X29588Y200380D01*
X29640Y200417D01*
X29762Y200480D01*
X29766Y200484D01*
X29777Y200488D01*
X29796Y200495D01*
X29822Y200506D01*
X29855Y200517D01*
X29892Y200532D01*
X29936Y200547D01*
X29984Y200562D01*
X30040Y200576D01*
X30099Y200588D01*
X30162Y200602D01*
X30228Y200613D01*
X30373Y200632D01*
X30450Y200639D01*
X30562D01*
X30599Y200636D01*
D02*
G37*
G36*
X28112Y195500D02*
X27132D01*
Y196481D01*
X28112D01*
Y195500D01*
D02*
G37*
G36*
X26284Y199755D02*
X23805D01*
Y198541D01*
X25944D01*
Y197676D01*
X23805D01*
Y195500D01*
X22773D01*
Y200621D01*
X26284D01*
Y199755D01*
D02*
G37*
G36*
X19883Y200617D02*
X19968D01*
X20061Y200613D01*
X20161Y200610D01*
X20368Y200602D01*
X20472Y200595D01*
X20572Y200588D01*
X20664Y200580D01*
X20749Y200569D01*
X20823Y200558D01*
X20853Y200551D01*
X20882Y200543D01*
X20886D01*
X20901Y200536D01*
X20927Y200528D01*
X20956Y200521D01*
X20993Y200506D01*
X21038Y200488D01*
X21086Y200465D01*
X21141Y200436D01*
X21197Y200406D01*
X21256Y200369D01*
X21315Y200328D01*
X21378Y200284D01*
X21441Y200232D01*
X21504Y200173D01*
X21563Y200110D01*
X21619Y200040D01*
X21622Y200036D01*
X21633Y200021D01*
X21648Y199999D01*
X21667Y199970D01*
X21689Y199933D01*
X21715Y199884D01*
X21741Y199833D01*
X21770Y199770D01*
X21796Y199703D01*
X21822Y199629D01*
X21848Y199548D01*
X21870Y199459D01*
X21892Y199363D01*
X21907Y199263D01*
X21915Y199156D01*
X21918Y199045D01*
Y199041D01*
Y199022D01*
Y199000D01*
X21915Y198967D01*
Y198926D01*
X21911Y198878D01*
X21903Y198826D01*
X21896Y198767D01*
X21889Y198708D01*
X21878Y198641D01*
X21844Y198508D01*
X21804Y198375D01*
X21774Y198312D01*
X21744Y198249D01*
X21741Y198245D01*
X21737Y198234D01*
X21726Y198220D01*
X21715Y198197D01*
X21696Y198171D01*
X21678Y198138D01*
X21626Y198068D01*
X21563Y197986D01*
X21489Y197901D01*
X21404Y197820D01*
X21312Y197746D01*
X21308Y197742D01*
X21300Y197739D01*
X21286Y197727D01*
X21267Y197716D01*
X21241Y197702D01*
X21215Y197683D01*
X21182Y197664D01*
X21145Y197646D01*
X21064Y197605D01*
X20975Y197565D01*
X20879Y197528D01*
X20775Y197502D01*
X20771D01*
X20756Y197498D01*
X20738Y197494D01*
X20705Y197491D01*
X20668Y197487D01*
X20620Y197479D01*
X20568Y197472D01*
X20501Y197468D01*
X20431Y197461D01*
X20353Y197454D01*
X20264Y197446D01*
X20168Y197442D01*
X20065Y197439D01*
X19954Y197435D01*
X19831Y197431D01*
X19032D01*
Y195500D01*
X18000D01*
Y200621D01*
X19806D01*
X19883Y200617D01*
D02*
G37*
G36*
X56144Y156136D02*
X56185D01*
X56236Y156128D01*
X56292Y156121D01*
X56358Y156113D01*
X56425Y156099D01*
X56503Y156080D01*
X56581Y156058D01*
X56658Y156032D01*
X56740Y155999D01*
X56821Y155962D01*
X56899Y155917D01*
X56976Y155869D01*
X57050Y155810D01*
X57054Y155806D01*
X57069Y155795D01*
X57087Y155777D01*
X57113Y155751D01*
X57143Y155718D01*
X57176Y155673D01*
X57217Y155625D01*
X57258Y155570D01*
X57298Y155507D01*
X57339Y155436D01*
X57380Y155359D01*
X57420Y155273D01*
X57457Y155185D01*
X57491Y155085D01*
X57520Y154978D01*
X57543Y154867D01*
X56592Y154763D01*
Y154767D01*
Y154774D01*
X56588Y154789D01*
X56584Y154811D01*
X56577Y154833D01*
X56573Y154863D01*
X56555Y154926D01*
X56529Y154996D01*
X56499Y155066D01*
X56458Y155133D01*
X56407Y155192D01*
X56399Y155200D01*
X56381Y155214D01*
X56347Y155236D01*
X56307Y155262D01*
X56251Y155288D01*
X56185Y155310D01*
X56111Y155325D01*
X56025Y155333D01*
X55996D01*
X55974Y155329D01*
X55948Y155325D01*
X55914Y155318D01*
X55881Y155310D01*
X55844Y155299D01*
X55804Y155285D01*
X55759Y155262D01*
X55718Y155240D01*
X55674Y155214D01*
X55630Y155181D01*
X55585Y155144D01*
X55541Y155100D01*
X55500Y155052D01*
X55496Y155048D01*
X55493Y155037D01*
X55482Y155022D01*
X55467Y154996D01*
X55448Y154959D01*
X55430Y154918D01*
X55408Y154867D01*
X55385Y154804D01*
X55363Y154730D01*
X55341Y154645D01*
X55319Y154552D01*
X55297Y154445D01*
X55274Y154326D01*
X55256Y154193D01*
X55241Y154049D01*
X55230Y153890D01*
X55234Y153893D01*
X55248Y153908D01*
X55267Y153930D01*
X55297Y153956D01*
X55330Y153990D01*
X55374Y154027D01*
X55426Y154067D01*
X55482Y154108D01*
X55545Y154149D01*
X55615Y154189D01*
X55689Y154226D01*
X55770Y154260D01*
X55855Y154286D01*
X55944Y154308D01*
X56040Y154323D01*
X56140Y154326D01*
X56166D01*
X56199Y154323D01*
X56244Y154319D01*
X56296Y154312D01*
X56358Y154300D01*
X56429Y154286D01*
X56503Y154267D01*
X56584Y154241D01*
X56669Y154212D01*
X56758Y154175D01*
X56847Y154127D01*
X56936Y154075D01*
X57025Y154012D01*
X57110Y153938D01*
X57195Y153856D01*
X57198Y153853D01*
X57213Y153834D01*
X57235Y153808D01*
X57265Y153771D01*
X57298Y153723D01*
X57335Y153668D01*
X57372Y153605D01*
X57417Y153531D01*
X57457Y153446D01*
X57494Y153353D01*
X57531Y153253D01*
X57565Y153150D01*
X57594Y153031D01*
X57617Y152913D01*
X57631Y152783D01*
X57635Y152647D01*
Y152643D01*
Y152639D01*
Y152628D01*
Y152613D01*
Y152595D01*
X57631Y152573D01*
X57628Y152517D01*
X57620Y152450D01*
X57609Y152373D01*
X57598Y152288D01*
X57576Y152195D01*
X57554Y152095D01*
X57524Y151992D01*
X57483Y151888D01*
X57439Y151781D01*
X57387Y151677D01*
X57324Y151574D01*
X57254Y151477D01*
X57173Y151385D01*
X57169Y151381D01*
X57150Y151366D01*
X57124Y151340D01*
X57087Y151311D01*
X57043Y151274D01*
X56988Y151237D01*
X56925Y151192D01*
X56851Y151148D01*
X56769Y151104D01*
X56680Y151063D01*
X56584Y151022D01*
X56477Y150985D01*
X56366Y150956D01*
X56248Y150933D01*
X56122Y150915D01*
X55989Y150911D01*
X55955D01*
X55937Y150915D01*
X55914D01*
X55859Y150922D01*
X55792Y150930D01*
X55715Y150944D01*
X55630Y150963D01*
X55537Y150985D01*
X55437Y151019D01*
X55337Y151059D01*
X55230Y151107D01*
X55123Y151163D01*
X55015Y151233D01*
X54912Y151314D01*
X54808Y151407D01*
X54712Y151511D01*
X54708Y151518D01*
X54690Y151540D01*
X54679Y151555D01*
X54668Y151577D01*
X54653Y151599D01*
X54634Y151625D01*
X54616Y151659D01*
X54597Y151692D01*
X54575Y151733D01*
X54557Y151773D01*
X54534Y151821D01*
X54512Y151869D01*
X54486Y151925D01*
X54464Y151984D01*
X54442Y152047D01*
X54420Y152114D01*
X54394Y152184D01*
X54372Y152258D01*
X54353Y152336D01*
X54331Y152421D01*
X54312Y152506D01*
X54294Y152598D01*
X54275Y152695D01*
X54261Y152795D01*
X54250Y152898D01*
X54238Y153009D01*
X54227Y153120D01*
X54224Y153238D01*
X54216Y153361D01*
Y153486D01*
Y153490D01*
Y153501D01*
Y153523D01*
Y153549D01*
X54220Y153583D01*
Y153620D01*
Y153664D01*
X54224Y153716D01*
X54227Y153771D01*
X54231Y153831D01*
X54238Y153897D01*
X54242Y153964D01*
X54261Y154112D01*
X54283Y154267D01*
X54309Y154430D01*
X54342Y154600D01*
X54386Y154767D01*
X54435Y154937D01*
X54494Y155096D01*
X54564Y155248D01*
X54601Y155322D01*
X54642Y155388D01*
X54686Y155455D01*
X54734Y155514D01*
X54742Y155521D01*
X54760Y155540D01*
X54790Y155573D01*
X54830Y155610D01*
X54882Y155658D01*
X54945Y155714D01*
X55015Y155769D01*
X55101Y155828D01*
X55193Y155884D01*
X55293Y155943D01*
X55404Y155995D01*
X55526Y156043D01*
X55655Y156080D01*
X55792Y156113D01*
X55937Y156132D01*
X56088Y156139D01*
X56114D01*
X56144Y156136D01*
D02*
G37*
G36*
X51526Y156117D02*
X51589D01*
X51660Y156113D01*
X51807Y156110D01*
X51955Y156099D01*
X52030Y156095D01*
X52100Y156088D01*
X52163Y156076D01*
X52222Y156069D01*
X52226D01*
X52237Y156065D01*
X52251Y156062D01*
X52274Y156058D01*
X52300Y156051D01*
X52329Y156043D01*
X52363Y156036D01*
X52403Y156025D01*
X52485Y155995D01*
X52573Y155958D01*
X52666Y155910D01*
X52758Y155854D01*
X52762D01*
X52770Y155847D01*
X52781Y155840D01*
X52799Y155825D01*
X52840Y155791D01*
X52895Y155743D01*
X52958Y155681D01*
X53025Y155606D01*
X53088Y155525D01*
X53151Y155429D01*
X53154Y155425D01*
X53158Y155418D01*
X53165Y155403D01*
X53176Y155381D01*
X53188Y155359D01*
X53202Y155329D01*
X53217Y155292D01*
X53232Y155255D01*
X53247Y155211D01*
X53258Y155166D01*
X53284Y155063D01*
X53302Y154952D01*
X53310Y154892D01*
Y154830D01*
Y154826D01*
Y154815D01*
Y154796D01*
X53306Y154770D01*
X53302Y154737D01*
X53299Y154700D01*
X53295Y154659D01*
X53284Y154611D01*
X53262Y154511D01*
X53228Y154400D01*
X53206Y154345D01*
X53180Y154286D01*
X53147Y154226D01*
X53114Y154171D01*
X53110Y154167D01*
X53106Y154156D01*
X53095Y154141D01*
X53080Y154123D01*
X53058Y154097D01*
X53036Y154067D01*
X53006Y154038D01*
X52977Y154001D01*
X52940Y153967D01*
X52903Y153930D01*
X52814Y153853D01*
X52710Y153782D01*
X52592Y153719D01*
X52596D01*
X52614Y153712D01*
X52636Y153705D01*
X52670Y153694D01*
X52707Y153679D01*
X52751Y153660D01*
X52803Y153638D01*
X52858Y153612D01*
X52914Y153583D01*
X52973Y153549D01*
X53032Y153509D01*
X53091Y153468D01*
X53151Y153424D01*
X53206Y153372D01*
X53262Y153316D01*
X53310Y153257D01*
X53313Y153253D01*
X53321Y153242D01*
X53332Y153224D01*
X53350Y153198D01*
X53369Y153168D01*
X53391Y153131D01*
X53413Y153087D01*
X53435Y153039D01*
X53458Y152983D01*
X53484Y152924D01*
X53502Y152861D01*
X53521Y152791D01*
X53539Y152720D01*
X53550Y152643D01*
X53558Y152565D01*
X53561Y152484D01*
Y152480D01*
Y152469D01*
Y152450D01*
X53558Y152425D01*
Y152391D01*
X53554Y152358D01*
X53547Y152313D01*
X53543Y152269D01*
X53532Y152217D01*
X53521Y152165D01*
X53491Y152051D01*
X53454Y151929D01*
X53428Y151866D01*
X53399Y151803D01*
Y151799D01*
X53391Y151788D01*
X53380Y151770D01*
X53369Y151747D01*
X53354Y151722D01*
X53332Y151688D01*
X53284Y151614D01*
X53217Y151529D01*
X53143Y151440D01*
X53054Y151355D01*
X52955Y151274D01*
X52951Y151270D01*
X52943Y151266D01*
X52925Y151255D01*
X52903Y151244D01*
X52877Y151226D01*
X52843Y151211D01*
X52807Y151189D01*
X52762Y151170D01*
X52714Y151148D01*
X52662Y151129D01*
X52603Y151107D01*
X52544Y151089D01*
X52477Y151070D01*
X52407Y151056D01*
X52259Y151033D01*
X52248D01*
X52229Y151030D01*
X52203D01*
X52170Y151026D01*
X52126Y151022D01*
X52074D01*
X52007Y151019D01*
X51930Y151015D01*
X51841Y151011D01*
X51741D01*
X51626Y151007D01*
X51563D01*
X51497Y151004D01*
X51349D01*
X51271Y151000D01*
X49273D01*
Y156121D01*
X51471D01*
X51526Y156117D01*
D02*
G37*
G36*
X46383D02*
X46468D01*
X46561Y156113D01*
X46661Y156110D01*
X46868Y156102D01*
X46972Y156095D01*
X47071Y156088D01*
X47164Y156080D01*
X47249Y156069D01*
X47323Y156058D01*
X47353Y156051D01*
X47382Y156043D01*
X47386D01*
X47401Y156036D01*
X47427Y156028D01*
X47456Y156021D01*
X47493Y156006D01*
X47538Y155988D01*
X47586Y155965D01*
X47641Y155936D01*
X47697Y155906D01*
X47756Y155869D01*
X47815Y155828D01*
X47878Y155784D01*
X47941Y155732D01*
X48004Y155673D01*
X48063Y155610D01*
X48119Y155540D01*
X48122Y155536D01*
X48133Y155521D01*
X48148Y155499D01*
X48167Y155470D01*
X48189Y155433D01*
X48215Y155385D01*
X48241Y155333D01*
X48270Y155270D01*
X48296Y155203D01*
X48322Y155129D01*
X48348Y155048D01*
X48370Y154959D01*
X48392Y154863D01*
X48407Y154763D01*
X48415Y154656D01*
X48418Y154545D01*
Y154541D01*
Y154522D01*
Y154500D01*
X48415Y154467D01*
Y154426D01*
X48411Y154378D01*
X48403Y154326D01*
X48396Y154267D01*
X48389Y154208D01*
X48378Y154141D01*
X48344Y154008D01*
X48304Y153875D01*
X48274Y153812D01*
X48244Y153749D01*
X48241Y153745D01*
X48237Y153734D01*
X48226Y153719D01*
X48215Y153697D01*
X48196Y153671D01*
X48178Y153638D01*
X48126Y153568D01*
X48063Y153486D01*
X47989Y153401D01*
X47904Y153320D01*
X47811Y153246D01*
X47808Y153242D01*
X47800Y153238D01*
X47786Y153227D01*
X47767Y153216D01*
X47741Y153201D01*
X47715Y153183D01*
X47682Y153165D01*
X47645Y153146D01*
X47564Y153105D01*
X47475Y153065D01*
X47379Y153028D01*
X47275Y153002D01*
X47271D01*
X47256Y152998D01*
X47238Y152994D01*
X47205Y152991D01*
X47168Y152987D01*
X47120Y152980D01*
X47068Y152972D01*
X47001Y152968D01*
X46931Y152961D01*
X46853Y152954D01*
X46764Y152946D01*
X46668Y152943D01*
X46565Y152939D01*
X46454Y152935D01*
X46332Y152931D01*
X45532D01*
Y151000D01*
X44500D01*
Y156121D01*
X46306D01*
X46383Y156117D01*
D02*
G37*
G36*
X57572Y164084D02*
X57568Y164081D01*
X57554Y164066D01*
X57531Y164040D01*
X57502Y164006D01*
X57461Y163966D01*
X57417Y163914D01*
X57365Y163855D01*
X57309Y163785D01*
X57247Y163703D01*
X57180Y163618D01*
X57113Y163522D01*
X57039Y163415D01*
X56962Y163300D01*
X56884Y163178D01*
X56806Y163048D01*
X56725Y162908D01*
Y162904D01*
X56721Y162900D01*
X56714Y162889D01*
X56706Y162874D01*
X56695Y162856D01*
X56684Y162830D01*
X56669Y162804D01*
X56655Y162774D01*
X56617Y162704D01*
X56577Y162619D01*
X56532Y162523D01*
X56481Y162416D01*
X56429Y162301D01*
X56377Y162175D01*
X56322Y162038D01*
X56266Y161898D01*
X56214Y161749D01*
X56162Y161598D01*
X56114Y161439D01*
X56070Y161280D01*
Y161276D01*
X56066Y161268D01*
Y161257D01*
X56059Y161243D01*
X56055Y161220D01*
X56051Y161195D01*
X56044Y161169D01*
X56037Y161135D01*
X56018Y161061D01*
X56000Y160972D01*
X55981Y160873D01*
X55959Y160765D01*
X55940Y160651D01*
X55918Y160529D01*
X55900Y160399D01*
X55885Y160269D01*
X55870Y160136D01*
X55859Y160003D01*
X55855Y159874D01*
X55852Y159744D01*
X54904D01*
Y159748D01*
Y159755D01*
Y159770D01*
X54908Y159792D01*
Y159818D01*
Y159848D01*
X54912Y159885D01*
X54915Y159929D01*
X54919Y159974D01*
X54923Y160025D01*
X54927Y160081D01*
X54934Y160140D01*
X54941Y160203D01*
X54949Y160269D01*
X54967Y160414D01*
X54993Y160569D01*
X55019Y160739D01*
X55056Y160917D01*
X55097Y161106D01*
X55149Y161298D01*
X55204Y161498D01*
X55267Y161701D01*
X55341Y161909D01*
Y161912D01*
X55345Y161920D01*
X55352Y161938D01*
X55360Y161957D01*
X55371Y161986D01*
X55385Y162016D01*
X55400Y162053D01*
X55415Y162094D01*
X55437Y162142D01*
X55459Y162194D01*
X55482Y162245D01*
X55507Y162304D01*
X55567Y162430D01*
X55633Y162571D01*
X55711Y162719D01*
X55792Y162878D01*
X55885Y163041D01*
X55981Y163211D01*
X56088Y163381D01*
X56199Y163551D01*
X56322Y163722D01*
X56447Y163888D01*
X54216D01*
Y164798D01*
X57572D01*
Y164084D01*
D02*
G37*
G36*
X51526Y164861D02*
X51589D01*
X51660Y164857D01*
X51807Y164854D01*
X51955Y164843D01*
X52030Y164839D01*
X52100Y164832D01*
X52163Y164821D01*
X52222Y164813D01*
X52226D01*
X52237Y164809D01*
X52251Y164806D01*
X52274Y164802D01*
X52300Y164795D01*
X52329Y164787D01*
X52363Y164780D01*
X52403Y164769D01*
X52485Y164739D01*
X52573Y164702D01*
X52666Y164654D01*
X52758Y164599D01*
X52762D01*
X52770Y164591D01*
X52781Y164584D01*
X52799Y164569D01*
X52840Y164536D01*
X52895Y164488D01*
X52958Y164425D01*
X53025Y164351D01*
X53088Y164269D01*
X53151Y164173D01*
X53154Y164169D01*
X53158Y164162D01*
X53165Y164147D01*
X53176Y164125D01*
X53188Y164103D01*
X53202Y164073D01*
X53217Y164036D01*
X53232Y163999D01*
X53247Y163955D01*
X53258Y163910D01*
X53284Y163807D01*
X53302Y163696D01*
X53310Y163637D01*
Y163574D01*
Y163570D01*
Y163559D01*
Y163540D01*
X53306Y163514D01*
X53302Y163481D01*
X53299Y163444D01*
X53295Y163403D01*
X53284Y163355D01*
X53262Y163255D01*
X53228Y163144D01*
X53206Y163089D01*
X53180Y163030D01*
X53147Y162970D01*
X53114Y162915D01*
X53110Y162911D01*
X53106Y162900D01*
X53095Y162885D01*
X53080Y162867D01*
X53058Y162841D01*
X53036Y162811D01*
X53006Y162782D01*
X52977Y162745D01*
X52940Y162712D01*
X52903Y162674D01*
X52814Y162597D01*
X52710Y162527D01*
X52592Y162464D01*
X52596D01*
X52614Y162456D01*
X52636Y162449D01*
X52670Y162438D01*
X52707Y162423D01*
X52751Y162404D01*
X52803Y162382D01*
X52858Y162356D01*
X52914Y162327D01*
X52973Y162293D01*
X53032Y162253D01*
X53091Y162212D01*
X53151Y162168D01*
X53206Y162116D01*
X53262Y162060D01*
X53310Y162001D01*
X53313Y161997D01*
X53321Y161986D01*
X53332Y161968D01*
X53350Y161942D01*
X53369Y161912D01*
X53391Y161875D01*
X53413Y161831D01*
X53435Y161783D01*
X53458Y161727D01*
X53484Y161668D01*
X53502Y161605D01*
X53521Y161535D01*
X53539Y161465D01*
X53550Y161387D01*
X53558Y161309D01*
X53561Y161228D01*
Y161224D01*
Y161213D01*
Y161195D01*
X53558Y161169D01*
Y161135D01*
X53554Y161102D01*
X53547Y161058D01*
X53543Y161013D01*
X53532Y160961D01*
X53521Y160910D01*
X53491Y160795D01*
X53454Y160673D01*
X53428Y160610D01*
X53399Y160547D01*
Y160543D01*
X53391Y160532D01*
X53380Y160514D01*
X53369Y160492D01*
X53354Y160466D01*
X53332Y160432D01*
X53284Y160358D01*
X53217Y160273D01*
X53143Y160184D01*
X53054Y160099D01*
X52955Y160018D01*
X52951Y160014D01*
X52943Y160011D01*
X52925Y159999D01*
X52903Y159988D01*
X52877Y159970D01*
X52843Y159955D01*
X52807Y159933D01*
X52762Y159914D01*
X52714Y159892D01*
X52662Y159874D01*
X52603Y159851D01*
X52544Y159833D01*
X52477Y159814D01*
X52407Y159800D01*
X52259Y159777D01*
X52248D01*
X52229Y159774D01*
X52203D01*
X52170Y159770D01*
X52126Y159766D01*
X52074D01*
X52007Y159763D01*
X51930Y159759D01*
X51841Y159755D01*
X51741D01*
X51626Y159751D01*
X51563D01*
X51497Y159748D01*
X51349D01*
X51271Y159744D01*
X49273D01*
Y164865D01*
X51471D01*
X51526Y164861D01*
D02*
G37*
G36*
X46383D02*
X46468D01*
X46561Y164857D01*
X46661Y164854D01*
X46868Y164846D01*
X46972Y164839D01*
X47071Y164832D01*
X47164Y164824D01*
X47249Y164813D01*
X47323Y164802D01*
X47353Y164795D01*
X47382Y164787D01*
X47386D01*
X47401Y164780D01*
X47427Y164772D01*
X47456Y164765D01*
X47493Y164750D01*
X47538Y164732D01*
X47586Y164709D01*
X47641Y164680D01*
X47697Y164650D01*
X47756Y164613D01*
X47815Y164573D01*
X47878Y164528D01*
X47941Y164476D01*
X48004Y164417D01*
X48063Y164354D01*
X48119Y164284D01*
X48122Y164280D01*
X48133Y164266D01*
X48148Y164243D01*
X48167Y164214D01*
X48189Y164177D01*
X48215Y164129D01*
X48241Y164077D01*
X48270Y164014D01*
X48296Y163947D01*
X48322Y163873D01*
X48348Y163792D01*
X48370Y163703D01*
X48392Y163607D01*
X48407Y163507D01*
X48415Y163400D01*
X48418Y163289D01*
Y163285D01*
Y163267D01*
Y163244D01*
X48415Y163211D01*
Y163170D01*
X48411Y163122D01*
X48403Y163070D01*
X48396Y163011D01*
X48389Y162952D01*
X48378Y162885D01*
X48344Y162752D01*
X48304Y162619D01*
X48274Y162556D01*
X48244Y162493D01*
X48241Y162489D01*
X48237Y162478D01*
X48226Y162464D01*
X48215Y162441D01*
X48196Y162416D01*
X48178Y162382D01*
X48126Y162312D01*
X48063Y162231D01*
X47989Y162145D01*
X47904Y162064D01*
X47811Y161990D01*
X47808Y161986D01*
X47800Y161983D01*
X47786Y161971D01*
X47767Y161960D01*
X47741Y161946D01*
X47715Y161927D01*
X47682Y161909D01*
X47645Y161890D01*
X47564Y161849D01*
X47475Y161809D01*
X47379Y161772D01*
X47275Y161746D01*
X47271D01*
X47256Y161742D01*
X47238Y161738D01*
X47205Y161735D01*
X47168Y161731D01*
X47120Y161724D01*
X47068Y161716D01*
X47001Y161713D01*
X46931Y161705D01*
X46853Y161698D01*
X46764Y161690D01*
X46668Y161687D01*
X46565Y161683D01*
X46454Y161679D01*
X46332Y161676D01*
X45532D01*
Y159744D01*
X44500D01*
Y164865D01*
X46306D01*
X46383Y164861D01*
D02*
G37*
%LPC*%
G36*
X24031Y119755D02*
X22924D01*
Y118456D01*
X23805D01*
X23864Y118460D01*
X24005D01*
X24082Y118464D01*
X24241Y118471D01*
X24319Y118475D01*
X24393Y118482D01*
X24460Y118490D01*
X24523Y118497D01*
X24574Y118504D01*
X24615Y118516D01*
X24619D01*
X24622Y118519D01*
X24645Y118527D01*
X24678Y118545D01*
X24722Y118567D01*
X24767Y118597D01*
X24815Y118634D01*
X24863Y118678D01*
X24904Y118734D01*
X24907Y118741D01*
X24922Y118763D01*
X24937Y118797D01*
X24959Y118841D01*
X24978Y118897D01*
X24996Y118963D01*
X25007Y119037D01*
X25011Y119119D01*
Y119122D01*
Y119130D01*
Y119144D01*
X25007Y119163D01*
Y119185D01*
X25004Y119207D01*
X24993Y119267D01*
X24978Y119333D01*
X24952Y119404D01*
X24918Y119470D01*
X24870Y119533D01*
Y119537D01*
X24863Y119540D01*
X24845Y119559D01*
X24815Y119585D01*
X24770Y119618D01*
X24715Y119651D01*
X24648Y119685D01*
X24571Y119714D01*
X24482Y119737D01*
X24467D01*
X24452Y119740D01*
X24434D01*
X24408Y119744D01*
X24378D01*
X24341Y119748D01*
X24241D01*
X24182Y119751D01*
X24112D01*
X24031Y119755D01*
D02*
G37*
G36*
X30975Y128105D02*
X30950D01*
X30927Y128101D01*
X30905Y128097D01*
X30876Y128094D01*
X30809Y128075D01*
X30731Y128049D01*
X30694Y128031D01*
X30654Y128009D01*
X30613Y127983D01*
X30572Y127953D01*
X30531Y127920D01*
X30494Y127879D01*
X30491Y127875D01*
X30487Y127868D01*
X30476Y127857D01*
X30465Y127838D01*
X30450Y127816D01*
X30435Y127787D01*
X30417Y127753D01*
X30398Y127713D01*
X30380Y127672D01*
X30361Y127620D01*
X30346Y127568D01*
X30332Y127509D01*
X30321Y127446D01*
X30309Y127376D01*
X30306Y127302D01*
X30302Y127224D01*
Y127220D01*
Y127202D01*
Y127180D01*
X30306Y127146D01*
X30309Y127106D01*
X30313Y127058D01*
X30321Y127006D01*
X30328Y126950D01*
X30354Y126832D01*
X30372Y126769D01*
X30395Y126710D01*
X30420Y126647D01*
X30450Y126592D01*
X30483Y126536D01*
X30520Y126484D01*
X30524Y126480D01*
X30531Y126473D01*
X30542Y126462D01*
X30557Y126444D01*
X30580Y126425D01*
X30605Y126403D01*
X30631Y126381D01*
X30665Y126355D01*
X30739Y126307D01*
X30824Y126266D01*
X30872Y126247D01*
X30920Y126236D01*
X30972Y126229D01*
X31023Y126225D01*
X31049D01*
X31068Y126229D01*
X31090Y126233D01*
X31120Y126236D01*
X31183Y126251D01*
X31253Y126277D01*
X31290Y126295D01*
X31327Y126314D01*
X31368Y126340D01*
X31405Y126366D01*
X31442Y126399D01*
X31475Y126436D01*
X31479Y126440D01*
X31482Y126447D01*
X31493Y126458D01*
X31504Y126477D01*
X31519Y126499D01*
X31534Y126529D01*
X31549Y126566D01*
X31567Y126603D01*
X31586Y126651D01*
X31601Y126702D01*
X31615Y126758D01*
X31630Y126821D01*
X31641Y126891D01*
X31653Y126965D01*
X31656Y127047D01*
X31660Y127135D01*
Y127143D01*
Y127158D01*
Y127183D01*
X31656Y127217D01*
X31653Y127258D01*
X31649Y127306D01*
X31645Y127361D01*
X31634Y127417D01*
X31612Y127535D01*
X31578Y127657D01*
X31556Y127716D01*
X31530Y127772D01*
X31497Y127824D01*
X31464Y127872D01*
X31460Y127875D01*
X31456Y127883D01*
X31445Y127894D01*
X31431Y127909D01*
X31408Y127927D01*
X31386Y127946D01*
X31360Y127968D01*
X31331Y127990D01*
X31260Y128031D01*
X31175Y128068D01*
X31131Y128083D01*
X31079Y128094D01*
X31031Y128101D01*
X30975Y128105D01*
D02*
G37*
G36*
X19220Y129755D02*
X18532D01*
Y128297D01*
X19195D01*
X19243Y128301D01*
X19298D01*
X19361Y128305D01*
X19424Y128308D01*
X19561Y128316D01*
X19694Y128331D01*
X19757Y128338D01*
X19816Y128349D01*
X19864Y128360D01*
X19909Y128375D01*
X19912D01*
X19920Y128379D01*
X19927Y128382D01*
X19942Y128390D01*
X19979Y128408D01*
X20027Y128438D01*
X20079Y128471D01*
X20134Y128516D01*
X20186Y128567D01*
X20234Y128627D01*
Y128630D01*
X20238Y128634D01*
X20245Y128645D01*
X20253Y128656D01*
X20271Y128693D01*
X20293Y128741D01*
X20316Y128800D01*
X20334Y128867D01*
X20349Y128945D01*
X20353Y129026D01*
Y129030D01*
Y129037D01*
Y129052D01*
X20349Y129074D01*
Y129096D01*
X20345Y129126D01*
X20331Y129189D01*
X20312Y129263D01*
X20282Y129341D01*
X20242Y129418D01*
X20216Y129455D01*
X20186Y129489D01*
Y129492D01*
X20179Y129496D01*
X20157Y129518D01*
X20123Y129548D01*
X20075Y129588D01*
X20012Y129625D01*
X19942Y129663D01*
X19861Y129696D01*
X19772Y129718D01*
X19764D01*
X19750Y129722D01*
X19735Y129725D01*
X19713D01*
X19683Y129729D01*
X19650Y129733D01*
X19609Y129736D01*
X19561Y129740D01*
X19509Y129744D01*
X19450Y129748D01*
X19380D01*
X19306Y129751D01*
X19220Y129755D01*
D02*
G37*
G36*
X51249Y187770D02*
X50305D01*
Y186586D01*
X51241D01*
X51304Y186590D01*
X51493D01*
X51552Y186593D01*
X51608D01*
X51660Y186597D01*
X51700D01*
X51733Y186601D01*
X51745D01*
X51759Y186604D01*
X51778Y186608D01*
X51800Y186612D01*
X51826Y186619D01*
X51885Y186638D01*
X51952Y186660D01*
X52018Y186693D01*
X52085Y186734D01*
X52148Y186786D01*
X52155Y186793D01*
X52174Y186811D01*
X52196Y186848D01*
X52226Y186893D01*
X52255Y186948D01*
X52277Y187019D01*
X52296Y187096D01*
X52303Y187185D01*
Y187189D01*
Y187196D01*
Y187207D01*
X52300Y187226D01*
X52296Y187267D01*
X52289Y187322D01*
X52270Y187385D01*
X52248Y187448D01*
X52214Y187511D01*
X52170Y187570D01*
X52163Y187577D01*
X52144Y187592D01*
X52115Y187618D01*
X52074Y187648D01*
X52018Y187681D01*
X51952Y187711D01*
X51874Y187733D01*
X51782Y187751D01*
X51763D01*
X51745Y187755D01*
X51722D01*
X51693Y187759D01*
X51656D01*
X51611Y187762D01*
X51497D01*
X51426Y187766D01*
X51341D01*
X51249Y187770D01*
D02*
G37*
G36*
X51267Y185735D02*
X50305D01*
Y184366D01*
X51449D01*
X51504Y184370D01*
X51563D01*
X51682Y184373D01*
X51741Y184377D01*
X51800D01*
X51852Y184381D01*
X51900Y184384D01*
X51941Y184392D01*
X51974Y184395D01*
X51978D01*
X51985Y184399D01*
X51996D01*
X52011Y184403D01*
X52055Y184418D01*
X52107Y184436D01*
X52166Y184462D01*
X52229Y184499D01*
X52289Y184543D01*
X52348Y184599D01*
Y184603D01*
X52355Y184606D01*
X52370Y184628D01*
X52396Y184666D01*
X52422Y184714D01*
X52448Y184776D01*
X52473Y184851D01*
X52488Y184939D01*
X52496Y185036D01*
Y185039D01*
Y185047D01*
Y185058D01*
Y185073D01*
X52488Y185117D01*
X52481Y185169D01*
X52466Y185232D01*
X52448Y185294D01*
X52418Y185361D01*
X52381Y185424D01*
Y185428D01*
X52377Y185431D01*
X52359Y185450D01*
X52337Y185479D01*
X52300Y185517D01*
X52255Y185554D01*
X52200Y185594D01*
X52133Y185631D01*
X52059Y185661D01*
X52055D01*
X52048Y185664D01*
X52037Y185668D01*
X52015Y185672D01*
X51989Y185679D01*
X51955Y185683D01*
X51915Y185690D01*
X51867Y185698D01*
X51807Y185705D01*
X51741Y185713D01*
X51667Y185716D01*
X51582Y185724D01*
X51489Y185727D01*
X51386Y185731D01*
X51267Y185735D01*
D02*
G37*
G36*
X46220Y187755D02*
X45532D01*
Y186297D01*
X46195D01*
X46243Y186301D01*
X46298D01*
X46361Y186305D01*
X46424Y186308D01*
X46561Y186316D01*
X46694Y186330D01*
X46757Y186338D01*
X46816Y186349D01*
X46864Y186360D01*
X46909Y186375D01*
X46912D01*
X46920Y186379D01*
X46927Y186382D01*
X46942Y186390D01*
X46979Y186408D01*
X47027Y186438D01*
X47079Y186471D01*
X47134Y186515D01*
X47186Y186567D01*
X47234Y186627D01*
Y186630D01*
X47238Y186634D01*
X47245Y186645D01*
X47253Y186656D01*
X47271Y186693D01*
X47293Y186741D01*
X47316Y186800D01*
X47334Y186867D01*
X47349Y186945D01*
X47353Y187026D01*
Y187030D01*
Y187037D01*
Y187052D01*
X47349Y187074D01*
Y187096D01*
X47345Y187126D01*
X47330Y187189D01*
X47312Y187263D01*
X47282Y187341D01*
X47242Y187418D01*
X47216Y187455D01*
X47186Y187489D01*
Y187492D01*
X47179Y187496D01*
X47157Y187518D01*
X47123Y187548D01*
X47075Y187589D01*
X47012Y187626D01*
X46942Y187662D01*
X46861Y187696D01*
X46772Y187718D01*
X46764D01*
X46750Y187722D01*
X46735Y187725D01*
X46713D01*
X46683Y187729D01*
X46650Y187733D01*
X46609Y187736D01*
X46561Y187740D01*
X46509Y187744D01*
X46450Y187748D01*
X46380D01*
X46306Y187751D01*
X46220Y187755D01*
D02*
G37*
G36*
X51249Y177770D02*
X50305D01*
Y176586D01*
X51241D01*
X51304Y176590D01*
X51493D01*
X51552Y176593D01*
X51608D01*
X51660Y176597D01*
X51700D01*
X51733Y176601D01*
X51745D01*
X51759Y176604D01*
X51778Y176608D01*
X51800Y176612D01*
X51826Y176619D01*
X51885Y176638D01*
X51952Y176660D01*
X52018Y176693D01*
X52085Y176734D01*
X52148Y176786D01*
X52155Y176793D01*
X52174Y176812D01*
X52196Y176848D01*
X52226Y176893D01*
X52255Y176948D01*
X52277Y177019D01*
X52296Y177096D01*
X52303Y177185D01*
Y177189D01*
Y177196D01*
Y177207D01*
X52300Y177226D01*
X52296Y177267D01*
X52289Y177322D01*
X52270Y177385D01*
X52248Y177448D01*
X52214Y177511D01*
X52170Y177570D01*
X52163Y177577D01*
X52144Y177592D01*
X52115Y177618D01*
X52074Y177648D01*
X52018Y177681D01*
X51952Y177711D01*
X51874Y177733D01*
X51782Y177751D01*
X51763D01*
X51745Y177755D01*
X51722D01*
X51693Y177759D01*
X51656D01*
X51611Y177762D01*
X51497D01*
X51426Y177766D01*
X51341D01*
X51249Y177770D01*
D02*
G37*
G36*
X51267Y175735D02*
X50305D01*
Y174366D01*
X51449D01*
X51504Y174370D01*
X51563D01*
X51682Y174373D01*
X51741Y174377D01*
X51800D01*
X51852Y174381D01*
X51900Y174384D01*
X51941Y174392D01*
X51974Y174395D01*
X51978D01*
X51985Y174399D01*
X51996D01*
X52011Y174403D01*
X52055Y174418D01*
X52107Y174436D01*
X52166Y174462D01*
X52229Y174499D01*
X52289Y174543D01*
X52348Y174599D01*
Y174603D01*
X52355Y174606D01*
X52370Y174628D01*
X52396Y174665D01*
X52422Y174714D01*
X52448Y174776D01*
X52473Y174850D01*
X52488Y174939D01*
X52496Y175036D01*
Y175039D01*
Y175047D01*
Y175058D01*
Y175073D01*
X52488Y175117D01*
X52481Y175169D01*
X52466Y175232D01*
X52448Y175294D01*
X52418Y175361D01*
X52381Y175424D01*
Y175428D01*
X52377Y175431D01*
X52359Y175450D01*
X52337Y175479D01*
X52300Y175516D01*
X52255Y175554D01*
X52200Y175594D01*
X52133Y175631D01*
X52059Y175661D01*
X52055D01*
X52048Y175664D01*
X52037Y175668D01*
X52015Y175672D01*
X51989Y175679D01*
X51955Y175683D01*
X51915Y175690D01*
X51867Y175698D01*
X51807Y175705D01*
X51741Y175713D01*
X51667Y175716D01*
X51582Y175724D01*
X51489Y175727D01*
X51386Y175731D01*
X51267Y175735D01*
D02*
G37*
G36*
X46220Y177755D02*
X45532D01*
Y176297D01*
X46195D01*
X46243Y176301D01*
X46298D01*
X46361Y176305D01*
X46424Y176308D01*
X46561Y176316D01*
X46694Y176330D01*
X46757Y176338D01*
X46816Y176349D01*
X46864Y176360D01*
X46909Y176375D01*
X46912D01*
X46920Y176379D01*
X46927Y176382D01*
X46942Y176390D01*
X46979Y176408D01*
X47027Y176438D01*
X47079Y176471D01*
X47134Y176515D01*
X47186Y176567D01*
X47234Y176627D01*
Y176630D01*
X47238Y176634D01*
X47245Y176645D01*
X47253Y176656D01*
X47271Y176693D01*
X47293Y176741D01*
X47316Y176800D01*
X47334Y176867D01*
X47349Y176945D01*
X47353Y177026D01*
Y177030D01*
Y177037D01*
Y177052D01*
X47349Y177074D01*
Y177096D01*
X47345Y177126D01*
X47330Y177189D01*
X47312Y177263D01*
X47282Y177341D01*
X47242Y177418D01*
X47216Y177455D01*
X47186Y177489D01*
Y177492D01*
X47179Y177496D01*
X47157Y177518D01*
X47123Y177548D01*
X47075Y177588D01*
X47012Y177626D01*
X46942Y177663D01*
X46861Y177696D01*
X46772Y177718D01*
X46764D01*
X46750Y177722D01*
X46735Y177725D01*
X46713D01*
X46683Y177729D01*
X46650Y177733D01*
X46609Y177736D01*
X46561Y177740D01*
X46509Y177744D01*
X46450Y177748D01*
X46380D01*
X46306Y177751D01*
X46220Y177755D01*
D02*
G37*
G36*
X19220Y139755D02*
X18532D01*
Y138297D01*
X19195D01*
X19243Y138301D01*
X19298D01*
X19361Y138305D01*
X19424Y138308D01*
X19561Y138316D01*
X19694Y138330D01*
X19757Y138338D01*
X19816Y138349D01*
X19864Y138360D01*
X19909Y138375D01*
X19912D01*
X19920Y138379D01*
X19927Y138382D01*
X19942Y138390D01*
X19979Y138408D01*
X20027Y138438D01*
X20079Y138471D01*
X20134Y138515D01*
X20186Y138567D01*
X20234Y138627D01*
Y138630D01*
X20238Y138634D01*
X20245Y138645D01*
X20253Y138656D01*
X20271Y138693D01*
X20293Y138741D01*
X20316Y138800D01*
X20334Y138867D01*
X20349Y138945D01*
X20353Y139026D01*
Y139030D01*
Y139037D01*
Y139052D01*
X20349Y139074D01*
Y139096D01*
X20345Y139126D01*
X20331Y139189D01*
X20312Y139263D01*
X20282Y139341D01*
X20242Y139418D01*
X20216Y139455D01*
X20186Y139489D01*
Y139492D01*
X20179Y139496D01*
X20157Y139518D01*
X20123Y139548D01*
X20075Y139588D01*
X20012Y139626D01*
X19942Y139663D01*
X19861Y139696D01*
X19772Y139718D01*
X19764D01*
X19750Y139722D01*
X19735Y139725D01*
X19713D01*
X19683Y139729D01*
X19650Y139733D01*
X19609Y139736D01*
X19561Y139740D01*
X19509Y139744D01*
X19450Y139748D01*
X19380D01*
X19306Y139751D01*
X19220Y139755D01*
D02*
G37*
G36*
X19721Y199755D02*
X19032D01*
Y198297D01*
X19695D01*
X19743Y198301D01*
X19798D01*
X19861Y198305D01*
X19924Y198308D01*
X20061Y198316D01*
X20194Y198330D01*
X20257Y198338D01*
X20316Y198349D01*
X20364Y198360D01*
X20409Y198375D01*
X20412D01*
X20420Y198379D01*
X20427Y198382D01*
X20442Y198390D01*
X20479Y198408D01*
X20527Y198438D01*
X20579Y198471D01*
X20634Y198515D01*
X20686Y198567D01*
X20734Y198626D01*
Y198630D01*
X20738Y198634D01*
X20745Y198645D01*
X20753Y198656D01*
X20771Y198693D01*
X20794Y198741D01*
X20816Y198800D01*
X20834Y198867D01*
X20849Y198945D01*
X20853Y199026D01*
Y199030D01*
Y199037D01*
Y199052D01*
X20849Y199074D01*
Y199096D01*
X20845Y199126D01*
X20831Y199189D01*
X20812Y199263D01*
X20782Y199341D01*
X20742Y199418D01*
X20716Y199455D01*
X20686Y199489D01*
Y199492D01*
X20679Y199496D01*
X20657Y199518D01*
X20623Y199548D01*
X20575Y199589D01*
X20512Y199626D01*
X20442Y199662D01*
X20361Y199696D01*
X20272Y199718D01*
X20264D01*
X20250Y199722D01*
X20235Y199725D01*
X20213D01*
X20183Y199729D01*
X20150Y199733D01*
X20109Y199736D01*
X20061Y199740D01*
X20009Y199744D01*
X19950Y199748D01*
X19880D01*
X19806Y199751D01*
X19721Y199755D01*
D02*
G37*
G36*
X55989Y153605D02*
X55963D01*
X55940Y153601D01*
X55918Y153597D01*
X55889Y153594D01*
X55822Y153575D01*
X55744Y153549D01*
X55707Y153531D01*
X55667Y153509D01*
X55626Y153483D01*
X55585Y153453D01*
X55545Y153420D01*
X55507Y153379D01*
X55504Y153375D01*
X55500Y153368D01*
X55489Y153357D01*
X55478Y153338D01*
X55463Y153316D01*
X55448Y153287D01*
X55430Y153253D01*
X55411Y153213D01*
X55393Y153172D01*
X55374Y153120D01*
X55360Y153068D01*
X55345Y153009D01*
X55334Y152946D01*
X55322Y152876D01*
X55319Y152802D01*
X55315Y152724D01*
Y152720D01*
Y152702D01*
Y152680D01*
X55319Y152647D01*
X55322Y152606D01*
X55326Y152558D01*
X55334Y152506D01*
X55341Y152450D01*
X55367Y152332D01*
X55385Y152269D01*
X55408Y152210D01*
X55433Y152147D01*
X55463Y152092D01*
X55496Y152036D01*
X55533Y151984D01*
X55537Y151980D01*
X55545Y151973D01*
X55556Y151962D01*
X55570Y151944D01*
X55593Y151925D01*
X55619Y151903D01*
X55644Y151881D01*
X55678Y151855D01*
X55752Y151807D01*
X55837Y151766D01*
X55885Y151747D01*
X55933Y151736D01*
X55985Y151729D01*
X56037Y151725D01*
X56063D01*
X56081Y151729D01*
X56103Y151733D01*
X56133Y151736D01*
X56196Y151751D01*
X56266Y151777D01*
X56303Y151795D01*
X56340Y151814D01*
X56381Y151840D01*
X56418Y151866D01*
X56455Y151899D01*
X56488Y151936D01*
X56492Y151940D01*
X56495Y151947D01*
X56507Y151958D01*
X56518Y151977D01*
X56532Y151999D01*
X56547Y152029D01*
X56562Y152066D01*
X56581Y152103D01*
X56599Y152151D01*
X56614Y152202D01*
X56629Y152258D01*
X56643Y152321D01*
X56655Y152391D01*
X56666Y152465D01*
X56669Y152547D01*
X56673Y152635D01*
Y152643D01*
Y152658D01*
Y152683D01*
X56669Y152717D01*
X56666Y152758D01*
X56662Y152806D01*
X56658Y152861D01*
X56647Y152917D01*
X56625Y153035D01*
X56592Y153157D01*
X56569Y153216D01*
X56543Y153272D01*
X56510Y153324D01*
X56477Y153372D01*
X56473Y153375D01*
X56470Y153383D01*
X56458Y153394D01*
X56444Y153409D01*
X56421Y153427D01*
X56399Y153446D01*
X56373Y153468D01*
X56344Y153490D01*
X56273Y153531D01*
X56188Y153568D01*
X56144Y153583D01*
X56092Y153594D01*
X56044Y153601D01*
X55989Y153605D01*
D02*
G37*
G36*
X51249Y155270D02*
X50305D01*
Y154086D01*
X51241D01*
X51304Y154089D01*
X51493D01*
X51552Y154093D01*
X51608D01*
X51660Y154097D01*
X51700D01*
X51733Y154101D01*
X51745D01*
X51759Y154104D01*
X51778Y154108D01*
X51800Y154112D01*
X51826Y154119D01*
X51885Y154138D01*
X51952Y154160D01*
X52018Y154193D01*
X52085Y154234D01*
X52148Y154286D01*
X52155Y154293D01*
X52174Y154312D01*
X52196Y154349D01*
X52226Y154393D01*
X52255Y154448D01*
X52277Y154519D01*
X52296Y154596D01*
X52303Y154685D01*
Y154689D01*
Y154696D01*
Y154707D01*
X52300Y154726D01*
X52296Y154767D01*
X52289Y154822D01*
X52270Y154885D01*
X52248Y154948D01*
X52214Y155011D01*
X52170Y155070D01*
X52163Y155077D01*
X52144Y155092D01*
X52115Y155118D01*
X52074Y155148D01*
X52018Y155181D01*
X51952Y155211D01*
X51874Y155233D01*
X51782Y155251D01*
X51763D01*
X51745Y155255D01*
X51722D01*
X51693Y155259D01*
X51656D01*
X51611Y155262D01*
X51497D01*
X51426Y155266D01*
X51341D01*
X51249Y155270D01*
D02*
G37*
G36*
X51267Y153235D02*
X50305D01*
Y151866D01*
X51449D01*
X51504Y151869D01*
X51563D01*
X51682Y151873D01*
X51741Y151877D01*
X51800D01*
X51852Y151881D01*
X51900Y151884D01*
X51941Y151892D01*
X51974Y151895D01*
X51978D01*
X51985Y151899D01*
X51996D01*
X52011Y151903D01*
X52055Y151918D01*
X52107Y151936D01*
X52166Y151962D01*
X52229Y151999D01*
X52289Y152043D01*
X52348Y152099D01*
Y152103D01*
X52355Y152106D01*
X52370Y152129D01*
X52396Y152165D01*
X52422Y152214D01*
X52448Y152277D01*
X52473Y152350D01*
X52488Y152439D01*
X52496Y152535D01*
Y152539D01*
Y152547D01*
Y152558D01*
Y152573D01*
X52488Y152617D01*
X52481Y152669D01*
X52466Y152732D01*
X52448Y152795D01*
X52418Y152861D01*
X52381Y152924D01*
Y152928D01*
X52377Y152931D01*
X52359Y152950D01*
X52337Y152980D01*
X52300Y153016D01*
X52255Y153053D01*
X52200Y153094D01*
X52133Y153131D01*
X52059Y153161D01*
X52055D01*
X52048Y153165D01*
X52037Y153168D01*
X52015Y153172D01*
X51989Y153179D01*
X51955Y153183D01*
X51915Y153190D01*
X51867Y153198D01*
X51807Y153205D01*
X51741Y153213D01*
X51667Y153216D01*
X51582Y153224D01*
X51489Y153227D01*
X51386Y153231D01*
X51267Y153235D01*
D02*
G37*
G36*
X46220Y155255D02*
X45532D01*
Y153797D01*
X46195D01*
X46243Y153801D01*
X46298D01*
X46361Y153805D01*
X46424Y153808D01*
X46561Y153816D01*
X46694Y153831D01*
X46757Y153838D01*
X46816Y153849D01*
X46864Y153860D01*
X46909Y153875D01*
X46912D01*
X46920Y153879D01*
X46927Y153882D01*
X46942Y153890D01*
X46979Y153908D01*
X47027Y153938D01*
X47079Y153971D01*
X47134Y154016D01*
X47186Y154067D01*
X47234Y154127D01*
Y154130D01*
X47238Y154134D01*
X47245Y154145D01*
X47253Y154156D01*
X47271Y154193D01*
X47293Y154241D01*
X47316Y154300D01*
X47334Y154367D01*
X47349Y154445D01*
X47353Y154526D01*
Y154530D01*
Y154537D01*
Y154552D01*
X47349Y154574D01*
Y154596D01*
X47345Y154626D01*
X47330Y154689D01*
X47312Y154763D01*
X47282Y154841D01*
X47242Y154918D01*
X47216Y154955D01*
X47186Y154989D01*
Y154992D01*
X47179Y154996D01*
X47157Y155018D01*
X47123Y155048D01*
X47075Y155088D01*
X47012Y155125D01*
X46942Y155163D01*
X46861Y155196D01*
X46772Y155218D01*
X46764D01*
X46750Y155222D01*
X46735Y155225D01*
X46713D01*
X46683Y155229D01*
X46650Y155233D01*
X46609Y155236D01*
X46561Y155240D01*
X46509Y155244D01*
X46450Y155248D01*
X46380D01*
X46306Y155251D01*
X46220Y155255D01*
D02*
G37*
G36*
X51249Y164014D02*
X50305D01*
Y162830D01*
X51241D01*
X51304Y162834D01*
X51493D01*
X51552Y162837D01*
X51608D01*
X51660Y162841D01*
X51700D01*
X51733Y162845D01*
X51745D01*
X51759Y162848D01*
X51778Y162852D01*
X51800Y162856D01*
X51826Y162863D01*
X51885Y162882D01*
X51952Y162904D01*
X52018Y162937D01*
X52085Y162978D01*
X52148Y163030D01*
X52155Y163037D01*
X52174Y163056D01*
X52196Y163093D01*
X52226Y163137D01*
X52255Y163192D01*
X52277Y163263D01*
X52296Y163340D01*
X52303Y163429D01*
Y163433D01*
Y163440D01*
Y163452D01*
X52300Y163470D01*
X52296Y163511D01*
X52289Y163566D01*
X52270Y163629D01*
X52248Y163692D01*
X52214Y163755D01*
X52170Y163814D01*
X52163Y163821D01*
X52144Y163836D01*
X52115Y163862D01*
X52074Y163892D01*
X52018Y163925D01*
X51952Y163955D01*
X51874Y163977D01*
X51782Y163995D01*
X51763D01*
X51745Y163999D01*
X51722D01*
X51693Y164003D01*
X51656D01*
X51611Y164006D01*
X51497D01*
X51426Y164010D01*
X51341D01*
X51249Y164014D01*
D02*
G37*
G36*
X51267Y161979D02*
X50305D01*
Y160610D01*
X51449D01*
X51504Y160614D01*
X51563D01*
X51682Y160617D01*
X51741Y160621D01*
X51800D01*
X51852Y160625D01*
X51900Y160628D01*
X51941Y160636D01*
X51974Y160640D01*
X51978D01*
X51985Y160643D01*
X51996D01*
X52011Y160647D01*
X52055Y160662D01*
X52107Y160680D01*
X52166Y160706D01*
X52229Y160743D01*
X52289Y160787D01*
X52348Y160843D01*
Y160847D01*
X52355Y160850D01*
X52370Y160873D01*
X52396Y160910D01*
X52422Y160958D01*
X52448Y161021D01*
X52473Y161095D01*
X52488Y161183D01*
X52496Y161280D01*
Y161283D01*
Y161291D01*
Y161302D01*
Y161317D01*
X52488Y161361D01*
X52481Y161413D01*
X52466Y161476D01*
X52448Y161539D01*
X52418Y161605D01*
X52381Y161668D01*
Y161672D01*
X52377Y161676D01*
X52359Y161694D01*
X52337Y161724D01*
X52300Y161761D01*
X52255Y161798D01*
X52200Y161838D01*
X52133Y161875D01*
X52059Y161905D01*
X52055D01*
X52048Y161909D01*
X52037Y161912D01*
X52015Y161916D01*
X51989Y161923D01*
X51955Y161927D01*
X51915Y161934D01*
X51867Y161942D01*
X51807Y161949D01*
X51741Y161957D01*
X51667Y161960D01*
X51582Y161968D01*
X51489Y161971D01*
X51386Y161975D01*
X51267Y161979D01*
D02*
G37*
G36*
X46220Y163999D02*
X45532D01*
Y162541D01*
X46195D01*
X46243Y162545D01*
X46298D01*
X46361Y162549D01*
X46424Y162552D01*
X46561Y162560D01*
X46694Y162575D01*
X46757Y162582D01*
X46816Y162593D01*
X46864Y162604D01*
X46909Y162619D01*
X46912D01*
X46920Y162623D01*
X46927Y162626D01*
X46942Y162634D01*
X46979Y162652D01*
X47027Y162682D01*
X47079Y162715D01*
X47134Y162760D01*
X47186Y162811D01*
X47234Y162871D01*
Y162874D01*
X47238Y162878D01*
X47245Y162889D01*
X47253Y162900D01*
X47271Y162937D01*
X47293Y162985D01*
X47316Y163045D01*
X47334Y163111D01*
X47349Y163189D01*
X47353Y163270D01*
Y163274D01*
Y163281D01*
Y163296D01*
X47349Y163318D01*
Y163340D01*
X47345Y163370D01*
X47330Y163433D01*
X47312Y163507D01*
X47282Y163585D01*
X47242Y163662D01*
X47216Y163699D01*
X47186Y163733D01*
Y163736D01*
X47179Y163740D01*
X47157Y163762D01*
X47123Y163792D01*
X47075Y163833D01*
X47012Y163870D01*
X46942Y163907D01*
X46861Y163940D01*
X46772Y163962D01*
X46764D01*
X46750Y163966D01*
X46735Y163970D01*
X46713D01*
X46683Y163973D01*
X46650Y163977D01*
X46609Y163981D01*
X46561Y163984D01*
X46509Y163988D01*
X46450Y163992D01*
X46380D01*
X46306Y163995D01*
X46220Y163999D01*
D02*
G37*
%LPD*%
D10*
X92610Y157571D02*
G03*
X92610Y157571I-1181J0D01*
G01*
D11*
X83457Y163969D02*
G03*
X83457Y163969I-492J0D01*
G01*
D12*
X29500Y160500D02*
G03*
X31500Y162500I0J2000D01*
G01*
Y163500D02*
G03*
X29500Y165500I-2000J0D01*
G01*
Y154000D02*
Y160500D01*
X31500Y162500D02*
Y163500D01*
X29500Y165500D02*
Y175000D01*
X30303Y175803D01*
X34685D01*
X29000Y153500D02*
X34500D01*
X23500Y148000D02*
X29000Y153500D01*
X15500Y148000D02*
X23500D01*
X22500Y158000D02*
Y181000D01*
X27500Y186000D01*
X34685D01*
X27500Y163000D02*
X34500D01*
X22500Y158000D02*
X27500Y163000D01*
X16000Y158000D02*
X22500D01*
D13*
X34548Y150350D02*
G03*
X35335Y149563I787J0D01*
G01*
Y157437D02*
G03*
X34548Y156650I0J-787D01*
G01*
X43209D02*
G03*
X42422Y157437I-787J0D01*
G01*
X42028Y149563D02*
G03*
X43209Y150744I0J1181D01*
G01*
X34548Y159350D02*
G03*
X35335Y158563I787J0D01*
G01*
Y166437D02*
G03*
X34548Y165650I0J-787D01*
G01*
X43209D02*
G03*
X42422Y166437I-787J0D01*
G01*
X42028Y158563D02*
G03*
X43209Y159744I0J1181D01*
G01*
X43347Y179150D02*
G03*
X42559Y179937I-787J0D01*
G01*
Y172063D02*
G03*
X43347Y172850I0J787D01*
G01*
X34685D02*
G03*
X35473Y172063I787J0D01*
G01*
X35866Y179937D02*
G03*
X34685Y178756I0J-1181D01*
G01*
X43347Y189150D02*
G03*
X42559Y189937I-787J0D01*
G01*
Y182063D02*
G03*
X43347Y182850I0J787D01*
G01*
X34685D02*
G03*
X35473Y182063I787J0D01*
G01*
X35866Y189937D02*
G03*
X34685Y188756I0J-1181D01*
G01*
X115548Y193350D02*
G03*
X116335Y192563I787J0D01*
G01*
Y200437D02*
G03*
X115548Y199650I0J-787D01*
G01*
X124209D02*
G03*
X123422Y200437I-787J0D01*
G01*
X123028Y192563D02*
G03*
X124209Y193744I0J1181D01*
G01*
X114291Y180350D02*
G03*
X115078Y179563I787J0D01*
G01*
Y187437D02*
G03*
X114291Y186650I0J-787D01*
G01*
X122952D02*
G03*
X122165Y187437I-787J0D01*
G01*
X121771Y179563D02*
G03*
X122952Y180744I0J1181D01*
G01*
X106048Y105350D02*
G03*
X106835Y104563I787J0D01*
G01*
Y112437D02*
G03*
X106048Y111650I0J-787D01*
G01*
X114709D02*
G03*
X113922Y112437I-787J0D01*
G01*
X113528Y104563D02*
G03*
X114709Y105744I0J1181D01*
G01*
X105996Y95850D02*
G03*
X106783Y95063I787J0D01*
G01*
Y102937D02*
G03*
X105996Y102150I0J-787D01*
G01*
X114657D02*
G03*
X113870Y102937I-787J0D01*
G01*
X113476Y95063D02*
G03*
X114657Y96244I0J1181D01*
G01*
X35335Y149563D02*
X42028D01*
X34548Y150350D02*
Y156650D01*
X35335Y157437D02*
X42422D01*
X43209Y150744D02*
Y156650D01*
X35335Y158563D02*
X42028D01*
X34548Y159350D02*
Y165650D01*
X35335Y166437D02*
X42422D01*
X43209Y159744D02*
Y165650D01*
X35866Y179937D02*
X42559D01*
X43347Y172850D02*
Y179150D01*
X35473Y172063D02*
X42559D01*
X34685Y172850D02*
Y178756D01*
X35866Y189937D02*
X42559D01*
X43347Y182850D02*
Y189150D01*
X35473Y182063D02*
X42559D01*
X34685Y182850D02*
Y188756D01*
X116335Y192563D02*
X123028D01*
X115548Y193350D02*
Y199650D01*
X116335Y200437D02*
X123422D01*
X124209Y193744D02*
Y199650D01*
X115078Y179563D02*
X121771D01*
X114291Y180350D02*
Y186650D01*
X115078Y187437D02*
X122165D01*
X122952Y180744D02*
Y186650D01*
X106835Y104563D02*
X113528D01*
X106048Y105350D02*
Y111650D01*
X106835Y112437D02*
X113922D01*
X114709Y105744D02*
Y111650D01*
X106783Y95063D02*
X113476D01*
X105996Y95850D02*
Y102150D01*
X106783Y102937D02*
X113870D01*
X114657Y96244D02*
Y102150D01*
D14*
X87295Y137295D02*
X111705D01*
X87295Y161705D02*
X111705D01*
Y137295D02*
Y161705D01*
X87295Y137295D02*
Y161705D01*
X126Y223000D02*
X205500D01*
D15*
Y23000D02*
Y223000D01*
X126Y213000D02*
X15874D01*
X126Y223000D02*
X15500D01*
Y23000D02*
Y223000D01*
X126Y23000D02*
X15500D01*
X126D02*
Y223000D01*
X13000Y126D02*
Y15874D01*
X3000Y126D02*
Y15500D01*
X203000D01*
Y126D02*
Y15500D01*
X3000Y126D02*
X203000D01*
X190126Y213000D02*
X205874D01*
X190126Y223000D02*
X205500D01*
X190126Y23000D02*
X205500D01*
X190126D02*
Y223000D01*
X80751Y108999D02*
X80001Y108249D01*
Y106750D01*
X80751Y106000D01*
X83750D01*
X84500Y106750D01*
Y108249D01*
X83750Y108999D01*
X84500Y110499D02*
Y111998D01*
Y111248D01*
X80001D01*
X80751Y110499D01*
X84500Y114247D02*
Y115747D01*
Y114997D01*
X80001D01*
X80751Y114247D01*
X123999Y126749D02*
X123249Y127499D01*
X121750D01*
X121000Y126749D01*
Y123750D01*
X121750Y123000D01*
X123249D01*
X123999Y123750D01*
X125499Y123000D02*
X126998D01*
X126248D01*
Y127499D01*
X125499Y126749D01*
X129247D02*
X129997Y127499D01*
X131497D01*
X132246Y126749D01*
Y123750D01*
X131497Y123000D01*
X129997D01*
X129247Y123750D01*
Y126749D01*
X164251Y89499D02*
X163501Y88749D01*
Y87250D01*
X164251Y86500D01*
X167250D01*
X168000Y87250D01*
Y88749D01*
X167250Y89499D01*
Y90999D02*
X168000Y91748D01*
Y93248D01*
X167250Y93998D01*
X164251D01*
X163501Y93248D01*
Y91748D01*
X164251Y90999D01*
X165001D01*
X165751Y91748D01*
Y93998D01*
X89999Y191749D02*
X89249Y192499D01*
X87750D01*
X87000Y191749D01*
Y188750D01*
X87750Y188000D01*
X89249D01*
X89999Y188750D01*
X91499Y191749D02*
X92248Y192499D01*
X93748D01*
X94498Y191749D01*
Y190999D01*
X93748Y190249D01*
X94498Y189499D01*
Y188750D01*
X93748Y188000D01*
X92248D01*
X91499Y188750D01*
Y189499D01*
X92248Y190249D01*
X91499Y190999D01*
Y191749D01*
X92248Y190249D02*
X93748D01*
X60999Y135953D02*
X60249Y136703D01*
X58750D01*
X58000Y135953D01*
Y132955D01*
X58750Y132205D01*
X60249D01*
X60999Y132955D01*
X62499Y136703D02*
X65498D01*
Y135953D01*
X62499Y132955D01*
Y132205D01*
X21751Y27999D02*
X21001Y27249D01*
Y25750D01*
X21751Y25000D01*
X24750D01*
X25500Y25750D01*
Y27249D01*
X24750Y27999D01*
X21001Y32498D02*
X21751Y30998D01*
X23251Y29499D01*
X24750D01*
X25500Y30248D01*
Y31748D01*
X24750Y32498D01*
X24001D01*
X23251Y31748D01*
Y29499D01*
X131499Y169749D02*
X130749Y170499D01*
X129250D01*
X128500Y169749D01*
Y166750D01*
X129250Y166000D01*
X130749D01*
X131499Y166750D01*
X135998Y170499D02*
X132999D01*
Y168249D01*
X134498Y168999D01*
X135248D01*
X135998Y168249D01*
Y166750D01*
X135248Y166000D01*
X133748D01*
X132999Y166750D01*
X158751Y182999D02*
X158001Y182249D01*
Y180750D01*
X158751Y180000D01*
X161750D01*
X162500Y180750D01*
Y182249D01*
X161750Y182999D01*
X162500Y186748D02*
X158001D01*
X160251Y184499D01*
Y187498D01*
X180251Y182499D02*
X179501Y181749D01*
Y180250D01*
X180251Y179500D01*
X183250D01*
X184000Y180250D01*
Y181749D01*
X183250Y182499D01*
X180251Y183999D02*
X179501Y184748D01*
Y186248D01*
X180251Y186998D01*
X181001D01*
X181751Y186248D01*
Y185498D01*
Y186248D01*
X182501Y186998D01*
X183250D01*
X184000Y186248D01*
Y184748D01*
X183250Y183999D01*
X69000Y180998D02*
Y176000D01*
X70000Y175000D01*
X71999D01*
X72999Y176000D01*
Y180998D01*
X74998Y175000D02*
X76997D01*
X75998D01*
Y180998D01*
X74998Y179998D01*
X127999Y184998D02*
X126999Y185998D01*
X125000D01*
X124000Y184998D01*
Y183999D01*
X125000Y182999D01*
X126999D01*
X127999Y181999D01*
Y181000D01*
X126999Y180000D01*
X125000D01*
X124000Y181000D01*
X133997Y185998D02*
X131997D01*
X132997D01*
Y181000D01*
X131997Y180000D01*
X130998D01*
X129998Y181000D01*
X135996Y184998D02*
X136996Y185998D01*
X138995D01*
X139995Y184998D01*
Y183999D01*
X138995Y182999D01*
X139995Y181999D01*
Y181000D01*
X138995Y180000D01*
X136996D01*
X135996Y181000D01*
Y181999D01*
X136996Y182999D01*
X135996Y183999D01*
Y184998D01*
X136996Y182999D02*
X138995D01*
X129499Y198498D02*
X128499Y199498D01*
X126500D01*
X125500Y198498D01*
Y197499D01*
X126500Y196499D01*
X128499D01*
X129499Y195499D01*
Y194500D01*
X128499Y193500D01*
X126500D01*
X125500Y194500D01*
X135497Y199498D02*
X133497D01*
X134497D01*
Y194500D01*
X133497Y193500D01*
X132498D01*
X131498Y194500D01*
X137496Y198498D02*
X138496Y199498D01*
X140495D01*
X141495Y198498D01*
Y197499D01*
X140495Y196499D01*
X139496D01*
X140495D01*
X141495Y195499D01*
Y194500D01*
X140495Y193500D01*
X138496D01*
X137496Y194500D01*
X120499Y100998D02*
X119499Y101998D01*
X117500D01*
X116500Y100998D01*
Y99999D01*
X117500Y98999D01*
X119499D01*
X120499Y97999D01*
Y97000D01*
X119499Y96000D01*
X117500D01*
X116500Y97000D01*
X126497Y101998D02*
X124497D01*
X125497D01*
Y97000D01*
X124497Y96000D01*
X123498D01*
X122498Y97000D01*
X132495Y96000D02*
X128496D01*
X132495Y99999D01*
Y100998D01*
X131495Y101998D01*
X129496D01*
X128496Y100998D01*
X120499Y110998D02*
X119499Y111998D01*
X117500D01*
X116500Y110998D01*
Y109999D01*
X117500Y108999D01*
X119499D01*
X120499Y107999D01*
Y107000D01*
X119499Y106000D01*
X117500D01*
X116500Y107000D01*
X126497Y111998D02*
X124497D01*
X125497D01*
Y107000D01*
X124497Y106000D01*
X123498D01*
X122498Y107000D01*
X128496Y106000D02*
X130496D01*
X129496D01*
Y111998D01*
X128496Y110998D01*
X104500Y183653D02*
X100001D01*
Y185903D01*
X100751Y186653D01*
X102251D01*
X103000Y185903D01*
Y183653D01*
Y185153D02*
X104500Y186653D01*
X100751Y188152D02*
X100001Y188902D01*
Y190401D01*
X100751Y191151D01*
X101501D01*
X102251Y190401D01*
Y189652D01*
Y190401D01*
X103000Y191151D01*
X103750D01*
X104500Y190401D01*
Y188902D01*
X103750Y188152D01*
X94000Y116000D02*
Y120499D01*
X96249D01*
X96999Y119749D01*
Y118249D01*
X96249Y117499D01*
X94000D01*
X95499D02*
X96999Y116000D01*
X101498D02*
X98499D01*
X101498Y118999D01*
Y119749D01*
X100748Y120499D01*
X99248D01*
X98499Y119749D01*
X39500Y202500D02*
Y208498D01*
X42499D01*
X43499Y207498D01*
Y205499D01*
X42499Y204499D01*
X39500D01*
X41499D02*
X43499Y202500D01*
X45498D02*
X47497D01*
X46498D01*
Y208498D01*
X45498Y207498D01*
X8499Y231498D02*
X6499D01*
X7499D01*
Y226500D01*
X6499Y225500D01*
X5500D01*
X4500Y226500D01*
X10498Y225500D02*
X12497D01*
X11498D01*
Y231498D01*
X10498Y230498D01*
X96999Y91249D02*
X96249Y91999D01*
X94750D01*
X94000Y91249D01*
Y88250D01*
X94750Y87500D01*
X96249D01*
X96999Y88250D01*
X101498Y87500D02*
X98499D01*
X101498Y90499D01*
Y91249D01*
X100748Y91999D01*
X99248D01*
X98499Y91249D01*
X100751Y200212D02*
X100001Y199462D01*
Y197962D01*
X100751Y197213D01*
X103750D01*
X104500Y197962D01*
Y199462D01*
X103750Y200212D01*
X104500Y201711D02*
Y203211D01*
Y202461D01*
X100001D01*
X100751Y201711D01*
X0Y0D02*
Y254000D01*
X205500D01*
Y0D02*
Y254000D01*
X0Y0D02*
X205500D01*
D16*
X26744Y33618D02*
X32256D01*
X26744Y23382D02*
X32256D01*
X26744D02*
Y33618D01*
X32256Y23382D02*
Y33618D01*
X169244Y85382D02*
X174756D01*
X169244Y95618D02*
X174756D01*
Y85382D02*
Y95618D01*
X169244Y85382D02*
Y95618D01*
X121382Y116244D02*
Y121756D01*
X131618Y116244D02*
Y121756D01*
X121382Y116244D02*
X131618D01*
X121382Y121756D02*
X131618D01*
X95244Y103618D02*
X100756D01*
X95244Y93382D02*
X100756D01*
X95244D02*
Y103618D01*
X100756Y93382D02*
Y103618D01*
X95244Y115405D02*
X100756D01*
X95244Y103595D02*
X100756D01*
Y115405D01*
X95244Y103595D02*
Y115405D01*
X86244Y115118D02*
X91756D01*
X86244Y104882D02*
X91756D01*
X86244D02*
Y115118D01*
X91756Y104882D02*
Y115118D01*
X67118Y137886D02*
Y143398D01*
X56882Y137886D02*
Y143398D01*
X67118D01*
X56882Y137886D02*
X67118D01*
X48906Y195244D02*
Y200756D01*
X37095Y195244D02*
Y200756D01*
Y195244D02*
X48906D01*
X37095Y200756D02*
X48906D01*
X95760Y181244D02*
Y186756D01*
X85524Y181244D02*
Y186756D01*
X95760D01*
X85524Y181244D02*
X95760D01*
X127382Y171744D02*
Y177256D01*
X137618Y171744D02*
Y177256D01*
X127382Y171744D02*
X137618D01*
X127382Y177256D02*
X137618D01*
X163744Y178535D02*
X169256D01*
X163744Y188772D02*
X169256D01*
Y178535D02*
Y188772D01*
X163744Y178535D02*
Y188772D01*
X172744Y178626D02*
X178256D01*
X172744Y188862D02*
X178256D01*
Y178626D02*
Y188862D01*
X172744Y178626D02*
Y188862D01*
X105744Y194850D02*
X111256D01*
X105744Y205087D02*
X111256D01*
Y194850D02*
Y205087D01*
X105744Y194850D02*
Y205087D01*
Y181095D02*
X111256D01*
X105744Y192905D02*
X111256D01*
X105744Y181095D02*
Y192905D01*
X111256Y181095D02*
Y192905D01*
D17*
X26488Y220917D02*
Y214918D01*
Y220917D02*
X30202D01*
X26488Y218060D02*
X28774D01*
X32316Y218917D02*
X31744Y218632D01*
X31173Y218060D01*
X30887Y217203D01*
Y216632D01*
X31173Y215775D01*
X31744Y215204D01*
X32316Y214918D01*
X33173D01*
X33744Y215204D01*
X34315Y215775D01*
X34601Y216632D01*
Y217203D01*
X34315Y218060D01*
X33744Y218632D01*
X33173Y218917D01*
X32316D01*
X35915D02*
Y214918D01*
Y217203D02*
X36200Y218060D01*
X36772Y218632D01*
X37343Y218917D01*
X38200D01*
X47741Y219489D02*
X47455Y220060D01*
X46884Y220631D01*
X46313Y220917D01*
X45170D01*
X44599Y220631D01*
X44027Y220060D01*
X43742Y219489D01*
X43456Y218632D01*
Y217203D01*
X43742Y216346D01*
X44027Y215775D01*
X44599Y215204D01*
X45170Y214918D01*
X46313D01*
X46884Y215204D01*
X47455Y215775D01*
X47741Y216346D01*
X49426Y220917D02*
Y214918D01*
Y217775D02*
X50283Y218632D01*
X50855Y218917D01*
X51711D01*
X52283Y218632D01*
X52569Y217775D01*
Y214918D01*
X54711Y220917D02*
X54997Y220631D01*
X55282Y220917D01*
X54997Y221202D01*
X54711Y220917D01*
X54997Y218917D02*
Y214918D01*
X56339Y218917D02*
Y212918D01*
Y218060D02*
X56910Y218632D01*
X57482Y218917D01*
X58339D01*
X58910Y218632D01*
X59481Y218060D01*
X59767Y217203D01*
Y216632D01*
X59481Y215775D01*
X58910Y215204D01*
X58339Y214918D01*
X57482D01*
X56910Y215204D01*
X56339Y215775D01*
X61052Y220917D02*
X62481Y214918D01*
X63909Y220917D02*
X62481Y214918D01*
X63909Y220917D02*
X65337Y214918D01*
X66765Y220917D02*
X65337Y214918D01*
X67965Y220917D02*
Y214918D01*
Y217775D02*
X68822Y218632D01*
X69393Y218917D01*
X70250D01*
X70822Y218632D01*
X71107Y217775D01*
Y214918D01*
X73250Y220917D02*
X73535Y220631D01*
X73821Y220917D01*
X73535Y221202D01*
X73250Y220917D01*
X73535Y218917D02*
Y214918D01*
X78020Y218060D02*
X77735Y218632D01*
X76878Y218917D01*
X76021D01*
X75164Y218632D01*
X74878Y218060D01*
X75164Y217489D01*
X75735Y217203D01*
X77163Y216918D01*
X77735Y216632D01*
X78020Y216061D01*
Y215775D01*
X77735Y215204D01*
X76878Y214918D01*
X76021D01*
X75164Y215204D01*
X74878Y215775D01*
X79277Y218917D02*
Y212918D01*
Y218060D02*
X79848Y218632D01*
X80420Y218917D01*
X81277D01*
X81848Y218632D01*
X82419Y218060D01*
X82705Y217203D01*
Y216632D01*
X82419Y215775D01*
X81848Y215204D01*
X81277Y214918D01*
X80420D01*
X79848Y215204D01*
X79277Y215775D01*
X83990Y217203D02*
X87418D01*
Y217775D01*
X87133Y218346D01*
X86847Y218632D01*
X86276Y218917D01*
X85419D01*
X84847Y218632D01*
X84276Y218060D01*
X83990Y217203D01*
Y216632D01*
X84276Y215775D01*
X84847Y215204D01*
X85419Y214918D01*
X86276D01*
X86847Y215204D01*
X87418Y215775D01*
X88704Y218917D02*
Y214918D01*
Y217203D02*
X88989Y218060D01*
X89561Y218632D01*
X90132Y218917D01*
X90989D01*
X91532Y217203D02*
X94959D01*
Y217775D01*
X94674Y218346D01*
X94388Y218632D01*
X93817Y218917D01*
X92960D01*
X92388Y218632D01*
X91817Y218060D01*
X91532Y217203D01*
Y216632D01*
X91817Y215775D01*
X92388Y215204D01*
X92960Y214918D01*
X93817D01*
X94388Y215204D01*
X94959Y215775D01*
X96245Y218917D02*
Y214918D01*
Y217203D02*
X96530Y218060D01*
X97102Y218632D01*
X97673Y218917D01*
X98530D01*
X108071Y219489D02*
X107785Y220060D01*
X107214Y220631D01*
X106643Y220917D01*
X105500D01*
X104929Y220631D01*
X104357Y220060D01*
X104072Y219489D01*
X103786Y218632D01*
Y217203D01*
X104072Y216346D01*
X104357Y215775D01*
X104929Y215204D01*
X105500Y214918D01*
X106643D01*
X107214Y215204D01*
X107785Y215775D01*
X108071Y216346D01*
X109756Y220917D02*
X111185Y214918D01*
X112613Y220917D02*
X111185Y214918D01*
X112613Y220917D02*
X114041Y214918D01*
X115469Y220917D02*
X114041Y214918D01*
X117240Y220917D02*
X120382D01*
X118669Y218632D01*
X119526D01*
X120097Y218346D01*
X120382Y218060D01*
X120668Y217203D01*
Y216632D01*
X120382Y215775D01*
X119811Y215204D01*
X118954Y214918D01*
X118097D01*
X117240Y215204D01*
X116955Y215489D01*
X116669Y216061D01*
X123725Y220917D02*
X122868Y220631D01*
X122296Y219774D01*
X122011Y218346D01*
Y217489D01*
X122296Y216061D01*
X122868Y215204D01*
X123725Y214918D01*
X124296D01*
X125153Y215204D01*
X125724Y216061D01*
X126010Y217489D01*
Y218346D01*
X125724Y219774D01*
X125153Y220631D01*
X124296Y220917D01*
X123725D01*
X128781D02*
X127924Y220631D01*
X127638Y220060D01*
Y219489D01*
X127924Y218917D01*
X128495Y218632D01*
X129638Y218346D01*
X130495Y218060D01*
X131066Y217489D01*
X131352Y216918D01*
Y216061D01*
X131066Y215489D01*
X130780Y215204D01*
X129923Y214918D01*
X128781D01*
X127924Y215204D01*
X127638Y215489D01*
X127352Y216061D01*
Y216918D01*
X127638Y217489D01*
X128209Y218060D01*
X129066Y218346D01*
X130209Y218632D01*
X130780Y218917D01*
X131066Y219489D01*
Y220060D01*
X130780Y220631D01*
X129923Y220917D01*
X128781D01*
X134694D02*
Y214918D01*
X132694Y220917D02*
X136693D01*
X142121D02*
Y216632D01*
X142406Y215775D01*
X142978Y215204D01*
X143835Y214918D01*
X144406D01*
X145263Y215204D01*
X145834Y215775D01*
X146120Y216632D01*
Y220917D01*
X147777D02*
Y214918D01*
Y220917D02*
X151490D01*
X147777Y218060D02*
X150062D01*
X153890Y220917D02*
X153318Y220631D01*
X152747Y220060D01*
X152461Y219489D01*
X152176Y218632D01*
Y217203D01*
X152461Y216346D01*
X152747Y215775D01*
X153318Y215204D01*
X153890Y214918D01*
X155032D01*
X155604Y215204D01*
X156175Y215775D01*
X156460Y216346D01*
X156746Y217203D01*
Y218632D01*
X156460Y219489D01*
X156175Y220060D01*
X155604Y220631D01*
X155032Y220917D01*
X153890D01*
X162859D02*
Y214918D01*
Y220917D02*
X165430D01*
X166287Y220631D01*
X166573Y220345D01*
X166858Y219774D01*
Y219203D01*
X166573Y218632D01*
X166287Y218346D01*
X165430Y218060D01*
X162859D02*
X165430D01*
X166287Y217775D01*
X166573Y217489D01*
X166858Y216918D01*
Y216061D01*
X166573Y215489D01*
X166287Y215204D01*
X165430Y214918D01*
X162859D01*
X169629Y218917D02*
X169058Y218632D01*
X168486Y218060D01*
X168201Y217203D01*
Y216632D01*
X168486Y215775D01*
X169058Y215204D01*
X169629Y214918D01*
X170486D01*
X171057Y215204D01*
X171629Y215775D01*
X171914Y216632D01*
Y217203D01*
X171629Y218060D01*
X171057Y218632D01*
X170486Y218917D01*
X169629D01*
X176656D02*
Y214918D01*
Y218060D02*
X176085Y218632D01*
X175514Y218917D01*
X174657D01*
X174085Y218632D01*
X173514Y218060D01*
X173228Y217203D01*
Y216632D01*
X173514Y215775D01*
X174085Y215204D01*
X174657Y214918D01*
X175514D01*
X176085Y215204D01*
X176656Y215775D01*
X178256Y218917D02*
Y214918D01*
Y217203D02*
X178542Y218060D01*
X179113Y218632D01*
X179684Y218917D01*
X180541D01*
X184512Y220917D02*
Y214918D01*
Y218060D02*
X183940Y218632D01*
X183369Y218917D01*
X182512D01*
X181941Y218632D01*
X181369Y218060D01*
X181084Y217203D01*
Y216632D01*
X181369Y215775D01*
X181941Y215204D01*
X182512Y214918D01*
X183369D01*
X183940Y215204D01*
X184512Y215775D01*
D18*
X84175Y248508D02*
Y240510D01*
Y248508D02*
X87222Y240510D01*
X90269Y248508D02*
X87222Y240510D01*
X90269Y248508D02*
Y240510D01*
X92935Y246603D02*
Y246984D01*
X93316Y247746D01*
X93697Y248127D01*
X94458Y248508D01*
X95982D01*
X96744Y248127D01*
X97124Y247746D01*
X97505Y246984D01*
Y246223D01*
X97124Y245461D01*
X96363Y244318D01*
X92554Y240510D01*
X97886D01*
X100438Y248508D02*
X104628D01*
X102342Y245461D01*
X103485D01*
X104247Y245080D01*
X104628Y244699D01*
X105008Y243557D01*
Y242795D01*
X104628Y241652D01*
X103866Y240891D01*
X102723Y240510D01*
X101581D01*
X100438Y240891D01*
X100057Y241271D01*
X99676Y242033D01*
X111369Y248508D02*
X107560D01*
X107179Y245080D01*
X107560Y245461D01*
X108703Y245842D01*
X109846D01*
X110988Y245461D01*
X111750Y244699D01*
X112131Y243557D01*
Y242795D01*
X111750Y241652D01*
X110988Y240891D01*
X109846Y240510D01*
X108703D01*
X107560Y240891D01*
X107179Y241271D01*
X106799Y242033D01*
X113921Y246984D02*
X114683Y247365D01*
X115825Y248508D01*
Y240510D01*
X125119Y247365D02*
X124357Y248127D01*
X123214Y248508D01*
X121691D01*
X120548Y248127D01*
X119786Y247365D01*
Y246603D01*
X120167Y245842D01*
X120548Y245461D01*
X121310Y245080D01*
X123595Y244318D01*
X124357Y243937D01*
X124738Y243557D01*
X125119Y242795D01*
Y241652D01*
X124357Y240891D01*
X123214Y240510D01*
X121691D01*
X120548Y240891D01*
X119786Y241652D01*
X72768Y236270D02*
Y228272D01*
X70102Y236270D02*
X75434D01*
X80957Y233604D02*
Y228272D01*
Y232461D02*
X80195Y233223D01*
X79433Y233604D01*
X78290D01*
X77529Y233223D01*
X76767Y232461D01*
X76386Y231319D01*
Y230557D01*
X76767Y229414D01*
X77529Y228653D01*
X78290Y228272D01*
X79433D01*
X80195Y228653D01*
X80957Y229414D01*
X83089Y233604D02*
Y228272D01*
Y231319D02*
X83470Y232461D01*
X84232Y233223D01*
X84994Y233604D01*
X86136D01*
X91430D02*
Y227510D01*
X91050Y226367D01*
X90669Y225987D01*
X89907Y225606D01*
X88764D01*
X88003Y225987D01*
X91430Y232461D02*
X90669Y233223D01*
X89907Y233604D01*
X88764D01*
X88003Y233223D01*
X87241Y232461D01*
X86860Y231319D01*
Y230557D01*
X87241Y229414D01*
X88003Y228653D01*
X88764Y228272D01*
X89907D01*
X90669Y228653D01*
X91430Y229414D01*
X93563Y231319D02*
X98134D01*
Y232080D01*
X97753Y232842D01*
X97372Y233223D01*
X96610Y233604D01*
X95468D01*
X94706Y233223D01*
X93944Y232461D01*
X93563Y231319D01*
Y230557D01*
X93944Y229414D01*
X94706Y228653D01*
X95468Y228272D01*
X96610D01*
X97372Y228653D01*
X98134Y229414D01*
X100990Y236270D02*
Y229795D01*
X101371Y228653D01*
X102133Y228272D01*
X102895D01*
X99848Y233604D02*
X102514D01*
X110322Y236270D02*
Y228272D01*
Y236270D02*
X113750D01*
X114892Y235889D01*
X115273Y235508D01*
X115654Y234747D01*
Y233985D01*
X115273Y233223D01*
X114892Y232842D01*
X113750Y232461D01*
X110322D02*
X113750D01*
X114892Y232080D01*
X115273Y231699D01*
X115654Y230938D01*
Y229795D01*
X115273Y229033D01*
X114892Y228653D01*
X113750Y228272D01*
X110322D01*
X119348Y233604D02*
X118587Y233223D01*
X117825Y232461D01*
X117444Y231319D01*
Y230557D01*
X117825Y229414D01*
X118587Y228653D01*
X119348Y228272D01*
X120491D01*
X121253Y228653D01*
X122014Y229414D01*
X122395Y230557D01*
Y231319D01*
X122014Y232461D01*
X121253Y233223D01*
X120491Y233604D01*
X119348D01*
X128718D02*
Y228272D01*
Y232461D02*
X127956Y233223D01*
X127194Y233604D01*
X126052D01*
X125290Y233223D01*
X124528Y232461D01*
X124147Y231319D01*
Y230557D01*
X124528Y229414D01*
X125290Y228653D01*
X126052Y228272D01*
X127194D01*
X127956Y228653D01*
X128718Y229414D01*
X130851Y233604D02*
Y228272D01*
Y231319D02*
X131231Y232461D01*
X131993Y233223D01*
X132755Y233604D01*
X133898D01*
X139192Y236270D02*
Y228272D01*
Y232461D02*
X138430Y233223D01*
X137668Y233604D01*
X136526D01*
X135764Y233223D01*
X135002Y232461D01*
X134621Y231319D01*
Y230557D01*
X135002Y229414D01*
X135764Y228653D01*
X136526Y228272D01*
X137668D01*
X138430Y228653D01*
X139192Y229414D01*
M02*
