G04 Layer_Color=8388736*
%FSLAX25Y25*%
%MOIN*%
G70*
G01*
G75*
%ADD41C,0.10512*%
G04:AMPARAMS|DCode=42|XSize=47.37mil|YSize=43.43mil|CornerRadius=8.43mil|HoleSize=0mil|Usage=FLASHONLY|Rotation=90.000|XOffset=0mil|YOffset=0mil|HoleType=Round|Shape=RoundedRectangle|*
%AMROUNDEDRECTD42*
21,1,0.04737,0.02657,0,0,90.0*
21,1,0.03051,0.04343,0,0,90.0*
1,1,0.01686,0.01329,0.01526*
1,1,0.01686,0.01329,-0.01526*
1,1,0.01686,-0.01329,-0.01526*
1,1,0.01686,-0.01329,0.01526*
%
%ADD42ROUNDEDRECTD42*%
G04:AMPARAMS|DCode=43|XSize=47.37mil|YSize=43.43mil|CornerRadius=8.43mil|HoleSize=0mil|Usage=FLASHONLY|Rotation=180.000|XOffset=0mil|YOffset=0mil|HoleType=Round|Shape=RoundedRectangle|*
%AMROUNDEDRECTD43*
21,1,0.04737,0.02657,0,0,180.0*
21,1,0.03051,0.04343,0,0,180.0*
1,1,0.01686,-0.01526,0.01329*
1,1,0.01686,0.01526,0.01329*
1,1,0.01686,0.01526,-0.01329*
1,1,0.01686,-0.01526,-0.01329*
%
%ADD43ROUNDEDRECTD43*%
%ADD44O,0.01981X0.06312*%
%ADD45O,0.06312X0.01981*%
%ADD46R,0.03753X0.04540*%
%ADD47R,0.04540X0.03753*%
%ADD48C,0.00800*%
%ADD49C,0.25800*%
%ADD50R,0.11800X0.06800*%
%ADD51O,0.11800X0.06800*%
%ADD52R,0.06800X0.11800*%
%ADD53O,0.06800X0.11800*%
%ADD54C,0.03753*%
G04:AMPARAMS|DCode=55|XSize=47.37mil|YSize=70.99mil|CornerRadius=23.68mil|HoleSize=0mil|Usage=FLASHONLY|Rotation=0.000|XOffset=0mil|YOffset=0mil|HoleType=Round|Shape=RoundedRectangle|*
%AMROUNDEDRECTD55*
21,1,0.04737,0.02362,0,0,0.0*
21,1,0.00000,0.07099,0,0,0.0*
1,1,0.04737,0.00000,-0.01181*
1,1,0.04737,0.00000,-0.01181*
1,1,0.04737,0.00000,0.01181*
1,1,0.04737,0.00000,0.01181*
%
%ADD55ROUNDEDRECTD55*%
D41*
X-7874Y11811D02*
D03*
X419874D02*
D03*
Y244094D02*
D03*
X-7874D02*
D03*
X419874Y500000D02*
D03*
X-7874D02*
D03*
D42*
X111100Y98000D02*
D03*
X117793D02*
D03*
X104100D02*
D03*
X97407D02*
D03*
X81407Y112000D02*
D03*
X88100D02*
D03*
Y120000D02*
D03*
X81407D02*
D03*
X153347Y178000D02*
D03*
X146653D02*
D03*
X318000Y98000D02*
D03*
X324693D02*
D03*
X311000D02*
D03*
X304307D02*
D03*
X288307Y112000D02*
D03*
X295000D02*
D03*
Y120000D02*
D03*
X288307D02*
D03*
X360246Y178000D02*
D03*
X353554D02*
D03*
X111100Y353400D02*
D03*
X117793D02*
D03*
X104100D02*
D03*
X97407D02*
D03*
X81407Y367400D02*
D03*
X88100D02*
D03*
Y375400D02*
D03*
X81407D02*
D03*
X153347Y433400D02*
D03*
X146653D02*
D03*
X318000Y353400D02*
D03*
X324693D02*
D03*
X311000D02*
D03*
X304307D02*
D03*
X288307Y367400D02*
D03*
X295000D02*
D03*
Y375400D02*
D03*
X288307D02*
D03*
X360246Y433400D02*
D03*
X353554D02*
D03*
D43*
X101100Y105307D02*
D03*
Y112000D02*
D03*
X108100D02*
D03*
Y105307D02*
D03*
X123500Y197654D02*
D03*
Y204346D02*
D03*
X141000Y197654D02*
D03*
Y204346D02*
D03*
X135000Y143500D02*
D03*
Y150193D02*
D03*
X308000Y105307D02*
D03*
Y112000D02*
D03*
X315000D02*
D03*
Y105307D02*
D03*
X330400Y197654D02*
D03*
Y204346D02*
D03*
X347900Y197654D02*
D03*
Y204346D02*
D03*
X341900Y143500D02*
D03*
Y150193D02*
D03*
X101100Y360707D02*
D03*
Y367400D02*
D03*
X108100D02*
D03*
Y360707D02*
D03*
X123500Y453054D02*
D03*
Y459747D02*
D03*
X141000Y453054D02*
D03*
Y459747D02*
D03*
X135000Y398900D02*
D03*
Y405593D02*
D03*
X308000Y360707D02*
D03*
Y367400D02*
D03*
X315000D02*
D03*
Y360707D02*
D03*
X330400Y453054D02*
D03*
Y459747D02*
D03*
X347900Y453054D02*
D03*
Y459747D02*
D03*
X341900Y398900D02*
D03*
Y405593D02*
D03*
D44*
X115827Y155965D02*
D03*
X113858D02*
D03*
X111890D02*
D03*
X109921D02*
D03*
X107953D02*
D03*
X105984D02*
D03*
X104016D02*
D03*
X102047D02*
D03*
X100079D02*
D03*
X98110D02*
D03*
X96142D02*
D03*
X94173D02*
D03*
Y189035D02*
D03*
X96142D02*
D03*
X98110D02*
D03*
X100079D02*
D03*
X102047D02*
D03*
X104016D02*
D03*
X105984D02*
D03*
X107953D02*
D03*
X109921D02*
D03*
X111890D02*
D03*
X113858D02*
D03*
X115827D02*
D03*
X322727Y155965D02*
D03*
X320758D02*
D03*
X318790D02*
D03*
X316821D02*
D03*
X314853D02*
D03*
X312884D02*
D03*
X310916D02*
D03*
X308947D02*
D03*
X306979D02*
D03*
X305010D02*
D03*
X303042D02*
D03*
X301073D02*
D03*
Y189035D02*
D03*
X303042D02*
D03*
X305010D02*
D03*
X306979D02*
D03*
X308947D02*
D03*
X310916D02*
D03*
X312884D02*
D03*
X314853D02*
D03*
X316821D02*
D03*
X318790D02*
D03*
X320758D02*
D03*
X322727D02*
D03*
X115827Y411365D02*
D03*
X113858D02*
D03*
X111890D02*
D03*
X109921D02*
D03*
X107953D02*
D03*
X105984D02*
D03*
X104016D02*
D03*
X102047D02*
D03*
X100079D02*
D03*
X98110D02*
D03*
X96142D02*
D03*
X94173D02*
D03*
Y444436D02*
D03*
X96142D02*
D03*
X98110D02*
D03*
X100079D02*
D03*
X102047D02*
D03*
X104016D02*
D03*
X105984D02*
D03*
X107953D02*
D03*
X109921D02*
D03*
X111890D02*
D03*
X113858D02*
D03*
X115827D02*
D03*
X322727Y411365D02*
D03*
X320758D02*
D03*
X318790D02*
D03*
X316821D02*
D03*
X314853D02*
D03*
X312884D02*
D03*
X310916D02*
D03*
X308947D02*
D03*
X306979D02*
D03*
X305010D02*
D03*
X303042D02*
D03*
X301073D02*
D03*
Y444436D02*
D03*
X303042D02*
D03*
X305010D02*
D03*
X306979D02*
D03*
X308947D02*
D03*
X310916D02*
D03*
X312884D02*
D03*
X314853D02*
D03*
X316821D02*
D03*
X318790D02*
D03*
X320758D02*
D03*
X322727D02*
D03*
D45*
X88465Y161673D02*
D03*
Y163642D02*
D03*
Y165610D02*
D03*
Y167579D02*
D03*
Y169547D02*
D03*
Y171516D02*
D03*
Y173484D02*
D03*
Y175453D02*
D03*
Y177421D02*
D03*
Y179390D02*
D03*
Y181358D02*
D03*
Y183327D02*
D03*
X121535D02*
D03*
Y181358D02*
D03*
Y179390D02*
D03*
Y177421D02*
D03*
Y175453D02*
D03*
Y173484D02*
D03*
Y171516D02*
D03*
Y169547D02*
D03*
Y167579D02*
D03*
Y165610D02*
D03*
Y163642D02*
D03*
Y161673D02*
D03*
X295365D02*
D03*
Y163642D02*
D03*
Y165610D02*
D03*
Y167579D02*
D03*
Y169547D02*
D03*
Y171516D02*
D03*
Y173484D02*
D03*
Y175453D02*
D03*
Y177421D02*
D03*
Y179390D02*
D03*
Y181358D02*
D03*
Y183327D02*
D03*
X328435D02*
D03*
Y181358D02*
D03*
Y179390D02*
D03*
Y177421D02*
D03*
Y175453D02*
D03*
Y173484D02*
D03*
Y171516D02*
D03*
Y169547D02*
D03*
Y167579D02*
D03*
Y165610D02*
D03*
Y163642D02*
D03*
Y161673D02*
D03*
X88465Y417073D02*
D03*
Y419042D02*
D03*
Y421010D02*
D03*
Y422979D02*
D03*
Y424947D02*
D03*
Y426916D02*
D03*
Y428884D02*
D03*
Y430853D02*
D03*
Y432821D02*
D03*
Y434790D02*
D03*
Y436758D02*
D03*
Y438727D02*
D03*
X121535D02*
D03*
Y436758D02*
D03*
Y434790D02*
D03*
Y432821D02*
D03*
Y430853D02*
D03*
Y428884D02*
D03*
Y426916D02*
D03*
Y424947D02*
D03*
Y422979D02*
D03*
Y421010D02*
D03*
Y419042D02*
D03*
Y417073D02*
D03*
X295365D02*
D03*
Y419042D02*
D03*
Y421010D02*
D03*
Y422979D02*
D03*
Y424947D02*
D03*
Y426916D02*
D03*
Y428884D02*
D03*
Y430853D02*
D03*
Y432821D02*
D03*
Y434790D02*
D03*
Y436758D02*
D03*
Y438727D02*
D03*
X328435D02*
D03*
Y436758D02*
D03*
Y434790D02*
D03*
Y432821D02*
D03*
Y430853D02*
D03*
Y428884D02*
D03*
Y426916D02*
D03*
Y424947D02*
D03*
Y422979D02*
D03*
Y421010D02*
D03*
Y419042D02*
D03*
Y417073D02*
D03*
D46*
X74488Y179500D02*
D03*
X80000D02*
D03*
X98412Y135600D02*
D03*
X92900D02*
D03*
X74488Y149500D02*
D03*
X80000D02*
D03*
X80012Y171500D02*
D03*
X74500D02*
D03*
X97588Y120000D02*
D03*
X103100D02*
D03*
X111100D02*
D03*
X116612D02*
D03*
X281388Y179500D02*
D03*
X286900D02*
D03*
X305312Y135600D02*
D03*
X299800D02*
D03*
X281388Y149500D02*
D03*
X286900D02*
D03*
X286912Y171500D02*
D03*
X281400D02*
D03*
X304488Y120000D02*
D03*
X310000D02*
D03*
X318000D02*
D03*
X323512D02*
D03*
X74488Y434900D02*
D03*
X80000D02*
D03*
X98412Y391000D02*
D03*
X92900D02*
D03*
X74488Y404900D02*
D03*
X80000D02*
D03*
X80012Y426900D02*
D03*
X74500D02*
D03*
X97588Y375400D02*
D03*
X103100D02*
D03*
X111100D02*
D03*
X116612D02*
D03*
X281388Y434900D02*
D03*
X286900D02*
D03*
X305312Y391000D02*
D03*
X299800D02*
D03*
X281388Y404900D02*
D03*
X286900D02*
D03*
X286912Y426900D02*
D03*
X281400D02*
D03*
X304488Y375400D02*
D03*
X310000D02*
D03*
X318000D02*
D03*
X323512D02*
D03*
D47*
X105500Y198244D02*
D03*
Y203756D02*
D03*
X132500D02*
D03*
Y198244D02*
D03*
X165500Y172244D02*
D03*
Y177756D02*
D03*
X173500D02*
D03*
Y172244D02*
D03*
X97000Y203756D02*
D03*
Y198244D02*
D03*
X136500Y177244D02*
D03*
Y182756D02*
D03*
X312400Y198244D02*
D03*
Y203756D02*
D03*
X339400D02*
D03*
Y198244D02*
D03*
X372400Y172244D02*
D03*
Y177756D02*
D03*
X380400D02*
D03*
Y172244D02*
D03*
X303900Y203756D02*
D03*
Y198244D02*
D03*
X343400Y177244D02*
D03*
Y182756D02*
D03*
X105500Y453644D02*
D03*
Y459156D02*
D03*
X132500D02*
D03*
Y453644D02*
D03*
X165500Y427644D02*
D03*
Y433156D02*
D03*
X173500D02*
D03*
Y427644D02*
D03*
X97000Y459156D02*
D03*
Y453644D02*
D03*
X136500Y432644D02*
D03*
Y438156D02*
D03*
X312400Y453644D02*
D03*
Y459156D02*
D03*
X339400D02*
D03*
Y453644D02*
D03*
X372400Y427644D02*
D03*
Y433156D02*
D03*
X380400D02*
D03*
Y427644D02*
D03*
X303900Y459156D02*
D03*
Y453644D02*
D03*
X343400Y432644D02*
D03*
Y438156D02*
D03*
D48*
X419874Y516374D02*
D03*
Y-7874D02*
D03*
X-7874D02*
D03*
X-7874Y516374D02*
D03*
D49*
X98000Y37800D02*
D03*
X28000Y237800D02*
D03*
X178000D02*
D03*
X304900Y37800D02*
D03*
X234900Y237800D02*
D03*
X384900D02*
D03*
X98000Y293200D02*
D03*
X28000Y493200D02*
D03*
X178000D02*
D03*
X304900Y293200D02*
D03*
X234900Y493200D02*
D03*
X384900D02*
D03*
D50*
X8000Y217800D02*
D03*
X198000D02*
D03*
X214900D02*
D03*
X404900D02*
D03*
X8000Y473200D02*
D03*
X198000D02*
D03*
X214900D02*
D03*
X404900D02*
D03*
D51*
X8000Y207800D02*
D03*
Y197800D02*
D03*
Y187800D02*
D03*
Y177800D02*
D03*
Y167800D02*
D03*
Y157800D02*
D03*
Y147800D02*
D03*
Y137800D02*
D03*
Y127800D02*
D03*
Y117800D02*
D03*
Y107800D02*
D03*
Y97800D02*
D03*
Y87800D02*
D03*
Y77800D02*
D03*
Y67800D02*
D03*
Y57800D02*
D03*
Y47800D02*
D03*
Y37800D02*
D03*
Y27800D02*
D03*
X198000Y207800D02*
D03*
Y197800D02*
D03*
Y187800D02*
D03*
Y177800D02*
D03*
Y167800D02*
D03*
Y157800D02*
D03*
Y147800D02*
D03*
Y137800D02*
D03*
Y127800D02*
D03*
Y117800D02*
D03*
Y107800D02*
D03*
Y97800D02*
D03*
Y87800D02*
D03*
Y77800D02*
D03*
Y67800D02*
D03*
Y57800D02*
D03*
Y47800D02*
D03*
Y37800D02*
D03*
Y27800D02*
D03*
X214900Y207800D02*
D03*
Y197800D02*
D03*
Y187800D02*
D03*
Y177800D02*
D03*
Y167800D02*
D03*
Y157800D02*
D03*
Y147800D02*
D03*
Y137800D02*
D03*
Y127800D02*
D03*
Y117800D02*
D03*
Y107800D02*
D03*
Y97800D02*
D03*
Y87800D02*
D03*
Y77800D02*
D03*
Y67800D02*
D03*
Y57800D02*
D03*
Y47800D02*
D03*
Y37800D02*
D03*
Y27800D02*
D03*
X404900Y207800D02*
D03*
Y197800D02*
D03*
Y187800D02*
D03*
Y177800D02*
D03*
Y167800D02*
D03*
Y157800D02*
D03*
Y147800D02*
D03*
Y137800D02*
D03*
Y127800D02*
D03*
Y117800D02*
D03*
Y107800D02*
D03*
Y97800D02*
D03*
Y87800D02*
D03*
Y77800D02*
D03*
Y67800D02*
D03*
Y57800D02*
D03*
Y47800D02*
D03*
Y37800D02*
D03*
Y27800D02*
D03*
X8000Y463200D02*
D03*
Y453200D02*
D03*
Y443200D02*
D03*
Y433200D02*
D03*
Y423200D02*
D03*
Y413200D02*
D03*
Y403200D02*
D03*
Y393200D02*
D03*
Y383200D02*
D03*
Y373200D02*
D03*
Y363200D02*
D03*
Y353200D02*
D03*
Y343200D02*
D03*
Y333200D02*
D03*
Y323200D02*
D03*
Y313200D02*
D03*
Y303200D02*
D03*
Y293200D02*
D03*
Y283200D02*
D03*
X198000Y463200D02*
D03*
Y453200D02*
D03*
Y443200D02*
D03*
Y433200D02*
D03*
Y423200D02*
D03*
Y413200D02*
D03*
Y403200D02*
D03*
Y393200D02*
D03*
Y383200D02*
D03*
Y373200D02*
D03*
Y363200D02*
D03*
Y353200D02*
D03*
Y343200D02*
D03*
Y333200D02*
D03*
Y323200D02*
D03*
Y313200D02*
D03*
Y303200D02*
D03*
Y293200D02*
D03*
Y283200D02*
D03*
X214900Y463200D02*
D03*
Y453200D02*
D03*
Y443200D02*
D03*
Y433200D02*
D03*
Y423200D02*
D03*
Y413200D02*
D03*
Y403200D02*
D03*
Y393200D02*
D03*
Y383200D02*
D03*
Y373200D02*
D03*
Y363200D02*
D03*
Y353200D02*
D03*
Y343200D02*
D03*
Y333200D02*
D03*
Y323200D02*
D03*
Y313200D02*
D03*
Y303200D02*
D03*
Y293200D02*
D03*
Y283200D02*
D03*
X404900Y463200D02*
D03*
Y453200D02*
D03*
Y443200D02*
D03*
Y433200D02*
D03*
Y423200D02*
D03*
Y413200D02*
D03*
Y403200D02*
D03*
Y393200D02*
D03*
Y383200D02*
D03*
Y373200D02*
D03*
Y363200D02*
D03*
Y353200D02*
D03*
Y343200D02*
D03*
Y333200D02*
D03*
Y323200D02*
D03*
Y313200D02*
D03*
Y303200D02*
D03*
Y293200D02*
D03*
Y283200D02*
D03*
D52*
X8000Y7800D02*
D03*
X214900D02*
D03*
X8000Y263200D02*
D03*
X214900D02*
D03*
D53*
X18000Y7800D02*
D03*
X28000D02*
D03*
X38000D02*
D03*
X48000D02*
D03*
X58000D02*
D03*
X68000D02*
D03*
X78000D02*
D03*
X88000D02*
D03*
X98000D02*
D03*
X108000D02*
D03*
X118000D02*
D03*
X128000D02*
D03*
X138000D02*
D03*
X148000D02*
D03*
X158000D02*
D03*
X168000D02*
D03*
X178000D02*
D03*
X188000D02*
D03*
X198000D02*
D03*
X224900D02*
D03*
X234900D02*
D03*
X244900D02*
D03*
X254900D02*
D03*
X264900D02*
D03*
X274900D02*
D03*
X284900D02*
D03*
X294900D02*
D03*
X304900D02*
D03*
X314900D02*
D03*
X324900D02*
D03*
X334900D02*
D03*
X344900D02*
D03*
X354900D02*
D03*
X364900D02*
D03*
X374900D02*
D03*
X384900D02*
D03*
X394900D02*
D03*
X404900D02*
D03*
X18000Y263200D02*
D03*
X28000D02*
D03*
X38000D02*
D03*
X48000D02*
D03*
X58000D02*
D03*
X68000D02*
D03*
X78000D02*
D03*
X88000D02*
D03*
X98000D02*
D03*
X108000D02*
D03*
X118000D02*
D03*
X128000D02*
D03*
X138000D02*
D03*
X148000D02*
D03*
X158000D02*
D03*
X168000D02*
D03*
X178000D02*
D03*
X188000D02*
D03*
X198000D02*
D03*
X224900D02*
D03*
X234900D02*
D03*
X244900D02*
D03*
X254900D02*
D03*
X264900D02*
D03*
X274900D02*
D03*
X284900D02*
D03*
X294900D02*
D03*
X304900D02*
D03*
X314900D02*
D03*
X324900D02*
D03*
X334900D02*
D03*
X344900D02*
D03*
X354900D02*
D03*
X364900D02*
D03*
X374900D02*
D03*
X384900D02*
D03*
X394900D02*
D03*
X404900D02*
D03*
D54*
X96864Y78000D02*
D03*
X99423Y74063D02*
D03*
X101982Y78000D02*
D03*
X107100D02*
D03*
X104541Y74063D02*
D03*
X303764Y78000D02*
D03*
X306323Y74063D02*
D03*
X308882Y78000D02*
D03*
X314000D02*
D03*
X311441Y74063D02*
D03*
X96864Y333400D02*
D03*
X99423Y329463D02*
D03*
X101982Y333400D02*
D03*
X107100D02*
D03*
X104541Y329463D02*
D03*
X303764Y333400D02*
D03*
X306323Y329463D02*
D03*
X308882Y333400D02*
D03*
X314000D02*
D03*
X311441Y329463D02*
D03*
D55*
X87907Y77134D02*
D03*
X116057D02*
D03*
X294807D02*
D03*
X322957D02*
D03*
X87907Y332534D02*
D03*
X116057D02*
D03*
X294807D02*
D03*
X322957D02*
D03*
M02*
