G04 Layer_Color=8388736*
%FSLAX25Y25*%
%MOIN*%
G70*
G01*
G75*
%ADD17C,0.01000*%
%ADD32R,0.07087X0.06299*%
%ADD33R,0.10236X0.06299*%
%ADD34R,0.04540X0.03753*%
%ADD35R,0.03300X0.05800*%
%ADD36R,0.03753X0.04540*%
%ADD37R,0.01981X0.05524*%
%ADD38R,0.05524X0.01981*%
G04:AMPARAMS|DCode=39|XSize=47.37mil|YSize=43.43mil|CornerRadius=8.43mil|HoleSize=0mil|Usage=FLASHONLY|Rotation=90.000|XOffset=0mil|YOffset=0mil|HoleType=Round|Shape=RoundedRectangle|*
%AMROUNDEDRECTD39*
21,1,0.04737,0.02657,0,0,90.0*
21,1,0.03051,0.04343,0,0,90.0*
1,1,0.01686,0.01329,0.01526*
1,1,0.01686,0.01329,-0.01526*
1,1,0.01686,-0.01329,-0.01526*
1,1,0.01686,-0.01329,0.01526*
%
%ADD39ROUNDEDRECTD39*%
G04:AMPARAMS|DCode=40|XSize=47.37mil|YSize=43.43mil|CornerRadius=8.43mil|HoleSize=0mil|Usage=FLASHONLY|Rotation=0.000|XOffset=0mil|YOffset=0mil|HoleType=Round|Shape=RoundedRectangle|*
%AMROUNDEDRECTD40*
21,1,0.04737,0.02657,0,0,0.0*
21,1,0.03051,0.04343,0,0,0.0*
1,1,0.01686,0.01526,-0.01329*
1,1,0.01686,-0.01526,-0.01329*
1,1,0.01686,-0.01526,0.01329*
1,1,0.01686,0.01526,0.01329*
%
%ADD40ROUNDEDRECTD40*%
%ADD41C,0.25800*%
%ADD42R,0.11800X0.06800*%
%ADD43O,0.11800X0.06800*%
%ADD44R,0.06800X0.11800*%
%ADD45O,0.06800X0.11800*%
D17*
X266500Y110000D02*
Y364500D01*
X472500D01*
Y110000D02*
Y364500D01*
X266500Y110000D02*
X472500D01*
D32*
X329500Y253000D02*
D03*
X405378Y311000D02*
D03*
D33*
X434304Y232500D02*
D03*
X367453Y311000D02*
D03*
D34*
X303500Y147744D02*
D03*
Y153256D02*
D03*
X432000Y307756D02*
D03*
Y302244D02*
D03*
X440000Y307756D02*
D03*
Y302244D02*
D03*
X383000Y229256D02*
D03*
Y223744D02*
D03*
X339000Y242756D02*
D03*
Y237244D02*
D03*
X443000Y193500D02*
D03*
Y187988D02*
D03*
D35*
X327878Y253000D02*
D03*
X331122D02*
D03*
X437500Y232500D02*
D03*
X434257D02*
D03*
X431012D02*
D03*
X364257Y311000D02*
D03*
X367500D02*
D03*
X370744D02*
D03*
X403757D02*
D03*
X407000D02*
D03*
D36*
X332756Y294500D02*
D03*
X327244D02*
D03*
X379244Y301000D02*
D03*
X384756D02*
D03*
X407744Y275000D02*
D03*
X413256D02*
D03*
D37*
X382764Y243362D02*
D03*
X380795D02*
D03*
X378827D02*
D03*
X376858D02*
D03*
X374890D02*
D03*
X372921D02*
D03*
X370953D02*
D03*
X368984D02*
D03*
X367016D02*
D03*
X365047D02*
D03*
X363079D02*
D03*
X361110D02*
D03*
X359142D02*
D03*
X357173D02*
D03*
X355205D02*
D03*
X353236D02*
D03*
Y288638D02*
D03*
X355205D02*
D03*
X357173D02*
D03*
X359142D02*
D03*
X361110D02*
D03*
X363079D02*
D03*
X365047D02*
D03*
X367016D02*
D03*
X368984D02*
D03*
X370953D02*
D03*
X372921D02*
D03*
X374890D02*
D03*
X376858D02*
D03*
X378827D02*
D03*
X380795D02*
D03*
X382764D02*
D03*
D38*
X345362Y251236D02*
D03*
Y253205D02*
D03*
Y255173D02*
D03*
Y257142D02*
D03*
Y259110D02*
D03*
Y261079D02*
D03*
Y263047D02*
D03*
Y265016D02*
D03*
Y266984D02*
D03*
Y268953D02*
D03*
Y270921D02*
D03*
Y272890D02*
D03*
Y274858D02*
D03*
Y276827D02*
D03*
Y278795D02*
D03*
Y280764D02*
D03*
X390638D02*
D03*
Y278795D02*
D03*
Y276827D02*
D03*
Y274858D02*
D03*
Y272890D02*
D03*
Y270921D02*
D03*
Y268953D02*
D03*
Y266984D02*
D03*
Y265016D02*
D03*
Y263047D02*
D03*
Y261079D02*
D03*
Y259110D02*
D03*
Y257142D02*
D03*
Y255173D02*
D03*
Y253205D02*
D03*
Y251236D02*
D03*
D39*
X398153Y159000D02*
D03*
X404846D02*
D03*
X307347Y308000D02*
D03*
X300654D02*
D03*
D40*
X374000Y207347D02*
D03*
Y200654D02*
D03*
X421500Y317347D02*
D03*
Y310653D02*
D03*
D41*
X364500Y148000D02*
D03*
X294500Y348000D02*
D03*
X444500D02*
D03*
D42*
X274500Y328000D02*
D03*
X464500D02*
D03*
D43*
X274500Y318000D02*
D03*
Y308000D02*
D03*
Y298000D02*
D03*
Y288000D02*
D03*
Y278000D02*
D03*
Y268000D02*
D03*
Y258000D02*
D03*
Y248000D02*
D03*
Y238000D02*
D03*
Y228000D02*
D03*
Y218000D02*
D03*
Y208000D02*
D03*
Y198000D02*
D03*
Y188000D02*
D03*
Y178000D02*
D03*
Y168000D02*
D03*
Y158000D02*
D03*
Y148000D02*
D03*
Y138000D02*
D03*
X464500Y318000D02*
D03*
Y308000D02*
D03*
Y298000D02*
D03*
Y288000D02*
D03*
Y278000D02*
D03*
Y268000D02*
D03*
Y258000D02*
D03*
Y248000D02*
D03*
Y238000D02*
D03*
Y228000D02*
D03*
Y218000D02*
D03*
Y208000D02*
D03*
Y198000D02*
D03*
Y188000D02*
D03*
Y178000D02*
D03*
Y168000D02*
D03*
Y158000D02*
D03*
Y148000D02*
D03*
Y138000D02*
D03*
D44*
X274500Y118000D02*
D03*
D45*
X284500D02*
D03*
X294500D02*
D03*
X304500D02*
D03*
X314500D02*
D03*
X324500D02*
D03*
X334500D02*
D03*
X344500D02*
D03*
X354500D02*
D03*
X364500D02*
D03*
X374500D02*
D03*
X384500D02*
D03*
X394500D02*
D03*
X404500D02*
D03*
X414500D02*
D03*
X424500D02*
D03*
X434500D02*
D03*
X444500D02*
D03*
X454500D02*
D03*
X464500D02*
D03*
M02*
