G04*
G04 #@! TF.GenerationSoftware,Altium Limited,Altium Designer,19.0.14 (431)*
G04*
G04 Layer_Color=8421504*
%FSLAX25Y25*%
%MOIN*%
G70*
G01*
G75*
%ADD15R,0.05531X0.05531*%
%ADD16O,0.01181X0.05512*%
%ADD17O,0.05512X0.01181*%
%ADD18R,0.03740X0.02953*%
G04:AMPARAMS|DCode=19|XSize=39.37mil|YSize=35.43mil|CornerRadius=4.43mil|HoleSize=0mil|Usage=FLASHONLY|Rotation=0.000|XOffset=0mil|YOffset=0mil|HoleType=Round|Shape=RoundedRectangle|*
%AMROUNDEDRECTD19*
21,1,0.03937,0.02657,0,0,0.0*
21,1,0.03051,0.03543,0,0,0.0*
1,1,0.00886,0.01526,-0.01329*
1,1,0.00886,-0.01526,-0.01329*
1,1,0.00886,-0.01526,0.01329*
1,1,0.00886,0.01526,0.01329*
%
%ADD19ROUNDEDRECTD19*%
%ADD20R,0.02953X0.03740*%
G04:AMPARAMS|DCode=21|XSize=39.37mil|YSize=35.43mil|CornerRadius=4.43mil|HoleSize=0mil|Usage=FLASHONLY|Rotation=270.000|XOffset=0mil|YOffset=0mil|HoleType=Round|Shape=RoundedRectangle|*
%AMROUNDEDRECTD21*
21,1,0.03937,0.02657,0,0,270.0*
21,1,0.03051,0.03543,0,0,270.0*
1,1,0.00886,-0.01329,-0.01526*
1,1,0.00886,-0.01329,0.01526*
1,1,0.00886,0.01329,0.01526*
1,1,0.00886,0.01329,-0.01526*
%
%ADD21ROUNDEDRECTD21*%
D15*
X100481Y152044D02*
D03*
Y158760D02*
D03*
X93764D02*
D03*
Y152044D02*
D03*
D16*
X120744Y125087D02*
D03*
X118776D02*
D03*
X116807D02*
D03*
X114839D02*
D03*
X112870D02*
D03*
X110902D02*
D03*
X108933D02*
D03*
X106965D02*
D03*
X104996D02*
D03*
X103028D02*
D03*
X101059D02*
D03*
X99090D02*
D03*
X97122D02*
D03*
X95153D02*
D03*
X93185D02*
D03*
X91216D02*
D03*
X89248D02*
D03*
X87279D02*
D03*
X85311D02*
D03*
X83342D02*
D03*
X81374D02*
D03*
X79405D02*
D03*
X77437D02*
D03*
X75468D02*
D03*
X73500D02*
D03*
Y185716D02*
D03*
X75468D02*
D03*
X77437D02*
D03*
X79405D02*
D03*
X81374D02*
D03*
X83342D02*
D03*
X85311D02*
D03*
X87279D02*
D03*
X89248D02*
D03*
X91216D02*
D03*
X93185D02*
D03*
X95153D02*
D03*
X97122D02*
D03*
X99090D02*
D03*
X101059D02*
D03*
X103028D02*
D03*
X104996D02*
D03*
X106965D02*
D03*
X108933D02*
D03*
X110902D02*
D03*
X112870D02*
D03*
X114839D02*
D03*
X116807D02*
D03*
X118776D02*
D03*
X120744D02*
D03*
D17*
X66807Y131780D02*
D03*
Y133748D02*
D03*
Y135716D02*
D03*
Y137685D02*
D03*
Y139654D02*
D03*
Y141622D02*
D03*
Y143591D02*
D03*
Y145559D02*
D03*
Y147528D02*
D03*
Y149496D02*
D03*
Y151465D02*
D03*
Y153433D02*
D03*
Y155402D02*
D03*
Y157370D02*
D03*
Y159339D02*
D03*
Y161307D02*
D03*
Y163276D02*
D03*
Y165244D02*
D03*
Y167213D02*
D03*
Y169181D02*
D03*
Y171150D02*
D03*
Y173118D02*
D03*
Y175087D02*
D03*
Y177055D02*
D03*
Y179024D02*
D03*
X127437D02*
D03*
Y177055D02*
D03*
Y175087D02*
D03*
Y173118D02*
D03*
Y171150D02*
D03*
Y169181D02*
D03*
Y167213D02*
D03*
Y165244D02*
D03*
Y163276D02*
D03*
Y161307D02*
D03*
Y159339D02*
D03*
Y157370D02*
D03*
Y155402D02*
D03*
Y153433D02*
D03*
Y151465D02*
D03*
Y149496D02*
D03*
Y147528D02*
D03*
Y145559D02*
D03*
Y143591D02*
D03*
Y141622D02*
D03*
Y139654D02*
D03*
Y137685D02*
D03*
Y135716D02*
D03*
Y133748D02*
D03*
Y131780D02*
D03*
D18*
X127000Y102744D02*
D03*
Y108256D02*
D03*
X116500Y102744D02*
D03*
Y108256D02*
D03*
X109500D02*
D03*
Y102744D02*
D03*
X90000Y108256D02*
D03*
Y102744D02*
D03*
X74000Y108256D02*
D03*
Y102744D02*
D03*
X155000Y204756D02*
D03*
Y199244D02*
D03*
X146000Y204756D02*
D03*
Y199244D02*
D03*
X137000Y204756D02*
D03*
Y199244D02*
D03*
X111295Y205213D02*
D03*
Y210724D02*
D03*
X102500Y205500D02*
D03*
Y211012D02*
D03*
X85500Y194744D02*
D03*
Y200256D02*
D03*
X77000Y194744D02*
D03*
Y200256D02*
D03*
D19*
X62500Y101654D02*
D03*
Y108346D02*
D03*
X51000Y210154D02*
D03*
Y216846D02*
D03*
D20*
X137244Y159500D02*
D03*
X142756D02*
D03*
X142256Y174299D02*
D03*
X136744D02*
D03*
X109902Y199000D02*
D03*
X104390D02*
D03*
X53244Y179000D02*
D03*
X58756D02*
D03*
X56256Y155500D02*
D03*
X50744D02*
D03*
X51244Y125000D02*
D03*
X56756D02*
D03*
D21*
X152847Y181000D02*
D03*
X146153D02*
D03*
X120153Y204756D02*
D03*
X126847D02*
D03*
X44346Y178500D02*
D03*
X37654D02*
D03*
X44346Y198000D02*
D03*
X37653D02*
D03*
M02*
