G04*
G04 #@! TF.GenerationSoftware,Altium Limited,Altium Designer,18.1.7 (191)*
G04*
G04 Layer_Color=32896*
%FSLAX25Y25*%
%MOIN*%
G70*
G01*
G75*
%ADD13C,0.01000*%
G36*
X83300Y237100D02*
X84900D01*
Y236300D01*
X86500D01*
Y235500D01*
Y234700D01*
X88100D01*
Y233900D01*
Y233100D01*
X88900D01*
Y232300D01*
Y231500D01*
Y230700D01*
X89700D01*
Y229900D01*
Y229100D01*
Y228300D01*
Y227500D01*
Y226700D01*
Y225900D01*
Y225100D01*
Y224300D01*
Y223500D01*
Y222700D01*
Y221900D01*
Y221100D01*
Y220300D01*
Y219500D01*
Y218700D01*
Y217900D01*
Y217100D01*
Y216300D01*
Y215500D01*
Y214700D01*
Y213900D01*
Y213100D01*
Y212300D01*
Y211500D01*
Y210700D01*
Y209900D01*
Y209100D01*
Y208300D01*
Y207500D01*
Y206700D01*
Y205900D01*
Y205100D01*
Y204300D01*
Y203500D01*
Y202700D01*
Y201900D01*
Y201100D01*
Y200300D01*
Y199500D01*
Y198700D01*
Y197900D01*
Y197100D01*
Y196300D01*
Y195500D01*
Y194700D01*
Y193900D01*
Y193100D01*
Y192300D01*
Y191500D01*
Y190700D01*
Y189900D01*
Y189100D01*
Y188300D01*
Y187500D01*
Y186700D01*
Y185900D01*
Y185100D01*
Y184300D01*
Y183500D01*
Y182700D01*
Y181900D01*
Y181100D01*
Y180300D01*
Y179500D01*
Y178700D01*
Y177900D01*
Y177100D01*
Y176300D01*
Y175500D01*
Y174700D01*
Y173900D01*
Y173100D01*
Y172300D01*
Y171500D01*
Y170700D01*
Y169900D01*
Y169100D01*
Y168300D01*
Y167500D01*
Y166700D01*
Y165900D01*
Y165100D01*
Y164300D01*
Y163500D01*
Y162700D01*
Y161900D01*
Y161100D01*
Y160300D01*
Y159500D01*
Y158700D01*
Y157900D01*
Y157100D01*
Y156300D01*
Y155500D01*
Y154700D01*
Y153900D01*
Y153100D01*
Y152300D01*
Y151500D01*
Y150700D01*
Y149900D01*
Y149100D01*
Y148300D01*
Y147500D01*
Y146700D01*
Y145900D01*
Y145100D01*
Y144300D01*
Y143500D01*
Y142700D01*
Y141900D01*
Y141100D01*
Y140300D01*
Y139500D01*
Y138700D01*
Y137900D01*
Y137100D01*
Y136300D01*
Y135500D01*
Y134700D01*
Y133900D01*
Y133100D01*
Y132300D01*
Y131500D01*
Y130700D01*
Y129900D01*
Y129100D01*
Y128300D01*
Y127500D01*
Y126700D01*
Y125900D01*
Y125100D01*
Y124300D01*
Y123500D01*
Y122700D01*
Y121900D01*
Y121100D01*
Y120300D01*
X91300D01*
Y119500D01*
X92100D01*
Y120300D01*
X92900D01*
Y121100D01*
Y121900D01*
Y122700D01*
Y123500D01*
Y124300D01*
Y125100D01*
Y125900D01*
Y126700D01*
Y127500D01*
Y128300D01*
Y129100D01*
Y129900D01*
Y130700D01*
Y131500D01*
Y132300D01*
Y133100D01*
Y133900D01*
Y134700D01*
Y135500D01*
Y136300D01*
Y137100D01*
Y137900D01*
Y138700D01*
Y139500D01*
Y140300D01*
Y141100D01*
Y141900D01*
Y142700D01*
Y143500D01*
Y144300D01*
Y145100D01*
Y145900D01*
Y146700D01*
Y147500D01*
Y148300D01*
Y149100D01*
Y149900D01*
Y150700D01*
Y151500D01*
Y152300D01*
Y153100D01*
Y153900D01*
Y154700D01*
Y155500D01*
Y156300D01*
Y157100D01*
Y157900D01*
Y158700D01*
Y159500D01*
Y160300D01*
Y161100D01*
Y161900D01*
Y162700D01*
Y163500D01*
Y164300D01*
Y165100D01*
Y165900D01*
Y166700D01*
Y167500D01*
Y168300D01*
Y169100D01*
Y169900D01*
Y170700D01*
Y171500D01*
Y172300D01*
Y173100D01*
Y173900D01*
Y174700D01*
Y175500D01*
Y176300D01*
Y177100D01*
Y177900D01*
Y178700D01*
Y179500D01*
Y180300D01*
Y181100D01*
Y181900D01*
Y182700D01*
Y183500D01*
Y184300D01*
Y185100D01*
Y185900D01*
Y186700D01*
Y187500D01*
Y188300D01*
Y189100D01*
Y189900D01*
Y190700D01*
Y191500D01*
Y192300D01*
Y193100D01*
Y193900D01*
Y194700D01*
Y195500D01*
Y196300D01*
Y197100D01*
Y197900D01*
Y198700D01*
Y199500D01*
Y200300D01*
Y201100D01*
Y201900D01*
Y202700D01*
Y203500D01*
Y204300D01*
Y205100D01*
X93700D01*
Y205900D01*
Y206700D01*
Y207500D01*
Y208300D01*
X94500D01*
Y209100D01*
Y209900D01*
X95300D01*
Y210700D01*
X96100D01*
Y211500D01*
X96900D01*
Y212300D01*
X97700D01*
Y213100D01*
X99300D01*
Y213900D01*
X105700D01*
Y213100D01*
X107300D01*
Y212300D01*
X108900D01*
Y211500D01*
X109700D01*
Y210700D01*
X110500D01*
Y209900D01*
Y209100D01*
X111300D01*
Y208300D01*
Y207500D01*
X112100D01*
Y206700D01*
Y205900D01*
Y205100D01*
Y204300D01*
Y203500D01*
Y202700D01*
Y201900D01*
Y201100D01*
Y200300D01*
Y199500D01*
Y198700D01*
Y197900D01*
Y197100D01*
Y196300D01*
Y195500D01*
Y194700D01*
Y193900D01*
Y193100D01*
Y192300D01*
Y191500D01*
Y190700D01*
Y189900D01*
Y189100D01*
Y188300D01*
Y187500D01*
Y186700D01*
Y185900D01*
Y185100D01*
Y184300D01*
Y183500D01*
Y182700D01*
Y181900D01*
Y181100D01*
Y180300D01*
Y179500D01*
Y178700D01*
Y177900D01*
Y177100D01*
Y176300D01*
Y175500D01*
Y174700D01*
Y173900D01*
Y173100D01*
Y172300D01*
Y171500D01*
Y170700D01*
Y169900D01*
Y169100D01*
Y168300D01*
Y167500D01*
Y166700D01*
Y165900D01*
Y165100D01*
Y164300D01*
Y163500D01*
Y162700D01*
Y161900D01*
Y161100D01*
Y160300D01*
Y159500D01*
Y158700D01*
Y157900D01*
Y157100D01*
Y156300D01*
Y155500D01*
Y154700D01*
Y153900D01*
Y153100D01*
Y152300D01*
Y151500D01*
Y150700D01*
Y149900D01*
Y149100D01*
Y148300D01*
Y147500D01*
Y146700D01*
Y145900D01*
Y145100D01*
Y144300D01*
Y143500D01*
Y142700D01*
Y141900D01*
Y141100D01*
Y140300D01*
Y139500D01*
Y138700D01*
Y137900D01*
Y137100D01*
Y136300D01*
Y135500D01*
Y134700D01*
Y133900D01*
Y133100D01*
Y132300D01*
Y131500D01*
Y130700D01*
Y129900D01*
Y129100D01*
Y128300D01*
Y127500D01*
Y126700D01*
Y125900D01*
Y125100D01*
Y124300D01*
Y123500D01*
Y122700D01*
Y121900D01*
Y121100D01*
Y120300D01*
X113700D01*
Y119500D01*
X115300D01*
Y120300D01*
X116100D01*
Y121100D01*
Y121900D01*
Y122700D01*
Y123500D01*
Y124300D01*
Y125100D01*
Y125900D01*
Y126700D01*
Y127500D01*
Y128300D01*
Y129100D01*
Y129900D01*
Y130700D01*
Y131500D01*
Y132300D01*
Y133100D01*
Y133900D01*
Y134700D01*
Y135500D01*
Y136300D01*
Y137100D01*
Y137900D01*
Y138700D01*
Y139500D01*
Y140300D01*
Y141100D01*
Y141900D01*
Y142700D01*
Y143500D01*
Y144300D01*
Y145100D01*
Y145900D01*
Y146700D01*
Y147500D01*
Y148300D01*
Y149100D01*
Y149900D01*
Y150700D01*
Y151500D01*
Y152300D01*
Y153100D01*
Y153900D01*
Y154700D01*
Y155500D01*
Y156300D01*
Y157100D01*
Y157900D01*
Y158700D01*
Y159500D01*
Y160300D01*
Y161100D01*
Y161900D01*
Y162700D01*
Y163500D01*
Y164300D01*
Y165100D01*
Y165900D01*
Y166700D01*
Y167500D01*
Y168300D01*
Y169100D01*
Y169900D01*
Y170700D01*
Y171500D01*
Y172300D01*
Y173100D01*
Y173900D01*
Y174700D01*
Y175500D01*
Y176300D01*
Y177100D01*
Y177900D01*
Y178700D01*
Y179500D01*
Y180300D01*
Y181100D01*
Y181900D01*
Y182700D01*
X116900D01*
Y183500D01*
Y184300D01*
Y185100D01*
X117700D01*
Y185900D01*
X118500D01*
Y186700D01*
X119300D01*
Y187500D01*
X120900D01*
Y188300D01*
X121700D01*
Y189100D01*
X129700D01*
Y188300D01*
X130500D01*
Y187500D01*
X132100D01*
Y186700D01*
X132900D01*
Y185900D01*
X133700D01*
Y185100D01*
Y184300D01*
X134500D01*
Y183500D01*
Y182700D01*
X135300D01*
Y181900D01*
Y181100D01*
Y180300D01*
Y179500D01*
Y178700D01*
Y177900D01*
Y177100D01*
Y176300D01*
Y175500D01*
Y174700D01*
Y173900D01*
Y173100D01*
Y172300D01*
Y171500D01*
Y170700D01*
Y169900D01*
Y169100D01*
Y168300D01*
Y167500D01*
Y166700D01*
Y165900D01*
Y165100D01*
Y164300D01*
Y163500D01*
Y162700D01*
Y161900D01*
Y161100D01*
Y160300D01*
Y159500D01*
Y158700D01*
Y157900D01*
Y157100D01*
Y156300D01*
Y155500D01*
Y154700D01*
Y153900D01*
Y153100D01*
Y152300D01*
Y151500D01*
Y150700D01*
Y149900D01*
Y149100D01*
Y148300D01*
Y147500D01*
Y146700D01*
Y145900D01*
Y145100D01*
Y144300D01*
Y143500D01*
Y142700D01*
Y141900D01*
Y141100D01*
Y140300D01*
Y139500D01*
Y138700D01*
Y137900D01*
Y137100D01*
Y136300D01*
Y135500D01*
Y134700D01*
Y133900D01*
Y133100D01*
Y132300D01*
Y131500D01*
Y130700D01*
Y129900D01*
Y129100D01*
Y128300D01*
Y127500D01*
Y126700D01*
Y125900D01*
Y125100D01*
Y124300D01*
Y123500D01*
Y122700D01*
Y121900D01*
Y121100D01*
Y120300D01*
X136100D01*
Y119500D01*
X138500D01*
Y120300D01*
X139300D01*
Y121100D01*
Y121900D01*
Y122700D01*
Y123500D01*
Y124300D01*
Y125100D01*
Y125900D01*
Y126700D01*
Y127500D01*
Y128300D01*
Y129100D01*
Y129900D01*
Y130700D01*
Y131500D01*
Y132300D01*
Y133100D01*
Y133900D01*
Y134700D01*
Y135500D01*
Y136300D01*
Y137100D01*
Y137900D01*
Y138700D01*
Y139500D01*
Y140300D01*
Y141100D01*
Y141900D01*
Y142700D01*
Y143500D01*
Y144300D01*
Y145100D01*
Y145900D01*
Y146700D01*
Y147500D01*
Y148300D01*
Y149100D01*
Y149900D01*
Y150700D01*
Y151500D01*
Y152300D01*
Y153100D01*
Y153900D01*
Y154700D01*
Y155500D01*
Y156300D01*
Y157100D01*
Y157900D01*
Y158700D01*
X140100D01*
Y159500D01*
Y160300D01*
X140900D01*
Y161100D01*
Y161900D01*
X141700D01*
Y162700D01*
X142500D01*
Y163500D01*
X144100D01*
Y164300D01*
X144900D01*
Y165100D01*
X152900D01*
Y164300D01*
X153700D01*
Y163500D01*
X155300D01*
Y162700D01*
Y161900D01*
X156100D01*
Y161100D01*
X156900D01*
Y160300D01*
Y159500D01*
X157700D01*
Y158700D01*
Y157900D01*
X158500D01*
Y157100D01*
Y156300D01*
Y155500D01*
Y154700D01*
Y153900D01*
Y153100D01*
Y152300D01*
Y151500D01*
Y150700D01*
Y149900D01*
Y149100D01*
Y148300D01*
Y147500D01*
Y146700D01*
Y145900D01*
Y145100D01*
Y144300D01*
Y143500D01*
Y142700D01*
Y141900D01*
Y141100D01*
Y140300D01*
Y139500D01*
Y138700D01*
Y137900D01*
Y137100D01*
Y136300D01*
Y135500D01*
Y134700D01*
Y133900D01*
Y133100D01*
Y132300D01*
Y131500D01*
Y130700D01*
Y129900D01*
Y129100D01*
Y128300D01*
Y127500D01*
Y126700D01*
Y125900D01*
Y125100D01*
Y124300D01*
Y123500D01*
Y122700D01*
Y121900D01*
Y121100D01*
X159300D01*
Y120300D01*
X160100D01*
Y119500D01*
Y118700D01*
X160900D01*
Y117900D01*
X161700D01*
Y117100D01*
X162500D01*
Y116300D01*
Y115500D01*
X163300D01*
Y114700D01*
X164100D01*
Y113900D01*
Y113100D01*
X164900D01*
Y112300D01*
X165700D01*
Y111500D01*
Y110700D01*
X166500D01*
Y109900D01*
X167300D01*
Y109100D01*
Y108300D01*
Y107500D01*
X168100D01*
Y106700D01*
X168900D01*
Y105900D01*
Y105100D01*
Y104300D01*
X169700D01*
Y103500D01*
Y102700D01*
X170500D01*
Y101900D01*
Y101100D01*
Y100300D01*
X171300D01*
Y99500D01*
Y98700D01*
Y97900D01*
Y97100D01*
X172100D01*
Y96300D01*
Y95500D01*
Y94700D01*
X172900D01*
Y93900D01*
Y93100D01*
Y92300D01*
Y91500D01*
Y90700D01*
Y89900D01*
Y89100D01*
Y88300D01*
Y87500D01*
X173700D01*
Y86700D01*
Y85900D01*
Y85100D01*
Y84300D01*
Y83500D01*
Y82700D01*
X172900D01*
Y81900D01*
Y81100D01*
X173700D01*
Y80300D01*
X174500D01*
Y79500D01*
Y78700D01*
Y77900D01*
X173700D01*
Y77100D01*
X172900D01*
Y76300D01*
X170500D01*
Y75500D01*
Y74700D01*
Y73900D01*
Y73100D01*
X166500D01*
Y73900D01*
X165700D01*
Y73100D01*
Y72300D01*
X164900D01*
Y71500D01*
X161700D01*
Y72300D01*
X160900D01*
Y73100D01*
Y73900D01*
X160100D01*
Y73100D01*
X156100D01*
Y73900D01*
X155300D01*
Y74700D01*
Y75500D01*
Y76300D01*
X152900D01*
Y77100D01*
X152100D01*
Y77900D01*
Y78700D01*
Y79500D01*
Y80300D01*
X152900D01*
Y81100D01*
Y81900D01*
Y82700D01*
Y83500D01*
Y84300D01*
Y85100D01*
Y85900D01*
Y86700D01*
Y87500D01*
Y88300D01*
Y89100D01*
Y89900D01*
Y90700D01*
Y91500D01*
X152100D01*
Y92300D01*
Y93100D01*
Y93900D01*
Y94700D01*
Y95500D01*
X151300D01*
Y96300D01*
Y97100D01*
Y97900D01*
Y98700D01*
Y99500D01*
X150500D01*
Y100300D01*
Y101100D01*
X149700D01*
Y100300D01*
Y99500D01*
Y98700D01*
Y97900D01*
Y97100D01*
X148900D01*
Y96300D01*
Y95500D01*
Y94700D01*
X148100D01*
Y93900D01*
Y93100D01*
Y92300D01*
Y91500D01*
Y90700D01*
X147300D01*
Y89900D01*
Y89100D01*
Y88300D01*
Y87500D01*
Y86700D01*
X146500D01*
Y85900D01*
Y85100D01*
Y84300D01*
X145700D01*
Y83500D01*
Y82700D01*
Y81900D01*
Y81100D01*
Y80300D01*
Y79500D01*
Y78700D01*
X144900D01*
Y77900D01*
Y77100D01*
Y76300D01*
Y75500D01*
Y74700D01*
Y73900D01*
Y73100D01*
Y72300D01*
Y71500D01*
X116100D01*
Y72300D01*
Y73100D01*
Y73900D01*
Y74700D01*
X115300D01*
Y75500D01*
Y76300D01*
Y77100D01*
Y77900D01*
Y78700D01*
Y79500D01*
Y80300D01*
Y81100D01*
Y81900D01*
Y82700D01*
Y83500D01*
Y84300D01*
Y85100D01*
Y85900D01*
Y86700D01*
Y87500D01*
X114500D01*
Y88300D01*
Y89100D01*
Y89900D01*
X113700D01*
Y89100D01*
Y88300D01*
Y87500D01*
Y86700D01*
Y85900D01*
Y85100D01*
Y84300D01*
Y83500D01*
Y82700D01*
Y81900D01*
Y81100D01*
Y80300D01*
Y79500D01*
Y78700D01*
Y77900D01*
Y77100D01*
X112900D01*
Y76300D01*
Y75500D01*
Y74700D01*
Y73900D01*
Y73100D01*
Y72300D01*
Y71500D01*
X84100D01*
Y72300D01*
Y73100D01*
Y73900D01*
Y74700D01*
Y75500D01*
Y76300D01*
Y77100D01*
X83300D01*
Y77900D01*
Y78700D01*
Y79500D01*
Y80300D01*
Y81100D01*
Y81900D01*
Y82700D01*
Y83500D01*
X82500D01*
Y84300D01*
Y85100D01*
Y85900D01*
X81700D01*
Y86700D01*
Y87500D01*
Y88300D01*
Y89100D01*
Y89900D01*
X80900D01*
Y90700D01*
Y91500D01*
Y92300D01*
X80100D01*
Y93100D01*
Y93900D01*
Y94700D01*
Y95500D01*
Y96300D01*
X79300D01*
Y97100D01*
Y97900D01*
Y98700D01*
Y99500D01*
Y100300D01*
Y101100D01*
Y101900D01*
X78500D01*
Y101100D01*
Y100300D01*
X77700D01*
Y99500D01*
Y98700D01*
Y97900D01*
Y97100D01*
Y96300D01*
X76900D01*
Y95500D01*
Y94700D01*
Y93900D01*
Y93100D01*
X76100D01*
Y92300D01*
Y91500D01*
Y90700D01*
Y89900D01*
Y89100D01*
Y88300D01*
Y87500D01*
Y86700D01*
Y85900D01*
Y85100D01*
Y84300D01*
Y83500D01*
Y82700D01*
Y81900D01*
X75300D01*
Y81100D01*
X76100D01*
Y80300D01*
X76900D01*
Y79500D01*
Y78700D01*
Y77900D01*
Y77100D01*
X76100D01*
Y76300D01*
X72900D01*
Y75500D01*
Y74700D01*
Y73900D01*
Y73100D01*
X68900D01*
Y73900D01*
X68100D01*
Y73100D01*
X67300D01*
Y72300D01*
Y71500D01*
X64100D01*
Y72300D01*
X63300D01*
Y73100D01*
Y73900D01*
X62500D01*
Y73100D01*
X58500D01*
Y73900D01*
Y74700D01*
X57700D01*
Y75500D01*
Y76300D01*
X56100D01*
Y77100D01*
X54500D01*
Y77900D01*
Y78700D01*
Y79500D01*
Y80300D01*
X55300D01*
Y81100D01*
X56100D01*
Y81900D01*
X55300D01*
Y82700D01*
Y83500D01*
Y84300D01*
Y85100D01*
Y85900D01*
Y86700D01*
Y87500D01*
Y88300D01*
Y89100D01*
Y89900D01*
X56100D01*
Y90700D01*
Y91500D01*
Y92300D01*
Y93100D01*
Y93900D01*
Y94700D01*
Y95500D01*
X56900D01*
Y96300D01*
Y97100D01*
Y97900D01*
X57700D01*
Y98700D01*
Y99500D01*
Y100300D01*
Y101100D01*
X58500D01*
Y101900D01*
Y102700D01*
Y103500D01*
X59300D01*
Y104300D01*
Y105100D01*
X60100D01*
Y105900D01*
Y106700D01*
X60900D01*
Y107500D01*
Y108300D01*
X61700D01*
Y109100D01*
Y109900D01*
X62500D01*
Y110700D01*
Y111500D01*
X63300D01*
Y112300D01*
Y113100D01*
X64100D01*
Y113900D01*
X64900D01*
Y114700D01*
X65700D01*
Y115500D01*
Y116300D01*
X66500D01*
Y117100D01*
X67300D01*
Y117900D01*
Y118700D01*
X68900D01*
Y119500D01*
Y120300D01*
X69700D01*
Y121100D01*
X70500D01*
Y121900D01*
Y122700D01*
Y123500D01*
Y124300D01*
Y125100D01*
Y125900D01*
Y126700D01*
Y127500D01*
Y128300D01*
Y129100D01*
Y129900D01*
Y130700D01*
Y131500D01*
Y132300D01*
Y133100D01*
Y133900D01*
Y134700D01*
Y135500D01*
Y136300D01*
Y137100D01*
Y137900D01*
Y138700D01*
Y139500D01*
Y140300D01*
Y141100D01*
Y141900D01*
Y142700D01*
Y143500D01*
Y144300D01*
Y145100D01*
Y145900D01*
Y146700D01*
Y147500D01*
Y148300D01*
Y149100D01*
Y149900D01*
Y150700D01*
Y151500D01*
Y152300D01*
Y153100D01*
Y153900D01*
Y154700D01*
Y155500D01*
Y156300D01*
Y157100D01*
Y157900D01*
Y158700D01*
Y159500D01*
Y160300D01*
Y161100D01*
Y161900D01*
Y162700D01*
Y163500D01*
Y164300D01*
Y165100D01*
Y165900D01*
Y166700D01*
Y167500D01*
Y168300D01*
Y169100D01*
Y169900D01*
Y170700D01*
Y171500D01*
Y172300D01*
Y173100D01*
Y173900D01*
Y174700D01*
Y175500D01*
Y176300D01*
Y177100D01*
Y177900D01*
Y178700D01*
Y179500D01*
Y180300D01*
Y181100D01*
Y181900D01*
Y182700D01*
Y183500D01*
Y184300D01*
Y185100D01*
Y185900D01*
Y186700D01*
Y187500D01*
Y188300D01*
Y189100D01*
Y189900D01*
Y190700D01*
Y191500D01*
Y192300D01*
Y193100D01*
Y193900D01*
Y194700D01*
Y195500D01*
Y196300D01*
Y197100D01*
Y197900D01*
Y198700D01*
Y199500D01*
Y200300D01*
Y201100D01*
Y201900D01*
Y202700D01*
Y203500D01*
Y204300D01*
Y205100D01*
Y205900D01*
Y206700D01*
Y207500D01*
Y208300D01*
Y209100D01*
Y209900D01*
Y210700D01*
Y211500D01*
Y212300D01*
Y213100D01*
Y213900D01*
Y214700D01*
Y215500D01*
Y216300D01*
Y217100D01*
Y217900D01*
Y218700D01*
Y219500D01*
Y220300D01*
Y221100D01*
Y221900D01*
Y222700D01*
Y223500D01*
Y224300D01*
Y225100D01*
Y225900D01*
Y226700D01*
Y227500D01*
Y228300D01*
Y229100D01*
Y229900D01*
Y230700D01*
Y231500D01*
X71300D01*
Y232300D01*
Y233100D01*
X72100D01*
Y233900D01*
Y234700D01*
X72900D01*
Y235500D01*
X73700D01*
Y236300D01*
X75300D01*
Y237100D01*
X76900D01*
Y237900D01*
X83300D01*
Y237100D01*
D02*
G37*
G36*
X31500Y69722D02*
X27578Y65638D01*
X27462Y64539D01*
X27219Y61866D01*
X27022Y59945D01*
X31222Y55630D01*
X30933Y55352D01*
X26988Y59401D01*
X26756Y56914D01*
X26629D01*
Y55965D01*
X25750D01*
Y56914D01*
X23031D01*
X22927Y56729D01*
X22799Y56544D01*
X22603Y56335D01*
X22348Y56162D01*
X22059Y56069D01*
X21781Y56035D01*
X21492Y56046D01*
X21284Y56104D01*
X21041Y56208D01*
X20832Y56335D01*
X20671Y56497D01*
X20508Y56729D01*
X20393Y56983D01*
X20323Y57226D01*
X20300Y57423D01*
X20323Y57666D01*
X20358Y57851D01*
X20427Y58025D01*
X20532Y58221D01*
X20647Y58383D01*
X20809Y58534D01*
X20983Y58649D01*
X21145Y58730D01*
X21122Y58939D01*
X17662Y55352D01*
X17373Y55641D01*
X21087Y59482D01*
X20786Y62838D01*
X20578Y65267D01*
X19467D01*
Y66829D01*
X19757D01*
X16945Y69722D01*
X17234Y69999D01*
X19884Y67269D01*
Y67466D01*
X19826Y67512D01*
X19757Y67558D01*
X19687Y67628D01*
X19618Y67709D01*
X19583Y67813D01*
X19548Y67905D01*
X19537Y68021D01*
X19560Y68172D01*
X19594Y68252D01*
X19699Y68414D01*
X19814Y68519D01*
X19965Y68588D01*
X20127Y68611D01*
X20289Y68588D01*
X20427Y68530D01*
X20543Y68461D01*
X20601Y68391D01*
X20705Y68484D01*
X20879Y68600D01*
X21087Y68704D01*
X21388Y68819D01*
X21712Y68912D01*
X22036Y68981D01*
X22383Y69039D01*
X22660Y69074D01*
Y69421D01*
X24882D01*
Y69120D01*
X25056D01*
X25345Y69086D01*
X25646Y69051D01*
X25935Y69004D01*
Y69190D01*
X26895D01*
Y68738D01*
X27011Y68681D01*
X27161Y68611D01*
X27335Y68507D01*
X27474Y68414D01*
X27601Y68299D01*
X27694Y68218D01*
X27751Y68137D01*
X27798Y68044D01*
X27775Y67882D01*
X28330D01*
Y67177D01*
X27717D01*
X27624Y66262D01*
X31211Y69999D01*
X31500Y69722D01*
D02*
G37*
G36*
X30655Y52147D02*
Y52089D01*
Y52008D01*
Y51927D01*
Y51835D01*
Y51754D01*
Y51696D01*
Y51684D01*
Y51673D01*
Y51291D01*
Y51106D01*
Y50932D01*
Y50793D01*
Y50678D01*
Y50631D01*
Y50597D01*
Y50585D01*
Y50573D01*
Y50354D01*
Y50157D01*
Y49972D01*
Y49810D01*
Y49671D01*
Y49578D01*
Y49509D01*
Y49498D01*
Y49486D01*
Y49324D01*
Y49208D01*
Y49116D01*
Y49058D01*
Y49023D01*
Y49012D01*
Y49000D01*
X18009D01*
Y49023D01*
Y49081D01*
Y49150D01*
Y49243D01*
Y49336D01*
Y49405D01*
Y49463D01*
Y49486D01*
Y49868D01*
Y50053D01*
Y50215D01*
Y50365D01*
Y50469D01*
Y50516D01*
Y50550D01*
Y50562D01*
Y50573D01*
Y50793D01*
Y51002D01*
Y51187D01*
Y51349D01*
Y51487D01*
Y51592D01*
Y51649D01*
Y51673D01*
Y51765D01*
Y51835D01*
Y51962D01*
Y52055D01*
Y52112D01*
Y52147D01*
Y52159D01*
Y52170D01*
X30655D01*
Y52147D01*
D02*
G37*
G36*
X46198Y71573D02*
X46568Y71550D01*
X46927Y71515D01*
X47274Y71457D01*
X47621Y71399D01*
X47945Y71319D01*
X48593Y71145D01*
X49194Y70925D01*
X49761Y70682D01*
X50282Y70428D01*
X50525Y70300D01*
X50756Y70161D01*
X50976Y70034D01*
X51184Y69895D01*
X51381Y69768D01*
X51566Y69641D01*
X51740Y69514D01*
X51902Y69398D01*
X52041Y69282D01*
X52168Y69178D01*
X52284Y69086D01*
X52388Y69004D01*
X52480Y68923D01*
X52550Y68866D01*
X52608Y68808D01*
X52642Y68773D01*
X52665Y68750D01*
X52677Y68738D01*
X52931Y68472D01*
X53174Y68195D01*
X53394Y67917D01*
X53614Y67628D01*
X53799Y67339D01*
X53984Y67061D01*
X54158Y66760D01*
X54308Y66471D01*
X54447Y66181D01*
X54586Y65892D01*
X54806Y65325D01*
X55002Y64781D01*
X55141Y64261D01*
X55269Y63763D01*
X55315Y63532D01*
X55350Y63312D01*
X55384Y63115D01*
X55419Y62919D01*
X55442Y62734D01*
X55454Y62572D01*
X55465Y62421D01*
X55477Y62294D01*
X55488Y62178D01*
Y62074D01*
X55500Y62005D01*
Y61947D01*
Y61912D01*
Y61901D01*
X55488Y61530D01*
X55465Y61160D01*
X55431Y60801D01*
X55373Y60454D01*
X55315Y60107D01*
X55234Y59783D01*
X55060Y59135D01*
X54840Y58534D01*
X54609Y57967D01*
X54355Y57446D01*
X54216Y57203D01*
X54088Y56972D01*
X53961Y56752D01*
X53822Y56544D01*
X53695Y56347D01*
X53568Y56162D01*
X53452Y55988D01*
X53336Y55826D01*
X53221Y55687D01*
X53117Y55560D01*
X53024Y55445D01*
X52931Y55340D01*
X52862Y55248D01*
X52793Y55178D01*
X52746Y55120D01*
X52712Y55086D01*
X52688Y55063D01*
X52677Y55051D01*
X52411Y54797D01*
X52133Y54554D01*
X51855Y54322D01*
X51566Y54114D01*
X51277Y53917D01*
X50988Y53732D01*
X50699Y53570D01*
X50409Y53408D01*
X50120Y53269D01*
X49831Y53142D01*
X49264Y52911D01*
X48708Y52725D01*
X48188Y52575D01*
X47702Y52459D01*
X47470Y52402D01*
X47251Y52367D01*
X47042Y52332D01*
X46846Y52309D01*
X46661Y52274D01*
X46499Y52263D01*
X46348Y52251D01*
X46221Y52240D01*
X46105Y52228D01*
X46001D01*
X45932Y52217D01*
X45827D01*
X45457Y52228D01*
X45087Y52251D01*
X44728Y52286D01*
X44381Y52344D01*
X44046Y52402D01*
X43710Y52483D01*
X43074Y52656D01*
X42472Y52876D01*
X41905Y53119D01*
X41385Y53373D01*
X41142Y53501D01*
X40910Y53640D01*
X40690Y53767D01*
X40482Y53894D01*
X40285Y54033D01*
X40100Y54160D01*
X39927Y54276D01*
X39765Y54392D01*
X39626Y54507D01*
X39499Y54611D01*
X39383Y54704D01*
X39279Y54785D01*
X39186Y54866D01*
X39117Y54935D01*
X39059Y54982D01*
X39024Y55016D01*
X39001Y55040D01*
X38990Y55051D01*
X38735Y55317D01*
X38492Y55595D01*
X38261Y55873D01*
X38052Y56162D01*
X37856Y56451D01*
X37671Y56740D01*
X37497Y57030D01*
X37347Y57319D01*
X37196Y57608D01*
X37069Y57897D01*
X36838Y58464D01*
X36652Y59020D01*
X36502Y59540D01*
X36386Y60026D01*
X36329Y60258D01*
X36294Y60477D01*
X36259Y60686D01*
X36224Y60882D01*
X36201Y61067D01*
X36190Y61229D01*
X36178Y61380D01*
X36167Y61507D01*
X36155Y61623D01*
X36143Y61727D01*
Y61796D01*
Y61854D01*
Y61889D01*
Y61901D01*
X36155Y62271D01*
X36178Y62641D01*
X36213Y63000D01*
X36271Y63347D01*
X36329Y63682D01*
X36410Y64018D01*
X36583Y64654D01*
X36803Y65256D01*
X37046Y65823D01*
X37300Y66343D01*
X37428Y66586D01*
X37567Y66818D01*
X37694Y67038D01*
X37833Y67246D01*
X37960Y67443D01*
X38087Y67628D01*
X38214Y67801D01*
X38330Y67963D01*
X38446Y68102D01*
X38550Y68229D01*
X38642Y68345D01*
X38723Y68449D01*
X38805Y68542D01*
X38862Y68611D01*
X38920Y68669D01*
X38955Y68704D01*
X38978Y68727D01*
X38990Y68738D01*
X39256Y68993D01*
X39533Y69236D01*
X39811Y69467D01*
X40100Y69676D01*
X40390Y69872D01*
X40667Y70057D01*
X40968Y70231D01*
X41257Y70381D01*
X41547Y70532D01*
X41836Y70659D01*
X42403Y70890D01*
X42947Y71076D01*
X43467Y71226D01*
X43965Y71342D01*
X44196Y71399D01*
X44416Y71434D01*
X44613Y71469D01*
X44809Y71504D01*
X44994Y71527D01*
X45156Y71538D01*
X45307Y71550D01*
X45434Y71561D01*
X45550Y71573D01*
X45654Y71585D01*
X45827D01*
X46198Y71573D01*
D02*
G37*
G36*
X50541Y50377D02*
X51016Y50320D01*
X51467Y50227D01*
X51895Y50100D01*
X52300Y49961D01*
X52670Y49799D01*
X53029Y49625D01*
X53341Y49452D01*
X53631Y49278D01*
X53885Y49105D01*
X54105Y48943D01*
X54290Y48804D01*
X54429Y48677D01*
X54533Y48584D01*
X54602Y48526D01*
X54626Y48503D01*
X54961Y48144D01*
X55250Y47763D01*
X55505Y47381D01*
X55713Y46999D01*
X55898Y46606D01*
X56049Y46235D01*
X56176Y45865D01*
X56280Y45518D01*
X56350Y45194D01*
X56407Y44893D01*
X56454Y44627D01*
X56477Y44396D01*
X56488Y44292D01*
X56500Y44199D01*
Y44130D01*
X56512Y44060D01*
Y44014D01*
Y43979D01*
Y43956D01*
Y43944D01*
X56488Y43459D01*
X56431Y42984D01*
X56338Y42533D01*
X56211Y42105D01*
X56072Y41700D01*
X55910Y41330D01*
X55748Y40983D01*
X55563Y40659D01*
X55389Y40381D01*
X55227Y40126D01*
X55065Y39907D01*
X54915Y39721D01*
X54799Y39583D01*
X54707Y39467D01*
X54649Y39409D01*
X54626Y39386D01*
X54267Y39050D01*
X53885Y38761D01*
X53503Y38507D01*
X53110Y38298D01*
X52728Y38113D01*
X52346Y37963D01*
X51976Y37835D01*
X51629Y37731D01*
X51305Y37662D01*
X51004Y37604D01*
X50738Y37558D01*
X50507Y37535D01*
X50403Y37523D01*
X50310Y37512D01*
X50241D01*
X50171Y37500D01*
X49812D01*
X49708Y37512D01*
X49523D01*
X49465Y37523D01*
X49408D01*
Y39478D01*
X49627Y39455D01*
X49743Y39444D01*
X49836D01*
X49928Y39432D01*
X50055D01*
X50403Y39444D01*
X50727Y39490D01*
X51039Y39560D01*
X51340Y39640D01*
X51617Y39733D01*
X51884Y39849D01*
X52126Y39964D01*
X52346Y40092D01*
X52555Y40219D01*
X52728Y40335D01*
X52879Y40450D01*
X53006Y40543D01*
X53110Y40635D01*
X53191Y40693D01*
X53237Y40740D01*
X53249Y40751D01*
X53480Y41006D01*
X53689Y41272D01*
X53862Y41538D01*
X54013Y41816D01*
X54140Y42082D01*
X54244Y42348D01*
X54336Y42602D01*
X54406Y42845D01*
X54452Y43077D01*
X54498Y43285D01*
X54522Y43470D01*
X54545Y43632D01*
X54556Y43759D01*
X54568Y43863D01*
Y43921D01*
Y43944D01*
X54556Y44292D01*
X54510Y44616D01*
X54440Y44940D01*
X54360Y45240D01*
X54267Y45518D01*
X54151Y45784D01*
X54036Y46027D01*
X53908Y46247D01*
X53781Y46444D01*
X53665Y46617D01*
X53550Y46779D01*
X53457Y46906D01*
X53364Y46999D01*
X53307Y47080D01*
X53260Y47126D01*
X53249Y47138D01*
X52994Y47369D01*
X52728Y47578D01*
X52462Y47751D01*
X52184Y47913D01*
X51918Y48040D01*
X51652Y48144D01*
X51398Y48237D01*
X51155Y48306D01*
X50923Y48353D01*
X50715Y48399D01*
X50530Y48434D01*
X50368Y48445D01*
X50241Y48457D01*
X50137Y48468D01*
X50055D01*
X49812Y48457D01*
X49708D01*
X49604Y48445D01*
X49523Y48434D01*
X49465D01*
X49419Y48422D01*
X49408D01*
Y50366D01*
X49627Y50389D01*
X49731D01*
X49836Y50401D01*
X50055D01*
X50541Y50377D01*
D02*
G37*
G36*
X39573D02*
X40047Y50320D01*
X40499Y50227D01*
X40927Y50100D01*
X41332Y49961D01*
X41702Y49799D01*
X42049Y49625D01*
X42373Y49452D01*
X42651Y49278D01*
X42905Y49105D01*
X43125Y48943D01*
X43310Y48804D01*
X43449Y48677D01*
X43565Y48584D01*
X43623Y48526D01*
X43646Y48503D01*
X43981Y48144D01*
X44271Y47763D01*
X44525Y47381D01*
X44733Y46999D01*
X44918Y46606D01*
X45069Y46235D01*
X45196Y45865D01*
X45300Y45518D01*
X45370Y45194D01*
X45428Y44893D01*
X45474Y44627D01*
X45497Y44396D01*
X45509Y44292D01*
X45520Y44199D01*
Y44130D01*
X45532Y44060D01*
Y44014D01*
Y43979D01*
Y43956D01*
Y43944D01*
X45509Y43459D01*
X45451Y42984D01*
X45358Y42533D01*
X45231Y42105D01*
X45092Y41700D01*
X44930Y41330D01*
X44768Y40983D01*
X44583Y40659D01*
X44409Y40381D01*
X44247Y40126D01*
X44085Y39907D01*
X43935Y39721D01*
X43819Y39583D01*
X43727Y39467D01*
X43669Y39409D01*
X43646Y39386D01*
X43287Y39050D01*
X42905Y38761D01*
X42523Y38507D01*
X42142Y38298D01*
X41748Y38113D01*
X41378Y37963D01*
X41008Y37835D01*
X40661Y37731D01*
X40337Y37662D01*
X40036Y37604D01*
X39770Y37558D01*
X39538Y37535D01*
X39434Y37523D01*
X39342Y37512D01*
X39272D01*
X39203Y37500D01*
X38844D01*
X38740Y37512D01*
X38555D01*
X38497Y37523D01*
X38439D01*
X38451Y39478D01*
X38671Y39455D01*
X38775Y39444D01*
X38879D01*
X38960Y39432D01*
X39087D01*
X39376Y39444D01*
X39666Y39478D01*
X39943Y39525D01*
X40198Y39583D01*
X40452Y39664D01*
X40684Y39745D01*
X40904Y39837D01*
X41100Y39930D01*
X41285Y40022D01*
X41447Y40115D01*
X41586Y40196D01*
X41702Y40277D01*
X41794Y40335D01*
X41864Y40381D01*
X41910Y40416D01*
X41922Y40427D01*
X42142Y40624D01*
X42350Y40821D01*
X42523Y41029D01*
X42685Y41249D01*
X42836Y41457D01*
X42963Y41677D01*
X43079Y41885D01*
X43171Y42082D01*
X43252Y42267D01*
X43322Y42440D01*
X43380Y42591D01*
X43426Y42730D01*
X43461Y42834D01*
X43484Y42915D01*
X43495Y42961D01*
Y42984D01*
X39724D01*
Y44916D01*
X43495D01*
X43426Y45206D01*
X43333Y45472D01*
X43229Y45738D01*
X43113Y45981D01*
X42986Y46201D01*
X42859Y46409D01*
X42720Y46606D01*
X42593Y46779D01*
X42466Y46941D01*
X42338Y47080D01*
X42234Y47196D01*
X42130Y47288D01*
X42049Y47369D01*
X41991Y47427D01*
X41945Y47462D01*
X41933Y47473D01*
X41690Y47647D01*
X41447Y47797D01*
X41205Y47936D01*
X40962Y48052D01*
X40718Y48144D01*
X40487Y48225D01*
X40256Y48295D01*
X40036Y48341D01*
X39839Y48387D01*
X39654Y48410D01*
X39492Y48434D01*
X39353Y48457D01*
X39238D01*
X39157Y48468D01*
X39087D01*
X38844Y48457D01*
X38740D01*
X38636Y48445D01*
X38555Y48434D01*
X38497D01*
X38451Y48422D01*
X38439D01*
Y50366D01*
X38578Y50377D01*
X38694Y50389D01*
X38809D01*
X38902Y50401D01*
X39087D01*
X39573Y50377D01*
D02*
G37*
%LPC*%
G36*
X81700Y235500D02*
X78500D01*
Y234700D01*
X76100D01*
Y233900D01*
X74500D01*
Y233100D01*
Y232300D01*
X73700D01*
Y231500D01*
Y230700D01*
X72900D01*
Y229900D01*
Y229100D01*
Y228300D01*
Y227500D01*
Y226700D01*
X73700D01*
Y225900D01*
Y225100D01*
X74500D01*
Y224300D01*
Y223500D01*
X75300D01*
Y222700D01*
X76100D01*
Y221900D01*
X83300D01*
Y222700D01*
X84900D01*
Y223500D01*
X85700D01*
Y224300D01*
Y225100D01*
X86500D01*
Y225900D01*
Y226700D01*
X85700D01*
Y225900D01*
X84900D01*
Y225100D01*
X84100D01*
Y225900D01*
X83300D01*
Y226700D01*
X82500D01*
Y227500D01*
Y228300D01*
X83300D01*
Y229100D01*
X84900D01*
Y228300D01*
X85700D01*
Y227500D01*
X86500D01*
Y226700D01*
X87300D01*
Y227500D01*
Y228300D01*
Y229100D01*
Y229900D01*
X86500D01*
Y230700D01*
Y231500D01*
Y232300D01*
X85700D01*
Y233100D01*
X84900D01*
Y233900D01*
X84100D01*
Y234700D01*
X81700D01*
Y235500D01*
D02*
G37*
G36*
X104100Y211500D02*
X100900D01*
Y210700D01*
X99300D01*
Y209900D01*
X97700D01*
Y209100D01*
X96900D01*
Y208300D01*
Y207500D01*
X96100D01*
Y206700D01*
Y205900D01*
Y205100D01*
Y204300D01*
Y203500D01*
Y202700D01*
Y201900D01*
Y201100D01*
Y200300D01*
X96900D01*
Y199500D01*
X97700D01*
Y198700D01*
X99300D01*
Y197900D01*
X102500D01*
Y197100D01*
X103300D01*
Y197900D01*
X106500D01*
Y198700D01*
X104900D01*
Y199500D01*
X104100D01*
Y200300D01*
Y201100D01*
Y201900D01*
X107300D01*
Y201100D01*
Y200300D01*
Y199500D01*
X108100D01*
Y200300D01*
X108900D01*
Y201100D01*
Y201900D01*
X109700D01*
Y202700D01*
Y203500D01*
Y204300D01*
Y205100D01*
Y205900D01*
Y206700D01*
Y207500D01*
X108900D01*
Y208300D01*
X108100D01*
Y209100D01*
X107300D01*
Y209900D01*
X106500D01*
Y210700D01*
X104100D01*
Y211500D01*
D02*
G37*
G36*
X107300Y199500D02*
X106500D01*
Y198700D01*
X107300D01*
Y199500D01*
D02*
G37*
G36*
X128100Y186700D02*
X123300D01*
Y185900D01*
X120900D01*
Y185100D01*
X120100D01*
Y184300D01*
Y183500D01*
X119300D01*
Y182700D01*
Y181900D01*
X118500D01*
Y181100D01*
Y180300D01*
Y179500D01*
Y178700D01*
Y177900D01*
X119300D01*
Y177100D01*
Y176300D01*
X120100D01*
Y175500D01*
Y174700D01*
X121700D01*
Y173900D01*
X122500D01*
Y173100D01*
X128900D01*
Y173900D01*
X129700D01*
Y174700D01*
X131300D01*
Y175500D01*
Y176300D01*
X132100D01*
Y177100D01*
Y177900D01*
X132900D01*
Y178700D01*
Y179500D01*
Y180300D01*
Y181100D01*
Y181900D01*
X132100D01*
Y182700D01*
Y183500D01*
X131300D01*
Y184300D01*
Y185100D01*
X129700D01*
Y185900D01*
X128100D01*
Y186700D01*
D02*
G37*
G36*
X152100Y161900D02*
X145700D01*
Y161100D01*
X144100D01*
Y160300D01*
X143300D01*
Y159500D01*
Y158700D01*
X142500D01*
Y157900D01*
Y157100D01*
Y156300D01*
Y155500D01*
X143300D01*
Y156300D01*
X145700D01*
Y155500D01*
X146500D01*
Y154700D01*
Y153900D01*
X145700D01*
Y153100D01*
X143300D01*
Y153900D01*
X142500D01*
Y153100D01*
Y152300D01*
X143300D01*
Y151500D01*
X144100D01*
Y150700D01*
X144900D01*
Y149900D01*
X146500D01*
Y149100D01*
X151300D01*
Y149900D01*
X152100D01*
Y150700D01*
X153700D01*
Y151500D01*
X154500D01*
Y152300D01*
Y153100D01*
X155300D01*
Y153900D01*
Y154700D01*
Y155500D01*
Y156300D01*
Y157100D01*
Y157900D01*
X154500D01*
Y158700D01*
Y159500D01*
Y160300D01*
X152900D01*
Y161100D01*
X152100D01*
Y161900D01*
D02*
G37*
G36*
X58500Y77100D02*
X57700D01*
Y76300D01*
X58500D01*
Y77100D01*
D02*
G37*
%LPD*%
G36*
X126500Y185100D02*
X127300D01*
Y184300D01*
X128100D01*
Y183500D01*
X127300D01*
Y182700D01*
Y181900D01*
X124900D01*
Y182700D01*
X124100D01*
Y183500D01*
Y184300D01*
Y185100D01*
X125700D01*
Y185900D01*
X126500D01*
Y185100D01*
D02*
G37*
%LPC*%
G36*
X24465Y69028D02*
X23054D01*
Y68796D01*
X24465D01*
Y69028D01*
D02*
G37*
G36*
X24882Y68704D02*
Y68391D01*
X22660D01*
Y68657D01*
X22198Y68588D01*
X21781Y68484D01*
X21434Y68391D01*
X21156Y68264D01*
X20937Y68137D01*
X20775Y67986D01*
Y67882D01*
X25935D01*
Y68565D01*
X25622Y68623D01*
X25275Y68669D01*
X24882Y68704D01*
D02*
G37*
G36*
X26502Y68796D02*
X26340D01*
Y68264D01*
X26490D01*
X26502Y68796D01*
D02*
G37*
G36*
X26895Y68276D02*
Y67882D01*
X27369D01*
X27381Y67952D01*
X27265Y68067D01*
X27115Y68172D01*
X26895Y68276D01*
D02*
G37*
G36*
X20185Y68206D02*
X20150D01*
X20080Y68195D01*
X20034Y68172D01*
X19988Y68148D01*
X19965Y68114D01*
X19942Y68044D01*
Y68021D01*
Y68010D01*
X19953Y67940D01*
X19976Y67894D01*
X20011Y67859D01*
X20046Y67836D01*
X20115Y67813D01*
X20150D01*
X20219Y67824D01*
X20266Y67848D01*
X20300Y67871D01*
X20323Y67917D01*
X20346Y67975D01*
Y67998D01*
Y68010D01*
X20335Y68079D01*
X20312Y68125D01*
X20289Y68160D01*
X20242Y68183D01*
X20185Y68206D01*
D02*
G37*
G36*
X20647Y66436D02*
X19872D01*
Y65672D01*
X20647D01*
Y66436D01*
D02*
G37*
G36*
X24523Y64689D02*
X22441D01*
Y64562D01*
X24523D01*
Y64689D01*
D02*
G37*
G36*
X27312Y67177D02*
X20832D01*
X20867Y66829D01*
X21041D01*
Y66089D01*
X22013Y65094D01*
X24928D01*
Y64168D01*
X22915D01*
X24257Y62780D01*
X27184Y65823D01*
X27312Y67177D01*
D02*
G37*
G36*
X27127Y65175D02*
X24535Y62491D01*
X26664Y60304D01*
X27127Y65175D01*
D02*
G37*
G36*
X21041Y65510D02*
Y65267D01*
X20994D01*
X21457Y59876D01*
X23979Y62491D01*
X22348Y64168D01*
X22013D01*
Y64504D01*
X21041Y65510D01*
D02*
G37*
G36*
X24257Y62201D02*
X21504Y59344D01*
X21550Y58846D01*
X21735Y58858D01*
X21943Y58846D01*
X22198Y58777D01*
X22441Y58649D01*
X22626Y58522D01*
X22799Y58349D01*
X22950Y58129D01*
X23077Y57851D01*
X23135Y57539D01*
X23123Y57330D01*
X26386D01*
X26618Y59772D01*
X24257Y62201D01*
D02*
G37*
G36*
X21793Y58152D02*
X21723D01*
X21596Y58140D01*
X21492Y58117D01*
X21399Y58082D01*
X21318Y58048D01*
X21249Y57990D01*
X21203Y57932D01*
X21110Y57805D01*
X21064Y57666D01*
X21041Y57562D01*
X21029Y57516D01*
Y57481D01*
Y57458D01*
Y57446D01*
X21041Y57319D01*
X21064Y57215D01*
X21099Y57122D01*
X21133Y57041D01*
X21191Y56983D01*
X21249Y56925D01*
X21376Y56845D01*
X21504Y56787D01*
X21619Y56763D01*
X21654Y56752D01*
X21723D01*
X21851Y56763D01*
X21955Y56787D01*
X22047Y56821D01*
X22128Y56856D01*
X22198Y56914D01*
X22256Y56972D01*
X22337Y57099D01*
X22394Y57226D01*
X22418Y57342D01*
X22429Y57377D01*
Y57411D01*
Y57434D01*
Y57446D01*
X22418Y57573D01*
X22394Y57678D01*
X22360Y57770D01*
X22313Y57851D01*
X22267Y57920D01*
X22209Y57978D01*
X22070Y58059D01*
X21943Y58117D01*
X21827Y58140D01*
X21793Y58152D01*
D02*
G37*
G36*
X26236Y56925D02*
X26143D01*
Y56358D01*
X26236D01*
Y56925D01*
D02*
G37*
%LPD*%
G36*
X21885Y57897D02*
X22001Y57851D01*
X22082Y57770D01*
X22140Y57689D01*
X22175Y57596D01*
X22186Y57516D01*
X22198Y57469D01*
Y57446D01*
X22175Y57296D01*
X22128Y57180D01*
X22047Y57099D01*
X21955Y57041D01*
X21874Y57006D01*
X21793Y56995D01*
X21746Y56983D01*
X21723D01*
X21573Y57006D01*
X21457Y57053D01*
X21376Y57134D01*
X21318Y57215D01*
X21284Y57296D01*
X21272Y57377D01*
X21261Y57423D01*
Y57446D01*
X21284Y57608D01*
X21330Y57724D01*
X21411Y57805D01*
X21492Y57863D01*
X21573Y57897D01*
X21654Y57909D01*
X21700Y57920D01*
X21723D01*
X21885Y57897D01*
D02*
G37*
%LPC*%
G36*
X21735Y57516D02*
X21723D01*
X21677Y57504D01*
X21666Y57481D01*
X21654Y57458D01*
Y57446D01*
X21666Y57411D01*
X21689Y57388D01*
X21712Y57377D01*
X21723D01*
X21758Y57388D01*
X21781Y57411D01*
X21793Y57434D01*
Y57446D01*
X21781Y57492D01*
X21758Y57504D01*
X21735Y57516D01*
D02*
G37*
G36*
X45990Y70613D02*
X45827D01*
X45492Y70601D01*
X45168Y70590D01*
X44844Y70555D01*
X44532Y70509D01*
X43918Y70381D01*
X43340Y70219D01*
X42796Y70023D01*
X42299Y69803D01*
X41824Y69572D01*
X41396Y69340D01*
X41014Y69097D01*
X40829Y68981D01*
X40667Y68866D01*
X40517Y68750D01*
X40378Y68646D01*
X40239Y68553D01*
X40124Y68461D01*
X40019Y68368D01*
X39927Y68287D01*
X39857Y68229D01*
X39788Y68172D01*
X39742Y68114D01*
X39707Y68090D01*
X39684Y68067D01*
X39672Y68056D01*
X39441Y67813D01*
X39221Y67570D01*
X39013Y67315D01*
X38828Y67061D01*
X38654Y66806D01*
X38492Y66540D01*
X38330Y66286D01*
X38191Y66019D01*
X37948Y65499D01*
X37740Y64990D01*
X37567Y64492D01*
X37439Y64029D01*
X37323Y63578D01*
X37254Y63173D01*
X37219Y62988D01*
X37196Y62815D01*
X37173Y62653D01*
X37150Y62502D01*
X37138Y62375D01*
X37127Y62248D01*
Y62143D01*
X37115Y62063D01*
Y61993D01*
Y61947D01*
Y61912D01*
Y61901D01*
X37127Y61565D01*
X37138Y61241D01*
X37173Y60917D01*
X37219Y60605D01*
X37347Y59992D01*
X37509Y59413D01*
X37705Y58869D01*
X37925Y58360D01*
X38157Y57897D01*
X38388Y57469D01*
X38631Y57076D01*
X38747Y56902D01*
X38862Y56729D01*
X38978Y56578D01*
X39082Y56440D01*
X39175Y56312D01*
X39267Y56185D01*
X39333Y56112D01*
X42009Y58788D01*
X41870Y58881D01*
X41743Y58973D01*
X41697Y59020D01*
X41662Y59054D01*
X41639Y59066D01*
X41628Y59078D01*
X41489Y59216D01*
X41373Y59355D01*
X41269Y59506D01*
X41188Y59667D01*
X41107Y59818D01*
X41049Y59968D01*
X40957Y60269D01*
X40922Y60408D01*
X40899Y60524D01*
X40887Y60639D01*
X40876Y60744D01*
X40864Y60813D01*
Y60882D01*
Y60917D01*
Y60929D01*
Y61114D01*
X40887Y61287D01*
X40945Y61588D01*
X41026Y61866D01*
X41061Y61981D01*
X41107Y62086D01*
X41153Y62178D01*
X41199Y62259D01*
X41246Y62329D01*
X41280Y62387D01*
X41315Y62433D01*
X41338Y62467D01*
X41350Y62479D01*
X41361Y62491D01*
X41454Y62595D01*
X41558Y62687D01*
X41651Y62757D01*
X41755Y62826D01*
X41952Y62930D01*
X42125Y63000D01*
X42287Y63034D01*
X42403Y63058D01*
X42449Y63069D01*
X42518D01*
X42657Y63058D01*
X42785Y63034D01*
X42912Y62988D01*
X43039Y62930D01*
X43270Y62791D01*
X43479Y62629D01*
X43641Y62467D01*
X43710Y62398D01*
X43768Y62329D01*
X43814Y62271D01*
X43849Y62225D01*
X43872Y62201D01*
X43884Y62190D01*
Y65325D01*
X44092D01*
X45388Y64793D01*
X45318Y64631D01*
X45191Y64677D01*
X45087Y64689D01*
X45018Y64701D01*
X44994D01*
X44914Y64689D01*
X44856Y64677D01*
X44809Y64654D01*
X44798Y64643D01*
X44752Y64573D01*
X44717Y64504D01*
X44705Y64434D01*
X44694Y64423D01*
Y64411D01*
X44682Y64376D01*
Y64319D01*
X44671Y64203D01*
Y64053D01*
X44659Y63891D01*
Y63752D01*
Y63625D01*
Y63578D01*
Y63543D01*
Y63520D01*
Y63509D01*
Y61438D01*
X45804Y62595D01*
X45746Y62815D01*
X45723Y62930D01*
X45712Y63023D01*
X45700Y63115D01*
Y63185D01*
Y63231D01*
Y63243D01*
X45712Y63451D01*
X45758Y63636D01*
X45804Y63810D01*
X45874Y63948D01*
X45932Y64076D01*
X45990Y64157D01*
X46036Y64214D01*
X46047Y64238D01*
X46186Y64388D01*
X46325Y64515D01*
X46464Y64619D01*
X46591Y64701D01*
X46707Y64758D01*
X46799Y64805D01*
X46857Y64828D01*
X46880Y64839D01*
X47089Y64897D01*
X47308Y64943D01*
X47528Y64967D01*
X47748Y64990D01*
X47945Y65001D01*
X48026Y65013D01*
X48234D01*
X51618Y68397D01*
X51740Y68287D01*
X51983Y68056D01*
X51624Y68403D01*
X51618Y68397D01*
X51497Y68507D01*
X51242Y68715D01*
X50988Y68900D01*
X50722Y69074D01*
X50467Y69236D01*
X50201Y69398D01*
X49946Y69537D01*
X49426Y69780D01*
X48917Y69988D01*
X48419Y70161D01*
X47945Y70289D01*
X47505Y70404D01*
X47100Y70474D01*
X46915Y70509D01*
X46742Y70532D01*
X46580Y70555D01*
X46429Y70578D01*
X46290Y70590D01*
X46175Y70601D01*
X46070D01*
X45990Y70613D01*
D02*
G37*
G36*
X47818Y64596D02*
X47679Y64550D01*
X47551Y64504D01*
X47505Y64481D01*
X47470Y64469D01*
X47447Y64446D01*
X47436D01*
X47332Y64376D01*
X47227Y64296D01*
X47146Y64203D01*
X47077Y64122D01*
X47019Y64041D01*
X46984Y63972D01*
X46961Y63925D01*
X46950Y63914D01*
X46892Y63787D01*
X46857Y63705D01*
X46846Y63648D01*
X46834Y63625D01*
X47818Y64596D01*
D02*
G37*
G36*
X48766Y64168D02*
X46973Y62387D01*
X47031Y62294D01*
X47089Y62225D01*
X47123Y62178D01*
X47135Y62167D01*
X47274Y62039D01*
X47424Y61935D01*
X47563Y61866D01*
X47690Y61820D01*
X47806Y61796D01*
X47899Y61785D01*
X47956Y61773D01*
X47980D01*
X48084Y61785D01*
X48199Y61796D01*
X48246D01*
X48280Y61808D01*
X48315D01*
X48465Y61820D01*
X48616Y61843D01*
X48674Y61854D01*
X48720Y61866D01*
X48755Y61877D01*
X48766D01*
Y64168D01*
D02*
G37*
G36*
X42981Y62387D02*
X42889D01*
X42715Y62363D01*
X42565Y62317D01*
X42426Y62248D01*
X42299Y62167D01*
X42195Y62086D01*
X42125Y62016D01*
X42067Y61970D01*
X42056Y61947D01*
X41928Y61762D01*
X41836Y61553D01*
X41766Y61345D01*
X41720Y61137D01*
X41697Y60952D01*
X41685Y60871D01*
X41674Y60801D01*
Y60744D01*
Y60697D01*
Y60674D01*
Y60663D01*
X41685Y60350D01*
X41732Y60072D01*
X41790Y59829D01*
X41859Y59644D01*
X41940Y59494D01*
X41998Y59390D01*
X42044Y59320D01*
X42056Y59297D01*
X42125Y59193D01*
X42195Y59124D01*
X42252Y59066D01*
X42264Y59054D01*
X42276D01*
X43884Y60651D01*
Y61889D01*
X43768Y61993D01*
X43676Y62074D01*
X43583Y62132D01*
X43514Y62190D01*
X43456Y62225D01*
X43421Y62248D01*
X43398Y62271D01*
X43386D01*
X43201Y62340D01*
X43120Y62363D01*
X43039Y62375D01*
X42981Y62387D01*
D02*
G37*
G36*
X51983Y68056D02*
X51995Y68043D01*
X52006Y68021D01*
X52041Y67986D01*
X52087Y67940D01*
X52145Y67871D01*
X52214Y67801D01*
X52295Y67709D01*
X49599Y65013D01*
X50583D01*
Y64839D01*
X50340D01*
X50213Y64828D01*
X50108Y64805D01*
X50004Y64770D01*
X49935Y64735D01*
X49877Y64701D01*
X49831Y64666D01*
X49808Y64643D01*
X49796Y64631D01*
X49750Y64562D01*
X49727Y64457D01*
X49703Y64330D01*
X49680Y64203D01*
Y64076D01*
X49669Y63983D01*
Y63902D01*
Y63891D01*
Y63879D01*
Y59749D01*
Y59563D01*
X49680Y59401D01*
X49692Y59286D01*
X49715Y59193D01*
X49727Y59124D01*
X49750Y59078D01*
X49761Y59054D01*
Y59043D01*
X49842Y58962D01*
X49935Y58892D01*
X50027Y58846D01*
X50120Y58823D01*
X50201Y58800D01*
X50270Y58788D01*
X50583D01*
Y58603D01*
X47841D01*
Y58788D01*
X48084D01*
X48211Y58800D01*
X48315Y58823D01*
X48408Y58846D01*
X48489Y58892D01*
X48546Y58927D01*
X48593Y58950D01*
X48616Y58973D01*
X48627Y58985D01*
X48674Y59066D01*
X48708Y59170D01*
X48731Y59297D01*
X48743Y59425D01*
X48755Y59552D01*
X48766Y59656D01*
Y59725D01*
Y59737D01*
Y59749D01*
Y61600D01*
X48639Y61577D01*
X48523Y61553D01*
X48431Y61542D01*
X48350Y61530D01*
X48280Y61519D01*
X48234Y61507D01*
X48188D01*
X47991Y61484D01*
X47899D01*
X47829Y61472D01*
X47679D01*
X47401Y61484D01*
X47146Y61530D01*
X46927Y61588D01*
X46742Y61646D01*
X46603Y61715D01*
X46499Y61762D01*
X46429Y61808D01*
X46406Y61820D01*
X44659Y60072D01*
Y59020D01*
X44508Y58927D01*
X44358Y58846D01*
X44231Y58777D01*
X44104Y58719D01*
X44011Y58672D01*
X43930Y58638D01*
X43872Y58626D01*
X43861Y58615D01*
X43722Y58568D01*
X43595Y58534D01*
X43456Y58511D01*
X43340Y58499D01*
X43247Y58487D01*
X43166Y58476D01*
X43062D01*
X40008Y55421D01*
X39661Y55745D01*
X39634Y55774D01*
X39638Y55768D01*
X39661Y55745D01*
X39672Y55734D01*
X39915Y55502D01*
X40158Y55282D01*
X40413Y55086D01*
X40667Y54889D01*
X40922Y54716D01*
X41188Y54554D01*
X41442Y54403D01*
X41709Y54264D01*
X42229Y54021D01*
X42738Y53813D01*
X43236Y53640D01*
X43699Y53512D01*
X44150Y53397D01*
X44555Y53327D01*
X44740Y53293D01*
X44914Y53269D01*
X45075Y53246D01*
X45226Y53223D01*
X45353Y53211D01*
X45480Y53200D01*
X45584D01*
X45665Y53188D01*
X45827D01*
X46163Y53200D01*
X46487Y53223D01*
X46811Y53246D01*
X47123Y53293D01*
X47736Y53420D01*
X48303Y53582D01*
X48847Y53778D01*
X49356Y53998D01*
X49831Y54230D01*
X50259Y54461D01*
X50641Y54704D01*
X50814Y54820D01*
X50988Y54924D01*
X51138Y55040D01*
X51277Y55144D01*
X51404Y55248D01*
X51531Y55340D01*
X51636Y55421D01*
X51728Y55502D01*
X51798Y55572D01*
X51867Y55630D01*
X51913Y55676D01*
X51948Y55711D01*
X51971Y55722D01*
X51983Y55734D01*
X52214Y55977D01*
X52434Y56220D01*
X52631Y56474D01*
X52827Y56729D01*
X53001Y56995D01*
X53163Y57249D01*
X53325Y57516D01*
X53464Y57782D01*
X53707Y58302D01*
X53915Y58811D01*
X54088Y59309D01*
X54216Y59772D01*
X54320Y60223D01*
X54401Y60628D01*
X54436Y60813D01*
X54459Y60987D01*
X54482Y61149D01*
X54505Y61299D01*
X54517Y61426D01*
X54528Y61553D01*
Y61658D01*
X54540Y61739D01*
Y61808D01*
Y61854D01*
Y61889D01*
Y61901D01*
X54528Y62236D01*
X54505Y62560D01*
X54482Y62884D01*
X54424Y63196D01*
X54308Y63810D01*
X54135Y64388D01*
X53950Y64932D01*
X53730Y65429D01*
X53498Y65904D01*
X53255Y66332D01*
X53024Y66714D01*
X52908Y66899D01*
X52793Y67061D01*
X52677Y67211D01*
X52573Y67350D01*
X52480Y67489D01*
X52376Y67605D01*
X52295Y67709D01*
X52307Y67720D01*
X51995Y68043D01*
X51994Y68044D01*
X51983Y68056D01*
D02*
G37*
G36*
X39333Y56112D02*
X39325Y56104D01*
X39502Y55915D01*
X39499Y55919D01*
X39441Y55988D01*
X39360Y56081D01*
X39333Y56112D01*
D02*
G37*
G36*
X39502Y55915D02*
X39557Y55849D01*
X39583Y55828D01*
X39634Y55774D01*
X39614Y55803D01*
X39583Y55828D01*
X39502Y55915D01*
D02*
G37*
%LPD*%
D13*
X46500Y88000D02*
X51498D01*
X46500Y91332D01*
X51498D01*
X46500Y95498D02*
Y93831D01*
X47333Y92998D01*
X48999D01*
X49832Y93831D01*
Y95498D01*
X48999Y96331D01*
X48166D01*
Y92998D01*
X49832Y97997D02*
X47333D01*
X46500Y98830D01*
X47333Y99663D01*
X46500Y100496D01*
X47333Y101329D01*
X49832D01*
X46500Y102995D02*
X49832D01*
X51498Y104661D01*
X49832Y106327D01*
X46500D01*
X48999D01*
Y102995D01*
X51498Y111326D02*
Y107993D01*
X46500D01*
Y111326D01*
X48999Y107993D02*
Y109660D01*
X51498Y117990D02*
Y121323D01*
Y119656D01*
X46500D01*
Y125488D02*
Y123822D01*
X47333Y122989D01*
X48999D01*
X49832Y123822D01*
Y125488D01*
X48999Y126321D01*
X48166D01*
Y122989D01*
X49832Y131319D02*
Y128820D01*
X48999Y127987D01*
X47333D01*
X46500Y128820D01*
Y131319D01*
X51498Y132985D02*
X46500D01*
X48999D01*
X49832Y133818D01*
Y135485D01*
X48999Y136318D01*
X46500D01*
Y137984D02*
X49832D01*
Y140483D01*
X48999Y141316D01*
X46500D01*
Y143815D02*
Y145481D01*
X47333Y146314D01*
X48999D01*
X49832Y145481D01*
Y143815D01*
X48999Y142982D01*
X47333D01*
X46500Y143815D01*
Y147981D02*
Y149647D01*
Y148814D01*
X51498D01*
Y147981D01*
X46500Y152979D02*
Y154645D01*
X47333Y155478D01*
X48999D01*
X49832Y154645D01*
Y152979D01*
X48999Y152146D01*
X47333D01*
X46500Y152979D01*
X44834Y158810D02*
Y159643D01*
X45667Y160477D01*
X49832D01*
Y157977D01*
X48999Y157144D01*
X47333D01*
X46500Y157977D01*
Y160477D01*
X49832Y162143D02*
X47333D01*
X46500Y162976D01*
Y165475D01*
X45667D01*
X44834Y164642D01*
Y163809D01*
X46500Y165475D02*
X49832D01*
X51498Y172139D02*
Y173805D01*
Y172973D01*
X46500D01*
Y172139D01*
Y173805D01*
Y176305D02*
X49832D01*
Y178804D01*
X48999Y179637D01*
X46500D01*
X49832Y184635D02*
Y182136D01*
X48999Y181303D01*
X47333D01*
X46500Y182136D01*
Y184635D01*
Y186302D02*
X47333D01*
Y187135D01*
X46500D01*
Y186302D01*
X36000Y88000D02*
X40998D01*
X36000Y91332D01*
X40998D01*
X36000Y92998D02*
X39332D01*
X40998Y94665D01*
X39332Y96331D01*
X36000D01*
X38499D01*
Y92998D01*
X40998Y101329D02*
Y97997D01*
X36000D01*
Y101329D01*
X38499Y97997D02*
Y99663D01*
Y102995D02*
Y106327D01*
X40165Y111326D02*
X40998Y110493D01*
Y108827D01*
X40165Y107993D01*
X36833D01*
X36000Y108827D01*
Y110493D01*
X36833Y111326D01*
X40998Y112992D02*
X36000D01*
X37666Y114658D01*
X36000Y116324D01*
X40998D01*
X40165Y117990D02*
X40998Y118823D01*
Y120490D01*
X40165Y121323D01*
X39332D01*
X38499Y120490D01*
Y119656D01*
Y120490D01*
X37666Y121323D01*
X36833D01*
X36000Y120490D01*
Y118823D01*
X36833Y117990D01*
X40165Y122989D02*
X40998Y123822D01*
Y125488D01*
X40165Y126321D01*
X36833D01*
X36000Y125488D01*
Y123822D01*
X36833Y122989D01*
X40165D01*
Y127987D02*
X40998Y128820D01*
Y130486D01*
X40165Y131319D01*
X39332D01*
X38499Y130486D01*
X37666Y131319D01*
X36833D01*
X36000Y130486D01*
Y128820D01*
X36833Y127987D01*
X37666D01*
X38499Y128820D01*
X39332Y127987D01*
X40165D01*
X38499Y128820D02*
Y130486D01*
X40998Y132985D02*
Y136318D01*
Y134652D01*
X36000D01*
X38499Y137984D02*
Y141316D01*
X40165Y146314D02*
X40998Y145481D01*
Y143815D01*
X40165Y142982D01*
X39332D01*
X38499Y143815D01*
Y145481D01*
X37666Y146314D01*
X36833D01*
X36000Y145481D01*
Y143815D01*
X36833Y142982D01*
X40998Y147981D02*
Y151313D01*
Y149647D01*
X36000D01*
Y152979D02*
X40998D01*
X39332Y154645D01*
X40998Y156311D01*
X36000D01*
X40165Y157977D02*
X40998Y158810D01*
Y160477D01*
X40165Y161310D01*
X39332D01*
X38499Y160477D01*
Y159643D01*
Y160477D01*
X37666Y161310D01*
X36833D01*
X36000Y160477D01*
Y158810D01*
X36833Y157977D01*
X36000Y166308D02*
Y162976D01*
X39332Y166308D01*
X40165D01*
X40998Y165475D01*
Y163809D01*
X40165Y162976D01*
X40998Y171306D02*
Y167974D01*
X38499D01*
Y169640D01*
Y167974D01*
X36000D01*
X38499Y172973D02*
Y176305D01*
X40165Y177971D02*
X40998Y178804D01*
Y180470D01*
X40165Y181303D01*
X36833D01*
X36000Y180470D01*
Y178804D01*
X36833Y177971D01*
X40165D01*
Y182969D02*
X40998Y183802D01*
Y185468D01*
X40165Y186302D01*
X39332D01*
X38499Y185468D01*
Y184635D01*
Y185468D01*
X37666Y186302D01*
X36833D01*
X36000Y185468D01*
Y183802D01*
X36833Y182969D01*
X25000Y88000D02*
X29998D01*
Y90499D01*
X29165Y91332D01*
X27499D01*
X26666Y90499D01*
Y88000D01*
Y89666D02*
X25000Y91332D01*
Y93831D02*
Y95498D01*
X25833Y96331D01*
X27499D01*
X28332Y95498D01*
Y93831D01*
X27499Y92998D01*
X25833D01*
X25000Y93831D01*
X29998Y97997D02*
X25000D01*
X27499D01*
Y101329D01*
X29998D01*
X25000D01*
X29165Y106327D02*
X29998Y105494D01*
Y103828D01*
X29165Y102995D01*
X28332D01*
X27499Y103828D01*
Y105494D01*
X26666Y106327D01*
X25833D01*
X25000Y105494D01*
Y103828D01*
X25833Y102995D01*
X25000Y112992D02*
X28332Y116324D01*
X25000Y122989D02*
X29998D01*
Y125488D01*
X29165Y126321D01*
X27499D01*
X26666Y125488D01*
Y122989D01*
X29998Y127987D02*
X25000D01*
Y130486D01*
X25833Y131319D01*
X26666D01*
X27499Y130486D01*
Y127987D01*
Y130486D01*
X28332Y131319D01*
X29165D01*
X29998Y130486D01*
Y127987D01*
X27499Y132985D02*
Y136318D01*
X29998Y141316D02*
Y137984D01*
X27499D01*
Y139650D01*
Y137984D01*
X25000D01*
X28332Y142982D02*
X25000D01*
X26666D01*
X27499Y143815D01*
X28332Y144648D01*
Y145481D01*
X25000Y150480D02*
Y148814D01*
X25833Y147981D01*
X27499D01*
X28332Y148814D01*
Y150480D01*
X27499Y151313D01*
X26666D01*
Y147981D01*
X25000Y155478D02*
Y153812D01*
X25833Y152979D01*
X27499D01*
X28332Y153812D01*
Y155478D01*
X27499Y156311D01*
X26666D01*
Y152979D01*
X0Y0D02*
X206000D01*
Y254000D01*
X0D02*
X206000D01*
X0Y0D02*
Y254000D01*
M02*
