G04 Layer_Color=32896*
%FSLAX25Y25*%
%MOIN*%
G70*
G01*
G75*
%ADD26C,0.01000*%
%ADD50C,0.00787*%
%ADD84C,0.00784*%
%ADD85C,0.03135*%
G36*
X246700Y321224D02*
X242770Y317123D01*
X242672Y316025D01*
X242428Y313364D01*
X242233Y311436D01*
X246431Y307115D01*
X246139Y306847D01*
X242184Y310899D01*
X241965Y308409D01*
X241842D01*
Y307457D01*
X240964D01*
Y308409D01*
X238230D01*
X238132Y308214D01*
X238010Y308043D01*
X237815Y307823D01*
X237546Y307652D01*
X237253Y307555D01*
X236985Y307530D01*
X236692Y307555D01*
X236472Y307603D01*
X236252Y307701D01*
X236033Y307823D01*
X235886Y307994D01*
X235716Y308214D01*
X235593Y308482D01*
X235520Y308726D01*
X235496Y308922D01*
X235520Y309166D01*
X235569Y309361D01*
X235618Y309532D01*
X235740Y309727D01*
X235862Y309874D01*
X236008Y310020D01*
X236179Y310142D01*
X236350Y310240D01*
X236326Y310435D01*
X232859Y306847D01*
X232567Y307139D01*
X236301Y310972D01*
X235984Y314340D01*
X235789Y316757D01*
X234666D01*
Y318319D01*
X234959D01*
X232152Y321224D01*
X232445Y321493D01*
X235081Y318759D01*
Y318954D01*
X235032Y319003D01*
X234959Y319052D01*
X234886Y319125D01*
X234812Y319222D01*
X234788Y319296D01*
X234764Y319393D01*
X234739Y319515D01*
X234764Y319662D01*
X234788Y319759D01*
X234910Y319906D01*
X235008Y320028D01*
X235178Y320077D01*
X235325Y320101D01*
X235496D01*
X235618Y320028D01*
X235740Y319955D01*
X235813Y319882D01*
X235911Y319979D01*
X236082Y320101D01*
X236301Y320199D01*
X236594Y320321D01*
X236912Y320419D01*
X237253Y320492D01*
X237595Y320541D01*
X237864Y320589D01*
Y320931D01*
X240085D01*
Y320614D01*
X240256D01*
X240549Y320589D01*
X240842Y320541D01*
X241135Y320492D01*
Y320687D01*
X242111D01*
Y320223D01*
X242209Y320175D01*
X242379Y320101D01*
X242526Y320004D01*
X242672Y319906D01*
X242819Y319784D01*
X242892Y319711D01*
X242965Y319637D01*
X242990Y319540D01*
Y319393D01*
X243551D01*
Y318661D01*
X242916D01*
X242819Y317758D01*
X246431Y321493D01*
X246700Y321224D01*
D02*
G37*
G36*
X40700D02*
X36770Y317123D01*
X36672Y316025D01*
X36428Y313364D01*
X36233Y311436D01*
X40431Y307115D01*
X40139Y306847D01*
X36184Y310899D01*
X35965Y308409D01*
X35842D01*
Y307457D01*
X34964D01*
Y308409D01*
X32230D01*
X32132Y308214D01*
X32010Y308043D01*
X31815Y307823D01*
X31546Y307652D01*
X31253Y307555D01*
X30985Y307530D01*
X30692Y307555D01*
X30472Y307603D01*
X30253Y307701D01*
X30033Y307823D01*
X29886Y307994D01*
X29715Y308214D01*
X29594Y308482D01*
X29520Y308726D01*
X29496Y308922D01*
X29520Y309166D01*
X29569Y309361D01*
X29618Y309532D01*
X29740Y309727D01*
X29862Y309874D01*
X30008Y310020D01*
X30179Y310142D01*
X30350Y310240D01*
X30326Y310435D01*
X26860Y306847D01*
X26567Y307139D01*
X30301Y310972D01*
X29984Y314340D01*
X29789Y316757D01*
X28666D01*
Y318319D01*
X28959D01*
X26152Y321224D01*
X26445Y321493D01*
X29081Y318759D01*
Y318954D01*
X29032Y319003D01*
X28959Y319052D01*
X28886Y319125D01*
X28812Y319222D01*
X28788Y319296D01*
X28763Y319393D01*
X28739Y319515D01*
X28763Y319662D01*
X28788Y319759D01*
X28910Y319906D01*
X29008Y320028D01*
X29179Y320077D01*
X29325Y320101D01*
X29496D01*
X29618Y320028D01*
X29740Y319955D01*
X29813Y319882D01*
X29911Y319979D01*
X30082Y320101D01*
X30301Y320199D01*
X30594Y320321D01*
X30912Y320419D01*
X31253Y320492D01*
X31595Y320541D01*
X31864Y320589D01*
Y320931D01*
X34085D01*
Y320614D01*
X34256D01*
X34549Y320589D01*
X34842Y320541D01*
X35135Y320492D01*
Y320687D01*
X36111D01*
Y320223D01*
X36209Y320175D01*
X36379Y320101D01*
X36526Y320004D01*
X36672Y319906D01*
X36819Y319784D01*
X36892Y319711D01*
X36965Y319637D01*
X36990Y319540D01*
Y319393D01*
X37551D01*
Y318661D01*
X36916D01*
X36819Y317758D01*
X40431Y321493D01*
X40700Y321224D01*
D02*
G37*
G36*
X261766Y321055D02*
X262474Y320957D01*
X263157Y320811D01*
X263792Y320640D01*
X264402Y320420D01*
X264964Y320176D01*
X265476Y319932D01*
X265940Y319664D01*
X266379Y319395D01*
X266770Y319151D01*
X267087Y318907D01*
X267356Y318687D01*
X267576Y318516D01*
X267746Y318370D01*
X267844Y318272D01*
X267868Y318248D01*
X268357Y317711D01*
X268796Y317149D01*
X269187Y316563D01*
X269504Y315978D01*
X269772Y315392D01*
X270017Y314830D01*
X270187Y314293D01*
X270334Y313756D01*
X270456Y313268D01*
X270553Y312804D01*
X270602Y312414D01*
X270651Y312072D01*
X270676Y311779D01*
X270700Y311559D01*
Y311437D01*
Y311388D01*
X270676Y310656D01*
X270578Y309948D01*
X270431Y309265D01*
X270261Y308630D01*
X270041Y308020D01*
X269797Y307458D01*
X269553Y306946D01*
X269284Y306482D01*
X269016Y306043D01*
X268772Y305652D01*
X268528Y305335D01*
X268308Y305066D01*
X268137Y304847D01*
X267990Y304676D01*
X267893Y304578D01*
X267868Y304554D01*
X267331Y304065D01*
X266770Y303626D01*
X266184Y303236D01*
X265598Y302918D01*
X265037Y302650D01*
X264451Y302406D01*
X263914Y302235D01*
X263377Y302088D01*
X262889Y301966D01*
X262449Y301869D01*
X262059Y301820D01*
X261693Y301771D01*
X261424Y301747D01*
X261205Y301722D01*
X261034D01*
X260301Y301747D01*
X259593Y301844D01*
X258910Y301991D01*
X258275Y302162D01*
X257665Y302381D01*
X257104Y302625D01*
X256591Y302869D01*
X256103Y303138D01*
X255688Y303406D01*
X255297Y303650D01*
X254980Y303895D01*
X254712Y304114D01*
X254492Y304285D01*
X254321Y304432D01*
X254223Y304529D01*
X254199Y304554D01*
X253686Y305091D01*
X253247Y305652D01*
X252881Y306238D01*
X252539Y306824D01*
X252270Y307385D01*
X252051Y307971D01*
X251855Y308508D01*
X251709Y309045D01*
X251587Y309533D01*
X251489Y309973D01*
X251441Y310363D01*
X251392Y310729D01*
X251367Y310998D01*
X251343Y311218D01*
Y311340D01*
Y311388D01*
X251367Y312121D01*
X251465Y312829D01*
X251611Y313512D01*
X251782Y314171D01*
X252002Y314757D01*
X252246Y315318D01*
X252515Y315856D01*
X252759Y316319D01*
X253027Y316759D01*
X253296Y317149D01*
X253540Y317467D01*
X253760Y317735D01*
X253930Y317955D01*
X254077Y318126D01*
X254174Y318223D01*
X254199Y318248D01*
X254736Y318736D01*
X255297Y319175D01*
X255883Y319566D01*
X256469Y319883D01*
X257030Y320152D01*
X257616Y320396D01*
X258153Y320567D01*
X258666Y320738D01*
X259178Y320835D01*
X259618Y320933D01*
X260008Y320982D01*
X260375Y321030D01*
X260643Y321055D01*
X260863Y321079D01*
X261034D01*
X261766Y321055D01*
D02*
G37*
G36*
X55766D02*
X56474Y320957D01*
X57157Y320811D01*
X57792Y320640D01*
X58402Y320420D01*
X58964Y320176D01*
X59476Y319932D01*
X59940Y319664D01*
X60379Y319395D01*
X60770Y319151D01*
X61087Y318907D01*
X61356Y318687D01*
X61576Y318516D01*
X61746Y318370D01*
X61844Y318272D01*
X61868Y318248D01*
X62357Y317711D01*
X62796Y317149D01*
X63187Y316563D01*
X63504Y315978D01*
X63772Y315392D01*
X64016Y314830D01*
X64187Y314293D01*
X64334Y313756D01*
X64456Y313268D01*
X64553Y312804D01*
X64602Y312414D01*
X64651Y312072D01*
X64676Y311779D01*
X64700Y311559D01*
Y311437D01*
Y311388D01*
X64676Y310656D01*
X64578Y309948D01*
X64432Y309265D01*
X64261Y308630D01*
X64041Y308020D01*
X63797Y307458D01*
X63553Y306946D01*
X63284Y306482D01*
X63016Y306043D01*
X62772Y305652D01*
X62528Y305335D01*
X62308Y305066D01*
X62137Y304847D01*
X61990Y304676D01*
X61893Y304578D01*
X61868Y304554D01*
X61331Y304065D01*
X60770Y303626D01*
X60184Y303236D01*
X59598Y302918D01*
X59037Y302650D01*
X58451Y302406D01*
X57914Y302235D01*
X57377Y302088D01*
X56889Y301966D01*
X56449Y301869D01*
X56059Y301820D01*
X55693Y301771D01*
X55424Y301747D01*
X55204Y301722D01*
X55034D01*
X54301Y301747D01*
X53593Y301844D01*
X52910Y301991D01*
X52275Y302162D01*
X51665Y302381D01*
X51104Y302625D01*
X50591Y302869D01*
X50103Y303138D01*
X49688Y303406D01*
X49297Y303650D01*
X48980Y303895D01*
X48711Y304114D01*
X48492Y304285D01*
X48321Y304432D01*
X48223Y304529D01*
X48199Y304554D01*
X47686Y305091D01*
X47247Y305652D01*
X46881Y306238D01*
X46539Y306824D01*
X46270Y307385D01*
X46051Y307971D01*
X45856Y308508D01*
X45709Y309045D01*
X45587Y309533D01*
X45489Y309973D01*
X45441Y310363D01*
X45392Y310729D01*
X45367Y310998D01*
X45343Y311218D01*
Y311340D01*
Y311388D01*
X45367Y312121D01*
X45465Y312829D01*
X45611Y313512D01*
X45782Y314171D01*
X46002Y314757D01*
X46246Y315318D01*
X46515Y315856D01*
X46759Y316319D01*
X47027Y316759D01*
X47296Y317149D01*
X47540Y317467D01*
X47760Y317735D01*
X47930Y317955D01*
X48077Y318126D01*
X48174Y318223D01*
X48199Y318248D01*
X48736Y318736D01*
X49297Y319175D01*
X49883Y319566D01*
X50469Y319883D01*
X51030Y320152D01*
X51616Y320396D01*
X52153Y320567D01*
X52666Y320738D01*
X53179Y320835D01*
X53618Y320933D01*
X54008Y320982D01*
X54375Y321030D01*
X54643Y321055D01*
X54863Y321079D01*
X55034D01*
X55766Y321055D01*
D02*
G37*
G36*
X245870Y303649D02*
Y303600D01*
Y303429D01*
Y303234D01*
Y303185D01*
Y303161D01*
Y302795D01*
Y302428D01*
Y302282D01*
Y302160D01*
Y302087D01*
Y302062D01*
Y301647D01*
Y301476D01*
Y301306D01*
Y301184D01*
Y301086D01*
Y301013D01*
Y300988D01*
Y300817D01*
Y300695D01*
Y300622D01*
Y300573D01*
Y300500D01*
X233201D01*
Y300524D01*
Y300573D01*
Y300744D01*
Y300915D01*
Y300964D01*
Y300988D01*
Y301354D01*
Y301720D01*
Y301843D01*
Y301965D01*
Y302038D01*
Y302062D01*
Y302502D01*
Y302673D01*
Y302843D01*
Y302965D01*
Y303087D01*
Y303136D01*
Y303161D01*
Y303332D01*
Y303454D01*
Y303551D01*
Y303600D01*
Y303673D01*
X245870D01*
Y303649D01*
D02*
G37*
G36*
X39870D02*
Y303600D01*
Y303429D01*
Y303234D01*
Y303185D01*
Y303161D01*
Y302795D01*
Y302428D01*
Y302282D01*
Y302160D01*
Y302087D01*
Y302062D01*
Y301647D01*
Y301476D01*
Y301306D01*
Y301184D01*
Y301086D01*
Y301013D01*
Y300988D01*
Y300817D01*
Y300695D01*
Y300622D01*
Y300573D01*
Y300500D01*
X27201D01*
Y300524D01*
Y300573D01*
Y300744D01*
Y300915D01*
Y300964D01*
Y300988D01*
Y301354D01*
Y301720D01*
Y301843D01*
Y301965D01*
Y302038D01*
Y302062D01*
Y302502D01*
Y302673D01*
Y302843D01*
Y302965D01*
Y303087D01*
Y303136D01*
Y303161D01*
Y303332D01*
Y303454D01*
Y303551D01*
Y303600D01*
Y303673D01*
X39870D01*
Y303649D01*
D02*
G37*
G36*
X264744Y296364D02*
X265208Y296315D01*
X265671Y296218D01*
X266087Y296096D01*
X266501Y295949D01*
X266868Y295778D01*
X267209Y295607D01*
X267527Y295437D01*
X267820Y295266D01*
X268088Y295095D01*
X268308Y294924D01*
X268479Y294777D01*
X268625Y294655D01*
X268723Y294558D01*
X268796Y294509D01*
X268820Y294484D01*
X269162Y294118D01*
X269431Y293752D01*
X269699Y293362D01*
X269895Y292971D01*
X270090Y292605D01*
X270236Y292214D01*
X270358Y291848D01*
X270456Y291507D01*
X270553Y291189D01*
X270602Y290896D01*
X270651Y290628D01*
X270676Y290384D01*
Y290213D01*
X270700Y290066D01*
Y289969D01*
Y289944D01*
X270676Y289456D01*
X270627Y288992D01*
X270529Y288528D01*
X270407Y288113D01*
X270261Y287699D01*
X270114Y287332D01*
X269943Y286991D01*
X269748Y286673D01*
X269577Y286380D01*
X269406Y286112D01*
X269260Y285892D01*
X269113Y285721D01*
X268991Y285575D01*
X268894Y285477D01*
X268845Y285404D01*
X268820Y285380D01*
X268454Y285038D01*
X268088Y284769D01*
X267698Y284501D01*
X267307Y284306D01*
X266916Y284110D01*
X266550Y283964D01*
X266184Y283842D01*
X265818Y283744D01*
X265501Y283646D01*
X265208Y283598D01*
X264939Y283549D01*
X264695Y283524D01*
X264524D01*
X264378Y283500D01*
X264012D01*
X263792Y283524D01*
X263597D01*
Y285477D01*
X263816Y285453D01*
X264036Y285428D01*
X264256D01*
X264598Y285453D01*
X264915Y285477D01*
X265525Y285624D01*
X266087Y285843D01*
X266550Y286087D01*
X266941Y286332D01*
X267087Y286454D01*
X267209Y286551D01*
X267307Y286625D01*
X267380Y286698D01*
X267429Y286722D01*
X267454Y286747D01*
X267673Y286991D01*
X267893Y287259D01*
X268064Y287528D01*
X268210Y287796D01*
X268454Y288333D01*
X268601Y288846D01*
X268698Y289285D01*
X268723Y289480D01*
X268747Y289627D01*
X268772Y289773D01*
Y289871D01*
Y289920D01*
Y289944D01*
X268747Y290286D01*
X268723Y290628D01*
X268576Y291238D01*
X268357Y291775D01*
X268112Y292239D01*
X267868Y292629D01*
X267746Y292776D01*
X267649Y292898D01*
X267576Y293020D01*
X267502Y293093D01*
X267478Y293117D01*
X267454Y293142D01*
X267185Y293386D01*
X266941Y293581D01*
X266648Y293752D01*
X266379Y293899D01*
X265842Y294143D01*
X265354Y294289D01*
X264915Y294387D01*
X264720Y294411D01*
X264573Y294436D01*
X264427Y294460D01*
X264012D01*
X263792Y294436D01*
X263646Y294411D01*
X263597D01*
Y296364D01*
X263816Y296389D01*
X264256D01*
X264744Y296364D01*
D02*
G37*
G36*
X253760D02*
X254248Y296315D01*
X254687Y296218D01*
X255126Y296096D01*
X255517Y295949D01*
X255908Y295778D01*
X256249Y295607D01*
X256567Y295437D01*
X256859Y295266D01*
X257104Y295095D01*
X257348Y294924D01*
X257519Y294777D01*
X257665Y294655D01*
X257763Y294558D01*
X257836Y294509D01*
X257860Y294484D01*
X258202Y294118D01*
X258471Y293752D01*
X258739Y293362D01*
X258934Y292971D01*
X259130Y292605D01*
X259276Y292214D01*
X259398Y291848D01*
X259496Y291507D01*
X259593Y291189D01*
X259642Y290896D01*
X259691Y290628D01*
X259716Y290384D01*
Y290213D01*
X259740Y290066D01*
Y289969D01*
Y289944D01*
X259716Y289456D01*
X259667Y288992D01*
X259569Y288528D01*
X259447Y288113D01*
X259300Y287699D01*
X259154Y287332D01*
X258983Y286991D01*
X258788Y286673D01*
X258617Y286380D01*
X258446Y286112D01*
X258300Y285892D01*
X258153Y285721D01*
X258031Y285575D01*
X257934Y285477D01*
X257885Y285404D01*
X257860Y285380D01*
X257494Y285038D01*
X257104Y284769D01*
X256737Y284501D01*
X256347Y284306D01*
X255956Y284110D01*
X255566Y283964D01*
X255200Y283842D01*
X254858Y283744D01*
X254516Y283646D01*
X254223Y283598D01*
X253955Y283549D01*
X253711Y283524D01*
X253540D01*
X253393Y283500D01*
X253027D01*
X252832Y283524D01*
X252637D01*
Y285477D01*
X252856Y285453D01*
X253052Y285428D01*
X253271D01*
X253857Y285477D01*
X254394Y285575D01*
X254882Y285746D01*
X255297Y285941D01*
X255639Y286112D01*
X255908Y286283D01*
X256005Y286332D01*
X256078Y286380D01*
X256103Y286429D01*
X256127D01*
X256542Y286820D01*
X256884Y287259D01*
X257152Y287674D01*
X257372Y288065D01*
X257519Y288431D01*
X257616Y288724D01*
X257641Y288821D01*
X257665Y288895D01*
X257689Y288943D01*
Y288968D01*
X253930D01*
Y290921D01*
X257689D01*
X257519Y291482D01*
X257299Y291970D01*
X257055Y292410D01*
X256786Y292776D01*
X256542Y293069D01*
X256323Y293288D01*
X256176Y293410D01*
X256152Y293459D01*
X256127D01*
X255639Y293801D01*
X255151Y294045D01*
X254687Y294216D01*
X254223Y294338D01*
X253857Y294411D01*
X253686Y294436D01*
X253540D01*
X253418Y294460D01*
X253027D01*
X252832Y294436D01*
X252685Y294411D01*
X252637D01*
Y296364D01*
X252881Y296389D01*
X253271D01*
X253760Y296364D01*
D02*
G37*
G36*
X58744D02*
X59208Y296315D01*
X59671Y296218D01*
X60087Y296096D01*
X60501Y295949D01*
X60868Y295778D01*
X61209Y295607D01*
X61527Y295437D01*
X61820Y295266D01*
X62088Y295095D01*
X62308Y294924D01*
X62479Y294777D01*
X62625Y294655D01*
X62723Y294558D01*
X62796Y294509D01*
X62820Y294484D01*
X63162Y294118D01*
X63431Y293752D01*
X63699Y293362D01*
X63894Y292971D01*
X64090Y292605D01*
X64236Y292214D01*
X64358Y291848D01*
X64456Y291507D01*
X64553Y291189D01*
X64602Y290896D01*
X64651Y290628D01*
X64676Y290384D01*
Y290213D01*
X64700Y290066D01*
Y289969D01*
Y289944D01*
X64676Y289456D01*
X64627Y288992D01*
X64529Y288528D01*
X64407Y288113D01*
X64261Y287699D01*
X64114Y287332D01*
X63943Y286991D01*
X63748Y286673D01*
X63577Y286380D01*
X63406Y286112D01*
X63260Y285892D01*
X63113Y285721D01*
X62991Y285575D01*
X62894Y285477D01*
X62845Y285404D01*
X62820Y285380D01*
X62454Y285038D01*
X62088Y284769D01*
X61698Y284501D01*
X61307Y284306D01*
X60916Y284110D01*
X60550Y283964D01*
X60184Y283842D01*
X59818Y283744D01*
X59501Y283646D01*
X59208Y283598D01*
X58939Y283549D01*
X58695Y283524D01*
X58524D01*
X58378Y283500D01*
X58012D01*
X57792Y283524D01*
X57597D01*
Y285477D01*
X57816Y285453D01*
X58036Y285428D01*
X58256D01*
X58597Y285453D01*
X58915Y285477D01*
X59525Y285624D01*
X60087Y285843D01*
X60550Y286087D01*
X60941Y286332D01*
X61087Y286454D01*
X61209Y286551D01*
X61307Y286625D01*
X61380Y286698D01*
X61429Y286722D01*
X61453Y286747D01*
X61673Y286991D01*
X61893Y287259D01*
X62064Y287528D01*
X62210Y287796D01*
X62454Y288333D01*
X62601Y288846D01*
X62698Y289285D01*
X62723Y289480D01*
X62747Y289627D01*
X62772Y289773D01*
Y289871D01*
Y289920D01*
Y289944D01*
X62747Y290286D01*
X62723Y290628D01*
X62576Y291238D01*
X62357Y291775D01*
X62112Y292239D01*
X61868Y292629D01*
X61746Y292776D01*
X61649Y292898D01*
X61576Y293020D01*
X61502Y293093D01*
X61478Y293117D01*
X61453Y293142D01*
X61185Y293386D01*
X60941Y293581D01*
X60648Y293752D01*
X60379Y293899D01*
X59842Y294143D01*
X59354Y294289D01*
X58915Y294387D01*
X58720Y294411D01*
X58573Y294436D01*
X58427Y294460D01*
X58012D01*
X57792Y294436D01*
X57645Y294411D01*
X57597D01*
Y296364D01*
X57816Y296389D01*
X58256D01*
X58744Y296364D01*
D02*
G37*
G36*
X47760D02*
X48248Y296315D01*
X48687Y296218D01*
X49126Y296096D01*
X49517Y295949D01*
X49907Y295778D01*
X50249Y295607D01*
X50567Y295437D01*
X50859Y295266D01*
X51104Y295095D01*
X51348Y294924D01*
X51519Y294777D01*
X51665Y294655D01*
X51763Y294558D01*
X51836Y294509D01*
X51860Y294484D01*
X52202Y294118D01*
X52471Y293752D01*
X52739Y293362D01*
X52934Y292971D01*
X53130Y292605D01*
X53276Y292214D01*
X53398Y291848D01*
X53496Y291507D01*
X53593Y291189D01*
X53642Y290896D01*
X53691Y290628D01*
X53715Y290384D01*
Y290213D01*
X53740Y290066D01*
Y289969D01*
Y289944D01*
X53715Y289456D01*
X53667Y288992D01*
X53569Y288528D01*
X53447Y288113D01*
X53300Y287699D01*
X53154Y287332D01*
X52983Y286991D01*
X52788Y286673D01*
X52617Y286380D01*
X52446Y286112D01*
X52300Y285892D01*
X52153Y285721D01*
X52031Y285575D01*
X51934Y285477D01*
X51885Y285404D01*
X51860Y285380D01*
X51494Y285038D01*
X51104Y284769D01*
X50738Y284501D01*
X50347Y284306D01*
X49956Y284110D01*
X49566Y283964D01*
X49200Y283842D01*
X48858Y283744D01*
X48516Y283646D01*
X48223Y283598D01*
X47955Y283549D01*
X47711Y283524D01*
X47540D01*
X47393Y283500D01*
X47027D01*
X46832Y283524D01*
X46637D01*
Y285477D01*
X46856Y285453D01*
X47052Y285428D01*
X47271D01*
X47857Y285477D01*
X48394Y285575D01*
X48882Y285746D01*
X49297Y285941D01*
X49639Y286112D01*
X49907Y286283D01*
X50005Y286332D01*
X50078Y286380D01*
X50103Y286429D01*
X50127D01*
X50542Y286820D01*
X50884Y287259D01*
X51152Y287674D01*
X51372Y288065D01*
X51519Y288431D01*
X51616Y288724D01*
X51641Y288821D01*
X51665Y288895D01*
X51689Y288943D01*
Y288968D01*
X47930D01*
Y290921D01*
X51689D01*
X51519Y291482D01*
X51299Y291970D01*
X51055Y292410D01*
X50786Y292776D01*
X50542Y293069D01*
X50323Y293288D01*
X50176Y293410D01*
X50152Y293459D01*
X50127D01*
X49639Y293801D01*
X49151Y294045D01*
X48687Y294216D01*
X48223Y294338D01*
X47857Y294411D01*
X47686Y294436D01*
X47540D01*
X47418Y294460D01*
X47027D01*
X46832Y294436D01*
X46685Y294411D01*
X46637D01*
Y296364D01*
X46881Y296389D01*
X47271D01*
X47760Y296364D01*
D02*
G37*
G36*
X246700Y67224D02*
X242770Y63123D01*
X242672Y62025D01*
X242428Y59364D01*
X242233Y57436D01*
X246431Y53115D01*
X246139Y52847D01*
X242184Y56899D01*
X241965Y54409D01*
X241842D01*
Y53457D01*
X240964D01*
Y54409D01*
X238230D01*
X238132Y54214D01*
X238010Y54043D01*
X237815Y53823D01*
X237546Y53652D01*
X237253Y53554D01*
X236985Y53530D01*
X236692Y53554D01*
X236472Y53603D01*
X236252Y53701D01*
X236033Y53823D01*
X235886Y53994D01*
X235716Y54214D01*
X235593Y54482D01*
X235520Y54726D01*
X235496Y54922D01*
X235520Y55166D01*
X235569Y55361D01*
X235618Y55532D01*
X235740Y55727D01*
X235862Y55874D01*
X236008Y56020D01*
X236179Y56142D01*
X236350Y56240D01*
X236326Y56435D01*
X232859Y52847D01*
X232567Y53140D01*
X236301Y56972D01*
X235984Y60340D01*
X235789Y62757D01*
X234666D01*
Y64319D01*
X234959D01*
X232152Y67224D01*
X232445Y67493D01*
X235081Y64759D01*
Y64954D01*
X235032Y65003D01*
X234959Y65052D01*
X234886Y65125D01*
X234812Y65223D01*
X234788Y65296D01*
X234764Y65393D01*
X234739Y65515D01*
X234764Y65662D01*
X234788Y65759D01*
X234910Y65906D01*
X235008Y66028D01*
X235178Y66077D01*
X235325Y66101D01*
X235496D01*
X235618Y66028D01*
X235740Y65955D01*
X235813Y65882D01*
X235911Y65979D01*
X236082Y66101D01*
X236301Y66199D01*
X236594Y66321D01*
X236912Y66419D01*
X237253Y66492D01*
X237595Y66541D01*
X237864Y66589D01*
Y66931D01*
X240085D01*
Y66614D01*
X240256D01*
X240549Y66589D01*
X240842Y66541D01*
X241135Y66492D01*
Y66687D01*
X242111D01*
Y66223D01*
X242209Y66175D01*
X242379Y66101D01*
X242526Y66004D01*
X242672Y65906D01*
X242819Y65784D01*
X242892Y65711D01*
X242965Y65637D01*
X242990Y65540D01*
Y65393D01*
X243551D01*
Y64661D01*
X242916D01*
X242819Y63758D01*
X246431Y67493D01*
X246700Y67224D01*
D02*
G37*
G36*
X40700D02*
X36770Y63123D01*
X36672Y62025D01*
X36428Y59364D01*
X36233Y57436D01*
X40431Y53115D01*
X40139Y52847D01*
X36184Y56899D01*
X35965Y54409D01*
X35842D01*
Y53457D01*
X34964D01*
Y54409D01*
X32230D01*
X32132Y54214D01*
X32010Y54043D01*
X31815Y53823D01*
X31546Y53652D01*
X31253Y53554D01*
X30985Y53530D01*
X30692Y53554D01*
X30472Y53603D01*
X30253Y53701D01*
X30033Y53823D01*
X29886Y53994D01*
X29715Y54214D01*
X29594Y54482D01*
X29520Y54726D01*
X29496Y54922D01*
X29520Y55166D01*
X29569Y55361D01*
X29618Y55532D01*
X29740Y55727D01*
X29862Y55874D01*
X30008Y56020D01*
X30179Y56142D01*
X30350Y56240D01*
X30326Y56435D01*
X26860Y52847D01*
X26567Y53140D01*
X30301Y56972D01*
X29984Y60340D01*
X29789Y62757D01*
X28666D01*
Y64319D01*
X28959D01*
X26152Y67224D01*
X26445Y67493D01*
X29081Y64759D01*
Y64954D01*
X29032Y65003D01*
X28959Y65052D01*
X28886Y65125D01*
X28812Y65223D01*
X28788Y65296D01*
X28763Y65393D01*
X28739Y65515D01*
X28763Y65662D01*
X28788Y65759D01*
X28910Y65906D01*
X29008Y66028D01*
X29179Y66077D01*
X29325Y66101D01*
X29496D01*
X29618Y66028D01*
X29740Y65955D01*
X29813Y65882D01*
X29911Y65979D01*
X30082Y66101D01*
X30301Y66199D01*
X30594Y66321D01*
X30912Y66419D01*
X31253Y66492D01*
X31595Y66541D01*
X31864Y66589D01*
Y66931D01*
X34085D01*
Y66614D01*
X34256D01*
X34549Y66589D01*
X34842Y66541D01*
X35135Y66492D01*
Y66687D01*
X36111D01*
Y66223D01*
X36209Y66175D01*
X36379Y66101D01*
X36526Y66004D01*
X36672Y65906D01*
X36819Y65784D01*
X36892Y65711D01*
X36965Y65637D01*
X36990Y65540D01*
Y65393D01*
X37551D01*
Y64661D01*
X36916D01*
X36819Y63758D01*
X40431Y67493D01*
X40700Y67224D01*
D02*
G37*
G36*
X261766Y67055D02*
X262474Y66957D01*
X263157Y66811D01*
X263792Y66640D01*
X264402Y66420D01*
X264964Y66176D01*
X265476Y65932D01*
X265940Y65663D01*
X266379Y65395D01*
X266770Y65151D01*
X267087Y64907D01*
X267356Y64687D01*
X267576Y64516D01*
X267746Y64370D01*
X267844Y64272D01*
X267868Y64248D01*
X268357Y63711D01*
X268796Y63149D01*
X269187Y62563D01*
X269504Y61978D01*
X269772Y61392D01*
X270017Y60830D01*
X270187Y60293D01*
X270334Y59756D01*
X270456Y59268D01*
X270553Y58804D01*
X270602Y58414D01*
X270651Y58072D01*
X270676Y57779D01*
X270700Y57559D01*
Y57437D01*
Y57389D01*
X270676Y56656D01*
X270578Y55948D01*
X270431Y55265D01*
X270261Y54630D01*
X270041Y54020D01*
X269797Y53458D01*
X269553Y52946D01*
X269284Y52482D01*
X269016Y52043D01*
X268772Y51652D01*
X268528Y51335D01*
X268308Y51066D01*
X268137Y50847D01*
X267990Y50676D01*
X267893Y50578D01*
X267868Y50554D01*
X267331Y50065D01*
X266770Y49626D01*
X266184Y49236D01*
X265598Y48918D01*
X265037Y48650D01*
X264451Y48406D01*
X263914Y48235D01*
X263377Y48088D01*
X262889Y47966D01*
X262449Y47869D01*
X262059Y47820D01*
X261693Y47771D01*
X261424Y47747D01*
X261205Y47722D01*
X261034D01*
X260301Y47747D01*
X259593Y47844D01*
X258910Y47991D01*
X258275Y48162D01*
X257665Y48381D01*
X257104Y48625D01*
X256591Y48869D01*
X256103Y49138D01*
X255688Y49406D01*
X255297Y49650D01*
X254980Y49895D01*
X254712Y50114D01*
X254492Y50285D01*
X254321Y50432D01*
X254223Y50529D01*
X254199Y50554D01*
X253686Y51091D01*
X253247Y51652D01*
X252881Y52238D01*
X252539Y52824D01*
X252270Y53385D01*
X252051Y53971D01*
X251855Y54508D01*
X251709Y55045D01*
X251587Y55533D01*
X251489Y55973D01*
X251441Y56363D01*
X251392Y56729D01*
X251367Y56998D01*
X251343Y57218D01*
Y57340D01*
Y57389D01*
X251367Y58121D01*
X251465Y58829D01*
X251611Y59512D01*
X251782Y60171D01*
X252002Y60757D01*
X252246Y61318D01*
X252515Y61856D01*
X252759Y62319D01*
X253027Y62759D01*
X253296Y63149D01*
X253540Y63467D01*
X253760Y63735D01*
X253930Y63955D01*
X254077Y64126D01*
X254174Y64223D01*
X254199Y64248D01*
X254736Y64736D01*
X255297Y65175D01*
X255883Y65566D01*
X256469Y65883D01*
X257030Y66152D01*
X257616Y66396D01*
X258153Y66567D01*
X258666Y66738D01*
X259178Y66835D01*
X259618Y66933D01*
X260008Y66982D01*
X260375Y67030D01*
X260643Y67055D01*
X260863Y67079D01*
X261034D01*
X261766Y67055D01*
D02*
G37*
G36*
X55766D02*
X56474Y66957D01*
X57157Y66811D01*
X57792Y66640D01*
X58402Y66420D01*
X58964Y66176D01*
X59476Y65932D01*
X59940Y65663D01*
X60379Y65395D01*
X60770Y65151D01*
X61087Y64907D01*
X61356Y64687D01*
X61576Y64516D01*
X61746Y64370D01*
X61844Y64272D01*
X61868Y64248D01*
X62357Y63711D01*
X62796Y63149D01*
X63187Y62563D01*
X63504Y61978D01*
X63772Y61392D01*
X64016Y60830D01*
X64187Y60293D01*
X64334Y59756D01*
X64456Y59268D01*
X64553Y58804D01*
X64602Y58414D01*
X64651Y58072D01*
X64676Y57779D01*
X64700Y57559D01*
Y57437D01*
Y57389D01*
X64676Y56656D01*
X64578Y55948D01*
X64432Y55265D01*
X64261Y54630D01*
X64041Y54020D01*
X63797Y53458D01*
X63553Y52946D01*
X63284Y52482D01*
X63016Y52043D01*
X62772Y51652D01*
X62528Y51335D01*
X62308Y51066D01*
X62137Y50847D01*
X61990Y50676D01*
X61893Y50578D01*
X61868Y50554D01*
X61331Y50065D01*
X60770Y49626D01*
X60184Y49236D01*
X59598Y48918D01*
X59037Y48650D01*
X58451Y48406D01*
X57914Y48235D01*
X57377Y48088D01*
X56889Y47966D01*
X56449Y47869D01*
X56059Y47820D01*
X55693Y47771D01*
X55424Y47747D01*
X55204Y47722D01*
X55034D01*
X54301Y47747D01*
X53593Y47844D01*
X52910Y47991D01*
X52275Y48162D01*
X51665Y48381D01*
X51104Y48625D01*
X50591Y48869D01*
X50103Y49138D01*
X49688Y49406D01*
X49297Y49650D01*
X48980Y49895D01*
X48711Y50114D01*
X48492Y50285D01*
X48321Y50432D01*
X48223Y50529D01*
X48199Y50554D01*
X47686Y51091D01*
X47247Y51652D01*
X46881Y52238D01*
X46539Y52824D01*
X46270Y53385D01*
X46051Y53971D01*
X45856Y54508D01*
X45709Y55045D01*
X45587Y55533D01*
X45489Y55973D01*
X45441Y56363D01*
X45392Y56729D01*
X45367Y56998D01*
X45343Y57218D01*
Y57340D01*
Y57389D01*
X45367Y58121D01*
X45465Y58829D01*
X45611Y59512D01*
X45782Y60171D01*
X46002Y60757D01*
X46246Y61318D01*
X46515Y61856D01*
X46759Y62319D01*
X47027Y62759D01*
X47296Y63149D01*
X47540Y63467D01*
X47760Y63735D01*
X47930Y63955D01*
X48077Y64126D01*
X48174Y64223D01*
X48199Y64248D01*
X48736Y64736D01*
X49297Y65175D01*
X49883Y65566D01*
X50469Y65883D01*
X51030Y66152D01*
X51616Y66396D01*
X52153Y66567D01*
X52666Y66738D01*
X53179Y66835D01*
X53618Y66933D01*
X54008Y66982D01*
X54375Y67030D01*
X54643Y67055D01*
X54863Y67079D01*
X55034D01*
X55766Y67055D01*
D02*
G37*
G36*
X245870Y49649D02*
Y49600D01*
Y49429D01*
Y49234D01*
Y49185D01*
Y49161D01*
Y48794D01*
Y48428D01*
Y48282D01*
Y48160D01*
Y48087D01*
Y48062D01*
Y47647D01*
Y47476D01*
Y47306D01*
Y47183D01*
Y47086D01*
Y47013D01*
Y46988D01*
Y46817D01*
Y46695D01*
Y46622D01*
Y46573D01*
Y46500D01*
X233201D01*
Y46524D01*
Y46573D01*
Y46744D01*
Y46915D01*
Y46964D01*
Y46988D01*
Y47354D01*
Y47721D01*
Y47843D01*
Y47965D01*
Y48038D01*
Y48062D01*
Y48502D01*
Y48673D01*
Y48843D01*
Y48965D01*
Y49088D01*
Y49136D01*
Y49161D01*
Y49332D01*
Y49454D01*
Y49551D01*
Y49600D01*
Y49673D01*
X245870D01*
Y49649D01*
D02*
G37*
G36*
X39870D02*
Y49600D01*
Y49429D01*
Y49234D01*
Y49185D01*
Y49161D01*
Y48794D01*
Y48428D01*
Y48282D01*
Y48160D01*
Y48087D01*
Y48062D01*
Y47647D01*
Y47476D01*
Y47306D01*
Y47183D01*
Y47086D01*
Y47013D01*
Y46988D01*
Y46817D01*
Y46695D01*
Y46622D01*
Y46573D01*
Y46500D01*
X27201D01*
Y46524D01*
Y46573D01*
Y46744D01*
Y46915D01*
Y46964D01*
Y46988D01*
Y47354D01*
Y47721D01*
Y47843D01*
Y47965D01*
Y48038D01*
Y48062D01*
Y48502D01*
Y48673D01*
Y48843D01*
Y48965D01*
Y49088D01*
Y49136D01*
Y49161D01*
Y49332D01*
Y49454D01*
Y49551D01*
Y49600D01*
Y49673D01*
X39870D01*
Y49649D01*
D02*
G37*
G36*
X264744Y42364D02*
X265208Y42315D01*
X265671Y42218D01*
X266087Y42096D01*
X266501Y41949D01*
X266868Y41778D01*
X267209Y41607D01*
X267527Y41436D01*
X267820Y41266D01*
X268088Y41095D01*
X268308Y40924D01*
X268479Y40777D01*
X268625Y40655D01*
X268723Y40558D01*
X268796Y40509D01*
X268820Y40484D01*
X269162Y40118D01*
X269431Y39752D01*
X269699Y39362D01*
X269895Y38971D01*
X270090Y38605D01*
X270236Y38214D01*
X270358Y37848D01*
X270456Y37506D01*
X270553Y37189D01*
X270602Y36896D01*
X270651Y36628D01*
X270676Y36384D01*
Y36213D01*
X270700Y36066D01*
Y35969D01*
Y35944D01*
X270676Y35456D01*
X270627Y34992D01*
X270529Y34528D01*
X270407Y34113D01*
X270261Y33698D01*
X270114Y33332D01*
X269943Y32991D01*
X269748Y32673D01*
X269577Y32380D01*
X269406Y32112D01*
X269260Y31892D01*
X269113Y31721D01*
X268991Y31575D01*
X268894Y31477D01*
X268845Y31404D01*
X268820Y31380D01*
X268454Y31038D01*
X268088Y30769D01*
X267698Y30501D01*
X267307Y30305D01*
X266916Y30110D01*
X266550Y29964D01*
X266184Y29842D01*
X265818Y29744D01*
X265501Y29647D01*
X265208Y29598D01*
X264939Y29549D01*
X264695Y29524D01*
X264524D01*
X264378Y29500D01*
X264012D01*
X263792Y29524D01*
X263597D01*
Y31477D01*
X263816Y31453D01*
X264036Y31428D01*
X264256D01*
X264598Y31453D01*
X264915Y31477D01*
X265525Y31624D01*
X266087Y31843D01*
X266550Y32087D01*
X266941Y32332D01*
X267087Y32454D01*
X267209Y32551D01*
X267307Y32625D01*
X267380Y32698D01*
X267429Y32722D01*
X267454Y32746D01*
X267673Y32991D01*
X267893Y33259D01*
X268064Y33528D01*
X268210Y33796D01*
X268454Y34333D01*
X268601Y34846D01*
X268698Y35285D01*
X268723Y35480D01*
X268747Y35627D01*
X268772Y35773D01*
Y35871D01*
Y35920D01*
Y35944D01*
X268747Y36286D01*
X268723Y36628D01*
X268576Y37238D01*
X268357Y37775D01*
X268112Y38239D01*
X267868Y38629D01*
X267746Y38776D01*
X267649Y38898D01*
X267576Y39020D01*
X267502Y39093D01*
X267478Y39118D01*
X267454Y39142D01*
X267185Y39386D01*
X266941Y39581D01*
X266648Y39752D01*
X266379Y39899D01*
X265842Y40143D01*
X265354Y40289D01*
X264915Y40387D01*
X264720Y40411D01*
X264573Y40436D01*
X264427Y40460D01*
X264012D01*
X263792Y40436D01*
X263646Y40411D01*
X263597D01*
Y42364D01*
X263816Y42388D01*
X264256D01*
X264744Y42364D01*
D02*
G37*
G36*
X253760D02*
X254248Y42315D01*
X254687Y42218D01*
X255126Y42096D01*
X255517Y41949D01*
X255908Y41778D01*
X256249Y41607D01*
X256567Y41436D01*
X256859Y41266D01*
X257104Y41095D01*
X257348Y40924D01*
X257519Y40777D01*
X257665Y40655D01*
X257763Y40558D01*
X257836Y40509D01*
X257860Y40484D01*
X258202Y40118D01*
X258471Y39752D01*
X258739Y39362D01*
X258934Y38971D01*
X259130Y38605D01*
X259276Y38214D01*
X259398Y37848D01*
X259496Y37506D01*
X259593Y37189D01*
X259642Y36896D01*
X259691Y36628D01*
X259716Y36384D01*
Y36213D01*
X259740Y36066D01*
Y35969D01*
Y35944D01*
X259716Y35456D01*
X259667Y34992D01*
X259569Y34528D01*
X259447Y34113D01*
X259300Y33698D01*
X259154Y33332D01*
X258983Y32991D01*
X258788Y32673D01*
X258617Y32380D01*
X258446Y32112D01*
X258300Y31892D01*
X258153Y31721D01*
X258031Y31575D01*
X257934Y31477D01*
X257885Y31404D01*
X257860Y31380D01*
X257494Y31038D01*
X257104Y30769D01*
X256737Y30501D01*
X256347Y30305D01*
X255956Y30110D01*
X255566Y29964D01*
X255200Y29842D01*
X254858Y29744D01*
X254516Y29647D01*
X254223Y29598D01*
X253955Y29549D01*
X253711Y29524D01*
X253540D01*
X253393Y29500D01*
X253027D01*
X252832Y29524D01*
X252637D01*
Y31477D01*
X252856Y31453D01*
X253052Y31428D01*
X253271D01*
X253857Y31477D01*
X254394Y31575D01*
X254882Y31746D01*
X255297Y31941D01*
X255639Y32112D01*
X255908Y32283D01*
X256005Y32332D01*
X256078Y32380D01*
X256103Y32429D01*
X256127D01*
X256542Y32820D01*
X256884Y33259D01*
X257152Y33674D01*
X257372Y34065D01*
X257519Y34431D01*
X257616Y34724D01*
X257641Y34821D01*
X257665Y34895D01*
X257689Y34943D01*
Y34968D01*
X253930D01*
Y36921D01*
X257689D01*
X257519Y37482D01*
X257299Y37970D01*
X257055Y38410D01*
X256786Y38776D01*
X256542Y39069D01*
X256323Y39288D01*
X256176Y39410D01*
X256152Y39459D01*
X256127D01*
X255639Y39801D01*
X255151Y40045D01*
X254687Y40216D01*
X254223Y40338D01*
X253857Y40411D01*
X253686Y40436D01*
X253540D01*
X253418Y40460D01*
X253027D01*
X252832Y40436D01*
X252685Y40411D01*
X252637D01*
Y42364D01*
X252881Y42388D01*
X253271D01*
X253760Y42364D01*
D02*
G37*
G36*
X58744D02*
X59208Y42315D01*
X59671Y42218D01*
X60087Y42096D01*
X60501Y41949D01*
X60868Y41778D01*
X61209Y41607D01*
X61527Y41436D01*
X61820Y41266D01*
X62088Y41095D01*
X62308Y40924D01*
X62479Y40777D01*
X62625Y40655D01*
X62723Y40558D01*
X62796Y40509D01*
X62820Y40484D01*
X63162Y40118D01*
X63431Y39752D01*
X63699Y39362D01*
X63894Y38971D01*
X64090Y38605D01*
X64236Y38214D01*
X64358Y37848D01*
X64456Y37506D01*
X64553Y37189D01*
X64602Y36896D01*
X64651Y36628D01*
X64676Y36384D01*
Y36213D01*
X64700Y36066D01*
Y35969D01*
Y35944D01*
X64676Y35456D01*
X64627Y34992D01*
X64529Y34528D01*
X64407Y34113D01*
X64261Y33698D01*
X64114Y33332D01*
X63943Y32991D01*
X63748Y32673D01*
X63577Y32380D01*
X63406Y32112D01*
X63260Y31892D01*
X63113Y31721D01*
X62991Y31575D01*
X62894Y31477D01*
X62845Y31404D01*
X62820Y31380D01*
X62454Y31038D01*
X62088Y30769D01*
X61698Y30501D01*
X61307Y30305D01*
X60916Y30110D01*
X60550Y29964D01*
X60184Y29842D01*
X59818Y29744D01*
X59501Y29647D01*
X59208Y29598D01*
X58939Y29549D01*
X58695Y29524D01*
X58524D01*
X58378Y29500D01*
X58012D01*
X57792Y29524D01*
X57597D01*
Y31477D01*
X57816Y31453D01*
X58036Y31428D01*
X58256D01*
X58597Y31453D01*
X58915Y31477D01*
X59525Y31624D01*
X60087Y31843D01*
X60550Y32087D01*
X60941Y32332D01*
X61087Y32454D01*
X61209Y32551D01*
X61307Y32625D01*
X61380Y32698D01*
X61429Y32722D01*
X61453Y32746D01*
X61673Y32991D01*
X61893Y33259D01*
X62064Y33528D01*
X62210Y33796D01*
X62454Y34333D01*
X62601Y34846D01*
X62698Y35285D01*
X62723Y35480D01*
X62747Y35627D01*
X62772Y35773D01*
Y35871D01*
Y35920D01*
Y35944D01*
X62747Y36286D01*
X62723Y36628D01*
X62576Y37238D01*
X62357Y37775D01*
X62112Y38239D01*
X61868Y38629D01*
X61746Y38776D01*
X61649Y38898D01*
X61576Y39020D01*
X61502Y39093D01*
X61478Y39118D01*
X61453Y39142D01*
X61185Y39386D01*
X60941Y39581D01*
X60648Y39752D01*
X60379Y39899D01*
X59842Y40143D01*
X59354Y40289D01*
X58915Y40387D01*
X58720Y40411D01*
X58573Y40436D01*
X58427Y40460D01*
X58012D01*
X57792Y40436D01*
X57645Y40411D01*
X57597D01*
Y42364D01*
X57816Y42388D01*
X58256D01*
X58744Y42364D01*
D02*
G37*
G36*
X47760D02*
X48248Y42315D01*
X48687Y42218D01*
X49126Y42096D01*
X49517Y41949D01*
X49907Y41778D01*
X50249Y41607D01*
X50567Y41436D01*
X50859Y41266D01*
X51104Y41095D01*
X51348Y40924D01*
X51519Y40777D01*
X51665Y40655D01*
X51763Y40558D01*
X51836Y40509D01*
X51860Y40484D01*
X52202Y40118D01*
X52471Y39752D01*
X52739Y39362D01*
X52934Y38971D01*
X53130Y38605D01*
X53276Y38214D01*
X53398Y37848D01*
X53496Y37506D01*
X53593Y37189D01*
X53642Y36896D01*
X53691Y36628D01*
X53715Y36384D01*
Y36213D01*
X53740Y36066D01*
Y35969D01*
Y35944D01*
X53715Y35456D01*
X53667Y34992D01*
X53569Y34528D01*
X53447Y34113D01*
X53300Y33698D01*
X53154Y33332D01*
X52983Y32991D01*
X52788Y32673D01*
X52617Y32380D01*
X52446Y32112D01*
X52300Y31892D01*
X52153Y31721D01*
X52031Y31575D01*
X51934Y31477D01*
X51885Y31404D01*
X51860Y31380D01*
X51494Y31038D01*
X51104Y30769D01*
X50738Y30501D01*
X50347Y30305D01*
X49956Y30110D01*
X49566Y29964D01*
X49200Y29842D01*
X48858Y29744D01*
X48516Y29647D01*
X48223Y29598D01*
X47955Y29549D01*
X47711Y29524D01*
X47540D01*
X47393Y29500D01*
X47027D01*
X46832Y29524D01*
X46637D01*
Y31477D01*
X46856Y31453D01*
X47052Y31428D01*
X47271D01*
X47857Y31477D01*
X48394Y31575D01*
X48882Y31746D01*
X49297Y31941D01*
X49639Y32112D01*
X49907Y32283D01*
X50005Y32332D01*
X50078Y32380D01*
X50103Y32429D01*
X50127D01*
X50542Y32820D01*
X50884Y33259D01*
X51152Y33674D01*
X51372Y34065D01*
X51519Y34431D01*
X51616Y34724D01*
X51641Y34821D01*
X51665Y34895D01*
X51689Y34943D01*
Y34968D01*
X47930D01*
Y36921D01*
X51689D01*
X51519Y37482D01*
X51299Y37970D01*
X51055Y38410D01*
X50786Y38776D01*
X50542Y39069D01*
X50323Y39288D01*
X50176Y39410D01*
X50152Y39459D01*
X50127D01*
X49639Y39801D01*
X49151Y40045D01*
X48687Y40216D01*
X48223Y40338D01*
X47857Y40411D01*
X47686Y40436D01*
X47540D01*
X47418Y40460D01*
X47027D01*
X46832Y40436D01*
X46685Y40411D01*
X46637D01*
Y42364D01*
X46881Y42388D01*
X47271D01*
X47760Y42364D01*
D02*
G37*
%LPC*%
G36*
X239670Y320516D02*
X238254D01*
Y320297D01*
X239670D01*
Y320516D01*
D02*
G37*
G36*
X240085Y320199D02*
Y319882D01*
X237864D01*
Y320150D01*
X237400Y320077D01*
X236985Y319979D01*
X236643Y319882D01*
X236375Y319759D01*
X236130Y319637D01*
X235984Y319491D01*
Y319393D01*
X241135D01*
Y320077D01*
X240817Y320126D01*
X240476Y320175D01*
X240085Y320199D01*
D02*
G37*
G36*
X241696Y320297D02*
X241549D01*
Y319759D01*
X241696D01*
Y320297D01*
D02*
G37*
G36*
X242111Y319784D02*
Y319393D01*
X242575D01*
X242599Y319442D01*
X242477Y319564D01*
X242331Y319662D01*
X242111Y319784D01*
D02*
G37*
G36*
X235374Y319711D02*
X235349D01*
X235227Y319686D01*
X235178Y319613D01*
X235154Y319540D01*
Y319515D01*
X235178Y319393D01*
X235252Y319320D01*
X235325Y319296D01*
X235349D01*
X235471Y319320D01*
X235520Y319418D01*
X235545Y319491D01*
Y319515D01*
X235520Y319637D01*
X235447Y319686D01*
X235374Y319711D01*
D02*
G37*
G36*
X235838Y317929D02*
X235081D01*
Y317172D01*
X235838D01*
Y317929D01*
D02*
G37*
G36*
X239719Y316196D02*
X237644D01*
Y316049D01*
X239719D01*
Y316196D01*
D02*
G37*
G36*
X242526Y318661D02*
X236033D01*
X236057Y318319D01*
X236252D01*
Y317587D01*
X237205Y316586D01*
X240134D01*
Y315659D01*
X238132D01*
X239450Y314267D01*
X242404Y317319D01*
X242526Y318661D01*
D02*
G37*
G36*
X242331Y316684D02*
X239743Y313974D01*
X241867Y311802D01*
X242331Y316684D01*
D02*
G37*
G36*
X236252Y317001D02*
Y316757D01*
X236204D01*
X236667Y311363D01*
X239182Y313974D01*
X237546Y315659D01*
X237205D01*
Y316000D01*
X236252Y317001D01*
D02*
G37*
G36*
X239450Y313706D02*
X236692Y310825D01*
X236741Y310337D01*
X236936Y310362D01*
X237156Y310337D01*
X237400Y310264D01*
X237644Y310142D01*
X237839Y310020D01*
X238010Y309849D01*
X238157Y309629D01*
X238279Y309361D01*
X238352Y309044D01*
X238327Y308824D01*
X241598D01*
X241818Y311265D01*
X239450Y313706D01*
D02*
G37*
G36*
X237034Y309654D02*
X236936D01*
X236692Y309629D01*
X236521Y309556D01*
X236399Y309434D01*
X236326Y309312D01*
X236252Y309166D01*
X236228Y309068D01*
Y308970D01*
Y308946D01*
X236252Y308702D01*
X236326Y308531D01*
X236448Y308409D01*
X236570Y308336D01*
X236716Y308287D01*
X236814Y308238D01*
X236936D01*
X237156Y308262D01*
X237327Y308360D01*
X237449Y308458D01*
X237522Y308604D01*
X237571Y308726D01*
X237619Y308848D01*
Y308922D01*
Y308946D01*
X237595Y309190D01*
X237522Y309361D01*
X237400Y309483D01*
X237278Y309556D01*
X237156Y309629D01*
X237034Y309654D01*
D02*
G37*
G36*
X241427Y308409D02*
X241354D01*
Y307847D01*
X241427D01*
Y308409D01*
D02*
G37*
%LPD*%
G36*
X237083Y309385D02*
X237205Y309336D01*
X237278Y309263D01*
X237351Y309190D01*
X237400Y309019D01*
Y308970D01*
Y308946D01*
X237375Y308799D01*
X237327Y308677D01*
X237253Y308604D01*
X237156Y308531D01*
X237009Y308482D01*
X236936D01*
X236789Y308506D01*
X236667Y308555D01*
X236594Y308629D01*
X236521Y308726D01*
X236472Y308873D01*
Y308922D01*
Y308946D01*
X236497Y309092D01*
X236545Y309214D01*
X236619Y309288D01*
X236692Y309361D01*
X236863Y309410D01*
X236936D01*
X237083Y309385D01*
D02*
G37*
%LPC*%
G36*
X236960Y309019D02*
X236887D01*
X236863Y308995D01*
Y308970D01*
Y308946D01*
Y308897D01*
X236887Y308873D01*
X236936D01*
X236985Y308897D01*
X237009Y308922D01*
Y308946D01*
X236985Y308995D01*
X236960Y309019D01*
D02*
G37*
G36*
X33670Y320516D02*
X32254D01*
Y320297D01*
X33670D01*
Y320516D01*
D02*
G37*
G36*
X34085Y320199D02*
Y319882D01*
X31864D01*
Y320150D01*
X31400Y320077D01*
X30985Y319979D01*
X30643Y319882D01*
X30375Y319759D01*
X30130Y319637D01*
X29984Y319491D01*
Y319393D01*
X35135D01*
Y320077D01*
X34817Y320126D01*
X34475Y320175D01*
X34085Y320199D01*
D02*
G37*
G36*
X35696Y320297D02*
X35550D01*
Y319759D01*
X35696D01*
Y320297D01*
D02*
G37*
G36*
X36111Y319784D02*
Y319393D01*
X36575D01*
X36599Y319442D01*
X36477Y319564D01*
X36331Y319662D01*
X36111Y319784D01*
D02*
G37*
G36*
X29374Y319711D02*
X29349D01*
X29227Y319686D01*
X29179Y319613D01*
X29154Y319540D01*
Y319515D01*
X29179Y319393D01*
X29252Y319320D01*
X29325Y319296D01*
X29349D01*
X29471Y319320D01*
X29520Y319418D01*
X29545Y319491D01*
Y319515D01*
X29520Y319637D01*
X29447Y319686D01*
X29374Y319711D01*
D02*
G37*
G36*
X29838Y317929D02*
X29081D01*
Y317172D01*
X29838D01*
Y317929D01*
D02*
G37*
G36*
X33719Y316196D02*
X31644D01*
Y316049D01*
X33719D01*
Y316196D01*
D02*
G37*
G36*
X36526Y318661D02*
X30033D01*
X30057Y318319D01*
X30253D01*
Y317587D01*
X31205Y316586D01*
X34134D01*
Y315659D01*
X32132D01*
X33450Y314267D01*
X36404Y317319D01*
X36526Y318661D01*
D02*
G37*
G36*
X36331Y316684D02*
X33743Y313974D01*
X35867Y311802D01*
X36331Y316684D01*
D02*
G37*
G36*
X30253Y317001D02*
Y316757D01*
X30204D01*
X30667Y311363D01*
X33182Y313974D01*
X31546Y315659D01*
X31205D01*
Y316000D01*
X30253Y317001D01*
D02*
G37*
G36*
X33450Y313706D02*
X30692Y310825D01*
X30741Y310337D01*
X30936Y310362D01*
X31156Y310337D01*
X31400Y310264D01*
X31644Y310142D01*
X31839Y310020D01*
X32010Y309849D01*
X32157Y309629D01*
X32279Y309361D01*
X32352Y309044D01*
X32327Y308824D01*
X35598D01*
X35818Y311265D01*
X33450Y313706D01*
D02*
G37*
G36*
X31034Y309654D02*
X30936D01*
X30692Y309629D01*
X30521Y309556D01*
X30399Y309434D01*
X30326Y309312D01*
X30253Y309166D01*
X30228Y309068D01*
Y308970D01*
Y308946D01*
X30253Y308702D01*
X30326Y308531D01*
X30448Y308409D01*
X30570Y308336D01*
X30716Y308287D01*
X30814Y308238D01*
X30936D01*
X31156Y308262D01*
X31327Y308360D01*
X31449Y308458D01*
X31522Y308604D01*
X31571Y308726D01*
X31620Y308848D01*
Y308922D01*
Y308946D01*
X31595Y309190D01*
X31522Y309361D01*
X31400Y309483D01*
X31278Y309556D01*
X31156Y309629D01*
X31034Y309654D01*
D02*
G37*
G36*
X35427Y308409D02*
X35354D01*
Y307847D01*
X35427D01*
Y308409D01*
D02*
G37*
%LPD*%
G36*
X31082Y309385D02*
X31205Y309336D01*
X31278Y309263D01*
X31351Y309190D01*
X31400Y309019D01*
Y308970D01*
Y308946D01*
X31375Y308799D01*
X31327Y308677D01*
X31253Y308604D01*
X31156Y308531D01*
X31009Y308482D01*
X30936D01*
X30790Y308506D01*
X30667Y308555D01*
X30594Y308629D01*
X30521Y308726D01*
X30472Y308873D01*
Y308922D01*
Y308946D01*
X30497Y309092D01*
X30545Y309214D01*
X30619Y309288D01*
X30692Y309361D01*
X30863Y309410D01*
X30936D01*
X31082Y309385D01*
D02*
G37*
%LPC*%
G36*
X30960Y309019D02*
X30887D01*
X30863Y308995D01*
Y308970D01*
Y308946D01*
Y308897D01*
X30887Y308873D01*
X30936D01*
X30985Y308897D01*
X31009Y308922D01*
Y308946D01*
X30985Y308995D01*
X30960Y309019D01*
D02*
G37*
G36*
X261205Y320103D02*
X261034D01*
X260375Y320078D01*
X259740Y320005D01*
X259130Y319859D01*
X258544Y319712D01*
X258007Y319517D01*
X257494Y319297D01*
X257030Y319053D01*
X256591Y318833D01*
X256225Y318589D01*
X255883Y318345D01*
X255590Y318126D01*
X255346Y317930D01*
X255151Y317784D01*
X255004Y317662D01*
X254907Y317564D01*
X254882Y317540D01*
X254418Y317052D01*
X254028Y316539D01*
X253686Y316026D01*
X253393Y315514D01*
X253149Y315001D01*
X252954Y314489D01*
X252783Y313976D01*
X252637Y313512D01*
X252539Y313073D01*
X252466Y312658D01*
X252393Y312316D01*
X252368Y311999D01*
X252344Y311730D01*
X252319Y311559D01*
Y311437D01*
Y311388D01*
X252344Y310729D01*
X252417Y310095D01*
X252563Y309485D01*
X252710Y308899D01*
X252905Y308362D01*
X253125Y307849D01*
X253369Y307385D01*
X253589Y306970D01*
X253833Y306580D01*
X254077Y306238D01*
X254296Y305945D01*
X254492Y305701D01*
X254544Y305631D01*
X254516Y305603D01*
X254858Y305237D01*
X255224Y304920D01*
X255229Y304925D01*
X254882Y305237D01*
X254858Y305262D01*
X254760Y305359D01*
X254638Y305506D01*
X254544Y305631D01*
X257201Y308288D01*
X257079Y308386D01*
X256957Y308484D01*
X256859Y308557D01*
X256835Y308581D01*
X256567Y308874D01*
X256371Y309167D01*
X256249Y309485D01*
X256152Y309777D01*
X256103Y310046D01*
X256054Y310241D01*
Y310388D01*
Y310412D01*
Y310437D01*
X256078Y310778D01*
X256127Y311096D01*
X256225Y311364D01*
X256298Y311584D01*
X256396Y311755D01*
X256493Y311901D01*
X256542Y311974D01*
X256567Y311999D01*
X256762Y312194D01*
X256957Y312316D01*
X257152Y312414D01*
X257323Y312487D01*
X257470Y312536D01*
X257592Y312560D01*
X257714D01*
X257982Y312511D01*
X258226Y312414D01*
X258471Y312292D01*
X258666Y312121D01*
X258837Y311950D01*
X258959Y311828D01*
X259056Y311730D01*
X259081Y311681D01*
Y314830D01*
X259300D01*
X260594Y314293D01*
X260521Y314122D01*
X260399Y314171D01*
X260277Y314196D01*
X260204D01*
X260057Y314171D01*
X260033Y314147D01*
X260008D01*
X259960Y314074D01*
X259911Y314000D01*
X259886Y313927D01*
Y313903D01*
Y313805D01*
X259862Y313683D01*
Y313390D01*
Y313244D01*
Y313122D01*
Y313024D01*
Y313000D01*
Y310925D01*
X261009Y312096D01*
X260960Y312316D01*
X260912Y312536D01*
Y312682D01*
Y312707D01*
Y312731D01*
X260936Y312951D01*
X260960Y313146D01*
X261009Y313317D01*
X261083Y313463D01*
X261156Y313561D01*
X261205Y313659D01*
X261229Y313707D01*
X261253Y313732D01*
X261375Y313878D01*
X261522Y314025D01*
X261790Y314196D01*
X261912Y314269D01*
X262010Y314318D01*
X262059Y314342D01*
X262083D01*
X262279Y314391D01*
X262523Y314440D01*
X262962Y314489D01*
X263157Y314513D01*
X263450D01*
X266819Y317906D01*
X267185Y317540D01*
X267307Y317418D01*
X267234Y317515D01*
X267209Y317540D01*
X266721Y318004D01*
X266209Y318394D01*
X265696Y318736D01*
X265159Y319029D01*
X264646Y319273D01*
X264134Y319468D01*
X263621Y319639D01*
X263157Y319785D01*
X262718Y319883D01*
X262303Y319956D01*
X261937Y320030D01*
X261644Y320054D01*
X261375Y320078D01*
X261205Y320103D01*
D02*
G37*
G36*
X267454Y317271D02*
X267495Y317215D01*
X267502Y317222D01*
X267454Y317271D01*
D02*
G37*
G36*
X263011Y314098D02*
X262889Y314049D01*
X262767Y314000D01*
X262669Y313976D01*
X262645Y313951D01*
X262425Y313805D01*
X262279Y313610D01*
X262181Y313463D01*
X262157Y313439D01*
Y313415D01*
X262108Y313293D01*
X262059Y313195D01*
X262035Y313146D01*
Y313122D01*
X263011Y314098D01*
D02*
G37*
G36*
X263963Y313659D02*
X262181Y311877D01*
X262230Y311779D01*
X262303Y311706D01*
X262327Y311681D01*
X262352Y311657D01*
X262498Y311535D01*
X262645Y311437D01*
X262767Y311364D01*
X262913Y311315D01*
X263011Y311291D01*
X263108Y311266D01*
X263279D01*
X263401Y311291D01*
X263475Y311315D01*
X263670D01*
X263816Y311340D01*
X263914Y311364D01*
X263963D01*
Y313659D01*
D02*
G37*
G36*
X258153Y311877D02*
X258104D01*
X257934Y311852D01*
X257763Y311804D01*
X257494Y311657D01*
X257397Y311584D01*
X257323Y311510D01*
X257275Y311462D01*
X257250Y311437D01*
X257128Y311266D01*
X257030Y311047D01*
X256982Y310852D01*
X256933Y310632D01*
X256908Y310461D01*
X256884Y310314D01*
Y310217D01*
Y310168D01*
X256908Y309851D01*
X256933Y309582D01*
X257006Y309338D01*
X257055Y309143D01*
X257128Y308996D01*
X257201Y308899D01*
X257226Y308825D01*
X257250Y308801D01*
X257323Y308703D01*
X257397Y308630D01*
X257445Y308581D01*
X257470Y308557D01*
X259081Y310144D01*
Y311388D01*
X258861Y311559D01*
X258715Y311681D01*
X258617Y311730D01*
X258593Y311755D01*
X258422Y311828D01*
X258251Y311852D01*
X258153Y311877D01*
D02*
G37*
G36*
X267495Y317215D02*
X264817Y314513D01*
X265794D01*
Y314342D01*
X265549D01*
X265305Y314318D01*
X265135Y314245D01*
X265013Y314147D01*
X264988Y314122D01*
X264939Y314049D01*
X264915Y313951D01*
X264890Y313707D01*
X264866Y313585D01*
Y313488D01*
Y313415D01*
Y313390D01*
Y309240D01*
Y309045D01*
X264890Y308899D01*
Y308777D01*
X264915Y308679D01*
X264939Y308606D01*
Y308557D01*
X264964Y308533D01*
X265135Y308386D01*
X265330Y308313D01*
X265476Y308288D01*
X265794D01*
Y308093D01*
X263035D01*
Y308288D01*
X263279D01*
X263524Y308313D01*
X263694Y308386D01*
X263792Y308459D01*
X263841Y308484D01*
X263890Y308557D01*
X263914Y308655D01*
X263938Y308923D01*
X263963Y309045D01*
Y309143D01*
Y309216D01*
Y309240D01*
Y311096D01*
X263719Y311047D01*
X263548Y311022D01*
X263426Y310998D01*
X263377D01*
X263182Y310974D01*
X262889D01*
X262620Y310998D01*
X262352Y311022D01*
X262132Y311071D01*
X261937Y311144D01*
X261790Y311218D01*
X261693Y311266D01*
X261619Y311291D01*
X261595Y311315D01*
X259862Y309558D01*
Y308508D01*
X259569Y308337D01*
X259300Y308215D01*
X259203Y308166D01*
X259130Y308142D01*
X259081Y308118D01*
X259056D01*
X258788Y308044D01*
X258544Y307996D01*
X258446Y307971D01*
X258275D01*
X255229Y304925D01*
X255370Y304798D01*
X255883Y304407D01*
X256396Y304065D01*
X256908Y303773D01*
X257421Y303528D01*
X257934Y303309D01*
X258446Y303162D01*
X258910Y303016D01*
X259349Y302918D01*
X259764Y302845D01*
X260106Y302772D01*
X260423Y302747D01*
X260692Y302723D01*
X260863Y302698D01*
X261034D01*
X261693Y302723D01*
X262327Y302821D01*
X262938Y302943D01*
X263524Y303089D01*
X264060Y303284D01*
X264573Y303504D01*
X265037Y303724D01*
X265476Y303968D01*
X265867Y304212D01*
X266209Y304432D01*
X266501Y304651D01*
X266746Y304847D01*
X266941Y304993D01*
X267087Y305139D01*
X267185Y305213D01*
X267209Y305237D01*
X267649Y305725D01*
X268039Y306238D01*
X268381Y306751D01*
X268674Y307263D01*
X268918Y307800D01*
X269138Y308288D01*
X269284Y308801D01*
X269431Y309265D01*
X269528Y309704D01*
X269601Y310119D01*
X269675Y310485D01*
X269699Y310778D01*
X269724Y311047D01*
X269748Y311218D01*
Y311340D01*
Y311388D01*
X269724Y312048D01*
X269626Y312682D01*
X269504Y313293D01*
X269357Y313878D01*
X269162Y314415D01*
X268942Y314928D01*
X268723Y315392D01*
X268479Y315831D01*
X268235Y316197D01*
X268015Y316539D01*
X267795Y316832D01*
X267600Y317076D01*
X267495Y317215D01*
D02*
G37*
G36*
X55204Y320103D02*
X55034D01*
X54375Y320078D01*
X53740Y320005D01*
X53130Y319859D01*
X52544Y319712D01*
X52007Y319517D01*
X51494Y319297D01*
X51030Y319053D01*
X50591Y318833D01*
X50225Y318589D01*
X49883Y318345D01*
X49590Y318126D01*
X49346Y317930D01*
X49151Y317784D01*
X49004Y317662D01*
X48907Y317564D01*
X48882Y317540D01*
X48419Y317052D01*
X48028Y316539D01*
X47686Y316026D01*
X47393Y315514D01*
X47149Y315001D01*
X46954Y314489D01*
X46783Y313976D01*
X46637Y313512D01*
X46539Y313073D01*
X46466Y312658D01*
X46393Y312316D01*
X46368Y311999D01*
X46344Y311730D01*
X46319Y311559D01*
Y311437D01*
Y311388D01*
X46344Y310729D01*
X46417Y310095D01*
X46563Y309485D01*
X46710Y308899D01*
X46905Y308362D01*
X47125Y307849D01*
X47369Y307385D01*
X47589Y306970D01*
X47833Y306580D01*
X48077Y306238D01*
X48296Y305945D01*
X48492Y305701D01*
X48544Y305631D01*
X48516Y305603D01*
X48858Y305237D01*
X49224Y304920D01*
X49229Y304925D01*
X48882Y305237D01*
X48858Y305262D01*
X48760Y305359D01*
X48638Y305506D01*
X48544Y305631D01*
X51201Y308288D01*
X51079Y308386D01*
X50957Y308484D01*
X50859Y308557D01*
X50835Y308581D01*
X50567Y308874D01*
X50371Y309167D01*
X50249Y309485D01*
X50152Y309777D01*
X50103Y310046D01*
X50054Y310241D01*
Y310388D01*
Y310412D01*
Y310437D01*
X50078Y310778D01*
X50127Y311096D01*
X50225Y311364D01*
X50298Y311584D01*
X50396Y311755D01*
X50493Y311901D01*
X50542Y311974D01*
X50567Y311999D01*
X50762Y312194D01*
X50957Y312316D01*
X51152Y312414D01*
X51323Y312487D01*
X51470Y312536D01*
X51592Y312560D01*
X51714D01*
X51982Y312511D01*
X52227Y312414D01*
X52471Y312292D01*
X52666Y312121D01*
X52837Y311950D01*
X52959Y311828D01*
X53056Y311730D01*
X53081Y311681D01*
Y314830D01*
X53300D01*
X54594Y314293D01*
X54521Y314122D01*
X54399Y314171D01*
X54277Y314196D01*
X54204D01*
X54057Y314171D01*
X54033Y314147D01*
X54008D01*
X53960Y314074D01*
X53911Y314000D01*
X53886Y313927D01*
Y313903D01*
Y313805D01*
X53862Y313683D01*
Y313390D01*
Y313244D01*
Y313122D01*
Y313024D01*
Y313000D01*
Y310925D01*
X55009Y312096D01*
X54960Y312316D01*
X54912Y312536D01*
Y312682D01*
Y312707D01*
Y312731D01*
X54936Y312951D01*
X54960Y313146D01*
X55009Y313317D01*
X55082Y313463D01*
X55156Y313561D01*
X55204Y313659D01*
X55229Y313707D01*
X55253Y313732D01*
X55375Y313878D01*
X55522Y314025D01*
X55790Y314196D01*
X55912Y314269D01*
X56010Y314318D01*
X56059Y314342D01*
X56083D01*
X56279Y314391D01*
X56523Y314440D01*
X56962Y314489D01*
X57157Y314513D01*
X57450D01*
X60819Y317906D01*
X61185Y317540D01*
X61307Y317418D01*
X61234Y317515D01*
X61209Y317540D01*
X60721Y318004D01*
X60209Y318394D01*
X59696Y318736D01*
X59159Y319029D01*
X58646Y319273D01*
X58134Y319468D01*
X57621Y319639D01*
X57157Y319785D01*
X56718Y319883D01*
X56303Y319956D01*
X55937Y320030D01*
X55644Y320054D01*
X55375Y320078D01*
X55204Y320103D01*
D02*
G37*
G36*
X57011Y314098D02*
X56889Y314049D01*
X56767Y314000D01*
X56669Y313976D01*
X56645Y313951D01*
X56425Y313805D01*
X56279Y313610D01*
X56181Y313463D01*
X56156Y313439D01*
Y313415D01*
X56108Y313293D01*
X56059Y313195D01*
X56034Y313146D01*
Y313122D01*
X57011Y314098D01*
D02*
G37*
G36*
X57963Y313659D02*
X56181Y311877D01*
X56230Y311779D01*
X56303Y311706D01*
X56327Y311681D01*
X56352Y311657D01*
X56498Y311535D01*
X56645Y311437D01*
X56767Y311364D01*
X56913Y311315D01*
X57011Y311291D01*
X57108Y311266D01*
X57279D01*
X57401Y311291D01*
X57475Y311315D01*
X57670D01*
X57816Y311340D01*
X57914Y311364D01*
X57963D01*
Y313659D01*
D02*
G37*
G36*
X52153Y311877D02*
X52104D01*
X51934Y311852D01*
X51763Y311804D01*
X51494Y311657D01*
X51397Y311584D01*
X51323Y311510D01*
X51275Y311462D01*
X51250Y311437D01*
X51128Y311266D01*
X51030Y311047D01*
X50982Y310852D01*
X50933Y310632D01*
X50908Y310461D01*
X50884Y310314D01*
Y310217D01*
Y310168D01*
X50908Y309851D01*
X50933Y309582D01*
X51006Y309338D01*
X51055Y309143D01*
X51128Y308996D01*
X51201Y308899D01*
X51226Y308825D01*
X51250Y308801D01*
X51323Y308703D01*
X51397Y308630D01*
X51445Y308581D01*
X51470Y308557D01*
X53081Y310144D01*
Y311388D01*
X52861Y311559D01*
X52715Y311681D01*
X52617Y311730D01*
X52593Y311755D01*
X52422Y311828D01*
X52251Y311852D01*
X52153Y311877D01*
D02*
G37*
G36*
X61453Y317271D02*
X61495Y317215D01*
X58817Y314513D01*
X59794D01*
Y314342D01*
X59549D01*
X59305Y314318D01*
X59135Y314245D01*
X59013Y314147D01*
X58988Y314122D01*
X58939Y314049D01*
X58915Y313951D01*
X58890Y313707D01*
X58866Y313585D01*
Y313488D01*
Y313415D01*
Y313390D01*
Y309240D01*
Y309045D01*
X58890Y308899D01*
Y308777D01*
X58915Y308679D01*
X58939Y308606D01*
Y308557D01*
X58964Y308533D01*
X59135Y308386D01*
X59330Y308313D01*
X59476Y308288D01*
X59794D01*
Y308093D01*
X57035D01*
Y308288D01*
X57279D01*
X57524Y308313D01*
X57694Y308386D01*
X57792Y308459D01*
X57841Y308484D01*
X57890Y308557D01*
X57914Y308655D01*
X57938Y308923D01*
X57963Y309045D01*
Y309143D01*
Y309216D01*
Y309240D01*
Y311096D01*
X57719Y311047D01*
X57548Y311022D01*
X57426Y310998D01*
X57377D01*
X57182Y310974D01*
X56889D01*
X56620Y310998D01*
X56352Y311022D01*
X56132Y311071D01*
X55937Y311144D01*
X55790Y311218D01*
X55693Y311266D01*
X55620Y311291D01*
X55595Y311315D01*
X53862Y309558D01*
Y308508D01*
X53569Y308337D01*
X53300Y308215D01*
X53203Y308166D01*
X53130Y308142D01*
X53081Y308118D01*
X53056D01*
X52788Y308044D01*
X52544Y307996D01*
X52446Y307971D01*
X52275D01*
X49229Y304925D01*
X49371Y304798D01*
X49883Y304407D01*
X50396Y304065D01*
X50908Y303773D01*
X51421Y303528D01*
X51934Y303309D01*
X52446Y303162D01*
X52910Y303016D01*
X53349Y302918D01*
X53764Y302845D01*
X54106Y302772D01*
X54423Y302747D01*
X54692Y302723D01*
X54863Y302698D01*
X55034D01*
X55693Y302723D01*
X56327Y302821D01*
X56938Y302943D01*
X57524Y303089D01*
X58060Y303284D01*
X58573Y303504D01*
X59037Y303724D01*
X59476Y303968D01*
X59867Y304212D01*
X60209Y304432D01*
X60501Y304651D01*
X60746Y304847D01*
X60941Y304993D01*
X61087Y305139D01*
X61185Y305213D01*
X61209Y305237D01*
X61649Y305725D01*
X62039Y306238D01*
X62381Y306751D01*
X62674Y307263D01*
X62918Y307800D01*
X63138Y308288D01*
X63284Y308801D01*
X63431Y309265D01*
X63528Y309704D01*
X63601Y310119D01*
X63675Y310485D01*
X63699Y310778D01*
X63724Y311047D01*
X63748Y311218D01*
Y311340D01*
Y311388D01*
X63724Y312048D01*
X63626Y312682D01*
X63504Y313293D01*
X63357Y313878D01*
X63162Y314415D01*
X62942Y314928D01*
X62723Y315392D01*
X62479Y315831D01*
X62235Y316197D01*
X62015Y316539D01*
X61795Y316832D01*
X61600Y317076D01*
X61495Y317215D01*
X61502Y317222D01*
X61453Y317271D01*
D02*
G37*
G36*
X239670Y66516D02*
X238254D01*
Y66296D01*
X239670D01*
Y66516D01*
D02*
G37*
G36*
X240085Y66199D02*
Y65882D01*
X237864D01*
Y66150D01*
X237400Y66077D01*
X236985Y65979D01*
X236643Y65882D01*
X236375Y65759D01*
X236130Y65637D01*
X235984Y65491D01*
Y65393D01*
X241135D01*
Y66077D01*
X240817Y66126D01*
X240476Y66175D01*
X240085Y66199D01*
D02*
G37*
G36*
X241696Y66296D02*
X241549D01*
Y65759D01*
X241696D01*
Y66296D01*
D02*
G37*
G36*
X242111Y65784D02*
Y65393D01*
X242575D01*
X242599Y65442D01*
X242477Y65564D01*
X242331Y65662D01*
X242111Y65784D01*
D02*
G37*
G36*
X235374Y65711D02*
X235349D01*
X235227Y65686D01*
X235178Y65613D01*
X235154Y65540D01*
Y65515D01*
X235178Y65393D01*
X235252Y65320D01*
X235325Y65296D01*
X235349D01*
X235471Y65320D01*
X235520Y65418D01*
X235545Y65491D01*
Y65515D01*
X235520Y65637D01*
X235447Y65686D01*
X235374Y65711D01*
D02*
G37*
G36*
X235838Y63929D02*
X235081D01*
Y63172D01*
X235838D01*
Y63929D01*
D02*
G37*
G36*
X239719Y62196D02*
X237644D01*
Y62049D01*
X239719D01*
Y62196D01*
D02*
G37*
G36*
X242526Y64661D02*
X236033D01*
X236057Y64319D01*
X236252D01*
Y63587D01*
X237205Y62586D01*
X240134D01*
Y61659D01*
X238132D01*
X239450Y60267D01*
X242404Y63319D01*
X242526Y64661D01*
D02*
G37*
G36*
X242331Y62684D02*
X239743Y59974D01*
X241867Y57802D01*
X242331Y62684D01*
D02*
G37*
G36*
X236252Y63001D02*
Y62757D01*
X236204D01*
X236667Y57363D01*
X239182Y59974D01*
X237546Y61659D01*
X237205D01*
Y62000D01*
X236252Y63001D01*
D02*
G37*
G36*
X239450Y59706D02*
X236692Y56825D01*
X236741Y56337D01*
X236936Y56362D01*
X237156Y56337D01*
X237400Y56264D01*
X237644Y56142D01*
X237839Y56020D01*
X238010Y55849D01*
X238157Y55629D01*
X238279Y55361D01*
X238352Y55044D01*
X238327Y54824D01*
X241598D01*
X241818Y57265D01*
X239450Y59706D01*
D02*
G37*
G36*
X237034Y55654D02*
X236936D01*
X236692Y55629D01*
X236521Y55556D01*
X236399Y55434D01*
X236326Y55312D01*
X236252Y55166D01*
X236228Y55068D01*
Y54970D01*
Y54946D01*
X236252Y54702D01*
X236326Y54531D01*
X236448Y54409D01*
X236570Y54336D01*
X236716Y54287D01*
X236814Y54238D01*
X236936D01*
X237156Y54262D01*
X237327Y54360D01*
X237449Y54458D01*
X237522Y54604D01*
X237571Y54726D01*
X237619Y54848D01*
Y54922D01*
Y54946D01*
X237595Y55190D01*
X237522Y55361D01*
X237400Y55483D01*
X237278Y55556D01*
X237156Y55629D01*
X237034Y55654D01*
D02*
G37*
G36*
X241427Y54409D02*
X241354D01*
Y53847D01*
X241427D01*
Y54409D01*
D02*
G37*
%LPD*%
G36*
X237083Y55385D02*
X237205Y55336D01*
X237278Y55263D01*
X237351Y55190D01*
X237400Y55019D01*
Y54970D01*
Y54946D01*
X237375Y54799D01*
X237327Y54677D01*
X237253Y54604D01*
X237156Y54531D01*
X237009Y54482D01*
X236936D01*
X236789Y54506D01*
X236667Y54555D01*
X236594Y54628D01*
X236521Y54726D01*
X236472Y54873D01*
Y54922D01*
Y54946D01*
X236497Y55092D01*
X236545Y55214D01*
X236619Y55288D01*
X236692Y55361D01*
X236863Y55410D01*
X236936D01*
X237083Y55385D01*
D02*
G37*
%LPC*%
G36*
X236960Y55019D02*
X236887D01*
X236863Y54995D01*
Y54970D01*
Y54946D01*
Y54897D01*
X236887Y54873D01*
X236936D01*
X236985Y54897D01*
X237009Y54922D01*
Y54946D01*
X236985Y54995D01*
X236960Y55019D01*
D02*
G37*
G36*
X33670Y66516D02*
X32254D01*
Y66296D01*
X33670D01*
Y66516D01*
D02*
G37*
G36*
X34085Y66199D02*
Y65882D01*
X31864D01*
Y66150D01*
X31400Y66077D01*
X30985Y65979D01*
X30643Y65882D01*
X30375Y65759D01*
X30130Y65637D01*
X29984Y65491D01*
Y65393D01*
X35135D01*
Y66077D01*
X34817Y66126D01*
X34475Y66175D01*
X34085Y66199D01*
D02*
G37*
G36*
X35696Y66296D02*
X35550D01*
Y65759D01*
X35696D01*
Y66296D01*
D02*
G37*
G36*
X36111Y65784D02*
Y65393D01*
X36575D01*
X36599Y65442D01*
X36477Y65564D01*
X36331Y65662D01*
X36111Y65784D01*
D02*
G37*
G36*
X29374Y65711D02*
X29349D01*
X29227Y65686D01*
X29179Y65613D01*
X29154Y65540D01*
Y65515D01*
X29179Y65393D01*
X29252Y65320D01*
X29325Y65296D01*
X29349D01*
X29471Y65320D01*
X29520Y65418D01*
X29545Y65491D01*
Y65515D01*
X29520Y65637D01*
X29447Y65686D01*
X29374Y65711D01*
D02*
G37*
G36*
X29838Y63929D02*
X29081D01*
Y63172D01*
X29838D01*
Y63929D01*
D02*
G37*
G36*
X33719Y62196D02*
X31644D01*
Y62049D01*
X33719D01*
Y62196D01*
D02*
G37*
G36*
X36526Y64661D02*
X30033D01*
X30057Y64319D01*
X30253D01*
Y63587D01*
X31205Y62586D01*
X34134D01*
Y61659D01*
X32132D01*
X33450Y60267D01*
X36404Y63319D01*
X36526Y64661D01*
D02*
G37*
G36*
X36331Y62684D02*
X33743Y59974D01*
X35867Y57802D01*
X36331Y62684D01*
D02*
G37*
G36*
X30253Y63001D02*
Y62757D01*
X30204D01*
X30667Y57363D01*
X33182Y59974D01*
X31546Y61659D01*
X31205D01*
Y62000D01*
X30253Y63001D01*
D02*
G37*
G36*
X33450Y59706D02*
X30692Y56825D01*
X30741Y56337D01*
X30936Y56362D01*
X31156Y56337D01*
X31400Y56264D01*
X31644Y56142D01*
X31839Y56020D01*
X32010Y55849D01*
X32157Y55629D01*
X32279Y55361D01*
X32352Y55044D01*
X32327Y54824D01*
X35598D01*
X35818Y57265D01*
X33450Y59706D01*
D02*
G37*
G36*
X31034Y55654D02*
X30936D01*
X30692Y55629D01*
X30521Y55556D01*
X30399Y55434D01*
X30326Y55312D01*
X30253Y55166D01*
X30228Y55068D01*
Y54970D01*
Y54946D01*
X30253Y54702D01*
X30326Y54531D01*
X30448Y54409D01*
X30570Y54336D01*
X30716Y54287D01*
X30814Y54238D01*
X30936D01*
X31156Y54262D01*
X31327Y54360D01*
X31449Y54458D01*
X31522Y54604D01*
X31571Y54726D01*
X31620Y54848D01*
Y54922D01*
Y54946D01*
X31595Y55190D01*
X31522Y55361D01*
X31400Y55483D01*
X31278Y55556D01*
X31156Y55629D01*
X31034Y55654D01*
D02*
G37*
G36*
X35427Y54409D02*
X35354D01*
Y53847D01*
X35427D01*
Y54409D01*
D02*
G37*
%LPD*%
G36*
X31082Y55385D02*
X31205Y55336D01*
X31278Y55263D01*
X31351Y55190D01*
X31400Y55019D01*
Y54970D01*
Y54946D01*
X31375Y54799D01*
X31327Y54677D01*
X31253Y54604D01*
X31156Y54531D01*
X31009Y54482D01*
X30936D01*
X30790Y54506D01*
X30667Y54555D01*
X30594Y54628D01*
X30521Y54726D01*
X30472Y54873D01*
Y54922D01*
Y54946D01*
X30497Y55092D01*
X30545Y55214D01*
X30619Y55288D01*
X30692Y55361D01*
X30863Y55410D01*
X30936D01*
X31082Y55385D01*
D02*
G37*
%LPC*%
G36*
X30960Y55019D02*
X30887D01*
X30863Y54995D01*
Y54970D01*
Y54946D01*
Y54897D01*
X30887Y54873D01*
X30936D01*
X30985Y54897D01*
X31009Y54922D01*
Y54946D01*
X30985Y54995D01*
X30960Y55019D01*
D02*
G37*
G36*
X261205Y66103D02*
X261034D01*
X260375Y66078D01*
X259740Y66005D01*
X259130Y65859D01*
X258544Y65712D01*
X258007Y65517D01*
X257494Y65297D01*
X257030Y65053D01*
X256591Y64833D01*
X256225Y64589D01*
X255883Y64345D01*
X255590Y64126D01*
X255346Y63930D01*
X255151Y63784D01*
X255004Y63662D01*
X254907Y63564D01*
X254882Y63540D01*
X254418Y63052D01*
X254028Y62539D01*
X253686Y62026D01*
X253393Y61514D01*
X253149Y61001D01*
X252954Y60489D01*
X252783Y59976D01*
X252637Y59512D01*
X252539Y59073D01*
X252466Y58658D01*
X252393Y58316D01*
X252368Y57999D01*
X252344Y57730D01*
X252319Y57559D01*
Y57437D01*
Y57389D01*
X252344Y56729D01*
X252417Y56095D01*
X252563Y55484D01*
X252710Y54899D01*
X252905Y54362D01*
X253125Y53849D01*
X253369Y53385D01*
X253589Y52970D01*
X253833Y52580D01*
X254077Y52238D01*
X254296Y51945D01*
X254492Y51701D01*
X254544Y51631D01*
X254516Y51603D01*
X254858Y51237D01*
X255224Y50920D01*
X255229Y50925D01*
X254882Y51237D01*
X254858Y51262D01*
X254760Y51359D01*
X254638Y51506D01*
X254544Y51631D01*
X257201Y54288D01*
X257079Y54386D01*
X256957Y54484D01*
X256859Y54557D01*
X256835Y54581D01*
X256567Y54874D01*
X256371Y55167D01*
X256249Y55484D01*
X256152Y55777D01*
X256103Y56046D01*
X256054Y56241D01*
Y56388D01*
Y56412D01*
Y56437D01*
X256078Y56778D01*
X256127Y57096D01*
X256225Y57364D01*
X256298Y57584D01*
X256396Y57755D01*
X256493Y57901D01*
X256542Y57974D01*
X256567Y57999D01*
X256762Y58194D01*
X256957Y58316D01*
X257152Y58414D01*
X257323Y58487D01*
X257470Y58536D01*
X257592Y58560D01*
X257714D01*
X257982Y58511D01*
X258226Y58414D01*
X258471Y58292D01*
X258666Y58121D01*
X258837Y57950D01*
X258959Y57828D01*
X259056Y57730D01*
X259081Y57681D01*
Y60830D01*
X259300D01*
X260594Y60293D01*
X260521Y60122D01*
X260399Y60171D01*
X260277Y60196D01*
X260204D01*
X260057Y60171D01*
X260033Y60147D01*
X260008D01*
X259960Y60074D01*
X259911Y60000D01*
X259886Y59927D01*
Y59903D01*
Y59805D01*
X259862Y59683D01*
Y59390D01*
Y59244D01*
Y59122D01*
Y59024D01*
Y59000D01*
Y56925D01*
X261009Y58096D01*
X260960Y58316D01*
X260912Y58536D01*
Y58682D01*
Y58707D01*
Y58731D01*
X260936Y58951D01*
X260960Y59146D01*
X261009Y59317D01*
X261083Y59463D01*
X261156Y59561D01*
X261205Y59659D01*
X261229Y59707D01*
X261253Y59732D01*
X261375Y59878D01*
X261522Y60025D01*
X261790Y60196D01*
X261912Y60269D01*
X262010Y60318D01*
X262059Y60342D01*
X262083D01*
X262279Y60391D01*
X262523Y60440D01*
X262962Y60489D01*
X263157Y60513D01*
X263450D01*
X266819Y63906D01*
X267185Y63540D01*
X267307Y63418D01*
X267234Y63515D01*
X267209Y63540D01*
X266721Y64004D01*
X266209Y64394D01*
X265696Y64736D01*
X265159Y65029D01*
X264646Y65273D01*
X264134Y65468D01*
X263621Y65639D01*
X263157Y65785D01*
X262718Y65883D01*
X262303Y65956D01*
X261937Y66030D01*
X261644Y66054D01*
X261375Y66078D01*
X261205Y66103D01*
D02*
G37*
G36*
X267454Y63271D02*
X267495Y63216D01*
X267502Y63222D01*
X267454Y63271D01*
D02*
G37*
G36*
X263011Y60098D02*
X262889Y60049D01*
X262767Y60000D01*
X262669Y59976D01*
X262645Y59952D01*
X262425Y59805D01*
X262279Y59610D01*
X262181Y59463D01*
X262157Y59439D01*
Y59414D01*
X262108Y59293D01*
X262059Y59195D01*
X262035Y59146D01*
Y59122D01*
X263011Y60098D01*
D02*
G37*
G36*
X263963Y59659D02*
X262181Y57877D01*
X262230Y57779D01*
X262303Y57706D01*
X262327Y57681D01*
X262352Y57657D01*
X262498Y57535D01*
X262645Y57437D01*
X262767Y57364D01*
X262913Y57315D01*
X263011Y57291D01*
X263108Y57266D01*
X263279D01*
X263401Y57291D01*
X263475Y57315D01*
X263670D01*
X263816Y57340D01*
X263914Y57364D01*
X263963D01*
Y59659D01*
D02*
G37*
G36*
X258153Y57877D02*
X258104D01*
X257934Y57852D01*
X257763Y57803D01*
X257494Y57657D01*
X257397Y57584D01*
X257323Y57511D01*
X257275Y57462D01*
X257250Y57437D01*
X257128Y57266D01*
X257030Y57047D01*
X256982Y56852D01*
X256933Y56632D01*
X256908Y56461D01*
X256884Y56314D01*
Y56217D01*
Y56168D01*
X256908Y55851D01*
X256933Y55582D01*
X257006Y55338D01*
X257055Y55143D01*
X257128Y54996D01*
X257201Y54899D01*
X257226Y54825D01*
X257250Y54801D01*
X257323Y54703D01*
X257397Y54630D01*
X257445Y54581D01*
X257470Y54557D01*
X259081Y56144D01*
Y57389D01*
X258861Y57559D01*
X258715Y57681D01*
X258617Y57730D01*
X258593Y57755D01*
X258422Y57828D01*
X258251Y57852D01*
X258153Y57877D01*
D02*
G37*
G36*
X267495Y63216D02*
X264817Y60513D01*
X265794D01*
Y60342D01*
X265549D01*
X265305Y60318D01*
X265135Y60245D01*
X265013Y60147D01*
X264988Y60122D01*
X264939Y60049D01*
X264915Y59952D01*
X264890Y59707D01*
X264866Y59585D01*
Y59488D01*
Y59414D01*
Y59390D01*
Y55240D01*
Y55045D01*
X264890Y54899D01*
Y54777D01*
X264915Y54679D01*
X264939Y54606D01*
Y54557D01*
X264964Y54532D01*
X265135Y54386D01*
X265330Y54313D01*
X265476Y54288D01*
X265794D01*
Y54093D01*
X263035D01*
Y54288D01*
X263279D01*
X263524Y54313D01*
X263694Y54386D01*
X263792Y54459D01*
X263841Y54484D01*
X263890Y54557D01*
X263914Y54655D01*
X263938Y54923D01*
X263963Y55045D01*
Y55143D01*
Y55216D01*
Y55240D01*
Y57096D01*
X263719Y57047D01*
X263548Y57022D01*
X263426Y56998D01*
X263377D01*
X263182Y56973D01*
X262889D01*
X262620Y56998D01*
X262352Y57022D01*
X262132Y57071D01*
X261937Y57144D01*
X261790Y57218D01*
X261693Y57266D01*
X261619Y57291D01*
X261595Y57315D01*
X259862Y55558D01*
Y54508D01*
X259569Y54337D01*
X259300Y54215D01*
X259203Y54166D01*
X259130Y54142D01*
X259081Y54118D01*
X259056D01*
X258788Y54044D01*
X258544Y53996D01*
X258446Y53971D01*
X258275D01*
X255229Y50925D01*
X255370Y50798D01*
X255883Y50407D01*
X256396Y50065D01*
X256908Y49773D01*
X257421Y49529D01*
X257934Y49309D01*
X258446Y49162D01*
X258910Y49016D01*
X259349Y48918D01*
X259764Y48845D01*
X260106Y48772D01*
X260423Y48747D01*
X260692Y48723D01*
X260863Y48698D01*
X261034D01*
X261693Y48723D01*
X262327Y48821D01*
X262938Y48943D01*
X263524Y49089D01*
X264060Y49284D01*
X264573Y49504D01*
X265037Y49724D01*
X265476Y49968D01*
X265867Y50212D01*
X266209Y50432D01*
X266501Y50651D01*
X266746Y50847D01*
X266941Y50993D01*
X267087Y51139D01*
X267185Y51213D01*
X267209Y51237D01*
X267649Y51725D01*
X268039Y52238D01*
X268381Y52751D01*
X268674Y53263D01*
X268918Y53800D01*
X269138Y54288D01*
X269284Y54801D01*
X269431Y55265D01*
X269528Y55704D01*
X269601Y56119D01*
X269675Y56485D01*
X269699Y56778D01*
X269724Y57047D01*
X269748Y57218D01*
Y57340D01*
Y57389D01*
X269724Y58048D01*
X269626Y58682D01*
X269504Y59293D01*
X269357Y59878D01*
X269162Y60415D01*
X268942Y60928D01*
X268723Y61392D01*
X268479Y61831D01*
X268235Y62197D01*
X268015Y62539D01*
X267795Y62832D01*
X267600Y63076D01*
X267495Y63216D01*
D02*
G37*
G36*
X55204Y66103D02*
X55034D01*
X54375Y66078D01*
X53740Y66005D01*
X53130Y65859D01*
X52544Y65712D01*
X52007Y65517D01*
X51494Y65297D01*
X51030Y65053D01*
X50591Y64833D01*
X50225Y64589D01*
X49883Y64345D01*
X49590Y64126D01*
X49346Y63930D01*
X49151Y63784D01*
X49004Y63662D01*
X48907Y63564D01*
X48882Y63540D01*
X48419Y63052D01*
X48028Y62539D01*
X47686Y62026D01*
X47393Y61514D01*
X47149Y61001D01*
X46954Y60489D01*
X46783Y59976D01*
X46637Y59512D01*
X46539Y59073D01*
X46466Y58658D01*
X46393Y58316D01*
X46368Y57999D01*
X46344Y57730D01*
X46319Y57559D01*
Y57437D01*
Y57389D01*
X46344Y56729D01*
X46417Y56095D01*
X46563Y55484D01*
X46710Y54899D01*
X46905Y54362D01*
X47125Y53849D01*
X47369Y53385D01*
X47589Y52970D01*
X47833Y52580D01*
X48077Y52238D01*
X48296Y51945D01*
X48492Y51701D01*
X48544Y51631D01*
X48516Y51603D01*
X48858Y51237D01*
X49224Y50920D01*
X49229Y50925D01*
X48882Y51237D01*
X48858Y51262D01*
X48760Y51359D01*
X48638Y51506D01*
X48544Y51631D01*
X51201Y54288D01*
X51079Y54386D01*
X50957Y54484D01*
X50859Y54557D01*
X50835Y54581D01*
X50567Y54874D01*
X50371Y55167D01*
X50249Y55484D01*
X50152Y55777D01*
X50103Y56046D01*
X50054Y56241D01*
Y56388D01*
Y56412D01*
Y56437D01*
X50078Y56778D01*
X50127Y57096D01*
X50225Y57364D01*
X50298Y57584D01*
X50396Y57755D01*
X50493Y57901D01*
X50542Y57974D01*
X50567Y57999D01*
X50762Y58194D01*
X50957Y58316D01*
X51152Y58414D01*
X51323Y58487D01*
X51470Y58536D01*
X51592Y58560D01*
X51714D01*
X51982Y58511D01*
X52227Y58414D01*
X52471Y58292D01*
X52666Y58121D01*
X52837Y57950D01*
X52959Y57828D01*
X53056Y57730D01*
X53081Y57681D01*
Y60830D01*
X53300D01*
X54594Y60293D01*
X54521Y60122D01*
X54399Y60171D01*
X54277Y60196D01*
X54204D01*
X54057Y60171D01*
X54033Y60147D01*
X54008D01*
X53960Y60074D01*
X53911Y60000D01*
X53886Y59927D01*
Y59903D01*
Y59805D01*
X53862Y59683D01*
Y59390D01*
Y59244D01*
Y59122D01*
Y59024D01*
Y59000D01*
Y56925D01*
X55009Y58096D01*
X54960Y58316D01*
X54912Y58536D01*
Y58682D01*
Y58707D01*
Y58731D01*
X54936Y58951D01*
X54960Y59146D01*
X55009Y59317D01*
X55082Y59463D01*
X55156Y59561D01*
X55204Y59659D01*
X55229Y59707D01*
X55253Y59732D01*
X55375Y59878D01*
X55522Y60025D01*
X55790Y60196D01*
X55912Y60269D01*
X56010Y60318D01*
X56059Y60342D01*
X56083D01*
X56279Y60391D01*
X56523Y60440D01*
X56962Y60489D01*
X57157Y60513D01*
X57450D01*
X60819Y63906D01*
X61185Y63540D01*
X61307Y63418D01*
X61234Y63515D01*
X61209Y63540D01*
X60721Y64004D01*
X60209Y64394D01*
X59696Y64736D01*
X59159Y65029D01*
X58646Y65273D01*
X58134Y65468D01*
X57621Y65639D01*
X57157Y65785D01*
X56718Y65883D01*
X56303Y65956D01*
X55937Y66030D01*
X55644Y66054D01*
X55375Y66078D01*
X55204Y66103D01*
D02*
G37*
G36*
X57011Y60098D02*
X56889Y60049D01*
X56767Y60000D01*
X56669Y59976D01*
X56645Y59952D01*
X56425Y59805D01*
X56279Y59610D01*
X56181Y59463D01*
X56156Y59439D01*
Y59414D01*
X56108Y59293D01*
X56059Y59195D01*
X56034Y59146D01*
Y59122D01*
X57011Y60098D01*
D02*
G37*
G36*
X57963Y59659D02*
X56181Y57877D01*
X56230Y57779D01*
X56303Y57706D01*
X56327Y57681D01*
X56352Y57657D01*
X56498Y57535D01*
X56645Y57437D01*
X56767Y57364D01*
X56913Y57315D01*
X57011Y57291D01*
X57108Y57266D01*
X57279D01*
X57401Y57291D01*
X57475Y57315D01*
X57670D01*
X57816Y57340D01*
X57914Y57364D01*
X57963D01*
Y59659D01*
D02*
G37*
G36*
X52153Y57877D02*
X52104D01*
X51934Y57852D01*
X51763Y57803D01*
X51494Y57657D01*
X51397Y57584D01*
X51323Y57511D01*
X51275Y57462D01*
X51250Y57437D01*
X51128Y57266D01*
X51030Y57047D01*
X50982Y56852D01*
X50933Y56632D01*
X50908Y56461D01*
X50884Y56314D01*
Y56217D01*
Y56168D01*
X50908Y55851D01*
X50933Y55582D01*
X51006Y55338D01*
X51055Y55143D01*
X51128Y54996D01*
X51201Y54899D01*
X51226Y54825D01*
X51250Y54801D01*
X51323Y54703D01*
X51397Y54630D01*
X51445Y54581D01*
X51470Y54557D01*
X53081Y56144D01*
Y57389D01*
X52861Y57559D01*
X52715Y57681D01*
X52617Y57730D01*
X52593Y57755D01*
X52422Y57828D01*
X52251Y57852D01*
X52153Y57877D01*
D02*
G37*
G36*
X61453Y63271D02*
X61495Y63216D01*
X58817Y60513D01*
X59794D01*
Y60342D01*
X59549D01*
X59305Y60318D01*
X59135Y60245D01*
X59013Y60147D01*
X58988Y60122D01*
X58939Y60049D01*
X58915Y59952D01*
X58890Y59707D01*
X58866Y59585D01*
Y59488D01*
Y59414D01*
Y59390D01*
Y55240D01*
Y55045D01*
X58890Y54899D01*
Y54777D01*
X58915Y54679D01*
X58939Y54606D01*
Y54557D01*
X58964Y54532D01*
X59135Y54386D01*
X59330Y54313D01*
X59476Y54288D01*
X59794D01*
Y54093D01*
X57035D01*
Y54288D01*
X57279D01*
X57524Y54313D01*
X57694Y54386D01*
X57792Y54459D01*
X57841Y54484D01*
X57890Y54557D01*
X57914Y54655D01*
X57938Y54923D01*
X57963Y55045D01*
Y55143D01*
Y55216D01*
Y55240D01*
Y57096D01*
X57719Y57047D01*
X57548Y57022D01*
X57426Y56998D01*
X57377D01*
X57182Y56973D01*
X56889D01*
X56620Y56998D01*
X56352Y57022D01*
X56132Y57071D01*
X55937Y57144D01*
X55790Y57218D01*
X55693Y57266D01*
X55620Y57291D01*
X55595Y57315D01*
X53862Y55558D01*
Y54508D01*
X53569Y54337D01*
X53300Y54215D01*
X53203Y54166D01*
X53130Y54142D01*
X53081Y54118D01*
X53056D01*
X52788Y54044D01*
X52544Y53996D01*
X52446Y53971D01*
X52275D01*
X49229Y50925D01*
X49371Y50798D01*
X49883Y50407D01*
X50396Y50065D01*
X50908Y49773D01*
X51421Y49529D01*
X51934Y49309D01*
X52446Y49162D01*
X52910Y49016D01*
X53349Y48918D01*
X53764Y48845D01*
X54106Y48772D01*
X54423Y48747D01*
X54692Y48723D01*
X54863Y48698D01*
X55034D01*
X55693Y48723D01*
X56327Y48821D01*
X56938Y48943D01*
X57524Y49089D01*
X58060Y49284D01*
X58573Y49504D01*
X59037Y49724D01*
X59476Y49968D01*
X59867Y50212D01*
X60209Y50432D01*
X60501Y50651D01*
X60746Y50847D01*
X60941Y50993D01*
X61087Y51139D01*
X61185Y51213D01*
X61209Y51237D01*
X61649Y51725D01*
X62039Y52238D01*
X62381Y52751D01*
X62674Y53263D01*
X62918Y53800D01*
X63138Y54288D01*
X63284Y54801D01*
X63431Y55265D01*
X63528Y55704D01*
X63601Y56119D01*
X63675Y56485D01*
X63699Y56778D01*
X63724Y57047D01*
X63748Y57218D01*
Y57340D01*
Y57389D01*
X63724Y58048D01*
X63626Y58682D01*
X63504Y59293D01*
X63357Y59878D01*
X63162Y60415D01*
X62942Y60928D01*
X62723Y61392D01*
X62479Y61831D01*
X62235Y62197D01*
X62015Y62539D01*
X61795Y62832D01*
X61600Y63076D01*
X61495Y63216D01*
X61502Y63222D01*
X61453Y63271D01*
D02*
G37*
%LPD*%
D26*
X101034Y166832D02*
X101701Y167499D01*
X103033D01*
X103700Y166832D01*
Y166166D01*
X103033Y165499D01*
X101701D01*
X101034Y164833D01*
Y164166D01*
X101701Y163500D01*
X103033D01*
X103700Y164166D01*
X97035Y167499D02*
X98368D01*
X97702D01*
Y164166D01*
X98368Y163500D01*
X99035D01*
X99701Y164166D01*
X95703Y163500D02*
X94370D01*
X95036D01*
Y167499D01*
X95703Y166832D01*
X48395Y85600D02*
X54393D01*
X48395Y89599D01*
X54393D01*
X48395Y94597D02*
Y92598D01*
X49394Y91598D01*
X51394D01*
X52393Y92598D01*
Y94597D01*
X51394Y95597D01*
X50394D01*
Y91598D01*
X52393Y97596D02*
X49394D01*
X48395Y98596D01*
X49394Y99595D01*
X48395Y100595D01*
X49394Y101595D01*
X52393D01*
X48395Y103594D02*
X52393D01*
X54393Y105594D01*
X52393Y107593D01*
X48395D01*
X51394D01*
Y103594D01*
X54393Y113591D02*
Y109592D01*
X48395D01*
Y113591D01*
X51394Y109592D02*
Y111592D01*
X54393Y121588D02*
Y125587D01*
Y123588D01*
X48395D01*
Y130585D02*
Y128586D01*
X49394Y127586D01*
X51394D01*
X52393Y128586D01*
Y130585D01*
X51394Y131585D01*
X50394D01*
Y127586D01*
X52393Y137583D02*
Y134584D01*
X51394Y133584D01*
X49394D01*
X48395Y134584D01*
Y137583D01*
X54393Y139583D02*
X48395D01*
X51394D01*
X52393Y140582D01*
Y142582D01*
X51394Y143581D01*
X48395D01*
Y145581D02*
X52393D01*
Y148580D01*
X51394Y149579D01*
X48395D01*
Y152578D02*
Y154578D01*
X49394Y155577D01*
X51394D01*
X52393Y154578D01*
Y152578D01*
X51394Y151579D01*
X49394D01*
X48395Y152578D01*
Y157577D02*
Y159576D01*
Y158576D01*
X54393D01*
Y157577D01*
X48395Y163575D02*
Y165574D01*
X49394Y166574D01*
X51394D01*
X52393Y165574D01*
Y163575D01*
X51394Y162575D01*
X49394D01*
X48395Y163575D01*
X46395Y170572D02*
Y171572D01*
X47395Y172572D01*
X52393D01*
Y169573D01*
X51394Y168573D01*
X49394D01*
X48395Y169573D01*
Y172572D01*
X52393Y174571D02*
X49394D01*
X48395Y175571D01*
Y178570D01*
X47395D01*
X46395Y177570D01*
Y176571D01*
X48395Y178570D02*
X52393D01*
X54393Y186567D02*
Y188567D01*
Y187567D01*
X48395D01*
Y186567D01*
Y188567D01*
Y191566D02*
X52393D01*
Y194565D01*
X51394Y195564D01*
X48395D01*
X52393Y201562D02*
Y198564D01*
X51394Y197564D01*
X49394D01*
X48395Y198564D01*
Y201562D01*
Y203562D02*
X49394D01*
Y204561D01*
X48395D01*
Y203562D01*
X36798Y85600D02*
X42796D01*
X36798Y89599D01*
X42796D01*
X36798Y91598D02*
X40796D01*
X42796Y93597D01*
X40796Y95597D01*
X36798D01*
X39797D01*
Y91598D01*
X42796Y101595D02*
Y97596D01*
X36798D01*
Y101595D01*
X39797Y97596D02*
Y99595D01*
Y103594D02*
Y107593D01*
X41796Y113591D02*
X42796Y112591D01*
Y110592D01*
X41796Y109592D01*
X37797D01*
X36798Y110592D01*
Y112591D01*
X37797Y113591D01*
X42796Y115590D02*
X36798D01*
X38797Y117590D01*
X36798Y119589D01*
X42796D01*
X41796Y121588D02*
X42796Y122588D01*
Y124587D01*
X41796Y125587D01*
X40796D01*
X39797Y124587D01*
Y123588D01*
Y124587D01*
X38797Y125587D01*
X37797D01*
X36798Y124587D01*
Y122588D01*
X37797Y121588D01*
X41796Y127586D02*
X42796Y128586D01*
Y130585D01*
X41796Y131585D01*
X37797D01*
X36798Y130585D01*
Y128586D01*
X37797Y127586D01*
X41796D01*
Y133584D02*
X42796Y134584D01*
Y136583D01*
X41796Y137583D01*
X40796D01*
X39797Y136583D01*
X38797Y137583D01*
X37797D01*
X36798Y136583D01*
Y134584D01*
X37797Y133584D01*
X38797D01*
X39797Y134584D01*
X40796Y133584D01*
X41796D01*
X39797Y134584D02*
Y136583D01*
X42796Y139583D02*
Y143581D01*
Y141582D01*
X36798D01*
X39797Y145581D02*
Y149579D01*
X41796Y155577D02*
X42796Y154578D01*
Y152578D01*
X41796Y151579D01*
X37797D01*
X36798Y152578D01*
Y154578D01*
X37797Y155577D01*
X41796Y161575D02*
X42796Y160576D01*
Y158576D01*
X41796Y157577D01*
X37797D01*
X36798Y158576D01*
Y160576D01*
X37797Y161575D01*
X36798Y167573D02*
Y163575D01*
X40796Y167573D01*
X41796D01*
X42796Y166574D01*
Y164575D01*
X41796Y163575D01*
X42796Y173572D02*
Y169573D01*
X39797D01*
X40796Y171572D01*
Y172572D01*
X39797Y173572D01*
X37797D01*
X36798Y172572D01*
Y170572D01*
X37797Y169573D01*
X41796Y175571D02*
X42796Y176571D01*
Y178570D01*
X41796Y179570D01*
X40796D01*
X39797Y178570D01*
Y177570D01*
Y178570D01*
X38797Y179570D01*
X37797D01*
X36798Y178570D01*
Y176571D01*
X37797Y175571D01*
X41796Y181569D02*
X42796Y182569D01*
Y184568D01*
X41796Y185568D01*
X40796D01*
X39797Y184568D01*
X38797Y185568D01*
X37797D01*
X36798Y184568D01*
Y182569D01*
X37797Y181569D01*
X38797D01*
X39797Y182569D01*
X40796Y181569D01*
X41796D01*
X39797Y182569D02*
Y184568D01*
Y187567D02*
Y191566D01*
X41796Y193565D02*
X42796Y194565D01*
Y196564D01*
X41796Y197564D01*
X37797D01*
X36798Y196564D01*
Y194565D01*
X37797Y193565D01*
X41796D01*
Y199563D02*
X42796Y200563D01*
Y202562D01*
X41796Y203562D01*
X37797D01*
X36798Y202562D01*
Y200563D01*
X37797Y199563D01*
X41796D01*
X27200Y85600D02*
X33198D01*
Y88599D01*
X32198Y89599D01*
X30199D01*
X29199Y88599D01*
Y85600D01*
Y87599D02*
X27200Y89599D01*
Y92598D02*
Y94597D01*
X28200Y95597D01*
X30199D01*
X31199Y94597D01*
Y92598D01*
X30199Y91598D01*
X28200D01*
X27200Y92598D01*
X33198Y97596D02*
X27200D01*
X30199D01*
Y101595D01*
X33198D01*
X27200D01*
X32198Y107593D02*
X33198Y106593D01*
Y104594D01*
X32198Y103594D01*
X31199D01*
X30199Y104594D01*
Y106593D01*
X29199Y107593D01*
X28200D01*
X27200Y106593D01*
Y104594D01*
X28200Y103594D01*
X27200Y115590D02*
X31199Y119589D01*
X27200Y127586D02*
X33198D01*
Y130585D01*
X32198Y131585D01*
X30199D01*
X29199Y130585D01*
Y127586D01*
X33198Y133584D02*
X27200D01*
Y136583D01*
X28200Y137583D01*
X29199D01*
X30199D01*
X31199Y136583D01*
Y133584D01*
X30199Y139583D02*
Y143581D01*
X33198Y149579D02*
Y145581D01*
X30199D01*
Y147580D01*
Y145581D01*
X27200D01*
X31199Y151579D02*
X27200D01*
X29199D01*
X30199Y152578D01*
X31199Y153578D01*
Y154578D01*
X27200Y160576D02*
Y158576D01*
X28200Y157577D01*
X30199D01*
X31199Y158576D01*
Y160576D01*
X30199Y161575D01*
X29199D01*
Y157577D01*
X27200Y166574D02*
Y164575D01*
X28200Y163575D01*
X30199D01*
X31199Y164575D01*
Y166574D01*
X30199Y167573D01*
X29199D01*
Y163575D01*
X307034Y166832D02*
X307701Y167499D01*
X309034D01*
X309700Y166832D01*
Y166166D01*
X309034Y165499D01*
X307701D01*
X307034Y164833D01*
Y164166D01*
X307701Y163500D01*
X309034D01*
X309700Y164166D01*
X303035Y167499D02*
X304368D01*
X303702D01*
Y164166D01*
X304368Y163500D01*
X305035D01*
X305701Y164166D01*
X301703Y163500D02*
X300370D01*
X301036D01*
Y167499D01*
X301703Y166832D01*
X254395Y85600D02*
X260393D01*
X254395Y89599D01*
X260393D01*
X254395Y94597D02*
Y92598D01*
X255394Y91598D01*
X257394D01*
X258393Y92598D01*
Y94597D01*
X257394Y95597D01*
X256394D01*
Y91598D01*
X258393Y97596D02*
X255394D01*
X254395Y98596D01*
X255394Y99595D01*
X254395Y100595D01*
X255394Y101595D01*
X258393D01*
X254395Y103594D02*
X258393D01*
X260393Y105594D01*
X258393Y107593D01*
X254395D01*
X257394D01*
Y103594D01*
X260393Y113591D02*
Y109592D01*
X254395D01*
Y113591D01*
X257394Y109592D02*
Y111592D01*
X260393Y121588D02*
Y125587D01*
Y123588D01*
X254395D01*
Y130585D02*
Y128586D01*
X255394Y127586D01*
X257394D01*
X258393Y128586D01*
Y130585D01*
X257394Y131585D01*
X256394D01*
Y127586D01*
X258393Y137583D02*
Y134584D01*
X257394Y133584D01*
X255394D01*
X254395Y134584D01*
Y137583D01*
X260393Y139583D02*
X254395D01*
X257394D01*
X258393Y140582D01*
Y142582D01*
X257394Y143581D01*
X254395D01*
Y145581D02*
X258393D01*
Y148580D01*
X257394Y149579D01*
X254395D01*
Y152578D02*
Y154578D01*
X255394Y155577D01*
X257394D01*
X258393Y154578D01*
Y152578D01*
X257394Y151579D01*
X255394D01*
X254395Y152578D01*
Y157577D02*
Y159576D01*
Y158576D01*
X260393D01*
Y157577D01*
X254395Y163575D02*
Y165574D01*
X255394Y166574D01*
X257394D01*
X258393Y165574D01*
Y163575D01*
X257394Y162575D01*
X255394D01*
X254395Y163575D01*
X252395Y170572D02*
Y171572D01*
X253395Y172572D01*
X258393D01*
Y169573D01*
X257394Y168573D01*
X255394D01*
X254395Y169573D01*
Y172572D01*
X258393Y174571D02*
X255394D01*
X254395Y175571D01*
Y178570D01*
X253395D01*
X252395Y177570D01*
Y176571D01*
X254395Y178570D02*
X258393D01*
X260393Y186567D02*
Y188567D01*
Y187567D01*
X254395D01*
Y186567D01*
Y188567D01*
Y191566D02*
X258393D01*
Y194565D01*
X257394Y195564D01*
X254395D01*
X258393Y201562D02*
Y198564D01*
X257394Y197564D01*
X255394D01*
X254395Y198564D01*
Y201562D01*
Y203562D02*
X255394D01*
Y204561D01*
X254395D01*
Y203562D01*
X242798Y85600D02*
X248796D01*
X242798Y89599D01*
X248796D01*
X242798Y91598D02*
X246796D01*
X248796Y93597D01*
X246796Y95597D01*
X242798D01*
X245797D01*
Y91598D01*
X248796Y101595D02*
Y97596D01*
X242798D01*
Y101595D01*
X245797Y97596D02*
Y99595D01*
Y103594D02*
Y107593D01*
X247796Y113591D02*
X248796Y112591D01*
Y110592D01*
X247796Y109592D01*
X243797D01*
X242798Y110592D01*
Y112591D01*
X243797Y113591D01*
X248796Y115590D02*
X242798D01*
X244797Y117590D01*
X242798Y119589D01*
X248796D01*
X247796Y121588D02*
X248796Y122588D01*
Y124587D01*
X247796Y125587D01*
X246796D01*
X245797Y124587D01*
Y123588D01*
Y124587D01*
X244797Y125587D01*
X243797D01*
X242798Y124587D01*
Y122588D01*
X243797Y121588D01*
X247796Y127586D02*
X248796Y128586D01*
Y130585D01*
X247796Y131585D01*
X243797D01*
X242798Y130585D01*
Y128586D01*
X243797Y127586D01*
X247796D01*
Y133584D02*
X248796Y134584D01*
Y136583D01*
X247796Y137583D01*
X246796D01*
X245797Y136583D01*
X244797Y137583D01*
X243797D01*
X242798Y136583D01*
Y134584D01*
X243797Y133584D01*
X244797D01*
X245797Y134584D01*
X246796Y133584D01*
X247796D01*
X245797Y134584D02*
Y136583D01*
X248796Y139583D02*
Y143581D01*
Y141582D01*
X242798D01*
X245797Y145581D02*
Y149579D01*
X247796Y155577D02*
X248796Y154578D01*
Y152578D01*
X247796Y151579D01*
X243797D01*
X242798Y152578D01*
Y154578D01*
X243797Y155577D01*
X247796Y161575D02*
X248796Y160576D01*
Y158576D01*
X247796Y157577D01*
X243797D01*
X242798Y158576D01*
Y160576D01*
X243797Y161575D01*
X242798Y167573D02*
Y163575D01*
X246796Y167573D01*
X247796D01*
X248796Y166574D01*
Y164575D01*
X247796Y163575D01*
X248796Y173572D02*
Y169573D01*
X245797D01*
X246796Y171572D01*
Y172572D01*
X245797Y173572D01*
X243797D01*
X242798Y172572D01*
Y170572D01*
X243797Y169573D01*
X247796Y175571D02*
X248796Y176571D01*
Y178570D01*
X247796Y179570D01*
X246796D01*
X245797Y178570D01*
Y177570D01*
Y178570D01*
X244797Y179570D01*
X243797D01*
X242798Y178570D01*
Y176571D01*
X243797Y175571D01*
X247796Y181569D02*
X248796Y182569D01*
Y184568D01*
X247796Y185568D01*
X246796D01*
X245797Y184568D01*
X244797Y185568D01*
X243797D01*
X242798Y184568D01*
Y182569D01*
X243797Y181569D01*
X244797D01*
X245797Y182569D01*
X246796Y181569D01*
X247796D01*
X245797Y182569D02*
Y184568D01*
Y187567D02*
Y191566D01*
X247796Y193565D02*
X248796Y194565D01*
Y196564D01*
X247796Y197564D01*
X243797D01*
X242798Y196564D01*
Y194565D01*
X243797Y193565D01*
X247796D01*
Y199563D02*
X248796Y200563D01*
Y202562D01*
X247796Y203562D01*
X243797D01*
X242798Y202562D01*
Y200563D01*
X243797Y199563D01*
X247796D01*
X233200Y85600D02*
X239198D01*
Y88599D01*
X238198Y89599D01*
X236199D01*
X235199Y88599D01*
Y85600D01*
Y87599D02*
X233200Y89599D01*
Y92598D02*
Y94597D01*
X234200Y95597D01*
X236199D01*
X237199Y94597D01*
Y92598D01*
X236199Y91598D01*
X234200D01*
X233200Y92598D01*
X239198Y97596D02*
X233200D01*
X236199D01*
Y101595D01*
X239198D01*
X233200D01*
X238198Y107593D02*
X239198Y106593D01*
Y104594D01*
X238198Y103594D01*
X237199D01*
X236199Y104594D01*
Y106593D01*
X235199Y107593D01*
X234200D01*
X233200Y106593D01*
Y104594D01*
X234200Y103594D01*
X233200Y115590D02*
X237199Y119589D01*
X233200Y127586D02*
X239198D01*
Y130585D01*
X238198Y131585D01*
X236199D01*
X235199Y130585D01*
Y127586D01*
X239198Y133584D02*
X233200D01*
Y136583D01*
X234200Y137583D01*
X235199D01*
X236199D01*
X237199Y136583D01*
Y133584D01*
X236199Y139583D02*
Y143581D01*
X239198Y149579D02*
Y145581D01*
X236199D01*
Y147580D01*
Y145581D01*
X233200D01*
X237199Y151579D02*
X233200D01*
X235199D01*
X236199Y152578D01*
X237199Y153578D01*
Y154578D01*
X233200Y160576D02*
Y158576D01*
X234200Y157577D01*
X236199D01*
X237199Y158576D01*
Y160576D01*
X236199Y161575D01*
X235199D01*
Y157577D01*
X233200Y166574D02*
Y164575D01*
X234200Y163575D01*
X236199D01*
X237199Y164575D01*
Y166574D01*
X236199Y167573D01*
X235199D01*
Y163575D01*
X101034Y420832D02*
X101701Y421499D01*
X103033D01*
X103700Y420832D01*
Y420166D01*
X103033Y419499D01*
X101701D01*
X101034Y418833D01*
Y418166D01*
X101701Y417500D01*
X103033D01*
X103700Y418166D01*
X97035Y421499D02*
X98368D01*
X97702D01*
Y418166D01*
X98368Y417500D01*
X99035D01*
X99701Y418166D01*
X95703Y417500D02*
X94370D01*
X95036D01*
Y421499D01*
X95703Y420832D01*
X48395Y339600D02*
X54393D01*
X48395Y343599D01*
X54393D01*
X48395Y348597D02*
Y346598D01*
X49394Y345598D01*
X51394D01*
X52393Y346598D01*
Y348597D01*
X51394Y349597D01*
X50394D01*
Y345598D01*
X52393Y351596D02*
X49394D01*
X48395Y352596D01*
X49394Y353595D01*
X48395Y354595D01*
X49394Y355595D01*
X52393D01*
X48395Y357594D02*
X52393D01*
X54393Y359594D01*
X52393Y361593D01*
X48395D01*
X51394D01*
Y357594D01*
X54393Y367591D02*
Y363592D01*
X48395D01*
Y367591D01*
X51394Y363592D02*
Y365592D01*
X54393Y375588D02*
Y379587D01*
Y377588D01*
X48395D01*
Y384585D02*
Y382586D01*
X49394Y381586D01*
X51394D01*
X52393Y382586D01*
Y384585D01*
X51394Y385585D01*
X50394D01*
Y381586D01*
X52393Y391583D02*
Y388584D01*
X51394Y387584D01*
X49394D01*
X48395Y388584D01*
Y391583D01*
X54393Y393583D02*
X48395D01*
X51394D01*
X52393Y394582D01*
Y396582D01*
X51394Y397581D01*
X48395D01*
Y399581D02*
X52393D01*
Y402580D01*
X51394Y403579D01*
X48395D01*
Y406578D02*
Y408578D01*
X49394Y409577D01*
X51394D01*
X52393Y408578D01*
Y406578D01*
X51394Y405579D01*
X49394D01*
X48395Y406578D01*
Y411577D02*
Y413576D01*
Y412576D01*
X54393D01*
Y411577D01*
X48395Y417575D02*
Y419574D01*
X49394Y420574D01*
X51394D01*
X52393Y419574D01*
Y417575D01*
X51394Y416575D01*
X49394D01*
X48395Y417575D01*
X46395Y424573D02*
Y425572D01*
X47395Y426572D01*
X52393D01*
Y423573D01*
X51394Y422573D01*
X49394D01*
X48395Y423573D01*
Y426572D01*
X52393Y428571D02*
X49394D01*
X48395Y429571D01*
Y432570D01*
X47395D01*
X46395Y431570D01*
Y430571D01*
X48395Y432570D02*
X52393D01*
X54393Y440567D02*
Y442567D01*
Y441567D01*
X48395D01*
Y440567D01*
Y442567D01*
Y445566D02*
X52393D01*
Y448565D01*
X51394Y449564D01*
X48395D01*
X52393Y455562D02*
Y452563D01*
X51394Y451564D01*
X49394D01*
X48395Y452563D01*
Y455562D01*
Y457562D02*
X49394D01*
Y458562D01*
X48395D01*
Y457562D01*
X36798Y339600D02*
X42796D01*
X36798Y343599D01*
X42796D01*
X36798Y345598D02*
X40796D01*
X42796Y347597D01*
X40796Y349597D01*
X36798D01*
X39797D01*
Y345598D01*
X42796Y355595D02*
Y351596D01*
X36798D01*
Y355595D01*
X39797Y351596D02*
Y353595D01*
Y357594D02*
Y361593D01*
X41796Y367591D02*
X42796Y366591D01*
Y364592D01*
X41796Y363592D01*
X37797D01*
X36798Y364592D01*
Y366591D01*
X37797Y367591D01*
X42796Y369590D02*
X36798D01*
X38797Y371590D01*
X36798Y373589D01*
X42796D01*
X41796Y375588D02*
X42796Y376588D01*
Y378587D01*
X41796Y379587D01*
X40796D01*
X39797Y378587D01*
Y377588D01*
Y378587D01*
X38797Y379587D01*
X37797D01*
X36798Y378587D01*
Y376588D01*
X37797Y375588D01*
X41796Y381586D02*
X42796Y382586D01*
Y384585D01*
X41796Y385585D01*
X37797D01*
X36798Y384585D01*
Y382586D01*
X37797Y381586D01*
X41796D01*
Y387584D02*
X42796Y388584D01*
Y390583D01*
X41796Y391583D01*
X40796D01*
X39797Y390583D01*
X38797Y391583D01*
X37797D01*
X36798Y390583D01*
Y388584D01*
X37797Y387584D01*
X38797D01*
X39797Y388584D01*
X40796Y387584D01*
X41796D01*
X39797Y388584D02*
Y390583D01*
X42796Y393583D02*
Y397581D01*
Y395582D01*
X36798D01*
X39797Y399581D02*
Y403579D01*
X41796Y409577D02*
X42796Y408578D01*
Y406578D01*
X41796Y405579D01*
X37797D01*
X36798Y406578D01*
Y408578D01*
X37797Y409577D01*
X41796Y415575D02*
X42796Y414576D01*
Y412576D01*
X41796Y411577D01*
X37797D01*
X36798Y412576D01*
Y414576D01*
X37797Y415575D01*
X36798Y421573D02*
Y417575D01*
X40796Y421573D01*
X41796D01*
X42796Y420574D01*
Y418574D01*
X41796Y417575D01*
X42796Y427572D02*
Y423573D01*
X39797D01*
X40796Y425572D01*
Y426572D01*
X39797Y427572D01*
X37797D01*
X36798Y426572D01*
Y424573D01*
X37797Y423573D01*
X41796Y429571D02*
X42796Y430571D01*
Y432570D01*
X41796Y433570D01*
X40796D01*
X39797Y432570D01*
Y431570D01*
Y432570D01*
X38797Y433570D01*
X37797D01*
X36798Y432570D01*
Y430571D01*
X37797Y429571D01*
X41796Y435569D02*
X42796Y436569D01*
Y438568D01*
X41796Y439568D01*
X40796D01*
X39797Y438568D01*
X38797Y439568D01*
X37797D01*
X36798Y438568D01*
Y436569D01*
X37797Y435569D01*
X38797D01*
X39797Y436569D01*
X40796Y435569D01*
X41796D01*
X39797Y436569D02*
Y438568D01*
Y441567D02*
Y445566D01*
X41796Y447565D02*
X42796Y448565D01*
Y450564D01*
X41796Y451564D01*
X37797D01*
X36798Y450564D01*
Y448565D01*
X37797Y447565D01*
X41796D01*
Y453563D02*
X42796Y454563D01*
Y456562D01*
X41796Y457562D01*
X37797D01*
X36798Y456562D01*
Y454563D01*
X37797Y453563D01*
X41796D01*
X27200Y339600D02*
X33198D01*
Y342599D01*
X32198Y343599D01*
X30199D01*
X29199Y342599D01*
Y339600D01*
Y341599D02*
X27200Y343599D01*
Y346598D02*
Y348597D01*
X28200Y349597D01*
X30199D01*
X31199Y348597D01*
Y346598D01*
X30199Y345598D01*
X28200D01*
X27200Y346598D01*
X33198Y351596D02*
X27200D01*
X30199D01*
Y355595D01*
X33198D01*
X27200D01*
X32198Y361593D02*
X33198Y360593D01*
Y358594D01*
X32198Y357594D01*
X31199D01*
X30199Y358594D01*
Y360593D01*
X29199Y361593D01*
X28200D01*
X27200Y360593D01*
Y358594D01*
X28200Y357594D01*
X27200Y369590D02*
X31199Y373589D01*
X27200Y381586D02*
X33198D01*
Y384585D01*
X32198Y385585D01*
X30199D01*
X29199Y384585D01*
Y381586D01*
X33198Y387584D02*
X27200D01*
Y390583D01*
X28200Y391583D01*
X29199D01*
X30199D01*
X31199Y390583D01*
Y387584D01*
X30199Y393583D02*
Y397581D01*
X33198Y403579D02*
Y399581D01*
X30199D01*
Y401580D01*
Y399581D01*
X27200D01*
X31199Y405579D02*
X27200D01*
X29199D01*
X30199Y406578D01*
X31199Y407578D01*
Y408578D01*
X27200Y414576D02*
Y412576D01*
X28200Y411577D01*
X30199D01*
X31199Y412576D01*
Y414576D01*
X30199Y415575D01*
X29199D01*
Y411577D01*
X27200Y420574D02*
Y418574D01*
X28200Y417575D01*
X30199D01*
X31199Y418574D01*
Y420574D01*
X30199Y421573D01*
X29199D01*
Y417575D01*
X307034Y420832D02*
X307701Y421499D01*
X309034D01*
X309700Y420832D01*
Y420166D01*
X309034Y419499D01*
X307701D01*
X307034Y418833D01*
Y418166D01*
X307701Y417500D01*
X309034D01*
X309700Y418166D01*
X303035Y421499D02*
X304368D01*
X303702D01*
Y418166D01*
X304368Y417500D01*
X305035D01*
X305701Y418166D01*
X301703Y417500D02*
X300370D01*
X301036D01*
Y421499D01*
X301703Y420832D01*
X254395Y339600D02*
X260393D01*
X254395Y343599D01*
X260393D01*
X254395Y348597D02*
Y346598D01*
X255394Y345598D01*
X257394D01*
X258393Y346598D01*
Y348597D01*
X257394Y349597D01*
X256394D01*
Y345598D01*
X258393Y351596D02*
X255394D01*
X254395Y352596D01*
X255394Y353595D01*
X254395Y354595D01*
X255394Y355595D01*
X258393D01*
X254395Y357594D02*
X258393D01*
X260393Y359594D01*
X258393Y361593D01*
X254395D01*
X257394D01*
Y357594D01*
X260393Y367591D02*
Y363592D01*
X254395D01*
Y367591D01*
X257394Y363592D02*
Y365592D01*
X260393Y375588D02*
Y379587D01*
Y377588D01*
X254395D01*
Y384585D02*
Y382586D01*
X255394Y381586D01*
X257394D01*
X258393Y382586D01*
Y384585D01*
X257394Y385585D01*
X256394D01*
Y381586D01*
X258393Y391583D02*
Y388584D01*
X257394Y387584D01*
X255394D01*
X254395Y388584D01*
Y391583D01*
X260393Y393583D02*
X254395D01*
X257394D01*
X258393Y394582D01*
Y396582D01*
X257394Y397581D01*
X254395D01*
Y399581D02*
X258393D01*
Y402580D01*
X257394Y403579D01*
X254395D01*
Y406578D02*
Y408578D01*
X255394Y409577D01*
X257394D01*
X258393Y408578D01*
Y406578D01*
X257394Y405579D01*
X255394D01*
X254395Y406578D01*
Y411577D02*
Y413576D01*
Y412576D01*
X260393D01*
Y411577D01*
X254395Y417575D02*
Y419574D01*
X255394Y420574D01*
X257394D01*
X258393Y419574D01*
Y417575D01*
X257394Y416575D01*
X255394D01*
X254395Y417575D01*
X252395Y424573D02*
Y425572D01*
X253395Y426572D01*
X258393D01*
Y423573D01*
X257394Y422573D01*
X255394D01*
X254395Y423573D01*
Y426572D01*
X258393Y428571D02*
X255394D01*
X254395Y429571D01*
Y432570D01*
X253395D01*
X252395Y431570D01*
Y430571D01*
X254395Y432570D02*
X258393D01*
X260393Y440567D02*
Y442567D01*
Y441567D01*
X254395D01*
Y440567D01*
Y442567D01*
Y445566D02*
X258393D01*
Y448565D01*
X257394Y449564D01*
X254395D01*
X258393Y455562D02*
Y452563D01*
X257394Y451564D01*
X255394D01*
X254395Y452563D01*
Y455562D01*
Y457562D02*
X255394D01*
Y458562D01*
X254395D01*
Y457562D01*
X242798Y339600D02*
X248796D01*
X242798Y343599D01*
X248796D01*
X242798Y345598D02*
X246796D01*
X248796Y347597D01*
X246796Y349597D01*
X242798D01*
X245797D01*
Y345598D01*
X248796Y355595D02*
Y351596D01*
X242798D01*
Y355595D01*
X245797Y351596D02*
Y353595D01*
Y357594D02*
Y361593D01*
X247796Y367591D02*
X248796Y366591D01*
Y364592D01*
X247796Y363592D01*
X243797D01*
X242798Y364592D01*
Y366591D01*
X243797Y367591D01*
X248796Y369590D02*
X242798D01*
X244797Y371590D01*
X242798Y373589D01*
X248796D01*
X247796Y375588D02*
X248796Y376588D01*
Y378587D01*
X247796Y379587D01*
X246796D01*
X245797Y378587D01*
Y377588D01*
Y378587D01*
X244797Y379587D01*
X243797D01*
X242798Y378587D01*
Y376588D01*
X243797Y375588D01*
X247796Y381586D02*
X248796Y382586D01*
Y384585D01*
X247796Y385585D01*
X243797D01*
X242798Y384585D01*
Y382586D01*
X243797Y381586D01*
X247796D01*
Y387584D02*
X248796Y388584D01*
Y390583D01*
X247796Y391583D01*
X246796D01*
X245797Y390583D01*
X244797Y391583D01*
X243797D01*
X242798Y390583D01*
Y388584D01*
X243797Y387584D01*
X244797D01*
X245797Y388584D01*
X246796Y387584D01*
X247796D01*
X245797Y388584D02*
Y390583D01*
X248796Y393583D02*
Y397581D01*
Y395582D01*
X242798D01*
X245797Y399581D02*
Y403579D01*
X247796Y409577D02*
X248796Y408578D01*
Y406578D01*
X247796Y405579D01*
X243797D01*
X242798Y406578D01*
Y408578D01*
X243797Y409577D01*
X247796Y415575D02*
X248796Y414576D01*
Y412576D01*
X247796Y411577D01*
X243797D01*
X242798Y412576D01*
Y414576D01*
X243797Y415575D01*
X242798Y421573D02*
Y417575D01*
X246796Y421573D01*
X247796D01*
X248796Y420574D01*
Y418574D01*
X247796Y417575D01*
X248796Y427572D02*
Y423573D01*
X245797D01*
X246796Y425572D01*
Y426572D01*
X245797Y427572D01*
X243797D01*
X242798Y426572D01*
Y424573D01*
X243797Y423573D01*
X247796Y429571D02*
X248796Y430571D01*
Y432570D01*
X247796Y433570D01*
X246796D01*
X245797Y432570D01*
Y431570D01*
Y432570D01*
X244797Y433570D01*
X243797D01*
X242798Y432570D01*
Y430571D01*
X243797Y429571D01*
X247796Y435569D02*
X248796Y436569D01*
Y438568D01*
X247796Y439568D01*
X246796D01*
X245797Y438568D01*
X244797Y439568D01*
X243797D01*
X242798Y438568D01*
Y436569D01*
X243797Y435569D01*
X244797D01*
X245797Y436569D01*
X246796Y435569D01*
X247796D01*
X245797Y436569D02*
Y438568D01*
Y441567D02*
Y445566D01*
X247796Y447565D02*
X248796Y448565D01*
Y450564D01*
X247796Y451564D01*
X243797D01*
X242798Y450564D01*
Y448565D01*
X243797Y447565D01*
X247796D01*
Y453563D02*
X248796Y454563D01*
Y456562D01*
X247796Y457562D01*
X243797D01*
X242798Y456562D01*
Y454563D01*
X243797Y453563D01*
X247796D01*
X233200Y339600D02*
X239198D01*
Y342599D01*
X238198Y343599D01*
X236199D01*
X235199Y342599D01*
Y339600D01*
Y341599D02*
X233200Y343599D01*
Y346598D02*
Y348597D01*
X234200Y349597D01*
X236199D01*
X237199Y348597D01*
Y346598D01*
X236199Y345598D01*
X234200D01*
X233200Y346598D01*
X239198Y351596D02*
X233200D01*
X236199D01*
Y355595D01*
X239198D01*
X233200D01*
X238198Y361593D02*
X239198Y360593D01*
Y358594D01*
X238198Y357594D01*
X237199D01*
X236199Y358594D01*
Y360593D01*
X235199Y361593D01*
X234200D01*
X233200Y360593D01*
Y358594D01*
X234200Y357594D01*
X233200Y369590D02*
X237199Y373589D01*
X233200Y381586D02*
X239198D01*
Y384585D01*
X238198Y385585D01*
X236199D01*
X235199Y384585D01*
Y381586D01*
X239198Y387584D02*
X233200D01*
Y390583D01*
X234200Y391583D01*
X235199D01*
X236199D01*
X237199Y390583D01*
Y387584D01*
X236199Y393583D02*
Y397581D01*
X239198Y403579D02*
Y399581D01*
X236199D01*
Y401580D01*
Y399581D01*
X233200D01*
X237199Y405579D02*
X233200D01*
X235199D01*
X236199Y406578D01*
X237199Y407578D01*
Y408578D01*
X233200Y414576D02*
Y412576D01*
X234200Y411577D01*
X236199D01*
X237199Y412576D01*
Y414576D01*
X236199Y415575D01*
X235199D01*
Y411577D01*
X233200Y420574D02*
Y418574D01*
X234200Y417575D01*
X236199D01*
X237199Y418574D01*
Y420574D01*
X236199Y421573D01*
X235199D01*
Y417575D01*
D50*
X94763Y153578D02*
G03*
X95550Y152791I787J0D01*
G01*
X101850D02*
G03*
X102637Y153578I0J787D01*
G01*
Y160665D02*
G03*
X101850Y161452I-787J0D01*
G01*
X95944D02*
G03*
X94763Y160271I0J-1181D01*
G01*
Y153578D02*
Y160271D01*
X95550Y152791D02*
X101850D01*
X102637Y153578D02*
Y160665D01*
X95944Y161452D02*
X101850D01*
X159928Y232732D02*
Y248087D01*
X113472Y232732D02*
Y248087D01*
X300763Y153578D02*
G03*
X301550Y152791I787J0D01*
G01*
X307850D02*
G03*
X308637Y153578I0J787D01*
G01*
Y160665D02*
G03*
X307850Y161452I-787J0D01*
G01*
X301944D02*
G03*
X300763Y160271I0J-1181D01*
G01*
Y153578D02*
Y160271D01*
X301550Y152791D02*
X307850D01*
X308637Y153578D02*
Y160665D01*
X301944Y161452D02*
X307850D01*
X365928Y232732D02*
Y248087D01*
X319472Y232732D02*
Y248087D01*
X94763Y407578D02*
G03*
X95550Y406791I787J0D01*
G01*
X101850D02*
G03*
X102637Y407578I0J787D01*
G01*
Y414665D02*
G03*
X101850Y415452I-787J0D01*
G01*
X95944D02*
G03*
X94763Y414271I0J-1181D01*
G01*
Y407578D02*
Y414271D01*
X95550Y406791D02*
X101850D01*
X102637Y407578D02*
Y414665D01*
X95944Y415452D02*
X101850D01*
X159928Y486732D02*
Y502087D01*
X113472Y486732D02*
Y502087D01*
X300763Y407578D02*
G03*
X301550Y406791I787J0D01*
G01*
X307850D02*
G03*
X308637Y407578I0J787D01*
G01*
Y414665D02*
G03*
X307850Y415452I-787J0D01*
G01*
X301944D02*
G03*
X300763Y414271I0J-1181D01*
G01*
Y407578D02*
Y414271D01*
X301550Y406791D02*
X307850D01*
X308637Y407578D02*
Y414665D01*
X301944Y415452D02*
X307850D01*
X365928Y486732D02*
Y502087D01*
X319472Y486732D02*
Y502087D01*
D84*
X116578Y143195D02*
G03*
X161452Y143195I22437J0D01*
G01*
X116361Y143436D02*
G03*
X161165Y143699I22653J-42725D01*
G01*
X177924Y93657D02*
G03*
X177924Y93657I-15394J0D01*
G01*
X130894Y93500D02*
G03*
X130894Y93500I-15394J0D01*
G01*
X147088Y67555D02*
Y79234D01*
X139407D02*
X147088D01*
X139407Y65909D02*
Y79234D01*
Y65909D02*
Y74923D01*
X133136D02*
X139407D01*
X133136Y65831D02*
Y74923D01*
X322578Y143195D02*
G03*
X367452Y143195I22437J0D01*
G01*
X322361Y143436D02*
G03*
X367165Y143699I22653J-42725D01*
G01*
X383924Y93657D02*
G03*
X383924Y93657I-15394J0D01*
G01*
X336894Y93500D02*
G03*
X336894Y93500I-15394J0D01*
G01*
X353088Y67555D02*
Y79234D01*
X345407D02*
X353088D01*
X345407Y65909D02*
Y79234D01*
Y65909D02*
Y74923D01*
X339136D02*
X345407D01*
X339136Y65831D02*
Y74923D01*
X116578Y397195D02*
G03*
X161452Y397195I22437J0D01*
G01*
X116361Y397436D02*
G03*
X161165Y397699I22653J-42725D01*
G01*
X177924Y347657D02*
G03*
X177924Y347657I-15394J0D01*
G01*
X130894Y347500D02*
G03*
X130894Y347500I-15394J0D01*
G01*
X147088Y321555D02*
Y333234D01*
X139407D02*
X147088D01*
X139407Y319909D02*
Y333234D01*
Y319909D02*
Y328923D01*
X133136D02*
X139407D01*
X133136Y319831D02*
Y328923D01*
X322578Y397195D02*
G03*
X367452Y397195I22437J0D01*
G01*
X322361Y397436D02*
G03*
X367165Y397699I22653J-42725D01*
G01*
X383924Y347657D02*
G03*
X383924Y347657I-15394J0D01*
G01*
X336894Y347500D02*
G03*
X336894Y347500I-15394J0D01*
G01*
X353088Y321555D02*
Y333234D01*
X345407D02*
X353088D01*
X345407Y319909D02*
Y333234D01*
Y319909D02*
Y328923D01*
X339136D02*
X345407D01*
X339136Y319831D02*
Y328923D01*
D85*
X171984Y100711D02*
G03*
X171984Y100711I-1616J0D01*
G01*
X124954D02*
G03*
X124954Y100711I-1616J0D01*
G01*
X144958Y139903D02*
G03*
X144958Y139903I-5943J0D01*
G01*
X153100Y146459D02*
G03*
X124600Y145699I-14085J-6557D01*
G01*
X161547Y150922D02*
G03*
X115546Y148754I-22532J-11020D01*
G01*
X120087Y71438D02*
G03*
X158798Y72009I18928J29273D01*
G01*
X377984Y100711D02*
G03*
X377984Y100711I-1616J0D01*
G01*
X330954D02*
G03*
X330954Y100711I-1616J0D01*
G01*
X350958Y139903D02*
G03*
X350958Y139903I-5943J0D01*
G01*
X359100Y146459D02*
G03*
X330600Y145699I-14085J-6557D01*
G01*
X367547Y150922D02*
G03*
X321546Y148754I-22532J-11020D01*
G01*
X326087Y71438D02*
G03*
X364797Y72009I18928J29273D01*
G01*
X171984Y354711D02*
G03*
X171984Y354711I-1616J0D01*
G01*
X124954D02*
G03*
X124954Y354711I-1616J0D01*
G01*
X144958Y393903D02*
G03*
X144958Y393903I-5943J0D01*
G01*
X153100Y400459D02*
G03*
X124600Y399699I-14085J-6557D01*
G01*
X161547Y404922D02*
G03*
X115546Y402754I-22532J-11020D01*
G01*
X120087Y325438D02*
G03*
X158798Y326009I18928J29273D01*
G01*
X377984Y354711D02*
G03*
X377984Y354711I-1616J0D01*
G01*
X330954D02*
G03*
X330954Y354711I-1616J0D01*
G01*
X350958Y393903D02*
G03*
X350958Y393903I-5943J0D01*
G01*
X359100Y400459D02*
G03*
X330600Y399699I-14085J-6557D01*
G01*
X367547Y404922D02*
G03*
X321546Y402754I-22532J-11020D01*
G01*
X326087Y325438D02*
G03*
X364797Y326009I18928J29273D01*
G01*
M02*
