G04*
G04 #@! TF.GenerationSoftware,Altium Limited,Altium Designer,18.1.9 (240)*
G04*
G04 Layer_Color=32896*
%FSLAX25Y25*%
%MOIN*%
G70*
G01*
G75*
%ADD10C,0.00787*%
%ADD11C,0.00984*%
%ADD13C,0.01000*%
%ADD14C,0.00394*%
G36*
X222541Y175877D02*
X223016Y175820D01*
X223467Y175727D01*
X223895Y175600D01*
X224300Y175461D01*
X224670Y175299D01*
X225029Y175125D01*
X225341Y174952D01*
X225631Y174778D01*
X225885Y174605D01*
X226105Y174443D01*
X226290Y174304D01*
X226429Y174177D01*
X226533Y174084D01*
X226603Y174026D01*
X226626Y174003D01*
X226961Y173644D01*
X227250Y173263D01*
X227505Y172881D01*
X227713Y172499D01*
X227898Y172106D01*
X228049Y171735D01*
X228176Y171365D01*
X228280Y171018D01*
X228350Y170694D01*
X228407Y170393D01*
X228454Y170127D01*
X228477Y169896D01*
X228488Y169792D01*
X228500Y169699D01*
Y169630D01*
X228512Y169560D01*
Y169514D01*
Y169479D01*
Y169456D01*
Y169445D01*
X228488Y168958D01*
X228431Y168484D01*
X228338Y168033D01*
X228211Y167605D01*
X228072Y167200D01*
X227910Y166830D01*
X227748Y166483D01*
X227563Y166159D01*
X227389Y165881D01*
X227227Y165626D01*
X227065Y165407D01*
X226915Y165221D01*
X226799Y165083D01*
X226707Y164967D01*
X226649Y164909D01*
X226626Y164886D01*
X226267Y164550D01*
X225885Y164261D01*
X225503Y164007D01*
X225110Y163798D01*
X224728Y163613D01*
X224346Y163463D01*
X223976Y163336D01*
X223629Y163231D01*
X223305Y163162D01*
X223004Y163104D01*
X222738Y163058D01*
X222507Y163035D01*
X222403Y163023D01*
X222310Y163012D01*
X222241D01*
X222171Y163000D01*
X221813D01*
X221708Y163012D01*
X221523D01*
X221465Y163023D01*
X221408D01*
Y164979D01*
X221627Y164955D01*
X221743Y164944D01*
X221836D01*
X221928Y164932D01*
X222056D01*
X222403Y164944D01*
X222727Y164990D01*
X223039Y165059D01*
X223340Y165140D01*
X223618Y165233D01*
X223884Y165349D01*
X224127Y165464D01*
X224346Y165592D01*
X224555Y165719D01*
X224728Y165835D01*
X224879Y165950D01*
X225006Y166043D01*
X225110Y166136D01*
X225191Y166193D01*
X225237Y166240D01*
X225249Y166251D01*
X225480Y166506D01*
X225689Y166772D01*
X225862Y167038D01*
X226012Y167316D01*
X226140Y167582D01*
X226244Y167848D01*
X226336Y168102D01*
X226406Y168345D01*
X226452Y168577D01*
X226498Y168785D01*
X226521Y168970D01*
X226545Y169132D01*
X226556Y169259D01*
X226568Y169363D01*
Y169421D01*
Y169445D01*
X226556Y169792D01*
X226510Y170116D01*
X226441Y170440D01*
X226360Y170740D01*
X226267Y171018D01*
X226151Y171284D01*
X226036Y171527D01*
X225908Y171747D01*
X225781Y171944D01*
X225665Y172117D01*
X225550Y172279D01*
X225457Y172406D01*
X225364Y172499D01*
X225307Y172580D01*
X225260Y172626D01*
X225249Y172638D01*
X224994Y172869D01*
X224728Y173077D01*
X224462Y173251D01*
X224184Y173413D01*
X223918Y173540D01*
X223652Y173644D01*
X223398Y173737D01*
X223155Y173806D01*
X222923Y173853D01*
X222715Y173899D01*
X222530Y173934D01*
X222368Y173945D01*
X222241Y173957D01*
X222136Y173968D01*
X222056D01*
X221813Y173957D01*
X221708D01*
X221604Y173945D01*
X221523Y173934D01*
X221465D01*
X221419Y173922D01*
X221408D01*
Y175866D01*
X221627Y175889D01*
X221732D01*
X221836Y175900D01*
X222056D01*
X222541Y175877D01*
D02*
G37*
G36*
X211573D02*
X212048Y175820D01*
X212499Y175727D01*
X212927Y175600D01*
X213332Y175461D01*
X213702Y175299D01*
X214049Y175125D01*
X214373Y174952D01*
X214651Y174778D01*
X214905Y174605D01*
X215125Y174443D01*
X215310Y174304D01*
X215449Y174177D01*
X215565Y174084D01*
X215623Y174026D01*
X215646Y174003D01*
X215981Y173644D01*
X216270Y173263D01*
X216525Y172881D01*
X216733Y172499D01*
X216918Y172106D01*
X217069Y171735D01*
X217196Y171365D01*
X217300Y171018D01*
X217370Y170694D01*
X217427Y170393D01*
X217474Y170127D01*
X217497Y169896D01*
X217509Y169792D01*
X217520Y169699D01*
Y169630D01*
X217532Y169560D01*
Y169514D01*
Y169479D01*
Y169456D01*
Y169445D01*
X217509Y168958D01*
X217451Y168484D01*
X217358Y168033D01*
X217231Y167605D01*
X217092Y167200D01*
X216930Y166830D01*
X216768Y166483D01*
X216583Y166159D01*
X216409Y165881D01*
X216247Y165626D01*
X216085Y165407D01*
X215935Y165221D01*
X215819Y165083D01*
X215727Y164967D01*
X215669Y164909D01*
X215646Y164886D01*
X215287Y164550D01*
X214905Y164261D01*
X214523Y164007D01*
X214142Y163798D01*
X213748Y163613D01*
X213378Y163463D01*
X213008Y163336D01*
X212661Y163231D01*
X212337Y163162D01*
X212036Y163104D01*
X211770Y163058D01*
X211538Y163035D01*
X211434Y163023D01*
X211342Y163012D01*
X211272D01*
X211203Y163000D01*
X210844D01*
X210740Y163012D01*
X210555D01*
X210497Y163023D01*
X210439D01*
X210451Y164979D01*
X210671Y164955D01*
X210775Y164944D01*
X210879D01*
X210960Y164932D01*
X211087D01*
X211376Y164944D01*
X211666Y164979D01*
X211943Y165025D01*
X212198Y165083D01*
X212452Y165164D01*
X212684Y165245D01*
X212904Y165337D01*
X213100Y165430D01*
X213285Y165522D01*
X213447Y165615D01*
X213586Y165696D01*
X213702Y165777D01*
X213794Y165835D01*
X213864Y165881D01*
X213910Y165916D01*
X213922Y165927D01*
X214142Y166124D01*
X214350Y166321D01*
X214523Y166529D01*
X214685Y166749D01*
X214836Y166957D01*
X214963Y167177D01*
X215079Y167385D01*
X215171Y167582D01*
X215252Y167767D01*
X215322Y167940D01*
X215380Y168091D01*
X215426Y168230D01*
X215461Y168334D01*
X215484Y168415D01*
X215495Y168461D01*
Y168484D01*
X211723D01*
Y170416D01*
X215495D01*
X215426Y170706D01*
X215333Y170972D01*
X215229Y171238D01*
X215113Y171481D01*
X214986Y171701D01*
X214859Y171909D01*
X214720Y172106D01*
X214593Y172279D01*
X214466Y172441D01*
X214338Y172580D01*
X214234Y172696D01*
X214130Y172788D01*
X214049Y172869D01*
X213991Y172927D01*
X213945Y172962D01*
X213933Y172973D01*
X213690Y173147D01*
X213447Y173297D01*
X213205Y173436D01*
X212962Y173552D01*
X212719Y173644D01*
X212487Y173725D01*
X212256Y173795D01*
X212036Y173841D01*
X211839Y173887D01*
X211654Y173910D01*
X211492Y173934D01*
X211353Y173957D01*
X211238D01*
X211157Y173968D01*
X211087D01*
X210844Y173957D01*
X210740D01*
X210636Y173945D01*
X210555Y173934D01*
X210497D01*
X210451Y173922D01*
X210439D01*
Y175866D01*
X210578Y175877D01*
X210694Y175889D01*
X210809D01*
X210902Y175900D01*
X211087D01*
X211573Y175877D01*
D02*
G37*
G36*
X196698Y178573D02*
X197068Y178550D01*
X197427Y178515D01*
X197774Y178457D01*
X198121Y178400D01*
X198445Y178319D01*
X199093Y178145D01*
X199694Y177925D01*
X200261Y177682D01*
X200782Y177428D01*
X201025Y177300D01*
X201256Y177162D01*
X201476Y177034D01*
X201684Y176895D01*
X201881Y176768D01*
X202066Y176641D01*
X202240Y176514D01*
X202402Y176398D01*
X202541Y176282D01*
X202668Y176178D01*
X202783Y176085D01*
X202888Y176005D01*
X202980Y175924D01*
X203050Y175866D01*
X203108Y175808D01*
X203142Y175773D01*
X203165Y175750D01*
X203177Y175738D01*
X203432Y175472D01*
X203674Y175195D01*
X203894Y174917D01*
X204114Y174628D01*
X204299Y174338D01*
X204484Y174061D01*
X204658Y173760D01*
X204808Y173471D01*
X204947Y173181D01*
X205086Y172892D01*
X205306Y172325D01*
X205503Y171782D01*
X205641Y171261D01*
X205769Y170763D01*
X205815Y170532D01*
X205850Y170312D01*
X205884Y170115D01*
X205919Y169919D01*
X205942Y169734D01*
X205954Y169572D01*
X205965Y169421D01*
X205977Y169294D01*
X205988Y169178D01*
Y169074D01*
X206000Y169005D01*
Y168947D01*
Y168912D01*
Y168901D01*
X205988Y168530D01*
X205965Y168160D01*
X205931Y167801D01*
X205873Y167454D01*
X205815Y167107D01*
X205734Y166783D01*
X205560Y166135D01*
X205341Y165534D01*
X205109Y164967D01*
X204855Y164446D01*
X204716Y164203D01*
X204589Y163972D01*
X204461Y163752D01*
X204322Y163544D01*
X204195Y163347D01*
X204068Y163162D01*
X203952Y162988D01*
X203836Y162826D01*
X203721Y162688D01*
X203617Y162560D01*
X203524Y162444D01*
X203432Y162340D01*
X203362Y162248D01*
X203293Y162178D01*
X203246Y162120D01*
X203212Y162086D01*
X203188Y162063D01*
X203177Y162051D01*
X202911Y161797D01*
X202633Y161554D01*
X202355Y161322D01*
X202066Y161114D01*
X201777Y160917D01*
X201488Y160732D01*
X201199Y160570D01*
X200909Y160408D01*
X200620Y160269D01*
X200331Y160142D01*
X199764Y159911D01*
X199208Y159725D01*
X198688Y159575D01*
X198202Y159459D01*
X197970Y159402D01*
X197751Y159367D01*
X197542Y159332D01*
X197346Y159309D01*
X197160Y159274D01*
X196999Y159263D01*
X196848Y159251D01*
X196721Y159240D01*
X196605Y159228D01*
X196501D01*
X196432Y159216D01*
X196327D01*
X195957Y159228D01*
X195587Y159251D01*
X195228Y159286D01*
X194881Y159344D01*
X194546Y159402D01*
X194210Y159483D01*
X193574Y159656D01*
X192972Y159876D01*
X192405Y160119D01*
X191885Y160373D01*
X191642Y160501D01*
X191410Y160640D01*
X191190Y160767D01*
X190982Y160894D01*
X190785Y161033D01*
X190600Y161160D01*
X190427Y161276D01*
X190265Y161392D01*
X190126Y161507D01*
X189999Y161611D01*
X189883Y161704D01*
X189779Y161785D01*
X189686Y161866D01*
X189617Y161935D01*
X189559Y161982D01*
X189524Y162016D01*
X189501Y162039D01*
X189490Y162051D01*
X189235Y162317D01*
X188992Y162595D01*
X188761Y162873D01*
X188552Y163162D01*
X188356Y163451D01*
X188171Y163740D01*
X187997Y164030D01*
X187847Y164319D01*
X187696Y164608D01*
X187569Y164897D01*
X187338Y165464D01*
X187153Y166020D01*
X187002Y166540D01*
X186886Y167026D01*
X186828Y167258D01*
X186794Y167477D01*
X186759Y167686D01*
X186724Y167882D01*
X186701Y168068D01*
X186690Y168229D01*
X186678Y168380D01*
X186667Y168507D01*
X186655Y168623D01*
X186643Y168727D01*
Y168796D01*
Y168854D01*
Y168889D01*
Y168901D01*
X186655Y169271D01*
X186678Y169641D01*
X186713Y170000D01*
X186771Y170347D01*
X186828Y170682D01*
X186909Y171018D01*
X187083Y171654D01*
X187303Y172256D01*
X187546Y172823D01*
X187800Y173343D01*
X187928Y173586D01*
X188066Y173818D01*
X188194Y174038D01*
X188333Y174246D01*
X188460Y174443D01*
X188587Y174628D01*
X188714Y174801D01*
X188830Y174963D01*
X188946Y175102D01*
X189050Y175229D01*
X189143Y175345D01*
X189224Y175449D01*
X189304Y175542D01*
X189362Y175611D01*
X189420Y175669D01*
X189455Y175704D01*
X189478Y175727D01*
X189490Y175738D01*
X189756Y175993D01*
X190033Y176236D01*
X190311Y176467D01*
X190600Y176676D01*
X190890Y176872D01*
X191167Y177057D01*
X191468Y177231D01*
X191757Y177381D01*
X192047Y177532D01*
X192336Y177659D01*
X192903Y177890D01*
X193447Y178076D01*
X193967Y178226D01*
X194465Y178342D01*
X194696Y178400D01*
X194916Y178434D01*
X195113Y178469D01*
X195309Y178504D01*
X195494Y178527D01*
X195656Y178538D01*
X195807Y178550D01*
X195934Y178561D01*
X196050Y178573D01*
X196154Y178585D01*
X196327D01*
X196698Y178573D01*
D02*
G37*
G36*
X182000Y176722D02*
X178078Y172638D01*
X177962Y171538D01*
X177719Y168866D01*
X177522Y166945D01*
X181722Y162630D01*
X181433Y162352D01*
X177488Y166401D01*
X177256Y163914D01*
X177129D01*
Y162965D01*
X176250D01*
Y163914D01*
X173531D01*
X173427Y163729D01*
X173299Y163544D01*
X173103Y163335D01*
X172848Y163162D01*
X172559Y163069D01*
X172281Y163035D01*
X171992Y163046D01*
X171784Y163104D01*
X171541Y163208D01*
X171333Y163335D01*
X171170Y163497D01*
X171009Y163729D01*
X170893Y163983D01*
X170823Y164226D01*
X170800Y164423D01*
X170823Y164666D01*
X170858Y164851D01*
X170928Y165025D01*
X171032Y165221D01*
X171147Y165383D01*
X171309Y165534D01*
X171483Y165649D01*
X171645Y165730D01*
X171622Y165939D01*
X168162Y162352D01*
X167873Y162641D01*
X171587Y166482D01*
X171286Y169838D01*
X171078Y172267D01*
X169967D01*
Y173829D01*
X170256D01*
X167445Y176722D01*
X167734Y176999D01*
X170384Y174269D01*
Y174466D01*
X170326Y174512D01*
X170256Y174558D01*
X170187Y174628D01*
X170118Y174709D01*
X170083Y174813D01*
X170048Y174905D01*
X170037Y175021D01*
X170060Y175171D01*
X170095Y175252D01*
X170199Y175415D01*
X170314Y175519D01*
X170465Y175588D01*
X170627Y175611D01*
X170789Y175588D01*
X170928Y175530D01*
X171043Y175461D01*
X171101Y175391D01*
X171205Y175484D01*
X171379Y175600D01*
X171587Y175704D01*
X171888Y175819D01*
X172212Y175912D01*
X172536Y175981D01*
X172883Y176039D01*
X173161Y176074D01*
Y176421D01*
X175382D01*
Y176120D01*
X175556D01*
X175845Y176085D01*
X176146Y176051D01*
X176435Y176005D01*
Y176190D01*
X177395D01*
Y175738D01*
X177511Y175681D01*
X177661Y175611D01*
X177835Y175507D01*
X177974Y175415D01*
X178101Y175299D01*
X178193Y175218D01*
X178251Y175137D01*
X178298Y175044D01*
X178275Y174882D01*
X178830D01*
Y174177D01*
X178217D01*
X178124Y173262D01*
X181711Y176999D01*
X182000Y176722D01*
D02*
G37*
G36*
X181155Y159147D02*
Y159089D01*
Y159008D01*
Y158927D01*
Y158835D01*
Y158754D01*
Y158696D01*
Y158684D01*
Y158673D01*
Y158291D01*
Y158106D01*
Y157932D01*
Y157793D01*
Y157678D01*
Y157631D01*
Y157597D01*
Y157585D01*
Y157573D01*
Y157354D01*
Y157157D01*
Y156972D01*
Y156810D01*
Y156671D01*
Y156579D01*
Y156509D01*
Y156498D01*
Y156486D01*
Y156324D01*
Y156208D01*
Y156116D01*
Y156058D01*
Y156023D01*
Y156012D01*
Y156000D01*
X168509D01*
Y156023D01*
Y156081D01*
Y156150D01*
Y156243D01*
Y156335D01*
Y156405D01*
Y156463D01*
Y156486D01*
Y156868D01*
Y157053D01*
Y157215D01*
Y157365D01*
Y157469D01*
Y157516D01*
Y157550D01*
Y157562D01*
Y157573D01*
Y157793D01*
Y158002D01*
Y158187D01*
Y158349D01*
Y158488D01*
Y158592D01*
Y158650D01*
Y158673D01*
Y158765D01*
Y158835D01*
Y158962D01*
Y159055D01*
Y159112D01*
Y159147D01*
Y159159D01*
Y159170D01*
X181155D01*
Y159147D01*
D02*
G37*
%LPC*%
G36*
X196490Y177613D02*
X196327D01*
X195992Y177601D01*
X195668Y177590D01*
X195344Y177555D01*
X195032Y177509D01*
X194418Y177381D01*
X193840Y177219D01*
X193296Y177023D01*
X192799Y176803D01*
X192324Y176572D01*
X191896Y176340D01*
X191514Y176097D01*
X191329Y175981D01*
X191167Y175866D01*
X191017Y175750D01*
X190878Y175646D01*
X190739Y175553D01*
X190623Y175461D01*
X190519Y175368D01*
X190427Y175287D01*
X190357Y175229D01*
X190288Y175171D01*
X190242Y175114D01*
X190207Y175091D01*
X190184Y175067D01*
X190172Y175056D01*
X189941Y174813D01*
X189721Y174570D01*
X189513Y174315D01*
X189328Y174061D01*
X189154Y173806D01*
X188992Y173540D01*
X188830Y173286D01*
X188691Y173020D01*
X188448Y172499D01*
X188240Y171990D01*
X188066Y171492D01*
X187939Y171029D01*
X187823Y170578D01*
X187754Y170173D01*
X187719Y169988D01*
X187696Y169815D01*
X187673Y169653D01*
X187650Y169502D01*
X187638Y169375D01*
X187627Y169248D01*
Y169143D01*
X187615Y169062D01*
Y168993D01*
Y168947D01*
Y168912D01*
Y168901D01*
X187627Y168565D01*
X187638Y168241D01*
X187673Y167917D01*
X187719Y167605D01*
X187847Y166991D01*
X188009Y166413D01*
X188205Y165869D01*
X188425Y165360D01*
X188657Y164897D01*
X188888Y164469D01*
X189131Y164076D01*
X189247Y163902D01*
X189362Y163729D01*
X189478Y163578D01*
X189582Y163440D01*
X189675Y163312D01*
X189767Y163185D01*
X189833Y163111D01*
X192509Y165788D01*
X192370Y165881D01*
X192243Y165973D01*
X192197Y166020D01*
X192162Y166054D01*
X192139Y166066D01*
X192128Y166077D01*
X191989Y166216D01*
X191873Y166355D01*
X191769Y166506D01*
X191688Y166667D01*
X191607Y166818D01*
X191549Y166968D01*
X191456Y167269D01*
X191422Y167408D01*
X191399Y167524D01*
X191387Y167639D01*
X191376Y167744D01*
X191364Y167813D01*
Y167882D01*
Y167917D01*
Y167929D01*
Y168114D01*
X191387Y168287D01*
X191445Y168588D01*
X191526Y168866D01*
X191561Y168982D01*
X191607Y169086D01*
X191653Y169178D01*
X191700Y169259D01*
X191746Y169329D01*
X191780Y169386D01*
X191815Y169433D01*
X191838Y169467D01*
X191850Y169479D01*
X191861Y169491D01*
X191954Y169595D01*
X192058Y169687D01*
X192151Y169757D01*
X192255Y169826D01*
X192452Y169930D01*
X192625Y170000D01*
X192787Y170034D01*
X192903Y170057D01*
X192949Y170069D01*
X193018D01*
X193157Y170057D01*
X193285Y170034D01*
X193412Y169988D01*
X193539Y169930D01*
X193771Y169791D01*
X193979Y169630D01*
X194141Y169467D01*
X194210Y169398D01*
X194268Y169329D01*
X194314Y169271D01*
X194349Y169225D01*
X194372Y169201D01*
X194384Y169190D01*
Y172325D01*
X194592D01*
X195888Y171793D01*
X195818Y171631D01*
X195691Y171677D01*
X195587Y171689D01*
X195518Y171701D01*
X195494D01*
X195413Y171689D01*
X195356Y171677D01*
X195309Y171654D01*
X195298Y171643D01*
X195252Y171573D01*
X195217Y171504D01*
X195205Y171434D01*
X195194Y171423D01*
Y171411D01*
X195182Y171377D01*
Y171319D01*
X195170Y171203D01*
Y171053D01*
X195159Y170891D01*
Y170752D01*
Y170624D01*
Y170578D01*
Y170544D01*
Y170520D01*
Y170509D01*
Y168438D01*
X196304Y169595D01*
X196247Y169815D01*
X196223Y169930D01*
X196212Y170023D01*
X196200Y170115D01*
Y170185D01*
Y170231D01*
Y170243D01*
X196212Y170451D01*
X196258Y170636D01*
X196304Y170810D01*
X196374Y170948D01*
X196432Y171076D01*
X196490Y171157D01*
X196536Y171215D01*
X196547Y171238D01*
X196686Y171388D01*
X196825Y171515D01*
X196964Y171619D01*
X197091Y171701D01*
X197207Y171758D01*
X197299Y171805D01*
X197357Y171828D01*
X197380Y171839D01*
X197589Y171897D01*
X197808Y171943D01*
X198028Y171967D01*
X198248Y171990D01*
X198445Y172001D01*
X198526Y172013D01*
X198734D01*
X202118Y175397D01*
X202240Y175287D01*
X202483Y175056D01*
X202124Y175403D01*
X202118Y175397D01*
X201997Y175507D01*
X201742Y175715D01*
X201488Y175900D01*
X201222Y176074D01*
X200967Y176236D01*
X200701Y176398D01*
X200446Y176537D01*
X199926Y176780D01*
X199417Y176988D01*
X198919Y177162D01*
X198445Y177289D01*
X198005Y177404D01*
X197600Y177474D01*
X197415Y177509D01*
X197241Y177532D01*
X197080Y177555D01*
X196929Y177578D01*
X196790Y177590D01*
X196675Y177601D01*
X196571D01*
X196490Y177613D01*
D02*
G37*
G36*
X198318Y171596D02*
X198179Y171550D01*
X198051Y171504D01*
X198005Y171481D01*
X197970Y171469D01*
X197947Y171446D01*
X197936D01*
X197832Y171377D01*
X197727Y171295D01*
X197646Y171203D01*
X197577Y171122D01*
X197519Y171041D01*
X197485Y170972D01*
X197461Y170925D01*
X197450Y170914D01*
X197392Y170786D01*
X197357Y170705D01*
X197346Y170648D01*
X197334Y170624D01*
X198318Y171596D01*
D02*
G37*
G36*
X199266Y171168D02*
X197473Y169386D01*
X197531Y169294D01*
X197589Y169225D01*
X197623Y169178D01*
X197635Y169167D01*
X197774Y169039D01*
X197924Y168935D01*
X198063Y168866D01*
X198190Y168820D01*
X198306Y168796D01*
X198398Y168785D01*
X198456Y168773D01*
X198479D01*
X198584Y168785D01*
X198699Y168796D01*
X198746D01*
X198780Y168808D01*
X198815D01*
X198965Y168820D01*
X199116Y168843D01*
X199174Y168854D01*
X199220Y168866D01*
X199255Y168877D01*
X199266D01*
Y171168D01*
D02*
G37*
G36*
X193481Y169386D02*
X193389D01*
X193215Y169363D01*
X193065Y169317D01*
X192926Y169248D01*
X192799Y169167D01*
X192694Y169086D01*
X192625Y169016D01*
X192567Y168970D01*
X192556Y168947D01*
X192428Y168762D01*
X192336Y168553D01*
X192266Y168345D01*
X192220Y168137D01*
X192197Y167952D01*
X192185Y167871D01*
X192174Y167801D01*
Y167744D01*
Y167697D01*
Y167674D01*
Y167663D01*
X192185Y167350D01*
X192232Y167072D01*
X192290Y166830D01*
X192359Y166644D01*
X192440Y166494D01*
X192498Y166390D01*
X192544Y166320D01*
X192556Y166297D01*
X192625Y166193D01*
X192694Y166124D01*
X192752Y166066D01*
X192764Y166054D01*
X192775D01*
X194384Y167651D01*
Y168889D01*
X194268Y168993D01*
X194176Y169074D01*
X194083Y169132D01*
X194014Y169190D01*
X193956Y169225D01*
X193921Y169248D01*
X193898Y169271D01*
X193886D01*
X193701Y169340D01*
X193620Y169363D01*
X193539Y169375D01*
X193481Y169386D01*
D02*
G37*
G36*
X202483Y175056D02*
X202495Y175043D01*
X202506Y175021D01*
X202541Y174986D01*
X202587Y174940D01*
X202645Y174871D01*
X202714Y174801D01*
X202795Y174709D01*
X200099Y172013D01*
X201083D01*
Y171839D01*
X200840D01*
X200712Y171828D01*
X200608Y171805D01*
X200504Y171770D01*
X200435Y171735D01*
X200377Y171701D01*
X200331Y171666D01*
X200308Y171643D01*
X200296Y171631D01*
X200250Y171562D01*
X200227Y171458D01*
X200203Y171330D01*
X200180Y171203D01*
Y171076D01*
X200169Y170983D01*
Y170902D01*
Y170891D01*
Y170879D01*
Y166748D01*
Y166563D01*
X200180Y166401D01*
X200192Y166286D01*
X200215Y166193D01*
X200227Y166124D01*
X200250Y166077D01*
X200261Y166054D01*
Y166043D01*
X200342Y165962D01*
X200435Y165892D01*
X200527Y165846D01*
X200620Y165823D01*
X200701Y165800D01*
X200770Y165788D01*
X201083D01*
Y165603D01*
X198341D01*
Y165788D01*
X198584D01*
X198711Y165800D01*
X198815Y165823D01*
X198908Y165846D01*
X198989Y165892D01*
X199046Y165927D01*
X199093Y165950D01*
X199116Y165973D01*
X199127Y165985D01*
X199174Y166066D01*
X199208Y166170D01*
X199232Y166297D01*
X199243Y166425D01*
X199255Y166552D01*
X199266Y166656D01*
Y166725D01*
Y166737D01*
Y166748D01*
Y168600D01*
X199139Y168577D01*
X199023Y168553D01*
X198931Y168542D01*
X198850Y168530D01*
X198780Y168519D01*
X198734Y168507D01*
X198688D01*
X198491Y168484D01*
X198398D01*
X198329Y168473D01*
X198179D01*
X197901Y168484D01*
X197646Y168530D01*
X197427Y168588D01*
X197241Y168646D01*
X197103Y168715D01*
X196999Y168762D01*
X196929Y168808D01*
X196906Y168820D01*
X195159Y167072D01*
Y166020D01*
X195009Y165927D01*
X194858Y165846D01*
X194731Y165777D01*
X194604Y165719D01*
X194511Y165673D01*
X194430Y165638D01*
X194372Y165626D01*
X194361Y165615D01*
X194222Y165568D01*
X194095Y165534D01*
X193956Y165510D01*
X193840Y165499D01*
X193747Y165487D01*
X193666Y165476D01*
X193562D01*
X190508Y162421D01*
X190161Y162745D01*
X190134Y162774D01*
X190138Y162768D01*
X190161Y162745D01*
X190172Y162734D01*
X190415Y162502D01*
X190658Y162283D01*
X190913Y162086D01*
X191167Y161889D01*
X191422Y161716D01*
X191688Y161554D01*
X191943Y161403D01*
X192209Y161264D01*
X192729Y161021D01*
X193238Y160813D01*
X193736Y160640D01*
X194199Y160512D01*
X194650Y160397D01*
X195055Y160327D01*
X195240Y160292D01*
X195413Y160269D01*
X195575Y160246D01*
X195726Y160223D01*
X195853Y160212D01*
X195980Y160200D01*
X196084D01*
X196166Y160188D01*
X196327D01*
X196663Y160200D01*
X196987Y160223D01*
X197311Y160246D01*
X197623Y160292D01*
X198237Y160420D01*
X198803Y160582D01*
X199347Y160778D01*
X199856Y160998D01*
X200331Y161230D01*
X200759Y161461D01*
X201141Y161704D01*
X201314Y161820D01*
X201488Y161924D01*
X201638Y162039D01*
X201777Y162144D01*
X201904Y162248D01*
X202031Y162340D01*
X202136Y162421D01*
X202228Y162502D01*
X202298Y162572D01*
X202367Y162630D01*
X202413Y162676D01*
X202448Y162711D01*
X202471Y162722D01*
X202483Y162734D01*
X202714Y162977D01*
X202934Y163220D01*
X203131Y163474D01*
X203327Y163729D01*
X203501Y163995D01*
X203663Y164249D01*
X203825Y164515D01*
X203964Y164782D01*
X204207Y165302D01*
X204415Y165811D01*
X204589Y166309D01*
X204716Y166772D01*
X204820Y167223D01*
X204901Y167628D01*
X204936Y167813D01*
X204959Y167987D01*
X204982Y168149D01*
X205005Y168299D01*
X205017Y168426D01*
X205028Y168553D01*
Y168658D01*
X205040Y168739D01*
Y168808D01*
Y168854D01*
Y168889D01*
Y168901D01*
X205028Y169236D01*
X205005Y169560D01*
X204982Y169884D01*
X204924Y170196D01*
X204808Y170810D01*
X204635Y171388D01*
X204450Y171932D01*
X204230Y172429D01*
X203998Y172904D01*
X203755Y173332D01*
X203524Y173714D01*
X203408Y173899D01*
X203293Y174061D01*
X203177Y174211D01*
X203073Y174350D01*
X202980Y174489D01*
X202876Y174605D01*
X202795Y174709D01*
X202807Y174720D01*
X202495Y175043D01*
X202494Y175044D01*
X202483Y175056D01*
D02*
G37*
G36*
X189833Y163111D02*
X189825Y163104D01*
X190002Y162915D01*
X189999Y162919D01*
X189941Y162988D01*
X189860Y163081D01*
X189833Y163111D01*
D02*
G37*
G36*
X190002Y162915D02*
X190057Y162849D01*
X190083Y162828D01*
X190134Y162774D01*
X190114Y162803D01*
X190083Y162828D01*
X190002Y162915D01*
D02*
G37*
G36*
X174965Y176028D02*
X173554D01*
Y175796D01*
X174965D01*
Y176028D01*
D02*
G37*
G36*
X175382Y175704D02*
Y175391D01*
X173161D01*
Y175657D01*
X172698Y175588D01*
X172281Y175484D01*
X171934Y175391D01*
X171656Y175264D01*
X171437Y175137D01*
X171275Y174986D01*
Y174882D01*
X176435D01*
Y175565D01*
X176122Y175623D01*
X175775Y175669D01*
X175382Y175704D01*
D02*
G37*
G36*
X177002Y175796D02*
X176840D01*
Y175264D01*
X176990D01*
X177002Y175796D01*
D02*
G37*
G36*
X177395Y175276D02*
Y174882D01*
X177869D01*
X177881Y174952D01*
X177765Y175067D01*
X177615Y175171D01*
X177395Y175276D01*
D02*
G37*
G36*
X170685Y175206D02*
X170650D01*
X170580Y175195D01*
X170534Y175171D01*
X170488Y175148D01*
X170465Y175114D01*
X170442Y175044D01*
Y175021D01*
Y175010D01*
X170453Y174940D01*
X170476Y174894D01*
X170511Y174859D01*
X170546Y174836D01*
X170615Y174813D01*
X170650D01*
X170719Y174824D01*
X170765Y174847D01*
X170800Y174871D01*
X170823Y174917D01*
X170846Y174975D01*
Y174998D01*
Y175010D01*
X170835Y175079D01*
X170812Y175125D01*
X170789Y175160D01*
X170742Y175183D01*
X170685Y175206D01*
D02*
G37*
G36*
X171147Y173436D02*
X170372D01*
Y172672D01*
X171147D01*
Y173436D01*
D02*
G37*
G36*
X175023Y171689D02*
X172941D01*
Y171562D01*
X175023D01*
Y171689D01*
D02*
G37*
G36*
X177812Y174177D02*
X171333D01*
X171367Y173829D01*
X171541D01*
Y173089D01*
X172513Y172094D01*
X175428D01*
Y171168D01*
X173415D01*
X174757Y169780D01*
X177684Y172823D01*
X177812Y174177D01*
D02*
G37*
G36*
X177627Y172175D02*
X175035Y169491D01*
X177164Y167304D01*
X177627Y172175D01*
D02*
G37*
G36*
X171541Y172510D02*
Y172267D01*
X171494D01*
X171957Y166876D01*
X174479Y169491D01*
X172848Y171168D01*
X172513D01*
Y171504D01*
X171541Y172510D01*
D02*
G37*
G36*
X174757Y169201D02*
X172003Y166344D01*
X172050Y165846D01*
X172235Y165858D01*
X172443Y165846D01*
X172698Y165777D01*
X172941Y165649D01*
X173126Y165522D01*
X173299Y165349D01*
X173450Y165129D01*
X173577Y164851D01*
X173635Y164539D01*
X173623Y164330D01*
X176886D01*
X177118Y166772D01*
X174757Y169201D01*
D02*
G37*
G36*
X172293Y165152D02*
X172223D01*
X172096Y165140D01*
X171992Y165117D01*
X171899Y165082D01*
X171818Y165048D01*
X171749Y164990D01*
X171703Y164932D01*
X171610Y164805D01*
X171564Y164666D01*
X171541Y164562D01*
X171529Y164515D01*
Y164481D01*
Y164458D01*
Y164446D01*
X171541Y164319D01*
X171564Y164215D01*
X171599Y164122D01*
X171633Y164041D01*
X171691Y163983D01*
X171749Y163926D01*
X171876Y163845D01*
X172003Y163787D01*
X172119Y163763D01*
X172154Y163752D01*
X172223D01*
X172351Y163763D01*
X172455Y163787D01*
X172547Y163821D01*
X172628Y163856D01*
X172698Y163914D01*
X172756Y163972D01*
X172837Y164099D01*
X172894Y164226D01*
X172918Y164342D01*
X172929Y164377D01*
Y164411D01*
Y164435D01*
Y164446D01*
X172918Y164573D01*
X172894Y164678D01*
X172860Y164770D01*
X172813Y164851D01*
X172767Y164920D01*
X172709Y164978D01*
X172571Y165059D01*
X172443Y165117D01*
X172327Y165140D01*
X172293Y165152D01*
D02*
G37*
G36*
X176736Y163926D02*
X176643D01*
Y163358D01*
X176736D01*
Y163926D01*
D02*
G37*
%LPD*%
G36*
X172385Y164897D02*
X172501Y164851D01*
X172582Y164770D01*
X172640Y164689D01*
X172675Y164596D01*
X172686Y164515D01*
X172698Y164469D01*
Y164446D01*
X172675Y164296D01*
X172628Y164180D01*
X172547Y164099D01*
X172455Y164041D01*
X172374Y164006D01*
X172293Y163995D01*
X172247Y163983D01*
X172223D01*
X172073Y164006D01*
X171957Y164053D01*
X171876Y164134D01*
X171818Y164215D01*
X171784Y164296D01*
X171772Y164377D01*
X171760Y164423D01*
Y164446D01*
X171784Y164608D01*
X171830Y164724D01*
X171911Y164805D01*
X171992Y164863D01*
X172073Y164897D01*
X172154Y164909D01*
X172200Y164920D01*
X172223D01*
X172385Y164897D01*
D02*
G37*
%LPC*%
G36*
X172235Y164515D02*
X172223D01*
X172177Y164504D01*
X172166Y164481D01*
X172154Y164458D01*
Y164446D01*
X172166Y164411D01*
X172189Y164388D01*
X172212Y164377D01*
X172223D01*
X172258Y164388D01*
X172281Y164411D01*
X172293Y164435D01*
Y164446D01*
X172281Y164492D01*
X172258Y164504D01*
X172235Y164515D01*
D02*
G37*
%LPD*%
D10*
X209543Y228157D02*
Y247843D01*
X202457Y228157D02*
Y247843D01*
X209543D01*
X202457Y228157D02*
X209543D01*
X198000Y322500D02*
X265000D01*
X198000Y290000D02*
Y322500D01*
Y290000D02*
X265000D01*
Y322500D01*
X198000Y306750D02*
X265000D01*
X239000Y290000D02*
Y313500D01*
X254000Y290000D02*
X254500D01*
X254000D02*
Y313500D01*
X170500Y270000D02*
X233000D01*
X170500Y212500D02*
Y270000D01*
Y212500D02*
X233000D01*
Y270000D01*
D11*
X215941Y248847D02*
G03*
X215941Y248847I-492J0D01*
G01*
D13*
X262000Y308397D02*
Y312396D01*
X260667Y311063D01*
X259334Y312396D01*
Y308397D01*
X258001D02*
X256668D01*
X257335D01*
Y312396D01*
X258001Y311729D01*
X250670Y308397D02*
Y312396D01*
X249337Y311063D01*
X248005Y312396D01*
Y308397D01*
X246672Y311729D02*
X246005Y312396D01*
X244672D01*
X244006Y311729D01*
Y309063D01*
X244672Y308397D01*
X246005D01*
X246672Y309063D01*
Y311729D01*
X234676Y308397D02*
Y312396D01*
X233343Y311063D01*
X232010Y312396D01*
Y308397D01*
X230010D02*
X228677D01*
X228011Y309063D01*
Y310396D01*
X228677Y311063D01*
X230010D01*
X230677Y310396D01*
Y309063D01*
X230010Y308397D01*
X224012Y312396D02*
Y308397D01*
X226012D01*
X226678Y309063D01*
Y310396D01*
X226012Y311063D01*
X224012D01*
X220680Y308397D02*
X222013D01*
X222679Y309063D01*
Y310396D01*
X222013Y311063D01*
X220680D01*
X220013Y310396D01*
Y309730D01*
X222679D01*
X262000Y304531D02*
X261334Y305197D01*
X260001D01*
X259334Y304531D01*
Y301865D01*
X260001Y301199D01*
X261334D01*
X262000Y301865D01*
Y304531D01*
X250004Y301199D02*
X248671D01*
X249337D01*
Y305197D01*
X250004Y304531D01*
X232010D02*
X232676Y305197D01*
X234009D01*
X234676Y304531D01*
Y303864D01*
X234009Y303198D01*
X232676D01*
X232010Y302531D01*
Y301865D01*
X232676Y301199D01*
X234009D01*
X234676Y301865D01*
X230677Y301199D02*
Y305197D01*
X228677D01*
X228011Y304531D01*
Y303198D01*
X228677Y302531D01*
X230677D01*
X226678Y305197D02*
X225345D01*
X226012D01*
Y301199D01*
X226678D01*
X225345D01*
X216681Y305197D02*
X219347D01*
Y303198D01*
X218014D01*
X219347D01*
Y301199D01*
X215348D02*
X214016D01*
X214682D01*
Y305197D01*
X215348D01*
X211350Y303864D02*
X210017D01*
X209350Y303198D01*
Y301199D01*
X211350D01*
X212016Y301865D01*
X211350Y302531D01*
X209350D01*
X208017Y301199D02*
X206018D01*
X205352Y301865D01*
X206018Y302531D01*
X207351D01*
X208017Y303198D01*
X207351Y303864D01*
X205352D01*
X204019Y305197D02*
Y301199D01*
Y303198D01*
X203352Y303864D01*
X202019D01*
X201353Y303198D01*
Y301199D01*
X262000Y294000D02*
X260667D01*
X261334D01*
Y297999D01*
X262000Y297332D01*
X250670Y294000D02*
X249337D01*
X250004D01*
Y297999D01*
X250670Y297332D01*
X232676D02*
X233343Y297999D01*
X234676D01*
X235342Y297332D01*
Y294666D01*
X234676Y294000D01*
X233343D01*
X232676Y294666D01*
X231343Y297999D02*
Y294000D01*
X230010Y295333D01*
X228677Y294000D01*
Y297999D01*
X227344Y295999D02*
X224679D01*
X220680Y297332D02*
X221346Y297999D01*
X222679D01*
X223346Y297332D01*
Y296666D01*
X222679Y295999D01*
X221346D01*
X220680Y295333D01*
Y294666D01*
X221346Y294000D01*
X222679D01*
X223346Y294666D01*
X219347Y294000D02*
Y297999D01*
X217348D01*
X216681Y297332D01*
Y295999D01*
X217348Y295333D01*
X219347D01*
X215348Y297999D02*
X214016D01*
X214682D01*
Y294000D01*
X215348D01*
X214016D01*
X244000Y326500D02*
Y331498D01*
X241501D01*
X240668Y330665D01*
Y328999D01*
X241501Y328166D01*
X244000D01*
X242334D02*
X240668Y326500D01*
X238169D02*
X236502D01*
X235669Y327333D01*
Y328999D01*
X236502Y329832D01*
X238169D01*
X239002Y328999D01*
Y327333D01*
X238169Y326500D01*
X234003Y331498D02*
Y326500D01*
Y328999D01*
X230671D01*
Y331498D01*
Y326500D01*
X225673Y330665D02*
X226506Y331498D01*
X228172D01*
X229005Y330665D01*
Y329832D01*
X228172Y328999D01*
X226506D01*
X225673Y328166D01*
Y327333D01*
X226506Y326500D01*
X228172D01*
X229005Y327333D01*
X219008Y326500D02*
X215676Y329832D01*
X209011Y326500D02*
Y331498D01*
X206512D01*
X205679Y330665D01*
Y328999D01*
X206512Y328166D01*
X209011D01*
X204013Y331498D02*
Y326500D01*
X201514D01*
X200681Y327333D01*
Y328166D01*
X201514Y328999D01*
X204013D01*
X201514D01*
X200681Y329832D01*
Y330665D01*
X201514Y331498D01*
X204013D01*
X199015Y328999D02*
X195682D01*
X190684Y331498D02*
X194016D01*
Y328999D01*
X192350D01*
X194016D01*
Y326500D01*
X189018Y329832D02*
Y326500D01*
Y328166D01*
X188185Y328999D01*
X187352Y329832D01*
X186519D01*
X181520Y326500D02*
X183186D01*
X184019Y327333D01*
Y328999D01*
X183186Y329832D01*
X181520D01*
X180687Y328999D01*
Y328166D01*
X184019D01*
X176522Y326500D02*
X178188D01*
X179021Y327333D01*
Y328999D01*
X178188Y329832D01*
X176522D01*
X175689Y328999D01*
Y328166D01*
X179021D01*
X244000Y335000D02*
Y339998D01*
X240668Y335000D01*
Y339998D01*
X239002Y335000D02*
Y338332D01*
X237335Y339998D01*
X235669Y338332D01*
Y335000D01*
Y337499D01*
X239002D01*
X230671Y339998D02*
X234003D01*
Y335000D01*
X230671D01*
X234003Y337499D02*
X232337D01*
X229005D02*
X225673D01*
X220674Y339165D02*
X221507Y339998D01*
X223173D01*
X224007Y339165D01*
Y335833D01*
X223173Y335000D01*
X221507D01*
X220674Y335833D01*
X219008Y339998D02*
Y335000D01*
X217342Y336666D01*
X215676Y335000D01*
Y339998D01*
X214010Y339165D02*
X213177Y339998D01*
X211510D01*
X210678Y339165D01*
Y338332D01*
X211510Y337499D01*
X212344D01*
X211510D01*
X210678Y336666D01*
Y335833D01*
X211510Y335000D01*
X213177D01*
X214010Y335833D01*
X209011Y339165D02*
X208178Y339998D01*
X206512D01*
X205679Y339165D01*
Y335833D01*
X206512Y335000D01*
X208178D01*
X209011Y335833D01*
Y339165D01*
X204013D02*
X203180Y339998D01*
X201514D01*
X200681Y339165D01*
Y338332D01*
X201514Y337499D01*
X200681Y336666D01*
Y335833D01*
X201514Y335000D01*
X203180D01*
X204013Y335833D01*
Y336666D01*
X203180Y337499D01*
X204013Y338332D01*
Y339165D01*
X203180Y337499D02*
X201514D01*
X199015Y339998D02*
X195682D01*
X197348D01*
Y335000D01*
X194016Y337499D02*
X190684D01*
X185686Y339165D02*
X186519Y339998D01*
X188185D01*
X189018Y339165D01*
Y338332D01*
X188185Y337499D01*
X186519D01*
X185686Y336666D01*
Y335833D01*
X186519Y335000D01*
X188185D01*
X189018Y335833D01*
X180687Y339998D02*
X182353Y339165D01*
X184019Y337499D01*
Y335833D01*
X183186Y335000D01*
X181520D01*
X180687Y335833D01*
Y336666D01*
X181520Y337499D01*
X184019D01*
X179021Y339998D02*
Y335000D01*
X175689D01*
X174023Y339998D02*
X170690Y335000D01*
Y339998D02*
X174023Y335000D01*
X169024Y335833D02*
X168191Y335000D01*
X166525D01*
X165692Y335833D01*
Y339165D01*
X166525Y339998D01*
X168191D01*
X169024Y339165D01*
Y338332D01*
X168191Y337499D01*
X165692D01*
X164026D02*
X160694D01*
X159028Y339165D02*
X158194Y339998D01*
X156528D01*
X155695Y339165D01*
Y335833D01*
X156528Y335000D01*
X158194D01*
X159028Y335833D01*
Y339165D01*
X154029D02*
X153196Y339998D01*
X151530D01*
X150697Y339165D01*
Y338332D01*
X151530Y337499D01*
X152363D01*
X151530D01*
X150697Y336666D01*
Y335833D01*
X151530Y335000D01*
X153196D01*
X154029Y335833D01*
X244000Y344000D02*
Y348998D01*
X240668Y344000D01*
Y348998D01*
X236502Y344000D02*
X238169D01*
X239002Y344833D01*
Y346499D01*
X238169Y347332D01*
X236502D01*
X235669Y346499D01*
Y345666D01*
X239002D01*
X234003Y347332D02*
Y344833D01*
X233170Y344000D01*
X232337Y344833D01*
X231504Y344000D01*
X230671Y344833D01*
Y347332D01*
X229005Y344000D02*
Y347332D01*
X227339Y348998D01*
X225673Y347332D01*
Y344000D01*
Y346499D01*
X229005D01*
X220674Y348998D02*
X224007D01*
Y344000D01*
X220674D01*
X224007Y346499D02*
X222340D01*
X214010Y348998D02*
X210678D01*
X212344D01*
Y344000D01*
X206512D02*
X208178D01*
X209011Y344833D01*
Y346499D01*
X208178Y347332D01*
X206512D01*
X205679Y346499D01*
Y345666D01*
X209011D01*
X200681Y347332D02*
X203180D01*
X204013Y346499D01*
Y344833D01*
X203180Y344000D01*
X200681D01*
X199015Y348998D02*
Y344000D01*
Y346499D01*
X198181Y347332D01*
X196515D01*
X195682Y346499D01*
Y344000D01*
X194016D02*
Y347332D01*
X191517D01*
X190684Y346499D01*
Y344000D01*
X188185D02*
X186519D01*
X185686Y344833D01*
Y346499D01*
X186519Y347332D01*
X188185D01*
X189018Y346499D01*
Y344833D01*
X188185Y344000D01*
X184019D02*
X182353D01*
X183186D01*
Y348998D01*
X184019D01*
X179021Y344000D02*
X177355D01*
X176522Y344833D01*
Y346499D01*
X177355Y347332D01*
X179021D01*
X179854Y346499D01*
Y344833D01*
X179021Y344000D01*
X173190Y342334D02*
X172356D01*
X171523Y343167D01*
Y347332D01*
X174023D01*
X174856Y346499D01*
Y344833D01*
X174023Y344000D01*
X171523D01*
X169857Y347332D02*
Y344833D01*
X169024Y344000D01*
X166525D01*
Y343167D01*
X167358Y342334D01*
X168191D01*
X166525Y344000D02*
Y347332D01*
X159861Y348998D02*
X158194D01*
X159028D01*
Y344000D01*
X159861D01*
X158194D01*
X155695D02*
Y347332D01*
X153196D01*
X152363Y346499D01*
Y344000D01*
X147365Y347332D02*
X149864D01*
X150697Y346499D01*
Y344833D01*
X149864Y344000D01*
X147365D01*
X145698D02*
Y344833D01*
X144866D01*
Y344000D01*
X145698D01*
X126502Y129000D02*
Y125668D01*
Y127334D01*
X131500D01*
X126502Y124002D02*
X131500D01*
Y121502D01*
X130667Y120669D01*
X127335D01*
X126502Y121502D01*
Y124002D01*
Y119003D02*
Y117337D01*
Y118170D01*
X131500D01*
Y119003D01*
Y117337D01*
X136002Y129500D02*
Y126168D01*
Y127834D01*
X141000D01*
X136002Y124502D02*
X141000D01*
Y122002D01*
X140167Y121169D01*
X136835D01*
X136002Y122002D01*
Y124502D01*
Y117004D02*
Y118670D01*
X136835Y119503D01*
X140167D01*
X141000Y118670D01*
Y117004D01*
X140167Y116171D01*
X136835D01*
X136002Y117004D01*
X146502Y129500D02*
Y126168D01*
Y127834D01*
X151500D01*
Y124502D02*
X146502D01*
X148168Y122836D01*
X146502Y121169D01*
X151500D01*
X147335Y116171D02*
X146502Y117004D01*
Y118670D01*
X147335Y119503D01*
X148168D01*
X149001Y118670D01*
Y117004D01*
X149834Y116171D01*
X150667D01*
X151500Y117004D01*
Y118670D01*
X150667Y119503D01*
X156502Y129500D02*
Y126168D01*
Y127834D01*
X161500D01*
X157335Y121169D02*
X156502Y122002D01*
Y123669D01*
X157335Y124502D01*
X160667D01*
X161500Y123669D01*
Y122002D01*
X160667Y121169D01*
X156502Y119503D02*
X161500D01*
X159834D01*
X156502Y116171D01*
X159001Y118670D01*
X161500Y116171D01*
X166002Y130000D02*
X169334D01*
X171000Y128334D01*
X169334Y126668D01*
X166002D01*
X166835Y121669D02*
X166002Y122502D01*
Y124169D01*
X166835Y125002D01*
X170167D01*
X171000Y124169D01*
Y122502D01*
X170167Y121669D01*
X166835Y116671D02*
X166002Y117504D01*
Y119170D01*
X166835Y120003D01*
X170167D01*
X171000Y119170D01*
Y117504D01*
X170167Y116671D01*
X259834Y319999D02*
X262500D01*
Y317999D01*
X261167D01*
X262500D01*
Y316000D01*
X258501D02*
Y319999D01*
X256502D01*
X255836Y319332D01*
Y317999D01*
X256502Y317333D01*
X258501D01*
X251837Y319332D02*
X252503Y319999D01*
X253836D01*
X254503Y319332D01*
Y316666D01*
X253836Y316000D01*
X252503D01*
X251837Y316666D01*
Y317999D01*
X253170D01*
X250504Y316000D02*
Y318666D01*
X249171Y319999D01*
X247838Y318666D01*
Y316000D01*
Y317999D01*
X250504D01*
X239841Y319332D02*
X240507Y319999D01*
X241840D01*
X242506Y319332D01*
Y316666D01*
X241840Y316000D01*
X240507D01*
X239841Y316666D01*
X237841Y316000D02*
X236508D01*
X235842Y316666D01*
Y317999D01*
X236508Y318666D01*
X237841D01*
X238508Y317999D01*
Y316666D01*
X237841Y316000D01*
X234509D02*
Y318666D01*
X232510D01*
X231843Y317999D01*
Y316000D01*
X229844D02*
Y319332D01*
Y317999D01*
X230510D01*
X229177D01*
X229844D01*
Y319332D01*
X229177Y319999D01*
X227178Y316000D02*
X225845D01*
X226512D01*
Y318666D01*
X227178D01*
X222513Y314667D02*
X221847D01*
X221180Y315334D01*
Y318666D01*
X223179D01*
X223846Y317999D01*
Y316666D01*
X223179Y316000D01*
X221180D01*
X219847D02*
Y316666D01*
X219181D01*
Y316000D01*
X219847D01*
X227334Y267332D02*
X228001Y267999D01*
X229334D01*
X230000Y267332D01*
Y266666D01*
X229334Y265999D01*
X228001D01*
X227334Y265333D01*
Y264666D01*
X228001Y264000D01*
X229334D01*
X230000Y264666D01*
X226001Y264000D02*
Y267999D01*
X224002D01*
X223336Y267332D01*
Y265999D01*
X224002Y265333D01*
X226001D01*
X222003Y267999D02*
X220670D01*
X221336D01*
Y264000D01*
X222003D01*
X220670D01*
X212006Y267999D02*
X214672D01*
Y265999D01*
X213339D01*
X214672D01*
Y264000D01*
X210673D02*
X209340D01*
X210006D01*
Y267999D01*
X210673D01*
X206674Y266666D02*
X205341D01*
X204675Y265999D01*
Y264000D01*
X206674D01*
X207341Y264666D01*
X206674Y265333D01*
X204675D01*
X203342Y264000D02*
X201343D01*
X200676Y264666D01*
X201343Y265333D01*
X202676D01*
X203342Y265999D01*
X202676Y266666D01*
X200676D01*
X199343Y267999D02*
Y264000D01*
Y265999D01*
X198677Y266666D01*
X197344D01*
X196677Y265999D01*
Y264000D01*
X191346D02*
Y267999D01*
X189347D01*
X188680Y267332D01*
Y265999D01*
X189347Y265333D01*
X191346D01*
X186681Y266666D02*
X185348D01*
X184681Y265999D01*
Y264000D01*
X186681D01*
X187347Y264666D01*
X186681Y265333D01*
X184681D01*
X183348Y266666D02*
Y264000D01*
Y265333D01*
X182682Y265999D01*
X182016Y266666D01*
X181349D01*
X178683Y267332D02*
Y266666D01*
X179350D01*
X178017D01*
X178683D01*
Y264666D01*
X178017Y264000D01*
X176017D02*
X174018D01*
X173352Y264666D01*
X174018Y265333D01*
X175351D01*
X176017Y265999D01*
X175351Y266666D01*
X173352D01*
X211000Y257500D02*
Y261999D01*
X208751D01*
X208001Y261249D01*
Y259749D01*
X208751Y258999D01*
X211000D01*
X209501D02*
X208001Y257500D01*
X203502D02*
X206502D01*
X203502Y260499D01*
Y261249D01*
X204252Y261999D01*
X205752D01*
X206502Y261249D01*
X195000Y255499D02*
Y251750D01*
X194250Y251000D01*
X192751D01*
X192001Y251750D01*
Y255499D01*
X187502Y251000D02*
X190501D01*
X187502Y253999D01*
Y254749D01*
X188252Y255499D01*
X189752D01*
X190501Y254749D01*
X208501Y218249D02*
X209251Y218999D01*
X210750D01*
X211500Y218249D01*
Y215250D01*
X210750Y214500D01*
X209251D01*
X208501Y215250D01*
X207001Y214500D02*
X205502D01*
X206252D01*
Y218999D01*
X207001Y218249D01*
X203253Y218999D02*
X200254D01*
Y218249D01*
X203253Y215250D01*
Y214500D01*
D14*
X200594Y220744D02*
Y226256D01*
X212405Y220744D02*
Y226256D01*
X200594Y220744D02*
X212405D01*
X200594Y226256D02*
X212405D01*
X201095Y250244D02*
Y255756D01*
X212906Y250244D02*
Y255756D01*
X201095Y250244D02*
X212906D01*
X201095Y255756D02*
X212906D01*
M02*
