G04*
G04 #@! TF.GenerationSoftware,Altium Limited,Altium Designer,18.1.9 (240)*
G04*
G04 Layer_Physical_Order=2*
G04 Layer_Color=32768*
%FSLAX25Y25*%
%MOIN*%
G70*
G01*
G75*
%ADD54C,0.04000*%
%ADD55C,0.17400*%
%ADD56C,0.07500*%
G04:AMPARAMS|DCode=57|XSize=95mil|YSize=95mil|CornerRadius=0mil|HoleSize=0mil|Usage=FLASHONLY|Rotation=0.000|XOffset=0mil|YOffset=0mil|HoleType=Round|Shape=Relief|Width=10mil|Gap=10mil|Entries=4|*
%AMTHD57*
7,0,0,0.09500,0.07500,0.01000,45*
%
%ADD57THD57*%
G04:AMPARAMS|DCode=58|XSize=72mil|YSize=72mil|CornerRadius=0mil|HoleSize=0mil|Usage=FLASHONLY|Rotation=0.000|XOffset=0mil|YOffset=0mil|HoleType=Round|Shape=Relief|Width=10mil|Gap=10mil|Entries=4|*
%AMTHD58*
7,0,0,0.07200,0.05200,0.01000,45*
%
%ADD58THD58*%
%ADD59C,0.05200*%
G36*
X193053Y120300D02*
X175800D01*
Y124016D01*
X193053D01*
Y120300D01*
D02*
G37*
%LPC*%
G36*
X184152Y123816D02*
Y121062D01*
X182778D01*
X183252Y121511D01*
X183318Y121578D01*
X183382Y121639D01*
X183437Y121694D01*
X183487Y121747D01*
X183529Y121788D01*
X183545Y121805D01*
X183559Y121818D01*
X183570Y121830D01*
X183579Y121838D01*
X183581Y121844D01*
X183584Y121846D01*
X183637Y121907D01*
X183684Y121965D01*
X183726Y122018D01*
X183762Y122068D01*
X183792Y122109D01*
X183803Y122126D01*
X183814Y122140D01*
X183820Y122151D01*
X183825Y122159D01*
X183831Y122165D01*
Y122168D01*
X183867Y122229D01*
X183897Y122287D01*
X183922Y122342D01*
X183944Y122392D01*
X183961Y122433D01*
X183969Y122450D01*
X183975Y122467D01*
X183978Y122478D01*
X183980Y122486D01*
X183983Y122492D01*
Y122494D01*
X184000Y122558D01*
X184014Y122622D01*
X184022Y122686D01*
X184030Y122741D01*
X184033Y122788D01*
Y122810D01*
X184036Y122827D01*
Y122841D01*
Y122852D01*
Y122857D01*
Y122860D01*
X184033Y122946D01*
X184025Y123023D01*
X184011Y123093D01*
X183997Y123154D01*
X183989Y123181D01*
X183983Y123204D01*
X183978Y123223D01*
X183969Y123242D01*
X183967Y123253D01*
X183961Y123265D01*
X183958Y123270D01*
Y123273D01*
X183928Y123337D01*
X183895Y123395D01*
X183859Y123447D01*
X183823Y123489D01*
X183792Y123525D01*
X183767Y123550D01*
X183750Y123566D01*
X183748Y123572D01*
X183745D01*
X183689Y123614D01*
X183634Y123650D01*
X183579Y123680D01*
X183526Y123708D01*
X183479Y123727D01*
X183460Y123735D01*
X183443Y123741D01*
X183429Y123746D01*
X183418Y123749D01*
X183413Y123752D01*
X183410D01*
X183335Y123774D01*
X183260Y123788D01*
X183188Y123799D01*
X183122Y123807D01*
X183091Y123810D01*
X183063Y123813D01*
X183039D01*
X183019Y123816D01*
X182920D01*
X182864Y123810D01*
X182756Y123796D01*
X182706Y123788D01*
X182659Y123777D01*
X182615Y123769D01*
X182573Y123758D01*
X182534Y123746D01*
X182501Y123735D01*
X182474Y123724D01*
X182449Y123716D01*
X182429Y123708D01*
X182413Y123702D01*
X182404Y123699D01*
X182402Y123697D01*
X182305Y123650D01*
X182216Y123597D01*
X182133Y123544D01*
X182097Y123519D01*
X182063Y123494D01*
X182033Y123472D01*
X182005Y123450D01*
X181983Y123431D01*
X181961Y123414D01*
X181947Y123400D01*
X181933Y123389D01*
X181928Y123384D01*
X181925Y123381D01*
X182246Y122968D01*
X182302Y123018D01*
X182357Y123062D01*
X182410Y123098D01*
X182457Y123132D01*
X182498Y123156D01*
X182515Y123168D01*
X182529Y123176D01*
X182540Y123181D01*
X182548Y123187D01*
X182554Y123190D01*
X182557D01*
X182620Y123217D01*
X182684Y123240D01*
X182742Y123253D01*
X182798Y123265D01*
X182845Y123270D01*
X182864Y123273D01*
X182881Y123275D01*
X182914D01*
X182956Y123273D01*
X182992Y123270D01*
X183025Y123265D01*
X183055Y123256D01*
X183077Y123248D01*
X183097Y123242D01*
X183108Y123240D01*
X183111Y123237D01*
X183141Y123223D01*
X183171Y123206D01*
X183196Y123190D01*
X183219Y123176D01*
X183235Y123162D01*
X183246Y123151D01*
X183255Y123143D01*
X183257Y123140D01*
X183296Y123093D01*
X183310Y123068D01*
X183324Y123046D01*
X183332Y123026D01*
X183341Y123010D01*
X183346Y122998D01*
Y122996D01*
X183357Y122965D01*
X183363Y122932D01*
X183368Y122904D01*
X183374Y122877D01*
Y122852D01*
X183377Y122835D01*
Y122824D01*
Y122819D01*
Y122777D01*
X183374Y122738D01*
X183368Y122702D01*
X183365Y122669D01*
X183360Y122641D01*
X183354Y122622D01*
X183352Y122608D01*
Y122602D01*
X183341Y122564D01*
X183327Y122522D01*
X183313Y122483D01*
X183296Y122447D01*
X183282Y122417D01*
X183268Y122395D01*
X183260Y122378D01*
X183257Y122375D01*
Y122372D01*
X183230Y122325D01*
X183196Y122278D01*
X183163Y122231D01*
X183130Y122187D01*
X183102Y122148D01*
X183077Y122120D01*
X183069Y122109D01*
X183061Y122101D01*
X183058Y122096D01*
X183055Y122093D01*
X183003Y122032D01*
X182947Y121968D01*
X182889Y121904D01*
X182834Y121846D01*
X182784Y121796D01*
X182764Y121774D01*
X182745Y121755D01*
X182731Y121741D01*
X182717Y121727D01*
X182712Y121722D01*
X182709Y121719D01*
X181939Y120949D01*
Y120500D01*
X181925D01*
X184152D01*
Y123816D01*
D02*
G37*
%LPD*%
D54*
X100500Y100000D02*
X306500D01*
Y354000D01*
X100500D02*
X306500D01*
X100500Y100000D02*
Y354000D01*
D55*
X198500Y138000D02*
D03*
X128500Y338000D02*
D03*
X278500D02*
D03*
D56*
X108500Y318000D02*
D03*
Y298000D02*
D03*
Y278000D02*
D03*
Y258000D02*
D03*
Y248000D02*
D03*
Y238000D02*
D03*
Y228000D02*
D03*
Y218000D02*
D03*
Y208000D02*
D03*
Y198000D02*
D03*
Y188000D02*
D03*
Y158000D02*
D03*
Y148000D02*
D03*
Y138000D02*
D03*
Y128000D02*
D03*
X118500Y108000D02*
D03*
X128500D02*
D03*
X138500D02*
D03*
X148500D02*
D03*
X158500D02*
D03*
X168500D02*
D03*
X178500D02*
D03*
X208500D02*
D03*
X218500D02*
D03*
X228500D02*
D03*
X238500D02*
D03*
X248500D02*
D03*
X258500D02*
D03*
X268500D02*
D03*
X278500D02*
D03*
X288500D02*
D03*
X298500D02*
D03*
Y318000D02*
D03*
Y308000D02*
D03*
Y298000D02*
D03*
Y288000D02*
D03*
Y278000D02*
D03*
Y268000D02*
D03*
Y258000D02*
D03*
Y248000D02*
D03*
Y238000D02*
D03*
Y228000D02*
D03*
Y218000D02*
D03*
Y208000D02*
D03*
Y198000D02*
D03*
Y188000D02*
D03*
Y178000D02*
D03*
Y168000D02*
D03*
Y158000D02*
D03*
Y148000D02*
D03*
Y138000D02*
D03*
Y128000D02*
D03*
D57*
X108500Y308000D02*
D03*
Y288000D02*
D03*
Y268000D02*
D03*
Y178000D02*
D03*
Y168000D02*
D03*
Y108000D02*
D03*
X188500D02*
D03*
X198500D02*
D03*
D58*
X122000Y264000D02*
D03*
X284000Y167500D02*
D03*
X263756Y225256D02*
D03*
X268500Y230000D02*
D03*
X179256Y174744D02*
D03*
X174000Y170500D02*
D03*
X174425Y269925D02*
D03*
X167500Y268000D02*
D03*
X211827Y270327D02*
D03*
X234705Y248295D02*
D03*
X234673Y224673D02*
D03*
X235512Y204988D02*
D03*
X219701Y201201D02*
D03*
X207890Y201110D02*
D03*
X174425Y201075D02*
D03*
X167000Y201500D02*
D03*
X167984Y234516D02*
D03*
X167575Y262075D02*
D03*
X168000Y225000D02*
D03*
X138500Y206500D02*
D03*
X134000Y211000D02*
D03*
Y236000D02*
D03*
Y244500D02*
D03*
X138500Y240000D02*
D03*
X179500Y296000D02*
D03*
X196500D02*
D03*
X209500Y300500D02*
D03*
X201000D02*
D03*
X225500Y300000D02*
D03*
X242500Y309500D02*
D03*
X249500D02*
D03*
X273500D02*
D03*
X266500D02*
D03*
X238000Y305500D02*
D03*
X278000D02*
D03*
X269000Y254500D02*
D03*
Y238500D02*
D03*
X265000Y243000D02*
D03*
Y250000D02*
D03*
Y259000D02*
D03*
X269000Y207000D02*
D03*
X264500Y202500D02*
D03*
Y211500D02*
D03*
X214000Y223500D02*
D03*
X222000Y230500D02*
D03*
X201500Y270000D02*
D03*
X204500Y170000D02*
D03*
X209000Y174000D02*
D03*
X192000Y170000D02*
D03*
X187500Y174000D02*
D03*
X198000D02*
D03*
X188500Y296000D02*
D03*
X191000Y342500D02*
D03*
X166000D02*
D03*
X230000Y295500D02*
D03*
X220500D02*
D03*
X214000Y296000D02*
D03*
X246000Y173500D02*
D03*
D59*
X140500Y264000D02*
D03*
X266500Y167500D02*
D03*
X258244Y225244D02*
D03*
X174000Y184500D02*
D03*
X179256Y180256D02*
D03*
X241500Y279000D02*
D03*
X160000Y284500D02*
D03*
X179654Y289154D02*
D03*
X145500Y206500D02*
D03*
X159500Y300500D02*
D03*
X260500Y278500D02*
D03*
X269000Y192000D02*
D03*
X164500Y124000D02*
D03*
X145500Y215500D02*
D03*
X145000Y231500D02*
D03*
X205500Y245500D02*
D03*
Y240500D02*
D03*
X258500Y243000D02*
D03*
X167358Y244358D02*
D03*
X257500Y211500D02*
D03*
Y202500D02*
D03*
X187500Y181000D02*
D03*
X196500D02*
D03*
Y289000D02*
D03*
X188500D02*
D03*
X278000Y299500D02*
D03*
X282000D02*
D03*
X286000D02*
D03*
X216500Y270000D02*
D03*
X219000Y267500D02*
D03*
X222500Y266500D02*
D03*
X226500Y269500D02*
D03*
X234000Y269000D02*
D03*
X249500Y272500D02*
D03*
X251500Y260500D02*
D03*
X248500Y258000D02*
D03*
X234500Y260000D02*
D03*
X250000Y266500D02*
D03*
X217500Y186500D02*
D03*
X209000Y186000D02*
D03*
X166000Y314500D02*
D03*
X191000D02*
D03*
X230000Y289000D02*
D03*
X281500Y149500D02*
D03*
X278000Y153500D02*
D03*
X273500Y154500D02*
D03*
X229500Y263000D02*
D03*
X228000Y266500D02*
D03*
X235000Y229000D02*
D03*
X223000Y240000D02*
D03*
X153500Y264000D02*
D03*
X222000Y244000D02*
D03*
X263000Y294500D02*
D03*
X266500Y157000D02*
D03*
X246000Y154000D02*
D03*
X168500Y220500D02*
D03*
Y216799D02*
D03*
X170500Y210000D02*
D03*
X218000Y206000D02*
D03*
X136000Y148000D02*
D03*
X135000Y136000D02*
D03*
X119000Y164500D02*
D03*
M02*
