G04*
G04 #@! TF.GenerationSoftware,Altium Limited,Altium Designer,18.1.7 (191)*
G04*
G04 Layer_Color=32896*
%FSLAX25Y25*%
%MOIN*%
G70*
G01*
G75*
%ADD12C,0.01000*%
%ADD14C,0.00800*%
G36*
X158539Y193262D02*
X159944D01*
Y192911D01*
X160997D01*
Y192560D01*
X161700D01*
Y192209D01*
X162402D01*
Y191857D01*
X163104D01*
Y191506D01*
X163807D01*
Y191155D01*
X164158D01*
Y190804D01*
X164509D01*
Y190453D01*
X165211D01*
Y190102D01*
X165562D01*
Y189750D01*
X165913D01*
Y189399D01*
X166265D01*
Y189048D01*
X166616D01*
Y188697D01*
Y188346D01*
X166967D01*
Y187995D01*
X167318D01*
Y187644D01*
X167669D01*
Y187292D01*
Y186941D01*
X168020D01*
Y186590D01*
Y186239D01*
X168372D01*
Y185888D01*
Y185537D01*
X168723D01*
Y185185D01*
Y184834D01*
X169074D01*
Y184483D01*
Y184132D01*
Y183781D01*
Y183430D01*
X169425D01*
Y183078D01*
Y182727D01*
Y182376D01*
Y182025D01*
Y181674D01*
X169776D01*
Y181323D01*
Y180972D01*
Y180620D01*
Y180269D01*
Y179918D01*
Y179567D01*
Y179216D01*
Y178865D01*
Y178513D01*
Y178162D01*
X169425D01*
Y177811D01*
Y177460D01*
Y177109D01*
Y176758D01*
Y176406D01*
X169074D01*
Y176055D01*
Y175704D01*
Y175353D01*
X168723D01*
Y175002D01*
Y174651D01*
Y174300D01*
X168372D01*
Y173948D01*
Y173597D01*
X168020D01*
Y173246D01*
Y172895D01*
X167669D01*
Y172544D01*
X167318D01*
Y172193D01*
Y171841D01*
X166967D01*
Y171490D01*
X166616D01*
Y171139D01*
X166265D01*
Y170788D01*
Y170437D01*
X165913D01*
Y170086D01*
X165562D01*
Y169734D01*
X165211D01*
Y169383D01*
X164860D01*
Y169032D01*
X164509D01*
Y168681D01*
X164158D01*
Y168330D01*
X163807D01*
Y167979D01*
Y167627D01*
X163455D01*
Y167276D01*
X163104D01*
Y166925D01*
X162753D01*
Y166574D01*
X162402D01*
Y166223D01*
Y165872D01*
X162051D01*
Y165521D01*
X161700D01*
Y165169D01*
Y164818D01*
X161348D01*
Y164467D01*
X160997D01*
Y164116D01*
X160646D01*
Y163765D01*
Y163414D01*
X160295D01*
Y163062D01*
X159944D01*
Y162711D01*
Y162360D01*
X159593D01*
Y162009D01*
X159241D01*
Y161658D01*
Y161307D01*
X158890D01*
Y160955D01*
X158539D01*
Y160604D01*
Y160253D01*
X158188D01*
Y159902D01*
Y159551D01*
X157837D01*
Y159200D01*
X157486D01*
Y158849D01*
Y158497D01*
X157135D01*
Y158146D01*
Y157795D01*
X156783D01*
Y157444D01*
Y157093D01*
X156432D01*
Y156741D01*
X156081D01*
Y156390D01*
Y156039D01*
X155730D01*
Y155688D01*
Y155337D01*
X155379D01*
Y154986D01*
Y154635D01*
X155028D01*
Y154283D01*
Y153932D01*
Y153581D01*
X154676D01*
Y153230D01*
Y152879D01*
X154325D01*
Y152528D01*
Y152176D01*
X153974D01*
Y151825D01*
Y151474D01*
Y151123D01*
X153623D01*
Y150772D01*
Y150421D01*
X153272D01*
Y150069D01*
Y149718D01*
X152921D01*
Y149367D01*
Y149016D01*
Y148665D01*
X152569D01*
Y148314D01*
Y147963D01*
X152218D01*
Y147611D01*
Y147260D01*
Y146909D01*
Y146558D01*
X151867D01*
Y146207D01*
Y145856D01*
X151516D01*
Y145504D01*
Y145153D01*
Y144802D01*
Y144451D01*
X151165D01*
Y144100D01*
Y143749D01*
Y143397D01*
Y143046D01*
X150814D01*
Y142695D01*
Y142344D01*
Y141993D01*
X150463D01*
Y141642D01*
Y141290D01*
Y140939D01*
Y140588D01*
Y140237D01*
X150111D01*
Y139886D01*
Y139535D01*
Y139184D01*
Y138832D01*
Y138481D01*
Y138130D01*
Y137779D01*
X149760D01*
Y137428D01*
Y137077D01*
Y136725D01*
Y136374D01*
Y136023D01*
Y135672D01*
Y135321D01*
Y134970D01*
X149409D01*
Y134618D01*
Y134267D01*
Y133916D01*
Y133565D01*
Y133214D01*
Y132863D01*
Y132512D01*
Y132160D01*
Y131809D01*
Y131458D01*
Y131107D01*
Y130756D01*
Y130405D01*
Y130053D01*
Y129702D01*
Y129351D01*
Y129000D01*
Y128649D01*
X149760D01*
Y128298D01*
Y127946D01*
Y127595D01*
Y127244D01*
Y126893D01*
Y126542D01*
Y126191D01*
Y125840D01*
Y125488D01*
X150111D01*
Y125137D01*
Y124786D01*
Y124435D01*
Y124084D01*
Y123733D01*
X150463D01*
Y123381D01*
Y123030D01*
Y122679D01*
Y122328D01*
X150814D01*
Y121977D01*
Y121626D01*
Y121274D01*
Y120923D01*
X151165D01*
Y120572D01*
Y120221D01*
Y119870D01*
X151516D01*
Y119519D01*
Y119168D01*
Y118816D01*
Y118465D01*
X151867D01*
Y118114D01*
Y117763D01*
X152218D01*
Y117412D01*
Y117061D01*
Y116709D01*
X152569D01*
Y116358D01*
Y116007D01*
X152921D01*
Y115656D01*
Y115305D01*
Y114954D01*
X153272D01*
Y114602D01*
Y114251D01*
X153623D01*
Y113900D01*
Y113549D01*
X153974D01*
Y113198D01*
Y112847D01*
X154325D01*
Y112496D01*
X154676D01*
Y112144D01*
Y111793D01*
X155028D01*
Y111442D01*
Y111091D01*
X155379D01*
Y110740D01*
Y110389D01*
X155730D01*
Y110037D01*
Y109686D01*
X156081D01*
Y109335D01*
X156432D01*
Y108984D01*
Y108633D01*
X156783D01*
Y108282D01*
X157135D01*
Y107931D01*
Y107579D01*
X157486D01*
Y107228D01*
X157837D01*
Y106877D01*
Y106526D01*
X158188D01*
Y106175D01*
X158539D01*
Y105824D01*
Y105472D01*
X158890D01*
Y105121D01*
X159241D01*
Y104770D01*
X159593D01*
Y104419D01*
X159944D01*
Y104068D01*
Y103717D01*
X160295D01*
Y103365D01*
Y103014D01*
X160646D01*
Y102663D01*
Y102312D01*
X160997D01*
Y101961D01*
Y101610D01*
X161348D01*
Y101259D01*
Y100907D01*
X161700D01*
Y100556D01*
Y100205D01*
Y99854D01*
Y99503D01*
X162051D01*
Y99151D01*
Y98800D01*
Y98449D01*
Y98098D01*
Y97747D01*
Y97396D01*
Y97045D01*
Y96693D01*
X162402D01*
Y96342D01*
Y95991D01*
X162051D01*
Y95640D01*
Y95289D01*
Y94938D01*
Y94586D01*
Y94235D01*
Y93884D01*
Y93533D01*
Y93182D01*
X161700D01*
Y92831D01*
Y92479D01*
Y92128D01*
X161348D01*
Y91777D01*
Y91426D01*
Y91075D01*
X160997D01*
Y90724D01*
Y90373D01*
X160646D01*
Y90021D01*
Y89670D01*
X160295D01*
Y89319D01*
Y88968D01*
X159944D01*
Y88617D01*
X159593D01*
Y88266D01*
Y87914D01*
X159241D01*
Y87563D01*
X158890D01*
Y87212D01*
X158539D01*
Y86861D01*
X158188D01*
Y86510D01*
X157837D01*
Y86159D01*
X157486D01*
Y85808D01*
X157135D01*
Y85456D01*
X156432D01*
Y85105D01*
X156081D01*
Y84754D01*
X155379D01*
Y84403D01*
X155028D01*
Y84052D01*
X154325D01*
Y83701D01*
X153272D01*
Y83349D01*
X152218D01*
Y82998D01*
X150463D01*
Y82647D01*
X146600D01*
Y82998D01*
X144844D01*
Y83349D01*
X143791D01*
Y83701D01*
X143088D01*
Y84052D01*
X142386D01*
Y84403D01*
X141684D01*
Y84754D01*
X140981D01*
Y85105D01*
X140630D01*
Y85456D01*
X139928D01*
Y85808D01*
X139577D01*
Y86159D01*
X139225D01*
Y86510D01*
X138874D01*
Y86861D01*
X138523D01*
Y87212D01*
X138172D01*
Y87563D01*
X137821D01*
Y87914D01*
X137470D01*
Y88266D01*
Y88617D01*
X137118D01*
Y88968D01*
X136767D01*
Y89319D01*
Y89670D01*
X136416D01*
Y90021D01*
X136065D01*
Y90373D01*
X135714D01*
Y90724D01*
Y91075D01*
X135363D01*
Y91426D01*
X135012D01*
Y91777D01*
Y92128D01*
X134660D01*
Y92479D01*
X134309D01*
Y92831D01*
Y93182D01*
X133958D01*
Y93533D01*
X133607D01*
Y93884D01*
Y94235D01*
X133256D01*
Y94586D01*
Y94938D01*
X132905D01*
Y95289D01*
X132554D01*
Y95640D01*
X132202D01*
Y95991D01*
Y96342D01*
X131851D01*
Y96693D01*
Y97045D01*
X131500D01*
Y97396D01*
Y97747D01*
X131149D01*
Y98098D01*
X130798D01*
Y98449D01*
Y98800D01*
X130447D01*
Y99151D01*
Y99503D01*
X130095D01*
Y99854D01*
Y100205D01*
X129744D01*
Y100556D01*
Y100907D01*
X129393D01*
Y101259D01*
Y101610D01*
X129042D01*
Y101961D01*
Y102312D01*
X128691D01*
Y102663D01*
Y103014D01*
X128340D01*
Y103365D01*
Y103717D01*
Y104068D01*
X127988D01*
Y104419D01*
Y104770D01*
X127637D01*
Y105121D01*
X125530D01*
Y104770D01*
Y104419D01*
X125179D01*
Y104068D01*
X124828D01*
Y103717D01*
Y103365D01*
Y103014D01*
X124477D01*
Y102663D01*
Y102312D01*
X124126D01*
Y101961D01*
Y101610D01*
X123775D01*
Y101259D01*
Y100907D01*
X123423D01*
Y100556D01*
Y100205D01*
X123072D01*
Y99854D01*
Y99503D01*
X122721D01*
Y99151D01*
Y98800D01*
X122370D01*
Y98449D01*
Y98098D01*
X122019D01*
Y97747D01*
X121668D01*
Y97396D01*
Y97045D01*
X121316D01*
Y96693D01*
Y96342D01*
X120965D01*
Y95991D01*
Y95640D01*
X120614D01*
Y95289D01*
X120263D01*
Y94938D01*
Y94586D01*
X119912D01*
Y94235D01*
Y93884D01*
X119561D01*
Y93533D01*
X119209D01*
Y93182D01*
Y92831D01*
X118858D01*
Y92479D01*
X118507D01*
Y92128D01*
X118156D01*
Y91777D01*
Y91426D01*
X117805D01*
Y91075D01*
Y90724D01*
X117454D01*
Y90373D01*
X117103D01*
Y90021D01*
X116751D01*
Y89670D01*
Y89319D01*
X116400D01*
Y88968D01*
X116049D01*
Y88617D01*
Y88266D01*
X115698D01*
Y87914D01*
X115347D01*
Y87563D01*
X114996D01*
Y87212D01*
X114644D01*
Y86861D01*
X114293D01*
Y86510D01*
X113942D01*
Y86159D01*
X113591D01*
Y85808D01*
X113240D01*
Y85456D01*
X112889D01*
Y85105D01*
X112186D01*
Y84754D01*
X111835D01*
Y84403D01*
X111133D01*
Y84052D01*
X110431D01*
Y83701D01*
X109728D01*
Y83349D01*
X108675D01*
Y82998D01*
X106919D01*
Y82647D01*
X102354D01*
Y82998D01*
X100598D01*
Y83349D01*
X99896D01*
Y83701D01*
X98842D01*
Y84052D01*
X98140D01*
Y84403D01*
X97438D01*
Y84754D01*
X97087D01*
Y85105D01*
X96384D01*
Y85456D01*
X96033D01*
Y85808D01*
X95682D01*
Y86159D01*
X95331D01*
Y86510D01*
X94980D01*
Y86861D01*
X94628D01*
Y87212D01*
X94277D01*
Y87563D01*
X93926D01*
Y87914D01*
X93575D01*
Y88266D01*
Y88617D01*
X93224D01*
Y88968D01*
X92873D01*
Y89319D01*
Y89670D01*
X92521D01*
Y90021D01*
Y90373D01*
X92170D01*
Y90724D01*
Y91075D01*
X91819D01*
Y91426D01*
Y91777D01*
Y92128D01*
X91468D01*
Y92479D01*
Y92831D01*
Y93182D01*
X91117D01*
Y93533D01*
Y93884D01*
Y94235D01*
Y94586D01*
Y94938D01*
Y95289D01*
Y95640D01*
Y95991D01*
X90766D01*
Y96342D01*
Y96693D01*
X91117D01*
Y97045D01*
Y97396D01*
Y97747D01*
Y98098D01*
Y98449D01*
Y98800D01*
Y99151D01*
X91468D01*
Y99503D01*
Y99854D01*
Y100205D01*
Y100556D01*
X91819D01*
Y100907D01*
Y101259D01*
Y101610D01*
X92170D01*
Y101961D01*
Y102312D01*
X92521D01*
Y102663D01*
Y103014D01*
X92873D01*
Y103365D01*
Y103717D01*
X93224D01*
Y104068D01*
X93575D01*
Y104419D01*
Y104770D01*
X93926D01*
Y105121D01*
X94277D01*
Y105472D01*
X94628D01*
Y105824D01*
Y106175D01*
X94980D01*
Y106526D01*
X95331D01*
Y106877D01*
X95682D01*
Y107228D01*
Y107579D01*
X96033D01*
Y107931D01*
X96384D01*
Y108282D01*
Y108633D01*
X96735D01*
Y108984D01*
X97087D01*
Y109335D01*
Y109686D01*
X97438D01*
Y110037D01*
Y110389D01*
X97789D01*
Y110740D01*
X98140D01*
Y111091D01*
Y111442D01*
X98491D01*
Y111793D01*
Y112144D01*
X98842D01*
Y112496D01*
Y112847D01*
X99193D01*
Y113198D01*
Y113549D01*
X99545D01*
Y113900D01*
Y114251D01*
X99896D01*
Y114602D01*
Y114954D01*
X100247D01*
Y115305D01*
Y115656D01*
Y116007D01*
X100598D01*
Y116358D01*
Y116709D01*
X100949D01*
Y117061D01*
Y117412D01*
X101300D01*
Y117763D01*
Y118114D01*
Y118465D01*
X101652D01*
Y118816D01*
Y119168D01*
Y119519D01*
X102003D01*
Y119870D01*
Y120221D01*
Y120572D01*
X102354D01*
Y120923D01*
Y121274D01*
Y121626D01*
Y121977D01*
X102705D01*
Y122328D01*
Y122679D01*
Y123030D01*
Y123381D01*
X103056D01*
Y123733D01*
Y124084D01*
Y124435D01*
Y124786D01*
Y125137D01*
X103407D01*
Y125488D01*
Y125840D01*
Y126191D01*
Y126542D01*
Y126893D01*
Y127244D01*
Y127595D01*
Y127946D01*
Y128298D01*
X103759D01*
Y128649D01*
Y129000D01*
Y129351D01*
Y129702D01*
Y130053D01*
Y130405D01*
Y130756D01*
Y131107D01*
Y131458D01*
Y131809D01*
Y132160D01*
Y132512D01*
Y132863D01*
Y133214D01*
Y133565D01*
Y133916D01*
Y134267D01*
Y134618D01*
Y134970D01*
Y135321D01*
Y135672D01*
X103407D01*
Y136023D01*
Y136374D01*
Y136725D01*
Y137077D01*
Y137428D01*
Y137779D01*
Y138130D01*
X103056D01*
Y138481D01*
Y138832D01*
Y139184D01*
Y139535D01*
Y139886D01*
Y140237D01*
X102705D01*
Y140588D01*
Y140939D01*
Y141290D01*
Y141642D01*
Y141993D01*
X102354D01*
Y142344D01*
Y142695D01*
Y143046D01*
X102003D01*
Y143397D01*
Y143749D01*
Y144100D01*
Y144451D01*
X101652D01*
Y144802D01*
Y145153D01*
Y145504D01*
Y145856D01*
X101300D01*
Y146207D01*
Y146558D01*
X100949D01*
Y146909D01*
Y147260D01*
Y147611D01*
Y147963D01*
X100598D01*
Y148314D01*
Y148665D01*
X100247D01*
Y149016D01*
Y149367D01*
Y149718D01*
X99896D01*
Y150069D01*
Y150421D01*
X99545D01*
Y150772D01*
Y151123D01*
X99193D01*
Y151474D01*
Y151825D01*
Y152176D01*
X98842D01*
Y152528D01*
Y152879D01*
X98491D01*
Y153230D01*
Y153581D01*
X98140D01*
Y153932D01*
Y154283D01*
Y154635D01*
X97789D01*
Y154986D01*
Y155337D01*
X97438D01*
Y155688D01*
Y156039D01*
X97087D01*
Y156390D01*
Y156741D01*
X96735D01*
Y157093D01*
X96384D01*
Y157444D01*
Y157795D01*
X96033D01*
Y158146D01*
Y158497D01*
X95682D01*
Y158849D01*
Y159200D01*
X95331D01*
Y159551D01*
X94980D01*
Y159902D01*
Y160253D01*
X94628D01*
Y160604D01*
Y160955D01*
X94277D01*
Y161307D01*
X93926D01*
Y161658D01*
Y162009D01*
X93575D01*
Y162360D01*
X93224D01*
Y162711D01*
Y163062D01*
X92873D01*
Y163414D01*
X92521D01*
Y163765D01*
Y164116D01*
X92170D01*
Y164467D01*
X91819D01*
Y164818D01*
X91468D01*
Y165169D01*
Y165521D01*
X91117D01*
Y165872D01*
X90766D01*
Y166223D01*
Y166574D01*
X90414D01*
Y166925D01*
X90063D01*
Y167276D01*
X89712D01*
Y167627D01*
X89361D01*
Y167979D01*
Y168330D01*
X89010D01*
Y168681D01*
X88659D01*
Y169032D01*
X88307D01*
Y169383D01*
X87956D01*
Y169734D01*
X87605D01*
Y170086D01*
X87254D01*
Y170437D01*
X86903D01*
Y170788D01*
Y171139D01*
X86552D01*
Y171490D01*
X86200D01*
Y171841D01*
X85849D01*
Y172193D01*
Y172544D01*
X85498D01*
Y172895D01*
X85147D01*
Y173246D01*
Y173597D01*
X84796D01*
Y173948D01*
Y174300D01*
X84445D01*
Y174651D01*
Y175002D01*
Y175353D01*
X84094D01*
Y175704D01*
Y176055D01*
Y176406D01*
X83742D01*
Y176758D01*
Y177109D01*
Y177460D01*
Y177811D01*
Y178162D01*
X83391D01*
Y178513D01*
Y178865D01*
Y179216D01*
Y179567D01*
Y179918D01*
Y180269D01*
Y180620D01*
Y180972D01*
Y181323D01*
Y181674D01*
X83742D01*
Y182025D01*
Y182376D01*
Y182727D01*
Y183078D01*
Y183430D01*
X84094D01*
Y183781D01*
Y184132D01*
Y184483D01*
X84445D01*
Y184834D01*
Y185185D01*
Y185537D01*
X84796D01*
Y185888D01*
Y186239D01*
X85147D01*
Y186590D01*
Y186941D01*
X85498D01*
Y187292D01*
X85849D01*
Y187644D01*
Y187995D01*
X86200D01*
Y188346D01*
X86552D01*
Y188697D01*
X86903D01*
Y189048D01*
X87254D01*
Y189399D01*
X87605D01*
Y189750D01*
X87956D01*
Y190102D01*
X88307D01*
Y190453D01*
X88659D01*
Y190804D01*
X89010D01*
Y191155D01*
X89712D01*
Y191506D01*
X90063D01*
Y191857D01*
X90766D01*
Y192209D01*
X91468D01*
Y192560D01*
X92521D01*
Y192911D01*
X93575D01*
Y193262D01*
X94980D01*
Y193613D01*
X99193D01*
Y193262D01*
X100949D01*
Y192911D01*
X102003D01*
Y192560D01*
X102705D01*
Y192209D01*
X103407D01*
Y191857D01*
X104110D01*
Y191506D01*
X104812D01*
Y191155D01*
X105163D01*
Y190804D01*
X105865D01*
Y190453D01*
X106217D01*
Y190102D01*
X106568D01*
Y189750D01*
X106919D01*
Y189399D01*
X107270D01*
Y189048D01*
X107621D01*
Y188697D01*
X107972D01*
Y188346D01*
Y187995D01*
X108324D01*
Y187644D01*
X108675D01*
Y187292D01*
X109026D01*
Y186941D01*
X109377D01*
Y186590D01*
X109728D01*
Y186239D01*
X110079D01*
Y185888D01*
Y185537D01*
X110431D01*
Y185185D01*
X110782D01*
Y184834D01*
X111133D01*
Y184483D01*
X111484D01*
Y184132D01*
X111835D01*
Y183781D01*
Y183430D01*
X112186D01*
Y183078D01*
X112537D01*
Y182727D01*
Y182376D01*
X112889D01*
Y182025D01*
X113240D01*
Y181674D01*
X113591D01*
Y181323D01*
Y180972D01*
X113942D01*
Y180620D01*
X114293D01*
Y180269D01*
Y179918D01*
X114644D01*
Y179567D01*
X114996D01*
Y179216D01*
X115347D01*
Y178865D01*
Y178513D01*
X115698D01*
Y178162D01*
X116049D01*
Y177811D01*
Y177460D01*
X116400D01*
Y177109D01*
X116751D01*
Y176758D01*
Y176406D01*
X117103D01*
Y176055D01*
X117454D01*
Y175704D01*
Y175353D01*
X117805D01*
Y175002D01*
Y174651D01*
X118156D01*
Y174300D01*
X118507D01*
Y173948D01*
Y173597D01*
X118858D01*
Y173246D01*
X119209D01*
Y172895D01*
Y172544D01*
X119561D01*
Y172193D01*
Y171841D01*
X119912D01*
Y171490D01*
Y171139D01*
X120263D01*
Y170788D01*
X120614D01*
Y170437D01*
Y170086D01*
Y169734D01*
X120965D01*
Y169383D01*
Y169032D01*
X121316D01*
Y168681D01*
X121668D01*
Y168330D01*
Y167979D01*
X122019D01*
Y167627D01*
Y167276D01*
X122370D01*
Y166925D01*
Y166574D01*
X122721D01*
Y166223D01*
Y165872D01*
X123072D01*
Y165521D01*
Y165169D01*
X123423D01*
Y164818D01*
Y164467D01*
Y164116D01*
X123775D01*
Y163765D01*
Y163414D01*
X124126D01*
Y163062D01*
Y162711D01*
X124477D01*
Y162360D01*
Y162009D01*
X124828D01*
Y161658D01*
Y161307D01*
Y160955D01*
X125179D01*
Y160604D01*
Y160253D01*
X125530D01*
Y159902D01*
Y159551D01*
X127637D01*
Y159902D01*
X127988D01*
Y160253D01*
Y160604D01*
Y160955D01*
X128340D01*
Y161307D01*
Y161658D01*
Y162009D01*
X128691D01*
Y162360D01*
Y162711D01*
X129042D01*
Y163062D01*
Y163414D01*
X129393D01*
Y163765D01*
Y164116D01*
X129744D01*
Y164467D01*
Y164818D01*
Y165169D01*
X130095D01*
Y165521D01*
Y165872D01*
X130447D01*
Y166223D01*
X130798D01*
Y166574D01*
Y166925D01*
Y167276D01*
X131149D01*
Y167627D01*
Y167979D01*
X131500D01*
Y168330D01*
Y168681D01*
X131851D01*
Y169032D01*
X132202D01*
Y169383D01*
Y169734D01*
X132554D01*
Y170086D01*
Y170437D01*
X132905D01*
Y170788D01*
Y171139D01*
X133256D01*
Y171490D01*
Y171841D01*
X133607D01*
Y172193D01*
Y172544D01*
X133958D01*
Y172895D01*
Y173246D01*
X134309D01*
Y173597D01*
X134660D01*
Y173948D01*
Y174300D01*
X135012D01*
Y174651D01*
X135363D01*
Y175002D01*
Y175353D01*
X135714D01*
Y175704D01*
Y176055D01*
X136065D01*
Y176406D01*
X136416D01*
Y176758D01*
Y177109D01*
X136767D01*
Y177460D01*
X137118D01*
Y177811D01*
Y178162D01*
X137470D01*
Y178513D01*
Y178865D01*
X137821D01*
Y179216D01*
X138172D01*
Y179567D01*
X138523D01*
Y179918D01*
Y180269D01*
X138874D01*
Y180620D01*
X139225D01*
Y180972D01*
X139577D01*
Y181323D01*
Y181674D01*
X139928D01*
Y182025D01*
X140279D01*
Y182376D01*
X140630D01*
Y182727D01*
Y183078D01*
X140981D01*
Y183430D01*
X141332D01*
Y183781D01*
Y184132D01*
X141684D01*
Y184483D01*
X142035D01*
Y184834D01*
X142386D01*
Y185185D01*
X142737D01*
Y185537D01*
X143088D01*
Y185888D01*
Y186239D01*
X143439D01*
Y186590D01*
X143791D01*
Y186941D01*
X144142D01*
Y187292D01*
X144493D01*
Y187644D01*
X144844D01*
Y187995D01*
X145195D01*
Y188346D01*
Y188697D01*
X145546D01*
Y189048D01*
X145897D01*
Y189399D01*
X146249D01*
Y189750D01*
X146600D01*
Y190102D01*
X146951D01*
Y190453D01*
X147302D01*
Y190804D01*
X148004D01*
Y191155D01*
X148356D01*
Y191506D01*
X149058D01*
Y191857D01*
X149409D01*
Y192209D01*
X150111D01*
Y192560D01*
X151165D01*
Y192911D01*
X152218D01*
Y193262D01*
X153623D01*
Y193613D01*
X158539D01*
Y193262D01*
D02*
G37*
G36*
X43000Y73222D02*
X39078Y69138D01*
X38962Y68038D01*
X38719Y65366D01*
X38522Y63445D01*
X42722Y59130D01*
X42433Y58852D01*
X38488Y62901D01*
X38256Y60414D01*
X38129D01*
Y59465D01*
X37250D01*
Y60414D01*
X34531D01*
X34427Y60229D01*
X34299Y60044D01*
X34103Y59835D01*
X33848Y59662D01*
X33559Y59569D01*
X33281Y59535D01*
X32992Y59546D01*
X32784Y59604D01*
X32541Y59708D01*
X32333Y59835D01*
X32171Y59997D01*
X32008Y60229D01*
X31893Y60483D01*
X31823Y60726D01*
X31800Y60923D01*
X31823Y61166D01*
X31858Y61351D01*
X31927Y61525D01*
X32032Y61721D01*
X32147Y61883D01*
X32309Y62034D01*
X32483Y62149D01*
X32645Y62230D01*
X32622Y62439D01*
X29162Y58852D01*
X28873Y59141D01*
X32587Y62982D01*
X32286Y66338D01*
X32078Y68767D01*
X30967D01*
Y70329D01*
X31256D01*
X28445Y73222D01*
X28734Y73500D01*
X31384Y70769D01*
Y70966D01*
X31326Y71012D01*
X31256Y71058D01*
X31187Y71128D01*
X31118Y71209D01*
X31083Y71313D01*
X31048Y71405D01*
X31037Y71521D01*
X31060Y71671D01*
X31095Y71753D01*
X31199Y71914D01*
X31314Y72019D01*
X31465Y72088D01*
X31627Y72111D01*
X31789Y72088D01*
X31927Y72030D01*
X32043Y71961D01*
X32101Y71891D01*
X32205Y71984D01*
X32379Y72100D01*
X32587Y72204D01*
X32888Y72319D01*
X33212Y72412D01*
X33536Y72481D01*
X33883Y72539D01*
X34161Y72574D01*
Y72921D01*
X36382D01*
Y72620D01*
X36555D01*
X36845Y72585D01*
X37146Y72551D01*
X37435Y72505D01*
Y72690D01*
X38395D01*
Y72238D01*
X38511Y72181D01*
X38661Y72111D01*
X38835Y72007D01*
X38974Y71914D01*
X39101Y71799D01*
X39193Y71718D01*
X39251Y71637D01*
X39298Y71544D01*
X39274Y71382D01*
X39830D01*
Y70676D01*
X39217D01*
X39124Y69762D01*
X42711Y73500D01*
X43000Y73222D01*
D02*
G37*
G36*
X42155Y55647D02*
Y55589D01*
Y55508D01*
Y55427D01*
Y55335D01*
Y55254D01*
Y55196D01*
Y55184D01*
Y55173D01*
Y54791D01*
Y54606D01*
Y54432D01*
Y54293D01*
Y54178D01*
Y54131D01*
Y54097D01*
Y54085D01*
Y54074D01*
Y53854D01*
Y53657D01*
Y53472D01*
Y53310D01*
Y53171D01*
Y53079D01*
Y53009D01*
Y52997D01*
Y52986D01*
Y52824D01*
Y52708D01*
Y52616D01*
Y52558D01*
Y52523D01*
Y52512D01*
Y52500D01*
X29509D01*
Y52523D01*
Y52581D01*
Y52650D01*
Y52743D01*
Y52836D01*
Y52905D01*
Y52963D01*
Y52986D01*
Y53368D01*
Y53553D01*
Y53715D01*
Y53865D01*
Y53969D01*
Y54016D01*
Y54050D01*
Y54062D01*
Y54074D01*
Y54293D01*
Y54502D01*
Y54687D01*
Y54849D01*
Y54988D01*
Y55092D01*
Y55150D01*
Y55173D01*
Y55265D01*
Y55335D01*
Y55462D01*
Y55554D01*
Y55612D01*
Y55647D01*
Y55659D01*
Y55670D01*
X42155D01*
Y55647D01*
D02*
G37*
G36*
X57698Y75073D02*
X58068Y75050D01*
X58427Y75015D01*
X58774Y74957D01*
X59121Y74900D01*
X59445Y74818D01*
X60093Y74645D01*
X60694Y74425D01*
X61261Y74182D01*
X61782Y73928D01*
X62025Y73800D01*
X62256Y73662D01*
X62476Y73534D01*
X62684Y73395D01*
X62881Y73268D01*
X63066Y73141D01*
X63240Y73014D01*
X63402Y72898D01*
X63541Y72782D01*
X63668Y72678D01*
X63784Y72585D01*
X63888Y72505D01*
X63980Y72423D01*
X64050Y72366D01*
X64108Y72308D01*
X64142Y72273D01*
X64165Y72250D01*
X64177Y72238D01*
X64432Y71972D01*
X64674Y71695D01*
X64894Y71417D01*
X65114Y71128D01*
X65299Y70838D01*
X65484Y70561D01*
X65658Y70260D01*
X65808Y69971D01*
X65947Y69681D01*
X66086Y69392D01*
X66306Y68825D01*
X66502Y68282D01*
X66641Y67761D01*
X66769Y67263D01*
X66815Y67032D01*
X66850Y66812D01*
X66884Y66615D01*
X66919Y66419D01*
X66942Y66234D01*
X66954Y66072D01*
X66965Y65921D01*
X66977Y65794D01*
X66988Y65678D01*
Y65574D01*
X67000Y65505D01*
Y65447D01*
Y65412D01*
Y65400D01*
X66988Y65030D01*
X66965Y64660D01*
X66931Y64301D01*
X66873Y63954D01*
X66815Y63607D01*
X66734Y63283D01*
X66560Y62635D01*
X66341Y62034D01*
X66109Y61467D01*
X65855Y60946D01*
X65716Y60703D01*
X65588Y60472D01*
X65461Y60252D01*
X65322Y60044D01*
X65195Y59847D01*
X65068Y59662D01*
X64952Y59488D01*
X64836Y59326D01*
X64721Y59188D01*
X64617Y59060D01*
X64524Y58944D01*
X64432Y58840D01*
X64362Y58748D01*
X64293Y58678D01*
X64246Y58621D01*
X64212Y58586D01*
X64188Y58563D01*
X64177Y58551D01*
X63911Y58297D01*
X63633Y58054D01*
X63355Y57822D01*
X63066Y57614D01*
X62777Y57417D01*
X62488Y57232D01*
X62199Y57070D01*
X61909Y56908D01*
X61620Y56769D01*
X61331Y56642D01*
X60764Y56411D01*
X60208Y56226D01*
X59688Y56075D01*
X59202Y55959D01*
X58970Y55902D01*
X58751Y55867D01*
X58542Y55832D01*
X58346Y55809D01*
X58161Y55774D01*
X57999Y55763D01*
X57848Y55751D01*
X57721Y55740D01*
X57605Y55728D01*
X57501D01*
X57432Y55717D01*
X57328D01*
X56957Y55728D01*
X56587Y55751D01*
X56228Y55786D01*
X55881Y55844D01*
X55546Y55902D01*
X55210Y55983D01*
X54574Y56156D01*
X53972Y56376D01*
X53405Y56619D01*
X52885Y56874D01*
X52642Y57001D01*
X52410Y57140D01*
X52190Y57267D01*
X51982Y57394D01*
X51785Y57533D01*
X51600Y57660D01*
X51427Y57776D01*
X51265Y57892D01*
X51126Y58007D01*
X50999Y58112D01*
X50883Y58204D01*
X50779Y58285D01*
X50686Y58366D01*
X50617Y58435D01*
X50559Y58482D01*
X50524Y58516D01*
X50501Y58539D01*
X50490Y58551D01*
X50235Y58817D01*
X49992Y59095D01*
X49761Y59373D01*
X49552Y59662D01*
X49356Y59951D01*
X49171Y60240D01*
X48997Y60530D01*
X48847Y60819D01*
X48696Y61108D01*
X48569Y61397D01*
X48338Y61964D01*
X48153Y62520D01*
X48002Y63040D01*
X47886Y63526D01*
X47829Y63758D01*
X47794Y63977D01*
X47759Y64186D01*
X47724Y64382D01*
X47701Y64568D01*
X47690Y64729D01*
X47678Y64880D01*
X47666Y65007D01*
X47655Y65123D01*
X47643Y65227D01*
Y65296D01*
Y65354D01*
Y65389D01*
Y65400D01*
X47655Y65771D01*
X47678Y66141D01*
X47713Y66500D01*
X47771Y66847D01*
X47829Y67182D01*
X47910Y67518D01*
X48083Y68154D01*
X48303Y68756D01*
X48546Y69323D01*
X48800Y69843D01*
X48928Y70086D01*
X49066Y70318D01*
X49194Y70538D01*
X49333Y70746D01*
X49460Y70943D01*
X49587Y71128D01*
X49714Y71301D01*
X49830Y71463D01*
X49946Y71602D01*
X50050Y71729D01*
X50143Y71845D01*
X50223Y71949D01*
X50305Y72042D01*
X50362Y72111D01*
X50420Y72169D01*
X50455Y72204D01*
X50478Y72227D01*
X50490Y72238D01*
X50756Y72493D01*
X51033Y72736D01*
X51311Y72967D01*
X51600Y73176D01*
X51890Y73372D01*
X52167Y73557D01*
X52468Y73731D01*
X52757Y73881D01*
X53047Y74032D01*
X53336Y74159D01*
X53903Y74390D01*
X54447Y74576D01*
X54967Y74726D01*
X55465Y74842D01*
X55696Y74900D01*
X55916Y74934D01*
X56113Y74969D01*
X56309Y75004D01*
X56494Y75027D01*
X56656Y75038D01*
X56807Y75050D01*
X56934Y75062D01*
X57050Y75073D01*
X57154Y75085D01*
X57328D01*
X57698Y75073D01*
D02*
G37*
G36*
X62041Y53877D02*
X62516Y53820D01*
X62967Y53727D01*
X63395Y53600D01*
X63800Y53461D01*
X64170Y53299D01*
X64529Y53125D01*
X64841Y52952D01*
X65131Y52778D01*
X65385Y52605D01*
X65605Y52443D01*
X65790Y52304D01*
X65929Y52177D01*
X66033Y52084D01*
X66102Y52026D01*
X66126Y52003D01*
X66461Y51644D01*
X66750Y51263D01*
X67005Y50881D01*
X67213Y50499D01*
X67398Y50106D01*
X67549Y49735D01*
X67676Y49365D01*
X67780Y49018D01*
X67850Y48694D01*
X67907Y48393D01*
X67954Y48127D01*
X67977Y47896D01*
X67988Y47792D01*
X68000Y47699D01*
Y47630D01*
X68012Y47560D01*
Y47514D01*
Y47479D01*
Y47456D01*
Y47444D01*
X67988Y46959D01*
X67931Y46484D01*
X67838Y46033D01*
X67711Y45605D01*
X67572Y45200D01*
X67410Y44830D01*
X67248Y44483D01*
X67063Y44159D01*
X66889Y43881D01*
X66727Y43626D01*
X66565Y43407D01*
X66415Y43221D01*
X66299Y43083D01*
X66207Y42967D01*
X66149Y42909D01*
X66126Y42886D01*
X65767Y42550D01*
X65385Y42261D01*
X65003Y42007D01*
X64610Y41798D01*
X64228Y41613D01*
X63846Y41463D01*
X63476Y41335D01*
X63129Y41231D01*
X62805Y41162D01*
X62504Y41104D01*
X62238Y41058D01*
X62007Y41035D01*
X61903Y41023D01*
X61810Y41012D01*
X61741D01*
X61671Y41000D01*
X61313D01*
X61208Y41012D01*
X61023D01*
X60965Y41023D01*
X60908D01*
Y42979D01*
X61127Y42955D01*
X61243Y42944D01*
X61336D01*
X61428Y42932D01*
X61555D01*
X61903Y42944D01*
X62227Y42990D01*
X62539Y43060D01*
X62840Y43140D01*
X63117Y43233D01*
X63384Y43349D01*
X63626Y43464D01*
X63846Y43592D01*
X64055Y43719D01*
X64228Y43835D01*
X64379Y43950D01*
X64506Y44043D01*
X64610Y44135D01*
X64691Y44193D01*
X64737Y44240D01*
X64749Y44251D01*
X64980Y44506D01*
X65188Y44772D01*
X65362Y45038D01*
X65513Y45316D01*
X65640Y45582D01*
X65744Y45848D01*
X65836Y46102D01*
X65906Y46345D01*
X65952Y46577D01*
X65998Y46785D01*
X66022Y46970D01*
X66045Y47132D01*
X66056Y47259D01*
X66068Y47363D01*
Y47421D01*
Y47444D01*
X66056Y47792D01*
X66010Y48116D01*
X65940Y48439D01*
X65860Y48740D01*
X65767Y49018D01*
X65651Y49284D01*
X65536Y49527D01*
X65408Y49747D01*
X65281Y49944D01*
X65165Y50117D01*
X65050Y50279D01*
X64957Y50406D01*
X64864Y50499D01*
X64807Y50580D01*
X64760Y50626D01*
X64749Y50638D01*
X64494Y50869D01*
X64228Y51078D01*
X63962Y51251D01*
X63684Y51413D01*
X63418Y51540D01*
X63152Y51644D01*
X62898Y51737D01*
X62655Y51806D01*
X62423Y51853D01*
X62215Y51899D01*
X62030Y51934D01*
X61868Y51945D01*
X61741Y51957D01*
X61637Y51968D01*
X61555D01*
X61313Y51957D01*
X61208D01*
X61104Y51945D01*
X61023Y51934D01*
X60965D01*
X60919Y51922D01*
X60908D01*
Y53866D01*
X61127Y53889D01*
X61232D01*
X61336Y53900D01*
X61555D01*
X62041Y53877D01*
D02*
G37*
G36*
X51073D02*
X51547Y53820D01*
X51999Y53727D01*
X52427Y53600D01*
X52832Y53461D01*
X53202Y53299D01*
X53549Y53125D01*
X53873Y52952D01*
X54151Y52778D01*
X54405Y52605D01*
X54625Y52443D01*
X54810Y52304D01*
X54949Y52177D01*
X55065Y52084D01*
X55123Y52026D01*
X55146Y52003D01*
X55481Y51644D01*
X55770Y51263D01*
X56025Y50881D01*
X56233Y50499D01*
X56418Y50106D01*
X56569Y49735D01*
X56696Y49365D01*
X56800Y49018D01*
X56870Y48694D01*
X56928Y48393D01*
X56974Y48127D01*
X56997Y47896D01*
X57008Y47792D01*
X57020Y47699D01*
Y47630D01*
X57032Y47560D01*
Y47514D01*
Y47479D01*
Y47456D01*
Y47444D01*
X57008Y46959D01*
X56951Y46484D01*
X56858Y46033D01*
X56731Y45605D01*
X56592Y45200D01*
X56430Y44830D01*
X56268Y44483D01*
X56083Y44159D01*
X55909Y43881D01*
X55747Y43626D01*
X55585Y43407D01*
X55435Y43221D01*
X55319Y43083D01*
X55227Y42967D01*
X55169Y42909D01*
X55146Y42886D01*
X54787Y42550D01*
X54405Y42261D01*
X54023Y42007D01*
X53642Y41798D01*
X53248Y41613D01*
X52878Y41463D01*
X52508Y41335D01*
X52161Y41231D01*
X51837Y41162D01*
X51536Y41104D01*
X51270Y41058D01*
X51038Y41035D01*
X50934Y41023D01*
X50842Y41012D01*
X50772D01*
X50703Y41000D01*
X50344D01*
X50240Y41012D01*
X50055D01*
X49997Y41023D01*
X49939D01*
X49951Y42979D01*
X50171Y42955D01*
X50275Y42944D01*
X50379D01*
X50460Y42932D01*
X50587D01*
X50876Y42944D01*
X51166Y42979D01*
X51443Y43025D01*
X51698Y43083D01*
X51952Y43164D01*
X52184Y43245D01*
X52404Y43337D01*
X52600Y43430D01*
X52785Y43522D01*
X52947Y43615D01*
X53086Y43696D01*
X53202Y43777D01*
X53294Y43835D01*
X53364Y43881D01*
X53410Y43916D01*
X53422Y43927D01*
X53642Y44124D01*
X53850Y44321D01*
X54023Y44529D01*
X54185Y44749D01*
X54336Y44957D01*
X54463Y45177D01*
X54579Y45385D01*
X54671Y45582D01*
X54752Y45767D01*
X54822Y45940D01*
X54880Y46091D01*
X54926Y46230D01*
X54961Y46334D01*
X54984Y46415D01*
X54995Y46461D01*
Y46484D01*
X51223D01*
Y48416D01*
X54995D01*
X54926Y48706D01*
X54833Y48972D01*
X54729Y49238D01*
X54614Y49481D01*
X54486Y49701D01*
X54359Y49909D01*
X54220Y50106D01*
X54093Y50279D01*
X53966Y50441D01*
X53838Y50580D01*
X53734Y50696D01*
X53630Y50788D01*
X53549Y50869D01*
X53491Y50927D01*
X53445Y50962D01*
X53433Y50973D01*
X53190Y51147D01*
X52947Y51297D01*
X52705Y51436D01*
X52461Y51552D01*
X52219Y51644D01*
X51987Y51725D01*
X51756Y51795D01*
X51536Y51841D01*
X51339Y51887D01*
X51154Y51911D01*
X50992Y51934D01*
X50853Y51957D01*
X50738D01*
X50657Y51968D01*
X50587D01*
X50344Y51957D01*
X50240D01*
X50136Y51945D01*
X50055Y51934D01*
X49997D01*
X49951Y51922D01*
X49939D01*
Y53866D01*
X50078Y53877D01*
X50194Y53889D01*
X50309D01*
X50402Y53900D01*
X50587D01*
X51073Y53877D01*
D02*
G37*
%LPC*%
G36*
X158890Y190453D02*
X154676D01*
Y190102D01*
X153623D01*
Y189750D01*
X152569D01*
Y189399D01*
X151867D01*
Y189048D01*
X151516D01*
Y188697D01*
X150814D01*
Y188346D01*
X150463D01*
Y187995D01*
X150111D01*
Y187644D01*
X149760D01*
Y187292D01*
X149409D01*
Y186941D01*
X149058D01*
Y186590D01*
Y186239D01*
X148707D01*
Y185888D01*
Y185537D01*
X148356D01*
Y185185D01*
X148004D01*
Y184834D01*
Y184483D01*
Y184132D01*
X147653D01*
Y183781D01*
Y183430D01*
Y183078D01*
Y182727D01*
X147302D01*
Y182376D01*
Y182025D01*
Y181674D01*
Y181323D01*
Y180972D01*
Y180620D01*
Y180269D01*
Y179918D01*
X147653D01*
Y179567D01*
Y179216D01*
Y178865D01*
Y178513D01*
X148004D01*
Y178162D01*
Y177811D01*
Y177460D01*
X148356D01*
Y177109D01*
Y176758D01*
X148707D01*
Y176406D01*
X149058D01*
Y176055D01*
Y175704D01*
X149409D01*
Y175353D01*
X149760D01*
Y175002D01*
X150111D01*
Y174651D01*
X150463D01*
Y174300D01*
X150814D01*
Y173948D01*
X151516D01*
Y173597D01*
X151867D01*
Y173246D01*
X152569D01*
Y172895D01*
X153272D01*
Y172544D01*
X154325D01*
Y172193D01*
X159241D01*
Y172544D01*
X160295D01*
Y172895D01*
X160997D01*
Y173246D01*
X161700D01*
Y173597D01*
X162051D01*
Y173948D01*
X162753D01*
Y174300D01*
X163104D01*
Y174651D01*
X163455D01*
Y175002D01*
X163807D01*
Y175353D01*
X164158D01*
Y175704D01*
X164509D01*
Y176055D01*
Y176406D01*
X164860D01*
Y176758D01*
Y177109D01*
X165211D01*
Y177460D01*
Y177811D01*
X165562D01*
Y178162D01*
Y178513D01*
X165913D01*
Y178865D01*
Y179216D01*
Y179567D01*
Y179918D01*
Y180269D01*
X166265D01*
Y180620D01*
Y180972D01*
Y181323D01*
Y181674D01*
Y182025D01*
Y182376D01*
X165913D01*
Y182727D01*
Y183078D01*
Y183430D01*
Y183781D01*
Y184132D01*
X165562D01*
Y184483D01*
Y184834D01*
X165211D01*
Y185185D01*
Y185537D01*
X164860D01*
Y185888D01*
Y186239D01*
X164509D01*
Y186590D01*
X164158D01*
Y186941D01*
Y187292D01*
X163807D01*
Y187644D01*
X163455D01*
Y187995D01*
X163104D01*
Y188346D01*
X162402D01*
Y188697D01*
X162051D01*
Y189048D01*
X161348D01*
Y189399D01*
X160646D01*
Y189750D01*
X159944D01*
Y190102D01*
X158890D01*
Y190453D01*
D02*
G37*
G36*
X98491Y190102D02*
X95331D01*
Y189750D01*
X93926D01*
Y189399D01*
X93224D01*
Y189048D01*
X92521D01*
Y188697D01*
X91819D01*
Y188346D01*
X91117D01*
Y187995D01*
X90766D01*
Y187644D01*
X90414D01*
Y187292D01*
X90063D01*
Y186941D01*
X89712D01*
Y186590D01*
X89361D01*
Y186239D01*
Y185888D01*
X89010D01*
Y185537D01*
X88659D01*
Y185185D01*
Y184834D01*
X88307D01*
Y184483D01*
Y184132D01*
X87956D01*
Y183781D01*
Y183430D01*
Y183078D01*
Y182727D01*
X87605D01*
Y182376D01*
Y182025D01*
Y181674D01*
Y181323D01*
Y180972D01*
Y180620D01*
Y180269D01*
Y179918D01*
Y179567D01*
Y179216D01*
Y178865D01*
X87956D01*
Y178513D01*
Y178162D01*
Y177811D01*
X88307D01*
Y177460D01*
Y177109D01*
Y176758D01*
X88659D01*
Y176406D01*
Y176055D01*
X89010D01*
Y175704D01*
X89361D01*
Y175353D01*
X89712D01*
Y175002D01*
Y174651D01*
X90063D01*
Y174300D01*
X90414D01*
Y173948D01*
X91117D01*
Y173597D01*
X91468D01*
Y173246D01*
X91819D01*
Y172895D01*
X92521D01*
Y172544D01*
X93224D01*
Y172193D01*
X94277D01*
Y171841D01*
X96033D01*
Y171490D01*
X97789D01*
Y171841D01*
X99545D01*
Y172193D01*
X100598D01*
Y172544D01*
X101300D01*
Y172895D01*
X102003D01*
Y173246D01*
X102354D01*
Y173597D01*
X103056D01*
Y173948D01*
X103407D01*
Y174300D01*
X103759D01*
Y174651D01*
X104110D01*
Y175002D01*
X104461D01*
Y175353D01*
Y175704D01*
X104812D01*
Y176055D01*
X105163D01*
Y176406D01*
Y176758D01*
X105514D01*
Y177109D01*
Y177460D01*
X105865D01*
Y177811D01*
Y178162D01*
Y178513D01*
X106217D01*
Y178865D01*
Y179216D01*
Y179567D01*
Y179918D01*
Y180269D01*
Y180620D01*
Y180972D01*
Y181323D01*
Y181674D01*
Y182025D01*
Y182376D01*
Y182727D01*
Y183078D01*
X105865D01*
Y183430D01*
Y183781D01*
Y184132D01*
X105514D01*
Y184483D01*
Y184834D01*
X105163D01*
Y185185D01*
Y185537D01*
X104812D01*
Y185888D01*
Y186239D01*
X104461D01*
Y186590D01*
X104110D01*
Y186941D01*
X103759D01*
Y187292D01*
X103407D01*
Y187644D01*
X103056D01*
Y187995D01*
X102705D01*
Y188346D01*
X102003D01*
Y188697D01*
X101652D01*
Y189048D01*
X100949D01*
Y189399D01*
X99896D01*
Y189750D01*
X98491D01*
Y190102D01*
D02*
G37*
G36*
X144493Y138832D02*
X143088D01*
Y138481D01*
Y138130D01*
Y137779D01*
Y137428D01*
Y137077D01*
Y136725D01*
Y136374D01*
Y136023D01*
Y135672D01*
Y135321D01*
Y134970D01*
X142737D01*
Y134618D01*
Y134267D01*
Y133916D01*
Y133565D01*
Y133214D01*
X142386D01*
Y132863D01*
Y132512D01*
X142035D01*
Y132160D01*
X141684D01*
Y132512D01*
X141332D01*
Y132863D01*
X140981D01*
Y133214D01*
X140630D01*
Y133565D01*
Y133916D01*
X140279D01*
Y134267D01*
Y134618D01*
X139928D01*
Y134970D01*
Y135321D01*
X139577D01*
Y135672D01*
Y136023D01*
Y136374D01*
Y136725D01*
X139225D01*
Y137077D01*
Y137428D01*
Y137779D01*
Y138130D01*
X138874D01*
Y138481D01*
X137821D01*
Y138130D01*
X137470D01*
Y137779D01*
Y137428D01*
X137821D01*
Y137077D01*
X137470D01*
Y136725D01*
Y136374D01*
Y136023D01*
Y135672D01*
Y135321D01*
Y134970D01*
Y134618D01*
Y134267D01*
Y133916D01*
Y133565D01*
Y133214D01*
X137118D01*
Y132863D01*
Y132512D01*
Y132160D01*
X136767D01*
Y131809D01*
Y131458D01*
X136416D01*
Y131107D01*
X136065D01*
Y131458D01*
X135714D01*
Y131809D01*
X135363D01*
Y132160D01*
X135012D01*
Y132512D01*
Y132863D01*
X134660D01*
Y133214D01*
Y133565D01*
X134309D01*
Y133916D01*
Y134267D01*
Y134618D01*
X133958D01*
Y134970D01*
Y135321D01*
Y135672D01*
X133607D01*
Y136023D01*
Y136374D01*
Y136725D01*
Y137077D01*
Y137428D01*
Y137779D01*
X132905D01*
Y138130D01*
X132202D01*
Y137779D01*
X131851D01*
Y137428D01*
Y137077D01*
Y136725D01*
Y136374D01*
Y136023D01*
Y135672D01*
Y135321D01*
Y134970D01*
X131500D01*
Y134618D01*
Y134267D01*
Y133916D01*
Y133565D01*
Y133214D01*
X131149D01*
Y132863D01*
Y132512D01*
Y132160D01*
X130798D01*
Y131809D01*
Y131458D01*
X130447D01*
Y131107D01*
X130095D01*
Y130756D01*
X129744D01*
Y131107D01*
X129393D01*
Y131458D01*
X129042D01*
Y131809D01*
Y132160D01*
X128691D01*
Y132512D01*
Y132863D01*
X128340D01*
Y133214D01*
Y133565D01*
Y133916D01*
X127988D01*
Y134267D01*
Y134618D01*
Y134970D01*
Y135321D01*
X127637D01*
Y135672D01*
Y136023D01*
Y136374D01*
Y136725D01*
Y137077D01*
Y137428D01*
Y137779D01*
X125882D01*
Y137428D01*
Y137077D01*
Y136725D01*
Y136374D01*
X125530D01*
Y136023D01*
Y135672D01*
Y135321D01*
Y134970D01*
Y134618D01*
Y134267D01*
X125179D01*
Y133916D01*
Y133565D01*
Y133214D01*
X124828D01*
Y132863D01*
Y132512D01*
X124477D01*
Y132160D01*
Y131809D01*
X124126D01*
Y131458D01*
X123775D01*
Y131107D01*
X123072D01*
Y131458D01*
X122721D01*
Y131809D01*
Y132160D01*
X122370D01*
Y132512D01*
Y132863D01*
X122019D01*
Y133214D01*
Y133565D01*
Y133916D01*
Y134267D01*
X121668D01*
Y134618D01*
Y134970D01*
Y135321D01*
Y135672D01*
Y136023D01*
Y136374D01*
Y136725D01*
Y137077D01*
Y137428D01*
Y137779D01*
X120965D01*
Y138130D01*
X120263D01*
Y137779D01*
X119912D01*
Y137428D01*
X119561D01*
Y137077D01*
Y136725D01*
Y136374D01*
Y136023D01*
Y135672D01*
X119209D01*
Y135321D01*
Y134970D01*
Y134618D01*
Y134267D01*
X118858D01*
Y133916D01*
Y133565D01*
X118507D01*
Y133214D01*
Y132863D01*
X118156D01*
Y132512D01*
Y132160D01*
X117805D01*
Y131809D01*
X117454D01*
Y131458D01*
X116751D01*
Y131809D01*
X116400D01*
Y132160D01*
Y132512D01*
Y132863D01*
X116049D01*
Y133214D01*
Y133565D01*
Y133916D01*
Y134267D01*
X115698D01*
Y134618D01*
Y134970D01*
Y135321D01*
Y135672D01*
Y136023D01*
Y136374D01*
Y136725D01*
Y137077D01*
Y137428D01*
Y137779D01*
Y138130D01*
X114996D01*
Y138481D01*
X113942D01*
Y138130D01*
Y137779D01*
Y137428D01*
X113591D01*
Y137077D01*
Y136725D01*
Y136374D01*
Y136023D01*
X113240D01*
Y135672D01*
Y135321D01*
Y134970D01*
X112889D01*
Y134618D01*
Y134267D01*
X112537D01*
Y133916D01*
Y133565D01*
X112186D01*
Y133214D01*
X111835D01*
Y132863D01*
X111484D01*
Y132512D01*
X111133D01*
Y132863D01*
X110782D01*
Y133214D01*
Y133565D01*
X110431D01*
Y133916D01*
Y134267D01*
Y134618D01*
X110079D01*
Y134970D01*
Y135321D01*
Y135672D01*
Y136023D01*
Y136374D01*
Y136725D01*
Y137077D01*
Y137428D01*
Y137779D01*
Y138130D01*
Y138481D01*
Y138832D01*
X108675D01*
Y138481D01*
X108324D01*
Y138130D01*
Y137779D01*
Y137428D01*
Y137077D01*
Y136725D01*
Y136374D01*
Y136023D01*
Y135672D01*
Y135321D01*
Y134970D01*
Y134618D01*
X108675D01*
Y134267D01*
Y133916D01*
Y133565D01*
Y133214D01*
Y132863D01*
X109026D01*
Y132512D01*
Y132160D01*
Y131809D01*
X109377D01*
Y131458D01*
X109728D01*
Y131107D01*
X110431D01*
Y130756D01*
X112537D01*
Y131107D01*
X112889D01*
Y131458D01*
X113240D01*
Y131809D01*
X113591D01*
Y132160D01*
Y132512D01*
X113942D01*
Y132863D01*
Y133214D01*
X114293D01*
Y132863D01*
Y132512D01*
Y132160D01*
Y131809D01*
X114644D01*
Y131458D01*
Y131107D01*
X114996D01*
Y130756D01*
Y130405D01*
X115347D01*
Y130053D01*
X115698D01*
Y129702D01*
X118507D01*
Y130053D01*
X118858D01*
Y130405D01*
X119209D01*
Y130756D01*
X119561D01*
Y131107D01*
Y131458D01*
X119912D01*
Y131809D01*
Y132160D01*
X120263D01*
Y131809D01*
X120614D01*
Y131458D01*
Y131107D01*
Y130756D01*
X120965D01*
Y130405D01*
Y130053D01*
X121316D01*
Y129702D01*
X121668D01*
Y129351D01*
X122370D01*
Y129000D01*
X124828D01*
Y129351D01*
X125179D01*
Y129702D01*
X125530D01*
Y130053D01*
X125882D01*
Y130405D01*
Y130756D01*
X126233D01*
Y131107D01*
X126584D01*
Y131458D01*
Y131809D01*
X126935D01*
Y131458D01*
Y131107D01*
X127286D01*
Y130756D01*
Y130405D01*
X127637D01*
Y130053D01*
Y129702D01*
X127988D01*
Y129351D01*
X128340D01*
Y129000D01*
X129042D01*
Y128649D01*
X129744D01*
Y129000D01*
X131500D01*
Y129351D01*
X131851D01*
Y129702D01*
X132202D01*
Y130053D01*
X132554D01*
Y130405D01*
Y130756D01*
X132905D01*
Y131107D01*
Y131458D01*
Y131809D01*
Y132160D01*
X133256D01*
Y131809D01*
Y131458D01*
X133607D01*
Y131107D01*
Y130756D01*
X133958D01*
Y130405D01*
X134309D01*
Y130053D01*
X134660D01*
Y129702D01*
X135012D01*
Y129351D01*
X136767D01*
Y129702D01*
X137821D01*
Y130053D01*
X138172D01*
Y130405D01*
X138523D01*
Y130756D01*
Y131107D01*
Y131458D01*
X138874D01*
Y131809D01*
Y132160D01*
Y132512D01*
X139225D01*
Y132160D01*
X139577D01*
Y131809D01*
Y131458D01*
X139928D01*
Y131107D01*
X140279D01*
Y130756D01*
X140981D01*
Y130405D01*
X142386D01*
Y130756D01*
X143439D01*
Y131107D01*
X143791D01*
Y131458D01*
Y131809D01*
X144142D01*
Y132160D01*
Y132512D01*
Y132863D01*
X144493D01*
Y133214D01*
Y133565D01*
Y133916D01*
Y134267D01*
Y134618D01*
Y134970D01*
Y135321D01*
X144844D01*
Y135672D01*
Y136023D01*
Y136374D01*
Y136725D01*
Y137077D01*
X144493D01*
Y137428D01*
X144844D01*
Y137779D01*
X144493D01*
Y138130D01*
Y138481D01*
Y138832D01*
D02*
G37*
%LPD*%
G36*
X158188Y185888D02*
X158539D01*
Y185537D01*
X158890D01*
Y185185D01*
Y184834D01*
Y184483D01*
X159241D01*
Y184132D01*
Y183781D01*
Y183430D01*
Y183078D01*
Y182727D01*
Y182376D01*
Y182025D01*
Y181674D01*
Y181323D01*
Y180972D01*
Y180620D01*
Y180269D01*
Y179918D01*
Y179567D01*
Y179216D01*
Y178865D01*
X158890D01*
Y178513D01*
Y178162D01*
Y177811D01*
X158539D01*
Y177460D01*
X158188D01*
Y177109D01*
X157135D01*
Y177460D01*
Y177811D01*
X156783D01*
Y178162D01*
Y178513D01*
X156432D01*
Y178865D01*
Y179216D01*
Y179567D01*
Y179918D01*
X156081D01*
Y180269D01*
Y180620D01*
Y180972D01*
Y181323D01*
Y181674D01*
Y182025D01*
Y182376D01*
Y182727D01*
Y183078D01*
Y183430D01*
Y183781D01*
X156432D01*
Y184132D01*
Y184483D01*
Y184834D01*
Y185185D01*
X156783D01*
Y185537D01*
Y185888D01*
X157135D01*
Y186239D01*
X158188D01*
Y185888D01*
D02*
G37*
G36*
X97789Y184834D02*
X98140D01*
Y184483D01*
Y184132D01*
Y183781D01*
X98491D01*
Y183430D01*
Y183078D01*
Y182727D01*
Y182376D01*
X98842D01*
Y182025D01*
Y181674D01*
Y181323D01*
Y180972D01*
Y180620D01*
Y180269D01*
Y179918D01*
Y179567D01*
Y179216D01*
Y178865D01*
X98491D01*
Y178513D01*
Y178162D01*
Y177811D01*
Y177460D01*
X98140D01*
Y177109D01*
Y176758D01*
X97789D01*
Y176406D01*
Y176055D01*
X96735D01*
Y176406D01*
X96384D01*
Y176758D01*
X96033D01*
Y177109D01*
Y177460D01*
Y177811D01*
X95682D01*
Y178162D01*
Y178513D01*
Y178865D01*
Y179216D01*
Y179567D01*
Y179918D01*
X95331D01*
Y180269D01*
Y180620D01*
Y180972D01*
Y181323D01*
X95682D01*
Y181674D01*
Y182025D01*
Y182376D01*
Y182727D01*
Y183078D01*
Y183430D01*
X96033D01*
Y183781D01*
Y184132D01*
Y184483D01*
X96384D01*
Y184834D01*
Y185185D01*
X97789D01*
Y184834D01*
D02*
G37*
%LPC*%
G36*
X35965Y72528D02*
X34554D01*
Y72296D01*
X35965D01*
Y72528D01*
D02*
G37*
G36*
X36382Y72204D02*
Y71891D01*
X34161D01*
Y72157D01*
X33698Y72088D01*
X33281Y71984D01*
X32934Y71891D01*
X32656Y71764D01*
X32437Y71637D01*
X32275Y71486D01*
Y71382D01*
X37435D01*
Y72065D01*
X37122Y72123D01*
X36775Y72169D01*
X36382Y72204D01*
D02*
G37*
G36*
X38002Y72296D02*
X37840D01*
Y71764D01*
X37990D01*
X38002Y72296D01*
D02*
G37*
G36*
X38395Y71776D02*
Y71382D01*
X38870D01*
X38881Y71452D01*
X38765Y71567D01*
X38615Y71671D01*
X38395Y71776D01*
D02*
G37*
G36*
X31684Y71706D02*
X31650D01*
X31580Y71695D01*
X31534Y71671D01*
X31488Y71648D01*
X31465Y71614D01*
X31442Y71544D01*
Y71521D01*
Y71509D01*
X31453Y71440D01*
X31476Y71394D01*
X31511Y71359D01*
X31546Y71336D01*
X31615Y71313D01*
X31650D01*
X31719Y71324D01*
X31765Y71347D01*
X31800Y71371D01*
X31823Y71417D01*
X31846Y71475D01*
Y71498D01*
Y71509D01*
X31835Y71579D01*
X31812Y71625D01*
X31789Y71660D01*
X31742Y71683D01*
X31684Y71706D01*
D02*
G37*
G36*
X32147Y69936D02*
X31372D01*
Y69172D01*
X32147D01*
Y69936D01*
D02*
G37*
G36*
X36023Y68189D02*
X33941D01*
Y68062D01*
X36023D01*
Y68189D01*
D02*
G37*
G36*
X38812Y70676D02*
X32333D01*
X32367Y70329D01*
X32541D01*
Y69589D01*
X33513Y68594D01*
X36428D01*
Y67668D01*
X34415D01*
X35757Y66280D01*
X38684Y69323D01*
X38812Y70676D01*
D02*
G37*
G36*
X38627Y68675D02*
X36035Y65991D01*
X38164Y63804D01*
X38627Y68675D01*
D02*
G37*
G36*
X32541Y69010D02*
Y68767D01*
X32494D01*
X32957Y63376D01*
X35480Y65991D01*
X33848Y67668D01*
X33513D01*
Y68004D01*
X32541Y69010D01*
D02*
G37*
G36*
X35757Y65701D02*
X33004Y62844D01*
X33050Y62346D01*
X33235Y62358D01*
X33443Y62346D01*
X33698Y62277D01*
X33941Y62149D01*
X34126Y62022D01*
X34299Y61849D01*
X34450Y61629D01*
X34577Y61351D01*
X34635Y61039D01*
X34623Y60830D01*
X37886D01*
X38118Y63272D01*
X35757Y65701D01*
D02*
G37*
G36*
X33293Y61652D02*
X33223D01*
X33096Y61640D01*
X32992Y61617D01*
X32899Y61582D01*
X32818Y61548D01*
X32749Y61490D01*
X32703Y61432D01*
X32610Y61305D01*
X32564Y61166D01*
X32541Y61062D01*
X32529Y61015D01*
Y60981D01*
Y60958D01*
Y60946D01*
X32541Y60819D01*
X32564Y60715D01*
X32599Y60622D01*
X32633Y60541D01*
X32691Y60483D01*
X32749Y60426D01*
X32876Y60344D01*
X33004Y60287D01*
X33119Y60264D01*
X33154Y60252D01*
X33223D01*
X33351Y60264D01*
X33455Y60287D01*
X33547Y60321D01*
X33628Y60356D01*
X33698Y60414D01*
X33756Y60472D01*
X33837Y60599D01*
X33894Y60726D01*
X33917Y60842D01*
X33929Y60877D01*
Y60911D01*
Y60935D01*
Y60946D01*
X33917Y61073D01*
X33894Y61177D01*
X33860Y61270D01*
X33813Y61351D01*
X33767Y61421D01*
X33709Y61478D01*
X33570Y61559D01*
X33443Y61617D01*
X33327Y61640D01*
X33293Y61652D01*
D02*
G37*
G36*
X37736Y60426D02*
X37643D01*
Y59859D01*
X37736D01*
Y60426D01*
D02*
G37*
%LPD*%
G36*
X33385Y61397D02*
X33501Y61351D01*
X33582Y61270D01*
X33640Y61189D01*
X33675Y61097D01*
X33686Y61015D01*
X33698Y60969D01*
Y60946D01*
X33675Y60796D01*
X33628Y60680D01*
X33547Y60599D01*
X33455Y60541D01*
X33374Y60506D01*
X33293Y60495D01*
X33246Y60483D01*
X33223D01*
X33073Y60506D01*
X32957Y60553D01*
X32876Y60634D01*
X32818Y60715D01*
X32784Y60796D01*
X32772Y60877D01*
X32761Y60923D01*
Y60946D01*
X32784Y61108D01*
X32830Y61224D01*
X32911Y61305D01*
X32992Y61363D01*
X33073Y61397D01*
X33154Y61409D01*
X33200Y61421D01*
X33223D01*
X33385Y61397D01*
D02*
G37*
%LPC*%
G36*
X33235Y61015D02*
X33223D01*
X33177Y61004D01*
X33165Y60981D01*
X33154Y60958D01*
Y60946D01*
X33165Y60911D01*
X33189Y60888D01*
X33212Y60877D01*
X33223D01*
X33258Y60888D01*
X33281Y60911D01*
X33293Y60935D01*
Y60946D01*
X33281Y60992D01*
X33258Y61004D01*
X33235Y61015D01*
D02*
G37*
G36*
X57490Y74113D02*
X57328D01*
X56992Y74101D01*
X56668Y74090D01*
X56344Y74055D01*
X56032Y74009D01*
X55418Y73881D01*
X54840Y73719D01*
X54296Y73523D01*
X53799Y73303D01*
X53324Y73071D01*
X52896Y72840D01*
X52514Y72597D01*
X52329Y72481D01*
X52167Y72366D01*
X52017Y72250D01*
X51878Y72146D01*
X51739Y72053D01*
X51623Y71961D01*
X51519Y71868D01*
X51427Y71787D01*
X51357Y71729D01*
X51288Y71671D01*
X51242Y71614D01*
X51207Y71591D01*
X51184Y71567D01*
X51172Y71556D01*
X50941Y71313D01*
X50721Y71070D01*
X50513Y70815D01*
X50328Y70561D01*
X50154Y70306D01*
X49992Y70040D01*
X49830Y69786D01*
X49691Y69520D01*
X49448Y68999D01*
X49240Y68490D01*
X49066Y67992D01*
X48939Y67529D01*
X48823Y67078D01*
X48754Y66673D01*
X48719Y66488D01*
X48696Y66315D01*
X48673Y66153D01*
X48650Y66002D01*
X48638Y65875D01*
X48627Y65748D01*
Y65644D01*
X48615Y65562D01*
Y65493D01*
Y65447D01*
Y65412D01*
Y65400D01*
X48627Y65065D01*
X48638Y64741D01*
X48673Y64417D01*
X48719Y64105D01*
X48847Y63491D01*
X49009Y62913D01*
X49205Y62369D01*
X49425Y61860D01*
X49657Y61397D01*
X49888Y60969D01*
X50131Y60576D01*
X50247Y60402D01*
X50362Y60229D01*
X50478Y60078D01*
X50582Y59939D01*
X50675Y59812D01*
X50767Y59685D01*
X50833Y59611D01*
X53509Y62288D01*
X53370Y62381D01*
X53243Y62473D01*
X53197Y62520D01*
X53162Y62554D01*
X53139Y62566D01*
X53128Y62577D01*
X52989Y62716D01*
X52873Y62855D01*
X52769Y63006D01*
X52688Y63168D01*
X52607Y63318D01*
X52549Y63468D01*
X52456Y63769D01*
X52422Y63908D01*
X52399Y64024D01*
X52387Y64139D01*
X52376Y64244D01*
X52364Y64313D01*
Y64382D01*
Y64417D01*
Y64429D01*
Y64614D01*
X52387Y64787D01*
X52445Y65088D01*
X52526Y65366D01*
X52561Y65482D01*
X52607Y65586D01*
X52653Y65678D01*
X52700Y65759D01*
X52746Y65829D01*
X52780Y65886D01*
X52815Y65933D01*
X52838Y65968D01*
X52850Y65979D01*
X52861Y65991D01*
X52954Y66095D01*
X53058Y66187D01*
X53151Y66257D01*
X53255Y66326D01*
X53452Y66430D01*
X53625Y66500D01*
X53787Y66534D01*
X53903Y66558D01*
X53949Y66569D01*
X54018D01*
X54157Y66558D01*
X54285Y66534D01*
X54412Y66488D01*
X54539Y66430D01*
X54770Y66291D01*
X54979Y66129D01*
X55141Y65968D01*
X55210Y65898D01*
X55268Y65829D01*
X55314Y65771D01*
X55349Y65724D01*
X55372Y65701D01*
X55384Y65690D01*
Y68825D01*
X55592D01*
X56888Y68293D01*
X56818Y68131D01*
X56691Y68177D01*
X56587Y68189D01*
X56518Y68200D01*
X56494D01*
X56414Y68189D01*
X56356Y68177D01*
X56309Y68154D01*
X56298Y68143D01*
X56252Y68073D01*
X56217Y68004D01*
X56205Y67934D01*
X56194Y67923D01*
Y67911D01*
X56182Y67876D01*
Y67819D01*
X56170Y67703D01*
Y67553D01*
X56159Y67391D01*
Y67252D01*
Y67124D01*
Y67078D01*
Y67044D01*
Y67020D01*
Y67009D01*
Y64938D01*
X57304Y66095D01*
X57247Y66315D01*
X57223Y66430D01*
X57212Y66523D01*
X57200Y66615D01*
Y66685D01*
Y66731D01*
Y66743D01*
X57212Y66951D01*
X57258Y67136D01*
X57304Y67310D01*
X57374Y67448D01*
X57432Y67576D01*
X57490Y67657D01*
X57536Y67715D01*
X57547Y67738D01*
X57686Y67888D01*
X57825Y68015D01*
X57964Y68120D01*
X58091Y68200D01*
X58207Y68258D01*
X58299Y68305D01*
X58357Y68328D01*
X58380Y68339D01*
X58589Y68397D01*
X58808Y68444D01*
X59028Y68467D01*
X59248Y68490D01*
X59445Y68501D01*
X59526Y68513D01*
X59734D01*
X63118Y71897D01*
X63240Y71787D01*
X63483Y71556D01*
X63124Y71903D01*
X63118Y71897D01*
X62997Y72007D01*
X62742Y72215D01*
X62488Y72400D01*
X62222Y72574D01*
X61967Y72736D01*
X61701Y72898D01*
X61446Y73037D01*
X60926Y73280D01*
X60417Y73488D01*
X59919Y73662D01*
X59445Y73789D01*
X59005Y73905D01*
X58600Y73974D01*
X58415Y74009D01*
X58241Y74032D01*
X58079Y74055D01*
X57929Y74078D01*
X57790Y74090D01*
X57675Y74101D01*
X57570D01*
X57490Y74113D01*
D02*
G37*
G36*
X63483Y71556D02*
X63495Y71543D01*
X63494Y71544D01*
X63483Y71556D01*
D02*
G37*
G36*
X63495Y71543D02*
X63506Y71521D01*
X63541Y71486D01*
X63587Y71440D01*
X63645Y71371D01*
X63714Y71301D01*
X63795Y71209D01*
X63807Y71220D01*
X63495Y71543D01*
D02*
G37*
G36*
X59317Y68096D02*
X59179Y68050D01*
X59051Y68004D01*
X59005Y67981D01*
X58970Y67969D01*
X58947Y67946D01*
X58936D01*
X58832Y67876D01*
X58727Y67795D01*
X58647Y67703D01*
X58577Y67622D01*
X58519Y67541D01*
X58485Y67472D01*
X58461Y67425D01*
X58450Y67414D01*
X58392Y67286D01*
X58357Y67206D01*
X58346Y67148D01*
X58334Y67124D01*
X59317Y68096D01*
D02*
G37*
G36*
X60266Y67668D02*
X58473Y65886D01*
X58531Y65794D01*
X58589Y65724D01*
X58623Y65678D01*
X58635Y65667D01*
X58774Y65539D01*
X58924Y65435D01*
X59063Y65366D01*
X59190Y65320D01*
X59306Y65296D01*
X59399Y65285D01*
X59456Y65273D01*
X59479D01*
X59584Y65285D01*
X59699Y65296D01*
X59746D01*
X59780Y65308D01*
X59815D01*
X59965Y65320D01*
X60116Y65343D01*
X60174Y65354D01*
X60220Y65366D01*
X60255Y65377D01*
X60266D01*
Y67668D01*
D02*
G37*
G36*
X54481Y65886D02*
X54389D01*
X54215Y65863D01*
X54065Y65817D01*
X53926Y65748D01*
X53799Y65667D01*
X53694Y65586D01*
X53625Y65516D01*
X53567Y65470D01*
X53556Y65447D01*
X53428Y65262D01*
X53336Y65053D01*
X53266Y64845D01*
X53220Y64637D01*
X53197Y64452D01*
X53185Y64371D01*
X53174Y64301D01*
Y64244D01*
Y64197D01*
Y64174D01*
Y64163D01*
X53185Y63850D01*
X53232Y63573D01*
X53290Y63329D01*
X53359Y63144D01*
X53440Y62994D01*
X53498Y62890D01*
X53544Y62820D01*
X53556Y62797D01*
X53625Y62693D01*
X53694Y62624D01*
X53752Y62566D01*
X53764Y62554D01*
X53776D01*
X55384Y64151D01*
Y65389D01*
X55268Y65493D01*
X55176Y65574D01*
X55083Y65632D01*
X55014Y65690D01*
X54956Y65724D01*
X54921Y65748D01*
X54898Y65771D01*
X54886D01*
X54701Y65840D01*
X54620Y65863D01*
X54539Y65875D01*
X54481Y65886D01*
D02*
G37*
G36*
X63795Y71209D02*
X61099Y68513D01*
X62083D01*
Y68339D01*
X61840D01*
X61712Y68328D01*
X61608Y68305D01*
X61504Y68270D01*
X61435Y68235D01*
X61377Y68200D01*
X61331Y68166D01*
X61308Y68143D01*
X61296Y68131D01*
X61250Y68062D01*
X61227Y67958D01*
X61203Y67830D01*
X61180Y67703D01*
Y67576D01*
X61169Y67483D01*
Y67402D01*
Y67391D01*
Y67379D01*
Y63248D01*
Y63063D01*
X61180Y62901D01*
X61192Y62786D01*
X61215Y62693D01*
X61227Y62624D01*
X61250Y62577D01*
X61261Y62554D01*
Y62543D01*
X61342Y62462D01*
X61435Y62392D01*
X61527Y62346D01*
X61620Y62323D01*
X61701Y62300D01*
X61770Y62288D01*
X62083D01*
Y62103D01*
X59341D01*
Y62288D01*
X59584D01*
X59711Y62300D01*
X59815Y62323D01*
X59908Y62346D01*
X59989Y62392D01*
X60046Y62427D01*
X60093Y62450D01*
X60116Y62473D01*
X60127Y62485D01*
X60174Y62566D01*
X60208Y62670D01*
X60232Y62797D01*
X60243Y62925D01*
X60255Y63052D01*
X60266Y63156D01*
Y63225D01*
Y63237D01*
Y63248D01*
Y65100D01*
X60139Y65077D01*
X60023Y65053D01*
X59931Y65042D01*
X59850Y65030D01*
X59780Y65019D01*
X59734Y65007D01*
X59688D01*
X59491Y64984D01*
X59399D01*
X59329Y64973D01*
X59179D01*
X58901Y64984D01*
X58647Y65030D01*
X58427Y65088D01*
X58241Y65146D01*
X58103Y65215D01*
X57999Y65262D01*
X57929Y65308D01*
X57906Y65320D01*
X56159Y63573D01*
Y62520D01*
X56008Y62427D01*
X55858Y62346D01*
X55731Y62277D01*
X55603Y62219D01*
X55511Y62173D01*
X55430Y62138D01*
X55372Y62126D01*
X55361Y62115D01*
X55222Y62068D01*
X55094Y62034D01*
X54956Y62011D01*
X54840Y61999D01*
X54747Y61987D01*
X54666Y61976D01*
X54562D01*
X51508Y58921D01*
X51161Y59245D01*
X51134Y59274D01*
X51138Y59268D01*
X51161Y59245D01*
X51172Y59234D01*
X51415Y59002D01*
X51658Y58783D01*
X51913Y58586D01*
X52167Y58389D01*
X52422Y58216D01*
X52688Y58054D01*
X52942Y57903D01*
X53209Y57764D01*
X53729Y57521D01*
X54238Y57313D01*
X54736Y57140D01*
X55199Y57012D01*
X55650Y56897D01*
X56055Y56827D01*
X56240Y56792D01*
X56414Y56769D01*
X56575Y56746D01*
X56726Y56723D01*
X56853Y56712D01*
X56980Y56700D01*
X57085D01*
X57165Y56688D01*
X57328D01*
X57663Y56700D01*
X57987Y56723D01*
X58311Y56746D01*
X58623Y56792D01*
X59237Y56920D01*
X59803Y57082D01*
X60347Y57278D01*
X60856Y57498D01*
X61331Y57730D01*
X61759Y57961D01*
X62141Y58204D01*
X62314Y58320D01*
X62488Y58424D01*
X62638Y58539D01*
X62777Y58644D01*
X62904Y58748D01*
X63032Y58840D01*
X63136Y58921D01*
X63228Y59002D01*
X63298Y59072D01*
X63367Y59130D01*
X63413Y59176D01*
X63448Y59211D01*
X63471Y59222D01*
X63483Y59234D01*
X63714Y59477D01*
X63934Y59720D01*
X64131Y59974D01*
X64327Y60229D01*
X64501Y60495D01*
X64663Y60749D01*
X64825Y61015D01*
X64964Y61282D01*
X65207Y61802D01*
X65415Y62311D01*
X65588Y62809D01*
X65716Y63272D01*
X65820Y63723D01*
X65901Y64128D01*
X65936Y64313D01*
X65959Y64486D01*
X65982Y64648D01*
X66005Y64799D01*
X66017Y64926D01*
X66028Y65053D01*
Y65158D01*
X66040Y65239D01*
Y65308D01*
Y65354D01*
Y65389D01*
Y65400D01*
X66028Y65736D01*
X66005Y66060D01*
X65982Y66384D01*
X65924Y66696D01*
X65808Y67310D01*
X65635Y67888D01*
X65450Y68432D01*
X65230Y68929D01*
X64998Y69404D01*
X64755Y69832D01*
X64524Y70214D01*
X64408Y70399D01*
X64293Y70561D01*
X64177Y70711D01*
X64073Y70850D01*
X63980Y70989D01*
X63876Y71105D01*
X63795Y71209D01*
D02*
G37*
G36*
X50833Y59611D02*
X50825Y59604D01*
X51002Y59415D01*
X51056Y59349D01*
X51083Y59328D01*
X51134Y59274D01*
X51114Y59303D01*
X51083Y59328D01*
X51002Y59415D01*
X50999Y59419D01*
X50941Y59488D01*
X50860Y59581D01*
X50833Y59611D01*
D02*
G37*
%LPD*%
D12*
X0Y0D02*
Y254000D01*
X205500D01*
Y0D02*
Y254000D01*
X0Y0D02*
X205500D01*
D14*
X60511Y106498D02*
X54512D01*
X60511D02*
X54512Y110497D01*
X60511D02*
X54512D01*
X56797Y112154D02*
Y115582D01*
X57368D01*
X57940Y115296D01*
X58225Y115010D01*
X58511Y114439D01*
Y113582D01*
X58225Y113011D01*
X57654Y112440D01*
X56797Y112154D01*
X56226D01*
X55369Y112440D01*
X54798Y113011D01*
X54512Y113582D01*
Y114439D01*
X54798Y115010D01*
X55369Y115582D01*
X58511Y116867D02*
X54512Y118010D01*
X58511Y119152D02*
X54512Y118010D01*
X58511Y119152D02*
X54512Y120295D01*
X58511Y121438D02*
X54512Y120295D01*
Y127408D02*
X60511Y125122D01*
X54512Y122837D01*
X56511Y123694D02*
Y126551D01*
X60511Y132521D02*
Y128807D01*
X54512D01*
Y132521D01*
X57654Y128807D02*
Y131093D01*
X60511Y140234D02*
X54512D01*
X60511Y138234D02*
Y142233D01*
X56797Y142947D02*
Y146375D01*
X57368D01*
X57940Y146089D01*
X58225Y145804D01*
X58511Y145232D01*
Y144376D01*
X58225Y143804D01*
X57654Y143233D01*
X56797Y142947D01*
X56226D01*
X55369Y143233D01*
X54798Y143804D01*
X54512Y144376D01*
Y145232D01*
X54798Y145804D01*
X55369Y146375D01*
X57654Y151088D02*
X58225Y150517D01*
X58511Y149946D01*
Y149089D01*
X58225Y148518D01*
X57654Y147946D01*
X56797Y147661D01*
X56226D01*
X55369Y147946D01*
X54798Y148518D01*
X54512Y149089D01*
Y149946D01*
X54798Y150517D01*
X55369Y151088D01*
X60511Y152374D02*
X54512D01*
X57368D02*
X58225Y153231D01*
X58511Y153802D01*
Y154659D01*
X58225Y155230D01*
X57368Y155516D01*
X54512D01*
X58511Y157087D02*
X54512D01*
X57368D02*
X58225Y157944D01*
X58511Y158515D01*
Y159372D01*
X58225Y159944D01*
X57368Y160229D01*
X54512D01*
X58511Y163229D02*
X58225Y162657D01*
X57654Y162086D01*
X56797Y161800D01*
X56226D01*
X55369Y162086D01*
X54798Y162657D01*
X54512Y163229D01*
Y164086D01*
X54798Y164657D01*
X55369Y165228D01*
X56226Y165514D01*
X56797D01*
X57654Y165228D01*
X58225Y164657D01*
X58511Y164086D01*
Y163229D01*
X60511Y166828D02*
X54512D01*
X58511Y169513D02*
X58225Y168942D01*
X57654Y168370D01*
X56797Y168085D01*
X56226D01*
X55369Y168370D01*
X54798Y168942D01*
X54512Y169513D01*
Y170370D01*
X54798Y170941D01*
X55369Y171513D01*
X56226Y171798D01*
X56797D01*
X57654Y171513D01*
X58225Y170941D01*
X58511Y170370D01*
Y169513D01*
Y176540D02*
X53941D01*
X53084Y176254D01*
X52798Y175969D01*
X52512Y175397D01*
Y174540D01*
X52798Y173969D01*
X57654Y176540D02*
X58225Y175969D01*
X58511Y175397D01*
Y174540D01*
X58225Y173969D01*
X57654Y173398D01*
X56797Y173112D01*
X56226D01*
X55369Y173398D01*
X54798Y173969D01*
X54512Y174540D01*
Y175397D01*
X54798Y175969D01*
X55369Y176540D01*
X58511Y178425D02*
X54512Y180139D01*
X58511Y181853D02*
X54512Y180139D01*
X53369Y179568D01*
X52798Y178997D01*
X52512Y178425D01*
Y178140D01*
X60511Y187566D02*
X54512D01*
X58511Y188823D02*
X54512D01*
X57368D02*
X58225Y189680D01*
X58511Y190251D01*
Y191108D01*
X58225Y191680D01*
X57368Y191965D01*
X54512D01*
X57654Y196964D02*
X58225Y196393D01*
X58511Y195822D01*
Y194965D01*
X58225Y194393D01*
X57654Y193822D01*
X56797Y193536D01*
X56226D01*
X55369Y193822D01*
X54798Y194393D01*
X54512Y194965D01*
Y195822D01*
X54798Y196393D01*
X55369Y196964D01*
X55083Y198535D02*
X54798Y198250D01*
X54512Y198535D01*
X54798Y198821D01*
X55083Y198535D01*
X49393Y86274D02*
X43394D01*
X49393D02*
X43394Y90273D01*
X49393D02*
X43394D01*
Y96500D02*
X49393Y94215D01*
X43394Y91930D01*
X45393Y92787D02*
Y95643D01*
X49393Y101613D02*
Y97900D01*
X43394D01*
Y101613D01*
X46536Y97900D02*
Y100185D01*
X45965Y107326D02*
Y112468D01*
X47964Y118524D02*
X48536Y118238D01*
X49107Y117667D01*
X49393Y117096D01*
Y115953D01*
X49107Y115382D01*
X48536Y114810D01*
X47964Y114525D01*
X47107Y114239D01*
X45679D01*
X44822Y114525D01*
X44251Y114810D01*
X43679Y115382D01*
X43394Y115953D01*
Y117096D01*
X43679Y117667D01*
X44251Y118238D01*
X44822Y118524D01*
X49393Y120209D02*
X43394Y121637D01*
X49393Y123066D02*
X43394Y121637D01*
X49393Y123066D02*
X43394Y124494D01*
X49393Y125922D02*
X43394Y124494D01*
X49393Y127693D02*
Y130836D01*
X47107Y129122D01*
Y129979D01*
X46822Y130550D01*
X46536Y130836D01*
X45679Y131121D01*
X45108D01*
X44251Y130836D01*
X43679Y130264D01*
X43394Y129407D01*
Y128550D01*
X43679Y127693D01*
X43965Y127408D01*
X44537Y127122D01*
X49393Y134178D02*
X49107Y133321D01*
X48250Y132749D01*
X46822Y132464D01*
X45965D01*
X44537Y132749D01*
X43679Y133321D01*
X43394Y134178D01*
Y134749D01*
X43679Y135606D01*
X44537Y136177D01*
X45965Y136463D01*
X46822D01*
X48250Y136177D01*
X49107Y135606D01*
X49393Y134749D01*
Y134178D01*
Y139234D02*
X49107Y138377D01*
X48536Y138091D01*
X47964D01*
X47393Y138377D01*
X47107Y138948D01*
X46822Y140091D01*
X46536Y140948D01*
X45965Y141519D01*
X45393Y141805D01*
X44537D01*
X43965Y141519D01*
X43679Y141233D01*
X43394Y140376D01*
Y139234D01*
X43679Y138377D01*
X43965Y138091D01*
X44537Y137805D01*
X45393D01*
X45965Y138091D01*
X46536Y138662D01*
X46822Y139519D01*
X47107Y140662D01*
X47393Y141233D01*
X47964Y141519D01*
X48536D01*
X49107Y141233D01*
X49393Y140376D01*
Y139234D01*
Y145147D02*
X43394D01*
X49393Y143147D02*
Y147146D01*
X45965Y147861D02*
Y153002D01*
X43394Y159344D02*
X49393Y157059D01*
X43394Y154773D01*
X45393Y155630D02*
Y158487D01*
X49393Y160743D02*
X43394D01*
X49393D02*
Y162743D01*
X49107Y163600D01*
X48536Y164171D01*
X47964Y164457D01*
X47107Y164743D01*
X45679D01*
X44822Y164457D01*
X44251Y164171D01*
X43679Y163600D01*
X43394Y162743D01*
Y160743D01*
X49393Y166085D02*
X45108D01*
X44251Y166371D01*
X43679Y166942D01*
X43394Y167799D01*
Y168370D01*
X43679Y169227D01*
X44251Y169799D01*
X45108Y170084D01*
X49393D01*
X47964Y176026D02*
X48536Y175740D01*
X49107Y175169D01*
X49393Y174598D01*
Y173455D01*
X49107Y172884D01*
X48536Y172312D01*
X47964Y172027D01*
X47107Y171741D01*
X45679D01*
X44822Y172027D01*
X44251Y172312D01*
X43679Y172884D01*
X43394Y173455D01*
Y174598D01*
X43679Y175169D01*
X44251Y175740D01*
X44822Y176026D01*
X49393Y177711D02*
X43394D01*
X49393D02*
X43394Y179996D01*
X49393Y182282D02*
X43394Y179996D01*
X49393Y182282D02*
X43394D01*
X49393Y184567D02*
Y187709D01*
X47107Y185995D01*
Y186852D01*
X46822Y187423D01*
X46536Y187709D01*
X45679Y187995D01*
X45108D01*
X44251Y187709D01*
X43679Y187138D01*
X43394Y186281D01*
Y185424D01*
X43679Y184567D01*
X43965Y184281D01*
X44537Y183996D01*
X49393Y191051D02*
X49107Y190194D01*
X48250Y189623D01*
X46822Y189337D01*
X45965D01*
X44537Y189623D01*
X43679Y190194D01*
X43394Y191051D01*
Y191622D01*
X43679Y192480D01*
X44537Y193051D01*
X45965Y193336D01*
X46822D01*
X48250Y193051D01*
X49107Y192480D01*
X49393Y191622D01*
Y191051D01*
X47964Y194965D02*
X48250D01*
X48821Y195250D01*
X49107Y195536D01*
X49393Y196107D01*
Y197250D01*
X49107Y197821D01*
X48821Y198107D01*
X48250Y198392D01*
X47679D01*
X47107Y198107D01*
X46250Y197536D01*
X43394Y194679D01*
Y198678D01*
X47393Y203734D02*
X46536Y203449D01*
X45965Y202877D01*
X45679Y202020D01*
Y201735D01*
X45965Y200878D01*
X46536Y200306D01*
X47393Y200021D01*
X47679D01*
X48536Y200306D01*
X49107Y200878D01*
X49393Y201735D01*
Y202020D01*
X49107Y202877D01*
X48536Y203449D01*
X47393Y203734D01*
X45965D01*
X44537Y203449D01*
X43679Y202877D01*
X43394Y202020D01*
Y201449D01*
X43679Y200592D01*
X44251Y200306D01*
X45965Y205362D02*
Y210504D01*
X49393Y213989D02*
X49107Y213132D01*
X48250Y212561D01*
X46822Y212275D01*
X45965D01*
X44537Y212561D01*
X43679Y213132D01*
X43394Y213989D01*
Y214560D01*
X43679Y215417D01*
X44537Y215989D01*
X45965Y216274D01*
X46822D01*
X48250Y215989D01*
X49107Y215417D01*
X49393Y214560D01*
Y213989D01*
X48250Y217617D02*
X48536Y218188D01*
X49393Y219045D01*
X43394D01*
X40274Y119524D02*
X34275D01*
X40274D02*
Y122095D01*
X39988Y122951D01*
X39703Y123237D01*
X39132Y123523D01*
X38560D01*
X37989Y123237D01*
X37703Y122951D01*
X37418Y122095D01*
Y119524D01*
Y121523D02*
X34275Y123523D01*
X40274Y126579D02*
X39988Y126008D01*
X39417Y125437D01*
X38846Y125151D01*
X37989Y124865D01*
X36561D01*
X35704Y125151D01*
X35132Y125437D01*
X34561Y126008D01*
X34275Y126579D01*
Y127722D01*
X34561Y128293D01*
X35132Y128865D01*
X35704Y129150D01*
X36561Y129436D01*
X37989D01*
X38846Y129150D01*
X39417Y128865D01*
X39988Y128293D01*
X40274Y127722D01*
Y126579D01*
Y130835D02*
X34275D01*
X40274Y134835D02*
X34275D01*
X37418Y130835D02*
Y134835D01*
X39417Y140491D02*
X39988Y139919D01*
X40274Y139062D01*
Y137920D01*
X39988Y137063D01*
X39417Y136492D01*
X38846D01*
X38274Y136777D01*
X37989Y137063D01*
X37703Y137634D01*
X37132Y139348D01*
X36846Y139919D01*
X36561Y140205D01*
X35989Y140491D01*
X35132D01*
X34561Y139919D01*
X34275Y139062D01*
Y137920D01*
X34561Y137063D01*
X35132Y136492D01*
X33419Y146546D02*
X40274Y150546D01*
X37132Y155659D02*
Y158230D01*
X37418Y159087D01*
X37703Y159372D01*
X38274Y159658D01*
X39132D01*
X39703Y159372D01*
X39988Y159087D01*
X40274Y158230D01*
Y155659D01*
X34275D01*
X40274Y161001D02*
X34275D01*
X37418D02*
X37989Y161572D01*
X38274Y162143D01*
Y163000D01*
X37989Y163571D01*
X37418Y164143D01*
X36561Y164428D01*
X35989D01*
X35132Y164143D01*
X34561Y163571D01*
X34275Y163000D01*
Y162143D01*
X34561Y161572D01*
X35132Y161001D01*
X40274Y170427D02*
X34275D01*
X40274D02*
Y174141D01*
X37418Y170427D02*
Y172712D01*
X38274Y174826D02*
X34275D01*
X36561D02*
X37418Y175112D01*
X37989Y175683D01*
X38274Y176254D01*
Y177111D01*
X36561Y177654D02*
Y181082D01*
X37132D01*
X37703Y180796D01*
X37989Y180511D01*
X38274Y179939D01*
Y179082D01*
X37989Y178511D01*
X37418Y177940D01*
X36561Y177654D01*
X35989D01*
X35132Y177940D01*
X34561Y178511D01*
X34275Y179082D01*
Y179939D01*
X34561Y180511D01*
X35132Y181082D01*
X36561Y182367D02*
Y185795D01*
X37132D01*
X37703Y185510D01*
X37989Y185224D01*
X38274Y184653D01*
Y183796D01*
X37989Y183224D01*
X37418Y182653D01*
X36561Y182367D01*
X35989D01*
X35132Y182653D01*
X34561Y183224D01*
X34275Y183796D01*
Y184653D01*
X34561Y185224D01*
X35132Y185795D01*
M02*
