G04*
G04 #@! TF.GenerationSoftware,Altium Limited,Altium Designer,18.1.7 (191)*
G04*
G04 Layer_Color=8421504*
%FSLAX25Y25*%
%MOIN*%
G70*
G01*
G75*
%ADD12C,0.01000*%
%ADD16R,0.07500X0.07500*%
%ADD17R,0.02953X0.03740*%
G04:AMPARAMS|DCode=18|XSize=39.37mil|YSize=35.43mil|CornerRadius=4.43mil|HoleSize=0mil|Usage=FLASHONLY|Rotation=90.000|XOffset=0mil|YOffset=0mil|HoleType=Round|Shape=RoundedRectangle|*
%AMROUNDEDRECTD18*
21,1,0.03937,0.02657,0,0,90.0*
21,1,0.03051,0.03543,0,0,90.0*
1,1,0.00886,0.01329,0.01526*
1,1,0.00886,0.01329,-0.01526*
1,1,0.00886,-0.01329,-0.01526*
1,1,0.00886,-0.01329,0.01526*
%
%ADD18ROUNDEDRECTD18*%
%ADD19O,0.00984X0.04134*%
%ADD20O,0.04134X0.00984*%
%ADD21R,0.03740X0.02953*%
D12*
X0Y0D02*
Y254000D01*
X205500D01*
Y0D02*
Y254000D01*
X0Y0D02*
X205500D01*
D16*
X94750Y135250D02*
D03*
X103250D02*
D03*
Y143750D02*
D03*
X94750D02*
D03*
D17*
X72756Y129000D02*
D03*
X67244D02*
D03*
X72756Y141700D02*
D03*
X67244D02*
D03*
X72756Y154399D02*
D03*
X67244D02*
D03*
D18*
X66654Y167000D02*
D03*
X73347D02*
D03*
X123653Y164500D02*
D03*
X130347D02*
D03*
D19*
X84236Y156921D02*
D03*
X86205D02*
D03*
X88173D02*
D03*
X90142D02*
D03*
X92110D02*
D03*
X94079D02*
D03*
X96047D02*
D03*
X98016D02*
D03*
X99984D02*
D03*
X101953D02*
D03*
X103921D02*
D03*
X105890D02*
D03*
X107858D02*
D03*
X109827D02*
D03*
X111795D02*
D03*
X113764D02*
D03*
Y122079D02*
D03*
X111795D02*
D03*
X109827D02*
D03*
X107858D02*
D03*
X105890D02*
D03*
X103921D02*
D03*
X101953D02*
D03*
X99984D02*
D03*
X98016D02*
D03*
X96047D02*
D03*
X94079D02*
D03*
X92110D02*
D03*
X90142D02*
D03*
X88173D02*
D03*
X86205D02*
D03*
X84236D02*
D03*
D20*
X116421Y154264D02*
D03*
Y152295D02*
D03*
Y150327D02*
D03*
Y148358D02*
D03*
Y146390D02*
D03*
Y144421D02*
D03*
Y142453D02*
D03*
Y140484D02*
D03*
Y138516D02*
D03*
Y136547D02*
D03*
Y134579D02*
D03*
Y132610D02*
D03*
Y130642D02*
D03*
Y128673D02*
D03*
Y126705D02*
D03*
Y124736D02*
D03*
X81579D02*
D03*
Y126705D02*
D03*
Y128673D02*
D03*
Y130642D02*
D03*
Y132610D02*
D03*
Y134579D02*
D03*
Y136547D02*
D03*
Y138516D02*
D03*
Y140484D02*
D03*
Y142453D02*
D03*
Y144421D02*
D03*
Y146390D02*
D03*
Y148358D02*
D03*
Y150327D02*
D03*
Y152295D02*
D03*
Y154264D02*
D03*
D21*
X140000Y164500D02*
D03*
Y158988D02*
D03*
X149500Y164500D02*
D03*
Y158988D02*
D03*
M02*
