G04*
G04 #@! TF.GenerationSoftware,Altium Limited,Altium Designer,18.1.7 (191)*
G04*
G04 Layer_Physical_Order=2*
G04 Layer_Color=16711680*
%FSLAX25Y25*%
%MOIN*%
G70*
G01*
G75*
%ADD35C,0.01200*%
%ADD36C,0.02400*%
%ADD38C,0.25000*%
%ADD39O,0.11000X0.06000*%
%ADD40R,0.11000X0.06000*%
%ADD41O,0.06000X0.11000*%
%ADD42R,0.06000X0.11000*%
%ADD43C,0.02400*%
G36*
X203461Y222425D02*
X198374D01*
Y218425D01*
Y214425D01*
X203461D01*
Y211855D01*
X202861Y211559D01*
X202391Y211919D01*
X201418Y212322D01*
X200374Y212460D01*
X195374D01*
X194330Y212322D01*
X193357Y211919D01*
X192521Y211278D01*
X191880Y210442D01*
X191477Y209469D01*
X191340Y208425D01*
X191477Y207381D01*
X191880Y206408D01*
X192521Y205572D01*
X193357Y204931D01*
X194330Y204528D01*
X195374Y204391D01*
X200374D01*
X201418Y204528D01*
X202391Y204931D01*
X202861Y205292D01*
X203461Y204996D01*
Y201855D01*
X202861Y201559D01*
X202391Y201919D01*
X201418Y202322D01*
X200374Y202460D01*
X195374D01*
X194330Y202322D01*
X193357Y201919D01*
X192521Y201278D01*
X191880Y200443D01*
X191477Y199469D01*
X191340Y198425D01*
X191477Y197381D01*
X191880Y196408D01*
X192521Y195572D01*
X193357Y194931D01*
X194330Y194528D01*
X195374Y194391D01*
X200374D01*
X201418Y194528D01*
X202391Y194931D01*
X202861Y195291D01*
X203461Y194996D01*
Y191855D01*
X202861Y191559D01*
X202391Y191919D01*
X201418Y192322D01*
X200374Y192460D01*
X198374D01*
Y188425D01*
Y184391D01*
X200374D01*
X201418Y184528D01*
X202391Y184931D01*
X202861Y185292D01*
X203461Y184996D01*
Y181855D01*
X202861Y181559D01*
X202391Y181919D01*
X201418Y182322D01*
X200374Y182460D01*
X195374D01*
X194330Y182322D01*
X193357Y181919D01*
X192521Y181278D01*
X191880Y180443D01*
X191477Y179469D01*
X191340Y178425D01*
X191477Y177381D01*
X191880Y176408D01*
X192521Y175572D01*
X193357Y174931D01*
X194330Y174528D01*
X195374Y174391D01*
X200374D01*
X201418Y174528D01*
X202391Y174931D01*
X202861Y175292D01*
X203461Y174996D01*
Y171855D01*
X202861Y171559D01*
X202391Y171919D01*
X201418Y172322D01*
X200374Y172460D01*
X195374D01*
X194330Y172322D01*
X193357Y171919D01*
X192521Y171278D01*
X191880Y170442D01*
X191477Y169469D01*
X191340Y168425D01*
X191477Y167381D01*
X191880Y166408D01*
X192521Y165572D01*
X193357Y164931D01*
X194330Y164528D01*
X195374Y164391D01*
X200374D01*
X201418Y164528D01*
X202391Y164931D01*
X202861Y165292D01*
X203461Y164996D01*
Y161855D01*
X202861Y161559D01*
X202391Y161919D01*
X201418Y162322D01*
X200374Y162460D01*
X198374D01*
Y158425D01*
Y154391D01*
X200374D01*
X201418Y154528D01*
X202391Y154931D01*
X202861Y155291D01*
X203461Y154996D01*
Y151855D01*
X202861Y151559D01*
X202391Y151919D01*
X201418Y152322D01*
X200374Y152460D01*
X195374D01*
X194330Y152322D01*
X193357Y151919D01*
X192521Y151278D01*
X191880Y150443D01*
X191477Y149469D01*
X191340Y148425D01*
X191477Y147381D01*
X191880Y146408D01*
X192521Y145572D01*
X193357Y144931D01*
X194330Y144528D01*
X195374Y144391D01*
X200374D01*
X201418Y144528D01*
X202391Y144931D01*
X202861Y145291D01*
X203461Y144996D01*
Y141855D01*
X202861Y141559D01*
X202391Y141919D01*
X201418Y142322D01*
X200374Y142460D01*
X198374D01*
Y138425D01*
Y134391D01*
X200374D01*
X201418Y134528D01*
X202391Y134931D01*
X202861Y135292D01*
X203461Y134996D01*
Y131855D01*
X202861Y131559D01*
X202391Y131919D01*
X201418Y132322D01*
X200374Y132460D01*
X198374D01*
Y128425D01*
Y124391D01*
X200374D01*
X201418Y124528D01*
X202391Y124931D01*
X202861Y125292D01*
X203461Y124996D01*
Y121855D01*
X202861Y121559D01*
X202391Y121919D01*
X201418Y122322D01*
X200374Y122460D01*
X195374D01*
X194330Y122322D01*
X193357Y121919D01*
X192521Y121278D01*
X191880Y120442D01*
X191477Y119469D01*
X191340Y118425D01*
X191477Y117381D01*
X191880Y116408D01*
X192521Y115572D01*
X193357Y114931D01*
X194330Y114528D01*
X195374Y114391D01*
X200374D01*
X201418Y114528D01*
X202391Y114931D01*
X202861Y115292D01*
X203461Y114996D01*
Y111855D01*
X202861Y111559D01*
X202391Y111919D01*
X201418Y112322D01*
X200374Y112460D01*
X195374D01*
X194330Y112322D01*
X193357Y111919D01*
X192521Y111278D01*
X191880Y110442D01*
X191477Y109469D01*
X191340Y108425D01*
X191477Y107381D01*
X191880Y106408D01*
X192521Y105572D01*
X193357Y104931D01*
X194330Y104528D01*
X195374Y104391D01*
X200374D01*
X201418Y104528D01*
X202391Y104931D01*
X202861Y105291D01*
X203461Y104996D01*
Y101855D01*
X202861Y101559D01*
X202391Y101919D01*
X201418Y102322D01*
X200374Y102460D01*
X195374D01*
X194330Y102322D01*
X193357Y101919D01*
X192521Y101278D01*
X191880Y100443D01*
X191477Y99469D01*
X191340Y98425D01*
X191477Y97381D01*
X191880Y96408D01*
X192521Y95572D01*
X193357Y94931D01*
X194330Y94528D01*
X195374Y94391D01*
X200374D01*
X201418Y94528D01*
X202391Y94931D01*
X202861Y95292D01*
X203461Y94996D01*
Y91855D01*
X202861Y91559D01*
X202391Y91919D01*
X201418Y92322D01*
X200374Y92460D01*
X195374D01*
X194330Y92322D01*
X193357Y91919D01*
X192521Y91278D01*
X192053Y90668D01*
X130004D01*
X118172Y102500D01*
X128830Y113158D01*
X129316Y113886D01*
X129487Y114744D01*
Y131244D01*
X129316Y132103D01*
X128830Y132830D01*
X128103Y133316D01*
X127244Y133487D01*
X126386Y133316D01*
X125658Y132830D01*
X125172Y132103D01*
X125001Y131244D01*
Y115673D01*
X114071Y104743D01*
X110000D01*
X109142Y104572D01*
X108414Y104086D01*
X107928Y103358D01*
X107757Y102500D01*
X107928Y101642D01*
X108414Y100914D01*
X109142Y100428D01*
X110000Y100257D01*
X114071D01*
X127489Y86839D01*
X128216Y86353D01*
X129075Y86182D01*
X192053D01*
X192521Y85572D01*
X193357Y84931D01*
X194330Y84528D01*
X195374Y84391D01*
X200374D01*
X201418Y84528D01*
X202391Y84931D01*
X202861Y85291D01*
X203461Y84996D01*
Y81855D01*
X202861Y81559D01*
X202391Y81919D01*
X201418Y82322D01*
X200374Y82460D01*
X195374D01*
X194330Y82322D01*
X193357Y81919D01*
X192521Y81278D01*
X191880Y80443D01*
X191477Y79469D01*
X191340Y78425D01*
X191477Y77381D01*
X191880Y76408D01*
X192521Y75572D01*
X193357Y74931D01*
X194330Y74528D01*
X195374Y74391D01*
X200374D01*
X201418Y74528D01*
X202391Y74931D01*
X202861Y75292D01*
X203461Y74996D01*
Y71855D01*
X202861Y71559D01*
X202391Y71919D01*
X201418Y72322D01*
X200374Y72460D01*
X198374D01*
Y68425D01*
Y64391D01*
X200374D01*
X201418Y64528D01*
X202391Y64931D01*
X202861Y65292D01*
X203461Y64996D01*
Y61855D01*
X202861Y61559D01*
X202391Y61919D01*
X201418Y62322D01*
X200374Y62460D01*
X198374D01*
Y58425D01*
Y54391D01*
X200374D01*
X201418Y54528D01*
X202391Y54931D01*
X202861Y55291D01*
X203461Y54996D01*
Y51855D01*
X202861Y51559D01*
X202391Y51919D01*
X201418Y52322D01*
X200374Y52460D01*
X195374D01*
X194330Y52322D01*
X193357Y51919D01*
X192521Y51278D01*
X191880Y50442D01*
X191477Y49469D01*
X191340Y48425D01*
X191477Y47381D01*
X191880Y46408D01*
X192521Y45572D01*
X193357Y44931D01*
X194330Y44528D01*
X195374Y44391D01*
X200374D01*
X201418Y44528D01*
X202391Y44931D01*
X202861Y45292D01*
X203461Y44996D01*
Y41855D01*
X202861Y41559D01*
X202391Y41919D01*
X201418Y42322D01*
X200374Y42460D01*
X195374D01*
X194330Y42322D01*
X193357Y41919D01*
X192521Y41278D01*
X191880Y40442D01*
X191477Y39469D01*
X191340Y38425D01*
X191477Y37381D01*
X191880Y36408D01*
X192521Y35572D01*
X193357Y34931D01*
X194330Y34528D01*
X195374Y34391D01*
X200374D01*
X201418Y34528D01*
X202391Y34931D01*
X202861Y35291D01*
X203461Y34996D01*
Y31855D01*
X202861Y31559D01*
X202391Y31919D01*
X201418Y32322D01*
X200374Y32460D01*
X195374D01*
X194330Y32322D01*
X193357Y31919D01*
X192521Y31278D01*
X191880Y30443D01*
X191477Y29469D01*
X191340Y28425D01*
X191477Y27381D01*
X191880Y26408D01*
X192521Y25572D01*
X193357Y24931D01*
X194330Y24528D01*
X195374Y24391D01*
X200374D01*
X201418Y24528D01*
X202391Y24931D01*
X202861Y25291D01*
X203461Y24996D01*
Y2039D01*
X200366D01*
X200162Y2639D01*
X200727Y3072D01*
X201368Y3908D01*
X201771Y4881D01*
X201908Y5925D01*
Y10925D01*
X201771Y11969D01*
X201368Y12943D01*
X200727Y13778D01*
X199891Y14419D01*
X198918Y14822D01*
X197874Y14960D01*
X196830Y14822D01*
X195857Y14419D01*
X195021Y13778D01*
X194380Y12943D01*
X193977Y11969D01*
X193840Y10925D01*
Y5925D01*
X193977Y4881D01*
X194380Y3908D01*
X195021Y3072D01*
X195586Y2639D01*
X195382Y2039D01*
X190366D01*
X190162Y2639D01*
X190727Y3072D01*
X191368Y3908D01*
X191771Y4881D01*
X191909Y5925D01*
Y10925D01*
X191771Y11969D01*
X191368Y12943D01*
X190727Y13778D01*
X189891Y14419D01*
X188918Y14822D01*
X187874Y14960D01*
X186830Y14822D01*
X185857Y14419D01*
X185021Y13778D01*
X184380Y12943D01*
X183977Y11969D01*
X183839Y10925D01*
Y5925D01*
X183977Y4881D01*
X184380Y3908D01*
X185021Y3072D01*
X185586Y2639D01*
X185382Y2039D01*
X180366D01*
X180162Y2639D01*
X180727Y3072D01*
X181368Y3908D01*
X181771Y4881D01*
X181909Y5925D01*
Y10925D01*
X181771Y11969D01*
X181368Y12943D01*
X180727Y13778D01*
X179891Y14419D01*
X178918Y14822D01*
X177874Y14960D01*
X176830Y14822D01*
X175857Y14419D01*
X175021Y13778D01*
X174380Y12943D01*
X173977Y11969D01*
X173839Y10925D01*
Y5925D01*
X173977Y4881D01*
X174380Y3908D01*
X175021Y3072D01*
X175586Y2639D01*
X175382Y2039D01*
X170366D01*
X170162Y2639D01*
X170727Y3072D01*
X171368Y3908D01*
X171771Y4881D01*
X171908Y5925D01*
Y10925D01*
X171771Y11969D01*
X171368Y12943D01*
X170727Y13778D01*
X169891Y14419D01*
X168918Y14822D01*
X167874Y14960D01*
X166830Y14822D01*
X165857Y14419D01*
X165021Y13778D01*
X164380Y12943D01*
X163977Y11969D01*
X163839Y10925D01*
Y5925D01*
X163977Y4881D01*
X164380Y3908D01*
X165021Y3072D01*
X165586Y2639D01*
X165382Y2039D01*
X160366D01*
X160162Y2639D01*
X160727Y3072D01*
X161368Y3908D01*
X161771Y4881D01*
X161908Y5925D01*
Y10925D01*
X161771Y11969D01*
X161368Y12943D01*
X160727Y13778D01*
X159891Y14419D01*
X158918Y14822D01*
X157874Y14960D01*
X156830Y14822D01*
X155857Y14419D01*
X155021Y13778D01*
X154380Y12943D01*
X153977Y11969D01*
X153840Y10925D01*
Y5925D01*
X153977Y4881D01*
X154380Y3908D01*
X155021Y3072D01*
X155586Y2639D01*
X155382Y2039D01*
X150366D01*
X150162Y2639D01*
X150727Y3072D01*
X151368Y3908D01*
X151771Y4881D01*
X151909Y5925D01*
Y10925D01*
X151771Y11969D01*
X151368Y12943D01*
X150727Y13778D01*
X149891Y14419D01*
X148918Y14822D01*
X147874Y14960D01*
X146830Y14822D01*
X145857Y14419D01*
X145021Y13778D01*
X144380Y12943D01*
X143977Y11969D01*
X143840Y10925D01*
Y5925D01*
X143977Y4881D01*
X144380Y3908D01*
X145021Y3072D01*
X145586Y2639D01*
X145382Y2039D01*
X140366D01*
X140162Y2639D01*
X140727Y3072D01*
X141368Y3908D01*
X141771Y4881D01*
X141909Y5925D01*
Y10925D01*
X141771Y11969D01*
X141368Y12943D01*
X140727Y13778D01*
X139891Y14419D01*
X138918Y14822D01*
X137874Y14960D01*
X136830Y14822D01*
X135857Y14419D01*
X135021Y13778D01*
X134380Y12943D01*
X133977Y11969D01*
X133839Y10925D01*
Y5925D01*
X133977Y4881D01*
X134380Y3908D01*
X135021Y3072D01*
X135586Y2639D01*
X135382Y2039D01*
X130366D01*
X130162Y2639D01*
X130727Y3072D01*
X131368Y3908D01*
X131771Y4881D01*
X131909Y5925D01*
Y10925D01*
X131771Y11969D01*
X131368Y12943D01*
X130727Y13778D01*
X129891Y14419D01*
X128918Y14822D01*
X127874Y14960D01*
X126830Y14822D01*
X125857Y14419D01*
X125021Y13778D01*
X124380Y12943D01*
X123977Y11969D01*
X123839Y10925D01*
Y5925D01*
X123977Y4881D01*
X124380Y3908D01*
X125021Y3072D01*
X125586Y2639D01*
X125382Y2039D01*
X120366D01*
X120162Y2639D01*
X120727Y3072D01*
X121368Y3908D01*
X121771Y4881D01*
X121908Y5925D01*
Y10925D01*
X121771Y11969D01*
X121368Y12943D01*
X120727Y13778D01*
X119891Y14419D01*
X118918Y14822D01*
X117874Y14960D01*
X116830Y14822D01*
X115857Y14419D01*
X115021Y13778D01*
X114380Y12943D01*
X113977Y11969D01*
X113839Y10925D01*
Y5925D01*
X113977Y4881D01*
X114380Y3908D01*
X115021Y3072D01*
X115586Y2639D01*
X115382Y2039D01*
X110366D01*
X110162Y2639D01*
X110727Y3072D01*
X111368Y3908D01*
X111771Y4881D01*
X111908Y5925D01*
Y10925D01*
X111771Y11969D01*
X111368Y12943D01*
X110727Y13778D01*
X109891Y14419D01*
X108918Y14822D01*
X107874Y14960D01*
X106830Y14822D01*
X105857Y14419D01*
X105021Y13778D01*
X104380Y12943D01*
X103977Y11969D01*
X103840Y10925D01*
Y5925D01*
X103977Y4881D01*
X104380Y3908D01*
X105021Y3072D01*
X105586Y2639D01*
X105382Y2039D01*
X100366Y2039D01*
X100162Y2639D01*
X100727Y3072D01*
X101368Y3908D01*
X101771Y4881D01*
X101909Y5925D01*
Y7925D01*
X97874D01*
X93840D01*
Y5925D01*
X93977Y4881D01*
X94380Y3908D01*
X95021Y3072D01*
X95586Y2639D01*
X95382Y2039D01*
X90366D01*
X90162Y2639D01*
X90727Y3072D01*
X91368Y3908D01*
X91771Y4881D01*
X91909Y5925D01*
Y7925D01*
X87874D01*
Y8425D01*
D01*
Y7925D01*
X83839D01*
Y5925D01*
X83977Y4881D01*
X84380Y3908D01*
X85021Y3072D01*
X85586Y2639D01*
X85382Y2039D01*
X80366D01*
X80162Y2639D01*
X80727Y3072D01*
X81368Y3908D01*
X81771Y4881D01*
X81909Y5925D01*
Y10925D01*
X81771Y11969D01*
X81368Y12943D01*
X80727Y13778D01*
X79891Y14419D01*
X78918Y14822D01*
X77874Y14960D01*
X76830Y14822D01*
X75857Y14419D01*
X75021Y13778D01*
X74380Y12943D01*
X73977Y11969D01*
X73839Y10925D01*
Y5925D01*
X73977Y4881D01*
X74380Y3908D01*
X75021Y3072D01*
X75586Y2639D01*
X75382Y2039D01*
X70366D01*
X70162Y2639D01*
X70727Y3072D01*
X71368Y3908D01*
X71771Y4881D01*
X71908Y5925D01*
Y10925D01*
X71771Y11969D01*
X71368Y12943D01*
X70727Y13778D01*
X70117Y14246D01*
Y54626D01*
X69946Y55484D01*
X69460Y56212D01*
X63172Y62500D01*
X89086Y88414D01*
X89572Y89142D01*
X89743Y90000D01*
Y95000D01*
X89572Y95858D01*
X89086Y96586D01*
X88358Y97072D01*
X87500Y97243D01*
X86642Y97072D01*
X85914Y96586D01*
X85428Y95858D01*
X85257Y95000D01*
Y90929D01*
X58414Y64086D01*
X24996Y30668D01*
X13695D01*
X13227Y31278D01*
X12391Y31919D01*
X11418Y32322D01*
X10374Y32460D01*
X5374D01*
X4330Y32322D01*
X3357Y31919D01*
X2639Y31368D01*
X2039Y31552D01*
Y35299D01*
X2639Y35482D01*
X3357Y34931D01*
X4330Y34528D01*
X5374Y34391D01*
X10374D01*
X11418Y34528D01*
X12391Y34931D01*
X13227Y35572D01*
X13868Y36408D01*
X14271Y37381D01*
X14409Y38425D01*
X14271Y39469D01*
X13868Y40442D01*
X13227Y41278D01*
X12391Y41919D01*
X11418Y42322D01*
X10374Y42460D01*
X5374D01*
X4330Y42322D01*
X3357Y41919D01*
X2639Y41368D01*
X2039Y41552D01*
Y45299D01*
X2639Y45482D01*
X3357Y44931D01*
X4330Y44528D01*
X5374Y44391D01*
X10374D01*
X11418Y44528D01*
X12391Y44931D01*
X13227Y45572D01*
X13868Y46408D01*
X14271Y47381D01*
X14409Y48425D01*
X14271Y49469D01*
X13868Y50442D01*
X13227Y51278D01*
X12391Y51919D01*
X11418Y52322D01*
X10374Y52460D01*
X5374D01*
X4330Y52322D01*
X3357Y51919D01*
X2639Y51369D01*
X2039Y51552D01*
Y55299D01*
X2639Y55482D01*
X3357Y54931D01*
X4330Y54528D01*
X5374Y54391D01*
X10374D01*
X11418Y54528D01*
X12391Y54931D01*
X13227Y55572D01*
X13868Y56408D01*
X14028Y56794D01*
X28425D01*
X29050Y56918D01*
X29579Y57272D01*
X49672Y77365D01*
X50323Y77167D01*
X50428Y76642D01*
X50914Y75914D01*
X51642Y75428D01*
X52500Y75257D01*
X53358Y75428D01*
X54086Y75914D01*
X54572Y76642D01*
X54727Y77420D01*
X77580Y100273D01*
X78358Y100428D01*
X79086Y100914D01*
X79572Y101642D01*
X79727Y102420D01*
X87580Y110273D01*
X88358Y110428D01*
X89086Y110914D01*
X89572Y111642D01*
X89743Y112500D01*
X89572Y113358D01*
X89086Y114086D01*
X88358Y114572D01*
X87833Y114677D01*
X87635Y115328D01*
X106154Y133846D01*
X106507Y134376D01*
X106631Y135000D01*
Y154482D01*
X107072Y155142D01*
X107243Y156000D01*
X107072Y156858D01*
X106586Y157586D01*
X105858Y158072D01*
X105000Y158243D01*
X104142Y158072D01*
X103414Y157586D01*
X102928Y156858D01*
X102757Y156000D01*
X102500Y155743D01*
X101642Y155572D01*
X101231Y155298D01*
X100631Y155619D01*
Y187500D01*
X100507Y188124D01*
X100154Y188654D01*
X89153Y199653D01*
X88624Y200007D01*
X88000Y200131D01*
X86018D01*
X85358Y200572D01*
X84500Y200743D01*
X83642Y200572D01*
X82914Y200086D01*
X82428Y199358D01*
X82257Y198500D01*
X82428Y197642D01*
X82914Y196914D01*
X83642Y196428D01*
X84500Y196257D01*
X85358Y196428D01*
X86018Y196869D01*
X87324D01*
X97369Y186824D01*
Y159619D01*
X96769Y159298D01*
X96358Y159572D01*
X95500Y159743D01*
X94642Y159572D01*
X93914Y159086D01*
X93428Y158358D01*
X93273Y157580D01*
X88846Y153154D01*
X88493Y152624D01*
X88369Y152000D01*
Y135676D01*
X42420Y89727D01*
X41642Y89572D01*
X40914Y89086D01*
X40428Y88358D01*
X40257Y87500D01*
X40428Y86642D01*
X40914Y85914D01*
X41642Y85428D01*
X42208Y85315D01*
X42757Y85000D01*
X42928Y84142D01*
X43414Y83414D01*
X44142Y82928D01*
X44708Y82815D01*
X45257Y82500D01*
X45428Y81642D01*
X45914Y80914D01*
X46642Y80428D01*
X47167Y80323D01*
X47365Y79672D01*
X27749Y60057D01*
X14028D01*
X13868Y60443D01*
X13227Y61278D01*
X12391Y61919D01*
X11418Y62322D01*
X10374Y62460D01*
X5374D01*
X4330Y62322D01*
X3357Y61919D01*
X2639Y61369D01*
X2039Y61552D01*
Y65299D01*
X2639Y65482D01*
X3357Y64931D01*
X4330Y64528D01*
X5374Y64391D01*
X7374D01*
Y68425D01*
Y72460D01*
X5374D01*
X4330Y72322D01*
X3357Y71919D01*
X2639Y71369D01*
X2039Y71552D01*
Y75299D01*
X2639Y75482D01*
X3357Y74931D01*
X4330Y74528D01*
X5374Y74391D01*
X7374D01*
Y78425D01*
Y82460D01*
X5374D01*
X4330Y82322D01*
X3357Y81919D01*
X2639Y81369D01*
X2039Y81552D01*
Y85299D01*
X2639Y85482D01*
X3357Y84931D01*
X4330Y84528D01*
X5374Y84391D01*
X10374D01*
X11418Y84528D01*
X12391Y84931D01*
X13227Y85572D01*
X13868Y86408D01*
X14271Y87381D01*
X14409Y88425D01*
X14271Y89469D01*
X13868Y90443D01*
X13227Y91278D01*
X12391Y91919D01*
X11418Y92322D01*
X10374Y92460D01*
X5374D01*
X4330Y92322D01*
X3357Y91919D01*
X2639Y91369D01*
X2039Y91552D01*
Y95299D01*
X2639Y95482D01*
X3357Y94931D01*
X4330Y94528D01*
X5374Y94391D01*
X10374D01*
X11418Y94528D01*
X12391Y94931D01*
X13227Y95572D01*
X13868Y96408D01*
X14271Y97381D01*
X14409Y98425D01*
X14271Y99469D01*
X13868Y100443D01*
X13227Y101278D01*
X12391Y101919D01*
X11418Y102322D01*
X10374Y102460D01*
X5374D01*
X4330Y102322D01*
X3357Y101919D01*
X2639Y101369D01*
X2039Y101552D01*
Y105299D01*
X2639Y105482D01*
X3357Y104931D01*
X4330Y104528D01*
X5374Y104391D01*
X10374D01*
X11418Y104528D01*
X12391Y104931D01*
X13227Y105572D01*
X13868Y106408D01*
X14271Y107381D01*
X14409Y108425D01*
X14271Y109469D01*
X13868Y110442D01*
X13227Y111278D01*
X12391Y111919D01*
X11418Y112322D01*
X10374Y112460D01*
X5374D01*
X4330Y112322D01*
X3357Y111919D01*
X2639Y111369D01*
X2039Y111552D01*
Y115299D01*
X2639Y115482D01*
X3357Y114931D01*
X4330Y114528D01*
X5374Y114391D01*
X10374D01*
X11418Y114528D01*
X12391Y114931D01*
X13227Y115572D01*
X13868Y116408D01*
X14271Y117381D01*
X14409Y118425D01*
X14271Y119469D01*
X13868Y120442D01*
X13227Y121278D01*
X12391Y121919D01*
X11418Y122322D01*
X10374Y122460D01*
X5374D01*
X4330Y122322D01*
X3357Y121919D01*
X2639Y121369D01*
X2039Y121552D01*
Y125299D01*
X2639Y125482D01*
X3357Y124931D01*
X4330Y124528D01*
X5374Y124391D01*
X10374D01*
X11418Y124528D01*
X12391Y124931D01*
X13227Y125572D01*
X13868Y126408D01*
X14271Y127381D01*
X14409Y128425D01*
X14271Y129469D01*
X13868Y130443D01*
X13227Y131278D01*
X12391Y131919D01*
X11418Y132322D01*
X10374Y132460D01*
X5374D01*
X4330Y132322D01*
X3357Y131919D01*
X2639Y131369D01*
X2039Y131552D01*
Y135299D01*
X2639Y135482D01*
X3357Y134931D01*
X4330Y134528D01*
X5374Y134391D01*
X10374D01*
X11418Y134528D01*
X12391Y134931D01*
X13227Y135572D01*
X13868Y136408D01*
X14271Y137381D01*
X14409Y138425D01*
X14271Y139469D01*
X13868Y140443D01*
X13227Y141278D01*
X12391Y141919D01*
X11418Y142322D01*
X10374Y142460D01*
X5374D01*
X4330Y142322D01*
X3357Y141919D01*
X2639Y141369D01*
X2039Y141552D01*
Y145299D01*
X2639Y145482D01*
X3357Y144931D01*
X4330Y144528D01*
X5374Y144391D01*
X10374D01*
X11418Y144528D01*
X12391Y144931D01*
X13227Y145572D01*
X13868Y146408D01*
X14271Y147381D01*
X14409Y148425D01*
X14271Y149469D01*
X13868Y150443D01*
X13227Y151278D01*
X12391Y151919D01*
X11418Y152322D01*
X10374Y152460D01*
X5374D01*
X4330Y152322D01*
X3357Y151919D01*
X2639Y151369D01*
X2039Y151552D01*
Y155299D01*
X2639Y155482D01*
X3357Y154931D01*
X4330Y154528D01*
X5374Y154391D01*
X10374D01*
X11418Y154528D01*
X12391Y154931D01*
X13227Y155572D01*
X13868Y156408D01*
X14271Y157381D01*
X14409Y158425D01*
X14271Y159469D01*
X13868Y160442D01*
X13227Y161278D01*
X12391Y161919D01*
X11418Y162322D01*
X10374Y162460D01*
X5374D01*
X4330Y162322D01*
X3357Y161919D01*
X2639Y161369D01*
X2039Y161552D01*
Y165299D01*
X2639Y165482D01*
X3357Y164931D01*
X4330Y164528D01*
X5374Y164391D01*
X7374D01*
Y168425D01*
Y172460D01*
X5374D01*
X4330Y172322D01*
X3357Y171919D01*
X2639Y171369D01*
X2039Y171552D01*
Y175299D01*
X2639Y175482D01*
X3357Y174931D01*
X4330Y174528D01*
X5374Y174391D01*
X10374D01*
X11418Y174528D01*
X12391Y174931D01*
X13227Y175572D01*
X13868Y176408D01*
X14271Y177381D01*
X14409Y178425D01*
X14271Y179469D01*
X13868Y180443D01*
X13227Y181278D01*
X12391Y181919D01*
X11418Y182322D01*
X10374Y182460D01*
X5374D01*
X4330Y182322D01*
X3357Y181919D01*
X2639Y181369D01*
X2039Y181552D01*
Y185299D01*
X2639Y185482D01*
X3357Y184931D01*
X4330Y184528D01*
X5374Y184391D01*
X7374D01*
Y188425D01*
Y192460D01*
X5374D01*
X4330Y192322D01*
X3357Y191919D01*
X2639Y191369D01*
X2039Y191552D01*
Y195299D01*
X2639Y195482D01*
X3357Y194931D01*
X4330Y194528D01*
X5374Y194391D01*
X10374D01*
X11418Y194528D01*
X12391Y194931D01*
X13227Y195572D01*
X13868Y196408D01*
X14271Y197381D01*
X14409Y198425D01*
X14271Y199469D01*
X13868Y200443D01*
X13227Y201278D01*
X12391Y201919D01*
X11418Y202322D01*
X10374Y202460D01*
X5374D01*
X4330Y202322D01*
X3357Y201919D01*
X2639Y201369D01*
X2039Y201552D01*
Y205299D01*
X2639Y205482D01*
X3357Y204931D01*
X4330Y204528D01*
X5374Y204391D01*
X7374D01*
Y208425D01*
Y212460D01*
X5374D01*
X4330Y212322D01*
X3357Y211919D01*
X2639Y211369D01*
X2039Y211552D01*
Y214425D01*
X14374D01*
Y222425D01*
X2039D01*
Y251961D01*
X23855D01*
X23926Y251361D01*
X23689Y251304D01*
X21726Y250491D01*
X19914Y249381D01*
X18299Y248001D01*
X16918Y246385D01*
X15808Y244573D01*
X14995Y242610D01*
X14499Y240544D01*
X14332Y238425D01*
X14499Y236307D01*
X14995Y234241D01*
X15808Y232277D01*
X16918Y230466D01*
X18299Y228850D01*
X19914Y227470D01*
X21726Y226359D01*
X23689Y225546D01*
X25756Y225050D01*
X27874Y224884D01*
X29992Y225050D01*
X32059Y225546D01*
X34022Y226359D01*
X35834Y227470D01*
X37449Y228850D01*
X38829Y230466D01*
X39940Y232277D01*
X40753Y234241D01*
X41249Y236307D01*
X41416Y238425D01*
X41249Y240544D01*
X40753Y242610D01*
X39940Y244573D01*
X38829Y246385D01*
X37449Y248001D01*
X35834Y249381D01*
X34022Y250491D01*
X32059Y251304D01*
X31822Y251361D01*
X31894Y251961D01*
X173855D01*
X173926Y251361D01*
X173689Y251304D01*
X171726Y250491D01*
X169914Y249381D01*
X168299Y248001D01*
X166919Y246385D01*
X165808Y244573D01*
X164995Y242610D01*
X164499Y240544D01*
X164332Y238425D01*
X164499Y236307D01*
X164995Y234241D01*
X165808Y232277D01*
X166919Y230466D01*
X168299Y228850D01*
X169914Y227470D01*
X171726Y226359D01*
X173689Y225546D01*
X175756Y225050D01*
X177874Y224884D01*
X179992Y225050D01*
X182059Y225546D01*
X184022Y226359D01*
X185834Y227470D01*
X187450Y228850D01*
X188830Y230466D01*
X189940Y232277D01*
X190753Y234241D01*
X191249Y236307D01*
X191416Y238425D01*
X191249Y240544D01*
X190753Y242610D01*
X189940Y244573D01*
X188830Y246385D01*
X187450Y248001D01*
X185834Y249381D01*
X184022Y250491D01*
X182059Y251304D01*
X181822Y251361D01*
X181894Y251961D01*
X203461D01*
Y222425D01*
D02*
G37*
G36*
X65631Y53697D02*
Y14246D01*
X65021Y13778D01*
X64380Y12943D01*
X63977Y11969D01*
X63840Y10925D01*
Y5925D01*
X63977Y4881D01*
X64380Y3908D01*
X65021Y3072D01*
X65586Y2639D01*
X65382Y2039D01*
X60366D01*
X60162Y2639D01*
X60727Y3072D01*
X61368Y3908D01*
X61771Y4881D01*
X61909Y5925D01*
Y10925D01*
X61771Y11969D01*
X61368Y12943D01*
X60727Y13778D01*
X59891Y14419D01*
X58918Y14822D01*
X57874Y14960D01*
X56830Y14822D01*
X55857Y14419D01*
X55021Y13778D01*
X54380Y12943D01*
X53977Y11969D01*
X53839Y10925D01*
Y5925D01*
X53977Y4881D01*
X54380Y3908D01*
X55021Y3072D01*
X55586Y2639D01*
X55382Y2039D01*
X50366D01*
X50162Y2639D01*
X50727Y3072D01*
X51368Y3908D01*
X51771Y4881D01*
X51908Y5925D01*
Y10925D01*
X51771Y11969D01*
X51368Y12943D01*
X50727Y13778D01*
X49891Y14419D01*
X48918Y14822D01*
X47874Y14960D01*
X46830Y14822D01*
X45857Y14419D01*
X45021Y13778D01*
X44380Y12943D01*
X43977Y11969D01*
X43839Y10925D01*
Y5925D01*
X43977Y4881D01*
X44380Y3908D01*
X45021Y3072D01*
X45586Y2639D01*
X45382Y2039D01*
X40366D01*
X40162Y2639D01*
X40727Y3072D01*
X41368Y3908D01*
X41771Y4881D01*
X41908Y5925D01*
Y10925D01*
X41771Y11969D01*
X41368Y12943D01*
X40727Y13778D01*
X39891Y14419D01*
X38918Y14822D01*
X37874Y14960D01*
X36830Y14822D01*
X35857Y14419D01*
X35021Y13778D01*
X34380Y12943D01*
X33977Y11969D01*
X33839Y10925D01*
Y5925D01*
X33977Y4881D01*
X34380Y3908D01*
X35021Y3072D01*
X35586Y2639D01*
X35382Y2039D01*
X30366D01*
X30162Y2639D01*
X30727Y3072D01*
X31368Y3908D01*
X31771Y4881D01*
X31909Y5925D01*
Y10925D01*
X31771Y11969D01*
X31368Y12943D01*
X30727Y13778D01*
X29891Y14419D01*
X28918Y14822D01*
X27874Y14960D01*
X26830Y14822D01*
X25857Y14419D01*
X25021Y13778D01*
X24380Y12943D01*
X23977Y11969D01*
X23840Y10925D01*
Y5925D01*
X23977Y4881D01*
X24380Y3908D01*
X25021Y3072D01*
X25586Y2639D01*
X25382Y2039D01*
X20366D01*
X20162Y2639D01*
X20727Y3072D01*
X21368Y3908D01*
X21771Y4881D01*
X21908Y5925D01*
Y10925D01*
X21771Y11969D01*
X21368Y12943D01*
X20727Y13778D01*
X19891Y14419D01*
X18918Y14822D01*
X17874Y14960D01*
X16830Y14822D01*
X15857Y14419D01*
X15021Y13778D01*
X14380Y12943D01*
X13977Y11969D01*
X13839Y10925D01*
Y5925D01*
X13977Y4881D01*
X14380Y3908D01*
X15021Y3072D01*
X15586Y2639D01*
X15382Y2039D01*
X11874D01*
Y7925D01*
X7874D01*
X3874D01*
Y2039D01*
X2039D01*
Y25299D01*
X2639Y25482D01*
X3357Y24931D01*
X4330Y24528D01*
X5374Y24391D01*
X10374D01*
X11418Y24528D01*
X12391Y24931D01*
X13227Y25572D01*
X13695Y26182D01*
X25925D01*
X26784Y26353D01*
X27511Y26839D01*
X60000Y59328D01*
X65631Y53697D01*
D02*
G37*
%LPC*%
G36*
X197374Y222425D02*
X191374D01*
Y218925D01*
X197374D01*
Y222425D01*
D02*
G37*
G36*
Y217925D02*
X191374D01*
Y214425D01*
X197374D01*
Y217925D01*
D02*
G37*
G36*
X10374Y212460D02*
X8374D01*
Y208925D01*
X14343D01*
X14271Y209469D01*
X13868Y210442D01*
X13227Y211278D01*
X12391Y211919D01*
X11418Y212322D01*
X10374Y212460D01*
D02*
G37*
G36*
X14343Y207925D02*
X8374D01*
Y204391D01*
X10374D01*
X11418Y204528D01*
X12391Y204931D01*
X13227Y205572D01*
X13868Y206408D01*
X14271Y207381D01*
X14343Y207925D01*
D02*
G37*
G36*
X197374Y192460D02*
X195374D01*
X194330Y192322D01*
X193357Y191919D01*
X192521Y191278D01*
X191880Y190443D01*
X191477Y189469D01*
X191405Y188925D01*
X197374D01*
Y192460D01*
D02*
G37*
G36*
X10374D02*
X8374D01*
Y188925D01*
X14343D01*
X14271Y189469D01*
X13868Y190443D01*
X13227Y191278D01*
X12391Y191919D01*
X11418Y192322D01*
X10374Y192460D01*
D02*
G37*
G36*
X197374Y187925D02*
X191405D01*
X191477Y187381D01*
X191880Y186408D01*
X192521Y185572D01*
X193357Y184931D01*
X194330Y184528D01*
X195374Y184391D01*
X197374D01*
Y187925D01*
D02*
G37*
G36*
X14343D02*
X8374D01*
Y184391D01*
X10374D01*
X11418Y184528D01*
X12391Y184931D01*
X13227Y185572D01*
X13868Y186408D01*
X14271Y187381D01*
X14343Y187925D01*
D02*
G37*
G36*
X10374Y172460D02*
X8374D01*
Y168925D01*
X14343D01*
X14271Y169469D01*
X13868Y170442D01*
X13227Y171278D01*
X12391Y171919D01*
X11418Y172322D01*
X10374Y172460D01*
D02*
G37*
G36*
X14343Y167925D02*
X8374D01*
Y164391D01*
X10374D01*
X11418Y164528D01*
X12391Y164931D01*
X13227Y165572D01*
X13868Y166408D01*
X14271Y167381D01*
X14343Y167925D01*
D02*
G37*
G36*
X197374Y162460D02*
X195374D01*
X194330Y162322D01*
X193357Y161919D01*
X192521Y161278D01*
X191880Y160442D01*
X191477Y159469D01*
X191405Y158925D01*
X197374D01*
Y162460D01*
D02*
G37*
G36*
Y157925D02*
X191405D01*
X191477Y157381D01*
X191880Y156408D01*
X192521Y155572D01*
X193357Y154931D01*
X194330Y154528D01*
X195374Y154391D01*
X197374D01*
Y157925D01*
D02*
G37*
G36*
Y142460D02*
X195374D01*
X194330Y142322D01*
X193357Y141919D01*
X192521Y141278D01*
X191880Y140443D01*
X191477Y139469D01*
X191405Y138925D01*
X197374D01*
Y142460D01*
D02*
G37*
G36*
Y137925D02*
X191405D01*
X191477Y137381D01*
X191880Y136408D01*
X192521Y135572D01*
X193357Y134931D01*
X194330Y134528D01*
X195374Y134391D01*
X197374D01*
Y137925D01*
D02*
G37*
G36*
X89500Y180243D02*
X81000D01*
X80142Y180072D01*
X79414Y179586D01*
X66914Y167086D01*
X66428Y166358D01*
X66257Y165500D01*
Y158000D01*
Y137500D01*
Y134000D01*
X66428Y133142D01*
X66914Y132414D01*
X67642Y131928D01*
X68500Y131757D01*
X69358Y131928D01*
X70086Y132414D01*
X70572Y133142D01*
X70743Y134000D01*
Y137500D01*
Y158000D01*
Y164571D01*
X81929Y175757D01*
X89500D01*
X90358Y175928D01*
X91086Y176414D01*
X91572Y177142D01*
X91743Y178000D01*
X91572Y178858D01*
X91086Y179586D01*
X90358Y180072D01*
X89500Y180243D01*
D02*
G37*
G36*
X197374Y132460D02*
X195374D01*
X194330Y132322D01*
X193357Y131919D01*
X192521Y131278D01*
X191880Y130443D01*
X191477Y129469D01*
X191405Y128925D01*
X197374D01*
Y132460D01*
D02*
G37*
G36*
Y127925D02*
X191405D01*
X191477Y127381D01*
X191880Y126408D01*
X192521Y125572D01*
X193357Y124931D01*
X194330Y124528D01*
X195374Y124391D01*
X197374D01*
Y127925D01*
D02*
G37*
G36*
X10374Y82460D02*
X8374D01*
Y78925D01*
X14343D01*
X14271Y79469D01*
X13868Y80443D01*
X13227Y81278D01*
X12391Y81919D01*
X11418Y82322D01*
X10374Y82460D01*
D02*
G37*
G36*
X14343Y77925D02*
X8374D01*
Y74391D01*
X10374D01*
X11418Y74528D01*
X12391Y74931D01*
X13227Y75572D01*
X13868Y76408D01*
X14271Y77381D01*
X14343Y77925D01*
D02*
G37*
G36*
X197374Y72460D02*
X195374D01*
X194330Y72322D01*
X193357Y71919D01*
X192521Y71278D01*
X191880Y70442D01*
X191477Y69469D01*
X191405Y68925D01*
X197374D01*
Y72460D01*
D02*
G37*
G36*
X10374D02*
X8374D01*
Y68925D01*
X14343D01*
X14271Y69469D01*
X13868Y70442D01*
X13227Y71278D01*
X12391Y71919D01*
X11418Y72322D01*
X10374Y72460D01*
D02*
G37*
G36*
X197374Y67925D02*
X191405D01*
X191477Y67381D01*
X191880Y66408D01*
X192521Y65572D01*
X193357Y64931D01*
X194330Y64528D01*
X195374Y64391D01*
X197374D01*
Y67925D01*
D02*
G37*
G36*
X14343D02*
X8374D01*
Y64391D01*
X10374D01*
X11418Y64528D01*
X12391Y64931D01*
X13227Y65572D01*
X13868Y66408D01*
X14271Y67381D01*
X14343Y67925D01*
D02*
G37*
G36*
X197374Y62460D02*
X195374D01*
X194330Y62322D01*
X193357Y61919D01*
X192521Y61278D01*
X191880Y60443D01*
X191477Y59469D01*
X191405Y58925D01*
X197374D01*
Y62460D01*
D02*
G37*
G36*
Y57925D02*
X191405D01*
X191477Y57381D01*
X191880Y56408D01*
X192521Y55572D01*
X193357Y54931D01*
X194330Y54528D01*
X195374Y54391D01*
X197374D01*
Y57925D01*
D02*
G37*
G36*
X97874Y51967D02*
X95756Y51800D01*
X93689Y51304D01*
X91726Y50491D01*
X89914Y49381D01*
X88299Y48001D01*
X86918Y46385D01*
X85808Y44573D01*
X84995Y42610D01*
X84499Y40544D01*
X84332Y38425D01*
X84499Y36307D01*
X84995Y34241D01*
X85808Y32277D01*
X86918Y30466D01*
X88299Y28850D01*
X89914Y27470D01*
X91726Y26359D01*
X93689Y25546D01*
X95756Y25050D01*
X97874Y24883D01*
X99992Y25050D01*
X102059Y25546D01*
X104022Y26359D01*
X105834Y27470D01*
X107449Y28850D01*
X108829Y30466D01*
X109940Y32277D01*
X110753Y34241D01*
X111249Y36307D01*
X111416Y38425D01*
X111249Y40544D01*
X110753Y42610D01*
X109940Y44573D01*
X108829Y46385D01*
X107449Y48001D01*
X105834Y49381D01*
X104022Y50491D01*
X102059Y51304D01*
X99992Y51800D01*
X97874Y51967D01*
D02*
G37*
G36*
X98374Y14894D02*
Y8925D01*
X101909D01*
Y10925D01*
X101771Y11969D01*
X101368Y12943D01*
X100727Y13778D01*
X99891Y14419D01*
X98918Y14822D01*
X98374Y14894D01*
D02*
G37*
G36*
X88374D02*
Y8925D01*
X91909D01*
Y10925D01*
X91771Y11969D01*
X91368Y12943D01*
X90727Y13778D01*
X89891Y14419D01*
X88918Y14822D01*
X88374Y14894D01*
D02*
G37*
G36*
X97374D02*
X96830Y14822D01*
X95857Y14419D01*
X95021Y13778D01*
X94380Y12943D01*
X93977Y11969D01*
X93840Y10925D01*
Y8925D01*
X97374D01*
Y14894D01*
D02*
G37*
G36*
X87374D02*
X86830Y14822D01*
X85857Y14419D01*
X85021Y13778D01*
X84380Y12943D01*
X83977Y11969D01*
X83839Y10925D01*
Y8925D01*
X87374D01*
Y14894D01*
D02*
G37*
G36*
X11874Y14925D02*
X8374D01*
Y8925D01*
X11874D01*
Y14925D01*
D02*
G37*
G36*
X7374D02*
X3874D01*
Y8925D01*
X7374D01*
Y14925D01*
D02*
G37*
%LPD*%
D35*
X88000Y198500D02*
X99000Y187500D01*
X84500Y198500D02*
X88000D01*
X77500Y102500D02*
X87500Y112500D01*
X52500Y77500D02*
X77500Y102500D01*
X42500Y87500D02*
X90000Y135000D01*
X45000Y85000D02*
X92500Y132500D01*
X47500Y82500D02*
X102500Y137500D01*
X105000Y135000D02*
Y156000D01*
X28425Y58425D02*
X105000Y135000D01*
X7874Y58425D02*
X28425D01*
X90000Y135000D02*
Y152000D01*
X95500Y157500D01*
X92500Y132500D02*
Y150500D01*
X95500Y153500D01*
X99000Y141000D02*
Y187500D01*
X98000Y140000D02*
X99000Y141000D01*
X102500Y137500D02*
Y153500D01*
D36*
X110000Y102500D02*
X115000D01*
X127244Y114744D01*
Y131244D01*
X115000Y102500D02*
X129075Y88425D01*
X197874D01*
X81000Y178000D02*
X89500D01*
X68500Y165500D02*
X81000Y178000D01*
X68500Y158000D02*
Y165500D01*
Y137500D02*
Y158000D01*
X87500Y90000D02*
Y95000D01*
X60000Y62500D02*
X87500Y90000D01*
X25925Y28425D02*
X60000Y62500D01*
X67874Y54626D01*
Y8425D02*
Y54626D01*
X7874Y28425D02*
X25925D01*
X68500Y134000D02*
Y137500D01*
D38*
X177874Y238425D02*
D03*
X27874D02*
D03*
X97874Y38425D02*
D03*
D39*
X197874Y28425D02*
D03*
Y38425D02*
D03*
Y48425D02*
D03*
Y58425D02*
D03*
Y68425D02*
D03*
Y78425D02*
D03*
Y88425D02*
D03*
Y98425D02*
D03*
Y108425D02*
D03*
Y118425D02*
D03*
Y128425D02*
D03*
Y138425D02*
D03*
Y148425D02*
D03*
Y158425D02*
D03*
Y168425D02*
D03*
Y178425D02*
D03*
Y188425D02*
D03*
Y198425D02*
D03*
Y208425D02*
D03*
X7874Y28425D02*
D03*
Y38425D02*
D03*
Y48425D02*
D03*
Y58425D02*
D03*
Y68425D02*
D03*
Y78425D02*
D03*
Y88425D02*
D03*
Y98425D02*
D03*
Y108425D02*
D03*
Y118425D02*
D03*
Y128425D02*
D03*
Y138425D02*
D03*
Y148425D02*
D03*
Y158425D02*
D03*
Y168425D02*
D03*
Y178425D02*
D03*
Y188425D02*
D03*
Y198425D02*
D03*
Y208425D02*
D03*
D40*
X197874Y218425D02*
D03*
X7874D02*
D03*
D41*
X197874Y8425D02*
D03*
X187874D02*
D03*
X177874D02*
D03*
X167874D02*
D03*
X157874D02*
D03*
X147874D02*
D03*
X137874D02*
D03*
X127874D02*
D03*
X117874D02*
D03*
X107874D02*
D03*
X97874D02*
D03*
X87874D02*
D03*
X77874D02*
D03*
X67874D02*
D03*
X57874D02*
D03*
X47874D02*
D03*
X37874D02*
D03*
X27874D02*
D03*
X17874D02*
D03*
D42*
X7874D02*
D03*
D43*
X57500Y50500D02*
D03*
X38500D02*
D03*
X110500Y109000D02*
D03*
X84500Y198500D02*
D03*
X92000Y109000D02*
D03*
X101250D02*
D03*
X110000Y102500D02*
D03*
X127244Y131244D02*
D03*
X77500Y102500D02*
D03*
X115000D02*
D03*
X89500Y178000D02*
D03*
X68500Y158000D02*
D03*
X42500Y87500D02*
D03*
X45000Y85000D02*
D03*
X47500Y82500D02*
D03*
X87500Y95000D02*
D03*
Y112500D02*
D03*
X52500Y77500D02*
D03*
X50000Y80000D02*
D03*
X95500Y157500D02*
D03*
Y153500D02*
D03*
X105000Y156000D02*
D03*
X102500Y153500D02*
D03*
X68500Y137500D02*
D03*
Y134000D02*
D03*
X98000Y140000D02*
D03*
M02*
