G04*
G04 #@! TF.GenerationSoftware,Altium Limited,Altium Designer,19.0.12 (326)*
G04*
G04 Layer_Color=32896*
%FSLAX25Y25*%
%MOIN*%
G70*
G01*
G75*
%ADD12C,0.01181*%
%ADD14C,0.01000*%
G36*
X135015Y196368D02*
X136899D01*
Y196179D01*
X138218D01*
Y195991D01*
X139348D01*
Y195802D01*
X140290D01*
Y195614D01*
X141044D01*
Y195426D01*
X141797D01*
Y195237D01*
X142362D01*
Y195049D01*
X142928D01*
Y194860D01*
X143493D01*
Y194672D01*
X144058D01*
Y194484D01*
X144435D01*
Y194295D01*
X145000D01*
Y194107D01*
X145377D01*
Y193919D01*
X145942D01*
Y193730D01*
X146319D01*
Y193542D01*
X146695D01*
Y193353D01*
X147072D01*
Y193165D01*
X147449D01*
Y192977D01*
X147826D01*
Y192788D01*
X148203D01*
Y192600D01*
X148579D01*
Y192411D01*
X148956D01*
Y192223D01*
X149145D01*
Y192035D01*
X149521D01*
Y191846D01*
X149710D01*
Y191658D01*
X150087D01*
Y191470D01*
X150463D01*
Y191281D01*
X150652D01*
Y191093D01*
X151029D01*
Y190904D01*
X151217D01*
Y190716D01*
X151405D01*
Y190527D01*
X151782D01*
Y190339D01*
X151971D01*
Y190151D01*
X152347D01*
Y189962D01*
X152536D01*
Y189774D01*
X152724D01*
Y189586D01*
X152912D01*
Y189397D01*
X153289D01*
Y189209D01*
X153478D01*
Y189020D01*
X153666D01*
Y188832D01*
X153854D01*
Y188644D01*
X154043D01*
Y188455D01*
X154231D01*
Y188267D01*
X154420D01*
Y188078D01*
X154608D01*
Y187890D01*
X154985D01*
Y187702D01*
X155173D01*
Y187513D01*
X155361D01*
Y187325D01*
X155550D01*
Y187136D01*
X155738D01*
Y186948D01*
X155927D01*
Y186760D01*
X156115D01*
Y186571D01*
Y186383D01*
X156304D01*
Y186195D01*
X156492D01*
Y186006D01*
X156680D01*
Y185818D01*
X156869D01*
Y185629D01*
X157057D01*
Y185441D01*
X157246D01*
Y185253D01*
X157434D01*
Y185064D01*
Y184876D01*
X157622D01*
Y184687D01*
X157811D01*
Y184499D01*
X157999D01*
Y184311D01*
X158187D01*
Y184122D01*
Y183934D01*
X158376D01*
Y183746D01*
X158564D01*
Y183557D01*
X158753D01*
Y183369D01*
Y183180D01*
X158941D01*
Y182992D01*
X159129D01*
Y182803D01*
Y182615D01*
X159318D01*
Y182427D01*
X159506D01*
Y182238D01*
Y182050D01*
X159695D01*
Y181861D01*
X159883D01*
Y181673D01*
Y181485D01*
X160071D01*
Y181296D01*
X160260D01*
Y181108D01*
Y180920D01*
X160448D01*
Y180731D01*
Y180543D01*
X160636D01*
Y180354D01*
Y180166D01*
X160825D01*
Y179978D01*
Y179789D01*
X161013D01*
Y179601D01*
X161202D01*
Y179412D01*
Y179224D01*
X161390D01*
Y179036D01*
Y178847D01*
X161579D01*
Y178659D01*
Y178471D01*
Y178282D01*
X161767D01*
Y178094D01*
Y177905D01*
X161955D01*
Y177717D01*
Y177529D01*
X162144D01*
Y177340D01*
Y177152D01*
Y176963D01*
X162332D01*
Y176775D01*
Y176587D01*
X162520D01*
Y176398D01*
Y176210D01*
X162709D01*
Y176021D01*
Y175833D01*
Y175645D01*
X162897D01*
Y175456D01*
Y175268D01*
Y175079D01*
X163086D01*
Y174891D01*
Y174703D01*
Y174514D01*
X163274D01*
Y174326D01*
Y174137D01*
Y173949D01*
X163462D01*
Y173761D01*
Y173572D01*
Y173384D01*
Y173196D01*
X163651D01*
Y173007D01*
Y172819D01*
Y172630D01*
Y172442D01*
X163839D01*
Y172254D01*
Y172065D01*
Y171877D01*
Y171688D01*
X164028D01*
Y171500D01*
Y171312D01*
Y171123D01*
Y170935D01*
Y170746D01*
X164216D01*
Y170558D01*
Y170370D01*
Y170181D01*
Y169993D01*
Y169805D01*
Y169616D01*
X164404D01*
Y169428D01*
Y169239D01*
Y169051D01*
Y168862D01*
Y168674D01*
Y168486D01*
Y168297D01*
Y168109D01*
Y167921D01*
X164593D01*
Y167732D01*
Y167544D01*
Y167355D01*
Y167167D01*
Y166979D01*
Y166790D01*
Y166602D01*
Y166413D01*
Y166225D01*
Y166037D01*
Y165848D01*
Y165660D01*
Y165471D01*
Y165283D01*
Y165095D01*
Y164906D01*
Y164718D01*
Y164530D01*
Y164341D01*
Y164153D01*
Y163964D01*
Y163776D01*
Y163588D01*
Y163399D01*
Y163211D01*
Y163022D01*
Y162834D01*
Y162646D01*
Y162457D01*
Y162269D01*
Y162080D01*
X164404D01*
Y161892D01*
Y161704D01*
Y161515D01*
Y161327D01*
Y161138D01*
Y160950D01*
Y160762D01*
Y160573D01*
Y160385D01*
Y160196D01*
X164216D01*
Y160008D01*
Y159820D01*
Y159631D01*
X164593D01*
Y159443D01*
X165346D01*
Y159255D01*
X166100D01*
Y159066D01*
X166853D01*
Y158878D01*
X167419D01*
Y158689D01*
X167795D01*
Y158501D01*
X168172D01*
Y158313D01*
X168549D01*
Y158124D01*
X168926D01*
Y157936D01*
X169114D01*
Y157747D01*
X169302D01*
Y157559D01*
Y157371D01*
X169491D01*
Y157182D01*
Y156994D01*
Y156806D01*
Y156617D01*
X169302D01*
Y156429D01*
X169114D01*
Y156240D01*
Y156052D01*
X168737D01*
Y155863D01*
X168361D01*
Y155675D01*
X168172D01*
Y155487D01*
X167607D01*
Y155298D01*
X167042D01*
Y155110D01*
X166477D01*
Y154922D01*
Y154733D01*
X167607D01*
Y154545D01*
X168926D01*
Y154356D01*
X169868D01*
Y154168D01*
X170810D01*
Y153980D01*
X171563D01*
Y153791D01*
X172317D01*
Y153603D01*
X173070D01*
Y153414D01*
X173824D01*
Y153226D01*
X174389D01*
Y153038D01*
X174766D01*
Y152849D01*
X175331D01*
Y152661D01*
X175708D01*
Y152472D01*
X176085D01*
Y152284D01*
X176273D01*
Y152096D01*
X176650D01*
Y151907D01*
X176838D01*
Y151719D01*
Y151531D01*
X177027D01*
Y151342D01*
Y151154D01*
Y150965D01*
Y150777D01*
Y150589D01*
Y150400D01*
X176838D01*
Y150212D01*
X176650D01*
Y150023D01*
X176461D01*
Y149835D01*
X176273D01*
Y149647D01*
X176085D01*
Y149458D01*
X175519D01*
Y149270D01*
X175143D01*
Y149081D01*
X174766D01*
Y148893D01*
X174201D01*
Y148705D01*
X173635D01*
Y148516D01*
X172694D01*
Y148328D01*
Y148140D01*
X173447D01*
Y147951D01*
X174577D01*
Y147763D01*
X175519D01*
Y147574D01*
X176273D01*
Y147386D01*
X177215D01*
Y147197D01*
X177969D01*
Y147009D01*
X178534D01*
Y146821D01*
X179287D01*
Y146632D01*
X179852D01*
Y146444D01*
X180229D01*
Y146256D01*
X180794D01*
Y146067D01*
X181171D01*
Y145879D01*
X181548D01*
Y145690D01*
X181736D01*
Y145502D01*
X182113D01*
Y145314D01*
X182301D01*
Y145125D01*
X182490D01*
Y144937D01*
Y144748D01*
X182678D01*
Y144560D01*
Y144372D01*
Y144183D01*
Y143995D01*
Y143806D01*
Y143618D01*
X182490D01*
Y143430D01*
Y143241D01*
X182301D01*
Y143053D01*
X182113D01*
Y142865D01*
X181736D01*
Y142676D01*
X181548D01*
Y142488D01*
X181171D01*
Y142299D01*
X180794D01*
Y142111D01*
X180229D01*
Y141922D01*
X179852D01*
Y141734D01*
X179099D01*
Y141546D01*
X178722D01*
Y141357D01*
Y141169D01*
X179476D01*
Y140981D01*
X180418D01*
Y140792D01*
X181171D01*
Y140604D01*
X181736D01*
Y140415D01*
X182490D01*
Y140227D01*
X183055D01*
Y140039D01*
X183620D01*
Y139850D01*
X183997D01*
Y139662D01*
X184374D01*
Y139473D01*
X184751D01*
Y139285D01*
X185127D01*
Y139097D01*
X185504D01*
Y138908D01*
X185693D01*
Y138720D01*
X185881D01*
Y138531D01*
X186069D01*
Y138343D01*
X186258D01*
Y138155D01*
Y137966D01*
Y137778D01*
X186446D01*
Y137590D01*
Y137401D01*
Y137213D01*
X186258D01*
Y137024D01*
Y136836D01*
X186069D01*
Y136648D01*
Y136459D01*
X185881D01*
Y136271D01*
X185693D01*
Y136082D01*
X185316D01*
Y135894D01*
X184939D01*
Y135706D01*
X184751D01*
Y135517D01*
X184185D01*
Y135329D01*
X183809D01*
Y135140D01*
X183432D01*
Y134952D01*
X182867D01*
Y134764D01*
X182113D01*
Y134575D01*
X181548D01*
Y134387D01*
X180794D01*
Y134198D01*
X180041D01*
Y134010D01*
X179287D01*
Y133822D01*
X178345D01*
Y133633D01*
X177403D01*
Y133445D01*
X176273D01*
Y133256D01*
X175143D01*
Y133068D01*
X174201D01*
Y132880D01*
X172694D01*
Y132691D01*
X171186D01*
Y132503D01*
X169868D01*
Y132315D01*
X168172D01*
Y132126D01*
X166288D01*
Y131938D01*
X164404D01*
Y131749D01*
X162332D01*
Y131561D01*
X159506D01*
Y131373D01*
X156869D01*
Y131184D01*
X153854D01*
Y130996D01*
X149898D01*
Y130807D01*
X149710D01*
Y130996D01*
X149521D01*
Y130807D01*
X149333D01*
Y130996D01*
X149145D01*
Y130807D01*
X148956D01*
Y130996D01*
X148768D01*
Y130807D01*
X143305D01*
Y130619D01*
X122958D01*
Y130807D01*
X117306D01*
Y130996D01*
X117118D01*
Y130807D01*
X116930D01*
Y130996D01*
X116741D01*
Y130807D01*
X116553D01*
Y130996D01*
X112408D01*
Y131184D01*
X109394D01*
Y131373D01*
X106945D01*
Y131561D01*
X103931D01*
Y131749D01*
X102047D01*
Y131938D01*
X99974D01*
Y132126D01*
X98279D01*
Y132315D01*
X96395D01*
Y132503D01*
X94888D01*
Y132691D01*
X93569D01*
Y132880D01*
X92250D01*
Y133068D01*
X91120D01*
Y133256D01*
X89990D01*
Y133445D01*
X88859D01*
Y133633D01*
X87917D01*
Y133822D01*
X87164D01*
Y134010D01*
X86222D01*
Y134198D01*
X85468D01*
Y134387D01*
X84715D01*
Y134575D01*
X84149D01*
Y134764D01*
X83584D01*
Y134952D01*
X83019D01*
Y135140D01*
X82454D01*
Y135329D01*
X82077D01*
Y135517D01*
X81700D01*
Y135706D01*
X81324D01*
Y135894D01*
X80947D01*
Y136082D01*
X80759D01*
Y136271D01*
X80382D01*
Y136459D01*
X80193D01*
Y136648D01*
Y136836D01*
X80005D01*
Y137024D01*
Y137213D01*
Y137401D01*
Y137590D01*
Y137778D01*
Y137966D01*
Y138155D01*
Y138343D01*
X80193D01*
Y138531D01*
X80382D01*
Y138720D01*
X80570D01*
Y138908D01*
X80759D01*
Y139097D01*
X81135D01*
Y139285D01*
X81512D01*
Y139473D01*
X81889D01*
Y139662D01*
X82266D01*
Y139850D01*
X82831D01*
Y140039D01*
X83208D01*
Y140227D01*
X83773D01*
Y140415D01*
X84526D01*
Y140604D01*
X85092D01*
Y140792D01*
X86033D01*
Y140981D01*
X86787D01*
Y141169D01*
X87729D01*
Y141357D01*
X87541D01*
Y141546D01*
X87164D01*
Y141734D01*
X86410D01*
Y141922D01*
X86033D01*
Y142111D01*
X85468D01*
Y142299D01*
X85092D01*
Y142488D01*
X84715D01*
Y142676D01*
X84526D01*
Y142865D01*
X84149D01*
Y143053D01*
X83961D01*
Y143241D01*
X83773D01*
Y143430D01*
Y143618D01*
X83584D01*
Y143806D01*
Y143995D01*
Y144183D01*
Y144372D01*
Y144560D01*
Y144748D01*
X83773D01*
Y144937D01*
X83961D01*
Y145125D01*
Y145314D01*
X84338D01*
Y145502D01*
X84526D01*
Y145690D01*
X84903D01*
Y145879D01*
X85280D01*
Y146067D01*
X85657D01*
Y146256D01*
X86033D01*
Y146444D01*
X86599D01*
Y146632D01*
X87164D01*
Y146821D01*
X87729D01*
Y147009D01*
X88294D01*
Y147197D01*
X89048D01*
Y147386D01*
X89990D01*
Y147574D01*
X90932D01*
Y147763D01*
X91685D01*
Y147951D01*
X92816D01*
Y148140D01*
X93569D01*
Y148328D01*
X93381D01*
Y148516D01*
X92627D01*
Y148705D01*
X92062D01*
Y148893D01*
X91497D01*
Y149081D01*
X91120D01*
Y149270D01*
X90743D01*
Y149458D01*
X90366D01*
Y149647D01*
X89990D01*
Y149835D01*
X89801D01*
Y150023D01*
X89613D01*
Y150212D01*
X89425D01*
Y150400D01*
X89236D01*
Y150589D01*
Y150777D01*
Y150965D01*
Y151154D01*
Y151342D01*
Y151531D01*
X89425D01*
Y151719D01*
Y151907D01*
X89613D01*
Y152096D01*
X89990D01*
Y152284D01*
X90178D01*
Y152472D01*
X90555D01*
Y152661D01*
X90932D01*
Y152849D01*
X91497D01*
Y153038D01*
X91874D01*
Y153226D01*
X92627D01*
Y153414D01*
X93192D01*
Y153603D01*
X93946D01*
Y153791D01*
X94700D01*
Y153980D01*
X95453D01*
Y154168D01*
X96395D01*
Y154356D01*
X97337D01*
Y154545D01*
X98656D01*
Y154733D01*
X99786D01*
Y154922D01*
Y155110D01*
X99221D01*
Y155298D01*
X98656D01*
Y155487D01*
X98279D01*
Y155675D01*
X97902D01*
Y155863D01*
X97525D01*
Y156052D01*
X97337D01*
Y156240D01*
X97149D01*
Y156429D01*
X96960D01*
Y156617D01*
Y156806D01*
X96772D01*
Y156994D01*
Y157182D01*
X96960D01*
Y157371D01*
Y157559D01*
Y157747D01*
X97149D01*
Y157936D01*
X97337D01*
Y158124D01*
X97714D01*
Y158313D01*
X98090D01*
Y158501D01*
X98467D01*
Y158689D01*
X99032D01*
Y158878D01*
X99598D01*
Y159066D01*
X100163D01*
Y159255D01*
X100916D01*
Y159443D01*
X101670D01*
Y159631D01*
X102047D01*
Y159820D01*
Y160008D01*
Y160196D01*
Y160385D01*
Y160573D01*
X101858D01*
Y160762D01*
Y160950D01*
Y161138D01*
Y161327D01*
Y161515D01*
Y161704D01*
Y161892D01*
Y162080D01*
Y162269D01*
X101670D01*
Y162457D01*
Y162646D01*
Y162834D01*
Y163022D01*
Y163211D01*
Y163399D01*
Y163588D01*
Y163776D01*
Y163964D01*
Y164153D01*
Y164341D01*
Y164530D01*
Y164718D01*
Y164906D01*
Y165095D01*
Y165283D01*
Y165471D01*
Y165660D01*
Y165848D01*
Y166037D01*
Y166225D01*
Y166413D01*
Y166602D01*
Y166790D01*
Y166979D01*
Y167167D01*
Y167355D01*
Y167544D01*
X101858D01*
Y167732D01*
Y167921D01*
Y168109D01*
Y168297D01*
Y168486D01*
Y168674D01*
Y168862D01*
Y169051D01*
Y169239D01*
Y169428D01*
X102047D01*
Y169616D01*
Y169805D01*
Y169993D01*
Y170181D01*
Y170370D01*
Y170558D01*
X102235D01*
Y170746D01*
Y170935D01*
Y171123D01*
Y171312D01*
Y171500D01*
X102424D01*
Y171688D01*
Y171877D01*
Y172065D01*
Y172254D01*
Y172442D01*
X102612D01*
Y172630D01*
Y172819D01*
Y173007D01*
Y173196D01*
X102800D01*
Y173384D01*
Y173572D01*
Y173761D01*
X102989D01*
Y173949D01*
Y174137D01*
Y174326D01*
X103177D01*
Y174514D01*
Y174703D01*
Y174891D01*
X103366D01*
Y175079D01*
Y175268D01*
Y175456D01*
X103554D01*
Y175645D01*
Y175833D01*
Y176021D01*
X103742D01*
Y176210D01*
Y176398D01*
Y176587D01*
X103931D01*
Y176775D01*
Y176963D01*
X104119D01*
Y177152D01*
Y177340D01*
X104307D01*
Y177529D01*
Y177717D01*
Y177905D01*
X104496D01*
Y178094D01*
Y178282D01*
X104684D01*
Y178471D01*
Y178659D01*
X104873D01*
Y178847D01*
Y179036D01*
X105061D01*
Y179224D01*
Y179412D01*
X105249D01*
Y179601D01*
Y179789D01*
X105438D01*
Y179978D01*
Y180166D01*
X105626D01*
Y180354D01*
Y180543D01*
X105815D01*
Y180731D01*
Y180920D01*
X106003D01*
Y181108D01*
X106191D01*
Y181296D01*
Y181485D01*
X106380D01*
Y181673D01*
Y181861D01*
X106568D01*
Y182050D01*
X106756D01*
Y182238D01*
Y182427D01*
X106945D01*
Y182615D01*
X107133D01*
Y182803D01*
Y182992D01*
X107322D01*
Y183180D01*
X107510D01*
Y183369D01*
X107699D01*
Y183557D01*
Y183746D01*
X107887D01*
Y183934D01*
X108075D01*
Y184122D01*
X108264D01*
Y184311D01*
Y184499D01*
X108452D01*
Y184687D01*
X108640D01*
Y184876D01*
X108829D01*
Y185064D01*
X109017D01*
Y185253D01*
Y185441D01*
X109206D01*
Y185629D01*
X109394D01*
Y185818D01*
X109582D01*
Y186006D01*
X109771D01*
Y186195D01*
X109959D01*
Y186383D01*
X110148D01*
Y186571D01*
X110336D01*
Y186760D01*
X110524D01*
Y186948D01*
X110713D01*
Y187136D01*
X110901D01*
Y187325D01*
Y187513D01*
X111278D01*
Y187702D01*
X111466D01*
Y187890D01*
X111655D01*
Y188078D01*
X111843D01*
Y188267D01*
X112031D01*
Y188455D01*
X112220D01*
Y188644D01*
X112408D01*
Y188832D01*
X112597D01*
Y189020D01*
X112785D01*
Y189209D01*
X113162D01*
Y189397D01*
X113350D01*
Y189586D01*
X113539D01*
Y189774D01*
X113727D01*
Y189962D01*
X114104D01*
Y190151D01*
X114292D01*
Y190339D01*
X114481D01*
Y190527D01*
X114857D01*
Y190716D01*
X115046D01*
Y190904D01*
X115234D01*
Y191093D01*
X115611D01*
Y191281D01*
X115988D01*
Y191470D01*
X116176D01*
Y191658D01*
X116553D01*
Y191846D01*
X116741D01*
Y192035D01*
X117118D01*
Y192223D01*
X117495D01*
Y192411D01*
X117683D01*
Y192600D01*
X118060D01*
Y192788D01*
X118437D01*
Y192977D01*
X118814D01*
Y193165D01*
X119190D01*
Y193353D01*
X119567D01*
Y193542D01*
X119944D01*
Y193730D01*
X120321D01*
Y193919D01*
X120886D01*
Y194107D01*
X121263D01*
Y194295D01*
X121828D01*
Y194484D01*
X122205D01*
Y194672D01*
X122770D01*
Y194860D01*
X123335D01*
Y195049D01*
X123900D01*
Y195237D01*
X124465D01*
Y195426D01*
X125407D01*
Y195614D01*
X125972D01*
Y195802D01*
X126914D01*
Y195991D01*
X128045D01*
Y196179D01*
X129364D01*
Y196368D01*
X131247D01*
Y196556D01*
X135015D01*
Y196368D01*
D02*
G37*
G36*
X162030Y54366D02*
X162516Y54320D01*
X162955Y54204D01*
X163395Y54088D01*
X163788Y53949D01*
X164182Y53787D01*
X164529Y53625D01*
X164830Y53440D01*
X165131Y53255D01*
X165385Y53093D01*
X165593Y52931D01*
X165779Y52792D01*
X165940Y52677D01*
X166033Y52584D01*
X166103Y52515D01*
X166126Y52491D01*
X166450Y52121D01*
X166750Y51751D01*
X167005Y51381D01*
X167213Y50987D01*
X167398Y50594D01*
X167537Y50224D01*
X167676Y49854D01*
X167769Y49506D01*
X167838Y49183D01*
X167907Y48882D01*
X167931Y48604D01*
X167977Y48373D01*
Y48188D01*
X168000Y48049D01*
Y47956D01*
Y47933D01*
X167977Y47447D01*
X167907Y46984D01*
X167815Y46521D01*
X167699Y46105D01*
X167560Y45688D01*
X167398Y45318D01*
X167236Y44971D01*
X167051Y44647D01*
X166889Y44369D01*
X166727Y44115D01*
X166565Y43907D01*
X166427Y43721D01*
X166288Y43560D01*
X166195Y43467D01*
X166149Y43398D01*
X166126Y43374D01*
X165755Y43050D01*
X165385Y42750D01*
X164992Y42495D01*
X164598Y42287D01*
X164228Y42102D01*
X163835Y41963D01*
X163465Y41824D01*
X163118Y41731D01*
X162794Y41662D01*
X162493Y41593D01*
X162215Y41569D01*
X161984Y41523D01*
X161799D01*
X161660Y41500D01*
X161312D01*
X161104Y41523D01*
X160896D01*
Y43467D01*
X161127Y43444D01*
X161336Y43421D01*
X161544D01*
X161891Y43444D01*
X162215Y43467D01*
X162539Y43536D01*
X162840Y43629D01*
X163372Y43837D01*
X163835Y44092D01*
X164043Y44207D01*
X164228Y44323D01*
X164367Y44439D01*
X164506Y44531D01*
X164598Y44624D01*
X164668Y44693D01*
X164714Y44717D01*
X164737Y44740D01*
X164969Y44994D01*
X165177Y45272D01*
X165339Y45526D01*
X165501Y45804D01*
X165617Y46082D01*
X165732Y46336D01*
X165894Y46845D01*
X165987Y47285D01*
X166010Y47470D01*
X166033Y47632D01*
X166056Y47748D01*
Y47840D01*
Y47910D01*
Y47933D01*
X166033Y48280D01*
X166010Y48604D01*
X165940Y48928D01*
X165848Y49229D01*
X165640Y49761D01*
X165385Y50224D01*
X165269Y50432D01*
X165154Y50617D01*
X165038Y50756D01*
X164945Y50895D01*
X164853Y50987D01*
X164784Y51057D01*
X164760Y51103D01*
X164737Y51126D01*
X164483Y51358D01*
X164228Y51566D01*
X163951Y51751D01*
X163673Y51913D01*
X163418Y52029D01*
X163141Y52144D01*
X162655Y52306D01*
X162215Y52399D01*
X162007Y52422D01*
X161868Y52445D01*
X161729Y52468D01*
X161312D01*
X161104Y52445D01*
X160942Y52422D01*
X160896D01*
Y54366D01*
X161104Y54389D01*
X161544D01*
X162030Y54366D01*
D02*
G37*
G36*
X151061D02*
X151548Y54320D01*
X151987Y54204D01*
X152427Y54088D01*
X152820Y53949D01*
X153214Y53787D01*
X153561Y53625D01*
X153861Y53440D01*
X154162Y53255D01*
X154417Y53093D01*
X154625Y52931D01*
X154810Y52792D01*
X154972Y52677D01*
X155065Y52584D01*
X155134Y52515D01*
X155157Y52491D01*
X155481Y52121D01*
X155782Y51751D01*
X156037Y51381D01*
X156245Y50987D01*
X156430Y50594D01*
X156569Y50224D01*
X156708Y49854D01*
X156800Y49506D01*
X156870Y49183D01*
X156939Y48882D01*
X156962Y48604D01*
X157009Y48373D01*
Y48188D01*
X157032Y48049D01*
Y47956D01*
Y47933D01*
X157009Y47447D01*
X156939Y46984D01*
X156846Y46521D01*
X156731Y46105D01*
X156592Y45688D01*
X156430Y45318D01*
X156268Y44971D01*
X156083Y44647D01*
X155921Y44369D01*
X155759Y44115D01*
X155597Y43907D01*
X155458Y43721D01*
X155319Y43560D01*
X155227Y43467D01*
X155180Y43398D01*
X155157Y43374D01*
X154787Y43050D01*
X154417Y42750D01*
X154023Y42495D01*
X153630Y42287D01*
X153260Y42102D01*
X152866Y41963D01*
X152496Y41824D01*
X152149Y41731D01*
X151825Y41662D01*
X151524Y41593D01*
X151247Y41569D01*
X151015Y41523D01*
X150830D01*
X150691Y41500D01*
X150344D01*
X150136Y41523D01*
X149928D01*
X149951Y43467D01*
X150159Y43444D01*
X150367Y43421D01*
X150576D01*
X150876Y43444D01*
X151154Y43467D01*
X151686Y43583D01*
X152172Y43745D01*
X152589Y43930D01*
X152936Y44092D01*
X153075Y44184D01*
X153190Y44254D01*
X153306Y44323D01*
X153375Y44369D01*
X153399Y44416D01*
X153422D01*
X153838Y44809D01*
X154185Y45249D01*
X154463Y45665D01*
X154671Y46082D01*
X154810Y46429D01*
X154880Y46591D01*
X154926Y46730D01*
X154949Y46822D01*
X154972Y46915D01*
X154995Y46961D01*
Y46984D01*
X151224D01*
Y48905D01*
X154995D01*
X154833Y49460D01*
X154602Y49969D01*
X154347Y50409D01*
X154093Y50779D01*
X153838Y51080D01*
X153630Y51288D01*
X153468Y51427D01*
X153445Y51473D01*
X153422D01*
X153190Y51658D01*
X152936Y51797D01*
X152450Y52052D01*
X151964Y52237D01*
X151524Y52353D01*
X151154Y52422D01*
X150992Y52445D01*
X150853D01*
X150738Y52468D01*
X150344D01*
X150136Y52445D01*
X149974Y52422D01*
X149928D01*
Y54366D01*
X150182Y54389D01*
X150576D01*
X151061Y54366D01*
D02*
G37*
G36*
X160568Y82061D02*
X161285Y81969D01*
X161956Y81830D01*
X162604Y81645D01*
X163206Y81437D01*
X163761Y81182D01*
X164294Y80928D01*
X164756Y80673D01*
X165196Y80395D01*
X165566Y80141D01*
X165890Y79909D01*
X166168Y79678D01*
X166399Y79493D01*
X166538Y79354D01*
X166654Y79262D01*
X166677Y79238D01*
X167163Y78683D01*
X167603Y78128D01*
X167996Y77549D01*
X168297Y76971D01*
X168574Y76392D01*
X168806Y75814D01*
X168991Y75282D01*
X169153Y74749D01*
X169269Y74263D01*
X169361Y73800D01*
X169407Y73407D01*
X169454Y73060D01*
X169477Y72782D01*
X169500Y72574D01*
Y72435D01*
Y72412D01*
Y72389D01*
X169477Y71649D01*
X169384Y70954D01*
X169246Y70260D01*
X169060Y69635D01*
X168852Y69034D01*
X168597Y68455D01*
X168343Y67946D01*
X168088Y67460D01*
X167834Y67044D01*
X167579Y66650D01*
X167325Y66326D01*
X167117Y66049D01*
X166931Y65840D01*
X166793Y65678D01*
X166700Y65563D01*
X166677Y65539D01*
X166145Y65054D01*
X165566Y64614D01*
X164988Y64221D01*
X164409Y63920D01*
X163831Y63642D01*
X163275Y63411D01*
X162720Y63226D01*
X162188Y63064D01*
X161702Y62948D01*
X161239Y62855D01*
X160846Y62809D01*
X160498Y62763D01*
X160221Y62740D01*
X160013Y62717D01*
X159827D01*
X159087Y62740D01*
X158393Y62832D01*
X157722Y62971D01*
X157074Y63156D01*
X156472Y63364D01*
X155917Y63619D01*
X155385Y63873D01*
X154922Y64128D01*
X154482Y64382D01*
X154112Y64637D01*
X153788Y64892D01*
X153510Y65100D01*
X153279Y65285D01*
X153140Y65424D01*
X153024Y65516D01*
X153001Y65539D01*
X152492Y66095D01*
X152052Y66650D01*
X151682Y67229D01*
X151358Y67807D01*
X151081Y68386D01*
X150849Y68964D01*
X150664Y69520D01*
X150502Y70029D01*
X150386Y70515D01*
X150294Y70977D01*
X150248Y71371D01*
X150201Y71718D01*
X150178Y71996D01*
X150155Y72204D01*
Y72343D01*
Y72389D01*
X150178Y73129D01*
X150271Y73824D01*
X150409Y74518D01*
X150595Y75143D01*
X150803Y75744D01*
X151057Y76323D01*
X151312Y76832D01*
X151567Y77318D01*
X151844Y77758D01*
X152099Y78128D01*
X152330Y78452D01*
X152561Y78729D01*
X152747Y78961D01*
X152885Y79100D01*
X152978Y79215D01*
X153001Y79238D01*
X153533Y79747D01*
X154112Y80187D01*
X154667Y80557D01*
X155269Y80881D01*
X155824Y81159D01*
X156403Y81390D01*
X156958Y81576D01*
X157467Y81738D01*
X157953Y81853D01*
X158416Y81946D01*
X158809Y81992D01*
X159156Y82038D01*
X159434Y82061D01*
X159642Y82085D01*
X159827D01*
X160568Y82061D01*
D02*
G37*
G36*
X167000Y112210D02*
X163089Y108138D01*
X162974Y107027D01*
X162719Y104366D01*
X162534Y102445D01*
X166722Y98118D01*
X166445Y97840D01*
X162488Y101890D01*
X162256Y99414D01*
X162141D01*
Y98465D01*
X161261D01*
Y99414D01*
X158531D01*
X158438Y99229D01*
X158299Y99044D01*
X158114Y98835D01*
X157860Y98650D01*
X157559Y98558D01*
X157281Y98535D01*
X157003D01*
X156795Y98604D01*
X156541Y98697D01*
X156333Y98835D01*
X156170Y98997D01*
X156009Y99229D01*
X155893Y99483D01*
X155823Y99715D01*
X155800Y99923D01*
X155823Y100154D01*
X155870Y100339D01*
X155939Y100525D01*
X156032Y100710D01*
X156147Y100872D01*
X156309Y101034D01*
X156494Y101149D01*
X156656Y101219D01*
X156633Y101427D01*
X153162Y97840D01*
X152885Y98141D01*
X156587Y101982D01*
X156286Y105338D01*
X156078Y107767D01*
X154967D01*
Y109318D01*
X155268D01*
X152445Y112210D01*
X152746Y112488D01*
X155384Y109757D01*
Y109966D01*
X155337Y110012D01*
X155268Y110058D01*
X155199Y110128D01*
X155129Y110197D01*
X155083Y110313D01*
X155060Y110405D01*
X155037Y110521D01*
X155060Y110660D01*
X155106Y110752D01*
X155199Y110915D01*
X155314Y111007D01*
X155476Y111076D01*
X155638Y111100D01*
X155800Y111076D01*
X155939Y111030D01*
X156055Y110961D01*
X156101Y110891D01*
X156217Y110984D01*
X156379Y111100D01*
X156587Y111192D01*
X156888Y111308D01*
X157212Y111400D01*
X157536Y111470D01*
X157883Y111539D01*
X158160Y111562D01*
Y111909D01*
X160382D01*
Y111609D01*
X160567D01*
X160845Y111585D01*
X161146Y111539D01*
X161446Y111493D01*
Y111678D01*
X162395D01*
Y111238D01*
X162511Y111169D01*
X162673Y111100D01*
X162835Y111007D01*
X162974Y110915D01*
X163112Y110799D01*
X163205Y110706D01*
X163251Y110637D01*
X163298Y110544D01*
X163275Y110382D01*
X163830D01*
Y109665D01*
X163228D01*
X163136Y108762D01*
X166722Y112488D01*
X167000Y112210D01*
D02*
G37*
G36*
X166167Y94647D02*
Y94601D01*
Y94508D01*
Y94416D01*
Y94323D01*
Y94231D01*
Y94184D01*
Y94161D01*
Y93791D01*
Y93444D01*
Y93282D01*
Y93166D01*
Y93097D01*
Y93073D01*
Y92657D01*
Y92472D01*
Y92310D01*
Y92171D01*
Y92079D01*
Y92009D01*
Y91986D01*
Y91824D01*
Y91708D01*
Y91616D01*
Y91569D01*
Y91500D01*
X153509D01*
Y91523D01*
Y91569D01*
Y91755D01*
Y91917D01*
Y91963D01*
Y91986D01*
Y92356D01*
Y92703D01*
Y92865D01*
Y92981D01*
Y93050D01*
Y93073D01*
Y93490D01*
Y93675D01*
Y93837D01*
Y93976D01*
Y94068D01*
Y94138D01*
Y94161D01*
Y94323D01*
Y94462D01*
Y94555D01*
Y94601D01*
Y94647D01*
Y94670D01*
X166167D01*
Y94647D01*
D02*
G37*
%LPC*%
G36*
X147072Y185818D02*
X143870D01*
Y185629D01*
X143305D01*
Y185441D01*
X142739D01*
Y185253D01*
X142362D01*
Y185064D01*
X141986D01*
Y184876D01*
X141609D01*
Y184687D01*
X141421D01*
Y184499D01*
X141044D01*
Y184311D01*
X140855D01*
Y184122D01*
X140667D01*
Y183934D01*
X140479D01*
Y183746D01*
X140290D01*
Y183557D01*
X140102D01*
Y183369D01*
X139913D01*
Y183180D01*
X139725D01*
Y182992D01*
Y182803D01*
X139537D01*
Y182615D01*
X139348D01*
Y182427D01*
Y182238D01*
X139160D01*
Y182050D01*
Y181861D01*
X138971D01*
Y181673D01*
Y181485D01*
X138783D01*
Y181296D01*
Y181108D01*
Y180920D01*
X138595D01*
Y180731D01*
Y180543D01*
Y180354D01*
X138406D01*
Y180166D01*
Y179978D01*
Y179789D01*
Y179601D01*
Y179412D01*
Y179224D01*
Y179036D01*
Y178847D01*
Y178659D01*
Y178471D01*
Y178282D01*
Y178094D01*
Y177905D01*
Y177717D01*
Y177529D01*
Y177340D01*
Y177152D01*
X138595D01*
Y176963D01*
Y176775D01*
Y176587D01*
X138783D01*
Y176398D01*
Y176210D01*
Y176021D01*
X138971D01*
Y175833D01*
Y175645D01*
X139160D01*
Y175456D01*
Y175268D01*
X139348D01*
Y175079D01*
Y174891D01*
X139537D01*
Y174703D01*
X139725D01*
Y174514D01*
Y174326D01*
X139913D01*
Y174137D01*
X140102D01*
Y173949D01*
X140290D01*
Y173761D01*
X140479D01*
Y173572D01*
X140667D01*
Y173384D01*
X140855D01*
Y173196D01*
X141044D01*
Y173007D01*
X141421D01*
Y172819D01*
X141609D01*
Y172630D01*
X141986D01*
Y172442D01*
X142362D01*
Y172254D01*
X142739D01*
Y172065D01*
X143116D01*
Y171877D01*
X143870D01*
Y171688D01*
X145000D01*
Y171500D01*
X145942D01*
Y171688D01*
X147072D01*
Y171877D01*
X147826D01*
Y172065D01*
X148203D01*
Y172254D01*
X148579D01*
Y172442D01*
X148956D01*
Y172630D01*
X149333D01*
Y172819D01*
X149521D01*
Y173007D01*
X149898D01*
Y173196D01*
X150087D01*
Y173384D01*
X150275D01*
Y173572D01*
X150463D01*
Y173761D01*
X150652D01*
Y173949D01*
X150840D01*
Y174137D01*
X151029D01*
Y174326D01*
X151217D01*
Y174514D01*
Y174703D01*
X151405D01*
Y174891D01*
X151594D01*
Y175079D01*
Y175268D01*
X151782D01*
Y175456D01*
Y175645D01*
X151971D01*
Y175833D01*
Y176021D01*
X152159D01*
Y176210D01*
Y176398D01*
X152347D01*
Y176587D01*
Y176775D01*
Y176963D01*
Y177152D01*
X152536D01*
Y177340D01*
Y177529D01*
Y177717D01*
Y177905D01*
Y178094D01*
Y178282D01*
Y178471D01*
Y178659D01*
Y178847D01*
Y179036D01*
Y179224D01*
Y179412D01*
Y179601D01*
Y179789D01*
Y179978D01*
Y180166D01*
Y180354D01*
X152347D01*
Y180543D01*
Y180731D01*
Y180920D01*
X152159D01*
Y181108D01*
Y181296D01*
Y181485D01*
X151971D01*
Y181673D01*
Y181861D01*
X151782D01*
Y182050D01*
Y182238D01*
X151594D01*
Y182427D01*
Y182615D01*
X151405D01*
Y182803D01*
X151217D01*
Y182992D01*
X151029D01*
Y183180D01*
Y183369D01*
X150840D01*
Y183557D01*
X150652D01*
Y183746D01*
X150463D01*
Y183934D01*
X150275D01*
Y184122D01*
X150087D01*
Y184311D01*
X149710D01*
Y184499D01*
X149521D01*
Y184687D01*
X149333D01*
Y184876D01*
X148956D01*
Y185064D01*
X148579D01*
Y185253D01*
X148203D01*
Y185441D01*
X147637D01*
Y185629D01*
X147072D01*
Y185818D01*
D02*
G37*
G36*
X122205D02*
X119002D01*
Y185629D01*
X118437D01*
Y185441D01*
X117872D01*
Y185253D01*
X117495D01*
Y185064D01*
X117118D01*
Y184876D01*
X116741D01*
Y184687D01*
X116553D01*
Y184499D01*
X116176D01*
Y184311D01*
X115988D01*
Y184122D01*
X115799D01*
Y183934D01*
X115611D01*
Y183746D01*
X115422D01*
Y183557D01*
X115234D01*
Y183369D01*
X115046D01*
Y183180D01*
X114857D01*
Y182992D01*
Y182803D01*
X114669D01*
Y182615D01*
X114481D01*
Y182427D01*
Y182238D01*
X114292D01*
Y182050D01*
Y181861D01*
X114104D01*
Y181673D01*
Y181485D01*
X113915D01*
Y181296D01*
Y181108D01*
X113727D01*
Y180920D01*
Y180731D01*
Y180543D01*
Y180354D01*
Y180166D01*
X113539D01*
Y179978D01*
Y179789D01*
Y179601D01*
Y179412D01*
Y179224D01*
Y179036D01*
Y178847D01*
Y178659D01*
Y178471D01*
Y178282D01*
Y178094D01*
Y177905D01*
Y177717D01*
Y177529D01*
Y177340D01*
Y177152D01*
X113727D01*
Y176963D01*
Y176775D01*
Y176587D01*
Y176398D01*
X113915D01*
Y176210D01*
Y176021D01*
X114104D01*
Y175833D01*
Y175645D01*
X114292D01*
Y175456D01*
Y175268D01*
X114481D01*
Y175079D01*
Y174891D01*
X114669D01*
Y174703D01*
X114857D01*
Y174514D01*
Y174326D01*
X115046D01*
Y174137D01*
X115234D01*
Y173949D01*
X115422D01*
Y173761D01*
X115611D01*
Y173572D01*
X115799D01*
Y173384D01*
X115988D01*
Y173196D01*
X116176D01*
Y173007D01*
X116553D01*
Y172819D01*
X116741D01*
Y172630D01*
X117118D01*
Y172442D01*
X117495D01*
Y172254D01*
X117872D01*
Y172065D01*
X118248D01*
Y171877D01*
X119002D01*
Y171688D01*
X120132D01*
Y171500D01*
X121074D01*
Y171688D01*
X122205D01*
Y171877D01*
X122958D01*
Y172065D01*
X123335D01*
Y172254D01*
X123712D01*
Y172442D01*
X124089D01*
Y172630D01*
X124465D01*
Y172819D01*
X124654D01*
Y173007D01*
X125031D01*
Y173196D01*
X125219D01*
Y173384D01*
X125407D01*
Y173572D01*
X125596D01*
Y173761D01*
X125784D01*
Y173949D01*
X125972D01*
Y174137D01*
X126161D01*
Y174326D01*
X126349D01*
Y174514D01*
Y174703D01*
X126538D01*
Y174891D01*
X126726D01*
Y175079D01*
Y175268D01*
X126914D01*
Y175456D01*
Y175645D01*
X127103D01*
Y175833D01*
Y176021D01*
X127291D01*
Y176210D01*
Y176398D01*
X127480D01*
Y176587D01*
Y176775D01*
Y176963D01*
Y177152D01*
Y177340D01*
X127668D01*
Y177529D01*
Y177717D01*
Y177905D01*
Y178094D01*
Y178282D01*
Y178471D01*
Y178659D01*
Y178847D01*
Y179036D01*
Y179224D01*
Y179412D01*
Y179601D01*
Y179789D01*
Y179978D01*
Y180166D01*
X127480D01*
Y180354D01*
Y180543D01*
Y180731D01*
Y180920D01*
X127291D01*
Y181108D01*
Y181296D01*
Y181485D01*
X127103D01*
Y181673D01*
Y181861D01*
X126914D01*
Y182050D01*
Y182238D01*
X126726D01*
Y182427D01*
Y182615D01*
X126538D01*
Y182803D01*
X126349D01*
Y182992D01*
Y183180D01*
X126161D01*
Y183369D01*
X125972D01*
Y183557D01*
X125784D01*
Y183746D01*
X125596D01*
Y183934D01*
X125407D01*
Y184122D01*
X125219D01*
Y184311D01*
X125031D01*
Y184499D01*
X124654D01*
Y184687D01*
X124465D01*
Y184876D01*
X124089D01*
Y185064D01*
X123712D01*
Y185253D01*
X123335D01*
Y185441D01*
X122770D01*
Y185629D01*
X122205D01*
Y185818D01*
D02*
G37*
G36*
X164404Y159066D02*
X164028D01*
Y158878D01*
Y158689D01*
Y158501D01*
Y158313D01*
X163839D01*
Y158124D01*
Y157936D01*
Y157747D01*
Y157559D01*
X163651D01*
Y157371D01*
Y157182D01*
Y156994D01*
Y156806D01*
Y156617D01*
X163462D01*
Y156429D01*
Y156240D01*
Y156052D01*
X163274D01*
Y155863D01*
X162897D01*
Y155675D01*
X161767D01*
Y155487D01*
X160636D01*
Y155298D01*
X159506D01*
Y155110D01*
X158187D01*
Y154922D01*
X156304D01*
Y154733D01*
X154420D01*
Y154545D01*
X152536D01*
Y154356D01*
X149898D01*
Y154168D01*
X146319D01*
Y153980D01*
X142551D01*
Y153791D01*
X123712D01*
Y153980D01*
X119944D01*
Y154168D01*
X116553D01*
Y154356D01*
X113727D01*
Y154545D01*
X111843D01*
Y154733D01*
X109959D01*
Y154922D01*
X108075D01*
Y155110D01*
X106756D01*
Y155298D01*
X105626D01*
Y155487D01*
X104496D01*
Y155675D01*
X103366D01*
Y155863D01*
X102989D01*
Y156052D01*
Y156240D01*
X102800D01*
Y156429D01*
Y156617D01*
Y156806D01*
X102612D01*
Y156994D01*
Y157182D01*
Y157371D01*
Y157559D01*
X102424D01*
Y157747D01*
Y157936D01*
Y158124D01*
Y158313D01*
Y158501D01*
X102235D01*
Y158689D01*
Y158878D01*
X102047D01*
Y159066D01*
X101858D01*
Y158878D01*
X101105D01*
Y158689D01*
X100351D01*
Y158501D01*
X99786D01*
Y158313D01*
X99221D01*
Y158124D01*
X98656D01*
Y157936D01*
X98279D01*
Y157747D01*
X98090D01*
Y157559D01*
X97714D01*
Y157371D01*
X97525D01*
Y157182D01*
Y156994D01*
Y156806D01*
Y156617D01*
X97902D01*
Y156429D01*
X98090D01*
Y156240D01*
X98467D01*
Y156052D01*
X98844D01*
Y155863D01*
X99409D01*
Y155675D01*
X99974D01*
Y155487D01*
X100728D01*
Y155298D01*
X101482D01*
Y155110D01*
X102424D01*
Y154922D01*
X103177D01*
Y154733D01*
X104119D01*
Y154545D01*
X105626D01*
Y154356D01*
X106756D01*
Y154168D01*
X108075D01*
Y153980D01*
X109582D01*
Y153791D01*
X111655D01*
Y153603D01*
X113539D01*
Y153414D01*
X115988D01*
Y153226D01*
X119755D01*
Y153038D01*
X123523D01*
Y152849D01*
X142739D01*
Y153038D01*
X146507D01*
Y153226D01*
X150275D01*
Y153414D01*
X152724D01*
Y153603D01*
X154608D01*
Y153791D01*
X156680D01*
Y153980D01*
X158187D01*
Y154168D01*
X159506D01*
Y154356D01*
X160825D01*
Y154545D01*
X162144D01*
Y154733D01*
X163086D01*
Y154922D01*
X164028D01*
Y155110D01*
X164970D01*
Y155298D01*
X165723D01*
Y155487D01*
X166288D01*
Y155675D01*
X166853D01*
Y155863D01*
X167419D01*
Y156052D01*
X167795D01*
Y156240D01*
X168172D01*
Y156429D01*
X168549D01*
Y156617D01*
X168737D01*
Y156806D01*
X168926D01*
Y156994D01*
Y157182D01*
X168737D01*
Y157371D01*
X168549D01*
Y157559D01*
X168361D01*
Y157747D01*
X167984D01*
Y157936D01*
X167607D01*
Y158124D01*
X167042D01*
Y158313D01*
X166477D01*
Y158501D01*
X165911D01*
Y158689D01*
X165158D01*
Y158878D01*
X164404D01*
Y159066D01*
D02*
G37*
G36*
X164593Y154545D02*
X164216D01*
Y154356D01*
X163462D01*
Y154168D01*
X162144D01*
Y153980D01*
X161013D01*
Y153791D01*
X159883D01*
Y153603D01*
X157999D01*
Y153414D01*
X156492D01*
Y153226D01*
X154796D01*
Y153038D01*
X151971D01*
Y152849D01*
X149710D01*
Y152661D01*
X146695D01*
Y152472D01*
X142362D01*
Y152284D01*
X123900D01*
Y152472D01*
X119567D01*
Y152661D01*
X116741D01*
Y152849D01*
X114292D01*
Y153038D01*
X111466D01*
Y153226D01*
X109771D01*
Y153414D01*
X108264D01*
Y153603D01*
X106568D01*
Y153791D01*
X105249D01*
Y153980D01*
X104119D01*
Y154168D01*
X102989D01*
Y154356D01*
X102047D01*
Y154545D01*
X101858D01*
Y154356D01*
X100163D01*
Y154168D01*
X98844D01*
Y153980D01*
X97902D01*
Y153791D01*
X96960D01*
Y153603D01*
X95830D01*
Y153414D01*
X95076D01*
Y153226D01*
X94134D01*
Y153038D01*
X93569D01*
Y152849D01*
X92816D01*
Y152661D01*
X92439D01*
Y152472D01*
X91874D01*
Y152284D01*
X91308D01*
Y152096D01*
X90932D01*
Y151907D01*
X90743D01*
Y151719D01*
X90366D01*
Y151531D01*
X90178D01*
Y151342D01*
X89990D01*
Y151154D01*
X89801D01*
Y150965D01*
Y150777D01*
X89990D01*
Y150589D01*
X90178D01*
Y150400D01*
X90366D01*
Y150212D01*
X90743D01*
Y150023D01*
X90932D01*
Y149835D01*
X91497D01*
Y149647D01*
X91874D01*
Y149458D01*
X92439D01*
Y149270D01*
X93004D01*
Y149081D01*
X93757D01*
Y148893D01*
X94323D01*
Y148705D01*
X95265D01*
Y148516D01*
X96207D01*
Y148328D01*
X97149D01*
Y148140D01*
X98090D01*
Y147951D01*
X99409D01*
Y147763D01*
X100540D01*
Y147574D01*
X101858D01*
Y147386D01*
X103554D01*
Y147197D01*
X105249D01*
Y147009D01*
X106756D01*
Y146821D01*
X108829D01*
Y146632D01*
X109017D01*
Y146821D01*
X109206D01*
Y146632D01*
X109394D01*
Y146821D01*
X109582D01*
Y146632D01*
X111843D01*
Y146444D01*
X114481D01*
Y146256D01*
X117495D01*
Y146067D01*
X122958D01*
Y145879D01*
X123900D01*
Y146067D01*
X124089D01*
Y145879D01*
X143305D01*
Y146067D01*
X148768D01*
Y146256D01*
X151782D01*
Y146444D01*
X154420D01*
Y146632D01*
X156869D01*
Y146821D01*
X157057D01*
Y146632D01*
X157246D01*
Y146821D01*
X159318D01*
Y147009D01*
X161013D01*
Y147197D01*
X162709D01*
Y147386D01*
X164404D01*
Y147574D01*
X165723D01*
Y147763D01*
X166853D01*
Y147951D01*
X168172D01*
Y148140D01*
X169302D01*
Y148328D01*
X170245D01*
Y148516D01*
X170998D01*
Y148705D01*
X171940D01*
Y148893D01*
X172694D01*
Y149081D01*
X173259D01*
Y149270D01*
X173824D01*
Y149458D01*
X174389D01*
Y149647D01*
X174766D01*
Y149835D01*
X175331D01*
Y150023D01*
X175519D01*
Y150212D01*
X175896D01*
Y150400D01*
X176085D01*
Y150589D01*
X176273D01*
Y150777D01*
X176461D01*
Y150965D01*
Y151154D01*
X176273D01*
Y151342D01*
X176085D01*
Y151531D01*
X175896D01*
Y151719D01*
X175708D01*
Y151907D01*
X175331D01*
Y152096D01*
X174954D01*
Y152284D01*
X174389D01*
Y152472D01*
X173824D01*
Y152661D01*
X173447D01*
Y152849D01*
X172694D01*
Y153038D01*
X171940D01*
Y153226D01*
X171375D01*
Y153414D01*
X170433D01*
Y153603D01*
X169302D01*
Y153791D01*
X168361D01*
Y153980D01*
X167230D01*
Y154168D01*
X166100D01*
Y154356D01*
X164593D01*
Y154545D01*
D02*
G37*
G36*
X171752Y147763D02*
X169491D01*
Y147574D01*
X168549D01*
Y147386D01*
X167419D01*
Y147197D01*
X166100D01*
Y147009D01*
X164970D01*
Y146821D01*
X163462D01*
Y146632D01*
X161767D01*
Y146444D01*
X161579D01*
Y146632D01*
X161390D01*
Y146444D01*
X159695D01*
Y146256D01*
X157811D01*
Y146067D01*
X155738D01*
Y145879D01*
X152724D01*
Y145690D01*
X152536D01*
Y145879D01*
X152159D01*
Y145690D01*
X149145D01*
Y145502D01*
X148956D01*
Y145690D01*
X148768D01*
Y145502D01*
X144435D01*
Y145314D01*
X136334D01*
Y145125D01*
X136146D01*
Y145314D01*
X135957D01*
Y145125D01*
X135769D01*
Y145314D01*
X135580D01*
Y145125D01*
X135392D01*
Y145314D01*
X135204D01*
Y145125D01*
X135015D01*
Y145314D01*
X134827D01*
Y145125D01*
X134639D01*
Y145314D01*
X134450D01*
Y145125D01*
X134262D01*
Y145314D01*
X134073D01*
Y145125D01*
X133885D01*
Y145314D01*
X133696D01*
Y145125D01*
X133508D01*
Y145314D01*
X133320D01*
Y145125D01*
X133131D01*
Y145314D01*
X132943D01*
Y145125D01*
X132755D01*
Y145314D01*
X132566D01*
Y145125D01*
X132378D01*
Y145314D01*
X132189D01*
Y145125D01*
X132001D01*
Y145314D01*
X131813D01*
Y145125D01*
X131624D01*
Y145314D01*
X131436D01*
Y145125D01*
X131247D01*
Y145314D01*
X131059D01*
Y145125D01*
X130871D01*
Y145314D01*
X130682D01*
Y145125D01*
X130494D01*
Y145314D01*
X130306D01*
Y145125D01*
X130117D01*
Y145314D01*
X121828D01*
Y145502D01*
X117683D01*
Y145690D01*
X117495D01*
Y145502D01*
X117306D01*
Y145690D01*
X114104D01*
Y145879D01*
X110524D01*
Y146067D01*
X108452D01*
Y146256D01*
X106568D01*
Y146444D01*
X104684D01*
Y146632D01*
X104496D01*
Y146444D01*
X104307D01*
Y146632D01*
X102800D01*
Y146821D01*
X101482D01*
Y147009D01*
X100163D01*
Y147197D01*
X98844D01*
Y147386D01*
X97714D01*
Y147574D01*
X96772D01*
Y147763D01*
X94511D01*
Y147574D01*
X93381D01*
Y147386D01*
X92439D01*
Y147197D01*
X91497D01*
Y147009D01*
X90555D01*
Y146821D01*
X89613D01*
Y146632D01*
X88859D01*
Y146444D01*
X88294D01*
Y146256D01*
X87541D01*
Y146067D01*
X86975D01*
Y145879D01*
X86599D01*
Y145690D01*
X86033D01*
Y145502D01*
X85657D01*
Y145314D01*
X85280D01*
Y145125D01*
X84903D01*
Y144937D01*
X84715D01*
Y144748D01*
X84526D01*
Y144560D01*
X84338D01*
Y144372D01*
X84149D01*
Y144183D01*
Y143995D01*
X84338D01*
Y143806D01*
X84526D01*
Y143618D01*
X84715D01*
Y143430D01*
X84903D01*
Y143241D01*
X85280D01*
Y143053D01*
X85657D01*
Y142865D01*
X86033D01*
Y142676D01*
X86599D01*
Y142488D01*
X86975D01*
Y142299D01*
X87541D01*
Y142111D01*
X88106D01*
Y141922D01*
X88859D01*
Y141734D01*
X89613D01*
Y141546D01*
X90366D01*
Y141357D01*
X91308D01*
Y141169D01*
X92250D01*
Y140981D01*
X93192D01*
Y140792D01*
X94511D01*
Y140604D01*
X95453D01*
Y140415D01*
X96772D01*
Y140227D01*
X98279D01*
Y140039D01*
X99974D01*
Y139850D01*
X101482D01*
Y139662D01*
X103366D01*
Y139473D01*
X105626D01*
Y139285D01*
X107699D01*
Y139097D01*
X110524D01*
Y138908D01*
X113727D01*
Y138720D01*
X113915D01*
Y138908D01*
X114104D01*
Y138720D01*
X118248D01*
Y138531D01*
X122958D01*
Y138343D01*
X143305D01*
Y138531D01*
X148203D01*
Y138720D01*
X152159D01*
Y138908D01*
X155738D01*
Y139097D01*
X158564D01*
Y139285D01*
X160636D01*
Y139473D01*
X162897D01*
Y139662D01*
X164970D01*
Y139850D01*
X166288D01*
Y140039D01*
X167984D01*
Y140227D01*
X169491D01*
Y140415D01*
X170810D01*
Y140604D01*
X171940D01*
Y140792D01*
X173259D01*
Y140981D01*
X174012D01*
Y141169D01*
X174954D01*
Y141357D01*
X175896D01*
Y141546D01*
X176650D01*
Y141734D01*
X177592D01*
Y141922D01*
X178157D01*
Y142111D01*
X178722D01*
Y142299D01*
X179287D01*
Y142488D01*
X179852D01*
Y142676D01*
X180229D01*
Y142865D01*
X180606D01*
Y143053D01*
X180983D01*
Y143241D01*
X181360D01*
Y143430D01*
X181548D01*
Y143618D01*
X181736D01*
Y143806D01*
X181925D01*
Y143995D01*
X182113D01*
Y144183D01*
Y144372D01*
X181925D01*
Y144560D01*
X181736D01*
Y144748D01*
X181548D01*
Y144937D01*
X181360D01*
Y145125D01*
X180983D01*
Y145314D01*
X180606D01*
Y145502D01*
X180229D01*
Y145690D01*
X179852D01*
Y145879D01*
X179287D01*
Y146067D01*
X178722D01*
Y146256D01*
X177969D01*
Y146444D01*
X177403D01*
Y146632D01*
X176461D01*
Y146821D01*
X175896D01*
Y147009D01*
X174954D01*
Y147197D01*
X174012D01*
Y147386D01*
X173070D01*
Y147574D01*
X171752D01*
Y147763D01*
D02*
G37*
G36*
X177027Y140981D02*
X176461D01*
Y140792D01*
X175519D01*
Y140604D01*
X174577D01*
Y140415D01*
X173635D01*
Y140227D01*
X172694D01*
Y140039D01*
X171375D01*
Y139850D01*
X169868D01*
Y139662D01*
X168737D01*
Y139473D01*
X167042D01*
Y139285D01*
X165346D01*
Y139097D01*
X163839D01*
Y138908D01*
X161767D01*
Y138720D01*
X159129D01*
Y138531D01*
X156680D01*
Y138343D01*
X154043D01*
Y138155D01*
X151029D01*
Y137966D01*
X150840D01*
Y138155D01*
X150652D01*
Y137966D01*
X150463D01*
Y138155D01*
X150275D01*
Y137966D01*
X150087D01*
Y138155D01*
X149898D01*
Y137966D01*
X149710D01*
Y138155D01*
X149521D01*
Y137966D01*
X149333D01*
Y138155D01*
X149145D01*
Y137966D01*
X144812D01*
Y137778D01*
X136711D01*
Y137590D01*
X129552D01*
Y137778D01*
X121451D01*
Y137966D01*
X116930D01*
Y138155D01*
X116741D01*
Y137966D01*
X116553D01*
Y138155D01*
X116365D01*
Y137966D01*
X116176D01*
Y138155D01*
X115988D01*
Y137966D01*
X115799D01*
Y138155D01*
X115611D01*
Y137966D01*
X115422D01*
Y138155D01*
X112220D01*
Y138343D01*
X109771D01*
Y138531D01*
X107133D01*
Y138720D01*
X104496D01*
Y138908D01*
X102612D01*
Y139097D01*
X100916D01*
Y139285D01*
X99409D01*
Y139473D01*
X97525D01*
Y139662D01*
X96395D01*
Y139850D01*
X95076D01*
Y140039D01*
X93757D01*
Y140227D01*
X92627D01*
Y140415D01*
X91685D01*
Y140604D01*
X90743D01*
Y140792D01*
X89801D01*
Y140981D01*
X89236D01*
Y140792D01*
X88482D01*
Y140604D01*
X87352D01*
Y140415D01*
X86599D01*
Y140227D01*
X85845D01*
Y140039D01*
X85092D01*
Y139850D01*
X84526D01*
Y139662D01*
X83961D01*
Y139473D01*
X83396D01*
Y139285D01*
X82831D01*
Y139097D01*
X82454D01*
Y138908D01*
X82077D01*
Y138720D01*
X81700D01*
Y138531D01*
X81324D01*
Y138343D01*
X81135D01*
Y138155D01*
X80947D01*
Y137966D01*
X80759D01*
Y137778D01*
X80570D01*
Y137590D01*
Y137401D01*
Y137213D01*
X80759D01*
Y137024D01*
X80947D01*
Y136836D01*
X81135D01*
Y136648D01*
X81512D01*
Y136459D01*
X81889D01*
Y136271D01*
X82077D01*
Y136082D01*
X82642D01*
Y135894D01*
X83019D01*
Y135706D01*
X83584D01*
Y135517D01*
X84149D01*
Y135329D01*
X84715D01*
Y135140D01*
X85468D01*
Y134952D01*
X86222D01*
Y134764D01*
X86975D01*
Y134575D01*
X87729D01*
Y134387D01*
X88859D01*
Y134198D01*
X89801D01*
Y134010D01*
X90743D01*
Y133822D01*
X92062D01*
Y133633D01*
X93192D01*
Y133445D01*
X94511D01*
Y133256D01*
X95830D01*
Y133068D01*
X97714D01*
Y132880D01*
X99221D01*
Y132691D01*
X100916D01*
Y132503D01*
X102800D01*
Y132315D01*
X102989D01*
Y132503D01*
X103366D01*
Y132315D01*
X105626D01*
Y132126D01*
X107887D01*
Y131938D01*
X110524D01*
Y131749D01*
X114857D01*
Y131561D01*
X119002D01*
Y131373D01*
X125031D01*
Y131184D01*
X125219D01*
Y131373D01*
X125407D01*
Y131184D01*
X125596D01*
Y131373D01*
X125784D01*
Y131184D01*
X125972D01*
Y131373D01*
X126161D01*
Y131184D01*
X126349D01*
Y131373D01*
X126538D01*
Y131184D01*
X139537D01*
Y131373D01*
X139725D01*
Y131184D01*
X139913D01*
Y131373D01*
X140102D01*
Y131184D01*
X140290D01*
Y131373D01*
X140479D01*
Y131184D01*
X140667D01*
Y131373D01*
X140855D01*
Y131184D01*
X141232D01*
Y131373D01*
X147261D01*
Y131561D01*
X151405D01*
Y131749D01*
X155738D01*
Y131938D01*
X158376D01*
Y132126D01*
X160825D01*
Y132315D01*
X162897D01*
Y132503D01*
X163086D01*
Y132315D01*
X163274D01*
Y132503D01*
X165346D01*
Y132691D01*
X167042D01*
Y132880D01*
X168549D01*
Y133068D01*
X170433D01*
Y133256D01*
X171752D01*
Y133445D01*
X173070D01*
Y133633D01*
X174389D01*
Y133822D01*
X175519D01*
Y134010D01*
X176650D01*
Y134198D01*
X177592D01*
Y134387D01*
X178534D01*
Y134575D01*
X179287D01*
Y134764D01*
X180041D01*
Y134952D01*
X180983D01*
Y135140D01*
X181548D01*
Y135329D01*
X182113D01*
Y135517D01*
X182678D01*
Y135706D01*
X183244D01*
Y135894D01*
X183809D01*
Y136082D01*
X184185D01*
Y136271D01*
X184562D01*
Y136459D01*
X184751D01*
Y136648D01*
X185127D01*
Y136836D01*
X185316D01*
Y137024D01*
X185504D01*
Y137213D01*
X185693D01*
Y137401D01*
Y137590D01*
Y137778D01*
X185504D01*
Y137966D01*
X185316D01*
Y138155D01*
X185127D01*
Y138343D01*
X184939D01*
Y138531D01*
X184562D01*
Y138720D01*
X184374D01*
Y138908D01*
X183997D01*
Y139097D01*
X183432D01*
Y139285D01*
X183055D01*
Y139473D01*
X182490D01*
Y139662D01*
X181925D01*
Y139850D01*
X181171D01*
Y140039D01*
X180418D01*
Y140227D01*
X179664D01*
Y140415D01*
X178911D01*
Y140604D01*
X177969D01*
Y140792D01*
X177027D01*
Y140981D01*
D02*
G37*
%LPD*%
G36*
X145000Y182050D02*
X145565D01*
Y181861D01*
X145942D01*
Y181673D01*
X146130D01*
Y181485D01*
X146507D01*
Y181296D01*
Y181108D01*
X146695D01*
Y180920D01*
X146884D01*
Y180731D01*
Y180543D01*
Y180354D01*
X147072D01*
Y180166D01*
Y179978D01*
Y179789D01*
Y179601D01*
Y179412D01*
Y179224D01*
Y179036D01*
Y178847D01*
X146884D01*
Y178659D01*
Y178471D01*
X146695D01*
Y178282D01*
X146507D01*
Y178094D01*
Y177905D01*
X146319D01*
Y177717D01*
X145942D01*
Y177529D01*
X145754D01*
Y177340D01*
X145188D01*
Y177152D01*
X144058D01*
Y177340D01*
X143493D01*
Y177529D01*
X143116D01*
Y177717D01*
X142928D01*
Y177905D01*
X142739D01*
Y178094D01*
X142551D01*
Y178282D01*
Y178471D01*
X142362D01*
Y178659D01*
X142174D01*
Y178847D01*
Y179036D01*
Y179224D01*
Y179412D01*
Y179601D01*
Y179789D01*
Y179978D01*
Y180166D01*
Y180354D01*
Y180543D01*
X142362D01*
Y180731D01*
Y180920D01*
X142551D01*
Y181108D01*
Y181296D01*
X142739D01*
Y181485D01*
X142928D01*
Y181673D01*
X143305D01*
Y181861D01*
X143493D01*
Y182050D01*
X144058D01*
Y182238D01*
X145000D01*
Y182050D01*
D02*
G37*
G36*
X120697Y181673D02*
X121074D01*
Y181485D01*
X121263D01*
Y181296D01*
X121451D01*
Y181108D01*
X121639D01*
Y180920D01*
X121828D01*
Y180731D01*
X122016D01*
Y180543D01*
Y180354D01*
X122205D01*
Y180166D01*
Y179978D01*
Y179789D01*
Y179601D01*
X122393D01*
Y179412D01*
Y179224D01*
Y179036D01*
X122205D01*
Y178847D01*
Y178659D01*
Y178471D01*
Y178282D01*
X122016D01*
Y178094D01*
Y177905D01*
X121828D01*
Y177717D01*
X121639D01*
Y177529D01*
X121451D01*
Y177340D01*
X121263D01*
Y177152D01*
X120886D01*
Y176963D01*
X120509D01*
Y176775D01*
X119190D01*
Y176963D01*
X118625D01*
Y177152D01*
X118248D01*
Y177340D01*
X118060D01*
Y177529D01*
X117872D01*
Y177717D01*
X117683D01*
Y177905D01*
X117495D01*
Y178094D01*
Y178282D01*
X117306D01*
Y178471D01*
Y178659D01*
Y178847D01*
Y179036D01*
Y179224D01*
Y179412D01*
Y179601D01*
Y179789D01*
Y179978D01*
Y180166D01*
Y180354D01*
X117495D01*
Y180543D01*
Y180731D01*
X117683D01*
Y180920D01*
X117872D01*
Y181108D01*
X118060D01*
Y181296D01*
X118248D01*
Y181485D01*
X118437D01*
Y181673D01*
X118814D01*
Y181861D01*
X120697D01*
Y181673D01*
D02*
G37*
%LPC*%
G36*
X159990Y81113D02*
X159827D01*
X159156Y81090D01*
X158532Y80997D01*
X157907Y80881D01*
X157352Y80719D01*
X156796Y80511D01*
X156287Y80303D01*
X155824Y80072D01*
X155385Y79840D01*
X155014Y79585D01*
X154667Y79354D01*
X154366Y79146D01*
X154135Y78938D01*
X153927Y78776D01*
X153788Y78660D01*
X153695Y78567D01*
X153672Y78544D01*
X153233Y78058D01*
X152839Y77549D01*
X152492Y77040D01*
X152191Y76508D01*
X151960Y75999D01*
X151752Y75490D01*
X151590Y74981D01*
X151451Y74518D01*
X151335Y74078D01*
X151266Y73662D01*
X151196Y73315D01*
X151173Y72991D01*
X151150Y72736D01*
X151127Y72551D01*
Y72435D01*
Y72389D01*
X151150Y71718D01*
X151242Y71093D01*
X151358Y70491D01*
X151520Y69913D01*
X151705Y69358D01*
X151937Y68849D01*
X152168Y68386D01*
X152400Y67969D01*
X152631Y67576D01*
X152862Y67229D01*
X153071Y66928D01*
X153279Y66697D01*
X153340Y66618D01*
X156009Y69288D01*
X155870Y69381D01*
X155755Y69473D01*
X155662Y69543D01*
X155639Y69566D01*
X155385Y69844D01*
X155200Y70167D01*
X155061Y70468D01*
X154968Y70769D01*
X154922Y71024D01*
X154876Y71232D01*
Y71371D01*
Y71394D01*
Y71417D01*
X154899Y71764D01*
X154945Y72088D01*
X155037Y72343D01*
X155107Y72574D01*
X155200Y72759D01*
X155292Y72875D01*
X155338Y72967D01*
X155361Y72991D01*
X155547Y73176D01*
X155755Y73315D01*
X155940Y73430D01*
X156125Y73500D01*
X156287Y73546D01*
X156403Y73569D01*
X156518D01*
X156796Y73523D01*
X157051Y73430D01*
X157282Y73291D01*
X157467Y73129D01*
X157652Y72967D01*
X157768Y72829D01*
X157861Y72736D01*
X157884Y72690D01*
Y75814D01*
X158092D01*
X159388Y75282D01*
X159318Y75120D01*
X159180Y75166D01*
X159087Y75189D01*
X158994D01*
X158856Y75166D01*
X158833Y75143D01*
X158809D01*
X158763Y75073D01*
X158717Y75004D01*
X158694Y74934D01*
Y74911D01*
Y74819D01*
X158670Y74703D01*
Y74402D01*
Y74240D01*
Y74124D01*
Y74032D01*
Y74009D01*
Y71926D01*
X159804Y73083D01*
X159758Y73315D01*
X159712Y73523D01*
Y73615D01*
Y73662D01*
Y73708D01*
Y73731D01*
X159735Y73939D01*
X159758Y74124D01*
X159827Y74310D01*
X159874Y74448D01*
X159943Y74564D01*
X160013Y74657D01*
X160036Y74703D01*
X160059Y74726D01*
X160198Y74888D01*
X160337Y75004D01*
X160475Y75120D01*
X160614Y75189D01*
X160730Y75258D01*
X160799Y75305D01*
X160869Y75328D01*
X160892D01*
X161100Y75397D01*
X161308Y75444D01*
X161540Y75467D01*
X161748Y75490D01*
X161933Y75513D01*
X162234D01*
X165636Y78891D01*
X165983Y78544D01*
X166237Y78290D01*
X166122Y78429D01*
X166029Y78521D01*
X166006Y78544D01*
X165520Y79007D01*
X165011Y79400D01*
X164479Y79724D01*
X163946Y80025D01*
X163437Y80280D01*
X162928Y80488D01*
X162419Y80650D01*
X161956Y80789D01*
X161517Y80905D01*
X161100Y80974D01*
X160753Y81043D01*
X160429Y81067D01*
X160175Y81090D01*
X159990Y81113D01*
D02*
G37*
G36*
X161818Y75096D02*
X161679Y75050D01*
X161563Y75004D01*
X161470Y74958D01*
X161447Y74934D01*
X161239Y74772D01*
X161100Y74610D01*
X160985Y74472D01*
X160961Y74425D01*
Y74402D01*
X160892Y74287D01*
X160869Y74194D01*
X160846Y74148D01*
Y74124D01*
X161818Y75096D01*
D02*
G37*
G36*
X162766Y74657D02*
X160985Y72875D01*
X161031Y72782D01*
X161100Y72713D01*
X161123Y72690D01*
X161146Y72667D01*
X161285Y72528D01*
X161424Y72435D01*
X161563Y72366D01*
X161702Y72320D01*
X161818Y72296D01*
X161910Y72273D01*
X162095D01*
X162211Y72296D01*
X162327D01*
X162465Y72320D01*
X162604Y72343D01*
X162720Y72366D01*
X162766D01*
Y74657D01*
D02*
G37*
G36*
X156935Y72875D02*
X156889D01*
X156727Y72852D01*
X156565Y72806D01*
X156287Y72667D01*
X156194Y72574D01*
X156125Y72505D01*
X156079Y72458D01*
X156056Y72435D01*
X155940Y72250D01*
X155847Y72042D01*
X155778Y71834D01*
X155732Y71625D01*
X155709Y71440D01*
X155685Y71301D01*
Y71209D01*
Y71163D01*
X155709Y70839D01*
X155732Y70561D01*
X155801Y70329D01*
X155870Y70144D01*
X155940Y69982D01*
X155986Y69890D01*
X156033Y69820D01*
X156056Y69797D01*
X156125Y69682D01*
X156194Y69612D01*
X156264Y69566D01*
X156287Y69543D01*
X157884Y71139D01*
Y72389D01*
X157676Y72574D01*
X157537Y72690D01*
X157421Y72736D01*
X157398Y72759D01*
X157213Y72829D01*
X157051Y72852D01*
X156935Y72875D01*
D02*
G37*
G36*
X166237Y78290D02*
X166298Y78212D01*
X163599Y75513D01*
X164594D01*
Y75328D01*
X164340D01*
X164108Y75305D01*
X163946Y75235D01*
X163831Y75143D01*
X163808Y75120D01*
X163761Y75050D01*
X163715Y74958D01*
X163692Y74703D01*
X163669Y74587D01*
Y74472D01*
Y74402D01*
Y74379D01*
Y70237D01*
Y70052D01*
X163692Y69890D01*
Y69774D01*
X163715Y69682D01*
X163738Y69612D01*
Y69566D01*
X163761Y69543D01*
X163831Y69450D01*
X163923Y69404D01*
X164108Y69311D01*
X164270Y69288D01*
X164594D01*
Y69103D01*
X161841D01*
Y69288D01*
X162095D01*
X162327Y69311D01*
X162489Y69381D01*
X162581Y69450D01*
X162627Y69473D01*
X162674Y69543D01*
X162697Y69658D01*
X162743Y69913D01*
X162766Y70029D01*
Y70144D01*
Y70214D01*
Y70237D01*
Y72088D01*
X162535Y72042D01*
X162350Y72019D01*
X162234Y71996D01*
X162188D01*
X161979Y71973D01*
X161679D01*
X161401Y71996D01*
X161146Y72019D01*
X160938Y72088D01*
X160753Y72158D01*
X160591Y72204D01*
X160498Y72273D01*
X160429Y72296D01*
X160406Y72320D01*
X158670Y70561D01*
Y69520D01*
X158370Y69335D01*
X158115Y69219D01*
X157999Y69173D01*
X157930Y69126D01*
X157884Y69103D01*
X157861D01*
X157583Y69034D01*
X157352Y68987D01*
X157236Y68964D01*
X157074D01*
X154025Y65915D01*
X154158Y65794D01*
X154667Y65401D01*
X155176Y65054D01*
X155709Y64753D01*
X156218Y64521D01*
X156727Y64313D01*
X157236Y64151D01*
X157699Y64012D01*
X158138Y63897D01*
X158555Y63827D01*
X158902Y63758D01*
X159226Y63735D01*
X159480Y63712D01*
X159666Y63688D01*
X159827D01*
X160498Y63712D01*
X161123Y63804D01*
X161748Y63920D01*
X162303Y64082D01*
X162859Y64290D01*
X163368Y64498D01*
X163831Y64730D01*
X164270Y64961D01*
X164664Y65192D01*
X165011Y65424D01*
X165288Y65655D01*
X165543Y65840D01*
X165751Y66002D01*
X165890Y66118D01*
X165983Y66211D01*
X166006Y66234D01*
X166446Y66720D01*
X166839Y67229D01*
X167186Y67738D01*
X167487Y68270D01*
X167718Y68779D01*
X167927Y69311D01*
X168088Y69797D01*
X168227Y70260D01*
X168343Y70700D01*
X168412Y71116D01*
X168482Y71463D01*
X168505Y71787D01*
X168528Y72042D01*
X168551Y72227D01*
Y72343D01*
Y72389D01*
X168528Y73060D01*
X168436Y73685D01*
X168320Y74310D01*
X168158Y74865D01*
X167950Y75420D01*
X167741Y75929D01*
X167510Y76392D01*
X167279Y76832D01*
X167047Y77202D01*
X166816Y77549D01*
X166584Y77850D01*
X166399Y78081D01*
X166298Y78212D01*
X166307Y78220D01*
X166237Y78290D01*
D02*
G37*
G36*
X153340Y66618D02*
X153325Y66604D01*
X153499Y66419D01*
X153441Y66488D01*
X153340Y66618D01*
D02*
G37*
G36*
X153499Y66419D02*
X153557Y66349D01*
X153649Y66257D01*
X153672Y66234D01*
X153499Y66419D01*
D02*
G37*
G36*
X153672Y66234D02*
X154019Y65910D01*
X154025Y65915D01*
X153672Y66234D01*
D02*
G37*
G36*
X159965Y111516D02*
X158554D01*
Y111285D01*
X159965D01*
Y111516D01*
D02*
G37*
G36*
X160382Y111192D02*
Y110891D01*
X158160D01*
Y111146D01*
X157698Y111076D01*
X157281Y110984D01*
X156934Y110891D01*
X156656Y110752D01*
X156448Y110637D01*
X156286Y110475D01*
Y110382D01*
X161446D01*
Y111053D01*
X161122Y111123D01*
X160775Y111169D01*
X160382Y111192D01*
D02*
G37*
G36*
X162002Y111285D02*
X161840D01*
Y110752D01*
X162002D01*
Y111285D01*
D02*
G37*
G36*
X162395Y110776D02*
Y110382D01*
X162881D01*
Y110452D01*
X162765Y110567D01*
X162627Y110660D01*
X162395Y110776D01*
D02*
G37*
G36*
X155684Y110706D02*
X155661D01*
X155546Y110683D01*
X155476Y110614D01*
X155453Y110521D01*
Y110498D01*
X155476Y110382D01*
X155546Y110336D01*
X155638Y110313D01*
X155661D01*
X155777Y110336D01*
X155823Y110405D01*
X155847Y110475D01*
Y110498D01*
X155823Y110614D01*
X155754Y110683D01*
X155684Y110706D01*
D02*
G37*
G36*
X156147Y108924D02*
X155384D01*
Y108161D01*
X156147D01*
Y108924D01*
D02*
G37*
G36*
X160035Y107189D02*
X157952D01*
Y107050D01*
X160035D01*
Y107189D01*
D02*
G37*
G36*
X162812Y109665D02*
X156333D01*
X156379Y109318D01*
X156541D01*
Y108577D01*
X157513Y107582D01*
X160428D01*
Y106657D01*
X158415D01*
X159757Y105268D01*
X162696Y108323D01*
X162812Y109665D01*
D02*
G37*
G36*
X162627Y107675D02*
X160035Y104991D01*
X162164Y102792D01*
X162627Y107675D01*
D02*
G37*
G36*
X156541Y107999D02*
Y107767D01*
X156494D01*
X156957Y102376D01*
X159479Y104991D01*
X157860Y106657D01*
X157513D01*
Y107004D01*
X156541Y107999D01*
D02*
G37*
G36*
X159757Y104690D02*
X157003Y101844D01*
X157050Y101335D01*
X157235Y101358D01*
X157443Y101335D01*
X157698Y101265D01*
X157952Y101149D01*
X158137Y101011D01*
X158299Y100849D01*
X158461Y100617D01*
X158577Y100339D01*
X158647Y100039D01*
X158623Y99830D01*
X161886D01*
X162118Y102260D01*
X159757Y104690D01*
D02*
G37*
G36*
X157351Y100640D02*
X157235D01*
X157003Y100617D01*
X156842Y100525D01*
X156703Y100432D01*
X156633Y100293D01*
X156587Y100178D01*
X156541Y100062D01*
Y99969D01*
Y99946D01*
X156564Y99715D01*
X156656Y99553D01*
X156749Y99414D01*
X156888Y99344D01*
X157003Y99298D01*
X157119Y99275D01*
X157212Y99252D01*
X157235D01*
X157466Y99275D01*
X157628Y99368D01*
X157767Y99483D01*
X157837Y99599D01*
X157883Y99738D01*
X157906Y99830D01*
X157929Y99923D01*
Y99946D01*
X157906Y100178D01*
X157813Y100339D01*
X157698Y100478D01*
X157582Y100548D01*
X157443Y100594D01*
X157351Y100640D01*
D02*
G37*
G36*
X161747Y99414D02*
X161655D01*
Y98858D01*
X161747D01*
Y99414D01*
D02*
G37*
%LPD*%
G36*
X157397Y100386D02*
X157513Y100339D01*
X157582Y100270D01*
X157628Y100178D01*
X157698Y100015D01*
Y99969D01*
Y99946D01*
X157675Y99784D01*
X157628Y99668D01*
X157559Y99599D01*
X157466Y99553D01*
X157304Y99483D01*
X157235D01*
X157073Y99506D01*
X156957Y99553D01*
X156888Y99622D01*
X156818Y99715D01*
X156772Y99877D01*
Y99923D01*
Y99946D01*
X156795Y100108D01*
X156842Y100224D01*
X156911Y100293D01*
X157003Y100363D01*
X157166Y100409D01*
X157235D01*
X157397Y100386D01*
D02*
G37*
%LPC*%
G36*
X157258Y100015D02*
X157189D01*
X157166Y99992D01*
Y99969D01*
Y99946D01*
Y99900D01*
X157189Y99877D01*
X157235D01*
X157281Y99900D01*
X157304Y99923D01*
Y99946D01*
X157281Y99992D01*
X157258Y100015D01*
D02*
G37*
%LPD*%
D12*
X0Y0D02*
Y254000D01*
X205500D01*
Y0D02*
Y254000D01*
X0Y0D02*
X205500D01*
D14*
X35197Y184605D02*
X43195D01*
X35197D02*
X43195Y179273D01*
X35197D02*
X43195D01*
X40148Y177064D02*
Y172493D01*
X39387D01*
X38625Y172874D01*
X38244Y173255D01*
X37863Y174017D01*
Y175159D01*
X38244Y175921D01*
X39006Y176683D01*
X40148Y177064D01*
X40910D01*
X42053Y176683D01*
X42814Y175921D01*
X43195Y175159D01*
Y174017D01*
X42814Y173255D01*
X42053Y172493D01*
X37863Y170779D02*
X43195Y169256D01*
X37863Y167732D02*
X43195Y169256D01*
X37863Y167732D02*
X43195Y166209D01*
X37863Y164685D02*
X43195Y166209D01*
Y156725D02*
X35197Y159772D01*
X43195Y162819D01*
X40529Y161676D02*
Y157868D01*
X35197Y149908D02*
Y154859D01*
X43195D01*
Y149908D01*
X39006Y154859D02*
Y151812D01*
X35197Y139624D02*
X43195D01*
X35197Y142290D02*
Y136958D01*
X40148Y136006D02*
Y131435D01*
X39387D01*
X38625Y131816D01*
X38244Y132197D01*
X37863Y132959D01*
Y134101D01*
X38244Y134863D01*
X39006Y135625D01*
X40148Y136006D01*
X40910D01*
X42053Y135625D01*
X42814Y134863D01*
X43195Y134101D01*
Y132959D01*
X42814Y132197D01*
X42053Y131435D01*
X39006Y125151D02*
X38244Y125913D01*
X37863Y126674D01*
Y127817D01*
X38244Y128579D01*
X39006Y129341D01*
X40148Y129721D01*
X40910D01*
X42053Y129341D01*
X42814Y128579D01*
X43195Y127817D01*
Y126674D01*
X42814Y125913D01*
X42053Y125151D01*
X35197Y123437D02*
X43195D01*
X39387D02*
X38244Y122294D01*
X37863Y121533D01*
Y120390D01*
X38244Y119628D01*
X39387Y119247D01*
X43195D01*
X37863Y117153D02*
X43195D01*
X39387D02*
X38244Y116010D01*
X37863Y115248D01*
Y114106D01*
X38244Y113344D01*
X39387Y112963D01*
X43195D01*
X37863Y108964D02*
X38244Y109726D01*
X39006Y110487D01*
X40148Y110868D01*
X40910D01*
X42053Y110487D01*
X42814Y109726D01*
X43195Y108964D01*
Y107821D01*
X42814Y107060D01*
X42053Y106298D01*
X40910Y105917D01*
X40148D01*
X39006Y106298D01*
X38244Y107060D01*
X37863Y107821D01*
Y108964D01*
X35197Y104165D02*
X43195D01*
X37863Y100585D02*
X38244Y101347D01*
X39006Y102108D01*
X40148Y102489D01*
X40910D01*
X42053Y102108D01*
X42814Y101347D01*
X43195Y100585D01*
Y99442D01*
X42814Y98680D01*
X42053Y97919D01*
X40910Y97538D01*
X40148D01*
X39006Y97919D01*
X38244Y98680D01*
X37863Y99442D01*
Y100585D01*
Y91215D02*
X43957D01*
X45100Y91596D01*
X45481Y91977D01*
X45862Y92739D01*
Y93881D01*
X45481Y94643D01*
X39006Y91215D02*
X38244Y91977D01*
X37863Y92739D01*
Y93881D01*
X38244Y94643D01*
X39006Y95405D01*
X40148Y95786D01*
X40910D01*
X42053Y95405D01*
X42814Y94643D01*
X43195Y93881D01*
Y92739D01*
X42814Y91977D01*
X42053Y91215D01*
X37863Y88701D02*
X43195Y86416D01*
X37863Y84131D02*
X43195Y86416D01*
X44719Y87178D01*
X45481Y87940D01*
X45862Y88701D01*
Y89082D01*
X35197Y76514D02*
X43195D01*
X37863Y74838D02*
X43195D01*
X39387D02*
X38244Y73695D01*
X37863Y72934D01*
Y71791D01*
X38244Y71029D01*
X39387Y70648D01*
X43195D01*
X39006Y63983D02*
X38244Y64745D01*
X37863Y65507D01*
Y66649D01*
X38244Y67411D01*
X39006Y68173D01*
X40148Y68554D01*
X40910D01*
X42053Y68173D01*
X42814Y67411D01*
X43195Y66649D01*
Y65507D01*
X42814Y64745D01*
X42053Y63983D01*
X42434Y61888D02*
X42814Y62269D01*
X43195Y61888D01*
X42814Y61507D01*
X42434Y61888D01*
X49861Y207000D02*
X57859D01*
X49861D02*
X57859Y201668D01*
X49861D02*
X57859D01*
Y193365D02*
X49861Y196412D01*
X57859Y199459D01*
X55193Y198316D02*
Y194507D01*
X49861Y186547D02*
Y191499D01*
X57859D01*
Y186547D01*
X53670Y191499D02*
Y188452D01*
X54432Y178930D02*
Y172074D01*
X51766Y164000D02*
X51004Y164381D01*
X50242Y165142D01*
X49861Y165904D01*
Y167428D01*
X50242Y168189D01*
X51004Y168951D01*
X51766Y169332D01*
X52908Y169713D01*
X54813D01*
X55955Y169332D01*
X56717Y168951D01*
X57479Y168189D01*
X57859Y167428D01*
Y165904D01*
X57479Y165142D01*
X56717Y164381D01*
X55955Y164000D01*
X49861Y161752D02*
X57859Y159848D01*
X49861Y157944D02*
X57859Y159848D01*
X49861Y157944D02*
X57859Y156040D01*
X49861Y154135D02*
X57859Y156040D01*
X49861Y151774D02*
Y147584D01*
X52908Y149869D01*
Y148727D01*
X53289Y147965D01*
X53670Y147584D01*
X54813Y147203D01*
X55574D01*
X56717Y147584D01*
X57479Y148346D01*
X57859Y149488D01*
Y150631D01*
X57479Y151774D01*
X57098Y152155D01*
X56336Y152535D01*
X49861Y143128D02*
X50242Y144271D01*
X51385Y145032D01*
X53289Y145413D01*
X54432D01*
X56336Y145032D01*
X57479Y144271D01*
X57859Y143128D01*
Y142366D01*
X57479Y141224D01*
X56336Y140462D01*
X54432Y140081D01*
X53289D01*
X51385Y140462D01*
X50242Y141224D01*
X49861Y142366D01*
Y143128D01*
Y136387D02*
X50242Y137529D01*
X51004Y137910D01*
X51766D01*
X52527Y137529D01*
X52908Y136767D01*
X53289Y135244D01*
X53670Y134101D01*
X54432Y133340D01*
X55193Y132959D01*
X56336D01*
X57098Y133340D01*
X57479Y133721D01*
X57859Y134863D01*
Y136387D01*
X57479Y137529D01*
X57098Y137910D01*
X56336Y138291D01*
X55193D01*
X54432Y137910D01*
X53670Y137148D01*
X53289Y136006D01*
X52908Y134482D01*
X52527Y133721D01*
X51766Y133340D01*
X51004D01*
X50242Y133721D01*
X49861Y134863D01*
Y136387D01*
Y128503D02*
X57859D01*
X49861Y131169D02*
Y125836D01*
X54432Y124884D02*
Y118029D01*
X57859Y109573D02*
X49861Y112620D01*
X57859Y115667D01*
X55193Y114525D02*
Y110716D01*
X49861Y105041D02*
X57859D01*
X49861Y107707D02*
Y102375D01*
X51004Y96090D02*
X50242Y96852D01*
X49861Y97995D01*
Y99518D01*
X50242Y100661D01*
X51004Y101423D01*
X51766D01*
X52527Y101042D01*
X52908Y100661D01*
X53289Y99899D01*
X54051Y97614D01*
X54432Y96852D01*
X54813Y96471D01*
X55574Y96090D01*
X56717D01*
X57479Y96852D01*
X57859Y97995D01*
Y99518D01*
X57479Y100661D01*
X56717Y101423D01*
X57859Y88206D02*
X49861Y91253D01*
X57859Y94300D01*
X55193Y93158D02*
Y89349D01*
X49861Y86340D02*
X57859D01*
X49861D02*
X57859Y83293D01*
X49861Y80246D02*
X57859Y83293D01*
X49861Y80246D02*
X57859D01*
X49861Y77961D02*
X57859D01*
Y73391D01*
X51385Y72514D02*
X51004Y71753D01*
X49861Y70610D01*
X57859D01*
X51385Y66649D02*
X51004Y65887D01*
X49861Y64745D01*
X57859D01*
X54432Y60784D02*
Y53928D01*
X49861Y49281D02*
X50242Y50424D01*
X51385Y51186D01*
X53289Y51567D01*
X54432D01*
X56336Y51186D01*
X57479Y50424D01*
X57859Y49281D01*
Y48520D01*
X57479Y47377D01*
X56336Y46615D01*
X54432Y46235D01*
X53289D01*
X51385Y46615D01*
X50242Y47377D01*
X49861Y48520D01*
Y49281D01*
X51766Y44063D02*
X51385D01*
X50623Y43683D01*
X50242Y43302D01*
X49861Y42540D01*
Y41017D01*
X50242Y40255D01*
X50623Y39874D01*
X51385Y39493D01*
X52146D01*
X52908Y39874D01*
X54051Y40636D01*
X57859Y44444D01*
Y39112D01*
X61859Y167237D02*
X69857D01*
X61859D02*
Y163809D01*
X62240Y162667D01*
X62621Y162286D01*
X63383Y161905D01*
X64144D01*
X64906Y162286D01*
X65287Y162667D01*
X65668Y163809D01*
Y167237D01*
Y164571D02*
X69857Y161905D01*
X61859Y157830D02*
X62240Y158591D01*
X63002Y159353D01*
X63763Y159734D01*
X64906Y160115D01*
X66810D01*
X67953Y159734D01*
X68715Y159353D01*
X69476Y158591D01*
X69857Y157830D01*
Y156306D01*
X69476Y155544D01*
X68715Y154783D01*
X67953Y154402D01*
X66810Y154021D01*
X64906D01*
X63763Y154402D01*
X63002Y154783D01*
X62240Y155544D01*
X61859Y156306D01*
Y157830D01*
Y152155D02*
X69857D01*
X61859Y146822D02*
X69857D01*
X65668Y152155D02*
Y146822D01*
X63002Y139281D02*
X62240Y140043D01*
X61859Y141185D01*
Y142709D01*
X62240Y143852D01*
X63002Y144613D01*
X63763D01*
X64525Y144232D01*
X64906Y143852D01*
X65287Y143090D01*
X66049Y140805D01*
X66430Y140043D01*
X66810Y139662D01*
X67572Y139281D01*
X68715D01*
X69476Y140043D01*
X69857Y141185D01*
Y142709D01*
X69476Y143852D01*
X68715Y144613D01*
X71000Y131207D02*
X61859Y125874D01*
X66049Y119057D02*
Y115629D01*
X65668Y114487D01*
X65287Y114106D01*
X64525Y113725D01*
X63383D01*
X62621Y114106D01*
X62240Y114487D01*
X61859Y115629D01*
Y119057D01*
X69857D01*
X61859Y111935D02*
X69857D01*
X65668D02*
X64906Y111173D01*
X64525Y110411D01*
Y109269D01*
X64906Y108507D01*
X65668Y107745D01*
X66810Y107364D01*
X67572D01*
X68715Y107745D01*
X69476Y108507D01*
X69857Y109269D01*
Y110411D01*
X69476Y111173D01*
X68715Y111935D01*
X61859Y99366D02*
X69857D01*
X61859D02*
Y94415D01*
X65668Y99366D02*
Y96319D01*
X64525Y93501D02*
X69857D01*
X66810D02*
X65668Y93120D01*
X64906Y92358D01*
X64525Y91596D01*
Y90453D01*
X66810Y89730D02*
Y85159D01*
X66049D01*
X65287Y85540D01*
X64906Y85921D01*
X64525Y86683D01*
Y87826D01*
X64906Y88587D01*
X65668Y89349D01*
X66810Y89730D01*
X67572D01*
X68715Y89349D01*
X69476Y88587D01*
X69857Y87826D01*
Y86683D01*
X69476Y85921D01*
X68715Y85159D01*
X66810Y83446D02*
Y78875D01*
X66049D01*
X65287Y79256D01*
X64906Y79637D01*
X64525Y80399D01*
Y81541D01*
X64906Y82303D01*
X65668Y83065D01*
X66810Y83446D01*
X67572D01*
X68715Y83065D01*
X69476Y82303D01*
X69857Y81541D01*
Y80399D01*
X69476Y79637D01*
X68715Y78875D01*
M02*
