G04*
G04 #@! TF.GenerationSoftware,Altium Limited,Altium Designer,19.0.12 (326)*
G04*
G04 Layer_Physical_Order=2*
G04 Layer_Color=16711680*
%FSLAX25Y25*%
%MOIN*%
G70*
G01*
G75*
%ADD12C,0.01181*%
%ADD14C,0.01000*%
%ADD34C,0.02200*%
%ADD35C,0.01200*%
%ADD36C,0.25000*%
%ADD37R,0.11000X0.06000*%
%ADD38O,0.11000X0.06000*%
%ADD39R,0.06000X0.11000*%
%ADD40O,0.06000X0.11000*%
%ADD41C,0.03400*%
%ADD42C,0.02400*%
G36*
X200457Y222000D02*
X198500D01*
Y218000D01*
Y214000D01*
X200457D01*
Y212035D01*
X195500D01*
X194456Y211897D01*
X193483Y211494D01*
X192647Y210853D01*
X192006Y210017D01*
X191603Y209044D01*
X191465Y208000D01*
X191603Y206956D01*
X192006Y205983D01*
X192647Y205147D01*
X193483Y204506D01*
X194456Y204103D01*
X195500Y203965D01*
X200457D01*
Y202034D01*
X195500D01*
X194456Y201897D01*
X193483Y201494D01*
X192647Y200853D01*
X192006Y200017D01*
X191603Y199044D01*
X191465Y198000D01*
X191603Y196956D01*
X192006Y195983D01*
X192647Y195147D01*
X193483Y194506D01*
X194456Y194103D01*
X195500Y193965D01*
X200457D01*
Y192034D01*
X198500D01*
Y188000D01*
Y183966D01*
X200457D01*
Y182035D01*
X195500D01*
X194456Y181897D01*
X193483Y181494D01*
X192647Y180853D01*
X192006Y180017D01*
X191603Y179044D01*
X191465Y178000D01*
X191603Y176956D01*
X192006Y175983D01*
X192647Y175147D01*
X193483Y174506D01*
X194456Y174103D01*
X195500Y173966D01*
X200457D01*
Y172035D01*
X195500D01*
X194456Y171897D01*
X193483Y171494D01*
X192647Y170853D01*
X192006Y170017D01*
X191603Y169044D01*
X191465Y168000D01*
X191603Y166956D01*
X192006Y165983D01*
X192647Y165147D01*
X193483Y164506D01*
X194456Y164103D01*
X195500Y163965D01*
X200457D01*
Y162034D01*
X198500D01*
Y158000D01*
Y153965D01*
X200457D01*
Y152034D01*
X195500D01*
X194456Y151897D01*
X193483Y151494D01*
X192647Y150853D01*
X192006Y150017D01*
X191603Y149044D01*
X191465Y148000D01*
X191603Y146956D01*
X192006Y145983D01*
X192647Y145147D01*
X193483Y144506D01*
X194456Y144103D01*
X195500Y143965D01*
X200457D01*
Y142034D01*
X198500D01*
Y138000D01*
Y133966D01*
X200457D01*
Y132035D01*
X198500D01*
Y128000D01*
Y123966D01*
X200457D01*
Y122035D01*
X195500D01*
X194456Y121897D01*
X193483Y121494D01*
X192647Y120853D01*
X192006Y120017D01*
X191603Y119044D01*
X191465Y118000D01*
X191603Y116956D01*
X192006Y115983D01*
X192647Y115147D01*
X193483Y114506D01*
X194456Y114103D01*
X195500Y113965D01*
X200457D01*
Y112034D01*
X195500D01*
X194456Y111897D01*
X193483Y111494D01*
X192647Y110853D01*
X192006Y110017D01*
X191603Y109044D01*
X191465Y108000D01*
X191603Y106956D01*
X192006Y105983D01*
X192647Y105147D01*
X193483Y104506D01*
X194456Y104103D01*
X195500Y103965D01*
X200457D01*
Y102034D01*
X195500D01*
X194456Y101897D01*
X193483Y101494D01*
X192647Y100853D01*
X192006Y100017D01*
X191603Y99044D01*
X191465Y98000D01*
X191603Y96956D01*
X192006Y95983D01*
X192647Y95147D01*
X193483Y94506D01*
X194456Y94103D01*
X195500Y93966D01*
X200457D01*
Y92035D01*
X195500D01*
X194456Y91897D01*
X193483Y91494D01*
X192647Y90853D01*
X192101Y90141D01*
X175387D01*
X116141Y149387D01*
Y161113D01*
X127152Y172124D01*
X127586Y172414D01*
X128072Y173142D01*
X128243Y174000D01*
X128072Y174858D01*
X127586Y175586D01*
X126858Y176072D01*
X126000Y176243D01*
X125142Y176072D01*
X124414Y175586D01*
X124124Y175152D01*
X112486Y163514D01*
X112022Y162819D01*
X111859Y162000D01*
Y150641D01*
X100500D01*
X99681Y150478D01*
X98986Y150014D01*
X66486Y117514D01*
X66022Y116819D01*
X65859Y116000D01*
Y13899D01*
X65147Y13353D01*
X64506Y12517D01*
X64103Y11544D01*
X63965Y10500D01*
Y5500D01*
X63966Y5494D01*
X63571Y5043D01*
X62429D01*
X62034Y5494D01*
X62034Y5500D01*
Y10500D01*
X61897Y11544D01*
X61494Y12517D01*
X60853Y13353D01*
X60017Y13994D01*
X59631Y14154D01*
Y114824D01*
X105080Y160273D01*
X105858Y160428D01*
X106586Y160914D01*
X107072Y161642D01*
X107243Y162500D01*
X107072Y163358D01*
X106586Y164086D01*
X105858Y164572D01*
X105504Y165255D01*
X105544Y165365D01*
X105858Y165428D01*
X106586Y165914D01*
X107072Y166642D01*
X107243Y167500D01*
X107072Y168358D01*
X106586Y169086D01*
X105858Y169572D01*
X105000Y169743D01*
X104142Y169572D01*
X103414Y169086D01*
X102928Y168358D01*
X102773Y167580D01*
X46847Y111653D01*
X46493Y111124D01*
X46369Y110500D01*
Y14154D01*
X45983Y13994D01*
X45147Y13353D01*
X44506Y12517D01*
X44103Y11544D01*
X43966Y10500D01*
Y5500D01*
X43966Y5494D01*
X43571Y5043D01*
X42429D01*
X42034Y5494D01*
X42035Y5500D01*
Y10500D01*
X41897Y11544D01*
X41494Y12517D01*
X40853Y13353D01*
X40017Y13994D01*
X39044Y14397D01*
X38000Y14535D01*
X36956Y14397D01*
X35983Y13994D01*
X35147Y13353D01*
X34506Y12517D01*
X34103Y11544D01*
X33966Y10500D01*
Y5500D01*
X33966Y5494D01*
X33571Y5043D01*
X32429D01*
X32034Y5494D01*
X32035Y5500D01*
Y10500D01*
X31897Y11544D01*
X31494Y12517D01*
X30853Y13353D01*
X30017Y13994D01*
X29044Y14397D01*
X28000Y14535D01*
X26956Y14397D01*
X25983Y13994D01*
X25147Y13353D01*
X24506Y12517D01*
X24103Y11544D01*
X23966Y10500D01*
Y5500D01*
X23966Y5494D01*
X23571Y5043D01*
X22429D01*
X22034Y5494D01*
X22035Y5500D01*
Y10500D01*
X21897Y11544D01*
X21494Y12517D01*
X20853Y13353D01*
X20017Y13994D01*
X19044Y14397D01*
X18000Y14535D01*
X16956Y14397D01*
X15983Y13994D01*
X15147Y13353D01*
X14506Y12517D01*
X14103Y11544D01*
X13965Y10500D01*
Y5500D01*
X13966Y5494D01*
X13571Y5043D01*
X12000D01*
Y7500D01*
X8000D01*
Y8000D01*
X7500D01*
Y14500D01*
X5043D01*
Y23571D01*
X5494Y23966D01*
X5500Y23966D01*
X10500D01*
X11544Y24103D01*
X12517Y24506D01*
X13353Y25147D01*
X13899Y25859D01*
X20000D01*
X20819Y26022D01*
X21514Y26486D01*
X40014Y44986D01*
X40478Y45681D01*
X40641Y46500D01*
Y139613D01*
X62270Y161242D01*
X62734Y161936D01*
X62897Y162756D01*
Y170731D01*
X62999Y171244D01*
X62828Y172102D01*
X62342Y172830D01*
X61614Y173316D01*
X60756Y173487D01*
X59898Y173316D01*
X59170Y172830D01*
X58684Y172102D01*
X58513Y171244D01*
X58615Y170731D01*
Y163643D01*
X36986Y142014D01*
X36522Y141319D01*
X36359Y140500D01*
Y47387D01*
X19113Y30141D01*
X13899D01*
X13353Y30853D01*
X12517Y31494D01*
X11544Y31897D01*
X10500Y32035D01*
X5500D01*
X5494Y32034D01*
X5043Y32429D01*
Y33571D01*
X5494Y33966D01*
X5500Y33966D01*
X10500D01*
X11544Y34103D01*
X12517Y34506D01*
X13353Y35147D01*
X13994Y35983D01*
X14397Y36956D01*
X14535Y38000D01*
X14397Y39044D01*
X13994Y40017D01*
X13353Y40853D01*
X12517Y41494D01*
X11544Y41897D01*
X10500Y42035D01*
X5500D01*
X5494Y42034D01*
X5043Y42429D01*
Y43571D01*
X5494Y43966D01*
X5500Y43966D01*
X10500D01*
X11544Y44103D01*
X12517Y44506D01*
X13353Y45147D01*
X13994Y45983D01*
X14397Y46956D01*
X14535Y48000D01*
X14397Y49044D01*
X13994Y50017D01*
X13353Y50853D01*
X12517Y51494D01*
X11544Y51897D01*
X10500Y52034D01*
X5500D01*
X5494Y52034D01*
X5043Y52429D01*
Y53571D01*
X5494Y53966D01*
X5500Y53966D01*
X10500D01*
X11544Y54103D01*
X12517Y54506D01*
X13353Y55147D01*
X13994Y55983D01*
X14196Y56471D01*
X17000D01*
X17585Y56587D01*
X18081Y56919D01*
X22081Y60919D01*
X22413Y61415D01*
X22529Y62000D01*
Y129376D01*
X22586Y129414D01*
X23072Y130142D01*
X23243Y131000D01*
X23072Y131858D01*
X22586Y132586D01*
X21858Y133072D01*
X21000Y133243D01*
X20142Y133072D01*
X19414Y132586D01*
X18928Y131858D01*
X18757Y131000D01*
X18928Y130142D01*
X19414Y129414D01*
X19471Y129376D01*
Y62634D01*
X16366Y59529D01*
X14196D01*
X13994Y60017D01*
X13353Y60853D01*
X12517Y61494D01*
X11544Y61897D01*
X10500Y62034D01*
X5500D01*
X5494Y62034D01*
X5043Y62429D01*
Y63571D01*
X5494Y63966D01*
X5500Y63965D01*
X7500D01*
Y68000D01*
Y72035D01*
X5500D01*
X5494Y72034D01*
X5043Y72429D01*
Y73571D01*
X5494Y73966D01*
X5500Y73966D01*
X7500D01*
Y78000D01*
Y82034D01*
X5500D01*
X5494Y82034D01*
X5043Y82429D01*
Y83571D01*
X5494Y83966D01*
X5500Y83965D01*
X10500D01*
X11544Y84103D01*
X12517Y84506D01*
X13353Y85147D01*
X13994Y85983D01*
X14397Y86956D01*
X14535Y88000D01*
X14397Y89044D01*
X13994Y90017D01*
X13353Y90853D01*
X12517Y91494D01*
X11544Y91897D01*
X10500Y92035D01*
X5500D01*
X5494Y92034D01*
X5043Y92429D01*
Y93571D01*
X5494Y93966D01*
X5500Y93966D01*
X10500D01*
X11544Y94103D01*
X12517Y94506D01*
X13353Y95147D01*
X13994Y95983D01*
X14397Y96956D01*
X14535Y98000D01*
X14397Y99044D01*
X13994Y100017D01*
X13353Y100853D01*
X12517Y101494D01*
X11544Y101897D01*
X10500Y102034D01*
X5500D01*
X5494Y102034D01*
X5043Y102429D01*
Y103571D01*
X5494Y103966D01*
X5500Y103965D01*
X10500D01*
X11544Y104103D01*
X12517Y104506D01*
X13353Y105147D01*
X13994Y105983D01*
X14397Y106956D01*
X14535Y108000D01*
X14397Y109044D01*
X13994Y110017D01*
X13353Y110853D01*
X12517Y111494D01*
X11544Y111897D01*
X10500Y112034D01*
X5500D01*
X5494Y112034D01*
X5043Y112429D01*
Y113571D01*
X5494Y113966D01*
X5500Y113965D01*
X10500D01*
X11544Y114103D01*
X12517Y114506D01*
X13353Y115147D01*
X13994Y115983D01*
X14397Y116956D01*
X14535Y118000D01*
X14397Y119044D01*
X13994Y120017D01*
X13353Y120853D01*
X12517Y121494D01*
X11544Y121897D01*
X10500Y122035D01*
X5500D01*
X5494Y122034D01*
X5043Y122429D01*
Y123571D01*
X5494Y123966D01*
X5500Y123966D01*
X10500D01*
X11544Y124103D01*
X12517Y124506D01*
X13353Y125147D01*
X13994Y125983D01*
X14397Y126956D01*
X14535Y128000D01*
X14397Y129044D01*
X13994Y130017D01*
X13353Y130853D01*
X12517Y131494D01*
X11544Y131897D01*
X10500Y132035D01*
X5500D01*
X5494Y132034D01*
X5043Y132429D01*
Y133571D01*
X5494Y133966D01*
X5500Y133966D01*
X10500D01*
X11544Y134103D01*
X12517Y134506D01*
X13353Y135147D01*
X13994Y135983D01*
X14397Y136956D01*
X14535Y138000D01*
X14397Y139044D01*
X13994Y140017D01*
X13353Y140853D01*
X12517Y141494D01*
X11544Y141897D01*
X10500Y142034D01*
X5500D01*
X5494Y142034D01*
X5043Y142429D01*
Y143571D01*
X5494Y143966D01*
X5500Y143965D01*
X10500D01*
X11544Y144103D01*
X12517Y144506D01*
X13353Y145147D01*
X13994Y145983D01*
X14397Y146956D01*
X14535Y148000D01*
X14397Y149044D01*
X13994Y150017D01*
X13353Y150853D01*
X12517Y151494D01*
X11544Y151897D01*
X10500Y152034D01*
X5500D01*
X5494Y152034D01*
X5043Y152429D01*
Y153571D01*
X5494Y153966D01*
X5500Y153965D01*
X10500D01*
X11544Y154103D01*
X12517Y154506D01*
X13353Y155147D01*
X13994Y155983D01*
X14397Y156956D01*
X14535Y158000D01*
X14397Y159044D01*
X13994Y160017D01*
X13353Y160853D01*
X12517Y161494D01*
X11544Y161897D01*
X10500Y162034D01*
X5500D01*
X5494Y162034D01*
X5043Y162429D01*
Y163571D01*
X5494Y163966D01*
X5500Y163965D01*
X7500D01*
Y168000D01*
Y172035D01*
X5500D01*
X5494Y172034D01*
X5043Y172429D01*
Y173571D01*
X5494Y173966D01*
X5500Y173966D01*
X10500D01*
X11544Y174103D01*
X12517Y174506D01*
X13353Y175147D01*
X13994Y175983D01*
X14397Y176956D01*
X14535Y178000D01*
X14397Y179044D01*
X13994Y180017D01*
X13353Y180853D01*
X12517Y181494D01*
X11544Y181897D01*
X10500Y182035D01*
X5500D01*
X5494Y182034D01*
X5043Y182429D01*
Y183571D01*
X5494Y183966D01*
X5500Y183966D01*
X7500D01*
Y188000D01*
Y192034D01*
X5500D01*
X5494Y192034D01*
X5043Y192429D01*
Y193571D01*
X5494Y193966D01*
X5500Y193965D01*
X10500D01*
X11544Y194103D01*
X12517Y194506D01*
X13353Y195147D01*
X13994Y195983D01*
X14397Y196956D01*
X14535Y198000D01*
X14397Y199044D01*
X13994Y200017D01*
X13353Y200853D01*
X12517Y201494D01*
X11544Y201897D01*
X10500Y202034D01*
X5500D01*
X5494Y202034D01*
X5043Y202429D01*
Y203571D01*
X5494Y203966D01*
X5500Y203965D01*
X7500D01*
Y208000D01*
Y212035D01*
X5500D01*
X5494Y212034D01*
X5043Y212429D01*
Y214000D01*
X14500D01*
Y222000D01*
X5043D01*
Y248957D01*
X19118D01*
X19340Y248357D01*
X18425Y247575D01*
X17044Y245960D01*
X15934Y244148D01*
X15121Y242185D01*
X14625Y240118D01*
X14458Y238000D01*
X14625Y235882D01*
X15121Y233815D01*
X15934Y231852D01*
X17044Y230040D01*
X18425Y228425D01*
X20040Y227045D01*
X21852Y225934D01*
X23815Y225121D01*
X25882Y224625D01*
X28000Y224458D01*
X30118Y224625D01*
X32185Y225121D01*
X34148Y225934D01*
X35960Y227045D01*
X37576Y228425D01*
X38956Y230040D01*
X40066Y231852D01*
X40879Y233815D01*
X41375Y235882D01*
X41542Y238000D01*
X41375Y240118D01*
X40879Y242185D01*
X40066Y244148D01*
X38956Y245960D01*
X37576Y247575D01*
X36661Y248357D01*
X36882Y248957D01*
X169118D01*
X169340Y248357D01*
X168424Y247575D01*
X167044Y245960D01*
X165934Y244148D01*
X165121Y242185D01*
X164625Y240118D01*
X164458Y238000D01*
X164625Y235882D01*
X165121Y233815D01*
X165934Y231852D01*
X167044Y230040D01*
X168424Y228425D01*
X170040Y227045D01*
X171852Y225934D01*
X173815Y225121D01*
X175882Y224625D01*
X178000Y224458D01*
X180118Y224625D01*
X182185Y225121D01*
X184148Y225934D01*
X185960Y227045D01*
X187575Y228425D01*
X188955Y230040D01*
X190066Y231852D01*
X190879Y233815D01*
X191375Y235882D01*
X191542Y238000D01*
X191375Y240118D01*
X190879Y242185D01*
X190066Y244148D01*
X188955Y245960D01*
X187575Y247575D01*
X186661Y248357D01*
X186882Y248957D01*
X200457D01*
Y222000D01*
D02*
G37*
G36*
X172986Y86486D02*
X173681Y86022D01*
X174500Y85859D01*
X192101D01*
X192647Y85147D01*
X193483Y84506D01*
X194456Y84103D01*
X195500Y83965D01*
X200457D01*
Y82034D01*
X195500D01*
X194456Y81897D01*
X193483Y81494D01*
X192647Y80853D01*
X192006Y80017D01*
X191603Y79044D01*
X191465Y78000D01*
X191603Y76956D01*
X192006Y75983D01*
X192647Y75147D01*
X193483Y74506D01*
X194456Y74103D01*
X195500Y73966D01*
X200457D01*
Y72035D01*
X198500D01*
Y68000D01*
Y63965D01*
X200457D01*
Y62034D01*
X198500D01*
Y58000D01*
Y53966D01*
X200457D01*
Y52034D01*
X195500D01*
X194456Y51897D01*
X193483Y51494D01*
X192647Y50853D01*
X192006Y50017D01*
X191603Y49044D01*
X191465Y48000D01*
X191603Y46956D01*
X192006Y45983D01*
X192647Y45147D01*
X193483Y44506D01*
X194456Y44103D01*
X195500Y43966D01*
X200457D01*
Y42035D01*
X195500D01*
X194456Y41897D01*
X193483Y41494D01*
X192647Y40853D01*
X192006Y40017D01*
X191603Y39044D01*
X191465Y38000D01*
X191603Y36956D01*
X192006Y35983D01*
X192647Y35147D01*
X193483Y34506D01*
X194456Y34103D01*
X195500Y33966D01*
X200457D01*
Y32035D01*
X195500D01*
X194456Y31897D01*
X193483Y31494D01*
X192647Y30853D01*
X192006Y30017D01*
X191603Y29044D01*
X191465Y28000D01*
X191603Y26956D01*
X192006Y25983D01*
X192647Y25147D01*
X193483Y24506D01*
X194456Y24103D01*
X195500Y23966D01*
X200457D01*
Y14338D01*
X199857Y14060D01*
X199044Y14397D01*
X198000Y14535D01*
X196956Y14397D01*
X195983Y13994D01*
X195147Y13353D01*
X194506Y12517D01*
X194103Y11544D01*
X193965Y10500D01*
Y5500D01*
X193966Y5494D01*
X193571Y5043D01*
X192429D01*
X192034Y5494D01*
X192034Y5500D01*
Y10500D01*
X191897Y11544D01*
X191494Y12517D01*
X190853Y13353D01*
X190017Y13994D01*
X189044Y14397D01*
X188000Y14535D01*
X186956Y14397D01*
X185983Y13994D01*
X185147Y13353D01*
X184506Y12517D01*
X184103Y11544D01*
X183966Y10500D01*
Y5500D01*
X183966Y5494D01*
X183571Y5043D01*
X182429D01*
X182034Y5494D01*
X182035Y5500D01*
Y10500D01*
X181897Y11544D01*
X181494Y12517D01*
X180853Y13353D01*
X180017Y13994D01*
X179044Y14397D01*
X178000Y14535D01*
X176956Y14397D01*
X175983Y13994D01*
X175147Y13353D01*
X174506Y12517D01*
X174103Y11544D01*
X173966Y10500D01*
Y5500D01*
X173966Y5494D01*
X173571Y5043D01*
X172429D01*
X172034Y5494D01*
X172035Y5500D01*
Y10500D01*
X171897Y11544D01*
X171494Y12517D01*
X170853Y13353D01*
X170017Y13994D01*
X169044Y14397D01*
X168000Y14535D01*
X166956Y14397D01*
X165983Y13994D01*
X165147Y13353D01*
X164506Y12517D01*
X164103Y11544D01*
X163965Y10500D01*
Y5500D01*
X163966Y5494D01*
X163571Y5043D01*
X162429D01*
X162034Y5494D01*
X162034Y5500D01*
Y10500D01*
X161897Y11544D01*
X161494Y12517D01*
X160853Y13353D01*
X160017Y13994D01*
X159044Y14397D01*
X158000Y14535D01*
X156956Y14397D01*
X155983Y13994D01*
X155147Y13353D01*
X154506Y12517D01*
X154103Y11544D01*
X153965Y10500D01*
Y5500D01*
X153966Y5494D01*
X153571Y5043D01*
X152429D01*
X152034Y5494D01*
X152034Y5500D01*
Y10500D01*
X151897Y11544D01*
X151494Y12517D01*
X150853Y13353D01*
X150017Y13994D01*
X149044Y14397D01*
X148000Y14535D01*
X146956Y14397D01*
X145983Y13994D01*
X145147Y13353D01*
X144506Y12517D01*
X144103Y11544D01*
X143965Y10500D01*
Y5500D01*
X143966Y5494D01*
X143571Y5043D01*
X142429D01*
X142034Y5494D01*
X142034Y5500D01*
Y10500D01*
X141897Y11544D01*
X141494Y12517D01*
X140853Y13353D01*
X140017Y13994D01*
X139044Y14397D01*
X138000Y14535D01*
X136956Y14397D01*
X135983Y13994D01*
X135147Y13353D01*
X134506Y12517D01*
X134103Y11544D01*
X133966Y10500D01*
Y5500D01*
X133966Y5494D01*
X133571Y5043D01*
X132429D01*
X132034Y5494D01*
X132035Y5500D01*
Y10500D01*
X131897Y11544D01*
X131494Y12517D01*
X130853Y13353D01*
X130017Y13994D01*
X129044Y14397D01*
X128000Y14535D01*
X126956Y14397D01*
X125983Y13994D01*
X125147Y13353D01*
X124506Y12517D01*
X124103Y11544D01*
X123966Y10500D01*
Y5500D01*
X123966Y5494D01*
X123571Y5043D01*
X122429D01*
X122034Y5494D01*
X122035Y5500D01*
Y10500D01*
X121897Y11544D01*
X121494Y12517D01*
X120853Y13353D01*
X120017Y13994D01*
X119044Y14397D01*
X118000Y14535D01*
X116956Y14397D01*
X115983Y13994D01*
X115147Y13353D01*
X114506Y12517D01*
X114103Y11544D01*
X113965Y10500D01*
Y5500D01*
X113966Y5494D01*
X113571Y5043D01*
X112429D01*
X112034Y5494D01*
X112034Y5500D01*
Y10500D01*
X111897Y11544D01*
X111494Y12517D01*
X110853Y13353D01*
X110017Y13994D01*
X109044Y14397D01*
X108000Y14535D01*
X106956Y14397D01*
X105983Y13994D01*
X105147Y13353D01*
X104506Y12517D01*
X104103Y11544D01*
X103965Y10500D01*
Y5500D01*
X103966Y5494D01*
X103571Y5043D01*
X102429D01*
X102034Y5494D01*
X102034Y5500D01*
Y7500D01*
X98000D01*
X93966D01*
Y5500D01*
X93966Y5494D01*
X93571Y5043D01*
X92429D01*
X92034Y5494D01*
X92035Y5500D01*
Y7500D01*
X88000D01*
X83965D01*
Y5500D01*
X83966Y5494D01*
X83571Y5043D01*
X82429D01*
X82034Y5494D01*
X82034Y5500D01*
Y10500D01*
X81897Y11544D01*
X81494Y12517D01*
X80853Y13353D01*
X80017Y13994D01*
X79631Y14154D01*
Y116482D01*
X80072Y117142D01*
X80243Y118000D01*
X80072Y118858D01*
X79586Y119586D01*
X78858Y120072D01*
X78000Y120243D01*
X77142Y120072D01*
X76414Y119586D01*
X75928Y118858D01*
X75757Y118000D01*
X75928Y117142D01*
X76369Y116482D01*
Y14154D01*
X75983Y13994D01*
X75147Y13353D01*
X74506Y12517D01*
X74103Y11544D01*
X73966Y10500D01*
Y5500D01*
X73966Y5494D01*
X73571Y5043D01*
X72429D01*
X72034Y5494D01*
X72035Y5500D01*
Y10500D01*
X71897Y11544D01*
X71494Y12517D01*
X70853Y13353D01*
X70141Y13899D01*
Y115113D01*
X101387Y146359D01*
X113113D01*
X172986Y86486D01*
D02*
G37*
%LPC*%
G36*
X197500Y222000D02*
X191500D01*
Y218500D01*
X197500D01*
Y222000D01*
D02*
G37*
G36*
Y217500D02*
X191500D01*
Y214000D01*
X197500D01*
Y217500D01*
D02*
G37*
G36*
X10500Y212035D02*
X8500D01*
Y208500D01*
X14469D01*
X14397Y209044D01*
X13994Y210017D01*
X13353Y210853D01*
X12517Y211494D01*
X11544Y211897D01*
X10500Y212035D01*
D02*
G37*
G36*
X14469Y207500D02*
X8500D01*
Y203965D01*
X10500D01*
X11544Y204103D01*
X12517Y204506D01*
X13353Y205147D01*
X13994Y205983D01*
X14397Y206956D01*
X14469Y207500D01*
D02*
G37*
G36*
X197500Y192034D02*
X195500D01*
X194456Y191897D01*
X193483Y191494D01*
X192647Y190853D01*
X192006Y190017D01*
X191603Y189044D01*
X191531Y188500D01*
X197500D01*
Y192034D01*
D02*
G37*
G36*
X10500D02*
X8500D01*
Y188500D01*
X14469D01*
X14397Y189044D01*
X13994Y190017D01*
X13353Y190853D01*
X12517Y191494D01*
X11544Y191897D01*
X10500Y192034D01*
D02*
G37*
G36*
X197500Y187500D02*
X191531D01*
X191603Y186956D01*
X192006Y185983D01*
X192647Y185147D01*
X193483Y184506D01*
X194456Y184103D01*
X195500Y183966D01*
X197500D01*
Y187500D01*
D02*
G37*
G36*
X14469D02*
X8500D01*
Y183966D01*
X10500D01*
X11544Y184103D01*
X12517Y184506D01*
X13353Y185147D01*
X13994Y185983D01*
X14397Y186956D01*
X14469Y187500D01*
D02*
G37*
G36*
X10500Y172035D02*
X8500D01*
Y168500D01*
X14469D01*
X14397Y169044D01*
X13994Y170017D01*
X13353Y170853D01*
X12517Y171494D01*
X11544Y171897D01*
X10500Y172035D01*
D02*
G37*
G36*
X14469Y167500D02*
X8500D01*
Y163965D01*
X10500D01*
X11544Y164103D01*
X12517Y164506D01*
X13353Y165147D01*
X13994Y165983D01*
X14397Y166956D01*
X14469Y167500D01*
D02*
G37*
G36*
X197500Y162034D02*
X195500D01*
X194456Y161897D01*
X193483Y161494D01*
X192647Y160853D01*
X192006Y160017D01*
X191603Y159044D01*
X191531Y158500D01*
X197500D01*
Y162034D01*
D02*
G37*
G36*
Y157500D02*
X191531D01*
X191603Y156956D01*
X192006Y155983D01*
X192647Y155147D01*
X193483Y154506D01*
X194456Y154103D01*
X195500Y153965D01*
X197500D01*
Y157500D01*
D02*
G37*
G36*
Y142034D02*
X195500D01*
X194456Y141897D01*
X193483Y141494D01*
X192647Y140853D01*
X192006Y140017D01*
X191603Y139044D01*
X191531Y138500D01*
X197500D01*
Y142034D01*
D02*
G37*
G36*
Y137500D02*
X191531D01*
X191603Y136956D01*
X192006Y135983D01*
X192647Y135147D01*
X193483Y134506D01*
X194456Y134103D01*
X195500Y133966D01*
X197500D01*
Y137500D01*
D02*
G37*
G36*
Y132035D02*
X195500D01*
X194456Y131897D01*
X193483Y131494D01*
X192647Y130853D01*
X192006Y130017D01*
X191603Y129044D01*
X191531Y128500D01*
X197500D01*
Y132035D01*
D02*
G37*
G36*
Y127500D02*
X191531D01*
X191603Y126956D01*
X192006Y125983D01*
X192647Y125147D01*
X193483Y124506D01*
X194456Y124103D01*
X195500Y123966D01*
X197500D01*
Y127500D01*
D02*
G37*
G36*
X10500Y82034D02*
X8500D01*
Y78500D01*
X14469D01*
X14397Y79044D01*
X13994Y80017D01*
X13353Y80853D01*
X12517Y81494D01*
X11544Y81897D01*
X10500Y82034D01*
D02*
G37*
G36*
X14469Y77500D02*
X8500D01*
Y73966D01*
X10500D01*
X11544Y74103D01*
X12517Y74506D01*
X13353Y75147D01*
X13994Y75983D01*
X14397Y76956D01*
X14469Y77500D01*
D02*
G37*
G36*
X10500Y72035D02*
X8500D01*
Y68500D01*
X14469D01*
X14397Y69044D01*
X13994Y70017D01*
X13353Y70853D01*
X12517Y71494D01*
X11544Y71897D01*
X10500Y72035D01*
D02*
G37*
G36*
X14469Y67500D02*
X8500D01*
Y63965D01*
X10500D01*
X11544Y64103D01*
X12517Y64506D01*
X13353Y65147D01*
X13994Y65983D01*
X14397Y66956D01*
X14469Y67500D01*
D02*
G37*
G36*
X12000Y14500D02*
X8500D01*
Y8500D01*
X12000D01*
Y14500D01*
D02*
G37*
G36*
X197500Y72035D02*
X195500D01*
X194456Y71897D01*
X193483Y71494D01*
X192647Y70853D01*
X192006Y70017D01*
X191603Y69044D01*
X191531Y68500D01*
X197500D01*
Y72035D01*
D02*
G37*
G36*
Y67500D02*
X191531D01*
X191603Y66956D01*
X192006Y65983D01*
X192647Y65147D01*
X193483Y64506D01*
X194456Y64103D01*
X195500Y63965D01*
X197500D01*
Y67500D01*
D02*
G37*
G36*
Y62034D02*
X195500D01*
X194456Y61897D01*
X193483Y61494D01*
X192647Y60853D01*
X192006Y60017D01*
X191603Y59044D01*
X191531Y58500D01*
X197500D01*
Y62034D01*
D02*
G37*
G36*
Y57500D02*
X191531D01*
X191603Y56956D01*
X192006Y55983D01*
X192647Y55147D01*
X193483Y54506D01*
X194456Y54103D01*
X195500Y53966D01*
X197500D01*
Y57500D01*
D02*
G37*
G36*
X116000Y132243D02*
X115142Y132072D01*
X114414Y131586D01*
X113928Y130858D01*
X113757Y130000D01*
X113928Y129142D01*
X114414Y128414D01*
X115142Y127928D01*
X115920Y127773D01*
X124369Y119324D01*
Y51518D01*
X123928Y50858D01*
X123757Y50000D01*
X123928Y49142D01*
X124414Y48414D01*
X125142Y47928D01*
X126000Y47757D01*
X126858Y47928D01*
X127586Y48414D01*
X128072Y49142D01*
X128243Y50000D01*
X128072Y50858D01*
X127631Y51518D01*
Y120000D01*
X127631Y120000D01*
X127507Y120624D01*
X127154Y121153D01*
X118227Y130080D01*
X118072Y130858D01*
X117586Y131586D01*
X116858Y132072D01*
X116000Y132243D01*
D02*
G37*
G36*
X110374Y130617D02*
X109516Y130446D01*
X108788Y129960D01*
X108302Y129232D01*
X108131Y128374D01*
X108302Y127516D01*
X108788Y126788D01*
X109516Y126302D01*
X110294Y126147D01*
X118369Y118072D01*
Y45518D01*
X117928Y44858D01*
X117757Y44000D01*
X117928Y43142D01*
X118414Y42414D01*
X119142Y41928D01*
X120000Y41757D01*
X120858Y41928D01*
X121586Y42414D01*
X122072Y43142D01*
X122243Y44000D01*
X122072Y44858D01*
X121631Y45518D01*
Y118748D01*
X121507Y119372D01*
X121153Y119902D01*
X112601Y128454D01*
X112446Y129232D01*
X111960Y129960D01*
X111232Y130446D01*
X110374Y130617D01*
D02*
G37*
G36*
X104000Y132243D02*
X103142Y132072D01*
X102414Y131586D01*
X101928Y130858D01*
X101757Y130000D01*
X101928Y129142D01*
X102369Y128482D01*
Y128000D01*
X102493Y127376D01*
X102847Y126847D01*
X112369Y117324D01*
Y39519D01*
X111989Y39076D01*
X111446Y39217D01*
X111375Y40118D01*
X110879Y42185D01*
X110066Y44148D01*
X108956Y45960D01*
X107576Y47576D01*
X105960Y48956D01*
X104148Y50066D01*
X102185Y50879D01*
X100118Y51375D01*
X98000Y51542D01*
X95882Y51375D01*
X93815Y50879D01*
X91852Y50066D01*
X90040Y48956D01*
X88424Y47576D01*
X87045Y45960D01*
X85934Y44148D01*
X85121Y42185D01*
X84625Y40118D01*
X84458Y38000D01*
X84625Y35882D01*
X85121Y33815D01*
X85934Y31852D01*
X87045Y30040D01*
X88424Y28425D01*
X90040Y27044D01*
X91852Y25934D01*
X93815Y25121D01*
X95882Y24625D01*
X98000Y24458D01*
X100118Y24625D01*
X102185Y25121D01*
X104148Y25934D01*
X105960Y27044D01*
X107576Y28425D01*
X108956Y30040D01*
X110066Y31852D01*
X110879Y33815D01*
X111375Y35882D01*
X111446Y36783D01*
X112060Y36943D01*
X112414Y36414D01*
X113142Y35928D01*
X114000Y35757D01*
X114858Y35928D01*
X115586Y36414D01*
X116072Y37142D01*
X116243Y38000D01*
X116072Y38858D01*
X115631Y39518D01*
Y118000D01*
X115631Y118000D01*
X115507Y118624D01*
X115154Y119153D01*
X105709Y128598D01*
X106072Y129142D01*
X106243Y130000D01*
X106072Y130858D01*
X105586Y131586D01*
X104858Y132072D01*
X104000Y132243D01*
D02*
G37*
G36*
X98500Y14469D02*
Y8500D01*
X102034D01*
Y10500D01*
X101897Y11544D01*
X101494Y12517D01*
X100853Y13353D01*
X100017Y13994D01*
X99044Y14397D01*
X98500Y14469D01*
D02*
G37*
G36*
X88500D02*
Y8500D01*
X92035D01*
Y10500D01*
X91897Y11544D01*
X91494Y12517D01*
X90853Y13353D01*
X90017Y13994D01*
X89044Y14397D01*
X88500Y14469D01*
D02*
G37*
G36*
X97500D02*
X96956Y14397D01*
X95983Y13994D01*
X95147Y13353D01*
X94506Y12517D01*
X94103Y11544D01*
X93966Y10500D01*
Y8500D01*
X97500D01*
Y14469D01*
D02*
G37*
G36*
X87500D02*
X86956Y14397D01*
X85983Y13994D01*
X85147Y13353D01*
X84506Y12517D01*
X84103Y11544D01*
X83965Y10500D01*
Y8500D01*
X87500D01*
Y14469D01*
D02*
G37*
%LPD*%
D12*
X0Y0D02*
Y254000D01*
X205500D01*
Y0D02*
Y254000D01*
X0Y0D02*
X205500D01*
D14*
X21000Y62000D02*
Y131000D01*
X17000Y58000D02*
X21000Y62000D01*
X8000Y58000D02*
X17000D01*
D34*
X60756Y162756D02*
Y171244D01*
X8000Y28000D02*
X20000D01*
X38500Y46500D01*
Y140500D01*
X60756Y162756D01*
X114000Y148500D02*
X174500Y88000D01*
X198000D01*
X114000Y148500D02*
Y162000D01*
X126000Y174000D01*
X68000Y8000D02*
Y116000D01*
X100500Y148500D01*
X114000D01*
D35*
Y38000D02*
Y118000D01*
X104000Y128000D02*
X114000Y118000D01*
X104000Y128000D02*
Y130000D01*
X126000Y50000D02*
Y120000D01*
X116000Y130000D02*
X126000Y120000D01*
X120000Y44000D02*
Y118748D01*
X110874Y127874D02*
X120000Y118748D01*
X58000Y115500D02*
X105000Y162500D01*
X58000Y8000D02*
Y115500D01*
X48000Y8000D02*
Y110500D01*
X105000Y167500D01*
X78000Y8000D02*
Y118000D01*
D36*
X98000Y38000D02*
D03*
X28000Y238000D02*
D03*
X178000D02*
D03*
D37*
X8000Y218000D02*
D03*
X198000D02*
D03*
D38*
X8000Y208000D02*
D03*
Y198000D02*
D03*
Y188000D02*
D03*
Y178000D02*
D03*
Y168000D02*
D03*
Y158000D02*
D03*
Y148000D02*
D03*
Y138000D02*
D03*
Y128000D02*
D03*
Y118000D02*
D03*
Y108000D02*
D03*
Y98000D02*
D03*
Y88000D02*
D03*
Y78000D02*
D03*
Y68000D02*
D03*
Y58000D02*
D03*
Y48000D02*
D03*
Y38000D02*
D03*
Y28000D02*
D03*
X198000Y208000D02*
D03*
Y198000D02*
D03*
Y188000D02*
D03*
Y178000D02*
D03*
Y168000D02*
D03*
Y158000D02*
D03*
Y148000D02*
D03*
Y138000D02*
D03*
Y128000D02*
D03*
Y118000D02*
D03*
Y108000D02*
D03*
Y98000D02*
D03*
Y88000D02*
D03*
Y78000D02*
D03*
Y68000D02*
D03*
Y58000D02*
D03*
Y48000D02*
D03*
Y38000D02*
D03*
Y28000D02*
D03*
D39*
X8000Y8000D02*
D03*
D40*
X18000D02*
D03*
X28000D02*
D03*
X38000D02*
D03*
X48000D02*
D03*
X58000D02*
D03*
X68000D02*
D03*
X78000D02*
D03*
X88000D02*
D03*
X98000D02*
D03*
X108000D02*
D03*
X118000D02*
D03*
X128000D02*
D03*
X138000D02*
D03*
X148000D02*
D03*
X158000D02*
D03*
X168000D02*
D03*
X178000D02*
D03*
X188000D02*
D03*
X198000D02*
D03*
D41*
X180000Y220000D02*
D03*
Y180000D02*
D03*
X190000Y160000D02*
D03*
X180000Y100000D02*
D03*
X190000Y80000D02*
D03*
X180000Y60000D02*
D03*
Y20000D02*
D03*
X160000Y220000D02*
D03*
X170000Y160000D02*
D03*
X160000Y140000D02*
D03*
X170000Y120000D02*
D03*
Y80000D02*
D03*
X160000Y60000D02*
D03*
Y20000D02*
D03*
X150000Y240000D02*
D03*
X140000Y220000D02*
D03*
X150000Y200000D02*
D03*
X140000Y180000D02*
D03*
Y140000D02*
D03*
X150000Y120000D02*
D03*
X140000Y100000D02*
D03*
X150000Y80000D02*
D03*
X140000Y60000D02*
D03*
Y20000D02*
D03*
X130000Y240000D02*
D03*
X120000Y220000D02*
D03*
X130000Y200000D02*
D03*
Y160000D02*
D03*
Y80000D02*
D03*
X120000Y20000D02*
D03*
X110000Y240000D02*
D03*
X100000Y220000D02*
D03*
X110000Y200000D02*
D03*
Y160000D02*
D03*
X100000Y100000D02*
D03*
X110000Y80000D02*
D03*
X100000Y60000D02*
D03*
Y20000D02*
D03*
X90000Y240000D02*
D03*
X80000Y220000D02*
D03*
X90000Y200000D02*
D03*
X80000Y180000D02*
D03*
X90000Y80000D02*
D03*
X70000Y240000D02*
D03*
X60000Y220000D02*
D03*
X70000Y200000D02*
D03*
Y160000D02*
D03*
X50000Y240000D02*
D03*
X40000Y220000D02*
D03*
X50000Y200000D02*
D03*
X40000Y180000D02*
D03*
Y20000D02*
D03*
X20000Y220000D02*
D03*
Y180000D02*
D03*
Y20000D02*
D03*
D42*
X126000Y174000D02*
D03*
X60756Y171244D02*
D03*
X104000Y130000D02*
D03*
X110374Y128374D02*
D03*
X116000Y130000D02*
D03*
X114000Y38000D02*
D03*
X120000Y44000D02*
D03*
X126000Y50000D02*
D03*
X21000Y131000D02*
D03*
X105000Y167500D02*
D03*
Y162500D02*
D03*
X78000Y118000D02*
D03*
M02*
