G04*
G04 #@! TF.GenerationSoftware,Altium Limited,Altium Designer,19.0.12 (326)*
G04*
G04 Layer_Color=65535*
%FSLAX25Y25*%
%MOIN*%
G70*
G01*
G75*
%ADD10C,0.02362*%
%ADD11C,0.00984*%
%ADD12C,0.01181*%
%ADD13C,0.00394*%
%ADD14C,0.01000*%
%ADD15C,0.01100*%
%ADD16C,0.00800*%
G36*
X76777Y124746D02*
X78495D01*
Y124603D01*
X79496D01*
Y124460D01*
X80212D01*
Y124317D01*
X80927D01*
Y124173D01*
X81500D01*
Y124030D01*
X81929D01*
Y123887D01*
X82502D01*
Y123744D01*
X82931D01*
Y123601D01*
X83360D01*
Y123458D01*
X83790D01*
Y123315D01*
X84076D01*
Y123172D01*
X84505D01*
Y123029D01*
X84792D01*
Y122886D01*
X85221D01*
Y122742D01*
X85507D01*
Y122599D01*
X85793D01*
Y122456D01*
X86080D01*
Y122313D01*
X86366D01*
Y122170D01*
X86652D01*
Y122027D01*
X86938D01*
Y121884D01*
X87225D01*
Y121741D01*
X87368D01*
Y121598D01*
X87654D01*
Y121454D01*
X87940D01*
Y121311D01*
X88083D01*
Y121168D01*
X88369D01*
Y121025D01*
X88656D01*
Y120882D01*
X88799D01*
Y120739D01*
X89085D01*
Y120596D01*
X89228D01*
Y120453D01*
X89371D01*
Y120309D01*
X89657D01*
Y120166D01*
X89801D01*
Y120023D01*
X90087D01*
Y119880D01*
X90230D01*
Y119737D01*
X90373D01*
Y119594D01*
X90516D01*
Y119451D01*
X90802D01*
Y119308D01*
X90945D01*
Y119165D01*
X91088D01*
Y119021D01*
X91232D01*
Y118878D01*
X91375D01*
Y118735D01*
X91518D01*
Y118592D01*
X91661D01*
Y118449D01*
X91947D01*
Y118306D01*
X92090D01*
Y118163D01*
X92234D01*
Y118020D01*
X92377D01*
Y117877D01*
X92520D01*
Y117734D01*
X92663D01*
Y117590D01*
X92806D01*
Y117447D01*
X92949D01*
Y117304D01*
Y117161D01*
X93092D01*
Y117018D01*
X93235D01*
Y116875D01*
X93378D01*
Y116732D01*
X93521D01*
Y116589D01*
X93665D01*
Y116446D01*
X93808D01*
Y116302D01*
X93951D01*
Y116159D01*
Y116016D01*
X94094D01*
Y115873D01*
X94237D01*
Y115730D01*
X94380D01*
Y115587D01*
X94523D01*
Y115444D01*
Y115301D01*
X94666D01*
Y115157D01*
X94810D01*
Y115014D01*
X94953D01*
Y114871D01*
Y114728D01*
X95096D01*
Y114585D01*
X95239D01*
Y114442D01*
Y114299D01*
X95382D01*
Y114156D01*
X95525D01*
Y114013D01*
Y113869D01*
X95668D01*
Y113726D01*
X95811D01*
Y113583D01*
Y113440D01*
X95954D01*
Y113297D01*
Y113154D01*
X96097D01*
Y113011D01*
X96241D01*
Y112868D01*
Y112724D01*
X96384D01*
Y112581D01*
Y112438D01*
X96527D01*
Y112295D01*
Y112152D01*
X96670D01*
Y112009D01*
Y111866D01*
X96813D01*
Y111723D01*
X96956D01*
Y111580D01*
Y111436D01*
Y111293D01*
X97099D01*
Y111150D01*
Y111007D01*
X97242D01*
Y110864D01*
Y110721D01*
X97386D01*
Y110578D01*
Y110435D01*
X97529D01*
Y110292D01*
Y110149D01*
X97672D01*
Y110005D01*
Y109862D01*
Y109719D01*
X97815D01*
Y109576D01*
Y109433D01*
X97958D01*
Y109290D01*
Y109147D01*
Y109004D01*
X98101D01*
Y108861D01*
Y108717D01*
Y108574D01*
X98244D01*
Y108431D01*
Y108288D01*
Y108145D01*
X98387D01*
Y108002D01*
Y107859D01*
Y107716D01*
X98530D01*
Y107572D01*
Y107429D01*
Y107286D01*
Y107143D01*
X98673D01*
Y107000D01*
Y106857D01*
Y106714D01*
Y106571D01*
X98817D01*
Y106428D01*
Y106284D01*
Y106141D01*
Y105998D01*
X98960D01*
Y105855D01*
Y105712D01*
Y105569D01*
Y105426D01*
Y105283D01*
X99103D01*
Y105140D01*
Y104996D01*
Y104853D01*
Y104710D01*
Y104567D01*
Y104424D01*
X99246D01*
Y104281D01*
Y104138D01*
Y103995D01*
Y103851D01*
Y103708D01*
Y103565D01*
Y103422D01*
Y103279D01*
Y103136D01*
X99389D01*
Y102993D01*
Y102850D01*
Y102707D01*
Y102564D01*
Y102420D01*
Y102277D01*
Y102134D01*
Y101991D01*
Y101848D01*
Y101705D01*
Y101562D01*
Y101419D01*
Y101276D01*
Y101132D01*
Y100989D01*
Y100846D01*
Y100703D01*
Y100560D01*
Y100417D01*
Y100274D01*
Y100131D01*
Y99988D01*
Y99844D01*
Y99701D01*
Y99558D01*
Y99415D01*
Y99272D01*
Y99129D01*
Y98986D01*
Y98843D01*
Y98699D01*
Y98556D01*
X99246D01*
Y98413D01*
Y98270D01*
Y98127D01*
Y97984D01*
Y97841D01*
Y97698D01*
Y97555D01*
Y97411D01*
X99103D01*
Y97268D01*
Y97125D01*
Y96982D01*
Y96839D01*
X99389D01*
Y96696D01*
X99962D01*
Y96553D01*
X100534D01*
Y96410D01*
X101106D01*
Y96267D01*
X101536D01*
Y96123D01*
X101822D01*
Y95980D01*
X102108D01*
Y95837D01*
X102394D01*
Y95694D01*
X102681D01*
Y95551D01*
X102824D01*
Y95408D01*
X102967D01*
Y95265D01*
Y95122D01*
X103110D01*
Y94978D01*
Y94835D01*
Y94692D01*
Y94549D01*
X102967D01*
Y94406D01*
Y94263D01*
X102681D01*
Y94120D01*
X102538D01*
Y93977D01*
X102251D01*
Y93834D01*
X101965D01*
Y93691D01*
X101679D01*
Y93547D01*
X101250D01*
Y93404D01*
X100820D01*
Y93261D01*
Y93118D01*
X101679D01*
Y92975D01*
X102538D01*
Y92832D01*
X103396D01*
Y92689D01*
X104112D01*
Y92546D01*
X104684D01*
Y92402D01*
X105257D01*
Y92259D01*
X105829D01*
Y92116D01*
X106402D01*
Y91973D01*
X106831D01*
Y91830D01*
X107117D01*
Y91687D01*
X107546D01*
Y91544D01*
X107833D01*
Y91401D01*
X108119D01*
Y91258D01*
X108262D01*
Y91114D01*
X108548D01*
Y90971D01*
X108691D01*
Y90828D01*
Y90685D01*
X108835D01*
Y90542D01*
Y90399D01*
Y90256D01*
Y90113D01*
Y89970D01*
Y89827D01*
X108691D01*
Y89683D01*
X108548D01*
Y89540D01*
X108405D01*
Y89397D01*
X108262D01*
Y89254D01*
X107976D01*
Y89111D01*
X107690D01*
Y88968D01*
X107403D01*
Y88825D01*
X107117D01*
Y88682D01*
X106688D01*
Y88538D01*
X106258D01*
Y88395D01*
X105543D01*
Y88252D01*
Y88109D01*
X106258D01*
Y87966D01*
X106831D01*
Y87823D01*
X107690D01*
Y87680D01*
X108262D01*
Y87537D01*
X108835D01*
Y87394D01*
X109550D01*
Y87250D01*
X109979D01*
Y87107D01*
X110552D01*
Y86964D01*
X110838D01*
Y86821D01*
X111267D01*
Y86678D01*
X111697D01*
Y86535D01*
X111983D01*
Y86392D01*
X112269D01*
Y86249D01*
X112412D01*
Y86106D01*
X112699D01*
Y85962D01*
X112842D01*
Y85819D01*
X112985D01*
Y85676D01*
Y85533D01*
X113128D01*
Y85390D01*
Y85247D01*
Y85104D01*
Y84961D01*
Y84817D01*
Y84674D01*
X112985D01*
Y84531D01*
Y84388D01*
X112842D01*
Y84245D01*
X112699D01*
Y84102D01*
X112412D01*
Y83959D01*
X112269D01*
Y83816D01*
X111983D01*
Y83673D01*
X111697D01*
Y83530D01*
X111267D01*
Y83386D01*
X110981D01*
Y83243D01*
X110409D01*
Y83100D01*
X110123D01*
Y82957D01*
Y82814D01*
X110838D01*
Y82671D01*
X111411D01*
Y82528D01*
X111983D01*
Y82385D01*
X112412D01*
Y82241D01*
X112985D01*
Y82098D01*
X113414D01*
Y81955D01*
X113844D01*
Y81812D01*
X114130D01*
Y81669D01*
X114416D01*
Y81526D01*
X114702D01*
Y81383D01*
X114988D01*
Y81240D01*
X115275D01*
Y81097D01*
X115418D01*
Y80954D01*
X115561D01*
Y80810D01*
X115704D01*
Y80667D01*
X115847D01*
Y80524D01*
Y80381D01*
X115990D01*
Y80238D01*
Y80095D01*
Y79952D01*
Y79809D01*
X115847D01*
Y79665D01*
Y79522D01*
X115704D01*
Y79379D01*
Y79236D01*
X115561D01*
Y79093D01*
X115418D01*
Y78950D01*
X115131D01*
Y78807D01*
X114845D01*
Y78664D01*
X114702D01*
Y78521D01*
X114273D01*
Y78377D01*
X113987D01*
Y78234D01*
X113557D01*
Y78091D01*
X113128D01*
Y77948D01*
X112699D01*
Y77805D01*
X112269D01*
Y77662D01*
X111697D01*
Y77519D01*
X111124D01*
Y77376D01*
X110552D01*
Y77232D01*
X109836D01*
Y77089D01*
X109121D01*
Y76946D01*
X108262D01*
Y76803D01*
X107403D01*
Y76660D01*
X106545D01*
Y76517D01*
X105543D01*
Y76374D01*
X104541D01*
Y76231D01*
X103253D01*
Y76088D01*
X102108D01*
Y75945D01*
X100677D01*
Y75801D01*
X99246D01*
Y75658D01*
X97529D01*
Y75515D01*
X95668D01*
Y75372D01*
X93521D01*
Y75229D01*
X91232D01*
Y75086D01*
X87940D01*
Y74943D01*
X83217D01*
Y74800D01*
X67761D01*
Y74943D01*
X63038D01*
Y75086D01*
X59890D01*
Y75229D01*
X57457D01*
Y75372D01*
X55310D01*
Y75515D01*
X53450D01*
Y75658D01*
X51876D01*
Y75801D01*
X50301D01*
Y75945D01*
X49013D01*
Y76088D01*
X47725D01*
Y76231D01*
X46437D01*
Y76374D01*
X45436D01*
Y76517D01*
X44434D01*
Y76660D01*
X43575D01*
Y76803D01*
X42716D01*
Y76946D01*
X41858D01*
Y77089D01*
X41142D01*
Y77232D01*
X40570D01*
Y77376D01*
X39854D01*
Y77519D01*
X39282D01*
Y77662D01*
X38709D01*
Y77805D01*
X38280D01*
Y77948D01*
X37851D01*
Y78091D01*
X37421D01*
Y78234D01*
X36992D01*
Y78377D01*
X36706D01*
Y78521D01*
X36419D01*
Y78664D01*
X36133D01*
Y78807D01*
X35847D01*
Y78950D01*
X35704D01*
Y79093D01*
X35418D01*
Y79236D01*
X35275D01*
Y79379D01*
Y79522D01*
X35131D01*
Y79665D01*
Y79809D01*
Y79952D01*
Y80095D01*
Y80238D01*
Y80381D01*
Y80524D01*
Y80667D01*
X35275D01*
Y80810D01*
X35418D01*
Y80954D01*
X35561D01*
Y81097D01*
X35704D01*
Y81240D01*
X35990D01*
Y81383D01*
X36276D01*
Y81526D01*
X36563D01*
Y81669D01*
X36849D01*
Y81812D01*
X37278D01*
Y81955D01*
X37564D01*
Y82098D01*
X37994D01*
Y82241D01*
X38566D01*
Y82385D01*
X38996D01*
Y82528D01*
X39568D01*
Y82671D01*
X40284D01*
Y82814D01*
X40999D01*
Y82957D01*
Y83100D01*
X40570D01*
Y83243D01*
X39997D01*
Y83386D01*
X39711D01*
Y83530D01*
X39282D01*
Y83673D01*
X38996D01*
Y83816D01*
X38709D01*
Y83959D01*
X38566D01*
Y84102D01*
X38280D01*
Y84245D01*
X38137D01*
Y84388D01*
X37994D01*
Y84531D01*
Y84674D01*
X37851D01*
Y84817D01*
Y84961D01*
Y85104D01*
Y85247D01*
Y85390D01*
X37994D01*
Y85533D01*
Y85676D01*
X38137D01*
Y85819D01*
Y85962D01*
X38423D01*
Y86106D01*
X38566D01*
Y86249D01*
X38852D01*
Y86392D01*
X39139D01*
Y86535D01*
X39425D01*
Y86678D01*
X39711D01*
Y86821D01*
X40140D01*
Y86964D01*
X40570D01*
Y87107D01*
X40999D01*
Y87250D01*
X41572D01*
Y87394D01*
X42144D01*
Y87537D01*
X42716D01*
Y87680D01*
X43432D01*
Y87823D01*
X44148D01*
Y87966D01*
X44863D01*
Y88109D01*
X45436D01*
Y88252D01*
Y88395D01*
X44720D01*
Y88538D01*
X44291D01*
Y88682D01*
X43861D01*
Y88825D01*
X43575D01*
Y88968D01*
X43289D01*
Y89111D01*
X43003D01*
Y89254D01*
X42716D01*
Y89397D01*
X42573D01*
Y89540D01*
X42430D01*
Y89683D01*
X42287D01*
Y89827D01*
X42144D01*
Y89970D01*
Y90113D01*
Y90256D01*
Y90399D01*
Y90542D01*
Y90685D01*
X42287D01*
Y90828D01*
Y90971D01*
X42430D01*
Y91114D01*
X42716D01*
Y91258D01*
X42860D01*
Y91401D01*
X43146D01*
Y91544D01*
X43432D01*
Y91687D01*
X43861D01*
Y91830D01*
X44148D01*
Y91973D01*
X44577D01*
Y92116D01*
X45149D01*
Y92259D01*
X45722D01*
Y92402D01*
X46294D01*
Y92546D01*
X46867D01*
Y92689D01*
X47582D01*
Y92832D01*
X48441D01*
Y92975D01*
X49300D01*
Y93118D01*
X50158D01*
Y93261D01*
Y93404D01*
X49729D01*
Y93547D01*
X49300D01*
Y93691D01*
X49013D01*
Y93834D01*
X48727D01*
Y93977D01*
X48441D01*
Y94120D01*
X48298D01*
Y94263D01*
X48155D01*
Y94406D01*
X48012D01*
Y94549D01*
Y94692D01*
X47868D01*
Y94835D01*
Y94978D01*
X48012D01*
Y95122D01*
Y95265D01*
Y95408D01*
X48155D01*
Y95551D01*
X48298D01*
Y95694D01*
X48584D01*
Y95837D01*
X48870D01*
Y95980D01*
X49156D01*
Y96123D01*
X49586D01*
Y96267D01*
X50015D01*
Y96410D01*
X50445D01*
Y96553D01*
X51017D01*
Y96696D01*
X51589D01*
Y96839D01*
X51876D01*
Y96982D01*
Y97125D01*
Y97268D01*
Y97411D01*
Y97555D01*
X51732D01*
Y97698D01*
Y97841D01*
Y97984D01*
Y98127D01*
Y98270D01*
Y98413D01*
Y98556D01*
Y98699D01*
Y98843D01*
X51589D01*
Y98986D01*
Y99129D01*
Y99272D01*
Y99415D01*
Y99558D01*
Y99701D01*
Y99844D01*
Y99988D01*
Y100131D01*
Y100274D01*
Y100417D01*
Y100560D01*
Y100703D01*
Y100846D01*
Y100989D01*
Y101132D01*
Y101276D01*
Y101419D01*
Y101562D01*
Y101705D01*
Y101848D01*
Y101991D01*
Y102134D01*
Y102277D01*
Y102420D01*
Y102564D01*
Y102707D01*
Y102850D01*
Y102993D01*
X51732D01*
Y103136D01*
Y103279D01*
Y103422D01*
Y103565D01*
Y103708D01*
Y103851D01*
Y103995D01*
Y104138D01*
Y104281D01*
X51876D01*
Y104424D01*
Y104567D01*
Y104710D01*
Y104853D01*
Y104996D01*
Y105140D01*
X52019D01*
Y105283D01*
Y105426D01*
Y105569D01*
Y105712D01*
Y105855D01*
X52162D01*
Y105998D01*
Y106141D01*
Y106284D01*
Y106428D01*
X52305D01*
Y106571D01*
Y106714D01*
Y106857D01*
Y107000D01*
X52448D01*
Y107143D01*
Y107286D01*
Y107429D01*
Y107572D01*
X52591D01*
Y107716D01*
Y107859D01*
Y108002D01*
X52734D01*
Y108145D01*
Y108288D01*
Y108431D01*
X52877D01*
Y108574D01*
Y108717D01*
Y108861D01*
X53021D01*
Y109004D01*
Y109147D01*
Y109290D01*
X53164D01*
Y109433D01*
Y109576D01*
Y109719D01*
X53307D01*
Y109862D01*
Y110005D01*
X53450D01*
Y110149D01*
Y110292D01*
Y110435D01*
X53593D01*
Y110578D01*
Y110721D01*
X53736D01*
Y110864D01*
Y111007D01*
X53879D01*
Y111150D01*
Y111293D01*
X54022D01*
Y111436D01*
Y111580D01*
X54165D01*
Y111723D01*
Y111866D01*
X54309D01*
Y112009D01*
Y112152D01*
X54452D01*
Y112295D01*
Y112438D01*
X54595D01*
Y112581D01*
Y112724D01*
X54738D01*
Y112868D01*
Y113011D01*
X54881D01*
Y113154D01*
X55024D01*
Y113297D01*
Y113440D01*
X55167D01*
Y113583D01*
X55310D01*
Y113726D01*
Y113869D01*
X55453D01*
Y114013D01*
Y114156D01*
X55597D01*
Y114299D01*
X55740D01*
Y114442D01*
Y114585D01*
X55883D01*
Y114728D01*
X56026D01*
Y114871D01*
X56169D01*
Y115014D01*
Y115157D01*
X56312D01*
Y115301D01*
X56455D01*
Y115444D01*
X56598D01*
Y115587D01*
Y115730D01*
X56741D01*
Y115873D01*
X56885D01*
Y116016D01*
X57028D01*
Y116159D01*
X57171D01*
Y116302D01*
Y116446D01*
X57314D01*
Y116589D01*
X57457D01*
Y116732D01*
X57600D01*
Y116875D01*
X57743D01*
Y117018D01*
X57886D01*
Y117161D01*
X58030D01*
Y117304D01*
X58173D01*
Y117447D01*
X58316D01*
Y117590D01*
X58459D01*
Y117734D01*
X58602D01*
Y117877D01*
X58745D01*
Y118020D01*
X58888D01*
Y118163D01*
X59031D01*
Y118306D01*
X59174D01*
Y118449D01*
X59317D01*
Y118592D01*
X59461D01*
Y118735D01*
X59604D01*
Y118878D01*
X59747D01*
Y119021D01*
X59890D01*
Y119165D01*
X60033D01*
Y119308D01*
X60319D01*
Y119451D01*
X60462D01*
Y119594D01*
X60606D01*
Y119737D01*
X60749D01*
Y119880D01*
X61035D01*
Y120023D01*
X61178D01*
Y120166D01*
X61321D01*
Y120309D01*
X61607D01*
Y120453D01*
X61750D01*
Y120596D01*
X62037D01*
Y120739D01*
X62180D01*
Y120882D01*
X62466D01*
Y121025D01*
X62609D01*
Y121168D01*
X62895D01*
Y121311D01*
X63038D01*
Y121454D01*
X63325D01*
Y121598D01*
X63611D01*
Y121741D01*
X63754D01*
Y121884D01*
X64040D01*
Y122027D01*
X64327D01*
Y122170D01*
X64613D01*
Y122313D01*
X64899D01*
Y122456D01*
X65185D01*
Y122599D01*
X65471D01*
Y122742D01*
X65758D01*
Y122886D01*
X66187D01*
Y123029D01*
X66473D01*
Y123172D01*
X66903D01*
Y123315D01*
X67189D01*
Y123458D01*
X67618D01*
Y123601D01*
X68047D01*
Y123744D01*
X68477D01*
Y123887D01*
X69049D01*
Y124030D01*
X69478D01*
Y124173D01*
X70194D01*
Y124317D01*
X70767D01*
Y124460D01*
X71625D01*
Y124603D01*
X72484D01*
Y124746D01*
X74201D01*
Y124889D01*
X76777D01*
Y124746D01*
D02*
G37*
%LPC*%
G36*
X86080Y116732D02*
X83647D01*
Y116589D01*
X83217D01*
Y116446D01*
X82788D01*
Y116302D01*
X82502D01*
Y116159D01*
X82216D01*
Y116016D01*
X81929D01*
Y115873D01*
X81786D01*
Y115730D01*
X81500D01*
Y115587D01*
X81357D01*
Y115444D01*
X81214D01*
Y115301D01*
X81071D01*
Y115157D01*
X80927D01*
Y115014D01*
X80784D01*
Y114871D01*
X80641D01*
Y114728D01*
X80498D01*
Y114585D01*
Y114442D01*
X80355D01*
Y114299D01*
X80212D01*
Y114156D01*
Y114013D01*
X80069D01*
Y113869D01*
Y113726D01*
X79926D01*
Y113583D01*
Y113440D01*
X79783D01*
Y113297D01*
Y113154D01*
X79640D01*
Y113011D01*
Y112868D01*
Y112724D01*
Y112581D01*
X79496D01*
Y112438D01*
Y112295D01*
Y112152D01*
Y112009D01*
Y111866D01*
Y111723D01*
Y111580D01*
Y111436D01*
Y111293D01*
Y111150D01*
Y111007D01*
Y110864D01*
Y110721D01*
Y110578D01*
Y110435D01*
Y110292D01*
Y110149D01*
X79640D01*
Y110005D01*
Y109862D01*
Y109719D01*
Y109576D01*
X79783D01*
Y109433D01*
Y109290D01*
X79926D01*
Y109147D01*
Y109004D01*
X80069D01*
Y108861D01*
Y108717D01*
X80212D01*
Y108574D01*
Y108431D01*
X80355D01*
Y108288D01*
X80498D01*
Y108145D01*
Y108002D01*
X80641D01*
Y107859D01*
X80784D01*
Y107716D01*
X80927D01*
Y107572D01*
X81071D01*
Y107429D01*
X81214D01*
Y107286D01*
X81357D01*
Y107143D01*
X81500D01*
Y107000D01*
X81786D01*
Y106857D01*
X81929D01*
Y106714D01*
X82216D01*
Y106571D01*
X82359D01*
Y106428D01*
X82788D01*
Y106284D01*
X83074D01*
Y106141D01*
X83647D01*
Y105998D01*
X84649D01*
Y105855D01*
X85078D01*
Y105998D01*
X86080D01*
Y106141D01*
X86652D01*
Y106284D01*
X86938D01*
Y106428D01*
X87225D01*
Y106571D01*
X87511D01*
Y106714D01*
X87797D01*
Y106857D01*
X87940D01*
Y107000D01*
X88226D01*
Y107143D01*
X88369D01*
Y107286D01*
X88512D01*
Y107429D01*
X88656D01*
Y107572D01*
X88799D01*
Y107716D01*
X88942D01*
Y107859D01*
X89085D01*
Y108002D01*
X89228D01*
Y108145D01*
Y108288D01*
X89371D01*
Y108431D01*
X89514D01*
Y108574D01*
Y108717D01*
X89657D01*
Y108861D01*
Y109004D01*
X89801D01*
Y109147D01*
Y109290D01*
X89944D01*
Y109433D01*
Y109576D01*
Y109719D01*
X90087D01*
Y109862D01*
Y110005D01*
Y110149D01*
X90230D01*
Y110292D01*
Y110435D01*
Y110578D01*
Y110721D01*
Y110864D01*
Y111007D01*
Y111150D01*
Y111293D01*
Y111436D01*
Y111580D01*
Y111723D01*
Y111866D01*
Y112009D01*
Y112152D01*
Y112295D01*
Y112438D01*
Y112581D01*
X90087D01*
Y112724D01*
Y112868D01*
Y113011D01*
X89944D01*
Y113154D01*
Y113297D01*
Y113440D01*
X89801D01*
Y113583D01*
Y113726D01*
X89657D01*
Y113869D01*
Y114013D01*
X89514D01*
Y114156D01*
Y114299D01*
X89371D01*
Y114442D01*
X89228D01*
Y114585D01*
X89085D01*
Y114728D01*
Y114871D01*
X88942D01*
Y115014D01*
X88799D01*
Y115157D01*
X88656D01*
Y115301D01*
X88512D01*
Y115444D01*
X88369D01*
Y115587D01*
X88226D01*
Y115730D01*
X87940D01*
Y115873D01*
X87797D01*
Y116016D01*
X87511D01*
Y116159D01*
X87225D01*
Y116302D01*
X86938D01*
Y116446D01*
X86509D01*
Y116589D01*
X86080D01*
Y116732D01*
D02*
G37*
G36*
X67189D02*
X64756D01*
Y116589D01*
X64327D01*
Y116446D01*
X63897D01*
Y116302D01*
X63611D01*
Y116159D01*
X63325D01*
Y116016D01*
X63038D01*
Y115873D01*
X62895D01*
Y115730D01*
X62609D01*
Y115587D01*
X62466D01*
Y115444D01*
X62323D01*
Y115301D01*
X62180D01*
Y115157D01*
X62037D01*
Y115014D01*
X61893D01*
Y114871D01*
X61750D01*
Y114728D01*
X61607D01*
Y114585D01*
Y114442D01*
X61464D01*
Y114299D01*
X61321D01*
Y114156D01*
Y114013D01*
X61178D01*
Y113869D01*
Y113726D01*
X61035D01*
Y113583D01*
Y113440D01*
X60892D01*
Y113297D01*
Y113154D01*
Y113011D01*
X60749D01*
Y112868D01*
Y112724D01*
Y112581D01*
X60606D01*
Y112438D01*
Y112295D01*
Y112152D01*
Y112009D01*
Y111866D01*
Y111723D01*
Y111580D01*
Y111436D01*
Y111293D01*
Y111150D01*
Y111007D01*
Y110864D01*
Y110721D01*
Y110578D01*
Y110435D01*
Y110292D01*
Y110149D01*
X60749D01*
Y110005D01*
Y109862D01*
Y109719D01*
Y109576D01*
X60892D01*
Y109433D01*
Y109290D01*
X61035D01*
Y109147D01*
Y109004D01*
X61178D01*
Y108861D01*
Y108717D01*
X61321D01*
Y108574D01*
Y108431D01*
X61464D01*
Y108288D01*
X61607D01*
Y108145D01*
Y108002D01*
X61750D01*
Y107859D01*
X61893D01*
Y107716D01*
X62037D01*
Y107572D01*
X62180D01*
Y107429D01*
X62323D01*
Y107286D01*
X62466D01*
Y107143D01*
X62609D01*
Y107000D01*
X62895D01*
Y106857D01*
X63038D01*
Y106714D01*
X63325D01*
Y106571D01*
X63611D01*
Y106428D01*
X63897D01*
Y106284D01*
X64183D01*
Y106141D01*
X64756D01*
Y105998D01*
X65758D01*
Y105855D01*
X66187D01*
Y105998D01*
X67189D01*
Y106141D01*
X67761D01*
Y106284D01*
X68047D01*
Y106428D01*
X68334D01*
Y106571D01*
X68620D01*
Y106714D01*
X68906D01*
Y106857D01*
X69049D01*
Y107000D01*
X69335D01*
Y107143D01*
X69478D01*
Y107286D01*
X69622D01*
Y107429D01*
X69765D01*
Y107572D01*
X69908D01*
Y107716D01*
X70051D01*
Y107859D01*
X70194D01*
Y108002D01*
X70337D01*
Y108145D01*
Y108288D01*
X70480D01*
Y108431D01*
X70623D01*
Y108574D01*
Y108717D01*
X70767D01*
Y108861D01*
Y109004D01*
X70910D01*
Y109147D01*
Y109290D01*
X71053D01*
Y109433D01*
Y109576D01*
Y109719D01*
X71196D01*
Y109862D01*
Y110005D01*
Y110149D01*
X71339D01*
Y110292D01*
Y110435D01*
Y110578D01*
Y110721D01*
Y110864D01*
Y111007D01*
Y111150D01*
Y111293D01*
Y111436D01*
Y111580D01*
Y111723D01*
Y111866D01*
Y112009D01*
Y112152D01*
Y112295D01*
Y112438D01*
Y112581D01*
X71196D01*
Y112724D01*
Y112868D01*
Y113011D01*
X71053D01*
Y113154D01*
Y113297D01*
Y113440D01*
X70910D01*
Y113583D01*
Y113726D01*
X70767D01*
Y113869D01*
Y114013D01*
X70623D01*
Y114156D01*
Y114299D01*
X70480D01*
Y114442D01*
X70337D01*
Y114585D01*
Y114728D01*
X70194D01*
Y114871D01*
X70051D01*
Y115014D01*
X69908D01*
Y115157D01*
X69765D01*
Y115301D01*
X69622D01*
Y115444D01*
X69478D01*
Y115587D01*
X69335D01*
Y115730D01*
X69049D01*
Y115873D01*
X68906D01*
Y116016D01*
X68620D01*
Y116159D01*
X68334D01*
Y116302D01*
X68047D01*
Y116446D01*
X67618D01*
Y116589D01*
X67189D01*
Y116732D01*
D02*
G37*
G36*
X99246Y96410D02*
X98960D01*
Y96267D01*
Y96123D01*
Y95980D01*
Y95837D01*
X98817D01*
Y95694D01*
Y95551D01*
Y95408D01*
Y95265D01*
X98673D01*
Y95122D01*
Y94978D01*
Y94835D01*
Y94692D01*
X98530D01*
Y94549D01*
Y94406D01*
Y94263D01*
Y94120D01*
X98387D01*
Y93977D01*
X98101D01*
Y93834D01*
X97242D01*
Y93691D01*
X96527D01*
Y93547D01*
X95525D01*
Y93404D01*
X94380D01*
Y93261D01*
X93092D01*
Y93118D01*
X91661D01*
Y92975D01*
X90230D01*
Y92832D01*
X88226D01*
Y92689D01*
X85793D01*
Y92546D01*
X82645D01*
Y92402D01*
X68334D01*
Y92546D01*
X65185D01*
Y92689D01*
X62895D01*
Y92832D01*
X60749D01*
Y92975D01*
X59317D01*
Y93118D01*
X57886D01*
Y93261D01*
X56598D01*
Y93404D01*
X55597D01*
Y93547D01*
X54595D01*
Y93691D01*
X53736D01*
Y93834D01*
X52877D01*
Y93977D01*
X52591D01*
Y94120D01*
Y94263D01*
X52448D01*
Y94406D01*
Y94549D01*
Y94692D01*
X52305D01*
Y94835D01*
Y94978D01*
Y95122D01*
Y95265D01*
X52162D01*
Y95408D01*
Y95551D01*
Y95694D01*
Y95837D01*
Y95980D01*
X52019D01*
Y96123D01*
Y96267D01*
Y96410D01*
X51732D01*
Y96267D01*
X51160D01*
Y96123D01*
X50588D01*
Y95980D01*
X50158D01*
Y95837D01*
X49729D01*
Y95694D01*
X49300D01*
Y95551D01*
X49013D01*
Y95408D01*
X48870D01*
Y95265D01*
X48584D01*
Y95122D01*
X48441D01*
Y94978D01*
Y94835D01*
Y94692D01*
X48584D01*
Y94549D01*
X48727D01*
Y94406D01*
X48870D01*
Y94263D01*
X49156D01*
Y94120D01*
X49443D01*
Y93977D01*
X49872D01*
Y93834D01*
X50301D01*
Y93691D01*
X50874D01*
Y93547D01*
X51446D01*
Y93404D01*
X52019D01*
Y93261D01*
X52734D01*
Y93118D01*
X53450D01*
Y92975D01*
X54309D01*
Y92832D01*
X55310D01*
Y92689D01*
X56455D01*
Y92546D01*
X57743D01*
Y92402D01*
X59174D01*
Y92259D01*
X60606D01*
Y92116D01*
X62752D01*
Y91973D01*
X65042D01*
Y91830D01*
X68190D01*
Y91687D01*
X82788D01*
Y91830D01*
X85936D01*
Y91973D01*
X88369D01*
Y92116D01*
X90373D01*
Y92259D01*
X91804D01*
Y92402D01*
X93378D01*
Y92546D01*
X94523D01*
Y92689D01*
X95668D01*
Y92832D01*
X96670D01*
Y92975D01*
X97529D01*
Y93118D01*
X98244D01*
Y93261D01*
X98960D01*
Y93404D01*
X99675D01*
Y93547D01*
X100248D01*
Y93691D01*
X100677D01*
Y93834D01*
X101106D01*
Y93977D01*
X101536D01*
Y94120D01*
X101822D01*
Y94263D01*
X102108D01*
Y94406D01*
X102394D01*
Y94549D01*
X102538D01*
Y94692D01*
X102681D01*
Y94835D01*
Y94978D01*
X102538D01*
Y95122D01*
X102394D01*
Y95265D01*
X102251D01*
Y95408D01*
X101965D01*
Y95551D01*
X101679D01*
Y95694D01*
X101250D01*
Y95837D01*
X100820D01*
Y95980D01*
X100391D01*
Y96123D01*
X99818D01*
Y96267D01*
X99246D01*
Y96410D01*
D02*
G37*
G36*
X99389Y92975D02*
X99103D01*
Y92832D01*
X98387D01*
Y92689D01*
X97672D01*
Y92546D01*
X96670D01*
Y92402D01*
X95668D01*
Y92259D01*
X94523D01*
Y92116D01*
X93235D01*
Y91973D01*
X91947D01*
Y91830D01*
X90230D01*
Y91687D01*
X88083D01*
Y91544D01*
X85793D01*
Y91401D01*
X82073D01*
Y91258D01*
X68906D01*
Y91401D01*
X65185D01*
Y91544D01*
X62895D01*
Y91687D01*
X60749D01*
Y91830D01*
X59031D01*
Y91973D01*
X57743D01*
Y92116D01*
X56455D01*
Y92259D01*
X55310D01*
Y92402D01*
X54309D01*
Y92546D01*
X53450D01*
Y92689D01*
X52591D01*
Y92832D01*
X51876D01*
Y92975D01*
X51589D01*
Y92832D01*
X50445D01*
Y92689D01*
X49586D01*
Y92546D01*
X48727D01*
Y92402D01*
X48012D01*
Y92259D01*
X47296D01*
Y92116D01*
X46580D01*
Y91973D01*
X46008D01*
Y91830D01*
X45436D01*
Y91687D01*
X45006D01*
Y91544D01*
X44577D01*
Y91401D01*
X44148D01*
Y91258D01*
X43718D01*
Y91114D01*
X43432D01*
Y90971D01*
X43146D01*
Y90828D01*
X43003D01*
Y90685D01*
X42860D01*
Y90542D01*
X42716D01*
Y90399D01*
X42573D01*
Y90256D01*
Y90113D01*
X42716D01*
Y89970D01*
X42860D01*
Y89827D01*
X43003D01*
Y89683D01*
X43289D01*
Y89540D01*
X43575D01*
Y89397D01*
X43861D01*
Y89254D01*
X44148D01*
Y89111D01*
X44577D01*
Y88968D01*
X45006D01*
Y88825D01*
X45579D01*
Y88682D01*
X46008D01*
Y88538D01*
X46724D01*
Y88395D01*
X47439D01*
Y88252D01*
X48155D01*
Y88109D01*
X48870D01*
Y87966D01*
X49729D01*
Y87823D01*
X50731D01*
Y87680D01*
X51732D01*
Y87537D01*
X52877D01*
Y87394D01*
X54165D01*
Y87250D01*
X55597D01*
Y87107D01*
X57314D01*
Y86964D01*
X59174D01*
Y86821D01*
X61321D01*
Y86678D01*
X63897D01*
Y86535D01*
X67189D01*
Y86392D01*
X83790D01*
Y86535D01*
X87081D01*
Y86678D01*
X89657D01*
Y86821D01*
X91947D01*
Y86964D01*
X93665D01*
Y87107D01*
X95382D01*
Y87250D01*
X96813D01*
Y87394D01*
X98101D01*
Y87537D01*
X99246D01*
Y87680D01*
X100248D01*
Y87823D01*
X101250D01*
Y87966D01*
X102108D01*
Y88109D01*
X102824D01*
Y88252D01*
X103682D01*
Y88395D01*
X104255D01*
Y88538D01*
X104971D01*
Y88682D01*
X105543D01*
Y88825D01*
X105972D01*
Y88968D01*
X106402D01*
Y89111D01*
X106831D01*
Y89254D01*
X107117D01*
Y89397D01*
X107546D01*
Y89540D01*
X107690D01*
Y89683D01*
X107976D01*
Y89827D01*
X108119D01*
Y89970D01*
X108262D01*
Y90113D01*
X108405D01*
Y90256D01*
Y90399D01*
X108262D01*
Y90542D01*
X108119D01*
Y90685D01*
X107976D01*
Y90828D01*
X107833D01*
Y90971D01*
X107546D01*
Y91114D01*
X107260D01*
Y91258D01*
X106831D01*
Y91401D01*
X106545D01*
Y91544D01*
X106115D01*
Y91687D01*
X105543D01*
Y91830D01*
X104971D01*
Y91973D01*
X104398D01*
Y92116D01*
X103682D01*
Y92259D01*
X102967D01*
Y92402D01*
X102251D01*
Y92546D01*
X101393D01*
Y92689D01*
X100534D01*
Y92832D01*
X99389D01*
Y92975D01*
D02*
G37*
G36*
X104827Y87823D02*
X103253D01*
Y87680D01*
X102394D01*
Y87537D01*
X101536D01*
Y87394D01*
X100677D01*
Y87250D01*
X99675D01*
Y87107D01*
X98387D01*
Y86964D01*
X97099D01*
Y86821D01*
X95668D01*
Y86678D01*
X94237D01*
Y86535D01*
X92520D01*
Y86392D01*
X90373D01*
Y86249D01*
X90087D01*
Y86392D01*
X89944D01*
Y86249D01*
X87654D01*
Y86106D01*
X84076D01*
Y85962D01*
X66903D01*
Y86106D01*
X63325D01*
Y86249D01*
X61035D01*
Y86392D01*
X58602D01*
Y86535D01*
X56741D01*
Y86678D01*
X55310D01*
Y86821D01*
X53879D01*
Y86964D01*
X52591D01*
Y87107D01*
X51446D01*
Y87250D01*
X50301D01*
Y87394D01*
X49443D01*
Y87537D01*
X48584D01*
Y87680D01*
X47725D01*
Y87823D01*
X46151D01*
Y87680D01*
X45292D01*
Y87537D01*
X44577D01*
Y87394D01*
X43861D01*
Y87250D01*
X43146D01*
Y87107D01*
X42573D01*
Y86964D01*
X41858D01*
Y86821D01*
X41428D01*
Y86678D01*
X40856D01*
Y86535D01*
X40427D01*
Y86392D01*
X40140D01*
Y86249D01*
X39711D01*
Y86106D01*
X39425D01*
Y85962D01*
X39139D01*
Y85819D01*
X38852D01*
Y85676D01*
X38709D01*
Y85533D01*
X38566D01*
Y85390D01*
X38423D01*
Y85247D01*
Y85104D01*
Y84961D01*
Y84817D01*
X38566D01*
Y84674D01*
X38709D01*
Y84531D01*
X38852D01*
Y84388D01*
X39139D01*
Y84245D01*
X39425D01*
Y84102D01*
X39711D01*
Y83959D01*
X39997D01*
Y83816D01*
X40427D01*
Y83673D01*
X40856D01*
Y83530D01*
X41285D01*
Y83386D01*
X41858D01*
Y83243D01*
X42430D01*
Y83100D01*
X43003D01*
Y82957D01*
X43718D01*
Y82814D01*
X44434D01*
Y82671D01*
X45149D01*
Y82528D01*
X46008D01*
Y82385D01*
X46867D01*
Y82241D01*
X48012D01*
Y82098D01*
X49013D01*
Y81955D01*
X50301D01*
Y81812D01*
X51446D01*
Y81669D01*
X52734D01*
Y81526D01*
X54452D01*
Y81383D01*
X56312D01*
Y81240D01*
X58316D01*
Y81097D01*
X60606D01*
Y80954D01*
X63182D01*
Y80810D01*
X63325D01*
Y80954D01*
X63754D01*
Y80810D01*
X67761D01*
Y80667D01*
X83217D01*
Y80810D01*
X87797D01*
Y80954D01*
X90373D01*
Y81097D01*
X92663D01*
Y81240D01*
X94810D01*
Y81383D01*
X96527D01*
Y81526D01*
X98244D01*
Y81669D01*
X99532D01*
Y81812D01*
X100677D01*
Y81955D01*
X101965D01*
Y82098D01*
X102967D01*
Y82241D01*
X104112D01*
Y82385D01*
X104971D01*
Y82528D01*
X105686D01*
Y82671D01*
X106545D01*
Y82814D01*
X107260D01*
Y82957D01*
X107976D01*
Y83100D01*
X108548D01*
Y83243D01*
X109264D01*
Y83386D01*
X109693D01*
Y83530D01*
X110123D01*
Y83673D01*
X110552D01*
Y83816D01*
X110981D01*
Y83959D01*
X111267D01*
Y84102D01*
X111697D01*
Y84245D01*
X111840D01*
Y84388D01*
X112126D01*
Y84531D01*
X112269D01*
Y84674D01*
X112412D01*
Y84817D01*
X112556D01*
Y84961D01*
X112699D01*
Y85104D01*
Y85247D01*
X112556D01*
Y85390D01*
X112412D01*
Y85533D01*
X112269D01*
Y85676D01*
X112126D01*
Y85819D01*
X111840D01*
Y85962D01*
X111554D01*
Y86106D01*
X111267D01*
Y86249D01*
X110981D01*
Y86392D01*
X110552D01*
Y86535D01*
X110123D01*
Y86678D01*
X109550D01*
Y86821D01*
X109121D01*
Y86964D01*
X108548D01*
Y87107D01*
X107976D01*
Y87250D01*
X107260D01*
Y87394D01*
X106545D01*
Y87537D01*
X105829D01*
Y87680D01*
X104827D01*
Y87823D01*
D02*
G37*
G36*
X108835Y82671D02*
X108405D01*
Y82528D01*
X107690D01*
Y82385D01*
X106974D01*
Y82241D01*
X106258D01*
Y82098D01*
X105400D01*
Y81955D01*
X104541D01*
Y81812D01*
X103539D01*
Y81669D01*
X102538D01*
Y81526D01*
X101250D01*
Y81383D01*
X99962D01*
Y81240D01*
X98817D01*
Y81097D01*
X96956D01*
Y80954D01*
X95525D01*
Y80810D01*
X93235D01*
Y80667D01*
X91088D01*
Y80524D01*
X88226D01*
Y80381D01*
X84362D01*
Y80238D01*
X66616D01*
Y80381D01*
X62895D01*
Y80524D01*
X62466D01*
Y80381D01*
X62323D01*
Y80524D01*
X59890D01*
Y80667D01*
X57743D01*
Y80810D01*
X55453D01*
Y80954D01*
X54022D01*
Y81097D01*
X52162D01*
Y81240D01*
X51017D01*
Y81383D01*
X49729D01*
Y81526D01*
X48441D01*
Y81669D01*
X47582D01*
Y81812D01*
X46437D01*
Y81955D01*
X45579D01*
Y82098D01*
X44720D01*
Y82241D01*
X44004D01*
Y82385D01*
X43289D01*
Y82528D01*
X42573D01*
Y82671D01*
X42144D01*
Y82528D01*
X41428D01*
Y82385D01*
X40713D01*
Y82241D01*
X40140D01*
Y82098D01*
X39568D01*
Y81955D01*
X38996D01*
Y81812D01*
X38566D01*
Y81669D01*
X38137D01*
Y81526D01*
X37707D01*
Y81383D01*
X37278D01*
Y81240D01*
X36992D01*
Y81097D01*
X36706D01*
Y80954D01*
X36419D01*
Y80810D01*
X36133D01*
Y80667D01*
X35990D01*
Y80524D01*
X35847D01*
Y80381D01*
X35704D01*
Y80238D01*
X35561D01*
Y80095D01*
Y79952D01*
Y79809D01*
X35704D01*
Y79665D01*
X35847D01*
Y79522D01*
X35990D01*
Y79379D01*
X36276D01*
Y79236D01*
X36563D01*
Y79093D01*
X36706D01*
Y78950D01*
X37135D01*
Y78807D01*
X37421D01*
Y78664D01*
X37851D01*
Y78521D01*
X38280D01*
Y78377D01*
X38709D01*
Y78234D01*
X39282D01*
Y78091D01*
X39854D01*
Y77948D01*
X40427D01*
Y77805D01*
X40999D01*
Y77662D01*
X41715D01*
Y77519D01*
X42573D01*
Y77376D01*
X43289D01*
Y77232D01*
X44148D01*
Y77089D01*
X45149D01*
Y76946D01*
X46151D01*
Y76803D01*
X47296D01*
Y76660D01*
X48441D01*
Y76517D01*
X49729D01*
Y76374D01*
X51160D01*
Y76231D01*
X52734D01*
Y76088D01*
X54452D01*
Y75945D01*
X56312D01*
Y75801D01*
X58745D01*
Y75658D01*
X61464D01*
Y75515D01*
X64756D01*
Y75372D01*
X70623D01*
Y75229D01*
X80355D01*
Y75372D01*
X86223D01*
Y75515D01*
X89514D01*
Y75658D01*
X92377D01*
Y75801D01*
X94666D01*
Y75945D01*
X96527D01*
Y76088D01*
X98244D01*
Y76231D01*
X99818D01*
Y76374D01*
X101250D01*
Y76517D01*
X102538D01*
Y76660D01*
X103682D01*
Y76803D01*
X104827D01*
Y76946D01*
X105829D01*
Y77089D01*
X106831D01*
Y77232D01*
X107690D01*
Y77376D01*
X108548D01*
Y77519D01*
X109264D01*
Y77662D01*
X109979D01*
Y77805D01*
X110552D01*
Y77948D01*
X111267D01*
Y78091D01*
X111697D01*
Y78234D01*
X112269D01*
Y78377D01*
X112699D01*
Y78521D01*
X113128D01*
Y78664D01*
X113557D01*
Y78807D01*
X113987D01*
Y78950D01*
X114273D01*
Y79093D01*
X114559D01*
Y79236D01*
X114702D01*
Y79379D01*
X114988D01*
Y79522D01*
X115131D01*
Y79665D01*
X115275D01*
Y79809D01*
X115418D01*
Y79952D01*
Y80095D01*
Y80238D01*
X115275D01*
Y80381D01*
X115131D01*
Y80524D01*
X114988D01*
Y80667D01*
X114845D01*
Y80810D01*
X114559D01*
Y80954D01*
X114416D01*
Y81097D01*
X113987D01*
Y81240D01*
X113700D01*
Y81383D01*
X113414D01*
Y81526D01*
X112985D01*
Y81669D01*
X112412D01*
Y81812D01*
X111983D01*
Y81955D01*
X111411D01*
Y82098D01*
X110838D01*
Y82241D01*
X110266D01*
Y82385D01*
X109550D01*
Y82528D01*
X108835D01*
Y82671D01*
D02*
G37*
%LPD*%
G36*
X84505Y113869D02*
X84935D01*
Y113726D01*
X85221D01*
Y113583D01*
X85364D01*
Y113440D01*
X85650D01*
Y113297D01*
Y113154D01*
X85793D01*
Y113011D01*
X85936D01*
Y112868D01*
Y112724D01*
Y112581D01*
X86080D01*
Y112438D01*
Y112295D01*
Y112152D01*
Y112009D01*
Y111866D01*
Y111723D01*
Y111580D01*
X85936D01*
Y111436D01*
Y111293D01*
Y111150D01*
X85793D01*
Y111007D01*
X85650D01*
Y110864D01*
Y110721D01*
X85507D01*
Y110578D01*
X85221D01*
Y110435D01*
X85078D01*
Y110292D01*
X84649D01*
Y110149D01*
X83790D01*
Y110292D01*
X83360D01*
Y110435D01*
X83074D01*
Y110578D01*
X82931D01*
Y110721D01*
X82788D01*
Y110864D01*
X82645D01*
Y111007D01*
X82502D01*
Y111150D01*
Y111293D01*
Y111436D01*
X82359D01*
Y111580D01*
Y111723D01*
Y111866D01*
Y112009D01*
Y112152D01*
Y112295D01*
Y112438D01*
Y112581D01*
Y112724D01*
X82502D01*
Y112868D01*
Y113011D01*
X82645D01*
Y113154D01*
Y113297D01*
X82788D01*
Y113440D01*
X82931D01*
Y113583D01*
X83217D01*
Y113726D01*
X83360D01*
Y113869D01*
X83933D01*
Y114013D01*
X84505D01*
Y113869D01*
D02*
G37*
G36*
X65901Y113583D02*
X66330D01*
Y113440D01*
X66473D01*
Y113297D01*
X66616D01*
Y113154D01*
X66759D01*
Y113011D01*
X66903D01*
Y112868D01*
X67046D01*
Y112724D01*
Y112581D01*
X67189D01*
Y112438D01*
Y112295D01*
Y112152D01*
Y112009D01*
X67332D01*
Y111866D01*
Y111723D01*
Y111580D01*
X67189D01*
Y111436D01*
Y111293D01*
Y111150D01*
Y111007D01*
X67046D01*
Y110864D01*
Y110721D01*
X66903D01*
Y110578D01*
X66759D01*
Y110435D01*
X66616D01*
Y110292D01*
X66473D01*
Y110149D01*
X66187D01*
Y110005D01*
X65901D01*
Y109862D01*
X64756D01*
Y110005D01*
X64470D01*
Y110149D01*
X64183D01*
Y110292D01*
X64040D01*
Y110435D01*
X63897D01*
Y110578D01*
X63754D01*
Y110721D01*
X63611D01*
Y110864D01*
Y111007D01*
X63468D01*
Y111150D01*
Y111293D01*
Y111436D01*
Y111580D01*
Y111723D01*
X63325D01*
Y111866D01*
Y112009D01*
X63468D01*
Y112152D01*
Y112295D01*
Y112438D01*
Y112581D01*
X63611D01*
Y112724D01*
Y112868D01*
X63754D01*
Y113011D01*
X63897D01*
Y113154D01*
X64040D01*
Y113297D01*
X64183D01*
Y113440D01*
X64327D01*
Y113583D01*
X64756D01*
Y113726D01*
X65901D01*
Y113583D01*
D02*
G37*
D10*
X112146Y168465D02*
G03*
X112146Y168465I-1181J0D01*
G01*
D11*
X117264Y176732D02*
G03*
X117264Y176732I-492J0D01*
G01*
D12*
X160000Y117500D02*
G03*
X155000Y112500I0J-5000D01*
G01*
Y92500D02*
G03*
X160000Y87500I5000J0D01*
G01*
X126Y223000D02*
X205500D01*
X160000Y117500D02*
X163500D01*
X155000Y109000D02*
Y112500D01*
X160000Y87500D02*
X163500D01*
X155000Y92500D02*
Y97500D01*
X0Y0D02*
Y254000D01*
X205500D01*
Y0D02*
Y254000D01*
X0Y0D02*
X205500D01*
D13*
X90295Y147795D02*
Y172205D01*
X114705Y147795D02*
Y172205D01*
X90295Y147795D02*
X114705D01*
X90295Y172205D02*
X114705D01*
X43244Y168095D02*
X48756D01*
X43244Y179905D02*
X48756D01*
X43244Y168095D02*
Y179905D01*
X48756Y168095D02*
Y179905D01*
X127382Y175744D02*
Y181256D01*
X137618Y175744D02*
Y181256D01*
X127382Y175744D02*
X137618D01*
X127382Y181256D02*
X137618D01*
X127382Y167744D02*
Y173256D01*
X137618Y167744D02*
Y173256D01*
X127382Y167744D02*
X137618D01*
X127382Y173256D02*
X137618D01*
X72244Y168882D02*
X77756D01*
X72244Y179118D02*
X77756D01*
Y168882D02*
Y179118D01*
X72244Y168882D02*
Y179118D01*
X64244Y168882D02*
X69756D01*
X64244Y179118D02*
X69756D01*
Y168882D02*
Y179118D01*
X64244Y168882D02*
Y179118D01*
X126882Y144244D02*
Y149756D01*
X137118Y144244D02*
Y149756D01*
X126882Y144244D02*
X137118D01*
X126882Y149756D02*
X137118D01*
X126488Y130095D02*
X132000D01*
X126488Y141905D02*
X132000D01*
X126488Y130095D02*
Y141905D01*
X132000Y130095D02*
Y141905D01*
X139094Y152520D02*
Y158031D01*
X150906Y152520D02*
Y158031D01*
X139094D02*
X150906D01*
X139094Y152520D02*
X150906D01*
X162744Y157638D02*
X168256D01*
X162744Y147402D02*
X168256D01*
X162744D02*
Y157638D01*
X168256Y147402D02*
Y157638D01*
X154244D02*
X159756D01*
X154244Y147402D02*
X159756D01*
X154244D02*
Y157638D01*
X159756Y147402D02*
Y157638D01*
D14*
X205500Y23000D02*
Y223000D01*
X126Y213000D02*
X15500D01*
X126Y223000D02*
X15500D01*
Y23000D02*
Y223000D01*
X126Y23000D02*
X15500D01*
X126D02*
Y223000D01*
X13000Y126D02*
Y15500D01*
X3000Y126D02*
Y15500D01*
X203000D01*
Y126D02*
Y15500D01*
X3000Y126D02*
X203000D01*
X190126Y213000D02*
X205874D01*
X190126Y223000D02*
X205500D01*
X190126Y23000D02*
X205500D01*
X190126D02*
Y223000D01*
X139744Y131000D02*
X133746D01*
Y133999D01*
X134746Y134999D01*
X136745D01*
X137745Y133999D01*
Y131000D01*
Y132999D02*
X139744Y134999D01*
X134746Y136998D02*
X133746Y137998D01*
Y139997D01*
X134746Y140997D01*
X135745D01*
X136745Y139997D01*
Y138997D01*
Y139997D01*
X137745Y140997D01*
X138744D01*
X139744Y139997D01*
Y137998D01*
X138744Y136998D01*
X130999Y155998D02*
X129999Y156998D01*
X128000D01*
X127000Y155998D01*
Y152000D01*
X128000Y151000D01*
X129999D01*
X130999Y152000D01*
X132998Y156998D02*
X136997D01*
Y155998D01*
X132998Y152000D01*
Y151000D01*
X100000Y187998D02*
Y183000D01*
X101000Y182000D01*
X102999D01*
X103999Y183000D01*
Y187998D01*
X105998Y182000D02*
X107997D01*
X106998D01*
Y187998D01*
X105998Y186998D01*
X49000Y181500D02*
X43002D01*
Y184499D01*
X44002Y185499D01*
X46001D01*
X47001Y184499D01*
Y181500D01*
Y183499D02*
X49000Y185499D01*
Y191497D02*
Y187498D01*
X45001Y191497D01*
X44002D01*
X43002Y190497D01*
Y188498D01*
X44002Y187498D01*
X141000Y159551D02*
Y165549D01*
X143999D01*
X144999Y164550D01*
Y162550D01*
X143999Y161550D01*
X141000D01*
X142999D02*
X144999Y159551D01*
X146998D02*
X148997D01*
X147998D01*
Y165549D01*
X146998Y164550D01*
X131499Y187998D02*
X130499Y188998D01*
X128500D01*
X127500Y187998D01*
Y184000D01*
X128500Y183000D01*
X130499D01*
X131499Y184000D01*
X137497Y188998D02*
X135497Y187998D01*
X133498Y185999D01*
Y184000D01*
X134498Y183000D01*
X136497D01*
X137497Y184000D01*
Y184999D01*
X136497Y185999D01*
X133498D01*
X143499Y172498D02*
X142499Y173498D01*
X140500D01*
X139500Y172498D01*
Y168500D01*
X140500Y167500D01*
X142499D01*
X143499Y168500D01*
X149497Y173498D02*
X145498D01*
Y170499D01*
X147497Y171499D01*
X148497D01*
X149497Y170499D01*
Y168500D01*
X148497Y167500D01*
X146498D01*
X145498Y168500D01*
X163502Y163050D02*
X162502Y162050D01*
Y160051D01*
X163502Y159051D01*
X167500D01*
X168500Y160051D01*
Y162050D01*
X167500Y163050D01*
X168500Y168048D02*
X162502D01*
X165501Y165049D01*
Y169048D01*
X155002Y163050D02*
X154002Y162050D01*
Y160051D01*
X155002Y159051D01*
X159000D01*
X160000Y160051D01*
Y162050D01*
X159000Y163050D01*
X155002Y165049D02*
X154002Y166049D01*
Y168048D01*
X155002Y169048D01*
X156001D01*
X157001Y168048D01*
Y167049D01*
Y168048D01*
X158001Y169048D01*
X159000D01*
X160000Y168048D01*
Y166049D01*
X159000Y165049D01*
X65002Y184999D02*
X64002Y183999D01*
Y182000D01*
X65002Y181000D01*
X69000D01*
X70000Y182000D01*
Y183999D01*
X69000Y184999D01*
X70000Y190997D02*
Y186998D01*
X66001Y190997D01*
X65002D01*
X64002Y189997D01*
Y187998D01*
X65002Y186998D01*
X73002Y184999D02*
X72002Y183999D01*
Y182000D01*
X73002Y181000D01*
X77000D01*
X78000Y182000D01*
Y183999D01*
X77000Y184999D01*
X78000Y186998D02*
Y188997D01*
Y187998D01*
X72002D01*
X73002Y186998D01*
D15*
X85279Y240510D02*
X82232Y248508D01*
X79185Y240510D01*
X80328Y243176D02*
X84137D01*
X89812Y248508D02*
Y240510D01*
X87146Y248508D02*
X92478D01*
X98762Y247365D02*
X98001Y248127D01*
X96858Y248508D01*
X95334D01*
X94192Y248127D01*
X93430Y247365D01*
Y246603D01*
X93811Y245842D01*
X94192Y245461D01*
X94954Y245080D01*
X97239Y244318D01*
X98001Y243937D01*
X98381Y243557D01*
X98762Y242795D01*
Y241652D01*
X98001Y240891D01*
X96858Y240510D01*
X95334D01*
X94192Y240891D01*
X93430Y241652D01*
X106646Y240510D02*
X103599Y248508D01*
X100552Y240510D01*
X101695Y243176D02*
X105504D01*
X108512Y248508D02*
Y240510D01*
Y248508D02*
X111559Y240510D01*
X114606Y248508D02*
X111559Y240510D01*
X114606Y248508D02*
Y240510D01*
X116892Y248508D02*
Y240510D01*
X121462D01*
X122338Y246984D02*
X123100Y247365D01*
X124242Y248508D01*
Y240510D01*
X128203Y246984D02*
X128965Y247365D01*
X130108Y248508D01*
Y240510D01*
X72768Y236270D02*
Y228272D01*
X70102Y236270D02*
X75434D01*
X80957Y233604D02*
Y228272D01*
Y232461D02*
X80195Y233223D01*
X79433Y233604D01*
X78290D01*
X77529Y233223D01*
X76767Y232461D01*
X76386Y231319D01*
Y230557D01*
X76767Y229414D01*
X77529Y228653D01*
X78290Y228272D01*
X79433D01*
X80195Y228653D01*
X80957Y229414D01*
X83089Y233604D02*
Y228272D01*
Y231319D02*
X83470Y232461D01*
X84232Y233223D01*
X84994Y233604D01*
X86136D01*
X91430D02*
Y227510D01*
X91050Y226367D01*
X90669Y225987D01*
X89907Y225606D01*
X88764D01*
X88003Y225987D01*
X91430Y232461D02*
X90669Y233223D01*
X89907Y233604D01*
X88764D01*
X88003Y233223D01*
X87241Y232461D01*
X86860Y231319D01*
Y230557D01*
X87241Y229414D01*
X88003Y228653D01*
X88764Y228272D01*
X89907D01*
X90669Y228653D01*
X91430Y229414D01*
X93563Y231319D02*
X98134D01*
Y232080D01*
X97753Y232842D01*
X97372Y233223D01*
X96610Y233604D01*
X95468D01*
X94706Y233223D01*
X93944Y232461D01*
X93563Y231319D01*
Y230557D01*
X93944Y229414D01*
X94706Y228653D01*
X95468Y228272D01*
X96610D01*
X97372Y228653D01*
X98134Y229414D01*
X100990Y236270D02*
Y229795D01*
X101371Y228653D01*
X102133Y228272D01*
X102895D01*
X99848Y233604D02*
X102514D01*
X110322Y236270D02*
Y228272D01*
Y236270D02*
X113750D01*
X114892Y235889D01*
X115273Y235508D01*
X115654Y234747D01*
Y233985D01*
X115273Y233223D01*
X114892Y232842D01*
X113750Y232461D01*
X110322D02*
X113750D01*
X114892Y232080D01*
X115273Y231699D01*
X115654Y230938D01*
Y229795D01*
X115273Y229033D01*
X114892Y228653D01*
X113750Y228272D01*
X110322D01*
X119348Y233604D02*
X118587Y233223D01*
X117825Y232461D01*
X117444Y231319D01*
Y230557D01*
X117825Y229414D01*
X118587Y228653D01*
X119348Y228272D01*
X120491D01*
X121253Y228653D01*
X122014Y229414D01*
X122395Y230557D01*
Y231319D01*
X122014Y232461D01*
X121253Y233223D01*
X120491Y233604D01*
X119348D01*
X128718D02*
Y228272D01*
Y232461D02*
X127956Y233223D01*
X127194Y233604D01*
X126052D01*
X125290Y233223D01*
X124528Y232461D01*
X124147Y231319D01*
Y230557D01*
X124528Y229414D01*
X125290Y228653D01*
X126052Y228272D01*
X127194D01*
X127956Y228653D01*
X128718Y229414D01*
X130851Y233604D02*
Y228272D01*
Y231319D02*
X131231Y232461D01*
X131993Y233223D01*
X132755Y233604D01*
X133898D01*
X139192Y236270D02*
Y228272D01*
Y232461D02*
X138430Y233223D01*
X137668Y233604D01*
X136526D01*
X135764Y233223D01*
X135002Y232461D01*
X134621Y231319D01*
Y230557D01*
X135002Y229414D01*
X135764Y228653D01*
X136526Y228272D01*
X137668D01*
X138430Y228653D01*
X139192Y229414D01*
D16*
X68642Y216917D02*
Y210918D01*
Y216917D02*
X72355D01*
X68642Y214060D02*
X70927D01*
X74469Y214917D02*
X73898Y214632D01*
X73327Y214060D01*
X73041Y213203D01*
Y212632D01*
X73327Y211775D01*
X73898Y211204D01*
X74469Y210918D01*
X75326D01*
X75898Y211204D01*
X76469Y211775D01*
X76754Y212632D01*
Y213203D01*
X76469Y214060D01*
X75898Y214632D01*
X75326Y214917D01*
X74469D01*
X78069D02*
Y210918D01*
Y213203D02*
X78354Y214060D01*
X78925Y214632D01*
X79497Y214917D01*
X80354D01*
X89894Y215489D02*
X89609Y216060D01*
X89038Y216631D01*
X88466Y216917D01*
X87324D01*
X86752Y216631D01*
X86181Y216060D01*
X85895Y215489D01*
X85610Y214632D01*
Y213203D01*
X85895Y212346D01*
X86181Y211775D01*
X86752Y211204D01*
X87324Y210918D01*
X88466D01*
X89038Y211204D01*
X89609Y211775D01*
X89894Y212346D01*
X91580Y216917D02*
Y210918D01*
Y213774D02*
X92437Y214632D01*
X93008Y214917D01*
X93865D01*
X94436Y214632D01*
X94722Y213774D01*
Y210918D01*
X96864Y216917D02*
X97150Y216631D01*
X97436Y216917D01*
X97150Y217202D01*
X96864Y216917D01*
X97150Y214917D02*
Y210918D01*
X98493Y214917D02*
Y208918D01*
Y214060D02*
X99064Y214632D01*
X99635Y214917D01*
X100492D01*
X101064Y214632D01*
X101635Y214060D01*
X101920Y213203D01*
Y212632D01*
X101635Y211775D01*
X101064Y211204D01*
X100492Y210918D01*
X99635D01*
X99064Y211204D01*
X98493Y211775D01*
X103206Y216917D02*
X104634Y210918D01*
X106062Y216917D02*
X104634Y210918D01*
X106062Y216917D02*
X107491Y210918D01*
X108919Y216917D02*
X107491Y210918D01*
X110119Y216917D02*
Y210918D01*
Y213774D02*
X110976Y214632D01*
X111547Y214917D01*
X112404D01*
X112975Y214632D01*
X113261Y213774D01*
Y210918D01*
X115403Y216917D02*
X115689Y216631D01*
X115975Y216917D01*
X115689Y217202D01*
X115403Y216917D01*
X115689Y214917D02*
Y210918D01*
X120174Y214060D02*
X119888Y214632D01*
X119031Y214917D01*
X118174D01*
X117317Y214632D01*
X117032Y214060D01*
X117317Y213489D01*
X117888Y213203D01*
X119317Y212918D01*
X119888Y212632D01*
X120174Y212061D01*
Y211775D01*
X119888Y211204D01*
X119031Y210918D01*
X118174D01*
X117317Y211204D01*
X117032Y211775D01*
X121431Y214917D02*
Y208918D01*
Y214060D02*
X122002Y214632D01*
X122573Y214917D01*
X123430D01*
X124002Y214632D01*
X124573Y214060D01*
X124858Y213203D01*
Y212632D01*
X124573Y211775D01*
X124002Y211204D01*
X123430Y210918D01*
X122573D01*
X122002Y211204D01*
X121431Y211775D01*
X126144Y213203D02*
X129572D01*
Y213774D01*
X129286Y214346D01*
X129000Y214632D01*
X128429Y214917D01*
X127572D01*
X127001Y214632D01*
X126429Y214060D01*
X126144Y213203D01*
Y212632D01*
X126429Y211775D01*
X127001Y211204D01*
X127572Y210918D01*
X128429D01*
X129000Y211204D01*
X129572Y211775D01*
X130857Y214917D02*
Y210918D01*
Y213203D02*
X131143Y214060D01*
X131714Y214632D01*
X132285Y214917D01*
X133142D01*
X133685Y213203D02*
X137113D01*
Y213774D01*
X136827Y214346D01*
X136542Y214632D01*
X135970Y214917D01*
X135113D01*
X134542Y214632D01*
X133971Y214060D01*
X133685Y213203D01*
Y212632D01*
X133971Y211775D01*
X134542Y211204D01*
X135113Y210918D01*
X135970D01*
X136542Y211204D01*
X137113Y211775D01*
X138398Y214917D02*
Y210918D01*
Y213203D02*
X138684Y214060D01*
X139255Y214632D01*
X139827Y214917D01*
X140684D01*
X68585Y204370D02*
X68299Y204942D01*
X67728Y205513D01*
X67156Y205799D01*
X66014D01*
X65443Y205513D01*
X64871Y204942D01*
X64586Y204370D01*
X64300Y203514D01*
Y202085D01*
X64586Y201228D01*
X64871Y200657D01*
X65443Y200086D01*
X66014Y199800D01*
X67156D01*
X67728Y200086D01*
X68299Y200657D01*
X68585Y201228D01*
X70270Y205799D02*
X71698Y199800D01*
X73127Y205799D02*
X71698Y199800D01*
X73127Y205799D02*
X74555Y199800D01*
X75983Y205799D02*
X74555Y199800D01*
X77754Y205799D02*
X80896D01*
X79182Y203514D01*
X80040D01*
X80611Y203228D01*
X80896Y202942D01*
X81182Y202085D01*
Y201514D01*
X80896Y200657D01*
X80325Y200086D01*
X79468Y199800D01*
X78611D01*
X77754Y200086D01*
X77469Y200371D01*
X77183Y200943D01*
X84239Y205799D02*
X83382Y205513D01*
X82810Y204656D01*
X82525Y203228D01*
Y202371D01*
X82810Y200943D01*
X83382Y200086D01*
X84239Y199800D01*
X84810D01*
X85667Y200086D01*
X86238Y200943D01*
X86524Y202371D01*
Y203228D01*
X86238Y204656D01*
X85667Y205513D01*
X84810Y205799D01*
X84239D01*
X89295D02*
X88438Y205513D01*
X88152Y204942D01*
Y204370D01*
X88438Y203799D01*
X89009Y203514D01*
X90152Y203228D01*
X91009Y202942D01*
X91580Y202371D01*
X91865Y201800D01*
Y200943D01*
X91580Y200371D01*
X91294Y200086D01*
X90437Y199800D01*
X89295D01*
X88438Y200086D01*
X88152Y200371D01*
X87866Y200943D01*
Y201800D01*
X88152Y202371D01*
X88723Y202942D01*
X89580Y203228D01*
X90723Y203514D01*
X91294Y203799D01*
X91580Y204370D01*
Y204942D01*
X91294Y205513D01*
X90437Y205799D01*
X89295D01*
X95208D02*
Y199800D01*
X93208Y205799D02*
X97207D01*
X102635D02*
Y201514D01*
X102920Y200657D01*
X103492Y200086D01*
X104349Y199800D01*
X104920D01*
X105777Y200086D01*
X106348Y200657D01*
X106634Y201514D01*
Y205799D01*
X108291D02*
Y199800D01*
Y205799D02*
X112004D01*
X108291Y202942D02*
X110576D01*
X114403Y205799D02*
X113832Y205513D01*
X113261Y204942D01*
X112975Y204370D01*
X112690Y203514D01*
Y202085D01*
X112975Y201228D01*
X113261Y200657D01*
X113832Y200086D01*
X114403Y199800D01*
X115546D01*
X116118Y200086D01*
X116689Y200657D01*
X116974Y201228D01*
X117260Y202085D01*
Y203514D01*
X116974Y204370D01*
X116689Y204942D01*
X116118Y205513D01*
X115546Y205799D01*
X114403D01*
X123373D02*
Y199800D01*
Y205799D02*
X125944D01*
X126801Y205513D01*
X127087Y205227D01*
X127372Y204656D01*
Y204085D01*
X127087Y203514D01*
X126801Y203228D01*
X125944Y202942D01*
X123373D02*
X125944D01*
X126801Y202657D01*
X127087Y202371D01*
X127372Y201800D01*
Y200943D01*
X127087Y200371D01*
X126801Y200086D01*
X125944Y199800D01*
X123373D01*
X130143Y203799D02*
X129572Y203514D01*
X129000Y202942D01*
X128715Y202085D01*
Y201514D01*
X129000Y200657D01*
X129572Y200086D01*
X130143Y199800D01*
X131000D01*
X131571Y200086D01*
X132143Y200657D01*
X132428Y201514D01*
Y202085D01*
X132143Y202942D01*
X131571Y203514D01*
X131000Y203799D01*
X130143D01*
X137170D02*
Y199800D01*
Y202942D02*
X136599Y203514D01*
X136028Y203799D01*
X135170D01*
X134599Y203514D01*
X134028Y202942D01*
X133742Y202085D01*
Y201514D01*
X134028Y200657D01*
X134599Y200086D01*
X135170Y199800D01*
X136028D01*
X136599Y200086D01*
X137170Y200657D01*
X138770Y203799D02*
Y199800D01*
Y202085D02*
X139055Y202942D01*
X139627Y203514D01*
X140198Y203799D01*
X141055D01*
X145026Y205799D02*
Y199800D01*
Y202942D02*
X144454Y203514D01*
X143883Y203799D01*
X143026D01*
X142455Y203514D01*
X141883Y202942D01*
X141598Y202085D01*
Y201514D01*
X141883Y200657D01*
X142455Y200086D01*
X143026Y199800D01*
X143883D01*
X144454Y200086D01*
X145026Y200657D01*
X21785Y199571D02*
X21499Y200142D01*
X20928Y200713D01*
X20357Y200999D01*
X19214D01*
X18643Y200713D01*
X18071Y200142D01*
X17786Y199571D01*
X17500Y198714D01*
Y197285D01*
X17786Y196428D01*
X18071Y195857D01*
X18643Y195286D01*
X19214Y195000D01*
X20357D01*
X20928Y195286D01*
X21499Y195857D01*
X21785Y196428D01*
X23470Y200999D02*
Y195000D01*
X26898D01*
X27555Y200999D02*
Y195000D01*
X31554Y200999D02*
X27555Y197000D01*
X28983Y198428D02*
X31554Y195000D01*
X32897Y200999D02*
Y195000D01*
X34154Y200999D02*
Y195000D01*
Y200999D02*
X38153Y195000D01*
Y200999D02*
Y195000D01*
X19500Y160999D02*
Y155000D01*
X17500Y160999D02*
X21499D01*
X22213D02*
X26212Y155000D01*
Y160999D02*
X22213Y155000D01*
X32268Y154143D02*
X36267Y160999D01*
X41381Y157857D02*
X43951D01*
X44808Y158142D01*
X45094Y158428D01*
X45380Y158999D01*
Y159856D01*
X45094Y160427D01*
X44808Y160713D01*
X43951Y160999D01*
X41381D01*
Y155000D01*
X51293D02*
X49007Y160999D01*
X46722Y155000D01*
X47579Y157000D02*
X50436D01*
X52693Y159856D02*
X53264Y160142D01*
X54121Y160999D01*
Y155000D01*
X60519Y160142D02*
X60234Y160713D01*
X59377Y160999D01*
X58805D01*
X57948Y160713D01*
X57377Y159856D01*
X57091Y158428D01*
Y157000D01*
X57377Y155857D01*
X57948Y155286D01*
X58805Y155000D01*
X59091D01*
X59948Y155286D01*
X60519Y155857D01*
X60805Y156714D01*
Y157000D01*
X60519Y157857D01*
X59948Y158428D01*
X59091Y158713D01*
X58805D01*
X57948Y158428D01*
X57377Y157857D01*
X57091Y157000D01*
X17500Y150999D02*
Y145000D01*
Y150999D02*
X20071D01*
X20928Y150713D01*
X21214Y150427D01*
X21499Y149856D01*
Y149285D01*
X21214Y148714D01*
X20928Y148428D01*
X20071Y148142D01*
X17500D01*
X19500D02*
X21499Y145000D01*
X22842Y150999D02*
X26841Y145000D01*
Y150999D02*
X22842Y145000D01*
X32897Y144143D02*
X36896Y150999D01*
X42009Y147856D02*
X44580D01*
X45437Y148142D01*
X45722Y148428D01*
X46008Y148999D01*
Y149856D01*
X45722Y150427D01*
X45437Y150713D01*
X44580Y150999D01*
X42009D01*
Y145000D01*
X51921D02*
X49636Y150999D01*
X47351Y145000D01*
X48208Y147000D02*
X51064D01*
X53321Y149856D02*
X53892Y150142D01*
X54749Y150999D01*
Y145000D01*
X61719Y150999D02*
X58863Y145000D01*
X57720Y150999D02*
X61719D01*
X17500Y137856D02*
X20071D01*
X20928Y138142D01*
X21214Y138428D01*
X21499Y138999D01*
Y139856D01*
X21214Y140427D01*
X20928Y140713D01*
X20071Y140999D01*
X17500D01*
Y135000D01*
X27412D02*
X25127Y140999D01*
X22842Y135000D01*
X23699Y137000D02*
X26555D01*
X28812Y139856D02*
X29383Y140142D01*
X30240Y140999D01*
Y135000D01*
X34639Y140999D02*
X33782Y140713D01*
X33497Y140142D01*
Y139570D01*
X33782Y138999D01*
X34354Y138714D01*
X35496Y138428D01*
X36353Y138142D01*
X36924Y137571D01*
X37210Y137000D01*
Y136143D01*
X36924Y135571D01*
X36639Y135286D01*
X35782Y135000D01*
X34639D01*
X33782Y135286D01*
X33497Y135571D01*
X33211Y136143D01*
Y137000D01*
X33497Y137571D01*
X34068Y138142D01*
X34925Y138428D01*
X36068Y138714D01*
X36639Y138999D01*
X36924Y139570D01*
Y140142D01*
X36639Y140713D01*
X35782Y140999D01*
X34639D01*
X17500Y60999D02*
Y55000D01*
Y60999D02*
X20071D01*
X20928Y60713D01*
X21214Y60427D01*
X21499Y59856D01*
Y59285D01*
X21214Y58714D01*
X20928Y58428D01*
X20071Y58142D01*
X17500D02*
X20071D01*
X20928Y57857D01*
X21214Y57571D01*
X21499Y57000D01*
Y56143D01*
X21214Y55571D01*
X20928Y55286D01*
X20071Y55000D01*
X17500D01*
X24556Y60999D02*
X23984Y60713D01*
X23413Y60142D01*
X23127Y59570D01*
X22842Y58714D01*
Y57285D01*
X23127Y56428D01*
X23413Y55857D01*
X23984Y55286D01*
X24556Y55000D01*
X25698D01*
X26270Y55286D01*
X26841Y55857D01*
X27127Y56428D01*
X27412Y57285D01*
Y58714D01*
X27127Y59570D01*
X26841Y60142D01*
X26270Y60713D01*
X25698Y60999D01*
X24556D01*
X30526D02*
X29954Y60713D01*
X29383Y60142D01*
X29098Y59570D01*
X28812Y58714D01*
Y57285D01*
X29098Y56428D01*
X29383Y55857D01*
X29954Y55286D01*
X30526Y55000D01*
X31668D01*
X32240Y55286D01*
X32811Y55857D01*
X33097Y56428D01*
X33382Y57285D01*
Y58714D01*
X33097Y59570D01*
X32811Y60142D01*
X32240Y60713D01*
X31668Y60999D01*
X30526D01*
X36782D02*
Y55000D01*
X34782Y60999D02*
X38781D01*
X44209Y54143D02*
X48208Y60999D01*
X53321Y57857D02*
X55892D01*
X56749Y58142D01*
X57034Y58428D01*
X57320Y58999D01*
Y59856D01*
X57034Y60427D01*
X56749Y60713D01*
X55892Y60999D01*
X53321D01*
Y55000D01*
X63233D02*
X60948Y60999D01*
X58663Y55000D01*
X59520Y57000D02*
X62376D01*
X64633Y59856D02*
X65204Y60142D01*
X66061Y60999D01*
Y55000D01*
X72745Y58999D02*
X72460Y58142D01*
X71888Y57571D01*
X71031Y57285D01*
X70746D01*
X69889Y57571D01*
X69318Y58142D01*
X69032Y58999D01*
Y59285D01*
X69318Y60142D01*
X69889Y60713D01*
X70746Y60999D01*
X71031D01*
X71888Y60713D01*
X72460Y60142D01*
X72745Y58999D01*
Y57571D01*
X72460Y56143D01*
X71888Y55286D01*
X71031Y55000D01*
X70460D01*
X69603Y55286D01*
X69318Y55857D01*
X17500Y127857D02*
X20071D01*
X20928Y128142D01*
X21214Y128428D01*
X21499Y128999D01*
Y129856D01*
X21214Y130427D01*
X20928Y130713D01*
X20071Y130999D01*
X17500D01*
Y125000D01*
X27412D02*
X25127Y130999D01*
X22842Y125000D01*
X23699Y127000D02*
X26555D01*
X29098Y129570D02*
Y129856D01*
X29383Y130427D01*
X29669Y130713D01*
X30240Y130999D01*
X31383D01*
X31954Y130713D01*
X32240Y130427D01*
X32525Y129856D01*
Y129285D01*
X32240Y128714D01*
X31668Y127857D01*
X28812Y125000D01*
X32811D01*
X34439Y129570D02*
Y129856D01*
X34725Y130427D01*
X35010Y130713D01*
X35582Y130999D01*
X36724D01*
X37296Y130713D01*
X37581Y130427D01*
X37867Y129856D01*
Y129285D01*
X37581Y128714D01*
X37010Y127857D01*
X34154Y125000D01*
X38153D01*
X166500Y27856D02*
X169071D01*
X169928Y28142D01*
X170213Y28428D01*
X170499Y28999D01*
Y29856D01*
X170213Y30427D01*
X169928Y30713D01*
X169071Y30999D01*
X166500D01*
Y25000D01*
X176412D02*
X174127Y30999D01*
X171842Y25000D01*
X172699Y27000D02*
X175555D01*
X178097Y29570D02*
Y29856D01*
X178383Y30427D01*
X178669Y30713D01*
X179240Y30999D01*
X180383D01*
X180954Y30713D01*
X181240Y30427D01*
X181525Y29856D01*
Y29285D01*
X181240Y28714D01*
X180668Y27856D01*
X177812Y25000D01*
X181811D01*
X183725Y30999D02*
X186867D01*
X185153Y28714D01*
X186010D01*
X186581Y28428D01*
X186867Y28142D01*
X187153Y27285D01*
Y26714D01*
X186867Y25857D01*
X186296Y25286D01*
X185439Y25000D01*
X184582D01*
X183725Y25286D01*
X183439Y25571D01*
X183154Y26143D01*
X166357Y37857D02*
X168928D01*
X169785Y38142D01*
X170071Y38428D01*
X170356Y38999D01*
Y39856D01*
X170071Y40427D01*
X169785Y40713D01*
X168928Y40999D01*
X166357D01*
Y35000D01*
X176269D02*
X173984Y40999D01*
X171699Y35000D01*
X172556Y37000D02*
X175412D01*
X177955Y39570D02*
Y39856D01*
X178240Y40427D01*
X178526Y40713D01*
X179097Y40999D01*
X180240D01*
X180811Y40713D01*
X181097Y40427D01*
X181383Y39856D01*
Y39285D01*
X181097Y38713D01*
X180526Y37857D01*
X177669Y35000D01*
X181668D01*
X185867Y40999D02*
X183011Y37000D01*
X187295D01*
X185867Y40999D02*
Y35000D01*
X166500Y47857D02*
X169071D01*
X169928Y48142D01*
X170213Y48428D01*
X170499Y48999D01*
Y49856D01*
X170213Y50427D01*
X169928Y50713D01*
X169071Y50999D01*
X166500D01*
Y45000D01*
X176412D02*
X174127Y50999D01*
X171842Y45000D01*
X172699Y47000D02*
X175555D01*
X178097Y49570D02*
Y49856D01*
X178383Y50427D01*
X178669Y50713D01*
X179240Y50999D01*
X180383D01*
X180954Y50713D01*
X181240Y50427D01*
X181525Y49856D01*
Y49285D01*
X181240Y48713D01*
X180668Y47857D01*
X177812Y45000D01*
X181811D01*
X186581Y50999D02*
X183725D01*
X183439Y48428D01*
X183725Y48713D01*
X184582Y48999D01*
X185439D01*
X186296Y48713D01*
X186867Y48142D01*
X187153Y47285D01*
Y46714D01*
X186867Y45857D01*
X186296Y45286D01*
X185439Y45000D01*
X184582D01*
X183725Y45286D01*
X183439Y45571D01*
X183154Y46143D01*
X169071Y90142D02*
Y85000D01*
X166500Y87571D02*
X171642D01*
X173984Y90999D02*
X177126D01*
X175412Y88714D01*
X176269D01*
X176841Y88428D01*
X177126Y88142D01*
X177412Y87285D01*
Y86714D01*
X177126Y85857D01*
X176555Y85286D01*
X175698Y85000D01*
X174841D01*
X173984Y85286D01*
X173698Y85571D01*
X173413Y86143D01*
X178754Y88999D02*
X180468Y85000D01*
X182182Y88999D02*
X180468Y85000D01*
X183725Y90999D02*
X186867D01*
X185153Y88714D01*
X186010D01*
X186581Y88428D01*
X186867Y88142D01*
X187153Y87285D01*
Y86714D01*
X186867Y85857D01*
X186296Y85286D01*
X185439Y85000D01*
X184582D01*
X183725Y85286D01*
X183439Y85571D01*
X183154Y86143D01*
X170071Y120142D02*
Y115000D01*
X167500Y117571D02*
X172642D01*
X174413Y119856D02*
X174984Y120142D01*
X175841Y120999D01*
Y115000D01*
X178812Y118999D02*
X180526Y115000D01*
X182240Y118999D02*
X180526Y115000D01*
X183497Y119571D02*
Y119856D01*
X183782Y120427D01*
X184068Y120713D01*
X184639Y120999D01*
X185782D01*
X186353Y120713D01*
X186639Y120427D01*
X186924Y119856D01*
Y119285D01*
X186639Y118713D01*
X186067Y117857D01*
X183211Y115000D01*
X187210D01*
X127214Y106499D02*
X123500D01*
Y100500D01*
X127214D01*
X123500Y103642D02*
X125785D01*
X128213Y104499D02*
Y100500D01*
Y103357D02*
X129070Y104214D01*
X129642Y104499D01*
X130499D01*
X131070Y104214D01*
X131356Y103357D01*
Y100500D01*
X136354Y104499D02*
Y100500D01*
Y103642D02*
X135783Y104214D01*
X135212Y104499D01*
X134355D01*
X133783Y104214D01*
X133212Y103642D01*
X132927Y102785D01*
Y102214D01*
X133212Y101357D01*
X133783Y100786D01*
X134355Y100500D01*
X135212D01*
X135783Y100786D01*
X136354Y101357D01*
X137954Y106499D02*
Y100500D01*
Y103642D02*
X138525Y104214D01*
X139097Y104499D01*
X139954D01*
X140525Y104214D01*
X141096Y103642D01*
X141382Y102785D01*
Y102214D01*
X141096Y101357D01*
X140525Y100786D01*
X139954Y100500D01*
X139097D01*
X138525Y100786D01*
X137954Y101357D01*
X142667Y106499D02*
Y100500D01*
X143924Y102785D02*
X147352D01*
Y103357D01*
X147066Y103928D01*
X146781Y104214D01*
X146209Y104499D01*
X145352D01*
X144781Y104214D01*
X144210Y103642D01*
X143924Y102785D01*
Y102214D01*
X144210Y101357D01*
X144781Y100786D01*
X145352Y100500D01*
X146209D01*
X146781Y100786D01*
X147352Y101357D01*
X157350Y105642D02*
X156779Y106213D01*
X155922Y106499D01*
X154779D01*
X153922Y106213D01*
X153351Y105642D01*
Y105070D01*
X153636Y104499D01*
X153922Y104214D01*
X154493Y103928D01*
X156207Y103357D01*
X156779Y103071D01*
X157064Y102785D01*
X157350Y102214D01*
Y101357D01*
X156779Y100786D01*
X155922Y100500D01*
X154779D01*
X153922Y100786D01*
X153351Y101357D01*
X158693Y104499D02*
Y101643D01*
X158978Y100786D01*
X159549Y100500D01*
X160406D01*
X160978Y100786D01*
X161835Y101643D01*
Y104499D02*
Y100500D01*
X163406Y104499D02*
Y98500D01*
Y103642D02*
X163977Y104214D01*
X164548Y104499D01*
X165405D01*
X165977Y104214D01*
X166548Y103642D01*
X166834Y102785D01*
Y102214D01*
X166548Y101357D01*
X165977Y100786D01*
X165405Y100500D01*
X164548D01*
X163977Y100786D01*
X163406Y101357D01*
X168119Y104499D02*
Y98500D01*
Y103642D02*
X168690Y104214D01*
X169262Y104499D01*
X170119D01*
X170690Y104214D01*
X171261Y103642D01*
X171547Y102785D01*
Y102214D01*
X171261Y101357D01*
X170690Y100786D01*
X170119Y100500D01*
X169262D01*
X168690Y100786D01*
X168119Y101357D01*
X172832Y106499D02*
Y100500D01*
X174661Y106499D02*
X174946Y106213D01*
X175232Y106499D01*
X174946Y106784D01*
X174661Y106499D01*
X174946Y104499D02*
Y100500D01*
X176289Y102785D02*
X179717D01*
Y103357D01*
X179431Y103928D01*
X179145Y104214D01*
X178574Y104499D01*
X177717D01*
X177146Y104214D01*
X176574Y103642D01*
X176289Y102785D01*
Y102214D01*
X176574Y101357D01*
X177146Y100786D01*
X177717Y100500D01*
X178574D01*
X179145Y100786D01*
X179717Y101357D01*
X184144Y103642D02*
X183859Y104214D01*
X183002Y104499D01*
X182145D01*
X181288Y104214D01*
X181002Y103642D01*
X181288Y103071D01*
X181859Y102785D01*
X183287Y102500D01*
X183859Y102214D01*
X184144Y101643D01*
Y101357D01*
X183859Y100786D01*
X183002Y100500D01*
X182145D01*
X181288Y100786D01*
X181002Y101357D01*
X17500Y120999D02*
Y115000D01*
Y120999D02*
X20071D01*
X20928Y120713D01*
X21214Y120427D01*
X21499Y119856D01*
Y119285D01*
X21214Y118713D01*
X20928Y118428D01*
X20071Y118142D01*
X17500D01*
X19500D02*
X21499Y115000D01*
X26841Y120142D02*
X26270Y120713D01*
X25413Y120999D01*
X24270D01*
X23413Y120713D01*
X22842Y120142D01*
Y119571D01*
X23127Y118999D01*
X23413Y118713D01*
X23984Y118428D01*
X25698Y117857D01*
X26270Y117571D01*
X26555Y117285D01*
X26841Y116714D01*
Y115857D01*
X26270Y115286D01*
X25413Y115000D01*
X24270D01*
X23413Y115286D01*
X22842Y115857D01*
X30183Y120999D02*
Y115000D01*
X28183Y120999D02*
X32183D01*
X75001Y17500D02*
X81000D01*
X75001D02*
Y20071D01*
X75287Y20928D01*
X75573Y21214D01*
X76144Y21499D01*
X76715D01*
X77286Y21214D01*
X77572Y20928D01*
X77858Y20071D01*
Y17500D01*
Y19500D02*
X81000Y21499D01*
X75858Y26841D02*
X75287Y26270D01*
X75001Y25413D01*
Y24270D01*
X75287Y23413D01*
X75858Y22842D01*
X76429D01*
X77001Y23127D01*
X77286Y23413D01*
X77572Y23984D01*
X78144Y25698D01*
X78429Y26270D01*
X78715Y26555D01*
X79286Y26841D01*
X80143D01*
X80714Y26270D01*
X81000Y25413D01*
Y24270D01*
X80714Y23413D01*
X80143Y22842D01*
X75001Y30183D02*
X81000D01*
X75001Y28183D02*
Y32183D01*
X55858Y21499D02*
X55287Y20928D01*
X55001Y20071D01*
Y18928D01*
X55287Y18071D01*
X55858Y17500D01*
X56429D01*
X57001Y17786D01*
X57287Y18071D01*
X57572Y18643D01*
X58144Y20357D01*
X58429Y20928D01*
X58715Y21214D01*
X59286Y21499D01*
X60143D01*
X60714Y20928D01*
X61000Y20071D01*
Y18928D01*
X60714Y18071D01*
X60143Y17500D01*
X55001Y22842D02*
X61000Y24270D01*
X55001Y25698D02*
X61000Y24270D01*
X55001Y25698D02*
X61000Y27127D01*
X55001Y28555D02*
X61000Y27127D01*
X56429Y34039D02*
X55858Y33754D01*
X55287Y33182D01*
X55001Y32611D01*
Y31468D01*
X55287Y30897D01*
X55858Y30326D01*
X56429Y30040D01*
X57287Y29754D01*
X58715D01*
X59572Y30040D01*
X60143Y30326D01*
X60714Y30897D01*
X61000Y31468D01*
Y32611D01*
X60714Y33182D01*
X60143Y33754D01*
X59572Y34039D01*
X55001Y35725D02*
X61000D01*
Y39153D01*
X55001Y39810D02*
X61000D01*
X55001Y43809D02*
X59000Y39810D01*
X57572Y41238D02*
X61000Y43809D01*
X45858Y21499D02*
X45287Y20928D01*
X45001Y20071D01*
Y18928D01*
X45287Y18071D01*
X45858Y17500D01*
X46430D01*
X47001Y17786D01*
X47286Y18071D01*
X47572Y18643D01*
X48144Y20357D01*
X48429Y20928D01*
X48715Y21214D01*
X49286Y21499D01*
X50143D01*
X50714Y20928D01*
X51000Y20071D01*
Y18928D01*
X50714Y18071D01*
X50143Y17500D01*
X45001Y22842D02*
X51000Y24270D01*
X45001Y25698D02*
X51000Y24270D01*
X45001Y25698D02*
X51000Y27127D01*
X45001Y28555D02*
X51000Y27127D01*
X45001Y29754D02*
X51000D01*
X45001D02*
Y31754D01*
X45287Y32611D01*
X45858Y33182D01*
X46430Y33468D01*
X47286Y33754D01*
X48715D01*
X49572Y33468D01*
X50143Y33182D01*
X50714Y32611D01*
X51000Y31754D01*
Y29754D01*
X45001Y35096D02*
X51000D01*
X45001Y38067D02*
X45287Y37496D01*
X45858Y36924D01*
X46430Y36639D01*
X47286Y36353D01*
X48715D01*
X49572Y36639D01*
X50143Y36924D01*
X50714Y37496D01*
X51000Y38067D01*
Y39210D01*
X50714Y39781D01*
X50143Y40352D01*
X49572Y40638D01*
X48715Y40924D01*
X47286D01*
X46430Y40638D01*
X45858Y40352D01*
X45287Y39781D01*
X45001Y39210D01*
Y38067D01*
X18000Y30499D02*
X20285Y24500D01*
X22570Y30499D02*
X20285Y24500D01*
X23342Y28499D02*
Y24500D01*
Y26785D02*
X23627Y27642D01*
X24199Y28214D01*
X24770Y28499D01*
X25627D01*
X26170Y26785D02*
X29597D01*
Y27356D01*
X29312Y27928D01*
X29026Y28214D01*
X28455Y28499D01*
X27598D01*
X27027Y28214D01*
X26455Y27642D01*
X26170Y26785D01*
Y26214D01*
X26455Y25357D01*
X27027Y24786D01*
X27598Y24500D01*
X28455D01*
X29026Y24786D01*
X29597Y25357D01*
X33168Y30499D02*
X32597D01*
X32026Y30213D01*
X31740Y29356D01*
Y24500D01*
X30883Y28499D02*
X32882D01*
X65001Y17500D02*
X71000Y19785D01*
X65001Y22070D02*
X71000Y19785D01*
X67001Y22842D02*
X71000D01*
X68715D02*
X67858Y23127D01*
X67286Y23699D01*
X67001Y24270D01*
Y25127D01*
X68715Y25670D02*
Y29098D01*
X68143D01*
X67572Y28812D01*
X67286Y28526D01*
X67001Y27955D01*
Y27098D01*
X67286Y26527D01*
X67858Y25955D01*
X68715Y25670D01*
X69286D01*
X70143Y25955D01*
X70714Y26527D01*
X71000Y27098D01*
Y27955D01*
X70714Y28526D01*
X70143Y29098D01*
X65001Y32668D02*
Y32097D01*
X65287Y31526D01*
X66144Y31240D01*
X71000D01*
X67001Y30383D02*
Y32383D01*
M02*
