G04*
G04 #@! TF.GenerationSoftware,Altium Limited,Altium Designer,22.7.1 (60)*
G04*
G04 Layer_Physical_Order=1*
G04 Layer_Color=255*
%FSLAX25Y25*%
%MOIN*%
G70*
G04*
G04 #@! TF.SameCoordinates,AD343771-C5E9-4EEF-B234-C8D92CA984D8*
G04*
G04*
G04 #@! TF.FilePolarity,Positive*
G04*
G01*
G75*
%ADD14C,0.01200*%
%ADD15C,0.00800*%
%ADD17O,0.04724X0.00984*%
%ADD18O,0.00984X0.04724*%
%ADD19R,0.16142X0.16142*%
%ADD20R,0.03740X0.02953*%
%ADD21R,0.02953X0.03740*%
G04:AMPARAMS|DCode=22|XSize=39.37mil|YSize=35.43mil|CornerRadius=4.43mil|HoleSize=0mil|Usage=FLASHONLY|Rotation=0.000|XOffset=0mil|YOffset=0mil|HoleType=Round|Shape=RoundedRectangle|*
%AMROUNDEDRECTD22*
21,1,0.03937,0.02657,0,0,0.0*
21,1,0.03051,0.03543,0,0,0.0*
1,1,0.00886,0.01526,-0.01329*
1,1,0.00886,-0.01526,-0.01329*
1,1,0.00886,-0.01526,0.01329*
1,1,0.00886,0.01526,0.01329*
%
%ADD22ROUNDEDRECTD22*%
G04:AMPARAMS|DCode=23|XSize=39.37mil|YSize=35.43mil|CornerRadius=4.43mil|HoleSize=0mil|Usage=FLASHONLY|Rotation=270.000|XOffset=0mil|YOffset=0mil|HoleType=Round|Shape=RoundedRectangle|*
%AMROUNDEDRECTD23*
21,1,0.03937,0.02657,0,0,270.0*
21,1,0.03051,0.03543,0,0,270.0*
1,1,0.00886,-0.01329,-0.01526*
1,1,0.00886,-0.01329,0.01526*
1,1,0.00886,0.01329,0.01526*
1,1,0.00886,0.01329,-0.01526*
%
%ADD23ROUNDEDRECTD23*%
%ADD37R,0.02756X0.16535*%
%ADD38R,0.02756X0.16535*%
%ADD39C,0.00600*%
%ADD40C,0.02000*%
%ADD41C,0.20866*%
%ADD42C,0.01400*%
%ADD43C,0.02400*%
D14*
X449772Y318228D02*
X451500Y316500D01*
X447000Y321000D02*
X449772Y318228D01*
X447000Y305665D02*
Y315457D01*
X449772Y318228D01*
X451500Y287228D02*
Y313500D01*
X456004Y279138D02*
Y316500D01*
X454166Y277301D02*
X456004Y279138D01*
X449772Y285500D02*
X451500Y287228D01*
Y321500D02*
Y330130D01*
X450886Y330744D02*
X451500Y330130D01*
X443000Y285500D02*
X449772D01*
X435719Y277301D02*
Y279918D01*
Y269973D02*
Y277301D01*
X447000D02*
X454166D01*
X450500Y270756D02*
X459654D01*
X443000D02*
X450500D01*
X439000Y282500D02*
X443000Y278500D01*
Y270756D02*
Y278500D01*
X435138Y280500D02*
X435719Y279918D01*
X451500Y316500D02*
X456004D01*
D15*
X440075Y304484D02*
X445819D01*
X447000Y305665D01*
X423047Y279918D02*
Y289425D01*
Y276547D02*
Y279918D01*
X380020Y350520D02*
Y378454D01*
X379000Y349500D02*
X380020Y350520D01*
X435138Y344772D02*
Y378454D01*
X439000Y344772D02*
Y378380D01*
X439075Y378454D01*
X450886Y352657D02*
Y378454D01*
X443000Y344772D02*
X450886Y352657D01*
X364272Y362089D02*
Y378454D01*
X363000Y360817D02*
X364272Y362089D01*
X363000Y285500D02*
Y360817D01*
X365772Y356720D02*
X368209Y359157D01*
Y378454D01*
X365772Y287228D02*
Y356720D01*
Y287228D02*
X375500Y277500D01*
X363000Y285500D02*
X375000Y273500D01*
X360335Y281084D02*
X372418Y269000D01*
X360335Y281084D02*
Y378454D01*
X369500Y311721D02*
Y350847D01*
Y311721D02*
X372800Y308421D01*
X375000D01*
X372146Y317492D02*
Y378454D01*
Y317492D02*
X375138Y314500D01*
X379000Y243000D02*
Y336141D01*
X380526Y335175D01*
X379000Y243000D02*
X380500Y241500D01*
X411516Y364106D02*
Y378454D01*
X415173Y317575D02*
Y360449D01*
X411516Y364106D02*
X415173Y360449D01*
X415453Y366335D02*
Y378454D01*
X417142Y317575D02*
Y364646D01*
X415453Y366335D02*
X417142Y364646D01*
X419390Y378454D02*
X419504Y378340D01*
Y364500D02*
Y378340D01*
X419110Y317575D02*
Y364106D01*
X419504Y364500D01*
X421079Y360244D02*
X423835Y363000D01*
X421079Y317575D02*
Y360244D01*
X423835Y363000D02*
Y377946D01*
X423327Y378454D02*
X423835Y377946D01*
X379000Y342834D02*
Y349500D01*
X372418Y269000D02*
X375000D01*
X380500Y241500D02*
X430000D01*
X432278Y243778D01*
Y275500D01*
X432890Y276112D02*
Y289425D01*
X432278Y275500D02*
X432890Y276112D01*
X425016Y281238D02*
X428953Y277301D01*
Y269847D02*
Y277301D01*
X425016Y281238D02*
Y289425D01*
X436827Y284673D02*
Y289425D01*
Y284673D02*
X439000Y282500D01*
X434858Y280780D02*
Y289425D01*
Y280780D02*
X435138Y280500D01*
X445598Y294402D02*
X446260D01*
X445358Y294642D02*
X445598Y294402D01*
X446260D02*
X446500Y294642D01*
X440075D02*
X445358D01*
X404752Y296610D02*
X411925D01*
X403642Y295500D02*
X404752Y296610D01*
X422000Y270256D02*
Y275500D01*
X423047Y276547D01*
X394677Y298579D02*
X411925D01*
X436827Y317575D02*
Y320827D01*
X437500Y321500D02*
X446500D01*
X436827Y320827D02*
X437500Y321500D01*
X426984Y317575D02*
Y330728D01*
X446500Y321500D02*
X447000Y321000D01*
X426984Y330728D02*
X427000Y330744D01*
D17*
X440075Y292673D02*
D03*
Y294642D02*
D03*
Y296610D02*
D03*
Y298579D02*
D03*
Y300547D02*
D03*
Y302516D02*
D03*
Y304484D02*
D03*
Y306453D02*
D03*
Y308421D02*
D03*
Y310390D02*
D03*
Y312358D02*
D03*
Y314327D02*
D03*
X411925D02*
D03*
Y312358D02*
D03*
Y310390D02*
D03*
Y308421D02*
D03*
Y306453D02*
D03*
Y304484D02*
D03*
Y302516D02*
D03*
Y300547D02*
D03*
Y298579D02*
D03*
Y296610D02*
D03*
Y294642D02*
D03*
Y292673D02*
D03*
D18*
X436827Y317575D02*
D03*
X434858D02*
D03*
X432890D02*
D03*
X430921D02*
D03*
X428953D02*
D03*
X426984D02*
D03*
X425016D02*
D03*
X423047D02*
D03*
X421079D02*
D03*
X419110D02*
D03*
X417142D02*
D03*
X415173D02*
D03*
Y289425D02*
D03*
X417142D02*
D03*
X419110D02*
D03*
X421079D02*
D03*
X423047D02*
D03*
X425016D02*
D03*
X426984D02*
D03*
X428953D02*
D03*
X430921D02*
D03*
X432890D02*
D03*
X434858D02*
D03*
X436827D02*
D03*
D19*
X426000Y303500D02*
D03*
D20*
X502319Y332500D02*
D03*
Y326988D02*
D03*
X494319Y332756D02*
D03*
Y327244D02*
D03*
X485319Y332756D02*
D03*
Y327244D02*
D03*
X450500Y265244D02*
D03*
Y270756D02*
D03*
X443000Y265244D02*
D03*
Y270756D02*
D03*
X427000Y330744D02*
D03*
Y336256D02*
D03*
X422000Y270256D02*
D03*
Y264744D02*
D03*
X435719Y264462D02*
D03*
Y269973D02*
D03*
D21*
X454365Y346296D02*
D03*
X459877D02*
D03*
X461516Y316500D02*
D03*
X456004D02*
D03*
X388744Y299000D02*
D03*
X394256D02*
D03*
D22*
X379000Y342834D02*
D03*
Y336141D02*
D03*
X428953Y269847D02*
D03*
Y263154D02*
D03*
D23*
X466347Y270756D02*
D03*
X459654D02*
D03*
X466653Y332500D02*
D03*
X473347D02*
D03*
D37*
X380020Y378454D02*
D03*
X387894D02*
D03*
X399705D02*
D03*
X372146D02*
D03*
X391831D02*
D03*
X383957D02*
D03*
X376083D02*
D03*
X368209D02*
D03*
X395768D02*
D03*
X411516D02*
D03*
X407579D02*
D03*
X403642D02*
D03*
X360335D02*
D03*
X490256D02*
D03*
X486319D02*
D03*
X458760D02*
D03*
X470571D02*
D03*
X482382D02*
D03*
X462697D02*
D03*
X478445D02*
D03*
X474508D02*
D03*
X466634D02*
D03*
X454823D02*
D03*
X450886D02*
D03*
X435138D02*
D03*
X415453D02*
D03*
X431201D02*
D03*
X423327D02*
D03*
X427264D02*
D03*
X439075D02*
D03*
D38*
X364272D02*
D03*
X419390D02*
D03*
D39*
X395536Y361857D02*
X396187Y362508D01*
X408500D01*
X395536Y337109D02*
X396910Y335735D01*
X395536Y337109D02*
Y361857D01*
X396910Y317575D02*
Y335735D01*
X405606Y268862D02*
X421079Y284335D01*
Y289425D01*
X382000Y308500D02*
X395192D01*
X396192Y307500D01*
X396679D01*
Y307510D02*
X397736Y306453D01*
X382000Y314500D02*
X382058Y314558D01*
X396910Y314327D02*
X411925D01*
X382058Y314558D02*
X396679D01*
X396910Y314327D01*
X397736Y306453D02*
X411925D01*
X383000Y277301D02*
X406311D01*
X415173Y286163D01*
X383000Y268862D02*
X405606D01*
X429500Y362500D02*
X431201Y364201D01*
Y378454D01*
X407000Y273500D02*
X419110Y285610D01*
Y289425D01*
X383000Y273500D02*
X407000D01*
X415173Y286163D02*
Y289425D01*
X437480Y324205D02*
Y325295D01*
X437820Y325635D01*
X434858Y321583D02*
X437480Y324205D01*
X434858Y317575D02*
Y321583D01*
X430921Y323555D02*
X432278Y324911D01*
X432890Y322669D02*
X434887Y324666D01*
X432278Y324911D02*
Y325168D01*
X434887Y324666D02*
Y326719D01*
X434934Y326766D01*
X430921Y317575D02*
Y323555D01*
X432890Y317575D02*
Y322669D01*
D40*
X397736Y353744D02*
X411516D01*
X470571Y352815D02*
X474508Y356752D01*
Y378454D01*
X519500Y317510D02*
Y346859D01*
X520892Y282892D02*
Y316118D01*
X508756Y270756D02*
X520892Y282892D01*
X519500Y317510D02*
X520892Y316118D01*
X460638Y365500D02*
X462500D01*
X458760Y367378D02*
X460638Y365500D01*
X458760Y367378D02*
Y378454D01*
X427000Y366335D02*
X427264Y366599D01*
Y378454D01*
X399500Y366335D02*
Y366500D01*
X399705Y366705D02*
Y378454D01*
X399500Y366500D02*
X399705Y366705D01*
X403642Y366335D02*
Y378454D01*
X490256Y353744D02*
X493000Y351000D01*
X490256Y353744D02*
Y378454D01*
X482343Y361539D02*
Y378415D01*
X483012Y326988D02*
X501925D01*
X484992Y350520D02*
X486319Y351847D01*
X482304Y361500D02*
X482343Y361539D01*
X478445Y351691D02*
Y378454D01*
X501437Y326500D02*
X501925Y326988D01*
X486319Y351847D02*
Y378454D01*
X482304Y350520D02*
X484992D01*
X482343Y378415D02*
X482382Y378454D01*
X426000Y340484D02*
X426984Y339500D01*
X426000Y340484D02*
Y341000D01*
X426984Y336272D02*
Y339500D01*
Y336272D02*
X427000Y336256D01*
X450886Y330744D02*
X452579D01*
X427000D02*
X450886D01*
X391831Y317500D02*
Y352466D01*
X393000Y353636D01*
Y353744D01*
X394256Y299000D02*
Y304410D01*
X393000Y305665D02*
X394256Y304410D01*
Y299000D02*
X394677Y298579D01*
X383957Y353744D02*
X393000D01*
X426000Y346859D02*
Y353744D01*
Y346859D02*
X433372Y339487D01*
X449889Y346296D02*
X454365D01*
X443081Y339487D02*
X449889Y346296D01*
X433372Y339487D02*
X443081D01*
X435719Y277301D02*
X437558D01*
X439290Y275569D01*
Y263204D02*
X439828Y262665D01*
Y242950D02*
Y262665D01*
Y242950D02*
X442778Y240000D01*
X439290Y263204D02*
Y275569D01*
X442778Y240000D02*
X497500D01*
X526500Y269000D02*
Y353744D01*
X497500Y240000D02*
X526500Y269000D01*
X466347Y270756D02*
X508756D01*
X454823Y356000D02*
Y378454D01*
Y350157D02*
Y356000D01*
X459877Y346296D02*
Y350847D01*
X466634Y356752D02*
Y378454D01*
Y356752D02*
X470571Y352815D01*
X459877Y346296D02*
X465362D01*
X466653Y325501D02*
X470571Y321583D01*
X461516Y316500D02*
X465362D01*
X454823Y332988D02*
X466165D01*
X466653Y325501D02*
Y332500D01*
X466165Y332988D02*
X466653Y332500D01*
X452579Y330744D02*
X454823Y332988D01*
X473347Y332500D02*
X477500D01*
X478445Y333445D02*
Y339500D01*
X477500Y332500D02*
X478445Y333445D01*
X477500Y332500D02*
X483012Y326988D01*
X479616Y350520D02*
X482304D01*
Y343359D02*
Y350520D01*
X478445Y339500D02*
X482304Y343359D01*
X478445Y351691D02*
X479616Y350520D01*
X493000Y351000D02*
X501772D01*
X508000Y344772D01*
Y323000D02*
Y344772D01*
X470571Y321583D02*
X506583D01*
X508000Y323000D01*
X501925Y326988D02*
X502319D01*
Y332500D02*
Y339500D01*
X494319Y332756D02*
Y339500D01*
X485319Y332756D02*
Y339500D01*
X461516Y311000D02*
Y316500D01*
X454166Y346495D02*
Y349500D01*
Y346495D02*
X454365Y346296D01*
X454166Y349500D02*
X454823Y350157D01*
X450500Y259500D02*
Y265244D01*
X443000Y259500D02*
Y265244D01*
X435719Y258500D02*
Y264462D01*
X428953Y258488D02*
Y263154D01*
X422000Y259500D02*
Y264744D01*
X384032Y299000D02*
X388744D01*
D41*
X326870Y390265D02*
D03*
X523721D02*
D03*
D42*
X332683Y384452D02*
D03*
X335091Y390265D02*
D03*
X332683Y396078D02*
D03*
X326870Y398486D02*
D03*
D03*
X321057Y396078D02*
D03*
X318649Y390265D02*
D03*
X321057Y384452D02*
D03*
X326870Y382045D02*
D03*
X529533Y384452D02*
D03*
X531941Y390265D02*
D03*
X529533Y396078D02*
D03*
X523721Y398486D02*
D03*
D03*
X517907Y396078D02*
D03*
X515500Y390265D02*
D03*
X517907Y384452D02*
D03*
X523721Y382045D02*
D03*
D43*
X397736Y353744D02*
D03*
X519500Y346859D02*
D03*
X426000Y341000D02*
D03*
X383000Y273500D02*
D03*
X437820Y325635D02*
D03*
X434934Y326766D02*
D03*
X485319Y339500D02*
D03*
X375000Y273500D02*
D03*
X382000Y314500D02*
D03*
X375500Y277500D02*
D03*
X383000Y268862D02*
D03*
X375000Y269000D02*
D03*
X451500Y313500D02*
D03*
X396679Y307500D02*
D03*
X465362Y316500D02*
D03*
X383000Y277301D02*
D03*
X494319Y339500D02*
D03*
X447000Y277301D02*
D03*
X465362Y346296D02*
D03*
X502319Y339500D02*
D03*
X383957Y353744D02*
D03*
X462500Y365500D02*
D03*
X375138Y314500D02*
D03*
X446500Y294642D02*
D03*
X391831Y317500D02*
D03*
X403642Y295500D02*
D03*
X435719Y277301D02*
D03*
X432278Y325168D02*
D03*
X393000Y353744D02*
D03*
X375499Y360000D02*
D03*
X439000Y344772D02*
D03*
X435138D02*
D03*
X369500Y350847D02*
D03*
X407500Y366500D02*
D03*
X451500Y321500D02*
D03*
X396910Y317575D02*
D03*
X382000Y308500D02*
D03*
X399500Y366335D02*
D03*
X443000Y344772D02*
D03*
X403642Y366335D02*
D03*
X375000Y308421D02*
D03*
X429500Y362500D02*
D03*
X426000Y353744D02*
D03*
X443000Y285500D02*
D03*
X411516Y353744D02*
D03*
X408500Y362508D02*
D03*
X393000Y305665D02*
D03*
X470571Y352815D02*
D03*
X526500Y353744D02*
D03*
X454823Y356000D02*
D03*
X427000Y366335D02*
D03*
X478500Y362500D02*
D03*
X423047Y279918D02*
D03*
X450500Y259500D02*
D03*
X482304Y361500D02*
D03*
X384032Y299000D02*
D03*
X422000Y259500D02*
D03*
X428953Y258488D02*
D03*
X435719Y258500D02*
D03*
X443000Y259500D02*
D03*
X459877Y350847D02*
D03*
X461516Y311000D02*
D03*
X432496Y297004D02*
D03*
X428165D02*
D03*
X423835D02*
D03*
X419504D02*
D03*
X432496Y301335D02*
D03*
X428165D02*
D03*
X423835D02*
D03*
X419504D02*
D03*
X432496Y305665D02*
D03*
X428165D02*
D03*
X423835D02*
D03*
X419504D02*
D03*
X432496Y309996D02*
D03*
X428165D02*
D03*
X423835D02*
D03*
X419504D02*
D03*
M02*
