G04*
G04 #@! TF.GenerationSoftware,Altium Limited,Altium Designer,22.7.1 (60)*
G04*
G04 Layer_Color=16711935*
%FSLAX25Y25*%
%MOIN*%
G70*
G04*
G04 #@! TF.SameCoordinates,AD343771-C5E9-4EEF-B234-C8D92CA984D8*
G04*
G04*
G04 #@! TF.FilePolarity,Positive*
G04*
G01*
G75*
%ADD13C,0.00394*%
%ADD45C,0.00397*%
D13*
X504850Y411883D02*
G03*
X502658Y409691I0J-2193D01*
G01*
X539890Y410309D02*
G03*
X538315Y411883I-1575J0D01*
G01*
X311150D02*
G03*
X308886Y409620I0J-2264D01*
G01*
X347933Y408565D02*
G03*
X344614Y411883I-3319J0D01*
G01*
X448720Y362903D02*
Y390265D01*
X441240Y362903D02*
Y390265D01*
X359744Y392234D02*
X439272D01*
X490846D02*
X492815Y390265D01*
X448720D02*
X450689Y392234D01*
X439272D02*
X441240Y390265D01*
X357776D02*
X359744Y392234D01*
X357776Y369610D02*
Y390265D01*
X492815Y369744D02*
Y390265D01*
X450689Y392234D02*
X490846D01*
X357776Y362840D02*
Y369610D01*
X347933Y362808D02*
Y369610D01*
X492815Y362502D02*
Y369744D01*
X502658Y362053D02*
Y409691D01*
X504850Y411883D02*
X538315D01*
X308886Y405454D02*
Y409620D01*
X347933Y369610D02*
Y408565D01*
X311150Y411883D02*
X344614D01*
D45*
X308886Y205500D02*
G03*
X313886Y200500I5000J0D01*
G01*
X534890D02*
G03*
X539890Y205500I0J5000D01*
G01*
X347933Y362808D02*
G03*
X350841Y359900I2908J0D01*
G01*
X354835D02*
G03*
X357776Y362840I0J2940D01*
G01*
X441240Y362903D02*
G03*
X444643Y359500I3403J0D01*
G01*
X445317D02*
G03*
X448720Y362903I0J3403D01*
G01*
X492815Y362502D02*
G03*
X496316Y359000I3501J0D01*
G01*
X499605D02*
G03*
X502658Y362053I0J3053D01*
G01*
X308886Y205500D02*
Y405454D01*
X313886Y200500D02*
X534890D01*
X539890Y205500D02*
Y410309D01*
X444643Y359500D02*
X445317D01*
X496316Y359000D02*
X499605D01*
X350841Y359900D02*
X354835D01*
M02*
