G04*
G04 #@! TF.GenerationSoftware,Altium Limited,Altium Designer,22.7.1 (60)*
G04*
G04 Layer_Physical_Order=2*
G04 Layer_Color=16711680*
%FSLAX25Y25*%
%MOIN*%
G70*
G04*
G04 #@! TF.SameCoordinates,AD343771-C5E9-4EEF-B234-C8D92CA984D8*
G04*
G04*
G04 #@! TF.FilePolarity,Positive*
G04*
G01*
G75*
%ADD14C,0.01200*%
%ADD15C,0.00800*%
%ADD37R,0.02756X0.16535*%
%ADD38R,0.02756X0.16535*%
%ADD39C,0.00600*%
%ADD40C,0.02000*%
%ADD41C,0.20866*%
%ADD42C,0.01400*%
%ADD43C,0.02400*%
G36*
X536864Y205500D02*
Y205306D01*
X536788Y204924D01*
X536639Y204565D01*
X536423Y204241D01*
X536148Y203967D01*
X535825Y203750D01*
X535466Y203602D01*
X535084Y203526D01*
X313691D01*
X313310Y203602D01*
X312951Y203750D01*
X312627Y203967D01*
X312352Y204242D01*
X312136Y204565D01*
X311987Y204924D01*
X311912Y205306D01*
Y205500D01*
Y408858D01*
X344643Y408858D01*
X344700Y408846D01*
X344753Y408824D01*
X344801Y408792D01*
X344842Y408751D01*
X344874Y408703D01*
X344896Y408650D01*
X344907Y408593D01*
X344907Y362808D01*
X344917Y362734D01*
X344911Y362660D01*
X344925Y362375D01*
X344965Y362155D01*
X344979Y361933D01*
X345091Y361374D01*
X345186Y361093D01*
X345263Y360806D01*
X345481Y360279D01*
X345629Y360022D01*
X345761Y359756D01*
X346077Y359282D01*
X346273Y359059D01*
X346454Y358824D01*
X346857Y358420D01*
X347092Y358240D01*
X347315Y358044D01*
X347789Y357728D01*
X348056Y357596D01*
X348312Y357448D01*
X348839Y357230D01*
X349126Y357153D01*
X349407Y357057D01*
X349966Y356946D01*
X350188Y356932D01*
X350408Y356892D01*
X350693Y356878D01*
X350767Y356884D01*
X350841Y356874D01*
X354835Y356874D01*
X354909Y356884D01*
X354984Y356878D01*
X355272Y356892D01*
X355491Y356932D01*
X355714Y356946D01*
X356279Y357059D01*
X356560Y357154D01*
X356847Y357231D01*
X357379Y357452D01*
X357636Y357600D01*
X357903Y357731D01*
X358382Y358051D01*
X358605Y358247D01*
X358840Y358428D01*
X359248Y358835D01*
X359429Y359071D01*
X359624Y359294D01*
X359944Y359773D01*
X360076Y360039D01*
X360224Y360296D01*
X360444Y360829D01*
X360521Y361115D01*
X360617Y361396D01*
X360729Y361962D01*
X360744Y362184D01*
X360784Y362403D01*
X360798Y362692D01*
X360792Y362766D01*
X360802Y362840D01*
Y369487D01*
X363150D01*
Y356075D01*
X363150Y356075D01*
X363235Y355646D01*
X363479Y355282D01*
X367600Y351160D01*
Y350468D01*
X367889Y349770D01*
X368424Y349236D01*
X369122Y348946D01*
X369878D01*
X370576Y349236D01*
X371111Y349770D01*
X371400Y350468D01*
Y351224D01*
X371111Y351923D01*
X370576Y352457D01*
X369878Y352747D01*
X369186D01*
X365393Y356539D01*
Y369487D01*
X373705D01*
Y369187D01*
X375583D01*
Y378454D01*
X376583D01*
Y369187D01*
X379520D01*
Y378454D01*
X380520D01*
Y369187D01*
X382223D01*
Y354524D01*
X382057Y354122D01*
Y353366D01*
X382346Y352668D01*
X382880Y352133D01*
X383579Y351844D01*
X384335D01*
X385033Y352133D01*
X385567Y352668D01*
X385857Y353366D01*
Y354122D01*
X385690Y354524D01*
Y369487D01*
X405201D01*
Y369187D01*
X407079D01*
Y378454D01*
X408079D01*
Y369187D01*
X409957D01*
Y369487D01*
X438214D01*
Y362903D01*
X438224Y362829D01*
X438218Y362755D01*
X438234Y362421D01*
X438274Y362202D01*
X438289Y361979D01*
X438419Y361325D01*
X438514Y361044D01*
X438591Y360757D01*
X438846Y360141D01*
X438995Y359884D01*
X439126Y359618D01*
X439497Y359063D01*
X439692Y358840D01*
X439873Y358605D01*
X440345Y358133D01*
X440580Y357952D01*
X440803Y357757D01*
X441358Y357386D01*
X441624Y357255D01*
X441881Y357106D01*
X442498Y356851D01*
X442784Y356774D01*
X443065Y356679D01*
X443719Y356549D01*
X443942Y356534D01*
X444161Y356494D01*
X444495Y356478D01*
X444569Y356484D01*
X444643Y356474D01*
X445317D01*
X445391Y356484D01*
X445466Y356478D01*
X445799Y356494D01*
X446019Y356534D01*
X446241Y356549D01*
X446896Y356679D01*
X447177Y356774D01*
X447463Y356851D01*
X448079Y357106D01*
X448337Y357255D01*
X448603Y357386D01*
X449157Y357757D01*
X449380Y357952D01*
X449616Y358133D01*
X450087Y358605D01*
X450268Y358840D01*
X450464Y359063D01*
X450835Y359618D01*
X450966Y359884D01*
X451114Y360141D01*
X451369Y360757D01*
X451446Y361044D01*
X451542Y361325D01*
X451672Y361979D01*
X451686Y362202D01*
X451726Y362421D01*
X451743Y362755D01*
X451736Y362829D01*
X451746Y362903D01*
Y369487D01*
X460319D01*
Y369187D01*
X462197D01*
Y378454D01*
X463197D01*
Y369187D01*
X465075D01*
Y369487D01*
X472775D01*
Y359733D01*
X469000D01*
X468337Y359601D01*
X467774Y359226D01*
X466282Y357733D01*
X455603D01*
X455201Y357900D01*
X454445D01*
X453747Y357611D01*
X453212Y357076D01*
X452923Y356378D01*
Y355622D01*
X453212Y354924D01*
X453747Y354389D01*
X454445Y354100D01*
X455201D01*
X455603Y354267D01*
X467000D01*
X467663Y354399D01*
X468226Y354774D01*
X469718Y356267D01*
X474282D01*
X480774Y349774D01*
X480774Y349774D01*
X480836Y349733D01*
X480684Y349233D01*
X476604D01*
X472348Y353489D01*
X472182Y353891D01*
X471647Y354426D01*
X470949Y354715D01*
X470193D01*
X469495Y354426D01*
X468960Y353891D01*
X468671Y353193D01*
Y352437D01*
X468960Y351739D01*
X469495Y351204D01*
X469897Y351038D01*
X474660Y346274D01*
X475222Y345899D01*
X475886Y345767D01*
X511582D01*
X511715Y345634D01*
X512277Y345258D01*
X512941Y345126D01*
X518720D01*
X519122Y344959D01*
X519878D01*
X520576Y345249D01*
X521111Y345783D01*
X521400Y346481D01*
Y347237D01*
X521111Y347936D01*
X520576Y348470D01*
X519878Y348759D01*
X519122D01*
X518720Y348593D01*
X513919D01*
X513777Y348767D01*
X514015Y349267D01*
X523756D01*
X524419Y349399D01*
X524982Y349774D01*
X527174Y351967D01*
X527576Y352133D01*
X528111Y352668D01*
X528400Y353366D01*
Y354122D01*
X528111Y354820D01*
X527576Y355355D01*
X526878Y355644D01*
X526122D01*
X525424Y355355D01*
X524889Y354820D01*
X524723Y354418D01*
X523038Y352733D01*
X482718D01*
X476241Y359210D01*
Y361682D01*
X476741Y361781D01*
X476889Y361424D01*
X477424Y360889D01*
X478122Y360600D01*
X478878D01*
X479576Y360889D01*
X480111Y361424D01*
X480277Y361826D01*
X483607Y365156D01*
X483983Y365719D01*
X484115Y366382D01*
Y369187D01*
X485819D01*
Y378454D01*
X486819D01*
Y369187D01*
X488697D01*
Y369187D01*
X489789D01*
Y362502D01*
X489799Y362427D01*
X489793Y362353D01*
X489810Y362010D01*
X489850Y361790D01*
X489864Y361568D01*
X489998Y360895D01*
X490094Y360614D01*
X490170Y360327D01*
X490433Y359693D01*
X490581Y359436D01*
X490713Y359170D01*
X491094Y358599D01*
X491290Y358376D01*
X491470Y358141D01*
X491956Y357655D01*
X492191Y357474D01*
X492414Y357279D01*
X492985Y356898D01*
X493251Y356766D01*
X493508Y356618D01*
X494142Y356355D01*
X494429Y356278D01*
X494710Y356183D01*
X495383Y356049D01*
X495606Y356035D01*
X495825Y355995D01*
X496168Y355978D01*
X496243Y355984D01*
X496316Y355974D01*
X499605Y355974D01*
X499679Y355984D01*
X499753Y355978D01*
X500052Y355993D01*
X500272Y356032D01*
X500494Y356047D01*
X501081Y356164D01*
X501362Y356259D01*
X501649Y356336D01*
X502202Y356565D01*
X502459Y356713D01*
X502725Y356845D01*
X503223Y357177D01*
X503446Y357373D01*
X503681Y357553D01*
X504104Y357977D01*
X504285Y358212D01*
X504481Y358435D01*
X504813Y358933D01*
X504944Y359199D01*
X505093Y359456D01*
X505322Y360009D01*
X505398Y360295D01*
X505494Y360576D01*
X505611Y361163D01*
X505625Y361386D01*
X505665Y361605D01*
X505680Y361904D01*
X505674Y361979D01*
X505683Y362053D01*
X505683Y408858D01*
X536864D01*
X536864Y205500D01*
D02*
G37*
%LPC*%
G36*
X524620Y401698D02*
X524221D01*
Y390765D01*
X535153D01*
Y391165D01*
X534872Y392943D01*
X534316Y394654D01*
X533499Y396258D01*
X532441Y397713D01*
X531169Y398986D01*
X529713Y400044D01*
X528109Y400861D01*
X526398Y401417D01*
X524620Y401698D01*
D02*
G37*
G36*
X523220D02*
X522821D01*
X521043Y401417D01*
X519332Y400861D01*
X517728Y400044D01*
X516272Y398986D01*
X515000Y397713D01*
X513942Y396258D01*
X513125Y394654D01*
X512569Y392943D01*
X512287Y391165D01*
Y390765D01*
X523220D01*
Y401698D01*
D02*
G37*
G36*
X327770D02*
X327370D01*
Y390765D01*
X338303D01*
Y391165D01*
X338022Y392943D01*
X337466Y394654D01*
X336649Y396258D01*
X335591Y397713D01*
X334318Y398986D01*
X332862Y400044D01*
X331259Y400861D01*
X329547Y401417D01*
X327770Y401698D01*
D02*
G37*
G36*
X326370D02*
X325970D01*
X324193Y401417D01*
X322481Y400861D01*
X320878Y400044D01*
X319422Y398986D01*
X318149Y397713D01*
X317092Y396258D01*
X316275Y394654D01*
X315719Y392943D01*
X315437Y391165D01*
Y390765D01*
X326370D01*
Y401698D01*
D02*
G37*
G36*
X535153Y389765D02*
X524221D01*
Y378832D01*
X524620D01*
X526398Y379114D01*
X528109Y379670D01*
X529713Y380487D01*
X531169Y381545D01*
X532441Y382817D01*
X533499Y384273D01*
X534316Y385877D01*
X534872Y387588D01*
X535153Y389366D01*
Y389765D01*
D02*
G37*
G36*
X523220D02*
X512287D01*
Y389366D01*
X512569Y387588D01*
X513125Y385877D01*
X513942Y384273D01*
X515000Y382817D01*
X516272Y381545D01*
X517728Y380487D01*
X519332Y379670D01*
X521043Y379114D01*
X522821Y378832D01*
X523220D01*
Y389765D01*
D02*
G37*
G36*
X338303D02*
X327370D01*
Y378832D01*
X327770D01*
X329547Y379114D01*
X331259Y379670D01*
X332862Y380487D01*
X334318Y381545D01*
X335591Y382817D01*
X336649Y384273D01*
X337466Y385877D01*
X338022Y387588D01*
X338303Y389366D01*
Y389765D01*
D02*
G37*
G36*
X326370D02*
X315437D01*
Y389366D01*
X315719Y387588D01*
X316275Y385877D01*
X317092Y384273D01*
X318149Y382817D01*
X319422Y381545D01*
X320878Y380487D01*
X322481Y379670D01*
X324193Y379114D01*
X325970Y378832D01*
X326370D01*
Y389765D01*
D02*
G37*
G36*
X408878Y364408D02*
X408122D01*
X407424Y364119D01*
X406889Y363584D01*
X406600Y362886D01*
Y362130D01*
X406889Y361432D01*
X407424Y360897D01*
X408122Y360608D01*
X408878D01*
X409576Y360897D01*
X410111Y361432D01*
X410134Y361488D01*
X427863D01*
X427889Y361424D01*
X428424Y360889D01*
X429122Y360600D01*
X429878D01*
X430576Y360889D01*
X431111Y361424D01*
X431400Y362122D01*
Y362878D01*
X431111Y363576D01*
X430576Y364111D01*
X429878Y364400D01*
X429122D01*
X428424Y364111D01*
X427889Y363576D01*
X427869Y363527D01*
X410134D01*
X410111Y363584D01*
X409576Y364119D01*
X408878Y364408D01*
D02*
G37*
G36*
X426378Y355644D02*
X425622D01*
X425220Y355477D01*
X412296D01*
X411894Y355644D01*
X411138D01*
X410440Y355355D01*
X409905Y354820D01*
X409616Y354122D01*
Y353366D01*
X409905Y352668D01*
X410440Y352133D01*
X411138Y351844D01*
X411894D01*
X412296Y352011D01*
X425220D01*
X425622Y351844D01*
X426378D01*
X427076Y352133D01*
X427611Y352668D01*
X427900Y353366D01*
Y354122D01*
X427611Y354820D01*
X427076Y355355D01*
X426378Y355644D01*
D02*
G37*
G36*
X398114D02*
X397358D01*
X396956Y355477D01*
X393780D01*
X393378Y355644D01*
X392622D01*
X391924Y355355D01*
X391389Y354820D01*
X391100Y354122D01*
Y353366D01*
X391389Y352668D01*
X391924Y352133D01*
X392622Y351844D01*
X393378D01*
X393780Y352011D01*
X396956D01*
X397358Y351844D01*
X398114D01*
X398812Y352133D01*
X399347Y352668D01*
X399636Y353366D01*
Y354122D01*
X399347Y354820D01*
X398812Y355355D01*
X398114Y355644D01*
D02*
G37*
G36*
X443378Y346672D02*
X442622D01*
X441924Y346382D01*
X441389Y345848D01*
X441271Y345561D01*
X440729D01*
X440611Y345848D01*
X440076Y346382D01*
X439378Y346672D01*
X438622D01*
X437924Y346382D01*
X437389Y345848D01*
X437339Y345728D01*
X436798D01*
X436749Y345848D01*
X436214Y346382D01*
X435516Y346672D01*
X434760D01*
X434062Y346382D01*
X433527Y345848D01*
X433238Y345149D01*
Y344394D01*
X433527Y343695D01*
X434062Y343161D01*
X434118Y343137D01*
Y331655D01*
X431557Y329094D01*
X431336Y328763D01*
X431258Y328373D01*
Y326802D01*
X431202Y326779D01*
X430667Y326244D01*
X430378Y325546D01*
Y324790D01*
X430667Y324092D01*
X431202Y323557D01*
X431900Y323268D01*
X432656D01*
X433354Y323557D01*
X433889Y324092D01*
X434069Y324527D01*
X434556Y324866D01*
X435312D01*
X435970Y325138D01*
X436210Y324559D01*
X436744Y324024D01*
X437442Y323735D01*
X438198D01*
X438897Y324024D01*
X439431Y324559D01*
X439720Y325257D01*
Y326013D01*
X439697Y326070D01*
X443721Y330094D01*
X443942Y330424D01*
X444020Y330815D01*
Y343137D01*
X444076Y343161D01*
X444611Y343695D01*
X444900Y344394D01*
Y345149D01*
X444611Y345848D01*
X444076Y346382D01*
X443378Y346672D01*
D02*
G37*
G36*
X397288Y319475D02*
X396533D01*
X395834Y319186D01*
X395300Y318651D01*
X395010Y317953D01*
Y317392D01*
X395010Y317282D01*
X394762Y317130D01*
X394549Y317073D01*
X394467Y317195D01*
X394226Y317556D01*
X393608Y318174D01*
X393441Y318576D01*
X392907Y319111D01*
X392209Y319400D01*
X391453D01*
X390754Y319111D01*
X390220Y318576D01*
X389931Y317878D01*
Y317122D01*
X390220Y316424D01*
X390754Y315889D01*
X391157Y315723D01*
X391267Y315613D01*
Y306446D01*
X391100Y306043D01*
Y305287D01*
X391389Y304589D01*
X391924Y304055D01*
X392622Y303765D01*
X393378D01*
X394076Y304055D01*
X394611Y304589D01*
X394900Y305287D01*
Y305885D01*
X395366Y306126D01*
X395603Y305889D01*
X396301Y305600D01*
X397057D01*
X397755Y305889D01*
X398290Y306424D01*
X398579Y307122D01*
Y307878D01*
X398290Y308576D01*
X397814Y309052D01*
Y315893D01*
X397987Y315964D01*
X398521Y316498D01*
X398810Y317197D01*
Y317953D01*
X398521Y318651D01*
X397987Y319186D01*
X397288Y319475D01*
D02*
G37*
G36*
X382378Y316400D02*
X381622D01*
X380924Y316111D01*
X380389Y315576D01*
X380366Y315520D01*
X376772D01*
X376748Y315576D01*
X376214Y316111D01*
X375516Y316400D01*
X374760D01*
X374061Y316111D01*
X373527Y315576D01*
X373238Y314878D01*
Y314122D01*
X373527Y313424D01*
X374061Y312889D01*
X374760Y312600D01*
X375516D01*
X376214Y312889D01*
X376748Y313424D01*
X376772Y313480D01*
X380366D01*
X380389Y313424D01*
X380924Y312889D01*
X381622Y312600D01*
X382378D01*
X383076Y312889D01*
X383611Y313424D01*
X383900Y314122D01*
Y314878D01*
X383611Y315576D01*
X383076Y316111D01*
X382378Y316400D01*
D02*
G37*
G36*
X451878Y323400D02*
X451122D01*
X450424Y323111D01*
X449889Y322576D01*
X449600Y321878D01*
Y321122D01*
X449889Y320424D01*
X450175Y320139D01*
Y314861D01*
X449889Y314576D01*
X449600Y313878D01*
Y313122D01*
X449889Y312424D01*
X450424Y311889D01*
X451122Y311600D01*
X451878D01*
X452576Y311889D01*
X453111Y312424D01*
X453400Y313122D01*
Y313878D01*
X453111Y314576D01*
X452825Y314861D01*
Y320139D01*
X453111Y320424D01*
X453400Y321122D01*
Y321878D01*
X453111Y322576D01*
X452576Y323111D01*
X451878Y323400D01*
D02*
G37*
G36*
X382378Y310400D02*
X381622D01*
X380924Y310111D01*
X380389Y309576D01*
X380349Y309480D01*
X376618D01*
X376611Y309497D01*
X376076Y310032D01*
X375378Y310321D01*
X374622D01*
X373924Y310032D01*
X373389Y309497D01*
X373100Y308799D01*
Y308043D01*
X373389Y307345D01*
X373924Y306810D01*
X374622Y306521D01*
X375378D01*
X376076Y306810D01*
X376611Y307345D01*
X376651Y307441D01*
X380382D01*
X380389Y307424D01*
X380924Y306889D01*
X381622Y306600D01*
X382378D01*
X383076Y306889D01*
X383611Y307424D01*
X383900Y308122D01*
Y308878D01*
X383611Y309576D01*
X383076Y310111D01*
X382378Y310400D01*
D02*
G37*
G36*
X438000Y294826D02*
X423835D01*
X423327Y294725D01*
X422897Y294437D01*
X422110Y293650D01*
X421823Y293220D01*
X421722Y292713D01*
Y281280D01*
X421437Y280995D01*
X421147Y280296D01*
Y279540D01*
X421437Y278842D01*
X421971Y278308D01*
X422669Y278018D01*
X423425D01*
X424123Y278308D01*
X424658Y278842D01*
X424947Y279540D01*
Y280296D01*
X424658Y280995D01*
X424373Y281280D01*
Y292164D01*
X424384Y292175D01*
X437451D01*
X439175Y290451D01*
Y288000D01*
X439275Y287493D01*
X439563Y287063D01*
X441100Y285525D01*
Y285122D01*
X441389Y284424D01*
X441924Y283889D01*
X442622Y283600D01*
X443378D01*
X444076Y283889D01*
X444611Y284424D01*
X444900Y285122D01*
Y285878D01*
X444611Y286576D01*
X444076Y287111D01*
X443378Y287400D01*
X442975D01*
X441825Y288549D01*
Y291000D01*
X441725Y291507D01*
X441437Y291937D01*
X438937Y294437D01*
X438507Y294725D01*
X438000Y294826D01*
D02*
G37*
G36*
X447378Y279201D02*
X446622D01*
X445924Y278911D01*
X445639Y278626D01*
X437081D01*
X436796Y278911D01*
X436097Y279201D01*
X435342D01*
X434643Y278911D01*
X434109Y278377D01*
X433819Y277679D01*
Y276923D01*
X434109Y276224D01*
X434643Y275690D01*
X435342Y275401D01*
X436097D01*
X436796Y275690D01*
X437081Y275975D01*
X445639D01*
X445924Y275690D01*
X446622Y275401D01*
X447378D01*
X448076Y275690D01*
X448611Y276224D01*
X448900Y276923D01*
Y277679D01*
X448611Y278377D01*
X448076Y278911D01*
X447378Y279201D01*
D02*
G37*
G36*
X375878Y279400D02*
X375122D01*
X374424Y279111D01*
X373889Y278576D01*
X373600Y277878D01*
Y277122D01*
X373889Y276424D01*
X374424Y275889D01*
X374490Y275862D01*
X374460Y275333D01*
X373924Y275111D01*
X373389Y274576D01*
X373100Y273878D01*
Y273122D01*
X373389Y272424D01*
X373924Y271889D01*
X374622Y271600D01*
X375378D01*
X376076Y271889D01*
X376611Y272424D01*
X376634Y272480D01*
X381366D01*
X381389Y272424D01*
X381924Y271889D01*
X382622Y271600D01*
X383378D01*
X384076Y271889D01*
X384611Y272424D01*
X384900Y273122D01*
Y273878D01*
X384611Y274576D01*
X384076Y275111D01*
X384030Y275130D01*
Y275671D01*
X384076Y275690D01*
X384611Y276224D01*
X384900Y276923D01*
Y277679D01*
X384611Y278377D01*
X384076Y278911D01*
X383378Y279201D01*
X382622D01*
X381924Y278911D01*
X381389Y278377D01*
X381366Y278320D01*
X377217D01*
X377111Y278576D01*
X376576Y279111D01*
X375878Y279400D01*
D02*
G37*
G36*
X375378Y270900D02*
X374622D01*
X373924Y270611D01*
X373389Y270076D01*
X373100Y269378D01*
Y268622D01*
X373389Y267924D01*
X373924Y267389D01*
X374622Y267100D01*
X375378D01*
X376076Y267389D01*
X376530Y267843D01*
X381366D01*
X381389Y267786D01*
X381924Y267251D01*
X382622Y266962D01*
X383378D01*
X384076Y267251D01*
X384611Y267786D01*
X384900Y268484D01*
Y269240D01*
X384611Y269938D01*
X384076Y270473D01*
X383378Y270762D01*
X382622D01*
X381924Y270473D01*
X381389Y269938D01*
X381366Y269882D01*
X376691D01*
X376611Y270076D01*
X376076Y270611D01*
X375378Y270900D01*
D02*
G37*
%LPD*%
D14*
X440500Y288000D02*
Y291000D01*
X438000Y293500D02*
X440500Y291000D01*
X423835Y293500D02*
X438000D01*
X451500Y313500D02*
Y321500D01*
X440500Y288000D02*
X443000Y285500D01*
X423047Y279918D02*
Y292713D01*
X423835Y293500D01*
X435719Y277301D02*
X447000D01*
D15*
X364272Y356075D02*
X369500Y350847D01*
X364272Y356075D02*
Y378454D01*
D37*
X391831D02*
D03*
X399705D02*
D03*
X411516D02*
D03*
X360335D02*
D03*
X372146D02*
D03*
X383957D02*
D03*
X380020D02*
D03*
X364272D02*
D03*
X376083D02*
D03*
X403642D02*
D03*
X395768D02*
D03*
X368209D02*
D03*
X407579D02*
D03*
X387894D02*
D03*
X419390D02*
D03*
X458760D02*
D03*
X423327D02*
D03*
X435138D02*
D03*
X486319D02*
D03*
X478445D02*
D03*
X450886D02*
D03*
X462697D02*
D03*
X439075D02*
D03*
X427264D02*
D03*
X470571D02*
D03*
X466634D02*
D03*
X454823D02*
D03*
X482382D02*
D03*
X474508D02*
D03*
X431201D02*
D03*
X415453D02*
D03*
D38*
X490256D02*
D03*
D39*
X439000Y330832D02*
Y344772D01*
X434934Y326766D02*
X439000Y330832D01*
X435138Y331233D02*
Y344772D01*
X432278Y328373D02*
X435138Y331233D01*
X432278Y325168D02*
Y328373D01*
X437820Y325635D02*
X443000Y330815D01*
Y344772D01*
X396795Y317459D02*
X396910Y317575D01*
X396679Y307500D02*
X396795Y307616D01*
Y317459D01*
X429492Y362508D02*
X429500Y362500D01*
X408500Y362508D02*
X429492D01*
X375039Y308461D02*
X381961D01*
X375000Y308421D02*
X375039Y308461D01*
X381961D02*
X382000Y308500D01*
X375138Y314500D02*
X382000D01*
X375499Y273501D02*
X375500Y273500D01*
X375002Y273501D02*
X375499D01*
X375000Y273500D02*
X375002Y273501D01*
X375500Y273500D02*
X383000D01*
X375000Y269000D02*
X375138Y268862D01*
X383000D01*
X375699Y277301D02*
X383000D01*
X375500Y277500D02*
X375699Y277301D01*
D40*
X393000Y353744D02*
X397736D01*
X512941Y346859D02*
X519500D01*
X512300Y347500D02*
X512941Y346859D01*
X475000Y358000D02*
X482000Y351000D01*
X523756D01*
X526500Y353744D01*
X475886Y347500D02*
X512300D01*
X470571Y352815D02*
X475886Y347500D01*
X469000Y358000D02*
X475000D01*
X474508Y358492D02*
Y378454D01*
Y358492D02*
X475000Y358000D01*
X489084Y364689D02*
X490256Y365861D01*
Y378454D01*
X486319Y364689D02*
X489084D01*
X485493D02*
X486319D01*
X482304Y361500D02*
X485493Y364689D01*
X478500Y362500D02*
X482382Y366382D01*
Y378454D01*
X486319Y364689D02*
Y378454D01*
X462697Y365697D02*
Y378454D01*
X462500Y365500D02*
X462697Y365697D01*
X407579Y366579D02*
Y378454D01*
X407500Y366500D02*
X407579Y366579D01*
X375499Y360000D02*
X378500D01*
X380020Y361520D01*
Y378454D01*
X376083Y360584D02*
Y378454D01*
X375499Y360000D02*
X376083Y360584D01*
X393000Y305665D02*
Y316331D01*
X391831Y317500D02*
X393000Y316331D01*
X383957Y353744D02*
Y378454D01*
X411516Y353744D02*
X426000D01*
X454823Y356000D02*
X467000D01*
X469000Y358000D01*
D41*
X326870Y390265D02*
D03*
X523721D02*
D03*
D42*
X332683Y384452D02*
D03*
X335091Y390265D02*
D03*
X332683Y396078D02*
D03*
X326870Y398486D02*
D03*
D03*
X321057Y396078D02*
D03*
X318649Y390265D02*
D03*
X321057Y384452D02*
D03*
X326870Y382045D02*
D03*
X529533Y384452D02*
D03*
X531941Y390265D02*
D03*
X529533Y396078D02*
D03*
X523721Y398486D02*
D03*
D03*
X517907Y396078D02*
D03*
X515500Y390265D02*
D03*
X517907Y384452D02*
D03*
X523721Y382045D02*
D03*
D43*
X397736Y353744D02*
D03*
X519500Y346859D02*
D03*
X426000Y341000D02*
D03*
X383000Y273500D02*
D03*
X437820Y325635D02*
D03*
X434934Y326766D02*
D03*
X485319Y339500D02*
D03*
X375000Y273500D02*
D03*
X382000Y314500D02*
D03*
X375500Y277500D02*
D03*
X383000Y268862D02*
D03*
X375000Y269000D02*
D03*
X451500Y313500D02*
D03*
X396679Y307500D02*
D03*
X465362Y316500D02*
D03*
X383000Y277301D02*
D03*
X494319Y339500D02*
D03*
X447000Y277301D02*
D03*
X465362Y346296D02*
D03*
X502319Y339500D02*
D03*
X383957Y353744D02*
D03*
X462500Y365500D02*
D03*
X375138Y314500D02*
D03*
X446500Y294642D02*
D03*
X391831Y317500D02*
D03*
X403642Y295500D02*
D03*
X435719Y277301D02*
D03*
X432278Y325168D02*
D03*
X393000Y353744D02*
D03*
X375499Y360000D02*
D03*
X439000Y344772D02*
D03*
X435138D02*
D03*
X369500Y350847D02*
D03*
X407500Y366500D02*
D03*
X451500Y321500D02*
D03*
X396910Y317575D02*
D03*
X382000Y308500D02*
D03*
X399500Y366335D02*
D03*
X443000Y344772D02*
D03*
X403642Y366335D02*
D03*
X375000Y308421D02*
D03*
X429500Y362500D02*
D03*
X426000Y353744D02*
D03*
X443000Y285500D02*
D03*
X411516Y353744D02*
D03*
X408500Y362508D02*
D03*
X393000Y305665D02*
D03*
X470571Y352815D02*
D03*
X526500Y353744D02*
D03*
X454823Y356000D02*
D03*
X427000Y366335D02*
D03*
X478500Y362500D02*
D03*
X423047Y279918D02*
D03*
X450500Y259500D02*
D03*
X482304Y361500D02*
D03*
X384032Y299000D02*
D03*
X422000Y259500D02*
D03*
X428953Y258488D02*
D03*
X435719Y258500D02*
D03*
X443000Y259500D02*
D03*
X459877Y350847D02*
D03*
X461516Y311000D02*
D03*
X432496Y297004D02*
D03*
X428165D02*
D03*
X423835D02*
D03*
X419504D02*
D03*
X432496Y301335D02*
D03*
X428165D02*
D03*
X423835D02*
D03*
X419504D02*
D03*
X432496Y305665D02*
D03*
X428165D02*
D03*
X423835D02*
D03*
X419504D02*
D03*
X432496Y309996D02*
D03*
X428165D02*
D03*
X423835D02*
D03*
X419504D02*
D03*
M02*
