G04*
G04 #@! TF.GenerationSoftware,Altium Limited,Altium Designer,21.6.4 (81)*
G04*
G04 Layer_Color=16711935*
%FSLAX25Y25*%
%MOIN*%
G70*
G04*
G04 #@! TF.SameCoordinates,808F42E2-5A5A-467D-BEA3-29F7E434B1D4*
G04*
G04*
G04 #@! TF.FilePolarity,Negative*
G04*
G01*
G75*
%ADD18C,0.01200*%
%ADD35C,0.25800*%
%ADD36O,0.11800X0.06800*%
%ADD37R,0.11800X0.06800*%
%ADD38O,0.06800X0.11800*%
%ADD39R,0.06800X0.11800*%
%ADD40C,0.03753*%
G04:AMPARAMS|DCode=41|XSize=47.37mil|YSize=70.99mil|CornerRadius=23.68mil|HoleSize=0mil|Usage=FLASHONLY|Rotation=0.000|XOffset=0mil|YOffset=0mil|HoleType=Round|Shape=RoundedRectangle|*
%AMROUNDEDRECTD41*
21,1,0.04737,0.02362,0,0,0.0*
21,1,0.00000,0.07099,0,0,0.0*
1,1,0.04737,0.00000,-0.01181*
1,1,0.04737,0.00000,-0.01181*
1,1,0.04737,0.00000,0.01181*
1,1,0.04737,0.00000,0.01181*
%
%ADD41ROUNDEDRECTD41*%
D18*
X0Y0D02*
Y254000D01*
X205500D01*
Y0D02*
Y254000D01*
X0Y0D02*
X205500D01*
D35*
X178000Y238000D02*
D03*
X28000D02*
D03*
X98000Y38000D02*
D03*
D36*
X198000Y28000D02*
D03*
Y38000D02*
D03*
Y48000D02*
D03*
Y58000D02*
D03*
Y68000D02*
D03*
Y78000D02*
D03*
Y88000D02*
D03*
Y98000D02*
D03*
Y108000D02*
D03*
Y118000D02*
D03*
Y128000D02*
D03*
Y138000D02*
D03*
Y148000D02*
D03*
Y158000D02*
D03*
Y168000D02*
D03*
Y178000D02*
D03*
Y188000D02*
D03*
Y198000D02*
D03*
Y208000D02*
D03*
X8000Y28000D02*
D03*
Y38000D02*
D03*
Y48000D02*
D03*
Y58000D02*
D03*
Y68000D02*
D03*
Y78000D02*
D03*
Y88000D02*
D03*
Y98000D02*
D03*
Y108000D02*
D03*
Y118000D02*
D03*
Y128000D02*
D03*
Y138000D02*
D03*
Y148000D02*
D03*
Y158000D02*
D03*
Y168000D02*
D03*
Y178000D02*
D03*
Y188000D02*
D03*
Y198000D02*
D03*
Y208000D02*
D03*
D37*
X198000Y218000D02*
D03*
X8000D02*
D03*
D38*
X198000Y8000D02*
D03*
X188000D02*
D03*
X178000D02*
D03*
X168000D02*
D03*
X158000D02*
D03*
X148000D02*
D03*
X138000D02*
D03*
X128000D02*
D03*
X118000D02*
D03*
X108000D02*
D03*
X98000D02*
D03*
X88000D02*
D03*
X78000D02*
D03*
X68000D02*
D03*
X58000D02*
D03*
X48000D02*
D03*
X38000D02*
D03*
X28000D02*
D03*
X18000D02*
D03*
D39*
X8000D02*
D03*
D40*
X112882Y86500D02*
D03*
X115441Y82563D02*
D03*
X118000Y86500D02*
D03*
X123118D02*
D03*
X120559Y82563D02*
D03*
D41*
X103925Y85634D02*
D03*
X132075D02*
D03*
M02*
