G04*
G04 #@! TF.GenerationSoftware,Altium Limited,Altium Designer,21.6.4 (81)*
G04*
G04 Layer_Physical_Order=2*
G04 Layer_Color=16711680*
%FSLAX25Y25*%
%MOIN*%
G70*
G04*
G04 #@! TF.SameCoordinates,808F42E2-5A5A-467D-BEA3-29F7E434B1D4*
G04*
G04*
G04 #@! TF.FilePolarity,Positive*
G04*
G01*
G75*
%ADD16C,0.01000*%
%ADD18C,0.01200*%
%ADD47C,0.25000*%
%ADD48O,0.11000X0.06000*%
%ADD49R,0.11000X0.06000*%
%ADD50O,0.06000X0.11000*%
%ADD51R,0.06000X0.11000*%
%ADD52C,0.02953*%
G04:AMPARAMS|DCode=53|XSize=39.37mil|YSize=62.99mil|CornerRadius=19.68mil|HoleSize=0mil|Usage=FLASHONLY|Rotation=0.000|XOffset=0mil|YOffset=0mil|HoleType=Round|Shape=RoundedRectangle|*
%AMROUNDEDRECTD53*
21,1,0.03937,0.02362,0,0,0.0*
21,1,0.00000,0.06299,0,0,0.0*
1,1,0.03937,0.00000,-0.01181*
1,1,0.03937,0.00000,-0.01181*
1,1,0.03937,0.00000,0.01181*
1,1,0.03937,0.00000,0.01181*
%
%ADD53ROUNDEDRECTD53*%
%ADD54C,0.02400*%
%ADD55C,0.05000*%
G36*
X201466Y222000D02*
X198500D01*
Y218000D01*
Y214000D01*
X201466D01*
Y212362D01*
X201014Y211967D01*
X200500Y212035D01*
X195500D01*
X194456Y211897D01*
X193483Y211494D01*
X192647Y210853D01*
X192006Y210017D01*
X191603Y209044D01*
X191465Y208000D01*
X191603Y206956D01*
X192006Y205983D01*
X192647Y205147D01*
X193483Y204506D01*
X194456Y204103D01*
X195500Y203965D01*
X200500D01*
X201014Y204033D01*
X201466Y203638D01*
Y202362D01*
X201014Y201967D01*
X200500Y202034D01*
X195500D01*
X194456Y201897D01*
X193483Y201494D01*
X192647Y200853D01*
X192006Y200017D01*
X191603Y199044D01*
X191465Y198000D01*
X191603Y196956D01*
X192006Y195983D01*
X192647Y195147D01*
X193483Y194506D01*
X194456Y194103D01*
X195500Y193965D01*
X200500D01*
X201014Y194033D01*
X201466Y193638D01*
Y192362D01*
X201014Y191967D01*
X200500Y192034D01*
X198500D01*
Y188000D01*
Y183966D01*
X200500D01*
X201014Y184033D01*
X201466Y183638D01*
Y182362D01*
X201014Y181967D01*
X200500Y182035D01*
X195500D01*
X194456Y181897D01*
X193483Y181494D01*
X192647Y180853D01*
X192006Y180017D01*
X191603Y179044D01*
X191465Y178000D01*
X191603Y176956D01*
X192006Y175983D01*
X192647Y175147D01*
X193483Y174506D01*
X194456Y174103D01*
X195500Y173966D01*
X200500D01*
X201014Y174033D01*
X201466Y173638D01*
Y172362D01*
X201014Y171967D01*
X200500Y172035D01*
X195500D01*
X194456Y171897D01*
X193483Y171494D01*
X192647Y170853D01*
X192006Y170017D01*
X191603Y169044D01*
X191465Y168000D01*
X191603Y166956D01*
X192006Y165983D01*
X192647Y165147D01*
X193483Y164506D01*
X194456Y164103D01*
X195500Y163965D01*
X200500D01*
X201014Y164033D01*
X201466Y163638D01*
Y162362D01*
X201014Y161967D01*
X200500Y162034D01*
X198500D01*
Y158000D01*
Y153965D01*
X200500D01*
X201014Y154033D01*
X201466Y153638D01*
Y152362D01*
X201014Y151967D01*
X200500Y152034D01*
X195500D01*
X194456Y151897D01*
X194189Y151787D01*
X189027Y151530D01*
X188200D01*
X187286Y151410D01*
X186435Y151057D01*
X185704Y150496D01*
X179204Y143996D01*
X178643Y143265D01*
X178290Y142414D01*
X178170Y141500D01*
Y99658D01*
X178147Y99025D01*
X178050Y98146D01*
X177888Y97299D01*
X177663Y96481D01*
X177373Y95692D01*
X177020Y94930D01*
X176601Y94192D01*
X176116Y93479D01*
X175564Y92789D01*
X175132Y92325D01*
X162754Y79946D01*
X162193Y79215D01*
X161840Y78364D01*
X161720Y77450D01*
X161840Y76536D01*
X162193Y75685D01*
X162754Y74954D01*
X163485Y74393D01*
X164336Y74040D01*
X165250Y73920D01*
X166164Y74040D01*
X167015Y74393D01*
X167746Y74954D01*
X179016Y86224D01*
X179507Y86666D01*
X180102Y87082D01*
X180663Y87363D01*
X181192Y87521D01*
X181700Y87572D01*
X182208Y87521D01*
X182737Y87362D01*
X183298Y87082D01*
X183893Y86666D01*
X184383Y86224D01*
X185104Y85504D01*
X185835Y84943D01*
X186686Y84590D01*
X187600Y84470D01*
X189430D01*
X192672Y84413D01*
X193540Y84351D01*
X193804Y84317D01*
X193934Y84292D01*
X194011Y84265D01*
X194094Y84253D01*
X194456Y84103D01*
X195500Y83965D01*
X200500D01*
X201014Y84033D01*
X201466Y83638D01*
Y82362D01*
X201014Y81967D01*
X200500Y82034D01*
X195500D01*
X194456Y81897D01*
X193483Y81494D01*
X192647Y80853D01*
X192006Y80017D01*
X191603Y79044D01*
X191465Y78000D01*
X191603Y76956D01*
X192006Y75983D01*
X192647Y75147D01*
X193483Y74506D01*
X194456Y74103D01*
X195500Y73966D01*
X200500D01*
X201014Y74033D01*
X201466Y73638D01*
Y72362D01*
X201014Y71967D01*
X200500Y72035D01*
X198500D01*
Y68000D01*
Y63965D01*
X200500D01*
X201014Y64033D01*
X201466Y63638D01*
Y62362D01*
X201014Y61967D01*
X200500Y62034D01*
X198500D01*
Y58000D01*
Y53966D01*
X200500D01*
X201014Y54033D01*
X201466Y53638D01*
Y52362D01*
X201014Y51967D01*
X200500Y52034D01*
X195500D01*
X194456Y51897D01*
X193483Y51494D01*
X192647Y50853D01*
X192006Y50017D01*
X191804Y49531D01*
X191789Y49529D01*
X174634D01*
X157529Y66633D01*
Y82566D01*
X169081Y94119D01*
X169413Y94615D01*
X169529Y95200D01*
Y160723D01*
X169533Y160744D01*
X169539Y160774D01*
X169543Y160785D01*
X169586Y160814D01*
X170072Y161542D01*
X170243Y162400D01*
X170072Y163258D01*
X169586Y163986D01*
X168858Y164472D01*
X168000Y164643D01*
X167142Y164472D01*
X166414Y163986D01*
X165928Y163258D01*
X165757Y162400D01*
X165790Y162234D01*
X165366Y161810D01*
X165200Y161843D01*
X164342Y161672D01*
X163614Y161186D01*
X163128Y160458D01*
X162957Y159600D01*
X162990Y159434D01*
X162566Y159010D01*
X162400Y159043D01*
X161542Y158872D01*
X160814Y158386D01*
X160328Y157658D01*
X160157Y156800D01*
X160190Y156634D01*
X159766Y156210D01*
X159600Y156243D01*
X158742Y156072D01*
X158014Y155586D01*
X157528Y154858D01*
X157357Y154000D01*
X157390Y153834D01*
X156966Y153410D01*
X156800Y153443D01*
X155942Y153272D01*
X155214Y152786D01*
X154728Y152058D01*
X154557Y151200D01*
X154581Y151078D01*
X154157Y150654D01*
X153947Y150696D01*
X153089Y150525D01*
X152361Y150039D01*
X151875Y149311D01*
X151704Y148453D01*
X151746Y148243D01*
X151322Y147819D01*
X151200Y147843D01*
X150342Y147672D01*
X149614Y147186D01*
X149128Y146458D01*
X148957Y145600D01*
X148990Y145434D01*
X148566Y145010D01*
X148400Y145043D01*
X147542Y144872D01*
X146814Y144386D01*
X146328Y143658D01*
X146157Y142800D01*
X146190Y142634D01*
X145766Y142210D01*
X145600Y142243D01*
X144742Y142072D01*
X144014Y141586D01*
X143528Y140858D01*
X143357Y140000D01*
X143390Y139834D01*
X142966Y139410D01*
X142800Y139443D01*
X141942Y139272D01*
X141214Y138786D01*
X140728Y138058D01*
X140557Y137200D01*
X140590Y137034D01*
X140166Y136610D01*
X140000Y136643D01*
X139142Y136472D01*
X138414Y135986D01*
X137928Y135258D01*
X137757Y134400D01*
X137928Y133542D01*
X138414Y132814D01*
X138457Y132785D01*
X138461Y132774D01*
X138467Y132744D01*
X138471Y132723D01*
Y126634D01*
X134919Y123081D01*
X134587Y122585D01*
X134471Y122000D01*
Y89475D01*
X133871Y89179D01*
X133572Y89408D01*
X132850Y89707D01*
X132075Y89809D01*
X131300Y89707D01*
X130578Y89408D01*
X129958Y88932D01*
X129482Y88312D01*
X129183Y87590D01*
X129081Y86815D01*
Y84453D01*
X129183Y83678D01*
X129482Y82956D01*
X129958Y82336D01*
X130578Y81860D01*
X131300Y81561D01*
X132075Y81459D01*
X132850Y81561D01*
X133572Y81860D01*
X133871Y82089D01*
X134471Y81793D01*
Y42634D01*
X126919Y35081D01*
X126587Y34585D01*
X126471Y34000D01*
Y14211D01*
X126469Y14196D01*
X125983Y13994D01*
X125147Y13353D01*
X124506Y12517D01*
X124103Y11544D01*
X123966Y10500D01*
Y5500D01*
X124079Y4634D01*
X123706Y4034D01*
X122294D01*
X121921Y4634D01*
X122035Y5500D01*
Y10500D01*
X121897Y11544D01*
X121494Y12517D01*
X120853Y13353D01*
X120017Y13994D01*
X119044Y14397D01*
X118000Y14535D01*
X116956Y14397D01*
X115983Y13994D01*
X115147Y13353D01*
X114506Y12517D01*
X114103Y11544D01*
X113965Y10500D01*
Y5500D01*
X114079Y4634D01*
X113706Y4034D01*
X112294D01*
X111921Y4634D01*
X112034Y5500D01*
Y7500D01*
X108000D01*
X103965D01*
Y5500D01*
X104079Y4634D01*
X103706Y4034D01*
X102294D01*
X101921Y4634D01*
X102034Y5500D01*
Y7500D01*
X98000D01*
X93966D01*
Y5500D01*
X94079Y4634D01*
X93706Y4034D01*
X92294D01*
X91921Y4634D01*
X92035Y5500D01*
Y7500D01*
X88000D01*
X83965D01*
Y5500D01*
X84079Y4634D01*
X83706Y4034D01*
X82294D01*
X81921Y4634D01*
X82034Y5500D01*
Y10500D01*
X81897Y11544D01*
X81494Y12517D01*
X80853Y13353D01*
X80017Y13994D01*
X79531Y14196D01*
X79529Y14211D01*
Y111378D01*
X79993Y111758D01*
X80000Y111757D01*
X80858Y111928D01*
X81119Y112102D01*
X81544Y111869D01*
X81671Y111749D01*
Y110877D01*
X81667Y110856D01*
X81660Y110826D01*
X81657Y110815D01*
X81614Y110786D01*
X81128Y110058D01*
X80957Y109200D01*
X81128Y108342D01*
X81614Y107614D01*
X82342Y107128D01*
X83200Y106957D01*
X84058Y107128D01*
X84786Y107614D01*
X85272Y108342D01*
X85443Y109200D01*
X85272Y110058D01*
X84786Y110786D01*
X84910Y111347D01*
X90181Y116619D01*
X90513Y117115D01*
X90601Y117557D01*
X90686Y117614D01*
X91172Y118342D01*
X91343Y119200D01*
X91172Y120058D01*
X90686Y120786D01*
X89958Y121272D01*
X89100Y121443D01*
X88242Y121272D01*
X87514Y120786D01*
X87028Y120058D01*
X86857Y119200D01*
X87028Y118342D01*
X87248Y118011D01*
X82760Y113523D01*
X82207Y113818D01*
X82243Y114000D01*
X82072Y114858D01*
X81586Y115586D01*
X80858Y116072D01*
X80296Y116184D01*
X80089Y116826D01*
X104095Y140833D01*
X104113Y140845D01*
X104139Y140862D01*
X104149Y140867D01*
X104200Y140857D01*
X105058Y141028D01*
X105786Y141514D01*
X106272Y142242D01*
X106443Y143100D01*
X106272Y143958D01*
X105786Y144686D01*
X105058Y145172D01*
X104200Y145343D01*
X103342Y145172D01*
X102629Y144696D01*
X102533Y144715D01*
X102029Y144891D01*
Y151747D01*
X102300Y152257D01*
X103158Y152428D01*
X103886Y152914D01*
X104372Y153642D01*
X104543Y154500D01*
X104372Y155358D01*
X103886Y156086D01*
X103158Y156572D01*
X102300Y156743D01*
X101442Y156572D01*
X100714Y156086D01*
X100228Y155358D01*
X100057Y154500D01*
X100067Y154449D01*
X100062Y154439D01*
X100045Y154412D01*
X100033Y154395D01*
X99419Y153781D01*
X99087Y153285D01*
X98971Y152700D01*
Y148446D01*
X98908Y148413D01*
X98371Y148190D01*
X97600Y148343D01*
X96742Y148172D01*
X96014Y147686D01*
X95528Y146958D01*
X95357Y146100D01*
X95528Y145242D01*
X96014Y144514D01*
X96057Y144485D01*
X96061Y144474D01*
X96067Y144444D01*
X96071Y144423D01*
Y143118D01*
X93584Y140631D01*
X93029Y140861D01*
Y149600D01*
X92913Y150185D01*
X92581Y150681D01*
X92430Y150833D01*
X92443Y150900D01*
X92272Y151758D01*
X91786Y152486D01*
X91673Y152562D01*
X91597Y153334D01*
X92496Y154233D01*
X92513Y154245D01*
X92539Y154262D01*
X92549Y154267D01*
X92600Y154257D01*
X93458Y154428D01*
X94186Y154914D01*
X94672Y155642D01*
X94843Y156500D01*
X94672Y157358D01*
X94186Y158086D01*
X93458Y158572D01*
X92600Y158743D01*
X91742Y158572D01*
X91296Y158274D01*
X90728Y158044D01*
X90000Y158531D01*
X89365Y158657D01*
X89081Y159081D01*
X88585Y159413D01*
X88000Y159529D01*
X81200D01*
X80615Y159413D01*
X80119Y159081D01*
X78919Y157881D01*
X78587Y157385D01*
X78471Y156800D01*
Y147034D01*
X74967Y143529D01*
X44633D01*
X29081Y159081D01*
X28585Y159413D01*
X28000Y159529D01*
X14211D01*
X14196Y159531D01*
X13994Y160017D01*
X13353Y160853D01*
X12517Y161494D01*
X11544Y161897D01*
X10500Y162034D01*
X5500D01*
X4634Y161921D01*
X4034Y162294D01*
Y163706D01*
X4634Y164079D01*
X5500Y163965D01*
X7500D01*
Y168000D01*
Y172035D01*
X5500D01*
X4634Y171921D01*
X4034Y172294D01*
Y173706D01*
X4634Y174079D01*
X5500Y173966D01*
X10500D01*
X11544Y174103D01*
X12517Y174506D01*
X13353Y175147D01*
X13994Y175983D01*
X14397Y176956D01*
X14535Y178000D01*
X14397Y179044D01*
X13994Y180017D01*
X13353Y180853D01*
X12517Y181494D01*
X11544Y181897D01*
X10500Y182035D01*
X5500D01*
X4634Y181921D01*
X4034Y182294D01*
Y183706D01*
X4634Y184079D01*
X5500Y183966D01*
X7500D01*
Y188000D01*
Y192034D01*
X5500D01*
X4634Y191921D01*
X4034Y192294D01*
Y193706D01*
X4634Y194079D01*
X5500Y193965D01*
X10500D01*
X11544Y194103D01*
X12517Y194506D01*
X13353Y195147D01*
X13994Y195983D01*
X14397Y196956D01*
X14535Y198000D01*
X14397Y199044D01*
X13994Y200017D01*
X13353Y200853D01*
X12517Y201494D01*
X11544Y201897D01*
X10500Y202034D01*
X5500D01*
X4634Y201921D01*
X4034Y202294D01*
Y203706D01*
X4634Y204079D01*
X5500Y203965D01*
X7500D01*
Y208000D01*
Y212035D01*
X5500D01*
X4634Y211921D01*
X4034Y212294D01*
Y214000D01*
X14500D01*
Y222000D01*
X4034D01*
Y249966D01*
X20583D01*
X20746Y249388D01*
X20040Y248955D01*
X18425Y247575D01*
X17044Y245960D01*
X15934Y244148D01*
X15121Y242185D01*
X14625Y240118D01*
X14458Y238000D01*
X14625Y235882D01*
X15121Y233815D01*
X15934Y231852D01*
X17044Y230040D01*
X18425Y228425D01*
X20040Y227045D01*
X21852Y225934D01*
X23815Y225121D01*
X25882Y224625D01*
X28000Y224458D01*
X30118Y224625D01*
X32185Y225121D01*
X34148Y225934D01*
X35960Y227045D01*
X37576Y228425D01*
X38956Y230040D01*
X40066Y231852D01*
X40879Y233815D01*
X41375Y235882D01*
X41542Y238000D01*
X41375Y240118D01*
X40879Y242185D01*
X40066Y244148D01*
X38956Y245960D01*
X37576Y247575D01*
X35960Y248955D01*
X35254Y249388D01*
X35417Y249966D01*
X170583D01*
X170746Y249388D01*
X170040Y248955D01*
X168424Y247575D01*
X167044Y245960D01*
X165934Y244148D01*
X165121Y242185D01*
X164625Y240118D01*
X164458Y238000D01*
X164625Y235882D01*
X165121Y233815D01*
X165934Y231852D01*
X167044Y230040D01*
X168424Y228425D01*
X170040Y227045D01*
X171852Y225934D01*
X173815Y225121D01*
X175882Y224625D01*
X178000Y224458D01*
X180118Y224625D01*
X182185Y225121D01*
X184148Y225934D01*
X185960Y227045D01*
X187575Y228425D01*
X188955Y230040D01*
X190066Y231852D01*
X190879Y233815D01*
X191375Y235882D01*
X191542Y238000D01*
X191375Y240118D01*
X190879Y242185D01*
X190066Y244148D01*
X188955Y245960D01*
X187575Y247575D01*
X185960Y248955D01*
X185254Y249388D01*
X185417Y249966D01*
X201466D01*
Y222000D01*
D02*
G37*
G36*
X168775Y161474D02*
X168718Y161398D01*
X168667Y161317D01*
X168622Y161230D01*
X168585Y161138D01*
X168554Y161040D01*
X168531Y160936D01*
X168514Y160826D01*
X168503Y160710D01*
X168500Y160589D01*
X167500D01*
X167497Y160710D01*
X167486Y160826D01*
X167469Y160936D01*
X167446Y161040D01*
X167415Y161138D01*
X167378Y161230D01*
X167333Y161317D01*
X167282Y161398D01*
X167225Y161474D01*
X167160Y161543D01*
X168840D01*
X168775Y161474D01*
D02*
G37*
G36*
X165975Y158674D02*
X165918Y158598D01*
X165867Y158517D01*
X165822Y158430D01*
X165785Y158338D01*
X165754Y158240D01*
X165731Y158136D01*
X165714Y158026D01*
X165703Y157910D01*
X165700Y157789D01*
X164700D01*
X164697Y157910D01*
X164686Y158026D01*
X164669Y158136D01*
X164646Y158240D01*
X164615Y158338D01*
X164578Y158430D01*
X164533Y158517D01*
X164482Y158598D01*
X164425Y158674D01*
X164360Y158743D01*
X166040D01*
X165975Y158674D01*
D02*
G37*
G36*
X13319Y158902D02*
X13353Y158818D01*
X13411Y158743D01*
X13491Y158679D01*
X13594Y158624D01*
X13720Y158579D01*
X13869Y158545D01*
X14041Y158520D01*
X14236Y158505D01*
X14453Y158500D01*
Y157500D01*
X14236Y157495D01*
X14041Y157480D01*
X13869Y157455D01*
X13720Y157421D01*
X13594Y157376D01*
X13491Y157321D01*
X13411Y157257D01*
X13353Y157182D01*
X13319Y157098D01*
X13308Y157003D01*
Y158996D01*
X13319Y158902D01*
D02*
G37*
G36*
X163175Y155874D02*
X163118Y155798D01*
X163067Y155717D01*
X163022Y155630D01*
X162985Y155538D01*
X162954Y155440D01*
X162931Y155336D01*
X162914Y155226D01*
X162903Y155110D01*
X162900Y154989D01*
X161900D01*
X161897Y155110D01*
X161886Y155226D01*
X161869Y155336D01*
X161846Y155440D01*
X161815Y155538D01*
X161778Y155630D01*
X161733Y155717D01*
X161682Y155798D01*
X161625Y155874D01*
X161560Y155943D01*
X163240D01*
X163175Y155874D01*
D02*
G37*
G36*
X92588Y155300D02*
X92493Y155297D01*
X92399Y155284D01*
X92306Y155263D01*
X92213Y155233D01*
X92121Y155194D01*
X92030Y155146D01*
X91940Y155089D01*
X91850Y155024D01*
X91761Y154949D01*
X91673Y154866D01*
X90966Y155573D01*
X91049Y155661D01*
X91124Y155750D01*
X91189Y155840D01*
X91246Y155930D01*
X91294Y156021D01*
X91333Y156113D01*
X91363Y156206D01*
X91384Y156299D01*
X91397Y156393D01*
X91400Y156488D01*
X92588Y155300D01*
D02*
G37*
G36*
X102288Y153300D02*
X102193Y153297D01*
X102099Y153284D01*
X102006Y153263D01*
X101913Y153233D01*
X101821Y153194D01*
X101730Y153146D01*
X101640Y153089D01*
X101550Y153024D01*
X101461Y152949D01*
X101373Y152866D01*
X100666Y153573D01*
X100749Y153661D01*
X100824Y153750D01*
X100889Y153840D01*
X100946Y153930D01*
X100994Y154021D01*
X101033Y154113D01*
X101063Y154206D01*
X101084Y154299D01*
X101097Y154393D01*
X101100Y154488D01*
X102288Y153300D01*
D02*
G37*
G36*
X160375Y153074D02*
X160318Y152998D01*
X160267Y152917D01*
X160222Y152830D01*
X160185Y152738D01*
X160154Y152640D01*
X160131Y152536D01*
X160114Y152426D01*
X160103Y152310D01*
X160100Y152189D01*
X159100D01*
X159097Y152310D01*
X159086Y152426D01*
X159069Y152536D01*
X159046Y152640D01*
X159015Y152738D01*
X158978Y152830D01*
X158933Y152917D01*
X158882Y152998D01*
X158825Y153074D01*
X158760Y153143D01*
X160440D01*
X160375Y153074D01*
D02*
G37*
G36*
X157575Y150274D02*
X157518Y150198D01*
X157467Y150117D01*
X157422Y150030D01*
X157385Y149938D01*
X157354Y149840D01*
X157331Y149736D01*
X157314Y149626D01*
X157303Y149510D01*
X157300Y149389D01*
X156300D01*
X156297Y149510D01*
X156286Y149626D01*
X156269Y149736D01*
X156246Y149840D01*
X156215Y149938D01*
X156178Y150030D01*
X156133Y150117D01*
X156082Y150198D01*
X156025Y150274D01*
X155960Y150343D01*
X157640D01*
X157575Y150274D01*
D02*
G37*
G36*
X91390Y150698D02*
X91398Y150631D01*
X91417Y150560D01*
X91445Y150486D01*
X91484Y150409D01*
X91534Y150329D01*
X91593Y150245D01*
X91663Y150158D01*
X91834Y149973D01*
X91127Y149266D01*
X91033Y149356D01*
X90855Y149507D01*
X90771Y149566D01*
X90691Y149616D01*
X90614Y149655D01*
X90540Y149683D01*
X90469Y149702D01*
X90402Y149710D01*
X90338Y149708D01*
X91392Y150761D01*
X91390Y150698D01*
D02*
G37*
G36*
X13319Y148902D02*
X13353Y148818D01*
X13411Y148743D01*
X13491Y148679D01*
X13594Y148624D01*
X13720Y148579D01*
X13869Y148545D01*
X14041Y148520D01*
X14236Y148505D01*
X14453Y148500D01*
Y147500D01*
X14236Y147495D01*
X14041Y147480D01*
X13869Y147455D01*
X13720Y147421D01*
X13594Y147376D01*
X13491Y147321D01*
X13411Y147257D01*
X13353Y147182D01*
X13319Y147098D01*
X13308Y147003D01*
Y148996D01*
X13319Y148902D01*
D02*
G37*
G36*
X87575Y147526D02*
X87518Y147451D01*
X87467Y147370D01*
X87422Y147283D01*
X87385Y147191D01*
X87354Y147092D01*
X87331Y146988D01*
X87314Y146879D01*
X87303Y146763D01*
X87300Y146642D01*
X86300D01*
X86297Y146763D01*
X86286Y146879D01*
X86269Y146988D01*
X86246Y147092D01*
X86215Y147191D01*
X86178Y147283D01*
X86133Y147370D01*
X86082Y147451D01*
X86025Y147526D01*
X85960Y147596D01*
X87640D01*
X87575Y147526D01*
D02*
G37*
G36*
X154762Y147561D02*
X154707Y147484D01*
X154659Y147401D01*
X154617Y147312D01*
X154581Y147219D01*
X154552Y147119D01*
X154529Y147015D01*
X154513Y146904D01*
X154503Y146789D01*
X154500Y146668D01*
X153500Y146619D01*
X153497Y146741D01*
X153486Y146856D01*
X153468Y146965D01*
X153443Y147069D01*
X153411Y147166D01*
X153373Y147257D01*
X153326Y147342D01*
X153273Y147420D01*
X153213Y147493D01*
X153146Y147560D01*
X154824Y147634D01*
X154762Y147561D01*
D02*
G37*
G36*
X194351Y145226D02*
X194204Y145278D01*
X193966Y145325D01*
X193640Y145366D01*
X192717Y145431D01*
X188839Y145500D01*
Y150500D01*
X194351Y150774D01*
Y145226D01*
D02*
G37*
G36*
X98375Y145174D02*
X98318Y145098D01*
X98267Y145017D01*
X98222Y144930D01*
X98185Y144838D01*
X98154Y144740D01*
X98131Y144636D01*
X98114Y144526D01*
X98103Y144410D01*
X98100Y144289D01*
X97100D01*
X97097Y144410D01*
X97086Y144526D01*
X97069Y144636D01*
X97046Y144740D01*
X97015Y144838D01*
X96978Y144930D01*
X96933Y145017D01*
X96882Y145098D01*
X96825Y145174D01*
X96760Y145243D01*
X98440D01*
X98375Y145174D01*
D02*
G37*
G36*
X151975Y144674D02*
X151918Y144598D01*
X151867Y144517D01*
X151822Y144430D01*
X151785Y144338D01*
X151754Y144240D01*
X151731Y144136D01*
X151714Y144026D01*
X151703Y143910D01*
X151700Y143789D01*
X150700D01*
X150697Y143910D01*
X150686Y144026D01*
X150669Y144136D01*
X150646Y144240D01*
X150615Y144338D01*
X150578Y144430D01*
X150533Y144517D01*
X150482Y144598D01*
X150425Y144674D01*
X150360Y144743D01*
X152040D01*
X151975Y144674D01*
D02*
G37*
G36*
X192672Y144413D02*
X193540Y144351D01*
X193804Y144317D01*
X193934Y144292D01*
X194011Y144265D01*
X194094Y144253D01*
X194456Y144103D01*
X195500Y143965D01*
X200500D01*
X201014Y144033D01*
X201466Y143638D01*
Y142362D01*
X201014Y141967D01*
X200500Y142034D01*
X198500D01*
Y138000D01*
Y133966D01*
X200500D01*
X201014Y134033D01*
X201466Y133638D01*
Y132362D01*
X201014Y131967D01*
X200500Y132035D01*
X198500D01*
Y128000D01*
Y123966D01*
X200500D01*
X201014Y124033D01*
X201466Y123638D01*
Y122362D01*
X201014Y121967D01*
X200500Y122035D01*
X195500D01*
X194456Y121897D01*
X193483Y121494D01*
X192647Y120853D01*
X192006Y120017D01*
X191603Y119044D01*
X191465Y118000D01*
X191603Y116956D01*
X192006Y115983D01*
X192647Y115147D01*
X193483Y114506D01*
X194456Y114103D01*
X195500Y113965D01*
X200500D01*
X201014Y114033D01*
X201466Y113638D01*
Y112362D01*
X201014Y111967D01*
X200500Y112034D01*
X195500D01*
X194456Y111897D01*
X193483Y111494D01*
X192647Y110853D01*
X192006Y110017D01*
X191603Y109044D01*
X191465Y108000D01*
X191603Y106956D01*
X192006Y105983D01*
X192647Y105147D01*
X193483Y104506D01*
X194456Y104103D01*
X195500Y103965D01*
X200500D01*
X201014Y104033D01*
X201466Y103638D01*
Y102362D01*
X201014Y101967D01*
X200500Y102034D01*
X195500D01*
X194456Y101897D01*
X193483Y101494D01*
X192647Y100853D01*
X192006Y100017D01*
X191603Y99044D01*
X191465Y98000D01*
X191603Y96956D01*
X192006Y95983D01*
X192647Y95147D01*
X193483Y94506D01*
X194456Y94103D01*
X195500Y93966D01*
X200500D01*
X201014Y94033D01*
X201466Y93638D01*
Y92362D01*
X201014Y91967D01*
X200500Y92035D01*
X195500D01*
X194456Y91897D01*
X194189Y91787D01*
X189061Y91532D01*
X188268Y92325D01*
X187836Y92788D01*
X187284Y93479D01*
X186799Y94192D01*
X186380Y94930D01*
X186027Y95692D01*
X185737Y96481D01*
X185512Y97299D01*
X185350Y98146D01*
X185253Y99025D01*
X185230Y99658D01*
Y140038D01*
X189658Y144466D01*
X192672Y144413D01*
D02*
G37*
G36*
X104188Y141900D02*
X104093Y141897D01*
X103999Y141884D01*
X103906Y141863D01*
X103813Y141833D01*
X103721Y141794D01*
X103630Y141746D01*
X103540Y141689D01*
X103450Y141624D01*
X103361Y141549D01*
X103273Y141466D01*
X102566Y142173D01*
X102649Y142261D01*
X102724Y142350D01*
X102789Y142440D01*
X102846Y142530D01*
X102894Y142621D01*
X102933Y142713D01*
X102963Y142806D01*
X102984Y142899D01*
X102997Y142993D01*
X103000Y143088D01*
X104188Y141900D01*
D02*
G37*
G36*
X149175Y141874D02*
X149118Y141798D01*
X149067Y141717D01*
X149022Y141630D01*
X148985Y141538D01*
X148954Y141440D01*
X148931Y141336D01*
X148914Y141226D01*
X148903Y141110D01*
X148900Y140989D01*
X147900D01*
X147897Y141110D01*
X147886Y141226D01*
X147869Y141336D01*
X147846Y141440D01*
X147815Y141538D01*
X147778Y141630D01*
X147733Y141717D01*
X147682Y141798D01*
X147625Y141874D01*
X147560Y141943D01*
X149240D01*
X149175Y141874D01*
D02*
G37*
G36*
X89971Y148361D02*
Y140784D01*
X89371Y140464D01*
X89058Y140672D01*
X88200Y140843D01*
X87342Y140672D01*
X86614Y140186D01*
X86128Y139458D01*
X85957Y138600D01*
X85967Y138549D01*
X85962Y138539D01*
X85945Y138513D01*
X85933Y138496D01*
X74967Y127529D01*
X67977D01*
X67956Y127533D01*
X67926Y127540D01*
X67915Y127543D01*
X67886Y127586D01*
X67158Y128072D01*
X66300Y128243D01*
X65442Y128072D01*
X64714Y127586D01*
X64228Y126858D01*
X64057Y126000D01*
X64228Y125142D01*
X64714Y124414D01*
X65442Y123928D01*
X66300Y123757D01*
X67158Y123928D01*
X67886Y124414D01*
X67915Y124457D01*
X67926Y124460D01*
X67956Y124467D01*
X67977Y124471D01*
X72324D01*
X72553Y123916D01*
X68905Y120267D01*
X68888Y120255D01*
X68861Y120238D01*
X68851Y120233D01*
X68800Y120243D01*
X67942Y120072D01*
X67214Y119586D01*
X66728Y118858D01*
X66557Y118000D01*
X66728Y117142D01*
X67214Y116414D01*
X67942Y115928D01*
X68702Y115777D01*
X68616Y115345D01*
Y50479D01*
X43419Y25281D01*
X43087Y24785D01*
X42971Y24200D01*
Y16933D01*
X40025Y13988D01*
X40017Y13994D01*
X39044Y14397D01*
X38000Y14535D01*
X36956Y14397D01*
X35983Y13994D01*
X35147Y13353D01*
X34506Y12517D01*
X34103Y11544D01*
X33966Y10500D01*
Y5500D01*
X34079Y4634D01*
X33706Y4034D01*
X32294D01*
X31921Y4634D01*
X32035Y5500D01*
Y10500D01*
X31897Y11544D01*
X31494Y12517D01*
X30853Y13353D01*
X30017Y13994D01*
X29044Y14397D01*
X28000Y14535D01*
X26956Y14397D01*
X25983Y13994D01*
X25147Y13353D01*
X24506Y12517D01*
X24103Y11544D01*
X23966Y10500D01*
Y5500D01*
X24079Y4634D01*
X23706Y4034D01*
X22294D01*
X21921Y4634D01*
X22035Y5500D01*
Y10500D01*
X21897Y11544D01*
X21494Y12517D01*
X20853Y13353D01*
X20017Y13994D01*
X19044Y14397D01*
X18000Y14535D01*
X16956Y14397D01*
X15983Y13994D01*
X15147Y13353D01*
X14506Y12517D01*
X14103Y11544D01*
X13965Y10500D01*
Y5500D01*
X14079Y4634D01*
X13706Y4034D01*
X12000D01*
Y7500D01*
X8000D01*
Y8000D01*
X7500D01*
Y14500D01*
X4034D01*
Y23706D01*
X4634Y24079D01*
X5500Y23966D01*
X10500D01*
X11544Y24103D01*
X12517Y24506D01*
X13353Y25147D01*
X13994Y25983D01*
X14397Y26956D01*
X14535Y28000D01*
X14397Y29044D01*
X13994Y30017D01*
X13353Y30853D01*
X12517Y31494D01*
X11544Y31897D01*
X10500Y32035D01*
X5500D01*
X4634Y31921D01*
X4034Y32294D01*
Y33706D01*
X4634Y34079D01*
X5500Y33966D01*
X10500D01*
X11544Y34103D01*
X12517Y34506D01*
X13353Y35147D01*
X13994Y35983D01*
X14397Y36956D01*
X14535Y38000D01*
X14397Y39044D01*
X13994Y40017D01*
X13353Y40853D01*
X12517Y41494D01*
X11544Y41897D01*
X10500Y42035D01*
X5500D01*
X4634Y41921D01*
X4034Y42294D01*
Y43706D01*
X4634Y44079D01*
X5500Y43966D01*
X10500D01*
X11544Y44103D01*
X12517Y44506D01*
X13353Y45147D01*
X13994Y45983D01*
X14397Y46956D01*
X14535Y48000D01*
X14397Y49044D01*
X13994Y50017D01*
X13353Y50853D01*
X12517Y51494D01*
X11544Y51897D01*
X10500Y52034D01*
X5500D01*
X4634Y51921D01*
X4034Y52294D01*
Y53706D01*
X4634Y54079D01*
X5500Y53966D01*
X10500D01*
X11544Y54103D01*
X12517Y54506D01*
X13353Y55147D01*
X13994Y55983D01*
X14397Y56956D01*
X14535Y58000D01*
X14397Y59044D01*
X13994Y60017D01*
X13353Y60853D01*
X12517Y61494D01*
X11544Y61897D01*
X10500Y62034D01*
X5500D01*
X4634Y61921D01*
X4034Y62294D01*
Y63706D01*
X4634Y64079D01*
X5500Y63965D01*
X7500D01*
Y68000D01*
Y72035D01*
X5500D01*
X4634Y71921D01*
X4034Y72294D01*
Y73706D01*
X4634Y74079D01*
X5500Y73966D01*
X7500D01*
Y78000D01*
Y82034D01*
X5500D01*
X4634Y81921D01*
X4034Y82294D01*
Y83706D01*
X4634Y84079D01*
X5500Y83965D01*
X10500D01*
X11544Y84103D01*
X12517Y84506D01*
X13353Y85147D01*
X13994Y85983D01*
X14397Y86956D01*
X14535Y88000D01*
X14397Y89044D01*
X13994Y90017D01*
X13353Y90853D01*
X12517Y91494D01*
X11544Y91897D01*
X10500Y92035D01*
X5500D01*
X4634Y91921D01*
X4034Y92294D01*
Y93706D01*
X4634Y94079D01*
X5500Y93966D01*
X10500D01*
X11544Y94103D01*
X12517Y94506D01*
X13353Y95147D01*
X13994Y95983D01*
X14397Y96956D01*
X14535Y98000D01*
X14397Y99044D01*
X13994Y100017D01*
X13353Y100853D01*
X12517Y101494D01*
X11544Y101897D01*
X10500Y102034D01*
X5500D01*
X4634Y101921D01*
X4034Y102294D01*
Y103706D01*
X4634Y104079D01*
X5500Y103965D01*
X10500D01*
X11544Y104103D01*
X12517Y104506D01*
X13353Y105147D01*
X13994Y105983D01*
X14397Y106956D01*
X14535Y108000D01*
X14397Y109044D01*
X13994Y110017D01*
X13353Y110853D01*
X12517Y111494D01*
X11544Y111897D01*
X10500Y112034D01*
X5500D01*
X4634Y111921D01*
X4034Y112294D01*
Y113706D01*
X4634Y114079D01*
X5500Y113965D01*
X10500D01*
X11544Y114103D01*
X12517Y114506D01*
X13353Y115147D01*
X13994Y115983D01*
X14397Y116956D01*
X14535Y118000D01*
X14397Y119044D01*
X13994Y120017D01*
X13353Y120853D01*
X12517Y121494D01*
X11544Y121897D01*
X10500Y122035D01*
X5500D01*
X4634Y121921D01*
X4034Y122294D01*
Y123706D01*
X4634Y124079D01*
X5500Y123966D01*
X10500D01*
X11544Y124103D01*
X12517Y124506D01*
X13353Y125147D01*
X13994Y125983D01*
X14397Y126956D01*
X14535Y128000D01*
X14397Y129044D01*
X13994Y130017D01*
X13800Y130271D01*
X14096Y130871D01*
X21558D01*
X21629Y130863D01*
X21735Y130842D01*
X21835Y130815D01*
X21929Y130780D01*
X22021Y130738D01*
X22110Y130687D01*
X22199Y130627D01*
X22255Y130582D01*
X28771Y124066D01*
Y37177D01*
X28767Y37156D01*
X28760Y37126D01*
X28757Y37115D01*
X28714Y37086D01*
X28228Y36358D01*
X28057Y35500D01*
X28228Y34642D01*
X28714Y33914D01*
X29442Y33428D01*
X30300Y33257D01*
X31158Y33428D01*
X31886Y33914D01*
X32372Y34642D01*
X32543Y35500D01*
X32372Y36358D01*
X31886Y37086D01*
X31843Y37115D01*
X31839Y37126D01*
X31833Y37156D01*
X31829Y37177D01*
Y124700D01*
X31713Y125285D01*
X31381Y125781D01*
X26847Y130316D01*
X27076Y130871D01*
X74600D01*
X75185Y130987D01*
X75681Y131319D01*
X87881Y143519D01*
X88213Y144015D01*
X88329Y144600D01*
Y146776D01*
X88333Y146797D01*
X88340Y146827D01*
X88343Y146838D01*
X88386Y146867D01*
X88872Y147594D01*
X88999Y148232D01*
X89535Y148569D01*
X89971Y148361D01*
D02*
G37*
G36*
X146375Y139074D02*
X146318Y138998D01*
X146267Y138917D01*
X146222Y138830D01*
X146185Y138738D01*
X146154Y138640D01*
X146131Y138536D01*
X146114Y138426D01*
X146103Y138310D01*
X146100Y138189D01*
X145100D01*
X145097Y138310D01*
X145086Y138426D01*
X145069Y138536D01*
X145046Y138640D01*
X145015Y138738D01*
X144978Y138830D01*
X144933Y138917D01*
X144882Y138998D01*
X144825Y139074D01*
X144760Y139143D01*
X146440D01*
X146375Y139074D01*
D02*
G37*
G36*
X88188Y137400D02*
X88093Y137397D01*
X87999Y137384D01*
X87906Y137363D01*
X87813Y137333D01*
X87721Y137294D01*
X87630Y137246D01*
X87540Y137189D01*
X87450Y137124D01*
X87361Y137049D01*
X87273Y136966D01*
X86566Y137673D01*
X86649Y137761D01*
X86724Y137850D01*
X86789Y137940D01*
X86846Y138030D01*
X86894Y138121D01*
X86933Y138213D01*
X86963Y138306D01*
X86984Y138399D01*
X86997Y138493D01*
X87000Y138588D01*
X88188Y137400D01*
D02*
G37*
G36*
X143575Y136274D02*
X143518Y136198D01*
X143467Y136117D01*
X143422Y136030D01*
X143385Y135938D01*
X143354Y135840D01*
X143331Y135736D01*
X143314Y135626D01*
X143303Y135510D01*
X143300Y135389D01*
X142300D01*
X142297Y135510D01*
X142286Y135626D01*
X142269Y135736D01*
X142246Y135840D01*
X142215Y135938D01*
X142178Y136030D01*
X142133Y136117D01*
X142082Y136198D01*
X142025Y136274D01*
X141960Y136343D01*
X143640D01*
X143575Y136274D01*
D02*
G37*
G36*
X11888Y135396D02*
X11810Y135353D01*
X11761Y135295D01*
X11740Y135223D01*
X11749Y135136D01*
X11787Y135034D01*
X11853Y134918D01*
X11949Y134786D01*
X12074Y134641D01*
X12227Y134480D01*
X11003Y134290D01*
X10841Y134446D01*
X10530Y134700D01*
X10382Y134800D01*
X10238Y134881D01*
X10099Y134944D01*
X9965Y134988D01*
X9834Y135013D01*
X9709Y135021D01*
X9588Y135010D01*
X11995Y135424D01*
X11888Y135396D01*
D02*
G37*
G36*
X140775Y133474D02*
X140718Y133398D01*
X140667Y133317D01*
X140622Y133230D01*
X140585Y133138D01*
X140554Y133040D01*
X140531Y132936D01*
X140514Y132826D01*
X140503Y132710D01*
X140500Y132589D01*
X139500D01*
X139497Y132710D01*
X139486Y132826D01*
X139469Y132936D01*
X139446Y133040D01*
X139415Y133138D01*
X139378Y133230D01*
X139333Y133317D01*
X139282Y133398D01*
X139225Y133474D01*
X139160Y133543D01*
X140840D01*
X140775Y133474D01*
D02*
G37*
G36*
X24807Y131900D02*
X24624Y131893D01*
X24475Y131872D01*
X24361Y131836D01*
X24280Y131787D01*
X24234Y131723D01*
X24222Y131645D01*
X24244Y131553D01*
X24300Y131448D01*
X24390Y131327D01*
X24514Y131193D01*
X23100D01*
X22956Y131327D01*
X22805Y131448D01*
X22649Y131553D01*
X22488Y131645D01*
X22320Y131723D01*
X22146Y131787D01*
X21967Y131836D01*
X21781Y131872D01*
X21590Y131893D01*
X21393Y131900D01*
X22600Y132900D01*
X24807Y131900D01*
D02*
G37*
G36*
X67226Y126775D02*
X67302Y126718D01*
X67383Y126667D01*
X67470Y126622D01*
X67562Y126585D01*
X67660Y126554D01*
X67764Y126531D01*
X67874Y126514D01*
X67990Y126503D01*
X68111Y126500D01*
Y125500D01*
X67990Y125497D01*
X67874Y125486D01*
X67764Y125469D01*
X67660Y125446D01*
X67562Y125415D01*
X67470Y125378D01*
X67383Y125333D01*
X67302Y125282D01*
X67226Y125225D01*
X67157Y125160D01*
Y126840D01*
X67226Y126775D01*
D02*
G37*
G36*
X70434Y118927D02*
X70351Y118839D01*
X70276Y118750D01*
X70211Y118660D01*
X70154Y118570D01*
X70106Y118479D01*
X70067Y118387D01*
X70037Y118294D01*
X70016Y118201D01*
X70003Y118107D01*
X70000Y118012D01*
X68812Y119200D01*
X68907Y119203D01*
X69001Y119216D01*
X69094Y119237D01*
X69187Y119267D01*
X69279Y119306D01*
X69370Y119354D01*
X69460Y119411D01*
X69550Y119476D01*
X69639Y119551D01*
X69727Y119634D01*
X70434Y118927D01*
D02*
G37*
G36*
X79635Y112857D02*
X79548Y112879D01*
X79461Y112889D01*
X79374Y112887D01*
X79286Y112873D01*
X79198Y112848D01*
X79110Y112811D01*
X79021Y112762D01*
X78931Y112702D01*
X78842Y112629D01*
X78752Y112545D01*
X78291Y113498D01*
X78375Y113585D01*
X78525Y113758D01*
X78591Y113843D01*
X78702Y114012D01*
X78749Y114096D01*
X78789Y114178D01*
X78822Y114261D01*
X78850Y114342D01*
X79635Y112857D01*
D02*
G37*
G36*
X83703Y110890D02*
X83714Y110774D01*
X83731Y110664D01*
X83754Y110560D01*
X83785Y110462D01*
X83822Y110370D01*
X83867Y110283D01*
X83918Y110202D01*
X83975Y110126D01*
X84040Y110057D01*
X82360D01*
X82425Y110126D01*
X82482Y110202D01*
X82533Y110283D01*
X82578Y110370D01*
X82615Y110462D01*
X82646Y110560D01*
X82669Y110664D01*
X82686Y110774D01*
X82697Y110890D01*
X82700Y111011D01*
X83700D01*
X83703Y110890D01*
D02*
G37*
G36*
X184235Y98950D02*
X184341Y97994D01*
X184518Y97067D01*
X184766Y96170D01*
X185084Y95302D01*
X185473Y94463D01*
X185932Y93653D01*
X186463Y92873D01*
X187064Y92122D01*
X187735Y91400D01*
X185236Y86829D01*
X184528Y87465D01*
X183821Y87960D01*
X183114Y88314D01*
X182407Y88526D01*
X181700Y88597D01*
X180993Y88526D01*
X180286Y88314D01*
X179579Y87960D01*
X178872Y87465D01*
X178165Y86829D01*
X175664Y91400D01*
X176336Y92122D01*
X176937Y92873D01*
X177468Y93653D01*
X177927Y94463D01*
X178316Y95302D01*
X178634Y96170D01*
X178882Y97067D01*
X179059Y97994D01*
X179165Y98950D01*
X179200Y99936D01*
X184200D01*
X184235Y98950D01*
D02*
G37*
G36*
X194351Y85226D02*
X194204Y85278D01*
X193966Y85325D01*
X193640Y85366D01*
X192717Y85431D01*
X188839Y85500D01*
Y90500D01*
X194351Y90774D01*
Y85226D01*
D02*
G37*
G36*
X192692Y47003D02*
X192681Y47098D01*
X192647Y47182D01*
X192589Y47257D01*
X192509Y47321D01*
X192406Y47376D01*
X192280Y47421D01*
X192131Y47455D01*
X191959Y47480D01*
X191764Y47495D01*
X191547Y47500D01*
Y48500D01*
X191764Y48505D01*
X191959Y48520D01*
X192131Y48545D01*
X192280Y48579D01*
X192406Y48624D01*
X192509Y48679D01*
X192589Y48743D01*
X192647Y48818D01*
X192681Y48902D01*
X192692Y48996D01*
Y47003D01*
D02*
G37*
G36*
X71909Y41196D02*
X71842Y41264D01*
X71769Y41324D01*
X71690Y41377D01*
X71605Y41423D01*
X71514Y41462D01*
X71417Y41493D01*
X71314Y41518D01*
X71204Y41536D01*
X71089Y41546D01*
X70968Y41550D01*
X71013Y42550D01*
X71135Y42553D01*
X71250Y42563D01*
X71360Y42579D01*
X71465Y42602D01*
X71564Y42631D01*
X71658Y42667D01*
X71746Y42709D01*
X71829Y42758D01*
X71907Y42813D01*
X71979Y42875D01*
X71909Y41196D01*
D02*
G37*
G36*
X70440Y43123D02*
X70350Y43003D01*
X70294Y42897D01*
X70272Y42805D01*
X70284Y42727D01*
X70330Y42663D01*
X70411Y42614D01*
X70525Y42578D01*
X70674Y42557D01*
X70857Y42550D01*
X69857Y41550D01*
X69660Y41543D01*
X69469Y41522D01*
X69283Y41486D01*
X69104Y41437D01*
X68930Y41373D01*
X68762Y41295D01*
X68601Y41203D01*
X68445Y41097D01*
X68294Y40977D01*
X68150Y40843D01*
X68296Y42404D01*
X70564Y43257D01*
X70440Y43123D01*
D02*
G37*
G36*
X192692Y37003D02*
X192681Y37098D01*
X192647Y37182D01*
X192589Y37257D01*
X192509Y37321D01*
X192406Y37376D01*
X192280Y37421D01*
X192131Y37455D01*
X191959Y37480D01*
X191764Y37495D01*
X191547Y37500D01*
Y38500D01*
X191764Y38505D01*
X191959Y38520D01*
X192131Y38545D01*
X192280Y38579D01*
X192406Y38624D01*
X192509Y38679D01*
X192589Y38743D01*
X192647Y38818D01*
X192681Y38902D01*
X192692Y38996D01*
Y37003D01*
D02*
G37*
G36*
X30803Y37190D02*
X30814Y37074D01*
X30831Y36964D01*
X30854Y36860D01*
X30885Y36762D01*
X30922Y36670D01*
X30967Y36583D01*
X31018Y36502D01*
X31075Y36426D01*
X31140Y36357D01*
X29460D01*
X29525Y36426D01*
X29582Y36502D01*
X29633Y36583D01*
X29678Y36670D01*
X29715Y36762D01*
X29746Y36860D01*
X29769Y36964D01*
X29786Y37074D01*
X29797Y37190D01*
X29800Y37311D01*
X30800D01*
X30803Y37190D01*
D02*
G37*
G36*
X192692Y27003D02*
X192681Y27098D01*
X192647Y27182D01*
X192589Y27257D01*
X192509Y27321D01*
X192406Y27376D01*
X192280Y27421D01*
X192131Y27455D01*
X191959Y27480D01*
X191764Y27495D01*
X191547Y27500D01*
Y28500D01*
X191764Y28505D01*
X191959Y28520D01*
X192131Y28545D01*
X192280Y28579D01*
X192406Y28624D01*
X192509Y28679D01*
X192589Y28743D01*
X192647Y28818D01*
X192681Y28902D01*
X192692Y28997D01*
Y27003D01*
D02*
G37*
G36*
X188505Y14236D02*
X188520Y14041D01*
X188545Y13869D01*
X188579Y13720D01*
X188624Y13594D01*
X188679Y13491D01*
X188743Y13411D01*
X188818Y13353D01*
X188902Y13319D01*
X188997Y13308D01*
X187004D01*
X187098Y13319D01*
X187182Y13353D01*
X187257Y13411D01*
X187321Y13491D01*
X187376Y13594D01*
X187421Y13720D01*
X187455Y13869D01*
X187480Y14041D01*
X187495Y14236D01*
X187500Y14453D01*
X188500D01*
X188505Y14236D01*
D02*
G37*
G36*
X178505D02*
X178520Y14041D01*
X178545Y13869D01*
X178579Y13720D01*
X178624Y13594D01*
X178679Y13491D01*
X178743Y13411D01*
X178818Y13353D01*
X178902Y13319D01*
X178997Y13308D01*
X177004D01*
X177098Y13319D01*
X177182Y13353D01*
X177257Y13411D01*
X177321Y13491D01*
X177376Y13594D01*
X177421Y13720D01*
X177455Y13869D01*
X177480Y14041D01*
X177495Y14236D01*
X177500Y14453D01*
X178500D01*
X178505Y14236D01*
D02*
G37*
G36*
X168505D02*
X168520Y14041D01*
X168545Y13869D01*
X168579Y13720D01*
X168624Y13594D01*
X168679Y13491D01*
X168743Y13411D01*
X168818Y13353D01*
X168902Y13319D01*
X168997Y13308D01*
X167004D01*
X167098Y13319D01*
X167182Y13353D01*
X167257Y13411D01*
X167321Y13491D01*
X167376Y13594D01*
X167421Y13720D01*
X167455Y13869D01*
X167480Y14041D01*
X167495Y14236D01*
X167500Y14453D01*
X168500D01*
X168505Y14236D01*
D02*
G37*
G36*
X158505D02*
X158520Y14041D01*
X158545Y13869D01*
X158579Y13720D01*
X158624Y13594D01*
X158679Y13491D01*
X158743Y13411D01*
X158818Y13353D01*
X158902Y13319D01*
X158996Y13308D01*
X157003D01*
X157098Y13319D01*
X157182Y13353D01*
X157257Y13411D01*
X157321Y13491D01*
X157376Y13594D01*
X157421Y13720D01*
X157455Y13869D01*
X157480Y14041D01*
X157495Y14236D01*
X157500Y14453D01*
X158500D01*
X158505Y14236D01*
D02*
G37*
G36*
X148505D02*
X148520Y14041D01*
X148545Y13869D01*
X148579Y13720D01*
X148624Y13594D01*
X148679Y13491D01*
X148743Y13411D01*
X148818Y13353D01*
X148902Y13319D01*
X148996Y13308D01*
X147003D01*
X147098Y13319D01*
X147182Y13353D01*
X147257Y13411D01*
X147321Y13491D01*
X147376Y13594D01*
X147421Y13720D01*
X147455Y13869D01*
X147480Y14041D01*
X147495Y14236D01*
X147500Y14453D01*
X148500D01*
X148505Y14236D01*
D02*
G37*
G36*
X138505D02*
X138520Y14041D01*
X138545Y13869D01*
X138579Y13720D01*
X138624Y13594D01*
X138679Y13491D01*
X138743Y13411D01*
X138818Y13353D01*
X138902Y13319D01*
X138997Y13308D01*
X137004D01*
X137098Y13319D01*
X137182Y13353D01*
X137257Y13411D01*
X137321Y13491D01*
X137376Y13594D01*
X137421Y13720D01*
X137455Y13869D01*
X137480Y14041D01*
X137495Y14236D01*
X137500Y14453D01*
X138500D01*
X138505Y14236D01*
D02*
G37*
G36*
X128505D02*
X128520Y14041D01*
X128545Y13869D01*
X128579Y13720D01*
X128624Y13594D01*
X128679Y13491D01*
X128743Y13411D01*
X128818Y13353D01*
X128902Y13319D01*
X128997Y13308D01*
X127004D01*
X127098Y13319D01*
X127182Y13353D01*
X127257Y13411D01*
X127321Y13491D01*
X127376Y13594D01*
X127421Y13720D01*
X127455Y13869D01*
X127480Y14041D01*
X127495Y14236D01*
X127500Y14453D01*
X128500D01*
X128505Y14236D01*
D02*
G37*
G36*
X78505D02*
X78520Y14041D01*
X78545Y13869D01*
X78579Y13720D01*
X78624Y13594D01*
X78679Y13491D01*
X78743Y13411D01*
X78818Y13353D01*
X78902Y13319D01*
X78996Y13308D01*
X77004D01*
X77098Y13319D01*
X77182Y13353D01*
X77257Y13411D01*
X77321Y13491D01*
X77376Y13594D01*
X77421Y13720D01*
X77455Y13869D01*
X77480Y14041D01*
X77495Y14236D01*
X77500Y14453D01*
X78500D01*
X78505Y14236D01*
D02*
G37*
G36*
X48505D02*
X48520Y14041D01*
X48545Y13869D01*
X48579Y13720D01*
X48624Y13594D01*
X48679Y13491D01*
X48743Y13411D01*
X48818Y13353D01*
X48902Y13319D01*
X48996Y13308D01*
X47003D01*
X47098Y13319D01*
X47182Y13353D01*
X47257Y13411D01*
X47321Y13491D01*
X47376Y13594D01*
X47421Y13720D01*
X47455Y13869D01*
X47480Y14041D01*
X47495Y14236D01*
X47500Y14453D01*
X48500D01*
X48505Y14236D01*
D02*
G37*
G36*
X41405Y12498D02*
X41253Y12339D01*
X41015Y12045D01*
X40929Y11910D01*
X40865Y11784D01*
X40824Y11665D01*
X40804Y11554D01*
X40806Y11451D01*
X40830Y11357D01*
X40876Y11270D01*
X39723Y12936D01*
X39786Y12865D01*
X39860Y12818D01*
X39944Y12796D01*
X40038Y12799D01*
X40143Y12827D01*
X40259Y12879D01*
X40385Y12956D01*
X40521Y13057D01*
X40669Y13183D01*
X40826Y13333D01*
X41405Y12498D01*
D02*
G37*
G36*
X196755Y13959D02*
X197063Y13707D01*
X197206Y13612D01*
X197343Y13539D01*
X197472Y13486D01*
X197595Y13453D01*
X197710Y13442D01*
X197819Y13452D01*
X197921Y13483D01*
X195932Y12652D01*
X196018Y12700D01*
X196079Y12761D01*
X196112Y12833D01*
X196119Y12918D01*
X196100Y13016D01*
X196054Y13125D01*
X195982Y13247D01*
X195883Y13382D01*
X195757Y13529D01*
X195605Y13688D01*
X196591Y14117D01*
X196755Y13959D01*
D02*
G37*
G36*
X55771Y13543D02*
X55920Y13415D01*
X56060Y13310D01*
X56191Y13229D01*
X56312Y13170D01*
X56425Y13135D01*
X56529Y13123D01*
X56623Y13134D01*
X56708Y13168D01*
X56784Y13225D01*
X55345Y11846D01*
X55405Y11919D01*
X55442Y12002D01*
X55455Y12094D01*
X55445Y12195D01*
X55412Y12305D01*
X55356Y12425D01*
X55276Y12554D01*
X55172Y12692D01*
X55046Y12840D01*
X54896Y12997D01*
X55613Y13694D01*
X55771Y13543D01*
D02*
G37*
%LPC*%
G36*
X197500Y222000D02*
X191500D01*
Y218500D01*
X197500D01*
Y222000D01*
D02*
G37*
G36*
Y217500D02*
X191500D01*
Y214000D01*
X197500D01*
Y217500D01*
D02*
G37*
G36*
X10500Y212035D02*
X8500D01*
Y208500D01*
X14469D01*
X14397Y209044D01*
X13994Y210017D01*
X13353Y210853D01*
X12517Y211494D01*
X11544Y211897D01*
X10500Y212035D01*
D02*
G37*
G36*
X14469Y207500D02*
X8500D01*
Y203965D01*
X10500D01*
X11544Y204103D01*
X12517Y204506D01*
X13353Y205147D01*
X13994Y205983D01*
X14397Y206956D01*
X14469Y207500D01*
D02*
G37*
G36*
X197500Y192034D02*
X195500D01*
X194456Y191897D01*
X193483Y191494D01*
X192647Y190853D01*
X192006Y190017D01*
X191603Y189044D01*
X191531Y188500D01*
X197500D01*
Y192034D01*
D02*
G37*
G36*
X10500D02*
X8500D01*
Y188500D01*
X14469D01*
X14397Y189044D01*
X13994Y190017D01*
X13353Y190853D01*
X12517Y191494D01*
X11544Y191897D01*
X10500Y192034D01*
D02*
G37*
G36*
X197500Y187500D02*
X191531D01*
X191603Y186956D01*
X192006Y185983D01*
X192647Y185147D01*
X193483Y184506D01*
X194456Y184103D01*
X195500Y183966D01*
X197500D01*
Y187500D01*
D02*
G37*
G36*
X14469D02*
X8500D01*
Y183966D01*
X10500D01*
X11544Y184103D01*
X12517Y184506D01*
X13353Y185147D01*
X13994Y185983D01*
X14397Y186956D01*
X14469Y187500D01*
D02*
G37*
G36*
X10500Y172035D02*
X8500D01*
Y168500D01*
X14469D01*
X14397Y169044D01*
X13994Y170017D01*
X13353Y170853D01*
X12517Y171494D01*
X11544Y171897D01*
X10500Y172035D01*
D02*
G37*
G36*
X14469Y167500D02*
X8500D01*
Y163965D01*
X10500D01*
X11544Y164103D01*
X12517Y164506D01*
X13353Y165147D01*
X13994Y165983D01*
X14397Y166956D01*
X14469Y167500D01*
D02*
G37*
G36*
X197500Y162034D02*
X195500D01*
X194456Y161897D01*
X193483Y161494D01*
X192647Y160853D01*
X192006Y160017D01*
X191603Y159044D01*
X191531Y158500D01*
X197500D01*
Y162034D01*
D02*
G37*
G36*
Y157500D02*
X191531D01*
X191603Y156956D01*
X192006Y155983D01*
X192647Y155147D01*
X193483Y154506D01*
X194456Y154103D01*
X195500Y153965D01*
X197500D01*
Y157500D01*
D02*
G37*
G36*
X118000Y89025D02*
X117034Y88833D01*
X116215Y88285D01*
X115774Y87626D01*
X115668Y87596D01*
X115214D01*
X115108Y87626D01*
X114667Y88285D01*
X113848Y88833D01*
X112882Y89025D01*
X111916Y88833D01*
X111097Y88285D01*
X110549Y87466D01*
X110357Y86500D01*
X110549Y85534D01*
X111097Y84715D01*
X111916Y84167D01*
X112708Y84010D01*
X112988Y83673D01*
X113083Y83403D01*
X112916Y82563D01*
X113108Y81597D01*
X113656Y80778D01*
X114475Y80230D01*
X115441Y80038D01*
X116407Y80230D01*
X117226Y80778D01*
X117667Y81437D01*
X117773Y81467D01*
X118227D01*
X118333Y81437D01*
X118774Y80778D01*
X119593Y80230D01*
X120559Y80038D01*
X121525Y80230D01*
X122344Y80778D01*
X122892Y81597D01*
X123084Y82563D01*
X122917Y83403D01*
X123012Y83673D01*
X123292Y84010D01*
X124084Y84167D01*
X124904Y84715D01*
X125451Y85534D01*
X125544Y86000D01*
X123118D01*
Y86500D01*
X122618D01*
Y88925D01*
X122152Y88833D01*
X121333Y88285D01*
X120892Y87626D01*
X120786Y87596D01*
X120332D01*
X120226Y87626D01*
X119785Y88285D01*
X118966Y88833D01*
X118000Y89025D01*
D02*
G37*
G36*
X123618Y88925D02*
Y87000D01*
X125544D01*
X125451Y87466D01*
X124904Y88285D01*
X124084Y88833D01*
X123618Y88925D01*
D02*
G37*
G36*
X103925Y89809D02*
X103150Y89707D01*
X102428Y89408D01*
X101808Y88932D01*
X101332Y88312D01*
X101033Y87590D01*
X100931Y86815D01*
Y84453D01*
X101033Y83678D01*
X101332Y82956D01*
X101808Y82336D01*
X102428Y81860D01*
X103150Y81561D01*
X103925Y81459D01*
X104700Y81561D01*
X105422Y81860D01*
X106042Y82336D01*
X106518Y82956D01*
X106817Y83678D01*
X106919Y84453D01*
Y86815D01*
X106817Y87590D01*
X106518Y88312D01*
X106042Y88932D01*
X105422Y89408D01*
X104700Y89707D01*
X103925Y89809D01*
D02*
G37*
G36*
X197500Y72035D02*
X195500D01*
X194456Y71897D01*
X193483Y71494D01*
X192647Y70853D01*
X192006Y70017D01*
X191603Y69044D01*
X191531Y68500D01*
X197500D01*
Y72035D01*
D02*
G37*
G36*
Y67500D02*
X191531D01*
X191603Y66956D01*
X192006Y65983D01*
X192647Y65147D01*
X193483Y64506D01*
X194456Y64103D01*
X195500Y63965D01*
X197500D01*
Y67500D01*
D02*
G37*
G36*
Y62034D02*
X195500D01*
X194456Y61897D01*
X193483Y61494D01*
X192647Y60853D01*
X192006Y60017D01*
X191603Y59044D01*
X191531Y58500D01*
X197500D01*
Y62034D01*
D02*
G37*
G36*
Y57500D02*
X191531D01*
X191603Y56956D01*
X192006Y55983D01*
X192647Y55147D01*
X193483Y54506D01*
X194456Y54103D01*
X195500Y53966D01*
X197500D01*
Y57500D01*
D02*
G37*
G36*
X98000Y51542D02*
X95882Y51375D01*
X93815Y50879D01*
X91852Y50066D01*
X90040Y48956D01*
X88424Y47576D01*
X87045Y45960D01*
X85934Y44148D01*
X85121Y42185D01*
X84625Y40118D01*
X84458Y38000D01*
X84625Y35882D01*
X85121Y33815D01*
X85934Y31852D01*
X87045Y30040D01*
X88424Y28425D01*
X90040Y27044D01*
X91852Y25934D01*
X93815Y25121D01*
X95882Y24625D01*
X98000Y24458D01*
X100118Y24625D01*
X102185Y25121D01*
X104148Y25934D01*
X105960Y27044D01*
X107576Y28425D01*
X108956Y30040D01*
X110066Y31852D01*
X110879Y33815D01*
X111375Y35882D01*
X111542Y38000D01*
X111375Y40118D01*
X110879Y42185D01*
X110066Y44148D01*
X108956Y45960D01*
X107576Y47576D01*
X105960Y48956D01*
X104148Y50066D01*
X102185Y50879D01*
X100118Y51375D01*
X98000Y51542D01*
D02*
G37*
G36*
X108500Y14469D02*
Y8500D01*
X112034D01*
Y10500D01*
X111897Y11544D01*
X111494Y12517D01*
X110853Y13353D01*
X110017Y13994D01*
X109044Y14397D01*
X108500Y14469D01*
D02*
G37*
G36*
X98500D02*
Y8500D01*
X102034D01*
Y10500D01*
X101897Y11544D01*
X101494Y12517D01*
X100853Y13353D01*
X100017Y13994D01*
X99044Y14397D01*
X98500Y14469D01*
D02*
G37*
G36*
X88500D02*
Y8500D01*
X92035D01*
Y10500D01*
X91897Y11544D01*
X91494Y12517D01*
X90853Y13353D01*
X90017Y13994D01*
X89044Y14397D01*
X88500Y14469D01*
D02*
G37*
G36*
X107500D02*
X106956Y14397D01*
X105983Y13994D01*
X105147Y13353D01*
X104506Y12517D01*
X104103Y11544D01*
X103965Y10500D01*
Y8500D01*
X107500D01*
Y14469D01*
D02*
G37*
G36*
X97500D02*
X96956Y14397D01*
X95983Y13994D01*
X95147Y13353D01*
X94506Y12517D01*
X94103Y11544D01*
X93966Y10500D01*
Y8500D01*
X97500D01*
Y14469D01*
D02*
G37*
G36*
X87500D02*
X86956Y14397D01*
X85983Y13994D01*
X85147Y13353D01*
X84506Y12517D01*
X84103Y11544D01*
X83965Y10500D01*
Y8500D01*
X87500D01*
Y14469D01*
D02*
G37*
G36*
X197500Y142034D02*
X195500D01*
X194456Y141897D01*
X193483Y141494D01*
X192647Y140853D01*
X192006Y140017D01*
X191603Y139044D01*
X191531Y138500D01*
X197500D01*
Y142034D01*
D02*
G37*
G36*
Y137500D02*
X191531D01*
X191603Y136956D01*
X192006Y135983D01*
X192647Y135147D01*
X193483Y134506D01*
X194456Y134103D01*
X195500Y133966D01*
X197500D01*
Y137500D01*
D02*
G37*
G36*
Y132035D02*
X195500D01*
X194456Y131897D01*
X193483Y131494D01*
X192647Y130853D01*
X192006Y130017D01*
X191603Y129044D01*
X191531Y128500D01*
X197500D01*
Y132035D01*
D02*
G37*
G36*
Y127500D02*
X191531D01*
X191603Y126956D01*
X192006Y125983D01*
X192647Y125147D01*
X193483Y124506D01*
X194456Y124103D01*
X195500Y123966D01*
X197500D01*
Y127500D01*
D02*
G37*
G36*
X10500Y82034D02*
X8500D01*
Y78500D01*
X14469D01*
X14397Y79044D01*
X13994Y80017D01*
X13353Y80853D01*
X12517Y81494D01*
X11544Y81897D01*
X10500Y82034D01*
D02*
G37*
G36*
X14469Y77500D02*
X8500D01*
Y73966D01*
X10500D01*
X11544Y74103D01*
X12517Y74506D01*
X13353Y75147D01*
X13994Y75983D01*
X14397Y76956D01*
X14469Y77500D01*
D02*
G37*
G36*
X10500Y72035D02*
X8500D01*
Y68500D01*
X14469D01*
X14397Y69044D01*
X13994Y70017D01*
X13353Y70853D01*
X12517Y71494D01*
X11544Y71897D01*
X10500Y72035D01*
D02*
G37*
G36*
X14469Y67500D02*
X8500D01*
Y63965D01*
X10500D01*
X11544Y64103D01*
X12517Y64506D01*
X13353Y65147D01*
X13994Y65983D01*
X14397Y66956D01*
X14469Y67500D01*
D02*
G37*
G36*
X12000Y14500D02*
X8500D01*
Y8500D01*
X12000D01*
Y14500D01*
D02*
G37*
%LPD*%
D16*
X68650Y42050D02*
X74600Y48000D01*
X52700Y26100D02*
X68650Y42050D01*
X72750D02*
X72800Y42000D01*
X68650Y42050D02*
X72750D01*
X66300Y126000D02*
X75600D01*
X79500Y114000D02*
X80000D01*
X78000Y112500D02*
X79500Y114000D01*
X80000D02*
Y114500D01*
X89100Y117700D02*
Y119200D01*
X83200Y111800D02*
X89100Y117700D01*
X83200Y109200D02*
Y111800D01*
X156000Y83200D02*
X168000Y95200D01*
X156000Y66000D02*
Y83200D01*
Y66000D02*
X174000Y48000D01*
X154000Y86800D02*
X165200Y98000D01*
X154000Y64000D02*
Y86800D01*
Y64000D02*
X180000Y38000D01*
X152000Y90400D02*
X162400Y100800D01*
X152000Y62000D02*
Y90400D01*
Y62000D02*
X186000Y28000D01*
X150000Y94000D02*
X159600Y103600D01*
X150000Y60000D02*
Y94000D01*
Y60000D02*
X198000Y12000D01*
X148000Y97600D02*
X156800Y106400D01*
X148000Y58000D02*
Y97600D01*
Y58000D02*
X188000Y18000D01*
X146000Y101200D02*
X154000Y109200D01*
X146000Y56000D02*
Y101200D01*
Y56000D02*
X178000Y24000D01*
X144000Y104800D02*
X151200Y112000D01*
X144000Y54000D02*
Y104800D01*
Y54000D02*
X168000Y30000D01*
X142000Y108400D02*
X148400Y114800D01*
X142000Y52000D02*
Y108400D01*
Y52000D02*
X158000Y36000D01*
X140000Y112000D02*
X145600Y117600D01*
X140000Y50000D02*
Y112000D01*
Y50000D02*
X148000Y42000D01*
X138000Y115600D02*
X142800Y120400D01*
X136000Y122000D02*
X140000Y126000D01*
X136000Y42000D02*
Y122000D01*
X128000Y34000D02*
X136000Y42000D01*
X140000Y126000D02*
Y134400D01*
X142800Y120400D02*
Y137200D01*
X145600Y117600D02*
Y140000D01*
X148400Y114800D02*
Y142800D01*
X151200Y112000D02*
Y145600D01*
X154000Y109200D02*
Y148453D01*
X156800Y106400D02*
Y151200D01*
X159600Y103600D02*
Y154000D01*
X162400Y100800D02*
Y156800D01*
X165200Y98000D02*
Y159600D01*
X168000Y95200D02*
Y162528D01*
X138000Y8000D02*
Y115600D01*
X128000Y8000D02*
Y34000D01*
X148000Y8000D02*
Y42000D01*
X158000Y8000D02*
Y36000D01*
X168000Y8000D02*
Y30000D01*
X178000Y8000D02*
Y24000D01*
X188000Y8000D02*
Y18000D01*
X198000Y8000D02*
Y12000D01*
X174000Y48000D02*
X198000D01*
X180000Y38000D02*
X198000D01*
X186000Y28000D02*
X198000D01*
X30300Y35500D02*
Y124700D01*
X22600Y132400D02*
X30300Y124700D01*
X13600Y132400D02*
X22600D01*
X78000Y8000D02*
Y112500D01*
X52700Y15900D02*
Y26100D01*
Y15900D02*
X58000Y10600D01*
X44500Y24200D02*
X70145Y49845D01*
X44500Y16300D02*
Y24200D01*
X38000Y9800D02*
X44500Y16300D01*
X48000Y24600D02*
X72337Y48937D01*
X38000Y8000D02*
Y9800D01*
X58000Y8000D02*
Y10600D01*
X48000Y8000D02*
Y24600D01*
X70145Y49845D02*
Y115345D01*
X72337Y48937D02*
Y114437D01*
X74600Y48000D02*
Y113500D01*
X104200Y143100D01*
X100500Y142600D02*
Y152700D01*
X102300Y154500D01*
X8000Y158000D02*
X28000D01*
X44000Y142000D01*
X8000Y148000D02*
X29900D01*
X8000Y138000D02*
X13600Y132400D01*
X29900Y148000D02*
X40700Y137200D01*
X75600Y142000D02*
X80000Y146400D01*
Y156800D01*
X81200Y158000D01*
X88000D01*
Y157600D02*
Y158000D01*
Y157600D02*
X89142Y156458D01*
X44000Y142000D02*
X75600D01*
X40700Y137200D02*
X75100D01*
X83200Y145300D01*
Y153200D01*
X84000Y154000D01*
X90100D01*
X92600Y156500D01*
X74600Y132400D02*
X86800Y144600D01*
Y148453D01*
X22600Y132400D02*
X74600D01*
X72337Y114437D02*
X100500Y142600D01*
X75600Y126000D02*
X88200Y138600D01*
X70145Y115345D02*
X89500Y134700D01*
X89815D01*
X97600Y142485D01*
Y146100D01*
X68800Y118000D02*
X75200Y124400D01*
X76744D01*
X88644Y136300D01*
X89153D01*
X91500Y138647D01*
Y149600D01*
X90200Y150900D02*
X91500Y149600D01*
D18*
X0Y0D02*
Y254000D01*
X205500D01*
Y0D02*
Y254000D01*
X0Y0D02*
X205500D01*
D47*
X178000Y238000D02*
D03*
X28000D02*
D03*
X98000Y38000D02*
D03*
D48*
X198000Y28000D02*
D03*
Y38000D02*
D03*
Y48000D02*
D03*
Y58000D02*
D03*
Y68000D02*
D03*
Y78000D02*
D03*
Y88000D02*
D03*
Y98000D02*
D03*
Y108000D02*
D03*
Y118000D02*
D03*
Y128000D02*
D03*
Y138000D02*
D03*
Y148000D02*
D03*
Y158000D02*
D03*
Y168000D02*
D03*
Y178000D02*
D03*
Y188000D02*
D03*
Y198000D02*
D03*
Y208000D02*
D03*
X8000Y28000D02*
D03*
Y38000D02*
D03*
Y48000D02*
D03*
Y58000D02*
D03*
Y68000D02*
D03*
Y78000D02*
D03*
Y88000D02*
D03*
Y98000D02*
D03*
Y108000D02*
D03*
Y118000D02*
D03*
Y128000D02*
D03*
Y138000D02*
D03*
Y148000D02*
D03*
Y158000D02*
D03*
Y168000D02*
D03*
Y178000D02*
D03*
Y188000D02*
D03*
Y198000D02*
D03*
Y208000D02*
D03*
D49*
X198000Y218000D02*
D03*
X8000D02*
D03*
D50*
X198000Y8000D02*
D03*
X188000D02*
D03*
X178000D02*
D03*
X168000D02*
D03*
X158000D02*
D03*
X148000D02*
D03*
X138000D02*
D03*
X128000D02*
D03*
X118000D02*
D03*
X108000D02*
D03*
X98000D02*
D03*
X88000D02*
D03*
X78000D02*
D03*
X68000D02*
D03*
X58000D02*
D03*
X48000D02*
D03*
X38000D02*
D03*
X28000D02*
D03*
X18000D02*
D03*
D51*
X8000D02*
D03*
D52*
X112882Y86500D02*
D03*
X115441Y82563D02*
D03*
X118000Y86500D02*
D03*
X123118D02*
D03*
X120559Y82563D02*
D03*
D53*
X103925Y85634D02*
D03*
X132075D02*
D03*
D54*
X72800Y42000D02*
D03*
X130000Y77500D02*
D03*
X92000Y122500D02*
D03*
X110000Y168500D02*
D03*
X102500D02*
D03*
X78000Y165500D02*
D03*
X106500Y149500D02*
D03*
X124000Y159500D02*
D03*
X40000Y18000D02*
D03*
X82000D02*
D03*
Y52000D02*
D03*
X66000D02*
D03*
Y84000D02*
D03*
Y74000D02*
D03*
X130000Y46000D02*
D03*
Y56000D02*
D03*
Y66000D02*
D03*
X60000Y130000D02*
D03*
X48000D02*
D03*
X36000D02*
D03*
X60000Y122000D02*
D03*
X48000D02*
D03*
X36000D02*
D03*
X60000Y114000D02*
D03*
X48000D02*
D03*
X36000D02*
D03*
X80000D02*
D03*
X83200Y109200D02*
D03*
X23400Y202800D02*
D03*
Y192400D02*
D03*
X49400D02*
D03*
X39000Y182000D02*
D03*
X54600Y156000D02*
D03*
X62400Y163800D02*
D03*
X187200Y106600D02*
D03*
Y119600D02*
D03*
Y132600D02*
D03*
X41600Y49400D02*
D03*
X33800Y57200D02*
D03*
X82000Y74000D02*
D03*
Y84000D02*
D03*
X93600Y70200D02*
D03*
X101400Y78000D02*
D03*
X166400Y67600D02*
D03*
X174200Y75400D02*
D03*
X182000Y83200D02*
D03*
X163800D02*
D03*
X174200Y93600D02*
D03*
Y106600D02*
D03*
Y119600D02*
D03*
Y132600D02*
D03*
Y145600D02*
D03*
Y158600D02*
D03*
X161200Y166400D02*
D03*
X132600D02*
D03*
X135200Y130000D02*
D03*
X182000Y213200D02*
D03*
X174200D02*
D03*
X166400D02*
D03*
X158600D02*
D03*
X150800D02*
D03*
X143000D02*
D03*
X135200D02*
D03*
X127400D02*
D03*
X119600D02*
D03*
X114400Y208000D02*
D03*
X109200Y202800D02*
D03*
X104000Y197600D02*
D03*
X98800Y192400D02*
D03*
X93600Y187200D02*
D03*
Y179400D02*
D03*
X184600Y192400D02*
D03*
X176800D02*
D03*
X169000D02*
D03*
X161200D02*
D03*
X153400D02*
D03*
X145600D02*
D03*
X137800D02*
D03*
X130000D02*
D03*
X122200Y189800D02*
D03*
X117000Y184600D02*
D03*
X111800Y179400D02*
D03*
X106600Y187200D02*
D03*
X111800Y192400D02*
D03*
X117000Y197600D02*
D03*
X124800Y202800D02*
D03*
X132600D02*
D03*
X140400D02*
D03*
X148200D02*
D03*
X156000D02*
D03*
X163800D02*
D03*
X171600D02*
D03*
X179400D02*
D03*
X187200D02*
D03*
X168000Y162400D02*
D03*
X165200Y159600D02*
D03*
X162400Y156800D02*
D03*
X159600Y154000D02*
D03*
X156800Y151200D02*
D03*
X153947Y148453D02*
D03*
X151200Y145600D02*
D03*
X148400Y142800D02*
D03*
X145600Y140000D02*
D03*
X142800Y137200D02*
D03*
X140000Y134400D02*
D03*
X89100Y119200D02*
D03*
X30300Y35500D02*
D03*
X66300Y126000D02*
D03*
X170100Y81800D02*
D03*
X104200Y143100D02*
D03*
X102300Y154500D02*
D03*
X97600Y146100D02*
D03*
X89142Y156458D02*
D03*
X92600Y156500D02*
D03*
X88200Y138600D02*
D03*
X86800Y148453D02*
D03*
X90200Y150900D02*
D03*
X106500Y122500D02*
D03*
X68800Y118000D02*
D03*
D55*
X187600Y88000D02*
X198000D01*
X188200Y148000D02*
X198000D01*
X181700Y141500D02*
X188200Y148000D01*
X181700Y93900D02*
X187600Y88000D01*
X181700Y93900D02*
Y141500D01*
X165250Y77450D02*
X181700Y93900D01*
M02*
