G04*
G04 #@! TF.GenerationSoftware,Altium Limited,Altium Designer,21.6.4 (81)*
G04*
G04 Layer_Physical_Order=1*
G04 Layer_Color=255*
%FSLAX25Y25*%
%MOIN*%
G70*
G04*
G04 #@! TF.SameCoordinates,808F42E2-5A5A-467D-BEA3-29F7E434B1D4*
G04*
G04*
G04 #@! TF.FilePolarity,Positive*
G04*
G01*
G75*
%ADD13C,0.00800*%
%ADD16C,0.01000*%
%ADD18C,0.01200*%
G04:AMPARAMS|DCode=22|XSize=39.37mil|YSize=35.43mil|CornerRadius=4.43mil|HoleSize=0mil|Usage=FLASHONLY|Rotation=270.000|XOffset=0mil|YOffset=0mil|HoleType=Round|Shape=RoundedRectangle|*
%AMROUNDEDRECTD22*
21,1,0.03937,0.02657,0,0,270.0*
21,1,0.03051,0.03543,0,0,270.0*
1,1,0.00886,-0.01329,-0.01526*
1,1,0.00886,-0.01329,0.01526*
1,1,0.00886,0.01329,0.01526*
1,1,0.00886,0.01329,-0.01526*
%
%ADD22ROUNDEDRECTD22*%
G04:AMPARAMS|DCode=23|XSize=39.37mil|YSize=35.43mil|CornerRadius=4.43mil|HoleSize=0mil|Usage=FLASHONLY|Rotation=180.000|XOffset=0mil|YOffset=0mil|HoleType=Round|Shape=RoundedRectangle|*
%AMROUNDEDRECTD23*
21,1,0.03937,0.02657,0,0,180.0*
21,1,0.03051,0.03543,0,0,180.0*
1,1,0.00886,-0.01526,0.01329*
1,1,0.00886,0.01526,0.01329*
1,1,0.00886,0.01526,-0.01329*
1,1,0.00886,-0.01526,-0.01329*
%
%ADD23ROUNDEDRECTD23*%
%ADD24R,0.03740X0.02953*%
%ADD25R,0.05000X0.02500*%
%ADD26R,0.02953X0.03740*%
%ADD42O,0.06496X0.01378*%
%ADD43O,0.01378X0.06496*%
%ADD44C,0.02000*%
%ADD45C,0.01600*%
%ADD46C,0.02600*%
%ADD47C,0.25000*%
%ADD48O,0.11000X0.06000*%
%ADD49R,0.11000X0.06000*%
%ADD50O,0.06000X0.11000*%
%ADD51R,0.06000X0.11000*%
%ADD52C,0.02953*%
G04:AMPARAMS|DCode=53|XSize=39.37mil|YSize=62.99mil|CornerRadius=19.68mil|HoleSize=0mil|Usage=FLASHONLY|Rotation=0.000|XOffset=0mil|YOffset=0mil|HoleType=Round|Shape=RoundedRectangle|*
%AMROUNDEDRECTD53*
21,1,0.03937,0.02362,0,0,0.0*
21,1,0.00000,0.06299,0,0,0.0*
1,1,0.03937,0.00000,-0.01181*
1,1,0.03937,0.00000,-0.01181*
1,1,0.03937,0.00000,0.01181*
1,1,0.03937,0.00000,0.01181*
%
%ADD53ROUNDEDRECTD53*%
%ADD54C,0.02400*%
G36*
X201466Y222000D02*
X198500D01*
Y218000D01*
Y214000D01*
X201466D01*
Y212362D01*
X201014Y211967D01*
X200500Y212035D01*
X195500D01*
X194456Y211897D01*
X193483Y211494D01*
X192647Y210853D01*
X192110Y210153D01*
X192093Y210147D01*
X191858Y210099D01*
X191229Y210039D01*
X122200D01*
X121420Y209884D01*
X120758Y209442D01*
X97512Y186196D01*
X97070Y185534D01*
X96914Y184754D01*
Y176759D01*
X96911Y176671D01*
X96887Y176463D01*
X96854Y176279D01*
X96817Y176134D01*
X96779Y176027D01*
X96747Y175960D01*
X96728Y175930D01*
X96727Y175929D01*
X96673Y175885D01*
X96666Y175876D01*
X96584Y175822D01*
X96439Y175604D01*
X96419Y175580D01*
X96415Y175568D01*
X96266Y175345D01*
X96154Y174782D01*
Y172655D01*
X95955Y172420D01*
X93966Y170431D01*
X93634Y169935D01*
X93518Y169350D01*
Y167169D01*
X93079Y166809D01*
X92420Y166678D01*
X92094Y166460D01*
X91769Y166678D01*
X91110Y166809D01*
X90451Y166678D01*
X90126Y166460D01*
X89801Y166678D01*
X89142Y166809D01*
X88483Y166678D01*
X88157Y166460D01*
X87832Y166678D01*
X87173Y166809D01*
X86514Y166678D01*
X85956Y166304D01*
X85582Y165746D01*
X85451Y165087D01*
Y159968D01*
X85582Y159309D01*
X85956Y158751D01*
X86514Y158378D01*
X86993Y158282D01*
X87261Y157836D01*
X87299Y157660D01*
X87069Y157317D01*
X86899Y156458D01*
X87069Y155600D01*
X87556Y154872D01*
X88084Y154519D01*
X87902Y153919D01*
X85614D01*
X85254Y154358D01*
X85123Y155017D01*
X84905Y155342D01*
X85123Y155668D01*
X85254Y156327D01*
X85123Y156986D01*
X84749Y157545D01*
X84190Y157918D01*
X83531Y158049D01*
X78413D01*
X77754Y157918D01*
X77196Y157545D01*
X76822Y156986D01*
X76691Y156327D01*
X76822Y155668D01*
X77040Y155342D01*
X76822Y155017D01*
X76691Y154358D01*
X76822Y153699D01*
X77040Y153374D01*
X76822Y153049D01*
X76691Y152390D01*
X76822Y151731D01*
X77040Y151406D01*
X76822Y151080D01*
X76691Y150421D01*
X76822Y149762D01*
X77040Y149437D01*
X76822Y149112D01*
X76691Y148453D01*
X76331Y148014D01*
X74232D01*
Y148870D01*
X73285D01*
Y150130D01*
X74232D01*
Y155870D01*
X69279D01*
Y155870D01*
X68721D01*
Y155870D01*
X65924D01*
X65924Y155870D01*
X65922Y155870D01*
X65714D01*
X65693Y155872D01*
X65687Y155870D01*
X65569D01*
X65349Y156058D01*
X56729Y164678D01*
Y165954D01*
X57289Y166066D01*
X57766Y166384D01*
X58085Y166862D01*
X58197Y167425D01*
Y170082D01*
X58085Y170645D01*
X57766Y171123D01*
X57289Y171441D01*
X57169Y171465D01*
Y172735D01*
X57289Y172758D01*
X57766Y173077D01*
X58085Y173555D01*
X58197Y174118D01*
Y176775D01*
X58085Y177338D01*
X57766Y177815D01*
X57289Y178134D01*
X56726Y178246D01*
X54600D01*
X54364Y178445D01*
X33728Y199081D01*
X33232Y199413D01*
X32647Y199529D01*
X14211D01*
X14196Y199531D01*
X13994Y200017D01*
X13353Y200853D01*
X12517Y201494D01*
X11544Y201897D01*
X10500Y202034D01*
X5500D01*
X4634Y201921D01*
X4034Y202294D01*
Y203706D01*
X4634Y204079D01*
X5500Y203965D01*
X7500D01*
Y208000D01*
Y212035D01*
X5500D01*
X4634Y211921D01*
X4034Y212294D01*
Y214000D01*
X14500D01*
Y222000D01*
X4034D01*
Y249966D01*
X20583D01*
X20746Y249388D01*
X20040Y248955D01*
X18425Y247575D01*
X17044Y245960D01*
X15934Y244148D01*
X15121Y242185D01*
X14625Y240118D01*
X14458Y238000D01*
X14625Y235882D01*
X15121Y233815D01*
X15934Y231852D01*
X17044Y230040D01*
X18425Y228425D01*
X20040Y227045D01*
X21852Y225934D01*
X23815Y225121D01*
X25882Y224625D01*
X28000Y224458D01*
X30118Y224625D01*
X32185Y225121D01*
X34148Y225934D01*
X35960Y227045D01*
X37576Y228425D01*
X38956Y230040D01*
X40066Y231852D01*
X40879Y233815D01*
X41375Y235882D01*
X41542Y238000D01*
X41375Y240118D01*
X40879Y242185D01*
X40066Y244148D01*
X38956Y245960D01*
X37576Y247575D01*
X35960Y248955D01*
X35254Y249388D01*
X35417Y249966D01*
X170583D01*
X170746Y249388D01*
X170040Y248955D01*
X168424Y247575D01*
X167044Y245960D01*
X165934Y244148D01*
X165121Y242185D01*
X164625Y240118D01*
X164458Y238000D01*
X164625Y235882D01*
X165121Y233815D01*
X165934Y231852D01*
X167044Y230040D01*
X168424Y228425D01*
X170040Y227045D01*
X171852Y225934D01*
X173815Y225121D01*
X175882Y224625D01*
X178000Y224458D01*
X180118Y224625D01*
X182185Y225121D01*
X184148Y225934D01*
X185960Y227045D01*
X187575Y228425D01*
X188955Y230040D01*
X190066Y231852D01*
X190879Y233815D01*
X191375Y235882D01*
X191542Y238000D01*
X191375Y240118D01*
X190879Y242185D01*
X190066Y244148D01*
X188955Y245960D01*
X187575Y247575D01*
X185960Y248955D01*
X185254Y249388D01*
X185417Y249966D01*
X201466D01*
Y222000D01*
D02*
G37*
G36*
X193285Y206008D02*
X193259Y206196D01*
X193181Y206365D01*
X193051Y206514D01*
X192868Y206643D01*
X192634Y206752D01*
X192348Y206841D01*
X192009Y206911D01*
X191619Y206960D01*
X191176Y206990D01*
X190681Y207000D01*
Y209000D01*
X191176Y209010D01*
X192009Y209089D01*
X192348Y209159D01*
X192634Y209248D01*
X192868Y209357D01*
X193051Y209486D01*
X193181Y209635D01*
X193259Y209804D01*
X193285Y209992D01*
Y206008D01*
D02*
G37*
G36*
X191520Y205945D02*
X191842Y205904D01*
X192093Y205853D01*
X192110Y205847D01*
X192647Y205147D01*
X193483Y204506D01*
X194456Y204103D01*
X195500Y203965D01*
X200500D01*
X201014Y204033D01*
X201466Y203638D01*
Y202362D01*
X201014Y201967D01*
X200500Y202034D01*
X195500D01*
X194456Y201897D01*
X193483Y201494D01*
X192647Y200853D01*
X192110Y200153D01*
X192093Y200147D01*
X191858Y200099D01*
X191229Y200039D01*
X122600D01*
X121820Y199884D01*
X121158Y199442D01*
X104204Y182488D01*
X103762Y181827D01*
X103607Y181046D01*
Y176759D01*
X103604Y176671D01*
X103580Y176463D01*
X103547Y176279D01*
X103510Y176134D01*
X103472Y176027D01*
X103440Y175960D01*
X103421Y175930D01*
X103420Y175929D01*
X103366Y175885D01*
X103358Y175876D01*
X103277Y175822D01*
X103132Y175604D01*
X103112Y175580D01*
X103108Y175568D01*
X102959Y175345D01*
X102935Y175224D01*
X101665D01*
X101641Y175345D01*
X101492Y175568D01*
X101488Y175580D01*
X101468Y175604D01*
X101323Y175822D01*
X101242Y175876D01*
X101234Y175885D01*
X101180Y175929D01*
X101179Y175930D01*
X101160Y175960D01*
X101128Y176027D01*
X101090Y176134D01*
X101053Y176279D01*
X101023Y176449D01*
X100993Y176789D01*
Y183909D01*
X123045Y205961D01*
X191285D01*
X191520Y205945D01*
D02*
G37*
G36*
X13319Y198902D02*
X13353Y198818D01*
X13411Y198743D01*
X13491Y198679D01*
X13594Y198624D01*
X13720Y198579D01*
X13869Y198545D01*
X14041Y198520D01*
X14236Y198505D01*
X14453Y198500D01*
Y197500D01*
X14236Y197495D01*
X14041Y197480D01*
X13869Y197455D01*
X13720Y197421D01*
X13594Y197376D01*
X13491Y197321D01*
X13411Y197257D01*
X13353Y197182D01*
X13319Y197098D01*
X13308Y197003D01*
Y198996D01*
X13319Y198902D01*
D02*
G37*
G36*
X193285Y196008D02*
X193259Y196196D01*
X193181Y196365D01*
X193051Y196514D01*
X192868Y196643D01*
X192634Y196752D01*
X192348Y196841D01*
X192009Y196911D01*
X191619Y196960D01*
X191176Y196990D01*
X190681Y197000D01*
Y199000D01*
X191176Y199010D01*
X192009Y199089D01*
X192348Y199159D01*
X192634Y199248D01*
X192868Y199357D01*
X193051Y199486D01*
X193181Y199635D01*
X193259Y199804D01*
X193285Y199992D01*
Y196008D01*
D02*
G37*
G36*
X51987Y176497D02*
X52144Y176329D01*
X52203Y176255D01*
Y174118D01*
X52315Y173555D01*
X52634Y173077D01*
X53111Y172758D01*
X53232Y172735D01*
Y171465D01*
X53111Y171441D01*
X52634Y171123D01*
X52315Y170645D01*
X52203Y170082D01*
Y167425D01*
X52315Y166862D01*
X52634Y166384D01*
X53111Y166066D01*
X53671Y165954D01*
Y164044D01*
X53787Y163459D01*
X54119Y162963D01*
X63559Y153522D01*
X63625Y153447D01*
X63718Y153329D01*
X63768Y153257D01*
Y153174D01*
X63768Y153173D01*
X63768Y153172D01*
Y153083D01*
X63760Y153044D01*
X63768Y153007D01*
Y150130D01*
X68721D01*
Y150130D01*
X69279D01*
Y150130D01*
X70227D01*
Y148870D01*
X69320D01*
X69279Y148870D01*
X68721D01*
X68679Y148870D01*
X66744D01*
Y146000D01*
X66244D01*
Y145500D01*
X63768D01*
Y143270D01*
X63768Y143130D01*
Y142670D01*
X63768Y142530D01*
Y140300D01*
X66244D01*
Y139800D01*
X66744D01*
Y136930D01*
X68679D01*
X68721Y136930D01*
X69279D01*
X69320Y136930D01*
X74232D01*
Y138552D01*
X74481Y138719D01*
X76123Y140360D01*
X76774Y140163D01*
X76822Y139920D01*
X77040Y139594D01*
X76822Y139269D01*
X76691Y138610D01*
X76822Y137951D01*
X77040Y137626D01*
X76822Y137301D01*
X76691Y136642D01*
X76822Y135983D01*
X77040Y135658D01*
X76822Y135332D01*
X76691Y134673D01*
X76822Y134014D01*
X77196Y133456D01*
X77754Y133082D01*
X78413Y132951D01*
X83531D01*
X84190Y133082D01*
X84749Y133456D01*
X85123Y134014D01*
X85254Y134673D01*
X85123Y135332D01*
X84905Y135658D01*
X85123Y135983D01*
X85254Y136642D01*
X85614Y137081D01*
X86517D01*
X86537Y137078D01*
X86567Y137071D01*
X86578Y137067D01*
X86614Y137014D01*
X87342Y136528D01*
X88200Y136357D01*
X89058Y136528D01*
X89786Y137014D01*
X90272Y137742D01*
X90443Y138600D01*
X90272Y139458D01*
X89786Y140186D01*
X89058Y140672D01*
X88876Y140709D01*
X88749Y141346D01*
X88929Y141466D01*
X96129Y148666D01*
X96460Y149162D01*
X96577Y149747D01*
Y157886D01*
X97016Y158246D01*
X97675Y158378D01*
X98000Y158595D01*
X98325Y158378D01*
X98984Y158246D01*
X99643Y158378D01*
X99968Y158595D01*
X100294Y158378D01*
X100453Y158346D01*
Y159126D01*
X100575Y159309D01*
X100707Y159968D01*
Y162528D01*
Y165087D01*
X100654Y165351D01*
X100315D01*
X100341Y165400D01*
X100365Y165465D01*
X100385Y165546D01*
X100403Y165643D01*
X100431Y165884D01*
X100447Y166189D01*
X100453Y166557D01*
Y166709D01*
X100294Y166678D01*
X99968Y166460D01*
X99643Y166678D01*
X98984Y166809D01*
X98325Y166678D01*
X98000Y166460D01*
X97675Y166678D01*
X97016Y166809D01*
X96577Y167169D01*
Y168716D01*
X97903Y170043D01*
X98071Y170200D01*
X98145Y170259D01*
X100282D01*
X100845Y170371D01*
X101323Y170690D01*
X101641Y171167D01*
X101665Y171287D01*
X102935D01*
X102959Y171167D01*
X103277Y170690D01*
X103755Y170371D01*
X104318Y170259D01*
X106975D01*
X107538Y170371D01*
X107776Y170530D01*
X107796Y170537D01*
X107827Y170564D01*
X108016Y170690D01*
X108079Y170785D01*
X108095Y170799D01*
X108176Y170905D01*
X108225Y170954D01*
X108287Y171002D01*
X108368Y171050D01*
X108472Y171097D01*
X108603Y171142D01*
X108763Y171180D01*
X108952Y171210D01*
X109029Y171217D01*
X112041D01*
X112506Y170904D01*
X112630Y170780D01*
Y170220D01*
X112630Y170179D01*
Y168244D01*
X118370D01*
Y170179D01*
X118370Y170220D01*
Y170780D01*
X118370Y170820D01*
Y171182D01*
X118824Y171217D01*
X120041D01*
X120506Y170904D01*
X120630Y170780D01*
Y170220D01*
X120630Y170179D01*
Y168244D01*
X126370D01*
Y170179D01*
X126370Y170220D01*
Y170780D01*
X126370Y170820D01*
Y171182D01*
X126824Y171217D01*
X183273D01*
X183510Y171190D01*
X183802Y171135D01*
X184081Y171058D01*
X184349Y170960D01*
X184608Y170839D01*
X184860Y170697D01*
X185105Y170530D01*
X185292Y170380D01*
X189114Y166558D01*
X189776Y166116D01*
X190556Y165961D01*
X191293D01*
X191507Y165947D01*
X191824Y165908D01*
X192072Y165860D01*
X192109Y165849D01*
X192647Y165147D01*
X193483Y164506D01*
X194456Y164103D01*
X195500Y163965D01*
X200500D01*
X201014Y164033D01*
X201466Y163638D01*
Y162362D01*
X201014Y161967D01*
X200500Y162034D01*
X198500D01*
Y158000D01*
Y153965D01*
X200500D01*
X201014Y154033D01*
X201466Y153638D01*
Y152362D01*
X201014Y151967D01*
X200500Y152034D01*
X195500D01*
X194456Y151897D01*
X193483Y151494D01*
X192647Y150853D01*
X192006Y150017D01*
X191603Y149044D01*
X191465Y148000D01*
X191603Y146956D01*
X192006Y145983D01*
X192647Y145147D01*
X193483Y144506D01*
X194456Y144103D01*
X195500Y143965D01*
X200500D01*
X201014Y144033D01*
X201466Y143638D01*
Y142362D01*
X201014Y141967D01*
X200500Y142034D01*
X198500D01*
Y138000D01*
Y133966D01*
X200500D01*
X201014Y134033D01*
X201466Y133638D01*
Y132362D01*
X201014Y131967D01*
X200500Y132035D01*
X198500D01*
Y128000D01*
Y123966D01*
X200500D01*
X201014Y124033D01*
X201466Y123638D01*
Y122362D01*
X201014Y121967D01*
X200500Y122035D01*
X195500D01*
X194456Y121897D01*
X193483Y121494D01*
X192647Y120853D01*
X192006Y120017D01*
X191603Y119044D01*
X191465Y118000D01*
X191603Y116956D01*
X192006Y115983D01*
X192647Y115147D01*
X193483Y114506D01*
X194456Y114103D01*
X195500Y113965D01*
X200500D01*
X201014Y114033D01*
X201466Y113638D01*
Y112362D01*
X201014Y111967D01*
X200500Y112034D01*
X195500D01*
X194456Y111897D01*
X193483Y111494D01*
X192647Y110853D01*
X192006Y110017D01*
X191603Y109044D01*
X191465Y108000D01*
X191603Y106956D01*
X192006Y105983D01*
X192647Y105147D01*
X193483Y104506D01*
X194456Y104103D01*
X195500Y103965D01*
X200500D01*
X201014Y104033D01*
X201466Y103638D01*
Y102362D01*
X201014Y101967D01*
X200500Y102034D01*
X195500D01*
X194456Y101897D01*
X193483Y101494D01*
X192647Y100853D01*
X192006Y100017D01*
X191603Y99044D01*
X191465Y98000D01*
X191603Y96956D01*
X192006Y95983D01*
X192647Y95147D01*
X193483Y94506D01*
X194456Y94103D01*
X195500Y93966D01*
X200500D01*
X201014Y94033D01*
X201466Y93638D01*
Y92362D01*
X201014Y91967D01*
X200500Y92035D01*
X195500D01*
X194456Y91897D01*
X193483Y91494D01*
X192647Y90853D01*
X192006Y90017D01*
X191603Y89044D01*
X191465Y88000D01*
X191603Y86956D01*
X192006Y85983D01*
X192647Y85147D01*
X193483Y84506D01*
X194456Y84103D01*
X195500Y83965D01*
X200500D01*
X201014Y84033D01*
X201466Y83638D01*
Y82362D01*
X201014Y81967D01*
X200500Y82034D01*
X195500D01*
X194456Y81897D01*
X193483Y81494D01*
X192647Y80853D01*
X192006Y80017D01*
X191603Y79044D01*
X191465Y78000D01*
X191603Y76956D01*
X192006Y75983D01*
X192647Y75147D01*
X193483Y74506D01*
X194456Y74103D01*
X195500Y73966D01*
X200500D01*
X201014Y74033D01*
X201466Y73638D01*
Y72362D01*
X201014Y71967D01*
X200500Y72035D01*
X198500D01*
Y68000D01*
Y63965D01*
X200500D01*
X201014Y64033D01*
X201466Y63638D01*
Y62362D01*
X201014Y61967D01*
X200500Y62034D01*
X198500D01*
Y58000D01*
Y53966D01*
X200500D01*
X201014Y54033D01*
X201466Y53638D01*
Y52362D01*
X201014Y51967D01*
X200500Y52034D01*
X195500D01*
X194456Y51897D01*
X193483Y51494D01*
X192647Y50853D01*
X192006Y50017D01*
X191603Y49044D01*
X191465Y48000D01*
X191603Y46956D01*
X192006Y45983D01*
X192647Y45147D01*
X193483Y44506D01*
X194456Y44103D01*
X195500Y43966D01*
X200500D01*
X201014Y44033D01*
X201466Y43638D01*
Y42362D01*
X201014Y41967D01*
X200500Y42035D01*
X195500D01*
X194456Y41897D01*
X193483Y41494D01*
X192647Y40853D01*
X192006Y40017D01*
X191603Y39044D01*
X191465Y38000D01*
X191603Y36956D01*
X192006Y35983D01*
X192647Y35147D01*
X193483Y34506D01*
X194456Y34103D01*
X195500Y33966D01*
X200500D01*
X201014Y34033D01*
X201466Y33638D01*
Y32362D01*
X201014Y31967D01*
X200500Y32035D01*
X195500D01*
X194456Y31897D01*
X193483Y31494D01*
X192647Y30853D01*
X192006Y30017D01*
X191603Y29044D01*
X191465Y28000D01*
X191603Y26956D01*
X192006Y25983D01*
X192647Y25147D01*
X193483Y24506D01*
X194456Y24103D01*
X195500Y23966D01*
X200500D01*
X201014Y24033D01*
X201466Y23638D01*
Y13488D01*
X200897Y13295D01*
X200853Y13353D01*
X200017Y13994D01*
X199044Y14397D01*
X198000Y14535D01*
X196956Y14397D01*
X195983Y13994D01*
X195147Y13353D01*
X194506Y12517D01*
X194103Y11544D01*
X193965Y10500D01*
Y5500D01*
X194079Y4634D01*
X193706Y4034D01*
X192294D01*
X191921Y4634D01*
X192034Y5500D01*
Y10500D01*
X191897Y11544D01*
X191494Y12517D01*
X190853Y13353D01*
X190017Y13994D01*
X189044Y14397D01*
X188000Y14535D01*
X186956Y14397D01*
X185983Y13994D01*
X185147Y13353D01*
X184506Y12517D01*
X184103Y11544D01*
X183966Y10500D01*
Y5500D01*
X184079Y4634D01*
X183706Y4034D01*
X182294D01*
X181921Y4634D01*
X182035Y5500D01*
Y10500D01*
X181897Y11544D01*
X181494Y12517D01*
X180853Y13353D01*
X180017Y13994D01*
X179044Y14397D01*
X178000Y14535D01*
X176956Y14397D01*
X175983Y13994D01*
X175147Y13353D01*
X174506Y12517D01*
X174103Y11544D01*
X173966Y10500D01*
Y5500D01*
X174079Y4634D01*
X173706Y4034D01*
X172294D01*
X171921Y4634D01*
X172035Y5500D01*
Y10500D01*
X171897Y11544D01*
X171494Y12517D01*
X170853Y13353D01*
X170017Y13994D01*
X169044Y14397D01*
X168000Y14535D01*
X166956Y14397D01*
X165983Y13994D01*
X165147Y13353D01*
X164506Y12517D01*
X164103Y11544D01*
X163965Y10500D01*
Y5500D01*
X164079Y4634D01*
X163706Y4034D01*
X162294D01*
X161921Y4634D01*
X162034Y5500D01*
Y10500D01*
X161897Y11544D01*
X161494Y12517D01*
X160853Y13353D01*
X160017Y13994D01*
X159044Y14397D01*
X158000Y14535D01*
X156956Y14397D01*
X155983Y13994D01*
X155147Y13353D01*
X154506Y12517D01*
X154103Y11544D01*
X153965Y10500D01*
Y5500D01*
X154079Y4634D01*
X153706Y4034D01*
X152294D01*
X151921Y4634D01*
X152034Y5500D01*
Y10500D01*
X151897Y11544D01*
X151494Y12517D01*
X150853Y13353D01*
X150017Y13994D01*
X149044Y14397D01*
X148000Y14535D01*
X146956Y14397D01*
X145983Y13994D01*
X145147Y13353D01*
X144506Y12517D01*
X144103Y11544D01*
X143965Y10500D01*
Y5500D01*
X144079Y4634D01*
X143706Y4034D01*
X142294D01*
X141921Y4634D01*
X142034Y5500D01*
Y10500D01*
X141897Y11544D01*
X141494Y12517D01*
X140853Y13353D01*
X140017Y13994D01*
X139044Y14397D01*
X138000Y14535D01*
X136956Y14397D01*
X135983Y13994D01*
X135147Y13353D01*
X134506Y12517D01*
X134103Y11544D01*
X133966Y10500D01*
Y5500D01*
X134079Y4634D01*
X133706Y4034D01*
X132294D01*
X131921Y4634D01*
X132035Y5500D01*
Y10500D01*
X131897Y11544D01*
X131494Y12517D01*
X130853Y13353D01*
X130017Y13994D01*
X129044Y14397D01*
X128000Y14535D01*
X126956Y14397D01*
X125983Y13994D01*
X125147Y13353D01*
X124506Y12517D01*
X124103Y11544D01*
X123966Y10500D01*
Y5500D01*
X124079Y4634D01*
X123706Y4034D01*
X122294D01*
X121921Y4634D01*
X122035Y5500D01*
Y10500D01*
X121897Y11544D01*
X121494Y12517D01*
X120853Y13353D01*
X120017Y13994D01*
X119531Y14196D01*
X119529Y14211D01*
Y15700D01*
X119413Y16285D01*
X119081Y16781D01*
X115481Y20381D01*
X114985Y20713D01*
X114400Y20829D01*
X89634D01*
X73881Y36581D01*
X73385Y36913D01*
X72800Y37029D01*
X31977D01*
X31956Y37033D01*
X31926Y37040D01*
X31915Y37043D01*
X31886Y37086D01*
X31158Y37572D01*
X30300Y37743D01*
X29442Y37572D01*
X28714Y37086D01*
X28228Y36358D01*
X28057Y35500D01*
X28228Y34642D01*
X28714Y33914D01*
X29442Y33428D01*
X30300Y33257D01*
X31158Y33428D01*
X31886Y33914D01*
X31915Y33957D01*
X31926Y33961D01*
X31956Y33967D01*
X31977Y33971D01*
X72167D01*
X87919Y18219D01*
X88415Y17887D01*
X89000Y17771D01*
X113767D01*
X116471Y15067D01*
Y14211D01*
X116469Y14196D01*
X115983Y13994D01*
X115147Y13353D01*
X114506Y12517D01*
X114103Y11544D01*
X113965Y10500D01*
Y5500D01*
X114079Y4634D01*
X113706Y4034D01*
X112294D01*
X111921Y4634D01*
X112034Y5500D01*
Y7500D01*
X108000D01*
X103965D01*
Y5500D01*
X104079Y4634D01*
X103706Y4034D01*
X102294D01*
X101921Y4634D01*
X102034Y5500D01*
Y7500D01*
X98000D01*
X93966D01*
Y5500D01*
X94079Y4634D01*
X93706Y4034D01*
X92294D01*
X91921Y4634D01*
X92035Y5500D01*
Y7500D01*
X88000D01*
X83965D01*
Y5500D01*
X84079Y4634D01*
X83706Y4034D01*
X82294D01*
X81921Y4634D01*
X82034Y5500D01*
Y10500D01*
X81897Y11544D01*
X81494Y12517D01*
X80853Y13353D01*
X80017Y13994D01*
X79044Y14397D01*
X78000Y14535D01*
X76956Y14397D01*
X75983Y13994D01*
X75147Y13353D01*
X74506Y12517D01*
X74103Y11544D01*
X73966Y10500D01*
Y5500D01*
X74079Y4634D01*
X73706Y4034D01*
X72294D01*
X71921Y4634D01*
X72035Y5500D01*
Y10500D01*
X71897Y11544D01*
X71494Y12517D01*
X70853Y13353D01*
X70153Y13890D01*
X70147Y13907D01*
X70099Y14142D01*
X70039Y14771D01*
Y24400D01*
X69884Y25180D01*
X69442Y25842D01*
X65842Y29442D01*
X65180Y29884D01*
X64400Y30039D01*
X17240D01*
X17010Y30593D01*
X62871Y76455D01*
X89681D01*
X90019Y76417D01*
X90422Y76341D01*
X90808Y76234D01*
X91181Y76098D01*
X91540Y75931D01*
X91889Y75733D01*
X92228Y75503D01*
X92493Y75290D01*
X98142Y69642D01*
X98903Y69134D01*
X99800Y68955D01*
X159600D01*
X160497Y69134D01*
X161258Y69642D01*
X171758Y80142D01*
X172267Y80903D01*
X172445Y81800D01*
X172267Y82697D01*
X171758Y83458D01*
X170997Y83966D01*
X170100Y84145D01*
X169203Y83966D01*
X168442Y83458D01*
X158629Y73645D01*
X143839D01*
Y94271D01*
X143846Y94348D01*
X143876Y94537D01*
X143914Y94697D01*
X143959Y94828D01*
X144006Y94932D01*
X144054Y95013D01*
X144102Y95075D01*
X144151Y95124D01*
X144257Y95205D01*
X144271Y95221D01*
X144366Y95284D01*
X144492Y95473D01*
X144519Y95504D01*
X144526Y95524D01*
X144685Y95762D01*
X144797Y96325D01*
Y98982D01*
X144685Y99545D01*
X144366Y100023D01*
X143889Y100341D01*
X143769Y100365D01*
Y101635D01*
X143889Y101658D01*
X144366Y101977D01*
X144685Y102455D01*
X144797Y103018D01*
Y105675D01*
X144685Y106238D01*
X144366Y106716D01*
X143889Y107034D01*
X143329Y107146D01*
Y109100D01*
X143213Y109685D01*
X142881Y110181D01*
X139481Y113581D01*
X138985Y113913D01*
X138400Y114029D01*
X128500D01*
X127915Y113913D01*
X127419Y113581D01*
X125216Y111379D01*
X117698Y118898D01*
X117102Y119296D01*
X116400Y119435D01*
X106982D01*
X106268Y120095D01*
X102749Y123614D01*
X102845Y123936D01*
X103004Y124208D01*
X103580Y124322D01*
X103905Y124540D01*
X104231Y124322D01*
X104890Y124191D01*
X105549Y124322D01*
X105874Y124540D01*
X106199Y124322D01*
X106858Y124191D01*
X107517Y124322D01*
X107843Y124540D01*
X108168Y124322D01*
X108827Y124191D01*
X109486Y124322D01*
X110045Y124696D01*
X110418Y125254D01*
X110549Y125913D01*
Y131032D01*
X110418Y131691D01*
X110045Y132249D01*
X109486Y132623D01*
X108827Y132754D01*
X108168Y132623D01*
X107843Y132405D01*
X107517Y132623D01*
X106858Y132754D01*
X106199Y132623D01*
X105874Y132405D01*
X105549Y132623D01*
X104890Y132754D01*
X104231Y132623D01*
X103905Y132405D01*
X103580Y132623D01*
X102921Y132754D01*
X102262Y132623D01*
X101937Y132405D01*
X101612Y132623D01*
X100953Y132754D01*
X100294Y132623D01*
X99968Y132405D01*
X99643Y132623D01*
X98984Y132754D01*
X98325Y132623D01*
X98000Y132405D01*
X97675Y132623D01*
X97016Y132754D01*
X96357Y132623D01*
X96031Y132405D01*
X95706Y132623D01*
X95047Y132754D01*
X94388Y132623D01*
X94063Y132405D01*
X93738Y132623D01*
X93079Y132754D01*
X92420Y132623D01*
X92094Y132405D01*
X91769Y132623D01*
X91110Y132754D01*
X90451Y132623D01*
X90126Y132405D01*
X89801Y132623D01*
X89142Y132754D01*
X88483Y132623D01*
X88157Y132405D01*
X87832Y132623D01*
X87173Y132754D01*
X86514Y132623D01*
X85956Y132249D01*
X85582Y131691D01*
X85451Y131032D01*
Y125913D01*
X85582Y125254D01*
X85956Y124696D01*
X86514Y124322D01*
X87173Y124191D01*
X87612Y123831D01*
Y120900D01*
X87609Y120882D01*
X87603Y120855D01*
X87599Y120843D01*
X87514Y120786D01*
X87028Y120058D01*
X86857Y119200D01*
X87028Y118342D01*
X87514Y117614D01*
X88242Y117128D01*
X89100Y116957D01*
X89958Y117128D01*
X90686Y117614D01*
X91172Y118342D01*
X91343Y119200D01*
X91172Y120058D01*
X90686Y120786D01*
X90684Y120788D01*
X90682Y120794D01*
X90675Y120828D01*
X90671Y120852D01*
Y123831D01*
X91110Y124191D01*
X91769Y124322D01*
X92094Y124540D01*
X92420Y124322D01*
X93079Y124191D01*
X93518Y123831D01*
Y119453D01*
X93634Y118868D01*
X93966Y118371D01*
X99971Y112366D01*
Y107146D01*
X99411Y107034D01*
X98934Y106716D01*
X98615Y106238D01*
X98503Y105675D01*
Y103018D01*
X98615Y102455D01*
X98934Y101977D01*
X99411Y101658D01*
X99532Y101635D01*
Y100365D01*
X99411Y100341D01*
X98934Y100023D01*
X98615Y99545D01*
X98503Y98982D01*
Y98154D01*
X104497D01*
Y98982D01*
X104385Y99545D01*
X104066Y100023D01*
X103589Y100341D01*
X103469Y100365D01*
Y101635D01*
X103589Y101658D01*
X104066Y101977D01*
X104385Y102455D01*
X104457Y102817D01*
X106603D01*
X106675Y102455D01*
X106994Y101977D01*
X107471Y101658D01*
X107591Y101635D01*
Y100365D01*
X107471Y100341D01*
X106994Y100023D01*
X106675Y99545D01*
X106563Y98982D01*
Y96325D01*
X106675Y95762D01*
X106994Y95284D01*
X107471Y94966D01*
X108034Y94854D01*
X108071D01*
Y89781D01*
X108187Y89196D01*
X108519Y88700D01*
X110272Y86948D01*
X110296Y86910D01*
X110319Y86869D01*
X110338Y86826D01*
X110354Y86779D01*
X110367Y86727D01*
X110377Y86668D01*
X110381Y86623D01*
X110357Y86500D01*
X110549Y85534D01*
X111097Y84715D01*
X111916Y84167D01*
X112708Y84010D01*
X112988Y83673D01*
X113083Y83403D01*
X112916Y82563D01*
X113108Y81597D01*
X113656Y80778D01*
X114027Y80529D01*
X113845Y79929D01*
X111793D01*
X107127Y84595D01*
X107071Y84659D01*
X106985Y84768D01*
X106925Y84857D01*
X106919Y84868D01*
Y86815D01*
X106817Y87590D01*
X106518Y88312D01*
X106042Y88932D01*
X105422Y89408D01*
X104700Y89707D01*
X103925Y89809D01*
X103150Y89707D01*
X102428Y89408D01*
X101808Y88932D01*
X101332Y88312D01*
X101033Y87590D01*
X100931Y86815D01*
Y84453D01*
X101033Y83678D01*
X101332Y82956D01*
X101808Y82336D01*
X102428Y81860D01*
X103150Y81561D01*
X103925Y81459D01*
X104700Y81561D01*
X105422Y81860D01*
X105487Y81909D01*
X110078Y77319D01*
X110574Y76987D01*
X111159Y76871D01*
X125200D01*
X125785Y76987D01*
X126281Y77319D01*
X130751Y81788D01*
X131300Y81561D01*
X132075Y81459D01*
X132850Y81561D01*
X133572Y81860D01*
X134192Y82336D01*
X134668Y82956D01*
X134967Y83678D01*
X135069Y84453D01*
Y86815D01*
X134967Y87590D01*
X134668Y88312D01*
X134192Y88932D01*
X133616Y89374D01*
X133604Y89494D01*
Y95680D01*
X133710Y95768D01*
X136708D01*
Y100680D01*
X136708Y100721D01*
Y101279D01*
X136708Y101321D01*
Y103256D01*
X130968D01*
Y101321D01*
X130968Y101279D01*
Y100721D01*
X130968Y100680D01*
Y97363D01*
X130928Y97302D01*
X130900Y97277D01*
X130875Y97223D01*
X130662Y96904D01*
X130545Y96319D01*
Y89459D01*
X130540Y89388D01*
X130539Y89378D01*
X129958Y88932D01*
X129482Y88312D01*
X129183Y87590D01*
X129081Y86815D01*
Y84488D01*
X129063Y84461D01*
X128892Y84254D01*
X124566Y79929D01*
X122155D01*
X121973Y80529D01*
X122344Y80778D01*
X122892Y81597D01*
X123084Y82563D01*
X122917Y83403D01*
X123012Y83673D01*
X123292Y84010D01*
X124084Y84167D01*
X124904Y84715D01*
X125451Y85534D01*
X125544Y86000D01*
X123118D01*
Y87000D01*
X125544D01*
X125451Y87466D01*
X124904Y88285D01*
X124084Y88833D01*
X123744Y88900D01*
X123570Y89474D01*
X127099Y93003D01*
X127497Y93599D01*
X127636Y94301D01*
Y94661D01*
X127645Y94764D01*
X127671Y94924D01*
X127677Y94947D01*
X127769Y94966D01*
X128246Y95284D01*
X128565Y95762D01*
X128677Y96325D01*
Y98982D01*
X128565Y99545D01*
X128246Y100023D01*
X127769Y100341D01*
X127648Y100365D01*
Y101635D01*
X127769Y101658D01*
X128246Y101977D01*
X128565Y102455D01*
X128677Y103018D01*
Y105675D01*
X128565Y106238D01*
X128246Y106716D01*
X127769Y107034D01*
X127679Y107052D01*
X127672Y107080D01*
X127646Y107244D01*
X127636Y107353D01*
Y108199D01*
X127497Y108901D01*
X127323Y109160D01*
X129133Y110971D01*
X137767D01*
X140271Y108466D01*
Y107146D01*
X139711Y107034D01*
X139234Y106716D01*
X138915Y106238D01*
X138803Y105675D01*
Y103018D01*
X138915Y102455D01*
X139234Y101977D01*
X139711Y101658D01*
X139831Y101635D01*
Y100365D01*
X139711Y100341D01*
X139234Y100023D01*
X138915Y99545D01*
X138803Y98982D01*
Y96325D01*
X138915Y95762D01*
X139074Y95524D01*
X139081Y95504D01*
X139108Y95473D01*
X139234Y95284D01*
X139329Y95221D01*
X139343Y95205D01*
X139449Y95124D01*
X139498Y95075D01*
X139546Y95013D01*
X139594Y94932D01*
X139641Y94828D01*
X139686Y94697D01*
X139724Y94537D01*
X139754Y94348D01*
X139761Y94271D01*
Y73645D01*
X100771D01*
X95810Y78607D01*
X95597Y78872D01*
X95367Y79211D01*
X95169Y79559D01*
X95002Y79919D01*
X94866Y80292D01*
X94759Y80678D01*
X94683Y81081D01*
X94645Y81419D01*
Y105000D01*
X94467Y105897D01*
X93958Y106658D01*
X93197Y107167D01*
X92300Y107345D01*
X91797Y107245D01*
X88049D01*
X87469Y107298D01*
X87246Y107335D01*
X87070Y107376D01*
X86958Y107413D01*
X86948Y107417D01*
X86915Y107466D01*
X86438Y107785D01*
X85875Y107897D01*
X85642D01*
X85303Y108497D01*
X85443Y109200D01*
X85272Y110058D01*
X84786Y110786D01*
X84058Y111272D01*
X83200Y111443D01*
X82342Y111272D01*
X81614Y110786D01*
X81585Y110743D01*
X81574Y110740D01*
X81544Y110733D01*
X81523Y110729D01*
X80900D01*
X80315Y110613D01*
X79819Y110281D01*
X77664Y108127D01*
X77613Y108083D01*
X77514Y108007D01*
X77428Y107949D01*
X77357Y107910D01*
X77329Y107897D01*
X76525D01*
X75962Y107785D01*
X75485Y107466D01*
X75166Y106989D01*
X75054Y106429D01*
X70978D01*
X70393Y106313D01*
X69897Y105981D01*
X69055Y105140D01*
X69013Y105104D01*
X68922Y105035D01*
X68839Y104980D01*
X68765Y104939D01*
X68700Y104909D01*
X68644Y104889D01*
X68597Y104877D01*
X68563Y104872D01*
X65200D01*
Y100372D01*
Y97128D01*
X68563D01*
X68597Y97123D01*
X68644Y97111D01*
X68700Y97091D01*
X68765Y97061D01*
X68839Y97020D01*
X68922Y96965D01*
X69013Y96896D01*
X69055Y96860D01*
X69897Y96019D01*
X70393Y95687D01*
X70978Y95571D01*
X75054D01*
X75166Y95011D01*
X75485Y94534D01*
X75962Y94215D01*
X76525Y94103D01*
X79182D01*
X79745Y94215D01*
X80223Y94534D01*
X80541Y95011D01*
X80565Y95131D01*
X81835D01*
X81858Y95011D01*
X82177Y94534D01*
X82655Y94215D01*
X83218Y94103D01*
X84047D01*
Y97100D01*
Y100097D01*
X83218D01*
X82655Y99985D01*
X82177Y99666D01*
X81858Y99189D01*
X81835Y99068D01*
X80565D01*
X80541Y99189D01*
X80223Y99666D01*
X79745Y99985D01*
X79182Y100097D01*
X76525D01*
X75962Y99985D01*
X75485Y99666D01*
X75166Y99189D01*
X75054Y98629D01*
X72200D01*
Y103371D01*
X75054D01*
X75166Y102811D01*
X75485Y102334D01*
X75962Y102015D01*
X76525Y101903D01*
X79182D01*
X79745Y102015D01*
X80223Y102334D01*
X80541Y102811D01*
X80565Y102931D01*
X81835D01*
X81858Y102811D01*
X82177Y102334D01*
X82655Y102015D01*
X83218Y101903D01*
X85875D01*
X86438Y102015D01*
X86915Y102334D01*
X86948Y102383D01*
X86958Y102387D01*
X87070Y102424D01*
X87246Y102465D01*
X87460Y102501D01*
X88217Y102555D01*
X89955D01*
Y82298D01*
X89905Y82015D01*
X89827Y81780D01*
X89733Y81606D01*
X89626Y81475D01*
X89494Y81367D01*
X89320Y81273D01*
X89085Y81195D01*
X88802Y81145D01*
X61900D01*
X61003Y80967D01*
X60242Y80458D01*
X12397Y32613D01*
X12133Y32381D01*
X11763Y32091D01*
X11485Y31905D01*
X10500Y32035D01*
X5500D01*
X4634Y31921D01*
X4034Y32294D01*
Y33706D01*
X4634Y34079D01*
X5500Y33966D01*
X10500D01*
X11544Y34103D01*
X12517Y34506D01*
X13353Y35147D01*
X13994Y35983D01*
X14397Y36956D01*
X14535Y38000D01*
X14397Y39044D01*
X13994Y40017D01*
X13353Y40853D01*
X12517Y41494D01*
X11544Y41897D01*
X10500Y42035D01*
X5500D01*
X4634Y41921D01*
X4034Y42294D01*
Y43706D01*
X4634Y44079D01*
X5500Y43966D01*
X10500D01*
X11544Y44103D01*
X12517Y44506D01*
X13353Y45147D01*
X13994Y45983D01*
X14397Y46956D01*
X14535Y48000D01*
X14397Y49044D01*
X13994Y50017D01*
X13353Y50853D01*
X12517Y51494D01*
X11544Y51897D01*
X10500Y52034D01*
X5500D01*
X4634Y51921D01*
X4034Y52294D01*
Y53706D01*
X4634Y54079D01*
X5500Y53966D01*
X10500D01*
X11544Y54103D01*
X12517Y54506D01*
X13353Y55147D01*
X13994Y55983D01*
X14397Y56956D01*
X14535Y58000D01*
X14397Y59044D01*
X13994Y60017D01*
X13353Y60853D01*
X12517Y61494D01*
X11544Y61897D01*
X10500Y62034D01*
X5500D01*
X4634Y61921D01*
X4034Y62294D01*
Y63706D01*
X4634Y64079D01*
X5500Y63965D01*
X7500D01*
Y68000D01*
Y72035D01*
X5500D01*
X4634Y71921D01*
X4034Y72294D01*
Y73706D01*
X4634Y74079D01*
X5500Y73966D01*
X7500D01*
Y78000D01*
Y82034D01*
X5500D01*
X4634Y81921D01*
X4034Y82294D01*
Y83706D01*
X4634Y84079D01*
X5500Y83965D01*
X10500D01*
X11544Y84103D01*
X12517Y84506D01*
X13353Y85147D01*
X13994Y85983D01*
X14397Y86956D01*
X14535Y88000D01*
X14397Y89044D01*
X13994Y90017D01*
X13353Y90853D01*
X12517Y91494D01*
X11544Y91897D01*
X10500Y92035D01*
X5500D01*
X4634Y91921D01*
X4034Y92294D01*
Y93706D01*
X4634Y94079D01*
X5500Y93966D01*
X10500D01*
X11544Y94103D01*
X12517Y94506D01*
X13353Y95147D01*
X13994Y95983D01*
X14397Y96956D01*
X14535Y98000D01*
X14397Y99044D01*
X13994Y100017D01*
X13353Y100853D01*
X12517Y101494D01*
X11544Y101897D01*
X10500Y102034D01*
X5500D01*
X4634Y101921D01*
X4034Y102294D01*
Y103706D01*
X4634Y104079D01*
X5500Y103965D01*
X10500D01*
X11544Y104103D01*
X12517Y104506D01*
X13353Y105147D01*
X13994Y105983D01*
X14397Y106956D01*
X14535Y108000D01*
X14397Y109044D01*
X13994Y110017D01*
X13353Y110853D01*
X12517Y111494D01*
X11544Y111897D01*
X10500Y112034D01*
X5500D01*
X4634Y111921D01*
X4034Y112294D01*
Y113706D01*
X4634Y114079D01*
X5500Y113965D01*
X10500D01*
X11544Y114103D01*
X12517Y114506D01*
X13353Y115147D01*
X13994Y115983D01*
X14196Y116469D01*
X14211Y116471D01*
X67123D01*
X67144Y116467D01*
X67174Y116461D01*
X67185Y116457D01*
X67214Y116414D01*
X67942Y115928D01*
X68800Y115757D01*
X69658Y115928D01*
X70386Y116414D01*
X70415Y116457D01*
X70426Y116461D01*
X70456Y116467D01*
X70477Y116471D01*
X75366D01*
X77733Y114104D01*
X77745Y114087D01*
X77762Y114061D01*
X77767Y114051D01*
X77757Y114000D01*
X77928Y113142D01*
X78414Y112414D01*
X79142Y111928D01*
X80000Y111757D01*
X80858Y111928D01*
X81586Y112414D01*
X82072Y113142D01*
X82243Y114000D01*
X82072Y114858D01*
X81586Y115586D01*
X80858Y116072D01*
X80000Y116243D01*
X79949Y116233D01*
X79939Y116238D01*
X79913Y116255D01*
X79896Y116267D01*
X77081Y119081D01*
X76585Y119413D01*
X76000Y119529D01*
X70477D01*
X70456Y119533D01*
X70426Y119539D01*
X70415Y119543D01*
X70386Y119586D01*
X69658Y120072D01*
X68800Y120243D01*
X67942Y120072D01*
X67214Y119586D01*
X67185Y119543D01*
X67174Y119539D01*
X67144Y119533D01*
X67123Y119529D01*
X14211D01*
X14196Y119531D01*
X13994Y120017D01*
X13353Y120853D01*
X12517Y121494D01*
X11544Y121897D01*
X10500Y122035D01*
X5500D01*
X4634Y121921D01*
X4034Y122294D01*
Y123706D01*
X4634Y124079D01*
X5500Y123966D01*
X10500D01*
X11544Y124103D01*
X11942Y124268D01*
X12071Y124298D01*
X12082Y124305D01*
X12094Y124309D01*
X12168Y124344D01*
X12219Y124365D01*
X12273Y124382D01*
X12478Y124430D01*
X12559Y124443D01*
X12915Y124471D01*
X64623D01*
X64644Y124467D01*
X64674Y124460D01*
X64685Y124457D01*
X64714Y124414D01*
X65442Y123928D01*
X66300Y123757D01*
X67158Y123928D01*
X67886Y124414D01*
X68372Y125142D01*
X68543Y126000D01*
X68372Y126858D01*
X67886Y127586D01*
X67158Y128072D01*
X66300Y128243D01*
X65442Y128072D01*
X64714Y127586D01*
X64685Y127543D01*
X64674Y127540D01*
X64644Y127533D01*
X64623Y127529D01*
X14928D01*
X14532Y127980D01*
X14535Y128000D01*
X14397Y129044D01*
X13994Y130017D01*
X13353Y130853D01*
X12517Y131494D01*
X11544Y131897D01*
X10500Y132035D01*
X5500D01*
X4634Y131921D01*
X4034Y132294D01*
Y133706D01*
X4634Y134079D01*
X5500Y133966D01*
X10500D01*
X11544Y134103D01*
X12517Y134506D01*
X13353Y135147D01*
X13994Y135983D01*
X14397Y136956D01*
X14535Y138000D01*
X14397Y139044D01*
X13994Y140017D01*
X13353Y140853D01*
X12517Y141494D01*
X11544Y141897D01*
X10500Y142034D01*
X5500D01*
X4634Y141921D01*
X4034Y142294D01*
Y143706D01*
X4634Y144079D01*
X5500Y143965D01*
X10500D01*
X11544Y144103D01*
X12517Y144506D01*
X13353Y145147D01*
X13994Y145983D01*
X14397Y146956D01*
X14535Y148000D01*
X14397Y149044D01*
X13994Y150017D01*
X13353Y150853D01*
X12517Y151494D01*
X11544Y151897D01*
X10500Y152034D01*
X5500D01*
X4634Y151921D01*
X4034Y152294D01*
Y153706D01*
X4634Y154079D01*
X5500Y153965D01*
X10500D01*
X11544Y154103D01*
X12517Y154506D01*
X13353Y155147D01*
X13994Y155983D01*
X14397Y156956D01*
X14535Y158000D01*
X14397Y159044D01*
X13994Y160017D01*
X13353Y160853D01*
X12517Y161494D01*
X11544Y161897D01*
X10500Y162034D01*
X5500D01*
X4634Y161921D01*
X4034Y162294D01*
Y163706D01*
X4634Y164079D01*
X5500Y163965D01*
X7500D01*
Y168000D01*
Y172035D01*
X5500D01*
X4634Y171921D01*
X4034Y172294D01*
Y173706D01*
X4634Y174079D01*
X5500Y173966D01*
X10500D01*
X11544Y174103D01*
X12517Y174506D01*
X13353Y175147D01*
X13994Y175983D01*
X14397Y176956D01*
X14535Y178000D01*
X14397Y179044D01*
X13994Y180017D01*
X13353Y180853D01*
X12517Y181494D01*
X11544Y181897D01*
X10500Y182035D01*
X5500D01*
X4634Y181921D01*
X4034Y182294D01*
Y183706D01*
X4634Y184079D01*
X5500Y183966D01*
X7500D01*
Y188000D01*
Y192034D01*
X5500D01*
X4634Y191921D01*
X4034Y192294D01*
Y193706D01*
X4634Y194079D01*
X5500Y193965D01*
X10500D01*
X11544Y194103D01*
X12517Y194506D01*
X13353Y195147D01*
X13994Y195983D01*
X14196Y196469D01*
X14211Y196471D01*
X32013D01*
X51987Y176497D01*
D02*
G37*
G36*
X191520Y195945D02*
X191842Y195904D01*
X192093Y195853D01*
X192110Y195847D01*
X192647Y195147D01*
X193483Y194506D01*
X194456Y194103D01*
X195500Y193965D01*
X200500D01*
X201014Y194033D01*
X201466Y193638D01*
Y192362D01*
X201014Y191967D01*
X200500Y192034D01*
X198500D01*
Y188000D01*
Y183966D01*
X200500D01*
X201014Y184033D01*
X201466Y183638D01*
Y182362D01*
X201014Y181967D01*
X200500Y182035D01*
X195500D01*
X194456Y181897D01*
X193483Y181494D01*
X192647Y180853D01*
X192110Y180153D01*
X192093Y180147D01*
X191858Y180099D01*
X191229Y180039D01*
X190044D01*
X190044Y180039D01*
X189264Y179884D01*
X188602Y179442D01*
X185292Y176131D01*
X185105Y175982D01*
X184860Y175815D01*
X184608Y175672D01*
X184349Y175552D01*
X184081Y175454D01*
X183802Y175377D01*
X183510Y175321D01*
X183273Y175295D01*
X126750D01*
X126431Y175314D01*
X126370Y175321D01*
Y175732D01*
X125396D01*
X125358Y175740D01*
X125320Y175732D01*
X121680D01*
X121642Y175740D01*
X121604Y175732D01*
X120630D01*
Y175330D01*
X120176Y175295D01*
X118750D01*
X118431Y175314D01*
X118370Y175321D01*
Y175732D01*
X117396D01*
X117358Y175740D01*
X117320Y175732D01*
X113680D01*
X113642Y175740D01*
X113604Y175732D01*
X112630D01*
Y175330D01*
X112176Y175295D01*
X109029D01*
X108952Y175302D01*
X108763Y175332D01*
X108603Y175370D01*
X108472Y175415D01*
X108368Y175462D01*
X108287Y175510D01*
X108225Y175558D01*
X108176Y175607D01*
X108095Y175713D01*
X108079Y175726D01*
X108016Y175822D01*
X107934Y175876D01*
X107927Y175885D01*
X107873Y175929D01*
X107872Y175930D01*
X107852Y175960D01*
X107821Y176027D01*
X107783Y176134D01*
X107746Y176279D01*
X107716Y176449D01*
X107686Y176789D01*
Y180202D01*
X123445Y195961D01*
X191285D01*
X191520Y195945D01*
D02*
G37*
G36*
X193285Y176008D02*
X193259Y176196D01*
X193181Y176365D01*
X193051Y176514D01*
X192868Y176643D01*
X192634Y176752D01*
X192348Y176841D01*
X192009Y176911D01*
X191619Y176960D01*
X191176Y176990D01*
X190681Y177000D01*
Y179000D01*
X191176Y179010D01*
X192009Y179089D01*
X192348Y179159D01*
X192634Y179248D01*
X192868Y179357D01*
X193051Y179486D01*
X193181Y179635D01*
X193259Y179804D01*
X193285Y179992D01*
Y176008D01*
D02*
G37*
G36*
X53629Y177731D02*
X53987Y177429D01*
X54147Y177318D01*
X54294Y177233D01*
X54430Y177174D01*
X54552Y177142D01*
X54663Y177136D01*
X54761Y177156D01*
X54846Y177202D01*
X53247Y175997D01*
X53311Y176065D01*
X53345Y176149D01*
X53349Y176250D01*
X53322Y176367D01*
X53266Y176500D01*
X53178Y176650D01*
X53061Y176816D01*
X52914Y176998D01*
X52528Y177411D01*
X53432Y177922D01*
X53629Y177731D01*
D02*
G37*
G36*
X106653Y176893D02*
X106704Y176315D01*
X106749Y176064D01*
X106806Y175838D01*
X106877Y175638D01*
X106960Y175463D01*
X107056Y175314D01*
X107164Y175190D01*
X107286Y175092D01*
X104007D01*
X104129Y175190D01*
X104237Y175314D01*
X104333Y175463D01*
X104416Y175638D01*
X104487Y175838D01*
X104544Y176064D01*
X104589Y176315D01*
X104621Y176591D01*
X104647Y177221D01*
X106647D01*
X106653Y176893D01*
D02*
G37*
G36*
X99960D02*
X100011Y176315D01*
X100056Y176064D01*
X100113Y175838D01*
X100184Y175638D01*
X100267Y175463D01*
X100363Y175314D01*
X100471Y175190D01*
X100593Y175092D01*
X97314D01*
X97436Y175190D01*
X97544Y175314D01*
X97640Y175463D01*
X97723Y175638D01*
X97794Y175838D01*
X97851Y176064D01*
X97896Y176315D01*
X97928Y176591D01*
X97953Y177221D01*
X99954D01*
X99960Y176893D01*
D02*
G37*
G36*
X98954Y172256D02*
X98885Y172242D01*
X98793Y172201D01*
X98680Y172132D01*
X98545Y172035D01*
X98211Y171759D01*
X98122Y171676D01*
X98403Y171303D01*
X98335Y171367D01*
X98251Y171401D01*
X98150Y171405D01*
X98033Y171378D01*
X97900Y171321D01*
X97750Y171234D01*
X97584Y171117D01*
X97402Y170970D01*
X96989Y170584D01*
X96478Y171488D01*
X96669Y171685D01*
X96971Y172043D01*
X97082Y172203D01*
X97167Y172350D01*
X97226Y172485D01*
X97258Y172608D01*
X97264Y172719D01*
X97244Y172817D01*
X97198Y172902D01*
X97457Y172558D01*
X97829Y172983D01*
X97898Y173096D01*
X97940Y173187D01*
X97953Y173257D01*
X98954Y172256D01*
D02*
G37*
G36*
X125378Y174632D02*
X125438Y174553D01*
X125538Y174484D01*
X125678Y174423D01*
X125858Y174372D01*
X126078Y174330D01*
X126338Y174298D01*
X126978Y174260D01*
X127358Y174256D01*
Y172256D01*
X126978Y172251D01*
X126078Y172182D01*
X125858Y172140D01*
X125678Y172089D01*
X125538Y172028D01*
X125438Y171959D01*
X125378Y171880D01*
X125358Y171792D01*
Y174720D01*
X125378Y174632D01*
D02*
G37*
G36*
X121642Y171792D02*
X121622Y171880D01*
X121562Y171959D01*
X121462Y172028D01*
X121322Y172089D01*
X121142Y172140D01*
X120922Y172182D01*
X120662Y172214D01*
X120022Y172251D01*
X119642Y172256D01*
Y174256D01*
X120022Y174260D01*
X120922Y174330D01*
X121142Y174372D01*
X121322Y174423D01*
X121462Y174484D01*
X121562Y174553D01*
X121622Y174632D01*
X121642Y174720D01*
Y171792D01*
D02*
G37*
G36*
X117378Y174632D02*
X117438Y174553D01*
X117538Y174484D01*
X117678Y174423D01*
X117858Y174372D01*
X118078Y174330D01*
X118338Y174298D01*
X118978Y174260D01*
X119358Y174256D01*
Y172256D01*
X118978Y172251D01*
X118078Y172182D01*
X117858Y172140D01*
X117678Y172089D01*
X117538Y172028D01*
X117438Y171959D01*
X117378Y171880D01*
X117358Y171792D01*
Y174720D01*
X117378Y174632D01*
D02*
G37*
G36*
X113642Y171792D02*
X113622Y171880D01*
X113562Y171959D01*
X113462Y172028D01*
X113322Y172089D01*
X113142Y172140D01*
X112922Y172182D01*
X112662Y172214D01*
X112022Y172251D01*
X111642Y172256D01*
Y174256D01*
X112022Y174260D01*
X112922Y174330D01*
X113142Y174372D01*
X113322Y174423D01*
X113462Y174484D01*
X113562Y174553D01*
X113622Y174632D01*
X113642Y174720D01*
Y171792D01*
D02*
G37*
G36*
X107408Y174933D02*
X107550Y174791D01*
X107712Y174666D01*
X107895Y174557D01*
X108097Y174465D01*
X108320Y174390D01*
X108564Y174331D01*
X108827Y174289D01*
X109111Y174264D01*
X109415Y174256D01*
Y172256D01*
X109111Y172248D01*
X108827Y172222D01*
X108564Y172181D01*
X108320Y172122D01*
X108097Y172047D01*
X107895Y171955D01*
X107712Y171846D01*
X107550Y171721D01*
X107408Y171579D01*
X107286Y171420D01*
Y175092D01*
X107408Y174933D01*
D02*
G37*
G36*
X188128Y174670D02*
X187874Y174387D01*
X187676Y174104D01*
X187534Y173822D01*
X187450Y173539D01*
X187421Y173256D01*
X187450Y172973D01*
X187534Y172690D01*
X187676Y172407D01*
X187874Y172125D01*
X188128Y171842D01*
X186300Y170842D01*
X186011Y171110D01*
X185711Y171351D01*
X185399Y171563D01*
X185075Y171747D01*
X184739Y171902D01*
X184392Y172030D01*
X184033Y172129D01*
X183662Y172199D01*
X183280Y172242D01*
X182886Y172256D01*
Y174256D01*
X183280Y174270D01*
X183662Y174312D01*
X184033Y174383D01*
X184392Y174482D01*
X184739Y174609D01*
X185075Y174765D01*
X185399Y174949D01*
X185711Y175161D01*
X186011Y175401D01*
X186300Y175670D01*
X188128Y174670D01*
D02*
G37*
G36*
X193237Y166066D02*
X193212Y166244D01*
X193135Y166402D01*
X193007Y166542D01*
X192828Y166664D01*
X192598Y166767D01*
X192317Y166851D01*
X191985Y166916D01*
X191601Y166963D01*
X191167Y166991D01*
X190681Y167000D01*
Y169000D01*
X191167Y169009D01*
X191985Y169084D01*
X192317Y169149D01*
X192598Y169234D01*
X192828Y169336D01*
X193007Y169458D01*
X193135Y169598D01*
X193212Y169756D01*
X193237Y169934D01*
Y166066D01*
D02*
G37*
G36*
X56105Y166987D02*
X56020Y166957D01*
X55945Y166906D01*
X55880Y166835D01*
X55825Y166744D01*
X55780Y166633D01*
X55745Y166502D01*
X55720Y166350D01*
X55705Y166178D01*
X55700Y165986D01*
X54700D01*
X54695Y166178D01*
X54680Y166350D01*
X54655Y166502D01*
X54620Y166633D01*
X54575Y166744D01*
X54520Y166835D01*
X54455Y166906D01*
X54380Y166957D01*
X54295Y166987D01*
X54200Y166998D01*
X56200D01*
X56105Y166987D01*
D02*
G37*
G36*
X95549Y166365D02*
X95597Y165643D01*
X95615Y165546D01*
X95635Y165465D01*
X95659Y165400D01*
X95685Y165351D01*
X94410D01*
X94436Y165400D01*
X94459Y165465D01*
X94480Y165546D01*
X94498Y165643D01*
X94525Y165884D01*
X94542Y166189D01*
X94547Y166557D01*
X95547D01*
X95549Y166365D01*
D02*
G37*
G36*
X91722Y159655D02*
X91698Y159590D01*
X91678Y159509D01*
X91660Y159413D01*
X91632Y159171D01*
X91616Y158867D01*
X91610Y158498D01*
X90610D01*
X90609Y158690D01*
X90561Y159413D01*
X90543Y159509D01*
X90522Y159590D01*
X90499Y159655D01*
X90473Y159704D01*
X91748D01*
X91722Y159655D01*
D02*
G37*
G36*
X89753D02*
X89730Y159590D01*
X89709Y159509D01*
X89691Y159413D01*
X89664Y159171D01*
X89647Y158867D01*
X89642Y158498D01*
X88642D01*
X88640Y158690D01*
X88592Y159413D01*
X88574Y159509D01*
X88554Y159590D01*
X88530Y159655D01*
X88504Y159704D01*
X89779D01*
X89753Y159655D01*
D02*
G37*
G36*
X89645Y158148D02*
X89655Y158032D01*
X89672Y157923D01*
X89696Y157819D01*
X89727Y157720D01*
X89764Y157628D01*
X89808Y157541D01*
X89859Y157460D01*
X89917Y157385D01*
X89982Y157315D01*
X88302D01*
X88366Y157385D01*
X88424Y157460D01*
X88475Y157541D01*
X88519Y157628D01*
X88557Y157720D01*
X88587Y157819D01*
X88611Y157923D01*
X88628Y158032D01*
X88638Y158148D01*
X88642Y158269D01*
X89642D01*
X89645Y158148D01*
D02*
G37*
G36*
X91761Y158051D02*
X91850Y157976D01*
X91940Y157911D01*
X92030Y157854D01*
X92121Y157806D01*
X92213Y157767D01*
X92306Y157737D01*
X92399Y157716D01*
X92493Y157703D01*
X92588Y157700D01*
X91400Y156512D01*
X91397Y156607D01*
X91384Y156701D01*
X91363Y156794D01*
X91333Y156887D01*
X91294Y156979D01*
X91246Y157070D01*
X91189Y157160D01*
X91124Y157250D01*
X91049Y157339D01*
X90966Y157427D01*
X91673Y158134D01*
X91761Y158051D01*
D02*
G37*
G36*
X64609Y155350D02*
X65000Y155015D01*
X65169Y154896D01*
X65319Y154809D01*
X65452Y154754D01*
X65566Y154732D01*
X65662Y154742D01*
X65740Y154784D01*
X65800Y154858D01*
X64780Y153050D01*
X64819Y153146D01*
X64833Y153251D01*
X64823Y153367D01*
X64789Y153493D01*
X64731Y153630D01*
X64648Y153776D01*
X64540Y153933D01*
X64409Y154100D01*
X64253Y154277D01*
X64073Y154464D01*
X64386Y155565D01*
X64609Y155350D01*
D02*
G37*
G36*
X83845Y153001D02*
X83910Y152978D01*
X83991Y152957D01*
X84088Y152939D01*
X84329Y152912D01*
X84633Y152895D01*
X85002Y152890D01*
Y151890D01*
X84810Y151888D01*
X84088Y151840D01*
X83991Y151822D01*
X83910Y151802D01*
X83845Y151778D01*
X83796Y151752D01*
Y153027D01*
X83845Y153001D01*
D02*
G37*
G36*
X89290Y152422D02*
X89380Y152348D01*
X89469Y152283D01*
X89560Y152228D01*
X89651Y152183D01*
X89743Y152147D01*
X89836Y152120D01*
X89929Y152103D01*
X90023Y152095D01*
X90117Y152097D01*
X89001Y150841D01*
X88993Y150936D01*
X88976Y151029D01*
X88950Y151122D01*
X88917Y151214D01*
X88875Y151306D01*
X88824Y151396D01*
X88766Y151486D01*
X88699Y151576D01*
X88624Y151664D01*
X88541Y151752D01*
X89202Y152505D01*
X89290Y152422D01*
D02*
G37*
G36*
X72661Y151144D02*
X72576Y151113D01*
X72501Y151063D01*
X72436Y150992D01*
X72381Y150901D01*
X72336Y150790D01*
X72301Y150658D01*
X72276Y150506D01*
X72261Y150334D01*
X72256Y150142D01*
X71256D01*
X71251Y150334D01*
X71236Y150506D01*
X71211Y150658D01*
X71176Y150790D01*
X71131Y150901D01*
X71076Y150992D01*
X71011Y151063D01*
X70936Y151113D01*
X70851Y151144D01*
X70756Y151154D01*
X72756D01*
X72661Y151144D01*
D02*
G37*
G36*
X83845Y151033D02*
X83910Y151009D01*
X83991Y150989D01*
X84088Y150971D01*
X84329Y150943D01*
X84633Y150927D01*
X85002Y150921D01*
Y149921D01*
X84810Y149920D01*
X84088Y149872D01*
X83991Y149854D01*
X83910Y149833D01*
X83845Y149810D01*
X83796Y149784D01*
Y151059D01*
X83845Y151033D01*
D02*
G37*
G36*
X86333Y150077D02*
X86507Y149928D01*
X86593Y149864D01*
X86765Y149754D01*
X86850Y149709D01*
X86935Y149671D01*
X87020Y149639D01*
X87105Y149613D01*
X85646Y148781D01*
X85665Y148869D01*
X85673Y148957D01*
X85669Y149046D01*
X85654Y149135D01*
X85628Y149224D01*
X85589Y149313D01*
X85540Y149402D01*
X85479Y149491D01*
X85406Y149581D01*
X85322Y149671D01*
X86246Y150161D01*
X86333Y150077D01*
D02*
G37*
G36*
X72261Y148666D02*
X72276Y148494D01*
X72301Y148342D01*
X72336Y148210D01*
X72381Y148099D01*
X72436Y148008D01*
X72501Y147937D01*
X72576Y147887D01*
X72661Y147856D01*
X72756Y147846D01*
X70756D01*
X70851Y147856D01*
X70936Y147887D01*
X71011Y147937D01*
X71076Y148008D01*
X71131Y148099D01*
X71176Y148210D01*
X71211Y148342D01*
X71236Y148494D01*
X71251Y148666D01*
X71256Y148858D01*
X72256D01*
X72261Y148666D01*
D02*
G37*
G36*
X78149Y145847D02*
X78100Y145873D01*
X78035Y145896D01*
X77954Y145917D01*
X77857Y145935D01*
X77616Y145962D01*
X77311Y145979D01*
X76943Y145984D01*
Y146984D01*
X77135Y146986D01*
X77857Y147034D01*
X77954Y147052D01*
X78035Y147072D01*
X78100Y147096D01*
X78149Y147122D01*
Y145847D01*
D02*
G37*
G36*
X73218Y147389D02*
X73249Y147304D01*
X73299Y147229D01*
X73370Y147164D01*
X73461Y147109D01*
X73573Y147064D01*
X73704Y147029D01*
X73856Y147004D01*
X74028Y146989D01*
X74220Y146984D01*
Y145984D01*
X74028Y145979D01*
X73856Y145964D01*
X73704Y145939D01*
X73573Y145904D01*
X73461Y145859D01*
X73370Y145804D01*
X73299Y145739D01*
X73249Y145664D01*
X73218Y145579D01*
X73208Y145484D01*
Y147484D01*
X73218Y147389D01*
D02*
G37*
G36*
X83845Y139222D02*
X83910Y139198D01*
X83991Y139178D01*
X84088Y139160D01*
X84329Y139132D01*
X84633Y139116D01*
X85002Y139110D01*
Y138110D01*
X84810Y138109D01*
X84088Y138061D01*
X83991Y138043D01*
X83910Y138022D01*
X83845Y137999D01*
X83796Y137973D01*
Y139248D01*
X83845Y139222D01*
D02*
G37*
G36*
X87336Y137767D02*
X87267Y137832D01*
X87192Y137891D01*
X87112Y137942D01*
X87025Y137987D01*
X86933Y138024D01*
X86835Y138055D01*
X86731Y138079D01*
X86621Y138096D01*
X86506Y138107D01*
X86384Y138110D01*
X86394Y139110D01*
X86515Y139114D01*
X86631Y139124D01*
X86740Y139141D01*
X86845Y139164D01*
X86943Y139195D01*
X87036Y139232D01*
X87123Y139275D01*
X87204Y139326D01*
X87280Y139383D01*
X87350Y139447D01*
X87336Y137767D01*
D02*
G37*
G36*
X13231Y126908D02*
X13188Y126822D01*
X13180Y126747D01*
X13207Y126681D01*
X13267Y126626D01*
X13362Y126581D01*
X13492Y126545D01*
X13656Y126520D01*
X13854Y126505D01*
X14086Y126500D01*
X13161Y125500D01*
X12966Y125497D01*
X12439Y125456D01*
X12283Y125432D01*
X12000Y125366D01*
X11874Y125325D01*
X11756Y125278D01*
X11649Y125226D01*
X13308Y127004D01*
X13231Y126908D01*
D02*
G37*
G36*
X65443Y125160D02*
X65373Y125225D01*
X65298Y125282D01*
X65217Y125333D01*
X65130Y125378D01*
X65038Y125415D01*
X64940Y125446D01*
X64836Y125469D01*
X64726Y125486D01*
X64610Y125497D01*
X64489Y125500D01*
Y126500D01*
X64610Y126503D01*
X64726Y126514D01*
X64836Y126531D01*
X64940Y126554D01*
X65038Y126585D01*
X65130Y126622D01*
X65217Y126667D01*
X65298Y126718D01*
X65373Y126775D01*
X65443Y126840D01*
Y125160D01*
D02*
G37*
G36*
X101564Y125600D02*
X101541Y125535D01*
X101520Y125454D01*
X101502Y125357D01*
X101475Y125116D01*
X101458Y124811D01*
X101453Y124443D01*
X100453D01*
X100451Y124635D01*
X100403Y125357D01*
X100385Y125454D01*
X100365Y125535D01*
X100341Y125600D01*
X100315Y125649D01*
X101590D01*
X101564Y125600D01*
D02*
G37*
G36*
X99596D02*
X99572Y125535D01*
X99552Y125454D01*
X99534Y125357D01*
X99506Y125116D01*
X99490Y124811D01*
X99484Y124443D01*
X98484D01*
X98483Y124635D01*
X98435Y125357D01*
X98417Y125454D01*
X98396Y125535D01*
X98373Y125600D01*
X98347Y125649D01*
X99622D01*
X99596Y125600D01*
D02*
G37*
G36*
X95659D02*
X95635Y125535D01*
X95615Y125454D01*
X95597Y125357D01*
X95569Y125116D01*
X95553Y124811D01*
X95547Y124443D01*
X94547D01*
X94546Y124635D01*
X94498Y125357D01*
X94480Y125454D01*
X94459Y125535D01*
X94436Y125600D01*
X94410Y125649D01*
X95685D01*
X95659Y125600D01*
D02*
G37*
G36*
X89753D02*
X89730Y125535D01*
X89709Y125454D01*
X89691Y125357D01*
X89664Y125116D01*
X89647Y124811D01*
X89642Y124443D01*
X88642D01*
X88640Y124635D01*
X88592Y125357D01*
X88574Y125454D01*
X88554Y125535D01*
X88530Y125600D01*
X88504Y125649D01*
X89779D01*
X89753Y125600D01*
D02*
G37*
G36*
X89642Y120991D02*
X89645Y120870D01*
X89655Y120754D01*
X89671Y120644D01*
X89694Y120539D01*
X89724Y120440D01*
X89760Y120347D01*
X89802Y120258D01*
X89851Y120176D01*
X89907Y120099D01*
X89969Y120027D01*
X88290Y120086D01*
X88357Y120153D01*
X88417Y120226D01*
X88469Y120306D01*
X88515Y120391D01*
X88554Y120482D01*
X88586Y120580D01*
X88610Y120683D01*
X88628Y120792D01*
X88638Y120908D01*
X88642Y121029D01*
X89642Y120991D01*
D02*
G37*
G36*
X106600Y118400D02*
X105800Y117599D01*
X105789Y117629D01*
X105755Y117678D01*
X105699Y117748D01*
X105394Y118084D01*
X104674Y118819D01*
X105381Y119527D01*
X106600Y118400D01*
D02*
G37*
G36*
X69727Y118775D02*
X69802Y118718D01*
X69883Y118667D01*
X69970Y118622D01*
X70062Y118585D01*
X70160Y118554D01*
X70264Y118531D01*
X70374Y118514D01*
X70490Y118503D01*
X70611Y118500D01*
Y117500D01*
X70490Y117497D01*
X70374Y117486D01*
X70264Y117469D01*
X70160Y117446D01*
X70062Y117415D01*
X69970Y117378D01*
X69883Y117333D01*
X69802Y117282D01*
X69727Y117225D01*
X69657Y117160D01*
Y118840D01*
X69727Y118775D01*
D02*
G37*
G36*
X67943Y117160D02*
X67874Y117225D01*
X67798Y117282D01*
X67717Y117333D01*
X67630Y117378D01*
X67538Y117415D01*
X67440Y117446D01*
X67336Y117469D01*
X67226Y117486D01*
X67110Y117497D01*
X66989Y117500D01*
Y118500D01*
X67110Y118503D01*
X67226Y118514D01*
X67336Y118531D01*
X67440Y118554D01*
X67538Y118585D01*
X67630Y118622D01*
X67717Y118667D01*
X67798Y118718D01*
X67874Y118775D01*
X67943Y118840D01*
Y117160D01*
D02*
G37*
G36*
X13319Y118902D02*
X13353Y118818D01*
X13411Y118743D01*
X13491Y118679D01*
X13594Y118624D01*
X13720Y118579D01*
X13869Y118545D01*
X14041Y118520D01*
X14236Y118505D01*
X14453Y118500D01*
Y117500D01*
X14236Y117495D01*
X14041Y117480D01*
X13869Y117455D01*
X13720Y117421D01*
X13594Y117376D01*
X13491Y117321D01*
X13411Y117257D01*
X13353Y117182D01*
X13319Y117098D01*
X13308Y117004D01*
Y118997D01*
X13319Y118902D01*
D02*
G37*
G36*
X79161Y115551D02*
X79250Y115476D01*
X79340Y115411D01*
X79430Y115354D01*
X79521Y115306D01*
X79613Y115267D01*
X79706Y115237D01*
X79799Y115216D01*
X79893Y115203D01*
X79988Y115200D01*
X78800Y114012D01*
X78797Y114107D01*
X78784Y114201D01*
X78763Y114294D01*
X78733Y114387D01*
X78694Y114479D01*
X78646Y114570D01*
X78589Y114660D01*
X78524Y114750D01*
X78449Y114839D01*
X78366Y114927D01*
X79073Y115634D01*
X79161Y115551D01*
D02*
G37*
G36*
X82343Y108360D02*
X82274Y108425D01*
X82198Y108482D01*
X82117Y108533D01*
X82030Y108578D01*
X81938Y108615D01*
X81840Y108646D01*
X81736Y108669D01*
X81626Y108686D01*
X81510Y108697D01*
X81389Y108700D01*
Y109700D01*
X81510Y109703D01*
X81626Y109714D01*
X81736Y109731D01*
X81840Y109754D01*
X81938Y109785D01*
X82030Y109822D01*
X82117Y109867D01*
X82198Y109918D01*
X82274Y109975D01*
X82343Y110040D01*
Y108360D01*
D02*
G37*
G36*
X79964Y107557D02*
X79851Y107438D01*
X79754Y107323D01*
X79674Y107214D01*
X79611Y107110D01*
X79565Y107011D01*
X79535Y106917D01*
X79523Y106828D01*
X79528Y106745D01*
X79550Y106667D01*
X79588Y106594D01*
X77151Y106853D01*
X77278Y106848D01*
X77408Y106860D01*
X77542Y106890D01*
X77679Y106936D01*
X77818Y106999D01*
X77961Y107080D01*
X78108Y107177D01*
X78257Y107292D01*
X78409Y107423D01*
X78565Y107572D01*
X79964Y107557D01*
D02*
G37*
G36*
X142305Y106922D02*
X142320Y106750D01*
X142345Y106598D01*
X142380Y106467D01*
X142425Y106356D01*
X142480Y106264D01*
X142545Y106194D01*
X142620Y106143D01*
X142705Y106113D01*
X142800Y106103D01*
X140800D01*
X140895Y106113D01*
X140980Y106143D01*
X141055Y106194D01*
X141120Y106264D01*
X141175Y106356D01*
X141220Y106467D01*
X141255Y106598D01*
X141280Y106750D01*
X141295Y106922D01*
X141300Y107115D01*
X142300D01*
X142305Y106922D01*
D02*
G37*
G36*
X102005Y106922D02*
X102020Y106750D01*
X102045Y106598D01*
X102080Y106467D01*
X102125Y106356D01*
X102180Y106264D01*
X102245Y106194D01*
X102320Y106143D01*
X102405Y106113D01*
X102500Y106103D01*
X100500D01*
X100595Y106113D01*
X100680Y106143D01*
X100755Y106194D01*
X100820Y106264D01*
X100875Y106356D01*
X100920Y106467D01*
X100955Y106598D01*
X100980Y106750D01*
X100995Y106922D01*
X101000Y107115D01*
X102000D01*
X102005Y106922D01*
D02*
G37*
G36*
X118509Y107404D02*
X118533Y107126D01*
X118573Y106880D01*
X118628Y106667D01*
X118700Y106486D01*
X118788Y106338D01*
X118892Y106223D01*
X119011Y106140D01*
X119147Y106090D01*
X119298Y106072D01*
X116101Y106103D01*
X116253Y106117D01*
X116389Y106165D01*
X116509Y106244D01*
X116613Y106357D01*
X116701Y106502D01*
X116773Y106679D01*
X116829Y106889D01*
X116869Y107132D01*
X116893Y107407D01*
X116901Y107715D01*
X118501D01*
X118509Y107404D01*
D02*
G37*
G36*
X126609Y107401D02*
X126633Y107120D01*
X126673Y106872D01*
X126728Y106657D01*
X126799Y106474D01*
X126887Y106325D01*
X126990Y106208D01*
X127109Y106123D01*
X127244Y106072D01*
X127394Y106053D01*
X124201Y106103D01*
X124353Y106116D01*
X124489Y106163D01*
X124609Y106242D01*
X124713Y106354D01*
X124801Y106499D01*
X124873Y106677D01*
X124929Y106887D01*
X124969Y107130D01*
X124993Y107406D01*
X125001Y107715D01*
X126601D01*
X126609Y107401D01*
D02*
G37*
G36*
X76098Y103900D02*
X76087Y103995D01*
X76057Y104080D01*
X76006Y104155D01*
X75936Y104220D01*
X75844Y104275D01*
X75733Y104320D01*
X75602Y104355D01*
X75450Y104380D01*
X75278Y104395D01*
X75086Y104400D01*
Y105400D01*
X75278Y105405D01*
X75450Y105420D01*
X75602Y105445D01*
X75733Y105480D01*
X75844Y105525D01*
X75936Y105580D01*
X76006Y105645D01*
X76057Y105720D01*
X76087Y105805D01*
X76098Y105900D01*
Y103900D01*
D02*
G37*
G36*
X71332Y104546D02*
X71305Y104514D01*
X71280Y104473D01*
X71258Y104424D01*
X71240Y104367D01*
X71224Y104303D01*
X71211Y104230D01*
X71194Y104061D01*
X71189Y103964D01*
X71188Y103860D01*
X68524Y103848D01*
X68664Y103855D01*
X68804Y103877D01*
X68944Y103914D01*
X69085Y103964D01*
X69226Y104029D01*
X69368Y104108D01*
X69510Y104201D01*
X69652Y104309D01*
X69795Y104431D01*
X69938Y104567D01*
X71332Y104546D01*
D02*
G37*
G36*
X107607Y103347D02*
X107597Y103442D01*
X107567Y103526D01*
X107516Y103602D01*
X107445Y103666D01*
X107354Y103721D01*
X107243Y103767D01*
X107111Y103802D01*
X106959Y103826D01*
X106787Y103841D01*
X106595Y103847D01*
Y104847D01*
X106787Y104851D01*
X106959Y104867D01*
X107111Y104892D01*
X107243Y104927D01*
X107354Y104972D01*
X107445Y105026D01*
X107516Y105092D01*
X107567Y105166D01*
X107597Y105252D01*
X107607Y105347D01*
Y103347D01*
D02*
G37*
G36*
X103463Y105252D02*
X103493Y105166D01*
X103544Y105092D01*
X103615Y105026D01*
X103706Y104972D01*
X103817Y104927D01*
X103949Y104892D01*
X104101Y104867D01*
X104273Y104851D01*
X104465Y104847D01*
Y103847D01*
X104273Y103841D01*
X104101Y103826D01*
X103949Y103802D01*
X103817Y103767D01*
X103706Y103721D01*
X103615Y103666D01*
X103544Y103602D01*
X103493Y103526D01*
X103463Y103442D01*
X103453Y103347D01*
Y105347D01*
X103463Y105252D01*
D02*
G37*
G36*
X86278Y106634D02*
X86410Y106543D01*
X86582Y106463D01*
X86794Y106393D01*
X87047Y106334D01*
X87340Y106286D01*
X88047Y106221D01*
X88915Y106200D01*
Y103600D01*
X88461Y103595D01*
X87340Y103514D01*
X87047Y103466D01*
X86794Y103407D01*
X86582Y103337D01*
X86410Y103257D01*
X86278Y103166D01*
X86186Y103064D01*
Y106736D01*
X86278Y106634D01*
D02*
G37*
G36*
X71188Y98140D02*
X71189Y98036D01*
X71211Y97770D01*
X71224Y97697D01*
X71240Y97632D01*
X71258Y97576D01*
X71280Y97527D01*
X71305Y97486D01*
X71332Y97453D01*
X69938Y97433D01*
X69795Y97569D01*
X69652Y97691D01*
X69510Y97799D01*
X69368Y97892D01*
X69226Y97971D01*
X69085Y98036D01*
X68944Y98086D01*
X68804Y98123D01*
X68664Y98145D01*
X68524Y98152D01*
X71188Y98140D01*
D02*
G37*
G36*
X76098Y96100D02*
X76087Y96195D01*
X76057Y96280D01*
X76006Y96355D01*
X75936Y96420D01*
X75845Y96475D01*
X75733Y96520D01*
X75602Y96555D01*
X75450Y96580D01*
X75278Y96595D01*
X75086Y96600D01*
Y97600D01*
X75278Y97605D01*
X75450Y97620D01*
X75602Y97645D01*
X75733Y97680D01*
X75845Y97725D01*
X75936Y97780D01*
X76006Y97845D01*
X76057Y97920D01*
X76087Y98005D01*
X76098Y98100D01*
Y96100D01*
D02*
G37*
G36*
X133409Y96773D02*
X133352Y96751D01*
X133284Y96716D01*
X133207Y96667D01*
X133119Y96603D01*
X132915Y96433D01*
X132672Y96207D01*
X132536Y96073D01*
X131721Y96672D01*
X131743Y96693D01*
X131766Y96711D01*
X131790Y96727D01*
X131814Y96741D01*
X131840Y96753D01*
X131866Y96763D01*
X131893Y96770D01*
X131921Y96775D01*
X131950Y96779D01*
X131980Y96780D01*
X133457D01*
X133409Y96773D01*
D02*
G37*
G36*
X110505Y95887D02*
X110420Y95857D01*
X110345Y95806D01*
X110280Y95736D01*
X110225Y95644D01*
X110180Y95533D01*
X110145Y95402D01*
X110120Y95250D01*
X110105Y95078D01*
X110100Y94885D01*
X109100D01*
X109095Y95078D01*
X109080Y95250D01*
X109055Y95402D01*
X109020Y95533D01*
X108975Y95644D01*
X108920Y95736D01*
X108855Y95806D01*
X108780Y95857D01*
X108695Y95887D01*
X108600Y95898D01*
X110600D01*
X110505Y95887D01*
D02*
G37*
G36*
X127231Y95919D02*
X127099Y95868D01*
X126982Y95785D01*
X126881Y95670D01*
X126796Y95523D01*
X126726Y95343D01*
X126671Y95131D01*
X126632Y94887D01*
X126609Y94610D01*
X126601Y94301D01*
X125001D01*
X124993Y94606D01*
X124970Y94879D01*
X124931Y95119D01*
X124876Y95328D01*
X124805Y95503D01*
X124719Y95647D01*
X124617Y95758D01*
X124499Y95837D01*
X124366Y95883D01*
X124217Y95898D01*
X127379Y95937D01*
X127231Y95919D01*
D02*
G37*
G36*
X119147Y95910D02*
X119011Y95860D01*
X118892Y95777D01*
X118788Y95662D01*
X118700Y95514D01*
X118628Y95333D01*
X118573Y95120D01*
X118533Y94874D01*
X118509Y94596D01*
X118501Y94286D01*
X116901D01*
X116893Y94593D01*
X116869Y94868D01*
X116829Y95111D01*
X116773Y95321D01*
X116701Y95498D01*
X116613Y95643D01*
X116509Y95756D01*
X116389Y95835D01*
X116253Y95883D01*
X116101Y95898D01*
X119298Y95928D01*
X119147Y95910D01*
D02*
G37*
G36*
X143477Y95892D02*
X143335Y95750D01*
X143210Y95588D01*
X143101Y95405D01*
X143009Y95203D01*
X142934Y94980D01*
X142875Y94736D01*
X142833Y94473D01*
X142808Y94189D01*
X142800Y93885D01*
X140800D01*
X140792Y94189D01*
X140767Y94473D01*
X140725Y94736D01*
X140666Y94980D01*
X140591Y95203D01*
X140499Y95405D01*
X140390Y95588D01*
X140265Y95750D01*
X140123Y95892D01*
X139964Y96014D01*
X143636D01*
X143477Y95892D01*
D02*
G37*
G36*
X132580Y89491D02*
X132619Y89101D01*
X132654Y88943D01*
X132698Y88809D01*
X132752Y88699D01*
X132816Y88614D01*
X132890Y88553D01*
X132974Y88516D01*
X133068Y88504D01*
X131082D01*
X131176Y88516D01*
X131260Y88553D01*
X131333Y88614D01*
X131397Y88699D01*
X131452Y88809D01*
X131496Y88943D01*
X131530Y89101D01*
X131555Y89284D01*
X131570Y89491D01*
X131575Y89723D01*
X132575D01*
X132580Y89491D01*
D02*
G37*
G36*
X115975Y89528D02*
X115947Y89453D01*
X115922Y89350D01*
X115901Y89219D01*
X115867Y88874D01*
X115843Y88146D01*
X115841Y87848D01*
X115041D01*
X115039Y88146D01*
X114960Y89350D01*
X114935Y89453D01*
X114907Y89528D01*
X114875Y89576D01*
X116007D01*
X115975Y89528D01*
D02*
G37*
G36*
X120070Y87438D02*
X119956Y87322D01*
X119688Y87004D01*
X119623Y86909D01*
X119570Y86819D01*
X119528Y86735D01*
X119499Y86656D01*
X119482Y86583D01*
X119476Y86515D01*
X118015Y87976D01*
X118083Y87982D01*
X118156Y87999D01*
X118235Y88028D01*
X118319Y88070D01*
X118409Y88123D01*
X118504Y88188D01*
X118605Y88266D01*
X118822Y88456D01*
X118938Y88569D01*
X120070Y87438D01*
D02*
G37*
G36*
X111728Y88368D02*
X111834Y88285D01*
X111946Y88211D01*
X112062Y88148D01*
X112184Y88094D01*
X112310Y88051D01*
X112442Y88017D01*
X112578Y87993D01*
X112720Y87980D01*
X112867Y87976D01*
X111406Y86515D01*
X111402Y86662D01*
X111389Y86803D01*
X111365Y86940D01*
X111331Y87072D01*
X111288Y87198D01*
X111234Y87320D01*
X111171Y87436D01*
X111097Y87548D01*
X111013Y87654D01*
X110920Y87755D01*
X111627Y88462D01*
X111728Y88368D01*
D02*
G37*
G36*
X115847Y84744D02*
X115866Y84618D01*
X115898Y84492D01*
X115942Y84366D01*
X115999Y84241D01*
X116069Y84116D01*
X116151Y83991D01*
X116246Y83866D01*
X116354Y83742D01*
X116474Y83617D01*
X114408D01*
X114528Y83742D01*
X114636Y83866D01*
X114731Y83991D01*
X114813Y84116D01*
X114883Y84241D01*
X114940Y84366D01*
X114984Y84492D01*
X115016Y84618D01*
X115035Y84744D01*
X115041Y84870D01*
X115841D01*
X115847Y84744D01*
D02*
G37*
G36*
X131022Y82810D02*
X130970Y82892D01*
X130905Y82947D01*
X130827Y82975D01*
X130737Y82976D01*
X130633Y82950D01*
X130517Y82897D01*
X130387Y82817D01*
X130245Y82710D01*
X130090Y82576D01*
X129922Y82415D01*
X129446Y83353D01*
X129613Y83527D01*
X129881Y83850D01*
X129981Y83999D01*
X130059Y84140D01*
X130114Y84272D01*
X130148Y84395D01*
X130158Y84510D01*
X130147Y84617D01*
X130113Y84716D01*
X131022Y82810D01*
D02*
G37*
G36*
X105862Y84967D02*
X105859Y84852D01*
X105877Y84729D01*
X105916Y84600D01*
X105977Y84463D01*
X106058Y84319D01*
X106161Y84168D01*
X106285Y84009D01*
X106430Y83843D01*
X106596Y83670D01*
X106234Y82618D01*
X106065Y82780D01*
X105771Y83017D01*
X105645Y83094D01*
X105533Y83143D01*
X105435Y83164D01*
X105350Y83156D01*
X105280Y83121D01*
X105224Y83057D01*
X105181Y82966D01*
X105887Y85075D01*
X105862Y84967D01*
D02*
G37*
G36*
X93600Y81938D02*
X93618Y81426D01*
X93673Y80929D01*
X93765Y80447D01*
X93894Y79980D01*
X94060Y79529D01*
X94262Y79093D01*
X94501Y78672D01*
X94777Y78266D01*
X95089Y77875D01*
X95438Y77500D01*
X93600Y75661D01*
X93225Y76011D01*
X92834Y76323D01*
X92428Y76599D01*
X92007Y76838D01*
X91571Y77040D01*
X91120Y77206D01*
X90653Y77334D01*
X90171Y77426D01*
X89674Y77482D01*
X89161Y77500D01*
X88400Y80100D01*
X88894Y80126D01*
X89336Y80204D01*
X89726Y80334D01*
X90064Y80516D01*
X90350Y80750D01*
X90584Y81036D01*
X90766Y81374D01*
X90896Y81764D01*
X90974Y82206D01*
X91000Y82700D01*
X93600Y81938D01*
D02*
G37*
G36*
X31227Y36275D02*
X31302Y36218D01*
X31383Y36167D01*
X31470Y36122D01*
X31562Y36085D01*
X31660Y36054D01*
X31764Y36031D01*
X31874Y36014D01*
X31990Y36003D01*
X32111Y36000D01*
Y35000D01*
X31990Y34997D01*
X31874Y34986D01*
X31764Y34969D01*
X31660Y34946D01*
X31562Y34915D01*
X31470Y34878D01*
X31383Y34833D01*
X31302Y34782D01*
X31227Y34725D01*
X31157Y34660D01*
Y36340D01*
X31227Y36275D01*
D02*
G37*
G36*
X15290Y30352D02*
X15024Y30070D01*
X14771Y29773D01*
X14534Y29461D01*
X14270Y29054D01*
X14381Y29040D01*
X14824Y29010D01*
X15319Y29000D01*
Y27000D01*
X14824Y26990D01*
X13991Y26911D01*
X13652Y26841D01*
X13366Y26752D01*
X13131Y26643D01*
X12949Y26514D01*
X12819Y26365D01*
X12741Y26196D01*
X12715Y26008D01*
Y27664D01*
X10425Y30990D01*
X10593Y30811D01*
X10796Y30704D01*
X11036Y30670D01*
X11313Y30709D01*
X11626Y30821D01*
X11976Y31007D01*
X12362Y31265D01*
X12785Y31596D01*
X13244Y32000D01*
X13739Y32478D01*
X15290Y30352D01*
D02*
G37*
G36*
X10269Y27000D02*
X8000Y27000D01*
Y29000D01*
X10269Y29000D01*
Y27000D01*
D02*
G37*
G36*
X65961Y23555D02*
Y14715D01*
X65945Y14480D01*
X65904Y14158D01*
X65853Y13907D01*
X65847Y13890D01*
X65147Y13353D01*
X64506Y12517D01*
X64103Y11544D01*
X63965Y10500D01*
Y5500D01*
X64079Y4634D01*
X63706Y4034D01*
X62294D01*
X61921Y4634D01*
X62034Y5500D01*
Y10500D01*
X61897Y11544D01*
X61494Y12517D01*
X60853Y13353D01*
X60017Y13994D01*
X59044Y14397D01*
X58000Y14535D01*
X56956Y14397D01*
X55983Y13994D01*
X55147Y13353D01*
X54506Y12517D01*
X54103Y11544D01*
X53966Y10500D01*
Y5500D01*
X54079Y4634D01*
X53706Y4034D01*
X52294D01*
X51921Y4634D01*
X52034Y5500D01*
Y10500D01*
X51897Y11544D01*
X51494Y12517D01*
X50853Y13353D01*
X50017Y13994D01*
X49044Y14397D01*
X48000Y14535D01*
X46956Y14397D01*
X45983Y13994D01*
X45147Y13353D01*
X44506Y12517D01*
X44103Y11544D01*
X43966Y10500D01*
Y5500D01*
X44079Y4634D01*
X43706Y4034D01*
X42294D01*
X41921Y4634D01*
X42035Y5500D01*
Y10500D01*
X41897Y11544D01*
X41494Y12517D01*
X40853Y13353D01*
X40017Y13994D01*
X39044Y14397D01*
X38000Y14535D01*
X36956Y14397D01*
X35983Y13994D01*
X35147Y13353D01*
X34506Y12517D01*
X34103Y11544D01*
X33966Y10500D01*
Y5500D01*
X34079Y4634D01*
X33706Y4034D01*
X32294D01*
X31921Y4634D01*
X32035Y5500D01*
Y10500D01*
X31897Y11544D01*
X31494Y12517D01*
X30853Y13353D01*
X30017Y13994D01*
X29044Y14397D01*
X28000Y14535D01*
X26956Y14397D01*
X25983Y13994D01*
X25147Y13353D01*
X24506Y12517D01*
X24103Y11544D01*
X23966Y10500D01*
Y5500D01*
X24079Y4634D01*
X23706Y4034D01*
X22294D01*
X21921Y4634D01*
X22035Y5500D01*
Y10500D01*
X21897Y11544D01*
X21494Y12517D01*
X20853Y13353D01*
X20017Y13994D01*
X19044Y14397D01*
X18000Y14535D01*
X16956Y14397D01*
X15983Y13994D01*
X15147Y13353D01*
X14506Y12517D01*
X14103Y11544D01*
X13965Y10500D01*
Y5500D01*
X14079Y4634D01*
X13706Y4034D01*
X12000D01*
Y7500D01*
X8000D01*
Y8000D01*
X7500D01*
Y14500D01*
X4034D01*
Y23706D01*
X4634Y24079D01*
X5500Y23966D01*
X10500D01*
X11544Y24103D01*
X12517Y24506D01*
X13353Y25147D01*
X13890Y25847D01*
X13907Y25853D01*
X14142Y25901D01*
X14771Y25961D01*
X63555D01*
X65961Y23555D01*
D02*
G37*
G36*
X118505Y14236D02*
X118520Y14041D01*
X118545Y13869D01*
X118579Y13720D01*
X118624Y13594D01*
X118679Y13491D01*
X118743Y13411D01*
X118818Y13353D01*
X118902Y13319D01*
X118997Y13308D01*
X117004D01*
X117098Y13319D01*
X117182Y13353D01*
X117257Y13411D01*
X117321Y13491D01*
X117376Y13594D01*
X117421Y13720D01*
X117455Y13869D01*
X117480Y14041D01*
X117495Y14236D01*
X117500Y14453D01*
X118500D01*
X118505Y14236D01*
D02*
G37*
G36*
X69010Y14824D02*
X69089Y13991D01*
X69159Y13652D01*
X69248Y13366D01*
X69357Y13131D01*
X69486Y12949D01*
X69635Y12819D01*
X69804Y12741D01*
X69992Y12715D01*
X66008D01*
X66196Y12741D01*
X66365Y12819D01*
X66514Y12949D01*
X66643Y13131D01*
X66752Y13366D01*
X66841Y13652D01*
X66911Y13991D01*
X66960Y14381D01*
X66990Y14824D01*
X67000Y15319D01*
X69000D01*
X69010Y14824D01*
D02*
G37*
%LPC*%
G36*
X197500Y222000D02*
X191500D01*
Y218500D01*
X197500D01*
Y222000D01*
D02*
G37*
G36*
Y217500D02*
X191500D01*
Y214000D01*
X197500D01*
Y217500D01*
D02*
G37*
G36*
X10500Y212035D02*
X8500D01*
Y208500D01*
X14469D01*
X14397Y209044D01*
X13994Y210017D01*
X13353Y210853D01*
X12517Y211494D01*
X11544Y211897D01*
X10500Y212035D01*
D02*
G37*
G36*
X14469Y207500D02*
X8500D01*
Y203965D01*
X10500D01*
X11544Y204103D01*
X12517Y204506D01*
X13353Y205147D01*
X13994Y205983D01*
X14397Y206956D01*
X14469Y207500D01*
D02*
G37*
G36*
X10500Y192034D02*
X8500D01*
Y188500D01*
X14469D01*
X14397Y189044D01*
X13994Y190017D01*
X13353Y190853D01*
X12517Y191494D01*
X11544Y191897D01*
X10500Y192034D01*
D02*
G37*
G36*
X14469Y187500D02*
X8500D01*
Y183966D01*
X10500D01*
X11544Y184103D01*
X12517Y184506D01*
X13353Y185147D01*
X13994Y185983D01*
X14397Y186956D01*
X14469Y187500D01*
D02*
G37*
G36*
X10500Y172035D02*
X8500D01*
Y168500D01*
X14469D01*
X14397Y169044D01*
X13994Y170017D01*
X13353Y170853D01*
X12517Y171494D01*
X11544Y171897D01*
X10500Y172035D01*
D02*
G37*
G36*
X108827Y166809D02*
X108168Y166678D01*
X107843Y166460D01*
X107517Y166678D01*
X106858Y166809D01*
X106199Y166678D01*
X105874Y166460D01*
X105549Y166678D01*
X104890Y166809D01*
X104231Y166678D01*
X103905Y166460D01*
X103580Y166678D01*
X102921Y166809D01*
X102262Y166678D01*
X101937Y166460D01*
X101612Y166678D01*
X101453Y166709D01*
Y166557D01*
X101454Y166365D01*
X101502Y165643D01*
X101520Y165546D01*
X101541Y165465D01*
X101564Y165400D01*
X101590Y165351D01*
X101251D01*
X101199Y165087D01*
Y162528D01*
Y159968D01*
X101330Y159309D01*
X101453Y159126D01*
Y158346D01*
X101612Y158378D01*
X101937Y158595D01*
X102262Y158378D01*
X102921Y158246D01*
X103006Y158177D01*
X103041Y157404D01*
X102404Y156767D01*
X102387Y156755D01*
X102361Y156738D01*
X102351Y156733D01*
X102300Y156743D01*
X101442Y156572D01*
X100714Y156086D01*
X100228Y155358D01*
X100057Y154500D01*
X100228Y153642D01*
X100714Y152914D01*
X101442Y152428D01*
X102300Y152257D01*
X103158Y152428D01*
X103886Y152914D01*
X104372Y153642D01*
X104543Y154500D01*
X104533Y154551D01*
X104538Y154561D01*
X104555Y154587D01*
X104567Y154604D01*
X105971Y156008D01*
X106303Y156504D01*
X106419Y157090D01*
Y157886D01*
X106858Y158246D01*
X107517Y158378D01*
X107843Y158595D01*
X108168Y158378D01*
X108827Y158246D01*
X109486Y158378D01*
X110045Y158751D01*
X110418Y159309D01*
X110549Y159968D01*
Y160998D01*
X127187D01*
X127435Y160398D01*
X124893Y157856D01*
X118637D01*
X118469Y157865D01*
X118294Y157885D01*
X118246Y157918D01*
X117974Y157972D01*
X117949Y157979D01*
X117940Y157978D01*
X117587Y158049D01*
X112469D01*
X111810Y157918D01*
X111251Y157545D01*
X110878Y156986D01*
X110746Y156327D01*
X110878Y155668D01*
X111095Y155342D01*
X110878Y155017D01*
X110746Y154358D01*
X110878Y153699D01*
X111095Y153374D01*
X110878Y153049D01*
X110746Y152390D01*
X110878Y151731D01*
X111095Y151406D01*
X110878Y151080D01*
X110746Y150421D01*
X110878Y149762D01*
X111095Y149437D01*
X110878Y149112D01*
X110746Y148453D01*
X110878Y147794D01*
X111095Y147468D01*
X110878Y147143D01*
X110746Y146484D01*
X110878Y145825D01*
X111095Y145500D01*
X110878Y145175D01*
X110746Y144516D01*
X110386Y144077D01*
X106193D01*
X105786Y144686D01*
X105058Y145172D01*
X104200Y145343D01*
X103342Y145172D01*
X102614Y144686D01*
X102378Y144333D01*
X101619Y144244D01*
X99867Y145995D01*
X99855Y146012D01*
X99838Y146039D01*
X99833Y146049D01*
X99843Y146100D01*
X99672Y146958D01*
X99186Y147686D01*
X98458Y148172D01*
X97600Y148343D01*
X96742Y148172D01*
X96014Y147686D01*
X95528Y146958D01*
X95357Y146100D01*
X95528Y145242D01*
X96014Y144514D01*
X96742Y144028D01*
X97600Y143857D01*
X97651Y143867D01*
X97661Y143862D01*
X97688Y143845D01*
X97704Y143833D01*
X102040Y139497D01*
X102536Y139166D01*
X103121Y139049D01*
X110386D01*
X110746Y138610D01*
X110878Y137951D01*
X111095Y137626D01*
X110878Y137301D01*
X110746Y136642D01*
X110878Y135983D01*
X111095Y135658D01*
X110878Y135332D01*
X110746Y134673D01*
X110878Y134014D01*
X111251Y133456D01*
X111810Y133082D01*
X112469Y132951D01*
X117587D01*
X117940Y133021D01*
X117949Y133021D01*
X117974Y133028D01*
X118246Y133082D01*
X118290Y133112D01*
X118773Y133144D01*
X138191D01*
X138198Y133137D01*
X138414Y132814D01*
X139142Y132328D01*
X140000Y132157D01*
X140858Y132328D01*
X141586Y132814D01*
X142072Y133542D01*
X142243Y134400D01*
X142210Y134566D01*
X142634Y134990D01*
X142800Y134957D01*
X143658Y135128D01*
X144386Y135614D01*
X144872Y136342D01*
X145043Y137200D01*
X145010Y137366D01*
X145434Y137790D01*
X145600Y137757D01*
X146458Y137928D01*
X147186Y138414D01*
X147672Y139142D01*
X147843Y140000D01*
X147810Y140166D01*
X148234Y140590D01*
X148400Y140557D01*
X149258Y140728D01*
X149986Y141214D01*
X150472Y141942D01*
X150643Y142800D01*
X150610Y142966D01*
X151034Y143390D01*
X151200Y143357D01*
X152058Y143528D01*
X152786Y144014D01*
X153272Y144742D01*
X153443Y145600D01*
X153401Y145810D01*
X153826Y146234D01*
X153947Y146210D01*
X154806Y146380D01*
X155533Y146867D01*
X156020Y147594D01*
X156190Y148453D01*
X156166Y148574D01*
X156590Y148999D01*
X156800Y148957D01*
X157658Y149128D01*
X158386Y149614D01*
X158872Y150342D01*
X159043Y151200D01*
X159010Y151366D01*
X159434Y151790D01*
X159600Y151757D01*
X160458Y151928D01*
X161186Y152414D01*
X161672Y153142D01*
X161843Y154000D01*
X161810Y154166D01*
X162234Y154590D01*
X162400Y154557D01*
X163258Y154728D01*
X163986Y155214D01*
X164472Y155942D01*
X164643Y156800D01*
X164610Y156966D01*
X165034Y157390D01*
X165200Y157357D01*
X166058Y157528D01*
X166786Y158014D01*
X167272Y158742D01*
X167443Y159600D01*
X167410Y159766D01*
X167834Y160190D01*
X168000Y160157D01*
X168858Y160328D01*
X169586Y160814D01*
X170072Y161542D01*
X170243Y162400D01*
X170072Y163258D01*
X169586Y163986D01*
X168858Y164472D01*
X168000Y164643D01*
X167142Y164472D01*
X166700Y164177D01*
X166622Y164140D01*
X166581Y164108D01*
X166571Y164102D01*
X166558Y164095D01*
X166538Y164087D01*
X166513Y164078D01*
X166479Y164069D01*
X166437Y164061D01*
X166410Y164057D01*
X110549D01*
Y165087D01*
X110418Y165746D01*
X110045Y166304D01*
X109486Y166678D01*
X108827Y166809D01*
D02*
G37*
G36*
X126370Y167244D02*
X124000D01*
Y165268D01*
X126370D01*
Y167244D01*
D02*
G37*
G36*
X123000D02*
X120630D01*
Y165268D01*
X123000D01*
Y167244D01*
D02*
G37*
G36*
X118370D02*
X116000D01*
Y165268D01*
X118370D01*
Y167244D01*
D02*
G37*
G36*
X115000D02*
X112630D01*
Y165268D01*
X115000D01*
Y167244D01*
D02*
G37*
G36*
X14469Y167500D02*
X8500D01*
Y163965D01*
X10500D01*
X11544Y164103D01*
X12517Y164506D01*
X13353Y165147D01*
X13994Y165983D01*
X14397Y166956D01*
X14469Y167500D01*
D02*
G37*
G36*
X197500Y162034D02*
X195500D01*
X194456Y161897D01*
X193483Y161494D01*
X192647Y160853D01*
X192006Y160017D01*
X191603Y159044D01*
X191531Y158500D01*
X197500D01*
Y162034D01*
D02*
G37*
G36*
Y157500D02*
X191531D01*
X191603Y156956D01*
X192006Y155983D01*
X192647Y155147D01*
X193483Y154506D01*
X194456Y154103D01*
X195500Y153965D01*
X197500D01*
Y157500D01*
D02*
G37*
G36*
X65744Y148870D02*
X63768D01*
Y146500D01*
X65744D01*
Y148870D01*
D02*
G37*
G36*
X197500Y142034D02*
X195500D01*
X194456Y141897D01*
X193483Y141494D01*
X192647Y140853D01*
X192006Y140017D01*
X191603Y139044D01*
X191531Y138500D01*
X197500D01*
Y142034D01*
D02*
G37*
G36*
X65744Y139300D02*
X63768D01*
Y136930D01*
X65744D01*
Y139300D01*
D02*
G37*
G36*
X197500Y137500D02*
X191531D01*
X191603Y136956D01*
X192006Y135983D01*
X192647Y135147D01*
X193483Y134506D01*
X194456Y134103D01*
X195500Y133966D01*
X197500D01*
Y137500D01*
D02*
G37*
G36*
Y132035D02*
X195500D01*
X194456Y131897D01*
X193483Y131494D01*
X192647Y130853D01*
X192006Y130017D01*
X191603Y129044D01*
X191531Y128500D01*
X197500D01*
Y132035D01*
D02*
G37*
G36*
Y127500D02*
X191531D01*
X191603Y126956D01*
X192006Y125983D01*
X192647Y125147D01*
X193483Y124506D01*
X194456Y124103D01*
X195500Y123966D01*
X197500D01*
Y127500D01*
D02*
G37*
G36*
X136708Y106232D02*
X134338D01*
Y104256D01*
X136708D01*
Y106232D01*
D02*
G37*
G36*
X133338D02*
X130968D01*
Y104256D01*
X133338D01*
Y106232D01*
D02*
G37*
G36*
X85875Y100097D02*
X85046D01*
Y97600D01*
X87346D01*
Y98626D01*
X87234Y99189D01*
X86915Y99666D01*
X86438Y99985D01*
X85875Y100097D01*
D02*
G37*
G36*
X104497Y97154D02*
X102000D01*
Y94854D01*
X103026D01*
X103589Y94966D01*
X104066Y95284D01*
X104385Y95762D01*
X104497Y96325D01*
Y97154D01*
D02*
G37*
G36*
X101000D02*
X98503D01*
Y96325D01*
X98615Y95762D01*
X98934Y95284D01*
X99411Y94966D01*
X99974Y94854D01*
X101000D01*
Y97154D01*
D02*
G37*
G36*
X87346Y96600D02*
X85046D01*
Y94103D01*
X85875D01*
X86438Y94215D01*
X86915Y94534D01*
X87234Y95011D01*
X87346Y95574D01*
Y96600D01*
D02*
G37*
G36*
X10500Y82034D02*
X8500D01*
Y78500D01*
X14469D01*
X14397Y79044D01*
X13994Y80017D01*
X13353Y80853D01*
X12517Y81494D01*
X11544Y81897D01*
X10500Y82034D01*
D02*
G37*
G36*
X14469Y77500D02*
X8500D01*
Y73966D01*
X10500D01*
X11544Y74103D01*
X12517Y74506D01*
X13353Y75147D01*
X13994Y75983D01*
X14397Y76956D01*
X14469Y77500D01*
D02*
G37*
G36*
X197500Y72035D02*
X195500D01*
X194456Y71897D01*
X193483Y71494D01*
X192647Y70853D01*
X192006Y70017D01*
X191603Y69044D01*
X191531Y68500D01*
X197500D01*
Y72035D01*
D02*
G37*
G36*
X10500D02*
X8500D01*
Y68500D01*
X14469D01*
X14397Y69044D01*
X13994Y70017D01*
X13353Y70853D01*
X12517Y71494D01*
X11544Y71897D01*
X10500Y72035D01*
D02*
G37*
G36*
X197500Y67500D02*
X191531D01*
X191603Y66956D01*
X192006Y65983D01*
X192647Y65147D01*
X193483Y64506D01*
X194456Y64103D01*
X195500Y63965D01*
X197500D01*
Y67500D01*
D02*
G37*
G36*
X14469D02*
X8500D01*
Y63965D01*
X10500D01*
X11544Y64103D01*
X12517Y64506D01*
X13353Y65147D01*
X13994Y65983D01*
X14397Y66956D01*
X14469Y67500D01*
D02*
G37*
G36*
X101646Y61797D02*
X100818D01*
X100255Y61685D01*
X99777Y61366D01*
X99458Y60889D01*
X99435Y60769D01*
X98165D01*
X98141Y60889D01*
X97823Y61366D01*
X97345Y61685D01*
X96782Y61797D01*
X94125D01*
X93562Y61685D01*
X93085Y61366D01*
X92766Y60889D01*
X92654Y60326D01*
Y60227D01*
X89000D01*
X88454Y60119D01*
X87991Y59809D01*
X87991Y59809D01*
X86991Y58809D01*
X86681Y58346D01*
X86573Y57800D01*
X86573Y57800D01*
Y51391D01*
X78609Y43427D01*
X74583D01*
X74575Y43429D01*
X74555Y43435D01*
X74534Y43443D01*
X74511Y43454D01*
X74486Y43470D01*
X74456Y43491D01*
X74442Y43503D01*
X74386Y43586D01*
X73658Y44072D01*
X72800Y44243D01*
X71942Y44072D01*
X71214Y43586D01*
X70728Y42858D01*
X70557Y42000D01*
X70728Y41142D01*
X71214Y40414D01*
X71942Y39928D01*
X72800Y39757D01*
X73658Y39928D01*
X74386Y40414D01*
X74442Y40497D01*
X74456Y40509D01*
X74486Y40530D01*
X74511Y40546D01*
X74534Y40557D01*
X74555Y40565D01*
X74575Y40571D01*
X74583Y40573D01*
X79200D01*
X79200Y40573D01*
X79746Y40681D01*
X80209Y40991D01*
X89009Y49791D01*
X89009Y49791D01*
X89319Y50254D01*
X89427Y50800D01*
X89427Y50800D01*
Y57209D01*
X89591Y57373D01*
X92654D01*
Y57274D01*
X92766Y56711D01*
X93085Y56234D01*
X93562Y55915D01*
X94125Y55803D01*
X96782D01*
X97345Y55915D01*
X97823Y56234D01*
X98141Y56711D01*
X98165Y56832D01*
X99435D01*
X99458Y56711D01*
X99777Y56234D01*
X100255Y55915D01*
X100818Y55803D01*
X101646D01*
Y58800D01*
Y61797D01*
D02*
G37*
G36*
X103475D02*
X102647D01*
Y59300D01*
X104946D01*
Y60326D01*
X104834Y60889D01*
X104516Y61366D01*
X104038Y61685D01*
X103475Y61797D01*
D02*
G37*
G36*
X197500Y62034D02*
X195500D01*
X194456Y61897D01*
X193483Y61494D01*
X192647Y60853D01*
X192006Y60017D01*
X191603Y59044D01*
X191531Y58500D01*
X197500D01*
Y62034D01*
D02*
G37*
G36*
X104946Y58300D02*
X102647D01*
Y55803D01*
X103475D01*
X104038Y55915D01*
X104516Y56234D01*
X104834Y56711D01*
X104946Y57274D01*
Y58300D01*
D02*
G37*
G36*
X197500Y57500D02*
X191531D01*
X191603Y56956D01*
X192006Y55983D01*
X192647Y55147D01*
X193483Y54506D01*
X194456Y54103D01*
X195500Y53966D01*
X197500D01*
Y57500D01*
D02*
G37*
G36*
X98000Y51542D02*
X95882Y51375D01*
X93815Y50879D01*
X91852Y50066D01*
X90040Y48956D01*
X88424Y47576D01*
X87045Y45960D01*
X85934Y44148D01*
X85121Y42185D01*
X84625Y40118D01*
X84458Y38000D01*
X84625Y35882D01*
X85121Y33815D01*
X85934Y31852D01*
X87045Y30040D01*
X88424Y28425D01*
X90040Y27044D01*
X91852Y25934D01*
X93815Y25121D01*
X95882Y24625D01*
X98000Y24458D01*
X100118Y24625D01*
X102185Y25121D01*
X104148Y25934D01*
X105960Y27044D01*
X107576Y28425D01*
X108956Y30040D01*
X110066Y31852D01*
X110879Y33815D01*
X111375Y35882D01*
X111542Y38000D01*
X111375Y40118D01*
X110879Y42185D01*
X110066Y44148D01*
X108956Y45960D01*
X107576Y47576D01*
X105960Y48956D01*
X104148Y50066D01*
X102185Y50879D01*
X100118Y51375D01*
X98000Y51542D01*
D02*
G37*
G36*
X108500Y14469D02*
Y8500D01*
X112034D01*
Y10500D01*
X111897Y11544D01*
X111494Y12517D01*
X110853Y13353D01*
X110017Y13994D01*
X109044Y14397D01*
X108500Y14469D01*
D02*
G37*
G36*
X98500D02*
Y8500D01*
X102034D01*
Y10500D01*
X101897Y11544D01*
X101494Y12517D01*
X100853Y13353D01*
X100017Y13994D01*
X99044Y14397D01*
X98500Y14469D01*
D02*
G37*
G36*
X88500D02*
Y8500D01*
X92035D01*
Y10500D01*
X91897Y11544D01*
X91494Y12517D01*
X90853Y13353D01*
X90017Y13994D01*
X89044Y14397D01*
X88500Y14469D01*
D02*
G37*
G36*
X107500D02*
X106956Y14397D01*
X105983Y13994D01*
X105147Y13353D01*
X104506Y12517D01*
X104103Y11544D01*
X103965Y10500D01*
Y8500D01*
X107500D01*
Y14469D01*
D02*
G37*
G36*
X97500D02*
X96956Y14397D01*
X95983Y13994D01*
X95147Y13353D01*
X94506Y12517D01*
X94103Y11544D01*
X93966Y10500D01*
Y8500D01*
X97500D01*
Y14469D01*
D02*
G37*
G36*
X87500D02*
X86956Y14397D01*
X85983Y13994D01*
X85147Y13353D01*
X84506Y12517D01*
X84103Y11544D01*
X83965Y10500D01*
Y8500D01*
X87500D01*
Y14469D01*
D02*
G37*
%LPD*%
G36*
X167059Y161656D02*
X166997Y161726D01*
X166928Y161790D01*
X166852Y161845D01*
X166771Y161894D01*
X166682Y161935D01*
X166587Y161968D01*
X166485Y161994D01*
X166376Y162013D01*
X166261Y162024D01*
X166139Y162028D01*
X166257Y163028D01*
X166378Y163031D01*
X166494Y163040D01*
X166605Y163054D01*
X166710Y163075D01*
X166811Y163102D01*
X166906Y163135D01*
X166997Y163174D01*
X167082Y163219D01*
X167162Y163270D01*
X167237Y163326D01*
X167059Y161656D01*
D02*
G37*
G36*
X109515Y163433D02*
X109546Y163348D01*
X109596Y163273D01*
X109667Y163208D01*
X109758Y163153D01*
X109869Y163108D01*
X110001Y163073D01*
X110153Y163048D01*
X110325Y163033D01*
X110517Y163028D01*
Y162028D01*
X110325Y162023D01*
X110153Y162008D01*
X110001Y161983D01*
X109869Y161948D01*
X109758Y161903D01*
X109667Y161848D01*
X109596Y161783D01*
X109546Y161708D01*
X109515Y161623D01*
X109505Y161528D01*
Y163528D01*
X109515Y163433D01*
D02*
G37*
G36*
X164343Y158760D02*
X164274Y158825D01*
X164198Y158882D01*
X164117Y158933D01*
X164030Y158978D01*
X163938Y159015D01*
X163840Y159046D01*
X163736Y159069D01*
X163626Y159086D01*
X163510Y159097D01*
X163389Y159100D01*
Y160100D01*
X163510Y160103D01*
X163626Y160114D01*
X163736Y160131D01*
X163840Y160154D01*
X163938Y160185D01*
X164030Y160222D01*
X164117Y160267D01*
X164198Y160318D01*
X164274Y160375D01*
X164343Y160440D01*
Y158760D01*
D02*
G37*
G36*
X105501Y159655D02*
X105478Y159590D01*
X105457Y159509D01*
X105439Y159413D01*
X105412Y159171D01*
X105395Y158867D01*
X105390Y158498D01*
X104390D01*
X104388Y158690D01*
X104340Y159413D01*
X104322Y159509D01*
X104302Y159590D01*
X104278Y159655D01*
X104252Y159704D01*
X105527D01*
X105501Y159655D01*
D02*
G37*
G36*
X161543Y155960D02*
X161474Y156025D01*
X161398Y156082D01*
X161317Y156133D01*
X161230Y156178D01*
X161138Y156215D01*
X161040Y156246D01*
X160936Y156269D01*
X160826Y156286D01*
X160710Y156297D01*
X160589Y156300D01*
Y157300D01*
X160710Y157303D01*
X160826Y157314D01*
X160936Y157331D01*
X161040Y157354D01*
X161138Y157385D01*
X161230Y157422D01*
X161317Y157467D01*
X161398Y157518D01*
X161474Y157575D01*
X161543Y157640D01*
Y155960D01*
D02*
G37*
G36*
X117900Y156938D02*
X117965Y156915D01*
X118046Y156894D01*
X118143Y156876D01*
X118384Y156849D01*
X118689Y156832D01*
X119057Y156827D01*
Y155827D01*
X118865Y155825D01*
X118143Y155777D01*
X118046Y155759D01*
X117965Y155739D01*
X117900Y155715D01*
X117851Y155689D01*
Y156965D01*
X117900Y156938D01*
D02*
G37*
G36*
X103934Y155427D02*
X103851Y155339D01*
X103776Y155250D01*
X103711Y155160D01*
X103654Y155070D01*
X103606Y154979D01*
X103567Y154887D01*
X103537Y154794D01*
X103516Y154701D01*
X103503Y154607D01*
X103500Y154512D01*
X102312Y155700D01*
X102407Y155703D01*
X102501Y155716D01*
X102594Y155737D01*
X102687Y155767D01*
X102779Y155806D01*
X102870Y155854D01*
X102960Y155911D01*
X103050Y155976D01*
X103139Y156051D01*
X103227Y156134D01*
X103934Y155427D01*
D02*
G37*
G36*
X117900Y154970D02*
X117965Y154946D01*
X118046Y154926D01*
X118143Y154908D01*
X118384Y154880D01*
X118689Y154864D01*
X119057Y154858D01*
Y153858D01*
X118865Y153857D01*
X118143Y153809D01*
X118046Y153791D01*
X117965Y153770D01*
X117900Y153747D01*
X117851Y153721D01*
Y154996D01*
X117900Y154970D01*
D02*
G37*
G36*
X158743Y153160D02*
X158674Y153225D01*
X158598Y153282D01*
X158517Y153333D01*
X158430Y153378D01*
X158338Y153415D01*
X158240Y153446D01*
X158136Y153469D01*
X158026Y153486D01*
X157910Y153497D01*
X157789Y153500D01*
Y154500D01*
X157910Y154503D01*
X158026Y154514D01*
X158136Y154531D01*
X158240Y154554D01*
X158338Y154585D01*
X158430Y154622D01*
X158517Y154667D01*
X158598Y154718D01*
X158674Y154775D01*
X158743Y154840D01*
Y153160D01*
D02*
G37*
G36*
X117900Y153001D02*
X117965Y152978D01*
X118046Y152957D01*
X118143Y152939D01*
X118384Y152912D01*
X118689Y152895D01*
X119057Y152890D01*
Y151890D01*
X118865Y151888D01*
X118143Y151840D01*
X118046Y151822D01*
X117965Y151802D01*
X117900Y151778D01*
X117851Y151752D01*
Y153027D01*
X117900Y153001D01*
D02*
G37*
G36*
X155943Y150360D02*
X155874Y150425D01*
X155798Y150482D01*
X155717Y150533D01*
X155630Y150578D01*
X155538Y150615D01*
X155440Y150646D01*
X155336Y150669D01*
X155226Y150686D01*
X155110Y150697D01*
X154989Y150700D01*
Y151700D01*
X155110Y151703D01*
X155226Y151714D01*
X155336Y151731D01*
X155440Y151754D01*
X155538Y151785D01*
X155630Y151822D01*
X155717Y151867D01*
X155798Y151918D01*
X155874Y151975D01*
X155943Y152040D01*
Y150360D01*
D02*
G37*
G36*
X117900Y151033D02*
X117965Y151009D01*
X118046Y150989D01*
X118143Y150971D01*
X118384Y150943D01*
X118689Y150927D01*
X119057Y150921D01*
Y149921D01*
X118865Y149920D01*
X118143Y149872D01*
X118046Y149854D01*
X117965Y149833D01*
X117900Y149810D01*
X117851Y149784D01*
Y151059D01*
X117900Y151033D01*
D02*
G37*
G36*
Y149064D02*
X117965Y149041D01*
X118046Y149020D01*
X118143Y149002D01*
X118384Y148975D01*
X118689Y148958D01*
X119057Y148953D01*
Y147953D01*
X118865Y147951D01*
X118143Y147903D01*
X118046Y147885D01*
X117965Y147865D01*
X117900Y147841D01*
X117851Y147815D01*
Y149091D01*
X117900Y149064D01*
D02*
G37*
G36*
X153090Y147613D02*
X153021Y147677D01*
X152945Y147735D01*
X152865Y147786D01*
X152778Y147830D01*
X152685Y147868D01*
X152587Y147898D01*
X152483Y147922D01*
X152373Y147939D01*
X152258Y147949D01*
X152136Y147953D01*
Y148953D01*
X152258Y148956D01*
X152373Y148966D01*
X152483Y148983D01*
X152587Y149007D01*
X152685Y149038D01*
X152778Y149075D01*
X152865Y149119D01*
X152945Y149170D01*
X153021Y149228D01*
X153090Y149293D01*
Y147613D01*
D02*
G37*
G36*
X117900Y147096D02*
X117965Y147072D01*
X118046Y147052D01*
X118143Y147034D01*
X118384Y147006D01*
X118689Y146990D01*
X119057Y146984D01*
Y145984D01*
X118865Y145983D01*
X118143Y145935D01*
X118046Y145917D01*
X117965Y145896D01*
X117900Y145873D01*
X117851Y145847D01*
Y147122D01*
X117900Y147096D01*
D02*
G37*
G36*
X150343Y144760D02*
X150274Y144825D01*
X150198Y144882D01*
X150117Y144933D01*
X150030Y144978D01*
X149938Y145015D01*
X149840Y145046D01*
X149736Y145069D01*
X149626Y145086D01*
X149510Y145097D01*
X149389Y145100D01*
Y146100D01*
X149510Y146103D01*
X149626Y146114D01*
X149736Y146131D01*
X149840Y146154D01*
X149938Y146185D01*
X150030Y146222D01*
X150117Y146267D01*
X150198Y146318D01*
X150274Y146375D01*
X150343Y146440D01*
Y144760D01*
D02*
G37*
G36*
X98803Y145993D02*
X98816Y145899D01*
X98837Y145806D01*
X98867Y145713D01*
X98906Y145621D01*
X98954Y145530D01*
X99011Y145440D01*
X99076Y145350D01*
X99151Y145261D01*
X99234Y145173D01*
X98527Y144466D01*
X98439Y144549D01*
X98350Y144624D01*
X98260Y144689D01*
X98170Y144746D01*
X98079Y144794D01*
X97987Y144833D01*
X97894Y144863D01*
X97801Y144884D01*
X97707Y144897D01*
X97612Y144900D01*
X98800Y146088D01*
X98803Y145993D01*
D02*
G37*
G36*
X117900Y145127D02*
X117965Y145104D01*
X118046Y145083D01*
X118143Y145065D01*
X118384Y145038D01*
X118689Y145021D01*
X119057Y145016D01*
Y144016D01*
X118865Y144014D01*
X118143Y143966D01*
X118046Y143948D01*
X117965Y143928D01*
X117900Y143904D01*
X117851Y143878D01*
Y145153D01*
X117900Y145127D01*
D02*
G37*
G36*
X105377Y143374D02*
X105418Y143306D01*
X105469Y143245D01*
X105530Y143193D01*
X105602Y143148D01*
X105684Y143112D01*
X105777Y143084D01*
X105881Y143063D01*
X105994Y143051D01*
X106119Y143047D01*
X105985Y142047D01*
X104606Y141971D01*
X105348Y143451D01*
X105377Y143374D01*
D02*
G37*
G36*
X147543Y141960D02*
X147474Y142025D01*
X147398Y142082D01*
X147317Y142133D01*
X147230Y142178D01*
X147138Y142215D01*
X147040Y142246D01*
X146936Y142269D01*
X146826Y142286D01*
X146710Y142297D01*
X146589Y142300D01*
Y143300D01*
X146710Y143303D01*
X146826Y143314D01*
X146936Y143331D01*
X147040Y143354D01*
X147138Y143385D01*
X147230Y143422D01*
X147317Y143467D01*
X147398Y143518D01*
X147474Y143575D01*
X147543Y143640D01*
Y141960D01*
D02*
G37*
G36*
X112204Y141910D02*
X112155Y141936D01*
X112090Y141959D01*
X112009Y141980D01*
X111913Y141998D01*
X111671Y142025D01*
X111366Y142042D01*
X110998Y142047D01*
Y143047D01*
X111190Y143049D01*
X111913Y143097D01*
X112009Y143115D01*
X112090Y143135D01*
X112155Y143159D01*
X112204Y143185D01*
Y141910D01*
D02*
G37*
G36*
Y139941D02*
X112155Y139967D01*
X112090Y139991D01*
X112009Y140011D01*
X111913Y140029D01*
X111671Y140057D01*
X111366Y140073D01*
X110998Y140079D01*
Y141079D01*
X111190Y141080D01*
X111913Y141128D01*
X112009Y141146D01*
X112090Y141167D01*
X112155Y141190D01*
X112204Y141216D01*
Y139941D01*
D02*
G37*
G36*
X144743Y139160D02*
X144674Y139225D01*
X144598Y139282D01*
X144517Y139333D01*
X144430Y139378D01*
X144338Y139415D01*
X144240Y139446D01*
X144136Y139469D01*
X144026Y139486D01*
X143910Y139497D01*
X143789Y139500D01*
Y140500D01*
X143910Y140503D01*
X144026Y140514D01*
X144136Y140531D01*
X144240Y140554D01*
X144338Y140585D01*
X144430Y140622D01*
X144517Y140667D01*
X144598Y140718D01*
X144674Y140775D01*
X144743Y140840D01*
Y139160D01*
D02*
G37*
G36*
X117900Y139222D02*
X117965Y139198D01*
X118046Y139178D01*
X118143Y139160D01*
X118384Y139132D01*
X118689Y139116D01*
X119057Y139110D01*
Y138110D01*
X118865Y138109D01*
X118143Y138061D01*
X118046Y138043D01*
X117965Y138022D01*
X117900Y137999D01*
X117851Y137973D01*
Y139248D01*
X117900Y139222D01*
D02*
G37*
G36*
X141943Y136360D02*
X141874Y136425D01*
X141798Y136482D01*
X141717Y136533D01*
X141630Y136578D01*
X141538Y136615D01*
X141440Y136646D01*
X141336Y136669D01*
X141226Y136686D01*
X141110Y136697D01*
X140989Y136700D01*
Y137700D01*
X141110Y137703D01*
X141226Y137714D01*
X141336Y137731D01*
X141440Y137754D01*
X141538Y137785D01*
X141630Y137822D01*
X141717Y137867D01*
X141798Y137918D01*
X141874Y137975D01*
X141943Y138040D01*
Y136360D01*
D02*
G37*
G36*
X117900Y137253D02*
X117965Y137230D01*
X118046Y137209D01*
X118143Y137191D01*
X118384Y137164D01*
X118689Y137147D01*
X119057Y137142D01*
Y136142D01*
X118865Y136140D01*
X118143Y136092D01*
X118046Y136074D01*
X117965Y136054D01*
X117900Y136030D01*
X117851Y136004D01*
Y137279D01*
X117900Y137253D01*
D02*
G37*
G36*
Y135285D02*
X117965Y135261D01*
X118046Y135241D01*
X118143Y135223D01*
X118384Y135195D01*
X118689Y135179D01*
X119057Y135173D01*
Y134173D01*
X118865Y134172D01*
X118143Y134124D01*
X118046Y134106D01*
X117965Y134085D01*
X117900Y134062D01*
X117851Y134036D01*
Y135311D01*
X117900Y135285D01*
D02*
G37*
G36*
X138974Y133777D02*
X138922Y133852D01*
X138862Y133920D01*
X138795Y133979D01*
X138719Y134031D01*
X138636Y134074D01*
X138545Y134110D01*
X138446Y134138D01*
X138339Y134157D01*
X138224Y134169D01*
X138102Y134173D01*
X138362Y135173D01*
X138483Y135176D01*
X138711Y135195D01*
X138818Y135212D01*
X138919Y135233D01*
X139016Y135260D01*
X139109Y135291D01*
X139196Y135327D01*
X139279Y135368D01*
X139357Y135413D01*
X138974Y133777D01*
D02*
G37*
G36*
X93698Y58000D02*
X93689Y58076D01*
X93665Y58144D01*
X93624Y58204D01*
X93568Y58256D01*
X93494Y58300D01*
X93405Y58336D01*
X93300Y58364D01*
X93178Y58384D01*
X93040Y58396D01*
X92886Y58400D01*
Y59200D01*
X93040Y59204D01*
X93178Y59216D01*
X93300Y59236D01*
X93405Y59264D01*
X93494Y59300D01*
X93568Y59344D01*
X93624Y59396D01*
X93665Y59456D01*
X93689Y59524D01*
X93698Y59600D01*
Y58000D01*
D02*
G37*
G36*
X73745Y42756D02*
X73835Y42682D01*
X73928Y42616D01*
X74023Y42558D01*
X74121Y42510D01*
X74222Y42470D01*
X74325Y42440D01*
X74431Y42418D01*
X74540Y42404D01*
X74651Y42400D01*
Y41600D01*
X74540Y41596D01*
X74431Y41582D01*
X74325Y41560D01*
X74222Y41530D01*
X74121Y41490D01*
X74023Y41442D01*
X73928Y41384D01*
X73835Y41318D01*
X73745Y41244D01*
X73657Y41160D01*
Y42840D01*
X73745Y42756D01*
D02*
G37*
%LPC*%
G36*
X197500Y192034D02*
X195500D01*
X194456Y191897D01*
X193483Y191494D01*
X192647Y190853D01*
X192006Y190017D01*
X191603Y189044D01*
X191531Y188500D01*
X197500D01*
Y192034D01*
D02*
G37*
G36*
Y187500D02*
X191531D01*
X191603Y186956D01*
X192006Y185983D01*
X192647Y185147D01*
X193483Y184506D01*
X194456Y184103D01*
X195500Y183966D01*
X197500D01*
Y187500D01*
D02*
G37*
G36*
X12000Y14500D02*
X8500D01*
Y8500D01*
X12000D01*
Y14500D01*
D02*
G37*
%LPD*%
D13*
X72800Y42000D02*
X79200D01*
X88000Y50800D01*
Y57800D01*
X89000Y58800D01*
X95454D01*
X115441Y82563D02*
Y90141D01*
D16*
X131600Y156800D02*
X162400D01*
X129158Y154358D02*
X131600Y156800D01*
X115028Y154358D02*
X129158D01*
X134400Y154000D02*
X159600D01*
X132790Y152390D02*
X134400Y154000D01*
X115028Y152390D02*
X132790D01*
X123200Y137200D02*
X142800D01*
X122642Y136642D02*
X123200Y137200D01*
X115028Y136642D02*
X122642D01*
X123200Y145600D02*
X151200D01*
X122316Y146484D02*
X123200Y145600D01*
X115028Y146484D02*
X122316D01*
X123200Y142800D02*
X148400D01*
X121484Y144516D02*
X123200Y142800D01*
X115028Y144516D02*
X121484D01*
X123200Y140000D02*
X145600D01*
X121810Y138610D02*
X123200Y140000D01*
X115028Y138610D02*
X121810D01*
X58000Y8000D02*
Y10654D01*
X100953Y166953D02*
X102000Y168000D01*
X100953Y162528D02*
Y166953D01*
X76000Y150000D02*
X77547Y148453D01*
X80972D01*
X8000Y128000D02*
X10000Y126000D01*
X76000Y118000D02*
X80000Y114000D01*
X80900Y109200D02*
X83200D01*
X77854Y106154D02*
X80900Y109200D01*
X167872Y162528D02*
X168000Y162400D01*
X108827Y162528D02*
X167872D01*
X128800Y159600D02*
X165200D01*
X125527Y156327D02*
X128800Y159600D01*
X115028Y156327D02*
X125527D01*
X137200Y151200D02*
X156800D01*
X136421Y150421D02*
X137200Y151200D01*
X115028Y150421D02*
X136421D01*
X153947Y148453D02*
X154000Y148400D01*
X115028Y148453D02*
X153947D01*
X139727Y134673D02*
X140000Y134400D01*
X115028Y134673D02*
X139727D01*
X125100Y108900D02*
Y109100D01*
X128500Y112500D01*
X138400D01*
X141800Y109100D01*
Y104347D02*
Y109100D01*
X77854Y104900D02*
Y106154D01*
X89100Y119200D02*
X89142Y119242D01*
Y128472D01*
X70978Y97100D02*
X77854D01*
X68700Y99378D02*
X70978Y97100D01*
Y104900D02*
X77854D01*
X68700Y102622D02*
X70978Y104900D01*
X30300Y35500D02*
X72800D01*
X89000Y19300D01*
X10000Y126000D02*
X66300D01*
X89000Y19300D02*
X114400D01*
X118000Y15700D01*
Y8000D02*
Y15700D01*
X104200Y143300D02*
X104953Y142547D01*
X104200Y143100D02*
Y143300D01*
X102300Y154500D02*
X104890Y157090D01*
Y162528D01*
X97600Y146100D02*
X103121Y140579D01*
X115028D01*
X104953Y142547D02*
X115028D01*
X95047Y169350D02*
X98953Y173256D01*
X95047Y162528D02*
Y169350D01*
X8000Y198000D02*
X32647D01*
X55200Y175446D01*
Y164044D02*
Y168754D01*
Y164044D02*
X66244Y153000D01*
X71756Y146000D02*
Y153000D01*
X72240Y146484D02*
X80972D01*
X71756Y146000D02*
X72240Y146484D01*
X89142Y156458D02*
Y162528D01*
X91110Y157990D02*
Y162528D01*
Y157990D02*
X92600Y156500D01*
X80972Y150421D02*
X85279D01*
X88190Y138610D02*
X88200Y138600D01*
X80972Y138610D02*
X88190D01*
X109600Y89781D02*
X112882Y86500D01*
X109600Y89781D02*
Y97654D01*
X101500Y104347D02*
X109600D01*
X101500Y104347D02*
X101500Y104347D01*
X101500Y104347D02*
Y113000D01*
X95047Y119453D02*
X101500Y113000D01*
X95047Y119453D02*
Y128472D01*
X103925Y85634D02*
X111159Y78400D01*
X125200D01*
X132075Y85275D01*
Y85634D01*
Y96319D01*
X134000Y98244D01*
X98984Y121016D02*
Y128472D01*
Y121016D02*
X99100Y120900D01*
X100953Y123247D02*
Y128472D01*
X85279Y150421D02*
X86800Y148900D01*
Y148453D02*
Y148900D01*
X80972Y152390D02*
X88610D01*
X90100Y150900D01*
X90200D01*
X100953Y123247D02*
X106600Y117600D01*
X8000Y118000D02*
X68800D01*
X76000D01*
X95047Y149747D02*
Y162528D01*
X87847Y142547D02*
X95047Y149747D01*
X80972Y142547D02*
X87847D01*
X87847Y142547D01*
X76147Y142547D02*
X80972D01*
X73400Y139800D02*
X76147Y142547D01*
X71756Y139800D02*
X73400D01*
D18*
X0Y0D02*
Y254000D01*
X205500D01*
Y0D02*
Y254000D01*
X0Y0D02*
X205500D01*
D22*
X105647Y173256D02*
D03*
X98953D02*
D03*
X95454Y58800D02*
D03*
X102146D02*
D03*
X77854Y97100D02*
D03*
X84547D02*
D03*
X84547Y104900D02*
D03*
X77854D02*
D03*
D23*
X55200Y168754D02*
D03*
Y175446D02*
D03*
X141800Y104347D02*
D03*
Y97654D02*
D03*
X125680D02*
D03*
Y104347D02*
D03*
X117620Y97654D02*
D03*
Y104347D02*
D03*
X109560Y97654D02*
D03*
Y104347D02*
D03*
X101500Y104347D02*
D03*
Y97654D02*
D03*
D24*
X123500Y173256D02*
D03*
Y167744D02*
D03*
X115500Y173256D02*
D03*
Y167744D02*
D03*
X133838Y103756D02*
D03*
Y98244D02*
D03*
D25*
X68700Y99378D02*
D03*
Y102622D02*
D03*
D26*
X71756Y146000D02*
D03*
X66244D02*
D03*
X71756Y153000D02*
D03*
X66244D02*
D03*
X71756Y139800D02*
D03*
X66244D02*
D03*
D42*
X80972Y156327D02*
D03*
Y154358D02*
D03*
Y152390D02*
D03*
Y150421D02*
D03*
Y148453D02*
D03*
Y146484D02*
D03*
Y144516D02*
D03*
Y142547D02*
D03*
Y140579D02*
D03*
Y138610D02*
D03*
Y136642D02*
D03*
Y134673D02*
D03*
X115028D02*
D03*
Y136642D02*
D03*
Y138610D02*
D03*
Y140579D02*
D03*
Y142547D02*
D03*
Y144516D02*
D03*
Y146484D02*
D03*
Y148453D02*
D03*
Y150421D02*
D03*
Y152390D02*
D03*
Y154358D02*
D03*
Y156327D02*
D03*
D43*
X87173Y128472D02*
D03*
X89142D02*
D03*
X91110D02*
D03*
X93079D02*
D03*
X95047D02*
D03*
X97016D02*
D03*
X98984D02*
D03*
X100953D02*
D03*
X102921D02*
D03*
X104890D02*
D03*
X106858D02*
D03*
X108827D02*
D03*
Y162528D02*
D03*
X106858D02*
D03*
X104890D02*
D03*
X102921D02*
D03*
X100953D02*
D03*
X98984D02*
D03*
X97016D02*
D03*
X95047D02*
D03*
X93079D02*
D03*
X91110D02*
D03*
X89142D02*
D03*
X87173D02*
D03*
D44*
X11100Y28000D02*
X64400D01*
X8000D02*
X11100D01*
X64400D02*
X68000Y24400D01*
Y8000D02*
Y24400D01*
X122200Y208000D02*
X198000D01*
X98953Y184754D02*
X122200Y208000D01*
X122600Y198000D02*
X198000D01*
X105647Y181046D02*
X122600Y198000D01*
X98953Y173256D02*
Y184754D01*
X105647Y173256D02*
Y181046D01*
X141800Y71300D02*
Y97654D01*
X105647Y173256D02*
X115500D01*
X123500D01*
X190556Y168000D02*
X198000D01*
X123500Y173256D02*
X185300D01*
X190556Y168000D01*
X185300Y173256D02*
X190044Y178000D01*
X198000D01*
D45*
X116400Y117600D02*
X125100Y108900D01*
X106600Y117600D02*
X116400D01*
X112500Y113800D02*
X117701Y108599D01*
X106200Y113800D02*
X112500D01*
X99100Y120900D02*
X106200Y113800D01*
X125100Y108900D02*
X125801Y108199D01*
Y104347D02*
Y108199D01*
X115441Y90141D02*
X117701Y92401D01*
Y97654D01*
X118000Y86500D02*
X125801Y94301D01*
Y97654D01*
X117701Y104347D02*
Y108599D01*
D46*
X141800Y71300D02*
X159600D01*
X99800D02*
X141800D01*
X92300Y78800D02*
Y105000D01*
X92200Y104900D02*
X92300Y105000D01*
X84547Y104900D02*
X92200D01*
X61900Y78800D02*
X92300D01*
X11100Y28000D02*
X61900Y78800D01*
X159600Y71300D02*
X170100Y81800D01*
X92300Y78800D02*
X99800Y71300D01*
D47*
X178000Y238000D02*
D03*
X28000D02*
D03*
X98000Y38000D02*
D03*
D48*
X198000Y28000D02*
D03*
Y38000D02*
D03*
Y48000D02*
D03*
Y58000D02*
D03*
Y68000D02*
D03*
Y78000D02*
D03*
Y88000D02*
D03*
Y98000D02*
D03*
Y108000D02*
D03*
Y118000D02*
D03*
Y128000D02*
D03*
Y138000D02*
D03*
Y148000D02*
D03*
Y158000D02*
D03*
Y168000D02*
D03*
Y178000D02*
D03*
Y188000D02*
D03*
Y198000D02*
D03*
Y208000D02*
D03*
X8000Y28000D02*
D03*
Y38000D02*
D03*
Y48000D02*
D03*
Y58000D02*
D03*
Y68000D02*
D03*
Y78000D02*
D03*
Y88000D02*
D03*
Y98000D02*
D03*
Y108000D02*
D03*
Y118000D02*
D03*
Y128000D02*
D03*
Y138000D02*
D03*
Y148000D02*
D03*
Y158000D02*
D03*
Y168000D02*
D03*
Y178000D02*
D03*
Y188000D02*
D03*
Y198000D02*
D03*
Y208000D02*
D03*
D49*
X198000Y218000D02*
D03*
X8000D02*
D03*
D50*
X198000Y8000D02*
D03*
X188000D02*
D03*
X178000D02*
D03*
X168000D02*
D03*
X158000D02*
D03*
X148000D02*
D03*
X138000D02*
D03*
X128000D02*
D03*
X118000D02*
D03*
X108000D02*
D03*
X98000D02*
D03*
X88000D02*
D03*
X78000D02*
D03*
X68000D02*
D03*
X58000D02*
D03*
X48000D02*
D03*
X38000D02*
D03*
X28000D02*
D03*
X18000D02*
D03*
D51*
X8000D02*
D03*
D52*
X112882Y86500D02*
D03*
X115441Y82563D02*
D03*
X118000Y86500D02*
D03*
X123118D02*
D03*
X120559Y82563D02*
D03*
D53*
X103925Y85634D02*
D03*
X132075D02*
D03*
D54*
X72800Y42000D02*
D03*
X130000Y77500D02*
D03*
X92000Y122500D02*
D03*
X110000Y168500D02*
D03*
X102500D02*
D03*
X78000Y165500D02*
D03*
X106500Y149500D02*
D03*
X124000Y159500D02*
D03*
X40000Y18000D02*
D03*
X82000D02*
D03*
Y52000D02*
D03*
X66000D02*
D03*
Y84000D02*
D03*
Y74000D02*
D03*
X130000Y46000D02*
D03*
Y56000D02*
D03*
Y66000D02*
D03*
X60000Y130000D02*
D03*
X48000D02*
D03*
X36000D02*
D03*
X60000Y122000D02*
D03*
X48000D02*
D03*
X36000D02*
D03*
X60000Y114000D02*
D03*
X48000D02*
D03*
X36000D02*
D03*
X80000D02*
D03*
X83200Y109200D02*
D03*
X23400Y202800D02*
D03*
Y192400D02*
D03*
X49400D02*
D03*
X39000Y182000D02*
D03*
X54600Y156000D02*
D03*
X62400Y163800D02*
D03*
X187200Y106600D02*
D03*
Y119600D02*
D03*
Y132600D02*
D03*
X41600Y49400D02*
D03*
X33800Y57200D02*
D03*
X82000Y74000D02*
D03*
Y84000D02*
D03*
X93600Y70200D02*
D03*
X101400Y78000D02*
D03*
X166400Y67600D02*
D03*
X174200Y75400D02*
D03*
X182000Y83200D02*
D03*
X163800D02*
D03*
X174200Y93600D02*
D03*
Y106600D02*
D03*
Y119600D02*
D03*
Y132600D02*
D03*
Y145600D02*
D03*
Y158600D02*
D03*
X161200Y166400D02*
D03*
X132600D02*
D03*
X135200Y130000D02*
D03*
X182000Y213200D02*
D03*
X174200D02*
D03*
X166400D02*
D03*
X158600D02*
D03*
X150800D02*
D03*
X143000D02*
D03*
X135200D02*
D03*
X127400D02*
D03*
X119600D02*
D03*
X114400Y208000D02*
D03*
X109200Y202800D02*
D03*
X104000Y197600D02*
D03*
X98800Y192400D02*
D03*
X93600Y187200D02*
D03*
Y179400D02*
D03*
X184600Y192400D02*
D03*
X176800D02*
D03*
X169000D02*
D03*
X161200D02*
D03*
X153400D02*
D03*
X145600D02*
D03*
X137800D02*
D03*
X130000D02*
D03*
X122200Y189800D02*
D03*
X117000Y184600D02*
D03*
X111800Y179400D02*
D03*
X106600Y187200D02*
D03*
X111800Y192400D02*
D03*
X117000Y197600D02*
D03*
X124800Y202800D02*
D03*
X132600D02*
D03*
X140400D02*
D03*
X148200D02*
D03*
X156000D02*
D03*
X163800D02*
D03*
X171600D02*
D03*
X179400D02*
D03*
X187200D02*
D03*
X168000Y162400D02*
D03*
X165200Y159600D02*
D03*
X162400Y156800D02*
D03*
X159600Y154000D02*
D03*
X156800Y151200D02*
D03*
X153947Y148453D02*
D03*
X151200Y145600D02*
D03*
X148400Y142800D02*
D03*
X145600Y140000D02*
D03*
X142800Y137200D02*
D03*
X140000Y134400D02*
D03*
X89100Y119200D02*
D03*
X30300Y35500D02*
D03*
X66300Y126000D02*
D03*
X170100Y81800D02*
D03*
X104200Y143100D02*
D03*
X102300Y154500D02*
D03*
X97600Y146100D02*
D03*
X89142Y156458D02*
D03*
X92600Y156500D02*
D03*
X88200Y138600D02*
D03*
X86800Y148453D02*
D03*
X90200Y150900D02*
D03*
X106500Y122500D02*
D03*
X68800Y118000D02*
D03*
M02*
