G04*
G04 #@! TF.GenerationSoftware,Altium Limited,Altium Designer,21.6.4 (81)*
G04*
G04 Layer_Color=8388736*
%FSLAX25Y25*%
%MOIN*%
G70*
G04*
G04 #@! TF.SameCoordinates,808F42E2-5A5A-467D-BEA3-29F7E434B1D4*
G04*
G04*
G04 #@! TF.FilePolarity,Negative*
G04*
G01*
G75*
%ADD18C,0.01200*%
%ADD27R,0.06299X0.07087*%
%ADD28O,0.07296X0.02178*%
%ADD29O,0.02178X0.07296*%
G04:AMPARAMS|DCode=30|XSize=47.37mil|YSize=43.43mil|CornerRadius=8.43mil|HoleSize=0mil|Usage=FLASHONLY|Rotation=270.000|XOffset=0mil|YOffset=0mil|HoleType=Round|Shape=RoundedRectangle|*
%AMROUNDEDRECTD30*
21,1,0.04737,0.02657,0,0,270.0*
21,1,0.03051,0.04343,0,0,270.0*
1,1,0.01686,-0.01329,-0.01526*
1,1,0.01686,-0.01329,0.01526*
1,1,0.01686,0.01329,0.01526*
1,1,0.01686,0.01329,-0.01526*
%
%ADD30ROUNDEDRECTD30*%
G04:AMPARAMS|DCode=31|XSize=47.37mil|YSize=43.43mil|CornerRadius=8.43mil|HoleSize=0mil|Usage=FLASHONLY|Rotation=180.000|XOffset=0mil|YOffset=0mil|HoleType=Round|Shape=RoundedRectangle|*
%AMROUNDEDRECTD31*
21,1,0.04737,0.02657,0,0,180.0*
21,1,0.03051,0.04343,0,0,180.0*
1,1,0.01686,-0.01526,0.01329*
1,1,0.01686,0.01526,0.01329*
1,1,0.01686,0.01526,-0.01329*
1,1,0.01686,-0.01526,-0.01329*
%
%ADD31ROUNDEDRECTD31*%
%ADD32R,0.04540X0.03753*%
%ADD33R,0.05800X0.03300*%
%ADD34R,0.03753X0.04540*%
%ADD35C,0.25800*%
%ADD36O,0.11800X0.06800*%
%ADD37R,0.11800X0.06800*%
%ADD38O,0.06800X0.11800*%
%ADD39R,0.06800X0.11800*%
%ADD40C,0.03753*%
G04:AMPARAMS|DCode=41|XSize=47.37mil|YSize=70.99mil|CornerRadius=23.68mil|HoleSize=0mil|Usage=FLASHONLY|Rotation=0.000|XOffset=0mil|YOffset=0mil|HoleType=Round|Shape=RoundedRectangle|*
%AMROUNDEDRECTD41*
21,1,0.04737,0.02362,0,0,0.0*
21,1,0.00000,0.07099,0,0,0.0*
1,1,0.04737,0.00000,-0.01181*
1,1,0.04737,0.00000,-0.01181*
1,1,0.04737,0.00000,0.01181*
1,1,0.04737,0.00000,0.01181*
%
%ADD41ROUNDEDRECTD41*%
D18*
X0Y0D02*
Y254000D01*
X205500D01*
Y0D02*
Y254000D01*
X0Y0D02*
X205500D01*
D27*
X68700Y101000D02*
D03*
D28*
X80972Y156327D02*
D03*
Y154358D02*
D03*
Y152390D02*
D03*
Y150421D02*
D03*
Y148453D02*
D03*
Y146484D02*
D03*
Y144516D02*
D03*
Y142547D02*
D03*
Y140579D02*
D03*
Y138610D02*
D03*
Y136642D02*
D03*
Y134673D02*
D03*
X115028D02*
D03*
Y136642D02*
D03*
Y138610D02*
D03*
Y140579D02*
D03*
Y142547D02*
D03*
Y144516D02*
D03*
Y146484D02*
D03*
Y148453D02*
D03*
Y150421D02*
D03*
Y152390D02*
D03*
Y154358D02*
D03*
Y156327D02*
D03*
D29*
X87173Y128472D02*
D03*
X89142D02*
D03*
X91110D02*
D03*
X93079D02*
D03*
X95047D02*
D03*
X97016D02*
D03*
X98984D02*
D03*
X100953D02*
D03*
X102921D02*
D03*
X104890D02*
D03*
X106858D02*
D03*
X108827D02*
D03*
Y162528D02*
D03*
X106858D02*
D03*
X104890D02*
D03*
X102921D02*
D03*
X100953D02*
D03*
X98984D02*
D03*
X97016D02*
D03*
X95047D02*
D03*
X93079D02*
D03*
X91110D02*
D03*
X89142D02*
D03*
X87173D02*
D03*
D30*
X105647Y173256D02*
D03*
X98953D02*
D03*
X95454Y58800D02*
D03*
X102146D02*
D03*
X77854Y97100D02*
D03*
X84547D02*
D03*
X84547Y104900D02*
D03*
X77854D02*
D03*
D31*
X55200Y168754D02*
D03*
Y175446D02*
D03*
X141800Y104347D02*
D03*
Y97654D02*
D03*
X125680D02*
D03*
Y104347D02*
D03*
X117620Y97654D02*
D03*
Y104347D02*
D03*
X109560Y97654D02*
D03*
Y104347D02*
D03*
X101500Y104347D02*
D03*
Y97654D02*
D03*
D32*
X123500Y173256D02*
D03*
Y167744D02*
D03*
X115500Y173256D02*
D03*
Y167744D02*
D03*
X133838Y103756D02*
D03*
Y98244D02*
D03*
D33*
X68700Y99378D02*
D03*
Y102622D02*
D03*
D34*
X71756Y146000D02*
D03*
X66244D02*
D03*
X71756Y153000D02*
D03*
X66244D02*
D03*
X71756Y139800D02*
D03*
X66244D02*
D03*
D35*
X178000Y238000D02*
D03*
X28000D02*
D03*
X98000Y38000D02*
D03*
D36*
X198000Y28000D02*
D03*
Y38000D02*
D03*
Y48000D02*
D03*
Y58000D02*
D03*
Y68000D02*
D03*
Y78000D02*
D03*
Y88000D02*
D03*
Y98000D02*
D03*
Y108000D02*
D03*
Y118000D02*
D03*
Y128000D02*
D03*
Y138000D02*
D03*
Y148000D02*
D03*
Y158000D02*
D03*
Y168000D02*
D03*
Y178000D02*
D03*
Y188000D02*
D03*
Y198000D02*
D03*
Y208000D02*
D03*
X8000Y28000D02*
D03*
Y38000D02*
D03*
Y48000D02*
D03*
Y58000D02*
D03*
Y68000D02*
D03*
Y78000D02*
D03*
Y88000D02*
D03*
Y98000D02*
D03*
Y108000D02*
D03*
Y118000D02*
D03*
Y128000D02*
D03*
Y138000D02*
D03*
Y148000D02*
D03*
Y158000D02*
D03*
Y168000D02*
D03*
Y178000D02*
D03*
Y188000D02*
D03*
Y198000D02*
D03*
Y208000D02*
D03*
D37*
X198000Y218000D02*
D03*
X8000D02*
D03*
D38*
X198000Y8000D02*
D03*
X188000D02*
D03*
X178000D02*
D03*
X168000D02*
D03*
X158000D02*
D03*
X148000D02*
D03*
X138000D02*
D03*
X128000D02*
D03*
X118000D02*
D03*
X108000D02*
D03*
X98000D02*
D03*
X88000D02*
D03*
X78000D02*
D03*
X68000D02*
D03*
X58000D02*
D03*
X48000D02*
D03*
X38000D02*
D03*
X28000D02*
D03*
X18000D02*
D03*
D39*
X8000D02*
D03*
D40*
X112882Y86500D02*
D03*
X115441Y82563D02*
D03*
X118000Y86500D02*
D03*
X123118D02*
D03*
X120559Y82563D02*
D03*
D41*
X103925Y85634D02*
D03*
X132075D02*
D03*
M02*
