G04*
G04 #@! TF.GenerationSoftware,Altium Limited,Altium Designer,18.1.6 (161)*
G04*
G04 Layer_Color=32896*
%FSLAX25Y25*%
%MOIN*%
G70*
G01*
G75*
%ADD15C,0.01000*%
%ADD17C,0.00700*%
G36*
X121973Y166599D02*
Y166316D01*
X122257D01*
Y166032D01*
Y165749D01*
X122540D01*
Y165465D01*
Y165181D01*
Y164898D01*
X122824D01*
Y164614D01*
Y164330D01*
Y164047D01*
Y163763D01*
X123107D01*
Y163480D01*
Y163196D01*
Y162912D01*
Y162629D01*
Y162345D01*
X123391D01*
Y162062D01*
Y161778D01*
Y161495D01*
Y161211D01*
Y160927D01*
Y160644D01*
Y160360D01*
Y160076D01*
Y159793D01*
Y159509D01*
Y159226D01*
Y158942D01*
Y158659D01*
Y158375D01*
X123107D01*
Y158091D01*
Y157808D01*
Y157524D01*
Y157240D01*
Y156957D01*
X122824D01*
Y156673D01*
Y156390D01*
X123107D01*
Y156106D01*
X123958D01*
Y155823D01*
X124809D01*
Y155539D01*
X125376D01*
Y155255D01*
X126227D01*
Y154972D01*
X126794D01*
Y154688D01*
X127361D01*
Y154404D01*
X128212D01*
Y154121D01*
X128779D01*
Y153837D01*
X129347D01*
Y153554D01*
X129914D01*
Y153270D01*
X130481D01*
Y152987D01*
X131048D01*
Y152703D01*
X131615D01*
Y152419D01*
X132183D01*
Y152136D01*
X132466D01*
Y151852D01*
X133033D01*
Y151568D01*
X133601D01*
Y151285D01*
X133884D01*
Y151001D01*
X134451D01*
Y150718D01*
X134735D01*
Y150434D01*
X135302D01*
Y150151D01*
X135586D01*
Y149867D01*
X135869D01*
Y149583D01*
X136437D01*
Y149300D01*
X136720D01*
Y149016D01*
X137004D01*
Y148732D01*
X137287D01*
Y148449D01*
X137855D01*
Y148165D01*
X138138D01*
Y147882D01*
X138422D01*
Y147598D01*
X138705D01*
Y147315D01*
X138989D01*
Y147031D01*
X139273D01*
Y146747D01*
X139556D01*
Y146464D01*
X139840D01*
Y146180D01*
X140123D01*
Y145896D01*
Y145613D01*
X140407D01*
Y145329D01*
X140691D01*
Y145046D01*
X140974D01*
Y144762D01*
X141258D01*
Y144478D01*
Y144195D01*
X141542D01*
Y143911D01*
X141825D01*
Y143628D01*
Y143344D01*
X142109D01*
Y143060D01*
Y142777D01*
X142392D01*
Y142493D01*
Y142210D01*
X142676D01*
Y141926D01*
Y141642D01*
X142959D01*
Y141359D01*
Y141075D01*
Y140792D01*
X143243D01*
Y140508D01*
Y140224D01*
Y139941D01*
X143527D01*
Y139657D01*
Y139374D01*
Y139090D01*
Y138806D01*
X143810D01*
Y138523D01*
Y138239D01*
Y137956D01*
Y137672D01*
Y137388D01*
Y137105D01*
Y136821D01*
Y136538D01*
Y136254D01*
Y135970D01*
Y135687D01*
Y135403D01*
Y135120D01*
X143527D01*
Y134836D01*
Y134552D01*
Y134269D01*
Y133985D01*
Y133702D01*
X143243D01*
Y133418D01*
Y133134D01*
Y132851D01*
X142959D01*
Y132567D01*
Y132284D01*
X142676D01*
Y132000D01*
Y131716D01*
Y131433D01*
X142392D01*
Y131149D01*
Y130866D01*
X142109D01*
Y130582D01*
X141825D01*
Y130298D01*
Y130015D01*
X141542D01*
Y129731D01*
Y129448D01*
X141258D01*
Y129164D01*
X140974D01*
Y128880D01*
X140691D01*
Y128597D01*
Y128313D01*
X140407D01*
Y128030D01*
X140123D01*
Y127746D01*
X139840D01*
Y127462D01*
X139556D01*
Y127179D01*
X139273D01*
Y126895D01*
X138989D01*
Y126612D01*
X138705D01*
Y126328D01*
X138422D01*
Y126044D01*
X138138D01*
Y125761D01*
X137855D01*
Y125477D01*
X137571D01*
Y125194D01*
X137287D01*
Y124910D01*
X137004D01*
Y124626D01*
X136437D01*
Y124343D01*
X136153D01*
Y124059D01*
X135586D01*
Y123776D01*
Y123492D01*
Y123208D01*
X135869D01*
Y122925D01*
Y122641D01*
Y122358D01*
Y122074D01*
X136153D01*
Y121790D01*
Y121507D01*
Y121223D01*
Y120940D01*
Y120656D01*
Y120372D01*
Y120089D01*
Y119805D01*
Y119522D01*
X136437D01*
Y119238D01*
Y118954D01*
Y118671D01*
Y118387D01*
Y118104D01*
X136153D01*
Y117820D01*
Y117536D01*
Y117253D01*
Y116969D01*
Y116685D01*
Y116402D01*
Y116118D01*
Y115835D01*
Y115551D01*
X135869D01*
Y115268D01*
Y114984D01*
Y114700D01*
Y114417D01*
Y114133D01*
X135586D01*
Y113849D01*
Y113566D01*
Y113282D01*
X135302D01*
Y112999D01*
Y112715D01*
Y112432D01*
X135019D01*
Y112148D01*
Y111864D01*
X134735D01*
Y111581D01*
Y111297D01*
X134451D01*
Y111013D01*
Y110730D01*
X134168D01*
Y110446D01*
X133884D01*
Y110163D01*
X133317D01*
Y109879D01*
X132750D01*
Y109596D01*
X132183D01*
Y109879D01*
X131615D01*
Y110163D01*
X131048D01*
Y110446D01*
X130765D01*
Y110730D01*
X130481D01*
Y111013D01*
Y111297D01*
X130197D01*
Y111581D01*
X129630D01*
Y111297D01*
Y111013D01*
Y110730D01*
Y110446D01*
X129347D01*
Y110163D01*
Y109879D01*
Y109596D01*
X129063D01*
Y109312D01*
Y109028D01*
X128779D01*
Y108745D01*
Y108461D01*
X128496D01*
Y108177D01*
Y107894D01*
X128212D01*
Y107610D01*
X127929D01*
Y107327D01*
X127645D01*
Y107043D01*
X127078D01*
Y106760D01*
X125660D01*
Y107043D01*
X125376D01*
Y107327D01*
X124809D01*
Y107610D01*
Y107894D01*
X124525D01*
Y108177D01*
X124242D01*
Y108461D01*
Y108745D01*
X123675D01*
Y108461D01*
Y108177D01*
X123391D01*
Y107894D01*
Y107610D01*
X123107D01*
Y107327D01*
Y107043D01*
X122824D01*
Y106760D01*
Y106476D01*
X122540D01*
Y106192D01*
Y105909D01*
X122257D01*
Y105625D01*
X121973D01*
Y105341D01*
X121689D01*
Y105058D01*
X121122D01*
Y104774D01*
X119988D01*
Y105058D01*
X119421D01*
Y105341D01*
X119137D01*
Y105625D01*
X118853D01*
Y105909D01*
X118570D01*
Y106192D01*
X118286D01*
Y106476D01*
Y106760D01*
X117719D01*
Y106476D01*
Y106192D01*
Y105909D01*
X117435D01*
Y105625D01*
Y105341D01*
Y105058D01*
X117152D01*
Y104774D01*
Y104491D01*
X116868D01*
Y104207D01*
Y103923D01*
X116585D01*
Y103640D01*
X116301D01*
Y103356D01*
X116017D01*
Y103073D01*
X115734D01*
Y102789D01*
X115450D01*
Y102506D01*
X113749D01*
Y102789D01*
X113465D01*
Y103073D01*
X113181D01*
Y103356D01*
X112898D01*
Y103640D01*
X112614D01*
Y103923D01*
Y104207D01*
X112047D01*
Y103923D01*
X111763D01*
Y103640D01*
Y103356D01*
X111480D01*
Y103073D01*
Y102789D01*
X111196D01*
Y102506D01*
X110913D01*
Y102222D01*
Y101938D01*
X110629D01*
Y101655D01*
X110062D01*
Y101371D01*
X108360D01*
Y101655D01*
X107793D01*
Y101938D01*
X107509D01*
Y102222D01*
X107226D01*
Y102506D01*
Y102789D01*
X106658D01*
Y102506D01*
Y102222D01*
X106375D01*
Y101938D01*
X106091D01*
Y101655D01*
Y101371D01*
X105808D01*
Y101087D01*
X105524D01*
Y100804D01*
X105240D01*
Y100520D01*
X104957D01*
Y100237D01*
X103255D01*
Y100520D01*
X102688D01*
Y100804D01*
X102404D01*
Y101087D01*
X102121D01*
Y101371D01*
X101554D01*
Y101087D01*
Y100804D01*
X101270D01*
Y100520D01*
Y100237D01*
X100987D01*
Y99953D01*
X100703D01*
Y99669D01*
X100419D01*
Y99386D01*
X99568D01*
Y99102D01*
X98718D01*
Y99386D01*
X98150D01*
Y99669D01*
X97867D01*
Y99953D01*
X97583D01*
Y100237D01*
X97016D01*
Y99953D01*
Y99669D01*
X96732D01*
Y99386D01*
X96449D01*
Y99102D01*
Y98819D01*
X96165D01*
Y98535D01*
X95598D01*
Y98251D01*
X95031D01*
Y97968D01*
X94464D01*
Y98251D01*
X93613D01*
Y98535D01*
X91344D01*
Y98819D01*
X90777D01*
Y99102D01*
X90493D01*
Y99386D01*
Y99669D01*
X90210D01*
Y99953D01*
X89926D01*
Y100237D01*
Y100520D01*
X89359D01*
Y100237D01*
X89075D01*
Y99953D01*
X88508D01*
Y99669D01*
X87941D01*
Y99386D01*
X87374D01*
Y99669D01*
X86806D01*
Y99953D01*
X86239D01*
Y100237D01*
X85956D01*
Y100520D01*
X85672D01*
Y100804D01*
Y101087D01*
X85388D01*
Y101371D01*
Y101655D01*
X84538D01*
Y101371D01*
X84254D01*
Y101087D01*
X83970D01*
Y100804D01*
X83687D01*
Y100520D01*
X82269D01*
Y100804D01*
X81702D01*
Y101087D01*
X81418D01*
Y101371D01*
X81134D01*
Y101655D01*
X80851D01*
Y101938D01*
X80567D01*
Y102222D01*
Y102506D01*
X80284D01*
Y102789D01*
Y103073D01*
X79716D01*
Y102789D01*
X79433D01*
Y102506D01*
X79149D01*
Y102222D01*
X78866D01*
Y101938D01*
X78582D01*
Y101655D01*
X76880D01*
Y101938D01*
X76597D01*
Y102222D01*
X76030D01*
Y102506D01*
Y102789D01*
X75746D01*
Y103073D01*
X75462D01*
Y103356D01*
Y103640D01*
X75179D01*
Y103923D01*
Y104207D01*
X74895D01*
Y104491D01*
X74328D01*
Y104207D01*
Y103923D01*
X74044D01*
Y103640D01*
X73761D01*
Y103356D01*
X73477D01*
Y103073D01*
X72626D01*
Y102789D01*
X71776D01*
Y103073D01*
X71208D01*
Y103356D01*
X70925D01*
Y103640D01*
X70641D01*
Y103923D01*
X70358D01*
Y104207D01*
X70074D01*
Y104491D01*
Y104774D01*
X69790D01*
Y105058D01*
Y105341D01*
X69507D01*
Y105625D01*
Y105909D01*
X69223D01*
Y106192D01*
Y106476D01*
Y106760D01*
Y107043D01*
X68656D01*
Y106760D01*
X68372D01*
Y106476D01*
Y106192D01*
X68089D01*
Y105909D01*
X67805D01*
Y105625D01*
X67238D01*
Y105341D01*
X66671D01*
Y105058D01*
X66104D01*
Y105341D01*
X65536D01*
Y105625D01*
X64969D01*
Y105909D01*
X64685D01*
Y106192D01*
X64402D01*
Y106476D01*
Y106760D01*
X64118D01*
Y107043D01*
X63835D01*
Y107327D01*
Y107610D01*
Y107894D01*
X63551D01*
Y108177D01*
Y108461D01*
X63267D01*
Y108745D01*
Y109028D01*
X62700D01*
Y108745D01*
Y108461D01*
X62417D01*
Y108177D01*
X62133D01*
Y107894D01*
X61849D01*
Y107610D01*
X61566D01*
Y107327D01*
X60715D01*
Y107043D01*
X60148D01*
Y107327D01*
X59581D01*
Y107610D01*
X59013D01*
Y107894D01*
X58730D01*
Y108177D01*
X58446D01*
Y108461D01*
Y108745D01*
X58163D01*
Y109028D01*
Y109312D01*
X57879D01*
Y109596D01*
Y109879D01*
X57595D01*
Y110163D01*
Y110446D01*
Y110730D01*
X57312D01*
Y111013D01*
Y111297D01*
Y111581D01*
Y111864D01*
X56461D01*
Y111581D01*
Y111297D01*
X56178D01*
Y111013D01*
X55894D01*
Y110730D01*
X55610D01*
Y110446D01*
X55327D01*
Y110163D01*
X53625D01*
Y110446D01*
X53058D01*
Y110730D01*
X52774D01*
Y111013D01*
Y111297D01*
X52491D01*
Y111581D01*
X52207D01*
Y111864D01*
Y112148D01*
X51924D01*
Y112432D01*
Y112715D01*
X51640D01*
Y112999D01*
Y113282D01*
X51356D01*
Y113566D01*
Y113849D01*
Y114133D01*
Y114417D01*
X51073D01*
Y114700D01*
Y114984D01*
Y115268D01*
X50789D01*
Y115551D01*
Y115835D01*
Y116118D01*
Y116402D01*
Y116685D01*
Y116969D01*
Y117253D01*
Y117536D01*
Y117820D01*
Y118104D01*
X50506D01*
Y118387D01*
Y118671D01*
Y118954D01*
Y119238D01*
Y119522D01*
Y119805D01*
Y120089D01*
Y120372D01*
X50789D01*
Y120656D01*
Y120940D01*
Y121223D01*
Y121507D01*
Y121790D01*
Y122074D01*
Y122358D01*
Y122641D01*
Y122925D01*
X51073D01*
Y123208D01*
Y123492D01*
Y123776D01*
Y124059D01*
X50789D01*
Y124343D01*
X50222D01*
Y124626D01*
X49938D01*
Y124910D01*
X49655D01*
Y125194D01*
X49371D01*
Y125477D01*
X49088D01*
Y125761D01*
X48520D01*
Y126044D01*
X48237D01*
Y126328D01*
X47953D01*
Y126612D01*
X47670D01*
Y126895D01*
X47386D01*
Y127179D01*
Y127462D01*
X47102D01*
Y127746D01*
X46819D01*
Y128030D01*
X46535D01*
Y128313D01*
X46251D01*
Y128597D01*
X45968D01*
Y128880D01*
Y129164D01*
X45684D01*
Y129448D01*
X45401D01*
Y129731D01*
Y130015D01*
X45117D01*
Y130298D01*
X44833D01*
Y130582D01*
Y130866D01*
X44550D01*
Y131149D01*
Y131433D01*
X44266D01*
Y131716D01*
Y132000D01*
X43983D01*
Y132284D01*
Y132567D01*
Y132851D01*
X43699D01*
Y133134D01*
Y133418D01*
Y133702D01*
X43415D01*
Y133985D01*
Y134269D01*
Y134552D01*
Y134836D01*
X43132D01*
Y135120D01*
Y135403D01*
Y135687D01*
Y135970D01*
Y136254D01*
Y136538D01*
Y136821D01*
Y137105D01*
Y137388D01*
Y137672D01*
Y137956D01*
Y138239D01*
Y138523D01*
Y138806D01*
X43415D01*
Y139090D01*
Y139374D01*
Y139657D01*
Y139941D01*
Y140224D01*
X43699D01*
Y140508D01*
Y140792D01*
Y141075D01*
X43983D01*
Y141359D01*
Y141642D01*
X44266D01*
Y141926D01*
Y142210D01*
Y142493D01*
X44550D01*
Y142777D01*
X44833D01*
Y143060D01*
Y143344D01*
X45117D01*
Y143628D01*
Y143911D01*
X45401D01*
Y144195D01*
X45684D01*
Y144478D01*
Y144762D01*
X45968D01*
Y145046D01*
X46251D01*
Y145329D01*
X46535D01*
Y145613D01*
Y145896D01*
X46819D01*
Y146180D01*
X47102D01*
Y146464D01*
X47386D01*
Y146747D01*
X47670D01*
Y147031D01*
X47953D01*
Y147315D01*
X48237D01*
Y147598D01*
X48520D01*
Y147882D01*
X48804D01*
Y148165D01*
X49088D01*
Y148449D01*
X49371D01*
Y148732D01*
X49938D01*
Y149016D01*
X50222D01*
Y149300D01*
X50506D01*
Y149583D01*
X50789D01*
Y149867D01*
X51356D01*
Y150151D01*
X51640D01*
Y150434D01*
X52207D01*
Y150718D01*
X52491D01*
Y151001D01*
X53058D01*
Y151285D01*
X53342D01*
Y151568D01*
X53909D01*
Y151852D01*
X54476D01*
Y152136D01*
X54760D01*
Y152419D01*
X55043D01*
Y152703D01*
Y152987D01*
Y153270D01*
Y153554D01*
Y153837D01*
Y154121D01*
Y154404D01*
Y154688D01*
Y154972D01*
Y155255D01*
Y155539D01*
Y155823D01*
X54760D01*
Y156106D01*
Y156390D01*
Y156673D01*
X54476D01*
Y156957D01*
Y157240D01*
X54192D01*
Y157524D01*
X53909D01*
Y157808D01*
X53625D01*
Y158091D01*
Y158375D01*
X53058D01*
Y158659D01*
X52774D01*
Y158942D01*
X52491D01*
Y159226D01*
X52207D01*
Y159509D01*
X51640D01*
Y159793D01*
X51356D01*
Y160076D01*
X50789D01*
Y160360D01*
Y160644D01*
X51073D01*
Y160927D01*
Y161211D01*
X51356D01*
Y161495D01*
Y161778D01*
X51640D01*
Y162062D01*
Y162345D01*
X52207D01*
Y162062D01*
X52491D01*
Y161778D01*
X53058D01*
Y161495D01*
X53342D01*
Y161211D01*
X53909D01*
Y160927D01*
X54192D01*
Y160644D01*
X54476D01*
Y160360D01*
X54760D01*
Y160076D01*
X55043D01*
Y159793D01*
X55327D01*
Y159509D01*
X55610D01*
Y159226D01*
X55894D01*
Y158942D01*
X56178D01*
Y158659D01*
Y158375D01*
X56461D01*
Y158091D01*
Y157808D01*
X56745D01*
Y157524D01*
Y157240D01*
X57028D01*
Y156957D01*
Y156673D01*
Y156390D01*
X57312D01*
Y156106D01*
Y155823D01*
Y155539D01*
Y155255D01*
Y154972D01*
Y154688D01*
Y154404D01*
X57595D01*
Y154121D01*
X57312D01*
Y153837D01*
X58163D01*
Y154121D01*
X58730D01*
Y154404D01*
X59297D01*
Y154688D01*
X60148D01*
Y154972D01*
X60715D01*
Y155255D01*
X61566D01*
Y155539D01*
X62133D01*
Y155823D01*
X62984D01*
Y156106D01*
X63835D01*
Y156390D01*
X64685D01*
Y156673D01*
X65536D01*
Y156957D01*
X66387D01*
Y157240D01*
X67238D01*
Y157524D01*
X68372D01*
Y157808D01*
X69507D01*
Y158091D01*
X70641D01*
Y158375D01*
X71776D01*
Y158659D01*
X73194D01*
Y158942D01*
X74612D01*
Y159226D01*
X76030D01*
Y159509D01*
X77731D01*
Y159793D01*
X79716D01*
Y160076D01*
X81985D01*
Y160360D01*
X84821D01*
Y160644D01*
X89926D01*
Y160927D01*
X97016D01*
Y160644D01*
X102121D01*
Y160360D01*
X104957D01*
Y160076D01*
X107226D01*
Y159793D01*
X109211D01*
Y159509D01*
X110913D01*
Y159226D01*
X112330D01*
Y158942D01*
X113749D01*
Y158659D01*
X115166D01*
Y158375D01*
X116301D01*
Y158091D01*
X117435D01*
Y157808D01*
X118570D01*
Y157524D01*
X119421D01*
Y157240D01*
X120839D01*
Y157524D01*
Y157808D01*
Y158091D01*
Y158375D01*
Y158659D01*
Y158942D01*
X121122D01*
Y159226D01*
Y159509D01*
Y159793D01*
Y160076D01*
Y160360D01*
Y160644D01*
Y160927D01*
Y161211D01*
Y161495D01*
Y161778D01*
X120839D01*
Y162062D01*
Y162345D01*
Y162629D01*
Y162912D01*
Y163196D01*
Y163480D01*
X120555D01*
Y163763D01*
Y164047D01*
Y164330D01*
X120271D01*
Y164614D01*
Y164898D01*
Y165181D01*
X119988D01*
Y165465D01*
Y165749D01*
X119704D01*
Y166032D01*
X120271D01*
Y166316D01*
X120839D01*
Y166599D01*
X121406D01*
Y166883D01*
X121973D01*
Y166599D01*
D02*
G37*
G36*
X132900Y40022D02*
X128978Y35938D01*
X128862Y34839D01*
X128619Y32166D01*
X128422Y30245D01*
X132622Y25930D01*
X132333Y25652D01*
X128388Y29701D01*
X128156Y27214D01*
X128029D01*
Y26265D01*
X127150D01*
Y27214D01*
X124431D01*
X124327Y27029D01*
X124199Y26844D01*
X124003Y26635D01*
X123748Y26462D01*
X123459Y26369D01*
X123181Y26335D01*
X122892Y26346D01*
X122684Y26404D01*
X122441Y26508D01*
X122232Y26635D01*
X122071Y26797D01*
X121908Y27029D01*
X121793Y27283D01*
X121723Y27526D01*
X121700Y27723D01*
X121723Y27966D01*
X121758Y28151D01*
X121827Y28325D01*
X121932Y28521D01*
X122047Y28683D01*
X122209Y28834D01*
X122383Y28949D01*
X122545Y29030D01*
X122522Y29239D01*
X119062Y25652D01*
X118773Y25941D01*
X122487Y29782D01*
X122186Y33138D01*
X121978Y35567D01*
X120867D01*
Y37129D01*
X121156D01*
X118345Y40022D01*
X118634Y40299D01*
X121284Y37569D01*
Y37766D01*
X121226Y37812D01*
X121156Y37858D01*
X121087Y37928D01*
X121018Y38009D01*
X120983Y38113D01*
X120948Y38205D01*
X120937Y38321D01*
X120960Y38471D01*
X120994Y38552D01*
X121099Y38715D01*
X121214Y38819D01*
X121365Y38888D01*
X121527Y38911D01*
X121689Y38888D01*
X121827Y38830D01*
X121943Y38761D01*
X122001Y38691D01*
X122105Y38784D01*
X122279Y38900D01*
X122487Y39004D01*
X122788Y39119D01*
X123112Y39212D01*
X123436Y39281D01*
X123783Y39339D01*
X124060Y39374D01*
Y39721D01*
X126282D01*
Y39420D01*
X126455D01*
X126745Y39386D01*
X127046Y39351D01*
X127335Y39305D01*
Y39490D01*
X128295D01*
Y39038D01*
X128411Y38981D01*
X128561Y38911D01*
X128735Y38807D01*
X128874Y38715D01*
X129001Y38599D01*
X129094Y38518D01*
X129151Y38437D01*
X129198Y38344D01*
X129174Y38182D01*
X129730D01*
Y37477D01*
X129117D01*
X129024Y36562D01*
X132611Y40299D01*
X132900Y40022D01*
D02*
G37*
G36*
X132055Y22447D02*
Y22389D01*
Y22308D01*
Y22227D01*
Y22135D01*
Y22054D01*
Y21996D01*
Y21984D01*
Y21973D01*
Y21591D01*
Y21406D01*
Y21232D01*
Y21093D01*
Y20978D01*
Y20931D01*
Y20897D01*
Y20885D01*
Y20874D01*
Y20654D01*
Y20457D01*
Y20272D01*
Y20110D01*
Y19971D01*
Y19879D01*
Y19809D01*
Y19797D01*
Y19786D01*
Y19624D01*
Y19508D01*
Y19416D01*
Y19358D01*
Y19323D01*
Y19312D01*
Y19300D01*
X119409D01*
Y19323D01*
Y19381D01*
Y19450D01*
Y19543D01*
Y19636D01*
Y19705D01*
Y19763D01*
Y19786D01*
Y20168D01*
Y20353D01*
Y20515D01*
Y20665D01*
Y20769D01*
Y20816D01*
Y20850D01*
Y20862D01*
Y20874D01*
Y21093D01*
Y21302D01*
Y21487D01*
Y21649D01*
Y21788D01*
Y21892D01*
Y21949D01*
Y21973D01*
Y22065D01*
Y22135D01*
Y22262D01*
Y22354D01*
Y22412D01*
Y22447D01*
Y22459D01*
Y22470D01*
X132055D01*
Y22447D01*
D02*
G37*
G36*
X147598Y41873D02*
X147968Y41850D01*
X148327Y41815D01*
X148674Y41757D01*
X149021Y41699D01*
X149345Y41618D01*
X149993Y41445D01*
X150594Y41225D01*
X151161Y40982D01*
X151682Y40728D01*
X151925Y40600D01*
X152156Y40462D01*
X152376Y40334D01*
X152584Y40195D01*
X152781Y40068D01*
X152966Y39941D01*
X153140Y39814D01*
X153302Y39698D01*
X153441Y39582D01*
X153568Y39478D01*
X153683Y39386D01*
X153788Y39305D01*
X153880Y39224D01*
X153950Y39166D01*
X154007Y39108D01*
X154042Y39073D01*
X154065Y39050D01*
X154077Y39038D01*
X154332Y38772D01*
X154574Y38495D01*
X154794Y38217D01*
X155014Y37928D01*
X155199Y37639D01*
X155384Y37361D01*
X155558Y37060D01*
X155708Y36771D01*
X155847Y36481D01*
X155986Y36192D01*
X156206Y35625D01*
X156403Y35081D01*
X156541Y34561D01*
X156669Y34063D01*
X156715Y33832D01*
X156750Y33612D01*
X156784Y33415D01*
X156819Y33219D01*
X156842Y33034D01*
X156854Y32872D01*
X156865Y32721D01*
X156877Y32594D01*
X156888Y32478D01*
Y32374D01*
X156900Y32305D01*
Y32247D01*
Y32212D01*
Y32201D01*
X156888Y31830D01*
X156865Y31460D01*
X156831Y31101D01*
X156773Y30754D01*
X156715Y30407D01*
X156634Y30083D01*
X156460Y29435D01*
X156240Y28834D01*
X156009Y28267D01*
X155755Y27746D01*
X155616Y27503D01*
X155489Y27272D01*
X155361Y27052D01*
X155222Y26844D01*
X155095Y26647D01*
X154968Y26462D01*
X154852Y26288D01*
X154736Y26126D01*
X154621Y25987D01*
X154517Y25860D01*
X154424Y25745D01*
X154332Y25640D01*
X154262Y25548D01*
X154193Y25478D01*
X154146Y25420D01*
X154112Y25386D01*
X154088Y25363D01*
X154077Y25351D01*
X153811Y25097D01*
X153533Y24854D01*
X153255Y24622D01*
X152966Y24414D01*
X152677Y24217D01*
X152388Y24032D01*
X152099Y23870D01*
X151809Y23708D01*
X151520Y23569D01*
X151231Y23442D01*
X150664Y23211D01*
X150108Y23025D01*
X149588Y22875D01*
X149102Y22759D01*
X148870Y22702D01*
X148651Y22667D01*
X148442Y22632D01*
X148246Y22609D01*
X148061Y22574D01*
X147898Y22563D01*
X147748Y22551D01*
X147621Y22540D01*
X147505Y22528D01*
X147401D01*
X147332Y22516D01*
X147228D01*
X146857Y22528D01*
X146487Y22551D01*
X146128Y22586D01*
X145781Y22644D01*
X145446Y22702D01*
X145110Y22783D01*
X144474Y22956D01*
X143872Y23176D01*
X143305Y23419D01*
X142785Y23674D01*
X142542Y23801D01*
X142310Y23940D01*
X142090Y24067D01*
X141882Y24194D01*
X141685Y24333D01*
X141500Y24460D01*
X141327Y24576D01*
X141165Y24692D01*
X141026Y24807D01*
X140899Y24911D01*
X140783Y25004D01*
X140679Y25085D01*
X140586Y25166D01*
X140517Y25235D01*
X140459Y25282D01*
X140424Y25316D01*
X140401Y25339D01*
X140390Y25351D01*
X140135Y25617D01*
X139892Y25895D01*
X139661Y26173D01*
X139452Y26462D01*
X139256Y26751D01*
X139071Y27040D01*
X138897Y27330D01*
X138747Y27619D01*
X138596Y27908D01*
X138469Y28197D01*
X138238Y28764D01*
X138052Y29320D01*
X137902Y29840D01*
X137786Y30326D01*
X137729Y30558D01*
X137694Y30777D01*
X137659Y30986D01*
X137624Y31182D01*
X137601Y31367D01*
X137590Y31530D01*
X137578Y31680D01*
X137566Y31807D01*
X137555Y31923D01*
X137543Y32027D01*
Y32096D01*
Y32154D01*
Y32189D01*
Y32201D01*
X137555Y32571D01*
X137578Y32941D01*
X137613Y33300D01*
X137671Y33647D01*
X137729Y33982D01*
X137810Y34318D01*
X137983Y34954D01*
X138203Y35556D01*
X138446Y36123D01*
X138700Y36643D01*
X138828Y36886D01*
X138967Y37118D01*
X139094Y37338D01*
X139233Y37546D01*
X139360Y37743D01*
X139487Y37928D01*
X139614Y38101D01*
X139730Y38263D01*
X139846Y38402D01*
X139950Y38529D01*
X140042Y38645D01*
X140123Y38749D01*
X140205Y38842D01*
X140262Y38911D01*
X140320Y38969D01*
X140355Y39004D01*
X140378Y39027D01*
X140390Y39038D01*
X140656Y39293D01*
X140933Y39536D01*
X141211Y39767D01*
X141500Y39976D01*
X141790Y40172D01*
X142067Y40357D01*
X142368Y40531D01*
X142657Y40681D01*
X142947Y40832D01*
X143236Y40959D01*
X143803Y41190D01*
X144347Y41376D01*
X144867Y41526D01*
X145365Y41642D01*
X145596Y41699D01*
X145816Y41734D01*
X146013Y41769D01*
X146209Y41804D01*
X146394Y41827D01*
X146556Y41838D01*
X146707Y41850D01*
X146834Y41862D01*
X146950Y41873D01*
X147054Y41885D01*
X147228D01*
X147598Y41873D01*
D02*
G37*
G36*
X177942Y39177D02*
X178416Y39120D01*
X178867Y39027D01*
X179295Y38900D01*
X179700Y38761D01*
X180070Y38599D01*
X180429Y38425D01*
X180741Y38252D01*
X181031Y38078D01*
X181285Y37905D01*
X181505Y37743D01*
X181690Y37604D01*
X181829Y37477D01*
X181933Y37384D01*
X182002Y37326D01*
X182026Y37303D01*
X182361Y36944D01*
X182650Y36563D01*
X182905Y36181D01*
X183113Y35799D01*
X183298Y35406D01*
X183449Y35035D01*
X183576Y34665D01*
X183680Y34318D01*
X183750Y33994D01*
X183807Y33693D01*
X183854Y33427D01*
X183877Y33196D01*
X183888Y33092D01*
X183900Y32999D01*
Y32930D01*
X183912Y32860D01*
Y32814D01*
Y32779D01*
Y32756D01*
Y32745D01*
X183888Y32259D01*
X183831Y31784D01*
X183738Y31333D01*
X183611Y30905D01*
X183472Y30500D01*
X183310Y30130D01*
X183148Y29783D01*
X182963Y29459D01*
X182789Y29181D01*
X182627Y28926D01*
X182465Y28707D01*
X182315Y28521D01*
X182199Y28383D01*
X182107Y28267D01*
X182049Y28209D01*
X182026Y28186D01*
X181667Y27850D01*
X181285Y27561D01*
X180903Y27307D01*
X180510Y27098D01*
X180128Y26913D01*
X179746Y26763D01*
X179376Y26636D01*
X179029Y26531D01*
X178705Y26462D01*
X178404Y26404D01*
X178138Y26358D01*
X177907Y26335D01*
X177803Y26323D01*
X177710Y26312D01*
X177641D01*
X177571Y26300D01*
X177213D01*
X177108Y26312D01*
X176923D01*
X176865Y26323D01*
X176808D01*
Y28278D01*
X177027Y28255D01*
X177143Y28244D01*
X177236D01*
X177328Y28232D01*
X177455D01*
X177803Y28244D01*
X178127Y28290D01*
X178439Y28359D01*
X178740Y28440D01*
X179017Y28533D01*
X179284Y28649D01*
X179526Y28764D01*
X179746Y28892D01*
X179955Y29019D01*
X180128Y29135D01*
X180279Y29250D01*
X180406Y29343D01*
X180510Y29436D01*
X180591Y29493D01*
X180637Y29540D01*
X180649Y29551D01*
X180880Y29806D01*
X181088Y30072D01*
X181262Y30338D01*
X181412Y30616D01*
X181540Y30882D01*
X181644Y31148D01*
X181736Y31402D01*
X181806Y31645D01*
X181852Y31877D01*
X181898Y32085D01*
X181922Y32270D01*
X181945Y32432D01*
X181956Y32559D01*
X181968Y32664D01*
Y32721D01*
Y32745D01*
X181956Y33092D01*
X181910Y33416D01*
X181841Y33740D01*
X181760Y34040D01*
X181667Y34318D01*
X181551Y34584D01*
X181436Y34827D01*
X181308Y35047D01*
X181181Y35244D01*
X181065Y35417D01*
X180950Y35579D01*
X180857Y35706D01*
X180764Y35799D01*
X180707Y35880D01*
X180660Y35926D01*
X180649Y35938D01*
X180394Y36169D01*
X180128Y36378D01*
X179862Y36551D01*
X179584Y36713D01*
X179318Y36840D01*
X179052Y36944D01*
X178798Y37037D01*
X178555Y37106D01*
X178323Y37153D01*
X178115Y37199D01*
X177930Y37234D01*
X177768Y37245D01*
X177641Y37257D01*
X177536Y37268D01*
X177455D01*
X177213Y37257D01*
X177108D01*
X177004Y37245D01*
X176923Y37234D01*
X176865D01*
X176819Y37222D01*
X176808D01*
Y39166D01*
X177027Y39189D01*
X177131D01*
X177236Y39200D01*
X177455D01*
X177942Y39177D01*
D02*
G37*
G36*
X166973D02*
X167447Y39120D01*
X167899Y39027D01*
X168327Y38900D01*
X168732Y38761D01*
X169102Y38599D01*
X169449Y38425D01*
X169773Y38252D01*
X170051Y38078D01*
X170305Y37905D01*
X170525Y37743D01*
X170710Y37604D01*
X170849Y37477D01*
X170965Y37384D01*
X171023Y37326D01*
X171046Y37303D01*
X171381Y36944D01*
X171670Y36563D01*
X171925Y36181D01*
X172133Y35799D01*
X172318Y35406D01*
X172469Y35035D01*
X172596Y34665D01*
X172700Y34318D01*
X172770Y33994D01*
X172827Y33693D01*
X172874Y33427D01*
X172897Y33196D01*
X172908Y33092D01*
X172920Y32999D01*
Y32930D01*
X172932Y32860D01*
Y32814D01*
Y32779D01*
Y32756D01*
Y32745D01*
X172908Y32259D01*
X172851Y31784D01*
X172758Y31333D01*
X172631Y30905D01*
X172492Y30500D01*
X172330Y30130D01*
X172168Y29783D01*
X171983Y29459D01*
X171809Y29181D01*
X171647Y28926D01*
X171485Y28707D01*
X171335Y28521D01*
X171219Y28383D01*
X171127Y28267D01*
X171069Y28209D01*
X171046Y28186D01*
X170687Y27850D01*
X170305Y27561D01*
X169923Y27307D01*
X169542Y27098D01*
X169148Y26913D01*
X168778Y26763D01*
X168408Y26636D01*
X168061Y26531D01*
X167737Y26462D01*
X167436Y26404D01*
X167170Y26358D01*
X166938Y26335D01*
X166834Y26323D01*
X166742Y26312D01*
X166672D01*
X166603Y26300D01*
X166244D01*
X166140Y26312D01*
X165955D01*
X165897Y26323D01*
X165839D01*
X165851Y28278D01*
X166071Y28255D01*
X166175Y28244D01*
X166279D01*
X166360Y28232D01*
X166487D01*
X166776Y28244D01*
X167066Y28278D01*
X167343Y28325D01*
X167598Y28383D01*
X167852Y28464D01*
X168084Y28545D01*
X168304Y28637D01*
X168500Y28730D01*
X168685Y28822D01*
X168847Y28915D01*
X168986Y28996D01*
X169102Y29077D01*
X169194Y29135D01*
X169264Y29181D01*
X169310Y29216D01*
X169322Y29227D01*
X169542Y29424D01*
X169750Y29621D01*
X169923Y29829D01*
X170085Y30049D01*
X170236Y30257D01*
X170363Y30477D01*
X170479Y30685D01*
X170571Y30882D01*
X170652Y31067D01*
X170722Y31240D01*
X170780Y31391D01*
X170826Y31530D01*
X170861Y31634D01*
X170884Y31715D01*
X170895Y31761D01*
Y31784D01*
X167123D01*
Y33716D01*
X170895D01*
X170826Y34006D01*
X170733Y34272D01*
X170629Y34538D01*
X170513Y34781D01*
X170386Y35001D01*
X170259Y35209D01*
X170120Y35406D01*
X169993Y35579D01*
X169866Y35741D01*
X169738Y35880D01*
X169634Y35996D01*
X169530Y36088D01*
X169449Y36169D01*
X169391Y36227D01*
X169345Y36262D01*
X169333Y36273D01*
X169090Y36447D01*
X168847Y36597D01*
X168605Y36736D01*
X168361Y36852D01*
X168119Y36944D01*
X167887Y37025D01*
X167656Y37095D01*
X167436Y37141D01*
X167239Y37187D01*
X167054Y37211D01*
X166892Y37234D01*
X166753Y37257D01*
X166638D01*
X166557Y37268D01*
X166487D01*
X166244Y37257D01*
X166140D01*
X166036Y37245D01*
X165955Y37234D01*
X165897D01*
X165851Y37222D01*
X165839D01*
Y39166D01*
X165978Y39177D01*
X166094Y39189D01*
X166209D01*
X166302Y39200D01*
X166487D01*
X166973Y39177D01*
D02*
G37*
%LPC*%
G36*
X115166Y147598D02*
X111763D01*
Y147315D01*
X110629D01*
Y147031D01*
X109778D01*
Y146747D01*
X108927D01*
Y146464D01*
X108360D01*
Y146180D01*
X107793D01*
Y145896D01*
X107509D01*
Y145613D01*
X106942D01*
Y145329D01*
X106658D01*
Y145046D01*
X106375D01*
Y144762D01*
X106091D01*
Y144478D01*
X105808D01*
Y144195D01*
X105524D01*
Y143911D01*
X105240D01*
Y143628D01*
X104957D01*
Y143344D01*
X104673D01*
Y143060D01*
Y142777D01*
X104390D01*
Y142493D01*
X104106D01*
Y142210D01*
Y141926D01*
X103823D01*
Y141642D01*
Y141359D01*
X103539D01*
Y141075D01*
Y140792D01*
Y140508D01*
X103255D01*
Y140224D01*
Y139941D01*
Y139657D01*
X102972D01*
Y139374D01*
Y139090D01*
Y138806D01*
Y138523D01*
Y138239D01*
Y137956D01*
Y137672D01*
Y137388D01*
Y137105D01*
Y136821D01*
Y136538D01*
Y136254D01*
Y135970D01*
Y135687D01*
Y135403D01*
Y135120D01*
X103255D01*
Y134836D01*
Y134552D01*
Y134269D01*
X103539D01*
Y133985D01*
Y133702D01*
Y133418D01*
X103823D01*
Y133134D01*
Y132851D01*
X104106D01*
Y132567D01*
Y132284D01*
X104390D01*
Y132000D01*
X104673D01*
Y131716D01*
Y131433D01*
X104957D01*
Y131149D01*
X105240D01*
Y130866D01*
X105524D01*
Y130582D01*
X105808D01*
Y130298D01*
X106091D01*
Y130015D01*
X106375D01*
Y129731D01*
X106658D01*
Y129448D01*
X106942D01*
Y129164D01*
X107509D01*
Y128880D01*
X107793D01*
Y128597D01*
X108360D01*
Y128313D01*
X108927D01*
Y128030D01*
X109494D01*
Y127746D01*
X110345D01*
Y127462D01*
X111763D01*
Y127179D01*
X115450D01*
Y127462D01*
X116585D01*
Y127746D01*
X117435D01*
Y128030D01*
X118002D01*
Y128313D01*
X118570D01*
Y128597D01*
X119137D01*
Y128880D01*
X119704D01*
Y129164D01*
X119988D01*
Y129448D01*
X120271D01*
Y129731D01*
X120555D01*
Y130015D01*
X121122D01*
Y130298D01*
X121406D01*
Y130582D01*
Y130866D01*
X121689D01*
Y131149D01*
X121973D01*
Y131433D01*
X122257D01*
Y131716D01*
X122540D01*
Y132000D01*
Y132284D01*
X122824D01*
Y132567D01*
Y132851D01*
X123107D01*
Y133134D01*
Y133418D01*
X123391D01*
Y133702D01*
Y133985D01*
X123675D01*
Y134269D01*
Y134552D01*
Y134836D01*
X123958D01*
Y135120D01*
Y135403D01*
Y135687D01*
Y135970D01*
Y136254D01*
X124242D01*
Y136538D01*
Y136821D01*
Y137105D01*
Y137388D01*
Y137672D01*
Y137956D01*
Y138239D01*
Y138523D01*
X123958D01*
Y138806D01*
Y139090D01*
Y139374D01*
Y139657D01*
Y139941D01*
X123675D01*
Y140224D01*
Y140508D01*
Y140792D01*
X123391D01*
Y141075D01*
Y141359D01*
X123107D01*
Y141642D01*
Y141926D01*
X122824D01*
Y142210D01*
Y142493D01*
X122540D01*
Y142777D01*
Y143060D01*
X122257D01*
Y143344D01*
X121973D01*
Y143628D01*
X121689D01*
Y143911D01*
X121406D01*
Y144195D01*
X121122D01*
Y144478D01*
X120839D01*
Y144762D01*
X120555D01*
Y145046D01*
X120271D01*
Y145329D01*
X119988D01*
Y145613D01*
X119421D01*
Y145896D01*
X119137D01*
Y146180D01*
X118570D01*
Y146464D01*
X118002D01*
Y146747D01*
X117435D01*
Y147031D01*
X116585D01*
Y147315D01*
X115166D01*
Y147598D01*
D02*
G37*
G36*
X73194D02*
X68372D01*
Y147315D01*
X67522D01*
Y147031D01*
X66671D01*
Y146747D01*
X66104D01*
Y146464D01*
X65536D01*
Y146180D01*
X64969D01*
Y145896D01*
X64685D01*
Y145613D01*
X64118D01*
Y145329D01*
X63835D01*
Y145046D01*
X63551D01*
Y144762D01*
X63267D01*
Y144478D01*
X62984D01*
Y144195D01*
X62700D01*
Y143911D01*
X62417D01*
Y143628D01*
X62133D01*
Y143344D01*
Y143060D01*
X61849D01*
Y142777D01*
X61566D01*
Y142493D01*
Y142210D01*
X61282D01*
Y141926D01*
Y141642D01*
X60999D01*
Y141359D01*
Y141075D01*
X60715D01*
Y140792D01*
Y140508D01*
Y140224D01*
X60431D01*
Y139941D01*
Y139657D01*
Y139374D01*
Y139090D01*
X60148D01*
Y138806D01*
Y138523D01*
Y138239D01*
Y137956D01*
Y137672D01*
Y137388D01*
Y137105D01*
Y136821D01*
Y136538D01*
Y136254D01*
Y135970D01*
X60431D01*
Y135687D01*
Y135403D01*
Y135120D01*
Y134836D01*
X60715D01*
Y134552D01*
Y134269D01*
Y133985D01*
X60999D01*
Y133702D01*
Y133418D01*
Y133134D01*
X61282D01*
Y132851D01*
Y132567D01*
X61566D01*
Y132284D01*
X61849D01*
Y132000D01*
Y131716D01*
X62133D01*
Y131433D01*
X62417D01*
Y131149D01*
X62700D01*
Y130866D01*
X62984D01*
Y130582D01*
X63267D01*
Y130298D01*
X63551D01*
Y130015D01*
X63835D01*
Y129731D01*
X64118D01*
Y129448D01*
X64402D01*
Y129164D01*
X64969D01*
Y128880D01*
X65253D01*
Y128597D01*
X65820D01*
Y128313D01*
X66387D01*
Y128030D01*
X67238D01*
Y127746D01*
X68089D01*
Y127462D01*
X69790D01*
Y127179D01*
X71776D01*
Y127462D01*
X73477D01*
Y127746D01*
X74328D01*
Y128030D01*
X75179D01*
Y128313D01*
X75746D01*
Y128597D01*
X76313D01*
Y128880D01*
X76597D01*
Y129164D01*
X77164D01*
Y129448D01*
X77448D01*
Y129731D01*
X77731D01*
Y130015D01*
X78298D01*
Y130298D01*
X78582D01*
Y130582D01*
X78866D01*
Y130866D01*
Y131149D01*
X79149D01*
Y131433D01*
X79433D01*
Y131716D01*
X79716D01*
Y132000D01*
X80000D01*
Y132284D01*
Y132567D01*
X80284D01*
Y132851D01*
Y133134D01*
X80567D01*
Y133418D01*
Y133702D01*
X80851D01*
Y133985D01*
Y134269D01*
Y134552D01*
X81134D01*
Y134836D01*
Y135120D01*
Y135403D01*
Y135687D01*
X81418D01*
Y135970D01*
Y136254D01*
Y136538D01*
Y136821D01*
Y137105D01*
Y137388D01*
Y137672D01*
Y137956D01*
Y138239D01*
Y138523D01*
Y138806D01*
Y139090D01*
Y139374D01*
X81134D01*
Y139657D01*
Y139941D01*
Y140224D01*
Y140508D01*
X80851D01*
Y140792D01*
Y141075D01*
Y141359D01*
X80567D01*
Y141642D01*
Y141926D01*
X80284D01*
Y142210D01*
Y142493D01*
X80000D01*
Y142777D01*
X79716D01*
Y143060D01*
Y143344D01*
X79433D01*
Y143628D01*
X79149D01*
Y143911D01*
X78866D01*
Y144195D01*
X78582D01*
Y144478D01*
X78298D01*
Y144762D01*
X78015D01*
Y145046D01*
X77731D01*
Y145329D01*
X77448D01*
Y145613D01*
X77164D01*
Y145896D01*
X76597D01*
Y146180D01*
X76030D01*
Y146464D01*
X75462D01*
Y146747D01*
X74895D01*
Y147031D01*
X74328D01*
Y147315D01*
X73194D01*
Y147598D01*
D02*
G37*
%LPD*%
G36*
X116585Y139941D02*
X117152D01*
Y139657D01*
X117719D01*
Y139374D01*
X118002D01*
Y139090D01*
X118286D01*
Y138806D01*
Y138523D01*
X118570D01*
Y138239D01*
Y137956D01*
Y137672D01*
X118853D01*
Y137388D01*
Y137105D01*
X118570D01*
Y136821D01*
Y136538D01*
Y136254D01*
X118286D01*
Y135970D01*
Y135687D01*
X118002D01*
Y135403D01*
X117719D01*
Y135120D01*
X117435D01*
Y134836D01*
X116585D01*
Y134552D01*
X114599D01*
Y134836D01*
X114032D01*
Y135120D01*
X113465D01*
Y135403D01*
X113181D01*
Y135687D01*
Y135970D01*
X112898D01*
Y136254D01*
Y136538D01*
X112614D01*
Y136821D01*
Y137105D01*
Y137388D01*
Y137672D01*
Y137956D01*
Y138239D01*
X112898D01*
Y138523D01*
Y138806D01*
X113181D01*
Y139090D01*
Y139374D01*
X113749D01*
Y139657D01*
X114032D01*
Y139941D01*
X114883D01*
Y140224D01*
X116585D01*
Y139941D01*
D02*
G37*
G36*
X74328D02*
X74895D01*
Y139657D01*
X75179D01*
Y139374D01*
X75462D01*
Y139090D01*
X75746D01*
Y138806D01*
Y138523D01*
Y138239D01*
X76030D01*
Y137956D01*
Y137672D01*
Y137388D01*
Y137105D01*
Y136821D01*
Y136538D01*
X75746D01*
Y136254D01*
Y135970D01*
X75462D01*
Y135687D01*
X75179D01*
Y135403D01*
X74895D01*
Y135120D01*
X74328D01*
Y134836D01*
X73477D01*
Y134552D01*
X72626D01*
Y134836D01*
X71492D01*
Y135120D01*
X70925D01*
Y135403D01*
X70641D01*
Y135687D01*
X70358D01*
Y135970D01*
Y136254D01*
X70074D01*
Y136538D01*
Y136821D01*
Y137105D01*
X69790D01*
Y137388D01*
Y137672D01*
Y137956D01*
X70074D01*
Y138239D01*
Y138523D01*
Y138806D01*
X70358D01*
Y139090D01*
X70641D01*
Y139374D01*
X70925D01*
Y139657D01*
X71208D01*
Y139941D01*
X71776D01*
Y140224D01*
X74328D01*
Y139941D01*
D02*
G37*
%LPC*%
G36*
X125865Y39328D02*
X124454D01*
Y39096D01*
X125865D01*
Y39328D01*
D02*
G37*
G36*
X126282Y39004D02*
Y38691D01*
X124060D01*
Y38957D01*
X123598Y38888D01*
X123181Y38784D01*
X122834Y38691D01*
X122556Y38564D01*
X122337Y38437D01*
X122175Y38286D01*
Y38182D01*
X127335D01*
Y38865D01*
X127022Y38923D01*
X126675Y38969D01*
X126282Y39004D01*
D02*
G37*
G36*
X127902Y39096D02*
X127740D01*
Y38564D01*
X127890D01*
X127902Y39096D01*
D02*
G37*
G36*
X128295Y38576D02*
Y38182D01*
X128770D01*
X128781Y38252D01*
X128665Y38367D01*
X128515Y38471D01*
X128295Y38576D01*
D02*
G37*
G36*
X121584Y38506D02*
X121550D01*
X121480Y38495D01*
X121434Y38471D01*
X121388Y38448D01*
X121365Y38414D01*
X121342Y38344D01*
Y38321D01*
Y38309D01*
X121353Y38240D01*
X121376Y38194D01*
X121411Y38159D01*
X121446Y38136D01*
X121515Y38113D01*
X121550D01*
X121619Y38124D01*
X121666Y38148D01*
X121700Y38171D01*
X121723Y38217D01*
X121747Y38275D01*
Y38298D01*
Y38309D01*
X121735Y38379D01*
X121712Y38425D01*
X121689Y38460D01*
X121642Y38483D01*
X121584Y38506D01*
D02*
G37*
G36*
X122047Y36736D02*
X121272D01*
Y35972D01*
X122047D01*
Y36736D01*
D02*
G37*
G36*
X125923Y34989D02*
X123841D01*
Y34862D01*
X125923D01*
Y34989D01*
D02*
G37*
G36*
X128712Y37477D02*
X122232D01*
X122267Y37129D01*
X122441D01*
Y36389D01*
X123413Y35394D01*
X126328D01*
Y34468D01*
X124315D01*
X125657Y33080D01*
X128584Y36123D01*
X128712Y37477D01*
D02*
G37*
G36*
X128526Y35475D02*
X125935Y32791D01*
X128064Y30604D01*
X128526Y35475D01*
D02*
G37*
G36*
X122441Y35810D02*
Y35567D01*
X122394D01*
X122857Y30176D01*
X125380Y32791D01*
X123748Y34468D01*
X123413D01*
Y34804D01*
X122441Y35810D01*
D02*
G37*
G36*
X125657Y32501D02*
X122904Y29644D01*
X122950Y29146D01*
X123135Y29158D01*
X123343Y29146D01*
X123598Y29077D01*
X123841Y28949D01*
X124026Y28822D01*
X124199Y28649D01*
X124350Y28429D01*
X124477Y28151D01*
X124535Y27839D01*
X124523Y27630D01*
X127786D01*
X128017Y30072D01*
X125657Y32501D01*
D02*
G37*
G36*
X123193Y28452D02*
X123123D01*
X122996Y28440D01*
X122892Y28417D01*
X122799Y28383D01*
X122718Y28348D01*
X122649Y28290D01*
X122603Y28232D01*
X122510Y28105D01*
X122464Y27966D01*
X122441Y27862D01*
X122429Y27815D01*
Y27781D01*
Y27758D01*
Y27746D01*
X122441Y27619D01*
X122464Y27515D01*
X122499Y27422D01*
X122533Y27341D01*
X122591Y27283D01*
X122649Y27226D01*
X122776Y27145D01*
X122904Y27087D01*
X123019Y27064D01*
X123054Y27052D01*
X123123D01*
X123251Y27064D01*
X123355Y27087D01*
X123447Y27121D01*
X123528Y27156D01*
X123598Y27214D01*
X123656Y27272D01*
X123737Y27399D01*
X123794Y27526D01*
X123818Y27642D01*
X123829Y27677D01*
Y27711D01*
Y27735D01*
Y27746D01*
X123818Y27873D01*
X123794Y27977D01*
X123760Y28070D01*
X123713Y28151D01*
X123667Y28220D01*
X123609Y28278D01*
X123470Y28359D01*
X123343Y28417D01*
X123228Y28440D01*
X123193Y28452D01*
D02*
G37*
G36*
X127636Y27226D02*
X127543D01*
Y26658D01*
X127636D01*
Y27226D01*
D02*
G37*
%LPD*%
G36*
X123285Y28197D02*
X123401Y28151D01*
X123482Y28070D01*
X123540Y27989D01*
X123575Y27896D01*
X123586Y27815D01*
X123598Y27769D01*
Y27746D01*
X123575Y27596D01*
X123528Y27480D01*
X123447Y27399D01*
X123355Y27341D01*
X123274Y27306D01*
X123193Y27295D01*
X123146Y27283D01*
X123123D01*
X122973Y27306D01*
X122857Y27353D01*
X122776Y27434D01*
X122718Y27515D01*
X122684Y27596D01*
X122672Y27677D01*
X122661Y27723D01*
Y27746D01*
X122684Y27908D01*
X122730Y28024D01*
X122811Y28105D01*
X122892Y28163D01*
X122973Y28197D01*
X123054Y28209D01*
X123100Y28220D01*
X123123D01*
X123285Y28197D01*
D02*
G37*
%LPC*%
G36*
X123135Y27815D02*
X123123D01*
X123077Y27804D01*
X123065Y27781D01*
X123054Y27758D01*
Y27746D01*
X123065Y27711D01*
X123089Y27688D01*
X123112Y27677D01*
X123123D01*
X123158Y27688D01*
X123181Y27711D01*
X123193Y27735D01*
Y27746D01*
X123181Y27792D01*
X123158Y27804D01*
X123135Y27815D01*
D02*
G37*
G36*
X153024Y38703D02*
X153018Y38697D01*
X153140Y38587D01*
X153383Y38356D01*
X153024Y38703D01*
D02*
G37*
G36*
X153383Y38356D02*
X153395Y38343D01*
X153406Y38321D01*
X153441Y38286D01*
X153487Y38240D01*
X153545Y38171D01*
X153614Y38101D01*
X153695Y38009D01*
X153707Y38020D01*
X153395Y38343D01*
X153394Y38344D01*
X153383Y38356D01*
D02*
G37*
G36*
X147389Y40913D02*
X147228D01*
X146892Y40901D01*
X146568Y40890D01*
X146244Y40855D01*
X145932Y40809D01*
X145318Y40681D01*
X144740Y40519D01*
X144196Y40323D01*
X143699Y40103D01*
X143224Y39871D01*
X142796Y39640D01*
X142414Y39397D01*
X142229Y39281D01*
X142067Y39166D01*
X141917Y39050D01*
X141778Y38946D01*
X141639Y38853D01*
X141524Y38761D01*
X141419Y38668D01*
X141327Y38587D01*
X141257Y38529D01*
X141188Y38471D01*
X141142Y38414D01*
X141107Y38390D01*
X141084Y38367D01*
X141072Y38356D01*
X140841Y38113D01*
X140621Y37870D01*
X140413Y37615D01*
X140228Y37361D01*
X140054Y37106D01*
X139892Y36840D01*
X139730Y36586D01*
X139591Y36320D01*
X139348Y35799D01*
X139140Y35290D01*
X138967Y34792D01*
X138839Y34329D01*
X138724Y33878D01*
X138654Y33473D01*
X138619Y33288D01*
X138596Y33115D01*
X138573Y32953D01*
X138550Y32802D01*
X138538Y32675D01*
X138527Y32548D01*
Y32443D01*
X138515Y32362D01*
Y32293D01*
Y32247D01*
Y32212D01*
Y32201D01*
X138527Y31865D01*
X138538Y31541D01*
X138573Y31217D01*
X138619Y30905D01*
X138747Y30292D01*
X138909Y29713D01*
X139105Y29169D01*
X139325Y28660D01*
X139557Y28197D01*
X139788Y27769D01*
X140031Y27376D01*
X140147Y27202D01*
X140262Y27029D01*
X140378Y26878D01*
X140482Y26739D01*
X140575Y26612D01*
X140667Y26485D01*
X140733Y26412D01*
X143409Y29088D01*
X143271Y29181D01*
X143143Y29273D01*
X143097Y29320D01*
X143062Y29354D01*
X143039Y29366D01*
X143028Y29377D01*
X142889Y29516D01*
X142773Y29655D01*
X142669Y29806D01*
X142588Y29967D01*
X142507Y30118D01*
X142449Y30268D01*
X142357Y30569D01*
X142322Y30708D01*
X142299Y30824D01*
X142287Y30939D01*
X142276Y31043D01*
X142264Y31113D01*
Y31182D01*
Y31217D01*
Y31229D01*
Y31414D01*
X142287Y31587D01*
X142345Y31888D01*
X142426Y32166D01*
X142461Y32282D01*
X142507Y32386D01*
X142553Y32478D01*
X142599Y32559D01*
X142646Y32629D01*
X142681Y32686D01*
X142715Y32733D01*
X142738Y32768D01*
X142750Y32779D01*
X142762Y32791D01*
X142854Y32895D01*
X142958Y32987D01*
X143051Y33057D01*
X143155Y33126D01*
X143351Y33230D01*
X143525Y33300D01*
X143687Y33334D01*
X143803Y33358D01*
X143849Y33369D01*
X143919D01*
X144057Y33358D01*
X144185Y33334D01*
X144312Y33288D01*
X144439Y33230D01*
X144670Y33091D01*
X144879Y32930D01*
X145041Y32768D01*
X145110Y32698D01*
X145168Y32629D01*
X145214Y32571D01*
X145249Y32524D01*
X145272Y32501D01*
X145284Y32490D01*
Y35625D01*
X145492D01*
X146788Y35093D01*
X146718Y34931D01*
X146591Y34977D01*
X146487Y34989D01*
X146418Y35001D01*
X146394D01*
X146313Y34989D01*
X146256Y34977D01*
X146209Y34954D01*
X146198Y34943D01*
X146151Y34873D01*
X146117Y34804D01*
X146105Y34734D01*
X146094Y34723D01*
Y34711D01*
X146082Y34677D01*
Y34619D01*
X146071Y34503D01*
Y34353D01*
X146059Y34191D01*
Y34052D01*
Y33924D01*
Y33878D01*
Y33843D01*
Y33820D01*
Y33809D01*
Y31738D01*
X147204Y32895D01*
X147146Y33115D01*
X147123Y33230D01*
X147112Y33323D01*
X147100Y33415D01*
Y33485D01*
Y33531D01*
Y33543D01*
X147112Y33751D01*
X147158Y33936D01*
X147204Y34110D01*
X147274Y34248D01*
X147332Y34376D01*
X147389Y34457D01*
X147436Y34515D01*
X147447Y34538D01*
X147586Y34688D01*
X147725Y34815D01*
X147864Y34920D01*
X147991Y35001D01*
X148107Y35058D01*
X148199Y35105D01*
X148257Y35128D01*
X148280Y35139D01*
X148489Y35197D01*
X148708Y35243D01*
X148928Y35267D01*
X149148Y35290D01*
X149345Y35301D01*
X149426Y35313D01*
X149634D01*
X153018Y38697D01*
X152897Y38807D01*
X152642Y39015D01*
X152388Y39200D01*
X152122Y39374D01*
X151867Y39536D01*
X151601Y39698D01*
X151346Y39837D01*
X150826Y40080D01*
X150317Y40288D01*
X149819Y40462D01*
X149345Y40589D01*
X148905Y40705D01*
X148500Y40774D01*
X148315Y40809D01*
X148142Y40832D01*
X147979Y40855D01*
X147829Y40878D01*
X147690Y40890D01*
X147575Y40901D01*
X147470D01*
X147389Y40913D01*
D02*
G37*
G36*
X149217Y34896D02*
X149079Y34850D01*
X148951Y34804D01*
X148905Y34781D01*
X148870Y34769D01*
X148847Y34746D01*
X148836D01*
X148732Y34677D01*
X148627Y34596D01*
X148547Y34503D01*
X148477Y34422D01*
X148419Y34341D01*
X148384Y34272D01*
X148361Y34225D01*
X148350Y34214D01*
X148292Y34086D01*
X148257Y34005D01*
X148246Y33948D01*
X148234Y33924D01*
X149217Y34896D01*
D02*
G37*
G36*
X150166Y34468D02*
X148373Y32686D01*
X148431Y32594D01*
X148489Y32524D01*
X148523Y32478D01*
X148535Y32467D01*
X148674Y32339D01*
X148824Y32235D01*
X148963Y32166D01*
X149090Y32120D01*
X149206Y32096D01*
X149299Y32085D01*
X149356Y32073D01*
X149380D01*
X149484Y32085D01*
X149599Y32096D01*
X149646D01*
X149680Y32108D01*
X149715D01*
X149865Y32120D01*
X150016Y32143D01*
X150074Y32154D01*
X150120Y32166D01*
X150155Y32177D01*
X150166D01*
Y34468D01*
D02*
G37*
G36*
X144381Y32686D02*
X144289D01*
X144115Y32663D01*
X143965Y32617D01*
X143826Y32548D01*
X143699Y32467D01*
X143595Y32386D01*
X143525Y32316D01*
X143467Y32270D01*
X143456Y32247D01*
X143328Y32062D01*
X143236Y31853D01*
X143166Y31645D01*
X143120Y31437D01*
X143097Y31252D01*
X143085Y31171D01*
X143074Y31101D01*
Y31043D01*
Y30997D01*
Y30974D01*
Y30963D01*
X143085Y30650D01*
X143132Y30373D01*
X143190Y30130D01*
X143259Y29944D01*
X143340Y29794D01*
X143398Y29690D01*
X143444Y29620D01*
X143456Y29597D01*
X143525Y29493D01*
X143595Y29424D01*
X143652Y29366D01*
X143664Y29354D01*
X143675D01*
X145284Y30951D01*
Y32189D01*
X145168Y32293D01*
X145076Y32374D01*
X144983Y32432D01*
X144913Y32490D01*
X144856Y32524D01*
X144821Y32548D01*
X144798Y32571D01*
X144786D01*
X144601Y32640D01*
X144520Y32663D01*
X144439Y32675D01*
X144381Y32686D01*
D02*
G37*
G36*
X153695Y38009D02*
X150999Y35313D01*
X151983D01*
Y35139D01*
X151740D01*
X151612Y35128D01*
X151508Y35105D01*
X151404Y35070D01*
X151335Y35035D01*
X151277Y35001D01*
X151231Y34966D01*
X151208Y34943D01*
X151196Y34931D01*
X151150Y34862D01*
X151127Y34758D01*
X151103Y34630D01*
X151080Y34503D01*
Y34376D01*
X151069Y34283D01*
Y34202D01*
Y34191D01*
Y34179D01*
Y30048D01*
Y29863D01*
X151080Y29701D01*
X151092Y29586D01*
X151115Y29493D01*
X151127Y29424D01*
X151150Y29377D01*
X151161Y29354D01*
Y29343D01*
X151242Y29262D01*
X151335Y29192D01*
X151427Y29146D01*
X151520Y29123D01*
X151601Y29100D01*
X151670Y29088D01*
X151983D01*
Y28903D01*
X149241D01*
Y29088D01*
X149484D01*
X149611Y29100D01*
X149715Y29123D01*
X149808Y29146D01*
X149889Y29192D01*
X149946Y29227D01*
X149993Y29250D01*
X150016Y29273D01*
X150027Y29285D01*
X150074Y29366D01*
X150108Y29470D01*
X150131Y29597D01*
X150143Y29725D01*
X150155Y29852D01*
X150166Y29956D01*
Y30025D01*
Y30037D01*
Y30048D01*
Y31900D01*
X150039Y31877D01*
X149923Y31853D01*
X149831Y31842D01*
X149750Y31830D01*
X149680Y31819D01*
X149634Y31807D01*
X149588D01*
X149391Y31784D01*
X149299D01*
X149229Y31773D01*
X149079D01*
X148801Y31784D01*
X148547Y31830D01*
X148327Y31888D01*
X148142Y31946D01*
X148003Y32015D01*
X147898Y32062D01*
X147829Y32108D01*
X147806Y32120D01*
X146059Y30373D01*
Y29320D01*
X145908Y29227D01*
X145758Y29146D01*
X145631Y29077D01*
X145503Y29019D01*
X145411Y28973D01*
X145330Y28938D01*
X145272Y28926D01*
X145261Y28915D01*
X145122Y28868D01*
X144994Y28834D01*
X144856Y28811D01*
X144740Y28799D01*
X144647Y28787D01*
X144566Y28776D01*
X144462D01*
X141408Y25721D01*
X141061Y26045D01*
X141034Y26074D01*
X141014Y26103D01*
X140983Y26128D01*
X141034Y26074D01*
X141037Y26068D01*
X141061Y26045D01*
X141072Y26034D01*
X141315Y25802D01*
X141558Y25583D01*
X141813Y25386D01*
X142067Y25189D01*
X142322Y25016D01*
X142588Y24854D01*
X142842Y24703D01*
X143109Y24564D01*
X143629Y24321D01*
X144138Y24113D01*
X144636Y23940D01*
X145099Y23812D01*
X145550Y23697D01*
X145955Y23627D01*
X146140Y23593D01*
X146313Y23569D01*
X146475Y23546D01*
X146626Y23523D01*
X146753Y23512D01*
X146880Y23500D01*
X146985D01*
X147065Y23488D01*
X147228D01*
X147563Y23500D01*
X147887Y23523D01*
X148211Y23546D01*
X148523Y23593D01*
X149136Y23720D01*
X149704Y23882D01*
X150247Y24078D01*
X150756Y24298D01*
X151231Y24530D01*
X151659Y24761D01*
X152041Y25004D01*
X152214Y25120D01*
X152388Y25224D01*
X152538Y25339D01*
X152677Y25444D01*
X152804Y25548D01*
X152931Y25640D01*
X153036Y25721D01*
X153128Y25802D01*
X153198Y25872D01*
X153267Y25930D01*
X153313Y25976D01*
X153348Y26011D01*
X153371Y26022D01*
X153383Y26034D01*
X153614Y26277D01*
X153834Y26520D01*
X154031Y26774D01*
X154227Y27029D01*
X154401Y27295D01*
X154563Y27549D01*
X154725Y27815D01*
X154864Y28082D01*
X155107Y28602D01*
X155315Y29111D01*
X155489Y29609D01*
X155616Y30072D01*
X155720Y30523D01*
X155801Y30928D01*
X155836Y31113D01*
X155859Y31286D01*
X155882Y31449D01*
X155905Y31599D01*
X155917Y31726D01*
X155928Y31853D01*
Y31958D01*
X155940Y32039D01*
Y32108D01*
Y32154D01*
Y32189D01*
Y32201D01*
X155928Y32536D01*
X155905Y32860D01*
X155882Y33184D01*
X155824Y33496D01*
X155708Y34110D01*
X155535Y34688D01*
X155350Y35232D01*
X155130Y35729D01*
X154898Y36204D01*
X154655Y36632D01*
X154424Y37014D01*
X154308Y37199D01*
X154193Y37361D01*
X154077Y37511D01*
X153973Y37650D01*
X153880Y37789D01*
X153776Y37905D01*
X153695Y38009D01*
D02*
G37*
G36*
X140733Y26412D02*
X140725Y26404D01*
X140902Y26215D01*
X140899Y26219D01*
X140841Y26288D01*
X140760Y26381D01*
X140733Y26412D01*
D02*
G37*
G36*
X140902Y26215D02*
X140956Y26149D01*
X140983Y26128D01*
X140902Y26215D01*
D02*
G37*
%LPD*%
D15*
X0Y0D02*
X205500D01*
Y254000D01*
X0D02*
X205500D01*
X0Y0D02*
Y254000D01*
D17*
X154247Y93778D02*
Y89279D01*
Y93778D02*
X151248Y89279D01*
Y93778D02*
Y89279D01*
X150005Y90992D02*
X147434D01*
Y91421D01*
X147649Y91849D01*
X147863Y92064D01*
X148291Y92278D01*
X148934D01*
X149362Y92064D01*
X149791Y91635D01*
X150005Y90992D01*
Y90564D01*
X149791Y89921D01*
X149362Y89493D01*
X148934Y89279D01*
X148291D01*
X147863Y89493D01*
X147434Y89921D01*
X146470Y92278D02*
X145613Y89279D01*
X144756Y92278D02*
X145613Y89279D01*
X144756Y92278D02*
X143899Y89279D01*
X143042Y92278D02*
X143899Y89279D01*
X138565D02*
X140279Y93778D01*
X141993Y89279D01*
X141350Y90778D02*
X139207D01*
X134730Y93778D02*
X137515D01*
Y89279D01*
X134730D01*
X137515Y91635D02*
X135801D01*
X128945Y93778D02*
Y89279D01*
X130445Y93778D02*
X127446D01*
X126910Y90992D02*
X124339D01*
Y91421D01*
X124554Y91849D01*
X124768Y92064D01*
X125196Y92278D01*
X125839D01*
X126267Y92064D01*
X126696Y91635D01*
X126910Y90992D01*
Y90564D01*
X126696Y89921D01*
X126267Y89493D01*
X125839Y89279D01*
X125196D01*
X124768Y89493D01*
X124339Y89921D01*
X120804Y91635D02*
X121233Y92064D01*
X121661Y92278D01*
X122304D01*
X122732Y92064D01*
X123161Y91635D01*
X123375Y90992D01*
Y90564D01*
X123161Y89921D01*
X122732Y89493D01*
X122304Y89279D01*
X121661D01*
X121233Y89493D01*
X120804Y89921D01*
X119840Y93778D02*
Y89279D01*
Y91421D02*
X119197Y92064D01*
X118769Y92278D01*
X118126D01*
X117698Y92064D01*
X117483Y91421D01*
Y89279D01*
X116305Y92278D02*
Y89279D01*
Y91421D02*
X115663Y92064D01*
X115234Y92278D01*
X114591D01*
X114163Y92064D01*
X113949Y91421D01*
Y89279D01*
X111699Y92278D02*
X112127Y92064D01*
X112556Y91635D01*
X112770Y90992D01*
Y90564D01*
X112556Y89921D01*
X112127Y89493D01*
X111699Y89279D01*
X111056D01*
X110628Y89493D01*
X110199Y89921D01*
X109985Y90564D01*
Y90992D01*
X110199Y91635D01*
X110628Y92064D01*
X111056Y92278D01*
X111699D01*
X109000Y93778D02*
Y89279D01*
X106986Y92278D02*
X107414Y92064D01*
X107843Y91635D01*
X108057Y90992D01*
Y90564D01*
X107843Y89921D01*
X107414Y89493D01*
X106986Y89279D01*
X106343D01*
X105915Y89493D01*
X105486Y89921D01*
X105272Y90564D01*
Y90992D01*
X105486Y91635D01*
X105915Y92064D01*
X106343Y92278D01*
X106986D01*
X101716D02*
Y88850D01*
X101930Y88207D01*
X102144Y87993D01*
X102573Y87779D01*
X103215D01*
X103644Y87993D01*
X101716Y91635D02*
X102144Y92064D01*
X102573Y92278D01*
X103215D01*
X103644Y92064D01*
X104072Y91635D01*
X104286Y90992D01*
Y90564D01*
X104072Y89921D01*
X103644Y89493D01*
X103215Y89279D01*
X102573D01*
X102144Y89493D01*
X101716Y89921D01*
X100302Y92278D02*
X99016Y89279D01*
X97731Y92278D02*
X99016Y89279D01*
X99445Y88422D01*
X99873Y87993D01*
X100302Y87779D01*
X100516D01*
X93446Y93778D02*
Y89279D01*
X92503Y92278D02*
Y89279D01*
Y91421D02*
X91861Y92064D01*
X91432Y92278D01*
X90789D01*
X90361Y92064D01*
X90146Y91421D01*
Y89279D01*
X86397Y91635D02*
X86826Y92064D01*
X87254Y92278D01*
X87897D01*
X88326Y92064D01*
X88754Y91635D01*
X88968Y90992D01*
Y90564D01*
X88754Y89921D01*
X88326Y89493D01*
X87897Y89279D01*
X87254D01*
X86826Y89493D01*
X86397Y89921D01*
X85219Y89707D02*
X85433Y89493D01*
X85219Y89279D01*
X85005Y89493D01*
X85219Y89707D01*
X157300Y85199D02*
Y80700D01*
Y85199D02*
X154301Y80700D01*
Y85199D02*
Y80700D01*
X149630D02*
X151344Y85199D01*
X153058Y80700D01*
X152415Y82200D02*
X150273D01*
X145795Y85199D02*
X148580D01*
Y80700D01*
X145795D01*
X148580Y83057D02*
X146867D01*
X145045Y82628D02*
X141189D01*
X136647Y84128D02*
X136862Y84556D01*
X137290Y84985D01*
X137718Y85199D01*
X138575D01*
X139004Y84985D01*
X139432Y84556D01*
X139647Y84128D01*
X139861Y83485D01*
Y82414D01*
X139647Y81771D01*
X139432Y81343D01*
X139004Y80914D01*
X138575Y80700D01*
X137718D01*
X137290Y80914D01*
X136862Y81343D01*
X136647Y81771D01*
X135383Y85199D02*
X134312Y80700D01*
X133241Y85199D02*
X134312Y80700D01*
X133241Y85199D02*
X132170Y80700D01*
X131098Y85199D02*
X132170Y80700D01*
X129770Y85199D02*
X127414D01*
X128699Y83485D01*
X128056D01*
X127628Y83271D01*
X127414Y83057D01*
X127199Y82414D01*
Y81985D01*
X127414Y81343D01*
X127842Y80914D01*
X128485Y80700D01*
X129128D01*
X129770Y80914D01*
X129984Y81129D01*
X130199Y81557D01*
X124907Y85199D02*
X125550Y84985D01*
X125978Y84342D01*
X126192Y83271D01*
Y82628D01*
X125978Y81557D01*
X125550Y80914D01*
X124907Y80700D01*
X124478D01*
X123836Y80914D01*
X123407Y81557D01*
X123193Y82628D01*
Y83271D01*
X123407Y84342D01*
X123836Y84985D01*
X124478Y85199D01*
X124907D01*
X121115D02*
X121758Y84985D01*
X121972Y84556D01*
Y84128D01*
X121758Y83699D01*
X121329Y83485D01*
X120472Y83271D01*
X119829Y83057D01*
X119401Y82628D01*
X119187Y82200D01*
Y81557D01*
X119401Y81129D01*
X119615Y80914D01*
X120258Y80700D01*
X121115D01*
X121758Y80914D01*
X121972Y81129D01*
X122186Y81557D01*
Y82200D01*
X121972Y82628D01*
X121543Y83057D01*
X120901Y83271D01*
X120044Y83485D01*
X119615Y83699D01*
X119401Y84128D01*
Y84556D01*
X119615Y84985D01*
X120258Y85199D01*
X121115D01*
X116680D02*
Y80700D01*
X118180Y85199D02*
X115181D01*
X114645Y82628D02*
X110789D01*
X109460Y85199D02*
Y80700D01*
X106461Y85199D02*
X109460Y82200D01*
X108389Y83271D02*
X106461Y80700D01*
X105240Y84128D02*
Y84342D01*
X105025Y84771D01*
X104811Y84985D01*
X104383Y85199D01*
X103526D01*
X103097Y84985D01*
X102883Y84771D01*
X102669Y84342D01*
Y83914D01*
X102883Y83485D01*
X103312Y82842D01*
X105454Y80700D01*
X102455D01*
X99305Y85199D02*
X101448Y82200D01*
X98234D01*
X99305Y85199D02*
Y80700D01*
X97441Y85199D02*
Y80700D01*
Y85199D02*
X94656D01*
X97441Y83057D02*
X95727D01*
X94142Y82628D02*
X90286D01*
X87672Y85199D02*
X88315Y84985D01*
X88743Y84342D01*
X88958Y83271D01*
Y82628D01*
X88743Y81557D01*
X88315Y80914D01*
X87672Y80700D01*
X87244D01*
X86601Y80914D01*
X86172Y81557D01*
X85958Y82628D01*
Y83271D01*
X86172Y84342D01*
X86601Y84985D01*
X87244Y85199D01*
X87672D01*
X84737Y84128D02*
Y84342D01*
X84523Y84771D01*
X84308Y84985D01*
X83880Y85199D01*
X83023D01*
X82595Y84985D01*
X82380Y84771D01*
X82166Y84342D01*
Y83914D01*
X82380Y83485D01*
X82809Y82842D01*
X84951Y80700D01*
X81952D01*
M02*
