G04 Layer_Physical_Order=2*
G04 Layer_Color=16711680*
%FSLAX25Y25*%
%MOIN*%
G70*
G01*
G75*
%ADD19C,0.02000*%
%ADD20C,0.01000*%
%ADD23C,0.03000*%
%ADD24C,0.25000*%
%ADD25R,0.11000X0.06000*%
%ADD26O,0.11000X0.06000*%
%ADD27R,0.06000X0.11000*%
%ADD28O,0.06000X0.11000*%
%ADD29C,0.02953*%
G04:AMPARAMS|DCode=30|XSize=39.37mil|YSize=62.99mil|CornerRadius=19.68mil|HoleSize=0mil|Usage=FLASHONLY|Rotation=0.000|XOffset=0mil|YOffset=0mil|HoleType=Round|Shape=RoundedRectangle|*
%AMROUNDEDRECTD30*
21,1,0.03937,0.02362,0,0,0.0*
21,1,0.00000,0.06299,0,0,0.0*
1,1,0.03937,0.00000,-0.01181*
1,1,0.03937,0.00000,-0.01181*
1,1,0.03937,0.00000,0.01181*
1,1,0.03937,0.00000,0.01181*
%
%ADD30ROUNDEDRECTD30*%
%ADD31C,0.02400*%
%ADD32C,0.03400*%
%ADD33R,0.05000X0.02500*%
G36*
X408674Y475800D02*
X404700D01*
Y471800D01*
Y467800D01*
X408674D01*
Y465528D01*
X408074Y465127D01*
X407640Y465307D01*
X406700Y465431D01*
X401700D01*
X400760Y465307D01*
X399885Y464945D01*
X399132Y464368D01*
X398555Y463616D01*
X398193Y462740D01*
X398069Y461800D01*
X398193Y460860D01*
X398555Y459984D01*
X399132Y459233D01*
X399885Y458655D01*
X400760Y458293D01*
X401700Y458169D01*
X406700D01*
X407640Y458293D01*
X408074Y458473D01*
X408674Y458072D01*
Y455528D01*
X408074Y455127D01*
X407640Y455307D01*
X406700Y455431D01*
X401700D01*
X400760Y455307D01*
X399885Y454945D01*
X399132Y454368D01*
X398555Y453616D01*
X398193Y452740D01*
X398069Y451800D01*
X398193Y450860D01*
X398555Y449985D01*
X399132Y449232D01*
X399885Y448655D01*
X400760Y448293D01*
X401700Y448169D01*
X406700D01*
X407640Y448293D01*
X408074Y448473D01*
X408674Y448072D01*
Y445852D01*
X408175Y445518D01*
X407744Y445697D01*
X406700Y445834D01*
X404700D01*
Y441800D01*
Y437766D01*
X406700D01*
X407744Y437903D01*
X408175Y438082D01*
X408674Y437748D01*
Y435528D01*
X408074Y435127D01*
X407640Y435307D01*
X406700Y435431D01*
X401700D01*
X400760Y435307D01*
X399885Y434945D01*
X399132Y434368D01*
X398555Y433615D01*
X398193Y432740D01*
X398069Y431800D01*
X398193Y430860D01*
X398555Y429985D01*
X399132Y429233D01*
X399885Y428655D01*
X400760Y428293D01*
X401700Y428169D01*
X406700D01*
X407640Y428293D01*
X408074Y428473D01*
X408674Y428072D01*
Y425528D01*
X408074Y425127D01*
X407640Y425307D01*
X406700Y425431D01*
X401700D01*
X400760Y425307D01*
X399885Y424945D01*
X399132Y424368D01*
X398555Y423616D01*
X398193Y422740D01*
X398069Y421800D01*
X398193Y420860D01*
X398555Y419984D01*
X399132Y419233D01*
X399885Y418655D01*
X400760Y418293D01*
X401700Y418169D01*
X406700D01*
X407640Y418293D01*
X408074Y418473D01*
X408674Y418072D01*
Y415852D01*
X408175Y415519D01*
X407744Y415697D01*
X406700Y415835D01*
X404700D01*
Y411800D01*
Y407765D01*
X406700D01*
X407744Y407903D01*
X408175Y408081D01*
X408674Y407748D01*
Y405528D01*
X408074Y405127D01*
X407640Y405307D01*
X406700Y405431D01*
X401700D01*
X400760Y405307D01*
X399885Y404945D01*
X399132Y404368D01*
X398555Y403616D01*
X398193Y402740D01*
X398069Y401800D01*
X398193Y400860D01*
X398555Y399985D01*
X399132Y399233D01*
X399885Y398655D01*
X400760Y398293D01*
X401700Y398169D01*
X406700D01*
X407640Y398293D01*
X408074Y398473D01*
X408674Y398072D01*
Y395852D01*
X408175Y395518D01*
X407744Y395697D01*
X406700Y395834D01*
X404700D01*
Y391800D01*
Y387766D01*
X406700D01*
X407744Y387903D01*
X408175Y388082D01*
X408674Y387748D01*
Y385852D01*
X408175Y385519D01*
X407744Y385697D01*
X406700Y385835D01*
X404700D01*
Y381800D01*
Y377765D01*
X406700D01*
X407744Y377903D01*
X408175Y378081D01*
X408674Y377748D01*
Y375528D01*
X408074Y375127D01*
X407640Y375307D01*
X406700Y375431D01*
X401700D01*
X400760Y375307D01*
X399885Y374945D01*
X399132Y374368D01*
X398555Y373616D01*
X398193Y372740D01*
X398069Y371800D01*
X398193Y370860D01*
X398555Y369985D01*
X399132Y369233D01*
X399885Y368655D01*
X400760Y368293D01*
X401700Y368169D01*
X406700D01*
X407640Y368293D01*
X408074Y368473D01*
X408674Y368072D01*
Y365528D01*
X408074Y365127D01*
X407640Y365307D01*
X406700Y365431D01*
X401700D01*
X400760Y365307D01*
X399885Y364945D01*
X399132Y364368D01*
X398555Y363615D01*
X398193Y362740D01*
X398069Y361800D01*
X398193Y360860D01*
X398555Y359984D01*
X399132Y359232D01*
X399885Y358655D01*
X400760Y358293D01*
X401700Y358169D01*
X406700D01*
X407640Y358293D01*
X408074Y358473D01*
X408674Y358072D01*
Y355528D01*
X408074Y355127D01*
X407640Y355307D01*
X406700Y355431D01*
X401700D01*
X400760Y355307D01*
X399885Y354945D01*
X399132Y354368D01*
X398555Y353615D01*
X398193Y352740D01*
X398069Y351800D01*
X398193Y350860D01*
X398555Y349985D01*
X399132Y349233D01*
X399885Y348655D01*
X400760Y348293D01*
X401700Y348169D01*
X406700D01*
X407640Y348293D01*
X408074Y348473D01*
X408674Y348072D01*
Y346934D01*
X408175Y346601D01*
X408005Y346671D01*
X406700Y346843D01*
X401700D01*
X400395Y346671D01*
X399178Y346167D01*
X398134Y345366D01*
X397333Y344322D01*
X396829Y343105D01*
X396657Y341800D01*
X396829Y340495D01*
X397333Y339278D01*
X398134Y338234D01*
X399178Y337433D01*
X400395Y336929D01*
X401700Y336757D01*
X406700D01*
X408005Y336929D01*
X408175Y336999D01*
X408674Y336666D01*
Y335528D01*
X408074Y335127D01*
X407640Y335307D01*
X406700Y335431D01*
X401700D01*
X400760Y335307D01*
X399885Y334945D01*
X399132Y334368D01*
X398555Y333615D01*
X398193Y332740D01*
X398069Y331800D01*
X398193Y330860D01*
X398555Y329984D01*
X399132Y329233D01*
X399885Y328655D01*
X400760Y328293D01*
X401700Y328169D01*
X406700D01*
X407640Y328293D01*
X408074Y328473D01*
X408674Y328072D01*
Y325852D01*
X408175Y325518D01*
X407744Y325697D01*
X406700Y325834D01*
X404700D01*
Y321800D01*
Y317765D01*
X406700D01*
X407744Y317903D01*
X408175Y318081D01*
X408674Y317748D01*
Y315852D01*
X408175Y315518D01*
X407744Y315697D01*
X406700Y315834D01*
X404700D01*
Y311800D01*
Y307766D01*
X406700D01*
X407744Y307903D01*
X408175Y308082D01*
X408674Y307748D01*
Y305528D01*
X408074Y305127D01*
X407640Y305307D01*
X406700Y305431D01*
X401700D01*
X400760Y305307D01*
X399885Y304945D01*
X399132Y304368D01*
X398555Y303615D01*
X398193Y302740D01*
X398069Y301800D01*
X398193Y300860D01*
X398555Y299985D01*
X399132Y299233D01*
X399885Y298655D01*
X400760Y298293D01*
X401700Y298169D01*
X406700D01*
X407640Y298293D01*
X408074Y298473D01*
X408674Y298072D01*
Y295528D01*
X408074Y295127D01*
X407640Y295307D01*
X406700Y295431D01*
X401700D01*
X400760Y295307D01*
X399885Y294945D01*
X399132Y294368D01*
X398555Y293616D01*
X398193Y292740D01*
X398069Y291800D01*
X398193Y290860D01*
X398555Y289984D01*
X399132Y289232D01*
X399885Y288655D01*
X400760Y288293D01*
X401700Y288169D01*
X406700D01*
X407640Y288293D01*
X408074Y288473D01*
X408674Y288072D01*
Y285528D01*
X408074Y285127D01*
X407640Y285307D01*
X406700Y285431D01*
X401700D01*
X400760Y285307D01*
X399885Y284945D01*
X399132Y284368D01*
X398555Y283615D01*
X398193Y282740D01*
X398069Y281800D01*
X398193Y280860D01*
X398555Y279984D01*
X399132Y279233D01*
X399885Y278655D01*
X400760Y278293D01*
X401700Y278169D01*
X406700D01*
X407640Y278293D01*
X408074Y278473D01*
X408674Y278072D01*
Y257026D01*
X407670D01*
X407403Y257626D01*
X407707Y258360D01*
X407831Y259300D01*
Y264300D01*
X407707Y265240D01*
X407345Y266115D01*
X406768Y266868D01*
X406015Y267445D01*
X405140Y267807D01*
X404200Y267931D01*
X403260Y267807D01*
X402385Y267445D01*
X401632Y266868D01*
X401055Y266115D01*
X400693Y265240D01*
X400569Y264300D01*
Y259300D01*
X400693Y258360D01*
X400997Y257626D01*
X400730Y257026D01*
X397670D01*
X397403Y257626D01*
X397707Y258360D01*
X397831Y259300D01*
Y264300D01*
X397707Y265240D01*
X397345Y266115D01*
X396767Y266868D01*
X396016Y267445D01*
X395140Y267807D01*
X394200Y267931D01*
X393260Y267807D01*
X392385Y267445D01*
X391633Y266868D01*
X391055Y266115D01*
X390693Y265240D01*
X390569Y264300D01*
Y259300D01*
X390693Y258360D01*
X390997Y257626D01*
X390730Y257026D01*
X387670D01*
X387403Y257626D01*
X387707Y258360D01*
X387831Y259300D01*
Y264300D01*
X387707Y265240D01*
X387345Y266115D01*
X386768Y266868D01*
X386016Y267445D01*
X385140Y267807D01*
X384200Y267931D01*
X383260Y267807D01*
X382384Y267445D01*
X381632Y266868D01*
X381055Y266115D01*
X380693Y265240D01*
X380569Y264300D01*
Y259300D01*
X380693Y258360D01*
X380997Y257626D01*
X380730Y257026D01*
X377670D01*
X377403Y257626D01*
X377707Y258360D01*
X377831Y259300D01*
Y264300D01*
X377707Y265240D01*
X377345Y266115D01*
X376767Y266868D01*
X376015Y267445D01*
X375140Y267807D01*
X374200Y267931D01*
X373260Y267807D01*
X372385Y267445D01*
X371633Y266868D01*
X371055Y266115D01*
X370693Y265240D01*
X370569Y264300D01*
Y259300D01*
X370693Y258360D01*
X370997Y257626D01*
X370730Y257026D01*
X367670D01*
X367403Y257626D01*
X367707Y258360D01*
X367831Y259300D01*
Y264300D01*
X367707Y265240D01*
X367345Y266115D01*
X366768Y266868D01*
X366016Y267445D01*
X365140Y267807D01*
X364200Y267931D01*
X363260Y267807D01*
X362385Y267445D01*
X361632Y266868D01*
X361055Y266115D01*
X360693Y265240D01*
X360569Y264300D01*
Y259300D01*
X360693Y258360D01*
X360997Y257626D01*
X360730Y257026D01*
X357670D01*
X357403Y257626D01*
X357707Y258360D01*
X357831Y259300D01*
Y264300D01*
X357707Y265240D01*
X357345Y266115D01*
X356768Y266868D01*
X356015Y267445D01*
X355140Y267807D01*
X354200Y267931D01*
X353260Y267807D01*
X352384Y267445D01*
X351632Y266868D01*
X351055Y266115D01*
X350693Y265240D01*
X350569Y264300D01*
Y259300D01*
X350693Y258360D01*
X350997Y257626D01*
X350730Y257026D01*
X347670D01*
X347403Y257626D01*
X347707Y258360D01*
X347831Y259300D01*
Y264300D01*
X347707Y265240D01*
X347345Y266115D01*
X346767Y266868D01*
X346016Y267445D01*
X345140Y267807D01*
X344200Y267931D01*
X343260Y267807D01*
X342385Y267445D01*
X341633Y266868D01*
X341055Y266115D01*
X340693Y265240D01*
X340569Y264300D01*
Y259300D01*
X340693Y258360D01*
X340997Y257626D01*
X340730Y257026D01*
X337670D01*
X337403Y257626D01*
X337707Y258360D01*
X337831Y259300D01*
Y264300D01*
X337707Y265240D01*
X337345Y266115D01*
X336768Y266868D01*
X336016Y267445D01*
X335140Y267807D01*
X334200Y267931D01*
X333260Y267807D01*
X332384Y267445D01*
X331632Y266868D01*
X331055Y266115D01*
X330693Y265240D01*
X330569Y264300D01*
Y259300D01*
X330693Y258360D01*
X330997Y257626D01*
X330730Y257026D01*
X327670D01*
X327403Y257626D01*
X327707Y258360D01*
X327831Y259300D01*
Y264300D01*
X327707Y265240D01*
X327345Y266115D01*
X326767Y266868D01*
X326015Y267445D01*
X325140Y267807D01*
X324200Y267931D01*
X323260Y267807D01*
X322385Y267445D01*
X321633Y266868D01*
X321055Y266115D01*
X320693Y265240D01*
X320569Y264300D01*
Y259300D01*
X320693Y258360D01*
X320997Y257626D01*
X320730Y257026D01*
X317670D01*
X317403Y257626D01*
X317707Y258360D01*
X317831Y259300D01*
Y264300D01*
X317707Y265240D01*
X317345Y266115D01*
X316768Y266868D01*
X316016Y267445D01*
X315140Y267807D01*
X314200Y267931D01*
X313260Y267807D01*
X312385Y267445D01*
X311632Y266868D01*
X311055Y266115D01*
X310693Y265240D01*
X310569Y264300D01*
Y259300D01*
X310693Y258360D01*
X310997Y257626D01*
X310730Y257026D01*
X308221D01*
X307836Y257626D01*
X308097Y258256D01*
X308235Y259300D01*
Y261300D01*
X304200D01*
X300166D01*
Y259300D01*
X300303Y258256D01*
X300564Y257626D01*
X300179Y257026D01*
X298221D01*
X297836Y257626D01*
X298097Y258256D01*
X298235Y259300D01*
Y261300D01*
X294200D01*
X290165D01*
Y259300D01*
X290303Y258256D01*
X290564Y257626D01*
X290179Y257026D01*
X287670D01*
X287403Y257626D01*
X287707Y258360D01*
X287831Y259300D01*
Y264300D01*
X287707Y265240D01*
X287345Y266115D01*
X286768Y266868D01*
X286016Y267445D01*
X285140Y267807D01*
X284200Y267931D01*
X283260Y267807D01*
X282384Y267445D01*
X281632Y266868D01*
X281055Y266115D01*
X280693Y265240D01*
X280569Y264300D01*
Y259300D01*
X280693Y258360D01*
X280997Y257626D01*
X280730Y257026D01*
X279210D01*
X278877Y257525D01*
X279071Y257995D01*
X279243Y259300D01*
Y264300D01*
X279071Y265605D01*
X278568Y266822D01*
X277766Y267866D01*
X277713Y267907D01*
X277666Y268687D01*
X280453Y271474D01*
X329100D01*
X329883Y271577D01*
X330613Y271880D01*
X331240Y272360D01*
X374830Y315951D01*
X375166Y315995D01*
X376066Y316368D01*
X376839Y316961D01*
X377432Y317734D01*
X377805Y318634D01*
X377932Y319600D01*
X377805Y320566D01*
X377432Y321466D01*
X376839Y322239D01*
X376066Y322832D01*
X375166Y323205D01*
X374200Y323332D01*
X373234Y323205D01*
X372334Y322832D01*
X371561Y322239D01*
X370968Y321466D01*
X370595Y320566D01*
X370551Y320230D01*
X327847Y277526D01*
X280453D01*
X274040Y283940D01*
X273413Y284420D01*
X272683Y284723D01*
X271900Y284826D01*
X220680D01*
X220266Y285366D01*
X219222Y286168D01*
X218005Y286671D01*
X216700Y286843D01*
X211700D01*
X210395Y286671D01*
X209725Y286394D01*
X209226Y286727D01*
Y288482D01*
X209764Y288748D01*
X209885Y288655D01*
X210760Y288293D01*
X211700Y288169D01*
X216700D01*
X217640Y288293D01*
X218515Y288655D01*
X219268Y289232D01*
X219845Y289984D01*
X220207Y290860D01*
X220331Y291800D01*
X220207Y292740D01*
X219845Y293616D01*
X219268Y294368D01*
X218515Y294945D01*
X217640Y295307D01*
X216700Y295431D01*
X211700D01*
X210760Y295307D01*
X209885Y294945D01*
X209764Y294852D01*
X209226Y295117D01*
Y298482D01*
X209764Y298748D01*
X209885Y298655D01*
X210760Y298293D01*
X211700Y298169D01*
X216700D01*
X217640Y298293D01*
X218515Y298655D01*
X219268Y299233D01*
X219845Y299985D01*
X220207Y300860D01*
X220331Y301800D01*
X220207Y302740D01*
X219845Y303615D01*
X219268Y304368D01*
X218515Y304945D01*
X217640Y305307D01*
X216700Y305431D01*
X211700D01*
X210760Y305307D01*
X209885Y304945D01*
X209764Y304852D01*
X209226Y305118D01*
Y308483D01*
X209764Y308748D01*
X209885Y308655D01*
X210760Y308293D01*
X211700Y308169D01*
X216700D01*
X217640Y308293D01*
X218515Y308655D01*
X219268Y309232D01*
X219845Y309984D01*
X220207Y310860D01*
X220331Y311800D01*
X220207Y312740D01*
X219845Y313615D01*
X219268Y314368D01*
X218515Y314945D01*
X217640Y315307D01*
X216700Y315431D01*
X211700D01*
X210760Y315307D01*
X209885Y314945D01*
X209764Y314852D01*
X209226Y315118D01*
Y317979D01*
X209826Y318247D01*
X210656Y317903D01*
X211700Y317765D01*
X213700D01*
Y321800D01*
Y325834D01*
X211700D01*
X210656Y325697D01*
X209826Y325353D01*
X209226Y325621D01*
Y327979D01*
X209826Y328247D01*
X210656Y327903D01*
X211700Y327765D01*
X213700D01*
Y331800D01*
Y335835D01*
X211700D01*
X210656Y335697D01*
X209826Y335353D01*
X209226Y335621D01*
Y338482D01*
X209764Y338748D01*
X209885Y338655D01*
X210760Y338293D01*
X211700Y338169D01*
X216700D01*
X217640Y338293D01*
X218515Y338655D01*
X219268Y339232D01*
X219845Y339984D01*
X220207Y340860D01*
X220331Y341800D01*
X220207Y342740D01*
X219845Y343616D01*
X219268Y344368D01*
X218515Y344945D01*
X217640Y345307D01*
X216700Y345431D01*
X211700D01*
X210760Y345307D01*
X209885Y344945D01*
X209764Y344852D01*
X209226Y345117D01*
Y348482D01*
X209764Y348748D01*
X209885Y348655D01*
X210760Y348293D01*
X211700Y348169D01*
X216700D01*
X217640Y348293D01*
X218515Y348655D01*
X219268Y349233D01*
X219845Y349985D01*
X220207Y350860D01*
X220331Y351800D01*
X220207Y352740D01*
X219845Y353615D01*
X219268Y354368D01*
X218515Y354945D01*
X217640Y355307D01*
X216700Y355431D01*
X211700D01*
X210760Y355307D01*
X209885Y354945D01*
X209764Y354852D01*
X209226Y355118D01*
Y358483D01*
X209764Y358748D01*
X209885Y358655D01*
X210760Y358293D01*
X211700Y358169D01*
X216700D01*
X217640Y358293D01*
X218515Y358655D01*
X219268Y359232D01*
X219845Y359984D01*
X220207Y360860D01*
X220331Y361800D01*
X220207Y362740D01*
X219845Y363615D01*
X219268Y364368D01*
X218515Y364945D01*
X217640Y365307D01*
X216700Y365431D01*
X211700D01*
X210760Y365307D01*
X209885Y364945D01*
X209764Y364852D01*
X209226Y365118D01*
Y368482D01*
X209764Y368748D01*
X209885Y368655D01*
X210760Y368293D01*
X211700Y368169D01*
X216700D01*
X217640Y368293D01*
X218515Y368655D01*
X219268Y369233D01*
X219845Y369985D01*
X220207Y370860D01*
X220331Y371800D01*
X220207Y372740D01*
X219845Y373616D01*
X219268Y374368D01*
X218515Y374945D01*
X217640Y375307D01*
X216700Y375431D01*
X211700D01*
X210760Y375307D01*
X209885Y374945D01*
X209764Y374852D01*
X209226Y375117D01*
Y378483D01*
X209764Y378748D01*
X209885Y378655D01*
X210760Y378293D01*
X211700Y378169D01*
X216700D01*
X217640Y378293D01*
X218515Y378655D01*
X219268Y379233D01*
X219845Y379984D01*
X220207Y380860D01*
X220331Y381800D01*
X220207Y382740D01*
X219845Y383615D01*
X219268Y384368D01*
X218515Y384945D01*
X217640Y385307D01*
X216700Y385431D01*
X211700D01*
X210760Y385307D01*
X209885Y384945D01*
X209764Y384852D01*
X209226Y385118D01*
Y388482D01*
X209764Y388748D01*
X209885Y388655D01*
X210760Y388293D01*
X211700Y388169D01*
X216700D01*
X217640Y388293D01*
X218515Y388655D01*
X219268Y389232D01*
X219845Y389984D01*
X220207Y390860D01*
X220331Y391800D01*
X220207Y392740D01*
X219845Y393616D01*
X219268Y394368D01*
X218515Y394945D01*
X217640Y395307D01*
X216700Y395431D01*
X211700D01*
X210760Y395307D01*
X209885Y394945D01*
X209764Y394852D01*
X209226Y395117D01*
Y398482D01*
X209764Y398748D01*
X209885Y398655D01*
X210760Y398293D01*
X211700Y398169D01*
X216700D01*
X217640Y398293D01*
X218515Y398655D01*
X219268Y399233D01*
X219845Y399985D01*
X220207Y400860D01*
X220331Y401800D01*
X220207Y402740D01*
X219845Y403616D01*
X219268Y404368D01*
X218515Y404945D01*
X217640Y405307D01*
X216700Y405431D01*
X211700D01*
X210760Y405307D01*
X209885Y404945D01*
X209764Y404852D01*
X209226Y405118D01*
Y408483D01*
X209764Y408748D01*
X209885Y408655D01*
X210760Y408293D01*
X211700Y408169D01*
X216700D01*
X217640Y408293D01*
X218515Y408655D01*
X219268Y409233D01*
X219845Y409984D01*
X220207Y410860D01*
X220331Y411800D01*
X220207Y412740D01*
X219845Y413616D01*
X219268Y414368D01*
X218515Y414945D01*
X217640Y415307D01*
X216700Y415431D01*
X211700D01*
X210760Y415307D01*
X209885Y414945D01*
X209764Y414852D01*
X209226Y415118D01*
Y417979D01*
X209826Y418247D01*
X210656Y417903D01*
X211700Y417766D01*
X213700D01*
Y421800D01*
Y425835D01*
X211700D01*
X210656Y425697D01*
X209826Y425353D01*
X209226Y425621D01*
Y428482D01*
X209764Y428748D01*
X209885Y428655D01*
X210760Y428293D01*
X211700Y428169D01*
X216700D01*
X217640Y428293D01*
X218515Y428655D01*
X219268Y429233D01*
X219845Y429985D01*
X220207Y430860D01*
X220331Y431800D01*
X220207Y432740D01*
X219845Y433615D01*
X219268Y434368D01*
X218515Y434945D01*
X217640Y435307D01*
X216700Y435431D01*
X211700D01*
X210760Y435307D01*
X209885Y434945D01*
X209764Y434852D01*
X209226Y435117D01*
Y437979D01*
X209826Y438247D01*
X210656Y437903D01*
X211700Y437766D01*
X213700D01*
Y441800D01*
Y445834D01*
X211700D01*
X210656Y445697D01*
X209826Y445353D01*
X209226Y445621D01*
Y448483D01*
X209764Y448748D01*
X209885Y448655D01*
X210760Y448293D01*
X211700Y448169D01*
X216700D01*
X217640Y448293D01*
X218515Y448655D01*
X219268Y449232D01*
X219845Y449985D01*
X220207Y450860D01*
X220331Y451800D01*
X220207Y452740D01*
X219845Y453616D01*
X219268Y454368D01*
X218515Y454945D01*
X217640Y455307D01*
X216700Y455431D01*
X211700D01*
X210760Y455307D01*
X209885Y454945D01*
X209764Y454852D01*
X209226Y455118D01*
Y457979D01*
X209826Y458247D01*
X210656Y457903D01*
X211700Y457765D01*
X213700D01*
Y461800D01*
Y465835D01*
X211700D01*
X210656Y465697D01*
X209826Y465353D01*
X209226Y465621D01*
Y468200D01*
X220300D01*
Y475400D01*
X209226D01*
Y504974D01*
X230388D01*
X230459Y504374D01*
X230139Y504297D01*
X228234Y503508D01*
X226476Y502431D01*
X224908Y501092D01*
X223569Y499524D01*
X222492Y497766D01*
X221703Y495861D01*
X221221Y493856D01*
X221059Y491800D01*
X221221Y489744D01*
X221703Y487739D01*
X222492Y485834D01*
X223569Y484076D01*
X224908Y482508D01*
X226476Y481169D01*
X228234Y480092D01*
X230139Y479303D01*
X232144Y478821D01*
X234200Y478659D01*
X236256Y478821D01*
X238261Y479303D01*
X240166Y480092D01*
X241924Y481169D01*
X243492Y482508D01*
X244831Y484076D01*
X245908Y485834D01*
X246697Y487739D01*
X247179Y489744D01*
X247340Y491800D01*
X247179Y493856D01*
X246697Y495861D01*
X245908Y497766D01*
X244831Y499524D01*
X243492Y501092D01*
X241924Y502431D01*
X240166Y503508D01*
X238261Y504297D01*
X237941Y504374D01*
X238012Y504974D01*
X380388D01*
X380459Y504374D01*
X380139Y504297D01*
X378234Y503508D01*
X376476Y502431D01*
X374908Y501092D01*
X373569Y499524D01*
X372492Y497766D01*
X371703Y495861D01*
X371221Y493856D01*
X371059Y491800D01*
X371221Y489744D01*
X371703Y487739D01*
X372492Y485834D01*
X373569Y484076D01*
X374908Y482508D01*
X376476Y481169D01*
X378234Y480092D01*
X380139Y479303D01*
X382144Y478821D01*
X384200Y478659D01*
X386256Y478821D01*
X388261Y479303D01*
X390166Y480092D01*
X391924Y481169D01*
X393492Y482508D01*
X394831Y484076D01*
X395908Y485834D01*
X396697Y487739D01*
X397179Y489744D01*
X397340Y491800D01*
X397179Y493856D01*
X396697Y495861D01*
X395908Y497766D01*
X394831Y499524D01*
X393492Y501092D01*
X391924Y502431D01*
X390166Y503508D01*
X388261Y504297D01*
X387941Y504374D01*
X388012Y504974D01*
X408674D01*
Y475800D01*
D02*
G37*
G36*
X202674D02*
X198700D01*
Y471800D01*
Y467800D01*
X202674D01*
Y465528D01*
X202074Y465127D01*
X201640Y465307D01*
X200700Y465431D01*
X195700D01*
X194760Y465307D01*
X193885Y464945D01*
X193132Y464368D01*
X192555Y463616D01*
X192193Y462740D01*
X192069Y461800D01*
X192193Y460860D01*
X192555Y459984D01*
X193132Y459233D01*
X193885Y458655D01*
X194760Y458293D01*
X195700Y458169D01*
X200700D01*
X201640Y458293D01*
X202074Y458473D01*
X202674Y458072D01*
Y455528D01*
X202074Y455127D01*
X201640Y455307D01*
X200700Y455431D01*
X195700D01*
X194760Y455307D01*
X193885Y454945D01*
X193132Y454368D01*
X192555Y453616D01*
X192193Y452740D01*
X192069Y451800D01*
X192193Y450860D01*
X192555Y449985D01*
X193132Y449232D01*
X193885Y448655D01*
X194760Y448293D01*
X195700Y448169D01*
X200700D01*
X201640Y448293D01*
X202074Y448473D01*
X202674Y448072D01*
Y445852D01*
X202175Y445518D01*
X201744Y445697D01*
X200700Y445834D01*
X198700D01*
Y441800D01*
Y437766D01*
X200700D01*
X201744Y437903D01*
X202175Y438082D01*
X202674Y437748D01*
Y435528D01*
X202074Y435127D01*
X201640Y435307D01*
X200700Y435431D01*
X195700D01*
X194760Y435307D01*
X193885Y434945D01*
X193132Y434368D01*
X192555Y433615D01*
X192193Y432740D01*
X192069Y431800D01*
X192193Y430860D01*
X192555Y429985D01*
X193132Y429233D01*
X193885Y428655D01*
X194760Y428293D01*
X195700Y428169D01*
X200700D01*
X201640Y428293D01*
X202074Y428473D01*
X202674Y428072D01*
Y425528D01*
X202074Y425127D01*
X201640Y425307D01*
X200700Y425431D01*
X195700D01*
X194760Y425307D01*
X193885Y424945D01*
X193132Y424368D01*
X192555Y423616D01*
X192193Y422740D01*
X192069Y421800D01*
X192193Y420860D01*
X192555Y419984D01*
X193132Y419233D01*
X193885Y418655D01*
X194760Y418293D01*
X195700Y418169D01*
X200700D01*
X201640Y418293D01*
X202074Y418473D01*
X202674Y418072D01*
Y415852D01*
X202175Y415519D01*
X201744Y415697D01*
X200700Y415835D01*
X198700D01*
Y411800D01*
Y407765D01*
X200700D01*
X201744Y407903D01*
X202175Y408081D01*
X202674Y407748D01*
Y405528D01*
X202074Y405127D01*
X201640Y405307D01*
X200700Y405431D01*
X195700D01*
X194760Y405307D01*
X193885Y404945D01*
X193132Y404368D01*
X192555Y403616D01*
X192193Y402740D01*
X192069Y401800D01*
X192193Y400860D01*
X192555Y399985D01*
X193132Y399233D01*
X193885Y398655D01*
X194760Y398293D01*
X195700Y398169D01*
X200700D01*
X201640Y398293D01*
X202074Y398473D01*
X202674Y398072D01*
Y395852D01*
X202175Y395518D01*
X201744Y395697D01*
X200700Y395834D01*
X198700D01*
Y391800D01*
Y387766D01*
X200700D01*
X201744Y387903D01*
X202175Y388082D01*
X202674Y387748D01*
Y385852D01*
X202175Y385519D01*
X201744Y385697D01*
X200700Y385835D01*
X198700D01*
Y381800D01*
Y377765D01*
X200700D01*
X201744Y377903D01*
X202175Y378081D01*
X202674Y377748D01*
Y375528D01*
X202074Y375127D01*
X201640Y375307D01*
X200700Y375431D01*
X195700D01*
X194760Y375307D01*
X193885Y374945D01*
X193132Y374368D01*
X192555Y373616D01*
X192193Y372740D01*
X192069Y371800D01*
X192193Y370860D01*
X192555Y369985D01*
X193132Y369233D01*
X193885Y368655D01*
X194760Y368293D01*
X195700Y368169D01*
X200700D01*
X201640Y368293D01*
X202074Y368473D01*
X202674Y368072D01*
Y365528D01*
X202074Y365127D01*
X201640Y365307D01*
X200700Y365431D01*
X195700D01*
X194760Y365307D01*
X193885Y364945D01*
X193132Y364368D01*
X192555Y363615D01*
X192193Y362740D01*
X192069Y361800D01*
X192193Y360860D01*
X192555Y359984D01*
X193132Y359232D01*
X193885Y358655D01*
X194760Y358293D01*
X195700Y358169D01*
X200700D01*
X201640Y358293D01*
X202074Y358473D01*
X202674Y358072D01*
Y355528D01*
X202074Y355127D01*
X201640Y355307D01*
X200700Y355431D01*
X195700D01*
X194760Y355307D01*
X193885Y354945D01*
X193132Y354368D01*
X192555Y353615D01*
X192193Y352740D01*
X192069Y351800D01*
X192193Y350860D01*
X192555Y349985D01*
X193132Y349233D01*
X193885Y348655D01*
X194760Y348293D01*
X195700Y348169D01*
X200700D01*
X201640Y348293D01*
X202074Y348473D01*
X202674Y348072D01*
Y346934D01*
X202175Y346601D01*
X202005Y346671D01*
X200700Y346843D01*
X195700D01*
X194395Y346671D01*
X193178Y346167D01*
X192134Y345366D01*
X191332Y344322D01*
X190829Y343105D01*
X190657Y341800D01*
X190829Y340495D01*
X191332Y339278D01*
X192134Y338234D01*
X193178Y337433D01*
X194395Y336929D01*
X195700Y336757D01*
X200700D01*
X202005Y336929D01*
X202175Y336999D01*
X202674Y336666D01*
Y335528D01*
X202074Y335127D01*
X201640Y335307D01*
X200700Y335431D01*
X195700D01*
X194760Y335307D01*
X193885Y334945D01*
X193132Y334368D01*
X192555Y333615D01*
X192193Y332740D01*
X192069Y331800D01*
X192193Y330860D01*
X192555Y329984D01*
X193132Y329233D01*
X193885Y328655D01*
X194760Y328293D01*
X195700Y328169D01*
X200700D01*
X201640Y328293D01*
X202074Y328473D01*
X202674Y328072D01*
Y325852D01*
X202175Y325518D01*
X201744Y325697D01*
X200700Y325834D01*
X198700D01*
Y321800D01*
Y317765D01*
X200700D01*
X201744Y317903D01*
X202175Y318081D01*
X202674Y317748D01*
Y315852D01*
X202175Y315518D01*
X201744Y315697D01*
X200700Y315834D01*
X198700D01*
Y311800D01*
Y307766D01*
X200700D01*
X201744Y307903D01*
X202175Y308082D01*
X202674Y307748D01*
Y305528D01*
X202074Y305127D01*
X201640Y305307D01*
X200700Y305431D01*
X195700D01*
X194760Y305307D01*
X193885Y304945D01*
X193132Y304368D01*
X192555Y303615D01*
X192193Y302740D01*
X192069Y301800D01*
X192193Y300860D01*
X192555Y299985D01*
X193132Y299233D01*
X193885Y298655D01*
X194760Y298293D01*
X195700Y298169D01*
X200700D01*
X201640Y298293D01*
X202074Y298473D01*
X202674Y298072D01*
Y295528D01*
X202074Y295127D01*
X201640Y295307D01*
X200700Y295431D01*
X195700D01*
X194760Y295307D01*
X193885Y294945D01*
X193132Y294368D01*
X192555Y293616D01*
X192193Y292740D01*
X192069Y291800D01*
X192193Y290860D01*
X192555Y289984D01*
X193132Y289232D01*
X193885Y288655D01*
X194760Y288293D01*
X195700Y288169D01*
X200700D01*
X201640Y288293D01*
X202074Y288473D01*
X202674Y288072D01*
Y285528D01*
X202074Y285127D01*
X201640Y285307D01*
X200700Y285431D01*
X195700D01*
X194760Y285307D01*
X193885Y284945D01*
X193132Y284368D01*
X192555Y283615D01*
X192193Y282740D01*
X192069Y281800D01*
X192193Y280860D01*
X192555Y279984D01*
X193132Y279233D01*
X193885Y278655D01*
X194760Y278293D01*
X195700Y278169D01*
X200700D01*
X201640Y278293D01*
X202074Y278473D01*
X202674Y278072D01*
Y257026D01*
X201670D01*
X201403Y257626D01*
X201707Y258360D01*
X201831Y259300D01*
Y264300D01*
X201707Y265240D01*
X201345Y266115D01*
X200768Y266868D01*
X200015Y267445D01*
X199140Y267807D01*
X198200Y267931D01*
X197260Y267807D01*
X196385Y267445D01*
X195632Y266868D01*
X195055Y266115D01*
X194693Y265240D01*
X194569Y264300D01*
Y259300D01*
X194693Y258360D01*
X194997Y257626D01*
X194730Y257026D01*
X191670D01*
X191403Y257626D01*
X191707Y258360D01*
X191831Y259300D01*
Y264300D01*
X191707Y265240D01*
X191345Y266115D01*
X190768Y266868D01*
X190015Y267445D01*
X189140Y267807D01*
X188200Y267931D01*
X187260Y267807D01*
X186384Y267445D01*
X185632Y266868D01*
X185055Y266115D01*
X184693Y265240D01*
X184569Y264300D01*
Y259300D01*
X184693Y258360D01*
X184997Y257626D01*
X184730Y257026D01*
X181670D01*
X181403Y257626D01*
X181707Y258360D01*
X181831Y259300D01*
Y264300D01*
X181707Y265240D01*
X181345Y266115D01*
X180768Y266868D01*
X180016Y267445D01*
X179140Y267807D01*
X178200Y267931D01*
X177260Y267807D01*
X176384Y267445D01*
X175632Y266868D01*
X175055Y266115D01*
X174693Y265240D01*
X174569Y264300D01*
Y259300D01*
X174693Y258360D01*
X174997Y257626D01*
X174730Y257026D01*
X171670D01*
X171403Y257626D01*
X171707Y258360D01*
X171831Y259300D01*
Y264300D01*
X171707Y265240D01*
X171345Y266115D01*
X170768Y266868D01*
X170016Y267445D01*
X169140Y267807D01*
X168200Y267931D01*
X167260Y267807D01*
X166384Y267445D01*
X165632Y266868D01*
X165055Y266115D01*
X164693Y265240D01*
X164569Y264300D01*
Y259300D01*
X164693Y258360D01*
X164997Y257626D01*
X164730Y257026D01*
X161670D01*
X161403Y257626D01*
X161707Y258360D01*
X161831Y259300D01*
Y264300D01*
X161707Y265240D01*
X161345Y266115D01*
X160768Y266868D01*
X160015Y267445D01*
X159140Y267807D01*
X158200Y267931D01*
X157260Y267807D01*
X156385Y267445D01*
X155632Y266868D01*
X155055Y266115D01*
X154693Y265240D01*
X154569Y264300D01*
Y259300D01*
X154693Y258360D01*
X154997Y257626D01*
X154730Y257026D01*
X151670D01*
X151403Y257626D01*
X151707Y258360D01*
X151831Y259300D01*
Y264300D01*
X151707Y265240D01*
X151345Y266115D01*
X150768Y266868D01*
X150015Y267445D01*
X149140Y267807D01*
X148200Y267931D01*
X147260Y267807D01*
X146385Y267445D01*
X145632Y266868D01*
X145055Y266115D01*
X144693Y265240D01*
X144569Y264300D01*
Y259300D01*
X144693Y258360D01*
X144997Y257626D01*
X144730Y257026D01*
X141670D01*
X141403Y257626D01*
X141707Y258360D01*
X141831Y259300D01*
Y264300D01*
X141707Y265240D01*
X141345Y266115D01*
X140768Y266868D01*
X140015Y267445D01*
X139140Y267807D01*
X138200Y267931D01*
X137260Y267807D01*
X136384Y267445D01*
X135632Y266868D01*
X135055Y266115D01*
X134693Y265240D01*
X134569Y264300D01*
Y259300D01*
X134693Y258360D01*
X134997Y257626D01*
X134730Y257026D01*
X131670D01*
X131403Y257626D01*
X131707Y258360D01*
X131831Y259300D01*
Y264300D01*
X131707Y265240D01*
X131345Y266115D01*
X130768Y266868D01*
X130016Y267445D01*
X129140Y267807D01*
X128200Y267931D01*
X127260Y267807D01*
X126384Y267445D01*
X125632Y266868D01*
X125055Y266115D01*
X124693Y265240D01*
X124569Y264300D01*
Y259300D01*
X124693Y258360D01*
X124997Y257626D01*
X124730Y257026D01*
X121670D01*
X121403Y257626D01*
X121707Y258360D01*
X121831Y259300D01*
Y264300D01*
X121707Y265240D01*
X121345Y266115D01*
X120768Y266868D01*
X120016Y267445D01*
X119140Y267807D01*
X118200Y267931D01*
X117260Y267807D01*
X116384Y267445D01*
X115632Y266868D01*
X115055Y266115D01*
X114693Y265240D01*
X114569Y264300D01*
Y259300D01*
X114693Y258360D01*
X114997Y257626D01*
X114730Y257026D01*
X111670D01*
X111403Y257626D01*
X111707Y258360D01*
X111831Y259300D01*
Y264300D01*
X111707Y265240D01*
X111345Y266115D01*
X110768Y266868D01*
X110015Y267445D01*
X109140Y267807D01*
X108200Y267931D01*
X107260Y267807D01*
X106385Y267445D01*
X105632Y266868D01*
X105055Y266115D01*
X104693Y265240D01*
X104569Y264300D01*
Y259300D01*
X104693Y258360D01*
X104997Y257626D01*
X104730Y257026D01*
X102221D01*
X101836Y257626D01*
X102097Y258256D01*
X102234Y259300D01*
Y261300D01*
X98200D01*
X94165D01*
Y259300D01*
X94303Y258256D01*
X94564Y257626D01*
X94179Y257026D01*
X92221D01*
X91836Y257626D01*
X92097Y258256D01*
X92234Y259300D01*
Y261300D01*
X88200D01*
X84166D01*
Y259300D01*
X84303Y258256D01*
X84564Y257626D01*
X84179Y257026D01*
X81670D01*
X81403Y257626D01*
X81707Y258360D01*
X81831Y259300D01*
Y264300D01*
X81707Y265240D01*
X81345Y266115D01*
X80768Y266868D01*
X80015Y267445D01*
X79140Y267807D01*
X78200Y267931D01*
X77260Y267807D01*
X76385Y267445D01*
X75632Y266868D01*
X75055Y266115D01*
X74693Y265240D01*
X74569Y264300D01*
Y259300D01*
X74693Y258360D01*
X74997Y257626D01*
X74730Y257026D01*
X73210D01*
X72877Y257525D01*
X73071Y257995D01*
X73243Y259300D01*
Y264300D01*
X73071Y265605D01*
X72567Y266822D01*
X71766Y267866D01*
X71713Y267907D01*
X71666Y268687D01*
X74453Y271474D01*
X123100D01*
X123883Y271577D01*
X124613Y271880D01*
X125240Y272360D01*
X168830Y315951D01*
X169166Y315995D01*
X170066Y316368D01*
X170839Y316961D01*
X171432Y317734D01*
X171805Y318634D01*
X171932Y319600D01*
X171805Y320566D01*
X171432Y321466D01*
X170839Y322239D01*
X170066Y322832D01*
X169166Y323205D01*
X168200Y323332D01*
X167234Y323205D01*
X166334Y322832D01*
X165561Y322239D01*
X164968Y321466D01*
X164595Y320566D01*
X164551Y320230D01*
X121847Y277526D01*
X74453D01*
X68040Y283940D01*
X67413Y284420D01*
X66683Y284723D01*
X65900Y284826D01*
X14681D01*
X14266Y285366D01*
X13222Y286168D01*
X12005Y286671D01*
X10700Y286843D01*
X5700D01*
X4395Y286671D01*
X3725Y286394D01*
X3226Y286727D01*
Y288482D01*
X3764Y288748D01*
X3884Y288655D01*
X4760Y288293D01*
X5700Y288169D01*
X10700D01*
X11640Y288293D01*
X12516Y288655D01*
X13268Y289232D01*
X13845Y289984D01*
X14207Y290860D01*
X14331Y291800D01*
X14207Y292740D01*
X13845Y293616D01*
X13268Y294368D01*
X12516Y294945D01*
X11640Y295307D01*
X10700Y295431D01*
X5700D01*
X4760Y295307D01*
X3884Y294945D01*
X3764Y294852D01*
X3226Y295117D01*
Y298482D01*
X3764Y298748D01*
X3884Y298655D01*
X4760Y298293D01*
X5700Y298169D01*
X10700D01*
X11640Y298293D01*
X12516Y298655D01*
X13268Y299233D01*
X13845Y299985D01*
X14207Y300860D01*
X14331Y301800D01*
X14207Y302740D01*
X13845Y303615D01*
X13268Y304368D01*
X12516Y304945D01*
X11640Y305307D01*
X10700Y305431D01*
X5700D01*
X4760Y305307D01*
X3884Y304945D01*
X3764Y304852D01*
X3226Y305118D01*
Y308483D01*
X3764Y308748D01*
X3884Y308655D01*
X4760Y308293D01*
X5700Y308169D01*
X10700D01*
X11640Y308293D01*
X12516Y308655D01*
X13268Y309232D01*
X13845Y309984D01*
X14207Y310860D01*
X14331Y311800D01*
X14207Y312740D01*
X13845Y313615D01*
X13268Y314368D01*
X12516Y314945D01*
X11640Y315307D01*
X10700Y315431D01*
X5700D01*
X4760Y315307D01*
X3884Y314945D01*
X3764Y314852D01*
X3226Y315118D01*
Y317979D01*
X3826Y318247D01*
X4656Y317903D01*
X5700Y317765D01*
X7700D01*
Y321800D01*
Y325834D01*
X5700D01*
X4656Y325697D01*
X3826Y325353D01*
X3226Y325621D01*
Y327979D01*
X3826Y328247D01*
X4656Y327903D01*
X5700Y327765D01*
X7700D01*
Y331800D01*
Y335835D01*
X5700D01*
X4656Y335697D01*
X3826Y335353D01*
X3226Y335621D01*
Y338482D01*
X3764Y338748D01*
X3884Y338655D01*
X4760Y338293D01*
X5700Y338169D01*
X10700D01*
X11640Y338293D01*
X12516Y338655D01*
X13268Y339232D01*
X13845Y339984D01*
X14207Y340860D01*
X14331Y341800D01*
X14207Y342740D01*
X13845Y343616D01*
X13268Y344368D01*
X12516Y344945D01*
X11640Y345307D01*
X10700Y345431D01*
X5700D01*
X4760Y345307D01*
X3884Y344945D01*
X3764Y344852D01*
X3226Y345117D01*
Y348482D01*
X3764Y348748D01*
X3884Y348655D01*
X4760Y348293D01*
X5700Y348169D01*
X10700D01*
X11640Y348293D01*
X12516Y348655D01*
X13268Y349233D01*
X13845Y349985D01*
X14207Y350860D01*
X14331Y351800D01*
X14207Y352740D01*
X13845Y353615D01*
X13268Y354368D01*
X12516Y354945D01*
X11640Y355307D01*
X10700Y355431D01*
X5700D01*
X4760Y355307D01*
X3884Y354945D01*
X3764Y354852D01*
X3226Y355118D01*
Y358483D01*
X3764Y358748D01*
X3884Y358655D01*
X4760Y358293D01*
X5700Y358169D01*
X10700D01*
X11640Y358293D01*
X12516Y358655D01*
X13268Y359232D01*
X13845Y359984D01*
X14207Y360860D01*
X14331Y361800D01*
X14207Y362740D01*
X13845Y363615D01*
X13268Y364368D01*
X12516Y364945D01*
X11640Y365307D01*
X10700Y365431D01*
X5700D01*
X4760Y365307D01*
X3884Y364945D01*
X3764Y364852D01*
X3226Y365118D01*
Y368482D01*
X3764Y368748D01*
X3884Y368655D01*
X4760Y368293D01*
X5700Y368169D01*
X10700D01*
X11640Y368293D01*
X12516Y368655D01*
X13268Y369233D01*
X13845Y369985D01*
X14207Y370860D01*
X14331Y371800D01*
X14207Y372740D01*
X13845Y373616D01*
X13268Y374368D01*
X12516Y374945D01*
X11640Y375307D01*
X10700Y375431D01*
X5700D01*
X4760Y375307D01*
X3884Y374945D01*
X3764Y374852D01*
X3226Y375117D01*
Y378483D01*
X3764Y378748D01*
X3884Y378655D01*
X4760Y378293D01*
X5700Y378169D01*
X10700D01*
X11640Y378293D01*
X12516Y378655D01*
X13268Y379233D01*
X13845Y379984D01*
X14207Y380860D01*
X14331Y381800D01*
X14207Y382740D01*
X13845Y383615D01*
X13268Y384368D01*
X12516Y384945D01*
X11640Y385307D01*
X10700Y385431D01*
X5700D01*
X4760Y385307D01*
X3884Y384945D01*
X3764Y384852D01*
X3226Y385118D01*
Y388482D01*
X3764Y388748D01*
X3884Y388655D01*
X4760Y388293D01*
X5700Y388169D01*
X10700D01*
X11640Y388293D01*
X12516Y388655D01*
X13268Y389232D01*
X13845Y389984D01*
X14207Y390860D01*
X14331Y391800D01*
X14207Y392740D01*
X13845Y393616D01*
X13268Y394368D01*
X12516Y394945D01*
X11640Y395307D01*
X10700Y395431D01*
X5700D01*
X4760Y395307D01*
X3884Y394945D01*
X3764Y394852D01*
X3226Y395117D01*
Y398482D01*
X3764Y398748D01*
X3884Y398655D01*
X4760Y398293D01*
X5700Y398169D01*
X10700D01*
X11640Y398293D01*
X12516Y398655D01*
X13268Y399233D01*
X13845Y399985D01*
X14207Y400860D01*
X14331Y401800D01*
X14207Y402740D01*
X13845Y403616D01*
X13268Y404368D01*
X12516Y404945D01*
X11640Y405307D01*
X10700Y405431D01*
X5700D01*
X4760Y405307D01*
X3884Y404945D01*
X3764Y404852D01*
X3226Y405118D01*
Y408483D01*
X3764Y408748D01*
X3884Y408655D01*
X4760Y408293D01*
X5700Y408169D01*
X10700D01*
X11640Y408293D01*
X12516Y408655D01*
X13268Y409233D01*
X13845Y409984D01*
X14207Y410860D01*
X14331Y411800D01*
X14207Y412740D01*
X13845Y413616D01*
X13268Y414368D01*
X12516Y414945D01*
X11640Y415307D01*
X10700Y415431D01*
X5700D01*
X4760Y415307D01*
X3884Y414945D01*
X3764Y414852D01*
X3226Y415118D01*
Y417979D01*
X3826Y418247D01*
X4656Y417903D01*
X5700Y417766D01*
X7700D01*
Y421800D01*
Y425835D01*
X5700D01*
X4656Y425697D01*
X3826Y425353D01*
X3226Y425621D01*
Y428482D01*
X3764Y428748D01*
X3884Y428655D01*
X4760Y428293D01*
X5700Y428169D01*
X10700D01*
X11640Y428293D01*
X12516Y428655D01*
X13268Y429233D01*
X13845Y429985D01*
X14207Y430860D01*
X14331Y431800D01*
X14207Y432740D01*
X13845Y433615D01*
X13268Y434368D01*
X12516Y434945D01*
X11640Y435307D01*
X10700Y435431D01*
X5700D01*
X4760Y435307D01*
X3884Y434945D01*
X3764Y434852D01*
X3226Y435117D01*
Y437979D01*
X3826Y438247D01*
X4656Y437903D01*
X5700Y437766D01*
X7700D01*
Y441800D01*
Y445834D01*
X5700D01*
X4656Y445697D01*
X3826Y445353D01*
X3226Y445621D01*
Y448483D01*
X3764Y448748D01*
X3884Y448655D01*
X4760Y448293D01*
X5700Y448169D01*
X10700D01*
X11640Y448293D01*
X12516Y448655D01*
X13268Y449232D01*
X13845Y449985D01*
X14207Y450860D01*
X14331Y451800D01*
X14207Y452740D01*
X13845Y453616D01*
X13268Y454368D01*
X12516Y454945D01*
X11640Y455307D01*
X10700Y455431D01*
X5700D01*
X4760Y455307D01*
X3884Y454945D01*
X3764Y454852D01*
X3226Y455118D01*
Y457979D01*
X3826Y458247D01*
X4656Y457903D01*
X5700Y457765D01*
X7700D01*
Y461800D01*
Y465835D01*
X5700D01*
X4656Y465697D01*
X3826Y465353D01*
X3226Y465621D01*
Y468200D01*
X14300D01*
Y475400D01*
X3226D01*
Y504974D01*
X24388D01*
X24459Y504374D01*
X24139Y504297D01*
X22234Y503508D01*
X20476Y502431D01*
X18908Y501092D01*
X17569Y499524D01*
X16492Y497766D01*
X15703Y495861D01*
X15221Y493856D01*
X15059Y491800D01*
X15221Y489744D01*
X15703Y487739D01*
X16492Y485834D01*
X17569Y484076D01*
X18908Y482508D01*
X20476Y481169D01*
X22234Y480092D01*
X24139Y479303D01*
X26144Y478821D01*
X28200Y478659D01*
X30256Y478821D01*
X32261Y479303D01*
X34166Y480092D01*
X35924Y481169D01*
X37492Y482508D01*
X38831Y484076D01*
X39908Y485834D01*
X40697Y487739D01*
X41179Y489744D01*
X41341Y491800D01*
X41179Y493856D01*
X40697Y495861D01*
X39908Y497766D01*
X38831Y499524D01*
X37492Y501092D01*
X35924Y502431D01*
X34166Y503508D01*
X32261Y504297D01*
X31941Y504374D01*
X32012Y504974D01*
X174388D01*
X174459Y504374D01*
X174139Y504297D01*
X172234Y503508D01*
X170476Y502431D01*
X168908Y501092D01*
X167569Y499524D01*
X166492Y497766D01*
X165703Y495861D01*
X165221Y493856D01*
X165059Y491800D01*
X165221Y489744D01*
X165703Y487739D01*
X166492Y485834D01*
X167569Y484076D01*
X168908Y482508D01*
X170476Y481169D01*
X172234Y480092D01*
X174139Y479303D01*
X176144Y478821D01*
X178200Y478659D01*
X180256Y478821D01*
X182261Y479303D01*
X184166Y480092D01*
X185924Y481169D01*
X187492Y482508D01*
X188831Y484076D01*
X189908Y485834D01*
X190697Y487739D01*
X191179Y489744D01*
X191340Y491800D01*
X191179Y493856D01*
X190697Y495861D01*
X189908Y497766D01*
X188831Y499524D01*
X187492Y501092D01*
X185924Y502431D01*
X184166Y503508D01*
X182261Y504297D01*
X181941Y504374D01*
X182012Y504974D01*
X202674D01*
Y475800D01*
D02*
G37*
G36*
X274921Y274500D02*
X272160Y271740D01*
X271679Y271113D01*
X271377Y270383D01*
X271274Y269600D01*
Y268357D01*
X270634Y267866D01*
X269832Y266822D01*
X269329Y265605D01*
X269157Y264300D01*
Y259300D01*
X269329Y257995D01*
X269523Y257525D01*
X269190Y257026D01*
X267670D01*
X267403Y257626D01*
X267707Y258360D01*
X267831Y259300D01*
Y264300D01*
X267707Y265240D01*
X267345Y266115D01*
X266768Y266868D01*
X266016Y267445D01*
X265140Y267807D01*
X264200Y267931D01*
X263260Y267807D01*
X262385Y267445D01*
X261632Y266868D01*
X261055Y266115D01*
X260693Y265240D01*
X260569Y264300D01*
Y259300D01*
X260693Y258360D01*
X260997Y257626D01*
X260730Y257026D01*
X257670D01*
X257403Y257626D01*
X257707Y258360D01*
X257831Y259300D01*
Y264300D01*
X257707Y265240D01*
X257345Y266115D01*
X256768Y266868D01*
X256015Y267445D01*
X255140Y267807D01*
X254200Y267931D01*
X253260Y267807D01*
X252384Y267445D01*
X251632Y266868D01*
X251055Y266115D01*
X250693Y265240D01*
X250569Y264300D01*
Y259300D01*
X250693Y258360D01*
X250997Y257626D01*
X250730Y257026D01*
X247670D01*
X247403Y257626D01*
X247707Y258360D01*
X247831Y259300D01*
Y264300D01*
X247707Y265240D01*
X247345Y266115D01*
X246767Y266868D01*
X246016Y267445D01*
X245140Y267807D01*
X244200Y267931D01*
X243260Y267807D01*
X242385Y267445D01*
X241633Y266868D01*
X241055Y266115D01*
X240693Y265240D01*
X240569Y264300D01*
Y259300D01*
X240693Y258360D01*
X240997Y257626D01*
X240730Y257026D01*
X237670D01*
X237403Y257626D01*
X237707Y258360D01*
X237831Y259300D01*
Y264300D01*
X237707Y265240D01*
X237345Y266115D01*
X236768Y266868D01*
X236016Y267445D01*
X235140Y267807D01*
X234200Y267931D01*
X233260Y267807D01*
X232384Y267445D01*
X231632Y266868D01*
X231055Y266115D01*
X230693Y265240D01*
X230569Y264300D01*
Y259300D01*
X230693Y258360D01*
X230997Y257626D01*
X230730Y257026D01*
X227670D01*
X227403Y257626D01*
X227707Y258360D01*
X227831Y259300D01*
Y264300D01*
X227707Y265240D01*
X227345Y266115D01*
X226767Y266868D01*
X226015Y267445D01*
X225140Y267807D01*
X224200Y267931D01*
X223260Y267807D01*
X222385Y267445D01*
X221633Y266868D01*
X221055Y266115D01*
X220693Y265240D01*
X220569Y264300D01*
Y259300D01*
X220693Y258360D01*
X220997Y257626D01*
X220730Y257026D01*
X218200D01*
Y261300D01*
X214200D01*
X210200D01*
Y257026D01*
X209226D01*
Y276873D01*
X209725Y277206D01*
X210395Y276929D01*
X211700Y276757D01*
X216700D01*
X218005Y276929D01*
X219222Y277432D01*
X220266Y278234D01*
X220680Y278774D01*
X270647D01*
X274921Y274500D01*
D02*
G37*
G36*
X68921D02*
X66160Y271740D01*
X65680Y271113D01*
X65377Y270383D01*
X65274Y269600D01*
Y268357D01*
X64634Y267866D01*
X63832Y266822D01*
X63329Y265605D01*
X63157Y264300D01*
Y259300D01*
X63329Y257995D01*
X63523Y257525D01*
X63190Y257026D01*
X61670D01*
X61403Y257626D01*
X61707Y258360D01*
X61831Y259300D01*
Y264300D01*
X61707Y265240D01*
X61345Y266115D01*
X60768Y266868D01*
X60015Y267445D01*
X59140Y267807D01*
X58200Y267931D01*
X57260Y267807D01*
X56384Y267445D01*
X55632Y266868D01*
X55055Y266115D01*
X54693Y265240D01*
X54569Y264300D01*
Y259300D01*
X54693Y258360D01*
X54997Y257626D01*
X54730Y257026D01*
X51670D01*
X51403Y257626D01*
X51707Y258360D01*
X51831Y259300D01*
Y264300D01*
X51707Y265240D01*
X51345Y266115D01*
X50767Y266868D01*
X50015Y267445D01*
X49140Y267807D01*
X48200Y267931D01*
X47260Y267807D01*
X46385Y267445D01*
X45632Y266868D01*
X45055Y266115D01*
X44693Y265240D01*
X44569Y264300D01*
Y259300D01*
X44693Y258360D01*
X44997Y257626D01*
X44730Y257026D01*
X41670D01*
X41403Y257626D01*
X41707Y258360D01*
X41831Y259300D01*
Y264300D01*
X41707Y265240D01*
X41345Y266115D01*
X40767Y266868D01*
X40016Y267445D01*
X39140Y267807D01*
X38200Y267931D01*
X37260Y267807D01*
X36384Y267445D01*
X35633Y266868D01*
X35055Y266115D01*
X34693Y265240D01*
X34569Y264300D01*
Y259300D01*
X34693Y258360D01*
X34997Y257626D01*
X34730Y257026D01*
X31670D01*
X31403Y257626D01*
X31707Y258360D01*
X31831Y259300D01*
Y264300D01*
X31707Y265240D01*
X31345Y266115D01*
X30768Y266868D01*
X30016Y267445D01*
X29140Y267807D01*
X28200Y267931D01*
X27260Y267807D01*
X26384Y267445D01*
X25633Y266868D01*
X25055Y266115D01*
X24693Y265240D01*
X24569Y264300D01*
Y259300D01*
X24693Y258360D01*
X24997Y257626D01*
X24730Y257026D01*
X21670D01*
X21403Y257626D01*
X21707Y258360D01*
X21831Y259300D01*
Y264300D01*
X21707Y265240D01*
X21345Y266115D01*
X20767Y266868D01*
X20016Y267445D01*
X19140Y267807D01*
X18200Y267931D01*
X17260Y267807D01*
X16385Y267445D01*
X15632Y266868D01*
X15055Y266115D01*
X14693Y265240D01*
X14569Y264300D01*
Y259300D01*
X14693Y258360D01*
X14997Y257626D01*
X14730Y257026D01*
X12200D01*
Y261300D01*
X8200D01*
X4200D01*
Y257026D01*
X3226D01*
Y276873D01*
X3725Y277206D01*
X4395Y276929D01*
X5700Y276757D01*
X10700D01*
X12005Y276929D01*
X13222Y277432D01*
X14266Y278234D01*
X14681Y278774D01*
X64647D01*
X68921Y274500D01*
D02*
G37*
G36*
X408674Y221800D02*
X404700D01*
Y217800D01*
Y213800D01*
X408674D01*
Y211528D01*
X408074Y211127D01*
X407640Y211307D01*
X406700Y211431D01*
X401700D01*
X400760Y211307D01*
X399885Y210945D01*
X399132Y210368D01*
X398555Y209615D01*
X398193Y208740D01*
X398069Y207800D01*
X398193Y206860D01*
X398555Y205984D01*
X399132Y205233D01*
X399885Y204655D01*
X400760Y204293D01*
X401700Y204169D01*
X406700D01*
X407640Y204293D01*
X408074Y204473D01*
X408674Y204072D01*
Y201528D01*
X408074Y201127D01*
X407640Y201307D01*
X406700Y201431D01*
X401700D01*
X400760Y201307D01*
X399885Y200945D01*
X399132Y200368D01*
X398555Y199616D01*
X398193Y198740D01*
X398069Y197800D01*
X398193Y196860D01*
X398555Y195984D01*
X399132Y195232D01*
X399885Y194655D01*
X400760Y194293D01*
X401700Y194169D01*
X406700D01*
X407640Y194293D01*
X408074Y194473D01*
X408674Y194072D01*
Y191852D01*
X408175Y191518D01*
X407744Y191697D01*
X406700Y191834D01*
X404700D01*
Y187800D01*
Y183765D01*
X406700D01*
X407744Y183903D01*
X408175Y184081D01*
X408674Y183748D01*
Y181528D01*
X408074Y181127D01*
X407640Y181307D01*
X406700Y181431D01*
X401700D01*
X400760Y181307D01*
X399885Y180945D01*
X399132Y180368D01*
X398555Y179615D01*
X398193Y178740D01*
X398069Y177800D01*
X398193Y176860D01*
X398555Y175985D01*
X399132Y175233D01*
X399885Y174655D01*
X400760Y174293D01*
X401700Y174169D01*
X406700D01*
X407640Y174293D01*
X408074Y174473D01*
X408674Y174072D01*
Y171528D01*
X408074Y171127D01*
X407640Y171307D01*
X406700Y171431D01*
X401700D01*
X400760Y171307D01*
X399885Y170945D01*
X399132Y170368D01*
X398555Y169615D01*
X398193Y168740D01*
X398069Y167800D01*
X398193Y166860D01*
X398555Y165984D01*
X399132Y165233D01*
X399885Y164655D01*
X400760Y164293D01*
X401700Y164169D01*
X406700D01*
X407640Y164293D01*
X408074Y164473D01*
X408674Y164072D01*
Y161852D01*
X408175Y161519D01*
X407744Y161697D01*
X406700Y161835D01*
X404700D01*
Y157800D01*
Y153765D01*
X406700D01*
X407744Y153903D01*
X408175Y154081D01*
X408674Y153748D01*
Y151528D01*
X408074Y151127D01*
X407640Y151307D01*
X406700Y151431D01*
X401700D01*
X400760Y151307D01*
X399885Y150945D01*
X399132Y150368D01*
X398555Y149616D01*
X398193Y148740D01*
X398069Y147800D01*
X398193Y146860D01*
X398555Y145984D01*
X399132Y145232D01*
X399885Y144655D01*
X400760Y144293D01*
X401700Y144169D01*
X406700D01*
X407640Y144293D01*
X408074Y144473D01*
X408674Y144072D01*
Y141852D01*
X408175Y141518D01*
X407744Y141697D01*
X406700Y141834D01*
X404700D01*
Y137800D01*
Y133765D01*
X406700D01*
X407744Y133903D01*
X408175Y134081D01*
X408674Y133748D01*
Y131852D01*
X408175Y131518D01*
X407744Y131697D01*
X406700Y131834D01*
X404700D01*
Y127800D01*
Y123766D01*
X406700D01*
X407744Y123903D01*
X408175Y124082D01*
X408674Y123748D01*
Y121528D01*
X408074Y121127D01*
X407640Y121307D01*
X406700Y121431D01*
X401700D01*
X400760Y121307D01*
X399885Y120945D01*
X399132Y120368D01*
X398555Y119615D01*
X398193Y118740D01*
X398069Y117800D01*
X398193Y116860D01*
X398555Y115984D01*
X399132Y115233D01*
X399885Y114655D01*
X400760Y114293D01*
X401700Y114169D01*
X406700D01*
X407640Y114293D01*
X408074Y114473D01*
X408674Y114072D01*
Y111528D01*
X408074Y111127D01*
X407640Y111307D01*
X406700Y111431D01*
X401700D01*
X400760Y111307D01*
X399885Y110945D01*
X399132Y110368D01*
X398555Y109616D01*
X398193Y108740D01*
X398069Y107800D01*
X398193Y106860D01*
X398555Y105984D01*
X399132Y105233D01*
X399885Y104655D01*
X400760Y104293D01*
X401700Y104169D01*
X406700D01*
X407640Y104293D01*
X408074Y104473D01*
X408674Y104072D01*
Y101528D01*
X408074Y101127D01*
X407640Y101307D01*
X406700Y101431D01*
X401700D01*
X400760Y101307D01*
X399885Y100945D01*
X399132Y100368D01*
X398555Y99616D01*
X398193Y98740D01*
X398069Y97800D01*
X398193Y96860D01*
X398555Y95985D01*
X399132Y95232D01*
X399885Y94655D01*
X400760Y94293D01*
X401700Y94169D01*
X406700D01*
X407640Y94293D01*
X408074Y94473D01*
X408674Y94072D01*
Y92934D01*
X408175Y92601D01*
X408005Y92671D01*
X406700Y92843D01*
X401700D01*
X400395Y92671D01*
X399178Y92168D01*
X398134Y91366D01*
X397333Y90322D01*
X396829Y89105D01*
X396657Y87800D01*
X396829Y86495D01*
X397333Y85278D01*
X398134Y84234D01*
X399178Y83433D01*
X400395Y82929D01*
X401700Y82757D01*
X406700D01*
X408005Y82929D01*
X408175Y82999D01*
X408674Y82666D01*
Y81528D01*
X408074Y81127D01*
X407640Y81307D01*
X406700Y81431D01*
X401700D01*
X400760Y81307D01*
X399885Y80945D01*
X399132Y80368D01*
X398555Y79615D01*
X398193Y78740D01*
X398069Y77800D01*
X398193Y76860D01*
X398555Y75985D01*
X399132Y75232D01*
X399885Y74655D01*
X400760Y74293D01*
X401700Y74169D01*
X406700D01*
X407640Y74293D01*
X408074Y74473D01*
X408674Y74072D01*
Y71852D01*
X408175Y71518D01*
X407744Y71697D01*
X406700Y71834D01*
X404700D01*
Y67800D01*
Y63766D01*
X406700D01*
X407744Y63903D01*
X408175Y64082D01*
X408674Y63748D01*
Y61852D01*
X408175Y61519D01*
X407744Y61697D01*
X406700Y61835D01*
X404700D01*
Y57800D01*
Y53765D01*
X406700D01*
X407744Y53903D01*
X408175Y54081D01*
X408674Y53748D01*
Y51528D01*
X408074Y51127D01*
X407640Y51307D01*
X406700Y51431D01*
X401700D01*
X400760Y51307D01*
X399885Y50945D01*
X399132Y50368D01*
X398555Y49615D01*
X398193Y48740D01*
X398069Y47800D01*
X398193Y46860D01*
X398555Y45985D01*
X399132Y45232D01*
X399885Y44655D01*
X400760Y44293D01*
X401700Y44169D01*
X406700D01*
X407640Y44293D01*
X408074Y44473D01*
X408674Y44072D01*
Y41528D01*
X408074Y41127D01*
X407640Y41307D01*
X406700Y41431D01*
X401700D01*
X400760Y41307D01*
X399885Y40945D01*
X399132Y40368D01*
X398555Y39615D01*
X398193Y38740D01*
X398069Y37800D01*
X398193Y36860D01*
X398555Y35985D01*
X399132Y35232D01*
X399885Y34655D01*
X400760Y34293D01*
X401700Y34169D01*
X406700D01*
X407640Y34293D01*
X408074Y34473D01*
X408674Y34072D01*
Y31528D01*
X408074Y31127D01*
X407640Y31307D01*
X406700Y31431D01*
X401700D01*
X400760Y31307D01*
X399885Y30945D01*
X399132Y30368D01*
X398555Y29616D01*
X398193Y28740D01*
X398069Y27800D01*
X398193Y26860D01*
X398555Y25984D01*
X399132Y25232D01*
X399885Y24655D01*
X400760Y24293D01*
X401700Y24169D01*
X406700D01*
X407640Y24293D01*
X408074Y24473D01*
X408674Y24072D01*
Y3026D01*
X407670D01*
X407403Y3626D01*
X407707Y4360D01*
X407831Y5300D01*
Y10300D01*
X407707Y11240D01*
X407345Y12116D01*
X406768Y12868D01*
X406015Y13445D01*
X405140Y13807D01*
X404200Y13931D01*
X403260Y13807D01*
X402385Y13445D01*
X401632Y12868D01*
X401055Y12116D01*
X400693Y11240D01*
X400569Y10300D01*
Y5300D01*
X400693Y4360D01*
X400997Y3626D01*
X400730Y3026D01*
X397670D01*
X397403Y3626D01*
X397707Y4360D01*
X397831Y5300D01*
Y10300D01*
X397707Y11240D01*
X397345Y12116D01*
X396767Y12868D01*
X396016Y13445D01*
X395140Y13807D01*
X394200Y13931D01*
X393260Y13807D01*
X392385Y13445D01*
X391633Y12868D01*
X391055Y12116D01*
X390693Y11240D01*
X390569Y10300D01*
Y5300D01*
X390693Y4360D01*
X390997Y3626D01*
X390730Y3026D01*
X387670D01*
X387403Y3626D01*
X387707Y4360D01*
X387831Y5300D01*
Y10300D01*
X387707Y11240D01*
X387345Y12116D01*
X386768Y12868D01*
X386016Y13445D01*
X385140Y13807D01*
X384200Y13931D01*
X383260Y13807D01*
X382384Y13445D01*
X381632Y12868D01*
X381055Y12116D01*
X380693Y11240D01*
X380569Y10300D01*
Y5300D01*
X380693Y4360D01*
X380997Y3626D01*
X380730Y3026D01*
X377670D01*
X377403Y3626D01*
X377707Y4360D01*
X377831Y5300D01*
Y10300D01*
X377707Y11240D01*
X377345Y12116D01*
X376767Y12868D01*
X376015Y13445D01*
X375140Y13807D01*
X374200Y13931D01*
X373260Y13807D01*
X372385Y13445D01*
X371633Y12868D01*
X371055Y12116D01*
X370693Y11240D01*
X370569Y10300D01*
Y5300D01*
X370693Y4360D01*
X370997Y3626D01*
X370730Y3026D01*
X367670D01*
X367403Y3626D01*
X367707Y4360D01*
X367831Y5300D01*
Y10300D01*
X367707Y11240D01*
X367345Y12116D01*
X366768Y12868D01*
X366016Y13445D01*
X365140Y13807D01*
X364200Y13931D01*
X363260Y13807D01*
X362385Y13445D01*
X361632Y12868D01*
X361055Y12116D01*
X360693Y11240D01*
X360569Y10300D01*
Y5300D01*
X360693Y4360D01*
X360997Y3626D01*
X360730Y3026D01*
X357670D01*
X357403Y3626D01*
X357707Y4360D01*
X357831Y5300D01*
Y10300D01*
X357707Y11240D01*
X357345Y12116D01*
X356768Y12868D01*
X356015Y13445D01*
X355140Y13807D01*
X354200Y13931D01*
X353260Y13807D01*
X352384Y13445D01*
X351632Y12868D01*
X351055Y12116D01*
X350693Y11240D01*
X350569Y10300D01*
Y5300D01*
X350693Y4360D01*
X350997Y3626D01*
X350730Y3026D01*
X347670D01*
X347403Y3626D01*
X347707Y4360D01*
X347831Y5300D01*
Y10300D01*
X347707Y11240D01*
X347345Y12116D01*
X346767Y12868D01*
X346016Y13445D01*
X345140Y13807D01*
X344200Y13931D01*
X343260Y13807D01*
X342385Y13445D01*
X341633Y12868D01*
X341055Y12116D01*
X340693Y11240D01*
X340569Y10300D01*
Y5300D01*
X340693Y4360D01*
X340997Y3626D01*
X340730Y3026D01*
X337670D01*
X337403Y3626D01*
X337707Y4360D01*
X337831Y5300D01*
Y10300D01*
X337707Y11240D01*
X337345Y12116D01*
X336768Y12868D01*
X336016Y13445D01*
X335140Y13807D01*
X334200Y13931D01*
X333260Y13807D01*
X332384Y13445D01*
X331632Y12868D01*
X331055Y12116D01*
X330693Y11240D01*
X330569Y10300D01*
Y5300D01*
X330693Y4360D01*
X330997Y3626D01*
X330730Y3026D01*
X327670D01*
X327403Y3626D01*
X327707Y4360D01*
X327831Y5300D01*
Y10300D01*
X327707Y11240D01*
X327345Y12116D01*
X326767Y12868D01*
X326015Y13445D01*
X325140Y13807D01*
X324200Y13931D01*
X323260Y13807D01*
X322385Y13445D01*
X321633Y12868D01*
X321055Y12116D01*
X320693Y11240D01*
X320569Y10300D01*
Y5300D01*
X320693Y4360D01*
X320997Y3626D01*
X320730Y3026D01*
X317670D01*
X317403Y3626D01*
X317707Y4360D01*
X317831Y5300D01*
Y10300D01*
X317707Y11240D01*
X317345Y12116D01*
X316768Y12868D01*
X316016Y13445D01*
X315140Y13807D01*
X314200Y13931D01*
X313260Y13807D01*
X312385Y13445D01*
X311632Y12868D01*
X311055Y12116D01*
X310693Y11240D01*
X310569Y10300D01*
Y5300D01*
X310693Y4360D01*
X310997Y3626D01*
X310730Y3026D01*
X308221D01*
X307836Y3626D01*
X308097Y4256D01*
X308235Y5300D01*
Y7300D01*
X304200D01*
X300166D01*
Y5300D01*
X300303Y4256D01*
X300564Y3626D01*
X300179Y3026D01*
X298221D01*
X297836Y3626D01*
X298097Y4256D01*
X298235Y5300D01*
Y7300D01*
X294200D01*
X290165D01*
Y5300D01*
X290303Y4256D01*
X290564Y3626D01*
X290179Y3026D01*
X287670D01*
X287403Y3626D01*
X287707Y4360D01*
X287831Y5300D01*
Y10300D01*
X287707Y11240D01*
X287345Y12116D01*
X286768Y12868D01*
X286016Y13445D01*
X285140Y13807D01*
X284200Y13931D01*
X283260Y13807D01*
X282384Y13445D01*
X281632Y12868D01*
X281055Y12116D01*
X280693Y11240D01*
X280569Y10300D01*
Y5300D01*
X280693Y4360D01*
X280997Y3626D01*
X280730Y3026D01*
X279210D01*
X278877Y3525D01*
X279071Y3995D01*
X279243Y5300D01*
Y10300D01*
X279071Y11605D01*
X278568Y12822D01*
X277766Y13866D01*
X277713Y13907D01*
X277666Y14687D01*
X280453Y17474D01*
X329100D01*
X329883Y17577D01*
X330613Y17879D01*
X331240Y18360D01*
X374830Y61951D01*
X375166Y61995D01*
X376066Y62368D01*
X376839Y62961D01*
X377432Y63734D01*
X377805Y64634D01*
X377932Y65600D01*
X377805Y66566D01*
X377432Y67466D01*
X376839Y68239D01*
X376066Y68832D01*
X375166Y69205D01*
X374200Y69332D01*
X373234Y69205D01*
X372334Y68832D01*
X371561Y68239D01*
X370968Y67466D01*
X370595Y66566D01*
X370551Y66230D01*
X327847Y23526D01*
X280453D01*
X274040Y29940D01*
X273413Y30421D01*
X272683Y30723D01*
X271900Y30826D01*
X220680D01*
X220266Y31366D01*
X219222Y32168D01*
X218005Y32671D01*
X216700Y32843D01*
X211700D01*
X210395Y32671D01*
X209725Y32394D01*
X209226Y32727D01*
Y34482D01*
X209764Y34748D01*
X209885Y34655D01*
X210760Y34293D01*
X211700Y34169D01*
X216700D01*
X217640Y34293D01*
X218515Y34655D01*
X219268Y35232D01*
X219845Y35985D01*
X220207Y36860D01*
X220331Y37800D01*
X220207Y38740D01*
X219845Y39615D01*
X219268Y40368D01*
X218515Y40945D01*
X217640Y41307D01*
X216700Y41431D01*
X211700D01*
X210760Y41307D01*
X209885Y40945D01*
X209764Y40852D01*
X209226Y41118D01*
Y44482D01*
X209764Y44748D01*
X209885Y44655D01*
X210760Y44293D01*
X211700Y44169D01*
X216700D01*
X217640Y44293D01*
X218515Y44655D01*
X219268Y45232D01*
X219845Y45985D01*
X220207Y46860D01*
X220331Y47800D01*
X220207Y48740D01*
X219845Y49615D01*
X219268Y50368D01*
X218515Y50945D01*
X217640Y51307D01*
X216700Y51431D01*
X211700D01*
X210760Y51307D01*
X209885Y50945D01*
X209764Y50852D01*
X209226Y51117D01*
Y54483D01*
X209764Y54748D01*
X209885Y54655D01*
X210760Y54293D01*
X211700Y54169D01*
X216700D01*
X217640Y54293D01*
X218515Y54655D01*
X219268Y55233D01*
X219845Y55984D01*
X220207Y56860D01*
X220331Y57800D01*
X220207Y58740D01*
X219845Y59615D01*
X219268Y60368D01*
X218515Y60945D01*
X217640Y61307D01*
X216700Y61431D01*
X211700D01*
X210760Y61307D01*
X209885Y60945D01*
X209764Y60852D01*
X209226Y61118D01*
Y63979D01*
X209826Y64247D01*
X210656Y63903D01*
X211700Y63766D01*
X213700D01*
Y67800D01*
Y71834D01*
X211700D01*
X210656Y71697D01*
X209826Y71353D01*
X209226Y71621D01*
Y73979D01*
X209826Y74247D01*
X210656Y73903D01*
X211700Y73765D01*
X213700D01*
Y77800D01*
Y81835D01*
X211700D01*
X210656Y81697D01*
X209826Y81353D01*
X209226Y81621D01*
Y84483D01*
X209764Y84748D01*
X209885Y84655D01*
X210760Y84293D01*
X211700Y84169D01*
X216700D01*
X217640Y84293D01*
X218515Y84655D01*
X219268Y85233D01*
X219845Y85984D01*
X220207Y86860D01*
X220331Y87800D01*
X220207Y88740D01*
X219845Y89615D01*
X219268Y90368D01*
X218515Y90945D01*
X217640Y91307D01*
X216700Y91431D01*
X211700D01*
X210760Y91307D01*
X209885Y90945D01*
X209764Y90852D01*
X209226Y91118D01*
Y94482D01*
X209764Y94748D01*
X209885Y94655D01*
X210760Y94293D01*
X211700Y94169D01*
X216700D01*
X217640Y94293D01*
X218515Y94655D01*
X219268Y95232D01*
X219845Y95985D01*
X220207Y96860D01*
X220331Y97800D01*
X220207Y98740D01*
X219845Y99616D01*
X219268Y100368D01*
X218515Y100945D01*
X217640Y101307D01*
X216700Y101431D01*
X211700D01*
X210760Y101307D01*
X209885Y100945D01*
X209764Y100852D01*
X209226Y101118D01*
Y104482D01*
X209764Y104748D01*
X209885Y104655D01*
X210760Y104293D01*
X211700Y104169D01*
X216700D01*
X217640Y104293D01*
X218515Y104655D01*
X219268Y105233D01*
X219845Y105984D01*
X220207Y106860D01*
X220331Y107800D01*
X220207Y108740D01*
X219845Y109616D01*
X219268Y110368D01*
X218515Y110945D01*
X217640Y111307D01*
X216700Y111431D01*
X211700D01*
X210760Y111307D01*
X209885Y110945D01*
X209764Y110852D01*
X209226Y111117D01*
Y114482D01*
X209764Y114748D01*
X209885Y114655D01*
X210760Y114293D01*
X211700Y114169D01*
X216700D01*
X217640Y114293D01*
X218515Y114655D01*
X219268Y115233D01*
X219845Y115984D01*
X220207Y116860D01*
X220331Y117800D01*
X220207Y118740D01*
X219845Y119615D01*
X219268Y120368D01*
X218515Y120945D01*
X217640Y121307D01*
X216700Y121431D01*
X211700D01*
X210760Y121307D01*
X209885Y120945D01*
X209764Y120852D01*
X209226Y121117D01*
Y124483D01*
X209764Y124748D01*
X209885Y124655D01*
X210760Y124293D01*
X211700Y124169D01*
X216700D01*
X217640Y124293D01*
X218515Y124655D01*
X219268Y125233D01*
X219845Y125985D01*
X220207Y126860D01*
X220331Y127800D01*
X220207Y128740D01*
X219845Y129615D01*
X219268Y130368D01*
X218515Y130945D01*
X217640Y131307D01*
X216700Y131431D01*
X211700D01*
X210760Y131307D01*
X209885Y130945D01*
X209764Y130852D01*
X209226Y131117D01*
Y134483D01*
X209764Y134748D01*
X209885Y134655D01*
X210760Y134293D01*
X211700Y134169D01*
X216700D01*
X217640Y134293D01*
X218515Y134655D01*
X219268Y135232D01*
X219845Y135985D01*
X220207Y136860D01*
X220331Y137800D01*
X220207Y138740D01*
X219845Y139615D01*
X219268Y140368D01*
X218515Y140945D01*
X217640Y141307D01*
X216700Y141431D01*
X211700D01*
X210760Y141307D01*
X209885Y140945D01*
X209764Y140852D01*
X209226Y141118D01*
Y144483D01*
X209764Y144748D01*
X209885Y144655D01*
X210760Y144293D01*
X211700Y144169D01*
X216700D01*
X217640Y144293D01*
X218515Y144655D01*
X219268Y145232D01*
X219845Y145984D01*
X220207Y146860D01*
X220331Y147800D01*
X220207Y148740D01*
X219845Y149616D01*
X219268Y150368D01*
X218515Y150945D01*
X217640Y151307D01*
X216700Y151431D01*
X211700D01*
X210760Y151307D01*
X209885Y150945D01*
X209764Y150852D01*
X209226Y151118D01*
Y154482D01*
X209764Y154748D01*
X209885Y154655D01*
X210760Y154293D01*
X211700Y154169D01*
X216700D01*
X217640Y154293D01*
X218515Y154655D01*
X219268Y155233D01*
X219845Y155984D01*
X220207Y156860D01*
X220331Y157800D01*
X220207Y158740D01*
X219845Y159616D01*
X219268Y160368D01*
X218515Y160945D01*
X217640Y161307D01*
X216700Y161431D01*
X211700D01*
X210760Y161307D01*
X209885Y160945D01*
X209764Y160852D01*
X209226Y161117D01*
Y163979D01*
X209826Y164247D01*
X210656Y163903D01*
X211700Y163766D01*
X213700D01*
Y167800D01*
Y171835D01*
X211700D01*
X210656Y171697D01*
X209826Y171353D01*
X209226Y171621D01*
Y174483D01*
X209764Y174748D01*
X209885Y174655D01*
X210760Y174293D01*
X211700Y174169D01*
X216700D01*
X217640Y174293D01*
X218515Y174655D01*
X219268Y175233D01*
X219845Y175985D01*
X220207Y176860D01*
X220331Y177800D01*
X220207Y178740D01*
X219845Y179615D01*
X219268Y180368D01*
X218515Y180945D01*
X217640Y181307D01*
X216700Y181431D01*
X211700D01*
X210760Y181307D01*
X209885Y180945D01*
X209764Y180852D01*
X209226Y181117D01*
Y183979D01*
X209826Y184247D01*
X210656Y183903D01*
X211700Y183765D01*
X213700D01*
Y187800D01*
Y191834D01*
X211700D01*
X210656Y191697D01*
X209826Y191353D01*
X209226Y191621D01*
Y194483D01*
X209764Y194748D01*
X209885Y194655D01*
X210760Y194293D01*
X211700Y194169D01*
X216700D01*
X217640Y194293D01*
X218515Y194655D01*
X219268Y195232D01*
X219845Y195984D01*
X220207Y196860D01*
X220331Y197800D01*
X220207Y198740D01*
X219845Y199616D01*
X219268Y200368D01*
X218515Y200945D01*
X217640Y201307D01*
X216700Y201431D01*
X211700D01*
X210760Y201307D01*
X209885Y200945D01*
X209764Y200852D01*
X209226Y201117D01*
Y203979D01*
X209826Y204247D01*
X210656Y203903D01*
X211700Y203766D01*
X213700D01*
Y207800D01*
Y211835D01*
X211700D01*
X210656Y211697D01*
X209826Y211353D01*
X209226Y211621D01*
Y214200D01*
X220300D01*
Y221400D01*
X209226D01*
Y250974D01*
X230388D01*
X230459Y250374D01*
X230139Y250297D01*
X228234Y249508D01*
X226476Y248431D01*
X224908Y247092D01*
X223569Y245524D01*
X222492Y243766D01*
X221703Y241861D01*
X221221Y239856D01*
X221059Y237800D01*
X221221Y235744D01*
X221703Y233739D01*
X222492Y231834D01*
X223569Y230076D01*
X224908Y228508D01*
X226476Y227169D01*
X228234Y226092D01*
X230139Y225303D01*
X232144Y224821D01*
X234200Y224659D01*
X236256Y224821D01*
X238261Y225303D01*
X240166Y226092D01*
X241924Y227169D01*
X243492Y228508D01*
X244831Y230076D01*
X245908Y231834D01*
X246697Y233739D01*
X247179Y235744D01*
X247340Y237800D01*
X247179Y239856D01*
X246697Y241861D01*
X245908Y243766D01*
X244831Y245524D01*
X243492Y247092D01*
X241924Y248431D01*
X240166Y249508D01*
X238261Y250297D01*
X237941Y250374D01*
X238012Y250974D01*
X380388D01*
X380459Y250374D01*
X380139Y250297D01*
X378234Y249508D01*
X376476Y248431D01*
X374908Y247092D01*
X373569Y245524D01*
X372492Y243766D01*
X371703Y241861D01*
X371221Y239856D01*
X371059Y237800D01*
X371221Y235744D01*
X371703Y233739D01*
X372492Y231834D01*
X373569Y230076D01*
X374908Y228508D01*
X376476Y227169D01*
X378234Y226092D01*
X380139Y225303D01*
X382144Y224821D01*
X384200Y224659D01*
X386256Y224821D01*
X388261Y225303D01*
X390166Y226092D01*
X391924Y227169D01*
X393492Y228508D01*
X394831Y230076D01*
X395908Y231834D01*
X396697Y233739D01*
X397179Y235744D01*
X397340Y237800D01*
X397179Y239856D01*
X396697Y241861D01*
X395908Y243766D01*
X394831Y245524D01*
X393492Y247092D01*
X391924Y248431D01*
X390166Y249508D01*
X388261Y250297D01*
X387941Y250374D01*
X388012Y250974D01*
X408674D01*
Y221800D01*
D02*
G37*
G36*
X202674D02*
X198700D01*
Y217800D01*
Y213800D01*
X202674D01*
Y211528D01*
X202074Y211127D01*
X201640Y211307D01*
X200700Y211431D01*
X195700D01*
X194760Y211307D01*
X193885Y210945D01*
X193132Y210368D01*
X192555Y209615D01*
X192193Y208740D01*
X192069Y207800D01*
X192193Y206860D01*
X192555Y205984D01*
X193132Y205233D01*
X193885Y204655D01*
X194760Y204293D01*
X195700Y204169D01*
X200700D01*
X201640Y204293D01*
X202074Y204473D01*
X202674Y204072D01*
Y201528D01*
X202074Y201127D01*
X201640Y201307D01*
X200700Y201431D01*
X195700D01*
X194760Y201307D01*
X193885Y200945D01*
X193132Y200368D01*
X192555Y199616D01*
X192193Y198740D01*
X192069Y197800D01*
X192193Y196860D01*
X192555Y195984D01*
X193132Y195232D01*
X193885Y194655D01*
X194760Y194293D01*
X195700Y194169D01*
X200700D01*
X201640Y194293D01*
X202074Y194473D01*
X202674Y194072D01*
Y191852D01*
X202175Y191518D01*
X201744Y191697D01*
X200700Y191834D01*
X198700D01*
Y187800D01*
Y183765D01*
X200700D01*
X201744Y183903D01*
X202175Y184081D01*
X202674Y183748D01*
Y181528D01*
X202074Y181127D01*
X201640Y181307D01*
X200700Y181431D01*
X195700D01*
X194760Y181307D01*
X193885Y180945D01*
X193132Y180368D01*
X192555Y179615D01*
X192193Y178740D01*
X192069Y177800D01*
X192193Y176860D01*
X192555Y175985D01*
X193132Y175233D01*
X193885Y174655D01*
X194760Y174293D01*
X195700Y174169D01*
X200700D01*
X201640Y174293D01*
X202074Y174473D01*
X202674Y174072D01*
Y171528D01*
X202074Y171127D01*
X201640Y171307D01*
X200700Y171431D01*
X195700D01*
X194760Y171307D01*
X193885Y170945D01*
X193132Y170368D01*
X192555Y169615D01*
X192193Y168740D01*
X192069Y167800D01*
X192193Y166860D01*
X192555Y165984D01*
X193132Y165233D01*
X193885Y164655D01*
X194760Y164293D01*
X195700Y164169D01*
X200700D01*
X201640Y164293D01*
X202074Y164473D01*
X202674Y164072D01*
Y161852D01*
X202175Y161519D01*
X201744Y161697D01*
X200700Y161835D01*
X198700D01*
Y157800D01*
Y153765D01*
X200700D01*
X201744Y153903D01*
X202175Y154081D01*
X202674Y153748D01*
Y151528D01*
X202074Y151127D01*
X201640Y151307D01*
X200700Y151431D01*
X195700D01*
X194760Y151307D01*
X193885Y150945D01*
X193132Y150368D01*
X192555Y149616D01*
X192193Y148740D01*
X192069Y147800D01*
X192193Y146860D01*
X192555Y145984D01*
X193132Y145232D01*
X193885Y144655D01*
X194760Y144293D01*
X195700Y144169D01*
X200700D01*
X201640Y144293D01*
X202074Y144473D01*
X202674Y144072D01*
Y141852D01*
X202175Y141518D01*
X201744Y141697D01*
X200700Y141834D01*
X198700D01*
Y137800D01*
Y133765D01*
X200700D01*
X201744Y133903D01*
X202175Y134081D01*
X202674Y133748D01*
Y131852D01*
X202175Y131518D01*
X201744Y131697D01*
X200700Y131834D01*
X198700D01*
Y127800D01*
Y123766D01*
X200700D01*
X201744Y123903D01*
X202175Y124082D01*
X202674Y123748D01*
Y121528D01*
X202074Y121127D01*
X201640Y121307D01*
X200700Y121431D01*
X195700D01*
X194760Y121307D01*
X193885Y120945D01*
X193132Y120368D01*
X192555Y119615D01*
X192193Y118740D01*
X192069Y117800D01*
X192193Y116860D01*
X192555Y115984D01*
X193132Y115233D01*
X193885Y114655D01*
X194760Y114293D01*
X195700Y114169D01*
X200700D01*
X201640Y114293D01*
X202074Y114473D01*
X202674Y114072D01*
Y111528D01*
X202074Y111127D01*
X201640Y111307D01*
X200700Y111431D01*
X195700D01*
X194760Y111307D01*
X193885Y110945D01*
X193132Y110368D01*
X192555Y109616D01*
X192193Y108740D01*
X192069Y107800D01*
X192193Y106860D01*
X192555Y105984D01*
X193132Y105233D01*
X193885Y104655D01*
X194760Y104293D01*
X195700Y104169D01*
X200700D01*
X201640Y104293D01*
X202074Y104473D01*
X202674Y104072D01*
Y101528D01*
X202074Y101127D01*
X201640Y101307D01*
X200700Y101431D01*
X195700D01*
X194760Y101307D01*
X193885Y100945D01*
X193132Y100368D01*
X192555Y99616D01*
X192193Y98740D01*
X192069Y97800D01*
X192193Y96860D01*
X192555Y95985D01*
X193132Y95232D01*
X193885Y94655D01*
X194760Y94293D01*
X195700Y94169D01*
X200700D01*
X201640Y94293D01*
X202074Y94473D01*
X202674Y94072D01*
Y92934D01*
X202175Y92601D01*
X202005Y92671D01*
X200700Y92843D01*
X195700D01*
X194395Y92671D01*
X193178Y92168D01*
X192134Y91366D01*
X191332Y90322D01*
X190829Y89105D01*
X190657Y87800D01*
X190829Y86495D01*
X191332Y85278D01*
X192134Y84234D01*
X193178Y83433D01*
X194395Y82929D01*
X195700Y82757D01*
X200700D01*
X202005Y82929D01*
X202175Y82999D01*
X202674Y82666D01*
Y81528D01*
X202074Y81127D01*
X201640Y81307D01*
X200700Y81431D01*
X195700D01*
X194760Y81307D01*
X193885Y80945D01*
X193132Y80368D01*
X192555Y79615D01*
X192193Y78740D01*
X192069Y77800D01*
X192193Y76860D01*
X192555Y75985D01*
X193132Y75232D01*
X193885Y74655D01*
X194760Y74293D01*
X195700Y74169D01*
X200700D01*
X201640Y74293D01*
X202074Y74473D01*
X202674Y74072D01*
Y71852D01*
X202175Y71518D01*
X201744Y71697D01*
X200700Y71834D01*
X198700D01*
Y67800D01*
Y63766D01*
X200700D01*
X201744Y63903D01*
X202175Y64082D01*
X202674Y63748D01*
Y61852D01*
X202175Y61519D01*
X201744Y61697D01*
X200700Y61835D01*
X198700D01*
Y57800D01*
Y53765D01*
X200700D01*
X201744Y53903D01*
X202175Y54081D01*
X202674Y53748D01*
Y51528D01*
X202074Y51127D01*
X201640Y51307D01*
X200700Y51431D01*
X195700D01*
X194760Y51307D01*
X193885Y50945D01*
X193132Y50368D01*
X192555Y49615D01*
X192193Y48740D01*
X192069Y47800D01*
X192193Y46860D01*
X192555Y45985D01*
X193132Y45232D01*
X193885Y44655D01*
X194760Y44293D01*
X195700Y44169D01*
X200700D01*
X201640Y44293D01*
X202074Y44473D01*
X202674Y44072D01*
Y41528D01*
X202074Y41127D01*
X201640Y41307D01*
X200700Y41431D01*
X195700D01*
X194760Y41307D01*
X193885Y40945D01*
X193132Y40368D01*
X192555Y39615D01*
X192193Y38740D01*
X192069Y37800D01*
X192193Y36860D01*
X192555Y35985D01*
X193132Y35232D01*
X193885Y34655D01*
X194760Y34293D01*
X195700Y34169D01*
X200700D01*
X201640Y34293D01*
X202074Y34473D01*
X202674Y34072D01*
Y31528D01*
X202074Y31127D01*
X201640Y31307D01*
X200700Y31431D01*
X195700D01*
X194760Y31307D01*
X193885Y30945D01*
X193132Y30368D01*
X192555Y29616D01*
X192193Y28740D01*
X192069Y27800D01*
X192193Y26860D01*
X192555Y25984D01*
X193132Y25232D01*
X193885Y24655D01*
X194760Y24293D01*
X195700Y24169D01*
X200700D01*
X201640Y24293D01*
X202074Y24473D01*
X202674Y24072D01*
Y3026D01*
X201670D01*
X201403Y3626D01*
X201707Y4360D01*
X201831Y5300D01*
Y10300D01*
X201707Y11240D01*
X201345Y12116D01*
X200768Y12868D01*
X200015Y13445D01*
X199140Y13807D01*
X198200Y13931D01*
X197260Y13807D01*
X196385Y13445D01*
X195632Y12868D01*
X195055Y12116D01*
X194693Y11240D01*
X194569Y10300D01*
Y5300D01*
X194693Y4360D01*
X194997Y3626D01*
X194730Y3026D01*
X191670D01*
X191403Y3626D01*
X191707Y4360D01*
X191831Y5300D01*
Y10300D01*
X191707Y11240D01*
X191345Y12116D01*
X190768Y12868D01*
X190015Y13445D01*
X189140Y13807D01*
X188200Y13931D01*
X187260Y13807D01*
X186384Y13445D01*
X185632Y12868D01*
X185055Y12116D01*
X184693Y11240D01*
X184569Y10300D01*
Y5300D01*
X184693Y4360D01*
X184997Y3626D01*
X184730Y3026D01*
X181670D01*
X181403Y3626D01*
X181707Y4360D01*
X181831Y5300D01*
Y10300D01*
X181707Y11240D01*
X181345Y12116D01*
X180768Y12868D01*
X180016Y13445D01*
X179140Y13807D01*
X178200Y13931D01*
X177260Y13807D01*
X176384Y13445D01*
X175632Y12868D01*
X175055Y12116D01*
X174693Y11240D01*
X174569Y10300D01*
Y5300D01*
X174693Y4360D01*
X174997Y3626D01*
X174730Y3026D01*
X171670D01*
X171403Y3626D01*
X171707Y4360D01*
X171831Y5300D01*
Y10300D01*
X171707Y11240D01*
X171345Y12116D01*
X170768Y12868D01*
X170016Y13445D01*
X169140Y13807D01*
X168200Y13931D01*
X167260Y13807D01*
X166384Y13445D01*
X165632Y12868D01*
X165055Y12116D01*
X164693Y11240D01*
X164569Y10300D01*
Y5300D01*
X164693Y4360D01*
X164997Y3626D01*
X164730Y3026D01*
X161670D01*
X161403Y3626D01*
X161707Y4360D01*
X161831Y5300D01*
Y10300D01*
X161707Y11240D01*
X161345Y12116D01*
X160768Y12868D01*
X160015Y13445D01*
X159140Y13807D01*
X158200Y13931D01*
X157260Y13807D01*
X156385Y13445D01*
X155632Y12868D01*
X155055Y12116D01*
X154693Y11240D01*
X154569Y10300D01*
Y5300D01*
X154693Y4360D01*
X154997Y3626D01*
X154730Y3026D01*
X151670D01*
X151403Y3626D01*
X151707Y4360D01*
X151831Y5300D01*
Y10300D01*
X151707Y11240D01*
X151345Y12116D01*
X150768Y12868D01*
X150015Y13445D01*
X149140Y13807D01*
X148200Y13931D01*
X147260Y13807D01*
X146385Y13445D01*
X145632Y12868D01*
X145055Y12116D01*
X144693Y11240D01*
X144569Y10300D01*
Y5300D01*
X144693Y4360D01*
X144997Y3626D01*
X144730Y3026D01*
X141670D01*
X141403Y3626D01*
X141707Y4360D01*
X141831Y5300D01*
Y10300D01*
X141707Y11240D01*
X141345Y12116D01*
X140768Y12868D01*
X140015Y13445D01*
X139140Y13807D01*
X138200Y13931D01*
X137260Y13807D01*
X136384Y13445D01*
X135632Y12868D01*
X135055Y12116D01*
X134693Y11240D01*
X134569Y10300D01*
Y5300D01*
X134693Y4360D01*
X134997Y3626D01*
X134730Y3026D01*
X131670D01*
X131403Y3626D01*
X131707Y4360D01*
X131831Y5300D01*
Y10300D01*
X131707Y11240D01*
X131345Y12116D01*
X130768Y12868D01*
X130016Y13445D01*
X129140Y13807D01*
X128200Y13931D01*
X127260Y13807D01*
X126384Y13445D01*
X125632Y12868D01*
X125055Y12116D01*
X124693Y11240D01*
X124569Y10300D01*
Y5300D01*
X124693Y4360D01*
X124997Y3626D01*
X124730Y3026D01*
X121670D01*
X121403Y3626D01*
X121707Y4360D01*
X121831Y5300D01*
Y10300D01*
X121707Y11240D01*
X121345Y12116D01*
X120768Y12868D01*
X120016Y13445D01*
X119140Y13807D01*
X118200Y13931D01*
X117260Y13807D01*
X116384Y13445D01*
X115632Y12868D01*
X115055Y12116D01*
X114693Y11240D01*
X114569Y10300D01*
Y5300D01*
X114693Y4360D01*
X114997Y3626D01*
X114730Y3026D01*
X111670D01*
X111403Y3626D01*
X111707Y4360D01*
X111831Y5300D01*
Y10300D01*
X111707Y11240D01*
X111345Y12116D01*
X110768Y12868D01*
X110015Y13445D01*
X109140Y13807D01*
X108200Y13931D01*
X107260Y13807D01*
X106385Y13445D01*
X105632Y12868D01*
X105055Y12116D01*
X104693Y11240D01*
X104569Y10300D01*
Y5300D01*
X104693Y4360D01*
X104997Y3626D01*
X104730Y3026D01*
X102221D01*
X101836Y3626D01*
X102097Y4256D01*
X102234Y5300D01*
Y7300D01*
X98200D01*
X94165D01*
Y5300D01*
X94303Y4256D01*
X94564Y3626D01*
X94179Y3026D01*
X92221D01*
X91836Y3626D01*
X92097Y4256D01*
X92234Y5300D01*
Y7300D01*
X88200D01*
X84166D01*
Y5300D01*
X84303Y4256D01*
X84564Y3626D01*
X84179Y3026D01*
X81670D01*
X81403Y3626D01*
X81707Y4360D01*
X81831Y5300D01*
Y10300D01*
X81707Y11240D01*
X81345Y12116D01*
X80768Y12868D01*
X80015Y13445D01*
X79140Y13807D01*
X78200Y13931D01*
X77260Y13807D01*
X76385Y13445D01*
X75632Y12868D01*
X75055Y12116D01*
X74693Y11240D01*
X74569Y10300D01*
Y5300D01*
X74693Y4360D01*
X74997Y3626D01*
X74730Y3026D01*
X73210D01*
X72877Y3525D01*
X73071Y3995D01*
X73243Y5300D01*
Y10300D01*
X73071Y11605D01*
X72567Y12822D01*
X71766Y13866D01*
X71713Y13907D01*
X71666Y14687D01*
X74453Y17474D01*
X123100D01*
X123883Y17577D01*
X124613Y17879D01*
X125240Y18360D01*
X168830Y61951D01*
X169166Y61995D01*
X170066Y62368D01*
X170839Y62961D01*
X171432Y63734D01*
X171805Y64634D01*
X171932Y65600D01*
X171805Y66566D01*
X171432Y67466D01*
X170839Y68239D01*
X170066Y68832D01*
X169166Y69205D01*
X168200Y69332D01*
X167234Y69205D01*
X166334Y68832D01*
X165561Y68239D01*
X164968Y67466D01*
X164595Y66566D01*
X164551Y66230D01*
X121847Y23526D01*
X74453D01*
X68040Y29940D01*
X67413Y30421D01*
X66683Y30723D01*
X65900Y30826D01*
X14681D01*
X14266Y31366D01*
X13222Y32168D01*
X12005Y32671D01*
X10700Y32843D01*
X5700D01*
X4395Y32671D01*
X3725Y32394D01*
X3226Y32727D01*
Y34482D01*
X3764Y34748D01*
X3884Y34655D01*
X4760Y34293D01*
X5700Y34169D01*
X10700D01*
X11640Y34293D01*
X12516Y34655D01*
X13268Y35232D01*
X13845Y35985D01*
X14207Y36860D01*
X14331Y37800D01*
X14207Y38740D01*
X13845Y39615D01*
X13268Y40368D01*
X12516Y40945D01*
X11640Y41307D01*
X10700Y41431D01*
X5700D01*
X4760Y41307D01*
X3884Y40945D01*
X3764Y40852D01*
X3226Y41118D01*
Y44482D01*
X3764Y44748D01*
X3884Y44655D01*
X4760Y44293D01*
X5700Y44169D01*
X10700D01*
X11640Y44293D01*
X12516Y44655D01*
X13268Y45232D01*
X13845Y45985D01*
X14207Y46860D01*
X14331Y47800D01*
X14207Y48740D01*
X13845Y49615D01*
X13268Y50368D01*
X12516Y50945D01*
X11640Y51307D01*
X10700Y51431D01*
X5700D01*
X4760Y51307D01*
X3884Y50945D01*
X3764Y50852D01*
X3226Y51117D01*
Y54483D01*
X3764Y54748D01*
X3884Y54655D01*
X4760Y54293D01*
X5700Y54169D01*
X10700D01*
X11640Y54293D01*
X12516Y54655D01*
X13268Y55233D01*
X13845Y55984D01*
X14207Y56860D01*
X14331Y57800D01*
X14207Y58740D01*
X13845Y59615D01*
X13268Y60368D01*
X12516Y60945D01*
X11640Y61307D01*
X10700Y61431D01*
X5700D01*
X4760Y61307D01*
X3884Y60945D01*
X3764Y60852D01*
X3226Y61118D01*
Y63979D01*
X3826Y64247D01*
X4656Y63903D01*
X5700Y63766D01*
X7700D01*
Y67800D01*
Y71834D01*
X5700D01*
X4656Y71697D01*
X3826Y71353D01*
X3226Y71621D01*
Y73979D01*
X3826Y74247D01*
X4656Y73903D01*
X5700Y73765D01*
X7700D01*
Y77800D01*
Y81835D01*
X5700D01*
X4656Y81697D01*
X3826Y81353D01*
X3226Y81621D01*
Y84483D01*
X3764Y84748D01*
X3884Y84655D01*
X4760Y84293D01*
X5700Y84169D01*
X10700D01*
X11640Y84293D01*
X12516Y84655D01*
X13268Y85233D01*
X13845Y85984D01*
X14207Y86860D01*
X14331Y87800D01*
X14207Y88740D01*
X13845Y89615D01*
X13268Y90368D01*
X12516Y90945D01*
X11640Y91307D01*
X10700Y91431D01*
X5700D01*
X4760Y91307D01*
X3884Y90945D01*
X3764Y90852D01*
X3226Y91118D01*
Y94482D01*
X3764Y94748D01*
X3884Y94655D01*
X4760Y94293D01*
X5700Y94169D01*
X10700D01*
X11640Y94293D01*
X12516Y94655D01*
X13268Y95232D01*
X13845Y95985D01*
X14207Y96860D01*
X14331Y97800D01*
X14207Y98740D01*
X13845Y99616D01*
X13268Y100368D01*
X12516Y100945D01*
X11640Y101307D01*
X10700Y101431D01*
X5700D01*
X4760Y101307D01*
X3884Y100945D01*
X3764Y100852D01*
X3226Y101118D01*
Y104482D01*
X3764Y104748D01*
X3884Y104655D01*
X4760Y104293D01*
X5700Y104169D01*
X10700D01*
X11640Y104293D01*
X12516Y104655D01*
X13268Y105233D01*
X13845Y105984D01*
X14207Y106860D01*
X14331Y107800D01*
X14207Y108740D01*
X13845Y109616D01*
X13268Y110368D01*
X12516Y110945D01*
X11640Y111307D01*
X10700Y111431D01*
X5700D01*
X4760Y111307D01*
X3884Y110945D01*
X3764Y110852D01*
X3226Y111117D01*
Y114482D01*
X3764Y114748D01*
X3884Y114655D01*
X4760Y114293D01*
X5700Y114169D01*
X10700D01*
X11640Y114293D01*
X12516Y114655D01*
X13268Y115233D01*
X13845Y115984D01*
X14207Y116860D01*
X14331Y117800D01*
X14207Y118740D01*
X13845Y119615D01*
X13268Y120368D01*
X12516Y120945D01*
X11640Y121307D01*
X10700Y121431D01*
X5700D01*
X4760Y121307D01*
X3884Y120945D01*
X3764Y120852D01*
X3226Y121117D01*
Y124483D01*
X3764Y124748D01*
X3884Y124655D01*
X4760Y124293D01*
X5700Y124169D01*
X10700D01*
X11640Y124293D01*
X12516Y124655D01*
X13268Y125233D01*
X13845Y125985D01*
X14207Y126860D01*
X14331Y127800D01*
X14207Y128740D01*
X13845Y129615D01*
X13268Y130368D01*
X12516Y130945D01*
X11640Y131307D01*
X10700Y131431D01*
X5700D01*
X4760Y131307D01*
X3884Y130945D01*
X3764Y130852D01*
X3226Y131117D01*
Y134483D01*
X3764Y134748D01*
X3884Y134655D01*
X4760Y134293D01*
X5700Y134169D01*
X10700D01*
X11640Y134293D01*
X12516Y134655D01*
X13268Y135232D01*
X13845Y135985D01*
X14207Y136860D01*
X14331Y137800D01*
X14207Y138740D01*
X13845Y139615D01*
X13268Y140368D01*
X12516Y140945D01*
X11640Y141307D01*
X10700Y141431D01*
X5700D01*
X4760Y141307D01*
X3884Y140945D01*
X3764Y140852D01*
X3226Y141118D01*
Y144483D01*
X3764Y144748D01*
X3884Y144655D01*
X4760Y144293D01*
X5700Y144169D01*
X10700D01*
X11640Y144293D01*
X12516Y144655D01*
X13268Y145232D01*
X13845Y145984D01*
X14207Y146860D01*
X14331Y147800D01*
X14207Y148740D01*
X13845Y149616D01*
X13268Y150368D01*
X12516Y150945D01*
X11640Y151307D01*
X10700Y151431D01*
X5700D01*
X4760Y151307D01*
X3884Y150945D01*
X3764Y150852D01*
X3226Y151118D01*
Y154482D01*
X3764Y154748D01*
X3884Y154655D01*
X4760Y154293D01*
X5700Y154169D01*
X10700D01*
X11640Y154293D01*
X12516Y154655D01*
X13268Y155233D01*
X13845Y155984D01*
X14207Y156860D01*
X14331Y157800D01*
X14207Y158740D01*
X13845Y159616D01*
X13268Y160368D01*
X12516Y160945D01*
X11640Y161307D01*
X10700Y161431D01*
X5700D01*
X4760Y161307D01*
X3884Y160945D01*
X3764Y160852D01*
X3226Y161117D01*
Y163979D01*
X3826Y164247D01*
X4656Y163903D01*
X5700Y163766D01*
X7700D01*
Y167800D01*
Y171835D01*
X5700D01*
X4656Y171697D01*
X3826Y171353D01*
X3226Y171621D01*
Y174483D01*
X3764Y174748D01*
X3884Y174655D01*
X4760Y174293D01*
X5700Y174169D01*
X10700D01*
X11640Y174293D01*
X12516Y174655D01*
X13268Y175233D01*
X13845Y175985D01*
X14207Y176860D01*
X14331Y177800D01*
X14207Y178740D01*
X13845Y179615D01*
X13268Y180368D01*
X12516Y180945D01*
X11640Y181307D01*
X10700Y181431D01*
X5700D01*
X4760Y181307D01*
X3884Y180945D01*
X3764Y180852D01*
X3226Y181117D01*
Y183979D01*
X3826Y184247D01*
X4656Y183903D01*
X5700Y183765D01*
X7700D01*
Y187800D01*
Y191834D01*
X5700D01*
X4656Y191697D01*
X3826Y191353D01*
X3226Y191621D01*
Y194483D01*
X3764Y194748D01*
X3884Y194655D01*
X4760Y194293D01*
X5700Y194169D01*
X10700D01*
X11640Y194293D01*
X12516Y194655D01*
X13268Y195232D01*
X13845Y195984D01*
X14207Y196860D01*
X14331Y197800D01*
X14207Y198740D01*
X13845Y199616D01*
X13268Y200368D01*
X12516Y200945D01*
X11640Y201307D01*
X10700Y201431D01*
X5700D01*
X4760Y201307D01*
X3884Y200945D01*
X3764Y200852D01*
X3226Y201117D01*
Y203979D01*
X3826Y204247D01*
X4656Y203903D01*
X5700Y203766D01*
X7700D01*
Y207800D01*
Y211835D01*
X5700D01*
X4656Y211697D01*
X3826Y211353D01*
X3226Y211621D01*
Y214200D01*
X14300D01*
Y221400D01*
X3226D01*
Y250974D01*
X24388D01*
X24459Y250374D01*
X24139Y250297D01*
X22234Y249508D01*
X20476Y248431D01*
X18908Y247092D01*
X17569Y245524D01*
X16492Y243766D01*
X15703Y241861D01*
X15221Y239856D01*
X15059Y237800D01*
X15221Y235744D01*
X15703Y233739D01*
X16492Y231834D01*
X17569Y230076D01*
X18908Y228508D01*
X20476Y227169D01*
X22234Y226092D01*
X24139Y225303D01*
X26144Y224821D01*
X28200Y224659D01*
X30256Y224821D01*
X32261Y225303D01*
X34166Y226092D01*
X35924Y227169D01*
X37492Y228508D01*
X38831Y230076D01*
X39908Y231834D01*
X40697Y233739D01*
X41179Y235744D01*
X41341Y237800D01*
X41179Y239856D01*
X40697Y241861D01*
X39908Y243766D01*
X38831Y245524D01*
X37492Y247092D01*
X35924Y248431D01*
X34166Y249508D01*
X32261Y250297D01*
X31941Y250374D01*
X32012Y250974D01*
X174388D01*
X174459Y250374D01*
X174139Y250297D01*
X172234Y249508D01*
X170476Y248431D01*
X168908Y247092D01*
X167569Y245524D01*
X166492Y243766D01*
X165703Y241861D01*
X165221Y239856D01*
X165059Y237800D01*
X165221Y235744D01*
X165703Y233739D01*
X166492Y231834D01*
X167569Y230076D01*
X168908Y228508D01*
X170476Y227169D01*
X172234Y226092D01*
X174139Y225303D01*
X176144Y224821D01*
X178200Y224659D01*
X180256Y224821D01*
X182261Y225303D01*
X184166Y226092D01*
X185924Y227169D01*
X187492Y228508D01*
X188831Y230076D01*
X189908Y231834D01*
X190697Y233739D01*
X191179Y235744D01*
X191340Y237800D01*
X191179Y239856D01*
X190697Y241861D01*
X189908Y243766D01*
X188831Y245524D01*
X187492Y247092D01*
X185924Y248431D01*
X184166Y249508D01*
X182261Y250297D01*
X181941Y250374D01*
X182012Y250974D01*
X202674D01*
Y221800D01*
D02*
G37*
G36*
X274921Y20500D02*
X272160Y17740D01*
X271679Y17113D01*
X271377Y16383D01*
X271274Y15600D01*
Y14357D01*
X270634Y13866D01*
X269832Y12822D01*
X269329Y11605D01*
X269157Y10300D01*
Y5300D01*
X269329Y3995D01*
X269523Y3525D01*
X269190Y3026D01*
X267670D01*
X267403Y3626D01*
X267707Y4360D01*
X267831Y5300D01*
Y10300D01*
X267707Y11240D01*
X267345Y12116D01*
X266768Y12868D01*
X266016Y13445D01*
X265140Y13807D01*
X264200Y13931D01*
X263260Y13807D01*
X262385Y13445D01*
X261632Y12868D01*
X261055Y12116D01*
X260693Y11240D01*
X260569Y10300D01*
Y5300D01*
X260693Y4360D01*
X260997Y3626D01*
X260730Y3026D01*
X257670D01*
X257403Y3626D01*
X257707Y4360D01*
X257831Y5300D01*
Y10300D01*
X257707Y11240D01*
X257345Y12116D01*
X256768Y12868D01*
X256015Y13445D01*
X255140Y13807D01*
X254200Y13931D01*
X253260Y13807D01*
X252384Y13445D01*
X251632Y12868D01*
X251055Y12116D01*
X250693Y11240D01*
X250569Y10300D01*
Y5300D01*
X250693Y4360D01*
X250997Y3626D01*
X250730Y3026D01*
X247670D01*
X247403Y3626D01*
X247707Y4360D01*
X247831Y5300D01*
Y10300D01*
X247707Y11240D01*
X247345Y12116D01*
X246767Y12868D01*
X246016Y13445D01*
X245140Y13807D01*
X244200Y13931D01*
X243260Y13807D01*
X242385Y13445D01*
X241633Y12868D01*
X241055Y12116D01*
X240693Y11240D01*
X240569Y10300D01*
Y5300D01*
X240693Y4360D01*
X240997Y3626D01*
X240730Y3026D01*
X237670D01*
X237403Y3626D01*
X237707Y4360D01*
X237831Y5300D01*
Y10300D01*
X237707Y11240D01*
X237345Y12116D01*
X236768Y12868D01*
X236016Y13445D01*
X235140Y13807D01*
X234200Y13931D01*
X233260Y13807D01*
X232384Y13445D01*
X231632Y12868D01*
X231055Y12116D01*
X230693Y11240D01*
X230569Y10300D01*
Y5300D01*
X230693Y4360D01*
X230997Y3626D01*
X230730Y3026D01*
X227670D01*
X227403Y3626D01*
X227707Y4360D01*
X227831Y5300D01*
Y10300D01*
X227707Y11240D01*
X227345Y12116D01*
X226767Y12868D01*
X226015Y13445D01*
X225140Y13807D01*
X224200Y13931D01*
X223260Y13807D01*
X222385Y13445D01*
X221633Y12868D01*
X221055Y12116D01*
X220693Y11240D01*
X220569Y10300D01*
Y5300D01*
X220693Y4360D01*
X220997Y3626D01*
X220730Y3026D01*
X218200D01*
Y7300D01*
X214200D01*
X210200D01*
Y3026D01*
X209226D01*
Y22873D01*
X209725Y23206D01*
X210395Y22929D01*
X211700Y22757D01*
X216700D01*
X218005Y22929D01*
X219222Y23433D01*
X220266Y24234D01*
X220680Y24774D01*
X270647D01*
X274921Y20500D01*
D02*
G37*
G36*
X68921D02*
X66160Y17740D01*
X65680Y17113D01*
X65377Y16383D01*
X65274Y15600D01*
Y14357D01*
X64634Y13866D01*
X63832Y12822D01*
X63329Y11605D01*
X63157Y10300D01*
Y5300D01*
X63329Y3995D01*
X63523Y3525D01*
X63190Y3026D01*
X61670D01*
X61403Y3626D01*
X61707Y4360D01*
X61831Y5300D01*
Y10300D01*
X61707Y11240D01*
X61345Y12116D01*
X60768Y12868D01*
X60015Y13445D01*
X59140Y13807D01*
X58200Y13931D01*
X57260Y13807D01*
X56384Y13445D01*
X55632Y12868D01*
X55055Y12116D01*
X54693Y11240D01*
X54569Y10300D01*
Y5300D01*
X54693Y4360D01*
X54997Y3626D01*
X54730Y3026D01*
X51670D01*
X51403Y3626D01*
X51707Y4360D01*
X51831Y5300D01*
Y10300D01*
X51707Y11240D01*
X51345Y12116D01*
X50767Y12868D01*
X50015Y13445D01*
X49140Y13807D01*
X48200Y13931D01*
X47260Y13807D01*
X46385Y13445D01*
X45632Y12868D01*
X45055Y12116D01*
X44693Y11240D01*
X44569Y10300D01*
Y5300D01*
X44693Y4360D01*
X44997Y3626D01*
X44730Y3026D01*
X41670D01*
X41403Y3626D01*
X41707Y4360D01*
X41831Y5300D01*
Y10300D01*
X41707Y11240D01*
X41345Y12116D01*
X40767Y12868D01*
X40016Y13445D01*
X39140Y13807D01*
X38200Y13931D01*
X37260Y13807D01*
X36384Y13445D01*
X35633Y12868D01*
X35055Y12116D01*
X34693Y11240D01*
X34569Y10300D01*
Y5300D01*
X34693Y4360D01*
X34997Y3626D01*
X34730Y3026D01*
X31670D01*
X31403Y3626D01*
X31707Y4360D01*
X31831Y5300D01*
Y10300D01*
X31707Y11240D01*
X31345Y12116D01*
X30768Y12868D01*
X30016Y13445D01*
X29140Y13807D01*
X28200Y13931D01*
X27260Y13807D01*
X26384Y13445D01*
X25633Y12868D01*
X25055Y12116D01*
X24693Y11240D01*
X24569Y10300D01*
Y5300D01*
X24693Y4360D01*
X24997Y3626D01*
X24730Y3026D01*
X21670D01*
X21403Y3626D01*
X21707Y4360D01*
X21831Y5300D01*
Y10300D01*
X21707Y11240D01*
X21345Y12116D01*
X20767Y12868D01*
X20016Y13445D01*
X19140Y13807D01*
X18200Y13931D01*
X17260Y13807D01*
X16385Y13445D01*
X15632Y12868D01*
X15055Y12116D01*
X14693Y11240D01*
X14569Y10300D01*
Y5300D01*
X14693Y4360D01*
X14997Y3626D01*
X14730Y3026D01*
X12200D01*
Y7300D01*
X8200D01*
X4200D01*
Y3026D01*
X3226D01*
Y22873D01*
X3725Y23206D01*
X4395Y22929D01*
X5700Y22757D01*
X10700D01*
X12005Y22929D01*
X13222Y23433D01*
X14266Y24234D01*
X14681Y24774D01*
X64647D01*
X68921Y20500D01*
D02*
G37*
%LPC*%
G36*
X403700Y475800D02*
X397700D01*
Y472300D01*
X403700D01*
Y475800D01*
D02*
G37*
G36*
Y471300D02*
X397700D01*
Y467800D01*
X403700D01*
Y471300D01*
D02*
G37*
G36*
X216700Y465835D02*
X214700D01*
Y462300D01*
X220669D01*
X220597Y462844D01*
X220194Y463817D01*
X219553Y464653D01*
X218717Y465294D01*
X217744Y465697D01*
X216700Y465835D01*
D02*
G37*
G36*
X220669Y461300D02*
X214700D01*
Y457765D01*
X216700D01*
X217744Y457903D01*
X218717Y458306D01*
X219553Y458947D01*
X220194Y459783D01*
X220597Y460756D01*
X220669Y461300D01*
D02*
G37*
G36*
X309200Y469530D02*
X303700D01*
X302786Y469410D01*
X301935Y469057D01*
X301204Y468496D01*
X300643Y467765D01*
X300290Y466914D01*
X300170Y466000D01*
X300290Y465086D01*
X300643Y464235D01*
X301204Y463504D01*
X301935Y462943D01*
X302786Y462590D01*
X303700Y462470D01*
X307738D01*
X313670Y456538D01*
Y451500D01*
X313790Y450586D01*
X314143Y449735D01*
X314704Y449004D01*
X317670Y446038D01*
Y437500D01*
Y435735D01*
X316998Y435601D01*
X316402Y435203D01*
X316251Y434976D01*
X316076Y434942D01*
X315712Y434699D01*
X315712Y434699D01*
X304308Y423294D01*
X304100Y423335D01*
X303397Y423196D01*
X302802Y422798D01*
X302404Y422202D01*
X302265Y421500D01*
X302338Y421130D01*
X301916Y420530D01*
X289700D01*
X288786Y420410D01*
X287935Y420057D01*
X287204Y419496D01*
X283704Y415996D01*
X283143Y415265D01*
X282790Y414414D01*
X282670Y413500D01*
X282790Y412586D01*
X283143Y411735D01*
X283704Y411004D01*
X284435Y410443D01*
X285286Y410090D01*
X286200Y409970D01*
X287114Y410090D01*
X287526Y410261D01*
X287866Y409752D01*
X283907Y405793D01*
X283664Y405429D01*
X283578Y405000D01*
X283578Y405000D01*
Y389415D01*
X283402Y389298D01*
X283004Y388702D01*
X282865Y388000D01*
X283004Y387298D01*
X283402Y386702D01*
X283998Y386304D01*
X284700Y386165D01*
X285402Y386304D01*
X285998Y386702D01*
X286402D01*
X286998Y386304D01*
X287700Y386165D01*
X288402Y386304D01*
X288998Y386702D01*
X289089Y386839D01*
X289811D01*
X289902Y386702D01*
X290498Y386304D01*
X291200Y386165D01*
X291902Y386304D01*
X292498Y386702D01*
X292589Y386839D01*
X293311D01*
X293402Y386702D01*
X293998Y386304D01*
X294700Y386165D01*
X295402Y386304D01*
X295998Y386702D01*
X296396Y387298D01*
X296535Y388000D01*
X296396Y388702D01*
X295998Y389298D01*
X295821Y389415D01*
Y401608D01*
X296100Y402165D01*
X296802Y402304D01*
X297398Y402702D01*
X297796Y403298D01*
X297935Y404000D01*
X297796Y404702D01*
X297398Y405298D01*
X296802Y405696D01*
X296100Y405835D01*
X295563Y405728D01*
X295249Y406263D01*
X295892Y406906D01*
X296100Y406865D01*
X296802Y407004D01*
X297398Y407402D01*
X297796Y407998D01*
X297935Y408700D01*
X297796Y409402D01*
X297398Y409998D01*
X296802Y410396D01*
X296100Y410535D01*
X295398Y410396D01*
X294802Y409998D01*
X294404Y409402D01*
X294265Y408700D01*
X294306Y408492D01*
X292970Y407156D01*
X292304Y407339D01*
X291998Y407798D01*
X291402Y408196D01*
X290700Y408335D01*
X290417Y408279D01*
X290159Y408775D01*
X290547Y409195D01*
X290700Y409165D01*
X291402Y409304D01*
X291998Y409702D01*
X292396Y410298D01*
X292535Y411000D01*
X292396Y411702D01*
X291998Y412298D01*
X291688Y412504D01*
X291507Y413198D01*
X291524Y413281D01*
X291665Y413470D01*
X319738D01*
X337623Y395585D01*
X337393Y395030D01*
X303267D01*
X302353Y394910D01*
X301502Y394557D01*
X300771Y393996D01*
X300210Y393265D01*
X299857Y392414D01*
X299737Y391500D01*
X299857Y390586D01*
X300210Y389735D01*
X300771Y389004D01*
X301502Y388443D01*
X302353Y388090D01*
X303267Y387970D01*
X340700D01*
X341614Y388090D01*
X342465Y388443D01*
X343196Y389004D01*
X343700Y389508D01*
X348893Y384314D01*
X348968Y384134D01*
X349561Y383361D01*
X350334Y382768D01*
X351234Y382395D01*
X352200Y382268D01*
X353166Y382395D01*
X354066Y382768D01*
X354839Y383361D01*
X355432Y384134D01*
X355805Y385034D01*
X355932Y386000D01*
X355805Y386966D01*
X355432Y387866D01*
X354839Y388639D01*
X354066Y389232D01*
X353886Y389306D01*
X346196Y396996D01*
X346196Y396996D01*
X334826Y408366D01*
X334902Y409139D01*
X334998Y409202D01*
X335396Y409798D01*
X335535Y410500D01*
X335396Y411202D01*
X334998Y411798D01*
X334822Y411915D01*
Y426665D01*
X335100Y427150D01*
X335422Y427150D01*
X336569D01*
Y424298D01*
X336504Y424202D01*
X336365Y423500D01*
X336504Y422798D01*
X336902Y422202D01*
X337498Y421804D01*
X338200Y421665D01*
X338902Y421804D01*
X339498Y422202D01*
X339896Y422798D01*
X340035Y423500D01*
X339896Y424202D01*
X339831Y424298D01*
Y427150D01*
X341300D01*
Y430393D01*
Y434093D01*
X339831D01*
Y435500D01*
X339707Y436124D01*
X339353Y436654D01*
X338918Y437089D01*
X338896Y437202D01*
X338498Y437798D01*
X337902Y438196D01*
X337200Y438335D01*
X336498Y438196D01*
X335902Y437798D01*
X335504Y437202D01*
X335365Y436500D01*
X335504Y435798D01*
X335902Y435202D01*
X336498Y434804D01*
X336569Y434790D01*
Y434144D01*
X336492Y434093D01*
X335100D01*
Y433965D01*
X334500Y433783D01*
X334493Y433793D01*
X333994Y434292D01*
X334035Y434500D01*
X333896Y435202D01*
X333498Y435798D01*
X333361Y435889D01*
Y436611D01*
X333498Y436702D01*
X333896Y437298D01*
X334035Y438000D01*
X333896Y438702D01*
X333498Y439298D01*
X332902Y439696D01*
X332200Y439835D01*
X331498Y439696D01*
X330902Y439298D01*
X330504Y438702D01*
X330365Y438000D01*
X330406Y437792D01*
X328907Y436293D01*
X328664Y435929D01*
X328578Y435500D01*
X328578Y435500D01*
Y415398D01*
X328024Y415168D01*
X324730Y418462D01*
Y437500D01*
Y446751D01*
X330697Y452718D01*
X338399D01*
X338620Y452627D01*
X339456Y452517D01*
X340291Y452627D01*
X341070Y452949D01*
X341738Y453462D01*
X342251Y454130D01*
X342573Y454909D01*
X342684Y455744D01*
X342573Y456579D01*
X342251Y457358D01*
X341738Y458026D01*
X341070Y458539D01*
X340291Y458862D01*
X339456Y458972D01*
X338620Y458862D01*
X338399Y458770D01*
X329444D01*
X328661Y458667D01*
X327931Y458365D01*
X327305Y457884D01*
X327304Y457884D01*
X321557Y452136D01*
X320730Y452962D01*
Y458000D01*
X320610Y458914D01*
X320257Y459765D01*
X319696Y460496D01*
X311696Y468496D01*
X310965Y469057D01*
X310114Y469410D01*
X309200Y469530D01*
D02*
G37*
G36*
X403700Y445834D02*
X401700D01*
X400656Y445697D01*
X399683Y445294D01*
X398847Y444653D01*
X398206Y443817D01*
X397803Y442844D01*
X397731Y442300D01*
X403700D01*
Y445834D01*
D02*
G37*
G36*
X216700D02*
X214700D01*
Y442300D01*
X220669D01*
X220597Y442844D01*
X220194Y443817D01*
X219553Y444653D01*
X218717Y445294D01*
X217744Y445697D01*
X216700Y445834D01*
D02*
G37*
G36*
X403700Y441300D02*
X397731D01*
X397803Y440756D01*
X398206Y439783D01*
X398847Y438947D01*
X399683Y438306D01*
X400656Y437903D01*
X401700Y437766D01*
X403700D01*
Y441300D01*
D02*
G37*
G36*
X220669D02*
X214700D01*
Y437766D01*
X216700D01*
X217744Y437903D01*
X218717Y438306D01*
X219553Y438947D01*
X220194Y439783D01*
X220597Y440756D01*
X220669Y441300D01*
D02*
G37*
G36*
X216700Y425835D02*
X214700D01*
Y422300D01*
X220669D01*
X220597Y422844D01*
X220194Y423817D01*
X219553Y424653D01*
X218717Y425294D01*
X217744Y425697D01*
X216700Y425835D01*
D02*
G37*
G36*
X220669Y421300D02*
X214700D01*
Y417766D01*
X216700D01*
X217744Y417903D01*
X218717Y418306D01*
X219553Y418947D01*
X220194Y419783D01*
X220597Y420756D01*
X220669Y421300D01*
D02*
G37*
G36*
X403700Y415835D02*
X401700D01*
X400656Y415697D01*
X399683Y415294D01*
X398847Y414653D01*
X398206Y413817D01*
X397803Y412844D01*
X397731Y412300D01*
X403700D01*
Y415835D01*
D02*
G37*
G36*
Y411300D02*
X397731D01*
X397803Y410756D01*
X398206Y409783D01*
X398847Y408947D01*
X399683Y408306D01*
X400656Y407903D01*
X401700Y407765D01*
X403700D01*
Y411300D01*
D02*
G37*
G36*
Y395834D02*
X401700D01*
X400656Y395697D01*
X399683Y395294D01*
X398847Y394653D01*
X398206Y393817D01*
X397803Y392844D01*
X397731Y392300D01*
X403700D01*
Y395834D01*
D02*
G37*
G36*
Y391300D02*
X397731D01*
X397803Y390756D01*
X398206Y389783D01*
X398847Y388947D01*
X399683Y388306D01*
X400656Y387903D01*
X401700Y387766D01*
X403700D01*
Y391300D01*
D02*
G37*
G36*
Y385835D02*
X401700D01*
X400656Y385697D01*
X399683Y385294D01*
X398847Y384653D01*
X398206Y383817D01*
X397803Y382844D01*
X397731Y382300D01*
X403700D01*
Y385835D01*
D02*
G37*
G36*
Y381300D02*
X397731D01*
X397803Y380756D01*
X398206Y379783D01*
X398847Y378947D01*
X399683Y378306D01*
X400656Y377903D01*
X401700Y377765D01*
X403700D01*
Y381300D01*
D02*
G37*
G36*
X246200Y370335D02*
X245498Y370196D01*
X244902Y369798D01*
X244504Y369202D01*
X244365Y368500D01*
X244504Y367798D01*
X244902Y367202D01*
X245498Y366804D01*
X246200Y366665D01*
X246902Y366804D01*
X247498Y367202D01*
X247615Y367378D01*
X250235D01*
X253788Y363826D01*
X253406Y363360D01*
X253202Y363496D01*
X252500Y363635D01*
X251798Y363496D01*
X251202Y363098D01*
X251018Y362822D01*
X240415D01*
X240298Y362998D01*
X239702Y363396D01*
X239000Y363535D01*
X238298Y363396D01*
X237702Y362998D01*
X237304Y362402D01*
X237165Y361700D01*
X237304Y360998D01*
X237702Y360402D01*
X238298Y360004D01*
X239000Y359865D01*
X239702Y360004D01*
X240298Y360402D01*
X240415Y360578D01*
X251151D01*
X251202Y360502D01*
X251798Y360104D01*
X252500Y359965D01*
X253202Y360104D01*
X253798Y360502D01*
X254196Y361098D01*
X254335Y361800D01*
X254196Y362502D01*
X254060Y362706D01*
X254526Y363088D01*
X255079Y362535D01*
Y359915D01*
X254902Y359798D01*
X254504Y359202D01*
X254365Y358500D01*
X254504Y357798D01*
X254902Y357202D01*
X255498Y356804D01*
X256200Y356665D01*
X256902Y356804D01*
X257498Y357202D01*
X257896Y357798D01*
X258035Y358500D01*
X257896Y359202D01*
X257498Y359798D01*
X257322Y359915D01*
Y363000D01*
X257236Y363429D01*
X256993Y363793D01*
X256993Y363793D01*
X251493Y369293D01*
X251129Y369536D01*
X250700Y369622D01*
X250700Y369622D01*
X247615D01*
X247498Y369798D01*
X246902Y370196D01*
X246200Y370335D01*
D02*
G37*
G36*
X273700Y363335D02*
X272998Y363196D01*
X272402Y362798D01*
X272004Y362202D01*
X271865Y361500D01*
X271948Y361081D01*
X270607Y359740D01*
X270364Y359377D01*
X270279Y358947D01*
X270279Y358947D01*
Y358710D01*
X270102Y358592D01*
X269704Y357997D01*
X269565Y357295D01*
X269704Y356592D01*
X270102Y355997D01*
X270698Y355599D01*
X271400Y355459D01*
X272102Y355599D01*
X272698Y355997D01*
X273096Y356592D01*
X273235Y357295D01*
X273096Y357997D01*
X272698Y358592D01*
X272692Y358653D01*
X273704Y359666D01*
X274402Y359804D01*
X274998Y360202D01*
X275396Y360798D01*
X275535Y361500D01*
X275396Y362202D01*
X274998Y362798D01*
X274402Y363196D01*
X273700Y363335D01*
D02*
G37*
G36*
X313800Y334425D02*
Y332500D01*
X315725D01*
X315633Y332966D01*
X315085Y333785D01*
X314266Y334333D01*
X313800Y334425D01*
D02*
G37*
G36*
X312800D02*
X312334Y334333D01*
X311515Y333785D01*
X310967Y332966D01*
X310843Y332341D01*
X310231D01*
X310138Y332810D01*
X309679Y333497D01*
X308992Y333956D01*
X308182Y334117D01*
X307372Y333956D01*
X306685Y333497D01*
X306226Y332810D01*
X306065Y332000D01*
X306226Y331190D01*
X306661Y330539D01*
X306601Y330403D01*
X306588Y330378D01*
X306328Y330040D01*
X305623Y330180D01*
X304918Y330040D01*
X304658Y330378D01*
X304644Y330403D01*
X304585Y330539D01*
X305020Y331190D01*
X305181Y332000D01*
X305020Y332810D01*
X304561Y333497D01*
X303874Y333956D01*
X303064Y334117D01*
X302254Y333956D01*
X301567Y333497D01*
X301108Y332810D01*
X300947Y332000D01*
X301108Y331190D01*
X301567Y330503D01*
X302254Y330044D01*
X303064Y329883D01*
X303769Y330023D01*
X304029Y329685D01*
X304042Y329660D01*
X304102Y329524D01*
X303667Y328873D01*
X303506Y328063D01*
X303667Y327253D01*
X304126Y326566D01*
X304813Y326107D01*
X305623Y325946D01*
X306433Y326107D01*
X307120Y326566D01*
X307579Y327253D01*
X307740Y328063D01*
X307579Y328873D01*
X307144Y329524D01*
X307203Y329660D01*
X307217Y329685D01*
X307477Y330023D01*
X308182Y329883D01*
X308887Y330023D01*
X309147Y329685D01*
X309160Y329660D01*
X309220Y329524D01*
X308785Y328873D01*
X308624Y328063D01*
X308785Y327253D01*
X309244Y326566D01*
X309931Y326107D01*
X310741Y325946D01*
X311551Y326107D01*
X312238Y326566D01*
X312697Y327253D01*
X312858Y328063D01*
X312697Y328873D01*
X312612Y329000D01*
X312800Y329282D01*
Y332000D01*
Y334425D01*
D02*
G37*
G36*
X216700Y335835D02*
X214700D01*
Y332300D01*
X220669D01*
X220597Y332844D01*
X220194Y333817D01*
X219553Y334653D01*
X218717Y335294D01*
X217744Y335697D01*
X216700Y335835D01*
D02*
G37*
G36*
X322757Y335243D02*
Y331634D01*
X325251D01*
Y332315D01*
X325149Y333090D01*
X324850Y333812D01*
X324374Y334432D01*
X323754Y334908D01*
X323032Y335207D01*
X322757Y335243D01*
D02*
G37*
G36*
X321757D02*
X321482Y335207D01*
X320760Y334908D01*
X320140Y334432D01*
X319664Y333812D01*
X319365Y333090D01*
X319263Y332315D01*
Y331634D01*
X321757D01*
Y335243D01*
D02*
G37*
G36*
X294607D02*
Y331634D01*
X297101D01*
Y332315D01*
X296999Y333090D01*
X296700Y333812D01*
X296224Y334432D01*
X295604Y334908D01*
X294882Y335207D01*
X294607Y335243D01*
D02*
G37*
G36*
X293607D02*
X293332Y335207D01*
X292610Y334908D01*
X291990Y334432D01*
X291514Y333812D01*
X291215Y333090D01*
X291113Y332315D01*
Y331634D01*
X293607D01*
Y335243D01*
D02*
G37*
G36*
X315725Y331500D02*
X313800D01*
Y329575D01*
X314266Y329667D01*
X315085Y330215D01*
X315633Y331034D01*
X315725Y331500D01*
D02*
G37*
G36*
X345700Y347835D02*
X344998Y347696D01*
X344402Y347298D01*
X344004Y346702D01*
X343865Y346000D01*
X344004Y345298D01*
X344402Y344702D01*
X344579Y344585D01*
Y343965D01*
X336907Y336293D01*
X336664Y335929D01*
X336578Y335500D01*
X336578Y335500D01*
Y332415D01*
X336402Y332298D01*
X336004Y331702D01*
X335865Y331000D01*
X336004Y330298D01*
X336402Y329702D01*
X336998Y329304D01*
X337700Y329165D01*
X338402Y329304D01*
X338998Y329702D01*
X339396Y330298D01*
X339535Y331000D01*
X339396Y331702D01*
X338998Y332298D01*
X338822Y332415D01*
Y335035D01*
X346493Y342707D01*
X346493Y342707D01*
X346736Y343071D01*
X346822Y343500D01*
X346821Y343500D01*
Y344585D01*
X346998Y344702D01*
X347396Y345298D01*
X347535Y346000D01*
X347396Y346702D01*
X346998Y347298D01*
X346402Y347696D01*
X345700Y347835D01*
D02*
G37*
G36*
X220669Y331300D02*
X214700D01*
Y327765D01*
X216700D01*
X217744Y327903D01*
X218717Y328306D01*
X219553Y328947D01*
X220194Y329783D01*
X220597Y330756D01*
X220669Y331300D01*
D02*
G37*
G36*
X325251Y330634D02*
X322757D01*
Y327025D01*
X323032Y327061D01*
X323754Y327360D01*
X324374Y327836D01*
X324850Y328456D01*
X325149Y329178D01*
X325251Y329953D01*
Y330634D01*
D02*
G37*
G36*
X321757D02*
X319263D01*
Y329953D01*
X319365Y329178D01*
X319664Y328456D01*
X320140Y327836D01*
X320760Y327360D01*
X321482Y327061D01*
X321757Y327025D01*
Y330634D01*
D02*
G37*
G36*
X297101D02*
X294607D01*
Y327025D01*
X294882Y327061D01*
X295604Y327360D01*
X296224Y327836D01*
X296700Y328456D01*
X296999Y329178D01*
X297101Y329953D01*
Y330634D01*
D02*
G37*
G36*
X293607D02*
X291113D01*
Y329953D01*
X291215Y329178D01*
X291514Y328456D01*
X291990Y327836D01*
X292610Y327360D01*
X293332Y327061D01*
X293607Y327025D01*
Y330634D01*
D02*
G37*
G36*
X403700Y325834D02*
X401700D01*
X400656Y325697D01*
X399683Y325294D01*
X398847Y324653D01*
X398206Y323817D01*
X397803Y322844D01*
X397731Y322300D01*
X403700D01*
Y325834D01*
D02*
G37*
G36*
X216700D02*
X214700D01*
Y322300D01*
X220669D01*
X220597Y322844D01*
X220194Y323817D01*
X219553Y324653D01*
X218717Y325294D01*
X217744Y325697D01*
X216700Y325834D01*
D02*
G37*
G36*
X403700Y321300D02*
X397731D01*
X397803Y320756D01*
X398206Y319783D01*
X398847Y318947D01*
X399683Y318306D01*
X400656Y317903D01*
X401700Y317765D01*
X403700D01*
Y321300D01*
D02*
G37*
G36*
X220669D02*
X214700D01*
Y317765D01*
X216700D01*
X217744Y317903D01*
X218717Y318306D01*
X219553Y318947D01*
X220194Y319783D01*
X220597Y320756D01*
X220669Y321300D01*
D02*
G37*
G36*
X403700Y315834D02*
X401700D01*
X400656Y315697D01*
X399683Y315294D01*
X398847Y314653D01*
X398206Y313817D01*
X397803Y312844D01*
X397731Y312300D01*
X403700D01*
Y315834D01*
D02*
G37*
G36*
Y311300D02*
X397731D01*
X397803Y310756D01*
X398206Y309783D01*
X398847Y308947D01*
X399683Y308306D01*
X400656Y307903D01*
X401700Y307766D01*
X403700D01*
Y311300D01*
D02*
G37*
G36*
X261200Y305835D02*
X260498Y305696D01*
X259902Y305298D01*
X259504Y304702D01*
X259365Y304000D01*
X259504Y303298D01*
X259902Y302702D01*
X260498Y302304D01*
X261200Y302165D01*
X261408Y302206D01*
X270907Y292707D01*
X270907Y292707D01*
X271271Y292464D01*
X271700Y292378D01*
X272129Y292464D01*
X272493Y292707D01*
X272665Y292879D01*
X279918D01*
X280036Y292702D01*
X280631Y292304D01*
X281333Y292165D01*
X282036Y292304D01*
X282631Y292702D01*
X283029Y293298D01*
X283169Y294000D01*
X283029Y294702D01*
X282631Y295298D01*
X282036Y295696D01*
X281333Y295835D01*
X280631Y295696D01*
X280036Y295298D01*
X279918Y295122D01*
X272200D01*
X272200Y295122D01*
X271771Y295036D01*
X271758Y295028D01*
X262994Y303792D01*
X263035Y304000D01*
X262896Y304702D01*
X262498Y305298D01*
X261902Y305696D01*
X261200Y305835D01*
D02*
G37*
G36*
X304200Y304941D02*
X302144Y304779D01*
X300139Y304297D01*
X298234Y303508D01*
X296476Y302431D01*
X294908Y301092D01*
X293569Y299524D01*
X292492Y297766D01*
X291703Y295861D01*
X291221Y293856D01*
X291059Y291800D01*
X291221Y289744D01*
X291703Y287739D01*
X292492Y285834D01*
X293569Y284076D01*
X294908Y282508D01*
X296476Y281169D01*
X298234Y280092D01*
X300139Y279303D01*
X302144Y278821D01*
X304200Y278660D01*
X306256Y278821D01*
X308261Y279303D01*
X310166Y280092D01*
X311924Y281169D01*
X313492Y282508D01*
X314831Y284076D01*
X315908Y285834D01*
X316697Y287739D01*
X317179Y289744D01*
X317340Y291800D01*
X317179Y293856D01*
X316697Y295861D01*
X315908Y297766D01*
X314831Y299524D01*
X313492Y301092D01*
X311924Y302431D01*
X310166Y303508D01*
X308261Y304297D01*
X306256Y304779D01*
X304200Y304941D01*
D02*
G37*
G36*
X304700Y268269D02*
Y262300D01*
X308235D01*
Y264300D01*
X308097Y265344D01*
X307694Y266317D01*
X307053Y267153D01*
X306217Y267794D01*
X305244Y268197D01*
X304700Y268269D01*
D02*
G37*
G36*
X294700D02*
Y262300D01*
X298235D01*
Y264300D01*
X298097Y265344D01*
X297694Y266317D01*
X297053Y267153D01*
X296217Y267794D01*
X295244Y268197D01*
X294700Y268269D01*
D02*
G37*
G36*
X303700D02*
X303156Y268197D01*
X302183Y267794D01*
X301347Y267153D01*
X300706Y266317D01*
X300303Y265344D01*
X300166Y264300D01*
Y262300D01*
X303700D01*
Y268269D01*
D02*
G37*
G36*
X293700D02*
X293156Y268197D01*
X292183Y267794D01*
X291347Y267153D01*
X290706Y266317D01*
X290303Y265344D01*
X290165Y264300D01*
Y262300D01*
X293700D01*
Y268269D01*
D02*
G37*
%LPD*%
G36*
X316998Y429210D02*
X317670Y429076D01*
Y420530D01*
X309536D01*
X309114Y421130D01*
X309188Y421500D01*
X309146Y421708D01*
X316788Y429350D01*
X316998Y429210D01*
D02*
G37*
%LPC*%
G36*
X197700Y475800D02*
X191700D01*
Y472300D01*
X197700D01*
Y475800D01*
D02*
G37*
G36*
Y471300D02*
X191700D01*
Y467800D01*
X197700D01*
Y471300D01*
D02*
G37*
G36*
X10700Y465835D02*
X8700D01*
Y462300D01*
X14669D01*
X14597Y462844D01*
X14194Y463817D01*
X13553Y464653D01*
X12717Y465294D01*
X11744Y465697D01*
X10700Y465835D01*
D02*
G37*
G36*
X14669Y461300D02*
X8700D01*
Y457765D01*
X10700D01*
X11744Y457903D01*
X12717Y458306D01*
X13553Y458947D01*
X14194Y459783D01*
X14597Y460756D01*
X14669Y461300D01*
D02*
G37*
G36*
X103200Y469530D02*
X97700D01*
X96786Y469410D01*
X95935Y469057D01*
X95204Y468496D01*
X94643Y467765D01*
X94290Y466914D01*
X94170Y466000D01*
X94290Y465086D01*
X94643Y464235D01*
X95204Y463504D01*
X95935Y462943D01*
X96786Y462590D01*
X97700Y462470D01*
X101738D01*
X107670Y456538D01*
Y451500D01*
X107790Y450586D01*
X108143Y449735D01*
X108704Y449004D01*
X111670Y446038D01*
Y437500D01*
Y435735D01*
X110998Y435601D01*
X110402Y435203D01*
X110251Y434976D01*
X110076Y434942D01*
X109712Y434699D01*
X109712Y434699D01*
X98308Y423294D01*
X98100Y423335D01*
X97398Y423196D01*
X96802Y422798D01*
X96404Y422202D01*
X96265Y421500D01*
X96338Y421130D01*
X95916Y420530D01*
X83700D01*
X82786Y420410D01*
X81935Y420057D01*
X81204Y419496D01*
X77704Y415996D01*
X77143Y415265D01*
X76790Y414414D01*
X76670Y413500D01*
X76790Y412586D01*
X77143Y411735D01*
X77704Y411004D01*
X78435Y410443D01*
X79286Y410090D01*
X80200Y409970D01*
X81114Y410090D01*
X81526Y410261D01*
X81866Y409752D01*
X77907Y405793D01*
X77664Y405429D01*
X77578Y405000D01*
X77578Y405000D01*
Y389415D01*
X77402Y389298D01*
X77004Y388702D01*
X76865Y388000D01*
X77004Y387298D01*
X77402Y386702D01*
X77998Y386304D01*
X78700Y386165D01*
X79402Y386304D01*
X79998Y386702D01*
X80402D01*
X80998Y386304D01*
X81700Y386165D01*
X82402Y386304D01*
X82998Y386702D01*
X83089Y386839D01*
X83811D01*
X83902Y386702D01*
X84498Y386304D01*
X85200Y386165D01*
X85902Y386304D01*
X86498Y386702D01*
X86589Y386839D01*
X87311D01*
X87402Y386702D01*
X87998Y386304D01*
X88700Y386165D01*
X89402Y386304D01*
X89998Y386702D01*
X90396Y387298D01*
X90535Y388000D01*
X90396Y388702D01*
X89998Y389298D01*
X89822Y389415D01*
Y401608D01*
X90100Y402165D01*
X90802Y402304D01*
X91398Y402702D01*
X91796Y403298D01*
X91935Y404000D01*
X91796Y404702D01*
X91398Y405298D01*
X90802Y405696D01*
X90100Y405835D01*
X89563Y405728D01*
X89249Y406263D01*
X89892Y406906D01*
X90100Y406865D01*
X90802Y407004D01*
X91398Y407402D01*
X91796Y407998D01*
X91935Y408700D01*
X91796Y409402D01*
X91398Y409998D01*
X90802Y410396D01*
X90100Y410535D01*
X89398Y410396D01*
X88802Y409998D01*
X88404Y409402D01*
X88265Y408700D01*
X88306Y408492D01*
X86970Y407156D01*
X86304Y407339D01*
X85998Y407798D01*
X85402Y408196D01*
X84700Y408335D01*
X84417Y408279D01*
X84159Y408775D01*
X84548Y409195D01*
X84700Y409165D01*
X85402Y409304D01*
X85998Y409702D01*
X86396Y410298D01*
X86535Y411000D01*
X86396Y411702D01*
X85998Y412298D01*
X85688Y412504D01*
X85507Y413198D01*
X85524Y413281D01*
X85664Y413470D01*
X113738D01*
X131623Y395585D01*
X131393Y395030D01*
X97267D01*
X96353Y394910D01*
X95502Y394557D01*
X94771Y393996D01*
X94210Y393265D01*
X93857Y392414D01*
X93737Y391500D01*
X93857Y390586D01*
X94210Y389735D01*
X94771Y389004D01*
X95502Y388443D01*
X96353Y388090D01*
X97267Y387970D01*
X134700D01*
X135614Y388090D01*
X136465Y388443D01*
X137196Y389004D01*
X137700Y389508D01*
X142894Y384314D01*
X142968Y384134D01*
X143561Y383361D01*
X144334Y382768D01*
X145234Y382395D01*
X146200Y382268D01*
X147166Y382395D01*
X148066Y382768D01*
X148839Y383361D01*
X149432Y384134D01*
X149805Y385034D01*
X149932Y386000D01*
X149805Y386966D01*
X149432Y387866D01*
X148839Y388639D01*
X148066Y389232D01*
X147886Y389306D01*
X140196Y396996D01*
X140196Y396996D01*
X128826Y408366D01*
X128902Y409139D01*
X128998Y409202D01*
X129396Y409798D01*
X129535Y410500D01*
X129396Y411202D01*
X128998Y411798D01*
X128822Y411915D01*
Y426665D01*
X129100Y427150D01*
X129422Y427150D01*
X130569D01*
Y424298D01*
X130504Y424202D01*
X130365Y423500D01*
X130504Y422798D01*
X130902Y422202D01*
X131498Y421804D01*
X132200Y421665D01*
X132902Y421804D01*
X133498Y422202D01*
X133896Y422798D01*
X134035Y423500D01*
X133896Y424202D01*
X133831Y424298D01*
Y427150D01*
X135300D01*
Y430393D01*
Y434093D01*
X133831D01*
Y435500D01*
X133707Y436124D01*
X133353Y436654D01*
X132918Y437089D01*
X132896Y437202D01*
X132498Y437798D01*
X131902Y438196D01*
X131200Y438335D01*
X130498Y438196D01*
X129902Y437798D01*
X129504Y437202D01*
X129365Y436500D01*
X129504Y435798D01*
X129902Y435202D01*
X130498Y434804D01*
X130569Y434790D01*
Y434144D01*
X130492Y434093D01*
X129100D01*
Y433965D01*
X128500Y433783D01*
X128493Y433793D01*
X127994Y434292D01*
X128035Y434500D01*
X127896Y435202D01*
X127498Y435798D01*
X127361Y435889D01*
Y436611D01*
X127498Y436702D01*
X127896Y437298D01*
X128035Y438000D01*
X127896Y438702D01*
X127498Y439298D01*
X126902Y439696D01*
X126200Y439835D01*
X125498Y439696D01*
X124902Y439298D01*
X124504Y438702D01*
X124365Y438000D01*
X124406Y437792D01*
X122907Y436293D01*
X122664Y435929D01*
X122578Y435500D01*
X122578Y435500D01*
Y415398D01*
X122024Y415168D01*
X118730Y418462D01*
Y437500D01*
Y446751D01*
X124697Y452718D01*
X132399D01*
X132621Y452627D01*
X133456Y452517D01*
X134291Y452627D01*
X135070Y452949D01*
X135738Y453462D01*
X136251Y454130D01*
X136574Y454909D01*
X136683Y455744D01*
X136574Y456579D01*
X136251Y457358D01*
X135738Y458026D01*
X135070Y458539D01*
X134291Y458862D01*
X133456Y458972D01*
X132621Y458862D01*
X132399Y458770D01*
X123444D01*
X122661Y458667D01*
X121931Y458365D01*
X121305Y457884D01*
X121304Y457884D01*
X115557Y452136D01*
X114730Y452962D01*
Y458000D01*
X114610Y458914D01*
X114257Y459765D01*
X113696Y460496D01*
X105696Y468496D01*
X104965Y469057D01*
X104114Y469410D01*
X103200Y469530D01*
D02*
G37*
G36*
X197700Y445834D02*
X195700D01*
X194656Y445697D01*
X193683Y445294D01*
X192847Y444653D01*
X192206Y443817D01*
X191803Y442844D01*
X191731Y442300D01*
X197700D01*
Y445834D01*
D02*
G37*
G36*
X10700D02*
X8700D01*
Y442300D01*
X14669D01*
X14597Y442844D01*
X14194Y443817D01*
X13553Y444653D01*
X12717Y445294D01*
X11744Y445697D01*
X10700Y445834D01*
D02*
G37*
G36*
X197700Y441300D02*
X191731D01*
X191803Y440756D01*
X192206Y439783D01*
X192847Y438947D01*
X193683Y438306D01*
X194656Y437903D01*
X195700Y437766D01*
X197700D01*
Y441300D01*
D02*
G37*
G36*
X14669D02*
X8700D01*
Y437766D01*
X10700D01*
X11744Y437903D01*
X12717Y438306D01*
X13553Y438947D01*
X14194Y439783D01*
X14597Y440756D01*
X14669Y441300D01*
D02*
G37*
G36*
X10700Y425835D02*
X8700D01*
Y422300D01*
X14669D01*
X14597Y422844D01*
X14194Y423817D01*
X13553Y424653D01*
X12717Y425294D01*
X11744Y425697D01*
X10700Y425835D01*
D02*
G37*
G36*
X14669Y421300D02*
X8700D01*
Y417766D01*
X10700D01*
X11744Y417903D01*
X12717Y418306D01*
X13553Y418947D01*
X14194Y419783D01*
X14597Y420756D01*
X14669Y421300D01*
D02*
G37*
G36*
X197700Y415835D02*
X195700D01*
X194656Y415697D01*
X193683Y415294D01*
X192847Y414653D01*
X192206Y413817D01*
X191803Y412844D01*
X191731Y412300D01*
X197700D01*
Y415835D01*
D02*
G37*
G36*
Y411300D02*
X191731D01*
X191803Y410756D01*
X192206Y409783D01*
X192847Y408947D01*
X193683Y408306D01*
X194656Y407903D01*
X195700Y407765D01*
X197700D01*
Y411300D01*
D02*
G37*
G36*
Y395834D02*
X195700D01*
X194656Y395697D01*
X193683Y395294D01*
X192847Y394653D01*
X192206Y393817D01*
X191803Y392844D01*
X191731Y392300D01*
X197700D01*
Y395834D01*
D02*
G37*
G36*
Y391300D02*
X191731D01*
X191803Y390756D01*
X192206Y389783D01*
X192847Y388947D01*
X193683Y388306D01*
X194656Y387903D01*
X195700Y387766D01*
X197700D01*
Y391300D01*
D02*
G37*
G36*
Y385835D02*
X195700D01*
X194656Y385697D01*
X193683Y385294D01*
X192847Y384653D01*
X192206Y383817D01*
X191803Y382844D01*
X191731Y382300D01*
X197700D01*
Y385835D01*
D02*
G37*
G36*
Y381300D02*
X191731D01*
X191803Y380756D01*
X192206Y379783D01*
X192847Y378947D01*
X193683Y378306D01*
X194656Y377903D01*
X195700Y377765D01*
X197700D01*
Y381300D01*
D02*
G37*
G36*
X40200Y370335D02*
X39498Y370196D01*
X38902Y369798D01*
X38504Y369202D01*
X38365Y368500D01*
X38504Y367798D01*
X38902Y367202D01*
X39498Y366804D01*
X40200Y366665D01*
X40902Y366804D01*
X41498Y367202D01*
X41615Y367378D01*
X44235D01*
X47788Y363826D01*
X47406Y363360D01*
X47202Y363496D01*
X46500Y363635D01*
X45798Y363496D01*
X45202Y363098D01*
X45018Y362822D01*
X34415D01*
X34298Y362998D01*
X33702Y363396D01*
X33000Y363535D01*
X32298Y363396D01*
X31702Y362998D01*
X31304Y362402D01*
X31165Y361700D01*
X31304Y360998D01*
X31702Y360402D01*
X32298Y360004D01*
X33000Y359865D01*
X33702Y360004D01*
X34298Y360402D01*
X34415Y360578D01*
X45151D01*
X45202Y360502D01*
X45798Y360104D01*
X46500Y359965D01*
X47202Y360104D01*
X47798Y360502D01*
X48196Y361098D01*
X48335Y361800D01*
X48196Y362502D01*
X48060Y362706D01*
X48526Y363088D01*
X49078Y362535D01*
Y359915D01*
X48902Y359798D01*
X48504Y359202D01*
X48365Y358500D01*
X48504Y357798D01*
X48902Y357202D01*
X49498Y356804D01*
X50200Y356665D01*
X50902Y356804D01*
X51498Y357202D01*
X51896Y357798D01*
X52035Y358500D01*
X51896Y359202D01*
X51498Y359798D01*
X51322Y359915D01*
Y363000D01*
X51236Y363429D01*
X50993Y363793D01*
X50993Y363793D01*
X45493Y369293D01*
X45129Y369536D01*
X44700Y369622D01*
X44700Y369622D01*
X41615D01*
X41498Y369798D01*
X40902Y370196D01*
X40200Y370335D01*
D02*
G37*
G36*
X67700Y363335D02*
X66998Y363196D01*
X66402Y362798D01*
X66004Y362202D01*
X65865Y361500D01*
X65948Y361081D01*
X64607Y359740D01*
X64364Y359377D01*
X64278Y358947D01*
X64279Y358947D01*
Y358710D01*
X64102Y358592D01*
X63704Y357997D01*
X63565Y357295D01*
X63704Y356592D01*
X64102Y355997D01*
X64698Y355599D01*
X65400Y355459D01*
X66102Y355599D01*
X66698Y355997D01*
X67096Y356592D01*
X67235Y357295D01*
X67096Y357997D01*
X66698Y358592D01*
X66692Y358653D01*
X67704Y359666D01*
X68402Y359804D01*
X68998Y360202D01*
X69396Y360798D01*
X69535Y361500D01*
X69396Y362202D01*
X68998Y362798D01*
X68402Y363196D01*
X67700Y363335D01*
D02*
G37*
G36*
X107800Y334425D02*
Y332500D01*
X109725D01*
X109633Y332966D01*
X109085Y333785D01*
X108266Y334333D01*
X107800Y334425D01*
D02*
G37*
G36*
X106800D02*
X106334Y334333D01*
X105515Y333785D01*
X104967Y332966D01*
X104843Y332341D01*
X104231D01*
X104138Y332810D01*
X103679Y333497D01*
X102992Y333956D01*
X102182Y334117D01*
X101372Y333956D01*
X100685Y333497D01*
X100226Y332810D01*
X100065Y332000D01*
X100226Y331190D01*
X100661Y330539D01*
X100601Y330403D01*
X100588Y330378D01*
X100328Y330040D01*
X99623Y330180D01*
X98918Y330040D01*
X98658Y330378D01*
X98644Y330403D01*
X98585Y330539D01*
X99020Y331190D01*
X99181Y332000D01*
X99020Y332810D01*
X98561Y333497D01*
X97874Y333956D01*
X97064Y334117D01*
X96254Y333956D01*
X95567Y333497D01*
X95108Y332810D01*
X94947Y332000D01*
X95108Y331190D01*
X95567Y330503D01*
X96254Y330044D01*
X97064Y329883D01*
X97769Y330023D01*
X98029Y329685D01*
X98042Y329660D01*
X98102Y329524D01*
X97667Y328873D01*
X97506Y328063D01*
X97667Y327253D01*
X98126Y326566D01*
X98813Y326107D01*
X99623Y325946D01*
X100433Y326107D01*
X101120Y326566D01*
X101579Y327253D01*
X101740Y328063D01*
X101579Y328873D01*
X101144Y329524D01*
X101203Y329660D01*
X101217Y329685D01*
X101477Y330023D01*
X102182Y329883D01*
X102887Y330023D01*
X103147Y329685D01*
X103160Y329660D01*
X103220Y329524D01*
X102785Y328873D01*
X102624Y328063D01*
X102785Y327253D01*
X103244Y326566D01*
X103931Y326107D01*
X104741Y325946D01*
X105551Y326107D01*
X106238Y326566D01*
X106697Y327253D01*
X106858Y328063D01*
X106697Y328873D01*
X106612Y329000D01*
X106800Y329282D01*
Y332000D01*
Y334425D01*
D02*
G37*
G36*
X10700Y335835D02*
X8700D01*
Y332300D01*
X14669D01*
X14597Y332844D01*
X14194Y333817D01*
X13553Y334653D01*
X12717Y335294D01*
X11744Y335697D01*
X10700Y335835D01*
D02*
G37*
G36*
X116757Y335243D02*
Y331634D01*
X119251D01*
Y332315D01*
X119149Y333090D01*
X118850Y333812D01*
X118374Y334432D01*
X117754Y334908D01*
X117032Y335207D01*
X116757Y335243D01*
D02*
G37*
G36*
X115757D02*
X115482Y335207D01*
X114760Y334908D01*
X114139Y334432D01*
X113664Y333812D01*
X113365Y333090D01*
X113263Y332315D01*
Y331634D01*
X115757D01*
Y335243D01*
D02*
G37*
G36*
X88607D02*
Y331634D01*
X91101D01*
Y332315D01*
X90999Y333090D01*
X90700Y333812D01*
X90224Y334432D01*
X89604Y334908D01*
X88882Y335207D01*
X88607Y335243D01*
D02*
G37*
G36*
X87607D02*
X87332Y335207D01*
X86610Y334908D01*
X85990Y334432D01*
X85514Y333812D01*
X85215Y333090D01*
X85113Y332315D01*
Y331634D01*
X87607D01*
Y335243D01*
D02*
G37*
G36*
X109725Y331500D02*
X107800D01*
Y329575D01*
X108266Y329667D01*
X109085Y330215D01*
X109633Y331034D01*
X109725Y331500D01*
D02*
G37*
G36*
X139700Y347835D02*
X138998Y347696D01*
X138402Y347298D01*
X138004Y346702D01*
X137865Y346000D01*
X138004Y345298D01*
X138402Y344702D01*
X138578Y344585D01*
Y343965D01*
X130907Y336293D01*
X130664Y335929D01*
X130578Y335500D01*
X130578Y335500D01*
Y332415D01*
X130402Y332298D01*
X130004Y331702D01*
X129865Y331000D01*
X130004Y330298D01*
X130402Y329702D01*
X130998Y329304D01*
X131700Y329165D01*
X132402Y329304D01*
X132998Y329702D01*
X133396Y330298D01*
X133535Y331000D01*
X133396Y331702D01*
X132998Y332298D01*
X132822Y332415D01*
Y335035D01*
X140493Y342707D01*
X140493Y342707D01*
X140736Y343071D01*
X140822Y343500D01*
X140822Y343500D01*
Y344585D01*
X140998Y344702D01*
X141396Y345298D01*
X141535Y346000D01*
X141396Y346702D01*
X140998Y347298D01*
X140402Y347696D01*
X139700Y347835D01*
D02*
G37*
G36*
X14669Y331300D02*
X8700D01*
Y327765D01*
X10700D01*
X11744Y327903D01*
X12717Y328306D01*
X13553Y328947D01*
X14194Y329783D01*
X14597Y330756D01*
X14669Y331300D01*
D02*
G37*
G36*
X119251Y330634D02*
X116757D01*
Y327025D01*
X117032Y327061D01*
X117754Y327360D01*
X118374Y327836D01*
X118850Y328456D01*
X119149Y329178D01*
X119251Y329953D01*
Y330634D01*
D02*
G37*
G36*
X115757D02*
X113263D01*
Y329953D01*
X113365Y329178D01*
X113664Y328456D01*
X114139Y327836D01*
X114760Y327360D01*
X115482Y327061D01*
X115757Y327025D01*
Y330634D01*
D02*
G37*
G36*
X91101D02*
X88607D01*
Y327025D01*
X88882Y327061D01*
X89604Y327360D01*
X90224Y327836D01*
X90700Y328456D01*
X90999Y329178D01*
X91101Y329953D01*
Y330634D01*
D02*
G37*
G36*
X87607D02*
X85113D01*
Y329953D01*
X85215Y329178D01*
X85514Y328456D01*
X85990Y327836D01*
X86610Y327360D01*
X87332Y327061D01*
X87607Y327025D01*
Y330634D01*
D02*
G37*
G36*
X197700Y325834D02*
X195700D01*
X194656Y325697D01*
X193683Y325294D01*
X192847Y324653D01*
X192206Y323817D01*
X191803Y322844D01*
X191731Y322300D01*
X197700D01*
Y325834D01*
D02*
G37*
G36*
X10700D02*
X8700D01*
Y322300D01*
X14669D01*
X14597Y322844D01*
X14194Y323817D01*
X13553Y324653D01*
X12717Y325294D01*
X11744Y325697D01*
X10700Y325834D01*
D02*
G37*
G36*
X197700Y321300D02*
X191731D01*
X191803Y320756D01*
X192206Y319783D01*
X192847Y318947D01*
X193683Y318306D01*
X194656Y317903D01*
X195700Y317765D01*
X197700D01*
Y321300D01*
D02*
G37*
G36*
X14669D02*
X8700D01*
Y317765D01*
X10700D01*
X11744Y317903D01*
X12717Y318306D01*
X13553Y318947D01*
X14194Y319783D01*
X14597Y320756D01*
X14669Y321300D01*
D02*
G37*
G36*
X197700Y315834D02*
X195700D01*
X194656Y315697D01*
X193683Y315294D01*
X192847Y314653D01*
X192206Y313817D01*
X191803Y312844D01*
X191731Y312300D01*
X197700D01*
Y315834D01*
D02*
G37*
G36*
Y311300D02*
X191731D01*
X191803Y310756D01*
X192206Y309783D01*
X192847Y308947D01*
X193683Y308306D01*
X194656Y307903D01*
X195700Y307766D01*
X197700D01*
Y311300D01*
D02*
G37*
G36*
X55200Y305835D02*
X54498Y305696D01*
X53902Y305298D01*
X53504Y304702D01*
X53365Y304000D01*
X53504Y303298D01*
X53902Y302702D01*
X54498Y302304D01*
X55200Y302165D01*
X55408Y302206D01*
X64907Y292707D01*
X64907Y292707D01*
X65271Y292464D01*
X65700Y292378D01*
X66129Y292464D01*
X66493Y292707D01*
X66665Y292879D01*
X73918D01*
X74036Y292702D01*
X74631Y292304D01*
X75333Y292165D01*
X76036Y292304D01*
X76631Y292702D01*
X77029Y293298D01*
X77169Y294000D01*
X77029Y294702D01*
X76631Y295298D01*
X76036Y295696D01*
X75333Y295835D01*
X74631Y295696D01*
X74036Y295298D01*
X73918Y295122D01*
X66200D01*
X66200Y295122D01*
X65771Y295036D01*
X65758Y295028D01*
X56994Y303792D01*
X57035Y304000D01*
X56896Y304702D01*
X56498Y305298D01*
X55902Y305696D01*
X55200Y305835D01*
D02*
G37*
G36*
X98200Y304941D02*
X96144Y304779D01*
X94139Y304297D01*
X92234Y303508D01*
X90476Y302431D01*
X88908Y301092D01*
X87569Y299524D01*
X86492Y297766D01*
X85703Y295861D01*
X85221Y293856D01*
X85059Y291800D01*
X85221Y289744D01*
X85703Y287739D01*
X86492Y285834D01*
X87569Y284076D01*
X88908Y282508D01*
X90476Y281169D01*
X92234Y280092D01*
X94139Y279303D01*
X96144Y278821D01*
X98200Y278660D01*
X100256Y278821D01*
X102261Y279303D01*
X104166Y280092D01*
X105924Y281169D01*
X107492Y282508D01*
X108831Y284076D01*
X109908Y285834D01*
X110697Y287739D01*
X111179Y289744D01*
X111340Y291800D01*
X111179Y293856D01*
X110697Y295861D01*
X109908Y297766D01*
X108831Y299524D01*
X107492Y301092D01*
X105924Y302431D01*
X104166Y303508D01*
X102261Y304297D01*
X100256Y304779D01*
X98200Y304941D01*
D02*
G37*
G36*
X98700Y268269D02*
Y262300D01*
X102234D01*
Y264300D01*
X102097Y265344D01*
X101694Y266317D01*
X101053Y267153D01*
X100217Y267794D01*
X99244Y268197D01*
X98700Y268269D01*
D02*
G37*
G36*
X88700D02*
Y262300D01*
X92234D01*
Y264300D01*
X92097Y265344D01*
X91694Y266317D01*
X91053Y267153D01*
X90217Y267794D01*
X89244Y268197D01*
X88700Y268269D01*
D02*
G37*
G36*
X97700D02*
X97156Y268197D01*
X96183Y267794D01*
X95347Y267153D01*
X94706Y266317D01*
X94303Y265344D01*
X94165Y264300D01*
Y262300D01*
X97700D01*
Y268269D01*
D02*
G37*
G36*
X87700D02*
X87156Y268197D01*
X86183Y267794D01*
X85347Y267153D01*
X84706Y266317D01*
X84303Y265344D01*
X84166Y264300D01*
Y262300D01*
X87700D01*
Y268269D01*
D02*
G37*
%LPD*%
G36*
X110998Y429210D02*
X111670Y429076D01*
Y420530D01*
X103536D01*
X103114Y421130D01*
X103188Y421500D01*
X103146Y421708D01*
X110788Y429350D01*
X110998Y429210D01*
D02*
G37*
%LPC*%
G36*
X218200Y268300D02*
X214700D01*
Y262300D01*
X218200D01*
Y268300D01*
D02*
G37*
G36*
X213700D02*
X210200D01*
Y262300D01*
X213700D01*
Y268300D01*
D02*
G37*
G36*
X12200D02*
X8700D01*
Y262300D01*
X12200D01*
Y268300D01*
D02*
G37*
G36*
X7700D02*
X4200D01*
Y262300D01*
X7700D01*
Y268300D01*
D02*
G37*
G36*
X403700Y221800D02*
X397700D01*
Y218300D01*
X403700D01*
Y221800D01*
D02*
G37*
G36*
Y217300D02*
X397700D01*
Y213800D01*
X403700D01*
Y217300D01*
D02*
G37*
G36*
X216700Y211835D02*
X214700D01*
Y208300D01*
X220669D01*
X220597Y208844D01*
X220194Y209817D01*
X219553Y210653D01*
X218717Y211294D01*
X217744Y211697D01*
X216700Y211835D01*
D02*
G37*
G36*
X220669Y207300D02*
X214700D01*
Y203766D01*
X216700D01*
X217744Y203903D01*
X218717Y204306D01*
X219553Y204947D01*
X220194Y205783D01*
X220597Y206756D01*
X220669Y207300D01*
D02*
G37*
G36*
X309200Y215530D02*
X303700D01*
X302786Y215410D01*
X301935Y215057D01*
X301204Y214496D01*
X300643Y213765D01*
X300290Y212914D01*
X300170Y212000D01*
X300290Y211086D01*
X300643Y210235D01*
X301204Y209504D01*
X301935Y208943D01*
X302786Y208590D01*
X303700Y208470D01*
X307738D01*
X313670Y202538D01*
Y197500D01*
X313790Y196586D01*
X314143Y195735D01*
X314704Y195004D01*
X317670Y192038D01*
Y183500D01*
Y181735D01*
X316998Y181601D01*
X316402Y181203D01*
X316251Y180976D01*
X316076Y180942D01*
X315712Y180699D01*
X315712Y180699D01*
X304308Y169294D01*
X304100Y169335D01*
X303397Y169196D01*
X302802Y168798D01*
X302404Y168202D01*
X302265Y167500D01*
X302338Y167130D01*
X301916Y166530D01*
X289700D01*
X288786Y166410D01*
X287935Y166057D01*
X287204Y165496D01*
X283704Y161996D01*
X283143Y161265D01*
X282790Y160414D01*
X282670Y159500D01*
X282790Y158586D01*
X283143Y157735D01*
X283704Y157004D01*
X284435Y156443D01*
X285286Y156090D01*
X286200Y155970D01*
X287114Y156090D01*
X287526Y156261D01*
X287866Y155752D01*
X283907Y151793D01*
X283664Y151429D01*
X283578Y151000D01*
X283578Y151000D01*
Y135415D01*
X283402Y135298D01*
X283004Y134702D01*
X282865Y134000D01*
X283004Y133298D01*
X283402Y132702D01*
X283998Y132304D01*
X284700Y132165D01*
X285402Y132304D01*
X285998Y132702D01*
X286402D01*
X286998Y132304D01*
X287700Y132165D01*
X288402Y132304D01*
X288998Y132702D01*
X289089Y132839D01*
X289811D01*
X289902Y132702D01*
X290498Y132304D01*
X291200Y132165D01*
X291902Y132304D01*
X292498Y132702D01*
X292589Y132839D01*
X293311D01*
X293402Y132702D01*
X293998Y132304D01*
X294700Y132165D01*
X295402Y132304D01*
X295998Y132702D01*
X296396Y133298D01*
X296535Y134000D01*
X296396Y134702D01*
X295998Y135298D01*
X295821Y135415D01*
Y147608D01*
X296100Y148165D01*
X296802Y148304D01*
X297398Y148702D01*
X297796Y149298D01*
X297935Y150000D01*
X297796Y150702D01*
X297398Y151298D01*
X296802Y151696D01*
X296100Y151835D01*
X295563Y151728D01*
X295249Y152263D01*
X295892Y152906D01*
X296100Y152865D01*
X296802Y153004D01*
X297398Y153402D01*
X297796Y153998D01*
X297935Y154700D01*
X297796Y155402D01*
X297398Y155998D01*
X296802Y156396D01*
X296100Y156535D01*
X295398Y156396D01*
X294802Y155998D01*
X294404Y155402D01*
X294265Y154700D01*
X294306Y154492D01*
X292970Y153156D01*
X292304Y153339D01*
X291998Y153798D01*
X291402Y154196D01*
X290700Y154335D01*
X290417Y154279D01*
X290159Y154775D01*
X290547Y155195D01*
X290700Y155165D01*
X291402Y155304D01*
X291998Y155702D01*
X292396Y156298D01*
X292535Y157000D01*
X292396Y157702D01*
X291998Y158298D01*
X291688Y158504D01*
X291507Y159198D01*
X291524Y159281D01*
X291665Y159470D01*
X319738D01*
X337623Y141585D01*
X337393Y141030D01*
X303267D01*
X302353Y140910D01*
X301502Y140557D01*
X300771Y139996D01*
X300210Y139265D01*
X299857Y138414D01*
X299737Y137500D01*
X299857Y136586D01*
X300210Y135735D01*
X300771Y135004D01*
X301502Y134443D01*
X302353Y134090D01*
X303267Y133970D01*
X340700D01*
X341614Y134090D01*
X342465Y134443D01*
X343196Y135004D01*
X343700Y135508D01*
X348893Y130314D01*
X348968Y130134D01*
X349561Y129361D01*
X350334Y128768D01*
X351234Y128395D01*
X352200Y128268D01*
X353166Y128395D01*
X354066Y128768D01*
X354839Y129361D01*
X355432Y130134D01*
X355805Y131034D01*
X355932Y132000D01*
X355805Y132966D01*
X355432Y133866D01*
X354839Y134639D01*
X354066Y135232D01*
X353886Y135307D01*
X346196Y142996D01*
X346196Y142996D01*
X334826Y154366D01*
X334902Y155139D01*
X334998Y155202D01*
X335396Y155798D01*
X335535Y156500D01*
X335396Y157202D01*
X334998Y157798D01*
X334822Y157915D01*
Y172665D01*
X335100Y173150D01*
X335422Y173150D01*
X336569D01*
Y170298D01*
X336504Y170202D01*
X336365Y169500D01*
X336504Y168798D01*
X336902Y168202D01*
X337498Y167804D01*
X338200Y167665D01*
X338902Y167804D01*
X339498Y168202D01*
X339896Y168798D01*
X340035Y169500D01*
X339896Y170202D01*
X339831Y170298D01*
Y173150D01*
X341300D01*
Y176393D01*
Y180093D01*
X339831D01*
Y181500D01*
X339707Y182124D01*
X339353Y182653D01*
X338918Y183089D01*
X338896Y183202D01*
X338498Y183798D01*
X337902Y184196D01*
X337200Y184335D01*
X336498Y184196D01*
X335902Y183798D01*
X335504Y183202D01*
X335365Y182500D01*
X335504Y181798D01*
X335902Y181202D01*
X336498Y180804D01*
X336569Y180790D01*
Y180144D01*
X336492Y180093D01*
X335100D01*
Y179965D01*
X334500Y179783D01*
X334493Y179793D01*
X333994Y180292D01*
X334035Y180500D01*
X333896Y181202D01*
X333498Y181798D01*
X333361Y181889D01*
Y182611D01*
X333498Y182702D01*
X333896Y183298D01*
X334035Y184000D01*
X333896Y184702D01*
X333498Y185298D01*
X332902Y185696D01*
X332200Y185835D01*
X331498Y185696D01*
X330902Y185298D01*
X330504Y184702D01*
X330365Y184000D01*
X330406Y183792D01*
X328907Y182293D01*
X328664Y181929D01*
X328578Y181500D01*
X328578Y181500D01*
Y161398D01*
X328024Y161168D01*
X324730Y164462D01*
Y183500D01*
Y192751D01*
X330697Y198718D01*
X338399D01*
X338620Y198626D01*
X339456Y198516D01*
X340291Y198626D01*
X341070Y198949D01*
X341738Y199462D01*
X342251Y200130D01*
X342573Y200909D01*
X342684Y201744D01*
X342573Y202579D01*
X342251Y203358D01*
X341738Y204026D01*
X341070Y204539D01*
X340291Y204862D01*
X339456Y204972D01*
X338620Y204862D01*
X338399Y204770D01*
X329444D01*
X328661Y204667D01*
X327931Y204365D01*
X327305Y203884D01*
X327304Y203884D01*
X321557Y198136D01*
X320730Y198962D01*
Y204000D01*
X320610Y204914D01*
X320257Y205765D01*
X319696Y206496D01*
X311696Y214496D01*
X310965Y215057D01*
X310114Y215410D01*
X309200Y215530D01*
D02*
G37*
G36*
X403700Y191834D02*
X401700D01*
X400656Y191697D01*
X399683Y191294D01*
X398847Y190653D01*
X398206Y189817D01*
X397803Y188844D01*
X397731Y188300D01*
X403700D01*
Y191834D01*
D02*
G37*
G36*
X216700D02*
X214700D01*
Y188300D01*
X220669D01*
X220597Y188844D01*
X220194Y189817D01*
X219553Y190653D01*
X218717Y191294D01*
X217744Y191697D01*
X216700Y191834D01*
D02*
G37*
G36*
X403700Y187300D02*
X397731D01*
X397803Y186756D01*
X398206Y185783D01*
X398847Y184947D01*
X399683Y184306D01*
X400656Y183903D01*
X401700Y183765D01*
X403700D01*
Y187300D01*
D02*
G37*
G36*
X220669D02*
X214700D01*
Y183765D01*
X216700D01*
X217744Y183903D01*
X218717Y184306D01*
X219553Y184947D01*
X220194Y185783D01*
X220597Y186756D01*
X220669Y187300D01*
D02*
G37*
G36*
X216700Y171835D02*
X214700D01*
Y168300D01*
X220669D01*
X220597Y168844D01*
X220194Y169817D01*
X219553Y170653D01*
X218717Y171294D01*
X217744Y171697D01*
X216700Y171835D01*
D02*
G37*
G36*
X220669Y167300D02*
X214700D01*
Y163766D01*
X216700D01*
X217744Y163903D01*
X218717Y164306D01*
X219553Y164947D01*
X220194Y165783D01*
X220597Y166756D01*
X220669Y167300D01*
D02*
G37*
G36*
X403700Y161835D02*
X401700D01*
X400656Y161697D01*
X399683Y161294D01*
X398847Y160653D01*
X398206Y159817D01*
X397803Y158844D01*
X397731Y158300D01*
X403700D01*
Y161835D01*
D02*
G37*
G36*
Y157300D02*
X397731D01*
X397803Y156756D01*
X398206Y155783D01*
X398847Y154947D01*
X399683Y154306D01*
X400656Y153903D01*
X401700Y153765D01*
X403700D01*
Y157300D01*
D02*
G37*
G36*
Y141834D02*
X401700D01*
X400656Y141697D01*
X399683Y141294D01*
X398847Y140653D01*
X398206Y139817D01*
X397803Y138844D01*
X397731Y138300D01*
X403700D01*
Y141834D01*
D02*
G37*
G36*
Y137300D02*
X397731D01*
X397803Y136756D01*
X398206Y135783D01*
X398847Y134947D01*
X399683Y134306D01*
X400656Y133903D01*
X401700Y133765D01*
X403700D01*
Y137300D01*
D02*
G37*
G36*
Y131834D02*
X401700D01*
X400656Y131697D01*
X399683Y131294D01*
X398847Y130653D01*
X398206Y129817D01*
X397803Y128844D01*
X397731Y128300D01*
X403700D01*
Y131834D01*
D02*
G37*
G36*
Y127300D02*
X397731D01*
X397803Y126756D01*
X398206Y125783D01*
X398847Y124947D01*
X399683Y124306D01*
X400656Y123903D01*
X401700Y123766D01*
X403700D01*
Y127300D01*
D02*
G37*
G36*
X246200Y116335D02*
X245498Y116196D01*
X244902Y115798D01*
X244504Y115202D01*
X244365Y114500D01*
X244504Y113798D01*
X244902Y113202D01*
X245498Y112804D01*
X246200Y112665D01*
X246902Y112804D01*
X247498Y113202D01*
X247615Y113379D01*
X250235D01*
X253788Y109826D01*
X253406Y109360D01*
X253202Y109496D01*
X252500Y109635D01*
X251798Y109496D01*
X251202Y109098D01*
X251018Y108822D01*
X240415D01*
X240298Y108998D01*
X239702Y109396D01*
X239000Y109535D01*
X238298Y109396D01*
X237702Y108998D01*
X237304Y108402D01*
X237165Y107700D01*
X237304Y106998D01*
X237702Y106402D01*
X238298Y106004D01*
X239000Y105865D01*
X239702Y106004D01*
X240298Y106402D01*
X240415Y106579D01*
X251151D01*
X251202Y106502D01*
X251798Y106104D01*
X252500Y105965D01*
X253202Y106104D01*
X253798Y106502D01*
X254196Y107098D01*
X254335Y107800D01*
X254196Y108502D01*
X254060Y108706D01*
X254526Y109088D01*
X255079Y108535D01*
Y105915D01*
X254902Y105798D01*
X254504Y105202D01*
X254365Y104500D01*
X254504Y103798D01*
X254902Y103202D01*
X255498Y102804D01*
X256200Y102665D01*
X256902Y102804D01*
X257498Y103202D01*
X257896Y103798D01*
X258035Y104500D01*
X257896Y105202D01*
X257498Y105798D01*
X257322Y105915D01*
Y109000D01*
X257236Y109429D01*
X256993Y109793D01*
X256993Y109793D01*
X251493Y115293D01*
X251129Y115536D01*
X250700Y115622D01*
X250700Y115622D01*
X247615D01*
X247498Y115798D01*
X246902Y116196D01*
X246200Y116335D01*
D02*
G37*
G36*
X273700Y109335D02*
X272998Y109196D01*
X272402Y108798D01*
X272004Y108202D01*
X271865Y107500D01*
X271948Y107081D01*
X270607Y105740D01*
X270364Y105377D01*
X270279Y104947D01*
X270279Y104947D01*
Y104710D01*
X270102Y104592D01*
X269704Y103997D01*
X269565Y103295D01*
X269704Y102592D01*
X270102Y101997D01*
X270698Y101599D01*
X271400Y101459D01*
X272102Y101599D01*
X272698Y101997D01*
X273096Y102592D01*
X273235Y103295D01*
X273096Y103997D01*
X272698Y104592D01*
X272692Y104653D01*
X273704Y105666D01*
X274402Y105804D01*
X274998Y106202D01*
X275396Y106798D01*
X275535Y107500D01*
X275396Y108202D01*
X274998Y108798D01*
X274402Y109196D01*
X273700Y109335D01*
D02*
G37*
G36*
X313800Y80426D02*
Y78500D01*
X315725D01*
X315633Y78966D01*
X315085Y79785D01*
X314266Y80333D01*
X313800Y80426D01*
D02*
G37*
G36*
X312800D02*
X312334Y80333D01*
X311515Y79785D01*
X310967Y78966D01*
X310843Y78341D01*
X310231D01*
X310138Y78810D01*
X309679Y79497D01*
X308992Y79956D01*
X308182Y80117D01*
X307372Y79956D01*
X306685Y79497D01*
X306226Y78810D01*
X306065Y78000D01*
X306226Y77190D01*
X306661Y76539D01*
X306601Y76403D01*
X306588Y76377D01*
X306328Y76040D01*
X305623Y76180D01*
X304918Y76040D01*
X304658Y76377D01*
X304644Y76403D01*
X304585Y76539D01*
X305020Y77190D01*
X305181Y78000D01*
X305020Y78810D01*
X304561Y79497D01*
X303874Y79956D01*
X303064Y80117D01*
X302254Y79956D01*
X301567Y79497D01*
X301108Y78810D01*
X300947Y78000D01*
X301108Y77190D01*
X301567Y76503D01*
X302254Y76044D01*
X303064Y75883D01*
X303769Y76023D01*
X304029Y75686D01*
X304042Y75660D01*
X304102Y75524D01*
X303667Y74873D01*
X303506Y74063D01*
X303667Y73253D01*
X304126Y72566D01*
X304813Y72107D01*
X305623Y71946D01*
X306433Y72107D01*
X307120Y72566D01*
X307579Y73253D01*
X307740Y74063D01*
X307579Y74873D01*
X307144Y75524D01*
X307203Y75660D01*
X307217Y75686D01*
X307477Y76023D01*
X308182Y75883D01*
X308887Y76023D01*
X309147Y75686D01*
X309160Y75660D01*
X309220Y75524D01*
X308785Y74873D01*
X308624Y74063D01*
X308785Y73253D01*
X309244Y72566D01*
X309931Y72107D01*
X310741Y71946D01*
X311551Y72107D01*
X312238Y72566D01*
X312697Y73253D01*
X312858Y74063D01*
X312697Y74873D01*
X312612Y75000D01*
X312800Y75282D01*
Y78000D01*
Y80426D01*
D02*
G37*
G36*
X216700Y81835D02*
X214700D01*
Y78300D01*
X220669D01*
X220597Y78844D01*
X220194Y79817D01*
X219553Y80653D01*
X218717Y81294D01*
X217744Y81697D01*
X216700Y81835D01*
D02*
G37*
G36*
X322757Y81243D02*
Y77634D01*
X325251D01*
Y78315D01*
X325149Y79090D01*
X324850Y79812D01*
X324374Y80432D01*
X323754Y80908D01*
X323032Y81207D01*
X322757Y81243D01*
D02*
G37*
G36*
X321757D02*
X321482Y81207D01*
X320760Y80908D01*
X320140Y80432D01*
X319664Y79812D01*
X319365Y79090D01*
X319263Y78315D01*
Y77634D01*
X321757D01*
Y81243D01*
D02*
G37*
G36*
X294607D02*
Y77634D01*
X297101D01*
Y78315D01*
X296999Y79090D01*
X296700Y79812D01*
X296224Y80432D01*
X295604Y80908D01*
X294882Y81207D01*
X294607Y81243D01*
D02*
G37*
G36*
X293607D02*
X293332Y81207D01*
X292610Y80908D01*
X291990Y80432D01*
X291514Y79812D01*
X291215Y79090D01*
X291113Y78315D01*
Y77634D01*
X293607D01*
Y81243D01*
D02*
G37*
G36*
X315725Y77500D02*
X313800D01*
Y75575D01*
X314266Y75667D01*
X315085Y76215D01*
X315633Y77034D01*
X315725Y77500D01*
D02*
G37*
G36*
X345700Y93835D02*
X344998Y93696D01*
X344402Y93298D01*
X344004Y92702D01*
X343865Y92000D01*
X344004Y91298D01*
X344402Y90702D01*
X344579Y90585D01*
Y89965D01*
X336907Y82293D01*
X336664Y81929D01*
X336578Y81500D01*
X336578Y81500D01*
Y78415D01*
X336402Y78298D01*
X336004Y77702D01*
X335865Y77000D01*
X336004Y76298D01*
X336402Y75702D01*
X336998Y75304D01*
X337700Y75165D01*
X338402Y75304D01*
X338998Y75702D01*
X339396Y76298D01*
X339535Y77000D01*
X339396Y77702D01*
X338998Y78298D01*
X338822Y78415D01*
Y81035D01*
X346493Y88707D01*
X346493Y88707D01*
X346736Y89071D01*
X346822Y89500D01*
X346821Y89500D01*
Y90585D01*
X346998Y90702D01*
X347396Y91298D01*
X347535Y92000D01*
X347396Y92702D01*
X346998Y93298D01*
X346402Y93696D01*
X345700Y93835D01*
D02*
G37*
G36*
X220669Y77300D02*
X214700D01*
Y73765D01*
X216700D01*
X217744Y73903D01*
X218717Y74306D01*
X219553Y74947D01*
X220194Y75783D01*
X220597Y76756D01*
X220669Y77300D01*
D02*
G37*
G36*
X325251Y76634D02*
X322757D01*
Y73024D01*
X323032Y73061D01*
X323754Y73360D01*
X324374Y73836D01*
X324850Y74456D01*
X325149Y75178D01*
X325251Y75953D01*
Y76634D01*
D02*
G37*
G36*
X321757D02*
X319263D01*
Y75953D01*
X319365Y75178D01*
X319664Y74456D01*
X320140Y73836D01*
X320760Y73360D01*
X321482Y73061D01*
X321757Y73024D01*
Y76634D01*
D02*
G37*
G36*
X297101D02*
X294607D01*
Y73024D01*
X294882Y73061D01*
X295604Y73360D01*
X296224Y73836D01*
X296700Y74456D01*
X296999Y75178D01*
X297101Y75953D01*
Y76634D01*
D02*
G37*
G36*
X293607D02*
X291113D01*
Y75953D01*
X291215Y75178D01*
X291514Y74456D01*
X291990Y73836D01*
X292610Y73360D01*
X293332Y73061D01*
X293607Y73024D01*
Y76634D01*
D02*
G37*
G36*
X403700Y71834D02*
X401700D01*
X400656Y71697D01*
X399683Y71294D01*
X398847Y70653D01*
X398206Y69817D01*
X397803Y68844D01*
X397731Y68300D01*
X403700D01*
Y71834D01*
D02*
G37*
G36*
X216700D02*
X214700D01*
Y68300D01*
X220669D01*
X220597Y68844D01*
X220194Y69817D01*
X219553Y70653D01*
X218717Y71294D01*
X217744Y71697D01*
X216700Y71834D01*
D02*
G37*
G36*
X403700Y67300D02*
X397731D01*
X397803Y66756D01*
X398206Y65783D01*
X398847Y64947D01*
X399683Y64306D01*
X400656Y63903D01*
X401700Y63766D01*
X403700D01*
Y67300D01*
D02*
G37*
G36*
X220669D02*
X214700D01*
Y63766D01*
X216700D01*
X217744Y63903D01*
X218717Y64306D01*
X219553Y64947D01*
X220194Y65783D01*
X220597Y66756D01*
X220669Y67300D01*
D02*
G37*
G36*
X403700Y61835D02*
X401700D01*
X400656Y61697D01*
X399683Y61294D01*
X398847Y60653D01*
X398206Y59817D01*
X397803Y58844D01*
X397731Y58300D01*
X403700D01*
Y61835D01*
D02*
G37*
G36*
Y57300D02*
X397731D01*
X397803Y56756D01*
X398206Y55783D01*
X398847Y54947D01*
X399683Y54306D01*
X400656Y53903D01*
X401700Y53765D01*
X403700D01*
Y57300D01*
D02*
G37*
G36*
X261200Y51835D02*
X260498Y51696D01*
X259902Y51298D01*
X259504Y50702D01*
X259365Y50000D01*
X259504Y49298D01*
X259902Y48702D01*
X260498Y48305D01*
X261200Y48165D01*
X261408Y48206D01*
X270907Y38707D01*
X270907Y38707D01*
X271271Y38464D01*
X271700Y38378D01*
X272129Y38464D01*
X272493Y38707D01*
X272665Y38879D01*
X279918D01*
X280036Y38702D01*
X280631Y38304D01*
X281333Y38165D01*
X282036Y38304D01*
X282631Y38702D01*
X283029Y39298D01*
X283169Y40000D01*
X283029Y40702D01*
X282631Y41298D01*
X282036Y41696D01*
X281333Y41835D01*
X280631Y41696D01*
X280036Y41298D01*
X279918Y41122D01*
X272200D01*
X272200Y41122D01*
X271771Y41036D01*
X271758Y41028D01*
X262994Y49792D01*
X263035Y50000D01*
X262896Y50702D01*
X262498Y51298D01*
X261902Y51696D01*
X261200Y51835D01*
D02*
G37*
G36*
X304200Y50941D02*
X302144Y50779D01*
X300139Y50297D01*
X298234Y49508D01*
X296476Y48431D01*
X294908Y47092D01*
X293569Y45524D01*
X292492Y43766D01*
X291703Y41861D01*
X291221Y39856D01*
X291059Y37800D01*
X291221Y35744D01*
X291703Y33739D01*
X292492Y31834D01*
X293569Y30076D01*
X294908Y28508D01*
X296476Y27169D01*
X298234Y26092D01*
X300139Y25303D01*
X302144Y24821D01*
X304200Y24659D01*
X306256Y24821D01*
X308261Y25303D01*
X310166Y26092D01*
X311924Y27169D01*
X313492Y28508D01*
X314831Y30076D01*
X315908Y31834D01*
X316697Y33739D01*
X317179Y35744D01*
X317340Y37800D01*
X317179Y39856D01*
X316697Y41861D01*
X315908Y43766D01*
X314831Y45524D01*
X313492Y47092D01*
X311924Y48431D01*
X310166Y49508D01*
X308261Y50297D01*
X306256Y50779D01*
X304200Y50941D01*
D02*
G37*
G36*
X304700Y14269D02*
Y8300D01*
X308235D01*
Y10300D01*
X308097Y11344D01*
X307694Y12317D01*
X307053Y13153D01*
X306217Y13794D01*
X305244Y14197D01*
X304700Y14269D01*
D02*
G37*
G36*
X294700D02*
Y8300D01*
X298235D01*
Y10300D01*
X298097Y11344D01*
X297694Y12317D01*
X297053Y13153D01*
X296217Y13794D01*
X295244Y14197D01*
X294700Y14269D01*
D02*
G37*
G36*
X303700D02*
X303156Y14197D01*
X302183Y13794D01*
X301347Y13153D01*
X300706Y12317D01*
X300303Y11344D01*
X300166Y10300D01*
Y8300D01*
X303700D01*
Y14269D01*
D02*
G37*
G36*
X293700D02*
X293156Y14197D01*
X292183Y13794D01*
X291347Y13153D01*
X290706Y12317D01*
X290303Y11344D01*
X290165Y10300D01*
Y8300D01*
X293700D01*
Y14269D01*
D02*
G37*
%LPD*%
G36*
X316998Y175210D02*
X317670Y175076D01*
Y166530D01*
X309536D01*
X309114Y167130D01*
X309188Y167500D01*
X309146Y167708D01*
X316788Y175350D01*
X316998Y175210D01*
D02*
G37*
%LPC*%
G36*
X197700Y221800D02*
X191700D01*
Y218300D01*
X197700D01*
Y221800D01*
D02*
G37*
G36*
Y217300D02*
X191700D01*
Y213800D01*
X197700D01*
Y217300D01*
D02*
G37*
G36*
X10700Y211835D02*
X8700D01*
Y208300D01*
X14669D01*
X14597Y208844D01*
X14194Y209817D01*
X13553Y210653D01*
X12717Y211294D01*
X11744Y211697D01*
X10700Y211835D01*
D02*
G37*
G36*
X14669Y207300D02*
X8700D01*
Y203766D01*
X10700D01*
X11744Y203903D01*
X12717Y204306D01*
X13553Y204947D01*
X14194Y205783D01*
X14597Y206756D01*
X14669Y207300D01*
D02*
G37*
G36*
X103200Y215530D02*
X97700D01*
X96786Y215410D01*
X95935Y215057D01*
X95204Y214496D01*
X94643Y213765D01*
X94290Y212914D01*
X94170Y212000D01*
X94290Y211086D01*
X94643Y210235D01*
X95204Y209504D01*
X95935Y208943D01*
X96786Y208590D01*
X97700Y208470D01*
X101738D01*
X107670Y202538D01*
Y197500D01*
X107790Y196586D01*
X108143Y195735D01*
X108704Y195004D01*
X111670Y192038D01*
Y183500D01*
Y181735D01*
X110998Y181601D01*
X110402Y181203D01*
X110251Y180976D01*
X110076Y180942D01*
X109712Y180699D01*
X109712Y180699D01*
X98308Y169294D01*
X98100Y169335D01*
X97398Y169196D01*
X96802Y168798D01*
X96404Y168202D01*
X96265Y167500D01*
X96338Y167130D01*
X95916Y166530D01*
X83700D01*
X82786Y166410D01*
X81935Y166057D01*
X81204Y165496D01*
X77704Y161996D01*
X77143Y161265D01*
X76790Y160414D01*
X76670Y159500D01*
X76790Y158586D01*
X77143Y157735D01*
X77704Y157004D01*
X78435Y156443D01*
X79286Y156090D01*
X80200Y155970D01*
X81114Y156090D01*
X81526Y156261D01*
X81866Y155752D01*
X77907Y151793D01*
X77664Y151429D01*
X77578Y151000D01*
X77578Y151000D01*
Y135415D01*
X77402Y135298D01*
X77004Y134702D01*
X76865Y134000D01*
X77004Y133298D01*
X77402Y132702D01*
X77998Y132304D01*
X78700Y132165D01*
X79402Y132304D01*
X79998Y132702D01*
X80402D01*
X80998Y132304D01*
X81700Y132165D01*
X82402Y132304D01*
X82998Y132702D01*
X83089Y132839D01*
X83811D01*
X83902Y132702D01*
X84498Y132304D01*
X85200Y132165D01*
X85902Y132304D01*
X86498Y132702D01*
X86589Y132839D01*
X87311D01*
X87402Y132702D01*
X87998Y132304D01*
X88700Y132165D01*
X89402Y132304D01*
X89998Y132702D01*
X90396Y133298D01*
X90535Y134000D01*
X90396Y134702D01*
X89998Y135298D01*
X89822Y135415D01*
Y147608D01*
X90100Y148165D01*
X90802Y148304D01*
X91398Y148702D01*
X91796Y149298D01*
X91935Y150000D01*
X91796Y150702D01*
X91398Y151298D01*
X90802Y151696D01*
X90100Y151835D01*
X89563Y151728D01*
X89249Y152263D01*
X89892Y152906D01*
X90100Y152865D01*
X90802Y153004D01*
X91398Y153402D01*
X91796Y153998D01*
X91935Y154700D01*
X91796Y155402D01*
X91398Y155998D01*
X90802Y156396D01*
X90100Y156535D01*
X89398Y156396D01*
X88802Y155998D01*
X88404Y155402D01*
X88265Y154700D01*
X88306Y154492D01*
X86970Y153156D01*
X86304Y153339D01*
X85998Y153798D01*
X85402Y154196D01*
X84700Y154335D01*
X84417Y154279D01*
X84159Y154775D01*
X84548Y155195D01*
X84700Y155165D01*
X85402Y155304D01*
X85998Y155702D01*
X86396Y156298D01*
X86535Y157000D01*
X86396Y157702D01*
X85998Y158298D01*
X85688Y158504D01*
X85507Y159198D01*
X85524Y159281D01*
X85664Y159470D01*
X113738D01*
X131623Y141585D01*
X131393Y141030D01*
X97267D01*
X96353Y140910D01*
X95502Y140557D01*
X94771Y139996D01*
X94210Y139265D01*
X93857Y138414D01*
X93737Y137500D01*
X93857Y136586D01*
X94210Y135735D01*
X94771Y135004D01*
X95502Y134443D01*
X96353Y134090D01*
X97267Y133970D01*
X134700D01*
X135614Y134090D01*
X136465Y134443D01*
X137196Y135004D01*
X137700Y135508D01*
X142894Y130314D01*
X142968Y130134D01*
X143561Y129361D01*
X144334Y128768D01*
X145234Y128395D01*
X146200Y128268D01*
X147166Y128395D01*
X148066Y128768D01*
X148839Y129361D01*
X149432Y130134D01*
X149805Y131034D01*
X149932Y132000D01*
X149805Y132966D01*
X149432Y133866D01*
X148839Y134639D01*
X148066Y135232D01*
X147886Y135307D01*
X140196Y142996D01*
X140196Y142996D01*
X128826Y154366D01*
X128902Y155139D01*
X128998Y155202D01*
X129396Y155798D01*
X129535Y156500D01*
X129396Y157202D01*
X128998Y157798D01*
X128822Y157915D01*
Y172665D01*
X129100Y173150D01*
X129422Y173150D01*
X130569D01*
Y170298D01*
X130504Y170202D01*
X130365Y169500D01*
X130504Y168798D01*
X130902Y168202D01*
X131498Y167804D01*
X132200Y167665D01*
X132902Y167804D01*
X133498Y168202D01*
X133896Y168798D01*
X134035Y169500D01*
X133896Y170202D01*
X133831Y170298D01*
Y173150D01*
X135300D01*
Y176393D01*
Y180093D01*
X133831D01*
Y181500D01*
X133707Y182124D01*
X133353Y182653D01*
X132918Y183089D01*
X132896Y183202D01*
X132498Y183798D01*
X131902Y184196D01*
X131200Y184335D01*
X130498Y184196D01*
X129902Y183798D01*
X129504Y183202D01*
X129365Y182500D01*
X129504Y181798D01*
X129902Y181202D01*
X130498Y180804D01*
X130569Y180790D01*
Y180144D01*
X130492Y180093D01*
X129100D01*
Y179965D01*
X128500Y179783D01*
X128493Y179793D01*
X127994Y180292D01*
X128035Y180500D01*
X127896Y181202D01*
X127498Y181798D01*
X127361Y181889D01*
Y182611D01*
X127498Y182702D01*
X127896Y183298D01*
X128035Y184000D01*
X127896Y184702D01*
X127498Y185298D01*
X126902Y185696D01*
X126200Y185835D01*
X125498Y185696D01*
X124902Y185298D01*
X124504Y184702D01*
X124365Y184000D01*
X124406Y183792D01*
X122907Y182293D01*
X122664Y181929D01*
X122578Y181500D01*
X122578Y181500D01*
Y161398D01*
X122024Y161168D01*
X118730Y164462D01*
Y183500D01*
Y192751D01*
X124697Y198718D01*
X132399D01*
X132621Y198626D01*
X133456Y198516D01*
X134291Y198626D01*
X135070Y198949D01*
X135738Y199462D01*
X136251Y200130D01*
X136574Y200909D01*
X136683Y201744D01*
X136574Y202579D01*
X136251Y203358D01*
X135738Y204026D01*
X135070Y204539D01*
X134291Y204862D01*
X133456Y204972D01*
X132621Y204862D01*
X132399Y204770D01*
X123444D01*
X122661Y204667D01*
X121931Y204365D01*
X121305Y203884D01*
X121304Y203884D01*
X115557Y198136D01*
X114730Y198962D01*
Y204000D01*
X114610Y204914D01*
X114257Y205765D01*
X113696Y206496D01*
X105696Y214496D01*
X104965Y215057D01*
X104114Y215410D01*
X103200Y215530D01*
D02*
G37*
G36*
X197700Y191834D02*
X195700D01*
X194656Y191697D01*
X193683Y191294D01*
X192847Y190653D01*
X192206Y189817D01*
X191803Y188844D01*
X191731Y188300D01*
X197700D01*
Y191834D01*
D02*
G37*
G36*
X10700D02*
X8700D01*
Y188300D01*
X14669D01*
X14597Y188844D01*
X14194Y189817D01*
X13553Y190653D01*
X12717Y191294D01*
X11744Y191697D01*
X10700Y191834D01*
D02*
G37*
G36*
X197700Y187300D02*
X191731D01*
X191803Y186756D01*
X192206Y185783D01*
X192847Y184947D01*
X193683Y184306D01*
X194656Y183903D01*
X195700Y183765D01*
X197700D01*
Y187300D01*
D02*
G37*
G36*
X14669D02*
X8700D01*
Y183765D01*
X10700D01*
X11744Y183903D01*
X12717Y184306D01*
X13553Y184947D01*
X14194Y185783D01*
X14597Y186756D01*
X14669Y187300D01*
D02*
G37*
G36*
X10700Y171835D02*
X8700D01*
Y168300D01*
X14669D01*
X14597Y168844D01*
X14194Y169817D01*
X13553Y170653D01*
X12717Y171294D01*
X11744Y171697D01*
X10700Y171835D01*
D02*
G37*
G36*
X14669Y167300D02*
X8700D01*
Y163766D01*
X10700D01*
X11744Y163903D01*
X12717Y164306D01*
X13553Y164947D01*
X14194Y165783D01*
X14597Y166756D01*
X14669Y167300D01*
D02*
G37*
G36*
X197700Y161835D02*
X195700D01*
X194656Y161697D01*
X193683Y161294D01*
X192847Y160653D01*
X192206Y159817D01*
X191803Y158844D01*
X191731Y158300D01*
X197700D01*
Y161835D01*
D02*
G37*
G36*
Y157300D02*
X191731D01*
X191803Y156756D01*
X192206Y155783D01*
X192847Y154947D01*
X193683Y154306D01*
X194656Y153903D01*
X195700Y153765D01*
X197700D01*
Y157300D01*
D02*
G37*
G36*
Y141834D02*
X195700D01*
X194656Y141697D01*
X193683Y141294D01*
X192847Y140653D01*
X192206Y139817D01*
X191803Y138844D01*
X191731Y138300D01*
X197700D01*
Y141834D01*
D02*
G37*
G36*
Y137300D02*
X191731D01*
X191803Y136756D01*
X192206Y135783D01*
X192847Y134947D01*
X193683Y134306D01*
X194656Y133903D01*
X195700Y133765D01*
X197700D01*
Y137300D01*
D02*
G37*
G36*
Y131834D02*
X195700D01*
X194656Y131697D01*
X193683Y131294D01*
X192847Y130653D01*
X192206Y129817D01*
X191803Y128844D01*
X191731Y128300D01*
X197700D01*
Y131834D01*
D02*
G37*
G36*
Y127300D02*
X191731D01*
X191803Y126756D01*
X192206Y125783D01*
X192847Y124947D01*
X193683Y124306D01*
X194656Y123903D01*
X195700Y123766D01*
X197700D01*
Y127300D01*
D02*
G37*
G36*
X40200Y116335D02*
X39498Y116196D01*
X38902Y115798D01*
X38504Y115202D01*
X38365Y114500D01*
X38504Y113798D01*
X38902Y113202D01*
X39498Y112804D01*
X40200Y112665D01*
X40902Y112804D01*
X41498Y113202D01*
X41615Y113379D01*
X44235D01*
X47788Y109826D01*
X47406Y109360D01*
X47202Y109496D01*
X46500Y109635D01*
X45798Y109496D01*
X45202Y109098D01*
X45018Y108822D01*
X34415D01*
X34298Y108998D01*
X33702Y109396D01*
X33000Y109535D01*
X32298Y109396D01*
X31702Y108998D01*
X31304Y108402D01*
X31165Y107700D01*
X31304Y106998D01*
X31702Y106402D01*
X32298Y106004D01*
X33000Y105865D01*
X33702Y106004D01*
X34298Y106402D01*
X34415Y106579D01*
X45151D01*
X45202Y106502D01*
X45798Y106104D01*
X46500Y105965D01*
X47202Y106104D01*
X47798Y106502D01*
X48196Y107098D01*
X48335Y107800D01*
X48196Y108502D01*
X48060Y108706D01*
X48526Y109088D01*
X49078Y108535D01*
Y105915D01*
X48902Y105798D01*
X48504Y105202D01*
X48365Y104500D01*
X48504Y103798D01*
X48902Y103202D01*
X49498Y102804D01*
X50200Y102665D01*
X50902Y102804D01*
X51498Y103202D01*
X51896Y103798D01*
X52035Y104500D01*
X51896Y105202D01*
X51498Y105798D01*
X51322Y105915D01*
Y109000D01*
X51236Y109429D01*
X50993Y109793D01*
X50993Y109793D01*
X45493Y115293D01*
X45129Y115536D01*
X44700Y115622D01*
X44700Y115622D01*
X41615D01*
X41498Y115798D01*
X40902Y116196D01*
X40200Y116335D01*
D02*
G37*
G36*
X67700Y109335D02*
X66998Y109196D01*
X66402Y108798D01*
X66004Y108202D01*
X65865Y107500D01*
X65948Y107081D01*
X64607Y105740D01*
X64364Y105377D01*
X64278Y104947D01*
X64279Y104947D01*
Y104710D01*
X64102Y104592D01*
X63704Y103997D01*
X63565Y103295D01*
X63704Y102592D01*
X64102Y101997D01*
X64698Y101599D01*
X65400Y101459D01*
X66102Y101599D01*
X66698Y101997D01*
X67096Y102592D01*
X67235Y103295D01*
X67096Y103997D01*
X66698Y104592D01*
X66692Y104653D01*
X67704Y105666D01*
X68402Y105804D01*
X68998Y106202D01*
X69396Y106798D01*
X69535Y107500D01*
X69396Y108202D01*
X68998Y108798D01*
X68402Y109196D01*
X67700Y109335D01*
D02*
G37*
G36*
X107800Y80426D02*
Y78500D01*
X109725D01*
X109633Y78966D01*
X109085Y79785D01*
X108266Y80333D01*
X107800Y80426D01*
D02*
G37*
G36*
X106800D02*
X106334Y80333D01*
X105515Y79785D01*
X104967Y78966D01*
X104843Y78341D01*
X104231D01*
X104138Y78810D01*
X103679Y79497D01*
X102992Y79956D01*
X102182Y80117D01*
X101372Y79956D01*
X100685Y79497D01*
X100226Y78810D01*
X100065Y78000D01*
X100226Y77190D01*
X100661Y76539D01*
X100601Y76403D01*
X100588Y76377D01*
X100328Y76040D01*
X99623Y76180D01*
X98918Y76040D01*
X98658Y76377D01*
X98644Y76403D01*
X98585Y76539D01*
X99020Y77190D01*
X99181Y78000D01*
X99020Y78810D01*
X98561Y79497D01*
X97874Y79956D01*
X97064Y80117D01*
X96254Y79956D01*
X95567Y79497D01*
X95108Y78810D01*
X94947Y78000D01*
X95108Y77190D01*
X95567Y76503D01*
X96254Y76044D01*
X97064Y75883D01*
X97769Y76023D01*
X98029Y75686D01*
X98042Y75660D01*
X98102Y75524D01*
X97667Y74873D01*
X97506Y74063D01*
X97667Y73253D01*
X98126Y72566D01*
X98813Y72107D01*
X99623Y71946D01*
X100433Y72107D01*
X101120Y72566D01*
X101579Y73253D01*
X101740Y74063D01*
X101579Y74873D01*
X101144Y75524D01*
X101203Y75660D01*
X101217Y75686D01*
X101477Y76023D01*
X102182Y75883D01*
X102887Y76023D01*
X103147Y75686D01*
X103160Y75660D01*
X103220Y75524D01*
X102785Y74873D01*
X102624Y74063D01*
X102785Y73253D01*
X103244Y72566D01*
X103931Y72107D01*
X104741Y71946D01*
X105551Y72107D01*
X106238Y72566D01*
X106697Y73253D01*
X106858Y74063D01*
X106697Y74873D01*
X106612Y75000D01*
X106800Y75282D01*
Y78000D01*
Y80426D01*
D02*
G37*
G36*
X10700Y81835D02*
X8700D01*
Y78300D01*
X14669D01*
X14597Y78844D01*
X14194Y79817D01*
X13553Y80653D01*
X12717Y81294D01*
X11744Y81697D01*
X10700Y81835D01*
D02*
G37*
G36*
X116757Y81243D02*
Y77634D01*
X119251D01*
Y78315D01*
X119149Y79090D01*
X118850Y79812D01*
X118374Y80432D01*
X117754Y80908D01*
X117032Y81207D01*
X116757Y81243D01*
D02*
G37*
G36*
X115757D02*
X115482Y81207D01*
X114760Y80908D01*
X114139Y80432D01*
X113664Y79812D01*
X113365Y79090D01*
X113263Y78315D01*
Y77634D01*
X115757D01*
Y81243D01*
D02*
G37*
G36*
X88607D02*
Y77634D01*
X91101D01*
Y78315D01*
X90999Y79090D01*
X90700Y79812D01*
X90224Y80432D01*
X89604Y80908D01*
X88882Y81207D01*
X88607Y81243D01*
D02*
G37*
G36*
X87607D02*
X87332Y81207D01*
X86610Y80908D01*
X85990Y80432D01*
X85514Y79812D01*
X85215Y79090D01*
X85113Y78315D01*
Y77634D01*
X87607D01*
Y81243D01*
D02*
G37*
G36*
X109725Y77500D02*
X107800D01*
Y75575D01*
X108266Y75667D01*
X109085Y76215D01*
X109633Y77034D01*
X109725Y77500D01*
D02*
G37*
G36*
X139700Y93835D02*
X138998Y93696D01*
X138402Y93298D01*
X138004Y92702D01*
X137865Y92000D01*
X138004Y91298D01*
X138402Y90702D01*
X138578Y90585D01*
Y89965D01*
X130907Y82293D01*
X130664Y81929D01*
X130578Y81500D01*
X130578Y81500D01*
Y78415D01*
X130402Y78298D01*
X130004Y77702D01*
X129865Y77000D01*
X130004Y76298D01*
X130402Y75702D01*
X130998Y75304D01*
X131700Y75165D01*
X132402Y75304D01*
X132998Y75702D01*
X133396Y76298D01*
X133535Y77000D01*
X133396Y77702D01*
X132998Y78298D01*
X132822Y78415D01*
Y81035D01*
X140493Y88707D01*
X140493Y88707D01*
X140736Y89071D01*
X140822Y89500D01*
X140822Y89500D01*
Y90585D01*
X140998Y90702D01*
X141396Y91298D01*
X141535Y92000D01*
X141396Y92702D01*
X140998Y93298D01*
X140402Y93696D01*
X139700Y93835D01*
D02*
G37*
G36*
X14669Y77300D02*
X8700D01*
Y73765D01*
X10700D01*
X11744Y73903D01*
X12717Y74306D01*
X13553Y74947D01*
X14194Y75783D01*
X14597Y76756D01*
X14669Y77300D01*
D02*
G37*
G36*
X119251Y76634D02*
X116757D01*
Y73024D01*
X117032Y73061D01*
X117754Y73360D01*
X118374Y73836D01*
X118850Y74456D01*
X119149Y75178D01*
X119251Y75953D01*
Y76634D01*
D02*
G37*
G36*
X115757D02*
X113263D01*
Y75953D01*
X113365Y75178D01*
X113664Y74456D01*
X114139Y73836D01*
X114760Y73360D01*
X115482Y73061D01*
X115757Y73024D01*
Y76634D01*
D02*
G37*
G36*
X91101D02*
X88607D01*
Y73024D01*
X88882Y73061D01*
X89604Y73360D01*
X90224Y73836D01*
X90700Y74456D01*
X90999Y75178D01*
X91101Y75953D01*
Y76634D01*
D02*
G37*
G36*
X87607D02*
X85113D01*
Y75953D01*
X85215Y75178D01*
X85514Y74456D01*
X85990Y73836D01*
X86610Y73360D01*
X87332Y73061D01*
X87607Y73024D01*
Y76634D01*
D02*
G37*
G36*
X197700Y71834D02*
X195700D01*
X194656Y71697D01*
X193683Y71294D01*
X192847Y70653D01*
X192206Y69817D01*
X191803Y68844D01*
X191731Y68300D01*
X197700D01*
Y71834D01*
D02*
G37*
G36*
X10700D02*
X8700D01*
Y68300D01*
X14669D01*
X14597Y68844D01*
X14194Y69817D01*
X13553Y70653D01*
X12717Y71294D01*
X11744Y71697D01*
X10700Y71834D01*
D02*
G37*
G36*
X197700Y67300D02*
X191731D01*
X191803Y66756D01*
X192206Y65783D01*
X192847Y64947D01*
X193683Y64306D01*
X194656Y63903D01*
X195700Y63766D01*
X197700D01*
Y67300D01*
D02*
G37*
G36*
X14669D02*
X8700D01*
Y63766D01*
X10700D01*
X11744Y63903D01*
X12717Y64306D01*
X13553Y64947D01*
X14194Y65783D01*
X14597Y66756D01*
X14669Y67300D01*
D02*
G37*
G36*
X197700Y61835D02*
X195700D01*
X194656Y61697D01*
X193683Y61294D01*
X192847Y60653D01*
X192206Y59817D01*
X191803Y58844D01*
X191731Y58300D01*
X197700D01*
Y61835D01*
D02*
G37*
G36*
Y57300D02*
X191731D01*
X191803Y56756D01*
X192206Y55783D01*
X192847Y54947D01*
X193683Y54306D01*
X194656Y53903D01*
X195700Y53765D01*
X197700D01*
Y57300D01*
D02*
G37*
G36*
X55200Y51835D02*
X54498Y51696D01*
X53902Y51298D01*
X53504Y50702D01*
X53365Y50000D01*
X53504Y49298D01*
X53902Y48702D01*
X54498Y48305D01*
X55200Y48165D01*
X55408Y48206D01*
X64907Y38707D01*
X64907Y38707D01*
X65271Y38464D01*
X65700Y38378D01*
X66129Y38464D01*
X66493Y38707D01*
X66665Y38879D01*
X73918D01*
X74036Y38702D01*
X74631Y38304D01*
X75333Y38165D01*
X76036Y38304D01*
X76631Y38702D01*
X77029Y39298D01*
X77169Y40000D01*
X77029Y40702D01*
X76631Y41298D01*
X76036Y41696D01*
X75333Y41835D01*
X74631Y41696D01*
X74036Y41298D01*
X73918Y41122D01*
X66200D01*
X66200Y41122D01*
X65771Y41036D01*
X65758Y41028D01*
X56994Y49792D01*
X57035Y50000D01*
X56896Y50702D01*
X56498Y51298D01*
X55902Y51696D01*
X55200Y51835D01*
D02*
G37*
G36*
X98200Y50941D02*
X96144Y50779D01*
X94139Y50297D01*
X92234Y49508D01*
X90476Y48431D01*
X88908Y47092D01*
X87569Y45524D01*
X86492Y43766D01*
X85703Y41861D01*
X85221Y39856D01*
X85059Y37800D01*
X85221Y35744D01*
X85703Y33739D01*
X86492Y31834D01*
X87569Y30076D01*
X88908Y28508D01*
X90476Y27169D01*
X92234Y26092D01*
X94139Y25303D01*
X96144Y24821D01*
X98200Y24659D01*
X100256Y24821D01*
X102261Y25303D01*
X104166Y26092D01*
X105924Y27169D01*
X107492Y28508D01*
X108831Y30076D01*
X109908Y31834D01*
X110697Y33739D01*
X111179Y35744D01*
X111340Y37800D01*
X111179Y39856D01*
X110697Y41861D01*
X109908Y43766D01*
X108831Y45524D01*
X107492Y47092D01*
X105924Y48431D01*
X104166Y49508D01*
X102261Y50297D01*
X100256Y50779D01*
X98200Y50941D01*
D02*
G37*
G36*
X98700Y14269D02*
Y8300D01*
X102234D01*
Y10300D01*
X102097Y11344D01*
X101694Y12317D01*
X101053Y13153D01*
X100217Y13794D01*
X99244Y14197D01*
X98700Y14269D01*
D02*
G37*
G36*
X88700D02*
Y8300D01*
X92234D01*
Y10300D01*
X92097Y11344D01*
X91694Y12317D01*
X91053Y13153D01*
X90217Y13794D01*
X89244Y14197D01*
X88700Y14269D01*
D02*
G37*
G36*
X97700D02*
X97156Y14197D01*
X96183Y13794D01*
X95347Y13153D01*
X94706Y12317D01*
X94303Y11344D01*
X94165Y10300D01*
Y8300D01*
X97700D01*
Y14269D01*
D02*
G37*
G36*
X87700D02*
X87156Y14197D01*
X86183Y13794D01*
X85347Y13153D01*
X84706Y12317D01*
X84303Y11344D01*
X84166Y10300D01*
Y8300D01*
X87700D01*
Y14269D01*
D02*
G37*
%LPD*%
G36*
X110998Y175210D02*
X111670Y175076D01*
Y166530D01*
X103536D01*
X103114Y167130D01*
X103188Y167500D01*
X103146Y167708D01*
X110788Y175350D01*
X110998Y175210D01*
D02*
G37*
%LPC*%
G36*
X218200Y14300D02*
X214700D01*
Y8300D01*
X218200D01*
Y14300D01*
D02*
G37*
G36*
X213700D02*
X210200D01*
Y8300D01*
X213700D01*
Y14300D01*
D02*
G37*
G36*
X12200D02*
X8700D01*
Y8300D01*
X12200D01*
Y14300D01*
D02*
G37*
G36*
X7700D02*
X4200D01*
Y8300D01*
X7700D01*
Y14300D01*
D02*
G37*
%LPD*%
D19*
X131200Y182500D02*
X132200Y181500D01*
Y178243D02*
Y181500D01*
Y169500D02*
Y175000D01*
X115200Y183500D02*
X115212Y183488D01*
X68300Y15600D02*
X73200Y20500D01*
X123100D01*
X8300Y27800D02*
X65900D01*
X73200Y20500D01*
X123100D02*
X168200Y65600D01*
X115200Y193500D02*
X123444Y201744D01*
X133456D01*
X68300Y7800D02*
Y15600D01*
X337200Y182500D02*
X338200Y181500D01*
Y178243D02*
Y181500D01*
Y169500D02*
Y175000D01*
X321200Y183500D02*
X321212Y183488D01*
X274300Y15600D02*
X279200Y20500D01*
X329100D01*
X214300Y27800D02*
X271900D01*
X279200Y20500D01*
X329100D02*
X374200Y65600D01*
X321200Y193500D02*
X329444Y201744D01*
X339456D01*
X274300Y7800D02*
Y15600D01*
X131200Y436500D02*
X132200Y435500D01*
Y432243D02*
Y435500D01*
Y423500D02*
Y429000D01*
X115200Y437500D02*
X115212Y437488D01*
X68300Y269600D02*
X73200Y274500D01*
X123100D01*
X8300Y281800D02*
X65900D01*
X73200Y274500D01*
X123100D02*
X168200Y319600D01*
X115200Y447500D02*
X123444Y455744D01*
X133456D01*
X68300Y261800D02*
Y269600D01*
X337200Y436500D02*
X338200Y435500D01*
Y432243D02*
Y435500D01*
Y423500D02*
Y429000D01*
X321200Y437500D02*
X321212Y437488D01*
X274300Y269600D02*
X279200Y274500D01*
X329100D01*
X214300Y281800D02*
X271900D01*
X279200Y274500D01*
X329100D02*
X374200Y319600D01*
X321200Y447500D02*
X329444Y455744D01*
X339456D01*
X274300Y261800D02*
Y269600D01*
D20*
X65400Y104947D02*
X67700Y107247D01*
X46400Y107700D02*
X46500Y107800D01*
X33000Y107700D02*
X46400D01*
X40200Y114500D02*
X44700D01*
X50200Y109000D01*
Y104500D02*
Y109000D01*
X65400Y103295D02*
Y104947D01*
X67700Y107247D02*
Y107500D01*
X78700Y134000D02*
Y151000D01*
X84700Y157000D01*
X81700Y149500D02*
X84700Y152500D01*
X81700Y134000D02*
Y149500D01*
X85200Y134000D02*
Y149800D01*
X85600Y150200D01*
X85653D01*
X87000Y151547D01*
Y151600D01*
X90100Y154700D01*
X88700Y134000D02*
Y148600D01*
X90100Y150000D01*
X110944Y198244D02*
X111200Y198500D01*
X131200Y179243D02*
X132200Y178243D01*
X101353Y167500D02*
X110758Y176906D01*
X98100Y167500D02*
X110505Y179905D01*
X110758Y176906D02*
X111700D01*
X110505Y179905D02*
X111700D01*
X126200Y180500D02*
X127700Y179000D01*
X123700Y181500D02*
X126200Y184000D01*
X123700Y160000D02*
Y181500D01*
Y160000D02*
X125200Y158500D01*
X127700Y156500D02*
Y179000D01*
X139700Y89500D02*
Y92000D01*
X131700Y81500D02*
X139700Y89500D01*
X131700Y77000D02*
Y81500D01*
X55200Y50000D02*
X65700Y39500D01*
X66200Y40000D01*
X75333D01*
X271400Y104947D02*
X273700Y107247D01*
X252400Y107700D02*
X252500Y107800D01*
X239000Y107700D02*
X252400D01*
X246200Y114500D02*
X250700D01*
X256200Y109000D01*
Y104500D02*
Y109000D01*
X271400Y103295D02*
Y104947D01*
X273700Y107247D02*
Y107500D01*
X284700Y134000D02*
Y151000D01*
X290700Y157000D01*
X287700Y149500D02*
X290700Y152500D01*
X287700Y134000D02*
Y149500D01*
X291200Y134000D02*
Y149800D01*
X291600Y150200D01*
X291653D01*
X293000Y151547D01*
Y151600D01*
X296100Y154700D01*
X294700Y134000D02*
Y148600D01*
X296100Y150000D01*
X316944Y198244D02*
X317200Y198500D01*
X337200Y179243D02*
X338200Y178243D01*
X307352Y167500D02*
X316758Y176906D01*
X304100Y167500D02*
X316505Y179905D01*
X316758Y176906D02*
X317700D01*
X316505Y179905D02*
X317700D01*
X332200Y180500D02*
X333700Y179000D01*
X329700Y181500D02*
X332200Y184000D01*
X329700Y160000D02*
Y181500D01*
Y160000D02*
X331200Y158500D01*
X333700Y156500D02*
Y179000D01*
X345700Y89500D02*
Y92000D01*
X337700Y81500D02*
X345700Y89500D01*
X337700Y77000D02*
Y81500D01*
X261200Y50000D02*
X271700Y39500D01*
X272200Y40000D01*
X281333D01*
X65400Y358947D02*
X67700Y361247D01*
X46400Y361700D02*
X46500Y361800D01*
X33000Y361700D02*
X46400D01*
X40200Y368500D02*
X44700D01*
X50200Y363000D01*
Y358500D02*
Y363000D01*
X65400Y357295D02*
Y358947D01*
X67700Y361247D02*
Y361500D01*
X78700Y388000D02*
Y405000D01*
X84700Y411000D01*
X81700Y403500D02*
X84700Y406500D01*
X81700Y388000D02*
Y403500D01*
X85200Y388000D02*
Y403800D01*
X85600Y404200D01*
X85653D01*
X87000Y405547D01*
Y405600D01*
X90100Y408700D01*
X88700Y388000D02*
Y402600D01*
X90100Y404000D01*
X110944Y452244D02*
X111200Y452500D01*
X131200Y433243D02*
X132200Y432243D01*
X101353Y421500D02*
X110758Y430905D01*
X98100Y421500D02*
X110505Y433906D01*
X110758Y430905D02*
X111700D01*
X110505Y433906D02*
X111700D01*
X126200Y434500D02*
X127700Y433000D01*
X123700Y435500D02*
X126200Y438000D01*
X123700Y414000D02*
Y435500D01*
Y414000D02*
X125200Y412500D01*
X127700Y410500D02*
Y433000D01*
X139700Y343500D02*
Y346000D01*
X131700Y335500D02*
X139700Y343500D01*
X131700Y331000D02*
Y335500D01*
X55200Y304000D02*
X65700Y293500D01*
X66200Y294000D01*
X75333D01*
X271400Y358947D02*
X273700Y361247D01*
X252400Y361700D02*
X252500Y361800D01*
X239000Y361700D02*
X252400D01*
X246200Y368500D02*
X250700D01*
X256200Y363000D01*
Y358500D02*
Y363000D01*
X271400Y357295D02*
Y358947D01*
X273700Y361247D02*
Y361500D01*
X284700Y388000D02*
Y405000D01*
X290700Y411000D01*
X287700Y403500D02*
X290700Y406500D01*
X287700Y388000D02*
Y403500D01*
X291200Y388000D02*
Y403800D01*
X291600Y404200D01*
X291653D01*
X293000Y405547D01*
Y405600D01*
X296100Y408700D01*
X294700Y388000D02*
Y402600D01*
X296100Y404000D01*
X316944Y452244D02*
X317200Y452500D01*
X337200Y433243D02*
X338200Y432243D01*
X307352Y421500D02*
X316758Y430905D01*
X304100Y421500D02*
X316505Y433906D01*
X316758Y430905D02*
X317700D01*
X316505Y433906D02*
X317700D01*
X332200Y434500D02*
X333700Y433000D01*
X329700Y435500D02*
X332200Y438000D01*
X329700Y414000D02*
Y435500D01*
Y414000D02*
X331200Y412500D01*
X333700Y410500D02*
Y433000D01*
X345700Y343500D02*
Y346000D01*
X337700Y335500D02*
X345700Y343500D01*
X337700Y331000D02*
Y335500D01*
X261200Y304000D02*
X271700Y293500D01*
X272200Y294000D01*
X281333D01*
D23*
X80200Y159500D02*
X83700Y163000D01*
X134700Y137500D02*
X137700Y140500D01*
X97267Y137500D02*
X134700D01*
X137700Y140500D02*
X146200Y132000D01*
X97700Y212000D02*
X103200D01*
X111200Y204000D01*
X115200Y183500D02*
Y193500D01*
X111200Y197500D02*
X115200Y193500D01*
X111200Y198500D02*
Y204000D01*
X83700Y163000D02*
X115200D01*
Y183500D01*
Y163000D02*
X137700Y140500D01*
X111200Y197500D02*
Y198500D01*
X286200Y159500D02*
X289700Y163000D01*
X340700Y137500D02*
X343700Y140500D01*
X303267Y137500D02*
X340700D01*
X343700Y140500D02*
X352200Y132000D01*
X303700Y212000D02*
X309200D01*
X317200Y204000D01*
X321200Y183500D02*
Y193500D01*
X317200Y197500D02*
X321200Y193500D01*
X317200Y198500D02*
Y204000D01*
X289700Y163000D02*
X321200D01*
Y183500D01*
Y163000D02*
X343700Y140500D01*
X317200Y197500D02*
Y198500D01*
X80200Y413500D02*
X83700Y417000D01*
X134700Y391500D02*
X137700Y394500D01*
X97267Y391500D02*
X134700D01*
X137700Y394500D02*
X146200Y386000D01*
X97700Y466000D02*
X103200D01*
X111200Y458000D01*
X115200Y437500D02*
Y447500D01*
X111200Y451500D02*
X115200Y447500D01*
X111200Y452500D02*
Y458000D01*
X83700Y417000D02*
X115200D01*
Y437500D01*
Y417000D02*
X137700Y394500D01*
X111200Y451500D02*
Y452500D01*
X286200Y413500D02*
X289700Y417000D01*
X340700Y391500D02*
X343700Y394500D01*
X303267Y391500D02*
X340700D01*
X343700Y394500D02*
X352200Y386000D01*
X303700Y466000D02*
X309200D01*
X317200Y458000D01*
X321200Y437500D02*
Y447500D01*
X317200Y451500D02*
X321200Y447500D01*
X317200Y452500D02*
Y458000D01*
X289700Y417000D02*
X321200D01*
Y437500D01*
Y417000D02*
X343700Y394500D01*
X317200Y451500D02*
Y452500D01*
D24*
X98200Y37800D02*
D03*
X28200Y237800D02*
D03*
X178200D02*
D03*
X304200Y37800D02*
D03*
X234200Y237800D02*
D03*
X384200D02*
D03*
X98200Y291800D02*
D03*
X28200Y491800D02*
D03*
X178200D02*
D03*
X304200Y291800D02*
D03*
X234200Y491800D02*
D03*
X384200D02*
D03*
D25*
X8200Y217800D02*
D03*
X198200D02*
D03*
X214200D02*
D03*
X404200D02*
D03*
X8200Y471800D02*
D03*
X198200D02*
D03*
X214200D02*
D03*
X404200D02*
D03*
D26*
X8200Y207800D02*
D03*
Y197800D02*
D03*
Y187800D02*
D03*
Y177800D02*
D03*
Y167800D02*
D03*
Y157800D02*
D03*
Y147800D02*
D03*
Y137800D02*
D03*
Y127800D02*
D03*
Y117800D02*
D03*
Y107800D02*
D03*
Y97800D02*
D03*
Y87800D02*
D03*
Y77800D02*
D03*
Y67800D02*
D03*
Y57800D02*
D03*
Y47800D02*
D03*
Y37800D02*
D03*
Y27800D02*
D03*
X198200Y207800D02*
D03*
Y197800D02*
D03*
Y187800D02*
D03*
Y177800D02*
D03*
Y167800D02*
D03*
Y157800D02*
D03*
Y147800D02*
D03*
Y137800D02*
D03*
Y127800D02*
D03*
Y117800D02*
D03*
Y107800D02*
D03*
Y97800D02*
D03*
Y87800D02*
D03*
Y77800D02*
D03*
Y67800D02*
D03*
Y57800D02*
D03*
Y47800D02*
D03*
Y37800D02*
D03*
Y27800D02*
D03*
X214200Y207800D02*
D03*
Y197800D02*
D03*
Y187800D02*
D03*
Y177800D02*
D03*
Y167800D02*
D03*
Y157800D02*
D03*
Y147800D02*
D03*
Y137800D02*
D03*
Y127800D02*
D03*
Y117800D02*
D03*
Y107800D02*
D03*
Y97800D02*
D03*
Y87800D02*
D03*
Y77800D02*
D03*
Y67800D02*
D03*
Y57800D02*
D03*
Y47800D02*
D03*
Y37800D02*
D03*
Y27800D02*
D03*
X404200Y207800D02*
D03*
Y197800D02*
D03*
Y187800D02*
D03*
Y177800D02*
D03*
Y167800D02*
D03*
Y157800D02*
D03*
Y147800D02*
D03*
Y137800D02*
D03*
Y127800D02*
D03*
Y117800D02*
D03*
Y107800D02*
D03*
Y97800D02*
D03*
Y87800D02*
D03*
Y77800D02*
D03*
Y67800D02*
D03*
Y57800D02*
D03*
Y47800D02*
D03*
Y37800D02*
D03*
Y27800D02*
D03*
X8200Y461800D02*
D03*
Y451800D02*
D03*
Y441800D02*
D03*
Y431800D02*
D03*
Y421800D02*
D03*
Y411800D02*
D03*
Y401800D02*
D03*
Y391800D02*
D03*
Y381800D02*
D03*
Y371800D02*
D03*
Y361800D02*
D03*
Y351800D02*
D03*
Y341800D02*
D03*
Y331800D02*
D03*
Y321800D02*
D03*
Y311800D02*
D03*
Y301800D02*
D03*
Y291800D02*
D03*
Y281800D02*
D03*
X198200Y461800D02*
D03*
Y451800D02*
D03*
Y441800D02*
D03*
Y431800D02*
D03*
Y421800D02*
D03*
Y411800D02*
D03*
Y401800D02*
D03*
Y391800D02*
D03*
Y381800D02*
D03*
Y371800D02*
D03*
Y361800D02*
D03*
Y351800D02*
D03*
Y341800D02*
D03*
Y331800D02*
D03*
Y321800D02*
D03*
Y311800D02*
D03*
Y301800D02*
D03*
Y291800D02*
D03*
Y281800D02*
D03*
X214200Y461800D02*
D03*
Y451800D02*
D03*
Y441800D02*
D03*
Y431800D02*
D03*
Y421800D02*
D03*
Y411800D02*
D03*
Y401800D02*
D03*
Y391800D02*
D03*
Y381800D02*
D03*
Y371800D02*
D03*
Y361800D02*
D03*
Y351800D02*
D03*
Y341800D02*
D03*
Y331800D02*
D03*
Y321800D02*
D03*
Y311800D02*
D03*
Y301800D02*
D03*
Y291800D02*
D03*
Y281800D02*
D03*
X404200Y461800D02*
D03*
Y451800D02*
D03*
Y441800D02*
D03*
Y431800D02*
D03*
Y421800D02*
D03*
Y411800D02*
D03*
Y401800D02*
D03*
Y391800D02*
D03*
Y381800D02*
D03*
Y371800D02*
D03*
Y361800D02*
D03*
Y351800D02*
D03*
Y341800D02*
D03*
Y331800D02*
D03*
Y321800D02*
D03*
Y311800D02*
D03*
Y301800D02*
D03*
Y291800D02*
D03*
Y281800D02*
D03*
D27*
X8200Y7800D02*
D03*
X214200D02*
D03*
X8200Y261800D02*
D03*
X214200D02*
D03*
D28*
X18200Y7800D02*
D03*
X28200D02*
D03*
X38200D02*
D03*
X48200D02*
D03*
X58200D02*
D03*
X68200D02*
D03*
X78200D02*
D03*
X88200D02*
D03*
X98200D02*
D03*
X108200D02*
D03*
X118200D02*
D03*
X128200D02*
D03*
X138200D02*
D03*
X148200D02*
D03*
X158200D02*
D03*
X168200D02*
D03*
X178200D02*
D03*
X188200D02*
D03*
X198200D02*
D03*
X224200D02*
D03*
X234200D02*
D03*
X244200D02*
D03*
X254200D02*
D03*
X264200D02*
D03*
X274200D02*
D03*
X284200D02*
D03*
X294200D02*
D03*
X304200D02*
D03*
X314200D02*
D03*
X324200D02*
D03*
X334200D02*
D03*
X344200D02*
D03*
X354200D02*
D03*
X364200D02*
D03*
X374200D02*
D03*
X384200D02*
D03*
X394200D02*
D03*
X404200D02*
D03*
X18200Y261800D02*
D03*
X28200D02*
D03*
X38200D02*
D03*
X48200D02*
D03*
X58200D02*
D03*
X68200D02*
D03*
X78200D02*
D03*
X88200D02*
D03*
X98200D02*
D03*
X108200D02*
D03*
X118200D02*
D03*
X128200D02*
D03*
X138200D02*
D03*
X148200D02*
D03*
X158200D02*
D03*
X168200D02*
D03*
X178200D02*
D03*
X188200D02*
D03*
X198200D02*
D03*
X224200D02*
D03*
X234200D02*
D03*
X244200D02*
D03*
X254200D02*
D03*
X264200D02*
D03*
X274200D02*
D03*
X284200D02*
D03*
X294200D02*
D03*
X304200D02*
D03*
X314200D02*
D03*
X324200D02*
D03*
X334200D02*
D03*
X344200D02*
D03*
X354200D02*
D03*
X364200D02*
D03*
X374200D02*
D03*
X384200D02*
D03*
X394200D02*
D03*
X404200D02*
D03*
D29*
X97064Y78000D02*
D03*
X99623Y74063D02*
D03*
X102182Y78000D02*
D03*
X107300D02*
D03*
X104741Y74063D02*
D03*
X303064Y78000D02*
D03*
X305623Y74063D02*
D03*
X308182Y78000D02*
D03*
X313300D02*
D03*
X310741Y74063D02*
D03*
X97064Y332000D02*
D03*
X99623Y328063D02*
D03*
X102182Y332000D02*
D03*
X107300D02*
D03*
X104741Y328063D02*
D03*
X303064Y332000D02*
D03*
X305623Y328063D02*
D03*
X308182Y332000D02*
D03*
X313300D02*
D03*
X310741Y328063D02*
D03*
D30*
X88107Y77134D02*
D03*
X116257D02*
D03*
X294107D02*
D03*
X322257D02*
D03*
X88107Y331134D02*
D03*
X116257D02*
D03*
X294107D02*
D03*
X322257D02*
D03*
D31*
X150437Y185790D02*
D03*
Y189190D02*
D03*
X184795Y174537D02*
D03*
X159276Y194537D02*
D03*
X169010Y201063D02*
D03*
X188195Y174537D02*
D03*
X152412Y173752D02*
D03*
X150437Y182390D02*
D03*
X165610Y201063D02*
D03*
X186010D02*
D03*
X169288Y174537D02*
D03*
X186476Y194537D02*
D03*
X167050Y181475D02*
D03*
X179210Y201063D02*
D03*
X183076Y194537D02*
D03*
X158810Y201063D02*
D03*
X172410D02*
D03*
X188645Y171063D02*
D03*
X184834Y164537D02*
D03*
X176276Y194537D02*
D03*
X179676D02*
D03*
X187375Y181063D02*
D03*
X188234Y164537D02*
D03*
X155806Y173953D02*
D03*
X156963Y181846D02*
D03*
X175810Y201063D02*
D03*
X150437Y192590D02*
D03*
X156963Y188646D02*
D03*
X170425Y181063D02*
D03*
X166076Y194537D02*
D03*
X179196Y167990D02*
D03*
X162676Y194537D02*
D03*
X181600Y165586D02*
D03*
X159155Y174537D02*
D03*
X160271Y181063D02*
D03*
X185247Y171168D02*
D03*
X173800Y181475D02*
D03*
X172876Y194537D02*
D03*
X169476D02*
D03*
X163650Y181440D02*
D03*
X177175Y181063D02*
D03*
X182610Y201063D02*
D03*
X180575Y181063D02*
D03*
X162210Y201063D02*
D03*
X156963Y185246D02*
D03*
Y192046D02*
D03*
X183975Y181063D02*
D03*
X136700Y187500D02*
D03*
X46500Y107800D02*
D03*
X90100Y150000D02*
D03*
Y154700D02*
D03*
X33000Y107700D02*
D03*
X40200Y114500D02*
D03*
X50200Y104500D02*
D03*
X97267Y137500D02*
D03*
X80200Y159500D02*
D03*
X97700Y212000D02*
D03*
X84700Y152500D02*
D03*
Y157000D02*
D03*
X65400Y103295D02*
D03*
X67700Y107500D02*
D03*
X121700Y145500D02*
D03*
X113700Y143000D02*
D03*
X133456Y201744D02*
D03*
X57700Y95000D02*
D03*
Y78000D02*
D03*
Y60500D02*
D03*
X72200Y31500D02*
D03*
X64200Y21000D02*
D03*
X78700Y134000D02*
D03*
X81700D02*
D03*
X85200D02*
D03*
X88700D02*
D03*
X87700Y104000D02*
D03*
X93200Y90500D02*
D03*
X110944Y198244D02*
D03*
X30200Y69500D02*
D03*
X45200Y159500D02*
D03*
X82700Y234500D02*
D03*
X165200Y99500D02*
D03*
X142700Y144500D02*
D03*
X52700Y114500D02*
D03*
X30200Y219500D02*
D03*
X22700Y54500D02*
D03*
X187700Y24500D02*
D03*
X150200Y39500D02*
D03*
X97700Y204500D02*
D03*
X52700Y144500D02*
D03*
X60200Y219500D02*
D03*
X97700Y174500D02*
D03*
X142700Y54500D02*
D03*
X82700Y24500D02*
D03*
X187700Y114500D02*
D03*
Y54500D02*
D03*
X142700Y24500D02*
D03*
X22700Y174500D02*
D03*
X82700Y204500D02*
D03*
X75200Y99500D02*
D03*
X67700Y144500D02*
D03*
X97700Y114500D02*
D03*
X37700Y174500D02*
D03*
X22700Y204500D02*
D03*
Y144500D02*
D03*
X172700Y114500D02*
D03*
X142700D02*
D03*
X75200Y69500D02*
D03*
X37700Y204500D02*
D03*
X120200Y189500D02*
D03*
X90200Y69500D02*
D03*
X142700Y84500D02*
D03*
Y234500D02*
D03*
X112700D02*
D03*
X105200Y219500D02*
D03*
X112700Y24500D02*
D03*
X45200Y129500D02*
D03*
Y99500D02*
D03*
X30200Y129500D02*
D03*
X45200Y39500D02*
D03*
X150200Y159500D02*
D03*
X45200Y189500D02*
D03*
X172700Y24500D02*
D03*
X90200Y219500D02*
D03*
X67700Y204500D02*
D03*
X22700Y84500D02*
D03*
X52700Y234500D02*
D03*
X67700Y174500D02*
D03*
X30200Y39500D02*
D03*
X105200Y69500D02*
D03*
X45200D02*
D03*
X172700Y54500D02*
D03*
X82700Y84500D02*
D03*
X165200Y129500D02*
D03*
X75200Y159500D02*
D03*
X22700Y24500D02*
D03*
X135200Y69500D02*
D03*
X120200Y129500D02*
D03*
Y39500D02*
D03*
X172700Y144500D02*
D03*
X188200Y142500D02*
D03*
X128700Y220000D02*
D03*
X159700Y220500D02*
D03*
X132200Y169500D02*
D03*
X108700Y193500D02*
D03*
X101353Y167500D02*
D03*
X98100D02*
D03*
X111700Y176906D02*
D03*
Y179905D02*
D03*
X126200Y180500D02*
D03*
X131200Y182500D02*
D03*
X126200Y184000D02*
D03*
X125200Y158500D02*
D03*
X127700Y156500D02*
D03*
X139700Y92000D02*
D03*
X131700Y77000D02*
D03*
X106200Y167000D02*
D03*
X111700Y173500D02*
D03*
X135200Y129000D02*
D03*
Y102000D02*
D03*
X55200Y50000D02*
D03*
X75333Y40000D02*
D03*
X356437Y185790D02*
D03*
Y189190D02*
D03*
X390795Y174537D02*
D03*
X365276Y194537D02*
D03*
X375010Y201063D02*
D03*
X394195Y174537D02*
D03*
X358412Y173752D02*
D03*
X356437Y182390D02*
D03*
X371610Y201063D02*
D03*
X392010D02*
D03*
X375288Y174537D02*
D03*
X392476Y194537D02*
D03*
X373050Y181475D02*
D03*
X385210Y201063D02*
D03*
X389076Y194537D02*
D03*
X364810Y201063D02*
D03*
X378410D02*
D03*
X394645Y171063D02*
D03*
X390834Y164537D02*
D03*
X382276Y194537D02*
D03*
X385676D02*
D03*
X393375Y181063D02*
D03*
X394234Y164537D02*
D03*
X361806Y173953D02*
D03*
X362963Y181846D02*
D03*
X381810Y201063D02*
D03*
X356437Y192590D02*
D03*
X362963Y188646D02*
D03*
X376425Y181063D02*
D03*
X372076Y194537D02*
D03*
X385196Y167990D02*
D03*
X368676Y194537D02*
D03*
X387600Y165586D02*
D03*
X365155Y174537D02*
D03*
X366271Y181063D02*
D03*
X391247Y171168D02*
D03*
X379800Y181475D02*
D03*
X378876Y194537D02*
D03*
X375476D02*
D03*
X369650Y181440D02*
D03*
X383175Y181063D02*
D03*
X388610Y201063D02*
D03*
X386575Y181063D02*
D03*
X368210Y201063D02*
D03*
X362963Y185246D02*
D03*
Y192046D02*
D03*
X389975Y181063D02*
D03*
X342700Y187500D02*
D03*
X252500Y107800D02*
D03*
X296100Y150000D02*
D03*
Y154700D02*
D03*
X239000Y107700D02*
D03*
X246200Y114500D02*
D03*
X256200Y104500D02*
D03*
X303267Y137500D02*
D03*
X286200Y159500D02*
D03*
X303700Y212000D02*
D03*
X290700Y152500D02*
D03*
Y157000D02*
D03*
X271400Y103295D02*
D03*
X273700Y107500D02*
D03*
X327700Y145500D02*
D03*
X319700Y143000D02*
D03*
X339456Y201744D02*
D03*
X263700Y95000D02*
D03*
Y78000D02*
D03*
Y60500D02*
D03*
X278200Y31500D02*
D03*
X270200Y21000D02*
D03*
X284700Y134000D02*
D03*
X287700D02*
D03*
X291200D02*
D03*
X294700D02*
D03*
X293700Y104000D02*
D03*
X299200Y90500D02*
D03*
X316944Y198244D02*
D03*
X236200Y69500D02*
D03*
X251200Y159500D02*
D03*
X288700Y234500D02*
D03*
X371200Y99500D02*
D03*
X348700Y144500D02*
D03*
X258700Y114500D02*
D03*
X236200Y219500D02*
D03*
X228700Y54500D02*
D03*
X393700Y24500D02*
D03*
X356200Y39500D02*
D03*
X303700Y204500D02*
D03*
X258700Y144500D02*
D03*
X266200Y219500D02*
D03*
X303700Y174500D02*
D03*
X348700Y54500D02*
D03*
X288700Y24500D02*
D03*
X393700Y114500D02*
D03*
Y54500D02*
D03*
X348700Y24500D02*
D03*
X228700Y174500D02*
D03*
X288700Y204500D02*
D03*
X281200Y99500D02*
D03*
X273700Y144500D02*
D03*
X303700Y114500D02*
D03*
X243700Y174500D02*
D03*
X228700Y204500D02*
D03*
Y144500D02*
D03*
X378700Y114500D02*
D03*
X348700D02*
D03*
X281200Y69500D02*
D03*
X243700Y204500D02*
D03*
X326200Y189500D02*
D03*
X296200Y69500D02*
D03*
X348700Y84500D02*
D03*
Y234500D02*
D03*
X318700D02*
D03*
X311200Y219500D02*
D03*
X318700Y24500D02*
D03*
X251200Y129500D02*
D03*
Y99500D02*
D03*
X236200Y129500D02*
D03*
X251200Y39500D02*
D03*
X356200Y159500D02*
D03*
X251200Y189500D02*
D03*
X378700Y24500D02*
D03*
X296200Y219500D02*
D03*
X273700Y204500D02*
D03*
X228700Y84500D02*
D03*
X258700Y234500D02*
D03*
X273700Y174500D02*
D03*
X236200Y39500D02*
D03*
X311200Y69500D02*
D03*
X251200D02*
D03*
X378700Y54500D02*
D03*
X288700Y84500D02*
D03*
X371200Y129500D02*
D03*
X281200Y159500D02*
D03*
X228700Y24500D02*
D03*
X341200Y69500D02*
D03*
X326200Y129500D02*
D03*
Y39500D02*
D03*
X378700Y144500D02*
D03*
X394200Y142500D02*
D03*
X334700Y220000D02*
D03*
X365700Y220500D02*
D03*
X338200Y169500D02*
D03*
X314700Y193500D02*
D03*
X307352Y167500D02*
D03*
X304100D02*
D03*
X317700Y176906D02*
D03*
Y179905D02*
D03*
X332200Y180500D02*
D03*
X337200Y182500D02*
D03*
X332200Y184000D02*
D03*
X331200Y158500D02*
D03*
X333700Y156500D02*
D03*
X345700Y92000D02*
D03*
X337700Y77000D02*
D03*
X312200Y167000D02*
D03*
X317700Y173500D02*
D03*
X341200Y129000D02*
D03*
Y102000D02*
D03*
X261200Y50000D02*
D03*
X281333Y40000D02*
D03*
X150437Y439790D02*
D03*
Y443190D02*
D03*
X184795Y428537D02*
D03*
X159276Y448537D02*
D03*
X169010Y455063D02*
D03*
X188195Y428537D02*
D03*
X152412Y427752D02*
D03*
X150437Y436390D02*
D03*
X165610Y455063D02*
D03*
X186010D02*
D03*
X169288Y428537D02*
D03*
X186476Y448537D02*
D03*
X167050Y435475D02*
D03*
X179210Y455063D02*
D03*
X183076Y448537D02*
D03*
X158810Y455063D02*
D03*
X172410D02*
D03*
X188645Y425063D02*
D03*
X184834Y418537D02*
D03*
X176276Y448537D02*
D03*
X179676D02*
D03*
X187375Y435063D02*
D03*
X188234Y418537D02*
D03*
X155806Y427953D02*
D03*
X156963Y435846D02*
D03*
X175810Y455063D02*
D03*
X150437Y446590D02*
D03*
X156963Y442646D02*
D03*
X170425Y435063D02*
D03*
X166076Y448537D02*
D03*
X179196Y421990D02*
D03*
X162676Y448537D02*
D03*
X181600Y419586D02*
D03*
X159155Y428537D02*
D03*
X160271Y435063D02*
D03*
X185247Y425168D02*
D03*
X173800Y435475D02*
D03*
X172876Y448537D02*
D03*
X169476D02*
D03*
X163650Y435440D02*
D03*
X177175Y435063D02*
D03*
X182610Y455063D02*
D03*
X180575Y435063D02*
D03*
X162210Y455063D02*
D03*
X156963Y439246D02*
D03*
Y446046D02*
D03*
X183975Y435063D02*
D03*
X136700Y441500D02*
D03*
X46500Y361800D02*
D03*
X90100Y404000D02*
D03*
Y408700D02*
D03*
X33000Y361700D02*
D03*
X40200Y368500D02*
D03*
X50200Y358500D02*
D03*
X97267Y391500D02*
D03*
X80200Y413500D02*
D03*
X97700Y466000D02*
D03*
X84700Y406500D02*
D03*
Y411000D02*
D03*
X65400Y357295D02*
D03*
X67700Y361500D02*
D03*
X121700Y399500D02*
D03*
X113700Y397000D02*
D03*
X133456Y455744D02*
D03*
X57700Y349000D02*
D03*
Y332000D02*
D03*
Y314500D02*
D03*
X72200Y285500D02*
D03*
X64200Y275000D02*
D03*
X78700Y388000D02*
D03*
X81700D02*
D03*
X85200D02*
D03*
X88700D02*
D03*
X87700Y358000D02*
D03*
X93200Y344500D02*
D03*
X110944Y452244D02*
D03*
X30200Y323500D02*
D03*
X45200Y413500D02*
D03*
X82700Y488500D02*
D03*
X165200Y353500D02*
D03*
X142700Y398500D02*
D03*
X52700Y368500D02*
D03*
X30200Y473500D02*
D03*
X22700Y308500D02*
D03*
X187700Y278500D02*
D03*
X150200Y293500D02*
D03*
X97700Y458500D02*
D03*
X52700Y398500D02*
D03*
X60200Y473500D02*
D03*
X97700Y428500D02*
D03*
X142700Y308500D02*
D03*
X82700Y278500D02*
D03*
X187700Y368500D02*
D03*
Y308500D02*
D03*
X142700Y278500D02*
D03*
X22700Y428500D02*
D03*
X82700Y458500D02*
D03*
X75200Y353500D02*
D03*
X67700Y398500D02*
D03*
X97700Y368500D02*
D03*
X37700Y428500D02*
D03*
X22700Y458500D02*
D03*
Y398500D02*
D03*
X172700Y368500D02*
D03*
X142700D02*
D03*
X75200Y323500D02*
D03*
X37700Y458500D02*
D03*
X120200Y443500D02*
D03*
X90200Y323500D02*
D03*
X142700Y338500D02*
D03*
Y488500D02*
D03*
X112700D02*
D03*
X105200Y473500D02*
D03*
X112700Y278500D02*
D03*
X45200Y383500D02*
D03*
Y353500D02*
D03*
X30200Y383500D02*
D03*
X45200Y293500D02*
D03*
X150200Y413500D02*
D03*
X45200Y443500D02*
D03*
X172700Y278500D02*
D03*
X90200Y473500D02*
D03*
X67700Y458500D02*
D03*
X22700Y338500D02*
D03*
X52700Y488500D02*
D03*
X67700Y428500D02*
D03*
X30200Y293500D02*
D03*
X105200Y323500D02*
D03*
X45200D02*
D03*
X172700Y308500D02*
D03*
X82700Y338500D02*
D03*
X165200Y383500D02*
D03*
X75200Y413500D02*
D03*
X22700Y278500D02*
D03*
X135200Y323500D02*
D03*
X120200Y383500D02*
D03*
Y293500D02*
D03*
X172700Y398500D02*
D03*
X188200Y396500D02*
D03*
X128700Y474000D02*
D03*
X159700Y474500D02*
D03*
X132200Y423500D02*
D03*
X108700Y447500D02*
D03*
X101353Y421500D02*
D03*
X98100D02*
D03*
X111700Y430905D02*
D03*
Y433906D02*
D03*
X126200Y434500D02*
D03*
X131200Y436500D02*
D03*
X126200Y438000D02*
D03*
X125200Y412500D02*
D03*
X127700Y410500D02*
D03*
X139700Y346000D02*
D03*
X131700Y331000D02*
D03*
X106200Y421000D02*
D03*
X111700Y427500D02*
D03*
X135200Y383000D02*
D03*
Y356000D02*
D03*
X55200Y304000D02*
D03*
X75333Y294000D02*
D03*
X356437Y439790D02*
D03*
Y443190D02*
D03*
X390795Y428537D02*
D03*
X365276Y448537D02*
D03*
X375010Y455063D02*
D03*
X394195Y428537D02*
D03*
X358412Y427752D02*
D03*
X356437Y436390D02*
D03*
X371610Y455063D02*
D03*
X392010D02*
D03*
X375288Y428537D02*
D03*
X392476Y448537D02*
D03*
X373050Y435475D02*
D03*
X385210Y455063D02*
D03*
X389076Y448537D02*
D03*
X364810Y455063D02*
D03*
X378410D02*
D03*
X394645Y425063D02*
D03*
X390834Y418537D02*
D03*
X382276Y448537D02*
D03*
X385676D02*
D03*
X393375Y435063D02*
D03*
X394234Y418537D02*
D03*
X361806Y427953D02*
D03*
X362963Y435846D02*
D03*
X381810Y455063D02*
D03*
X356437Y446590D02*
D03*
X362963Y442646D02*
D03*
X376425Y435063D02*
D03*
X372076Y448537D02*
D03*
X385196Y421990D02*
D03*
X368676Y448537D02*
D03*
X387600Y419586D02*
D03*
X365155Y428537D02*
D03*
X366271Y435063D02*
D03*
X391247Y425168D02*
D03*
X379800Y435475D02*
D03*
X378876Y448537D02*
D03*
X375476D02*
D03*
X369650Y435440D02*
D03*
X383175Y435063D02*
D03*
X388610Y455063D02*
D03*
X386575Y435063D02*
D03*
X368210Y455063D02*
D03*
X362963Y439246D02*
D03*
Y446046D02*
D03*
X389975Y435063D02*
D03*
X342700Y441500D02*
D03*
X252500Y361800D02*
D03*
X296100Y404000D02*
D03*
Y408700D02*
D03*
X239000Y361700D02*
D03*
X246200Y368500D02*
D03*
X256200Y358500D02*
D03*
X303267Y391500D02*
D03*
X286200Y413500D02*
D03*
X303700Y466000D02*
D03*
X290700Y406500D02*
D03*
Y411000D02*
D03*
X271400Y357295D02*
D03*
X273700Y361500D02*
D03*
X327700Y399500D02*
D03*
X319700Y397000D02*
D03*
X339456Y455744D02*
D03*
X263700Y349000D02*
D03*
Y332000D02*
D03*
Y314500D02*
D03*
X278200Y285500D02*
D03*
X270200Y275000D02*
D03*
X284700Y388000D02*
D03*
X287700D02*
D03*
X291200D02*
D03*
X294700D02*
D03*
X293700Y358000D02*
D03*
X299200Y344500D02*
D03*
X316944Y452244D02*
D03*
X236200Y323500D02*
D03*
X251200Y413500D02*
D03*
X288700Y488500D02*
D03*
X371200Y353500D02*
D03*
X348700Y398500D02*
D03*
X258700Y368500D02*
D03*
X236200Y473500D02*
D03*
X228700Y308500D02*
D03*
X393700Y278500D02*
D03*
X356200Y293500D02*
D03*
X303700Y458500D02*
D03*
X258700Y398500D02*
D03*
X266200Y473500D02*
D03*
X303700Y428500D02*
D03*
X348700Y308500D02*
D03*
X288700Y278500D02*
D03*
X393700Y368500D02*
D03*
Y308500D02*
D03*
X348700Y278500D02*
D03*
X228700Y428500D02*
D03*
X288700Y458500D02*
D03*
X281200Y353500D02*
D03*
X273700Y398500D02*
D03*
X303700Y368500D02*
D03*
X243700Y428500D02*
D03*
X228700Y458500D02*
D03*
Y398500D02*
D03*
X378700Y368500D02*
D03*
X348700D02*
D03*
X281200Y323500D02*
D03*
X243700Y458500D02*
D03*
X326200Y443500D02*
D03*
X296200Y323500D02*
D03*
X348700Y338500D02*
D03*
Y488500D02*
D03*
X318700D02*
D03*
X311200Y473500D02*
D03*
X318700Y278500D02*
D03*
X251200Y383500D02*
D03*
Y353500D02*
D03*
X236200Y383500D02*
D03*
X251200Y293500D02*
D03*
X356200Y413500D02*
D03*
X251200Y443500D02*
D03*
X378700Y278500D02*
D03*
X296200Y473500D02*
D03*
X273700Y458500D02*
D03*
X228700Y338500D02*
D03*
X258700Y488500D02*
D03*
X273700Y428500D02*
D03*
X236200Y293500D02*
D03*
X311200Y323500D02*
D03*
X251200D02*
D03*
X378700Y308500D02*
D03*
X288700Y338500D02*
D03*
X371200Y383500D02*
D03*
X281200Y413500D02*
D03*
X228700Y278500D02*
D03*
X341200Y323500D02*
D03*
X326200Y383500D02*
D03*
Y293500D02*
D03*
X378700Y398500D02*
D03*
X394200Y396500D02*
D03*
X334700Y474000D02*
D03*
X365700Y474500D02*
D03*
X338200Y423500D02*
D03*
X314700Y447500D02*
D03*
X307352Y421500D02*
D03*
X304100D02*
D03*
X317700Y430905D02*
D03*
Y433906D02*
D03*
X332200Y434500D02*
D03*
X337200Y436500D02*
D03*
X332200Y438000D02*
D03*
X331200Y412500D02*
D03*
X333700Y410500D02*
D03*
X345700Y346000D02*
D03*
X337700Y331000D02*
D03*
X312200Y421000D02*
D03*
X317700Y427500D02*
D03*
X341200Y383000D02*
D03*
Y356000D02*
D03*
X261200Y304000D02*
D03*
X281333Y294000D02*
D03*
D32*
X146200Y132000D02*
D03*
X168200Y65600D02*
D03*
X352200Y132000D02*
D03*
X374200Y65600D02*
D03*
X146200Y386000D02*
D03*
X168200Y319600D02*
D03*
X352200Y386000D02*
D03*
X374200Y319600D02*
D03*
D33*
X132200Y175000D02*
D03*
Y178243D02*
D03*
X338200Y175000D02*
D03*
Y178243D02*
D03*
X132200Y429000D02*
D03*
Y432243D02*
D03*
X338200Y429000D02*
D03*
Y432243D02*
D03*
M02*
